0, 0, Header, 1, 18, 192
1, 0, Start_track
1, 0, Time_signature, 4, 2, 24, 8
1, 0, Tempo, 468750
1, 262143, End_track
2, 0, Start_track
2, 0, Text_t, "Synth Pad"
2, 2880, Control_c, 0, 0, 0
2, 2882, Control_c, 0, 32, 0
2, 2884, Program_c, 0, 89
2, 2886, Control_c, 0, 7, 100
2, 2888, Control_c, 0, 10, 64
2, 2890, Control_c, 0, 11, 80
2, 2892, Control_c, 0, 91, 40
2, 2894, Control_c, 0, 93, 110
2, 3744, Note_on_c, 0, 58, 107
2, 4032, Note_off_c, 0, 58, 107
2, 4512, Note_on_c, 0, 70, 107
2, 4800, Note_off_c, 0, 70, 107
2, 6816, Note_on_c, 0, 58, 107
2, 7104, Note_off_c, 0, 58, 107
2, 7584, Note_on_c, 0, 70, 107
2, 7872, Note_off_c, 0, 70, 107
2, 32160, Note_on_c, 0, 86, 60
2, 32160, Note_on_c, 0, 82, 60
2, 32256, Note_off_c, 0, 82, 60
2, 32256, Note_off_c, 0, 86, 60
2, 32256, Note_on_c, 0, 79, 60
2, 32256, Note_on_c, 0, 84, 60
2, 32736, Note_off_c, 0, 84, 60
2, 32736, Note_off_c, 0, 79, 60
2, 32928, Note_on_c, 0, 86, 60
2, 32928, Note_on_c, 0, 82, 60
2, 33024, Note_on_c, 0, 84, 60
2, 33024, Note_on_c, 0, 79, 60
2, 33030, Note_off_c, 0, 82, 60
2, 33030, Note_off_c, 0, 86, 60
2, 33504, Note_off_c, 0, 79, 60
2, 33504, Note_off_c, 0, 84, 60
2, 33792, Note_on_c, 0, 86, 40
2, 33792, Note_on_c, 0, 82, 40
2, 33792, Note_on_c, 0, 79, 40
2, 34932, Note_off_c, 0, 79, 40
2, 34932, Note_off_c, 0, 82, 40
2, 34932, Note_off_c, 0, 86, 40
2, 35328, Note_on_c, 0, 79, 60
2, 35328, Note_on_c, 0, 84, 60
2, 35808, Note_off_c, 0, 84, 60
2, 35808, Note_off_c, 0, 79, 60
2, 36000, Note_on_c, 0, 86, 60
2, 36000, Note_on_c, 0, 82, 60
2, 36096, Note_on_c, 0, 84, 60
2, 36096, Note_on_c, 0, 79, 60
2, 36102, Note_off_c, 0, 82, 60
2, 36102, Note_off_c, 0, 86, 60
2, 36576, Note_off_c, 0, 79, 60
2, 36576, Note_off_c, 0, 84, 60
2, 36864, Note_on_c, 0, 86, 40
2, 36864, Note_on_c, 0, 82, 40
2, 36864, Note_on_c, 0, 79, 40
2, 37440, Note_off_c, 0, 82, 40
2, 37632, Note_on_c, 0, 84, 60
2, 37824, Note_off_c, 0, 84, 60
2, 37824, Note_on_c, 0, 81, 60
2, 37920, Note_off_c, 0, 81, 60
2, 37920, Note_on_c, 0, 82, 60
2, 38208, Note_off_c, 0, 82, 60
2, 38208, Note_off_c, 0, 79, 40
2, 38208, Note_off_c, 0, 86, 40
2, 38400, Note_on_c, 0, 79, 60
2, 38400, Note_on_c, 0, 84, 60
2, 38880, Note_off_c, 0, 84, 60
2, 38880, Note_off_c, 0, 79, 60
2, 39072, Note_on_c, 0, 86, 60
2, 39072, Note_on_c, 0, 82, 60
2, 39168, Note_on_c, 0, 84, 60
2, 39168, Note_on_c, 0, 79, 60
2, 39174, Note_off_c, 0, 82, 60
2, 39174, Note_off_c, 0, 86, 60
2, 39648, Note_off_c, 0, 79, 60
2, 39648, Note_off_c, 0, 84, 60
2, 39936, Note_on_c, 0, 86, 40
2, 39936, Note_on_c, 0, 82, 40
2, 39936, Note_on_c, 0, 79, 40
2, 40512, Note_off_c, 0, 82, 40
2, 40704, Note_on_c, 0, 84, 60
2, 40896, Note_off_c, 0, 84, 60
2, 40896, Note_on_c, 0, 81, 60
2, 40992, Note_off_c, 0, 81, 60
2, 40992, Note_on_c, 0, 82, 60
2, 41280, Note_off_c, 0, 82, 60
2, 41280, Note_off_c, 0, 79, 40
2, 41280, Note_off_c, 0, 86, 40
2, 41472, Note_on_c, 0, 79, 60
2, 41472, Note_on_c, 0, 84, 60
2, 41952, Note_off_c, 0, 84, 60
2, 41952, Note_off_c, 0, 79, 60
2, 42144, Note_on_c, 0, 86, 60
2, 42144, Note_on_c, 0, 82, 60
2, 42240, Note_on_c, 0, 84, 60
2, 42240, Note_on_c, 0, 79, 60
2, 42246, Note_off_c, 0, 82, 60
2, 42246, Note_off_c, 0, 86, 60
2, 42720, Note_off_c, 0, 79, 60
2, 42720, Note_off_c, 0, 84, 60
2, 43008, Note_on_c, 0, 79, 110
2, 43200, Note_off_c, 0, 79, 110
2, 43200, Note_on_c, 0, 82, 110
2, 43288, Note_off_c, 0, 82, 110
2, 43296, Note_on_c, 0, 82, 110
2, 43384, Note_off_c, 0, 82, 110
2, 43680, Note_on_c, 0, 79, 110
2, 43768, Note_off_c, 0, 79, 110
2, 43776, Note_on_c, 0, 82, 110
2, 43968, Note_off_c, 0, 82, 110
2, 43968, Note_on_c, 0, 84, 110
2, 44056, Note_off_c, 0, 84, 110
2, 44064, Note_on_c, 0, 84, 110
2, 44256, Note_off_c, 0, 84, 110
2, 44256, Note_on_c, 0, 82, 110
2, 44352, Note_off_c, 0, 82, 110
2, 44544, Note_on_c, 0, 79, 110
2, 44736, Note_off_c, 0, 79, 110
2, 44736, Note_on_c, 0, 82, 110
2, 44824, Note_off_c, 0, 82, 110
2, 44832, Note_on_c, 0, 82, 110
2, 45024, Note_off_c, 0, 82, 110
2, 45216, Note_on_c, 0, 79, 110
2, 45304, Note_off_c, 0, 79, 110
2, 45312, Note_on_c, 0, 82, 110
2, 45400, Note_off_c, 0, 82, 110
2, 45408, Note_on_c, 0, 84, 110
2, 45496, Note_off_c, 0, 84, 110
2, 45504, Note_on_c, 0, 86, 110
2, 45696, Note_off_c, 0, 86, 110
2, 45696, Note_on_c, 0, 82, 110
2, 45784, Note_off_c, 0, 82, 110
2, 46080, Note_on_c, 0, 79, 110
2, 46272, Note_off_c, 0, 79, 110
2, 46272, Note_on_c, 0, 82, 110
2, 46360, Note_off_c, 0, 82, 110
2, 46368, Note_on_c, 0, 82, 110
2, 46456, Note_off_c, 0, 82, 110
2, 47136, Note_on_c, 0, 84, 110
2, 47328, Note_off_c, 0, 84, 110
2, 47328, Note_on_c, 0, 86, 110
2, 47424, Note_off_c, 0, 86, 110
2, 47424, Note_on_c, 0, 82, 110
2, 47520, Note_off_c, 0, 82, 110
2, 47616, Note_on_c, 0, 79, 110
2, 47808, Note_off_c, 0, 79, 110
2, 47808, Note_on_c, 0, 82, 110
2, 47896, Note_off_c, 0, 82, 110
2, 47904, Note_on_c, 0, 79, 110
2, 47992, Note_off_c, 0, 79, 110
2, 48000, Note_on_c, 0, 82, 110
2, 48192, Note_off_c, 0, 82, 110
2, 48192, Note_on_c, 0, 84, 110
2, 48384, Note_off_c, 0, 84, 110
2, 48384, Note_on_c, 0, 86, 110
2, 48472, Note_off_c, 0, 86, 110
2, 48480, Note_on_c, 0, 84, 110
2, 48568, Note_off_c, 0, 84, 110
2, 48576, Note_on_c, 0, 81, 110
2, 48664, Note_off_c, 0, 81, 110
2, 48672, Note_on_c, 0, 77, 110
2, 49152, Note_off_c, 0, 77, 110
2, 50400, Note_on_c, 0, 86, 60
2, 50400, Note_on_c, 0, 82, 60
2, 50684, Note_off_c, 0, 82, 60
2, 50684, Note_off_c, 0, 86, 60
2, 50688, Note_on_c, 0, 79, 60
2, 50688, Note_on_c, 0, 84, 60
2, 51168, Note_off_c, 0, 84, 60
2, 51168, Note_off_c, 0, 79, 60
2, 51360, Note_on_c, 0, 86, 60
2, 51360, Note_on_c, 0, 82, 60
2, 51456, Note_on_c, 0, 84, 60
2, 51456, Note_on_c, 0, 79, 60
2, 51462, Note_off_c, 0, 82, 60
2, 51462, Note_off_c, 0, 86, 60
2, 51936, Note_off_c, 0, 79, 60
2, 51936, Note_off_c, 0, 84, 60
2, 52224, Note_on_c, 0, 86, 40
2, 52224, Note_on_c, 0, 82, 40
2, 52224, Note_on_c, 0, 79, 40
2, 53364, Note_off_c, 0, 79, 40
2, 53364, Note_off_c, 0, 82, 40
2, 53364, Note_off_c, 0, 86, 40
2, 53760, Note_on_c, 0, 79, 60
2, 53760, Note_on_c, 0, 84, 60
2, 54240, Note_off_c, 0, 84, 60
2, 54240, Note_off_c, 0, 79, 60
2, 54432, Note_on_c, 0, 86, 60
2, 54432, Note_on_c, 0, 82, 60
2, 54528, Note_on_c, 0, 84, 60
2, 54528, Note_on_c, 0, 79, 60
2, 54534, Note_off_c, 0, 82, 60
2, 54534, Note_off_c, 0, 86, 60
2, 55008, Note_off_c, 0, 79, 60
2, 55008, Note_off_c, 0, 84, 60
2, 55296, Note_on_c, 0, 86, 40
2, 55296, Note_on_c, 0, 82, 40
2, 55296, Note_on_c, 0, 79, 40
2, 55872, Note_off_c, 0, 82, 40
2, 56064, Note_on_c, 0, 84, 60
2, 56256, Note_off_c, 0, 84, 60
2, 56256, Note_on_c, 0, 81, 60
2, 56352, Note_off_c, 0, 81, 60
2, 56352, Note_on_c, 0, 82, 60
2, 56640, Note_off_c, 0, 82, 60
2, 56640, Note_off_c, 0, 79, 40
2, 56640, Note_off_c, 0, 86, 40
2, 56832, Note_on_c, 0, 79, 60
2, 56832, Note_on_c, 0, 84, 60
2, 57312, Note_off_c, 0, 84, 60
2, 57312, Note_off_c, 0, 79, 60
2, 57504, Note_on_c, 0, 86, 60
2, 57504, Note_on_c, 0, 82, 60
2, 57600, Note_on_c, 0, 84, 60
2, 57600, Note_on_c, 0, 79, 60
2, 57606, Note_off_c, 0, 82, 60
2, 57606, Note_off_c, 0, 86, 60
2, 58080, Note_off_c, 0, 79, 60
2, 58080, Note_off_c, 0, 84, 60
2, 58368, Note_on_c, 0, 86, 40
2, 58368, Note_on_c, 0, 82, 40
2, 58368, Note_on_c, 0, 79, 40
2, 58944, Note_off_c, 0, 82, 40
2, 59136, Note_on_c, 0, 84, 60
2, 59328, Note_off_c, 0, 84, 60
2, 59328, Note_on_c, 0, 81, 60
2, 59424, Note_off_c, 0, 81, 60
2, 59424, Note_on_c, 0, 82, 60
2, 59712, Note_off_c, 0, 82, 60
2, 59712, Note_off_c, 0, 79, 40
2, 59712, Note_off_c, 0, 86, 40
2, 59904, Note_on_c, 0, 79, 60
2, 59904, Note_on_c, 0, 84, 60
2, 60384, Note_off_c, 0, 84, 60
2, 60384, Note_off_c, 0, 79, 60
2, 60576, Note_on_c, 0, 86, 60
2, 60576, Note_on_c, 0, 82, 60
2, 60672, Note_on_c, 0, 84, 60
2, 60672, Note_on_c, 0, 79, 60
2, 60678, Note_off_c, 0, 82, 60
2, 60678, Note_off_c, 0, 86, 60
2, 61152, Note_off_c, 0, 79, 60
2, 61152, Note_off_c, 0, 84, 60
2, 61440, Note_on_c, 0, 79, 110
2, 61632, Note_off_c, 0, 79, 110
2, 61632, Note_on_c, 0, 82, 110
2, 61720, Note_off_c, 0, 82, 110
2, 61728, Note_on_c, 0, 82, 110
2, 61816, Note_off_c, 0, 82, 110
2, 62112, Note_on_c, 0, 79, 110
2, 62200, Note_off_c, 0, 79, 110
2, 62208, Note_on_c, 0, 82, 110
2, 62400, Note_off_c, 0, 82, 110
2, 62400, Note_on_c, 0, 84, 110
2, 62488, Note_off_c, 0, 84, 110
2, 62496, Note_on_c, 0, 84, 110
2, 62688, Note_off_c, 0, 84, 110
2, 62688, Note_on_c, 0, 82, 110
2, 62784, Note_off_c, 0, 82, 110
2, 62976, Note_on_c, 0, 79, 110
2, 63168, Note_off_c, 0, 79, 110
2, 63168, Note_on_c, 0, 82, 110
2, 63256, Note_off_c, 0, 82, 110
2, 63264, Note_on_c, 0, 82, 110
2, 63456, Note_off_c, 0, 82, 110
2, 63648, Note_on_c, 0, 79, 110
2, 63736, Note_off_c, 0, 79, 110
2, 63744, Note_on_c, 0, 82, 110
2, 63832, Note_off_c, 0, 82, 110
2, 63840, Note_on_c, 0, 84, 110
2, 63928, Note_off_c, 0, 84, 110
2, 63936, Note_on_c, 0, 86, 110
2, 64128, Note_off_c, 0, 86, 110
2, 64128, Note_on_c, 0, 82, 110
2, 64216, Note_off_c, 0, 82, 110
2, 64512, Note_on_c, 0, 79, 110
2, 64704, Note_off_c, 0, 79, 110
2, 64704, Note_on_c, 0, 82, 110
2, 64792, Note_off_c, 0, 82, 110
2, 64800, Note_on_c, 0, 82, 110
2, 64888, Note_off_c, 0, 82, 110
2, 65568, Note_on_c, 0, 84, 110
2, 65760, Note_off_c, 0, 84, 110
2, 65760, Note_on_c, 0, 86, 110
2, 65856, Note_off_c, 0, 86, 110
2, 65856, Note_on_c, 0, 82, 110
2, 65952, Note_off_c, 0, 82, 110
2, 66048, Note_on_c, 0, 79, 110
2, 66240, Note_off_c, 0, 79, 110
2, 66240, Note_on_c, 0, 82, 110
2, 66328, Note_off_c, 0, 82, 110
2, 66336, Note_on_c, 0, 79, 110
2, 66424, Note_off_c, 0, 79, 110
2, 66432, Note_on_c, 0, 82, 110
2, 66624, Note_off_c, 0, 82, 110
2, 66624, Note_on_c, 0, 84, 110
2, 66816, Note_off_c, 0, 84, 110
2, 66816, Note_on_c, 0, 86, 110
2, 66904, Note_off_c, 0, 86, 110
2, 66912, Note_on_c, 0, 84, 110
2, 67000, Note_off_c, 0, 84, 110
2, 67008, Note_on_c, 0, 81, 110
2, 67096, Note_off_c, 0, 81, 110
2, 67104, Note_on_c, 0, 77, 110
2, 67584, Note_off_c, 0, 77, 110
2, 79872, Note_on_c, 0, 79, 70
2, 79872, Note_on_c, 0, 82, 70
2, 80064, Note_off_c, 0, 82, 70
2, 80064, Note_off_c, 0, 79, 70
2, 80832, Note_on_c, 0, 84, 70
2, 80832, Note_on_c, 0, 79, 70
2, 81120, Note_off_c, 0, 84, 70
2, 81120, Note_on_c, 0, 82, 70
2, 81216, Note_off_c, 0, 82, 70
2, 81216, Note_off_c, 0, 79, 70
2, 82080, Note_on_c, 0, 79, 70
2, 82080, Note_on_c, 0, 82, 70
2, 82368, Note_off_c, 0, 79, 70
2, 82384, Note_off_c, 0, 82, 70
2, 83904, Note_on_c, 0, 84, 70
2, 83904, Note_on_c, 0, 79, 70
2, 84192, Note_off_c, 0, 84, 70
2, 84192, Note_on_c, 0, 82, 70
2, 84288, Note_off_c, 0, 82, 70
2, 84288, Note_off_c, 0, 79, 70
2, 85152, Note_on_c, 0, 84, 70
2, 85152, Note_on_c, 0, 77, 70
2, 85440, Note_off_c, 0, 77, 70
2, 85456, Note_off_c, 0, 84, 70
2, 86016, Note_on_c, 0, 79, 70
2, 86016, Note_on_c, 0, 82, 70
2, 86208, Note_off_c, 0, 82, 70
2, 86208, Note_off_c, 0, 79, 70
2, 86976, Note_on_c, 0, 84, 70
2, 86976, Note_on_c, 0, 79, 70
2, 87264, Note_off_c, 0, 84, 70
2, 87264, Note_on_c, 0, 82, 70
2, 87360, Note_off_c, 0, 82, 70
2, 87360, Note_off_c, 0, 79, 70
2, 88224, Note_on_c, 0, 79, 70
2, 88224, Note_on_c, 0, 82, 70
2, 88512, Note_off_c, 0, 79, 70
2, 88528, Note_off_c, 0, 82, 70
2, 90048, Note_on_c, 0, 84, 70
2, 90048, Note_on_c, 0, 79, 70
2, 90336, Note_off_c, 0, 84, 70
2, 90336, Note_on_c, 0, 82, 70
2, 90432, Note_off_c, 0, 82, 70
2, 90432, Note_off_c, 0, 79, 70
2, 91296, Note_on_c, 0, 84, 70
2, 91296, Note_on_c, 0, 77, 70
2, 91584, Note_off_c, 0, 77, 70
2, 91600, Note_off_c, 0, 84, 70
2, 91600, End_track
3, 0, Start_track
3, 0, Text_t, "Synth Bas"
3, 2880, Control_c, 1, 0, 0
3, 2882, Control_c, 1, 32, 0
3, 2884, Program_c, 1, 38
3, 2886, Control_c, 1, 7, 100
3, 2888, Control_c, 1, 10, 64
3, 2890, Control_c, 1, 11, 85
3, 2892, Control_c, 1, 91, 10
3, 2894, Control_c, 1, 93, 80
3, 31968, Note_on_c, 1, 36, 110
3, 32008, Note_off_c, 1, 36, 110
3, 32160, Note_on_c, 1, 36, 110
3, 32200, Note_off_c, 1, 36, 110
3, 32256, Note_on_c, 1, 36, 110
3, 32320, Note_off_c, 1, 36, 110
3, 32448, Note_on_c, 1, 36, 110
3, 32588, Note_off_c, 1, 36, 110
3, 32592, Note_on_c, 1, 36, 110
3, 32640, Note_off_c, 1, 36, 110
3, 32688, Note_on_c, 1, 36, 110
3, 32828, Note_off_c, 1, 36, 110
3, 32832, Note_on_c, 1, 36, 110
3, 32896, Note_off_c, 1, 36, 110
3, 33024, Note_on_c, 1, 36, 110
3, 33088, Note_off_c, 1, 36, 110
3, 33216, Note_on_c, 1, 36, 110
3, 33356, Note_off_c, 1, 36, 110
3, 33360, Note_on_c, 1, 36, 110
3, 33408, Note_off_c, 1, 36, 110
3, 33456, Note_on_c, 1, 36, 110
3, 33596, Note_off_c, 1, 36, 110
3, 33600, Note_on_c, 1, 36, 110
3, 33664, Note_off_c, 1, 36, 110
3, 33792, Note_on_c, 1, 31, 110
3, 33856, Note_off_c, 1, 31, 110
3, 33984, Note_on_c, 1, 43, 110
3, 34124, Note_off_c, 1, 43, 110
3, 34128, Note_on_c, 1, 31, 110
3, 34176, Note_off_c, 1, 31, 110
3, 34224, Note_on_c, 1, 31, 110
3, 34364, Note_off_c, 1, 31, 110
3, 34368, Note_on_c, 1, 31, 110
3, 34432, Note_off_c, 1, 31, 110
3, 34560, Note_on_c, 1, 31, 110
3, 34624, Note_off_c, 1, 31, 110
3, 34752, Note_on_c, 1, 43, 110
3, 34892, Note_off_c, 1, 43, 110
3, 34896, Note_on_c, 1, 31, 110
3, 34944, Note_off_c, 1, 31, 110
3, 34992, Note_on_c, 1, 31, 110
3, 35132, Note_off_c, 1, 31, 110
3, 35136, Note_on_c, 1, 31, 110
3, 35200, Note_off_c, 1, 31, 110
3, 35328, Note_on_c, 1, 36, 110
3, 35392, Note_off_c, 1, 36, 110
3, 35520, Note_on_c, 1, 36, 110
3, 35660, Note_off_c, 1, 36, 110
3, 35664, Note_on_c, 1, 36, 110
3, 35712, Note_off_c, 1, 36, 110
3, 35760, Note_on_c, 1, 36, 110
3, 35900, Note_off_c, 1, 36, 110
3, 35904, Note_on_c, 1, 36, 110
3, 35968, Note_off_c, 1, 36, 110
3, 36096, Note_on_c, 1, 36, 110
3, 36160, Note_off_c, 1, 36, 110
3, 36288, Note_on_c, 1, 36, 110
3, 36428, Note_off_c, 1, 36, 110
3, 36432, Note_on_c, 1, 36, 110
3, 36480, Note_off_c, 1, 36, 110
3, 36528, Note_on_c, 1, 36, 110
3, 36668, Note_off_c, 1, 36, 110
3, 36672, Note_on_c, 1, 36, 110
3, 36736, Note_off_c, 1, 36, 110
3, 36864, Note_on_c, 1, 31, 110
3, 36928, Note_off_c, 1, 31, 110
3, 37056, Note_on_c, 1, 43, 110
3, 37196, Note_off_c, 1, 43, 110
3, 37200, Note_on_c, 1, 31, 110
3, 37248, Note_off_c, 1, 31, 110
3, 37296, Note_on_c, 1, 31, 110
3, 37436, Note_off_c, 1, 31, 110
3, 37440, Note_on_c, 1, 31, 110
3, 37504, Note_off_c, 1, 31, 110
3, 37632, Note_on_c, 1, 31, 110
3, 37696, Note_off_c, 1, 31, 110
3, 37824, Note_on_c, 1, 43, 110
3, 37964, Note_off_c, 1, 43, 110
3, 37968, Note_on_c, 1, 31, 110
3, 38016, Note_off_c, 1, 31, 110
3, 38064, Note_on_c, 1, 31, 110
3, 38204, Note_off_c, 1, 31, 110
3, 38208, Note_on_c, 1, 31, 110
3, 38272, Note_off_c, 1, 31, 110
3, 38400, Note_on_c, 1, 36, 110
3, 38464, Note_off_c, 1, 36, 110
3, 38592, Note_on_c, 1, 36, 110
3, 38732, Note_off_c, 1, 36, 110
3, 38736, Note_on_c, 1, 36, 110
3, 38784, Note_off_c, 1, 36, 110
3, 38832, Note_on_c, 1, 36, 110
3, 38972, Note_off_c, 1, 36, 110
3, 38976, Note_on_c, 1, 36, 110
3, 39040, Note_off_c, 1, 36, 110
3, 39168, Note_on_c, 1, 36, 110
3, 39232, Note_off_c, 1, 36, 110
3, 39360, Note_on_c, 1, 36, 110
3, 39500, Note_off_c, 1, 36, 110
3, 39504, Note_on_c, 1, 36, 110
3, 39552, Note_off_c, 1, 36, 110
3, 39600, Note_on_c, 1, 36, 110
3, 39740, Note_off_c, 1, 36, 110
3, 39744, Note_on_c, 1, 36, 110
3, 39808, Note_off_c, 1, 36, 110
3, 39936, Note_on_c, 1, 31, 110
3, 40000, Note_off_c, 1, 31, 110
3, 40128, Note_on_c, 1, 43, 110
3, 40268, Note_off_c, 1, 43, 110
3, 40272, Note_on_c, 1, 31, 110
3, 40320, Note_off_c, 1, 31, 110
3, 40368, Note_on_c, 1, 31, 110
3, 40508, Note_off_c, 1, 31, 110
3, 40512, Note_on_c, 1, 31, 110
3, 40576, Note_off_c, 1, 31, 110
3, 40704, Note_on_c, 1, 31, 110
3, 40768, Note_off_c, 1, 31, 110
3, 40896, Note_on_c, 1, 43, 110
3, 41036, Note_off_c, 1, 43, 110
3, 41040, Note_on_c, 1, 31, 110
3, 41088, Note_off_c, 1, 31, 110
3, 41136, Note_on_c, 1, 31, 110
3, 41276, Note_off_c, 1, 31, 110
3, 41280, Note_on_c, 1, 31, 110
3, 41344, Note_off_c, 1, 31, 110
3, 41472, Note_on_c, 1, 36, 110
3, 41536, Note_off_c, 1, 36, 110
3, 41664, Note_on_c, 1, 36, 110
3, 41804, Note_off_c, 1, 36, 110
3, 41808, Note_on_c, 1, 36, 110
3, 41856, Note_off_c, 1, 36, 110
3, 41904, Note_on_c, 1, 36, 110
3, 42044, Note_off_c, 1, 36, 110
3, 42048, Note_on_c, 1, 36, 110
3, 42112, Note_off_c, 1, 36, 110
3, 42240, Note_on_c, 1, 36, 110
3, 42304, Note_off_c, 1, 36, 110
3, 42432, Note_on_c, 1, 36, 110
3, 42572, Note_off_c, 1, 36, 110
3, 42576, Note_on_c, 1, 36, 110
3, 42624, Note_off_c, 1, 36, 110
3, 42672, Note_on_c, 1, 36, 110
3, 42812, Note_off_c, 1, 36, 110
3, 42816, Note_on_c, 1, 36, 110
3, 42880, Note_off_c, 1, 36, 110
3, 43008, Note_on_c, 1, 27, 110
3, 43072, Note_off_c, 1, 27, 110
3, 43200, Note_on_c, 1, 27, 110
3, 43340, Note_off_c, 1, 27, 110
3, 43344, Note_on_c, 1, 27, 110
3, 43392, Note_off_c, 1, 27, 110
3, 43440, Note_on_c, 1, 27, 110
3, 43580, Note_off_c, 1, 27, 110
3, 43584, Note_on_c, 1, 27, 110
3, 43648, Note_off_c, 1, 27, 110
3, 43776, Note_on_c, 1, 31, 110
3, 43840, Note_off_c, 1, 31, 110
3, 43968, Note_on_c, 1, 31, 110
3, 44108, Note_off_c, 1, 31, 110
3, 44112, Note_on_c, 1, 31, 110
3, 44160, Note_off_c, 1, 31, 110
3, 44208, Note_on_c, 1, 34, 110
3, 44348, Note_off_c, 1, 34, 110
3, 44352, Note_on_c, 1, 34, 110
3, 44416, Note_off_c, 1, 34, 110
3, 44448, Note_on_c, 1, 34, 120
3, 44496, Note_off_c, 1, 34, 120
3, 44496, Note_on_c, 1, 36, 110
3, 44544, Note_off_c, 1, 36, 110
3, 44544, Note_on_c, 1, 27, 110
3, 44608, Note_off_c, 1, 27, 110
3, 44736, Note_on_c, 1, 27, 110
3, 44876, Note_off_c, 1, 27, 110
3, 44880, Note_on_c, 1, 27, 110
3, 44928, Note_off_c, 1, 27, 110
3, 44976, Note_on_c, 1, 27, 110
3, 45116, Note_off_c, 1, 27, 110
3, 45120, Note_on_c, 1, 27, 110
3, 45184, Note_off_c, 1, 27, 110
3, 45312, Note_on_c, 1, 31, 110
3, 45376, Note_off_c, 1, 31, 110
3, 45504, Note_on_c, 1, 31, 110
3, 45644, Note_off_c, 1, 31, 110
3, 45648, Note_on_c, 1, 31, 110
3, 45696, Note_off_c, 1, 31, 110
3, 45744, Note_on_c, 1, 34, 110
3, 45884, Note_off_c, 1, 34, 110
3, 45888, Note_on_c, 1, 34, 110
3, 45952, Note_off_c, 1, 34, 110
3, 45984, Note_on_c, 1, 34, 120
3, 46032, Note_off_c, 1, 34, 120
3, 46032, Note_on_c, 1, 36, 110
3, 46080, Note_off_c, 1, 36, 110
3, 46080, Note_on_c, 1, 27, 110
3, 46144, Note_off_c, 1, 27, 110
3, 46272, Note_on_c, 1, 27, 110
3, 46412, Note_off_c, 1, 27, 110
3, 46416, Note_on_c, 1, 27, 110
3, 46464, Note_off_c, 1, 27, 110
3, 46512, Note_on_c, 1, 27, 110
3, 46652, Note_off_c, 1, 27, 110
3, 46656, Note_on_c, 1, 27, 110
3, 46720, Note_off_c, 1, 27, 110
3, 46848, Note_on_c, 1, 31, 110
3, 46912, Note_off_c, 1, 31, 110
3, 47040, Note_on_c, 1, 31, 110
3, 47180, Note_off_c, 1, 31, 110
3, 47184, Note_on_c, 1, 31, 110
3, 47232, Note_off_c, 1, 31, 110
3, 47280, Note_on_c, 1, 34, 110
3, 47420, Note_off_c, 1, 34, 110
3, 47424, Note_on_c, 1, 34, 110
3, 47488, Note_off_c, 1, 34, 110
3, 47520, Note_on_c, 1, 34, 120
3, 47568, Note_off_c, 1, 34, 120
3, 47616, Note_on_c, 1, 27, 110
3, 47680, Note_off_c, 1, 27, 110
3, 47808, Note_on_c, 1, 27, 110
3, 47948, Note_off_c, 1, 27, 110
3, 47952, Note_on_c, 1, 27, 110
3, 48000, Note_off_c, 1, 27, 110
3, 48048, Note_on_c, 1, 27, 110
3, 48188, Note_off_c, 1, 27, 110
3, 48192, Note_on_c, 1, 27, 110
3, 48256, Note_off_c, 1, 27, 110
3, 48384, Note_on_c, 1, 29, 110
3, 48448, Note_off_c, 1, 29, 110
3, 48576, Note_on_c, 1, 29, 110
3, 48716, Note_off_c, 1, 29, 110
3, 48720, Note_on_c, 1, 29, 110
3, 48768, Note_off_c, 1, 29, 110
3, 48816, Note_on_c, 1, 29, 110
3, 48956, Note_off_c, 1, 29, 110
3, 48960, Note_on_c, 1, 29, 110
3, 49024, Note_off_c, 1, 29, 110
3, 50448, Note_on_c, 1, 36, 110
3, 50488, Note_off_c, 1, 36, 110
3, 50592, Note_on_c, 1, 36, 110
3, 50632, Note_off_c, 1, 36, 110
3, 50688, Note_on_c, 1, 36, 110
3, 50752, Note_off_c, 1, 36, 110
3, 50880, Note_on_c, 1, 36, 110
3, 51020, Note_off_c, 1, 36, 110
3, 51024, Note_on_c, 1, 36, 110
3, 51072, Note_off_c, 1, 36, 110
3, 51120, Note_on_c, 1, 36, 110
3, 51260, Note_off_c, 1, 36, 110
3, 51264, Note_on_c, 1, 36, 110
3, 51328, Note_off_c, 1, 36, 110
3, 51456, Note_on_c, 1, 36, 110
3, 51520, Note_off_c, 1, 36, 110
3, 51648, Note_on_c, 1, 36, 110
3, 51788, Note_off_c, 1, 36, 110
3, 51792, Note_on_c, 1, 36, 110
3, 51840, Note_off_c, 1, 36, 110
3, 51888, Note_on_c, 1, 36, 110
3, 52028, Note_off_c, 1, 36, 110
3, 52032, Note_on_c, 1, 36, 110
3, 52096, Note_off_c, 1, 36, 110
3, 52224, Note_on_c, 1, 31, 110
3, 52288, Note_off_c, 1, 31, 110
3, 52416, Note_on_c, 1, 43, 110
3, 52556, Note_off_c, 1, 43, 110
3, 52560, Note_on_c, 1, 31, 110
3, 52608, Note_off_c, 1, 31, 110
3, 52656, Note_on_c, 1, 31, 110
3, 52796, Note_off_c, 1, 31, 110
3, 52800, Note_on_c, 1, 31, 110
3, 52864, Note_off_c, 1, 31, 110
3, 52992, Note_on_c, 1, 31, 110
3, 53056, Note_off_c, 1, 31, 110
3, 53184, Note_on_c, 1, 43, 110
3, 53324, Note_off_c, 1, 43, 110
3, 53328, Note_on_c, 1, 31, 110
3, 53376, Note_off_c, 1, 31, 110
3, 53424, Note_on_c, 1, 31, 110
3, 53564, Note_off_c, 1, 31, 110
3, 53568, Note_on_c, 1, 31, 110
3, 53632, Note_off_c, 1, 31, 110
3, 53760, Note_on_c, 1, 36, 110
3, 53824, Note_off_c, 1, 36, 110
3, 53952, Note_on_c, 1, 36, 110
3, 54092, Note_off_c, 1, 36, 110
3, 54096, Note_on_c, 1, 36, 110
3, 54144, Note_off_c, 1, 36, 110
3, 54192, Note_on_c, 1, 36, 110
3, 54332, Note_off_c, 1, 36, 110
3, 54336, Note_on_c, 1, 36, 110
3, 54400, Note_off_c, 1, 36, 110
3, 54528, Note_on_c, 1, 36, 110
3, 54592, Note_off_c, 1, 36, 110
3, 54720, Note_on_c, 1, 36, 110
3, 54860, Note_off_c, 1, 36, 110
3, 54864, Note_on_c, 1, 36, 110
3, 54912, Note_off_c, 1, 36, 110
3, 54960, Note_on_c, 1, 36, 110
3, 55100, Note_off_c, 1, 36, 110
3, 55104, Note_on_c, 1, 36, 110
3, 55168, Note_off_c, 1, 36, 110
3, 55296, Note_on_c, 1, 31, 110
3, 55360, Note_off_c, 1, 31, 110
3, 55488, Note_on_c, 1, 43, 110
3, 55628, Note_off_c, 1, 43, 110
3, 55632, Note_on_c, 1, 31, 110
3, 55680, Note_off_c, 1, 31, 110
3, 55728, Note_on_c, 1, 31, 110
3, 55868, Note_off_c, 1, 31, 110
3, 55872, Note_on_c, 1, 31, 110
3, 55936, Note_off_c, 1, 31, 110
3, 56064, Note_on_c, 1, 31, 110
3, 56128, Note_off_c, 1, 31, 110
3, 56256, Note_on_c, 1, 43, 110
3, 56396, Note_off_c, 1, 43, 110
3, 56400, Note_on_c, 1, 31, 110
3, 56448, Note_off_c, 1, 31, 110
3, 56496, Note_on_c, 1, 31, 110
3, 56636, Note_off_c, 1, 31, 110
3, 56640, Note_on_c, 1, 31, 110
3, 56704, Note_off_c, 1, 31, 110
3, 56832, Note_on_c, 1, 36, 110
3, 56896, Note_off_c, 1, 36, 110
3, 57024, Note_on_c, 1, 36, 110
3, 57164, Note_off_c, 1, 36, 110
3, 57168, Note_on_c, 1, 36, 110
3, 57216, Note_off_c, 1, 36, 110
3, 57264, Note_on_c, 1, 36, 110
3, 57404, Note_off_c, 1, 36, 110
3, 57408, Note_on_c, 1, 36, 110
3, 57472, Note_off_c, 1, 36, 110
3, 57600, Note_on_c, 1, 36, 110
3, 57664, Note_off_c, 1, 36, 110
3, 57792, Note_on_c, 1, 36, 110
3, 57932, Note_off_c, 1, 36, 110
3, 57936, Note_on_c, 1, 36, 110
3, 57984, Note_off_c, 1, 36, 110
3, 58032, Note_on_c, 1, 36, 110
3, 58172, Note_off_c, 1, 36, 110
3, 58176, Note_on_c, 1, 36, 110
3, 58240, Note_off_c, 1, 36, 110
3, 58368, Note_on_c, 1, 31, 110
3, 58432, Note_off_c, 1, 31, 110
3, 58560, Note_on_c, 1, 43, 110
3, 58700, Note_off_c, 1, 43, 110
3, 58704, Note_on_c, 1, 31, 110
3, 58752, Note_off_c, 1, 31, 110
3, 58800, Note_on_c, 1, 31, 110
3, 58940, Note_off_c, 1, 31, 110
3, 58944, Note_on_c, 1, 31, 110
3, 59008, Note_off_c, 1, 31, 110
3, 59136, Note_on_c, 1, 31, 110
3, 59200, Note_off_c, 1, 31, 110
3, 59328, Note_on_c, 1, 43, 110
3, 59468, Note_off_c, 1, 43, 110
3, 59472, Note_on_c, 1, 31, 110
3, 59520, Note_off_c, 1, 31, 110
3, 59568, Note_on_c, 1, 31, 110
3, 59708, Note_off_c, 1, 31, 110
3, 59712, Note_on_c, 1, 31, 110
3, 59776, Note_off_c, 1, 31, 110
3, 59904, Note_on_c, 1, 36, 110
3, 59968, Note_off_c, 1, 36, 110
3, 60096, Note_on_c, 1, 36, 110
3, 60236, Note_off_c, 1, 36, 110
3, 60240, Note_on_c, 1, 36, 110
3, 60288, Note_off_c, 1, 36, 110
3, 60336, Note_on_c, 1, 36, 110
3, 60476, Note_off_c, 1, 36, 110
3, 60480, Note_on_c, 1, 36, 110
3, 60544, Note_off_c, 1, 36, 110
3, 60672, Note_on_c, 1, 36, 110
3, 60736, Note_off_c, 1, 36, 110
3, 60864, Note_on_c, 1, 36, 110
3, 61004, Note_off_c, 1, 36, 110
3, 61008, Note_on_c, 1, 36, 110
3, 61056, Note_off_c, 1, 36, 110
3, 61104, Note_on_c, 1, 36, 110
3, 61244, Note_off_c, 1, 36, 110
3, 61248, Note_on_c, 1, 36, 110
3, 61312, Note_off_c, 1, 36, 110
3, 61440, Note_on_c, 1, 27, 110
3, 61504, Note_off_c, 1, 27, 110
3, 61632, Note_on_c, 1, 27, 110
3, 61772, Note_off_c, 1, 27, 110
3, 61776, Note_on_c, 1, 27, 110
3, 61824, Note_off_c, 1, 27, 110
3, 61872, Note_on_c, 1, 27, 110
3, 62012, Note_off_c, 1, 27, 110
3, 62016, Note_on_c, 1, 27, 110
3, 62080, Note_off_c, 1, 27, 110
3, 62208, Note_on_c, 1, 31, 110
3, 62272, Note_off_c, 1, 31, 110
3, 62400, Note_on_c, 1, 31, 110
3, 62540, Note_off_c, 1, 31, 110
3, 62544, Note_on_c, 1, 31, 110
3, 62592, Note_off_c, 1, 31, 110
3, 62640, Note_on_c, 1, 34, 110
3, 62780, Note_off_c, 1, 34, 110
3, 62784, Note_on_c, 1, 34, 110
3, 62848, Note_off_c, 1, 34, 110
3, 62880, Note_on_c, 1, 34, 120
3, 62928, Note_off_c, 1, 34, 120
3, 62928, Note_on_c, 1, 36, 110
3, 62976, Note_off_c, 1, 36, 110
3, 62976, Note_on_c, 1, 27, 110
3, 63040, Note_off_c, 1, 27, 110
3, 63168, Note_on_c, 1, 27, 110
3, 63308, Note_off_c, 1, 27, 110
3, 63312, Note_on_c, 1, 27, 110
3, 63360, Note_off_c, 1, 27, 110
3, 63408, Note_on_c, 1, 27, 110
3, 63548, Note_off_c, 1, 27, 110
3, 63552, Note_on_c, 1, 27, 110
3, 63616, Note_off_c, 1, 27, 110
3, 63744, Note_on_c, 1, 31, 110
3, 63808, Note_off_c, 1, 31, 110
3, 63936, Note_on_c, 1, 31, 110
3, 64076, Note_off_c, 1, 31, 110
3, 64080, Note_on_c, 1, 31, 110
3, 64128, Note_off_c, 1, 31, 110
3, 64176, Note_on_c, 1, 34, 110
3, 64316, Note_off_c, 1, 34, 110
3, 64320, Note_on_c, 1, 34, 110
3, 64384, Note_off_c, 1, 34, 110
3, 64416, Note_on_c, 1, 34, 120
3, 64464, Note_off_c, 1, 34, 120
3, 64464, Note_on_c, 1, 36, 110
3, 64512, Note_off_c, 1, 36, 110
3, 64512, Note_on_c, 1, 27, 110
3, 64576, Note_off_c, 1, 27, 110
3, 64704, Note_on_c, 1, 27, 110
3, 64844, Note_off_c, 1, 27, 110
3, 64848, Note_on_c, 1, 27, 110
3, 64896, Note_off_c, 1, 27, 110
3, 64944, Note_on_c, 1, 27, 110
3, 65084, Note_off_c, 1, 27, 110
3, 65088, Note_on_c, 1, 27, 110
3, 65152, Note_off_c, 1, 27, 110
3, 65280, Note_on_c, 1, 31, 110
3, 65344, Note_off_c, 1, 31, 110
3, 65472, Note_on_c, 1, 31, 110
3, 65612, Note_off_c, 1, 31, 110
3, 65616, Note_on_c, 1, 31, 110
3, 65664, Note_off_c, 1, 31, 110
3, 65712, Note_on_c, 1, 34, 110
3, 65852, Note_off_c, 1, 34, 110
3, 65856, Note_on_c, 1, 34, 110
3, 65920, Note_off_c, 1, 34, 110
3, 65952, Note_on_c, 1, 34, 120
3, 66000, Note_off_c, 1, 34, 120
3, 66048, Note_on_c, 1, 27, 110
3, 66112, Note_off_c, 1, 27, 110
3, 66240, Note_on_c, 1, 27, 110
3, 66380, Note_off_c, 1, 27, 110
3, 66384, Note_on_c, 1, 27, 110
3, 66432, Note_off_c, 1, 27, 110
3, 66480, Note_on_c, 1, 27, 110
3, 66620, Note_off_c, 1, 27, 110
3, 66624, Note_on_c, 1, 27, 110
3, 66688, Note_off_c, 1, 27, 110
3, 66816, Note_on_c, 1, 29, 110
3, 66880, Note_off_c, 1, 29, 110
3, 67008, Note_on_c, 1, 29, 110
3, 67148, Note_off_c, 1, 29, 110
3, 67152, Note_on_c, 1, 29, 110
3, 67200, Note_off_c, 1, 29, 110
3, 67248, Note_on_c, 1, 29, 110
3, 67388, Note_off_c, 1, 29, 110
3, 67392, Note_on_c, 1, 29, 110
3, 67456, Note_off_c, 1, 29, 110
3, 79872, Note_on_c, 1, 27, 110
3, 79936, Note_off_c, 1, 27, 110
3, 80064, Note_on_c, 1, 27, 110
3, 80204, Note_off_c, 1, 27, 110
3, 80208, Note_on_c, 1, 27, 110
3, 80256, Note_off_c, 1, 27, 110
3, 80304, Note_on_c, 1, 27, 110
3, 80444, Note_off_c, 1, 27, 110
3, 80448, Note_on_c, 1, 27, 110
3, 80512, Note_off_c, 1, 27, 110
3, 80640, Note_on_c, 1, 31, 110
3, 80704, Note_off_c, 1, 31, 110
3, 80832, Note_on_c, 1, 31, 110
3, 80972, Note_off_c, 1, 31, 110
3, 80976, Note_on_c, 1, 31, 110
3, 81024, Note_off_c, 1, 31, 110
3, 81072, Note_on_c, 1, 34, 110
3, 81212, Note_off_c, 1, 34, 110
3, 81216, Note_on_c, 1, 34, 110
3, 81280, Note_off_c, 1, 34, 110
3, 81312, Note_on_c, 1, 34, 120
3, 81360, Note_off_c, 1, 34, 120
3, 81360, Note_on_c, 1, 36, 110
3, 81408, Note_off_c, 1, 36, 110
3, 81408, Note_on_c, 1, 27, 110
3, 81472, Note_off_c, 1, 27, 110
3, 81600, Note_on_c, 1, 27, 110
3, 81740, Note_off_c, 1, 27, 110
3, 81744, Note_on_c, 1, 27, 110
3, 81792, Note_off_c, 1, 27, 110
3, 81840, Note_on_c, 1, 27, 110
3, 81980, Note_off_c, 1, 27, 110
3, 81984, Note_on_c, 1, 27, 110
3, 82048, Note_off_c, 1, 27, 110
3, 82176, Note_on_c, 1, 31, 110
3, 82240, Note_off_c, 1, 31, 110
3, 82368, Note_on_c, 1, 31, 110
3, 82508, Note_off_c, 1, 31, 110
3, 82512, Note_on_c, 1, 31, 110
3, 82560, Note_off_c, 1, 31, 110
3, 82608, Note_on_c, 1, 34, 110
3, 82748, Note_off_c, 1, 34, 110
3, 82752, Note_on_c, 1, 34, 110
3, 82816, Note_off_c, 1, 34, 110
3, 82848, Note_on_c, 1, 34, 120
3, 82896, Note_off_c, 1, 34, 120
3, 82896, Note_on_c, 1, 36, 110
3, 82944, Note_off_c, 1, 36, 110
3, 82944, Note_on_c, 1, 27, 110
3, 83008, Note_off_c, 1, 27, 110
3, 83136, Note_on_c, 1, 27, 110
3, 83276, Note_off_c, 1, 27, 110
3, 83280, Note_on_c, 1, 27, 110
3, 83328, Note_off_c, 1, 27, 110
3, 83376, Note_on_c, 1, 27, 110
3, 83516, Note_off_c, 1, 27, 110
3, 83520, Note_on_c, 1, 27, 110
3, 83584, Note_off_c, 1, 27, 110
3, 83712, Note_on_c, 1, 31, 110
3, 83776, Note_off_c, 1, 31, 110
3, 83904, Note_on_c, 1, 31, 110
3, 84044, Note_off_c, 1, 31, 110
3, 84048, Note_on_c, 1, 31, 110
3, 84096, Note_off_c, 1, 31, 110
3, 84144, Note_on_c, 1, 34, 110
3, 84284, Note_off_c, 1, 34, 110
3, 84288, Note_on_c, 1, 34, 110
3, 84352, Note_off_c, 1, 34, 110
3, 84384, Note_on_c, 1, 34, 120
3, 84432, Note_off_c, 1, 34, 120
3, 84480, Note_on_c, 1, 27, 110
3, 84544, Note_off_c, 1, 27, 110
3, 84672, Note_on_c, 1, 27, 110
3, 84812, Note_off_c, 1, 27, 110
3, 84816, Note_on_c, 1, 27, 110
3, 84864, Note_off_c, 1, 27, 110
3, 84912, Note_on_c, 1, 27, 110
3, 85052, Note_off_c, 1, 27, 110
3, 85056, Note_on_c, 1, 27, 110
3, 85120, Note_off_c, 1, 27, 110
3, 85248, Note_on_c, 1, 29, 110
3, 85312, Note_off_c, 1, 29, 110
3, 85440, Note_on_c, 1, 29, 110
3, 85580, Note_off_c, 1, 29, 110
3, 85584, Note_on_c, 1, 29, 110
3, 85632, Note_off_c, 1, 29, 110
3, 85680, Note_on_c, 1, 29, 110
3, 85820, Note_off_c, 1, 29, 110
3, 85824, Note_on_c, 1, 29, 110
3, 85888, Note_off_c, 1, 29, 110
3, 86016, Note_on_c, 1, 27, 110
3, 86080, Note_off_c, 1, 27, 110
3, 86208, Note_on_c, 1, 27, 110
3, 86348, Note_off_c, 1, 27, 110
3, 86352, Note_on_c, 1, 27, 110
3, 86400, Note_off_c, 1, 27, 110
3, 86448, Note_on_c, 1, 27, 110
3, 86588, Note_off_c, 1, 27, 110
3, 86592, Note_on_c, 1, 27, 110
3, 86656, Note_off_c, 1, 27, 110
3, 86784, Note_on_c, 1, 31, 110
3, 86848, Note_off_c, 1, 31, 110
3, 86976, Note_on_c, 1, 31, 110
3, 87116, Note_off_c, 1, 31, 110
3, 87120, Note_on_c, 1, 31, 110
3, 87168, Note_off_c, 1, 31, 110
3, 87216, Note_on_c, 1, 34, 110
3, 87356, Note_off_c, 1, 34, 110
3, 87360, Note_on_c, 1, 34, 110
3, 87424, Note_off_c, 1, 34, 110
3, 87456, Note_on_c, 1, 34, 120
3, 87504, Note_off_c, 1, 34, 120
3, 87504, Note_on_c, 1, 36, 110
3, 87552, Note_off_c, 1, 36, 110
3, 87552, Note_on_c, 1, 27, 110
3, 87616, Note_off_c, 1, 27, 110
3, 87744, Note_on_c, 1, 27, 110
3, 87884, Note_off_c, 1, 27, 110
3, 87888, Note_on_c, 1, 27, 110
3, 87936, Note_off_c, 1, 27, 110
3, 87984, Note_on_c, 1, 27, 110
3, 88124, Note_off_c, 1, 27, 110
3, 88128, Note_on_c, 1, 27, 110
3, 88192, Note_off_c, 1, 27, 110
3, 88320, Note_on_c, 1, 31, 110
3, 88384, Note_off_c, 1, 31, 110
3, 88512, Note_on_c, 1, 31, 110
3, 88652, Note_off_c, 1, 31, 110
3, 88656, Note_on_c, 1, 31, 110
3, 88704, Note_off_c, 1, 31, 110
3, 88752, Note_on_c, 1, 34, 110
3, 88892, Note_off_c, 1, 34, 110
3, 88896, Note_on_c, 1, 34, 110
3, 88960, Note_off_c, 1, 34, 110
3, 88992, Note_on_c, 1, 34, 120
3, 89040, Note_off_c, 1, 34, 120
3, 89040, Note_on_c, 1, 36, 110
3, 89088, Note_off_c, 1, 36, 110
3, 89088, Note_on_c, 1, 27, 110
3, 89152, Note_off_c, 1, 27, 110
3, 89280, Note_on_c, 1, 27, 110
3, 89420, Note_off_c, 1, 27, 110
3, 89424, Note_on_c, 1, 27, 110
3, 89472, Note_off_c, 1, 27, 110
3, 89520, Note_on_c, 1, 27, 110
3, 89660, Note_off_c, 1, 27, 110
3, 89664, Note_on_c, 1, 27, 110
3, 89728, Note_off_c, 1, 27, 110
3, 89856, Note_on_c, 1, 31, 110
3, 89920, Note_off_c, 1, 31, 110
3, 90048, Note_on_c, 1, 31, 110
3, 90188, Note_off_c, 1, 31, 110
3, 90192, Note_on_c, 1, 31, 110
3, 90240, Note_off_c, 1, 31, 110
3, 90288, Note_on_c, 1, 34, 110
3, 90428, Note_off_c, 1, 34, 110
3, 90432, Note_on_c, 1, 34, 110
3, 90496, Note_off_c, 1, 34, 110
3, 90528, Note_on_c, 1, 34, 120
3, 90576, Note_off_c, 1, 34, 120
3, 90624, Note_on_c, 1, 27, 110
3, 90688, Note_off_c, 1, 27, 110
3, 90816, Note_on_c, 1, 27, 110
3, 90956, Note_off_c, 1, 27, 110
3, 90960, Note_on_c, 1, 27, 110
3, 91008, Note_off_c, 1, 27, 110
3, 91056, Note_on_c, 1, 27, 110
3, 91196, Note_off_c, 1, 27, 110
3, 91200, Note_on_c, 1, 27, 110
3, 91264, Note_off_c, 1, 27, 110
3, 91392, Note_on_c, 1, 29, 110
3, 91456, Note_off_c, 1, 29, 110
3, 91584, Note_on_c, 1, 29, 110
3, 91724, Note_off_c, 1, 29, 110
3, 91728, Note_on_c, 1, 29, 110
3, 91776, Note_off_c, 1, 29, 110
3, 91824, Note_on_c, 1, 29, 110
3, 91964, Note_off_c, 1, 29, 110
3, 91968, Note_on_c, 1, 29, 110
3, 92032, Note_off_c, 1, 29, 110
3, 92160, Note_on_c, 1, 27, 110
3, 92224, Note_off_c, 1, 27, 110
3, 92352, Note_on_c, 1, 27, 110
3, 92492, Note_off_c, 1, 27, 110
3, 92496, Note_on_c, 1, 27, 110
3, 92544, Note_off_c, 1, 27, 110
3, 92592, Note_on_c, 1, 27, 110
3, 92732, Note_off_c, 1, 27, 110
3, 92736, Note_on_c, 1, 27, 110
3, 92800, Note_off_c, 1, 27, 110
3, 92928, Note_on_c, 1, 31, 110
3, 92992, Note_off_c, 1, 31, 110
3, 93120, Note_on_c, 1, 31, 110
3, 93260, Note_off_c, 1, 31, 110
3, 93264, Note_on_c, 1, 31, 110
3, 93312, Note_off_c, 1, 31, 110
3, 93360, Note_on_c, 1, 34, 110
3, 93500, Note_off_c, 1, 34, 110
3, 93504, Note_on_c, 1, 34, 110
3, 93568, Note_off_c, 1, 34, 110
3, 93600, Note_on_c, 1, 34, 120
3, 93648, Note_off_c, 1, 34, 120
3, 93648, Note_on_c, 1, 36, 110
3, 93696, Note_off_c, 1, 36, 110
3, 93696, Note_on_c, 1, 27, 110
3, 93760, Note_off_c, 1, 27, 110
3, 93888, Note_on_c, 1, 27, 110
3, 94028, Note_off_c, 1, 27, 110
3, 94032, Note_on_c, 1, 27, 110
3, 94080, Note_off_c, 1, 27, 110
3, 94128, Note_on_c, 1, 27, 110
3, 94268, Note_off_c, 1, 27, 110
3, 94272, Note_on_c, 1, 27, 110
3, 94336, Note_off_c, 1, 27, 110
3, 94464, Note_on_c, 1, 31, 110
3, 94528, Note_off_c, 1, 31, 110
3, 94656, Note_on_c, 1, 31, 110
3, 94796, Note_off_c, 1, 31, 110
3, 94800, Note_on_c, 1, 31, 110
3, 94848, Note_off_c, 1, 31, 110
3, 94896, Note_on_c, 1, 34, 110
3, 95036, Note_off_c, 1, 34, 110
3, 95040, Note_on_c, 1, 34, 110
3, 95104, Note_off_c, 1, 34, 110
3, 95136, Note_on_c, 1, 34, 120
3, 95184, Note_off_c, 1, 34, 120
3, 95184, Note_on_c, 1, 36, 110
3, 95232, Note_off_c, 1, 36, 110
3, 95232, Note_on_c, 1, 27, 110
3, 95296, Note_off_c, 1, 27, 110
3, 95424, Note_on_c, 1, 27, 110
3, 95564, Note_off_c, 1, 27, 110
3, 95568, Note_on_c, 1, 27, 110
3, 95616, Note_off_c, 1, 27, 110
3, 95664, Note_on_c, 1, 27, 110
3, 95804, Note_off_c, 1, 27, 110
3, 95808, Note_on_c, 1, 27, 110
3, 95872, Note_off_c, 1, 27, 110
3, 96000, Note_on_c, 1, 31, 110
3, 96064, Note_off_c, 1, 31, 110
3, 96192, Note_on_c, 1, 31, 110
3, 96332, Note_off_c, 1, 31, 110
3, 96336, Note_on_c, 1, 31, 110
3, 96384, Note_off_c, 1, 31, 110
3, 96432, Note_on_c, 1, 34, 110
3, 96572, Note_off_c, 1, 34, 110
3, 96576, Note_on_c, 1, 34, 110
3, 96640, Note_off_c, 1, 34, 110
3, 96672, Note_on_c, 1, 34, 120
3, 96720, Note_off_c, 1, 34, 120
3, 96768, Note_on_c, 1, 27, 110
3, 96832, Note_off_c, 1, 27, 110
3, 96960, Note_on_c, 1, 27, 110
3, 97100, Note_off_c, 1, 27, 110
3, 97104, Note_on_c, 1, 27, 110
3, 97152, Note_off_c, 1, 27, 110
3, 97200, Note_on_c, 1, 27, 110
3, 97340, Note_off_c, 1, 27, 110
3, 97344, Note_on_c, 1, 27, 110
3, 97408, Note_off_c, 1, 27, 110
3, 97536, Note_on_c, 1, 29, 110
3, 97600, Note_off_c, 1, 29, 110
3, 97728, Note_on_c, 1, 29, 110
3, 97868, Note_off_c, 1, 29, 110
3, 97872, Note_on_c, 1, 29, 110
3, 97920, Note_off_c, 1, 29, 110
3, 97968, Note_on_c, 1, 29, 110
3, 98108, Note_off_c, 1, 29, 110
3, 98112, Note_on_c, 1, 29, 110
3, 98176, Note_off_c, 1, 29, 110
3, 98304, Note_on_c, 1, 27, 110
3, 98368, Note_off_c, 1, 27, 110
3, 98496, Note_on_c, 1, 27, 110
3, 98636, Note_off_c, 1, 27, 110
3, 98640, Note_on_c, 1, 27, 110
3, 98688, Note_off_c, 1, 27, 110
3, 98736, Note_on_c, 1, 27, 110
3, 98876, Note_off_c, 1, 27, 110
3, 98880, Note_on_c, 1, 27, 110
3, 98944, Note_off_c, 1, 27, 110
3, 99072, Note_on_c, 1, 31, 110
3, 99136, Note_off_c, 1, 31, 110
3, 99264, Note_on_c, 1, 31, 110
3, 99404, Note_off_c, 1, 31, 110
3, 99408, Note_on_c, 1, 31, 110
3, 99456, Note_off_c, 1, 31, 110
3, 99504, Note_on_c, 1, 34, 110
3, 99644, Note_off_c, 1, 34, 110
3, 99648, Note_on_c, 1, 34, 110
3, 99712, Note_off_c, 1, 34, 110
3, 99744, Note_on_c, 1, 34, 120
3, 99792, Note_off_c, 1, 34, 120
3, 99792, Note_on_c, 1, 36, 110
3, 99840, Note_off_c, 1, 36, 110
3, 99840, Note_on_c, 1, 27, 110
3, 99904, Note_off_c, 1, 27, 110
3, 100032, Note_on_c, 1, 27, 110
3, 100172, Note_off_c, 1, 27, 110
3, 100176, Note_on_c, 1, 27, 110
3, 100224, Note_off_c, 1, 27, 110
3, 100272, Note_on_c, 1, 27, 110
3, 100412, Note_off_c, 1, 27, 110
3, 100416, Note_on_c, 1, 27, 110
3, 100480, Note_off_c, 1, 27, 110
3, 100608, Note_on_c, 1, 31, 110
3, 100672, Note_off_c, 1, 31, 110
3, 100800, Note_on_c, 1, 31, 110
3, 100940, Note_off_c, 1, 31, 110
3, 100944, Note_on_c, 1, 31, 110
3, 100992, Note_off_c, 1, 31, 110
3, 101040, Note_on_c, 1, 34, 110
3, 101180, Note_off_c, 1, 34, 110
3, 101184, Note_on_c, 1, 34, 110
3, 101248, Note_off_c, 1, 34, 110
3, 101280, Note_on_c, 1, 34, 120
3, 101328, Note_off_c, 1, 34, 120
3, 101328, Note_on_c, 1, 36, 110
3, 101376, Note_off_c, 1, 36, 110
3, 101376, Note_on_c, 1, 27, 110
3, 101440, Note_off_c, 1, 27, 110
3, 101568, Note_on_c, 1, 27, 110
3, 101708, Note_off_c, 1, 27, 110
3, 101712, Note_on_c, 1, 27, 110
3, 101760, Note_off_c, 1, 27, 110
3, 101808, Note_on_c, 1, 27, 110
3, 101948, Note_off_c, 1, 27, 110
3, 101952, Note_on_c, 1, 27, 110
3, 102016, Note_off_c, 1, 27, 110
3, 102144, Note_on_c, 1, 31, 110
3, 102208, Note_off_c, 1, 31, 110
3, 102336, Note_on_c, 1, 31, 110
3, 102476, Note_off_c, 1, 31, 110
3, 102480, Note_on_c, 1, 31, 110
3, 102528, Note_off_c, 1, 31, 110
3, 102576, Note_on_c, 1, 34, 110
3, 102716, Note_off_c, 1, 34, 110
3, 102720, Note_on_c, 1, 34, 110
3, 102784, Note_off_c, 1, 34, 110
3, 102816, Note_on_c, 1, 34, 120
3, 102864, Note_off_c, 1, 34, 120
3, 102912, Note_on_c, 1, 27, 110
3, 102976, Note_off_c, 1, 27, 110
3, 103104, Note_on_c, 1, 27, 110
3, 103244, Note_off_c, 1, 27, 110
3, 103248, Note_on_c, 1, 27, 110
3, 103296, Note_off_c, 1, 27, 110
3, 103344, Note_on_c, 1, 27, 110
3, 103484, Note_off_c, 1, 27, 110
3, 103488, Note_on_c, 1, 27, 110
3, 103552, Note_off_c, 1, 27, 110
3, 103680, Note_on_c, 1, 29, 110
3, 103744, Note_off_c, 1, 29, 110
3, 103872, Note_on_c, 1, 29, 110
3, 104012, Note_off_c, 1, 29, 110
3, 104016, Note_on_c, 1, 29, 110
3, 104064, Note_off_c, 1, 29, 110
3, 104112, Note_on_c, 1, 29, 110
3, 104252, Note_off_c, 1, 29, 110
3, 104256, Note_on_c, 1, 29, 110
3, 104320, Note_off_c, 1, 29, 110
3, 104448, Note_on_c, 1, 27, 110
3, 104512, Note_off_c, 1, 27, 110
3, 104640, Note_on_c, 1, 27, 110
3, 104780, Note_off_c, 1, 27, 110
3, 104784, Note_on_c, 1, 27, 110
3, 104832, Note_off_c, 1, 27, 110
3, 104880, Note_on_c, 1, 27, 110
3, 105020, Note_off_c, 1, 27, 110
3, 105024, Note_on_c, 1, 27, 110
3, 105088, Note_off_c, 1, 27, 110
3, 105216, Note_on_c, 1, 31, 110
3, 105280, Note_off_c, 1, 31, 110
3, 105408, Note_on_c, 1, 31, 110
3, 105548, Note_off_c, 1, 31, 110
3, 105552, Note_on_c, 1, 31, 110
3, 105600, Note_off_c, 1, 31, 110
3, 105648, Note_on_c, 1, 34, 110
3, 105788, Note_off_c, 1, 34, 110
3, 105792, Note_on_c, 1, 34, 110
3, 105856, Note_off_c, 1, 34, 110
3, 105888, Note_on_c, 1, 34, 120
3, 105936, Note_off_c, 1, 34, 120
3, 105936, Note_on_c, 1, 36, 110
3, 105984, Note_off_c, 1, 36, 110
3, 105984, Note_on_c, 1, 27, 110
3, 106048, Note_off_c, 1, 27, 110
3, 106176, Note_on_c, 1, 27, 110
3, 106316, Note_off_c, 1, 27, 110
3, 106320, Note_on_c, 1, 27, 110
3, 106368, Note_off_c, 1, 27, 110
3, 106416, Note_on_c, 1, 27, 110
3, 106556, Note_off_c, 1, 27, 110
3, 106560, Note_on_c, 1, 27, 110
3, 106624, Note_off_c, 1, 27, 110
3, 106752, Note_on_c, 1, 31, 110
3, 106816, Note_off_c, 1, 31, 110
3, 106944, Note_on_c, 1, 31, 110
3, 107084, Note_off_c, 1, 31, 110
3, 107088, Note_on_c, 1, 31, 110
3, 107136, Note_off_c, 1, 31, 110
3, 107184, Note_on_c, 1, 34, 110
3, 107324, Note_off_c, 1, 34, 110
3, 107328, Note_on_c, 1, 34, 110
3, 107392, Note_off_c, 1, 34, 110
3, 107424, Note_on_c, 1, 34, 120
3, 107472, Note_off_c, 1, 34, 120
3, 107472, Note_on_c, 1, 36, 110
3, 107520, Note_off_c, 1, 36, 110
3, 107520, Note_on_c, 1, 27, 110
3, 107584, Note_off_c, 1, 27, 110
3, 107712, Note_on_c, 1, 27, 110
3, 107852, Note_off_c, 1, 27, 110
3, 107856, Note_on_c, 1, 27, 110
3, 107904, Note_off_c, 1, 27, 110
3, 107952, Note_on_c, 1, 27, 110
3, 108092, Note_off_c, 1, 27, 110
3, 108096, Note_on_c, 1, 27, 110
3, 108160, Note_off_c, 1, 27, 110
3, 108288, Note_on_c, 1, 31, 110
3, 108352, Note_off_c, 1, 31, 110
3, 108480, Note_on_c, 1, 31, 110
3, 108620, Note_off_c, 1, 31, 110
3, 108624, Note_on_c, 1, 31, 110
3, 108672, Note_off_c, 1, 31, 110
3, 108720, Note_on_c, 1, 34, 110
3, 108860, Note_off_c, 1, 34, 110
3, 108864, Note_on_c, 1, 34, 110
3, 108928, Note_off_c, 1, 34, 110
3, 108960, Note_on_c, 1, 34, 120
3, 109008, Note_off_c, 1, 34, 120
3, 109056, Note_on_c, 1, 27, 110
3, 109120, Note_off_c, 1, 27, 110
3, 109248, Note_on_c, 1, 27, 110
3, 109388, Note_off_c, 1, 27, 110
3, 109392, Note_on_c, 1, 27, 110
3, 109440, Note_off_c, 1, 27, 110
3, 109488, Note_on_c, 1, 27, 110
3, 109628, Note_off_c, 1, 27, 110
3, 109632, Note_on_c, 1, 27, 110
3, 109696, Note_off_c, 1, 27, 110
3, 109824, Note_on_c, 1, 29, 110
3, 109888, Note_off_c, 1, 29, 110
3, 110016, Note_on_c, 1, 29, 110
3, 110156, Note_off_c, 1, 29, 110
3, 110160, Note_on_c, 1, 29, 110
3, 110208, Note_off_c, 1, 29, 110
3, 110256, Note_on_c, 1, 29, 110
3, 110396, Note_off_c, 1, 29, 110
3, 110400, Note_on_c, 1, 29, 110
3, 110464, Note_off_c, 1, 29, 110
3, 110592, Note_on_c, 1, 27, 110
3, 110656, Note_off_c, 1, 27, 110
3, 110784, Note_on_c, 1, 27, 110
3, 110924, Note_off_c, 1, 27, 110
3, 110928, Note_on_c, 1, 27, 110
3, 110976, Note_off_c, 1, 27, 110
3, 111024, Note_on_c, 1, 27, 110
3, 111164, Note_off_c, 1, 27, 110
3, 111168, Note_on_c, 1, 27, 110
3, 111232, Note_off_c, 1, 27, 110
3, 111360, Note_on_c, 1, 31, 110
3, 111424, Note_off_c, 1, 31, 110
3, 111552, Note_on_c, 1, 31, 110
3, 111692, Note_off_c, 1, 31, 110
3, 111696, Note_on_c, 1, 31, 110
3, 111744, Note_off_c, 1, 31, 110
3, 111792, Note_on_c, 1, 34, 110
3, 111932, Note_off_c, 1, 34, 110
3, 111936, Note_on_c, 1, 34, 110
3, 112000, Note_off_c, 1, 34, 110
3, 112032, Note_on_c, 1, 34, 120
3, 112080, Note_off_c, 1, 34, 120
3, 112080, Note_on_c, 1, 36, 110
3, 112128, Note_off_c, 1, 36, 110
3, 112128, Note_on_c, 1, 27, 110
3, 112192, Note_off_c, 1, 27, 110
3, 112320, Note_on_c, 1, 27, 110
3, 112460, Note_off_c, 1, 27, 110
3, 112464, Note_on_c, 1, 27, 110
3, 112512, Note_off_c, 1, 27, 110
3, 112560, Note_on_c, 1, 27, 110
3, 112700, Note_off_c, 1, 27, 110
3, 112704, Note_on_c, 1, 27, 110
3, 112768, Note_off_c, 1, 27, 110
3, 112896, Note_on_c, 1, 31, 110
3, 112960, Note_off_c, 1, 31, 110
3, 113088, Note_on_c, 1, 31, 110
3, 113228, Note_off_c, 1, 31, 110
3, 113232, Note_on_c, 1, 31, 110
3, 113280, Note_off_c, 1, 31, 110
3, 113328, Note_on_c, 1, 34, 110
3, 113468, Note_off_c, 1, 34, 110
3, 113472, Note_on_c, 1, 34, 110
3, 113536, Note_off_c, 1, 34, 110
3, 113568, Note_on_c, 1, 34, 120
3, 113616, Note_off_c, 1, 34, 120
3, 113616, Note_on_c, 1, 36, 110
3, 113664, Note_off_c, 1, 36, 110
3, 113664, Note_on_c, 1, 27, 110
3, 113728, Note_off_c, 1, 27, 110
3, 113856, Note_on_c, 1, 27, 110
3, 113996, Note_off_c, 1, 27, 110
3, 114000, Note_on_c, 1, 27, 110
3, 114048, Note_off_c, 1, 27, 110
3, 114096, Note_on_c, 1, 27, 110
3, 114236, Note_off_c, 1, 27, 110
3, 114240, Note_on_c, 1, 27, 110
3, 114304, Note_off_c, 1, 27, 110
3, 114432, Note_on_c, 1, 31, 110
3, 114496, Note_off_c, 1, 31, 110
3, 114624, Note_on_c, 1, 31, 110
3, 114764, Note_off_c, 1, 31, 110
3, 114768, Note_on_c, 1, 31, 110
3, 114816, Note_off_c, 1, 31, 110
3, 114864, Note_on_c, 1, 34, 110
3, 115004, Note_off_c, 1, 34, 110
3, 115008, Note_on_c, 1, 34, 110
3, 115072, Note_off_c, 1, 34, 110
3, 115104, Note_on_c, 1, 34, 120
3, 115152, Note_off_c, 1, 34, 120
3, 115200, Note_on_c, 1, 27, 110
3, 115264, Note_off_c, 1, 27, 110
3, 115392, Note_on_c, 1, 27, 110
3, 115532, Note_off_c, 1, 27, 110
3, 115536, Note_on_c, 1, 27, 110
3, 115584, Note_off_c, 1, 27, 110
3, 115632, Note_on_c, 1, 27, 110
3, 115772, Note_off_c, 1, 27, 110
3, 115776, Note_on_c, 1, 27, 110
3, 115840, Note_off_c, 1, 27, 110
3, 115968, Note_on_c, 1, 29, 110
3, 116032, Note_off_c, 1, 29, 110
3, 116160, Note_on_c, 1, 29, 110
3, 116300, Note_off_c, 1, 29, 110
3, 116304, Note_on_c, 1, 29, 110
3, 116352, Note_off_c, 1, 29, 110
3, 116400, Note_on_c, 1, 29, 110
3, 116540, Note_off_c, 1, 29, 110
3, 116544, Note_on_c, 1, 29, 110
3, 116608, Note_off_c, 1, 29, 110
3, 116736, Note_on_c, 1, 27, 110
3, 116800, Note_off_c, 1, 27, 110
3, 116928, Note_on_c, 1, 27, 110
3, 117068, Note_off_c, 1, 27, 110
3, 117072, Note_on_c, 1, 27, 110
3, 117120, Note_off_c, 1, 27, 110
3, 117168, Note_on_c, 1, 27, 110
3, 117308, Note_off_c, 1, 27, 110
3, 117312, Note_on_c, 1, 27, 110
3, 117376, Note_off_c, 1, 27, 110
3, 117504, Note_on_c, 1, 31, 110
3, 117568, Note_off_c, 1, 31, 110
3, 117696, Note_on_c, 1, 31, 110
3, 117836, Note_off_c, 1, 31, 110
3, 117840, Note_on_c, 1, 31, 110
3, 117888, Note_off_c, 1, 31, 110
3, 117936, Note_on_c, 1, 34, 110
3, 118076, Note_off_c, 1, 34, 110
3, 118080, Note_on_c, 1, 34, 110
3, 118144, Note_off_c, 1, 34, 110
3, 118176, Note_on_c, 1, 34, 120
3, 118224, Note_off_c, 1, 34, 120
3, 118224, Note_on_c, 1, 36, 110
3, 118272, Note_off_c, 1, 36, 110
3, 118272, Note_on_c, 1, 27, 110
3, 118336, Note_off_c, 1, 27, 110
3, 118464, Note_on_c, 1, 27, 110
3, 118604, Note_off_c, 1, 27, 110
3, 118608, Note_on_c, 1, 27, 110
3, 118656, Note_off_c, 1, 27, 110
3, 118704, Note_on_c, 1, 27, 110
3, 118844, Note_off_c, 1, 27, 110
3, 118848, Note_on_c, 1, 27, 110
3, 118912, Note_off_c, 1, 27, 110
3, 119040, Note_on_c, 1, 31, 110
3, 119104, Note_off_c, 1, 31, 110
3, 119232, Note_on_c, 1, 31, 110
3, 119372, Note_off_c, 1, 31, 110
3, 119376, Note_on_c, 1, 31, 110
3, 119424, Note_off_c, 1, 31, 110
3, 119472, Note_on_c, 1, 34, 110
3, 119612, Note_off_c, 1, 34, 110
3, 119616, Note_on_c, 1, 34, 110
3, 119680, Note_off_c, 1, 34, 110
3, 119712, Note_on_c, 1, 34, 120
3, 119760, Note_off_c, 1, 34, 120
3, 119760, Note_on_c, 1, 36, 110
3, 119808, Note_off_c, 1, 36, 110
3, 119808, Note_on_c, 1, 27, 110
3, 119872, Note_off_c, 1, 27, 110
3, 120000, Note_on_c, 1, 27, 110
3, 120140, Note_off_c, 1, 27, 110
3, 120144, Note_on_c, 1, 27, 110
3, 120192, Note_off_c, 1, 27, 110
3, 120240, Note_on_c, 1, 27, 110
3, 120380, Note_off_c, 1, 27, 110
3, 120384, Note_on_c, 1, 27, 110
3, 120448, Note_off_c, 1, 27, 110
3, 120576, Note_on_c, 1, 31, 110
3, 120640, Note_off_c, 1, 31, 110
3, 120768, Note_on_c, 1, 31, 110
3, 120908, Note_off_c, 1, 31, 110
3, 120912, Note_on_c, 1, 31, 110
3, 120960, Note_off_c, 1, 31, 110
3, 121008, Note_on_c, 1, 34, 110
3, 121148, Note_off_c, 1, 34, 110
3, 121152, Note_on_c, 1, 34, 110
3, 121216, Note_off_c, 1, 34, 110
3, 121248, Note_on_c, 1, 34, 120
3, 121296, Note_off_c, 1, 34, 120
3, 121344, Note_on_c, 1, 27, 110
3, 121408, Note_off_c, 1, 27, 110
3, 121536, Note_on_c, 1, 27, 110
3, 121676, Note_off_c, 1, 27, 110
3, 121680, Note_on_c, 1, 27, 110
3, 121728, Note_off_c, 1, 27, 110
3, 121776, Note_on_c, 1, 27, 110
3, 121916, Note_off_c, 1, 27, 110
3, 121920, Note_on_c, 1, 27, 110
3, 121984, Note_off_c, 1, 27, 110
3, 122112, Note_on_c, 1, 29, 110
3, 122224, Note_off_c, 1, 29, 110
3, 122224, End_track
4, 0, Start_track
4, 0, Text_t, "Hi Syn Ri"
4, 2880, Control_c, 2, 0, 0
4, 2882, Control_c, 2, 32, 0
4, 2884, Program_c, 2, 87
4, 2886, Control_c, 2, 7, 100
4, 2888, Control_c, 2, 10, 88
4, 2890, Control_c, 2, 11, 70
4, 2892, Control_c, 2, 91, 60
4, 2894, Control_c, 2, 93, 0
4, 9216, Note_on_c, 2, 79, 110
4, 9244, Note_off_c, 2, 79, 110
4, 9264, Note_on_c, 2, 77, 110
4, 9292, Note_off_c, 2, 77, 110
4, 9312, Note_on_c, 2, 82, 110
4, 9340, Note_off_c, 2, 82, 110
4, 9360, Note_on_c, 2, 77, 110
4, 9388, Note_off_c, 2, 77, 110
4, 9408, Note_on_c, 2, 84, 110
4, 9436, Note_off_c, 2, 84, 110
4, 9456, Note_on_c, 2, 86, 110
4, 9484, Note_off_c, 2, 86, 110
4, 9504, Note_on_c, 2, 79, 110
4, 9532, Note_off_c, 2, 79, 110
4, 9552, Note_on_c, 2, 82, 110
4, 9580, Note_off_c, 2, 82, 110
4, 9600, Note_on_c, 2, 77, 110
4, 9628, Note_off_c, 2, 77, 110
4, 9648, Note_on_c, 2, 84, 110
4, 9676, Note_off_c, 2, 84, 110
4, 9696, Note_on_c, 2, 86, 110
4, 9724, Note_off_c, 2, 86, 110
4, 9744, Note_on_c, 2, 77, 110
4, 9772, Note_off_c, 2, 77, 110
4, 9792, Note_on_c, 2, 82, 110
4, 9820, Note_off_c, 2, 82, 110
4, 9840, Note_on_c, 2, 77, 110
4, 9868, Note_off_c, 2, 77, 110
4, 9888, Note_on_c, 2, 84, 110
4, 9916, Note_off_c, 2, 84, 110
4, 9936, Note_on_c, 2, 86, 110
4, 9964, Note_off_c, 2, 86, 110
4, 9984, Note_on_c, 2, 79, 110
4, 10012, Note_off_c, 2, 79, 110
4, 10032, Note_on_c, 2, 82, 110
4, 10060, Note_off_c, 2, 82, 110
4, 10080, Note_on_c, 2, 77, 110
4, 10108, Note_off_c, 2, 77, 110
4, 10128, Note_on_c, 2, 84, 110
4, 10156, Note_off_c, 2, 84, 110
4, 10176, Note_on_c, 2, 86, 110
4, 10204, Note_off_c, 2, 86, 110
4, 10224, Note_on_c, 2, 77, 110
4, 10252, Note_off_c, 2, 77, 110
4, 10272, Note_on_c, 2, 82, 110
4, 10300, Note_off_c, 2, 82, 110
4, 10320, Note_on_c, 2, 77, 110
4, 10348, Note_off_c, 2, 77, 110
4, 10368, Note_on_c, 2, 84, 110
4, 10396, Note_off_c, 2, 84, 110
4, 10416, Note_on_c, 2, 77, 110
4, 10444, Note_off_c, 2, 77, 110
4, 10464, Note_on_c, 2, 86, 110
4, 10492, Note_off_c, 2, 86, 110
4, 10512, Note_on_c, 2, 77, 110
4, 10540, Note_off_c, 2, 77, 110
4, 10608, Note_on_c, 2, 82, 110
4, 10636, Note_off_c, 2, 82, 110
4, 10656, Note_on_c, 2, 84, 110
4, 10684, Note_off_c, 2, 84, 110
4, 10704, Note_on_c, 2, 86, 110
4, 10732, Note_off_c, 2, 86, 110
4, 10752, Note_on_c, 2, 79, 110
4, 10780, Note_off_c, 2, 79, 110
4, 10800, Note_on_c, 2, 82, 110
4, 10828, Note_off_c, 2, 82, 110
4, 10848, Note_on_c, 2, 77, 110
4, 10876, Note_off_c, 2, 77, 110
4, 10896, Note_on_c, 2, 84, 110
4, 10924, Note_off_c, 2, 84, 110
4, 10944, Note_on_c, 2, 86, 110
4, 10972, Note_off_c, 2, 86, 110
4, 10992, Note_on_c, 2, 77, 110
4, 11020, Note_off_c, 2, 77, 110
4, 11040, Note_on_c, 2, 82, 110
4, 11068, Note_off_c, 2, 82, 110
4, 11088, Note_on_c, 2, 77, 110
4, 11116, Note_off_c, 2, 77, 110
4, 11136, Note_on_c, 2, 84, 110
4, 11164, Note_off_c, 2, 84, 110
4, 11184, Note_on_c, 2, 86, 110
4, 11212, Note_off_c, 2, 86, 110
4, 11232, Note_on_c, 2, 77, 110
4, 11260, Note_off_c, 2, 77, 110
4, 11280, Note_on_c, 2, 82, 110
4, 11308, Note_off_c, 2, 82, 110
4, 11328, Note_on_c, 2, 77, 110
4, 11356, Note_off_c, 2, 77, 110
4, 11376, Note_on_c, 2, 84, 110
4, 11404, Note_off_c, 2, 84, 110
4, 11424, Note_on_c, 2, 86, 110
4, 11452, Note_off_c, 2, 86, 110
4, 11472, Note_on_c, 2, 79, 110
4, 11500, Note_off_c, 2, 79, 110
4, 11520, Note_on_c, 2, 82, 110
4, 11548, Note_off_c, 2, 82, 110
4, 11568, Note_on_c, 2, 77, 110
4, 11596, Note_off_c, 2, 77, 110
4, 11616, Note_on_c, 2, 82, 110
4, 11644, Note_off_c, 2, 82, 110
4, 11664, Note_on_c, 2, 89, 110
4, 11692, Note_off_c, 2, 89, 110
4, 11712, Note_on_c, 2, 94, 110
4, 11740, Note_off_c, 2, 94, 110
4, 11760, Note_on_c, 2, 86, 110
4, 11788, Note_off_c, 2, 86, 110
4, 11808, Note_on_c, 2, 86, 110
4, 11836, Note_off_c, 2, 86, 110
4, 11856, Note_on_c, 2, 82, 110
4, 11884, Note_off_c, 2, 82, 110
4, 11904, Note_on_c, 2, 82, 110
4, 11932, Note_off_c, 2, 82, 110
4, 11952, Note_on_c, 2, 77, 110
4, 11980, Note_off_c, 2, 77, 110
4, 12000, Note_on_c, 2, 82, 110
4, 12028, Note_off_c, 2, 82, 110
4, 12048, Note_on_c, 2, 89, 110
4, 12076, Note_off_c, 2, 89, 110
4, 12096, Note_on_c, 2, 94, 110
4, 12124, Note_off_c, 2, 94, 110
4, 12144, Note_on_c, 2, 86, 110
4, 12172, Note_off_c, 2, 86, 110
4, 12192, Note_on_c, 2, 86, 110
4, 12220, Note_off_c, 2, 86, 110
4, 12240, Note_on_c, 2, 82, 110
4, 12268, Note_off_c, 2, 82, 110
4, 12288, Note_on_c, 2, 86, 110
4, 12316, Note_off_c, 2, 86, 110
4, 12336, Note_on_c, 2, 79, 110
4, 12364, Note_off_c, 2, 79, 110
4, 12384, Note_on_c, 2, 86, 110
4, 12412, Note_off_c, 2, 86, 110
4, 12432, Note_on_c, 2, 77, 110
4, 12460, Note_off_c, 2, 77, 110
4, 12480, Note_on_c, 2, 82, 110
4, 12508, Note_off_c, 2, 82, 110
4, 12528, Note_on_c, 2, 94, 110
4, 12556, Note_off_c, 2, 94, 110
4, 12576, Note_on_c, 2, 91, 110
4, 12604, Note_off_c, 2, 91, 110
4, 12624, Note_on_c, 2, 89, 110
4, 12652, Note_off_c, 2, 89, 110
4, 12672, Note_on_c, 2, 86, 110
4, 12700, Note_off_c, 2, 86, 110
4, 12720, Note_on_c, 2, 79, 110
4, 12748, Note_off_c, 2, 79, 110
4, 12768, Note_on_c, 2, 82, 110
4, 12796, Note_off_c, 2, 82, 110
4, 12816, Note_on_c, 2, 77, 110
4, 12844, Note_off_c, 2, 77, 110
4, 12864, Note_on_c, 2, 86, 110
4, 12892, Note_off_c, 2, 86, 110
4, 12912, Note_on_c, 2, 79, 110
4, 12940, Note_off_c, 2, 79, 110
4, 12960, Note_on_c, 2, 86, 110
4, 12988, Note_off_c, 2, 86, 110
4, 13008, Note_on_c, 2, 77, 110
4, 13036, Note_off_c, 2, 77, 110
4, 13056, Note_on_c, 2, 82, 110
4, 13084, Note_off_c, 2, 82, 110
4, 13104, Note_on_c, 2, 79, 110
4, 13132, Note_off_c, 2, 79, 110
4, 13152, Note_on_c, 2, 86, 110
4, 13180, Note_off_c, 2, 86, 110
4, 13200, Note_on_c, 2, 77, 110
4, 13228, Note_off_c, 2, 77, 110
4, 13248, Note_on_c, 2, 82, 110
4, 13276, Note_off_c, 2, 82, 110
4, 13296, Note_on_c, 2, 79, 110
4, 13324, Note_off_c, 2, 79, 110
4, 13344, Note_on_c, 2, 86, 110
4, 13372, Note_off_c, 2, 86, 110
4, 13392, Note_on_c, 2, 77, 110
4, 13420, Note_off_c, 2, 77, 110
4, 13440, Note_on_c, 2, 82, 110
4, 13468, Note_off_c, 2, 82, 110
4, 13488, Note_on_c, 2, 79, 110
4, 13516, Note_off_c, 2, 79, 110
4, 13536, Note_on_c, 2, 86, 110
4, 13564, Note_off_c, 2, 86, 110
4, 13584, Note_on_c, 2, 77, 110
4, 13612, Note_off_c, 2, 77, 110
4, 13632, Note_on_c, 2, 82, 110
4, 13660, Note_off_c, 2, 82, 110
4, 13680, Note_on_c, 2, 79, 110
4, 13708, Note_off_c, 2, 79, 110
4, 13728, Note_on_c, 2, 86, 110
4, 13756, Note_off_c, 2, 86, 110
4, 13776, Note_on_c, 2, 77, 110
4, 13804, Note_off_c, 2, 77, 110
4, 13824, Note_on_c, 2, 82, 110
4, 13852, Note_off_c, 2, 82, 110
4, 13872, Note_on_c, 2, 79, 110
4, 13900, Note_off_c, 2, 79, 110
4, 13920, Note_on_c, 2, 86, 110
4, 13948, Note_off_c, 2, 86, 110
4, 13968, Note_on_c, 2, 77, 110
4, 13996, Note_off_c, 2, 77, 110
4, 14016, Note_on_c, 2, 82, 110
4, 14044, Note_off_c, 2, 82, 110
4, 14064, Note_on_c, 2, 79, 110
4, 14092, Note_off_c, 2, 79, 110
4, 14112, Note_on_c, 2, 86, 110
4, 14140, Note_off_c, 2, 86, 110
4, 14160, Note_on_c, 2, 77, 110
4, 14188, Note_off_c, 2, 77, 110
4, 14208, Note_on_c, 2, 82, 110
4, 14236, Note_off_c, 2, 82, 110
4, 14256, Note_on_c, 2, 79, 110
4, 14284, Note_off_c, 2, 79, 110
4, 14304, Note_on_c, 2, 86, 110
4, 14332, Note_off_c, 2, 86, 110
4, 14352, Note_on_c, 2, 77, 110
4, 14380, Note_off_c, 2, 77, 110
4, 14400, Note_on_c, 2, 82, 110
4, 14428, Note_off_c, 2, 82, 110
4, 14448, Note_on_c, 2, 79, 110
4, 14476, Note_off_c, 2, 79, 110
4, 14496, Note_on_c, 2, 86, 110
4, 14524, Note_off_c, 2, 86, 110
4, 14544, Note_on_c, 2, 77, 110
4, 14572, Note_off_c, 2, 77, 110
4, 14592, Note_on_c, 2, 82, 110
4, 14620, Note_off_c, 2, 82, 110
4, 14640, Note_on_c, 2, 79, 110
4, 14668, Note_off_c, 2, 79, 110
4, 14688, Note_on_c, 2, 86, 110
4, 14716, Note_off_c, 2, 86, 110
4, 14736, Note_on_c, 2, 77, 110
4, 14764, Note_off_c, 2, 77, 110
4, 14784, Note_on_c, 2, 82, 110
4, 14812, Note_off_c, 2, 82, 110
4, 14832, Note_on_c, 2, 79, 110
4, 14860, Note_off_c, 2, 79, 110
4, 14880, Note_on_c, 2, 86, 110
4, 14908, Note_off_c, 2, 86, 110
4, 14928, Note_on_c, 2, 77, 110
4, 14956, Note_off_c, 2, 77, 110
4, 14976, Note_on_c, 2, 82, 110
4, 15004, Note_off_c, 2, 82, 110
4, 15024, Note_on_c, 2, 79, 110
4, 15052, Note_off_c, 2, 79, 110
4, 15072, Note_on_c, 2, 86, 110
4, 15100, Note_off_c, 2, 86, 110
4, 15120, Note_on_c, 2, 77, 110
4, 15148, Note_off_c, 2, 77, 110
4, 15168, Note_on_c, 2, 82, 110
4, 15196, Note_off_c, 2, 82, 110
4, 15216, Note_on_c, 2, 79, 110
4, 15244, Note_off_c, 2, 79, 110
4, 15264, Note_on_c, 2, 86, 110
4, 15292, Note_off_c, 2, 86, 110
4, 15312, Note_on_c, 2, 77, 110
4, 15340, Note_off_c, 2, 77, 110
4, 21504, Note_on_c, 2, 98, 90
4, 21532, Note_off_c, 2, 98, 90
4, 21552, Note_on_c, 2, 89, 90
4, 21580, Note_off_c, 2, 89, 90
4, 21600, Note_on_c, 2, 94, 90
4, 21628, Note_off_c, 2, 94, 90
4, 21648, Note_on_c, 2, 89, 90
4, 21676, Note_off_c, 2, 89, 90
4, 21696, Note_on_c, 2, 96, 90
4, 21724, Note_off_c, 2, 96, 90
4, 21744, Note_on_c, 2, 98, 90
4, 21772, Note_off_c, 2, 98, 90
4, 21792, Note_on_c, 2, 89, 90
4, 21820, Note_off_c, 2, 89, 90
4, 21840, Note_on_c, 2, 94, 90
4, 21868, Note_off_c, 2, 94, 90
4, 21888, Note_on_c, 2, 89, 90
4, 21916, Note_off_c, 2, 89, 90
4, 21936, Note_on_c, 2, 96, 90
4, 21964, Note_off_c, 2, 96, 90
4, 21984, Note_on_c, 2, 98, 90
4, 22012, Note_off_c, 2, 98, 90
4, 22032, Note_on_c, 2, 89, 90
4, 22060, Note_off_c, 2, 89, 90
4, 22080, Note_on_c, 2, 94, 90
4, 22108, Note_off_c, 2, 94, 90
4, 22128, Note_on_c, 2, 89, 90
4, 22156, Note_off_c, 2, 89, 90
4, 22176, Note_on_c, 2, 96, 90
4, 22204, Note_off_c, 2, 96, 90
4, 22224, Note_on_c, 2, 98, 90
4, 22252, Note_off_c, 2, 98, 90
4, 22272, Note_on_c, 2, 89, 90
4, 22300, Note_off_c, 2, 89, 90
4, 22320, Note_on_c, 2, 94, 90
4, 22348, Note_off_c, 2, 94, 90
4, 22368, Note_on_c, 2, 89, 90
4, 22396, Note_off_c, 2, 89, 90
4, 22416, Note_on_c, 2, 96, 90
4, 22444, Note_off_c, 2, 96, 90
4, 22464, Note_on_c, 2, 98, 90
4, 22492, Note_off_c, 2, 98, 90
4, 22512, Note_on_c, 2, 89, 90
4, 22540, Note_off_c, 2, 89, 90
4, 22560, Note_on_c, 2, 94, 90
4, 22588, Note_off_c, 2, 94, 90
4, 22608, Note_on_c, 2, 89, 90
4, 22636, Note_off_c, 2, 89, 90
4, 22656, Note_on_c, 2, 94, 90
4, 22684, Note_off_c, 2, 94, 90
4, 22704, Note_on_c, 2, 103, 90
4, 22732, Note_off_c, 2, 103, 90
4, 22752, Note_on_c, 2, 101, 90
4, 22780, Note_off_c, 2, 101, 90
4, 22800, Note_on_c, 2, 89, 90
4, 22828, Note_off_c, 2, 89, 90
4, 22848, Note_on_c, 2, 94, 90
4, 22876, Note_off_c, 2, 94, 90
4, 22896, Note_on_c, 2, 89, 90
4, 22924, Note_off_c, 2, 89, 90
4, 22944, Note_on_c, 2, 96, 90
4, 22972, Note_off_c, 2, 96, 90
4, 22992, Note_on_c, 2, 98, 90
4, 23020, Note_off_c, 2, 98, 90
4, 23040, Note_on_c, 2, 89, 90
4, 23068, Note_off_c, 2, 89, 90
4, 23088, Note_on_c, 2, 94, 90
4, 23116, Note_off_c, 2, 94, 90
4, 23136, Note_on_c, 2, 89, 90
4, 23164, Note_off_c, 2, 89, 90
4, 23184, Note_on_c, 2, 96, 90
4, 23212, Note_off_c, 2, 96, 90
4, 23232, Note_on_c, 2, 98, 90
4, 23260, Note_off_c, 2, 98, 90
4, 23280, Note_on_c, 2, 89, 90
4, 23308, Note_off_c, 2, 89, 90
4, 23328, Note_on_c, 2, 94, 90
4, 23356, Note_off_c, 2, 94, 90
4, 23376, Note_on_c, 2, 89, 90
4, 23404, Note_off_c, 2, 89, 90
4, 23424, Note_on_c, 2, 98, 90
4, 23452, Note_off_c, 2, 98, 90
4, 23472, Note_on_c, 2, 89, 90
4, 23500, Note_off_c, 2, 89, 90
4, 23520, Note_on_c, 2, 94, 90
4, 23548, Note_off_c, 2, 94, 90
4, 23568, Note_on_c, 2, 89, 90
4, 23596, Note_off_c, 2, 89, 90
4, 23616, Note_on_c, 2, 98, 90
4, 23644, Note_off_c, 2, 98, 90
4, 23664, Note_on_c, 2, 89, 90
4, 23692, Note_off_c, 2, 89, 90
4, 23712, Note_on_c, 2, 94, 90
4, 23740, Note_off_c, 2, 94, 90
4, 23760, Note_on_c, 2, 89, 90
4, 23788, Note_off_c, 2, 89, 90
4, 23808, Note_on_c, 2, 101, 90
4, 23836, Note_off_c, 2, 101, 90
4, 23856, Note_on_c, 2, 106, 90
4, 23884, Note_off_c, 2, 106, 90
4, 23904, Note_on_c, 2, 96, 90
4, 23932, Note_off_c, 2, 96, 90
4, 23952, Note_on_c, 2, 89, 90
4, 23980, Note_off_c, 2, 89, 90
4, 24048, Note_on_c, 2, 94, 90
4, 24076, Note_off_c, 2, 94, 90
4, 24096, Note_on_c, 2, 89, 90
4, 24124, Note_off_c, 2, 89, 90
4, 24144, Note_on_c, 2, 94, 90
4, 24172, Note_off_c, 2, 94, 90
4, 24192, Note_on_c, 2, 89, 90
4, 24220, Note_off_c, 2, 89, 90
4, 24240, Note_on_c, 2, 98, 90
4, 24268, Note_off_c, 2, 98, 90
4, 24288, Note_on_c, 2, 89, 90
4, 24316, Note_off_c, 2, 89, 90
4, 24336, Note_on_c, 2, 94, 90
4, 24364, Note_off_c, 2, 94, 90
4, 24432, Note_on_c, 2, 101, 90
4, 24460, Note_off_c, 2, 101, 90
4, 24528, Note_on_c, 2, 89, 90
4, 24556, Note_off_c, 2, 89, 90
4, 24624, Note_on_c, 2, 98, 90
4, 24652, Note_off_c, 2, 98, 90
4, 24672, Note_on_c, 2, 89, 90
4, 24700, Note_off_c, 2, 89, 90
4, 24720, Note_on_c, 2, 98, 90
4, 24748, Note_off_c, 2, 98, 90
4, 24816, Note_on_c, 2, 89, 90
4, 24844, Note_off_c, 2, 89, 90
4, 24864, Note_on_c, 2, 94, 90
4, 24892, Note_off_c, 2, 94, 90
4, 24912, Note_on_c, 2, 103, 90
4, 24940, Note_off_c, 2, 103, 90
4, 24960, Note_on_c, 2, 101, 90
4, 24988, Note_off_c, 2, 101, 90
4, 25008, Note_on_c, 2, 98, 90
4, 25036, Note_off_c, 2, 98, 90
4, 25056, Note_on_c, 2, 94, 90
4, 25084, Note_off_c, 2, 94, 90
4, 25104, Note_on_c, 2, 98, 90
4, 25132, Note_off_c, 2, 98, 90
4, 25200, Note_on_c, 2, 89, 90
4, 25228, Note_off_c, 2, 89, 90
4, 25248, Note_on_c, 2, 94, 90
4, 25276, Note_off_c, 2, 94, 90
4, 25296, Note_on_c, 2, 98, 90
4, 25324, Note_off_c, 2, 98, 90
4, 25344, Note_on_c, 2, 89, 90
4, 25372, Note_off_c, 2, 89, 90
4, 25392, Note_on_c, 2, 94, 90
4, 25420, Note_off_c, 2, 94, 90
4, 25440, Note_on_c, 2, 91, 90
4, 25468, Note_off_c, 2, 91, 90
4, 25488, Note_on_c, 2, 98, 90
4, 25516, Note_off_c, 2, 98, 90
4, 25536, Note_on_c, 2, 89, 90
4, 25564, Note_off_c, 2, 89, 90
4, 25584, Note_on_c, 2, 94, 90
4, 25612, Note_off_c, 2, 94, 90
4, 25632, Note_on_c, 2, 91, 90
4, 25660, Note_off_c, 2, 91, 90
4, 25680, Note_on_c, 2, 98, 90
4, 25708, Note_off_c, 2, 98, 90
4, 25728, Note_on_c, 2, 89, 90
4, 25756, Note_off_c, 2, 89, 90
4, 25776, Note_on_c, 2, 94, 90
4, 25804, Note_off_c, 2, 94, 90
4, 25824, Note_on_c, 2, 91, 90
4, 25852, Note_off_c, 2, 91, 90
4, 25872, Note_on_c, 2, 98, 90
4, 25900, Note_off_c, 2, 98, 90
4, 25920, Note_on_c, 2, 89, 90
4, 25948, Note_off_c, 2, 89, 90
4, 25968, Note_on_c, 2, 94, 90
4, 25996, Note_off_c, 2, 94, 90
4, 26016, Note_on_c, 2, 91, 90
4, 26044, Note_off_c, 2, 91, 90
4, 26064, Note_on_c, 2, 98, 90
4, 26092, Note_off_c, 2, 98, 90
4, 26112, Note_on_c, 2, 89, 90
4, 26140, Note_off_c, 2, 89, 90
4, 26160, Note_on_c, 2, 94, 90
4, 26188, Note_off_c, 2, 94, 90
4, 26208, Note_on_c, 2, 91, 90
4, 26236, Note_off_c, 2, 91, 90
4, 26256, Note_on_c, 2, 98, 90
4, 26284, Note_off_c, 2, 98, 90
4, 26304, Note_on_c, 2, 89, 90
4, 26332, Note_off_c, 2, 89, 90
4, 26352, Note_on_c, 2, 94, 90
4, 26380, Note_off_c, 2, 94, 90
4, 26400, Note_on_c, 2, 91, 90
4, 26428, Note_off_c, 2, 91, 90
4, 26448, Note_on_c, 2, 98, 90
4, 26476, Note_off_c, 2, 98, 90
4, 26496, Note_on_c, 2, 89, 90
4, 26524, Note_off_c, 2, 89, 90
4, 26544, Note_on_c, 2, 94, 90
4, 26572, Note_off_c, 2, 94, 90
4, 26592, Note_on_c, 2, 91, 90
4, 26620, Note_off_c, 2, 91, 90
4, 26640, Note_on_c, 2, 98, 90
4, 26668, Note_off_c, 2, 98, 90
4, 26688, Note_on_c, 2, 89, 90
4, 26716, Note_off_c, 2, 89, 90
4, 26736, Note_on_c, 2, 94, 90
4, 26764, Note_off_c, 2, 94, 90
4, 26784, Note_on_c, 2, 91, 90
4, 26812, Note_off_c, 2, 91, 90
4, 26832, Note_on_c, 2, 98, 90
4, 26860, Note_off_c, 2, 98, 90
4, 26880, Note_on_c, 2, 101, 90
4, 26908, Note_off_c, 2, 101, 90
4, 26928, Note_on_c, 2, 94, 90
4, 26956, Note_off_c, 2, 94, 90
4, 26976, Note_on_c, 2, 98, 90
4, 27004, Note_off_c, 2, 98, 90
4, 27024, Note_on_c, 2, 91, 90
4, 27052, Note_off_c, 2, 91, 90
4, 27072, Note_on_c, 2, 89, 90
4, 27100, Note_off_c, 2, 89, 90
4, 27120, Note_on_c, 2, 94, 90
4, 27148, Note_off_c, 2, 94, 90
4, 27168, Note_on_c, 2, 91, 90
4, 27196, Note_off_c, 2, 91, 90
4, 27216, Note_on_c, 2, 101, 90
4, 27244, Note_off_c, 2, 101, 90
4, 27264, Note_on_c, 2, 89, 90
4, 27292, Note_off_c, 2, 89, 90
4, 27312, Note_on_c, 2, 98, 90
4, 27340, Note_off_c, 2, 98, 90
4, 27360, Note_on_c, 2, 91, 90
4, 27388, Note_off_c, 2, 91, 90
4, 27408, Note_on_c, 2, 94, 90
4, 27436, Note_off_c, 2, 94, 90
4, 27456, Note_on_c, 2, 89, 90
4, 27484, Note_off_c, 2, 89, 90
4, 27504, Note_on_c, 2, 94, 90
4, 27532, Note_off_c, 2, 94, 90
4, 27552, Note_on_c, 2, 91, 90
4, 27580, Note_off_c, 2, 91, 90
4, 27600, Note_on_c, 2, 98, 90
4, 27628, Note_off_c, 2, 98, 90
4, 79872, Note_on_c, 2, 79, 110
4, 79900, Note_off_c, 2, 79, 110
4, 79920, Note_on_c, 2, 77, 110
4, 79948, Note_off_c, 2, 77, 110
4, 79968, Note_on_c, 2, 82, 110
4, 79996, Note_off_c, 2, 82, 110
4, 80016, Note_on_c, 2, 77, 110
4, 80044, Note_off_c, 2, 77, 110
4, 80064, Note_on_c, 2, 84, 110
4, 80092, Note_off_c, 2, 84, 110
4, 80112, Note_on_c, 2, 86, 110
4, 80140, Note_off_c, 2, 86, 110
4, 80160, Note_on_c, 2, 79, 110
4, 80188, Note_off_c, 2, 79, 110
4, 80208, Note_on_c, 2, 82, 110
4, 80236, Note_off_c, 2, 82, 110
4, 80256, Note_on_c, 2, 77, 110
4, 80284, Note_off_c, 2, 77, 110
4, 80304, Note_on_c, 2, 84, 110
4, 80332, Note_off_c, 2, 84, 110
4, 80352, Note_on_c, 2, 86, 110
4, 80380, Note_off_c, 2, 86, 110
4, 80400, Note_on_c, 2, 77, 110
4, 80428, Note_off_c, 2, 77, 110
4, 80448, Note_on_c, 2, 82, 110
4, 80476, Note_off_c, 2, 82, 110
4, 80496, Note_on_c, 2, 77, 110
4, 80524, Note_off_c, 2, 77, 110
4, 80544, Note_on_c, 2, 84, 110
4, 80572, Note_off_c, 2, 84, 110
4, 80592, Note_on_c, 2, 86, 110
4, 80620, Note_off_c, 2, 86, 110
4, 80640, Note_on_c, 2, 79, 110
4, 80668, Note_off_c, 2, 79, 110
4, 80688, Note_on_c, 2, 82, 110
4, 80716, Note_off_c, 2, 82, 110
4, 80736, Note_on_c, 2, 77, 110
4, 80764, Note_off_c, 2, 77, 110
4, 80784, Note_on_c, 2, 84, 110
4, 80812, Note_off_c, 2, 84, 110
4, 80832, Note_on_c, 2, 86, 110
4, 80860, Note_off_c, 2, 86, 110
4, 80880, Note_on_c, 2, 77, 110
4, 80908, Note_off_c, 2, 77, 110
4, 80928, Note_on_c, 2, 82, 110
4, 80956, Note_off_c, 2, 82, 110
4, 80976, Note_on_c, 2, 77, 110
4, 81004, Note_off_c, 2, 77, 110
4, 81024, Note_on_c, 2, 84, 110
4, 81052, Note_off_c, 2, 84, 110
4, 81072, Note_on_c, 2, 77, 110
4, 81100, Note_off_c, 2, 77, 110
4, 81120, Note_on_c, 2, 86, 110
4, 81148, Note_off_c, 2, 86, 110
4, 81168, Note_on_c, 2, 77, 110
4, 81196, Note_off_c, 2, 77, 110
4, 81264, Note_on_c, 2, 82, 110
4, 81292, Note_off_c, 2, 82, 110
4, 81312, Note_on_c, 2, 84, 110
4, 81340, Note_off_c, 2, 84, 110
4, 81360, Note_on_c, 2, 86, 110
4, 81388, Note_off_c, 2, 86, 110
4, 81408, Note_on_c, 2, 79, 110
4, 81436, Note_off_c, 2, 79, 110
4, 81456, Note_on_c, 2, 82, 110
4, 81484, Note_off_c, 2, 82, 110
4, 81504, Note_on_c, 2, 77, 110
4, 81532, Note_off_c, 2, 77, 110
4, 81552, Note_on_c, 2, 84, 110
4, 81580, Note_off_c, 2, 84, 110
4, 81600, Note_on_c, 2, 86, 110
4, 81628, Note_off_c, 2, 86, 110
4, 81648, Note_on_c, 2, 77, 110
4, 81676, Note_off_c, 2, 77, 110
4, 81696, Note_on_c, 2, 82, 110
4, 81724, Note_off_c, 2, 82, 110
4, 81744, Note_on_c, 2, 77, 110
4, 81772, Note_off_c, 2, 77, 110
4, 81792, Note_on_c, 2, 84, 110
4, 81820, Note_off_c, 2, 84, 110
4, 81840, Note_on_c, 2, 86, 110
4, 81868, Note_off_c, 2, 86, 110
4, 81888, Note_on_c, 2, 77, 110
4, 81916, Note_off_c, 2, 77, 110
4, 81936, Note_on_c, 2, 82, 110
4, 81964, Note_off_c, 2, 82, 110
4, 81984, Note_on_c, 2, 77, 110
4, 82012, Note_off_c, 2, 77, 110
4, 82032, Note_on_c, 2, 84, 110
4, 82060, Note_off_c, 2, 84, 110
4, 82080, Note_on_c, 2, 86, 110
4, 82108, Note_off_c, 2, 86, 110
4, 82128, Note_on_c, 2, 79, 110
4, 82156, Note_off_c, 2, 79, 110
4, 82176, Note_on_c, 2, 82, 110
4, 82204, Note_off_c, 2, 82, 110
4, 82224, Note_on_c, 2, 77, 110
4, 82252, Note_off_c, 2, 77, 110
4, 82272, Note_on_c, 2, 82, 110
4, 82300, Note_off_c, 2, 82, 110
4, 82320, Note_on_c, 2, 89, 110
4, 82348, Note_off_c, 2, 89, 110
4, 82368, Note_on_c, 2, 94, 110
4, 82396, Note_off_c, 2, 94, 110
4, 82416, Note_on_c, 2, 86, 110
4, 82444, Note_off_c, 2, 86, 110
4, 82464, Note_on_c, 2, 86, 110
4, 82492, Note_off_c, 2, 86, 110
4, 82512, Note_on_c, 2, 82, 110
4, 82540, Note_off_c, 2, 82, 110
4, 82560, Note_on_c, 2, 82, 110
4, 82588, Note_off_c, 2, 82, 110
4, 82608, Note_on_c, 2, 77, 110
4, 82636, Note_off_c, 2, 77, 110
4, 82656, Note_on_c, 2, 82, 110
4, 82684, Note_off_c, 2, 82, 110
4, 82704, Note_on_c, 2, 89, 110
4, 82732, Note_off_c, 2, 89, 110
4, 82752, Note_on_c, 2, 94, 110
4, 82780, Note_off_c, 2, 94, 110
4, 82800, Note_on_c, 2, 86, 110
4, 82828, Note_off_c, 2, 86, 110
4, 82848, Note_on_c, 2, 86, 110
4, 82876, Note_off_c, 2, 86, 110
4, 82896, Note_on_c, 2, 82, 110
4, 82924, Note_off_c, 2, 82, 110
4, 82944, Note_on_c, 2, 86, 110
4, 82972, Note_off_c, 2, 86, 110
4, 82992, Note_on_c, 2, 79, 110
4, 83020, Note_off_c, 2, 79, 110
4, 83040, Note_on_c, 2, 86, 110
4, 83068, Note_off_c, 2, 86, 110
4, 83088, Note_on_c, 2, 77, 110
4, 83116, Note_off_c, 2, 77, 110
4, 83136, Note_on_c, 2, 82, 110
4, 83164, Note_off_c, 2, 82, 110
4, 83184, Note_on_c, 2, 94, 110
4, 83212, Note_off_c, 2, 94, 110
4, 83232, Note_on_c, 2, 91, 110
4, 83260, Note_off_c, 2, 91, 110
4, 83280, Note_on_c, 2, 89, 110
4, 83308, Note_off_c, 2, 89, 110
4, 83328, Note_on_c, 2, 86, 110
4, 83356, Note_off_c, 2, 86, 110
4, 83376, Note_on_c, 2, 79, 110
4, 83404, Note_off_c, 2, 79, 110
4, 83424, Note_on_c, 2, 82, 110
4, 83452, Note_off_c, 2, 82, 110
4, 83472, Note_on_c, 2, 77, 110
4, 83500, Note_off_c, 2, 77, 110
4, 83520, Note_on_c, 2, 86, 110
4, 83548, Note_off_c, 2, 86, 110
4, 83568, Note_on_c, 2, 79, 110
4, 83596, Note_off_c, 2, 79, 110
4, 83616, Note_on_c, 2, 86, 110
4, 83644, Note_off_c, 2, 86, 110
4, 83664, Note_on_c, 2, 77, 110
4, 83692, Note_off_c, 2, 77, 110
4, 83712, Note_on_c, 2, 82, 110
4, 83740, Note_off_c, 2, 82, 110
4, 83760, Note_on_c, 2, 79, 110
4, 83788, Note_off_c, 2, 79, 110
4, 83808, Note_on_c, 2, 86, 110
4, 83836, Note_off_c, 2, 86, 110
4, 83856, Note_on_c, 2, 77, 110
4, 83884, Note_off_c, 2, 77, 110
4, 83904, Note_on_c, 2, 82, 110
4, 83932, Note_off_c, 2, 82, 110
4, 83952, Note_on_c, 2, 79, 110
4, 83980, Note_off_c, 2, 79, 110
4, 84000, Note_on_c, 2, 86, 110
4, 84028, Note_off_c, 2, 86, 110
4, 84048, Note_on_c, 2, 77, 110
4, 84076, Note_off_c, 2, 77, 110
4, 84096, Note_on_c, 2, 82, 110
4, 84124, Note_off_c, 2, 82, 110
4, 84144, Note_on_c, 2, 79, 110
4, 84172, Note_off_c, 2, 79, 110
4, 84192, Note_on_c, 2, 86, 110
4, 84220, Note_off_c, 2, 86, 110
4, 84240, Note_on_c, 2, 77, 110
4, 84268, Note_off_c, 2, 77, 110
4, 84288, Note_on_c, 2, 82, 110
4, 84316, Note_off_c, 2, 82, 110
4, 84336, Note_on_c, 2, 79, 110
4, 84364, Note_off_c, 2, 79, 110
4, 84384, Note_on_c, 2, 86, 110
4, 84412, Note_off_c, 2, 86, 110
4, 84432, Note_on_c, 2, 77, 110
4, 84460, Note_off_c, 2, 77, 110
4, 84480, Note_on_c, 2, 82, 110
4, 84508, Note_off_c, 2, 82, 110
4, 84528, Note_on_c, 2, 79, 110
4, 84556, Note_off_c, 2, 79, 110
4, 84576, Note_on_c, 2, 86, 110
4, 84604, Note_off_c, 2, 86, 110
4, 84624, Note_on_c, 2, 77, 110
4, 84652, Note_off_c, 2, 77, 110
4, 84672, Note_on_c, 2, 82, 110
4, 84700, Note_off_c, 2, 82, 110
4, 84720, Note_on_c, 2, 79, 110
4, 84748, Note_off_c, 2, 79, 110
4, 84768, Note_on_c, 2, 86, 110
4, 84796, Note_off_c, 2, 86, 110
4, 84816, Note_on_c, 2, 77, 110
4, 84844, Note_off_c, 2, 77, 110
4, 84864, Note_on_c, 2, 82, 110
4, 84892, Note_off_c, 2, 82, 110
4, 84912, Note_on_c, 2, 79, 110
4, 84940, Note_off_c, 2, 79, 110
4, 84960, Note_on_c, 2, 86, 110
4, 84988, Note_off_c, 2, 86, 110
4, 85008, Note_on_c, 2, 77, 110
4, 85036, Note_off_c, 2, 77, 110
4, 85056, Note_on_c, 2, 82, 110
4, 85084, Note_off_c, 2, 82, 110
4, 85104, Note_on_c, 2, 79, 110
4, 85132, Note_off_c, 2, 79, 110
4, 85152, Note_on_c, 2, 86, 110
4, 85180, Note_off_c, 2, 86, 110
4, 85200, Note_on_c, 2, 77, 110
4, 85228, Note_off_c, 2, 77, 110
4, 85248, Note_on_c, 2, 82, 110
4, 85276, Note_off_c, 2, 82, 110
4, 85296, Note_on_c, 2, 79, 110
4, 85324, Note_off_c, 2, 79, 110
4, 85344, Note_on_c, 2, 86, 110
4, 85372, Note_off_c, 2, 86, 110
4, 85392, Note_on_c, 2, 77, 110
4, 85420, Note_off_c, 2, 77, 110
4, 85440, Note_on_c, 2, 82, 110
4, 85468, Note_off_c, 2, 82, 110
4, 85488, Note_on_c, 2, 79, 110
4, 85516, Note_off_c, 2, 79, 110
4, 85536, Note_on_c, 2, 86, 110
4, 85564, Note_off_c, 2, 86, 110
4, 85584, Note_on_c, 2, 77, 110
4, 85612, Note_off_c, 2, 77, 110
4, 85632, Note_on_c, 2, 82, 110
4, 85660, Note_off_c, 2, 82, 110
4, 85680, Note_on_c, 2, 79, 110
4, 85708, Note_off_c, 2, 79, 110
4, 85728, Note_on_c, 2, 86, 110
4, 85756, Note_off_c, 2, 86, 110
4, 85776, Note_on_c, 2, 77, 110
4, 85804, Note_off_c, 2, 77, 110
4, 85824, Note_on_c, 2, 82, 110
4, 85852, Note_off_c, 2, 82, 110
4, 85872, Note_on_c, 2, 79, 110
4, 85900, Note_off_c, 2, 79, 110
4, 85920, Note_on_c, 2, 86, 110
4, 85948, Note_off_c, 2, 86, 110
4, 85968, Note_on_c, 2, 77, 110
4, 85996, Note_off_c, 2, 77, 110
4, 85996, End_track
5, 0, Start_track
5, 0, Text_t, "Pluck Syn"
5, 2880, Control_c, 3, 0, 0
5, 2882, Control_c, 3, 32, 0
5, 2884, Program_c, 3, 99
5, 2886, Control_c, 3, 7, 100
5, 2888, Control_c, 3, 10, 64
5, 2890, Control_c, 3, 11, 95
5, 2892, Control_c, 3, 91, 40
5, 2894, Control_c, 3, 93, 0
5, 30624, Note_on_c, 3, 74, 100
5, 30720, Note_on_c, 3, 79, 100
5, 30724, Note_off_c, 3, 74, 100
5, 30816, Note_on_c, 3, 77, 100
5, 30822, Note_off_c, 3, 79, 100
5, 31104, Note_off_c, 3, 77, 100
5, 31104, Note_on_c, 3, 74, 100
5, 31200, Note_on_c, 3, 72, 100
5, 31218, Note_off_c, 3, 74, 100
5, 31468, Note_off_c, 3, 72, 100
5, 31488, Note_on_c, 3, 70, 100
5, 31584, Note_on_c, 3, 72, 100
5, 31594, Note_off_c, 3, 70, 100
5, 31672, Note_off_c, 3, 72, 100
5, 31680, Note_on_c, 3, 74, 100
5, 31776, Note_on_c, 3, 67, 100
5, 31790, Note_off_c, 3, 74, 100
5, 32256, Note_off_c, 3, 67, 100
5, 33696, Note_on_c, 3, 74, 100
5, 33790, Note_off_c, 3, 74, 100
5, 33792, Note_on_c, 3, 79, 100
5, 33886, Note_off_c, 3, 79, 100
5, 33888, Note_on_c, 3, 77, 100
5, 34080, Note_on_c, 3, 79, 100
5, 34096, Note_off_c, 3, 77, 100
5, 34176, Note_on_c, 3, 74, 100
5, 34184, Note_off_c, 3, 79, 100
5, 34248, Note_off_c, 3, 74, 100
5, 34272, Note_on_c, 3, 72, 100
5, 34560, Note_on_c, 3, 70, 100
5, 34570, Note_off_c, 3, 72, 100
5, 34656, Note_off_c, 3, 70, 100
5, 34656, Note_on_c, 3, 72, 100
5, 34748, Note_off_c, 3, 72, 100
5, 34752, Note_on_c, 3, 74, 100
5, 34848, Note_on_c, 3, 67, 100
5, 34850, Note_off_c, 3, 74, 100
5, 35328, Note_off_c, 3, 67, 100
5, 36768, Note_on_c, 3, 79, 100
5, 36850, Note_off_c, 3, 79, 100
5, 36864, Note_on_c, 3, 82, 100
5, 37344, Note_on_c, 3, 81, 100
5, 37346, Note_off_c, 3, 82, 100
5, 37440, Note_off_c, 3, 81, 100
5, 37440, Note_on_c, 3, 82, 100
5, 37528, Note_off_c, 3, 82, 100
5, 37536, Note_on_c, 3, 84, 100
5, 37632, Note_on_c, 3, 81, 100
5, 37640, Note_off_c, 3, 84, 100
5, 37818, Note_off_c, 3, 81, 100
5, 37824, Note_on_c, 3, 77, 100
5, 37920, Note_on_c, 3, 79, 100
5, 37926, Note_off_c, 3, 77, 100
5, 38400, Note_off_c, 3, 79, 100
5, 39840, Note_on_c, 3, 79, 100
5, 39922, Note_off_c, 3, 79, 100
5, 39936, Note_on_c, 3, 82, 100
5, 40416, Note_on_c, 3, 81, 100
5, 40418, Note_off_c, 3, 82, 100
5, 40512, Note_off_c, 3, 81, 100
5, 40512, Note_on_c, 3, 82, 100
5, 40600, Note_off_c, 3, 82, 100
5, 40608, Note_on_c, 3, 84, 100
5, 40704, Note_on_c, 3, 81, 100
5, 40712, Note_off_c, 3, 84, 100
5, 40890, Note_off_c, 3, 81, 100
5, 40896, Note_on_c, 3, 77, 100
5, 40992, Note_on_c, 3, 79, 100
5, 40998, Note_off_c, 3, 77, 100
5, 41472, Note_off_c, 3, 79, 100
5, 49056, Note_on_c, 3, 74, 100
5, 49152, Note_on_c, 3, 79, 100
5, 49156, Note_off_c, 3, 74, 100
5, 49248, Note_on_c, 3, 77, 100
5, 49254, Note_off_c, 3, 79, 100
5, 49536, Note_off_c, 3, 77, 100
5, 49536, Note_on_c, 3, 74, 100
5, 49632, Note_on_c, 3, 72, 100
5, 49650, Note_off_c, 3, 74, 100
5, 49900, Note_off_c, 3, 72, 100
5, 49920, Note_on_c, 3, 70, 100
5, 50016, Note_on_c, 3, 72, 100
5, 50026, Note_off_c, 3, 70, 100
5, 50104, Note_off_c, 3, 72, 100
5, 50112, Note_on_c, 3, 74, 100
5, 50208, Note_on_c, 3, 67, 100
5, 50222, Note_off_c, 3, 74, 100
5, 50688, Note_off_c, 3, 67, 100
5, 52128, Note_on_c, 3, 74, 100
5, 52222, Note_off_c, 3, 74, 100
5, 52224, Note_on_c, 3, 79, 100
5, 52318, Note_off_c, 3, 79, 100
5, 52320, Note_on_c, 3, 77, 100
5, 52512, Note_on_c, 3, 79, 100
5, 52528, Note_off_c, 3, 77, 100
5, 52608, Note_on_c, 3, 74, 100
5, 52616, Note_off_c, 3, 79, 100
5, 52680, Note_off_c, 3, 74, 100
5, 52704, Note_on_c, 3, 72, 100
5, 52992, Note_on_c, 3, 70, 100
5, 53002, Note_off_c, 3, 72, 100
5, 53088, Note_off_c, 3, 70, 100
5, 53088, Note_on_c, 3, 72, 100
5, 53180, Note_off_c, 3, 72, 100
5, 53184, Note_on_c, 3, 74, 100
5, 53280, Note_on_c, 3, 67, 100
5, 53282, Note_off_c, 3, 74, 100
5, 53760, Note_off_c, 3, 67, 100
5, 55200, Note_on_c, 3, 79, 100
5, 55282, Note_off_c, 3, 79, 100
5, 55296, Note_on_c, 3, 82, 100
5, 55776, Note_on_c, 3, 81, 100
5, 55778, Note_off_c, 3, 82, 100
5, 55872, Note_off_c, 3, 81, 100
5, 55872, Note_on_c, 3, 82, 100
5, 55960, Note_off_c, 3, 82, 100
5, 55968, Note_on_c, 3, 84, 100
5, 56064, Note_on_c, 3, 81, 100
5, 56072, Note_off_c, 3, 84, 100
5, 56250, Note_off_c, 3, 81, 100
5, 56256, Note_on_c, 3, 77, 100
5, 56352, Note_on_c, 3, 79, 100
5, 56358, Note_off_c, 3, 77, 100
5, 56832, Note_off_c, 3, 79, 100
5, 58272, Note_on_c, 3, 79, 100
5, 58354, Note_off_c, 3, 79, 100
5, 58368, Note_on_c, 3, 82, 100
5, 58848, Note_on_c, 3, 81, 100
5, 58850, Note_off_c, 3, 82, 100
5, 58944, Note_off_c, 3, 81, 100
5, 58944, Note_on_c, 3, 82, 100
5, 59032, Note_off_c, 3, 82, 100
5, 59040, Note_on_c, 3, 84, 100
5, 59136, Note_on_c, 3, 81, 100
5, 59144, Note_off_c, 3, 84, 100
5, 59322, Note_off_c, 3, 81, 100
5, 59328, Note_on_c, 3, 77, 100
5, 59424, Note_on_c, 3, 79, 100
5, 59430, Note_off_c, 3, 77, 100
5, 59904, Note_off_c, 3, 79, 100
5, 110496, Note_on_c, 3, 74, 100
5, 110592, Note_on_c, 3, 79, 100
5, 110596, Note_off_c, 3, 74, 100
5, 110688, Note_on_c, 3, 77, 100
5, 110694, Note_off_c, 3, 79, 100
5, 110976, Note_off_c, 3, 77, 100
5, 110976, Note_on_c, 3, 74, 100
5, 111072, Note_on_c, 3, 72, 100
5, 111090, Note_off_c, 3, 74, 100
5, 111340, Note_off_c, 3, 72, 100
5, 111360, Note_on_c, 3, 70, 100
5, 111456, Note_on_c, 3, 72, 100
5, 111466, Note_off_c, 3, 70, 100
5, 111544, Note_off_c, 3, 72, 100
5, 111552, Note_on_c, 3, 74, 100
5, 111648, Note_on_c, 3, 67, 100
5, 111662, Note_off_c, 3, 74, 100
5, 112032, Note_off_c, 3, 67, 100
5, 112032, Note_on_c, 3, 74, 100
5, 112126, Note_off_c, 3, 74, 100
5, 112128, Note_on_c, 3, 79, 100
5, 112222, Note_off_c, 3, 79, 100
5, 112224, Note_on_c, 3, 77, 100
5, 112416, Note_on_c, 3, 79, 100
5, 112432, Note_off_c, 3, 77, 100
5, 112512, Note_on_c, 3, 74, 100
5, 112520, Note_off_c, 3, 79, 100
5, 112584, Note_off_c, 3, 74, 100
5, 112608, Note_on_c, 3, 72, 100
5, 112896, Note_on_c, 3, 70, 100
5, 112906, Note_off_c, 3, 72, 100
5, 112992, Note_off_c, 3, 70, 100
5, 112992, Note_on_c, 3, 72, 100
5, 113084, Note_off_c, 3, 72, 100
5, 113088, Note_on_c, 3, 74, 100
5, 113184, Note_on_c, 3, 67, 100
5, 113186, Note_off_c, 3, 74, 100
5, 113568, Note_off_c, 3, 67, 100
5, 113568, Note_on_c, 3, 74, 100
5, 113662, Note_off_c, 3, 74, 100
5, 113664, Note_on_c, 3, 79, 100
5, 113758, Note_off_c, 3, 79, 100
5, 113760, Note_on_c, 3, 77, 100
5, 113856, Note_off_c, 3, 77, 100
5, 113856, Note_on_c, 3, 79, 100
5, 113952, Note_on_c, 3, 77, 100
5, 113960, Note_off_c, 3, 79, 100
5, 114048, Note_off_c, 3, 77, 100
5, 114048, Note_on_c, 3, 74, 100
5, 114144, Note_off_c, 3, 74, 100
5, 114144, Note_on_c, 3, 72, 100
5, 114240, Note_off_c, 3, 72, 100
5, 114240, Note_on_c, 3, 74, 100
5, 114336, Note_off_c, 3, 74, 100
5, 114336, Note_on_c, 3, 72, 100
5, 114432, Note_off_c, 3, 72, 100
5, 114432, Note_on_c, 3, 70, 100
5, 114528, Note_off_c, 3, 70, 100
5, 114528, Note_on_c, 3, 72, 100
5, 114620, Note_off_c, 3, 72, 100
5, 114624, Note_on_c, 3, 74, 100
5, 114720, Note_on_c, 3, 67, 100
5, 114722, Note_off_c, 3, 74, 100
5, 114888, Note_off_c, 3, 67, 100
5, 114912, Note_on_c, 3, 67, 70
5, 115080, Note_off_c, 3, 67, 70
5, 115104, Note_on_c, 3, 67, 60
5, 115288, Note_off_c, 3, 67, 60
5, 115680, Note_on_c, 3, 74, 100
5, 115856, Note_off_c, 3, 74, 100
5, 115872, Note_on_c, 3, 74, 100
5, 115968, Note_on_c, 3, 74, 100
5, 115970, Note_off_c, 3, 74, 100
5, 116064, Note_off_c, 3, 74, 100
5, 116064, Note_on_c, 3, 72, 100
5, 116160, Note_on_c, 3, 69, 100
5, 116162, Note_off_c, 3, 72, 100
5, 116256, Note_on_c, 3, 65, 100
5, 116258, Note_off_c, 3, 69, 100
5, 116640, Note_off_c, 3, 65, 100
5, 116640, Note_on_c, 3, 74, 100
5, 116736, Note_on_c, 3, 79, 100
5, 116740, Note_off_c, 3, 74, 100
5, 116832, Note_on_c, 3, 77, 100
5, 116838, Note_off_c, 3, 79, 100
5, 117120, Note_off_c, 3, 77, 100
5, 117120, Note_on_c, 3, 74, 100
5, 117216, Note_on_c, 3, 72, 100
5, 117234, Note_off_c, 3, 74, 100
5, 117484, Note_off_c, 3, 72, 100
5, 117504, Note_on_c, 3, 70, 100
5, 117600, Note_on_c, 3, 72, 100
5, 117610, Note_off_c, 3, 70, 100
5, 117688, Note_off_c, 3, 72, 100
5, 117696, Note_on_c, 3, 74, 100
5, 117792, Note_on_c, 3, 67, 100
5, 117806, Note_off_c, 3, 74, 100
5, 118176, Note_off_c, 3, 67, 100
5, 118176, Note_on_c, 3, 74, 100
5, 118270, Note_off_c, 3, 74, 100
5, 118272, Note_on_c, 3, 79, 100
5, 118366, Note_off_c, 3, 79, 100
5, 118368, Note_on_c, 3, 77, 100
5, 118560, Note_on_c, 3, 79, 100
5, 118576, Note_off_c, 3, 77, 100
5, 118656, Note_on_c, 3, 74, 100
5, 118664, Note_off_c, 3, 79, 100
5, 118728, Note_off_c, 3, 74, 100
5, 118752, Note_on_c, 3, 72, 100
5, 119040, Note_on_c, 3, 70, 100
5, 119050, Note_off_c, 3, 72, 100
5, 119136, Note_off_c, 3, 70, 100
5, 119136, Note_on_c, 3, 72, 100
5, 119228, Note_off_c, 3, 72, 100
5, 119232, Note_on_c, 3, 74, 100
5, 119328, Note_on_c, 3, 67, 100
5, 119330, Note_off_c, 3, 74, 100
5, 119712, Note_off_c, 3, 67, 100
5, 119712, Note_on_c, 3, 74, 100
5, 119806, Note_off_c, 3, 74, 100
5, 119808, Note_on_c, 3, 79, 100
5, 119902, Note_off_c, 3, 79, 100
5, 119904, Note_on_c, 3, 77, 100
5, 120000, Note_off_c, 3, 77, 100
5, 120000, Note_on_c, 3, 79, 100
5, 120096, Note_on_c, 3, 77, 100
5, 120104, Note_off_c, 3, 79, 100
5, 120192, Note_off_c, 3, 77, 100
5, 120192, Note_on_c, 3, 74, 100
5, 120288, Note_off_c, 3, 74, 100
5, 120288, Note_on_c, 3, 72, 100
5, 120384, Note_off_c, 3, 72, 100
5, 120384, Note_on_c, 3, 74, 100
5, 120480, Note_off_c, 3, 74, 100
5, 120480, Note_on_c, 3, 72, 100
5, 120576, Note_off_c, 3, 72, 100
5, 120576, Note_on_c, 3, 70, 100
5, 120672, Note_off_c, 3, 70, 100
5, 120672, Note_on_c, 3, 72, 100
5, 120764, Note_off_c, 3, 72, 100
5, 120768, Note_on_c, 3, 74, 100
5, 120864, Note_on_c, 3, 67, 100
5, 120866, Note_off_c, 3, 74, 100
5, 121032, Note_off_c, 3, 67, 100
5, 121056, Note_on_c, 3, 67, 70
5, 121224, Note_off_c, 3, 67, 70
5, 121248, Note_on_c, 3, 67, 60
5, 121432, Note_off_c, 3, 67, 60
5, 121824, Note_on_c, 3, 74, 100
5, 122000, Note_off_c, 3, 74, 100
5, 122016, Note_on_c, 3, 74, 100
5, 122112, Note_on_c, 3, 74, 100
5, 122114, Note_off_c, 3, 74, 100
5, 122208, Note_off_c, 3, 74, 100
5, 122240, Note_on_c, 3, 72, 100
5, 122364, Note_off_c, 3, 72, 100
5, 122368, Note_on_c, 3, 69, 100
5, 122492, Note_off_c, 3, 69, 100
5, 122492, End_track
6, 0, Start_track
6, 0, Text_t, "Riff Left"
6, 2880, Control_c, 4, 0, 0
6, 2882, Control_c, 4, 32, 0
6, 2884, Program_c, 4, 7
6, 2886, Control_c, 4, 7, 100
6, 2888, Control_c, 4, 10, 16
6, 2890, Control_c, 4, 11, 80
6, 2892, Control_c, 4, 91, 40
6, 2894, Control_c, 4, 93, 0
6, 15360, Note_on_c, 4, 60, 90
6, 15392, Note_off_c, 4, 60, 90
6, 15408, Note_on_c, 4, 62, 90
6, 15440, Note_off_c, 4, 62, 90
6, 15456, Note_on_c, 4, 58, 90
6, 15488, Note_off_c, 4, 58, 90
6, 15504, Note_on_c, 4, 53, 90
6, 15536, Note_off_c, 4, 53, 90
6, 15600, Note_on_c, 4, 60, 90
6, 15632, Note_off_c, 4, 60, 90
6, 15648, Note_on_c, 4, 62, 90
6, 15680, Note_off_c, 4, 62, 90
6, 15696, Note_on_c, 4, 58, 90
6, 15728, Note_off_c, 4, 58, 90
6, 15744, Note_on_c, 4, 53, 90
6, 15776, Note_off_c, 4, 53, 90
6, 15792, Note_on_c, 4, 55, 90
6, 15824, Note_off_c, 4, 55, 90
6, 15840, Note_on_c, 4, 60, 90
6, 15872, Note_off_c, 4, 60, 90
6, 15888, Note_on_c, 4, 62, 90
6, 15920, Note_off_c, 4, 62, 90
6, 15936, Note_on_c, 4, 58, 90
6, 15968, Note_off_c, 4, 58, 90
6, 15984, Note_on_c, 4, 53, 90
6, 16016, Note_off_c, 4, 53, 90
6, 16032, Note_on_c, 4, 55, 90
6, 16064, Note_off_c, 4, 55, 90
6, 16080, Note_on_c, 4, 60, 90
6, 16112, Note_off_c, 4, 60, 90
6, 16128, Note_on_c, 4, 62, 90
6, 16160, Note_off_c, 4, 62, 90
6, 16176, Note_on_c, 4, 58, 90
6, 16208, Note_off_c, 4, 58, 90
6, 16272, Note_on_c, 4, 55, 90
6, 16304, Note_off_c, 4, 55, 90
6, 16368, Note_on_c, 4, 62, 90
6, 16400, Note_off_c, 4, 62, 90
6, 16416, Note_on_c, 4, 58, 90
6, 16448, Note_off_c, 4, 58, 90
6, 16464, Note_on_c, 4, 53, 90
6, 16496, Note_off_c, 4, 53, 90
6, 16560, Note_on_c, 4, 60, 90
6, 16592, Note_off_c, 4, 60, 90
6, 16608, Note_on_c, 4, 62, 90
6, 16640, Note_off_c, 4, 62, 90
6, 16656, Note_on_c, 4, 58, 90
6, 16688, Note_off_c, 4, 58, 90
6, 16752, Note_on_c, 4, 55, 90
6, 16784, Note_off_c, 4, 55, 90
6, 16800, Note_on_c, 4, 60, 90
6, 16832, Note_off_c, 4, 60, 90
6, 16848, Note_on_c, 4, 62, 90
6, 16880, Note_off_c, 4, 62, 90
6, 16944, Note_on_c, 4, 53, 90
6, 16976, Note_off_c, 4, 53, 90
6, 16992, Note_on_c, 4, 55, 90
6, 17024, Note_off_c, 4, 55, 90
6, 17040, Note_on_c, 4, 60, 90
6, 17072, Note_off_c, 4, 60, 90
6, 17136, Note_on_c, 4, 58, 90
6, 17168, Note_off_c, 4, 58, 90
6, 17184, Note_on_c, 4, 53, 90
6, 17216, Note_off_c, 4, 53, 90
6, 17232, Note_on_c, 4, 55, 90
6, 17264, Note_off_c, 4, 55, 90
6, 17280, Note_on_c, 4, 60, 90
6, 17312, Note_off_c, 4, 60, 90
6, 17328, Note_on_c, 4, 62, 90
6, 17360, Note_off_c, 4, 62, 90
6, 17376, Note_on_c, 4, 58, 90
6, 17408, Note_off_c, 4, 58, 90
6, 17424, Note_on_c, 4, 53, 90
6, 17456, Note_off_c, 4, 53, 90
6, 17520, Note_on_c, 4, 60, 90
6, 17552, Note_off_c, 4, 60, 90
6, 17568, Note_on_c, 4, 62, 90
6, 17600, Note_off_c, 4, 62, 90
6, 17616, Note_on_c, 4, 58, 90
6, 17648, Note_off_c, 4, 58, 90
6, 17664, Note_on_c, 4, 53, 90
6, 17696, Note_off_c, 4, 53, 90
6, 17712, Note_on_c, 4, 55, 90
6, 17744, Note_off_c, 4, 55, 90
6, 17760, Note_on_c, 4, 60, 90
6, 17792, Note_off_c, 4, 60, 90
6, 17808, Note_on_c, 4, 62, 90
6, 17840, Note_off_c, 4, 62, 90
6, 17904, Note_on_c, 4, 53, 90
6, 17936, Note_off_c, 4, 53, 90
6, 17952, Note_on_c, 4, 55, 90
6, 17984, Note_off_c, 4, 55, 90
6, 18000, Note_on_c, 4, 60, 90
6, 18032, Note_off_c, 4, 60, 90
6, 18048, Note_on_c, 4, 62, 90
6, 18080, Note_off_c, 4, 62, 90
6, 18096, Note_on_c, 4, 58, 90
6, 18128, Note_off_c, 4, 58, 90
6, 18144, Note_on_c, 4, 53, 90
6, 18176, Note_off_c, 4, 53, 90
6, 18192, Note_on_c, 4, 55, 90
6, 18224, Note_off_c, 4, 55, 90
6, 18432, Note_on_c, 4, 60, 90
6, 18464, Note_off_c, 4, 60, 90
6, 18480, Note_on_c, 4, 62, 90
6, 18512, Note_off_c, 4, 62, 90
6, 18528, Note_on_c, 4, 58, 90
6, 18560, Note_off_c, 4, 58, 90
6, 18576, Note_on_c, 4, 53, 90
6, 18608, Note_off_c, 4, 53, 90
6, 18672, Note_on_c, 4, 60, 90
6, 18704, Note_off_c, 4, 60, 90
6, 18720, Note_on_c, 4, 62, 90
6, 18752, Note_off_c, 4, 62, 90
6, 18768, Note_on_c, 4, 58, 90
6, 18800, Note_off_c, 4, 58, 90
6, 18816, Note_on_c, 4, 53, 90
6, 18848, Note_off_c, 4, 53, 90
6, 18864, Note_on_c, 4, 55, 90
6, 18896, Note_off_c, 4, 55, 90
6, 18912, Note_on_c, 4, 60, 90
6, 18944, Note_off_c, 4, 60, 90
6, 18960, Note_on_c, 4, 62, 90
6, 18992, Note_off_c, 4, 62, 90
6, 19008, Note_on_c, 4, 58, 90
6, 19040, Note_off_c, 4, 58, 90
6, 19056, Note_on_c, 4, 53, 90
6, 19088, Note_off_c, 4, 53, 90
6, 19104, Note_on_c, 4, 55, 90
6, 19136, Note_off_c, 4, 55, 90
6, 19152, Note_on_c, 4, 60, 90
6, 19184, Note_off_c, 4, 60, 90
6, 19200, Note_on_c, 4, 62, 90
6, 19232, Note_off_c, 4, 62, 90
6, 19248, Note_on_c, 4, 58, 90
6, 19280, Note_off_c, 4, 58, 90
6, 19344, Note_on_c, 4, 55, 90
6, 19376, Note_off_c, 4, 55, 90
6, 19440, Note_on_c, 4, 62, 90
6, 19472, Note_off_c, 4, 62, 90
6, 19488, Note_on_c, 4, 58, 90
6, 19520, Note_off_c, 4, 58, 90
6, 19536, Note_on_c, 4, 53, 90
6, 19568, Note_off_c, 4, 53, 90
6, 19632, Note_on_c, 4, 60, 90
6, 19664, Note_off_c, 4, 60, 90
6, 19680, Note_on_c, 4, 62, 90
6, 19712, Note_off_c, 4, 62, 90
6, 19728, Note_on_c, 4, 58, 90
6, 19760, Note_off_c, 4, 58, 90
6, 19824, Note_on_c, 4, 55, 90
6, 19856, Note_off_c, 4, 55, 90
6, 19872, Note_on_c, 4, 60, 90
6, 19904, Note_off_c, 4, 60, 90
6, 19920, Note_on_c, 4, 62, 90
6, 19952, Note_off_c, 4, 62, 90
6, 20016, Note_on_c, 4, 53, 90
6, 20048, Note_off_c, 4, 53, 90
6, 20064, Note_on_c, 4, 55, 90
6, 20096, Note_off_c, 4, 55, 90
6, 20112, Note_on_c, 4, 60, 90
6, 20144, Note_off_c, 4, 60, 90
6, 20208, Note_on_c, 4, 58, 90
6, 20240, Note_off_c, 4, 58, 90
6, 20256, Note_on_c, 4, 53, 90
6, 20288, Note_off_c, 4, 53, 90
6, 20304, Note_on_c, 4, 55, 90
6, 20336, Note_off_c, 4, 55, 90
6, 20352, Note_on_c, 4, 60, 90
6, 20384, Note_off_c, 4, 60, 90
6, 20400, Note_on_c, 4, 62, 90
6, 20432, Note_off_c, 4, 62, 90
6, 20448, Note_on_c, 4, 58, 90
6, 20480, Note_off_c, 4, 58, 90
6, 20496, Note_on_c, 4, 53, 90
6, 20528, Note_off_c, 4, 53, 90
6, 20592, Note_on_c, 4, 60, 90
6, 20624, Note_off_c, 4, 60, 90
6, 20640, Note_on_c, 4, 62, 90
6, 20672, Note_off_c, 4, 62, 90
6, 20688, Note_on_c, 4, 58, 90
6, 20720, Note_off_c, 4, 58, 90
6, 20736, Note_on_c, 4, 53, 90
6, 20768, Note_off_c, 4, 53, 90
6, 20784, Note_on_c, 4, 55, 90
6, 20816, Note_off_c, 4, 55, 90
6, 20832, Note_on_c, 4, 60, 90
6, 20864, Note_off_c, 4, 60, 90
6, 20880, Note_on_c, 4, 62, 90
6, 20912, Note_off_c, 4, 62, 90
6, 20976, Note_on_c, 4, 53, 90
6, 21008, Note_off_c, 4, 53, 90
6, 21024, Note_on_c, 4, 55, 90
6, 21056, Note_off_c, 4, 55, 90
6, 21072, Note_on_c, 4, 60, 90
6, 21104, Note_off_c, 4, 60, 90
6, 21120, Note_on_c, 4, 62, 90
6, 21152, Note_off_c, 4, 62, 90
6, 21168, Note_on_c, 4, 58, 90
6, 21200, Note_off_c, 4, 58, 90
6, 21216, Note_on_c, 4, 53, 90
6, 21248, Note_off_c, 4, 53, 90
6, 21264, Note_on_c, 4, 55, 90
6, 21296, Note_off_c, 4, 55, 90
6, 21504, Note_on_c, 4, 60, 90
6, 21536, Note_off_c, 4, 60, 90
6, 21552, Note_on_c, 4, 62, 90
6, 21584, Note_off_c, 4, 62, 90
6, 21600, Note_on_c, 4, 58, 90
6, 21632, Note_off_c, 4, 58, 90
6, 21648, Note_on_c, 4, 53, 90
6, 21680, Note_off_c, 4, 53, 90
6, 21744, Note_on_c, 4, 60, 90
6, 21776, Note_off_c, 4, 60, 90
6, 21792, Note_on_c, 4, 62, 90
6, 21824, Note_off_c, 4, 62, 90
6, 21840, Note_on_c, 4, 58, 90
6, 21872, Note_off_c, 4, 58, 90
6, 21888, Note_on_c, 4, 53, 90
6, 21920, Note_off_c, 4, 53, 90
6, 21936, Note_on_c, 4, 55, 90
6, 21968, Note_off_c, 4, 55, 90
6, 21984, Note_on_c, 4, 60, 90
6, 22016, Note_off_c, 4, 60, 90
6, 22032, Note_on_c, 4, 62, 90
6, 22064, Note_off_c, 4, 62, 90
6, 22080, Note_on_c, 4, 58, 90
6, 22112, Note_off_c, 4, 58, 90
6, 22128, Note_on_c, 4, 53, 90
6, 22160, Note_off_c, 4, 53, 90
6, 22176, Note_on_c, 4, 55, 90
6, 22208, Note_off_c, 4, 55, 90
6, 22224, Note_on_c, 4, 60, 90
6, 22256, Note_off_c, 4, 60, 90
6, 22272, Note_on_c, 4, 62, 90
6, 22304, Note_off_c, 4, 62, 90
6, 22320, Note_on_c, 4, 58, 90
6, 22352, Note_off_c, 4, 58, 90
6, 22416, Note_on_c, 4, 55, 90
6, 22448, Note_off_c, 4, 55, 90
6, 22512, Note_on_c, 4, 62, 90
6, 22544, Note_off_c, 4, 62, 90
6, 22560, Note_on_c, 4, 58, 90
6, 22592, Note_off_c, 4, 58, 90
6, 22608, Note_on_c, 4, 53, 90
6, 22640, Note_off_c, 4, 53, 90
6, 22704, Note_on_c, 4, 60, 90
6, 22736, Note_off_c, 4, 60, 90
6, 22752, Note_on_c, 4, 62, 90
6, 22784, Note_off_c, 4, 62, 90
6, 22800, Note_on_c, 4, 58, 90
6, 22832, Note_off_c, 4, 58, 90
6, 22896, Note_on_c, 4, 55, 90
6, 22928, Note_off_c, 4, 55, 90
6, 22944, Note_on_c, 4, 60, 90
6, 22976, Note_off_c, 4, 60, 90
6, 22992, Note_on_c, 4, 62, 90
6, 23024, Note_off_c, 4, 62, 90
6, 23088, Note_on_c, 4, 53, 90
6, 23120, Note_off_c, 4, 53, 90
6, 23136, Note_on_c, 4, 55, 90
6, 23168, Note_off_c, 4, 55, 90
6, 23184, Note_on_c, 4, 60, 90
6, 23216, Note_off_c, 4, 60, 90
6, 23280, Note_on_c, 4, 58, 90
6, 23312, Note_off_c, 4, 58, 90
6, 23328, Note_on_c, 4, 53, 90
6, 23360, Note_off_c, 4, 53, 90
6, 23376, Note_on_c, 4, 55, 90
6, 23408, Note_off_c, 4, 55, 90
6, 23424, Note_on_c, 4, 60, 90
6, 23456, Note_off_c, 4, 60, 90
6, 23472, Note_on_c, 4, 62, 90
6, 23504, Note_off_c, 4, 62, 90
6, 23520, Note_on_c, 4, 58, 90
6, 23552, Note_off_c, 4, 58, 90
6, 23568, Note_on_c, 4, 53, 90
6, 23600, Note_off_c, 4, 53, 90
6, 23664, Note_on_c, 4, 60, 90
6, 23696, Note_off_c, 4, 60, 90
6, 23712, Note_on_c, 4, 62, 90
6, 23744, Note_off_c, 4, 62, 90
6, 23760, Note_on_c, 4, 58, 90
6, 23792, Note_off_c, 4, 58, 90
6, 23808, Note_on_c, 4, 53, 90
6, 23840, Note_off_c, 4, 53, 90
6, 23856, Note_on_c, 4, 55, 90
6, 23888, Note_off_c, 4, 55, 90
6, 23904, Note_on_c, 4, 60, 90
6, 23936, Note_off_c, 4, 60, 90
6, 23952, Note_on_c, 4, 62, 90
6, 23984, Note_off_c, 4, 62, 90
6, 24048, Note_on_c, 4, 53, 90
6, 24080, Note_off_c, 4, 53, 90
6, 24096, Note_on_c, 4, 55, 90
6, 24128, Note_off_c, 4, 55, 90
6, 24144, Note_on_c, 4, 60, 90
6, 24176, Note_off_c, 4, 60, 90
6, 24192, Note_on_c, 4, 62, 90
6, 24224, Note_off_c, 4, 62, 90
6, 24240, Note_on_c, 4, 58, 90
6, 24272, Note_off_c, 4, 58, 90
6, 24288, Note_on_c, 4, 53, 90
6, 24320, Note_off_c, 4, 53, 90
6, 24336, Note_on_c, 4, 55, 90
6, 24368, Note_off_c, 4, 55, 90
6, 24576, Note_on_c, 4, 60, 90
6, 24608, Note_off_c, 4, 60, 90
6, 24624, Note_on_c, 4, 62, 90
6, 24656, Note_off_c, 4, 62, 90
6, 24672, Note_on_c, 4, 58, 90
6, 24704, Note_off_c, 4, 58, 90
6, 24720, Note_on_c, 4, 53, 90
6, 24752, Note_off_c, 4, 53, 90
6, 24816, Note_on_c, 4, 60, 90
6, 24848, Note_off_c, 4, 60, 90
6, 24864, Note_on_c, 4, 62, 90
6, 24896, Note_off_c, 4, 62, 90
6, 24912, Note_on_c, 4, 58, 90
6, 24944, Note_off_c, 4, 58, 90
6, 24960, Note_on_c, 4, 53, 90
6, 24992, Note_off_c, 4, 53, 90
6, 25008, Note_on_c, 4, 55, 90
6, 25040, Note_off_c, 4, 55, 90
6, 25056, Note_on_c, 4, 60, 90
6, 25088, Note_off_c, 4, 60, 90
6, 25104, Note_on_c, 4, 62, 90
6, 25136, Note_off_c, 4, 62, 90
6, 25152, Note_on_c, 4, 58, 90
6, 25184, Note_off_c, 4, 58, 90
6, 25200, Note_on_c, 4, 53, 90
6, 25232, Note_off_c, 4, 53, 90
6, 25248, Note_on_c, 4, 55, 90
6, 25280, Note_off_c, 4, 55, 90
6, 25296, Note_on_c, 4, 60, 90
6, 25328, Note_off_c, 4, 60, 90
6, 25344, Note_on_c, 4, 62, 90
6, 25376, Note_off_c, 4, 62, 90
6, 25392, Note_on_c, 4, 58, 90
6, 25424, Note_off_c, 4, 58, 90
6, 25488, Note_on_c, 4, 55, 90
6, 25520, Note_off_c, 4, 55, 90
6, 25584, Note_on_c, 4, 62, 90
6, 25616, Note_off_c, 4, 62, 90
6, 25632, Note_on_c, 4, 58, 90
6, 25664, Note_off_c, 4, 58, 90
6, 25680, Note_on_c, 4, 53, 90
6, 25712, Note_off_c, 4, 53, 90
6, 25776, Note_on_c, 4, 60, 90
6, 25808, Note_off_c, 4, 60, 90
6, 25824, Note_on_c, 4, 62, 90
6, 25856, Note_off_c, 4, 62, 90
6, 25872, Note_on_c, 4, 58, 90
6, 25904, Note_off_c, 4, 58, 90
6, 25968, Note_on_c, 4, 55, 90
6, 26000, Note_off_c, 4, 55, 90
6, 26016, Note_on_c, 4, 60, 90
6, 26048, Note_off_c, 4, 60, 90
6, 26064, Note_on_c, 4, 62, 90
6, 26096, Note_off_c, 4, 62, 90
6, 26160, Note_on_c, 4, 53, 90
6, 26192, Note_off_c, 4, 53, 90
6, 26208, Note_on_c, 4, 55, 90
6, 26240, Note_off_c, 4, 55, 90
6, 26256, Note_on_c, 4, 60, 90
6, 26288, Note_off_c, 4, 60, 90
6, 26352, Note_on_c, 4, 58, 90
6, 26384, Note_off_c, 4, 58, 90
6, 26400, Note_on_c, 4, 53, 90
6, 26432, Note_off_c, 4, 53, 90
6, 26448, Note_on_c, 4, 55, 90
6, 26480, Note_off_c, 4, 55, 90
6, 26496, Note_on_c, 4, 60, 90
6, 26528, Note_off_c, 4, 60, 90
6, 26544, Note_on_c, 4, 62, 90
6, 26576, Note_off_c, 4, 62, 90
6, 26592, Note_on_c, 4, 58, 90
6, 26624, Note_off_c, 4, 58, 90
6, 26640, Note_on_c, 4, 53, 90
6, 26672, Note_off_c, 4, 53, 90
6, 26736, Note_on_c, 4, 60, 90
6, 26768, Note_off_c, 4, 60, 90
6, 26784, Note_on_c, 4, 62, 90
6, 26816, Note_off_c, 4, 62, 90
6, 26832, Note_on_c, 4, 58, 90
6, 26864, Note_off_c, 4, 58, 90
6, 26880, Note_on_c, 4, 53, 90
6, 26912, Note_off_c, 4, 53, 90
6, 26928, Note_on_c, 4, 55, 90
6, 26960, Note_off_c, 4, 55, 90
6, 26976, Note_on_c, 4, 60, 90
6, 27008, Note_off_c, 4, 60, 90
6, 27024, Note_on_c, 4, 62, 90
6, 27056, Note_off_c, 4, 62, 90
6, 27120, Note_on_c, 4, 53, 90
6, 27152, Note_off_c, 4, 53, 90
6, 27168, Note_on_c, 4, 55, 90
6, 27200, Note_off_c, 4, 55, 90
6, 27216, Note_on_c, 4, 60, 90
6, 27248, Note_off_c, 4, 60, 90
6, 27264, Note_on_c, 4, 62, 90
6, 27296, Note_off_c, 4, 62, 90
6, 27312, Note_on_c, 4, 58, 90
6, 27344, Note_off_c, 4, 58, 90
6, 27360, Note_on_c, 4, 53, 90
6, 27392, Note_off_c, 4, 53, 90
6, 27408, Note_on_c, 4, 55, 90
6, 27440, Note_off_c, 4, 55, 90
6, 27744, Note_on_c, 4, 53, 100
6, 27776, Note_off_c, 4, 53, 100
6, 27840, Note_on_c, 4, 55, 100
6, 27840, Note_on_c, 4, 62, 100
6, 27840, Note_on_c, 4, 58, 100
6, 27872, Note_off_c, 4, 58, 100
6, 27872, Note_off_c, 4, 62, 100
6, 27872, Note_off_c, 4, 55, 100
6, 27936, Note_on_c, 4, 53, 100
6, 27968, Note_off_c, 4, 53, 100
6, 27984, Note_on_c, 4, 62, 100
6, 27984, Note_on_c, 4, 58, 100
6, 27984, Note_on_c, 4, 55, 100
6, 28016, Note_off_c, 4, 55, 100
6, 28016, Note_off_c, 4, 58, 100
6, 28016, Note_off_c, 4, 62, 100
6, 28128, Note_on_c, 4, 53, 100
6, 28160, Note_off_c, 4, 53, 100
6, 28224, Note_on_c, 4, 55, 100
6, 28224, Note_on_c, 4, 62, 100
6, 28224, Note_on_c, 4, 58, 100
6, 28256, Note_off_c, 4, 58, 100
6, 28256, Note_off_c, 4, 62, 100
6, 28256, Note_off_c, 4, 55, 100
6, 28320, Note_on_c, 4, 53, 100
6, 28352, Note_off_c, 4, 53, 100
6, 28368, Note_on_c, 4, 62, 100
6, 28368, Note_on_c, 4, 58, 100
6, 28368, Note_on_c, 4, 55, 100
6, 28400, Note_off_c, 4, 55, 100
6, 28400, Note_off_c, 4, 58, 100
6, 28400, Note_off_c, 4, 62, 100
6, 28512, Note_on_c, 4, 53, 100
6, 28544, Note_off_c, 4, 53, 100
6, 28608, Note_on_c, 4, 55, 100
6, 28608, Note_on_c, 4, 62, 100
6, 28608, Note_on_c, 4, 58, 100
6, 28640, Note_off_c, 4, 58, 100
6, 28640, Note_off_c, 4, 62, 100
6, 28640, Note_off_c, 4, 55, 100
6, 28704, Note_on_c, 4, 53, 100
6, 28736, Note_off_c, 4, 53, 100
6, 28752, Note_on_c, 4, 62, 100
6, 28752, Note_on_c, 4, 58, 100
6, 28752, Note_on_c, 4, 55, 100
6, 28784, Note_off_c, 4, 55, 100
6, 28784, Note_off_c, 4, 58, 100
6, 28784, Note_off_c, 4, 62, 100
6, 28896, Note_on_c, 4, 53, 100
6, 28928, Note_off_c, 4, 53, 100
6, 28992, Note_on_c, 4, 55, 100
6, 28992, Note_on_c, 4, 62, 100
6, 28992, Note_on_c, 4, 58, 100
6, 29024, Note_off_c, 4, 58, 100
6, 29024, Note_off_c, 4, 62, 100
6, 29024, Note_off_c, 4, 55, 100
6, 29088, Note_on_c, 4, 53, 100
6, 29120, Note_off_c, 4, 53, 100
6, 29136, Note_on_c, 4, 62, 100
6, 29136, Note_on_c, 4, 58, 100
6, 29136, Note_on_c, 4, 55, 100
6, 29168, Note_off_c, 4, 55, 100
6, 29168, Note_off_c, 4, 58, 100
6, 29168, Note_off_c, 4, 62, 100
6, 29280, Note_on_c, 4, 53, 100
6, 29312, Note_off_c, 4, 53, 100
6, 29376, Note_on_c, 4, 55, 100
6, 29376, Note_on_c, 4, 62, 100
6, 29376, Note_on_c, 4, 58, 100
6, 29408, Note_off_c, 4, 58, 100
6, 29408, Note_off_c, 4, 62, 100
6, 29408, Note_off_c, 4, 55, 100
6, 29472, Note_on_c, 4, 53, 100
6, 29504, Note_off_c, 4, 53, 100
6, 29520, Note_on_c, 4, 62, 100
6, 29520, Note_on_c, 4, 58, 100
6, 29520, Note_on_c, 4, 55, 100
6, 29552, Note_off_c, 4, 55, 100
6, 29552, Note_off_c, 4, 58, 100
6, 29552, Note_off_c, 4, 62, 100
6, 29664, Note_on_c, 4, 53, 100
6, 29696, Note_off_c, 4, 53, 100
6, 29760, Note_on_c, 4, 55, 100
6, 29760, Note_on_c, 4, 62, 100
6, 29760, Note_on_c, 4, 58, 100
6, 29792, Note_off_c, 4, 58, 100
6, 29792, Note_off_c, 4, 62, 100
6, 29792, Note_off_c, 4, 55, 100
6, 29856, Note_on_c, 4, 53, 100
6, 29888, Note_off_c, 4, 53, 100
6, 29904, Note_on_c, 4, 62, 100
6, 29904, Note_on_c, 4, 58, 100
6, 29904, Note_on_c, 4, 55, 100
6, 29936, Note_off_c, 4, 55, 100
6, 29936, Note_off_c, 4, 58, 100
6, 29936, Note_off_c, 4, 62, 100
6, 30048, Note_on_c, 4, 53, 100
6, 30080, Note_off_c, 4, 53, 100
6, 30144, Note_on_c, 4, 55, 100
6, 30144, Note_on_c, 4, 62, 100
6, 30144, Note_on_c, 4, 58, 100
6, 30176, Note_off_c, 4, 58, 100
6, 30176, Note_off_c, 4, 62, 100
6, 30176, Note_off_c, 4, 55, 100
6, 30240, Note_on_c, 4, 53, 100
6, 30272, Note_off_c, 4, 53, 100
6, 30288, Note_on_c, 4, 62, 100
6, 30288, Note_on_c, 4, 58, 100
6, 30288, Note_on_c, 4, 55, 100
6, 30320, Note_off_c, 4, 55, 100
6, 30320, Note_off_c, 4, 58, 100
6, 30320, Note_off_c, 4, 62, 100
6, 30432, Note_on_c, 4, 53, 100
6, 30464, Note_off_c, 4, 53, 100
6, 30528, Note_on_c, 4, 55, 100
6, 30528, Note_on_c, 4, 62, 100
6, 30528, Note_on_c, 4, 58, 100
6, 30560, Note_off_c, 4, 58, 100
6, 30560, Note_off_c, 4, 62, 100
6, 30560, Note_off_c, 4, 55, 100
6, 30624, Note_on_c, 4, 53, 100
6, 30656, Note_off_c, 4, 53, 100
6, 30672, Note_on_c, 4, 62, 100
6, 30672, Note_on_c, 4, 58, 100
6, 30672, Note_on_c, 4, 55, 100
6, 30704, Note_off_c, 4, 55, 100
6, 30704, Note_off_c, 4, 58, 100
6, 30704, Note_off_c, 4, 62, 100
6, 30816, Note_on_c, 4, 53, 100
6, 30848, Note_off_c, 4, 53, 100
6, 30912, Note_on_c, 4, 55, 100
6, 30912, Note_on_c, 4, 62, 100
6, 30912, Note_on_c, 4, 58, 100
6, 30944, Note_off_c, 4, 58, 100
6, 30944, Note_off_c, 4, 62, 100
6, 30944, Note_off_c, 4, 55, 100
6, 31008, Note_on_c, 4, 53, 100
6, 31040, Note_off_c, 4, 53, 100
6, 31056, Note_on_c, 4, 62, 100
6, 31056, Note_on_c, 4, 58, 100
6, 31056, Note_on_c, 4, 55, 100
6, 31088, Note_off_c, 4, 55, 100
6, 31088, Note_off_c, 4, 58, 100
6, 31088, Note_off_c, 4, 62, 100
6, 31200, Note_on_c, 4, 53, 100
6, 31232, Note_off_c, 4, 53, 100
6, 31296, Note_on_c, 4, 55, 100
6, 31296, Note_on_c, 4, 62, 100
6, 31296, Note_on_c, 4, 58, 100
6, 31328, Note_off_c, 4, 58, 100
6, 31328, Note_off_c, 4, 62, 100
6, 31328, Note_off_c, 4, 55, 100
6, 31392, Note_on_c, 4, 53, 100
6, 31424, Note_off_c, 4, 53, 100
6, 31440, Note_on_c, 4, 62, 100
6, 31440, Note_on_c, 4, 58, 100
6, 31440, Note_on_c, 4, 55, 100
6, 31472, Note_off_c, 4, 55, 100
6, 31472, Note_off_c, 4, 58, 100
6, 31472, Note_off_c, 4, 62, 100
6, 31584, Note_on_c, 4, 53, 100
6, 31616, Note_off_c, 4, 53, 100
6, 31680, Note_on_c, 4, 55, 100
6, 31680, Note_on_c, 4, 62, 100
6, 31680, Note_on_c, 4, 58, 100
6, 31712, Note_off_c, 4, 58, 100
6, 31712, Note_off_c, 4, 62, 100
6, 31712, Note_off_c, 4, 55, 100
6, 31776, Note_on_c, 4, 53, 100
6, 31808, Note_off_c, 4, 53, 100
6, 31824, Note_on_c, 4, 62, 100
6, 31824, Note_on_c, 4, 58, 100
6, 31824, Note_on_c, 4, 55, 100
6, 31856, Note_off_c, 4, 55, 100
6, 31856, Note_off_c, 4, 58, 100
6, 31856, Note_off_c, 4, 62, 100
6, 31968, Note_on_c, 4, 53, 100
6, 32000, Note_off_c, 4, 53, 100
6, 32064, Note_on_c, 4, 55, 100
6, 32064, Note_on_c, 4, 62, 100
6, 32064, Note_on_c, 4, 58, 100
6, 32096, Note_off_c, 4, 58, 100
6, 32096, Note_off_c, 4, 62, 100
6, 32096, Note_off_c, 4, 55, 100
6, 32160, Note_on_c, 4, 53, 100
6, 32192, Note_off_c, 4, 53, 100
6, 32208, Note_on_c, 4, 62, 100
6, 32208, Note_on_c, 4, 58, 100
6, 32208, Note_on_c, 4, 55, 100
6, 32240, Note_off_c, 4, 55, 100
6, 32240, Note_off_c, 4, 58, 100
6, 32240, Note_off_c, 4, 62, 100
6, 32352, Note_on_c, 4, 65, 100
6, 32384, Note_off_c, 4, 65, 100
6, 32448, Note_on_c, 4, 67, 100
6, 32448, Note_on_c, 4, 74, 100
6, 32448, Note_on_c, 4, 70, 100
6, 32480, Note_off_c, 4, 70, 100
6, 32480, Note_off_c, 4, 74, 100
6, 32480, Note_off_c, 4, 67, 100
6, 32544, Note_on_c, 4, 65, 100
6, 32576, Note_off_c, 4, 65, 100
6, 32592, Note_on_c, 4, 74, 100
6, 32592, Note_on_c, 4, 70, 100
6, 32592, Note_on_c, 4, 67, 100
6, 32624, Note_off_c, 4, 67, 100
6, 32624, Note_off_c, 4, 70, 100
6, 32624, Note_off_c, 4, 74, 100
6, 32736, Note_on_c, 4, 65, 100
6, 32768, Note_off_c, 4, 65, 100
6, 32832, Note_on_c, 4, 67, 100
6, 32832, Note_on_c, 4, 74, 100
6, 32832, Note_on_c, 4, 70, 100
6, 32864, Note_off_c, 4, 70, 100
6, 32864, Note_off_c, 4, 74, 100
6, 32864, Note_off_c, 4, 67, 100
6, 32928, Note_on_c, 4, 65, 100
6, 32960, Note_off_c, 4, 65, 100
6, 32976, Note_on_c, 4, 74, 100
6, 32976, Note_on_c, 4, 70, 100
6, 32976, Note_on_c, 4, 67, 100
6, 33008, Note_off_c, 4, 67, 100
6, 33008, Note_off_c, 4, 70, 100
6, 33008, Note_off_c, 4, 74, 100
6, 33120, Note_on_c, 4, 65, 100
6, 33152, Note_off_c, 4, 65, 100
6, 33216, Note_on_c, 4, 67, 100
6, 33216, Note_on_c, 4, 74, 100
6, 33216, Note_on_c, 4, 70, 100
6, 33248, Note_off_c, 4, 70, 100
6, 33248, Note_off_c, 4, 74, 100
6, 33248, Note_off_c, 4, 67, 100
6, 33312, Note_on_c, 4, 65, 100
6, 33344, Note_off_c, 4, 65, 100
6, 33360, Note_on_c, 4, 74, 100
6, 33360, Note_on_c, 4, 70, 100
6, 33360, Note_on_c, 4, 67, 100
6, 33392, Note_off_c, 4, 67, 100
6, 33392, Note_off_c, 4, 70, 100
6, 33392, Note_off_c, 4, 74, 100
6, 33504, Note_on_c, 4, 65, 100
6, 33536, Note_off_c, 4, 65, 100
6, 33600, Note_on_c, 4, 67, 100
6, 33600, Note_on_c, 4, 74, 100
6, 33600, Note_on_c, 4, 70, 100
6, 33632, Note_off_c, 4, 70, 100
6, 33632, Note_off_c, 4, 74, 100
6, 33632, Note_off_c, 4, 67, 100
6, 33696, Note_on_c, 4, 65, 100
6, 33728, Note_off_c, 4, 65, 100
6, 33744, Note_on_c, 4, 74, 100
6, 33744, Note_on_c, 4, 70, 100
6, 33744, Note_on_c, 4, 67, 100
6, 33776, Note_off_c, 4, 67, 100
6, 33776, Note_off_c, 4, 70, 100
6, 33776, Note_off_c, 4, 74, 100
6, 33888, Note_on_c, 4, 65, 100
6, 33920, Note_off_c, 4, 65, 100
6, 33984, Note_on_c, 4, 67, 100
6, 33984, Note_on_c, 4, 74, 100
6, 33984, Note_on_c, 4, 70, 100
6, 34016, Note_off_c, 4, 70, 100
6, 34016, Note_off_c, 4, 74, 100
6, 34016, Note_off_c, 4, 67, 100
6, 34080, Note_on_c, 4, 65, 100
6, 34112, Note_off_c, 4, 65, 100
6, 34128, Note_on_c, 4, 74, 100
6, 34128, Note_on_c, 4, 70, 100
6, 34128, Note_on_c, 4, 67, 100
6, 34160, Note_off_c, 4, 67, 100
6, 34160, Note_off_c, 4, 70, 100
6, 34160, Note_off_c, 4, 74, 100
6, 34272, Note_on_c, 4, 65, 100
6, 34304, Note_off_c, 4, 65, 100
6, 34368, Note_on_c, 4, 67, 100
6, 34368, Note_on_c, 4, 74, 100
6, 34368, Note_on_c, 4, 70, 100
6, 34400, Note_off_c, 4, 70, 100
6, 34400, Note_off_c, 4, 74, 100
6, 34400, Note_off_c, 4, 67, 100
6, 34464, Note_on_c, 4, 65, 100
6, 34496, Note_off_c, 4, 65, 100
6, 34512, Note_on_c, 4, 74, 100
6, 34512, Note_on_c, 4, 70, 100
6, 34512, Note_on_c, 4, 67, 100
6, 34544, Note_off_c, 4, 67, 100
6, 34544, Note_off_c, 4, 70, 100
6, 34544, Note_off_c, 4, 74, 100
6, 34656, Note_on_c, 4, 65, 100
6, 34688, Note_off_c, 4, 65, 100
6, 34752, Note_on_c, 4, 67, 100
6, 34752, Note_on_c, 4, 74, 100
6, 34752, Note_on_c, 4, 70, 100
6, 34784, Note_off_c, 4, 70, 100
6, 34784, Note_off_c, 4, 74, 100
6, 34784, Note_off_c, 4, 67, 100
6, 34848, Note_on_c, 4, 65, 100
6, 34880, Note_off_c, 4, 65, 100
6, 34896, Note_on_c, 4, 74, 100
6, 34896, Note_on_c, 4, 70, 100
6, 34896, Note_on_c, 4, 67, 100
6, 34928, Note_off_c, 4, 67, 100
6, 34928, Note_off_c, 4, 70, 100
6, 34928, Note_off_c, 4, 74, 100
6, 35040, Note_on_c, 4, 65, 100
6, 35072, Note_off_c, 4, 65, 100
6, 35136, Note_on_c, 4, 67, 100
6, 35136, Note_on_c, 4, 74, 100
6, 35136, Note_on_c, 4, 70, 100
6, 35168, Note_off_c, 4, 70, 100
6, 35168, Note_off_c, 4, 74, 100
6, 35168, Note_off_c, 4, 67, 100
6, 35232, Note_on_c, 4, 65, 100
6, 35264, Note_off_c, 4, 65, 100
6, 35280, Note_on_c, 4, 74, 100
6, 35280, Note_on_c, 4, 70, 100
6, 35280, Note_on_c, 4, 67, 100
6, 35312, Note_off_c, 4, 67, 100
6, 35312, Note_off_c, 4, 70, 100
6, 35312, Note_off_c, 4, 74, 100
6, 35424, Note_on_c, 4, 65, 100
6, 35456, Note_off_c, 4, 65, 100
6, 35520, Note_on_c, 4, 67, 100
6, 35520, Note_on_c, 4, 74, 100
6, 35520, Note_on_c, 4, 70, 100
6, 35552, Note_off_c, 4, 70, 100
6, 35552, Note_off_c, 4, 74, 100
6, 35552, Note_off_c, 4, 67, 100
6, 35616, Note_on_c, 4, 65, 100
6, 35648, Note_off_c, 4, 65, 100
6, 35664, Note_on_c, 4, 74, 100
6, 35664, Note_on_c, 4, 70, 100
6, 35664, Note_on_c, 4, 67, 100
6, 35696, Note_off_c, 4, 67, 100
6, 35696, Note_off_c, 4, 70, 100
6, 35696, Note_off_c, 4, 74, 100
6, 35808, Note_on_c, 4, 65, 100
6, 35840, Note_off_c, 4, 65, 100
6, 35904, Note_on_c, 4, 67, 100
6, 35904, Note_on_c, 4, 74, 100
6, 35904, Note_on_c, 4, 70, 100
6, 35936, Note_off_c, 4, 70, 100
6, 35936, Note_off_c, 4, 74, 100
6, 35936, Note_off_c, 4, 67, 100
6, 36000, Note_on_c, 4, 65, 100
6, 36032, Note_off_c, 4, 65, 100
6, 36048, Note_on_c, 4, 74, 100
6, 36048, Note_on_c, 4, 70, 100
6, 36048, Note_on_c, 4, 67, 100
6, 36080, Note_off_c, 4, 67, 100
6, 36080, Note_off_c, 4, 70, 100
6, 36080, Note_off_c, 4, 74, 100
6, 36192, Note_on_c, 4, 65, 100
6, 36224, Note_off_c, 4, 65, 100
6, 36288, Note_on_c, 4, 67, 100
6, 36288, Note_on_c, 4, 74, 100
6, 36288, Note_on_c, 4, 70, 100
6, 36320, Note_off_c, 4, 70, 100
6, 36320, Note_off_c, 4, 74, 100
6, 36320, Note_off_c, 4, 67, 100
6, 36384, Note_on_c, 4, 65, 100
6, 36416, Note_off_c, 4, 65, 100
6, 36432, Note_on_c, 4, 74, 100
6, 36432, Note_on_c, 4, 70, 100
6, 36432, Note_on_c, 4, 67, 100
6, 36464, Note_off_c, 4, 67, 100
6, 36464, Note_off_c, 4, 70, 100
6, 36464, Note_off_c, 4, 74, 100
6, 36576, Note_on_c, 4, 65, 100
6, 36608, Note_off_c, 4, 65, 100
6, 36672, Note_on_c, 4, 67, 100
6, 36672, Note_on_c, 4, 74, 100
6, 36672, Note_on_c, 4, 70, 100
6, 36704, Note_off_c, 4, 70, 100
6, 36704, Note_off_c, 4, 74, 100
6, 36704, Note_off_c, 4, 67, 100
6, 36768, Note_on_c, 4, 65, 100
6, 36800, Note_off_c, 4, 65, 100
6, 36816, Note_on_c, 4, 74, 100
6, 36816, Note_on_c, 4, 70, 100
6, 36816, Note_on_c, 4, 67, 100
6, 36848, Note_off_c, 4, 67, 100
6, 36848, Note_off_c, 4, 70, 100
6, 36848, Note_off_c, 4, 74, 100
6, 36960, Note_on_c, 4, 65, 100
6, 36992, Note_off_c, 4, 65, 100
6, 37056, Note_on_c, 4, 67, 100
6, 37056, Note_on_c, 4, 74, 100
6, 37056, Note_on_c, 4, 70, 100
6, 37088, Note_off_c, 4, 70, 100
6, 37088, Note_off_c, 4, 74, 100
6, 37088, Note_off_c, 4, 67, 100
6, 37152, Note_on_c, 4, 65, 100
6, 37184, Note_off_c, 4, 65, 100
6, 37200, Note_on_c, 4, 74, 100
6, 37200, Note_on_c, 4, 70, 100
6, 37200, Note_on_c, 4, 67, 100
6, 37232, Note_off_c, 4, 67, 100
6, 37232, Note_off_c, 4, 70, 100
6, 37232, Note_off_c, 4, 74, 100
6, 37344, Note_on_c, 4, 65, 100
6, 37376, Note_off_c, 4, 65, 100
6, 37440, Note_on_c, 4, 67, 100
6, 37440, Note_on_c, 4, 74, 100
6, 37440, Note_on_c, 4, 70, 100
6, 37472, Note_off_c, 4, 70, 100
6, 37472, Note_off_c, 4, 74, 100
6, 37472, Note_off_c, 4, 67, 100
6, 37536, Note_on_c, 4, 65, 100
6, 37568, Note_off_c, 4, 65, 100
6, 37584, Note_on_c, 4, 74, 100
6, 37584, Note_on_c, 4, 70, 100
6, 37584, Note_on_c, 4, 67, 100
6, 37616, Note_off_c, 4, 67, 100
6, 37616, Note_off_c, 4, 70, 100
6, 37616, Note_off_c, 4, 74, 100
6, 37728, Note_on_c, 4, 65, 100
6, 37760, Note_off_c, 4, 65, 100
6, 37824, Note_on_c, 4, 67, 100
6, 37824, Note_on_c, 4, 74, 100
6, 37824, Note_on_c, 4, 70, 100
6, 37856, Note_off_c, 4, 70, 100
6, 37856, Note_off_c, 4, 74, 100
6, 37856, Note_off_c, 4, 67, 100
6, 37920, Note_on_c, 4, 65, 100
6, 37952, Note_off_c, 4, 65, 100
6, 37968, Note_on_c, 4, 74, 100
6, 37968, Note_on_c, 4, 70, 100
6, 37968, Note_on_c, 4, 67, 100
6, 38000, Note_off_c, 4, 67, 100
6, 38000, Note_off_c, 4, 70, 100
6, 38000, Note_off_c, 4, 74, 100
6, 38112, Note_on_c, 4, 65, 100
6, 38144, Note_off_c, 4, 65, 100
6, 38208, Note_on_c, 4, 67, 100
6, 38208, Note_on_c, 4, 74, 100
6, 38208, Note_on_c, 4, 70, 100
6, 38240, Note_off_c, 4, 70, 100
6, 38240, Note_off_c, 4, 74, 100
6, 38240, Note_off_c, 4, 67, 100
6, 38304, Note_on_c, 4, 65, 100
6, 38336, Note_off_c, 4, 65, 100
6, 38352, Note_on_c, 4, 74, 100
6, 38352, Note_on_c, 4, 70, 100
6, 38352, Note_on_c, 4, 67, 100
6, 38384, Note_off_c, 4, 67, 100
6, 38384, Note_off_c, 4, 70, 100
6, 38384, Note_off_c, 4, 74, 100
6, 38496, Note_on_c, 4, 65, 100
6, 38528, Note_off_c, 4, 65, 100
6, 38592, Note_on_c, 4, 67, 100
6, 38592, Note_on_c, 4, 74, 100
6, 38592, Note_on_c, 4, 70, 100
6, 38624, Note_off_c, 4, 70, 100
6, 38624, Note_off_c, 4, 74, 100
6, 38624, Note_off_c, 4, 67, 100
6, 38688, Note_on_c, 4, 65, 100
6, 38720, Note_off_c, 4, 65, 100
6, 38736, Note_on_c, 4, 74, 100
6, 38736, Note_on_c, 4, 70, 100
6, 38736, Note_on_c, 4, 67, 100
6, 38768, Note_off_c, 4, 67, 100
6, 38768, Note_off_c, 4, 70, 100
6, 38768, Note_off_c, 4, 74, 100
6, 38880, Note_on_c, 4, 65, 100
6, 38912, Note_off_c, 4, 65, 100
6, 38976, Note_on_c, 4, 67, 100
6, 38976, Note_on_c, 4, 74, 100
6, 38976, Note_on_c, 4, 70, 100
6, 39008, Note_off_c, 4, 70, 100
6, 39008, Note_off_c, 4, 74, 100
6, 39008, Note_off_c, 4, 67, 100
6, 39072, Note_on_c, 4, 65, 100
6, 39104, Note_off_c, 4, 65, 100
6, 39120, Note_on_c, 4, 74, 100
6, 39120, Note_on_c, 4, 70, 100
6, 39120, Note_on_c, 4, 67, 100
6, 39152, Note_off_c, 4, 67, 100
6, 39152, Note_off_c, 4, 70, 100
6, 39152, Note_off_c, 4, 74, 100
6, 39264, Note_on_c, 4, 65, 100
6, 39296, Note_off_c, 4, 65, 100
6, 39360, Note_on_c, 4, 67, 100
6, 39360, Note_on_c, 4, 74, 100
6, 39360, Note_on_c, 4, 70, 100
6, 39392, Note_off_c, 4, 70, 100
6, 39392, Note_off_c, 4, 74, 100
6, 39392, Note_off_c, 4, 67, 100
6, 39456, Note_on_c, 4, 65, 100
6, 39488, Note_off_c, 4, 65, 100
6, 39504, Note_on_c, 4, 74, 100
6, 39504, Note_on_c, 4, 70, 100
6, 39504, Note_on_c, 4, 67, 100
6, 39536, Note_off_c, 4, 67, 100
6, 39536, Note_off_c, 4, 70, 100
6, 39536, Note_off_c, 4, 74, 100
6, 39648, Note_on_c, 4, 65, 100
6, 39680, Note_off_c, 4, 65, 100
6, 39744, Note_on_c, 4, 67, 100
6, 39744, Note_on_c, 4, 74, 100
6, 39744, Note_on_c, 4, 70, 100
6, 39776, Note_off_c, 4, 70, 100
6, 39776, Note_off_c, 4, 74, 100
6, 39776, Note_off_c, 4, 67, 100
6, 39840, Note_on_c, 4, 65, 100
6, 39872, Note_off_c, 4, 65, 100
6, 39888, Note_on_c, 4, 74, 100
6, 39888, Note_on_c, 4, 70, 100
6, 39888, Note_on_c, 4, 67, 100
6, 39920, Note_off_c, 4, 67, 100
6, 39920, Note_off_c, 4, 70, 100
6, 39920, Note_off_c, 4, 74, 100
6, 40032, Note_on_c, 4, 65, 100
6, 40064, Note_off_c, 4, 65, 100
6, 40128, Note_on_c, 4, 67, 100
6, 40128, Note_on_c, 4, 74, 100
6, 40128, Note_on_c, 4, 70, 100
6, 40160, Note_off_c, 4, 70, 100
6, 40160, Note_off_c, 4, 74, 100
6, 40160, Note_off_c, 4, 67, 100
6, 40224, Note_on_c, 4, 65, 100
6, 40256, Note_off_c, 4, 65, 100
6, 40272, Note_on_c, 4, 74, 100
6, 40272, Note_on_c, 4, 70, 100
6, 40272, Note_on_c, 4, 67, 100
6, 40304, Note_off_c, 4, 67, 100
6, 40304, Note_off_c, 4, 70, 100
6, 40304, Note_off_c, 4, 74, 100
6, 40416, Note_on_c, 4, 65, 100
6, 40448, Note_off_c, 4, 65, 100
6, 40512, Note_on_c, 4, 67, 100
6, 40512, Note_on_c, 4, 74, 100
6, 40512, Note_on_c, 4, 70, 100
6, 40544, Note_off_c, 4, 70, 100
6, 40544, Note_off_c, 4, 74, 100
6, 40544, Note_off_c, 4, 67, 100
6, 40608, Note_on_c, 4, 65, 100
6, 40640, Note_off_c, 4, 65, 100
6, 40656, Note_on_c, 4, 74, 100
6, 40656, Note_on_c, 4, 70, 100
6, 40656, Note_on_c, 4, 67, 100
6, 40688, Note_off_c, 4, 67, 100
6, 40688, Note_off_c, 4, 70, 100
6, 40688, Note_off_c, 4, 74, 100
6, 40800, Note_on_c, 4, 65, 100
6, 40832, Note_off_c, 4, 65, 100
6, 40896, Note_on_c, 4, 67, 100
6, 40896, Note_on_c, 4, 74, 100
6, 40896, Note_on_c, 4, 70, 100
6, 40928, Note_off_c, 4, 70, 100
6, 40928, Note_off_c, 4, 74, 100
6, 40928, Note_off_c, 4, 67, 100
6, 40992, Note_on_c, 4, 65, 100
6, 41024, Note_off_c, 4, 65, 100
6, 41040, Note_on_c, 4, 74, 100
6, 41040, Note_on_c, 4, 70, 100
6, 41040, Note_on_c, 4, 67, 100
6, 41072, Note_off_c, 4, 67, 100
6, 41072, Note_off_c, 4, 70, 100
6, 41072, Note_off_c, 4, 74, 100
6, 41184, Note_on_c, 4, 65, 100
6, 41216, Note_off_c, 4, 65, 100
6, 41280, Note_on_c, 4, 67, 100
6, 41280, Note_on_c, 4, 74, 100
6, 41280, Note_on_c, 4, 70, 100
6, 41312, Note_off_c, 4, 70, 100
6, 41312, Note_off_c, 4, 74, 100
6, 41312, Note_off_c, 4, 67, 100
6, 41376, Note_on_c, 4, 65, 100
6, 41408, Note_off_c, 4, 65, 100
6, 41424, Note_on_c, 4, 74, 100
6, 41424, Note_on_c, 4, 70, 100
6, 41424, Note_on_c, 4, 67, 100
6, 41456, Note_off_c, 4, 67, 100
6, 41456, Note_off_c, 4, 70, 100
6, 41456, Note_off_c, 4, 74, 100
6, 41568, Note_on_c, 4, 65, 100
6, 41600, Note_off_c, 4, 65, 100
6, 41664, Note_on_c, 4, 67, 100
6, 41664, Note_on_c, 4, 74, 100
6, 41664, Note_on_c, 4, 70, 100
6, 41696, Note_off_c, 4, 70, 100
6, 41696, Note_off_c, 4, 74, 100
6, 41696, Note_off_c, 4, 67, 100
6, 41760, Note_on_c, 4, 65, 100
6, 41792, Note_off_c, 4, 65, 100
6, 41808, Note_on_c, 4, 74, 100
6, 41808, Note_on_c, 4, 70, 100
6, 41808, Note_on_c, 4, 67, 100
6, 41840, Note_off_c, 4, 67, 100
6, 41840, Note_off_c, 4, 70, 100
6, 41840, Note_off_c, 4, 74, 100
6, 41952, Note_on_c, 4, 65, 100
6, 41984, Note_off_c, 4, 65, 100
6, 42048, Note_on_c, 4, 67, 100
6, 42048, Note_on_c, 4, 74, 100
6, 42048, Note_on_c, 4, 70, 100
6, 42080, Note_off_c, 4, 70, 100
6, 42080, Note_off_c, 4, 74, 100
6, 42080, Note_off_c, 4, 67, 100
6, 42144, Note_on_c, 4, 65, 100
6, 42176, Note_off_c, 4, 65, 100
6, 42192, Note_on_c, 4, 74, 100
6, 42192, Note_on_c, 4, 70, 100
6, 42192, Note_on_c, 4, 67, 100
6, 42224, Note_off_c, 4, 67, 100
6, 42224, Note_off_c, 4, 70, 100
6, 42224, Note_off_c, 4, 74, 100
6, 42336, Note_on_c, 4, 65, 100
6, 42368, Note_off_c, 4, 65, 100
6, 42432, Note_on_c, 4, 67, 100
6, 42432, Note_on_c, 4, 74, 100
6, 42432, Note_on_c, 4, 70, 100
6, 42464, Note_off_c, 4, 70, 100
6, 42464, Note_off_c, 4, 74, 100
6, 42464, Note_off_c, 4, 67, 100
6, 42528, Note_on_c, 4, 65, 100
6, 42560, Note_off_c, 4, 65, 100
6, 42576, Note_on_c, 4, 74, 100
6, 42576, Note_on_c, 4, 70, 100
6, 42576, Note_on_c, 4, 67, 100
6, 42608, Note_off_c, 4, 67, 100
6, 42608, Note_off_c, 4, 70, 100
6, 42608, Note_off_c, 4, 74, 100
6, 42720, Note_on_c, 4, 65, 100
6, 42752, Note_off_c, 4, 65, 100
6, 42816, Note_on_c, 4, 67, 100
6, 42816, Note_on_c, 4, 74, 100
6, 42816, Note_on_c, 4, 70, 100
6, 42848, Note_off_c, 4, 70, 100
6, 42848, Note_off_c, 4, 74, 100
6, 42848, Note_off_c, 4, 67, 100
6, 42912, Note_on_c, 4, 65, 100
6, 42944, Note_off_c, 4, 65, 100
6, 42960, Note_on_c, 4, 74, 100
6, 42960, Note_on_c, 4, 70, 100
6, 42960, Note_on_c, 4, 67, 100
6, 42992, Note_off_c, 4, 67, 100
6, 42992, Note_off_c, 4, 70, 100
6, 42992, Note_off_c, 4, 74, 100
6, 43104, Note_on_c, 4, 65, 100
6, 43136, Note_off_c, 4, 65, 100
6, 43200, Note_on_c, 4, 67, 100
6, 43200, Note_on_c, 4, 74, 100
6, 43200, Note_on_c, 4, 70, 100
6, 43232, Note_off_c, 4, 70, 100
6, 43232, Note_off_c, 4, 74, 100
6, 43232, Note_off_c, 4, 67, 100
6, 43296, Note_on_c, 4, 65, 100
6, 43328, Note_off_c, 4, 65, 100
6, 43344, Note_on_c, 4, 74, 100
6, 43344, Note_on_c, 4, 70, 100
6, 43344, Note_on_c, 4, 67, 100
6, 43376, Note_off_c, 4, 67, 100
6, 43376, Note_off_c, 4, 70, 100
6, 43376, Note_off_c, 4, 74, 100
6, 43488, Note_on_c, 4, 65, 100
6, 43520, Note_off_c, 4, 65, 100
6, 43584, Note_on_c, 4, 67, 100
6, 43584, Note_on_c, 4, 74, 100
6, 43584, Note_on_c, 4, 70, 100
6, 43616, Note_off_c, 4, 70, 100
6, 43616, Note_off_c, 4, 74, 100
6, 43616, Note_off_c, 4, 67, 100
6, 43680, Note_on_c, 4, 65, 100
6, 43712, Note_off_c, 4, 65, 100
6, 43728, Note_on_c, 4, 74, 100
6, 43728, Note_on_c, 4, 70, 100
6, 43728, Note_on_c, 4, 67, 100
6, 43760, Note_off_c, 4, 67, 100
6, 43760, Note_off_c, 4, 70, 100
6, 43760, Note_off_c, 4, 74, 100
6, 43872, Note_on_c, 4, 65, 100
6, 43904, Note_off_c, 4, 65, 100
6, 43968, Note_on_c, 4, 67, 100
6, 43968, Note_on_c, 4, 74, 100
6, 43968, Note_on_c, 4, 70, 100
6, 44000, Note_off_c, 4, 70, 100
6, 44000, Note_off_c, 4, 74, 100
6, 44000, Note_off_c, 4, 67, 100
6, 44064, Note_on_c, 4, 65, 100
6, 44096, Note_off_c, 4, 65, 100
6, 44112, Note_on_c, 4, 74, 100
6, 44112, Note_on_c, 4, 70, 100
6, 44112, Note_on_c, 4, 67, 100
6, 44144, Note_off_c, 4, 67, 100
6, 44144, Note_off_c, 4, 70, 100
6, 44144, Note_off_c, 4, 74, 100
6, 44256, Note_on_c, 4, 65, 100
6, 44288, Note_off_c, 4, 65, 100
6, 44352, Note_on_c, 4, 67, 100
6, 44352, Note_on_c, 4, 74, 100
6, 44352, Note_on_c, 4, 70, 100
6, 44384, Note_off_c, 4, 70, 100
6, 44384, Note_off_c, 4, 74, 100
6, 44384, Note_off_c, 4, 67, 100
6, 44448, Note_on_c, 4, 65, 100
6, 44480, Note_off_c, 4, 65, 100
6, 44496, Note_on_c, 4, 74, 100
6, 44496, Note_on_c, 4, 70, 100
6, 44496, Note_on_c, 4, 67, 100
6, 44528, Note_off_c, 4, 67, 100
6, 44528, Note_off_c, 4, 70, 100
6, 44528, Note_off_c, 4, 74, 100
6, 44640, Note_on_c, 4, 65, 100
6, 44672, Note_off_c, 4, 65, 100
6, 44736, Note_on_c, 4, 67, 100
6, 44736, Note_on_c, 4, 74, 100
6, 44736, Note_on_c, 4, 70, 100
6, 44768, Note_off_c, 4, 70, 100
6, 44768, Note_off_c, 4, 74, 100
6, 44768, Note_off_c, 4, 67, 100
6, 44832, Note_on_c, 4, 65, 100
6, 44864, Note_off_c, 4, 65, 100
6, 44880, Note_on_c, 4, 74, 100
6, 44880, Note_on_c, 4, 70, 100
6, 44880, Note_on_c, 4, 67, 100
6, 44912, Note_off_c, 4, 67, 100
6, 44912, Note_off_c, 4, 70, 100
6, 44912, Note_off_c, 4, 74, 100
6, 45024, Note_on_c, 4, 65, 100
6, 45056, Note_off_c, 4, 65, 100
6, 45120, Note_on_c, 4, 67, 100
6, 45120, Note_on_c, 4, 74, 100
6, 45120, Note_on_c, 4, 70, 100
6, 45152, Note_off_c, 4, 70, 100
6, 45152, Note_off_c, 4, 74, 100
6, 45152, Note_off_c, 4, 67, 100
6, 45216, Note_on_c, 4, 65, 100
6, 45248, Note_off_c, 4, 65, 100
6, 45264, Note_on_c, 4, 74, 100
6, 45264, Note_on_c, 4, 70, 100
6, 45264, Note_on_c, 4, 67, 100
6, 45296, Note_off_c, 4, 67, 100
6, 45296, Note_off_c, 4, 70, 100
6, 45296, Note_off_c, 4, 74, 100
6, 45408, Note_on_c, 4, 65, 100
6, 45440, Note_off_c, 4, 65, 100
6, 45504, Note_on_c, 4, 67, 100
6, 45504, Note_on_c, 4, 74, 100
6, 45504, Note_on_c, 4, 70, 100
6, 45536, Note_off_c, 4, 70, 100
6, 45536, Note_off_c, 4, 74, 100
6, 45536, Note_off_c, 4, 67, 100
6, 45600, Note_on_c, 4, 65, 100
6, 45632, Note_off_c, 4, 65, 100
6, 45648, Note_on_c, 4, 74, 100
6, 45648, Note_on_c, 4, 70, 100
6, 45648, Note_on_c, 4, 67, 100
6, 45680, Note_off_c, 4, 67, 100
6, 45680, Note_off_c, 4, 70, 100
6, 45680, Note_off_c, 4, 74, 100
6, 45792, Note_on_c, 4, 65, 100
6, 45824, Note_off_c, 4, 65, 100
6, 45888, Note_on_c, 4, 67, 100
6, 45888, Note_on_c, 4, 74, 100
6, 45888, Note_on_c, 4, 70, 100
6, 45920, Note_off_c, 4, 70, 100
6, 45920, Note_off_c, 4, 74, 100
6, 45920, Note_off_c, 4, 67, 100
6, 45984, Note_on_c, 4, 65, 100
6, 46016, Note_off_c, 4, 65, 100
6, 46032, Note_on_c, 4, 74, 100
6, 46032, Note_on_c, 4, 70, 100
6, 46032, Note_on_c, 4, 67, 100
6, 46064, Note_off_c, 4, 67, 100
6, 46064, Note_off_c, 4, 70, 100
6, 46064, Note_off_c, 4, 74, 100
6, 46176, Note_on_c, 4, 65, 100
6, 46208, Note_off_c, 4, 65, 100
6, 46272, Note_on_c, 4, 67, 100
6, 46272, Note_on_c, 4, 74, 100
6, 46272, Note_on_c, 4, 70, 100
6, 46304, Note_off_c, 4, 70, 100
6, 46304, Note_off_c, 4, 74, 100
6, 46304, Note_off_c, 4, 67, 100
6, 46368, Note_on_c, 4, 65, 100
6, 46400, Note_off_c, 4, 65, 100
6, 46416, Note_on_c, 4, 74, 100
6, 46416, Note_on_c, 4, 70, 100
6, 46416, Note_on_c, 4, 67, 100
6, 46448, Note_off_c, 4, 67, 100
6, 46448, Note_off_c, 4, 70, 100
6, 46448, Note_off_c, 4, 74, 100
6, 46560, Note_on_c, 4, 65, 100
6, 46592, Note_off_c, 4, 65, 100
6, 46656, Note_on_c, 4, 67, 100
6, 46656, Note_on_c, 4, 74, 100
6, 46656, Note_on_c, 4, 70, 100
6, 46688, Note_off_c, 4, 70, 100
6, 46688, Note_off_c, 4, 74, 100
6, 46688, Note_off_c, 4, 67, 100
6, 46752, Note_on_c, 4, 65, 100
6, 46784, Note_off_c, 4, 65, 100
6, 46800, Note_on_c, 4, 74, 100
6, 46800, Note_on_c, 4, 70, 100
6, 46800, Note_on_c, 4, 67, 100
6, 46832, Note_off_c, 4, 67, 100
6, 46832, Note_off_c, 4, 70, 100
6, 46832, Note_off_c, 4, 74, 100
6, 46944, Note_on_c, 4, 65, 100
6, 46976, Note_off_c, 4, 65, 100
6, 47040, Note_on_c, 4, 67, 100
6, 47040, Note_on_c, 4, 74, 100
6, 47040, Note_on_c, 4, 70, 100
6, 47072, Note_off_c, 4, 70, 100
6, 47072, Note_off_c, 4, 74, 100
6, 47072, Note_off_c, 4, 67, 100
6, 47136, Note_on_c, 4, 65, 100
6, 47168, Note_off_c, 4, 65, 100
6, 47184, Note_on_c, 4, 74, 100
6, 47184, Note_on_c, 4, 70, 100
6, 47184, Note_on_c, 4, 67, 100
6, 47216, Note_off_c, 4, 67, 100
6, 47216, Note_off_c, 4, 70, 100
6, 47216, Note_off_c, 4, 74, 100
6, 47328, Note_on_c, 4, 65, 100
6, 47360, Note_off_c, 4, 65, 100
6, 47424, Note_on_c, 4, 67, 100
6, 47424, Note_on_c, 4, 74, 100
6, 47424, Note_on_c, 4, 70, 100
6, 47456, Note_off_c, 4, 70, 100
6, 47456, Note_off_c, 4, 74, 100
6, 47456, Note_off_c, 4, 67, 100
6, 47520, Note_on_c, 4, 65, 100
6, 47552, Note_off_c, 4, 65, 100
6, 47568, Note_on_c, 4, 74, 100
6, 47568, Note_on_c, 4, 70, 100
6, 47568, Note_on_c, 4, 67, 100
6, 47600, Note_off_c, 4, 67, 100
6, 47600, Note_off_c, 4, 70, 100
6, 47600, Note_off_c, 4, 74, 100
6, 47712, Note_on_c, 4, 65, 100
6, 47744, Note_off_c, 4, 65, 100
6, 47808, Note_on_c, 4, 67, 100
6, 47808, Note_on_c, 4, 74, 100
6, 47808, Note_on_c, 4, 70, 100
6, 47840, Note_off_c, 4, 70, 100
6, 47840, Note_off_c, 4, 74, 100
6, 47840, Note_off_c, 4, 67, 100
6, 47904, Note_on_c, 4, 65, 100
6, 47936, Note_off_c, 4, 65, 100
6, 47952, Note_on_c, 4, 74, 100
6, 47952, Note_on_c, 4, 70, 100
6, 47952, Note_on_c, 4, 67, 100
6, 47984, Note_off_c, 4, 67, 100
6, 47984, Note_off_c, 4, 70, 100
6, 47984, Note_off_c, 4, 74, 100
6, 48096, Note_on_c, 4, 65, 100
6, 48128, Note_off_c, 4, 65, 100
6, 48192, Note_on_c, 4, 67, 100
6, 48192, Note_on_c, 4, 74, 100
6, 48192, Note_on_c, 4, 70, 100
6, 48224, Note_off_c, 4, 70, 100
6, 48224, Note_off_c, 4, 74, 100
6, 48224, Note_off_c, 4, 67, 100
6, 48288, Note_on_c, 4, 65, 100
6, 48320, Note_off_c, 4, 65, 100
6, 48336, Note_on_c, 4, 74, 100
6, 48336, Note_on_c, 4, 70, 100
6, 48336, Note_on_c, 4, 67, 100
6, 48368, Note_off_c, 4, 67, 100
6, 48368, Note_off_c, 4, 70, 100
6, 48368, Note_off_c, 4, 74, 100
6, 48480, Note_on_c, 4, 65, 100
6, 48512, Note_off_c, 4, 65, 100
6, 48672, Note_on_c, 4, 65, 100
6, 48704, Note_off_c, 4, 65, 100
6, 48864, Note_on_c, 4, 65, 100
6, 48896, Note_off_c, 4, 65, 100
6, 49056, Note_on_c, 4, 65, 100
6, 49088, Note_off_c, 4, 65, 100
6, 49248, Note_on_c, 4, 53, 100
6, 49280, Note_off_c, 4, 53, 100
6, 49344, Note_on_c, 4, 55, 100
6, 49344, Note_on_c, 4, 62, 100
6, 49344, Note_on_c, 4, 58, 100
6, 49376, Note_off_c, 4, 58, 100
6, 49376, Note_off_c, 4, 62, 100
6, 49376, Note_off_c, 4, 55, 100
6, 49440, Note_on_c, 4, 53, 100
6, 49472, Note_off_c, 4, 53, 100
6, 49488, Note_on_c, 4, 62, 100
6, 49488, Note_on_c, 4, 58, 100
6, 49488, Note_on_c, 4, 55, 100
6, 49520, Note_off_c, 4, 55, 100
6, 49520, Note_off_c, 4, 58, 100
6, 49520, Note_off_c, 4, 62, 100
6, 49632, Note_on_c, 4, 53, 100
6, 49664, Note_off_c, 4, 53, 100
6, 49728, Note_on_c, 4, 55, 100
6, 49728, Note_on_c, 4, 62, 100
6, 49728, Note_on_c, 4, 58, 100
6, 49760, Note_off_c, 4, 58, 100
6, 49760, Note_off_c, 4, 62, 100
6, 49760, Note_off_c, 4, 55, 100
6, 49824, Note_on_c, 4, 53, 100
6, 49856, Note_off_c, 4, 53, 100
6, 49872, Note_on_c, 4, 62, 100
6, 49872, Note_on_c, 4, 58, 100
6, 49872, Note_on_c, 4, 55, 100
6, 49904, Note_off_c, 4, 55, 100
6, 49904, Note_off_c, 4, 58, 100
6, 49904, Note_off_c, 4, 62, 100
6, 50016, Note_on_c, 4, 53, 100
6, 50048, Note_off_c, 4, 53, 100
6, 50112, Note_on_c, 4, 55, 100
6, 50112, Note_on_c, 4, 62, 100
6, 50112, Note_on_c, 4, 58, 100
6, 50144, Note_off_c, 4, 58, 100
6, 50144, Note_off_c, 4, 62, 100
6, 50144, Note_off_c, 4, 55, 100
6, 50208, Note_on_c, 4, 53, 100
6, 50240, Note_off_c, 4, 53, 100
6, 50256, Note_on_c, 4, 62, 100
6, 50256, Note_on_c, 4, 58, 100
6, 50256, Note_on_c, 4, 55, 100
6, 50288, Note_off_c, 4, 55, 100
6, 50288, Note_off_c, 4, 58, 100
6, 50288, Note_off_c, 4, 62, 100
6, 50400, Note_on_c, 4, 53, 100
6, 50432, Note_off_c, 4, 53, 100
6, 50496, Note_on_c, 4, 55, 100
6, 50496, Note_on_c, 4, 62, 100
6, 50496, Note_on_c, 4, 58, 100
6, 50528, Note_off_c, 4, 58, 100
6, 50528, Note_off_c, 4, 62, 100
6, 50528, Note_off_c, 4, 55, 100
6, 50592, Note_on_c, 4, 53, 100
6, 50624, Note_off_c, 4, 53, 100
6, 50640, Note_on_c, 4, 62, 100
6, 50640, Note_on_c, 4, 58, 100
6, 50640, Note_on_c, 4, 55, 100
6, 50672, Note_off_c, 4, 55, 100
6, 50672, Note_off_c, 4, 58, 100
6, 50672, Note_off_c, 4, 62, 100
6, 50784, Note_on_c, 4, 65, 100
6, 50816, Note_off_c, 4, 65, 100
6, 50880, Note_on_c, 4, 67, 100
6, 50880, Note_on_c, 4, 74, 100
6, 50880, Note_on_c, 4, 70, 100
6, 50912, Note_off_c, 4, 70, 100
6, 50912, Note_off_c, 4, 74, 100
6, 50912, Note_off_c, 4, 67, 100
6, 50976, Note_on_c, 4, 65, 100
6, 51008, Note_off_c, 4, 65, 100
6, 51024, Note_on_c, 4, 74, 100
6, 51024, Note_on_c, 4, 70, 100
6, 51024, Note_on_c, 4, 67, 100
6, 51056, Note_off_c, 4, 67, 100
6, 51056, Note_off_c, 4, 70, 100
6, 51056, Note_off_c, 4, 74, 100
6, 51168, Note_on_c, 4, 65, 100
6, 51200, Note_off_c, 4, 65, 100
6, 51264, Note_on_c, 4, 67, 100
6, 51264, Note_on_c, 4, 74, 100
6, 51264, Note_on_c, 4, 70, 100
6, 51296, Note_off_c, 4, 70, 100
6, 51296, Note_off_c, 4, 74, 100
6, 51296, Note_off_c, 4, 67, 100
6, 51360, Note_on_c, 4, 65, 100
6, 51392, Note_off_c, 4, 65, 100
6, 51408, Note_on_c, 4, 74, 100
6, 51408, Note_on_c, 4, 70, 100
6, 51408, Note_on_c, 4, 67, 100
6, 51440, Note_off_c, 4, 67, 100
6, 51440, Note_off_c, 4, 70, 100
6, 51440, Note_off_c, 4, 74, 100
6, 51552, Note_on_c, 4, 65, 100
6, 51584, Note_off_c, 4, 65, 100
6, 51648, Note_on_c, 4, 67, 100
6, 51648, Note_on_c, 4, 74, 100
6, 51648, Note_on_c, 4, 70, 100
6, 51680, Note_off_c, 4, 70, 100
6, 51680, Note_off_c, 4, 74, 100
6, 51680, Note_off_c, 4, 67, 100
6, 51744, Note_on_c, 4, 65, 100
6, 51776, Note_off_c, 4, 65, 100
6, 51792, Note_on_c, 4, 74, 100
6, 51792, Note_on_c, 4, 70, 100
6, 51792, Note_on_c, 4, 67, 100
6, 51824, Note_off_c, 4, 67, 100
6, 51824, Note_off_c, 4, 70, 100
6, 51824, Note_off_c, 4, 74, 100
6, 51936, Note_on_c, 4, 65, 100
6, 51968, Note_off_c, 4, 65, 100
6, 52032, Note_on_c, 4, 67, 100
6, 52032, Note_on_c, 4, 74, 100
6, 52032, Note_on_c, 4, 70, 100
6, 52064, Note_off_c, 4, 70, 100
6, 52064, Note_off_c, 4, 74, 100
6, 52064, Note_off_c, 4, 67, 100
6, 52128, Note_on_c, 4, 65, 100
6, 52160, Note_off_c, 4, 65, 100
6, 52176, Note_on_c, 4, 74, 100
6, 52176, Note_on_c, 4, 70, 100
6, 52176, Note_on_c, 4, 67, 100
6, 52208, Note_off_c, 4, 67, 100
6, 52208, Note_off_c, 4, 70, 100
6, 52208, Note_off_c, 4, 74, 100
6, 52320, Note_on_c, 4, 65, 100
6, 52352, Note_off_c, 4, 65, 100
6, 52416, Note_on_c, 4, 67, 100
6, 52416, Note_on_c, 4, 74, 100
6, 52416, Note_on_c, 4, 70, 100
6, 52448, Note_off_c, 4, 70, 100
6, 52448, Note_off_c, 4, 74, 100
6, 52448, Note_off_c, 4, 67, 100
6, 52512, Note_on_c, 4, 65, 100
6, 52544, Note_off_c, 4, 65, 100
6, 52560, Note_on_c, 4, 74, 100
6, 52560, Note_on_c, 4, 70, 100
6, 52560, Note_on_c, 4, 67, 100
6, 52592, Note_off_c, 4, 67, 100
6, 52592, Note_off_c, 4, 70, 100
6, 52592, Note_off_c, 4, 74, 100
6, 52704, Note_on_c, 4, 65, 100
6, 52736, Note_off_c, 4, 65, 100
6, 52800, Note_on_c, 4, 67, 100
6, 52800, Note_on_c, 4, 74, 100
6, 52800, Note_on_c, 4, 70, 100
6, 52832, Note_off_c, 4, 70, 100
6, 52832, Note_off_c, 4, 74, 100
6, 52832, Note_off_c, 4, 67, 100
6, 52896, Note_on_c, 4, 65, 100
6, 52928, Note_off_c, 4, 65, 100
6, 52944, Note_on_c, 4, 74, 100
6, 52944, Note_on_c, 4, 70, 100
6, 52944, Note_on_c, 4, 67, 100
6, 52976, Note_off_c, 4, 67, 100
6, 52976, Note_off_c, 4, 70, 100
6, 52976, Note_off_c, 4, 74, 100
6, 53088, Note_on_c, 4, 65, 100
6, 53120, Note_off_c, 4, 65, 100
6, 53184, Note_on_c, 4, 67, 100
6, 53184, Note_on_c, 4, 74, 100
6, 53184, Note_on_c, 4, 70, 100
6, 53216, Note_off_c, 4, 70, 100
6, 53216, Note_off_c, 4, 74, 100
6, 53216, Note_off_c, 4, 67, 100
6, 53280, Note_on_c, 4, 65, 100
6, 53312, Note_off_c, 4, 65, 100
6, 53328, Note_on_c, 4, 74, 100
6, 53328, Note_on_c, 4, 70, 100
6, 53328, Note_on_c, 4, 67, 100
6, 53360, Note_off_c, 4, 67, 100
6, 53360, Note_off_c, 4, 70, 100
6, 53360, Note_off_c, 4, 74, 100
6, 53472, Note_on_c, 4, 65, 100
6, 53504, Note_off_c, 4, 65, 100
6, 53568, Note_on_c, 4, 67, 100
6, 53568, Note_on_c, 4, 74, 100
6, 53568, Note_on_c, 4, 70, 100
6, 53600, Note_off_c, 4, 70, 100
6, 53600, Note_off_c, 4, 74, 100
6, 53600, Note_off_c, 4, 67, 100
6, 53664, Note_on_c, 4, 65, 100
6, 53696, Note_off_c, 4, 65, 100
6, 53712, Note_on_c, 4, 74, 100
6, 53712, Note_on_c, 4, 70, 100
6, 53712, Note_on_c, 4, 67, 100
6, 53744, Note_off_c, 4, 67, 100
6, 53744, Note_off_c, 4, 70, 100
6, 53744, Note_off_c, 4, 74, 100
6, 53856, Note_on_c, 4, 65, 100
6, 53888, Note_off_c, 4, 65, 100
6, 53952, Note_on_c, 4, 67, 100
6, 53952, Note_on_c, 4, 74, 100
6, 53952, Note_on_c, 4, 70, 100
6, 53984, Note_off_c, 4, 70, 100
6, 53984, Note_off_c, 4, 74, 100
6, 53984, Note_off_c, 4, 67, 100
6, 54048, Note_on_c, 4, 65, 100
6, 54080, Note_off_c, 4, 65, 100
6, 54096, Note_on_c, 4, 74, 100
6, 54096, Note_on_c, 4, 70, 100
6, 54096, Note_on_c, 4, 67, 100
6, 54128, Note_off_c, 4, 67, 100
6, 54128, Note_off_c, 4, 70, 100
6, 54128, Note_off_c, 4, 74, 100
6, 54240, Note_on_c, 4, 65, 100
6, 54272, Note_off_c, 4, 65, 100
6, 54336, Note_on_c, 4, 67, 100
6, 54336, Note_on_c, 4, 74, 100
6, 54336, Note_on_c, 4, 70, 100
6, 54368, Note_off_c, 4, 70, 100
6, 54368, Note_off_c, 4, 74, 100
6, 54368, Note_off_c, 4, 67, 100
6, 54432, Note_on_c, 4, 65, 100
6, 54464, Note_off_c, 4, 65, 100
6, 54480, Note_on_c, 4, 74, 100
6, 54480, Note_on_c, 4, 70, 100
6, 54480, Note_on_c, 4, 67, 100
6, 54512, Note_off_c, 4, 67, 100
6, 54512, Note_off_c, 4, 70, 100
6, 54512, Note_off_c, 4, 74, 100
6, 54624, Note_on_c, 4, 65, 100
6, 54656, Note_off_c, 4, 65, 100
6, 54720, Note_on_c, 4, 67, 100
6, 54720, Note_on_c, 4, 74, 100
6, 54720, Note_on_c, 4, 70, 100
6, 54752, Note_off_c, 4, 70, 100
6, 54752, Note_off_c, 4, 74, 100
6, 54752, Note_off_c, 4, 67, 100
6, 54816, Note_on_c, 4, 65, 100
6, 54848, Note_off_c, 4, 65, 100
6, 54864, Note_on_c, 4, 74, 100
6, 54864, Note_on_c, 4, 70, 100
6, 54864, Note_on_c, 4, 67, 100
6, 54896, Note_off_c, 4, 67, 100
6, 54896, Note_off_c, 4, 70, 100
6, 54896, Note_off_c, 4, 74, 100
6, 55008, Note_on_c, 4, 65, 100
6, 55040, Note_off_c, 4, 65, 100
6, 55104, Note_on_c, 4, 67, 100
6, 55104, Note_on_c, 4, 74, 100
6, 55104, Note_on_c, 4, 70, 100
6, 55136, Note_off_c, 4, 70, 100
6, 55136, Note_off_c, 4, 74, 100
6, 55136, Note_off_c, 4, 67, 100
6, 55200, Note_on_c, 4, 65, 100
6, 55232, Note_off_c, 4, 65, 100
6, 55248, Note_on_c, 4, 74, 100
6, 55248, Note_on_c, 4, 70, 100
6, 55248, Note_on_c, 4, 67, 100
6, 55280, Note_off_c, 4, 67, 100
6, 55280, Note_off_c, 4, 70, 100
6, 55280, Note_off_c, 4, 74, 100
6, 55392, Note_on_c, 4, 65, 100
6, 55424, Note_off_c, 4, 65, 100
6, 55488, Note_on_c, 4, 67, 100
6, 55488, Note_on_c, 4, 74, 100
6, 55488, Note_on_c, 4, 70, 100
6, 55520, Note_off_c, 4, 70, 100
6, 55520, Note_off_c, 4, 74, 100
6, 55520, Note_off_c, 4, 67, 100
6, 55584, Note_on_c, 4, 65, 100
6, 55616, Note_off_c, 4, 65, 100
6, 55632, Note_on_c, 4, 74, 100
6, 55632, Note_on_c, 4, 70, 100
6, 55632, Note_on_c, 4, 67, 100
6, 55664, Note_off_c, 4, 67, 100
6, 55664, Note_off_c, 4, 70, 100
6, 55664, Note_off_c, 4, 74, 100
6, 55776, Note_on_c, 4, 65, 100
6, 55808, Note_off_c, 4, 65, 100
6, 55872, Note_on_c, 4, 67, 100
6, 55872, Note_on_c, 4, 74, 100
6, 55872, Note_on_c, 4, 70, 100
6, 55904, Note_off_c, 4, 70, 100
6, 55904, Note_off_c, 4, 74, 100
6, 55904, Note_off_c, 4, 67, 100
6, 55968, Note_on_c, 4, 65, 100
6, 56000, Note_off_c, 4, 65, 100
6, 56016, Note_on_c, 4, 74, 100
6, 56016, Note_on_c, 4, 70, 100
6, 56016, Note_on_c, 4, 67, 100
6, 56048, Note_off_c, 4, 67, 100
6, 56048, Note_off_c, 4, 70, 100
6, 56048, Note_off_c, 4, 74, 100
6, 56160, Note_on_c, 4, 65, 100
6, 56192, Note_off_c, 4, 65, 100
6, 56256, Note_on_c, 4, 67, 100
6, 56256, Note_on_c, 4, 74, 100
6, 56256, Note_on_c, 4, 70, 100
6, 56288, Note_off_c, 4, 70, 100
6, 56288, Note_off_c, 4, 74, 100
6, 56288, Note_off_c, 4, 67, 100
6, 56352, Note_on_c, 4, 65, 100
6, 56384, Note_off_c, 4, 65, 100
6, 56400, Note_on_c, 4, 74, 100
6, 56400, Note_on_c, 4, 70, 100
6, 56400, Note_on_c, 4, 67, 100
6, 56432, Note_off_c, 4, 67, 100
6, 56432, Note_off_c, 4, 70, 100
6, 56432, Note_off_c, 4, 74, 100
6, 56544, Note_on_c, 4, 65, 100
6, 56576, Note_off_c, 4, 65, 100
6, 56640, Note_on_c, 4, 67, 100
6, 56640, Note_on_c, 4, 74, 100
6, 56640, Note_on_c, 4, 70, 100
6, 56672, Note_off_c, 4, 70, 100
6, 56672, Note_off_c, 4, 74, 100
6, 56672, Note_off_c, 4, 67, 100
6, 56736, Note_on_c, 4, 65, 100
6, 56768, Note_off_c, 4, 65, 100
6, 56784, Note_on_c, 4, 74, 100
6, 56784, Note_on_c, 4, 70, 100
6, 56784, Note_on_c, 4, 67, 100
6, 56816, Note_off_c, 4, 67, 100
6, 56816, Note_off_c, 4, 70, 100
6, 56816, Note_off_c, 4, 74, 100
6, 56928, Note_on_c, 4, 65, 100
6, 56960, Note_off_c, 4, 65, 100
6, 57024, Note_on_c, 4, 67, 100
6, 57024, Note_on_c, 4, 74, 100
6, 57024, Note_on_c, 4, 70, 100
6, 57056, Note_off_c, 4, 70, 100
6, 57056, Note_off_c, 4, 74, 100
6, 57056, Note_off_c, 4, 67, 100
6, 57120, Note_on_c, 4, 65, 100
6, 57152, Note_off_c, 4, 65, 100
6, 57168, Note_on_c, 4, 74, 100
6, 57168, Note_on_c, 4, 70, 100
6, 57168, Note_on_c, 4, 67, 100
6, 57200, Note_off_c, 4, 67, 100
6, 57200, Note_off_c, 4, 70, 100
6, 57200, Note_off_c, 4, 74, 100
6, 57312, Note_on_c, 4, 65, 100
6, 57344, Note_off_c, 4, 65, 100
6, 57408, Note_on_c, 4, 67, 100
6, 57408, Note_on_c, 4, 74, 100
6, 57408, Note_on_c, 4, 70, 100
6, 57440, Note_off_c, 4, 70, 100
6, 57440, Note_off_c, 4, 74, 100
6, 57440, Note_off_c, 4, 67, 100
6, 57504, Note_on_c, 4, 65, 100
6, 57536, Note_off_c, 4, 65, 100
6, 57552, Note_on_c, 4, 74, 100
6, 57552, Note_on_c, 4, 70, 100
6, 57552, Note_on_c, 4, 67, 100
6, 57584, Note_off_c, 4, 67, 100
6, 57584, Note_off_c, 4, 70, 100
6, 57584, Note_off_c, 4, 74, 100
6, 57696, Note_on_c, 4, 65, 100
6, 57728, Note_off_c, 4, 65, 100
6, 57792, Note_on_c, 4, 67, 100
6, 57792, Note_on_c, 4, 74, 100
6, 57792, Note_on_c, 4, 70, 100
6, 57824, Note_off_c, 4, 70, 100
6, 57824, Note_off_c, 4, 74, 100
6, 57824, Note_off_c, 4, 67, 100
6, 57888, Note_on_c, 4, 65, 100
6, 57920, Note_off_c, 4, 65, 100
6, 57936, Note_on_c, 4, 74, 100
6, 57936, Note_on_c, 4, 70, 100
6, 57936, Note_on_c, 4, 67, 100
6, 57968, Note_off_c, 4, 67, 100
6, 57968, Note_off_c, 4, 70, 100
6, 57968, Note_off_c, 4, 74, 100
6, 58080, Note_on_c, 4, 65, 100
6, 58112, Note_off_c, 4, 65, 100
6, 58176, Note_on_c, 4, 67, 100
6, 58176, Note_on_c, 4, 74, 100
6, 58176, Note_on_c, 4, 70, 100
6, 58208, Note_off_c, 4, 70, 100
6, 58208, Note_off_c, 4, 74, 100
6, 58208, Note_off_c, 4, 67, 100
6, 58272, Note_on_c, 4, 65, 100
6, 58304, Note_off_c, 4, 65, 100
6, 58320, Note_on_c, 4, 74, 100
6, 58320, Note_on_c, 4, 70, 100
6, 58320, Note_on_c, 4, 67, 100
6, 58352, Note_off_c, 4, 67, 100
6, 58352, Note_off_c, 4, 70, 100
6, 58352, Note_off_c, 4, 74, 100
6, 58464, Note_on_c, 4, 65, 100
6, 58496, Note_off_c, 4, 65, 100
6, 58560, Note_on_c, 4, 67, 100
6, 58560, Note_on_c, 4, 74, 100
6, 58560, Note_on_c, 4, 70, 100
6, 58592, Note_off_c, 4, 70, 100
6, 58592, Note_off_c, 4, 74, 100
6, 58592, Note_off_c, 4, 67, 100
6, 58656, Note_on_c, 4, 65, 100
6, 58688, Note_off_c, 4, 65, 100
6, 58704, Note_on_c, 4, 74, 100
6, 58704, Note_on_c, 4, 70, 100
6, 58704, Note_on_c, 4, 67, 100
6, 58736, Note_off_c, 4, 67, 100
6, 58736, Note_off_c, 4, 70, 100
6, 58736, Note_off_c, 4, 74, 100
6, 58848, Note_on_c, 4, 65, 100
6, 58880, Note_off_c, 4, 65, 100
6, 58944, Note_on_c, 4, 67, 100
6, 58944, Note_on_c, 4, 74, 100
6, 58944, Note_on_c, 4, 70, 100
6, 58976, Note_off_c, 4, 70, 100
6, 58976, Note_off_c, 4, 74, 100
6, 58976, Note_off_c, 4, 67, 100
6, 59040, Note_on_c, 4, 65, 100
6, 59072, Note_off_c, 4, 65, 100
6, 59088, Note_on_c, 4, 74, 100
6, 59088, Note_on_c, 4, 70, 100
6, 59088, Note_on_c, 4, 67, 100
6, 59120, Note_off_c, 4, 67, 100
6, 59120, Note_off_c, 4, 70, 100
6, 59120, Note_off_c, 4, 74, 100
6, 59232, Note_on_c, 4, 65, 100
6, 59264, Note_off_c, 4, 65, 100
6, 59328, Note_on_c, 4, 67, 100
6, 59328, Note_on_c, 4, 74, 100
6, 59328, Note_on_c, 4, 70, 100
6, 59360, Note_off_c, 4, 70, 100
6, 59360, Note_off_c, 4, 74, 100
6, 59360, Note_off_c, 4, 67, 100
6, 59424, Note_on_c, 4, 65, 100
6, 59456, Note_off_c, 4, 65, 100
6, 59472, Note_on_c, 4, 74, 100
6, 59472, Note_on_c, 4, 70, 100
6, 59472, Note_on_c, 4, 67, 100
6, 59504, Note_off_c, 4, 67, 100
6, 59504, Note_off_c, 4, 70, 100
6, 59504, Note_off_c, 4, 74, 100
6, 59616, Note_on_c, 4, 65, 100
6, 59648, Note_off_c, 4, 65, 100
6, 59712, Note_on_c, 4, 67, 100
6, 59712, Note_on_c, 4, 74, 100
6, 59712, Note_on_c, 4, 70, 100
6, 59744, Note_off_c, 4, 70, 100
6, 59744, Note_off_c, 4, 74, 100
6, 59744, Note_off_c, 4, 67, 100
6, 59808, Note_on_c, 4, 65, 100
6, 59840, Note_off_c, 4, 65, 100
6, 59856, Note_on_c, 4, 74, 100
6, 59856, Note_on_c, 4, 70, 100
6, 59856, Note_on_c, 4, 67, 100
6, 59888, Note_off_c, 4, 67, 100
6, 59888, Note_off_c, 4, 70, 100
6, 59888, Note_off_c, 4, 74, 100
6, 60000, Note_on_c, 4, 65, 100
6, 60032, Note_off_c, 4, 65, 100
6, 60096, Note_on_c, 4, 67, 100
6, 60096, Note_on_c, 4, 74, 100
6, 60096, Note_on_c, 4, 70, 100
6, 60128, Note_off_c, 4, 70, 100
6, 60128, Note_off_c, 4, 74, 100
6, 60128, Note_off_c, 4, 67, 100
6, 60192, Note_on_c, 4, 65, 100
6, 60224, Note_off_c, 4, 65, 100
6, 60240, Note_on_c, 4, 74, 100
6, 60240, Note_on_c, 4, 70, 100
6, 60240, Note_on_c, 4, 67, 100
6, 60272, Note_off_c, 4, 67, 100
6, 60272, Note_off_c, 4, 70, 100
6, 60272, Note_off_c, 4, 74, 100
6, 60384, Note_on_c, 4, 65, 100
6, 60416, Note_off_c, 4, 65, 100
6, 60480, Note_on_c, 4, 67, 100
6, 60480, Note_on_c, 4, 74, 100
6, 60480, Note_on_c, 4, 70, 100
6, 60512, Note_off_c, 4, 70, 100
6, 60512, Note_off_c, 4, 74, 100
6, 60512, Note_off_c, 4, 67, 100
6, 60576, Note_on_c, 4, 65, 100
6, 60608, Note_off_c, 4, 65, 100
6, 60624, Note_on_c, 4, 74, 100
6, 60624, Note_on_c, 4, 70, 100
6, 60624, Note_on_c, 4, 67, 100
6, 60656, Note_off_c, 4, 67, 100
6, 60656, Note_off_c, 4, 70, 100
6, 60656, Note_off_c, 4, 74, 100
6, 60768, Note_on_c, 4, 65, 100
6, 60800, Note_off_c, 4, 65, 100
6, 60864, Note_on_c, 4, 67, 100
6, 60864, Note_on_c, 4, 74, 100
6, 60864, Note_on_c, 4, 70, 100
6, 60896, Note_off_c, 4, 70, 100
6, 60896, Note_off_c, 4, 74, 100
6, 60896, Note_off_c, 4, 67, 100
6, 60960, Note_on_c, 4, 65, 100
6, 60992, Note_off_c, 4, 65, 100
6, 61008, Note_on_c, 4, 74, 100
6, 61008, Note_on_c, 4, 70, 100
6, 61008, Note_on_c, 4, 67, 100
6, 61040, Note_off_c, 4, 67, 100
6, 61040, Note_off_c, 4, 70, 100
6, 61040, Note_off_c, 4, 74, 100
6, 61152, Note_on_c, 4, 65, 100
6, 61184, Note_off_c, 4, 65, 100
6, 61248, Note_on_c, 4, 67, 100
6, 61248, Note_on_c, 4, 74, 100
6, 61248, Note_on_c, 4, 70, 100
6, 61280, Note_off_c, 4, 70, 100
6, 61280, Note_off_c, 4, 74, 100
6, 61280, Note_off_c, 4, 67, 100
6, 61344, Note_on_c, 4, 65, 100
6, 61376, Note_off_c, 4, 65, 100
6, 61392, Note_on_c, 4, 74, 100
6, 61392, Note_on_c, 4, 70, 100
6, 61392, Note_on_c, 4, 67, 100
6, 61424, Note_off_c, 4, 67, 100
6, 61424, Note_off_c, 4, 70, 100
6, 61424, Note_off_c, 4, 74, 100
6, 61536, Note_on_c, 4, 65, 100
6, 61568, Note_off_c, 4, 65, 100
6, 61632, Note_on_c, 4, 67, 100
6, 61632, Note_on_c, 4, 74, 100
6, 61632, Note_on_c, 4, 70, 100
6, 61664, Note_off_c, 4, 70, 100
6, 61664, Note_off_c, 4, 74, 100
6, 61664, Note_off_c, 4, 67, 100
6, 61728, Note_on_c, 4, 65, 100
6, 61760, Note_off_c, 4, 65, 100
6, 61776, Note_on_c, 4, 74, 100
6, 61776, Note_on_c, 4, 70, 100
6, 61776, Note_on_c, 4, 67, 100
6, 61808, Note_off_c, 4, 67, 100
6, 61808, Note_off_c, 4, 70, 100
6, 61808, Note_off_c, 4, 74, 100
6, 61920, Note_on_c, 4, 65, 100
6, 61952, Note_off_c, 4, 65, 100
6, 62016, Note_on_c, 4, 67, 100
6, 62016, Note_on_c, 4, 74, 100
6, 62016, Note_on_c, 4, 70, 100
6, 62048, Note_off_c, 4, 70, 100
6, 62048, Note_off_c, 4, 74, 100
6, 62048, Note_off_c, 4, 67, 100
6, 62112, Note_on_c, 4, 65, 100
6, 62144, Note_off_c, 4, 65, 100
6, 62160, Note_on_c, 4, 74, 100
6, 62160, Note_on_c, 4, 70, 100
6, 62160, Note_on_c, 4, 67, 100
6, 62192, Note_off_c, 4, 67, 100
6, 62192, Note_off_c, 4, 70, 100
6, 62192, Note_off_c, 4, 74, 100
6, 62304, Note_on_c, 4, 65, 100
6, 62336, Note_off_c, 4, 65, 100
6, 62400, Note_on_c, 4, 67, 100
6, 62400, Note_on_c, 4, 74, 100
6, 62400, Note_on_c, 4, 70, 100
6, 62432, Note_off_c, 4, 70, 100
6, 62432, Note_off_c, 4, 74, 100
6, 62432, Note_off_c, 4, 67, 100
6, 62496, Note_on_c, 4, 65, 100
6, 62528, Note_off_c, 4, 65, 100
6, 62544, Note_on_c, 4, 74, 100
6, 62544, Note_on_c, 4, 70, 100
6, 62544, Note_on_c, 4, 67, 100
6, 62576, Note_off_c, 4, 67, 100
6, 62576, Note_off_c, 4, 70, 100
6, 62576, Note_off_c, 4, 74, 100
6, 62688, Note_on_c, 4, 65, 100
6, 62720, Note_off_c, 4, 65, 100
6, 62784, Note_on_c, 4, 67, 100
6, 62784, Note_on_c, 4, 74, 100
6, 62784, Note_on_c, 4, 70, 100
6, 62816, Note_off_c, 4, 70, 100
6, 62816, Note_off_c, 4, 74, 100
6, 62816, Note_off_c, 4, 67, 100
6, 62880, Note_on_c, 4, 65, 100
6, 62912, Note_off_c, 4, 65, 100
6, 62928, Note_on_c, 4, 74, 100
6, 62928, Note_on_c, 4, 70, 100
6, 62928, Note_on_c, 4, 67, 100
6, 62960, Note_off_c, 4, 67, 100
6, 62960, Note_off_c, 4, 70, 100
6, 62960, Note_off_c, 4, 74, 100
6, 63072, Note_on_c, 4, 65, 100
6, 63104, Note_off_c, 4, 65, 100
6, 63168, Note_on_c, 4, 67, 100
6, 63168, Note_on_c, 4, 74, 100
6, 63168, Note_on_c, 4, 70, 100
6, 63200, Note_off_c, 4, 70, 100
6, 63200, Note_off_c, 4, 74, 100
6, 63200, Note_off_c, 4, 67, 100
6, 63264, Note_on_c, 4, 65, 100
6, 63296, Note_off_c, 4, 65, 100
6, 63312, Note_on_c, 4, 74, 100
6, 63312, Note_on_c, 4, 70, 100
6, 63312, Note_on_c, 4, 67, 100
6, 63344, Note_off_c, 4, 67, 100
6, 63344, Note_off_c, 4, 70, 100
6, 63344, Note_off_c, 4, 74, 100
6, 63456, Note_on_c, 4, 65, 100
6, 63488, Note_off_c, 4, 65, 100
6, 63552, Note_on_c, 4, 67, 100
6, 63552, Note_on_c, 4, 74, 100
6, 63552, Note_on_c, 4, 70, 100
6, 63584, Note_off_c, 4, 70, 100
6, 63584, Note_off_c, 4, 74, 100
6, 63584, Note_off_c, 4, 67, 100
6, 63648, Note_on_c, 4, 65, 100
6, 63680, Note_off_c, 4, 65, 100
6, 63696, Note_on_c, 4, 74, 100
6, 63696, Note_on_c, 4, 70, 100
6, 63696, Note_on_c, 4, 67, 100
6, 63728, Note_off_c, 4, 67, 100
6, 63728, Note_off_c, 4, 70, 100
6, 63728, Note_off_c, 4, 74, 100
6, 63840, Note_on_c, 4, 65, 100
6, 63872, Note_off_c, 4, 65, 100
6, 63936, Note_on_c, 4, 67, 100
6, 63936, Note_on_c, 4, 74, 100
6, 63936, Note_on_c, 4, 70, 100
6, 63968, Note_off_c, 4, 70, 100
6, 63968, Note_off_c, 4, 74, 100
6, 63968, Note_off_c, 4, 67, 100
6, 64032, Note_on_c, 4, 65, 100
6, 64064, Note_off_c, 4, 65, 100
6, 64080, Note_on_c, 4, 74, 100
6, 64080, Note_on_c, 4, 70, 100
6, 64080, Note_on_c, 4, 67, 100
6, 64112, Note_off_c, 4, 67, 100
6, 64112, Note_off_c, 4, 70, 100
6, 64112, Note_off_c, 4, 74, 100
6, 64224, Note_on_c, 4, 65, 100
6, 64256, Note_off_c, 4, 65, 100
6, 64320, Note_on_c, 4, 67, 100
6, 64320, Note_on_c, 4, 74, 100
6, 64320, Note_on_c, 4, 70, 100
6, 64352, Note_off_c, 4, 70, 100
6, 64352, Note_off_c, 4, 74, 100
6, 64352, Note_off_c, 4, 67, 100
6, 64416, Note_on_c, 4, 65, 100
6, 64448, Note_off_c, 4, 65, 100
6, 64464, Note_on_c, 4, 74, 100
6, 64464, Note_on_c, 4, 70, 100
6, 64464, Note_on_c, 4, 67, 100
6, 64496, Note_off_c, 4, 67, 100
6, 64496, Note_off_c, 4, 70, 100
6, 64496, Note_off_c, 4, 74, 100
6, 64608, Note_on_c, 4, 65, 100
6, 64640, Note_off_c, 4, 65, 100
6, 64704, Note_on_c, 4, 67, 100
6, 64704, Note_on_c, 4, 74, 100
6, 64704, Note_on_c, 4, 70, 100
6, 64736, Note_off_c, 4, 70, 100
6, 64736, Note_off_c, 4, 74, 100
6, 64736, Note_off_c, 4, 67, 100
6, 64800, Note_on_c, 4, 65, 100
6, 64832, Note_off_c, 4, 65, 100
6, 64848, Note_on_c, 4, 74, 100
6, 64848, Note_on_c, 4, 70, 100
6, 64848, Note_on_c, 4, 67, 100
6, 64880, Note_off_c, 4, 67, 100
6, 64880, Note_off_c, 4, 70, 100
6, 64880, Note_off_c, 4, 74, 100
6, 64992, Note_on_c, 4, 65, 100
6, 65024, Note_off_c, 4, 65, 100
6, 65088, Note_on_c, 4, 67, 100
6, 65088, Note_on_c, 4, 74, 100
6, 65088, Note_on_c, 4, 70, 100
6, 65120, Note_off_c, 4, 70, 100
6, 65120, Note_off_c, 4, 74, 100
6, 65120, Note_off_c, 4, 67, 100
6, 65184, Note_on_c, 4, 65, 100
6, 65216, Note_off_c, 4, 65, 100
6, 65232, Note_on_c, 4, 74, 100
6, 65232, Note_on_c, 4, 70, 100
6, 65232, Note_on_c, 4, 67, 100
6, 65264, Note_off_c, 4, 67, 100
6, 65264, Note_off_c, 4, 70, 100
6, 65264, Note_off_c, 4, 74, 100
6, 65376, Note_on_c, 4, 65, 100
6, 65408, Note_off_c, 4, 65, 100
6, 65472, Note_on_c, 4, 67, 100
6, 65472, Note_on_c, 4, 74, 100
6, 65472, Note_on_c, 4, 70, 100
6, 65504, Note_off_c, 4, 70, 100
6, 65504, Note_off_c, 4, 74, 100
6, 65504, Note_off_c, 4, 67, 100
6, 65568, Note_on_c, 4, 65, 100
6, 65600, Note_off_c, 4, 65, 100
6, 65616, Note_on_c, 4, 74, 100
6, 65616, Note_on_c, 4, 70, 100
6, 65616, Note_on_c, 4, 67, 100
6, 65648, Note_off_c, 4, 67, 100
6, 65648, Note_off_c, 4, 70, 100
6, 65648, Note_off_c, 4, 74, 100
6, 65760, Note_on_c, 4, 65, 100
6, 65792, Note_off_c, 4, 65, 100
6, 65856, Note_on_c, 4, 67, 100
6, 65856, Note_on_c, 4, 74, 100
6, 65856, Note_on_c, 4, 70, 100
6, 65888, Note_off_c, 4, 70, 100
6, 65888, Note_off_c, 4, 74, 100
6, 65888, Note_off_c, 4, 67, 100
6, 65952, Note_on_c, 4, 65, 100
6, 65984, Note_off_c, 4, 65, 100
6, 66000, Note_on_c, 4, 74, 100
6, 66000, Note_on_c, 4, 70, 100
6, 66000, Note_on_c, 4, 67, 100
6, 66032, Note_off_c, 4, 67, 100
6, 66032, Note_off_c, 4, 70, 100
6, 66032, Note_off_c, 4, 74, 100
6, 66144, Note_on_c, 4, 65, 100
6, 66176, Note_off_c, 4, 65, 100
6, 66240, Note_on_c, 4, 67, 100
6, 66240, Note_on_c, 4, 74, 100
6, 66240, Note_on_c, 4, 70, 100
6, 66272, Note_off_c, 4, 70, 100
6, 66272, Note_off_c, 4, 74, 100
6, 66272, Note_off_c, 4, 67, 100
6, 66336, Note_on_c, 4, 65, 100
6, 66368, Note_off_c, 4, 65, 100
6, 66384, Note_on_c, 4, 74, 100
6, 66384, Note_on_c, 4, 70, 100
6, 66384, Note_on_c, 4, 67, 100
6, 66416, Note_off_c, 4, 67, 100
6, 66416, Note_off_c, 4, 70, 100
6, 66416, Note_off_c, 4, 74, 100
6, 66528, Note_on_c, 4, 65, 100
6, 66560, Note_off_c, 4, 65, 100
6, 66624, Note_on_c, 4, 67, 100
6, 66624, Note_on_c, 4, 74, 100
6, 66624, Note_on_c, 4, 70, 100
6, 66656, Note_off_c, 4, 70, 100
6, 66656, Note_off_c, 4, 74, 100
6, 66656, Note_off_c, 4, 67, 100
6, 66720, Note_on_c, 4, 65, 100
6, 66752, Note_off_c, 4, 65, 100
6, 66768, Note_on_c, 4, 74, 100
6, 66768, Note_on_c, 4, 70, 100
6, 66768, Note_on_c, 4, 67, 100
6, 66800, Note_off_c, 4, 67, 100
6, 66800, Note_off_c, 4, 70, 100
6, 66800, Note_off_c, 4, 74, 100
6, 66912, Note_on_c, 4, 65, 100
6, 66944, Note_off_c, 4, 65, 100
6, 67104, Note_on_c, 4, 65, 100
6, 67136, Note_off_c, 4, 65, 100
6, 67296, Note_on_c, 4, 65, 100
6, 67328, Note_off_c, 4, 65, 100
6, 67488, Note_on_c, 4, 65, 100
6, 67520, Note_off_c, 4, 65, 100
6, 86016, Note_on_c, 4, 60, 90
6, 86048, Note_off_c, 4, 60, 90
6, 86064, Note_on_c, 4, 62, 90
6, 86096, Note_off_c, 4, 62, 90
6, 86112, Note_on_c, 4, 58, 90
6, 86144, Note_off_c, 4, 58, 90
6, 86160, Note_on_c, 4, 53, 90
6, 86192, Note_off_c, 4, 53, 90
6, 86256, Note_on_c, 4, 60, 90
6, 86288, Note_off_c, 4, 60, 90
6, 86304, Note_on_c, 4, 62, 90
6, 86336, Note_off_c, 4, 62, 90
6, 86352, Note_on_c, 4, 58, 90
6, 86384, Note_off_c, 4, 58, 90
6, 86400, Note_on_c, 4, 53, 90
6, 86432, Note_off_c, 4, 53, 90
6, 86448, Note_on_c, 4, 55, 90
6, 86480, Note_off_c, 4, 55, 90
6, 86496, Note_on_c, 4, 60, 90
6, 86528, Note_off_c, 4, 60, 90
6, 86544, Note_on_c, 4, 62, 90
6, 86576, Note_off_c, 4, 62, 90
6, 86592, Note_on_c, 4, 58, 90
6, 86624, Note_off_c, 4, 58, 90
6, 86640, Note_on_c, 4, 53, 90
6, 86672, Note_off_c, 4, 53, 90
6, 86688, Note_on_c, 4, 55, 90
6, 86720, Note_off_c, 4, 55, 90
6, 86736, Note_on_c, 4, 60, 90
6, 86768, Note_off_c, 4, 60, 90
6, 86784, Note_on_c, 4, 62, 90
6, 86816, Note_off_c, 4, 62, 90
6, 86832, Note_on_c, 4, 58, 90
6, 86864, Note_off_c, 4, 58, 90
6, 86928, Note_on_c, 4, 55, 90
6, 86960, Note_off_c, 4, 55, 90
6, 87024, Note_on_c, 4, 62, 90
6, 87056, Note_off_c, 4, 62, 90
6, 87072, Note_on_c, 4, 58, 90
6, 87104, Note_off_c, 4, 58, 90
6, 87120, Note_on_c, 4, 53, 90
6, 87152, Note_off_c, 4, 53, 90
6, 87216, Note_on_c, 4, 60, 90
6, 87248, Note_off_c, 4, 60, 90
6, 87264, Note_on_c, 4, 62, 90
6, 87296, Note_off_c, 4, 62, 90
6, 87312, Note_on_c, 4, 58, 90
6, 87344, Note_off_c, 4, 58, 90
6, 87408, Note_on_c, 4, 55, 90
6, 87440, Note_off_c, 4, 55, 90
6, 87456, Note_on_c, 4, 60, 90
6, 87488, Note_off_c, 4, 60, 90
6, 87504, Note_on_c, 4, 62, 90
6, 87536, Note_off_c, 4, 62, 90
6, 87600, Note_on_c, 4, 53, 90
6, 87632, Note_off_c, 4, 53, 90
6, 87648, Note_on_c, 4, 55, 90
6, 87680, Note_off_c, 4, 55, 90
6, 87696, Note_on_c, 4, 60, 90
6, 87728, Note_off_c, 4, 60, 90
6, 87792, Note_on_c, 4, 58, 90
6, 87824, Note_off_c, 4, 58, 90
6, 87840, Note_on_c, 4, 53, 90
6, 87872, Note_off_c, 4, 53, 90
6, 87888, Note_on_c, 4, 55, 90
6, 87920, Note_off_c, 4, 55, 90
6, 87936, Note_on_c, 4, 60, 90
6, 87968, Note_off_c, 4, 60, 90
6, 87984, Note_on_c, 4, 62, 90
6, 88016, Note_off_c, 4, 62, 90
6, 88032, Note_on_c, 4, 58, 90
6, 88064, Note_off_c, 4, 58, 90
6, 88080, Note_on_c, 4, 53, 90
6, 88112, Note_off_c, 4, 53, 90
6, 88176, Note_on_c, 4, 60, 90
6, 88208, Note_off_c, 4, 60, 90
6, 88224, Note_on_c, 4, 62, 90
6, 88256, Note_off_c, 4, 62, 90
6, 88272, Note_on_c, 4, 58, 90
6, 88304, Note_off_c, 4, 58, 90
6, 88320, Note_on_c, 4, 53, 90
6, 88352, Note_off_c, 4, 53, 90
6, 88368, Note_on_c, 4, 55, 90
6, 88400, Note_off_c, 4, 55, 90
6, 88416, Note_on_c, 4, 60, 90
6, 88448, Note_off_c, 4, 60, 90
6, 88464, Note_on_c, 4, 62, 90
6, 88496, Note_off_c, 4, 62, 90
6, 88560, Note_on_c, 4, 53, 90
6, 88592, Note_off_c, 4, 53, 90
6, 88608, Note_on_c, 4, 55, 90
6, 88640, Note_off_c, 4, 55, 90
6, 88656, Note_on_c, 4, 60, 90
6, 88688, Note_off_c, 4, 60, 90
6, 88704, Note_on_c, 4, 62, 90
6, 88736, Note_off_c, 4, 62, 90
6, 88752, Note_on_c, 4, 58, 90
6, 88784, Note_off_c, 4, 58, 90
6, 88800, Note_on_c, 4, 53, 90
6, 88832, Note_off_c, 4, 53, 90
6, 88848, Note_on_c, 4, 55, 90
6, 88880, Note_off_c, 4, 55, 90
6, 89088, Note_on_c, 4, 60, 90
6, 89120, Note_off_c, 4, 60, 90
6, 89136, Note_on_c, 4, 62, 90
6, 89168, Note_off_c, 4, 62, 90
6, 89184, Note_on_c, 4, 58, 90
6, 89216, Note_off_c, 4, 58, 90
6, 89232, Note_on_c, 4, 53, 90
6, 89264, Note_off_c, 4, 53, 90
6, 89328, Note_on_c, 4, 60, 90
6, 89360, Note_off_c, 4, 60, 90
6, 89376, Note_on_c, 4, 62, 90
6, 89408, Note_off_c, 4, 62, 90
6, 89424, Note_on_c, 4, 58, 90
6, 89456, Note_off_c, 4, 58, 90
6, 89472, Note_on_c, 4, 53, 90
6, 89504, Note_off_c, 4, 53, 90
6, 89520, Note_on_c, 4, 55, 90
6, 89552, Note_off_c, 4, 55, 90
6, 89568, Note_on_c, 4, 60, 90
6, 89600, Note_off_c, 4, 60, 90
6, 89616, Note_on_c, 4, 62, 90
6, 89648, Note_off_c, 4, 62, 90
6, 89664, Note_on_c, 4, 58, 90
6, 89696, Note_off_c, 4, 58, 90
6, 89712, Note_on_c, 4, 53, 90
6, 89744, Note_off_c, 4, 53, 90
6, 89760, Note_on_c, 4, 55, 90
6, 89792, Note_off_c, 4, 55, 90
6, 89808, Note_on_c, 4, 60, 90
6, 89840, Note_off_c, 4, 60, 90
6, 89856, Note_on_c, 4, 62, 90
6, 89888, Note_off_c, 4, 62, 90
6, 89904, Note_on_c, 4, 58, 90
6, 89936, Note_off_c, 4, 58, 90
6, 90000, Note_on_c, 4, 55, 90
6, 90032, Note_off_c, 4, 55, 90
6, 90096, Note_on_c, 4, 62, 90
6, 90128, Note_off_c, 4, 62, 90
6, 90144, Note_on_c, 4, 58, 90
6, 90176, Note_off_c, 4, 58, 90
6, 90192, Note_on_c, 4, 53, 90
6, 90224, Note_off_c, 4, 53, 90
6, 90288, Note_on_c, 4, 60, 90
6, 90320, Note_off_c, 4, 60, 90
6, 90336, Note_on_c, 4, 62, 90
6, 90368, Note_off_c, 4, 62, 90
6, 90384, Note_on_c, 4, 58, 90
6, 90416, Note_off_c, 4, 58, 90
6, 90480, Note_on_c, 4, 55, 90
6, 90512, Note_off_c, 4, 55, 90
6, 90528, Note_on_c, 4, 60, 90
6, 90560, Note_off_c, 4, 60, 90
6, 90576, Note_on_c, 4, 62, 90
6, 90608, Note_off_c, 4, 62, 90
6, 90672, Note_on_c, 4, 53, 90
6, 90704, Note_off_c, 4, 53, 90
6, 90720, Note_on_c, 4, 55, 90
6, 90752, Note_off_c, 4, 55, 90
6, 90768, Note_on_c, 4, 60, 90
6, 90800, Note_off_c, 4, 60, 90
6, 90864, Note_on_c, 4, 58, 90
6, 90896, Note_off_c, 4, 58, 90
6, 90912, Note_on_c, 4, 53, 90
6, 90944, Note_off_c, 4, 53, 90
6, 90960, Note_on_c, 4, 55, 90
6, 90992, Note_off_c, 4, 55, 90
6, 91008, Note_on_c, 4, 60, 90
6, 91040, Note_off_c, 4, 60, 90
6, 91056, Note_on_c, 4, 62, 90
6, 91088, Note_off_c, 4, 62, 90
6, 91104, Note_on_c, 4, 58, 90
6, 91136, Note_off_c, 4, 58, 90
6, 91152, Note_on_c, 4, 53, 90
6, 91184, Note_off_c, 4, 53, 90
6, 91248, Note_on_c, 4, 60, 90
6, 91280, Note_off_c, 4, 60, 90
6, 91296, Note_on_c, 4, 62, 90
6, 91328, Note_off_c, 4, 62, 90
6, 91344, Note_on_c, 4, 58, 90
6, 91376, Note_off_c, 4, 58, 90
6, 91392, Note_on_c, 4, 53, 90
6, 91424, Note_off_c, 4, 53, 90
6, 91440, Note_on_c, 4, 55, 90
6, 91472, Note_off_c, 4, 55, 90
6, 91488, Note_on_c, 4, 60, 90
6, 91520, Note_off_c, 4, 60, 90
6, 91536, Note_on_c, 4, 62, 90
6, 91568, Note_off_c, 4, 62, 90
6, 91632, Note_on_c, 4, 53, 90
6, 91664, Note_off_c, 4, 53, 90
6, 91680, Note_on_c, 4, 55, 90
6, 91712, Note_off_c, 4, 55, 90
6, 91728, Note_on_c, 4, 60, 90
6, 91760, Note_off_c, 4, 60, 90
6, 91776, Note_on_c, 4, 62, 90
6, 91808, Note_off_c, 4, 62, 90
6, 91824, Note_on_c, 4, 58, 90
6, 91856, Note_off_c, 4, 58, 90
6, 91872, Note_on_c, 4, 53, 90
6, 91904, Note_off_c, 4, 53, 90
6, 91920, Note_on_c, 4, 55, 90
6, 91952, Note_off_c, 4, 55, 90
6, 91968, Note_on_c, 4, 60, 90
6, 92000, Note_off_c, 4, 60, 90
6, 92016, Note_on_c, 4, 62, 90
6, 92048, Note_off_c, 4, 62, 90
6, 92112, Note_on_c, 4, 53, 90
6, 92144, Note_off_c, 4, 53, 90
6, 92256, Note_on_c, 4, 65, 100
6, 92288, Note_off_c, 4, 65, 100
6, 92352, Note_on_c, 4, 67, 100
6, 92352, Note_on_c, 4, 74, 100
6, 92352, Note_on_c, 4, 70, 100
6, 92384, Note_off_c, 4, 70, 100
6, 92384, Note_off_c, 4, 74, 100
6, 92384, Note_off_c, 4, 67, 100
6, 92448, Note_on_c, 4, 65, 100
6, 92480, Note_off_c, 4, 65, 100
6, 92496, Note_on_c, 4, 74, 100
6, 92496, Note_on_c, 4, 70, 100
6, 92496, Note_on_c, 4, 67, 100
6, 92528, Note_off_c, 4, 67, 100
6, 92528, Note_off_c, 4, 70, 100
6, 92528, Note_off_c, 4, 74, 100
6, 92640, Note_on_c, 4, 65, 100
6, 92672, Note_off_c, 4, 65, 100
6, 92736, Note_on_c, 4, 67, 100
6, 92736, Note_on_c, 4, 74, 100
6, 92736, Note_on_c, 4, 70, 100
6, 92768, Note_off_c, 4, 70, 100
6, 92768, Note_off_c, 4, 74, 100
6, 92768, Note_off_c, 4, 67, 100
6, 92832, Note_on_c, 4, 65, 100
6, 92864, Note_off_c, 4, 65, 100
6, 92880, Note_on_c, 4, 74, 100
6, 92880, Note_on_c, 4, 70, 100
6, 92880, Note_on_c, 4, 67, 100
6, 92912, Note_off_c, 4, 67, 100
6, 92912, Note_off_c, 4, 70, 100
6, 92912, Note_off_c, 4, 74, 100
6, 93024, Note_on_c, 4, 65, 100
6, 93056, Note_off_c, 4, 65, 100
6, 93120, Note_on_c, 4, 67, 100
6, 93120, Note_on_c, 4, 74, 100
6, 93120, Note_on_c, 4, 70, 100
6, 93152, Note_off_c, 4, 70, 100
6, 93152, Note_off_c, 4, 74, 100
6, 93152, Note_off_c, 4, 67, 100
6, 93216, Note_on_c, 4, 65, 100
6, 93248, Note_off_c, 4, 65, 100
6, 93264, Note_on_c, 4, 74, 100
6, 93264, Note_on_c, 4, 70, 100
6, 93264, Note_on_c, 4, 67, 100
6, 93296, Note_off_c, 4, 67, 100
6, 93296, Note_off_c, 4, 70, 100
6, 93296, Note_off_c, 4, 74, 100
6, 93408, Note_on_c, 4, 65, 100
6, 93440, Note_off_c, 4, 65, 100
6, 93504, Note_on_c, 4, 67, 100
6, 93504, Note_on_c, 4, 74, 100
6, 93504, Note_on_c, 4, 70, 100
6, 93536, Note_off_c, 4, 70, 100
6, 93536, Note_off_c, 4, 74, 100
6, 93536, Note_off_c, 4, 67, 100
6, 93600, Note_on_c, 4, 65, 100
6, 93632, Note_off_c, 4, 65, 100
6, 93648, Note_on_c, 4, 74, 100
6, 93648, Note_on_c, 4, 70, 100
6, 93648, Note_on_c, 4, 67, 100
6, 93680, Note_off_c, 4, 67, 100
6, 93680, Note_off_c, 4, 70, 100
6, 93680, Note_off_c, 4, 74, 100
6, 93792, Note_on_c, 4, 65, 100
6, 93824, Note_off_c, 4, 65, 100
6, 93888, Note_on_c, 4, 67, 100
6, 93888, Note_on_c, 4, 74, 100
6, 93888, Note_on_c, 4, 70, 100
6, 93920, Note_off_c, 4, 70, 100
6, 93920, Note_off_c, 4, 74, 100
6, 93920, Note_off_c, 4, 67, 100
6, 93984, Note_on_c, 4, 65, 100
6, 94016, Note_off_c, 4, 65, 100
6, 94032, Note_on_c, 4, 74, 100
6, 94032, Note_on_c, 4, 70, 100
6, 94032, Note_on_c, 4, 67, 100
6, 94064, Note_off_c, 4, 67, 100
6, 94064, Note_off_c, 4, 70, 100
6, 94064, Note_off_c, 4, 74, 100
6, 94176, Note_on_c, 4, 65, 100
6, 94208, Note_off_c, 4, 65, 100
6, 94272, Note_on_c, 4, 67, 100
6, 94272, Note_on_c, 4, 74, 100
6, 94272, Note_on_c, 4, 70, 100
6, 94304, Note_off_c, 4, 70, 100
6, 94304, Note_off_c, 4, 74, 100
6, 94304, Note_off_c, 4, 67, 100
6, 94368, Note_on_c, 4, 65, 100
6, 94400, Note_off_c, 4, 65, 100
6, 94416, Note_on_c, 4, 74, 100
6, 94416, Note_on_c, 4, 70, 100
6, 94416, Note_on_c, 4, 67, 100
6, 94448, Note_off_c, 4, 67, 100
6, 94448, Note_off_c, 4, 70, 100
6, 94448, Note_off_c, 4, 74, 100
6, 94560, Note_on_c, 4, 65, 100
6, 94592, Note_off_c, 4, 65, 100
6, 94656, Note_on_c, 4, 67, 100
6, 94656, Note_on_c, 4, 74, 100
6, 94656, Note_on_c, 4, 70, 100
6, 94688, Note_off_c, 4, 70, 100
6, 94688, Note_off_c, 4, 74, 100
6, 94688, Note_off_c, 4, 67, 100
6, 94752, Note_on_c, 4, 65, 100
6, 94784, Note_off_c, 4, 65, 100
6, 94800, Note_on_c, 4, 74, 100
6, 94800, Note_on_c, 4, 70, 100
6, 94800, Note_on_c, 4, 67, 100
6, 94832, Note_off_c, 4, 67, 100
6, 94832, Note_off_c, 4, 70, 100
6, 94832, Note_off_c, 4, 74, 100
6, 94944, Note_on_c, 4, 65, 100
6, 94976, Note_off_c, 4, 65, 100
6, 95040, Note_on_c, 4, 67, 100
6, 95040, Note_on_c, 4, 74, 100
6, 95040, Note_on_c, 4, 70, 100
6, 95072, Note_off_c, 4, 70, 100
6, 95072, Note_off_c, 4, 74, 100
6, 95072, Note_off_c, 4, 67, 100
6, 95136, Note_on_c, 4, 65, 100
6, 95168, Note_off_c, 4, 65, 100
6, 95184, Note_on_c, 4, 74, 100
6, 95184, Note_on_c, 4, 70, 100
6, 95184, Note_on_c, 4, 67, 100
6, 95216, Note_off_c, 4, 67, 100
6, 95216, Note_off_c, 4, 70, 100
6, 95216, Note_off_c, 4, 74, 100
6, 95328, Note_on_c, 4, 65, 100
6, 95360, Note_off_c, 4, 65, 100
6, 95424, Note_on_c, 4, 67, 100
6, 95424, Note_on_c, 4, 74, 100
6, 95424, Note_on_c, 4, 70, 100
6, 95456, Note_off_c, 4, 70, 100
6, 95456, Note_off_c, 4, 74, 100
6, 95456, Note_off_c, 4, 67, 100
6, 95520, Note_on_c, 4, 65, 100
6, 95552, Note_off_c, 4, 65, 100
6, 95568, Note_on_c, 4, 74, 100
6, 95568, Note_on_c, 4, 70, 100
6, 95568, Note_on_c, 4, 67, 100
6, 95600, Note_off_c, 4, 67, 100
6, 95600, Note_off_c, 4, 70, 100
6, 95600, Note_off_c, 4, 74, 100
6, 95712, Note_on_c, 4, 65, 100
6, 95744, Note_off_c, 4, 65, 100
6, 95808, Note_on_c, 4, 67, 100
6, 95808, Note_on_c, 4, 74, 100
6, 95808, Note_on_c, 4, 70, 100
6, 95840, Note_off_c, 4, 70, 100
6, 95840, Note_off_c, 4, 74, 100
6, 95840, Note_off_c, 4, 67, 100
6, 95904, Note_on_c, 4, 65, 100
6, 95936, Note_off_c, 4, 65, 100
6, 95952, Note_on_c, 4, 74, 100
6, 95952, Note_on_c, 4, 70, 100
6, 95952, Note_on_c, 4, 67, 100
6, 95984, Note_off_c, 4, 67, 100
6, 95984, Note_off_c, 4, 70, 100
6, 95984, Note_off_c, 4, 74, 100
6, 96096, Note_on_c, 4, 65, 100
6, 96128, Note_off_c, 4, 65, 100
6, 96192, Note_on_c, 4, 67, 100
6, 96192, Note_on_c, 4, 74, 100
6, 96192, Note_on_c, 4, 70, 100
6, 96224, Note_off_c, 4, 70, 100
6, 96224, Note_off_c, 4, 74, 100
6, 96224, Note_off_c, 4, 67, 100
6, 96288, Note_on_c, 4, 65, 100
6, 96320, Note_off_c, 4, 65, 100
6, 96336, Note_on_c, 4, 74, 100
6, 96336, Note_on_c, 4, 70, 100
6, 96336, Note_on_c, 4, 67, 100
6, 96368, Note_off_c, 4, 67, 100
6, 96368, Note_off_c, 4, 70, 100
6, 96368, Note_off_c, 4, 74, 100
6, 96480, Note_on_c, 4, 65, 100
6, 96512, Note_off_c, 4, 65, 100
6, 96576, Note_on_c, 4, 67, 100
6, 96576, Note_on_c, 4, 74, 100
6, 96576, Note_on_c, 4, 70, 100
6, 96608, Note_off_c, 4, 70, 100
6, 96608, Note_off_c, 4, 74, 100
6, 96608, Note_off_c, 4, 67, 100
6, 96672, Note_on_c, 4, 65, 100
6, 96704, Note_off_c, 4, 65, 100
6, 96720, Note_on_c, 4, 74, 100
6, 96720, Note_on_c, 4, 70, 100
6, 96720, Note_on_c, 4, 67, 100
6, 96752, Note_off_c, 4, 67, 100
6, 96752, Note_off_c, 4, 70, 100
6, 96752, Note_off_c, 4, 74, 100
6, 96864, Note_on_c, 4, 65, 100
6, 96896, Note_off_c, 4, 65, 100
6, 96960, Note_on_c, 4, 67, 100
6, 96960, Note_on_c, 4, 74, 100
6, 96960, Note_on_c, 4, 70, 100
6, 96992, Note_off_c, 4, 70, 100
6, 96992, Note_off_c, 4, 74, 100
6, 96992, Note_off_c, 4, 67, 100
6, 97056, Note_on_c, 4, 65, 100
6, 97088, Note_off_c, 4, 65, 100
6, 97104, Note_on_c, 4, 74, 100
6, 97104, Note_on_c, 4, 70, 100
6, 97104, Note_on_c, 4, 67, 100
6, 97136, Note_off_c, 4, 67, 100
6, 97136, Note_off_c, 4, 70, 100
6, 97136, Note_off_c, 4, 74, 100
6, 97248, Note_on_c, 4, 65, 100
6, 97280, Note_off_c, 4, 65, 100
6, 97344, Note_on_c, 4, 67, 100
6, 97344, Note_on_c, 4, 74, 100
6, 97344, Note_on_c, 4, 70, 100
6, 97376, Note_off_c, 4, 70, 100
6, 97376, Note_off_c, 4, 74, 100
6, 97376, Note_off_c, 4, 67, 100
6, 97440, Note_on_c, 4, 65, 100
6, 97472, Note_off_c, 4, 65, 100
6, 97488, Note_on_c, 4, 74, 100
6, 97488, Note_on_c, 4, 70, 100
6, 97488, Note_on_c, 4, 67, 100
6, 97520, Note_off_c, 4, 67, 100
6, 97520, Note_off_c, 4, 70, 100
6, 97520, Note_off_c, 4, 74, 100
6, 97632, Note_on_c, 4, 65, 100
6, 97664, Note_off_c, 4, 65, 100
6, 97728, Note_on_c, 4, 67, 100
6, 97728, Note_on_c, 4, 74, 100
6, 97728, Note_on_c, 4, 70, 100
6, 97760, Note_off_c, 4, 70, 100
6, 97760, Note_off_c, 4, 74, 100
6, 97760, Note_off_c, 4, 67, 100
6, 97824, Note_on_c, 4, 65, 100
6, 97856, Note_off_c, 4, 65, 100
6, 97872, Note_on_c, 4, 74, 100
6, 97872, Note_on_c, 4, 70, 100
6, 97872, Note_on_c, 4, 67, 100
6, 97904, Note_off_c, 4, 67, 100
6, 97904, Note_off_c, 4, 70, 100
6, 97904, Note_off_c, 4, 74, 100
6, 98016, Note_on_c, 4, 65, 100
6, 98048, Note_off_c, 4, 65, 100
6, 98112, Note_on_c, 4, 67, 100
6, 98112, Note_on_c, 4, 74, 100
6, 98112, Note_on_c, 4, 70, 100
6, 98144, Note_off_c, 4, 70, 100
6, 98144, Note_off_c, 4, 74, 100
6, 98144, Note_off_c, 4, 67, 100
6, 98208, Note_on_c, 4, 65, 100
6, 98240, Note_off_c, 4, 65, 100
6, 98256, Note_on_c, 4, 74, 100
6, 98256, Note_on_c, 4, 70, 100
6, 98256, Note_on_c, 4, 67, 100
6, 98288, Note_off_c, 4, 67, 100
6, 98288, Note_off_c, 4, 70, 100
6, 98288, Note_off_c, 4, 74, 100
6, 98400, Note_on_c, 4, 65, 100
6, 98432, Note_off_c, 4, 65, 100
6, 98496, Note_on_c, 4, 67, 100
6, 98496, Note_on_c, 4, 74, 100
6, 98496, Note_on_c, 4, 70, 100
6, 98528, Note_off_c, 4, 70, 100
6, 98528, Note_off_c, 4, 74, 100
6, 98528, Note_off_c, 4, 67, 100
6, 98592, Note_on_c, 4, 65, 100
6, 98624, Note_off_c, 4, 65, 100
6, 98640, Note_on_c, 4, 74, 100
6, 98640, Note_on_c, 4, 70, 100
6, 98640, Note_on_c, 4, 67, 100
6, 98672, Note_off_c, 4, 67, 100
6, 98672, Note_off_c, 4, 70, 100
6, 98672, Note_off_c, 4, 74, 100
6, 98784, Note_on_c, 4, 65, 100
6, 98816, Note_off_c, 4, 65, 100
6, 98880, Note_on_c, 4, 67, 100
6, 98880, Note_on_c, 4, 74, 100
6, 98880, Note_on_c, 4, 70, 100
6, 98912, Note_off_c, 4, 70, 100
6, 98912, Note_off_c, 4, 74, 100
6, 98912, Note_off_c, 4, 67, 100
6, 98976, Note_on_c, 4, 65, 100
6, 99008, Note_off_c, 4, 65, 100
6, 99024, Note_on_c, 4, 74, 100
6, 99024, Note_on_c, 4, 70, 100
6, 99024, Note_on_c, 4, 67, 100
6, 99056, Note_off_c, 4, 67, 100
6, 99056, Note_off_c, 4, 70, 100
6, 99056, Note_off_c, 4, 74, 100
6, 99168, Note_on_c, 4, 65, 100
6, 99200, Note_off_c, 4, 65, 100
6, 99264, Note_on_c, 4, 67, 100
6, 99264, Note_on_c, 4, 74, 100
6, 99264, Note_on_c, 4, 70, 100
6, 99296, Note_off_c, 4, 70, 100
6, 99296, Note_off_c, 4, 74, 100
6, 99296, Note_off_c, 4, 67, 100
6, 99360, Note_on_c, 4, 65, 100
6, 99392, Note_off_c, 4, 65, 100
6, 99408, Note_on_c, 4, 74, 100
6, 99408, Note_on_c, 4, 70, 100
6, 99408, Note_on_c, 4, 67, 100
6, 99440, Note_off_c, 4, 67, 100
6, 99440, Note_off_c, 4, 70, 100
6, 99440, Note_off_c, 4, 74, 100
6, 99552, Note_on_c, 4, 65, 100
6, 99584, Note_off_c, 4, 65, 100
6, 99648, Note_on_c, 4, 67, 100
6, 99648, Note_on_c, 4, 74, 100
6, 99648, Note_on_c, 4, 70, 100
6, 99680, Note_off_c, 4, 70, 100
6, 99680, Note_off_c, 4, 74, 100
6, 99680, Note_off_c, 4, 67, 100
6, 99744, Note_on_c, 4, 65, 100
6, 99776, Note_off_c, 4, 65, 100
6, 99792, Note_on_c, 4, 74, 100
6, 99792, Note_on_c, 4, 70, 100
6, 99792, Note_on_c, 4, 67, 100
6, 99824, Note_off_c, 4, 67, 100
6, 99824, Note_off_c, 4, 70, 100
6, 99824, Note_off_c, 4, 74, 100
6, 99936, Note_on_c, 4, 65, 100
6, 99968, Note_off_c, 4, 65, 100
6, 100032, Note_on_c, 4, 67, 100
6, 100032, Note_on_c, 4, 74, 100
6, 100032, Note_on_c, 4, 70, 100
6, 100064, Note_off_c, 4, 70, 100
6, 100064, Note_off_c, 4, 74, 100
6, 100064, Note_off_c, 4, 67, 100
6, 100128, Note_on_c, 4, 65, 100
6, 100160, Note_off_c, 4, 65, 100
6, 100176, Note_on_c, 4, 74, 100
6, 100176, Note_on_c, 4, 70, 100
6, 100176, Note_on_c, 4, 67, 100
6, 100208, Note_off_c, 4, 67, 100
6, 100208, Note_off_c, 4, 70, 100
6, 100208, Note_off_c, 4, 74, 100
6, 100320, Note_on_c, 4, 65, 100
6, 100352, Note_off_c, 4, 65, 100
6, 100416, Note_on_c, 4, 67, 100
6, 100416, Note_on_c, 4, 74, 100
6, 100416, Note_on_c, 4, 70, 100
6, 100448, Note_off_c, 4, 70, 100
6, 100448, Note_off_c, 4, 74, 100
6, 100448, Note_off_c, 4, 67, 100
6, 100512, Note_on_c, 4, 65, 100
6, 100544, Note_off_c, 4, 65, 100
6, 100560, Note_on_c, 4, 74, 100
6, 100560, Note_on_c, 4, 70, 100
6, 100560, Note_on_c, 4, 67, 100
6, 100592, Note_off_c, 4, 67, 100
6, 100592, Note_off_c, 4, 70, 100
6, 100592, Note_off_c, 4, 74, 100
6, 100704, Note_on_c, 4, 65, 100
6, 100736, Note_off_c, 4, 65, 100
6, 100800, Note_on_c, 4, 67, 100
6, 100800, Note_on_c, 4, 74, 100
6, 100800, Note_on_c, 4, 70, 100
6, 100832, Note_off_c, 4, 70, 100
6, 100832, Note_off_c, 4, 74, 100
6, 100832, Note_off_c, 4, 67, 100
6, 100896, Note_on_c, 4, 65, 100
6, 100928, Note_off_c, 4, 65, 100
6, 100944, Note_on_c, 4, 74, 100
6, 100944, Note_on_c, 4, 70, 100
6, 100944, Note_on_c, 4, 67, 100
6, 100976, Note_off_c, 4, 67, 100
6, 100976, Note_off_c, 4, 70, 100
6, 100976, Note_off_c, 4, 74, 100
6, 101088, Note_on_c, 4, 65, 100
6, 101120, Note_off_c, 4, 65, 100
6, 101184, Note_on_c, 4, 67, 100
6, 101184, Note_on_c, 4, 74, 100
6, 101184, Note_on_c, 4, 70, 100
6, 101216, Note_off_c, 4, 70, 100
6, 101216, Note_off_c, 4, 74, 100
6, 101216, Note_off_c, 4, 67, 100
6, 101280, Note_on_c, 4, 65, 100
6, 101312, Note_off_c, 4, 65, 100
6, 101328, Note_on_c, 4, 74, 100
6, 101328, Note_on_c, 4, 70, 100
6, 101328, Note_on_c, 4, 67, 100
6, 101360, Note_off_c, 4, 67, 100
6, 101360, Note_off_c, 4, 70, 100
6, 101360, Note_off_c, 4, 74, 100
6, 101472, Note_on_c, 4, 65, 100
6, 101504, Note_off_c, 4, 65, 100
6, 101568, Note_on_c, 4, 67, 100
6, 101568, Note_on_c, 4, 74, 100
6, 101568, Note_on_c, 4, 70, 100
6, 101600, Note_off_c, 4, 70, 100
6, 101600, Note_off_c, 4, 74, 100
6, 101600, Note_off_c, 4, 67, 100
6, 101664, Note_on_c, 4, 65, 100
6, 101696, Note_off_c, 4, 65, 100
6, 101712, Note_on_c, 4, 74, 100
6, 101712, Note_on_c, 4, 70, 100
6, 101712, Note_on_c, 4, 67, 100
6, 101744, Note_off_c, 4, 67, 100
6, 101744, Note_off_c, 4, 70, 100
6, 101744, Note_off_c, 4, 74, 100
6, 101856, Note_on_c, 4, 65, 100
6, 101888, Note_off_c, 4, 65, 100
6, 101952, Note_on_c, 4, 67, 100
6, 101952, Note_on_c, 4, 74, 100
6, 101952, Note_on_c, 4, 70, 100
6, 101984, Note_off_c, 4, 70, 100
6, 101984, Note_off_c, 4, 74, 100
6, 101984, Note_off_c, 4, 67, 100
6, 102048, Note_on_c, 4, 65, 100
6, 102080, Note_off_c, 4, 65, 100
6, 102096, Note_on_c, 4, 74, 100
6, 102096, Note_on_c, 4, 70, 100
6, 102096, Note_on_c, 4, 67, 100
6, 102128, Note_off_c, 4, 67, 100
6, 102128, Note_off_c, 4, 70, 100
6, 102128, Note_off_c, 4, 74, 100
6, 102240, Note_on_c, 4, 65, 100
6, 102272, Note_off_c, 4, 65, 100
6, 102336, Note_on_c, 4, 67, 100
6, 102336, Note_on_c, 4, 74, 100
6, 102336, Note_on_c, 4, 70, 100
6, 102368, Note_off_c, 4, 70, 100
6, 102368, Note_off_c, 4, 74, 100
6, 102368, Note_off_c, 4, 67, 100
6, 102432, Note_on_c, 4, 65, 100
6, 102464, Note_off_c, 4, 65, 100
6, 102480, Note_on_c, 4, 74, 100
6, 102480, Note_on_c, 4, 70, 100
6, 102480, Note_on_c, 4, 67, 100
6, 102512, Note_off_c, 4, 67, 100
6, 102512, Note_off_c, 4, 70, 100
6, 102512, Note_off_c, 4, 74, 100
6, 102624, Note_on_c, 4, 65, 100
6, 102656, Note_off_c, 4, 65, 100
6, 102720, Note_on_c, 4, 67, 100
6, 102720, Note_on_c, 4, 74, 100
6, 102720, Note_on_c, 4, 70, 100
6, 102752, Note_off_c, 4, 70, 100
6, 102752, Note_off_c, 4, 74, 100
6, 102752, Note_off_c, 4, 67, 100
6, 102816, Note_on_c, 4, 65, 100
6, 102848, Note_off_c, 4, 65, 100
6, 102864, Note_on_c, 4, 74, 100
6, 102864, Note_on_c, 4, 70, 100
6, 102864, Note_on_c, 4, 67, 100
6, 102896, Note_off_c, 4, 67, 100
6, 102896, Note_off_c, 4, 70, 100
6, 102896, Note_off_c, 4, 74, 100
6, 103008, Note_on_c, 4, 65, 100
6, 103040, Note_off_c, 4, 65, 100
6, 103104, Note_on_c, 4, 67, 100
6, 103104, Note_on_c, 4, 74, 100
6, 103104, Note_on_c, 4, 70, 100
6, 103136, Note_off_c, 4, 70, 100
6, 103136, Note_off_c, 4, 74, 100
6, 103136, Note_off_c, 4, 67, 100
6, 103200, Note_on_c, 4, 65, 100
6, 103232, Note_off_c, 4, 65, 100
6, 103248, Note_on_c, 4, 74, 100
6, 103248, Note_on_c, 4, 70, 100
6, 103248, Note_on_c, 4, 67, 100
6, 103280, Note_off_c, 4, 67, 100
6, 103280, Note_off_c, 4, 70, 100
6, 103280, Note_off_c, 4, 74, 100
6, 103392, Note_on_c, 4, 65, 100
6, 103424, Note_off_c, 4, 65, 100
6, 103488, Note_on_c, 4, 67, 100
6, 103488, Note_on_c, 4, 74, 100
6, 103488, Note_on_c, 4, 70, 100
6, 103520, Note_off_c, 4, 70, 100
6, 103520, Note_off_c, 4, 74, 100
6, 103520, Note_off_c, 4, 67, 100
6, 103584, Note_on_c, 4, 65, 100
6, 103616, Note_off_c, 4, 65, 100
6, 103632, Note_on_c, 4, 74, 100
6, 103632, Note_on_c, 4, 70, 100
6, 103632, Note_on_c, 4, 67, 100
6, 103664, Note_off_c, 4, 67, 100
6, 103664, Note_off_c, 4, 70, 100
6, 103664, Note_off_c, 4, 74, 100
6, 103776, Note_on_c, 4, 65, 100
6, 103808, Note_off_c, 4, 65, 100
6, 103872, Note_on_c, 4, 77, 100
6, 103872, Note_on_c, 4, 72, 100
6, 103872, Note_on_c, 4, 69, 100
6, 103904, Note_off_c, 4, 69, 100
6, 103904, Note_off_c, 4, 72, 100
6, 103904, Note_off_c, 4, 77, 100
6, 103968, Note_on_c, 4, 65, 100
6, 104000, Note_off_c, 4, 65, 100
6, 104016, Note_on_c, 4, 72, 100
6, 104016, Note_on_c, 4, 69, 100
6, 104016, Note_on_c, 4, 77, 100
6, 104048, Note_off_c, 4, 77, 100
6, 104048, Note_off_c, 4, 69, 100
6, 104048, Note_off_c, 4, 72, 100
6, 104160, Note_on_c, 4, 65, 100
6, 104192, Note_off_c, 4, 65, 100
6, 104256, Note_on_c, 4, 77, 100
6, 104256, Note_on_c, 4, 72, 100
6, 104256, Note_on_c, 4, 69, 100
6, 104288, Note_off_c, 4, 69, 100
6, 104288, Note_off_c, 4, 72, 100
6, 104288, Note_off_c, 4, 77, 100
6, 104352, Note_on_c, 4, 65, 100
6, 104384, Note_off_c, 4, 65, 100
6, 104400, Note_on_c, 4, 72, 100
6, 104400, Note_on_c, 4, 69, 100
6, 104400, Note_on_c, 4, 77, 100
6, 104432, Note_off_c, 4, 77, 100
6, 104432, Note_off_c, 4, 69, 100
6, 104432, Note_off_c, 4, 72, 100
6, 104544, Note_on_c, 4, 65, 100
6, 104576, Note_off_c, 4, 65, 100
6, 104640, Note_on_c, 4, 67, 100
6, 104640, Note_on_c, 4, 74, 100
6, 104640, Note_on_c, 4, 70, 100
6, 104672, Note_off_c, 4, 70, 100
6, 104672, Note_off_c, 4, 74, 100
6, 104672, Note_off_c, 4, 67, 100
6, 104736, Note_on_c, 4, 65, 100
6, 104768, Note_off_c, 4, 65, 100
6, 104784, Note_on_c, 4, 74, 100
6, 104784, Note_on_c, 4, 70, 100
6, 104784, Note_on_c, 4, 67, 100
6, 104816, Note_off_c, 4, 67, 100
6, 104816, Note_off_c, 4, 70, 100
6, 104816, Note_off_c, 4, 74, 100
6, 104928, Note_on_c, 4, 65, 100
6, 104960, Note_off_c, 4, 65, 100
6, 105024, Note_on_c, 4, 67, 100
6, 105024, Note_on_c, 4, 74, 100
6, 105024, Note_on_c, 4, 70, 100
6, 105056, Note_off_c, 4, 70, 100
6, 105056, Note_off_c, 4, 74, 100
6, 105056, Note_off_c, 4, 67, 100
6, 105120, Note_on_c, 4, 65, 100
6, 105152, Note_off_c, 4, 65, 100
6, 105168, Note_on_c, 4, 74, 100
6, 105168, Note_on_c, 4, 70, 100
6, 105168, Note_on_c, 4, 67, 100
6, 105200, Note_off_c, 4, 67, 100
6, 105200, Note_off_c, 4, 70, 100
6, 105200, Note_off_c, 4, 74, 100
6, 105312, Note_on_c, 4, 65, 100
6, 105344, Note_off_c, 4, 65, 100
6, 105408, Note_on_c, 4, 67, 100
6, 105408, Note_on_c, 4, 74, 100
6, 105408, Note_on_c, 4, 70, 100
6, 105440, Note_off_c, 4, 70, 100
6, 105440, Note_off_c, 4, 74, 100
6, 105440, Note_off_c, 4, 67, 100
6, 105504, Note_on_c, 4, 65, 100
6, 105536, Note_off_c, 4, 65, 100
6, 105552, Note_on_c, 4, 74, 100
6, 105552, Note_on_c, 4, 70, 100
6, 105552, Note_on_c, 4, 67, 100
6, 105584, Note_off_c, 4, 67, 100
6, 105584, Note_off_c, 4, 70, 100
6, 105584, Note_off_c, 4, 74, 100
6, 105696, Note_on_c, 4, 65, 100
6, 105728, Note_off_c, 4, 65, 100
6, 105792, Note_on_c, 4, 67, 100
6, 105792, Note_on_c, 4, 74, 100
6, 105792, Note_on_c, 4, 70, 100
6, 105824, Note_off_c, 4, 70, 100
6, 105824, Note_off_c, 4, 74, 100
6, 105824, Note_off_c, 4, 67, 100
6, 105888, Note_on_c, 4, 65, 100
6, 105920, Note_off_c, 4, 65, 100
6, 105936, Note_on_c, 4, 74, 100
6, 105936, Note_on_c, 4, 70, 100
6, 105936, Note_on_c, 4, 67, 100
6, 105968, Note_off_c, 4, 67, 100
6, 105968, Note_off_c, 4, 70, 100
6, 105968, Note_off_c, 4, 74, 100
6, 106080, Note_on_c, 4, 65, 100
6, 106112, Note_off_c, 4, 65, 100
6, 106176, Note_on_c, 4, 67, 100
6, 106176, Note_on_c, 4, 74, 100
6, 106176, Note_on_c, 4, 70, 100
6, 106208, Note_off_c, 4, 70, 100
6, 106208, Note_off_c, 4, 74, 100
6, 106208, Note_off_c, 4, 67, 100
6, 106272, Note_on_c, 4, 65, 100
6, 106304, Note_off_c, 4, 65, 100
6, 106320, Note_on_c, 4, 74, 100
6, 106320, Note_on_c, 4, 70, 100
6, 106320, Note_on_c, 4, 67, 100
6, 106352, Note_off_c, 4, 67, 100
6, 106352, Note_off_c, 4, 70, 100
6, 106352, Note_off_c, 4, 74, 100
6, 106464, Note_on_c, 4, 65, 100
6, 106496, Note_off_c, 4, 65, 100
6, 106560, Note_on_c, 4, 67, 100
6, 106560, Note_on_c, 4, 74, 100
6, 106560, Note_on_c, 4, 70, 100
6, 106592, Note_off_c, 4, 70, 100
6, 106592, Note_off_c, 4, 74, 100
6, 106592, Note_off_c, 4, 67, 100
6, 106656, Note_on_c, 4, 65, 100
6, 106688, Note_off_c, 4, 65, 100
6, 106704, Note_on_c, 4, 74, 100
6, 106704, Note_on_c, 4, 70, 100
6, 106704, Note_on_c, 4, 67, 100
6, 106736, Note_off_c, 4, 67, 100
6, 106736, Note_off_c, 4, 70, 100
6, 106736, Note_off_c, 4, 74, 100
6, 106848, Note_on_c, 4, 65, 100
6, 106880, Note_off_c, 4, 65, 100
6, 106944, Note_on_c, 4, 67, 100
6, 106944, Note_on_c, 4, 74, 100
6, 106944, Note_on_c, 4, 70, 100
6, 106976, Note_off_c, 4, 70, 100
6, 106976, Note_off_c, 4, 74, 100
6, 106976, Note_off_c, 4, 67, 100
6, 107040, Note_on_c, 4, 65, 100
6, 107072, Note_off_c, 4, 65, 100
6, 107088, Note_on_c, 4, 74, 100
6, 107088, Note_on_c, 4, 70, 100
6, 107088, Note_on_c, 4, 67, 100
6, 107120, Note_off_c, 4, 67, 100
6, 107120, Note_off_c, 4, 70, 100
6, 107120, Note_off_c, 4, 74, 100
6, 107232, Note_on_c, 4, 65, 100
6, 107264, Note_off_c, 4, 65, 100
6, 107328, Note_on_c, 4, 67, 100
6, 107328, Note_on_c, 4, 74, 100
6, 107328, Note_on_c, 4, 70, 100
6, 107360, Note_off_c, 4, 70, 100
6, 107360, Note_off_c, 4, 74, 100
6, 107360, Note_off_c, 4, 67, 100
6, 107424, Note_on_c, 4, 65, 100
6, 107456, Note_off_c, 4, 65, 100
6, 107472, Note_on_c, 4, 74, 100
6, 107472, Note_on_c, 4, 70, 100
6, 107472, Note_on_c, 4, 67, 100
6, 107504, Note_off_c, 4, 67, 100
6, 107504, Note_off_c, 4, 70, 100
6, 107504, Note_off_c, 4, 74, 100
6, 107616, Note_on_c, 4, 65, 100
6, 107648, Note_off_c, 4, 65, 100
6, 107712, Note_on_c, 4, 67, 100
6, 107712, Note_on_c, 4, 74, 100
6, 107712, Note_on_c, 4, 70, 100
6, 107744, Note_off_c, 4, 70, 100
6, 107744, Note_off_c, 4, 74, 100
6, 107744, Note_off_c, 4, 67, 100
6, 107808, Note_on_c, 4, 65, 100
6, 107840, Note_off_c, 4, 65, 100
6, 107856, Note_on_c, 4, 74, 100
6, 107856, Note_on_c, 4, 70, 100
6, 107856, Note_on_c, 4, 67, 100
6, 107888, Note_off_c, 4, 67, 100
6, 107888, Note_off_c, 4, 70, 100
6, 107888, Note_off_c, 4, 74, 100
6, 108000, Note_on_c, 4, 65, 100
6, 108032, Note_off_c, 4, 65, 100
6, 108096, Note_on_c, 4, 67, 100
6, 108096, Note_on_c, 4, 74, 100
6, 108096, Note_on_c, 4, 70, 100
6, 108128, Note_off_c, 4, 70, 100
6, 108128, Note_off_c, 4, 74, 100
6, 108128, Note_off_c, 4, 67, 100
6, 108192, Note_on_c, 4, 65, 100
6, 108224, Note_off_c, 4, 65, 100
6, 108240, Note_on_c, 4, 74, 100
6, 108240, Note_on_c, 4, 70, 100
6, 108240, Note_on_c, 4, 67, 100
6, 108272, Note_off_c, 4, 67, 100
6, 108272, Note_off_c, 4, 70, 100
6, 108272, Note_off_c, 4, 74, 100
6, 108384, Note_on_c, 4, 65, 100
6, 108416, Note_off_c, 4, 65, 100
6, 108480, Note_on_c, 4, 67, 100
6, 108480, Note_on_c, 4, 74, 100
6, 108480, Note_on_c, 4, 70, 100
6, 108512, Note_off_c, 4, 70, 100
6, 108512, Note_off_c, 4, 74, 100
6, 108512, Note_off_c, 4, 67, 100
6, 108576, Note_on_c, 4, 65, 100
6, 108608, Note_off_c, 4, 65, 100
6, 108624, Note_on_c, 4, 74, 100
6, 108624, Note_on_c, 4, 70, 100
6, 108624, Note_on_c, 4, 67, 100
6, 108656, Note_off_c, 4, 67, 100
6, 108656, Note_off_c, 4, 70, 100
6, 108656, Note_off_c, 4, 74, 100
6, 108768, Note_on_c, 4, 65, 100
6, 108800, Note_off_c, 4, 65, 100
6, 108864, Note_on_c, 4, 67, 100
6, 108864, Note_on_c, 4, 74, 100
6, 108864, Note_on_c, 4, 70, 100
6, 108896, Note_off_c, 4, 70, 100
6, 108896, Note_off_c, 4, 74, 100
6, 108896, Note_off_c, 4, 67, 100
6, 108960, Note_on_c, 4, 65, 100
6, 108992, Note_off_c, 4, 65, 100
6, 109008, Note_on_c, 4, 74, 100
6, 109008, Note_on_c, 4, 70, 100
6, 109008, Note_on_c, 4, 67, 100
6, 109040, Note_off_c, 4, 67, 100
6, 109040, Note_off_c, 4, 70, 100
6, 109040, Note_off_c, 4, 74, 100
6, 109152, Note_on_c, 4, 65, 100
6, 109184, Note_off_c, 4, 65, 100
6, 109248, Note_on_c, 4, 67, 100
6, 109248, Note_on_c, 4, 74, 100
6, 109248, Note_on_c, 4, 70, 100
6, 109280, Note_off_c, 4, 70, 100
6, 109280, Note_off_c, 4, 74, 100
6, 109280, Note_off_c, 4, 67, 100
6, 109344, Note_on_c, 4, 65, 100
6, 109376, Note_off_c, 4, 65, 100
6, 109392, Note_on_c, 4, 74, 100
6, 109392, Note_on_c, 4, 70, 100
6, 109392, Note_on_c, 4, 67, 100
6, 109424, Note_off_c, 4, 67, 100
6, 109424, Note_off_c, 4, 70, 100
6, 109424, Note_off_c, 4, 74, 100
6, 109536, Note_on_c, 4, 65, 100
6, 109568, Note_off_c, 4, 65, 100
6, 109632, Note_on_c, 4, 67, 100
6, 109632, Note_on_c, 4, 74, 100
6, 109632, Note_on_c, 4, 70, 100
6, 109664, Note_off_c, 4, 70, 100
6, 109664, Note_off_c, 4, 74, 100
6, 109664, Note_off_c, 4, 67, 100
6, 109728, Note_on_c, 4, 65, 100
6, 109760, Note_off_c, 4, 65, 100
6, 109776, Note_on_c, 4, 74, 100
6, 109776, Note_on_c, 4, 70, 100
6, 109776, Note_on_c, 4, 67, 100
6, 109808, Note_off_c, 4, 67, 100
6, 109808, Note_off_c, 4, 70, 100
6, 109808, Note_off_c, 4, 74, 100
6, 109920, Note_on_c, 4, 65, 100
6, 109952, Note_off_c, 4, 65, 100
6, 110016, Note_on_c, 4, 77, 100
6, 110016, Note_on_c, 4, 72, 100
6, 110016, Note_on_c, 4, 69, 100
6, 110048, Note_off_c, 4, 69, 100
6, 110048, Note_off_c, 4, 72, 100
6, 110048, Note_off_c, 4, 77, 100
6, 110112, Note_on_c, 4, 65, 100
6, 110144, Note_off_c, 4, 65, 100
6, 110160, Note_on_c, 4, 72, 100
6, 110160, Note_on_c, 4, 69, 100
6, 110160, Note_on_c, 4, 77, 100
6, 110192, Note_off_c, 4, 77, 100
6, 110192, Note_off_c, 4, 69, 100
6, 110192, Note_off_c, 4, 72, 100
6, 110304, Note_on_c, 4, 65, 100
6, 110336, Note_off_c, 4, 65, 100
6, 110400, Note_on_c, 4, 77, 100
6, 110400, Note_on_c, 4, 72, 100
6, 110400, Note_on_c, 4, 69, 100
6, 110432, Note_off_c, 4, 69, 100
6, 110432, Note_off_c, 4, 72, 100
6, 110432, Note_off_c, 4, 77, 100
6, 110496, Note_on_c, 4, 65, 100
6, 110528, Note_off_c, 4, 65, 100
6, 110544, Note_on_c, 4, 72, 100
6, 110544, Note_on_c, 4, 69, 100
6, 110544, Note_on_c, 4, 77, 100
6, 110576, Note_off_c, 4, 77, 100
6, 110576, Note_off_c, 4, 69, 100
6, 110576, Note_off_c, 4, 72, 100
6, 110592, Note_on_c, 4, 60, 90
6, 110624, Note_off_c, 4, 60, 90
6, 110640, Note_on_c, 4, 62, 90
6, 110672, Note_off_c, 4, 62, 90
6, 110688, Note_on_c, 4, 58, 90
6, 110720, Note_off_c, 4, 58, 90
6, 110736, Note_on_c, 4, 53, 90
6, 110768, Note_off_c, 4, 53, 90
6, 110832, Note_on_c, 4, 60, 90
6, 110864, Note_off_c, 4, 60, 90
6, 110880, Note_on_c, 4, 62, 90
6, 110912, Note_off_c, 4, 62, 90
6, 110928, Note_on_c, 4, 58, 90
6, 110960, Note_off_c, 4, 58, 90
6, 110976, Note_on_c, 4, 53, 90
6, 111008, Note_off_c, 4, 53, 90
6, 111024, Note_on_c, 4, 55, 90
6, 111056, Note_off_c, 4, 55, 90
6, 111072, Note_on_c, 4, 60, 90
6, 111104, Note_off_c, 4, 60, 90
6, 111120, Note_on_c, 4, 62, 90
6, 111152, Note_off_c, 4, 62, 90
6, 111168, Note_on_c, 4, 58, 90
6, 111200, Note_off_c, 4, 58, 90
6, 111216, Note_on_c, 4, 53, 90
6, 111248, Note_off_c, 4, 53, 90
6, 111264, Note_on_c, 4, 55, 90
6, 111296, Note_off_c, 4, 55, 90
6, 111312, Note_on_c, 4, 60, 90
6, 111344, Note_off_c, 4, 60, 90
6, 111360, Note_on_c, 4, 62, 90
6, 111392, Note_off_c, 4, 62, 90
6, 111408, Note_on_c, 4, 58, 90
6, 111440, Note_off_c, 4, 58, 90
6, 111504, Note_on_c, 4, 55, 90
6, 111536, Note_off_c, 4, 55, 90
6, 111600, Note_on_c, 4, 62, 90
6, 111632, Note_off_c, 4, 62, 90
6, 111648, Note_on_c, 4, 58, 90
6, 111680, Note_off_c, 4, 58, 90
6, 111696, Note_on_c, 4, 53, 90
6, 111728, Note_off_c, 4, 53, 90
6, 111792, Note_on_c, 4, 60, 90
6, 111824, Note_off_c, 4, 60, 90
6, 111840, Note_on_c, 4, 62, 90
6, 111872, Note_off_c, 4, 62, 90
6, 111888, Note_on_c, 4, 58, 90
6, 111920, Note_off_c, 4, 58, 90
6, 111984, Note_on_c, 4, 55, 90
6, 112016, Note_off_c, 4, 55, 90
6, 112032, Note_on_c, 4, 60, 90
6, 112064, Note_off_c, 4, 60, 90
6, 112080, Note_on_c, 4, 62, 90
6, 112112, Note_off_c, 4, 62, 90
6, 112176, Note_on_c, 4, 53, 90
6, 112208, Note_off_c, 4, 53, 90
6, 112224, Note_on_c, 4, 55, 90
6, 112256, Note_off_c, 4, 55, 90
6, 112272, Note_on_c, 4, 60, 90
6, 112304, Note_off_c, 4, 60, 90
6, 112368, Note_on_c, 4, 58, 90
6, 112400, Note_off_c, 4, 58, 90
6, 112416, Note_on_c, 4, 53, 90
6, 112448, Note_off_c, 4, 53, 90
6, 112464, Note_on_c, 4, 55, 90
6, 112496, Note_off_c, 4, 55, 90
6, 112512, Note_on_c, 4, 60, 90
6, 112544, Note_off_c, 4, 60, 90
6, 112560, Note_on_c, 4, 62, 90
6, 112592, Note_off_c, 4, 62, 90
6, 112608, Note_on_c, 4, 58, 90
6, 112640, Note_off_c, 4, 58, 90
6, 112656, Note_on_c, 4, 53, 90
6, 112688, Note_off_c, 4, 53, 90
6, 112752, Note_on_c, 4, 60, 90
6, 112784, Note_off_c, 4, 60, 90
6, 112800, Note_on_c, 4, 62, 90
6, 112832, Note_off_c, 4, 62, 90
6, 112848, Note_on_c, 4, 58, 90
6, 112880, Note_off_c, 4, 58, 90
6, 112896, Note_on_c, 4, 53, 90
6, 112928, Note_off_c, 4, 53, 90
6, 112944, Note_on_c, 4, 55, 90
6, 112976, Note_off_c, 4, 55, 90
6, 112992, Note_on_c, 4, 60, 90
6, 113024, Note_off_c, 4, 60, 90
6, 113040, Note_on_c, 4, 62, 90
6, 113072, Note_off_c, 4, 62, 90
6, 113136, Note_on_c, 4, 53, 90
6, 113168, Note_off_c, 4, 53, 90
6, 113184, Note_on_c, 4, 55, 90
6, 113216, Note_off_c, 4, 55, 90
6, 113232, Note_on_c, 4, 60, 90
6, 113264, Note_off_c, 4, 60, 90
6, 113280, Note_on_c, 4, 62, 90
6, 113312, Note_off_c, 4, 62, 90
6, 113328, Note_on_c, 4, 58, 90
6, 113360, Note_off_c, 4, 58, 90
6, 113376, Note_on_c, 4, 53, 90
6, 113408, Note_off_c, 4, 53, 90
6, 113424, Note_on_c, 4, 55, 90
6, 113456, Note_off_c, 4, 55, 90
6, 113520, Note_on_c, 4, 58, 90
6, 113552, Note_off_c, 4, 58, 90
6, 113568, Note_on_c, 4, 53, 90
6, 113600, Note_off_c, 4, 53, 90
6, 113616, Note_on_c, 4, 55, 90
6, 113648, Note_off_c, 4, 55, 90
6, 113664, Note_on_c, 4, 60, 90
6, 113696, Note_off_c, 4, 60, 90
6, 113712, Note_on_c, 4, 62, 90
6, 113744, Note_off_c, 4, 62, 90
6, 113760, Note_on_c, 4, 58, 90
6, 113792, Note_off_c, 4, 58, 90
6, 113808, Note_on_c, 4, 53, 90
6, 113840, Note_off_c, 4, 53, 90
6, 113904, Note_on_c, 4, 60, 90
6, 113936, Note_off_c, 4, 60, 90
6, 113952, Note_on_c, 4, 62, 90
6, 113984, Note_off_c, 4, 62, 90
6, 114000, Note_on_c, 4, 58, 90
6, 114032, Note_off_c, 4, 58, 90
6, 114048, Note_on_c, 4, 53, 90
6, 114080, Note_off_c, 4, 53, 90
6, 114096, Note_on_c, 4, 55, 90
6, 114128, Note_off_c, 4, 55, 90
6, 114144, Note_on_c, 4, 60, 90
6, 114176, Note_off_c, 4, 60, 90
6, 114192, Note_on_c, 4, 62, 90
6, 114224, Note_off_c, 4, 62, 90
6, 114240, Note_on_c, 4, 58, 90
6, 114272, Note_off_c, 4, 58, 90
6, 114288, Note_on_c, 4, 53, 90
6, 114320, Note_off_c, 4, 53, 90
6, 114336, Note_on_c, 4, 55, 90
6, 114368, Note_off_c, 4, 55, 90
6, 114384, Note_on_c, 4, 60, 90
6, 114416, Note_off_c, 4, 60, 90
6, 114432, Note_on_c, 4, 62, 90
6, 114464, Note_off_c, 4, 62, 90
6, 114480, Note_on_c, 4, 58, 90
6, 114512, Note_off_c, 4, 58, 90
6, 114576, Note_on_c, 4, 55, 90
6, 114608, Note_off_c, 4, 55, 90
6, 114672, Note_on_c, 4, 62, 90
6, 114704, Note_off_c, 4, 62, 90
6, 114720, Note_on_c, 4, 58, 90
6, 114752, Note_off_c, 4, 58, 90
6, 114768, Note_on_c, 4, 53, 90
6, 114800, Note_off_c, 4, 53, 90
6, 114864, Note_on_c, 4, 60, 90
6, 114896, Note_off_c, 4, 60, 90
6, 114912, Note_on_c, 4, 62, 90
6, 114944, Note_off_c, 4, 62, 90
6, 114960, Note_on_c, 4, 58, 90
6, 114992, Note_off_c, 4, 58, 90
6, 115056, Note_on_c, 4, 55, 90
6, 115088, Note_off_c, 4, 55, 90
6, 115104, Note_on_c, 4, 60, 90
6, 115136, Note_off_c, 4, 60, 90
6, 115152, Note_on_c, 4, 62, 90
6, 115184, Note_off_c, 4, 62, 90
6, 115248, Note_on_c, 4, 53, 90
6, 115280, Note_off_c, 4, 53, 90
6, 115296, Note_on_c, 4, 55, 90
6, 115328, Note_off_c, 4, 55, 90
6, 115344, Note_on_c, 4, 60, 90
6, 115376, Note_off_c, 4, 60, 90
6, 115440, Note_on_c, 4, 58, 90
6, 115472, Note_off_c, 4, 58, 90
6, 115488, Note_on_c, 4, 53, 90
6, 115520, Note_off_c, 4, 53, 90
6, 115536, Note_on_c, 4, 55, 90
6, 115568, Note_off_c, 4, 55, 90
6, 115584, Note_on_c, 4, 60, 90
6, 115616, Note_off_c, 4, 60, 90
6, 115632, Note_on_c, 4, 62, 90
6, 115664, Note_off_c, 4, 62, 90
6, 115680, Note_on_c, 4, 58, 90
6, 115712, Note_off_c, 4, 58, 90
6, 115728, Note_on_c, 4, 53, 90
6, 115760, Note_off_c, 4, 53, 90
6, 115824, Note_on_c, 4, 60, 90
6, 115856, Note_off_c, 4, 60, 90
6, 115872, Note_on_c, 4, 62, 90
6, 115904, Note_off_c, 4, 62, 90
6, 115920, Note_on_c, 4, 58, 90
6, 115952, Note_off_c, 4, 58, 90
6, 115968, Note_on_c, 4, 53, 90
6, 116000, Note_off_c, 4, 53, 90
6, 116016, Note_on_c, 4, 55, 90
6, 116048, Note_off_c, 4, 55, 90
6, 116064, Note_on_c, 4, 60, 90
6, 116096, Note_off_c, 4, 60, 90
6, 116112, Note_on_c, 4, 62, 90
6, 116144, Note_off_c, 4, 62, 90
6, 116208, Note_on_c, 4, 53, 90
6, 116240, Note_off_c, 4, 53, 90
6, 116256, Note_on_c, 4, 55, 90
6, 116288, Note_off_c, 4, 55, 90
6, 116304, Note_on_c, 4, 60, 90
6, 116336, Note_off_c, 4, 60, 90
6, 116352, Note_on_c, 4, 62, 90
6, 116384, Note_off_c, 4, 62, 90
6, 116400, Note_on_c, 4, 58, 90
6, 116432, Note_off_c, 4, 58, 90
6, 116448, Note_on_c, 4, 53, 90
6, 116480, Note_off_c, 4, 53, 90
6, 116496, Note_on_c, 4, 55, 90
6, 116528, Note_off_c, 4, 55, 90
6, 116544, Note_on_c, 4, 60, 90
6, 116576, Note_off_c, 4, 60, 90
6, 116592, Note_on_c, 4, 62, 90
6, 116624, Note_off_c, 4, 62, 90
6, 116688, Note_on_c, 4, 53, 90
6, 116720, Note_off_c, 4, 53, 90
6, 116736, Note_on_c, 4, 60, 90
6, 116768, Note_off_c, 4, 60, 90
6, 116784, Note_on_c, 4, 62, 90
6, 116816, Note_off_c, 4, 62, 90
6, 116832, Note_on_c, 4, 58, 90
6, 116864, Note_off_c, 4, 58, 90
6, 116880, Note_on_c, 4, 53, 90
6, 116912, Note_off_c, 4, 53, 90
6, 116976, Note_on_c, 4, 60, 90
6, 117008, Note_off_c, 4, 60, 90
6, 117024, Note_on_c, 4, 62, 90
6, 117056, Note_off_c, 4, 62, 90
6, 117072, Note_on_c, 4, 58, 90
6, 117104, Note_off_c, 4, 58, 90
6, 117120, Note_on_c, 4, 53, 90
6, 117152, Note_off_c, 4, 53, 90
6, 117168, Note_on_c, 4, 55, 90
6, 117200, Note_off_c, 4, 55, 90
6, 117216, Note_on_c, 4, 60, 90
6, 117248, Note_off_c, 4, 60, 90
6, 117264, Note_on_c, 4, 62, 90
6, 117296, Note_off_c, 4, 62, 90
6, 117312, Note_on_c, 4, 58, 90
6, 117344, Note_off_c, 4, 58, 90
6, 117360, Note_on_c, 4, 53, 90
6, 117392, Note_off_c, 4, 53, 90
6, 117408, Note_on_c, 4, 55, 90
6, 117440, Note_off_c, 4, 55, 90
6, 117456, Note_on_c, 4, 60, 90
6, 117488, Note_off_c, 4, 60, 90
6, 117504, Note_on_c, 4, 62, 90
6, 117536, Note_off_c, 4, 62, 90
6, 117552, Note_on_c, 4, 58, 90
6, 117584, Note_off_c, 4, 58, 90
6, 117648, Note_on_c, 4, 55, 90
6, 117680, Note_off_c, 4, 55, 90
6, 117744, Note_on_c, 4, 62, 90
6, 117776, Note_off_c, 4, 62, 90
6, 117792, Note_on_c, 4, 58, 90
6, 117824, Note_off_c, 4, 58, 90
6, 117840, Note_on_c, 4, 53, 90
6, 117872, Note_off_c, 4, 53, 90
6, 117936, Note_on_c, 4, 60, 90
6, 117968, Note_off_c, 4, 60, 90
6, 117984, Note_on_c, 4, 62, 90
6, 118016, Note_off_c, 4, 62, 90
6, 118032, Note_on_c, 4, 58, 90
6, 118064, Note_off_c, 4, 58, 90
6, 118128, Note_on_c, 4, 55, 90
6, 118160, Note_off_c, 4, 55, 90
6, 118176, Note_on_c, 4, 60, 90
6, 118208, Note_off_c, 4, 60, 90
6, 118224, Note_on_c, 4, 62, 90
6, 118256, Note_off_c, 4, 62, 90
6, 118320, Note_on_c, 4, 53, 90
6, 118352, Note_off_c, 4, 53, 90
6, 118368, Note_on_c, 4, 55, 90
6, 118400, Note_off_c, 4, 55, 90
6, 118416, Note_on_c, 4, 60, 90
6, 118448, Note_off_c, 4, 60, 90
6, 118512, Note_on_c, 4, 58, 90
6, 118544, Note_off_c, 4, 58, 90
6, 118560, Note_on_c, 4, 53, 90
6, 118592, Note_off_c, 4, 53, 90
6, 118608, Note_on_c, 4, 55, 90
6, 118640, Note_off_c, 4, 55, 90
6, 118656, Note_on_c, 4, 60, 90
6, 118688, Note_off_c, 4, 60, 90
6, 118704, Note_on_c, 4, 62, 90
6, 118736, Note_off_c, 4, 62, 90
6, 118752, Note_on_c, 4, 58, 90
6, 118784, Note_off_c, 4, 58, 90
6, 118800, Note_on_c, 4, 53, 90
6, 118832, Note_off_c, 4, 53, 90
6, 118896, Note_on_c, 4, 60, 90
6, 118928, Note_off_c, 4, 60, 90
6, 118944, Note_on_c, 4, 62, 90
6, 118976, Note_off_c, 4, 62, 90
6, 118992, Note_on_c, 4, 58, 90
6, 119024, Note_off_c, 4, 58, 90
6, 119040, Note_on_c, 4, 53, 90
6, 119072, Note_off_c, 4, 53, 90
6, 119088, Note_on_c, 4, 55, 90
6, 119120, Note_off_c, 4, 55, 90
6, 119136, Note_on_c, 4, 60, 90
6, 119168, Note_off_c, 4, 60, 90
6, 119184, Note_on_c, 4, 62, 90
6, 119216, Note_off_c, 4, 62, 90
6, 119280, Note_on_c, 4, 53, 90
6, 119312, Note_off_c, 4, 53, 90
6, 119328, Note_on_c, 4, 55, 90
6, 119360, Note_off_c, 4, 55, 90
6, 119376, Note_on_c, 4, 60, 90
6, 119408, Note_off_c, 4, 60, 90
6, 119424, Note_on_c, 4, 62, 90
6, 119456, Note_off_c, 4, 62, 90
6, 119472, Note_on_c, 4, 58, 90
6, 119504, Note_off_c, 4, 58, 90
6, 119520, Note_on_c, 4, 53, 90
6, 119552, Note_off_c, 4, 53, 90
6, 119568, Note_on_c, 4, 55, 90
6, 119600, Note_off_c, 4, 55, 90
6, 119664, Note_on_c, 4, 58, 90
6, 119696, Note_off_c, 4, 58, 90
6, 119712, Note_on_c, 4, 53, 90
6, 119744, Note_off_c, 4, 53, 90
6, 119760, Note_on_c, 4, 55, 90
6, 119792, Note_off_c, 4, 55, 90
6, 119808, Note_on_c, 4, 60, 90
6, 119840, Note_off_c, 4, 60, 90
6, 119856, Note_on_c, 4, 62, 90
6, 119888, Note_off_c, 4, 62, 90
6, 119904, Note_on_c, 4, 58, 90
6, 119936, Note_off_c, 4, 58, 90
6, 119952, Note_on_c, 4, 53, 90
6, 119984, Note_off_c, 4, 53, 90
6, 120048, Note_on_c, 4, 60, 90
6, 120080, Note_off_c, 4, 60, 90
6, 120096, Note_on_c, 4, 62, 90
6, 120128, Note_off_c, 4, 62, 90
6, 120144, Note_on_c, 4, 58, 90
6, 120176, Note_off_c, 4, 58, 90
6, 120192, Note_on_c, 4, 53, 90
6, 120224, Note_off_c, 4, 53, 90
6, 120240, Note_on_c, 4, 55, 90
6, 120272, Note_off_c, 4, 55, 90
6, 120288, Note_on_c, 4, 60, 90
6, 120320, Note_off_c, 4, 60, 90
6, 120336, Note_on_c, 4, 62, 90
6, 120368, Note_off_c, 4, 62, 90
6, 120384, Note_on_c, 4, 58, 90
6, 120416, Note_off_c, 4, 58, 90
6, 120432, Note_on_c, 4, 53, 90
6, 120464, Note_off_c, 4, 53, 90
6, 120480, Note_on_c, 4, 55, 90
6, 120512, Note_off_c, 4, 55, 90
6, 120528, Note_on_c, 4, 60, 90
6, 120560, Note_off_c, 4, 60, 90
6, 120576, Note_on_c, 4, 62, 90
6, 120608, Note_off_c, 4, 62, 90
6, 120624, Note_on_c, 4, 58, 90
6, 120656, Note_off_c, 4, 58, 90
6, 120720, Note_on_c, 4, 55, 90
6, 120752, Note_off_c, 4, 55, 90
6, 120816, Note_on_c, 4, 62, 90
6, 120848, Note_off_c, 4, 62, 90
6, 120864, Note_on_c, 4, 58, 90
6, 120896, Note_off_c, 4, 58, 90
6, 120912, Note_on_c, 4, 53, 90
6, 120944, Note_off_c, 4, 53, 90
6, 121008, Note_on_c, 4, 60, 90
6, 121040, Note_off_c, 4, 60, 90
6, 121056, Note_on_c, 4, 62, 90
6, 121088, Note_off_c, 4, 62, 90
6, 121104, Note_on_c, 4, 58, 90
6, 121136, Note_off_c, 4, 58, 90
6, 121200, Note_on_c, 4, 55, 90
6, 121232, Note_off_c, 4, 55, 90
6, 121248, Note_on_c, 4, 60, 90
6, 121280, Note_off_c, 4, 60, 90
6, 121296, Note_on_c, 4, 62, 90
6, 121328, Note_off_c, 4, 62, 90
6, 121392, Note_on_c, 4, 53, 90
6, 121424, Note_off_c, 4, 53, 90
6, 121440, Note_on_c, 4, 55, 90
6, 121472, Note_off_c, 4, 55, 90
6, 121488, Note_on_c, 4, 60, 90
6, 121520, Note_off_c, 4, 60, 90
6, 121584, Note_on_c, 4, 58, 90
6, 121616, Note_off_c, 4, 58, 90
6, 121632, Note_on_c, 4, 53, 90
6, 121664, Note_off_c, 4, 53, 90
6, 121680, Note_on_c, 4, 55, 90
6, 121712, Note_off_c, 4, 55, 90
6, 121728, Note_on_c, 4, 60, 90
6, 121760, Note_off_c, 4, 60, 90
6, 121776, Note_on_c, 4, 62, 90
6, 121808, Note_off_c, 4, 62, 90
6, 121824, Note_on_c, 4, 58, 90
6, 121856, Note_off_c, 4, 58, 90
6, 121872, Note_on_c, 4, 53, 90
6, 121904, Note_off_c, 4, 53, 90
6, 121968, Note_on_c, 4, 60, 90
6, 122000, Note_off_c, 4, 60, 90
6, 122016, Note_on_c, 4, 62, 90
6, 122048, Note_off_c, 4, 62, 90
6, 122064, Note_on_c, 4, 58, 90
6, 122096, Note_off_c, 4, 58, 90
6, 122096, End_track
7, 0, Start_track
7, 0, Text_t, "Riff Righ"
7, 2880, Control_c, 5, 0, 0
7, 2882, Control_c, 5, 32, 0
7, 2884, Program_c, 5, 7
7, 2886, Control_c, 5, 7, 100
7, 2888, Control_c, 5, 10, 112
7, 2890, Control_c, 5, 11, 80
7, 2892, Control_c, 5, 91, 40
7, 2894, Control_c, 5, 93, 0
7, 15360, Note_on_c, 5, 55, 90
7, 15392, Note_off_c, 5, 55, 90
7, 15408, Note_on_c, 5, 58, 90
7, 15440, Note_off_c, 5, 58, 90
7, 15456, Note_on_c, 5, 53, 90
7, 15488, Note_off_c, 5, 53, 90
7, 15504, Note_on_c, 5, 60, 90
7, 15536, Note_off_c, 5, 60, 90
7, 15600, Note_on_c, 5, 58, 90
7, 15632, Note_off_c, 5, 58, 90
7, 15648, Note_on_c, 5, 53, 90
7, 15680, Note_off_c, 5, 53, 90
7, 15744, Note_on_c, 5, 55, 90
7, 15776, Note_off_c, 5, 55, 90
7, 15792, Note_on_c, 5, 58, 90
7, 15824, Note_off_c, 5, 58, 90
7, 15840, Note_on_c, 5, 53, 90
7, 15872, Note_off_c, 5, 53, 90
7, 15888, Note_on_c, 5, 60, 90
7, 15920, Note_off_c, 5, 60, 90
7, 15984, Note_on_c, 5, 58, 90
7, 16016, Note_off_c, 5, 58, 90
7, 16032, Note_on_c, 5, 53, 90
7, 16064, Note_off_c, 5, 53, 90
7, 16128, Note_on_c, 5, 55, 90
7, 16160, Note_off_c, 5, 55, 90
7, 16176, Note_on_c, 5, 58, 90
7, 16208, Note_off_c, 5, 58, 90
7, 16224, Note_on_c, 5, 53, 90
7, 16256, Note_off_c, 5, 53, 90
7, 16272, Note_on_c, 5, 60, 90
7, 16304, Note_off_c, 5, 60, 90
7, 16368, Note_on_c, 5, 58, 90
7, 16400, Note_off_c, 5, 58, 90
7, 16416, Note_on_c, 5, 53, 90
7, 16448, Note_off_c, 5, 53, 90
7, 16512, Note_on_c, 5, 55, 90
7, 16544, Note_off_c, 5, 55, 90
7, 16560, Note_on_c, 5, 58, 90
7, 16592, Note_off_c, 5, 58, 90
7, 16608, Note_on_c, 5, 53, 90
7, 16640, Note_off_c, 5, 53, 90
7, 16656, Note_on_c, 5, 60, 90
7, 16688, Note_off_c, 5, 60, 90
7, 16752, Note_on_c, 5, 58, 90
7, 16784, Note_off_c, 5, 58, 90
7, 16800, Note_on_c, 5, 53, 90
7, 16832, Note_off_c, 5, 53, 90
7, 16896, Note_on_c, 5, 70, 90
7, 16928, Note_off_c, 5, 70, 90
7, 16944, Note_on_c, 5, 72, 90
7, 16976, Note_off_c, 5, 72, 90
7, 16992, Note_on_c, 5, 67, 90
7, 17024, Note_off_c, 5, 67, 90
7, 17040, Note_on_c, 5, 65, 90
7, 17072, Note_off_c, 5, 65, 90
7, 17088, Note_on_c, 5, 70, 90
7, 17120, Note_off_c, 5, 70, 90
7, 17136, Note_on_c, 5, 72, 90
7, 17168, Note_off_c, 5, 72, 90
7, 17184, Note_on_c, 5, 67, 90
7, 17216, Note_off_c, 5, 67, 90
7, 17232, Note_on_c, 5, 65, 90
7, 17264, Note_off_c, 5, 65, 90
7, 17280, Note_on_c, 5, 70, 90
7, 17312, Note_off_c, 5, 70, 90
7, 17328, Note_on_c, 5, 72, 90
7, 17360, Note_off_c, 5, 72, 90
7, 17376, Note_on_c, 5, 67, 90
7, 17408, Note_off_c, 5, 67, 90
7, 17424, Note_on_c, 5, 65, 90
7, 17456, Note_off_c, 5, 65, 90
7, 17472, Note_on_c, 5, 70, 90
7, 17504, Note_off_c, 5, 70, 90
7, 17520, Note_on_c, 5, 72, 90
7, 17552, Note_off_c, 5, 72, 90
7, 17568, Note_on_c, 5, 67, 90
7, 17600, Note_off_c, 5, 67, 90
7, 17616, Note_on_c, 5, 65, 90
7, 17648, Note_off_c, 5, 65, 90
7, 17664, Note_on_c, 5, 70, 90
7, 17696, Note_off_c, 5, 70, 90
7, 17712, Note_on_c, 5, 72, 90
7, 17744, Note_off_c, 5, 72, 90
7, 17760, Note_on_c, 5, 67, 90
7, 17792, Note_off_c, 5, 67, 90
7, 17808, Note_on_c, 5, 65, 90
7, 17840, Note_off_c, 5, 65, 90
7, 17856, Note_on_c, 5, 70, 90
7, 17888, Note_off_c, 5, 70, 90
7, 17904, Note_on_c, 5, 72, 90
7, 17936, Note_off_c, 5, 72, 90
7, 17952, Note_on_c, 5, 67, 90
7, 17984, Note_off_c, 5, 67, 90
7, 18000, Note_on_c, 5, 65, 90
7, 18032, Note_off_c, 5, 65, 90
7, 18048, Note_on_c, 5, 70, 90
7, 18080, Note_off_c, 5, 70, 90
7, 18096, Note_on_c, 5, 72, 90
7, 18128, Note_off_c, 5, 72, 90
7, 18144, Note_on_c, 5, 67, 90
7, 18176, Note_off_c, 5, 67, 90
7, 18192, Note_on_c, 5, 65, 90
7, 18224, Note_off_c, 5, 65, 90
7, 18240, Note_on_c, 5, 70, 90
7, 18272, Note_off_c, 5, 70, 90
7, 18288, Note_on_c, 5, 72, 90
7, 18320, Note_off_c, 5, 72, 90
7, 18336, Note_on_c, 5, 67, 90
7, 18368, Note_off_c, 5, 67, 90
7, 18384, Note_on_c, 5, 65, 90
7, 18416, Note_off_c, 5, 65, 90
7, 18432, Note_on_c, 5, 55, 90
7, 18464, Note_off_c, 5, 55, 90
7, 18480, Note_on_c, 5, 53, 90
7, 18512, Note_off_c, 5, 53, 90
7, 18528, Note_on_c, 5, 58, 90
7, 18560, Note_off_c, 5, 58, 90
7, 18576, Note_on_c, 5, 55, 90
7, 18608, Note_off_c, 5, 55, 90
7, 18672, Note_on_c, 5, 53, 90
7, 18704, Note_off_c, 5, 53, 90
7, 18720, Note_on_c, 5, 58, 90
7, 18752, Note_off_c, 5, 58, 90
7, 18768, Note_on_c, 5, 55, 90
7, 18800, Note_off_c, 5, 55, 90
7, 18816, Note_on_c, 5, 55, 90
7, 18848, Note_off_c, 5, 55, 90
7, 18864, Note_on_c, 5, 53, 90
7, 18896, Note_off_c, 5, 53, 90
7, 18912, Note_on_c, 5, 58, 90
7, 18944, Note_off_c, 5, 58, 90
7, 18960, Note_on_c, 5, 55, 90
7, 18992, Note_off_c, 5, 55, 90
7, 19056, Note_on_c, 5, 53, 90
7, 19088, Note_off_c, 5, 53, 90
7, 19104, Note_on_c, 5, 58, 90
7, 19136, Note_off_c, 5, 58, 90
7, 19152, Note_on_c, 5, 55, 90
7, 19184, Note_off_c, 5, 55, 90
7, 19200, Note_on_c, 5, 55, 90
7, 19232, Note_off_c, 5, 55, 90
7, 19248, Note_on_c, 5, 53, 90
7, 19280, Note_off_c, 5, 53, 90
7, 19296, Note_on_c, 5, 58, 90
7, 19328, Note_off_c, 5, 58, 90
7, 19344, Note_on_c, 5, 55, 90
7, 19376, Note_off_c, 5, 55, 90
7, 19440, Note_on_c, 5, 53, 90
7, 19472, Note_off_c, 5, 53, 90
7, 19488, Note_on_c, 5, 58, 90
7, 19520, Note_off_c, 5, 58, 90
7, 19536, Note_on_c, 5, 55, 90
7, 19568, Note_off_c, 5, 55, 90
7, 19584, Note_on_c, 5, 55, 90
7, 19616, Note_off_c, 5, 55, 90
7, 19632, Note_on_c, 5, 53, 90
7, 19664, Note_off_c, 5, 53, 90
7, 19680, Note_on_c, 5, 58, 90
7, 19712, Note_off_c, 5, 58, 90
7, 19728, Note_on_c, 5, 55, 90
7, 19760, Note_off_c, 5, 55, 90
7, 19824, Note_on_c, 5, 53, 90
7, 19856, Note_off_c, 5, 53, 90
7, 19872, Note_on_c, 5, 58, 90
7, 19904, Note_off_c, 5, 58, 90
7, 19920, Note_on_c, 5, 55, 90
7, 19952, Note_off_c, 5, 55, 90
7, 19968, Note_on_c, 5, 70, 90
7, 20000, Note_off_c, 5, 70, 90
7, 20016, Note_on_c, 5, 65, 90
7, 20048, Note_off_c, 5, 65, 90
7, 20064, Note_on_c, 5, 67, 90
7, 20096, Note_off_c, 5, 67, 90
7, 20112, Note_on_c, 5, 72, 90
7, 20144, Note_off_c, 5, 72, 90
7, 20160, Note_on_c, 5, 70, 90
7, 20192, Note_off_c, 5, 70, 90
7, 20208, Note_on_c, 5, 65, 90
7, 20240, Note_off_c, 5, 65, 90
7, 20256, Note_on_c, 5, 67, 90
7, 20288, Note_off_c, 5, 67, 90
7, 20304, Note_on_c, 5, 72, 90
7, 20336, Note_off_c, 5, 72, 90
7, 20352, Note_on_c, 5, 70, 90
7, 20384, Note_off_c, 5, 70, 90
7, 20400, Note_on_c, 5, 65, 90
7, 20432, Note_off_c, 5, 65, 90
7, 20448, Note_on_c, 5, 67, 90
7, 20480, Note_off_c, 5, 67, 90
7, 20496, Note_on_c, 5, 72, 90
7, 20528, Note_off_c, 5, 72, 90
7, 20544, Note_on_c, 5, 70, 90
7, 20576, Note_off_c, 5, 70, 90
7, 20592, Note_on_c, 5, 65, 90
7, 20624, Note_off_c, 5, 65, 90
7, 20640, Note_on_c, 5, 67, 90
7, 20672, Note_off_c, 5, 67, 90
7, 20688, Note_on_c, 5, 72, 90
7, 20720, Note_off_c, 5, 72, 90
7, 20736, Note_on_c, 5, 70, 90
7, 20768, Note_off_c, 5, 70, 90
7, 20784, Note_on_c, 5, 65, 90
7, 20816, Note_off_c, 5, 65, 90
7, 20832, Note_on_c, 5, 67, 90
7, 20864, Note_off_c, 5, 67, 90
7, 20880, Note_on_c, 5, 72, 90
7, 20912, Note_off_c, 5, 72, 90
7, 20928, Note_on_c, 5, 70, 90
7, 20960, Note_off_c, 5, 70, 90
7, 20976, Note_on_c, 5, 65, 90
7, 21008, Note_off_c, 5, 65, 90
7, 21024, Note_on_c, 5, 67, 90
7, 21056, Note_off_c, 5, 67, 90
7, 21072, Note_on_c, 5, 72, 90
7, 21104, Note_off_c, 5, 72, 90
7, 21120, Note_on_c, 5, 70, 90
7, 21152, Note_off_c, 5, 70, 90
7, 21168, Note_on_c, 5, 65, 90
7, 21200, Note_off_c, 5, 65, 90
7, 21216, Note_on_c, 5, 67, 90
7, 21248, Note_off_c, 5, 67, 90
7, 21264, Note_on_c, 5, 72, 90
7, 21296, Note_off_c, 5, 72, 90
7, 21312, Note_on_c, 5, 70, 90
7, 21344, Note_off_c, 5, 70, 90
7, 21360, Note_on_c, 5, 65, 90
7, 21392, Note_off_c, 5, 65, 90
7, 21408, Note_on_c, 5, 67, 90
7, 21440, Note_off_c, 5, 67, 90
7, 21456, Note_on_c, 5, 72, 90
7, 21488, Note_off_c, 5, 72, 90
7, 21504, Note_on_c, 5, 55, 90
7, 21536, Note_off_c, 5, 55, 90
7, 21552, Note_on_c, 5, 58, 90
7, 21584, Note_off_c, 5, 58, 90
7, 21600, Note_on_c, 5, 53, 90
7, 21632, Note_off_c, 5, 53, 90
7, 21648, Note_on_c, 5, 60, 90
7, 21680, Note_off_c, 5, 60, 90
7, 21744, Note_on_c, 5, 58, 90
7, 21776, Note_off_c, 5, 58, 90
7, 21792, Note_on_c, 5, 53, 90
7, 21824, Note_off_c, 5, 53, 90
7, 21888, Note_on_c, 5, 55, 90
7, 21920, Note_off_c, 5, 55, 90
7, 21936, Note_on_c, 5, 58, 90
7, 21968, Note_off_c, 5, 58, 90
7, 21984, Note_on_c, 5, 53, 90
7, 22016, Note_off_c, 5, 53, 90
7, 22032, Note_on_c, 5, 60, 90
7, 22064, Note_off_c, 5, 60, 90
7, 22128, Note_on_c, 5, 58, 90
7, 22160, Note_off_c, 5, 58, 90
7, 22176, Note_on_c, 5, 53, 90
7, 22208, Note_off_c, 5, 53, 90
7, 22272, Note_on_c, 5, 55, 90
7, 22304, Note_off_c, 5, 55, 90
7, 22320, Note_on_c, 5, 58, 90
7, 22352, Note_off_c, 5, 58, 90
7, 22368, Note_on_c, 5, 53, 90
7, 22400, Note_off_c, 5, 53, 90
7, 22416, Note_on_c, 5, 60, 90
7, 22448, Note_off_c, 5, 60, 90
7, 22512, Note_on_c, 5, 58, 90
7, 22544, Note_off_c, 5, 58, 90
7, 22560, Note_on_c, 5, 53, 90
7, 22592, Note_off_c, 5, 53, 90
7, 22656, Note_on_c, 5, 55, 90
7, 22688, Note_off_c, 5, 55, 90
7, 22704, Note_on_c, 5, 58, 90
7, 22736, Note_off_c, 5, 58, 90
7, 22752, Note_on_c, 5, 53, 90
7, 22784, Note_off_c, 5, 53, 90
7, 22800, Note_on_c, 5, 60, 90
7, 22832, Note_off_c, 5, 60, 90
7, 22896, Note_on_c, 5, 58, 90
7, 22928, Note_off_c, 5, 58, 90
7, 22944, Note_on_c, 5, 53, 90
7, 22976, Note_off_c, 5, 53, 90
7, 23040, Note_on_c, 5, 70, 90
7, 23072, Note_off_c, 5, 70, 90
7, 23088, Note_on_c, 5, 72, 90
7, 23120, Note_off_c, 5, 72, 90
7, 23136, Note_on_c, 5, 67, 90
7, 23168, Note_off_c, 5, 67, 90
7, 23184, Note_on_c, 5, 65, 90
7, 23216, Note_off_c, 5, 65, 90
7, 23232, Note_on_c, 5, 70, 90
7, 23264, Note_off_c, 5, 70, 90
7, 23280, Note_on_c, 5, 72, 90
7, 23312, Note_off_c, 5, 72, 90
7, 23328, Note_on_c, 5, 67, 90
7, 23360, Note_off_c, 5, 67, 90
7, 23376, Note_on_c, 5, 65, 90
7, 23408, Note_off_c, 5, 65, 90
7, 23424, Note_on_c, 5, 70, 90
7, 23456, Note_off_c, 5, 70, 90
7, 23472, Note_on_c, 5, 72, 90
7, 23504, Note_off_c, 5, 72, 90
7, 23520, Note_on_c, 5, 67, 90
7, 23552, Note_off_c, 5, 67, 90
7, 23568, Note_on_c, 5, 65, 90
7, 23600, Note_off_c, 5, 65, 90
7, 23616, Note_on_c, 5, 70, 90
7, 23648, Note_off_c, 5, 70, 90
7, 23664, Note_on_c, 5, 72, 90
7, 23696, Note_off_c, 5, 72, 90
7, 23712, Note_on_c, 5, 67, 90
7, 23744, Note_off_c, 5, 67, 90
7, 23760, Note_on_c, 5, 65, 90
7, 23792, Note_off_c, 5, 65, 90
7, 23808, Note_on_c, 5, 70, 90
7, 23840, Note_off_c, 5, 70, 90
7, 23856, Note_on_c, 5, 72, 90
7, 23888, Note_off_c, 5, 72, 90
7, 23904, Note_on_c, 5, 67, 90
7, 23936, Note_off_c, 5, 67, 90
7, 23952, Note_on_c, 5, 65, 90
7, 23984, Note_off_c, 5, 65, 90
7, 24000, Note_on_c, 5, 70, 90
7, 24032, Note_off_c, 5, 70, 90
7, 24048, Note_on_c, 5, 72, 90
7, 24080, Note_off_c, 5, 72, 90
7, 24096, Note_on_c, 5, 67, 90
7, 24128, Note_off_c, 5, 67, 90
7, 24144, Note_on_c, 5, 65, 90
7, 24176, Note_off_c, 5, 65, 90
7, 24192, Note_on_c, 5, 70, 90
7, 24224, Note_off_c, 5, 70, 90
7, 24240, Note_on_c, 5, 72, 90
7, 24272, Note_off_c, 5, 72, 90
7, 24288, Note_on_c, 5, 67, 90
7, 24320, Note_off_c, 5, 67, 90
7, 24336, Note_on_c, 5, 65, 90
7, 24368, Note_off_c, 5, 65, 90
7, 24384, Note_on_c, 5, 70, 90
7, 24416, Note_off_c, 5, 70, 90
7, 24432, Note_on_c, 5, 72, 90
7, 24464, Note_off_c, 5, 72, 90
7, 24480, Note_on_c, 5, 67, 90
7, 24512, Note_off_c, 5, 67, 90
7, 24528, Note_on_c, 5, 65, 90
7, 24560, Note_off_c, 5, 65, 90
7, 24576, Note_on_c, 5, 55, 90
7, 24608, Note_off_c, 5, 55, 90
7, 24624, Note_on_c, 5, 53, 90
7, 24656, Note_off_c, 5, 53, 90
7, 24672, Note_on_c, 5, 58, 90
7, 24704, Note_off_c, 5, 58, 90
7, 24720, Note_on_c, 5, 55, 90
7, 24752, Note_off_c, 5, 55, 90
7, 24816, Note_on_c, 5, 53, 90
7, 24848, Note_off_c, 5, 53, 90
7, 24864, Note_on_c, 5, 58, 90
7, 24896, Note_off_c, 5, 58, 90
7, 24912, Note_on_c, 5, 55, 90
7, 24944, Note_off_c, 5, 55, 90
7, 24960, Note_on_c, 5, 55, 90
7, 24992, Note_off_c, 5, 55, 90
7, 25008, Note_on_c, 5, 53, 90
7, 25040, Note_off_c, 5, 53, 90
7, 25056, Note_on_c, 5, 58, 90
7, 25088, Note_off_c, 5, 58, 90
7, 25104, Note_on_c, 5, 55, 90
7, 25136, Note_off_c, 5, 55, 90
7, 25200, Note_on_c, 5, 53, 90
7, 25232, Note_off_c, 5, 53, 90
7, 25248, Note_on_c, 5, 58, 90
7, 25280, Note_off_c, 5, 58, 90
7, 25296, Note_on_c, 5, 55, 90
7, 25328, Note_off_c, 5, 55, 90
7, 25344, Note_on_c, 5, 55, 90
7, 25376, Note_off_c, 5, 55, 90
7, 25392, Note_on_c, 5, 53, 90
7, 25424, Note_off_c, 5, 53, 90
7, 25440, Note_on_c, 5, 58, 90
7, 25472, Note_off_c, 5, 58, 90
7, 25488, Note_on_c, 5, 55, 90
7, 25520, Note_off_c, 5, 55, 90
7, 25584, Note_on_c, 5, 53, 90
7, 25616, Note_off_c, 5, 53, 90
7, 25632, Note_on_c, 5, 58, 90
7, 25664, Note_off_c, 5, 58, 90
7, 25680, Note_on_c, 5, 55, 90
7, 25712, Note_off_c, 5, 55, 90
7, 25728, Note_on_c, 5, 55, 90
7, 25760, Note_off_c, 5, 55, 90
7, 25776, Note_on_c, 5, 53, 90
7, 25808, Note_off_c, 5, 53, 90
7, 25824, Note_on_c, 5, 58, 90
7, 25856, Note_off_c, 5, 58, 90
7, 25872, Note_on_c, 5, 55, 90
7, 25904, Note_off_c, 5, 55, 90
7, 25968, Note_on_c, 5, 53, 90
7, 26000, Note_off_c, 5, 53, 90
7, 26016, Note_on_c, 5, 58, 90
7, 26048, Note_off_c, 5, 58, 90
7, 26064, Note_on_c, 5, 55, 90
7, 26096, Note_off_c, 5, 55, 90
7, 26112, Note_on_c, 5, 70, 90
7, 26144, Note_off_c, 5, 70, 90
7, 26160, Note_on_c, 5, 65, 90
7, 26192, Note_off_c, 5, 65, 90
7, 26208, Note_on_c, 5, 67, 90
7, 26240, Note_off_c, 5, 67, 90
7, 26256, Note_on_c, 5, 72, 90
7, 26288, Note_off_c, 5, 72, 90
7, 26304, Note_on_c, 5, 70, 90
7, 26336, Note_off_c, 5, 70, 90
7, 26352, Note_on_c, 5, 65, 90
7, 26384, Note_off_c, 5, 65, 90
7, 26400, Note_on_c, 5, 67, 90
7, 26432, Note_off_c, 5, 67, 90
7, 26448, Note_on_c, 5, 72, 90
7, 26480, Note_off_c, 5, 72, 90
7, 26496, Note_on_c, 5, 70, 90
7, 26528, Note_off_c, 5, 70, 90
7, 26544, Note_on_c, 5, 65, 90
7, 26576, Note_off_c, 5, 65, 90
7, 26592, Note_on_c, 5, 67, 90
7, 26624, Note_off_c, 5, 67, 90
7, 26640, Note_on_c, 5, 72, 90
7, 26672, Note_off_c, 5, 72, 90
7, 26688, Note_on_c, 5, 70, 90
7, 26720, Note_off_c, 5, 70, 90
7, 26736, Note_on_c, 5, 65, 90
7, 26768, Note_off_c, 5, 65, 90
7, 26784, Note_on_c, 5, 67, 90
7, 26816, Note_off_c, 5, 67, 90
7, 26832, Note_on_c, 5, 72, 90
7, 26864, Note_off_c, 5, 72, 90
7, 26880, Note_on_c, 5, 70, 90
7, 26912, Note_off_c, 5, 70, 90
7, 26928, Note_on_c, 5, 65, 90
7, 26960, Note_off_c, 5, 65, 90
7, 26976, Note_on_c, 5, 67, 90
7, 27008, Note_off_c, 5, 67, 90
7, 27024, Note_on_c, 5, 72, 90
7, 27056, Note_off_c, 5, 72, 90
7, 27072, Note_on_c, 5, 70, 90
7, 27104, Note_off_c, 5, 70, 90
7, 27120, Note_on_c, 5, 65, 90
7, 27152, Note_off_c, 5, 65, 90
7, 27168, Note_on_c, 5, 67, 90
7, 27200, Note_off_c, 5, 67, 90
7, 27216, Note_on_c, 5, 72, 90
7, 27248, Note_off_c, 5, 72, 90
7, 27264, Note_on_c, 5, 70, 90
7, 27296, Note_off_c, 5, 70, 90
7, 27312, Note_on_c, 5, 65, 90
7, 27344, Note_off_c, 5, 65, 90
7, 27360, Note_on_c, 5, 67, 90
7, 27392, Note_off_c, 5, 67, 90
7, 27408, Note_on_c, 5, 72, 90
7, 27440, Note_off_c, 5, 72, 90
7, 27456, Note_on_c, 5, 70, 90
7, 27488, Note_off_c, 5, 70, 90
7, 27504, Note_on_c, 5, 65, 90
7, 27536, Note_off_c, 5, 65, 90
7, 27552, Note_on_c, 5, 67, 90
7, 27584, Note_off_c, 5, 67, 90
7, 27600, Note_on_c, 5, 72, 90
7, 27632, Note_off_c, 5, 72, 90
7, 27792, Note_on_c, 5, 53, 60
7, 27824, Note_off_c, 5, 53, 60
7, 27888, Note_on_c, 5, 55, 60
7, 27888, Note_on_c, 5, 62, 60
7, 27888, Note_on_c, 5, 58, 60
7, 27920, Note_off_c, 5, 58, 60
7, 27920, Note_off_c, 5, 62, 60
7, 27920, Note_off_c, 5, 55, 60
7, 27984, Note_on_c, 5, 53, 60
7, 28016, Note_off_c, 5, 53, 60
7, 28176, Note_on_c, 5, 53, 60
7, 28208, Note_off_c, 5, 53, 60
7, 28272, Note_on_c, 5, 55, 60
7, 28272, Note_on_c, 5, 62, 60
7, 28272, Note_on_c, 5, 58, 60
7, 28304, Note_off_c, 5, 58, 60
7, 28304, Note_off_c, 5, 62, 60
7, 28304, Note_off_c, 5, 55, 60
7, 28368, Note_on_c, 5, 53, 60
7, 28400, Note_off_c, 5, 53, 60
7, 28560, Note_on_c, 5, 53, 60
7, 28592, Note_off_c, 5, 53, 60
7, 28656, Note_on_c, 5, 55, 60
7, 28656, Note_on_c, 5, 62, 60
7, 28656, Note_on_c, 5, 58, 60
7, 28688, Note_off_c, 5, 58, 60
7, 28688, Note_off_c, 5, 62, 60
7, 28688, Note_off_c, 5, 55, 60
7, 28752, Note_on_c, 5, 53, 60
7, 28784, Note_off_c, 5, 53, 60
7, 28944, Note_on_c, 5, 53, 60
7, 28976, Note_off_c, 5, 53, 60
7, 29040, Note_on_c, 5, 55, 60
7, 29040, Note_on_c, 5, 62, 60
7, 29040, Note_on_c, 5, 58, 60
7, 29072, Note_off_c, 5, 58, 60
7, 29072, Note_off_c, 5, 62, 60
7, 29072, Note_off_c, 5, 55, 60
7, 29136, Note_on_c, 5, 53, 60
7, 29168, Note_off_c, 5, 53, 60
7, 29328, Note_on_c, 5, 53, 60
7, 29360, Note_off_c, 5, 53, 60
7, 29424, Note_on_c, 5, 55, 60
7, 29424, Note_on_c, 5, 62, 60
7, 29424, Note_on_c, 5, 58, 60
7, 29456, Note_off_c, 5, 58, 60
7, 29456, Note_off_c, 5, 62, 60
7, 29456, Note_off_c, 5, 55, 60
7, 29520, Note_on_c, 5, 53, 60
7, 29552, Note_off_c, 5, 53, 60
7, 29712, Note_on_c, 5, 53, 60
7, 29744, Note_off_c, 5, 53, 60
7, 29808, Note_on_c, 5, 55, 60
7, 29808, Note_on_c, 5, 62, 60
7, 29808, Note_on_c, 5, 58, 60
7, 29840, Note_off_c, 5, 58, 60
7, 29840, Note_off_c, 5, 62, 60
7, 29840, Note_off_c, 5, 55, 60
7, 29904, Note_on_c, 5, 53, 60
7, 29936, Note_off_c, 5, 53, 60
7, 30096, Note_on_c, 5, 53, 60
7, 30128, Note_off_c, 5, 53, 60
7, 30192, Note_on_c, 5, 55, 60
7, 30192, Note_on_c, 5, 62, 60
7, 30192, Note_on_c, 5, 58, 60
7, 30224, Note_off_c, 5, 58, 60
7, 30224, Note_off_c, 5, 62, 60
7, 30224, Note_off_c, 5, 55, 60
7, 30288, Note_on_c, 5, 53, 60
7, 30320, Note_off_c, 5, 53, 60
7, 30480, Note_on_c, 5, 53, 60
7, 30512, Note_off_c, 5, 53, 60
7, 30576, Note_on_c, 5, 55, 60
7, 30576, Note_on_c, 5, 62, 60
7, 30576, Note_on_c, 5, 58, 60
7, 30608, Note_off_c, 5, 58, 60
7, 30608, Note_off_c, 5, 62, 60
7, 30608, Note_off_c, 5, 55, 60
7, 30672, Note_on_c, 5, 53, 60
7, 30704, Note_off_c, 5, 53, 60
7, 30864, Note_on_c, 5, 53, 60
7, 30896, Note_off_c, 5, 53, 60
7, 30960, Note_on_c, 5, 55, 60
7, 30960, Note_on_c, 5, 62, 60
7, 30960, Note_on_c, 5, 58, 60
7, 30992, Note_off_c, 5, 58, 60
7, 30992, Note_off_c, 5, 62, 60
7, 30992, Note_off_c, 5, 55, 60
7, 31056, Note_on_c, 5, 53, 60
7, 31088, Note_off_c, 5, 53, 60
7, 31248, Note_on_c, 5, 53, 60
7, 31280, Note_off_c, 5, 53, 60
7, 31344, Note_on_c, 5, 55, 60
7, 31344, Note_on_c, 5, 62, 60
7, 31344, Note_on_c, 5, 58, 60
7, 31376, Note_off_c, 5, 58, 60
7, 31376, Note_off_c, 5, 62, 60
7, 31376, Note_off_c, 5, 55, 60
7, 31440, Note_on_c, 5, 53, 60
7, 31472, Note_off_c, 5, 53, 60
7, 31632, Note_on_c, 5, 53, 60
7, 31664, Note_off_c, 5, 53, 60
7, 31728, Note_on_c, 5, 55, 60
7, 31728, Note_on_c, 5, 62, 60
7, 31728, Note_on_c, 5, 58, 60
7, 31760, Note_off_c, 5, 58, 60
7, 31760, Note_off_c, 5, 62, 60
7, 31760, Note_off_c, 5, 55, 60
7, 31824, Note_on_c, 5, 53, 60
7, 31856, Note_off_c, 5, 53, 60
7, 32016, Note_on_c, 5, 53, 60
7, 32048, Note_off_c, 5, 53, 60
7, 32112, Note_on_c, 5, 55, 60
7, 32112, Note_on_c, 5, 62, 60
7, 32112, Note_on_c, 5, 58, 60
7, 32144, Note_off_c, 5, 58, 60
7, 32144, Note_off_c, 5, 62, 60
7, 32144, Note_off_c, 5, 55, 60
7, 32208, Note_on_c, 5, 53, 60
7, 32240, Note_off_c, 5, 53, 60
7, 32304, Note_on_c, 5, 65, 70
7, 32336, Note_off_c, 5, 65, 70
7, 32400, Note_on_c, 5, 65, 70
7, 32432, Note_off_c, 5, 65, 70
7, 32496, Note_on_c, 5, 67, 70
7, 32496, Note_on_c, 5, 74, 70
7, 32496, Note_on_c, 5, 70, 70
7, 32528, Note_off_c, 5, 70, 70
7, 32528, Note_off_c, 5, 74, 70
7, 32528, Note_off_c, 5, 67, 70
7, 32592, Note_on_c, 5, 65, 70
7, 32624, Note_off_c, 5, 65, 70
7, 32688, Note_on_c, 5, 65, 70
7, 32720, Note_off_c, 5, 65, 70
7, 32784, Note_on_c, 5, 65, 70
7, 32816, Note_off_c, 5, 65, 70
7, 32880, Note_on_c, 5, 67, 70
7, 32880, Note_on_c, 5, 74, 70
7, 32880, Note_on_c, 5, 70, 70
7, 32912, Note_off_c, 5, 70, 70
7, 32912, Note_off_c, 5, 74, 70
7, 32912, Note_off_c, 5, 67, 70
7, 32976, Note_on_c, 5, 65, 70
7, 33008, Note_off_c, 5, 65, 70
7, 33072, Note_on_c, 5, 65, 70
7, 33104, Note_off_c, 5, 65, 70
7, 33168, Note_on_c, 5, 65, 70
7, 33200, Note_off_c, 5, 65, 70
7, 33264, Note_on_c, 5, 67, 70
7, 33264, Note_on_c, 5, 74, 70
7, 33264, Note_on_c, 5, 70, 70
7, 33296, Note_off_c, 5, 70, 70
7, 33296, Note_off_c, 5, 74, 70
7, 33296, Note_off_c, 5, 67, 70
7, 33360, Note_on_c, 5, 65, 70
7, 33392, Note_off_c, 5, 65, 70
7, 33456, Note_on_c, 5, 65, 70
7, 33488, Note_off_c, 5, 65, 70
7, 33552, Note_on_c, 5, 65, 70
7, 33584, Note_off_c, 5, 65, 70
7, 33648, Note_on_c, 5, 67, 70
7, 33648, Note_on_c, 5, 74, 70
7, 33648, Note_on_c, 5, 70, 70
7, 33680, Note_off_c, 5, 70, 70
7, 33680, Note_off_c, 5, 74, 70
7, 33680, Note_off_c, 5, 67, 70
7, 33744, Note_on_c, 5, 65, 70
7, 33776, Note_off_c, 5, 65, 70
7, 33840, Note_on_c, 5, 65, 70
7, 33872, Note_off_c, 5, 65, 70
7, 33936, Note_on_c, 5, 65, 70
7, 33968, Note_off_c, 5, 65, 70
7, 34032, Note_on_c, 5, 67, 70
7, 34032, Note_on_c, 5, 74, 70
7, 34032, Note_on_c, 5, 70, 70
7, 34064, Note_off_c, 5, 70, 70
7, 34064, Note_off_c, 5, 74, 70
7, 34064, Note_off_c, 5, 67, 70
7, 34128, Note_on_c, 5, 65, 70
7, 34160, Note_off_c, 5, 65, 70
7, 34224, Note_on_c, 5, 65, 70
7, 34256, Note_off_c, 5, 65, 70
7, 34320, Note_on_c, 5, 65, 70
7, 34352, Note_off_c, 5, 65, 70
7, 34416, Note_on_c, 5, 67, 70
7, 34416, Note_on_c, 5, 74, 70
7, 34416, Note_on_c, 5, 70, 70
7, 34448, Note_off_c, 5, 70, 70
7, 34448, Note_off_c, 5, 74, 70
7, 34448, Note_off_c, 5, 67, 70
7, 34512, Note_on_c, 5, 65, 70
7, 34544, Note_off_c, 5, 65, 70
7, 34608, Note_on_c, 5, 65, 70
7, 34640, Note_off_c, 5, 65, 70
7, 34704, Note_on_c, 5, 65, 70
7, 34736, Note_off_c, 5, 65, 70
7, 34800, Note_on_c, 5, 67, 70
7, 34800, Note_on_c, 5, 74, 70
7, 34800, Note_on_c, 5, 70, 70
7, 34832, Note_off_c, 5, 70, 70
7, 34832, Note_off_c, 5, 74, 70
7, 34832, Note_off_c, 5, 67, 70
7, 34896, Note_on_c, 5, 65, 70
7, 34928, Note_off_c, 5, 65, 70
7, 34992, Note_on_c, 5, 65, 70
7, 35024, Note_off_c, 5, 65, 70
7, 35088, Note_on_c, 5, 65, 70
7, 35120, Note_off_c, 5, 65, 70
7, 35184, Note_on_c, 5, 67, 70
7, 35184, Note_on_c, 5, 74, 70
7, 35184, Note_on_c, 5, 70, 70
7, 35216, Note_off_c, 5, 70, 70
7, 35216, Note_off_c, 5, 74, 70
7, 35216, Note_off_c, 5, 67, 70
7, 35280, Note_on_c, 5, 65, 70
7, 35312, Note_off_c, 5, 65, 70
7, 35376, Note_on_c, 5, 65, 70
7, 35408, Note_off_c, 5, 65, 70
7, 35472, Note_on_c, 5, 65, 70
7, 35504, Note_off_c, 5, 65, 70
7, 35568, Note_on_c, 5, 67, 70
7, 35568, Note_on_c, 5, 74, 70
7, 35568, Note_on_c, 5, 70, 70
7, 35600, Note_off_c, 5, 70, 70
7, 35600, Note_off_c, 5, 74, 70
7, 35600, Note_off_c, 5, 67, 70
7, 35664, Note_on_c, 5, 65, 70
7, 35696, Note_off_c, 5, 65, 70
7, 35760, Note_on_c, 5, 65, 70
7, 35792, Note_off_c, 5, 65, 70
7, 35856, Note_on_c, 5, 65, 70
7, 35888, Note_off_c, 5, 65, 70
7, 35952, Note_on_c, 5, 67, 70
7, 35952, Note_on_c, 5, 74, 70
7, 35952, Note_on_c, 5, 70, 70
7, 35984, Note_off_c, 5, 70, 70
7, 35984, Note_off_c, 5, 74, 70
7, 35984, Note_off_c, 5, 67, 70
7, 36048, Note_on_c, 5, 65, 70
7, 36080, Note_off_c, 5, 65, 70
7, 36144, Note_on_c, 5, 65, 70
7, 36176, Note_off_c, 5, 65, 70
7, 36240, Note_on_c, 5, 65, 70
7, 36272, Note_off_c, 5, 65, 70
7, 36336, Note_on_c, 5, 67, 70
7, 36336, Note_on_c, 5, 74, 70
7, 36336, Note_on_c, 5, 70, 70
7, 36368, Note_off_c, 5, 70, 70
7, 36368, Note_off_c, 5, 74, 70
7, 36368, Note_off_c, 5, 67, 70
7, 36432, Note_on_c, 5, 65, 70
7, 36464, Note_off_c, 5, 65, 70
7, 36528, Note_on_c, 5, 65, 70
7, 36560, Note_off_c, 5, 65, 70
7, 36624, Note_on_c, 5, 65, 70
7, 36656, Note_off_c, 5, 65, 70
7, 36720, Note_on_c, 5, 67, 70
7, 36720, Note_on_c, 5, 74, 70
7, 36720, Note_on_c, 5, 70, 70
7, 36752, Note_off_c, 5, 70, 70
7, 36752, Note_off_c, 5, 74, 70
7, 36752, Note_off_c, 5, 67, 70
7, 36816, Note_on_c, 5, 65, 70
7, 36848, Note_off_c, 5, 65, 70
7, 36912, Note_on_c, 5, 65, 70
7, 36944, Note_off_c, 5, 65, 70
7, 37008, Note_on_c, 5, 65, 70
7, 37040, Note_off_c, 5, 65, 70
7, 37104, Note_on_c, 5, 67, 70
7, 37104, Note_on_c, 5, 74, 70
7, 37104, Note_on_c, 5, 70, 70
7, 37136, Note_off_c, 5, 70, 70
7, 37136, Note_off_c, 5, 74, 70
7, 37136, Note_off_c, 5, 67, 70
7, 37200, Note_on_c, 5, 65, 70
7, 37232, Note_off_c, 5, 65, 70
7, 37296, Note_on_c, 5, 65, 70
7, 37328, Note_off_c, 5, 65, 70
7, 37392, Note_on_c, 5, 65, 70
7, 37424, Note_off_c, 5, 65, 70
7, 37488, Note_on_c, 5, 67, 70
7, 37488, Note_on_c, 5, 74, 70
7, 37488, Note_on_c, 5, 70, 70
7, 37520, Note_off_c, 5, 70, 70
7, 37520, Note_off_c, 5, 74, 70
7, 37520, Note_off_c, 5, 67, 70
7, 37584, Note_on_c, 5, 65, 70
7, 37616, Note_off_c, 5, 65, 70
7, 37680, Note_on_c, 5, 65, 70
7, 37712, Note_off_c, 5, 65, 70
7, 37776, Note_on_c, 5, 65, 70
7, 37808, Note_off_c, 5, 65, 70
7, 37872, Note_on_c, 5, 67, 70
7, 37872, Note_on_c, 5, 74, 70
7, 37872, Note_on_c, 5, 70, 70
7, 37904, Note_off_c, 5, 70, 70
7, 37904, Note_off_c, 5, 74, 70
7, 37904, Note_off_c, 5, 67, 70
7, 37968, Note_on_c, 5, 65, 70
7, 38000, Note_off_c, 5, 65, 70
7, 38064, Note_on_c, 5, 65, 70
7, 38096, Note_off_c, 5, 65, 70
7, 38160, Note_on_c, 5, 65, 70
7, 38192, Note_off_c, 5, 65, 70
7, 38256, Note_on_c, 5, 67, 70
7, 38256, Note_on_c, 5, 74, 70
7, 38256, Note_on_c, 5, 70, 70
7, 38288, Note_off_c, 5, 70, 70
7, 38288, Note_off_c, 5, 74, 70
7, 38288, Note_off_c, 5, 67, 70
7, 38352, Note_on_c, 5, 65, 70
7, 38384, Note_off_c, 5, 65, 70
7, 38448, Note_on_c, 5, 65, 70
7, 38480, Note_off_c, 5, 65, 70
7, 38544, Note_on_c, 5, 65, 70
7, 38576, Note_off_c, 5, 65, 70
7, 38640, Note_on_c, 5, 67, 70
7, 38640, Note_on_c, 5, 74, 70
7, 38640, Note_on_c, 5, 70, 70
7, 38672, Note_off_c, 5, 70, 70
7, 38672, Note_off_c, 5, 74, 70
7, 38672, Note_off_c, 5, 67, 70
7, 38736, Note_on_c, 5, 65, 70
7, 38768, Note_off_c, 5, 65, 70
7, 38832, Note_on_c, 5, 65, 70
7, 38864, Note_off_c, 5, 65, 70
7, 38928, Note_on_c, 5, 65, 70
7, 38960, Note_off_c, 5, 65, 70
7, 39024, Note_on_c, 5, 67, 70
7, 39024, Note_on_c, 5, 74, 70
7, 39024, Note_on_c, 5, 70, 70
7, 39056, Note_off_c, 5, 70, 70
7, 39056, Note_off_c, 5, 74, 70
7, 39056, Note_off_c, 5, 67, 70
7, 39120, Note_on_c, 5, 65, 70
7, 39152, Note_off_c, 5, 65, 70
7, 39216, Note_on_c, 5, 65, 70
7, 39248, Note_off_c, 5, 65, 70
7, 39312, Note_on_c, 5, 65, 70
7, 39344, Note_off_c, 5, 65, 70
7, 39408, Note_on_c, 5, 67, 70
7, 39408, Note_on_c, 5, 74, 70
7, 39408, Note_on_c, 5, 70, 70
7, 39440, Note_off_c, 5, 70, 70
7, 39440, Note_off_c, 5, 74, 70
7, 39440, Note_off_c, 5, 67, 70
7, 39504, Note_on_c, 5, 65, 70
7, 39536, Note_off_c, 5, 65, 70
7, 39600, Note_on_c, 5, 65, 70
7, 39632, Note_off_c, 5, 65, 70
7, 39696, Note_on_c, 5, 65, 70
7, 39728, Note_off_c, 5, 65, 70
7, 39792, Note_on_c, 5, 67, 70
7, 39792, Note_on_c, 5, 74, 70
7, 39792, Note_on_c, 5, 70, 70
7, 39824, Note_off_c, 5, 70, 70
7, 39824, Note_off_c, 5, 74, 70
7, 39824, Note_off_c, 5, 67, 70
7, 39888, Note_on_c, 5, 65, 70
7, 39920, Note_off_c, 5, 65, 70
7, 39984, Note_on_c, 5, 65, 70
7, 40016, Note_off_c, 5, 65, 70
7, 40080, Note_on_c, 5, 65, 70
7, 40112, Note_off_c, 5, 65, 70
7, 40176, Note_on_c, 5, 67, 70
7, 40176, Note_on_c, 5, 74, 70
7, 40176, Note_on_c, 5, 70, 70
7, 40208, Note_off_c, 5, 70, 70
7, 40208, Note_off_c, 5, 74, 70
7, 40208, Note_off_c, 5, 67, 70
7, 40272, Note_on_c, 5, 65, 70
7, 40304, Note_off_c, 5, 65, 70
7, 40368, Note_on_c, 5, 65, 70
7, 40400, Note_off_c, 5, 65, 70
7, 40464, Note_on_c, 5, 65, 70
7, 40496, Note_off_c, 5, 65, 70
7, 40560, Note_on_c, 5, 67, 70
7, 40560, Note_on_c, 5, 74, 70
7, 40560, Note_on_c, 5, 70, 70
7, 40592, Note_off_c, 5, 70, 70
7, 40592, Note_off_c, 5, 74, 70
7, 40592, Note_off_c, 5, 67, 70
7, 40656, Note_on_c, 5, 65, 70
7, 40688, Note_off_c, 5, 65, 70
7, 40752, Note_on_c, 5, 65, 70
7, 40784, Note_off_c, 5, 65, 70
7, 40848, Note_on_c, 5, 65, 70
7, 40880, Note_off_c, 5, 65, 70
7, 40944, Note_on_c, 5, 67, 70
7, 40944, Note_on_c, 5, 74, 70
7, 40944, Note_on_c, 5, 70, 70
7, 40976, Note_off_c, 5, 70, 70
7, 40976, Note_off_c, 5, 74, 70
7, 40976, Note_off_c, 5, 67, 70
7, 41040, Note_on_c, 5, 65, 70
7, 41072, Note_off_c, 5, 65, 70
7, 41136, Note_on_c, 5, 65, 70
7, 41168, Note_off_c, 5, 65, 70
7, 41232, Note_on_c, 5, 65, 70
7, 41264, Note_off_c, 5, 65, 70
7, 41328, Note_on_c, 5, 67, 70
7, 41328, Note_on_c, 5, 74, 70
7, 41328, Note_on_c, 5, 70, 70
7, 41360, Note_off_c, 5, 70, 70
7, 41360, Note_off_c, 5, 74, 70
7, 41360, Note_off_c, 5, 67, 70
7, 41424, Note_on_c, 5, 65, 70
7, 41456, Note_off_c, 5, 65, 70
7, 41520, Note_on_c, 5, 65, 70
7, 41552, Note_off_c, 5, 65, 70
7, 41616, Note_on_c, 5, 65, 70
7, 41648, Note_off_c, 5, 65, 70
7, 41712, Note_on_c, 5, 67, 70
7, 41712, Note_on_c, 5, 74, 70
7, 41712, Note_on_c, 5, 70, 70
7, 41744, Note_off_c, 5, 70, 70
7, 41744, Note_off_c, 5, 74, 70
7, 41744, Note_off_c, 5, 67, 70
7, 41808, Note_on_c, 5, 65, 70
7, 41840, Note_off_c, 5, 65, 70
7, 41904, Note_on_c, 5, 65, 70
7, 41936, Note_off_c, 5, 65, 70
7, 42000, Note_on_c, 5, 65, 70
7, 42032, Note_off_c, 5, 65, 70
7, 42096, Note_on_c, 5, 67, 70
7, 42096, Note_on_c, 5, 74, 70
7, 42096, Note_on_c, 5, 70, 70
7, 42128, Note_off_c, 5, 70, 70
7, 42128, Note_off_c, 5, 74, 70
7, 42128, Note_off_c, 5, 67, 70
7, 42192, Note_on_c, 5, 65, 70
7, 42224, Note_off_c, 5, 65, 70
7, 42288, Note_on_c, 5, 65, 70
7, 42320, Note_off_c, 5, 65, 70
7, 42384, Note_on_c, 5, 65, 70
7, 42416, Note_off_c, 5, 65, 70
7, 42480, Note_on_c, 5, 67, 70
7, 42480, Note_on_c, 5, 74, 70
7, 42480, Note_on_c, 5, 70, 70
7, 42512, Note_off_c, 5, 70, 70
7, 42512, Note_off_c, 5, 74, 70
7, 42512, Note_off_c, 5, 67, 70
7, 42576, Note_on_c, 5, 65, 70
7, 42608, Note_off_c, 5, 65, 70
7, 42672, Note_on_c, 5, 65, 70
7, 42704, Note_off_c, 5, 65, 70
7, 42768, Note_on_c, 5, 65, 70
7, 42800, Note_off_c, 5, 65, 70
7, 42864, Note_on_c, 5, 67, 70
7, 42864, Note_on_c, 5, 74, 70
7, 42864, Note_on_c, 5, 70, 70
7, 42896, Note_off_c, 5, 70, 70
7, 42896, Note_off_c, 5, 74, 70
7, 42896, Note_off_c, 5, 67, 70
7, 42960, Note_on_c, 5, 65, 70
7, 42992, Note_off_c, 5, 65, 70
7, 43056, Note_on_c, 5, 65, 70
7, 43088, Note_off_c, 5, 65, 70
7, 43152, Note_on_c, 5, 65, 70
7, 43184, Note_off_c, 5, 65, 70
7, 43248, Note_on_c, 5, 67, 70
7, 43248, Note_on_c, 5, 74, 70
7, 43248, Note_on_c, 5, 70, 70
7, 43280, Note_off_c, 5, 70, 70
7, 43280, Note_off_c, 5, 74, 70
7, 43280, Note_off_c, 5, 67, 70
7, 43344, Note_on_c, 5, 65, 70
7, 43376, Note_off_c, 5, 65, 70
7, 43440, Note_on_c, 5, 65, 70
7, 43472, Note_off_c, 5, 65, 70
7, 43536, Note_on_c, 5, 65, 70
7, 43568, Note_off_c, 5, 65, 70
7, 43632, Note_on_c, 5, 67, 70
7, 43632, Note_on_c, 5, 74, 70
7, 43632, Note_on_c, 5, 70, 70
7, 43664, Note_off_c, 5, 70, 70
7, 43664, Note_off_c, 5, 74, 70
7, 43664, Note_off_c, 5, 67, 70
7, 43728, Note_on_c, 5, 65, 70
7, 43760, Note_off_c, 5, 65, 70
7, 43824, Note_on_c, 5, 65, 70
7, 43856, Note_off_c, 5, 65, 70
7, 43920, Note_on_c, 5, 65, 70
7, 43952, Note_off_c, 5, 65, 70
7, 44016, Note_on_c, 5, 67, 70
7, 44016, Note_on_c, 5, 74, 70
7, 44016, Note_on_c, 5, 70, 70
7, 44048, Note_off_c, 5, 70, 70
7, 44048, Note_off_c, 5, 74, 70
7, 44048, Note_off_c, 5, 67, 70
7, 44112, Note_on_c, 5, 65, 70
7, 44144, Note_off_c, 5, 65, 70
7, 44208, Note_on_c, 5, 65, 70
7, 44240, Note_off_c, 5, 65, 70
7, 44304, Note_on_c, 5, 65, 70
7, 44336, Note_off_c, 5, 65, 70
7, 44400, Note_on_c, 5, 67, 70
7, 44400, Note_on_c, 5, 74, 70
7, 44400, Note_on_c, 5, 70, 70
7, 44432, Note_off_c, 5, 70, 70
7, 44432, Note_off_c, 5, 74, 70
7, 44432, Note_off_c, 5, 67, 70
7, 44496, Note_on_c, 5, 65, 70
7, 44528, Note_off_c, 5, 65, 70
7, 44592, Note_on_c, 5, 65, 70
7, 44624, Note_off_c, 5, 65, 70
7, 44688, Note_on_c, 5, 65, 70
7, 44720, Note_off_c, 5, 65, 70
7, 44784, Note_on_c, 5, 67, 70
7, 44784, Note_on_c, 5, 74, 70
7, 44784, Note_on_c, 5, 70, 70
7, 44816, Note_off_c, 5, 70, 70
7, 44816, Note_off_c, 5, 74, 70
7, 44816, Note_off_c, 5, 67, 70
7, 44880, Note_on_c, 5, 65, 70
7, 44912, Note_off_c, 5, 65, 70
7, 44976, Note_on_c, 5, 65, 70
7, 45008, Note_off_c, 5, 65, 70
7, 45072, Note_on_c, 5, 65, 70
7, 45104, Note_off_c, 5, 65, 70
7, 45168, Note_on_c, 5, 67, 70
7, 45168, Note_on_c, 5, 74, 70
7, 45168, Note_on_c, 5, 70, 70
7, 45200, Note_off_c, 5, 70, 70
7, 45200, Note_off_c, 5, 74, 70
7, 45200, Note_off_c, 5, 67, 70
7, 45264, Note_on_c, 5, 65, 70
7, 45296, Note_off_c, 5, 65, 70
7, 45360, Note_on_c, 5, 65, 70
7, 45392, Note_off_c, 5, 65, 70
7, 45456, Note_on_c, 5, 65, 70
7, 45488, Note_off_c, 5, 65, 70
7, 45552, Note_on_c, 5, 67, 70
7, 45552, Note_on_c, 5, 74, 70
7, 45552, Note_on_c, 5, 70, 70
7, 45584, Note_off_c, 5, 70, 70
7, 45584, Note_off_c, 5, 74, 70
7, 45584, Note_off_c, 5, 67, 70
7, 45648, Note_on_c, 5, 65, 70
7, 45680, Note_off_c, 5, 65, 70
7, 45744, Note_on_c, 5, 65, 70
7, 45776, Note_off_c, 5, 65, 70
7, 45840, Note_on_c, 5, 65, 70
7, 45872, Note_off_c, 5, 65, 70
7, 45936, Note_on_c, 5, 67, 70
7, 45936, Note_on_c, 5, 74, 70
7, 45936, Note_on_c, 5, 70, 70
7, 45968, Note_off_c, 5, 70, 70
7, 45968, Note_off_c, 5, 74, 70
7, 45968, Note_off_c, 5, 67, 70
7, 46032, Note_on_c, 5, 65, 70
7, 46064, Note_off_c, 5, 65, 70
7, 46128, Note_on_c, 5, 65, 70
7, 46160, Note_off_c, 5, 65, 70
7, 46224, Note_on_c, 5, 65, 70
7, 46256, Note_off_c, 5, 65, 70
7, 46320, Note_on_c, 5, 67, 70
7, 46320, Note_on_c, 5, 74, 70
7, 46320, Note_on_c, 5, 70, 70
7, 46352, Note_off_c, 5, 70, 70
7, 46352, Note_off_c, 5, 74, 70
7, 46352, Note_off_c, 5, 67, 70
7, 46416, Note_on_c, 5, 65, 70
7, 46448, Note_off_c, 5, 65, 70
7, 46512, Note_on_c, 5, 65, 70
7, 46544, Note_off_c, 5, 65, 70
7, 46608, Note_on_c, 5, 65, 70
7, 46640, Note_off_c, 5, 65, 70
7, 46704, Note_on_c, 5, 67, 70
7, 46704, Note_on_c, 5, 74, 70
7, 46704, Note_on_c, 5, 70, 70
7, 46736, Note_off_c, 5, 70, 70
7, 46736, Note_off_c, 5, 74, 70
7, 46736, Note_off_c, 5, 67, 70
7, 46800, Note_on_c, 5, 65, 70
7, 46832, Note_off_c, 5, 65, 70
7, 46896, Note_on_c, 5, 65, 70
7, 46928, Note_off_c, 5, 65, 70
7, 46992, Note_on_c, 5, 65, 70
7, 47024, Note_off_c, 5, 65, 70
7, 47088, Note_on_c, 5, 67, 70
7, 47088, Note_on_c, 5, 74, 70
7, 47088, Note_on_c, 5, 70, 70
7, 47120, Note_off_c, 5, 70, 70
7, 47120, Note_off_c, 5, 74, 70
7, 47120, Note_off_c, 5, 67, 70
7, 47184, Note_on_c, 5, 65, 70
7, 47216, Note_off_c, 5, 65, 70
7, 47280, Note_on_c, 5, 65, 70
7, 47312, Note_off_c, 5, 65, 70
7, 47376, Note_on_c, 5, 65, 70
7, 47408, Note_off_c, 5, 65, 70
7, 47472, Note_on_c, 5, 67, 70
7, 47472, Note_on_c, 5, 74, 70
7, 47472, Note_on_c, 5, 70, 70
7, 47504, Note_off_c, 5, 70, 70
7, 47504, Note_off_c, 5, 74, 70
7, 47504, Note_off_c, 5, 67, 70
7, 47568, Note_on_c, 5, 65, 70
7, 47600, Note_off_c, 5, 65, 70
7, 47664, Note_on_c, 5, 65, 70
7, 47696, Note_off_c, 5, 65, 70
7, 47760, Note_on_c, 5, 65, 70
7, 47792, Note_off_c, 5, 65, 70
7, 47856, Note_on_c, 5, 67, 70
7, 47856, Note_on_c, 5, 74, 70
7, 47856, Note_on_c, 5, 70, 70
7, 47888, Note_off_c, 5, 70, 70
7, 47888, Note_off_c, 5, 74, 70
7, 47888, Note_off_c, 5, 67, 70
7, 47952, Note_on_c, 5, 65, 70
7, 47984, Note_off_c, 5, 65, 70
7, 48048, Note_on_c, 5, 65, 70
7, 48080, Note_off_c, 5, 65, 70
7, 48144, Note_on_c, 5, 65, 70
7, 48176, Note_off_c, 5, 65, 70
7, 48240, Note_on_c, 5, 67, 70
7, 48240, Note_on_c, 5, 74, 70
7, 48240, Note_on_c, 5, 70, 70
7, 48272, Note_off_c, 5, 70, 70
7, 48272, Note_off_c, 5, 74, 70
7, 48272, Note_off_c, 5, 67, 70
7, 48336, Note_on_c, 5, 65, 70
7, 48368, Note_off_c, 5, 65, 70
7, 48432, Note_on_c, 5, 65, 70
7, 48464, Note_off_c, 5, 65, 70
7, 48528, Note_on_c, 5, 65, 70
7, 48560, Note_off_c, 5, 65, 70
7, 48720, Note_on_c, 5, 65, 70
7, 48752, Note_off_c, 5, 65, 70
7, 48816, Note_on_c, 5, 65, 70
7, 48848, Note_off_c, 5, 65, 70
7, 48912, Note_on_c, 5, 65, 70
7, 48944, Note_off_c, 5, 65, 70
7, 49104, Note_on_c, 5, 65, 70
7, 49136, Note_off_c, 5, 65, 70
7, 49296, Note_on_c, 5, 53, 60
7, 49328, Note_off_c, 5, 53, 60
7, 49392, Note_on_c, 5, 55, 60
7, 49392, Note_on_c, 5, 62, 60
7, 49392, Note_on_c, 5, 58, 60
7, 49424, Note_off_c, 5, 58, 60
7, 49424, Note_off_c, 5, 62, 60
7, 49424, Note_off_c, 5, 55, 60
7, 49488, Note_on_c, 5, 53, 60
7, 49520, Note_off_c, 5, 53, 60
7, 49680, Note_on_c, 5, 53, 60
7, 49712, Note_off_c, 5, 53, 60
7, 49776, Note_on_c, 5, 55, 60
7, 49776, Note_on_c, 5, 62, 60
7, 49776, Note_on_c, 5, 58, 60
7, 49808, Note_off_c, 5, 58, 60
7, 49808, Note_off_c, 5, 62, 60
7, 49808, Note_off_c, 5, 55, 60
7, 49872, Note_on_c, 5, 53, 60
7, 49904, Note_off_c, 5, 53, 60
7, 50064, Note_on_c, 5, 53, 60
7, 50096, Note_off_c, 5, 53, 60
7, 50160, Note_on_c, 5, 55, 60
7, 50160, Note_on_c, 5, 62, 60
7, 50160, Note_on_c, 5, 58, 60
7, 50192, Note_off_c, 5, 58, 60
7, 50192, Note_off_c, 5, 62, 60
7, 50192, Note_off_c, 5, 55, 60
7, 50256, Note_on_c, 5, 53, 60
7, 50288, Note_off_c, 5, 53, 60
7, 50448, Note_on_c, 5, 53, 60
7, 50480, Note_off_c, 5, 53, 60
7, 50544, Note_on_c, 5, 55, 60
7, 50544, Note_on_c, 5, 62, 60
7, 50544, Note_on_c, 5, 58, 60
7, 50576, Note_off_c, 5, 58, 60
7, 50576, Note_off_c, 5, 62, 60
7, 50576, Note_off_c, 5, 55, 60
7, 50640, Note_on_c, 5, 53, 60
7, 50672, Note_off_c, 5, 53, 60
7, 50736, Note_on_c, 5, 65, 70
7, 50768, Note_off_c, 5, 65, 70
7, 50832, Note_on_c, 5, 65, 70
7, 50864, Note_off_c, 5, 65, 70
7, 50928, Note_on_c, 5, 67, 70
7, 50928, Note_on_c, 5, 74, 70
7, 50928, Note_on_c, 5, 70, 70
7, 50960, Note_off_c, 5, 70, 70
7, 50960, Note_off_c, 5, 74, 70
7, 50960, Note_off_c, 5, 67, 70
7, 51024, Note_on_c, 5, 65, 70
7, 51056, Note_off_c, 5, 65, 70
7, 51120, Note_on_c, 5, 65, 70
7, 51152, Note_off_c, 5, 65, 70
7, 51216, Note_on_c, 5, 65, 70
7, 51248, Note_off_c, 5, 65, 70
7, 51312, Note_on_c, 5, 67, 70
7, 51312, Note_on_c, 5, 74, 70
7, 51312, Note_on_c, 5, 70, 70
7, 51344, Note_off_c, 5, 70, 70
7, 51344, Note_off_c, 5, 74, 70
7, 51344, Note_off_c, 5, 67, 70
7, 51408, Note_on_c, 5, 65, 70
7, 51440, Note_off_c, 5, 65, 70
7, 51504, Note_on_c, 5, 65, 70
7, 51536, Note_off_c, 5, 65, 70
7, 51600, Note_on_c, 5, 65, 70
7, 51632, Note_off_c, 5, 65, 70
7, 51696, Note_on_c, 5, 67, 70
7, 51696, Note_on_c, 5, 74, 70
7, 51696, Note_on_c, 5, 70, 70
7, 51728, Note_off_c, 5, 70, 70
7, 51728, Note_off_c, 5, 74, 70
7, 51728, Note_off_c, 5, 67, 70
7, 51792, Note_on_c, 5, 65, 70
7, 51824, Note_off_c, 5, 65, 70
7, 51888, Note_on_c, 5, 65, 70
7, 51920, Note_off_c, 5, 65, 70
7, 51984, Note_on_c, 5, 65, 70
7, 52016, Note_off_c, 5, 65, 70
7, 52080, Note_on_c, 5, 67, 70
7, 52080, Note_on_c, 5, 74, 70
7, 52080, Note_on_c, 5, 70, 70
7, 52112, Note_off_c, 5, 70, 70
7, 52112, Note_off_c, 5, 74, 70
7, 52112, Note_off_c, 5, 67, 70
7, 52176, Note_on_c, 5, 65, 70
7, 52208, Note_off_c, 5, 65, 70
7, 52272, Note_on_c, 5, 65, 70
7, 52304, Note_off_c, 5, 65, 70
7, 52368, Note_on_c, 5, 65, 70
7, 52400, Note_off_c, 5, 65, 70
7, 52464, Note_on_c, 5, 67, 70
7, 52464, Note_on_c, 5, 74, 70
7, 52464, Note_on_c, 5, 70, 70
7, 52496, Note_off_c, 5, 70, 70
7, 52496, Note_off_c, 5, 74, 70
7, 52496, Note_off_c, 5, 67, 70
7, 52560, Note_on_c, 5, 65, 70
7, 52592, Note_off_c, 5, 65, 70
7, 52656, Note_on_c, 5, 65, 70
7, 52688, Note_off_c, 5, 65, 70
7, 52752, Note_on_c, 5, 65, 70
7, 52784, Note_off_c, 5, 65, 70
7, 52848, Note_on_c, 5, 67, 70
7, 52848, Note_on_c, 5, 74, 70
7, 52848, Note_on_c, 5, 70, 70
7, 52880, Note_off_c, 5, 70, 70
7, 52880, Note_off_c, 5, 74, 70
7, 52880, Note_off_c, 5, 67, 70
7, 52944, Note_on_c, 5, 65, 70
7, 52976, Note_off_c, 5, 65, 70
7, 53040, Note_on_c, 5, 65, 70
7, 53072, Note_off_c, 5, 65, 70
7, 53136, Note_on_c, 5, 65, 70
7, 53168, Note_off_c, 5, 65, 70
7, 53232, Note_on_c, 5, 67, 70
7, 53232, Note_on_c, 5, 74, 70
7, 53232, Note_on_c, 5, 70, 70
7, 53264, Note_off_c, 5, 70, 70
7, 53264, Note_off_c, 5, 74, 70
7, 53264, Note_off_c, 5, 67, 70
7, 53328, Note_on_c, 5, 65, 70
7, 53360, Note_off_c, 5, 65, 70
7, 53424, Note_on_c, 5, 65, 70
7, 53456, Note_off_c, 5, 65, 70
7, 53520, Note_on_c, 5, 65, 70
7, 53552, Note_off_c, 5, 65, 70
7, 53616, Note_on_c, 5, 67, 70
7, 53616, Note_on_c, 5, 74, 70
7, 53616, Note_on_c, 5, 70, 70
7, 53648, Note_off_c, 5, 70, 70
7, 53648, Note_off_c, 5, 74, 70
7, 53648, Note_off_c, 5, 67, 70
7, 53712, Note_on_c, 5, 65, 70
7, 53744, Note_off_c, 5, 65, 70
7, 53808, Note_on_c, 5, 65, 70
7, 53840, Note_off_c, 5, 65, 70
7, 53904, Note_on_c, 5, 65, 70
7, 53936, Note_off_c, 5, 65, 70
7, 54000, Note_on_c, 5, 67, 70
7, 54000, Note_on_c, 5, 74, 70
7, 54000, Note_on_c, 5, 70, 70
7, 54032, Note_off_c, 5, 70, 70
7, 54032, Note_off_c, 5, 74, 70
7, 54032, Note_off_c, 5, 67, 70
7, 54096, Note_on_c, 5, 65, 70
7, 54128, Note_off_c, 5, 65, 70
7, 54192, Note_on_c, 5, 65, 70
7, 54224, Note_off_c, 5, 65, 70
7, 54288, Note_on_c, 5, 65, 70
7, 54320, Note_off_c, 5, 65, 70
7, 54384, Note_on_c, 5, 67, 70
7, 54384, Note_on_c, 5, 74, 70
7, 54384, Note_on_c, 5, 70, 70
7, 54416, Note_off_c, 5, 70, 70
7, 54416, Note_off_c, 5, 74, 70
7, 54416, Note_off_c, 5, 67, 70
7, 54480, Note_on_c, 5, 65, 70
7, 54512, Note_off_c, 5, 65, 70
7, 54576, Note_on_c, 5, 65, 70
7, 54608, Note_off_c, 5, 65, 70
7, 54672, Note_on_c, 5, 65, 70
7, 54704, Note_off_c, 5, 65, 70
7, 54768, Note_on_c, 5, 67, 70
7, 54768, Note_on_c, 5, 74, 70
7, 54768, Note_on_c, 5, 70, 70
7, 54800, Note_off_c, 5, 70, 70
7, 54800, Note_off_c, 5, 74, 70
7, 54800, Note_off_c, 5, 67, 70
7, 54864, Note_on_c, 5, 65, 70
7, 54896, Note_off_c, 5, 65, 70
7, 54960, Note_on_c, 5, 65, 70
7, 54992, Note_off_c, 5, 65, 70
7, 55056, Note_on_c, 5, 65, 70
7, 55088, Note_off_c, 5, 65, 70
7, 55152, Note_on_c, 5, 67, 70
7, 55152, Note_on_c, 5, 74, 70
7, 55152, Note_on_c, 5, 70, 70
7, 55184, Note_off_c, 5, 70, 70
7, 55184, Note_off_c, 5, 74, 70
7, 55184, Note_off_c, 5, 67, 70
7, 55248, Note_on_c, 5, 65, 70
7, 55280, Note_off_c, 5, 65, 70
7, 55344, Note_on_c, 5, 65, 70
7, 55376, Note_off_c, 5, 65, 70
7, 55440, Note_on_c, 5, 65, 70
7, 55472, Note_off_c, 5, 65, 70
7, 55536, Note_on_c, 5, 67, 70
7, 55536, Note_on_c, 5, 74, 70
7, 55536, Note_on_c, 5, 70, 70
7, 55568, Note_off_c, 5, 70, 70
7, 55568, Note_off_c, 5, 74, 70
7, 55568, Note_off_c, 5, 67, 70
7, 55632, Note_on_c, 5, 65, 70
7, 55664, Note_off_c, 5, 65, 70
7, 55728, Note_on_c, 5, 65, 70
7, 55760, Note_off_c, 5, 65, 70
7, 55824, Note_on_c, 5, 65, 70
7, 55856, Note_off_c, 5, 65, 70
7, 55920, Note_on_c, 5, 67, 70
7, 55920, Note_on_c, 5, 74, 70
7, 55920, Note_on_c, 5, 70, 70
7, 55952, Note_off_c, 5, 70, 70
7, 55952, Note_off_c, 5, 74, 70
7, 55952, Note_off_c, 5, 67, 70
7, 56016, Note_on_c, 5, 65, 70
7, 56048, Note_off_c, 5, 65, 70
7, 56112, Note_on_c, 5, 65, 70
7, 56144, Note_off_c, 5, 65, 70
7, 56208, Note_on_c, 5, 65, 70
7, 56240, Note_off_c, 5, 65, 70
7, 56304, Note_on_c, 5, 67, 70
7, 56304, Note_on_c, 5, 74, 70
7, 56304, Note_on_c, 5, 70, 70
7, 56336, Note_off_c, 5, 70, 70
7, 56336, Note_off_c, 5, 74, 70
7, 56336, Note_off_c, 5, 67, 70
7, 56400, Note_on_c, 5, 65, 70
7, 56432, Note_off_c, 5, 65, 70
7, 56496, Note_on_c, 5, 65, 70
7, 56528, Note_off_c, 5, 65, 70
7, 56592, Note_on_c, 5, 65, 70
7, 56624, Note_off_c, 5, 65, 70
7, 56688, Note_on_c, 5, 67, 70
7, 56688, Note_on_c, 5, 74, 70
7, 56688, Note_on_c, 5, 70, 70
7, 56720, Note_off_c, 5, 70, 70
7, 56720, Note_off_c, 5, 74, 70
7, 56720, Note_off_c, 5, 67, 70
7, 56784, Note_on_c, 5, 65, 70
7, 56816, Note_off_c, 5, 65, 70
7, 56880, Note_on_c, 5, 65, 70
7, 56912, Note_off_c, 5, 65, 70
7, 56976, Note_on_c, 5, 65, 70
7, 57008, Note_off_c, 5, 65, 70
7, 57072, Note_on_c, 5, 67, 70
7, 57072, Note_on_c, 5, 74, 70
7, 57072, Note_on_c, 5, 70, 70
7, 57104, Note_off_c, 5, 70, 70
7, 57104, Note_off_c, 5, 74, 70
7, 57104, Note_off_c, 5, 67, 70
7, 57168, Note_on_c, 5, 65, 70
7, 57200, Note_off_c, 5, 65, 70
7, 57264, Note_on_c, 5, 65, 70
7, 57296, Note_off_c, 5, 65, 70
7, 57360, Note_on_c, 5, 65, 70
7, 57392, Note_off_c, 5, 65, 70
7, 57456, Note_on_c, 5, 67, 70
7, 57456, Note_on_c, 5, 74, 70
7, 57456, Note_on_c, 5, 70, 70
7, 57488, Note_off_c, 5, 70, 70
7, 57488, Note_off_c, 5, 74, 70
7, 57488, Note_off_c, 5, 67, 70
7, 57552, Note_on_c, 5, 65, 70
7, 57584, Note_off_c, 5, 65, 70
7, 57648, Note_on_c, 5, 65, 70
7, 57680, Note_off_c, 5, 65, 70
7, 57744, Note_on_c, 5, 65, 70
7, 57776, Note_off_c, 5, 65, 70
7, 57840, Note_on_c, 5, 67, 70
7, 57840, Note_on_c, 5, 74, 70
7, 57840, Note_on_c, 5, 70, 70
7, 57872, Note_off_c, 5, 70, 70
7, 57872, Note_off_c, 5, 74, 70
7, 57872, Note_off_c, 5, 67, 70
7, 57936, Note_on_c, 5, 65, 70
7, 57968, Note_off_c, 5, 65, 70
7, 58032, Note_on_c, 5, 65, 70
7, 58064, Note_off_c, 5, 65, 70
7, 58128, Note_on_c, 5, 65, 70
7, 58160, Note_off_c, 5, 65, 70
7, 58224, Note_on_c, 5, 67, 70
7, 58224, Note_on_c, 5, 74, 70
7, 58224, Note_on_c, 5, 70, 70
7, 58256, Note_off_c, 5, 70, 70
7, 58256, Note_off_c, 5, 74, 70
7, 58256, Note_off_c, 5, 67, 70
7, 58320, Note_on_c, 5, 65, 70
7, 58352, Note_off_c, 5, 65, 70
7, 58416, Note_on_c, 5, 65, 70
7, 58448, Note_off_c, 5, 65, 70
7, 58512, Note_on_c, 5, 65, 70
7, 58544, Note_off_c, 5, 65, 70
7, 58608, Note_on_c, 5, 67, 70
7, 58608, Note_on_c, 5, 74, 70
7, 58608, Note_on_c, 5, 70, 70
7, 58640, Note_off_c, 5, 70, 70
7, 58640, Note_off_c, 5, 74, 70
7, 58640, Note_off_c, 5, 67, 70
7, 58704, Note_on_c, 5, 65, 70
7, 58736, Note_off_c, 5, 65, 70
7, 58800, Note_on_c, 5, 65, 70
7, 58832, Note_off_c, 5, 65, 70
7, 58896, Note_on_c, 5, 65, 70
7, 58928, Note_off_c, 5, 65, 70
7, 58992, Note_on_c, 5, 67, 70
7, 58992, Note_on_c, 5, 74, 70
7, 58992, Note_on_c, 5, 70, 70
7, 59024, Note_off_c, 5, 70, 70
7, 59024, Note_off_c, 5, 74, 70
7, 59024, Note_off_c, 5, 67, 70
7, 59088, Note_on_c, 5, 65, 70
7, 59120, Note_off_c, 5, 65, 70
7, 59184, Note_on_c, 5, 65, 70
7, 59216, Note_off_c, 5, 65, 70
7, 59280, Note_on_c, 5, 65, 70
7, 59312, Note_off_c, 5, 65, 70
7, 59376, Note_on_c, 5, 67, 70
7, 59376, Note_on_c, 5, 74, 70
7, 59376, Note_on_c, 5, 70, 70
7, 59408, Note_off_c, 5, 70, 70
7, 59408, Note_off_c, 5, 74, 70
7, 59408, Note_off_c, 5, 67, 70
7, 59472, Note_on_c, 5, 65, 70
7, 59504, Note_off_c, 5, 65, 70
7, 59568, Note_on_c, 5, 65, 70
7, 59600, Note_off_c, 5, 65, 70
7, 59664, Note_on_c, 5, 65, 70
7, 59696, Note_off_c, 5, 65, 70
7, 59760, Note_on_c, 5, 67, 70
7, 59760, Note_on_c, 5, 74, 70
7, 59760, Note_on_c, 5, 70, 70
7, 59792, Note_off_c, 5, 70, 70
7, 59792, Note_off_c, 5, 74, 70
7, 59792, Note_off_c, 5, 67, 70
7, 59856, Note_on_c, 5, 65, 70
7, 59888, Note_off_c, 5, 65, 70
7, 59952, Note_on_c, 5, 65, 70
7, 59984, Note_off_c, 5, 65, 70
7, 60048, Note_on_c, 5, 65, 70
7, 60080, Note_off_c, 5, 65, 70
7, 60144, Note_on_c, 5, 67, 70
7, 60144, Note_on_c, 5, 74, 70
7, 60144, Note_on_c, 5, 70, 70
7, 60176, Note_off_c, 5, 70, 70
7, 60176, Note_off_c, 5, 74, 70
7, 60176, Note_off_c, 5, 67, 70
7, 60240, Note_on_c, 5, 65, 70
7, 60272, Note_off_c, 5, 65, 70
7, 60336, Note_on_c, 5, 65, 70
7, 60368, Note_off_c, 5, 65, 70
7, 60432, Note_on_c, 5, 65, 70
7, 60464, Note_off_c, 5, 65, 70
7, 60528, Note_on_c, 5, 67, 70
7, 60528, Note_on_c, 5, 74, 70
7, 60528, Note_on_c, 5, 70, 70
7, 60560, Note_off_c, 5, 70, 70
7, 60560, Note_off_c, 5, 74, 70
7, 60560, Note_off_c, 5, 67, 70
7, 60624, Note_on_c, 5, 65, 70
7, 60656, Note_off_c, 5, 65, 70
7, 60720, Note_on_c, 5, 65, 70
7, 60752, Note_off_c, 5, 65, 70
7, 60816, Note_on_c, 5, 65, 70
7, 60848, Note_off_c, 5, 65, 70
7, 60912, Note_on_c, 5, 67, 70
7, 60912, Note_on_c, 5, 74, 70
7, 60912, Note_on_c, 5, 70, 70
7, 60944, Note_off_c, 5, 70, 70
7, 60944, Note_off_c, 5, 74, 70
7, 60944, Note_off_c, 5, 67, 70
7, 61008, Note_on_c, 5, 65, 70
7, 61040, Note_off_c, 5, 65, 70
7, 61104, Note_on_c, 5, 65, 70
7, 61136, Note_off_c, 5, 65, 70
7, 61200, Note_on_c, 5, 65, 70
7, 61232, Note_off_c, 5, 65, 70
7, 61296, Note_on_c, 5, 67, 70
7, 61296, Note_on_c, 5, 74, 70
7, 61296, Note_on_c, 5, 70, 70
7, 61328, Note_off_c, 5, 70, 70
7, 61328, Note_off_c, 5, 74, 70
7, 61328, Note_off_c, 5, 67, 70
7, 61392, Note_on_c, 5, 65, 70
7, 61424, Note_off_c, 5, 65, 70
7, 61488, Note_on_c, 5, 65, 70
7, 61520, Note_off_c, 5, 65, 70
7, 61584, Note_on_c, 5, 65, 70
7, 61616, Note_off_c, 5, 65, 70
7, 61680, Note_on_c, 5, 67, 70
7, 61680, Note_on_c, 5, 74, 70
7, 61680, Note_on_c, 5, 70, 70
7, 61712, Note_off_c, 5, 70, 70
7, 61712, Note_off_c, 5, 74, 70
7, 61712, Note_off_c, 5, 67, 70
7, 61776, Note_on_c, 5, 65, 70
7, 61808, Note_off_c, 5, 65, 70
7, 61872, Note_on_c, 5, 65, 70
7, 61904, Note_off_c, 5, 65, 70
7, 61968, Note_on_c, 5, 65, 70
7, 62000, Note_off_c, 5, 65, 70
7, 62064, Note_on_c, 5, 67, 70
7, 62064, Note_on_c, 5, 74, 70
7, 62064, Note_on_c, 5, 70, 70
7, 62096, Note_off_c, 5, 70, 70
7, 62096, Note_off_c, 5, 74, 70
7, 62096, Note_off_c, 5, 67, 70
7, 62160, Note_on_c, 5, 65, 70
7, 62192, Note_off_c, 5, 65, 70
7, 62256, Note_on_c, 5, 65, 70
7, 62288, Note_off_c, 5, 65, 70
7, 62352, Note_on_c, 5, 65, 70
7, 62384, Note_off_c, 5, 65, 70
7, 62448, Note_on_c, 5, 67, 70
7, 62448, Note_on_c, 5, 74, 70
7, 62448, Note_on_c, 5, 70, 70
7, 62480, Note_off_c, 5, 70, 70
7, 62480, Note_off_c, 5, 74, 70
7, 62480, Note_off_c, 5, 67, 70
7, 62544, Note_on_c, 5, 65, 70
7, 62576, Note_off_c, 5, 65, 70
7, 62640, Note_on_c, 5, 65, 70
7, 62672, Note_off_c, 5, 65, 70
7, 62736, Note_on_c, 5, 65, 70
7, 62768, Note_off_c, 5, 65, 70
7, 62832, Note_on_c, 5, 67, 70
7, 62832, Note_on_c, 5, 74, 70
7, 62832, Note_on_c, 5, 70, 70
7, 62864, Note_off_c, 5, 70, 70
7, 62864, Note_off_c, 5, 74, 70
7, 62864, Note_off_c, 5, 67, 70
7, 62928, Note_on_c, 5, 65, 70
7, 62960, Note_off_c, 5, 65, 70
7, 63024, Note_on_c, 5, 65, 70
7, 63056, Note_off_c, 5, 65, 70
7, 63120, Note_on_c, 5, 65, 70
7, 63152, Note_off_c, 5, 65, 70
7, 63216, Note_on_c, 5, 67, 70
7, 63216, Note_on_c, 5, 74, 70
7, 63216, Note_on_c, 5, 70, 70
7, 63248, Note_off_c, 5, 70, 70
7, 63248, Note_off_c, 5, 74, 70
7, 63248, Note_off_c, 5, 67, 70
7, 63312, Note_on_c, 5, 65, 70
7, 63344, Note_off_c, 5, 65, 70
7, 63408, Note_on_c, 5, 65, 70
7, 63440, Note_off_c, 5, 65, 70
7, 63504, Note_on_c, 5, 65, 70
7, 63536, Note_off_c, 5, 65, 70
7, 63600, Note_on_c, 5, 67, 70
7, 63600, Note_on_c, 5, 74, 70
7, 63600, Note_on_c, 5, 70, 70
7, 63632, Note_off_c, 5, 70, 70
7, 63632, Note_off_c, 5, 74, 70
7, 63632, Note_off_c, 5, 67, 70
7, 63696, Note_on_c, 5, 65, 70
7, 63728, Note_off_c, 5, 65, 70
7, 63792, Note_on_c, 5, 65, 70
7, 63824, Note_off_c, 5, 65, 70
7, 63888, Note_on_c, 5, 65, 70
7, 63920, Note_off_c, 5, 65, 70
7, 63984, Note_on_c, 5, 67, 70
7, 63984, Note_on_c, 5, 74, 70
7, 63984, Note_on_c, 5, 70, 70
7, 64016, Note_off_c, 5, 70, 70
7, 64016, Note_off_c, 5, 74, 70
7, 64016, Note_off_c, 5, 67, 70
7, 64080, Note_on_c, 5, 65, 70
7, 64112, Note_off_c, 5, 65, 70
7, 64176, Note_on_c, 5, 65, 70
7, 64208, Note_off_c, 5, 65, 70
7, 64272, Note_on_c, 5, 65, 70
7, 64304, Note_off_c, 5, 65, 70
7, 64368, Note_on_c, 5, 67, 70
7, 64368, Note_on_c, 5, 74, 70
7, 64368, Note_on_c, 5, 70, 70
7, 64400, Note_off_c, 5, 70, 70
7, 64400, Note_off_c, 5, 74, 70
7, 64400, Note_off_c, 5, 67, 70
7, 64464, Note_on_c, 5, 65, 70
7, 64496, Note_off_c, 5, 65, 70
7, 64560, Note_on_c, 5, 65, 70
7, 64592, Note_off_c, 5, 65, 70
7, 64656, Note_on_c, 5, 65, 70
7, 64688, Note_off_c, 5, 65, 70
7, 64752, Note_on_c, 5, 67, 70
7, 64752, Note_on_c, 5, 74, 70
7, 64752, Note_on_c, 5, 70, 70
7, 64784, Note_off_c, 5, 70, 70
7, 64784, Note_off_c, 5, 74, 70
7, 64784, Note_off_c, 5, 67, 70
7, 64848, Note_on_c, 5, 65, 70
7, 64880, Note_off_c, 5, 65, 70
7, 64944, Note_on_c, 5, 65, 70
7, 64976, Note_off_c, 5, 65, 70
7, 65040, Note_on_c, 5, 65, 70
7, 65072, Note_off_c, 5, 65, 70
7, 65136, Note_on_c, 5, 67, 70
7, 65136, Note_on_c, 5, 74, 70
7, 65136, Note_on_c, 5, 70, 70
7, 65168, Note_off_c, 5, 70, 70
7, 65168, Note_off_c, 5, 74, 70
7, 65168, Note_off_c, 5, 67, 70
7, 65232, Note_on_c, 5, 65, 70
7, 65264, Note_off_c, 5, 65, 70
7, 65328, Note_on_c, 5, 65, 70
7, 65360, Note_off_c, 5, 65, 70
7, 65424, Note_on_c, 5, 65, 70
7, 65456, Note_off_c, 5, 65, 70
7, 65520, Note_on_c, 5, 67, 70
7, 65520, Note_on_c, 5, 74, 70
7, 65520, Note_on_c, 5, 70, 70
7, 65552, Note_off_c, 5, 70, 70
7, 65552, Note_off_c, 5, 74, 70
7, 65552, Note_off_c, 5, 67, 70
7, 65616, Note_on_c, 5, 65, 70
7, 65648, Note_off_c, 5, 65, 70
7, 65712, Note_on_c, 5, 65, 70
7, 65744, Note_off_c, 5, 65, 70
7, 65808, Note_on_c, 5, 65, 70
7, 65840, Note_off_c, 5, 65, 70
7, 65904, Note_on_c, 5, 67, 70
7, 65904, Note_on_c, 5, 74, 70
7, 65904, Note_on_c, 5, 70, 70
7, 65936, Note_off_c, 5, 70, 70
7, 65936, Note_off_c, 5, 74, 70
7, 65936, Note_off_c, 5, 67, 70
7, 66000, Note_on_c, 5, 65, 70
7, 66032, Note_off_c, 5, 65, 70
7, 66096, Note_on_c, 5, 65, 70
7, 66128, Note_off_c, 5, 65, 70
7, 66192, Note_on_c, 5, 65, 70
7, 66224, Note_off_c, 5, 65, 70
7, 66288, Note_on_c, 5, 67, 70
7, 66288, Note_on_c, 5, 74, 70
7, 66288, Note_on_c, 5, 70, 70
7, 66320, Note_off_c, 5, 70, 70
7, 66320, Note_off_c, 5, 74, 70
7, 66320, Note_off_c, 5, 67, 70
7, 66384, Note_on_c, 5, 65, 70
7, 66416, Note_off_c, 5, 65, 70
7, 66480, Note_on_c, 5, 65, 70
7, 66512, Note_off_c, 5, 65, 70
7, 66576, Note_on_c, 5, 65, 70
7, 66608, Note_off_c, 5, 65, 70
7, 66672, Note_on_c, 5, 67, 70
7, 66672, Note_on_c, 5, 74, 70
7, 66672, Note_on_c, 5, 70, 70
7, 66704, Note_off_c, 5, 70, 70
7, 66704, Note_off_c, 5, 74, 70
7, 66704, Note_off_c, 5, 67, 70
7, 66768, Note_on_c, 5, 65, 70
7, 66800, Note_off_c, 5, 65, 70
7, 66864, Note_on_c, 5, 65, 70
7, 66896, Note_off_c, 5, 65, 70
7, 66960, Note_on_c, 5, 65, 70
7, 66992, Note_off_c, 5, 65, 70
7, 67152, Note_on_c, 5, 65, 70
7, 67184, Note_off_c, 5, 65, 70
7, 67248, Note_on_c, 5, 65, 70
7, 67280, Note_off_c, 5, 65, 70
7, 67344, Note_on_c, 5, 65, 70
7, 67376, Note_off_c, 5, 65, 70
7, 67536, Note_on_c, 5, 65, 70
7, 67568, Note_off_c, 5, 65, 70
7, 86016, Note_on_c, 5, 55, 90
7, 86048, Note_off_c, 5, 55, 90
7, 86064, Note_on_c, 5, 58, 90
7, 86096, Note_off_c, 5, 58, 90
7, 86112, Note_on_c, 5, 53, 90
7, 86144, Note_off_c, 5, 53, 90
7, 86160, Note_on_c, 5, 60, 90
7, 86192, Note_off_c, 5, 60, 90
7, 86256, Note_on_c, 5, 58, 90
7, 86288, Note_off_c, 5, 58, 90
7, 86304, Note_on_c, 5, 53, 90
7, 86336, Note_off_c, 5, 53, 90
7, 86400, Note_on_c, 5, 55, 90
7, 86432, Note_off_c, 5, 55, 90
7, 86448, Note_on_c, 5, 58, 90
7, 86480, Note_off_c, 5, 58, 90
7, 86496, Note_on_c, 5, 53, 90
7, 86528, Note_off_c, 5, 53, 90
7, 86544, Note_on_c, 5, 60, 90
7, 86576, Note_off_c, 5, 60, 90
7, 86640, Note_on_c, 5, 58, 90
7, 86672, Note_off_c, 5, 58, 90
7, 86688, Note_on_c, 5, 53, 90
7, 86720, Note_off_c, 5, 53, 90
7, 86784, Note_on_c, 5, 55, 90
7, 86816, Note_off_c, 5, 55, 90
7, 86832, Note_on_c, 5, 58, 90
7, 86864, Note_off_c, 5, 58, 90
7, 86880, Note_on_c, 5, 53, 90
7, 86912, Note_off_c, 5, 53, 90
7, 86928, Note_on_c, 5, 60, 90
7, 86960, Note_off_c, 5, 60, 90
7, 87024, Note_on_c, 5, 58, 90
7, 87056, Note_off_c, 5, 58, 90
7, 87072, Note_on_c, 5, 53, 90
7, 87104, Note_off_c, 5, 53, 90
7, 87168, Note_on_c, 5, 55, 90
7, 87200, Note_off_c, 5, 55, 90
7, 87216, Note_on_c, 5, 58, 90
7, 87248, Note_off_c, 5, 58, 90
7, 87264, Note_on_c, 5, 53, 90
7, 87296, Note_off_c, 5, 53, 90
7, 87312, Note_on_c, 5, 60, 90
7, 87344, Note_off_c, 5, 60, 90
7, 87408, Note_on_c, 5, 58, 90
7, 87440, Note_off_c, 5, 58, 90
7, 87456, Note_on_c, 5, 53, 90
7, 87488, Note_off_c, 5, 53, 90
7, 87552, Note_on_c, 5, 58, 90
7, 87584, Note_off_c, 5, 58, 90
7, 87600, Note_on_c, 5, 60, 90
7, 87632, Note_off_c, 5, 60, 90
7, 87648, Note_on_c, 5, 55, 90
7, 87680, Note_off_c, 5, 55, 90
7, 87696, Note_on_c, 5, 53, 90
7, 87728, Note_off_c, 5, 53, 90
7, 87744, Note_on_c, 5, 58, 90
7, 87776, Note_off_c, 5, 58, 90
7, 87792, Note_on_c, 5, 60, 90
7, 87824, Note_off_c, 5, 60, 90
7, 87840, Note_on_c, 5, 55, 90
7, 87872, Note_off_c, 5, 55, 90
7, 87888, Note_on_c, 5, 53, 90
7, 87920, Note_off_c, 5, 53, 90
7, 87936, Note_on_c, 5, 58, 90
7, 87968, Note_off_c, 5, 58, 90
7, 87984, Note_on_c, 5, 60, 90
7, 88016, Note_off_c, 5, 60, 90
7, 88032, Note_on_c, 5, 55, 90
7, 88064, Note_off_c, 5, 55, 90
7, 88080, Note_on_c, 5, 53, 90
7, 88112, Note_off_c, 5, 53, 90
7, 88128, Note_on_c, 5, 58, 90
7, 88160, Note_off_c, 5, 58, 90
7, 88176, Note_on_c, 5, 60, 90
7, 88208, Note_off_c, 5, 60, 90
7, 88224, Note_on_c, 5, 55, 90
7, 88256, Note_off_c, 5, 55, 90
7, 88272, Note_on_c, 5, 53, 90
7, 88304, Note_off_c, 5, 53, 90
7, 88320, Note_on_c, 5, 58, 90
7, 88352, Note_off_c, 5, 58, 90
7, 88368, Note_on_c, 5, 60, 90
7, 88400, Note_off_c, 5, 60, 90
7, 88416, Note_on_c, 5, 55, 90
7, 88448, Note_off_c, 5, 55, 90
7, 88464, Note_on_c, 5, 53, 90
7, 88496, Note_off_c, 5, 53, 90
7, 88512, Note_on_c, 5, 58, 90
7, 88544, Note_off_c, 5, 58, 90
7, 88560, Note_on_c, 5, 60, 90
7, 88592, Note_off_c, 5, 60, 90
7, 88608, Note_on_c, 5, 55, 90
7, 88640, Note_off_c, 5, 55, 90
7, 88656, Note_on_c, 5, 53, 90
7, 88688, Note_off_c, 5, 53, 90
7, 88704, Note_on_c, 5, 58, 90
7, 88736, Note_off_c, 5, 58, 90
7, 88752, Note_on_c, 5, 60, 90
7, 88784, Note_off_c, 5, 60, 90
7, 88800, Note_on_c, 5, 55, 90
7, 88832, Note_off_c, 5, 55, 90
7, 88848, Note_on_c, 5, 53, 90
7, 88880, Note_off_c, 5, 53, 90
7, 88896, Note_on_c, 5, 58, 90
7, 88928, Note_off_c, 5, 58, 90
7, 88944, Note_on_c, 5, 60, 90
7, 88976, Note_off_c, 5, 60, 90
7, 88992, Note_on_c, 5, 55, 90
7, 89024, Note_off_c, 5, 55, 90
7, 89040, Note_on_c, 5, 53, 90
7, 89072, Note_off_c, 5, 53, 90
7, 89088, Note_on_c, 5, 55, 90
7, 89120, Note_off_c, 5, 55, 90
7, 89136, Note_on_c, 5, 53, 90
7, 89168, Note_off_c, 5, 53, 90
7, 89184, Note_on_c, 5, 58, 90
7, 89216, Note_off_c, 5, 58, 90
7, 89232, Note_on_c, 5, 55, 90
7, 89264, Note_off_c, 5, 55, 90
7, 89328, Note_on_c, 5, 53, 90
7, 89360, Note_off_c, 5, 53, 90
7, 89376, Note_on_c, 5, 58, 90
7, 89408, Note_off_c, 5, 58, 90
7, 89424, Note_on_c, 5, 55, 90
7, 89456, Note_off_c, 5, 55, 90
7, 89472, Note_on_c, 5, 55, 90
7, 89504, Note_off_c, 5, 55, 90
7, 89520, Note_on_c, 5, 53, 90
7, 89552, Note_off_c, 5, 53, 90
7, 89568, Note_on_c, 5, 58, 90
7, 89600, Note_off_c, 5, 58, 90
7, 89616, Note_on_c, 5, 55, 90
7, 89648, Note_off_c, 5, 55, 90
7, 89712, Note_on_c, 5, 53, 90
7, 89744, Note_off_c, 5, 53, 90
7, 89760, Note_on_c, 5, 58, 90
7, 89792, Note_off_c, 5, 58, 90
7, 89808, Note_on_c, 5, 55, 90
7, 89840, Note_off_c, 5, 55, 90
7, 89856, Note_on_c, 5, 55, 90
7, 89888, Note_off_c, 5, 55, 90
7, 89904, Note_on_c, 5, 53, 90
7, 89936, Note_off_c, 5, 53, 90
7, 89952, Note_on_c, 5, 58, 90
7, 89984, Note_off_c, 5, 58, 90
7, 90000, Note_on_c, 5, 55, 90
7, 90032, Note_off_c, 5, 55, 90
7, 90096, Note_on_c, 5, 53, 90
7, 90128, Note_off_c, 5, 53, 90
7, 90144, Note_on_c, 5, 58, 90
7, 90176, Note_off_c, 5, 58, 90
7, 90192, Note_on_c, 5, 55, 90
7, 90224, Note_off_c, 5, 55, 90
7, 90240, Note_on_c, 5, 55, 90
7, 90272, Note_off_c, 5, 55, 90
7, 90288, Note_on_c, 5, 53, 90
7, 90320, Note_off_c, 5, 53, 90
7, 90336, Note_on_c, 5, 58, 90
7, 90368, Note_off_c, 5, 58, 90
7, 90384, Note_on_c, 5, 55, 90
7, 90416, Note_off_c, 5, 55, 90
7, 90480, Note_on_c, 5, 53, 90
7, 90512, Note_off_c, 5, 53, 90
7, 90528, Note_on_c, 5, 58, 90
7, 90560, Note_off_c, 5, 58, 90
7, 90576, Note_on_c, 5, 55, 90
7, 90608, Note_off_c, 5, 55, 90
7, 90624, Note_on_c, 5, 58, 90
7, 90656, Note_off_c, 5, 58, 90
7, 90672, Note_on_c, 5, 53, 90
7, 90704, Note_off_c, 5, 53, 90
7, 90720, Note_on_c, 5, 55, 90
7, 90752, Note_off_c, 5, 55, 90
7, 90768, Note_on_c, 5, 60, 90
7, 90800, Note_off_c, 5, 60, 90
7, 90816, Note_on_c, 5, 58, 90
7, 90848, Note_off_c, 5, 58, 90
7, 90864, Note_on_c, 5, 53, 90
7, 90896, Note_off_c, 5, 53, 90
7, 90912, Note_on_c, 5, 55, 90
7, 90944, Note_off_c, 5, 55, 90
7, 90960, Note_on_c, 5, 60, 90
7, 90992, Note_off_c, 5, 60, 90
7, 91008, Note_on_c, 5, 58, 90
7, 91040, Note_off_c, 5, 58, 90
7, 91056, Note_on_c, 5, 53, 90
7, 91088, Note_off_c, 5, 53, 90
7, 91104, Note_on_c, 5, 55, 90
7, 91136, Note_off_c, 5, 55, 90
7, 91152, Note_on_c, 5, 60, 90
7, 91184, Note_off_c, 5, 60, 90
7, 91200, Note_on_c, 5, 58, 90
7, 91232, Note_off_c, 5, 58, 90
7, 91248, Note_on_c, 5, 53, 90
7, 91280, Note_off_c, 5, 53, 90
7, 91296, Note_on_c, 5, 55, 90
7, 91328, Note_off_c, 5, 55, 90
7, 91344, Note_on_c, 5, 60, 90
7, 91376, Note_off_c, 5, 60, 90
7, 91392, Note_on_c, 5, 58, 90
7, 91424, Note_off_c, 5, 58, 90
7, 91440, Note_on_c, 5, 53, 90
7, 91472, Note_off_c, 5, 53, 90
7, 91488, Note_on_c, 5, 55, 90
7, 91520, Note_off_c, 5, 55, 90
7, 91536, Note_on_c, 5, 60, 90
7, 91568, Note_off_c, 5, 60, 90
7, 91584, Note_on_c, 5, 58, 90
7, 91616, Note_off_c, 5, 58, 90
7, 91632, Note_on_c, 5, 53, 90
7, 91664, Note_off_c, 5, 53, 90
7, 91680, Note_on_c, 5, 55, 90
7, 91712, Note_off_c, 5, 55, 90
7, 91728, Note_on_c, 5, 60, 90
7, 91760, Note_off_c, 5, 60, 90
7, 91776, Note_on_c, 5, 58, 90
7, 91808, Note_off_c, 5, 58, 90
7, 91824, Note_on_c, 5, 53, 90
7, 91856, Note_off_c, 5, 53, 90
7, 91872, Note_on_c, 5, 55, 90
7, 91904, Note_off_c, 5, 55, 90
7, 91920, Note_on_c, 5, 60, 90
7, 91952, Note_off_c, 5, 60, 90
7, 91968, Note_on_c, 5, 58, 90
7, 92000, Note_off_c, 5, 58, 90
7, 92016, Note_on_c, 5, 53, 90
7, 92048, Note_off_c, 5, 53, 90
7, 92064, Note_on_c, 5, 55, 90
7, 92096, Note_off_c, 5, 55, 90
7, 92112, Note_on_c, 5, 60, 90
7, 92144, Note_off_c, 5, 60, 90
7, 92208, Note_on_c, 5, 65, 70
7, 92240, Note_off_c, 5, 65, 70
7, 92304, Note_on_c, 5, 65, 70
7, 92336, Note_off_c, 5, 65, 70
7, 92400, Note_on_c, 5, 67, 70
7, 92400, Note_on_c, 5, 74, 70
7, 92400, Note_on_c, 5, 70, 70
7, 92432, Note_off_c, 5, 70, 70
7, 92432, Note_off_c, 5, 74, 70
7, 92432, Note_off_c, 5, 67, 70
7, 92496, Note_on_c, 5, 65, 70
7, 92528, Note_off_c, 5, 65, 70
7, 92592, Note_on_c, 5, 65, 70
7, 92624, Note_off_c, 5, 65, 70
7, 92688, Note_on_c, 5, 65, 70
7, 92720, Note_off_c, 5, 65, 70
7, 92784, Note_on_c, 5, 67, 70
7, 92784, Note_on_c, 5, 74, 70
7, 92784, Note_on_c, 5, 70, 70
7, 92816, Note_off_c, 5, 70, 70
7, 92816, Note_off_c, 5, 74, 70
7, 92816, Note_off_c, 5, 67, 70
7, 92880, Note_on_c, 5, 65, 70
7, 92912, Note_off_c, 5, 65, 70
7, 92976, Note_on_c, 5, 65, 70
7, 93008, Note_off_c, 5, 65, 70
7, 93072, Note_on_c, 5, 65, 70
7, 93104, Note_off_c, 5, 65, 70
7, 93168, Note_on_c, 5, 67, 70
7, 93168, Note_on_c, 5, 74, 70
7, 93168, Note_on_c, 5, 70, 70
7, 93200, Note_off_c, 5, 70, 70
7, 93200, Note_off_c, 5, 74, 70
7, 93200, Note_off_c, 5, 67, 70
7, 93264, Note_on_c, 5, 65, 70
7, 93296, Note_off_c, 5, 65, 70
7, 93360, Note_on_c, 5, 65, 70
7, 93392, Note_off_c, 5, 65, 70
7, 93456, Note_on_c, 5, 65, 70
7, 93488, Note_off_c, 5, 65, 70
7, 93552, Note_on_c, 5, 67, 70
7, 93552, Note_on_c, 5, 74, 70
7, 93552, Note_on_c, 5, 70, 70
7, 93584, Note_off_c, 5, 70, 70
7, 93584, Note_off_c, 5, 74, 70
7, 93584, Note_off_c, 5, 67, 70
7, 93648, Note_on_c, 5, 65, 70
7, 93680, Note_off_c, 5, 65, 70
7, 93744, Note_on_c, 5, 65, 70
7, 93776, Note_off_c, 5, 65, 70
7, 93840, Note_on_c, 5, 65, 70
7, 93872, Note_off_c, 5, 65, 70
7, 93936, Note_on_c, 5, 67, 70
7, 93936, Note_on_c, 5, 74, 70
7, 93936, Note_on_c, 5, 70, 70
7, 93968, Note_off_c, 5, 70, 70
7, 93968, Note_off_c, 5, 74, 70
7, 93968, Note_off_c, 5, 67, 70
7, 94032, Note_on_c, 5, 65, 70
7, 94064, Note_off_c, 5, 65, 70
7, 94128, Note_on_c, 5, 65, 70
7, 94160, Note_off_c, 5, 65, 70
7, 94224, Note_on_c, 5, 65, 70
7, 94256, Note_off_c, 5, 65, 70
7, 94320, Note_on_c, 5, 67, 70
7, 94320, Note_on_c, 5, 74, 70
7, 94320, Note_on_c, 5, 70, 70
7, 94352, Note_off_c, 5, 70, 70
7, 94352, Note_off_c, 5, 74, 70
7, 94352, Note_off_c, 5, 67, 70
7, 94416, Note_on_c, 5, 65, 70
7, 94448, Note_off_c, 5, 65, 70
7, 94512, Note_on_c, 5, 65, 70
7, 94544, Note_off_c, 5, 65, 70
7, 94608, Note_on_c, 5, 65, 70
7, 94640, Note_off_c, 5, 65, 70
7, 94704, Note_on_c, 5, 67, 70
7, 94704, Note_on_c, 5, 74, 70
7, 94704, Note_on_c, 5, 70, 70
7, 94736, Note_off_c, 5, 70, 70
7, 94736, Note_off_c, 5, 74, 70
7, 94736, Note_off_c, 5, 67, 70
7, 94800, Note_on_c, 5, 65, 70
7, 94832, Note_off_c, 5, 65, 70
7, 94896, Note_on_c, 5, 65, 70
7, 94928, Note_off_c, 5, 65, 70
7, 94992, Note_on_c, 5, 65, 70
7, 95024, Note_off_c, 5, 65, 70
7, 95088, Note_on_c, 5, 67, 70
7, 95088, Note_on_c, 5, 74, 70
7, 95088, Note_on_c, 5, 70, 70
7, 95120, Note_off_c, 5, 70, 70
7, 95120, Note_off_c, 5, 74, 70
7, 95120, Note_off_c, 5, 67, 70
7, 95184, Note_on_c, 5, 65, 70
7, 95216, Note_off_c, 5, 65, 70
7, 95280, Note_on_c, 5, 65, 70
7, 95312, Note_off_c, 5, 65, 70
7, 95376, Note_on_c, 5, 65, 70
7, 95408, Note_off_c, 5, 65, 70
7, 95472, Note_on_c, 5, 67, 70
7, 95472, Note_on_c, 5, 74, 70
7, 95472, Note_on_c, 5, 70, 70
7, 95504, Note_off_c, 5, 70, 70
7, 95504, Note_off_c, 5, 74, 70
7, 95504, Note_off_c, 5, 67, 70
7, 95568, Note_on_c, 5, 65, 70
7, 95600, Note_off_c, 5, 65, 70
7, 95664, Note_on_c, 5, 65, 70
7, 95696, Note_off_c, 5, 65, 70
7, 95760, Note_on_c, 5, 65, 70
7, 95792, Note_off_c, 5, 65, 70
7, 95856, Note_on_c, 5, 67, 70
7, 95856, Note_on_c, 5, 74, 70
7, 95856, Note_on_c, 5, 70, 70
7, 95888, Note_off_c, 5, 70, 70
7, 95888, Note_off_c, 5, 74, 70
7, 95888, Note_off_c, 5, 67, 70
7, 95952, Note_on_c, 5, 65, 70
7, 95984, Note_off_c, 5, 65, 70
7, 96048, Note_on_c, 5, 65, 70
7, 96080, Note_off_c, 5, 65, 70
7, 96144, Note_on_c, 5, 65, 70
7, 96176, Note_off_c, 5, 65, 70
7, 96240, Note_on_c, 5, 67, 70
7, 96240, Note_on_c, 5, 74, 70
7, 96240, Note_on_c, 5, 70, 70
7, 96272, Note_off_c, 5, 70, 70
7, 96272, Note_off_c, 5, 74, 70
7, 96272, Note_off_c, 5, 67, 70
7, 96336, Note_on_c, 5, 65, 70
7, 96368, Note_off_c, 5, 65, 70
7, 96432, Note_on_c, 5, 65, 70
7, 96464, Note_off_c, 5, 65, 70
7, 96528, Note_on_c, 5, 65, 70
7, 96560, Note_off_c, 5, 65, 70
7, 96624, Note_on_c, 5, 67, 70
7, 96624, Note_on_c, 5, 74, 70
7, 96624, Note_on_c, 5, 70, 70
7, 96656, Note_off_c, 5, 70, 70
7, 96656, Note_off_c, 5, 74, 70
7, 96656, Note_off_c, 5, 67, 70
7, 96720, Note_on_c, 5, 65, 70
7, 96752, Note_off_c, 5, 65, 70
7, 96816, Note_on_c, 5, 65, 70
7, 96848, Note_off_c, 5, 65, 70
7, 96912, Note_on_c, 5, 65, 70
7, 96944, Note_off_c, 5, 65, 70
7, 97008, Note_on_c, 5, 67, 70
7, 97008, Note_on_c, 5, 74, 70
7, 97008, Note_on_c, 5, 70, 70
7, 97040, Note_off_c, 5, 70, 70
7, 97040, Note_off_c, 5, 74, 70
7, 97040, Note_off_c, 5, 67, 70
7, 97104, Note_on_c, 5, 65, 70
7, 97136, Note_off_c, 5, 65, 70
7, 97200, Note_on_c, 5, 65, 70
7, 97232, Note_off_c, 5, 65, 70
7, 97296, Note_on_c, 5, 65, 70
7, 97328, Note_off_c, 5, 65, 70
7, 97392, Note_on_c, 5, 67, 70
7, 97392, Note_on_c, 5, 74, 70
7, 97392, Note_on_c, 5, 70, 70
7, 97424, Note_off_c, 5, 70, 70
7, 97424, Note_off_c, 5, 74, 70
7, 97424, Note_off_c, 5, 67, 70
7, 97488, Note_on_c, 5, 65, 70
7, 97520, Note_off_c, 5, 65, 70
7, 97584, Note_on_c, 5, 65, 70
7, 97616, Note_off_c, 5, 65, 70
7, 97680, Note_on_c, 5, 65, 70
7, 97712, Note_off_c, 5, 65, 70
7, 97776, Note_on_c, 5, 67, 70
7, 97776, Note_on_c, 5, 74, 70
7, 97776, Note_on_c, 5, 70, 70
7, 97808, Note_off_c, 5, 70, 70
7, 97808, Note_off_c, 5, 74, 70
7, 97808, Note_off_c, 5, 67, 70
7, 97872, Note_on_c, 5, 65, 70
7, 97904, Note_off_c, 5, 65, 70
7, 97968, Note_on_c, 5, 65, 70
7, 98000, Note_off_c, 5, 65, 70
7, 98064, Note_on_c, 5, 65, 70
7, 98096, Note_off_c, 5, 65, 70
7, 98160, Note_on_c, 5, 67, 70
7, 98160, Note_on_c, 5, 74, 70
7, 98160, Note_on_c, 5, 70, 70
7, 98192, Note_off_c, 5, 70, 70
7, 98192, Note_off_c, 5, 74, 70
7, 98192, Note_off_c, 5, 67, 70
7, 98256, Note_on_c, 5, 65, 70
7, 98288, Note_off_c, 5, 65, 70
7, 98352, Note_on_c, 5, 65, 70
7, 98384, Note_off_c, 5, 65, 70
7, 98448, Note_on_c, 5, 65, 70
7, 98480, Note_off_c, 5, 65, 70
7, 98544, Note_on_c, 5, 67, 70
7, 98544, Note_on_c, 5, 74, 70
7, 98544, Note_on_c, 5, 70, 70
7, 98576, Note_off_c, 5, 70, 70
7, 98576, Note_off_c, 5, 74, 70
7, 98576, Note_off_c, 5, 67, 70
7, 98640, Note_on_c, 5, 65, 70
7, 98672, Note_off_c, 5, 65, 70
7, 98736, Note_on_c, 5, 65, 70
7, 98768, Note_off_c, 5, 65, 70
7, 98832, Note_on_c, 5, 65, 70
7, 98864, Note_off_c, 5, 65, 70
7, 98928, Note_on_c, 5, 67, 70
7, 98928, Note_on_c, 5, 74, 70
7, 98928, Note_on_c, 5, 70, 70
7, 98960, Note_off_c, 5, 70, 70
7, 98960, Note_off_c, 5, 74, 70
7, 98960, Note_off_c, 5, 67, 70
7, 99024, Note_on_c, 5, 65, 70
7, 99056, Note_off_c, 5, 65, 70
7, 99120, Note_on_c, 5, 65, 70
7, 99152, Note_off_c, 5, 65, 70
7, 99216, Note_on_c, 5, 65, 70
7, 99248, Note_off_c, 5, 65, 70
7, 99312, Note_on_c, 5, 67, 70
7, 99312, Note_on_c, 5, 74, 70
7, 99312, Note_on_c, 5, 70, 70
7, 99344, Note_off_c, 5, 70, 70
7, 99344, Note_off_c, 5, 74, 70
7, 99344, Note_off_c, 5, 67, 70
7, 99408, Note_on_c, 5, 65, 70
7, 99440, Note_off_c, 5, 65, 70
7, 99504, Note_on_c, 5, 65, 70
7, 99536, Note_off_c, 5, 65, 70
7, 99600, Note_on_c, 5, 65, 70
7, 99632, Note_off_c, 5, 65, 70
7, 99696, Note_on_c, 5, 67, 70
7, 99696, Note_on_c, 5, 74, 70
7, 99696, Note_on_c, 5, 70, 70
7, 99728, Note_off_c, 5, 70, 70
7, 99728, Note_off_c, 5, 74, 70
7, 99728, Note_off_c, 5, 67, 70
7, 99792, Note_on_c, 5, 65, 70
7, 99824, Note_off_c, 5, 65, 70
7, 99888, Note_on_c, 5, 65, 70
7, 99920, Note_off_c, 5, 65, 70
7, 99984, Note_on_c, 5, 65, 70
7, 100016, Note_off_c, 5, 65, 70
7, 100080, Note_on_c, 5, 67, 70
7, 100080, Note_on_c, 5, 74, 70
7, 100080, Note_on_c, 5, 70, 70
7, 100112, Note_off_c, 5, 70, 70
7, 100112, Note_off_c, 5, 74, 70
7, 100112, Note_off_c, 5, 67, 70
7, 100176, Note_on_c, 5, 65, 70
7, 100208, Note_off_c, 5, 65, 70
7, 100272, Note_on_c, 5, 65, 70
7, 100304, Note_off_c, 5, 65, 70
7, 100368, Note_on_c, 5, 65, 70
7, 100400, Note_off_c, 5, 65, 70
7, 100464, Note_on_c, 5, 67, 70
7, 100464, Note_on_c, 5, 74, 70
7, 100464, Note_on_c, 5, 70, 70
7, 100496, Note_off_c, 5, 70, 70
7, 100496, Note_off_c, 5, 74, 70
7, 100496, Note_off_c, 5, 67, 70
7, 100560, Note_on_c, 5, 65, 70
7, 100592, Note_off_c, 5, 65, 70
7, 100656, Note_on_c, 5, 65, 70
7, 100688, Note_off_c, 5, 65, 70
7, 100752, Note_on_c, 5, 65, 70
7, 100784, Note_off_c, 5, 65, 70
7, 100848, Note_on_c, 5, 67, 70
7, 100848, Note_on_c, 5, 74, 70
7, 100848, Note_on_c, 5, 70, 70
7, 100880, Note_off_c, 5, 70, 70
7, 100880, Note_off_c, 5, 74, 70
7, 100880, Note_off_c, 5, 67, 70
7, 100944, Note_on_c, 5, 65, 70
7, 100976, Note_off_c, 5, 65, 70
7, 101040, Note_on_c, 5, 65, 70
7, 101072, Note_off_c, 5, 65, 70
7, 101136, Note_on_c, 5, 65, 70
7, 101168, Note_off_c, 5, 65, 70
7, 101232, Note_on_c, 5, 67, 70
7, 101232, Note_on_c, 5, 74, 70
7, 101232, Note_on_c, 5, 70, 70
7, 101264, Note_off_c, 5, 70, 70
7, 101264, Note_off_c, 5, 74, 70
7, 101264, Note_off_c, 5, 67, 70
7, 101328, Note_on_c, 5, 65, 70
7, 101360, Note_off_c, 5, 65, 70
7, 101424, Note_on_c, 5, 65, 70
7, 101456, Note_off_c, 5, 65, 70
7, 101520, Note_on_c, 5, 65, 70
7, 101552, Note_off_c, 5, 65, 70
7, 101616, Note_on_c, 5, 67, 70
7, 101616, Note_on_c, 5, 74, 70
7, 101616, Note_on_c, 5, 70, 70
7, 101648, Note_off_c, 5, 70, 70
7, 101648, Note_off_c, 5, 74, 70
7, 101648, Note_off_c, 5, 67, 70
7, 101712, Note_on_c, 5, 65, 70
7, 101744, Note_off_c, 5, 65, 70
7, 101808, Note_on_c, 5, 65, 70
7, 101840, Note_off_c, 5, 65, 70
7, 101904, Note_on_c, 5, 65, 70
7, 101936, Note_off_c, 5, 65, 70
7, 102000, Note_on_c, 5, 67, 70
7, 102000, Note_on_c, 5, 74, 70
7, 102000, Note_on_c, 5, 70, 70
7, 102032, Note_off_c, 5, 70, 70
7, 102032, Note_off_c, 5, 74, 70
7, 102032, Note_off_c, 5, 67, 70
7, 102096, Note_on_c, 5, 65, 70
7, 102128, Note_off_c, 5, 65, 70
7, 102192, Note_on_c, 5, 65, 70
7, 102224, Note_off_c, 5, 65, 70
7, 102288, Note_on_c, 5, 65, 70
7, 102320, Note_off_c, 5, 65, 70
7, 102384, Note_on_c, 5, 67, 70
7, 102384, Note_on_c, 5, 74, 70
7, 102384, Note_on_c, 5, 70, 70
7, 102416, Note_off_c, 5, 70, 70
7, 102416, Note_off_c, 5, 74, 70
7, 102416, Note_off_c, 5, 67, 70
7, 102480, Note_on_c, 5, 65, 70
7, 102512, Note_off_c, 5, 65, 70
7, 102576, Note_on_c, 5, 65, 70
7, 102608, Note_off_c, 5, 65, 70
7, 102672, Note_on_c, 5, 65, 70
7, 102704, Note_off_c, 5, 65, 70
7, 102768, Note_on_c, 5, 67, 70
7, 102768, Note_on_c, 5, 74, 70
7, 102768, Note_on_c, 5, 70, 70
7, 102800, Note_off_c, 5, 70, 70
7, 102800, Note_off_c, 5, 74, 70
7, 102800, Note_off_c, 5, 67, 70
7, 102864, Note_on_c, 5, 65, 70
7, 102896, Note_off_c, 5, 65, 70
7, 102960, Note_on_c, 5, 65, 70
7, 102992, Note_off_c, 5, 65, 70
7, 103056, Note_on_c, 5, 65, 70
7, 103088, Note_off_c, 5, 65, 70
7, 103152, Note_on_c, 5, 67, 70
7, 103152, Note_on_c, 5, 74, 70
7, 103152, Note_on_c, 5, 70, 70
7, 103184, Note_off_c, 5, 70, 70
7, 103184, Note_off_c, 5, 74, 70
7, 103184, Note_off_c, 5, 67, 70
7, 103248, Note_on_c, 5, 65, 70
7, 103280, Note_off_c, 5, 65, 70
7, 103344, Note_on_c, 5, 65, 70
7, 103376, Note_off_c, 5, 65, 70
7, 103440, Note_on_c, 5, 65, 70
7, 103472, Note_off_c, 5, 65, 70
7, 103536, Note_on_c, 5, 67, 70
7, 103536, Note_on_c, 5, 74, 70
7, 103536, Note_on_c, 5, 70, 70
7, 103568, Note_off_c, 5, 70, 70
7, 103568, Note_off_c, 5, 74, 70
7, 103568, Note_off_c, 5, 67, 70
7, 103632, Note_on_c, 5, 65, 70
7, 103664, Note_off_c, 5, 65, 70
7, 103728, Note_on_c, 5, 65, 70
7, 103760, Note_off_c, 5, 65, 70
7, 103824, Note_on_c, 5, 65, 70
7, 103856, Note_off_c, 5, 65, 70
7, 103920, Note_on_c, 5, 69, 70
7, 103920, Note_on_c, 5, 77, 70
7, 103920, Note_on_c, 5, 72, 70
7, 103952, Note_off_c, 5, 72, 70
7, 103952, Note_off_c, 5, 77, 70
7, 103952, Note_off_c, 5, 69, 70
7, 104016, Note_on_c, 5, 65, 70
7, 104048, Note_off_c, 5, 65, 70
7, 104112, Note_on_c, 5, 65, 70
7, 104144, Note_off_c, 5, 65, 70
7, 104208, Note_on_c, 5, 65, 70
7, 104240, Note_off_c, 5, 65, 70
7, 104304, Note_on_c, 5, 69, 70
7, 104304, Note_on_c, 5, 77, 70
7, 104304, Note_on_c, 5, 72, 70
7, 104336, Note_off_c, 5, 72, 70
7, 104336, Note_off_c, 5, 77, 70
7, 104336, Note_off_c, 5, 69, 70
7, 104400, Note_on_c, 5, 65, 70
7, 104432, Note_off_c, 5, 65, 70
7, 104496, Note_on_c, 5, 65, 70
7, 104528, Note_off_c, 5, 65, 70
7, 104592, Note_on_c, 5, 65, 70
7, 104624, Note_off_c, 5, 65, 70
7, 104688, Note_on_c, 5, 67, 70
7, 104688, Note_on_c, 5, 74, 70
7, 104688, Note_on_c, 5, 70, 70
7, 104720, Note_off_c, 5, 70, 70
7, 104720, Note_off_c, 5, 74, 70
7, 104720, Note_off_c, 5, 67, 70
7, 104784, Note_on_c, 5, 65, 70
7, 104816, Note_off_c, 5, 65, 70
7, 104880, Note_on_c, 5, 65, 70
7, 104912, Note_off_c, 5, 65, 70
7, 104976, Note_on_c, 5, 65, 70
7, 105008, Note_off_c, 5, 65, 70
7, 105072, Note_on_c, 5, 67, 70
7, 105072, Note_on_c, 5, 74, 70
7, 105072, Note_on_c, 5, 70, 70
7, 105104, Note_off_c, 5, 70, 70
7, 105104, Note_off_c, 5, 74, 70
7, 105104, Note_off_c, 5, 67, 70
7, 105168, Note_on_c, 5, 65, 70
7, 105200, Note_off_c, 5, 65, 70
7, 105264, Note_on_c, 5, 65, 70
7, 105296, Note_off_c, 5, 65, 70
7, 105360, Note_on_c, 5, 65, 70
7, 105392, Note_off_c, 5, 65, 70
7, 105456, Note_on_c, 5, 67, 70
7, 105456, Note_on_c, 5, 74, 70
7, 105456, Note_on_c, 5, 70, 70
7, 105488, Note_off_c, 5, 70, 70
7, 105488, Note_off_c, 5, 74, 70
7, 105488, Note_off_c, 5, 67, 70
7, 105552, Note_on_c, 5, 65, 70
7, 105584, Note_off_c, 5, 65, 70
7, 105648, Note_on_c, 5, 65, 70
7, 105680, Note_off_c, 5, 65, 70
7, 105744, Note_on_c, 5, 65, 70
7, 105776, Note_off_c, 5, 65, 70
7, 105840, Note_on_c, 5, 67, 70
7, 105840, Note_on_c, 5, 74, 70
7, 105840, Note_on_c, 5, 70, 70
7, 105872, Note_off_c, 5, 70, 70
7, 105872, Note_off_c, 5, 74, 70
7, 105872, Note_off_c, 5, 67, 70
7, 105936, Note_on_c, 5, 65, 70
7, 105968, Note_off_c, 5, 65, 70
7, 106032, Note_on_c, 5, 65, 70
7, 106064, Note_off_c, 5, 65, 70
7, 106128, Note_on_c, 5, 65, 70
7, 106160, Note_off_c, 5, 65, 70
7, 106224, Note_on_c, 5, 67, 70
7, 106224, Note_on_c, 5, 74, 70
7, 106224, Note_on_c, 5, 70, 70
7, 106256, Note_off_c, 5, 70, 70
7, 106256, Note_off_c, 5, 74, 70
7, 106256, Note_off_c, 5, 67, 70
7, 106320, Note_on_c, 5, 65, 70
7, 106352, Note_off_c, 5, 65, 70
7, 106416, Note_on_c, 5, 65, 70
7, 106448, Note_off_c, 5, 65, 70
7, 106512, Note_on_c, 5, 65, 70
7, 106544, Note_off_c, 5, 65, 70
7, 106608, Note_on_c, 5, 67, 70
7, 106608, Note_on_c, 5, 74, 70
7, 106608, Note_on_c, 5, 70, 70
7, 106640, Note_off_c, 5, 70, 70
7, 106640, Note_off_c, 5, 74, 70
7, 106640, Note_off_c, 5, 67, 70
7, 106704, Note_on_c, 5, 65, 70
7, 106736, Note_off_c, 5, 65, 70
7, 106800, Note_on_c, 5, 65, 70
7, 106832, Note_off_c, 5, 65, 70
7, 106896, Note_on_c, 5, 65, 70
7, 106928, Note_off_c, 5, 65, 70
7, 106992, Note_on_c, 5, 67, 70
7, 106992, Note_on_c, 5, 74, 70
7, 106992, Note_on_c, 5, 70, 70
7, 107024, Note_off_c, 5, 70, 70
7, 107024, Note_off_c, 5, 74, 70
7, 107024, Note_off_c, 5, 67, 70
7, 107088, Note_on_c, 5, 65, 70
7, 107120, Note_off_c, 5, 65, 70
7, 107184, Note_on_c, 5, 65, 70
7, 107216, Note_off_c, 5, 65, 70
7, 107280, Note_on_c, 5, 65, 70
7, 107312, Note_off_c, 5, 65, 70
7, 107376, Note_on_c, 5, 67, 70
7, 107376, Note_on_c, 5, 74, 70
7, 107376, Note_on_c, 5, 70, 70
7, 107408, Note_off_c, 5, 70, 70
7, 107408, Note_off_c, 5, 74, 70
7, 107408, Note_off_c, 5, 67, 70
7, 107472, Note_on_c, 5, 65, 70
7, 107504, Note_off_c, 5, 65, 70
7, 107568, Note_on_c, 5, 65, 70
7, 107600, Note_off_c, 5, 65, 70
7, 107664, Note_on_c, 5, 65, 70
7, 107696, Note_off_c, 5, 65, 70
7, 107760, Note_on_c, 5, 67, 70
7, 107760, Note_on_c, 5, 74, 70
7, 107760, Note_on_c, 5, 70, 70
7, 107792, Note_off_c, 5, 70, 70
7, 107792, Note_off_c, 5, 74, 70
7, 107792, Note_off_c, 5, 67, 70
7, 107856, Note_on_c, 5, 65, 70
7, 107888, Note_off_c, 5, 65, 70
7, 107952, Note_on_c, 5, 65, 70
7, 107984, Note_off_c, 5, 65, 70
7, 108048, Note_on_c, 5, 65, 70
7, 108080, Note_off_c, 5, 65, 70
7, 108144, Note_on_c, 5, 67, 70
7, 108144, Note_on_c, 5, 74, 70
7, 108144, Note_on_c, 5, 70, 70
7, 108176, Note_off_c, 5, 70, 70
7, 108176, Note_off_c, 5, 74, 70
7, 108176, Note_off_c, 5, 67, 70
7, 108240, Note_on_c, 5, 65, 70
7, 108272, Note_off_c, 5, 65, 70
7, 108336, Note_on_c, 5, 65, 70
7, 108368, Note_off_c, 5, 65, 70
7, 108432, Note_on_c, 5, 65, 70
7, 108464, Note_off_c, 5, 65, 70
7, 108528, Note_on_c, 5, 67, 70
7, 108528, Note_on_c, 5, 74, 70
7, 108528, Note_on_c, 5, 70, 70
7, 108560, Note_off_c, 5, 70, 70
7, 108560, Note_off_c, 5, 74, 70
7, 108560, Note_off_c, 5, 67, 70
7, 108624, Note_on_c, 5, 65, 70
7, 108656, Note_off_c, 5, 65, 70
7, 108720, Note_on_c, 5, 65, 70
7, 108752, Note_off_c, 5, 65, 70
7, 108816, Note_on_c, 5, 65, 70
7, 108848, Note_off_c, 5, 65, 70
7, 108912, Note_on_c, 5, 67, 70
7, 108912, Note_on_c, 5, 74, 70
7, 108912, Note_on_c, 5, 70, 70
7, 108944, Note_off_c, 5, 70, 70
7, 108944, Note_off_c, 5, 74, 70
7, 108944, Note_off_c, 5, 67, 70
7, 109008, Note_on_c, 5, 65, 70
7, 109040, Note_off_c, 5, 65, 70
7, 109104, Note_on_c, 5, 65, 70
7, 109136, Note_off_c, 5, 65, 70
7, 109200, Note_on_c, 5, 65, 70
7, 109232, Note_off_c, 5, 65, 70
7, 109296, Note_on_c, 5, 67, 70
7, 109296, Note_on_c, 5, 74, 70
7, 109296, Note_on_c, 5, 70, 70
7, 109328, Note_off_c, 5, 70, 70
7, 109328, Note_off_c, 5, 74, 70
7, 109328, Note_off_c, 5, 67, 70
7, 109392, Note_on_c, 5, 65, 70
7, 109424, Note_off_c, 5, 65, 70
7, 109488, Note_on_c, 5, 65, 70
7, 109520, Note_off_c, 5, 65, 70
7, 109584, Note_on_c, 5, 65, 70
7, 109616, Note_off_c, 5, 65, 70
7, 109680, Note_on_c, 5, 67, 70
7, 109680, Note_on_c, 5, 74, 70
7, 109680, Note_on_c, 5, 70, 70
7, 109712, Note_off_c, 5, 70, 70
7, 109712, Note_off_c, 5, 74, 70
7, 109712, Note_off_c, 5, 67, 70
7, 109776, Note_on_c, 5, 65, 70
7, 109808, Note_off_c, 5, 65, 70
7, 109872, Note_on_c, 5, 65, 70
7, 109904, Note_off_c, 5, 65, 70
7, 109968, Note_on_c, 5, 65, 70
7, 110000, Note_off_c, 5, 65, 70
7, 110064, Note_on_c, 5, 69, 70
7, 110064, Note_on_c, 5, 77, 70
7, 110064, Note_on_c, 5, 72, 70
7, 110096, Note_off_c, 5, 72, 70
7, 110096, Note_off_c, 5, 77, 70
7, 110096, Note_off_c, 5, 69, 70
7, 110160, Note_on_c, 5, 65, 70
7, 110192, Note_off_c, 5, 65, 70
7, 110256, Note_on_c, 5, 65, 70
7, 110288, Note_off_c, 5, 65, 70
7, 110352, Note_on_c, 5, 65, 70
7, 110384, Note_off_c, 5, 65, 70
7, 110448, Note_on_c, 5, 69, 70
7, 110448, Note_on_c, 5, 77, 70
7, 110448, Note_on_c, 5, 72, 70
7, 110480, Note_off_c, 5, 72, 70
7, 110480, Note_off_c, 5, 77, 70
7, 110480, Note_off_c, 5, 69, 70
7, 110544, Note_on_c, 5, 65, 70
7, 110576, Note_off_c, 5, 65, 70
7, 110592, Note_on_c, 5, 55, 90
7, 110624, Note_off_c, 5, 55, 90
7, 110640, Note_on_c, 5, 58, 90
7, 110672, Note_off_c, 5, 58, 90
7, 110688, Note_on_c, 5, 53, 90
7, 110720, Note_off_c, 5, 53, 90
7, 110736, Note_on_c, 5, 60, 90
7, 110768, Note_off_c, 5, 60, 90
7, 110832, Note_on_c, 5, 58, 90
7, 110864, Note_off_c, 5, 58, 90
7, 110880, Note_on_c, 5, 53, 90
7, 110912, Note_off_c, 5, 53, 90
7, 110976, Note_on_c, 5, 55, 90
7, 111008, Note_off_c, 5, 55, 90
7, 111024, Note_on_c, 5, 58, 90
7, 111056, Note_off_c, 5, 58, 90
7, 111072, Note_on_c, 5, 53, 90
7, 111104, Note_off_c, 5, 53, 90
7, 111120, Note_on_c, 5, 60, 90
7, 111152, Note_off_c, 5, 60, 90
7, 111216, Note_on_c, 5, 58, 90
7, 111248, Note_off_c, 5, 58, 90
7, 111264, Note_on_c, 5, 53, 90
7, 111296, Note_off_c, 5, 53, 90
7, 111360, Note_on_c, 5, 55, 90
7, 111392, Note_off_c, 5, 55, 90
7, 111408, Note_on_c, 5, 58, 90
7, 111440, Note_off_c, 5, 58, 90
7, 111456, Note_on_c, 5, 53, 90
7, 111488, Note_off_c, 5, 53, 90
7, 111504, Note_on_c, 5, 60, 90
7, 111536, Note_off_c, 5, 60, 90
7, 111600, Note_on_c, 5, 58, 90
7, 111632, Note_off_c, 5, 58, 90
7, 111648, Note_on_c, 5, 53, 90
7, 111680, Note_off_c, 5, 53, 90
7, 111744, Note_on_c, 5, 55, 90
7, 111776, Note_off_c, 5, 55, 90
7, 111792, Note_on_c, 5, 58, 90
7, 111824, Note_off_c, 5, 58, 90
7, 111840, Note_on_c, 5, 53, 90
7, 111872, Note_off_c, 5, 53, 90
7, 111888, Note_on_c, 5, 60, 90
7, 111920, Note_off_c, 5, 60, 90
7, 111984, Note_on_c, 5, 58, 90
7, 112016, Note_off_c, 5, 58, 90
7, 112032, Note_on_c, 5, 53, 90
7, 112064, Note_off_c, 5, 53, 90
7, 112128, Note_on_c, 5, 70, 90
7, 112160, Note_off_c, 5, 70, 90
7, 112176, Note_on_c, 5, 72, 90
7, 112208, Note_off_c, 5, 72, 90
7, 112224, Note_on_c, 5, 67, 90
7, 112256, Note_off_c, 5, 67, 90
7, 112272, Note_on_c, 5, 65, 90
7, 112304, Note_off_c, 5, 65, 90
7, 112320, Note_on_c, 5, 70, 90
7, 112352, Note_off_c, 5, 70, 90
7, 112368, Note_on_c, 5, 72, 90
7, 112400, Note_off_c, 5, 72, 90
7, 112416, Note_on_c, 5, 67, 90
7, 112448, Note_off_c, 5, 67, 90
7, 112464, Note_on_c, 5, 65, 90
7, 112496, Note_off_c, 5, 65, 90
7, 112512, Note_on_c, 5, 70, 90
7, 112544, Note_off_c, 5, 70, 90
7, 112560, Note_on_c, 5, 72, 90
7, 112592, Note_off_c, 5, 72, 90
7, 112608, Note_on_c, 5, 67, 90
7, 112640, Note_off_c, 5, 67, 90
7, 112656, Note_on_c, 5, 65, 90
7, 112688, Note_off_c, 5, 65, 90
7, 112704, Note_on_c, 5, 70, 90
7, 112736, Note_off_c, 5, 70, 90
7, 112752, Note_on_c, 5, 72, 90
7, 112784, Note_off_c, 5, 72, 90
7, 112800, Note_on_c, 5, 67, 90
7, 112832, Note_off_c, 5, 67, 90
7, 112848, Note_on_c, 5, 65, 90
7, 112880, Note_off_c, 5, 65, 90
7, 112896, Note_on_c, 5, 70, 90
7, 112928, Note_off_c, 5, 70, 90
7, 112944, Note_on_c, 5, 72, 90
7, 112976, Note_off_c, 5, 72, 90
7, 112992, Note_on_c, 5, 67, 90
7, 113024, Note_off_c, 5, 67, 90
7, 113040, Note_on_c, 5, 65, 90
7, 113072, Note_off_c, 5, 65, 90
7, 113088, Note_on_c, 5, 70, 90
7, 113120, Note_off_c, 5, 70, 90
7, 113136, Note_on_c, 5, 72, 90
7, 113168, Note_off_c, 5, 72, 90
7, 113184, Note_on_c, 5, 67, 90
7, 113216, Note_off_c, 5, 67, 90
7, 113232, Note_on_c, 5, 65, 90
7, 113264, Note_off_c, 5, 65, 90
7, 113280, Note_on_c, 5, 70, 90
7, 113312, Note_off_c, 5, 70, 90
7, 113328, Note_on_c, 5, 72, 90
7, 113360, Note_off_c, 5, 72, 90
7, 113376, Note_on_c, 5, 67, 90
7, 113408, Note_off_c, 5, 67, 90
7, 113424, Note_on_c, 5, 65, 90
7, 113456, Note_off_c, 5, 65, 90
7, 113472, Note_on_c, 5, 70, 90
7, 113504, Note_off_c, 5, 70, 90
7, 113520, Note_on_c, 5, 72, 90
7, 113552, Note_off_c, 5, 72, 90
7, 113568, Note_on_c, 5, 67, 90
7, 113600, Note_off_c, 5, 67, 90
7, 113616, Note_on_c, 5, 65, 90
7, 113648, Note_off_c, 5, 65, 90
7, 113664, Note_on_c, 5, 55, 90
7, 113696, Note_off_c, 5, 55, 90
7, 113712, Note_on_c, 5, 53, 90
7, 113744, Note_off_c, 5, 53, 90
7, 113760, Note_on_c, 5, 58, 90
7, 113792, Note_off_c, 5, 58, 90
7, 113808, Note_on_c, 5, 55, 90
7, 113840, Note_off_c, 5, 55, 90
7, 113904, Note_on_c, 5, 53, 90
7, 113936, Note_off_c, 5, 53, 90
7, 113952, Note_on_c, 5, 58, 90
7, 113984, Note_off_c, 5, 58, 90
7, 114000, Note_on_c, 5, 55, 90
7, 114032, Note_off_c, 5, 55, 90
7, 114048, Note_on_c, 5, 55, 90
7, 114080, Note_off_c, 5, 55, 90
7, 114096, Note_on_c, 5, 53, 90
7, 114128, Note_off_c, 5, 53, 90
7, 114144, Note_on_c, 5, 58, 90
7, 114176, Note_off_c, 5, 58, 90
7, 114192, Note_on_c, 5, 55, 90
7, 114224, Note_off_c, 5, 55, 90
7, 114288, Note_on_c, 5, 53, 90
7, 114320, Note_off_c, 5, 53, 90
7, 114336, Note_on_c, 5, 58, 90
7, 114368, Note_off_c, 5, 58, 90
7, 114384, Note_on_c, 5, 55, 90
7, 114416, Note_off_c, 5, 55, 90
7, 114432, Note_on_c, 5, 55, 90
7, 114464, Note_off_c, 5, 55, 90
7, 114480, Note_on_c, 5, 53, 90
7, 114512, Note_off_c, 5, 53, 90
7, 114528, Note_on_c, 5, 58, 90
7, 114560, Note_off_c, 5, 58, 90
7, 114576, Note_on_c, 5, 55, 90
7, 114608, Note_off_c, 5, 55, 90
7, 114672, Note_on_c, 5, 53, 90
7, 114704, Note_off_c, 5, 53, 90
7, 114720, Note_on_c, 5, 58, 90
7, 114752, Note_off_c, 5, 58, 90
7, 114768, Note_on_c, 5, 55, 90
7, 114800, Note_off_c, 5, 55, 90
7, 114816, Note_on_c, 5, 55, 90
7, 114848, Note_off_c, 5, 55, 90
7, 114864, Note_on_c, 5, 53, 90
7, 114896, Note_off_c, 5, 53, 90
7, 114912, Note_on_c, 5, 58, 90
7, 114944, Note_off_c, 5, 58, 90
7, 114960, Note_on_c, 5, 55, 90
7, 114992, Note_off_c, 5, 55, 90
7, 115056, Note_on_c, 5, 53, 90
7, 115088, Note_off_c, 5, 53, 90
7, 115104, Note_on_c, 5, 58, 90
7, 115136, Note_off_c, 5, 58, 90
7, 115152, Note_on_c, 5, 55, 90
7, 115184, Note_off_c, 5, 55, 90
7, 115200, Note_on_c, 5, 70, 90
7, 115232, Note_off_c, 5, 70, 90
7, 115248, Note_on_c, 5, 65, 90
7, 115280, Note_off_c, 5, 65, 90
7, 115296, Note_on_c, 5, 67, 90
7, 115328, Note_off_c, 5, 67, 90
7, 115344, Note_on_c, 5, 72, 90
7, 115376, Note_off_c, 5, 72, 90
7, 115392, Note_on_c, 5, 70, 90
7, 115424, Note_off_c, 5, 70, 90
7, 115440, Note_on_c, 5, 65, 90
7, 115472, Note_off_c, 5, 65, 90
7, 115488, Note_on_c, 5, 67, 90
7, 115520, Note_off_c, 5, 67, 90
7, 115536, Note_on_c, 5, 72, 90
7, 115568, Note_off_c, 5, 72, 90
7, 115584, Note_on_c, 5, 70, 90
7, 115616, Note_off_c, 5, 70, 90
7, 115632, Note_on_c, 5, 65, 90
7, 115664, Note_off_c, 5, 65, 90
7, 115680, Note_on_c, 5, 67, 90
7, 115712, Note_off_c, 5, 67, 90
7, 115728, Note_on_c, 5, 72, 90
7, 115760, Note_off_c, 5, 72, 90
7, 115776, Note_on_c, 5, 70, 90
7, 115808, Note_off_c, 5, 70, 90
7, 115824, Note_on_c, 5, 65, 90
7, 115856, Note_off_c, 5, 65, 90
7, 115872, Note_on_c, 5, 67, 90
7, 115904, Note_off_c, 5, 67, 90
7, 115920, Note_on_c, 5, 72, 90
7, 115952, Note_off_c, 5, 72, 90
7, 115968, Note_on_c, 5, 70, 90
7, 116000, Note_off_c, 5, 70, 90
7, 116016, Note_on_c, 5, 65, 90
7, 116048, Note_off_c, 5, 65, 90
7, 116064, Note_on_c, 5, 67, 90
7, 116096, Note_off_c, 5, 67, 90
7, 116112, Note_on_c, 5, 72, 90
7, 116144, Note_off_c, 5, 72, 90
7, 116160, Note_on_c, 5, 70, 90
7, 116192, Note_off_c, 5, 70, 90
7, 116208, Note_on_c, 5, 65, 90
7, 116240, Note_off_c, 5, 65, 90
7, 116256, Note_on_c, 5, 67, 90
7, 116288, Note_off_c, 5, 67, 90
7, 116304, Note_on_c, 5, 72, 90
7, 116336, Note_off_c, 5, 72, 90
7, 116352, Note_on_c, 5, 70, 90
7, 116384, Note_off_c, 5, 70, 90
7, 116400, Note_on_c, 5, 65, 90
7, 116432, Note_off_c, 5, 65, 90
7, 116448, Note_on_c, 5, 67, 90
7, 116480, Note_off_c, 5, 67, 90
7, 116496, Note_on_c, 5, 72, 90
7, 116528, Note_off_c, 5, 72, 90
7, 116544, Note_on_c, 5, 70, 90
7, 116576, Note_off_c, 5, 70, 90
7, 116592, Note_on_c, 5, 65, 90
7, 116624, Note_off_c, 5, 65, 90
7, 116640, Note_on_c, 5, 67, 90
7, 116672, Note_off_c, 5, 67, 90
7, 116688, Note_on_c, 5, 72, 90
7, 116720, Note_off_c, 5, 72, 90
7, 116736, Note_on_c, 5, 55, 90
7, 116768, Note_off_c, 5, 55, 90
7, 116784, Note_on_c, 5, 58, 90
7, 116816, Note_off_c, 5, 58, 90
7, 116832, Note_on_c, 5, 53, 90
7, 116864, Note_off_c, 5, 53, 90
7, 116880, Note_on_c, 5, 60, 90
7, 116912, Note_off_c, 5, 60, 90
7, 116976, Note_on_c, 5, 58, 90
7, 117008, Note_off_c, 5, 58, 90
7, 117024, Note_on_c, 5, 53, 90
7, 117056, Note_off_c, 5, 53, 90
7, 117120, Note_on_c, 5, 55, 90
7, 117152, Note_off_c, 5, 55, 90
7, 117168, Note_on_c, 5, 58, 90
7, 117200, Note_off_c, 5, 58, 90
7, 117216, Note_on_c, 5, 53, 90
7, 117248, Note_off_c, 5, 53, 90
7, 117264, Note_on_c, 5, 60, 90
7, 117296, Note_off_c, 5, 60, 90
7, 117360, Note_on_c, 5, 58, 90
7, 117392, Note_off_c, 5, 58, 90
7, 117408, Note_on_c, 5, 53, 90
7, 117440, Note_off_c, 5, 53, 90
7, 117504, Note_on_c, 5, 55, 90
7, 117536, Note_off_c, 5, 55, 90
7, 117552, Note_on_c, 5, 58, 90
7, 117584, Note_off_c, 5, 58, 90
7, 117600, Note_on_c, 5, 53, 90
7, 117632, Note_off_c, 5, 53, 90
7, 117648, Note_on_c, 5, 60, 90
7, 117680, Note_off_c, 5, 60, 90
7, 117744, Note_on_c, 5, 58, 90
7, 117776, Note_off_c, 5, 58, 90
7, 117792, Note_on_c, 5, 53, 90
7, 117824, Note_off_c, 5, 53, 90
7, 117888, Note_on_c, 5, 55, 90
7, 117920, Note_off_c, 5, 55, 90
7, 117936, Note_on_c, 5, 58, 90
7, 117968, Note_off_c, 5, 58, 90
7, 117984, Note_on_c, 5, 53, 90
7, 118016, Note_off_c, 5, 53, 90
7, 118032, Note_on_c, 5, 60, 90
7, 118064, Note_off_c, 5, 60, 90
7, 118128, Note_on_c, 5, 58, 90
7, 118160, Note_off_c, 5, 58, 90
7, 118176, Note_on_c, 5, 53, 90
7, 118208, Note_off_c, 5, 53, 90
7, 118272, Note_on_c, 5, 70, 90
7, 118304, Note_off_c, 5, 70, 90
7, 118320, Note_on_c, 5, 72, 90
7, 118352, Note_off_c, 5, 72, 90
7, 118368, Note_on_c, 5, 67, 90
7, 118400, Note_off_c, 5, 67, 90
7, 118416, Note_on_c, 5, 65, 90
7, 118448, Note_off_c, 5, 65, 90
7, 118464, Note_on_c, 5, 70, 90
7, 118496, Note_off_c, 5, 70, 90
7, 118512, Note_on_c, 5, 72, 90
7, 118544, Note_off_c, 5, 72, 90
7, 118560, Note_on_c, 5, 67, 90
7, 118592, Note_off_c, 5, 67, 90
7, 118608, Note_on_c, 5, 65, 90
7, 118640, Note_off_c, 5, 65, 90
7, 118656, Note_on_c, 5, 70, 90
7, 118688, Note_off_c, 5, 70, 90
7, 118704, Note_on_c, 5, 72, 90
7, 118736, Note_off_c, 5, 72, 90
7, 118752, Note_on_c, 5, 67, 90
7, 118784, Note_off_c, 5, 67, 90
7, 118800, Note_on_c, 5, 65, 90
7, 118832, Note_off_c, 5, 65, 90
7, 118848, Note_on_c, 5, 70, 90
7, 118880, Note_off_c, 5, 70, 90
7, 118896, Note_on_c, 5, 72, 90
7, 118928, Note_off_c, 5, 72, 90
7, 118944, Note_on_c, 5, 67, 90
7, 118976, Note_off_c, 5, 67, 90
7, 118992, Note_on_c, 5, 65, 90
7, 119024, Note_off_c, 5, 65, 90
7, 119040, Note_on_c, 5, 70, 90
7, 119072, Note_off_c, 5, 70, 90
7, 119088, Note_on_c, 5, 72, 90
7, 119120, Note_off_c, 5, 72, 90
7, 119136, Note_on_c, 5, 67, 90
7, 119168, Note_off_c, 5, 67, 90
7, 119184, Note_on_c, 5, 65, 90
7, 119216, Note_off_c, 5, 65, 90
7, 119232, Note_on_c, 5, 70, 90
7, 119264, Note_off_c, 5, 70, 90
7, 119280, Note_on_c, 5, 72, 90
7, 119312, Note_off_c, 5, 72, 90
7, 119328, Note_on_c, 5, 67, 90
7, 119360, Note_off_c, 5, 67, 90
7, 119376, Note_on_c, 5, 65, 90
7, 119408, Note_off_c, 5, 65, 90
7, 119424, Note_on_c, 5, 70, 90
7, 119456, Note_off_c, 5, 70, 90
7, 119472, Note_on_c, 5, 72, 90
7, 119504, Note_off_c, 5, 72, 90
7, 119520, Note_on_c, 5, 67, 90
7, 119552, Note_off_c, 5, 67, 90
7, 119568, Note_on_c, 5, 65, 90
7, 119600, Note_off_c, 5, 65, 90
7, 119616, Note_on_c, 5, 70, 90
7, 119648, Note_off_c, 5, 70, 90
7, 119664, Note_on_c, 5, 72, 90
7, 119696, Note_off_c, 5, 72, 90
7, 119712, Note_on_c, 5, 67, 90
7, 119744, Note_off_c, 5, 67, 90
7, 119760, Note_on_c, 5, 65, 90
7, 119792, Note_off_c, 5, 65, 90
7, 119808, Note_on_c, 5, 55, 90
7, 119840, Note_off_c, 5, 55, 90
7, 119856, Note_on_c, 5, 53, 90
7, 119888, Note_off_c, 5, 53, 90
7, 119904, Note_on_c, 5, 58, 90
7, 119936, Note_off_c, 5, 58, 90
7, 119952, Note_on_c, 5, 55, 90
7, 119984, Note_off_c, 5, 55, 90
7, 120048, Note_on_c, 5, 53, 90
7, 120080, Note_off_c, 5, 53, 90
7, 120096, Note_on_c, 5, 58, 90
7, 120128, Note_off_c, 5, 58, 90
7, 120144, Note_on_c, 5, 55, 90
7, 120176, Note_off_c, 5, 55, 90
7, 120192, Note_on_c, 5, 55, 90
7, 120224, Note_off_c, 5, 55, 90
7, 120240, Note_on_c, 5, 53, 90
7, 120272, Note_off_c, 5, 53, 90
7, 120288, Note_on_c, 5, 58, 90
7, 120320, Note_off_c, 5, 58, 90
7, 120336, Note_on_c, 5, 55, 90
7, 120368, Note_off_c, 5, 55, 90
7, 120432, Note_on_c, 5, 53, 90
7, 120464, Note_off_c, 5, 53, 90
7, 120480, Note_on_c, 5, 58, 90
7, 120512, Note_off_c, 5, 58, 90
7, 120528, Note_on_c, 5, 55, 90
7, 120560, Note_off_c, 5, 55, 90
7, 120576, Note_on_c, 5, 55, 90
7, 120608, Note_off_c, 5, 55, 90
7, 120624, Note_on_c, 5, 53, 90
7, 120656, Note_off_c, 5, 53, 90
7, 120672, Note_on_c, 5, 58, 90
7, 120704, Note_off_c, 5, 58, 90
7, 120720, Note_on_c, 5, 55, 90
7, 120752, Note_off_c, 5, 55, 90
7, 120816, Note_on_c, 5, 53, 90
7, 120848, Note_off_c, 5, 53, 90
7, 120864, Note_on_c, 5, 58, 90
7, 120896, Note_off_c, 5, 58, 90
7, 120912, Note_on_c, 5, 55, 90
7, 120944, Note_off_c, 5, 55, 90
7, 120960, Note_on_c, 5, 55, 90
7, 120992, Note_off_c, 5, 55, 90
7, 121008, Note_on_c, 5, 53, 90
7, 121040, Note_off_c, 5, 53, 90
7, 121056, Note_on_c, 5, 58, 90
7, 121088, Note_off_c, 5, 58, 90
7, 121104, Note_on_c, 5, 55, 90
7, 121136, Note_off_c, 5, 55, 90
7, 121200, Note_on_c, 5, 53, 90
7, 121232, Note_off_c, 5, 53, 90
7, 121248, Note_on_c, 5, 58, 90
7, 121280, Note_off_c, 5, 58, 90
7, 121296, Note_on_c, 5, 55, 90
7, 121328, Note_off_c, 5, 55, 90
7, 121344, Note_on_c, 5, 70, 90
7, 121376, Note_off_c, 5, 70, 90
7, 121392, Note_on_c, 5, 65, 90
7, 121424, Note_off_c, 5, 65, 90
7, 121440, Note_on_c, 5, 67, 90
7, 121472, Note_off_c, 5, 67, 90
7, 121488, Note_on_c, 5, 72, 90
7, 121520, Note_off_c, 5, 72, 90
7, 121536, Note_on_c, 5, 70, 90
7, 121568, Note_off_c, 5, 70, 90
7, 121584, Note_on_c, 5, 65, 90
7, 121616, Note_off_c, 5, 65, 90
7, 121632, Note_on_c, 5, 67, 90
7, 121664, Note_off_c, 5, 67, 90
7, 121680, Note_on_c, 5, 72, 90
7, 121712, Note_off_c, 5, 72, 90
7, 121728, Note_on_c, 5, 70, 90
7, 121760, Note_off_c, 5, 70, 90
7, 121776, Note_on_c, 5, 65, 90
7, 121808, Note_off_c, 5, 65, 90
7, 121824, Note_on_c, 5, 67, 90
7, 121856, Note_off_c, 5, 67, 90
7, 121872, Note_on_c, 5, 72, 90
7, 121904, Note_off_c, 5, 72, 90
7, 121920, Note_on_c, 5, 70, 90
7, 121952, Note_off_c, 5, 70, 90
7, 121968, Note_on_c, 5, 65, 90
7, 122000, Note_off_c, 5, 65, 90
7, 122016, Note_on_c, 5, 67, 90
7, 122048, Note_off_c, 5, 67, 90
7, 122064, Note_on_c, 5, 72, 90
7, 122096, Note_off_c, 5, 72, 90
7, 122096, End_track
8, 0, Start_track
8, 0, Text_t, "SynthRiff"
8, 2880, Control_c, 6, 0, 0
8, 2882, Control_c, 6, 32, 0
8, 2884, Program_c, 6, 62
8, 2886, Control_c, 6, 7, 100
8, 2888, Control_c, 6, 10, 40
8, 2890, Control_c, 6, 11, 70
8, 2892, Control_c, 6, 91, 50
8, 2894, Control_c, 6, 93, 0
8, 3072, Note_on_c, 6, 51, 115
8, 3100, Note_off_c, 6, 51, 115
8, 3120, Note_on_c, 6, 60, 115
8, 3148, Note_off_c, 6, 60, 115
8, 3168, Note_on_c, 6, 58, 115
8, 3168, Note_on_c, 6, 51, 60
8, 3196, Note_off_c, 6, 51, 60
8, 3196, Note_off_c, 6, 58, 115
8, 3216, Note_on_c, 6, 55, 115
8, 3216, Note_on_c, 6, 60, 60
8, 3244, Note_off_c, 6, 60, 60
8, 3244, Note_off_c, 6, 55, 115
8, 3264, Note_on_c, 6, 51, 115
8, 3264, Note_on_c, 6, 58, 60
8, 3292, Note_off_c, 6, 58, 60
8, 3292, Note_off_c, 6, 51, 115
8, 3312, Note_on_c, 6, 60, 115
8, 3312, Note_on_c, 6, 55, 60
8, 3340, Note_off_c, 6, 55, 60
8, 3340, Note_off_c, 6, 60, 115
8, 3360, Note_on_c, 6, 58, 115
8, 3360, Note_on_c, 6, 51, 60
8, 3388, Note_off_c, 6, 51, 60
8, 3388, Note_off_c, 6, 58, 115
8, 3408, Note_on_c, 6, 55, 115
8, 3408, Note_on_c, 6, 60, 60
8, 3436, Note_off_c, 6, 60, 60
8, 3436, Note_off_c, 6, 55, 115
8, 3456, Note_on_c, 6, 51, 115
8, 3456, Note_on_c, 6, 58, 60
8, 3484, Note_off_c, 6, 58, 60
8, 3484, Note_off_c, 6, 51, 115
8, 3504, Note_on_c, 6, 60, 115
8, 3504, Note_on_c, 6, 55, 60
8, 3532, Note_off_c, 6, 55, 60
8, 3532, Note_off_c, 6, 60, 115
8, 3552, Note_on_c, 6, 58, 115
8, 3552, Note_on_c, 6, 51, 60
8, 3580, Note_off_c, 6, 51, 60
8, 3580, Note_off_c, 6, 58, 115
8, 3600, Note_on_c, 6, 55, 115
8, 3600, Note_on_c, 6, 60, 60
8, 3628, Note_off_c, 6, 60, 60
8, 3628, Note_off_c, 6, 55, 115
8, 3648, Note_on_c, 6, 51, 115
8, 3648, Note_on_c, 6, 58, 60
8, 3676, Note_off_c, 6, 58, 60
8, 3676, Note_off_c, 6, 51, 115
8, 3696, Note_on_c, 6, 60, 115
8, 3696, Note_on_c, 6, 55, 60
8, 3724, Note_off_c, 6, 55, 60
8, 3724, Note_off_c, 6, 60, 115
8, 3744, Note_on_c, 6, 58, 115
8, 3744, Note_on_c, 6, 51, 60
8, 3772, Note_off_c, 6, 51, 60
8, 3772, Note_off_c, 6, 58, 115
8, 3792, Note_on_c, 6, 60, 60
8, 3820, Note_off_c, 6, 60, 60
8, 3840, Note_on_c, 6, 67, 115
8, 3840, Note_on_c, 6, 58, 60
8, 3868, Note_off_c, 6, 58, 60
8, 3868, Note_off_c, 6, 67, 115
8, 3888, Note_on_c, 6, 74, 115
8, 3916, Note_off_c, 6, 74, 115
8, 3936, Note_on_c, 6, 70, 115
8, 3936, Note_on_c, 6, 67, 60
8, 3964, Note_off_c, 6, 67, 60
8, 3964, Note_off_c, 6, 70, 115
8, 3984, Note_on_c, 6, 65, 115
8, 3984, Note_on_c, 6, 74, 60
8, 4012, Note_off_c, 6, 74, 60
8, 4012, Note_off_c, 6, 65, 115
8, 4032, Note_on_c, 6, 67, 115
8, 4032, Note_on_c, 6, 70, 60
8, 4060, Note_off_c, 6, 70, 60
8, 4060, Note_off_c, 6, 67, 115
8, 4080, Note_on_c, 6, 74, 115
8, 4080, Note_on_c, 6, 65, 60
8, 4108, Note_off_c, 6, 65, 60
8, 4108, Note_off_c, 6, 74, 115
8, 4128, Note_on_c, 6, 70, 115
8, 4128, Note_on_c, 6, 67, 60
8, 4156, Note_off_c, 6, 67, 60
8, 4156, Note_off_c, 6, 70, 115
8, 4176, Note_on_c, 6, 65, 115
8, 4176, Note_on_c, 6, 74, 60
8, 4204, Note_off_c, 6, 74, 60
8, 4204, Note_off_c, 6, 65, 115
8, 4224, Note_on_c, 6, 67, 115
8, 4224, Note_on_c, 6, 70, 60
8, 4252, Note_off_c, 6, 70, 60
8, 4252, Note_off_c, 6, 67, 115
8, 4272, Note_on_c, 6, 74, 115
8, 4272, Note_on_c, 6, 65, 60
8, 4300, Note_off_c, 6, 65, 60
8, 4300, Note_off_c, 6, 74, 115
8, 4320, Note_on_c, 6, 70, 115
8, 4320, Note_on_c, 6, 67, 60
8, 4348, Note_off_c, 6, 67, 60
8, 4348, Note_off_c, 6, 70, 115
8, 4368, Note_on_c, 6, 65, 115
8, 4368, Note_on_c, 6, 74, 60
8, 4396, Note_off_c, 6, 74, 60
8, 4396, Note_off_c, 6, 65, 115
8, 4416, Note_on_c, 6, 67, 115
8, 4416, Note_on_c, 6, 70, 60
8, 4444, Note_off_c, 6, 70, 60
8, 4444, Note_off_c, 6, 67, 115
8, 4464, Note_on_c, 6, 74, 115
8, 4464, Note_on_c, 6, 65, 60
8, 4492, Note_off_c, 6, 65, 60
8, 4492, Note_off_c, 6, 74, 115
8, 4512, Note_on_c, 6, 70, 115
8, 4512, Note_on_c, 6, 67, 60
8, 4540, Note_off_c, 6, 67, 60
8, 4540, Note_off_c, 6, 70, 115
8, 4560, Note_on_c, 6, 65, 115
8, 4560, Note_on_c, 6, 74, 60
8, 4588, Note_off_c, 6, 74, 60
8, 4588, Note_off_c, 6, 65, 115
8, 4608, Note_on_c, 6, 51, 115
8, 4608, Note_on_c, 6, 70, 60
8, 4636, Note_off_c, 6, 70, 60
8, 4636, Note_off_c, 6, 51, 115
8, 4656, Note_on_c, 6, 60, 115
8, 4656, Note_on_c, 6, 65, 60
8, 4684, Note_off_c, 6, 65, 60
8, 4684, Note_off_c, 6, 60, 115
8, 4704, Note_on_c, 6, 58, 115
8, 4704, Note_on_c, 6, 51, 60
8, 4732, Note_off_c, 6, 51, 60
8, 4732, Note_off_c, 6, 58, 115
8, 4752, Note_on_c, 6, 55, 115
8, 4752, Note_on_c, 6, 60, 60
8, 4780, Note_off_c, 6, 60, 60
8, 4780, Note_off_c, 6, 55, 115
8, 4800, Note_on_c, 6, 51, 115
8, 4800, Note_on_c, 6, 58, 60
8, 4828, Note_off_c, 6, 58, 60
8, 4828, Note_off_c, 6, 51, 115
8, 4848, Note_on_c, 6, 60, 115
8, 4848, Note_on_c, 6, 55, 60
8, 4876, Note_off_c, 6, 55, 60
8, 4876, Note_off_c, 6, 60, 115
8, 4896, Note_on_c, 6, 58, 115
8, 4896, Note_on_c, 6, 51, 60
8, 4924, Note_off_c, 6, 51, 60
8, 4924, Note_off_c, 6, 58, 115
8, 4944, Note_on_c, 6, 55, 115
8, 4944, Note_on_c, 6, 60, 60
8, 4972, Note_off_c, 6, 60, 60
8, 4972, Note_off_c, 6, 55, 115
8, 4992, Note_on_c, 6, 51, 115
8, 4992, Note_on_c, 6, 58, 60
8, 5020, Note_off_c, 6, 58, 60
8, 5020, Note_off_c, 6, 51, 115
8, 5040, Note_on_c, 6, 60, 115
8, 5040, Note_on_c, 6, 55, 60
8, 5068, Note_off_c, 6, 55, 60
8, 5068, Note_off_c, 6, 60, 115
8, 5088, Note_on_c, 6, 58, 115
8, 5088, Note_on_c, 6, 51, 60
8, 5116, Note_off_c, 6, 51, 60
8, 5116, Note_off_c, 6, 58, 115
8, 5136, Note_on_c, 6, 55, 115
8, 5136, Note_on_c, 6, 60, 60
8, 5164, Note_off_c, 6, 60, 60
8, 5164, Note_off_c, 6, 55, 115
8, 5184, Note_on_c, 6, 51, 115
8, 5184, Note_on_c, 6, 58, 60
8, 5212, Note_off_c, 6, 58, 60
8, 5212, Note_off_c, 6, 51, 115
8, 5232, Note_on_c, 6, 60, 115
8, 5232, Note_on_c, 6, 55, 60
8, 5260, Note_off_c, 6, 55, 60
8, 5260, Note_off_c, 6, 60, 115
8, 5280, Note_on_c, 6, 58, 115
8, 5280, Note_on_c, 6, 51, 60
8, 5308, Note_off_c, 6, 51, 60
8, 5308, Note_off_c, 6, 58, 115
8, 5328, Note_on_c, 6, 60, 60
8, 5356, Note_off_c, 6, 60, 60
8, 5376, Note_on_c, 6, 70, 115
8, 5376, Note_on_c, 6, 58, 60
8, 5404, Note_off_c, 6, 58, 60
8, 5404, Note_off_c, 6, 70, 115
8, 5424, Note_on_c, 6, 65, 115
8, 5452, Note_off_c, 6, 65, 115
8, 5472, Note_on_c, 6, 74, 115
8, 5472, Note_on_c, 6, 70, 60
8, 5500, Note_off_c, 6, 70, 60
8, 5500, Note_off_c, 6, 74, 115
8, 5520, Note_on_c, 6, 67, 115
8, 5520, Note_on_c, 6, 65, 60
8, 5548, Note_off_c, 6, 65, 60
8, 5548, Note_off_c, 6, 67, 115
8, 5568, Note_on_c, 6, 70, 115
8, 5568, Note_on_c, 6, 74, 60
8, 5596, Note_off_c, 6, 74, 60
8, 5596, Note_off_c, 6, 70, 115
8, 5616, Note_on_c, 6, 65, 115
8, 5616, Note_on_c, 6, 67, 60
8, 5644, Note_off_c, 6, 67, 60
8, 5644, Note_off_c, 6, 65, 115
8, 5664, Note_on_c, 6, 74, 115
8, 5664, Note_on_c, 6, 70, 60
8, 5692, Note_off_c, 6, 70, 60
8, 5692, Note_off_c, 6, 74, 115
8, 5712, Note_on_c, 6, 67, 115
8, 5712, Note_on_c, 6, 65, 60
8, 5740, Note_off_c, 6, 65, 60
8, 5740, Note_off_c, 6, 67, 115
8, 5760, Note_on_c, 6, 70, 115
8, 5760, Note_on_c, 6, 74, 60
8, 5788, Note_off_c, 6, 74, 60
8, 5788, Note_off_c, 6, 70, 115
8, 5808, Note_on_c, 6, 65, 115
8, 5808, Note_on_c, 6, 67, 60
8, 5836, Note_off_c, 6, 67, 60
8, 5836, Note_off_c, 6, 65, 115
8, 5856, Note_on_c, 6, 74, 115
8, 5856, Note_on_c, 6, 70, 60
8, 5884, Note_off_c, 6, 70, 60
8, 5884, Note_off_c, 6, 74, 115
8, 5904, Note_on_c, 6, 67, 115
8, 5904, Note_on_c, 6, 65, 60
8, 5932, Note_off_c, 6, 65, 60
8, 5932, Note_off_c, 6, 67, 115
8, 5952, Note_on_c, 6, 70, 115
8, 5952, Note_on_c, 6, 74, 60
8, 5980, Note_off_c, 6, 74, 60
8, 5980, Note_off_c, 6, 70, 115
8, 6000, Note_on_c, 6, 65, 115
8, 6000, Note_on_c, 6, 67, 60
8, 6028, Note_off_c, 6, 67, 60
8, 6028, Note_off_c, 6, 65, 115
8, 6048, Note_on_c, 6, 74, 115
8, 6048, Note_on_c, 6, 70, 60
8, 6076, Note_off_c, 6, 70, 60
8, 6076, Note_off_c, 6, 74, 115
8, 6096, Note_on_c, 6, 67, 115
8, 6096, Note_on_c, 6, 65, 60
8, 6124, Note_off_c, 6, 65, 60
8, 6124, Note_off_c, 6, 67, 115
8, 6144, Note_on_c, 6, 55, 115
8, 6144, Note_on_c, 6, 74, 60
8, 6172, Note_off_c, 6, 74, 60
8, 6172, Note_off_c, 6, 55, 115
8, 6192, Note_on_c, 6, 58, 115
8, 6192, Note_on_c, 6, 67, 60
8, 6220, Note_off_c, 6, 67, 60
8, 6220, Note_off_c, 6, 58, 115
8, 6240, Note_on_c, 6, 60, 115
8, 6240, Note_on_c, 6, 55, 60
8, 6268, Note_off_c, 6, 55, 60
8, 6268, Note_off_c, 6, 60, 115
8, 6288, Note_on_c, 6, 51, 115
8, 6288, Note_on_c, 6, 58, 60
8, 6316, Note_off_c, 6, 58, 60
8, 6316, Note_off_c, 6, 51, 115
8, 6336, Note_on_c, 6, 55, 115
8, 6336, Note_on_c, 6, 60, 60
8, 6364, Note_off_c, 6, 60, 60
8, 6364, Note_off_c, 6, 55, 115
8, 6384, Note_on_c, 6, 58, 115
8, 6384, Note_on_c, 6, 51, 60
8, 6412, Note_off_c, 6, 51, 60
8, 6412, Note_off_c, 6, 58, 115
8, 6432, Note_on_c, 6, 60, 115
8, 6432, Note_on_c, 6, 55, 60
8, 6460, Note_off_c, 6, 55, 60
8, 6460, Note_off_c, 6, 60, 115
8, 6480, Note_on_c, 6, 51, 115
8, 6480, Note_on_c, 6, 58, 60
8, 6508, Note_off_c, 6, 58, 60
8, 6508, Note_off_c, 6, 51, 115
8, 6528, Note_on_c, 6, 55, 115
8, 6528, Note_on_c, 6, 60, 60
8, 6556, Note_off_c, 6, 60, 60
8, 6556, Note_off_c, 6, 55, 115
8, 6576, Note_on_c, 6, 58, 115
8, 6576, Note_on_c, 6, 51, 60
8, 6604, Note_off_c, 6, 51, 60
8, 6604, Note_off_c, 6, 58, 115
8, 6624, Note_on_c, 6, 60, 115
8, 6624, Note_on_c, 6, 55, 60
8, 6652, Note_off_c, 6, 55, 60
8, 6652, Note_off_c, 6, 60, 115
8, 6672, Note_on_c, 6, 51, 115
8, 6672, Note_on_c, 6, 58, 60
8, 6700, Note_off_c, 6, 58, 60
8, 6700, Note_off_c, 6, 51, 115
8, 6720, Note_on_c, 6, 55, 115
8, 6720, Note_on_c, 6, 60, 60
8, 6748, Note_off_c, 6, 60, 60
8, 6748, Note_off_c, 6, 55, 115
8, 6768, Note_on_c, 6, 58, 115
8, 6768, Note_on_c, 6, 51, 60
8, 6796, Note_off_c, 6, 51, 60
8, 6796, Note_off_c, 6, 58, 115
8, 6816, Note_on_c, 6, 60, 115
8, 6816, Note_on_c, 6, 55, 60
8, 6844, Note_off_c, 6, 55, 60
8, 6844, Note_off_c, 6, 60, 115
8, 6864, Note_on_c, 6, 51, 115
8, 6864, Note_on_c, 6, 58, 60
8, 6892, Note_off_c, 6, 58, 60
8, 6892, Note_off_c, 6, 51, 115
8, 6912, Note_on_c, 6, 67, 115
8, 6912, Note_on_c, 6, 60, 60
8, 6940, Note_off_c, 6, 60, 60
8, 6940, Note_off_c, 6, 67, 115
8, 6960, Note_on_c, 6, 70, 115
8, 6960, Note_on_c, 6, 51, 60
8, 6988, Note_off_c, 6, 51, 60
8, 6988, Note_off_c, 6, 70, 115
8, 7008, Note_on_c, 6, 74, 115
8, 7008, Note_on_c, 6, 67, 60
8, 7036, Note_off_c, 6, 67, 60
8, 7036, Note_off_c, 6, 74, 115
8, 7056, Note_on_c, 6, 65, 115
8, 7056, Note_on_c, 6, 70, 60
8, 7084, Note_off_c, 6, 70, 60
8, 7084, Note_off_c, 6, 65, 115
8, 7104, Note_on_c, 6, 67, 115
8, 7104, Note_on_c, 6, 74, 60
8, 7132, Note_off_c, 6, 74, 60
8, 7132, Note_off_c, 6, 67, 115
8, 7152, Note_on_c, 6, 70, 115
8, 7152, Note_on_c, 6, 65, 60
8, 7180, Note_off_c, 6, 65, 60
8, 7180, Note_off_c, 6, 70, 115
8, 7200, Note_on_c, 6, 74, 115
8, 7200, Note_on_c, 6, 67, 60
8, 7228, Note_off_c, 6, 67, 60
8, 7228, Note_off_c, 6, 74, 115
8, 7248, Note_on_c, 6, 65, 115
8, 7248, Note_on_c, 6, 70, 60
8, 7276, Note_off_c, 6, 70, 60
8, 7276, Note_off_c, 6, 65, 115
8, 7296, Note_on_c, 6, 67, 115
8, 7296, Note_on_c, 6, 74, 60
8, 7324, Note_off_c, 6, 74, 60
8, 7324, Note_off_c, 6, 67, 115
8, 7344, Note_on_c, 6, 70, 115
8, 7344, Note_on_c, 6, 65, 60
8, 7372, Note_off_c, 6, 65, 60
8, 7372, Note_off_c, 6, 70, 115
8, 7392, Note_on_c, 6, 74, 115
8, 7392, Note_on_c, 6, 67, 60
8, 7420, Note_off_c, 6, 67, 60
8, 7420, Note_off_c, 6, 74, 115
8, 7440, Note_on_c, 6, 65, 115
8, 7440, Note_on_c, 6, 70, 60
8, 7468, Note_off_c, 6, 70, 60
8, 7468, Note_off_c, 6, 65, 115
8, 7488, Note_on_c, 6, 67, 115
8, 7488, Note_on_c, 6, 74, 60
8, 7516, Note_off_c, 6, 74, 60
8, 7516, Note_off_c, 6, 67, 115
8, 7536, Note_on_c, 6, 70, 115
8, 7536, Note_on_c, 6, 65, 60
8, 7564, Note_off_c, 6, 65, 60
8, 7564, Note_off_c, 6, 70, 115
8, 7584, Note_on_c, 6, 74, 115
8, 7584, Note_on_c, 6, 67, 60
8, 7612, Note_off_c, 6, 67, 60
8, 7612, Note_off_c, 6, 74, 115
8, 7632, Note_on_c, 6, 65, 115
8, 7632, Note_on_c, 6, 70, 60
8, 7660, Note_off_c, 6, 70, 60
8, 7660, Note_off_c, 6, 65, 115
8, 7680, Note_on_c, 6, 55, 115
8, 7680, Note_on_c, 6, 74, 60
8, 7708, Note_off_c, 6, 74, 60
8, 7708, Note_off_c, 6, 55, 115
8, 7728, Note_on_c, 6, 58, 115
8, 7728, Note_on_c, 6, 65, 60
8, 7756, Note_off_c, 6, 65, 60
8, 7756, Note_off_c, 6, 58, 115
8, 7776, Note_on_c, 6, 60, 115
8, 7776, Note_on_c, 6, 55, 60
8, 7804, Note_off_c, 6, 55, 60
8, 7804, Note_off_c, 6, 60, 115
8, 7824, Note_on_c, 6, 51, 115
8, 7824, Note_on_c, 6, 58, 60
8, 7852, Note_off_c, 6, 58, 60
8, 7852, Note_off_c, 6, 51, 115
8, 7872, Note_on_c, 6, 55, 115
8, 7872, Note_on_c, 6, 60, 60
8, 7900, Note_off_c, 6, 60, 60
8, 7900, Note_off_c, 6, 55, 115
8, 7920, Note_on_c, 6, 58, 115
8, 7920, Note_on_c, 6, 51, 60
8, 7948, Note_off_c, 6, 51, 60
8, 7948, Note_off_c, 6, 58, 115
8, 7968, Note_on_c, 6, 60, 115
8, 7968, Note_on_c, 6, 55, 60
8, 7996, Note_off_c, 6, 55, 60
8, 7996, Note_off_c, 6, 60, 115
8, 8016, Note_on_c, 6, 51, 115
8, 8016, Note_on_c, 6, 58, 60
8, 8044, Note_off_c, 6, 58, 60
8, 8044, Note_off_c, 6, 51, 115
8, 8064, Note_on_c, 6, 55, 115
8, 8064, Note_on_c, 6, 60, 60
8, 8092, Note_off_c, 6, 60, 60
8, 8092, Note_off_c, 6, 55, 115
8, 8112, Note_on_c, 6, 58, 115
8, 8112, Note_on_c, 6, 51, 60
8, 8140, Note_off_c, 6, 51, 60
8, 8140, Note_off_c, 6, 58, 115
8, 8160, Note_on_c, 6, 60, 115
8, 8160, Note_on_c, 6, 55, 60
8, 8188, Note_off_c, 6, 55, 60
8, 8188, Note_off_c, 6, 60, 115
8, 8208, Note_on_c, 6, 51, 115
8, 8208, Note_on_c, 6, 58, 60
8, 8236, Note_off_c, 6, 58, 60
8, 8236, Note_off_c, 6, 51, 115
8, 8256, Note_on_c, 6, 55, 115
8, 8256, Note_on_c, 6, 60, 60
8, 8284, Note_off_c, 6, 60, 60
8, 8284, Note_off_c, 6, 55, 115
8, 8304, Note_on_c, 6, 58, 115
8, 8304, Note_on_c, 6, 51, 60
8, 8332, Note_off_c, 6, 51, 60
8, 8332, Note_off_c, 6, 58, 115
8, 8352, Note_on_c, 6, 60, 115
8, 8352, Note_on_c, 6, 55, 60
8, 8380, Note_off_c, 6, 55, 60
8, 8380, Note_off_c, 6, 60, 115
8, 8400, Note_on_c, 6, 51, 115
8, 8400, Note_on_c, 6, 58, 60
8, 8428, Note_off_c, 6, 58, 60
8, 8428, Note_off_c, 6, 51, 115
8, 8448, Note_on_c, 6, 67, 115
8, 8448, Note_on_c, 6, 60, 60
8, 8476, Note_off_c, 6, 60, 60
8, 8476, Note_off_c, 6, 67, 115
8, 8496, Note_on_c, 6, 70, 115
8, 8496, Note_on_c, 6, 51, 60
8, 8524, Note_off_c, 6, 51, 60
8, 8524, Note_off_c, 6, 70, 115
8, 8544, Note_on_c, 6, 72, 115
8, 8544, Note_on_c, 6, 67, 60
8, 8572, Note_off_c, 6, 67, 60
8, 8572, Note_off_c, 6, 72, 115
8, 8592, Note_on_c, 6, 65, 115
8, 8592, Note_on_c, 6, 70, 60
8, 8620, Note_off_c, 6, 70, 60
8, 8620, Note_off_c, 6, 65, 115
8, 8640, Note_on_c, 6, 67, 115
8, 8640, Note_on_c, 6, 72, 60
8, 8668, Note_off_c, 6, 72, 60
8, 8668, Note_off_c, 6, 67, 115
8, 8688, Note_on_c, 6, 70, 115
8, 8688, Note_on_c, 6, 65, 60
8, 8716, Note_off_c, 6, 65, 60
8, 8716, Note_off_c, 6, 70, 115
8, 8736, Note_on_c, 6, 72, 115
8, 8736, Note_on_c, 6, 67, 60
8, 8764, Note_off_c, 6, 67, 60
8, 8764, Note_off_c, 6, 72, 115
8, 8784, Note_on_c, 6, 65, 115
8, 8784, Note_on_c, 6, 70, 60
8, 8812, Note_off_c, 6, 70, 60
8, 8812, Note_off_c, 6, 65, 115
8, 8832, Note_on_c, 6, 67, 115
8, 8832, Note_on_c, 6, 72, 60
8, 8860, Note_off_c, 6, 72, 60
8, 8860, Note_off_c, 6, 67, 115
8, 8880, Note_on_c, 6, 70, 115
8, 8880, Note_on_c, 6, 65, 60
8, 8908, Note_off_c, 6, 65, 60
8, 8908, Note_off_c, 6, 70, 115
8, 8928, Note_on_c, 6, 72, 115
8, 8928, Note_on_c, 6, 67, 60
8, 8956, Note_off_c, 6, 67, 60
8, 8956, Note_off_c, 6, 72, 115
8, 8976, Note_on_c, 6, 65, 115
8, 8976, Note_on_c, 6, 70, 60
8, 9004, Note_off_c, 6, 70, 60
8, 9004, Note_off_c, 6, 65, 115
8, 9024, Note_on_c, 6, 67, 115
8, 9024, Note_on_c, 6, 72, 60
8, 9052, Note_off_c, 6, 72, 60
8, 9052, Note_off_c, 6, 67, 115
8, 9072, Note_on_c, 6, 70, 115
8, 9072, Note_on_c, 6, 65, 60
8, 9100, Note_off_c, 6, 65, 60
8, 9100, Note_off_c, 6, 70, 115
8, 9120, Note_on_c, 6, 72, 115
8, 9120, Note_on_c, 6, 67, 60
8, 9148, Note_off_c, 6, 67, 60
8, 9148, Note_off_c, 6, 72, 115
8, 9168, Note_on_c, 6, 65, 115
8, 9168, Note_on_c, 6, 70, 60
8, 9196, Note_off_c, 6, 70, 60
8, 9196, Note_off_c, 6, 65, 115
8, 9216, Note_on_c, 6, 51, 115
8, 9216, Note_on_c, 6, 72, 60
8, 9244, Note_off_c, 6, 72, 60
8, 9244, Note_off_c, 6, 51, 115
8, 9264, Note_on_c, 6, 60, 115
8, 9264, Note_on_c, 6, 65, 60
8, 9292, Note_off_c, 6, 65, 60
8, 9292, Note_off_c, 6, 60, 115
8, 9312, Note_on_c, 6, 58, 115
8, 9312, Note_on_c, 6, 51, 60
8, 9340, Note_off_c, 6, 51, 60
8, 9340, Note_off_c, 6, 58, 115
8, 9360, Note_on_c, 6, 55, 115
8, 9360, Note_on_c, 6, 60, 60
8, 9388, Note_off_c, 6, 60, 60
8, 9388, Note_off_c, 6, 55, 115
8, 9408, Note_on_c, 6, 51, 115
8, 9408, Note_on_c, 6, 58, 60
8, 9436, Note_off_c, 6, 58, 60
8, 9436, Note_off_c, 6, 51, 115
8, 9456, Note_on_c, 6, 60, 115
8, 9456, Note_on_c, 6, 55, 60
8, 9484, Note_off_c, 6, 55, 60
8, 9484, Note_off_c, 6, 60, 115
8, 9504, Note_on_c, 6, 58, 115
8, 9504, Note_on_c, 6, 51, 60
8, 9532, Note_off_c, 6, 51, 60
8, 9532, Note_off_c, 6, 58, 115
8, 9552, Note_on_c, 6, 55, 115
8, 9552, Note_on_c, 6, 60, 60
8, 9580, Note_off_c, 6, 60, 60
8, 9580, Note_off_c, 6, 55, 115
8, 9600, Note_on_c, 6, 51, 115
8, 9600, Note_on_c, 6, 58, 60
8, 9628, Note_off_c, 6, 58, 60
8, 9628, Note_off_c, 6, 51, 115
8, 9648, Note_on_c, 6, 60, 115
8, 9648, Note_on_c, 6, 55, 60
8, 9676, Note_off_c, 6, 55, 60
8, 9676, Note_off_c, 6, 60, 115
8, 9696, Note_on_c, 6, 58, 115
8, 9696, Note_on_c, 6, 51, 60
8, 9724, Note_off_c, 6, 51, 60
8, 9724, Note_off_c, 6, 58, 115
8, 9744, Note_on_c, 6, 55, 115
8, 9744, Note_on_c, 6, 60, 60
8, 9772, Note_off_c, 6, 60, 60
8, 9772, Note_off_c, 6, 55, 115
8, 9792, Note_on_c, 6, 51, 115
8, 9792, Note_on_c, 6, 58, 60
8, 9820, Note_off_c, 6, 58, 60
8, 9820, Note_off_c, 6, 51, 115
8, 9840, Note_on_c, 6, 60, 115
8, 9840, Note_on_c, 6, 55, 60
8, 9868, Note_off_c, 6, 55, 60
8, 9868, Note_off_c, 6, 60, 115
8, 9888, Note_on_c, 6, 58, 115
8, 9888, Note_on_c, 6, 51, 60
8, 9916, Note_off_c, 6, 51, 60
8, 9916, Note_off_c, 6, 58, 115
8, 9936, Note_on_c, 6, 60, 60
8, 9964, Note_off_c, 6, 60, 60
8, 9984, Note_on_c, 6, 67, 115
8, 9984, Note_on_c, 6, 58, 60
8, 10012, Note_off_c, 6, 58, 60
8, 10012, Note_off_c, 6, 67, 115
8, 10032, Note_on_c, 6, 74, 115
8, 10060, Note_off_c, 6, 74, 115
8, 10080, Note_on_c, 6, 70, 115
8, 10080, Note_on_c, 6, 67, 60
8, 10108, Note_off_c, 6, 67, 60
8, 10108, Note_off_c, 6, 70, 115
8, 10128, Note_on_c, 6, 65, 115
8, 10128, Note_on_c, 6, 74, 60
8, 10156, Note_off_c, 6, 74, 60
8, 10156, Note_off_c, 6, 65, 115
8, 10176, Note_on_c, 6, 67, 115
8, 10176, Note_on_c, 6, 70, 60
8, 10204, Note_off_c, 6, 70, 60
8, 10204, Note_off_c, 6, 67, 115
8, 10224, Note_on_c, 6, 74, 115
8, 10224, Note_on_c, 6, 65, 60
8, 10252, Note_off_c, 6, 65, 60
8, 10252, Note_off_c, 6, 74, 115
8, 10272, Note_on_c, 6, 70, 115
8, 10272, Note_on_c, 6, 67, 60
8, 10300, Note_off_c, 6, 67, 60
8, 10300, Note_off_c, 6, 70, 115
8, 10320, Note_on_c, 6, 65, 115
8, 10320, Note_on_c, 6, 74, 60
8, 10348, Note_off_c, 6, 74, 60
8, 10348, Note_off_c, 6, 65, 115
8, 10368, Note_on_c, 6, 67, 115
8, 10368, Note_on_c, 6, 70, 60
8, 10396, Note_off_c, 6, 70, 60
8, 10396, Note_off_c, 6, 67, 115
8, 10416, Note_on_c, 6, 74, 115
8, 10416, Note_on_c, 6, 65, 60
8, 10444, Note_off_c, 6, 65, 60
8, 10444, Note_off_c, 6, 74, 115
8, 10464, Note_on_c, 6, 70, 115
8, 10464, Note_on_c, 6, 67, 60
8, 10492, Note_off_c, 6, 67, 60
8, 10492, Note_off_c, 6, 70, 115
8, 10512, Note_on_c, 6, 65, 115
8, 10512, Note_on_c, 6, 74, 60
8, 10540, Note_off_c, 6, 74, 60
8, 10540, Note_off_c, 6, 65, 115
8, 10560, Note_on_c, 6, 67, 115
8, 10560, Note_on_c, 6, 70, 60
8, 10588, Note_off_c, 6, 70, 60
8, 10588, Note_off_c, 6, 67, 115
8, 10608, Note_on_c, 6, 74, 115
8, 10608, Note_on_c, 6, 65, 60
8, 10636, Note_off_c, 6, 65, 60
8, 10636, Note_off_c, 6, 74, 115
8, 10656, Note_on_c, 6, 70, 115
8, 10656, Note_on_c, 6, 67, 60
8, 10684, Note_off_c, 6, 67, 60
8, 10684, Note_off_c, 6, 70, 115
8, 10704, Note_on_c, 6, 65, 115
8, 10704, Note_on_c, 6, 74, 60
8, 10732, Note_off_c, 6, 74, 60
8, 10732, Note_off_c, 6, 65, 115
8, 10752, Note_on_c, 6, 51, 115
8, 10752, Note_on_c, 6, 70, 60
8, 10780, Note_off_c, 6, 70, 60
8, 10780, Note_off_c, 6, 51, 115
8, 10800, Note_on_c, 6, 60, 115
8, 10800, Note_on_c, 6, 65, 60
8, 10828, Note_off_c, 6, 65, 60
8, 10828, Note_off_c, 6, 60, 115
8, 10848, Note_on_c, 6, 58, 115
8, 10848, Note_on_c, 6, 51, 60
8, 10876, Note_off_c, 6, 51, 60
8, 10876, Note_off_c, 6, 58, 115
8, 10896, Note_on_c, 6, 55, 115
8, 10896, Note_on_c, 6, 60, 60
8, 10924, Note_off_c, 6, 60, 60
8, 10924, Note_off_c, 6, 55, 115
8, 10944, Note_on_c, 6, 51, 115
8, 10944, Note_on_c, 6, 58, 60
8, 10972, Note_off_c, 6, 58, 60
8, 10972, Note_off_c, 6, 51, 115
8, 10992, Note_on_c, 6, 60, 115
8, 10992, Note_on_c, 6, 55, 60
8, 11020, Note_off_c, 6, 55, 60
8, 11020, Note_off_c, 6, 60, 115
8, 11040, Note_on_c, 6, 58, 115
8, 11040, Note_on_c, 6, 51, 60
8, 11068, Note_off_c, 6, 51, 60
8, 11068, Note_off_c, 6, 58, 115
8, 11088, Note_on_c, 6, 55, 115
8, 11088, Note_on_c, 6, 60, 60
8, 11116, Note_off_c, 6, 60, 60
8, 11116, Note_off_c, 6, 55, 115
8, 11136, Note_on_c, 6, 51, 115
8, 11136, Note_on_c, 6, 58, 60
8, 11164, Note_off_c, 6, 58, 60
8, 11164, Note_off_c, 6, 51, 115
8, 11184, Note_on_c, 6, 60, 115
8, 11184, Note_on_c, 6, 55, 60
8, 11212, Note_off_c, 6, 55, 60
8, 11212, Note_off_c, 6, 60, 115
8, 11232, Note_on_c, 6, 58, 115
8, 11232, Note_on_c, 6, 51, 60
8, 11260, Note_off_c, 6, 51, 60
8, 11260, Note_off_c, 6, 58, 115
8, 11280, Note_on_c, 6, 55, 115
8, 11280, Note_on_c, 6, 60, 60
8, 11308, Note_off_c, 6, 60, 60
8, 11308, Note_off_c, 6, 55, 115
8, 11328, Note_on_c, 6, 51, 115
8, 11328, Note_on_c, 6, 58, 60
8, 11356, Note_off_c, 6, 58, 60
8, 11356, Note_off_c, 6, 51, 115
8, 11376, Note_on_c, 6, 60, 115
8, 11376, Note_on_c, 6, 55, 60
8, 11404, Note_off_c, 6, 55, 60
8, 11404, Note_off_c, 6, 60, 115
8, 11424, Note_on_c, 6, 58, 115
8, 11424, Note_on_c, 6, 51, 60
8, 11452, Note_off_c, 6, 51, 60
8, 11452, Note_off_c, 6, 58, 115
8, 11472, Note_on_c, 6, 60, 60
8, 11500, Note_off_c, 6, 60, 60
8, 11520, Note_on_c, 6, 70, 115
8, 11520, Note_on_c, 6, 58, 60
8, 11548, Note_off_c, 6, 58, 60
8, 11548, Note_off_c, 6, 70, 115
8, 11568, Note_on_c, 6, 65, 115
8, 11596, Note_off_c, 6, 65, 115
8, 11616, Note_on_c, 6, 74, 115
8, 11616, Note_on_c, 6, 70, 60
8, 11644, Note_off_c, 6, 70, 60
8, 11644, Note_off_c, 6, 74, 115
8, 11664, Note_on_c, 6, 67, 115
8, 11664, Note_on_c, 6, 65, 60
8, 11692, Note_off_c, 6, 65, 60
8, 11692, Note_off_c, 6, 67, 115
8, 11712, Note_on_c, 6, 70, 115
8, 11712, Note_on_c, 6, 74, 60
8, 11740, Note_off_c, 6, 74, 60
8, 11740, Note_off_c, 6, 70, 115
8, 11760, Note_on_c, 6, 65, 115
8, 11760, Note_on_c, 6, 67, 60
8, 11788, Note_off_c, 6, 67, 60
8, 11788, Note_off_c, 6, 65, 115
8, 11808, Note_on_c, 6, 74, 115
8, 11808, Note_on_c, 6, 70, 60
8, 11836, Note_off_c, 6, 70, 60
8, 11836, Note_off_c, 6, 74, 115
8, 11856, Note_on_c, 6, 67, 115
8, 11856, Note_on_c, 6, 65, 60
8, 11884, Note_off_c, 6, 65, 60
8, 11884, Note_off_c, 6, 67, 115
8, 11904, Note_on_c, 6, 70, 115
8, 11904, Note_on_c, 6, 74, 60
8, 11932, Note_off_c, 6, 74, 60
8, 11932, Note_off_c, 6, 70, 115
8, 11952, Note_on_c, 6, 65, 115
8, 11952, Note_on_c, 6, 67, 60
8, 11980, Note_off_c, 6, 67, 60
8, 11980, Note_off_c, 6, 65, 115
8, 12000, Note_on_c, 6, 74, 115
8, 12000, Note_on_c, 6, 70, 60
8, 12028, Note_off_c, 6, 70, 60
8, 12028, Note_off_c, 6, 74, 115
8, 12048, Note_on_c, 6, 67, 115
8, 12048, Note_on_c, 6, 65, 60
8, 12076, Note_off_c, 6, 65, 60
8, 12076, Note_off_c, 6, 67, 115
8, 12096, Note_on_c, 6, 70, 115
8, 12096, Note_on_c, 6, 74, 60
8, 12124, Note_off_c, 6, 74, 60
8, 12124, Note_off_c, 6, 70, 115
8, 12144, Note_on_c, 6, 65, 115
8, 12144, Note_on_c, 6, 67, 60
8, 12172, Note_off_c, 6, 67, 60
8, 12172, Note_off_c, 6, 65, 115
8, 12192, Note_on_c, 6, 74, 115
8, 12192, Note_on_c, 6, 70, 60
8, 12220, Note_off_c, 6, 70, 60
8, 12220, Note_off_c, 6, 74, 115
8, 12240, Note_on_c, 6, 67, 115
8, 12240, Note_on_c, 6, 65, 60
8, 12268, Note_off_c, 6, 65, 60
8, 12268, Note_off_c, 6, 67, 115
8, 12288, Note_on_c, 6, 55, 115
8, 12288, Note_on_c, 6, 74, 60
8, 12316, Note_off_c, 6, 74, 60
8, 12316, Note_off_c, 6, 55, 115
8, 12336, Note_on_c, 6, 58, 115
8, 12336, Note_on_c, 6, 67, 60
8, 12364, Note_off_c, 6, 67, 60
8, 12364, Note_off_c, 6, 58, 115
8, 12384, Note_on_c, 6, 60, 115
8, 12384, Note_on_c, 6, 55, 60
8, 12412, Note_off_c, 6, 55, 60
8, 12412, Note_off_c, 6, 60, 115
8, 12432, Note_on_c, 6, 51, 115
8, 12432, Note_on_c, 6, 58, 60
8, 12460, Note_off_c, 6, 58, 60
8, 12460, Note_off_c, 6, 51, 115
8, 12480, Note_on_c, 6, 55, 115
8, 12480, Note_on_c, 6, 60, 60
8, 12508, Note_off_c, 6, 60, 60
8, 12508, Note_off_c, 6, 55, 115
8, 12528, Note_on_c, 6, 58, 115
8, 12528, Note_on_c, 6, 51, 60
8, 12556, Note_off_c, 6, 51, 60
8, 12556, Note_off_c, 6, 58, 115
8, 12576, Note_on_c, 6, 60, 115
8, 12576, Note_on_c, 6, 55, 60
8, 12604, Note_off_c, 6, 55, 60
8, 12604, Note_off_c, 6, 60, 115
8, 12624, Note_on_c, 6, 51, 115
8, 12624, Note_on_c, 6, 58, 60
8, 12652, Note_off_c, 6, 58, 60
8, 12652, Note_off_c, 6, 51, 115
8, 12672, Note_on_c, 6, 55, 115
8, 12672, Note_on_c, 6, 60, 60
8, 12700, Note_off_c, 6, 60, 60
8, 12700, Note_off_c, 6, 55, 115
8, 12720, Note_on_c, 6, 58, 115
8, 12720, Note_on_c, 6, 51, 60
8, 12748, Note_off_c, 6, 51, 60
8, 12748, Note_off_c, 6, 58, 115
8, 12768, Note_on_c, 6, 60, 115
8, 12768, Note_on_c, 6, 55, 60
8, 12796, Note_off_c, 6, 55, 60
8, 12796, Note_off_c, 6, 60, 115
8, 12816, Note_on_c, 6, 51, 115
8, 12816, Note_on_c, 6, 58, 60
8, 12844, Note_off_c, 6, 58, 60
8, 12844, Note_off_c, 6, 51, 115
8, 12864, Note_on_c, 6, 55, 115
8, 12864, Note_on_c, 6, 60, 60
8, 12892, Note_off_c, 6, 60, 60
8, 12892, Note_off_c, 6, 55, 115
8, 12912, Note_on_c, 6, 58, 115
8, 12912, Note_on_c, 6, 51, 60
8, 12940, Note_off_c, 6, 51, 60
8, 12940, Note_off_c, 6, 58, 115
8, 12960, Note_on_c, 6, 60, 115
8, 12960, Note_on_c, 6, 55, 60
8, 12988, Note_off_c, 6, 55, 60
8, 12988, Note_off_c, 6, 60, 115
8, 13008, Note_on_c, 6, 51, 115
8, 13008, Note_on_c, 6, 58, 60
8, 13036, Note_off_c, 6, 58, 60
8, 13036, Note_off_c, 6, 51, 115
8, 13056, Note_on_c, 6, 67, 115
8, 13056, Note_on_c, 6, 60, 60
8, 13084, Note_off_c, 6, 60, 60
8, 13084, Note_off_c, 6, 67, 115
8, 13104, Note_on_c, 6, 70, 115
8, 13104, Note_on_c, 6, 51, 60
8, 13132, Note_off_c, 6, 51, 60
8, 13132, Note_off_c, 6, 70, 115
8, 13152, Note_on_c, 6, 74, 115
8, 13152, Note_on_c, 6, 67, 60
8, 13180, Note_off_c, 6, 67, 60
8, 13180, Note_off_c, 6, 74, 115
8, 13200, Note_on_c, 6, 65, 115
8, 13200, Note_on_c, 6, 70, 60
8, 13228, Note_off_c, 6, 70, 60
8, 13228, Note_off_c, 6, 65, 115
8, 13248, Note_on_c, 6, 67, 115
8, 13248, Note_on_c, 6, 74, 60
8, 13276, Note_off_c, 6, 74, 60
8, 13276, Note_off_c, 6, 67, 115
8, 13296, Note_on_c, 6, 70, 115
8, 13296, Note_on_c, 6, 65, 60
8, 13324, Note_off_c, 6, 65, 60
8, 13324, Note_off_c, 6, 70, 115
8, 13344, Note_on_c, 6, 74, 115
8, 13344, Note_on_c, 6, 67, 60
8, 13372, Note_off_c, 6, 67, 60
8, 13372, Note_off_c, 6, 74, 115
8, 13392, Note_on_c, 6, 65, 115
8, 13392, Note_on_c, 6, 70, 60
8, 13420, Note_off_c, 6, 70, 60
8, 13420, Note_off_c, 6, 65, 115
8, 13440, Note_on_c, 6, 67, 115
8, 13440, Note_on_c, 6, 74, 60
8, 13468, Note_off_c, 6, 74, 60
8, 13468, Note_off_c, 6, 67, 115
8, 13488, Note_on_c, 6, 70, 115
8, 13488, Note_on_c, 6, 65, 60
8, 13516, Note_off_c, 6, 65, 60
8, 13516, Note_off_c, 6, 70, 115
8, 13536, Note_on_c, 6, 74, 115
8, 13536, Note_on_c, 6, 67, 60
8, 13564, Note_off_c, 6, 67, 60
8, 13564, Note_off_c, 6, 74, 115
8, 13584, Note_on_c, 6, 65, 115
8, 13584, Note_on_c, 6, 70, 60
8, 13612, Note_off_c, 6, 70, 60
8, 13612, Note_off_c, 6, 65, 115
8, 13632, Note_on_c, 6, 67, 115
8, 13632, Note_on_c, 6, 74, 60
8, 13660, Note_off_c, 6, 74, 60
8, 13660, Note_off_c, 6, 67, 115
8, 13680, Note_on_c, 6, 70, 115
8, 13680, Note_on_c, 6, 65, 60
8, 13708, Note_off_c, 6, 65, 60
8, 13708, Note_off_c, 6, 70, 115
8, 13728, Note_on_c, 6, 74, 115
8, 13728, Note_on_c, 6, 67, 60
8, 13756, Note_off_c, 6, 67, 60
8, 13756, Note_off_c, 6, 74, 115
8, 13776, Note_on_c, 6, 65, 115
8, 13776, Note_on_c, 6, 70, 60
8, 13804, Note_off_c, 6, 70, 60
8, 13804, Note_off_c, 6, 65, 115
8, 13824, Note_on_c, 6, 55, 115
8, 13824, Note_on_c, 6, 74, 60
8, 13852, Note_off_c, 6, 74, 60
8, 13852, Note_off_c, 6, 55, 115
8, 13872, Note_on_c, 6, 58, 115
8, 13872, Note_on_c, 6, 65, 60
8, 13900, Note_off_c, 6, 65, 60
8, 13900, Note_off_c, 6, 58, 115
8, 13920, Note_on_c, 6, 60, 115
8, 13920, Note_on_c, 6, 55, 60
8, 13948, Note_off_c, 6, 55, 60
8, 13948, Note_off_c, 6, 60, 115
8, 13968, Note_on_c, 6, 51, 115
8, 13968, Note_on_c, 6, 58, 60
8, 13996, Note_off_c, 6, 58, 60
8, 13996, Note_off_c, 6, 51, 115
8, 14016, Note_on_c, 6, 55, 115
8, 14016, Note_on_c, 6, 60, 60
8, 14044, Note_off_c, 6, 60, 60
8, 14044, Note_off_c, 6, 55, 115
8, 14064, Note_on_c, 6, 58, 115
8, 14064, Note_on_c, 6, 51, 60
8, 14092, Note_off_c, 6, 51, 60
8, 14092, Note_off_c, 6, 58, 115
8, 14112, Note_on_c, 6, 60, 115
8, 14112, Note_on_c, 6, 55, 60
8, 14140, Note_off_c, 6, 55, 60
8, 14140, Note_off_c, 6, 60, 115
8, 14160, Note_on_c, 6, 51, 115
8, 14160, Note_on_c, 6, 58, 60
8, 14188, Note_off_c, 6, 58, 60
8, 14188, Note_off_c, 6, 51, 115
8, 14208, Note_on_c, 6, 55, 115
8, 14208, Note_on_c, 6, 60, 60
8, 14236, Note_off_c, 6, 60, 60
8, 14236, Note_off_c, 6, 55, 115
8, 14256, Note_on_c, 6, 58, 115
8, 14256, Note_on_c, 6, 51, 60
8, 14284, Note_off_c, 6, 51, 60
8, 14284, Note_off_c, 6, 58, 115
8, 14304, Note_on_c, 6, 60, 115
8, 14304, Note_on_c, 6, 55, 60
8, 14332, Note_off_c, 6, 55, 60
8, 14332, Note_off_c, 6, 60, 115
8, 14352, Note_on_c, 6, 51, 115
8, 14352, Note_on_c, 6, 58, 60
8, 14380, Note_off_c, 6, 58, 60
8, 14380, Note_off_c, 6, 51, 115
8, 14400, Note_on_c, 6, 55, 115
8, 14400, Note_on_c, 6, 60, 60
8, 14428, Note_off_c, 6, 60, 60
8, 14428, Note_off_c, 6, 55, 115
8, 14448, Note_on_c, 6, 58, 115
8, 14448, Note_on_c, 6, 51, 60
8, 14476, Note_off_c, 6, 51, 60
8, 14476, Note_off_c, 6, 58, 115
8, 14496, Note_on_c, 6, 60, 115
8, 14496, Note_on_c, 6, 55, 60
8, 14524, Note_off_c, 6, 55, 60
8, 14524, Note_off_c, 6, 60, 115
8, 14544, Note_on_c, 6, 51, 115
8, 14544, Note_on_c, 6, 58, 60
8, 14572, Note_off_c, 6, 58, 60
8, 14572, Note_off_c, 6, 51, 115
8, 14592, Note_on_c, 6, 67, 115
8, 14592, Note_on_c, 6, 60, 60
8, 14620, Note_off_c, 6, 60, 60
8, 14620, Note_off_c, 6, 67, 115
8, 14640, Note_on_c, 6, 70, 115
8, 14640, Note_on_c, 6, 51, 60
8, 14668, Note_off_c, 6, 51, 60
8, 14668, Note_off_c, 6, 70, 115
8, 14688, Note_on_c, 6, 72, 115
8, 14688, Note_on_c, 6, 67, 60
8, 14716, Note_off_c, 6, 67, 60
8, 14716, Note_off_c, 6, 72, 115
8, 14736, Note_on_c, 6, 65, 115
8, 14736, Note_on_c, 6, 70, 60
8, 14764, Note_off_c, 6, 70, 60
8, 14764, Note_off_c, 6, 65, 115
8, 14784, Note_on_c, 6, 67, 115
8, 14784, Note_on_c, 6, 72, 60
8, 14812, Note_off_c, 6, 72, 60
8, 14812, Note_off_c, 6, 67, 115
8, 14832, Note_on_c, 6, 70, 115
8, 14832, Note_on_c, 6, 65, 60
8, 14860, Note_off_c, 6, 65, 60
8, 14860, Note_off_c, 6, 70, 115
8, 14880, Note_on_c, 6, 72, 115
8, 14880, Note_on_c, 6, 67, 60
8, 14908, Note_off_c, 6, 67, 60
8, 14908, Note_off_c, 6, 72, 115
8, 14928, Note_on_c, 6, 65, 115
8, 14928, Note_on_c, 6, 70, 60
8, 14956, Note_off_c, 6, 70, 60
8, 14956, Note_off_c, 6, 65, 115
8, 14976, Note_on_c, 6, 67, 115
8, 14976, Note_on_c, 6, 72, 60
8, 15004, Note_off_c, 6, 72, 60
8, 15004, Note_off_c, 6, 67, 115
8, 15024, Note_on_c, 6, 70, 115
8, 15024, Note_on_c, 6, 65, 60
8, 15052, Note_off_c, 6, 65, 60
8, 15052, Note_off_c, 6, 70, 115
8, 15072, Note_on_c, 6, 72, 115
8, 15072, Note_on_c, 6, 67, 60
8, 15100, Note_off_c, 6, 67, 60
8, 15100, Note_off_c, 6, 72, 115
8, 15120, Note_on_c, 6, 65, 115
8, 15120, Note_on_c, 6, 70, 60
8, 15148, Note_off_c, 6, 70, 60
8, 15148, Note_off_c, 6, 65, 115
8, 15168, Note_on_c, 6, 67, 115
8, 15168, Note_on_c, 6, 72, 60
8, 15196, Note_off_c, 6, 72, 60
8, 15196, Note_off_c, 6, 67, 115
8, 15216, Note_on_c, 6, 70, 115
8, 15216, Note_on_c, 6, 65, 60
8, 15244, Note_off_c, 6, 65, 60
8, 15244, Note_off_c, 6, 70, 115
8, 15264, Note_on_c, 6, 72, 115
8, 15264, Note_on_c, 6, 67, 60
8, 15292, Note_off_c, 6, 67, 60
8, 15292, Note_off_c, 6, 72, 115
8, 15312, Note_on_c, 6, 65, 115
8, 15312, Note_on_c, 6, 70, 60
8, 15340, Note_off_c, 6, 70, 60
8, 15340, Note_off_c, 6, 65, 115
8, 15360, Note_on_c, 6, 72, 60
8, 15388, Note_off_c, 6, 72, 60
8, 15408, Note_on_c, 6, 65, 60
8, 15436, Note_off_c, 6, 65, 60
8, 79872, Note_on_c, 6, 51, 115
8, 79900, Note_off_c, 6, 51, 115
8, 79920, Note_on_c, 6, 60, 115
8, 79948, Note_off_c, 6, 60, 115
8, 79968, Note_on_c, 6, 58, 115
8, 79968, Note_on_c, 6, 51, 60
8, 79996, Note_off_c, 6, 51, 60
8, 79996, Note_off_c, 6, 58, 115
8, 80016, Note_on_c, 6, 55, 115
8, 80016, Note_on_c, 6, 60, 60
8, 80044, Note_off_c, 6, 60, 60
8, 80044, Note_off_c, 6, 55, 115
8, 80064, Note_on_c, 6, 51, 115
8, 80064, Note_on_c, 6, 58, 60
8, 80092, Note_off_c, 6, 58, 60
8, 80092, Note_off_c, 6, 51, 115
8, 80112, Note_on_c, 6, 60, 115
8, 80112, Note_on_c, 6, 55, 60
8, 80140, Note_off_c, 6, 55, 60
8, 80140, Note_off_c, 6, 60, 115
8, 80160, Note_on_c, 6, 58, 115
8, 80160, Note_on_c, 6, 51, 60
8, 80188, Note_off_c, 6, 51, 60
8, 80188, Note_off_c, 6, 58, 115
8, 80208, Note_on_c, 6, 55, 115
8, 80208, Note_on_c, 6, 60, 60
8, 80236, Note_off_c, 6, 60, 60
8, 80236, Note_off_c, 6, 55, 115
8, 80256, Note_on_c, 6, 51, 115
8, 80256, Note_on_c, 6, 58, 60
8, 80284, Note_off_c, 6, 58, 60
8, 80284, Note_off_c, 6, 51, 115
8, 80304, Note_on_c, 6, 60, 115
8, 80304, Note_on_c, 6, 55, 60
8, 80332, Note_off_c, 6, 55, 60
8, 80332, Note_off_c, 6, 60, 115
8, 80352, Note_on_c, 6, 58, 115
8, 80352, Note_on_c, 6, 51, 60
8, 80380, Note_off_c, 6, 51, 60
8, 80380, Note_off_c, 6, 58, 115
8, 80400, Note_on_c, 6, 55, 115
8, 80400, Note_on_c, 6, 60, 60
8, 80428, Note_off_c, 6, 60, 60
8, 80428, Note_off_c, 6, 55, 115
8, 80448, Note_on_c, 6, 51, 115
8, 80448, Note_on_c, 6, 58, 60
8, 80476, Note_off_c, 6, 58, 60
8, 80476, Note_off_c, 6, 51, 115
8, 80496, Note_on_c, 6, 60, 115
8, 80496, Note_on_c, 6, 55, 60
8, 80524, Note_off_c, 6, 55, 60
8, 80524, Note_off_c, 6, 60, 115
8, 80544, Note_on_c, 6, 58, 115
8, 80544, Note_on_c, 6, 51, 60
8, 80572, Note_off_c, 6, 51, 60
8, 80572, Note_off_c, 6, 58, 115
8, 80592, Note_on_c, 6, 60, 60
8, 80620, Note_off_c, 6, 60, 60
8, 80640, Note_on_c, 6, 67, 115
8, 80640, Note_on_c, 6, 58, 60
8, 80668, Note_off_c, 6, 58, 60
8, 80668, Note_off_c, 6, 67, 115
8, 80688, Note_on_c, 6, 74, 115
8, 80716, Note_off_c, 6, 74, 115
8, 80736, Note_on_c, 6, 70, 115
8, 80736, Note_on_c, 6, 67, 60
8, 80764, Note_off_c, 6, 67, 60
8, 80764, Note_off_c, 6, 70, 115
8, 80784, Note_on_c, 6, 65, 115
8, 80784, Note_on_c, 6, 74, 60
8, 80812, Note_off_c, 6, 74, 60
8, 80812, Note_off_c, 6, 65, 115
8, 80832, Note_on_c, 6, 67, 115
8, 80832, Note_on_c, 6, 70, 60
8, 80860, Note_off_c, 6, 70, 60
8, 80860, Note_off_c, 6, 67, 115
8, 80880, Note_on_c, 6, 74, 115
8, 80880, Note_on_c, 6, 65, 60
8, 80908, Note_off_c, 6, 65, 60
8, 80908, Note_off_c, 6, 74, 115
8, 80928, Note_on_c, 6, 70, 115
8, 80928, Note_on_c, 6, 67, 60
8, 80956, Note_off_c, 6, 67, 60
8, 80956, Note_off_c, 6, 70, 115
8, 80976, Note_on_c, 6, 65, 115
8, 80976, Note_on_c, 6, 74, 60
8, 81004, Note_off_c, 6, 74, 60
8, 81004, Note_off_c, 6, 65, 115
8, 81024, Note_on_c, 6, 67, 115
8, 81024, Note_on_c, 6, 70, 60
8, 81052, Note_off_c, 6, 70, 60
8, 81052, Note_off_c, 6, 67, 115
8, 81072, Note_on_c, 6, 74, 115
8, 81072, Note_on_c, 6, 65, 60
8, 81100, Note_off_c, 6, 65, 60
8, 81100, Note_off_c, 6, 74, 115
8, 81120, Note_on_c, 6, 70, 115
8, 81120, Note_on_c, 6, 67, 60
8, 81148, Note_off_c, 6, 67, 60
8, 81148, Note_off_c, 6, 70, 115
8, 81168, Note_on_c, 6, 65, 115
8, 81168, Note_on_c, 6, 74, 60
8, 81196, Note_off_c, 6, 74, 60
8, 81196, Note_off_c, 6, 65, 115
8, 81216, Note_on_c, 6, 67, 115
8, 81216, Note_on_c, 6, 70, 60
8, 81244, Note_off_c, 6, 70, 60
8, 81244, Note_off_c, 6, 67, 115
8, 81264, Note_on_c, 6, 74, 115
8, 81264, Note_on_c, 6, 65, 60
8, 81292, Note_off_c, 6, 65, 60
8, 81292, Note_off_c, 6, 74, 115
8, 81312, Note_on_c, 6, 70, 115
8, 81312, Note_on_c, 6, 67, 60
8, 81340, Note_off_c, 6, 67, 60
8, 81340, Note_off_c, 6, 70, 115
8, 81360, Note_on_c, 6, 65, 115
8, 81360, Note_on_c, 6, 74, 60
8, 81388, Note_off_c, 6, 74, 60
8, 81388, Note_off_c, 6, 65, 115
8, 81408, Note_on_c, 6, 51, 115
8, 81408, Note_on_c, 6, 70, 60
8, 81436, Note_off_c, 6, 70, 60
8, 81436, Note_off_c, 6, 51, 115
8, 81456, Note_on_c, 6, 60, 115
8, 81456, Note_on_c, 6, 65, 60
8, 81484, Note_off_c, 6, 65, 60
8, 81484, Note_off_c, 6, 60, 115
8, 81504, Note_on_c, 6, 58, 115
8, 81504, Note_on_c, 6, 51, 60
8, 81532, Note_off_c, 6, 51, 60
8, 81532, Note_off_c, 6, 58, 115
8, 81552, Note_on_c, 6, 55, 115
8, 81552, Note_on_c, 6, 60, 60
8, 81580, Note_off_c, 6, 60, 60
8, 81580, Note_off_c, 6, 55, 115
8, 81600, Note_on_c, 6, 51, 115
8, 81600, Note_on_c, 6, 58, 60
8, 81628, Note_off_c, 6, 58, 60
8, 81628, Note_off_c, 6, 51, 115
8, 81648, Note_on_c, 6, 60, 115
8, 81648, Note_on_c, 6, 55, 60
8, 81676, Note_off_c, 6, 55, 60
8, 81676, Note_off_c, 6, 60, 115
8, 81696, Note_on_c, 6, 58, 115
8, 81696, Note_on_c, 6, 51, 60
8, 81724, Note_off_c, 6, 51, 60
8, 81724, Note_off_c, 6, 58, 115
8, 81744, Note_on_c, 6, 55, 115
8, 81744, Note_on_c, 6, 60, 60
8, 81772, Note_off_c, 6, 60, 60
8, 81772, Note_off_c, 6, 55, 115
8, 81792, Note_on_c, 6, 51, 115
8, 81792, Note_on_c, 6, 58, 60
8, 81820, Note_off_c, 6, 58, 60
8, 81820, Note_off_c, 6, 51, 115
8, 81840, Note_on_c, 6, 60, 115
8, 81840, Note_on_c, 6, 55, 60
8, 81868, Note_off_c, 6, 55, 60
8, 81868, Note_off_c, 6, 60, 115
8, 81888, Note_on_c, 6, 58, 115
8, 81888, Note_on_c, 6, 51, 60
8, 81916, Note_off_c, 6, 51, 60
8, 81916, Note_off_c, 6, 58, 115
8, 81936, Note_on_c, 6, 55, 115
8, 81936, Note_on_c, 6, 60, 60
8, 81964, Note_off_c, 6, 60, 60
8, 81964, Note_off_c, 6, 55, 115
8, 81984, Note_on_c, 6, 51, 115
8, 81984, Note_on_c, 6, 58, 60
8, 82012, Note_off_c, 6, 58, 60
8, 82012, Note_off_c, 6, 51, 115
8, 82032, Note_on_c, 6, 60, 115
8, 82032, Note_on_c, 6, 55, 60
8, 82060, Note_off_c, 6, 55, 60
8, 82060, Note_off_c, 6, 60, 115
8, 82080, Note_on_c, 6, 58, 115
8, 82080, Note_on_c, 6, 51, 60
8, 82108, Note_off_c, 6, 51, 60
8, 82108, Note_off_c, 6, 58, 115
8, 82128, Note_on_c, 6, 60, 60
8, 82156, Note_off_c, 6, 60, 60
8, 82176, Note_on_c, 6, 70, 115
8, 82176, Note_on_c, 6, 58, 60
8, 82204, Note_off_c, 6, 58, 60
8, 82204, Note_off_c, 6, 70, 115
8, 82224, Note_on_c, 6, 65, 115
8, 82252, Note_off_c, 6, 65, 115
8, 82272, Note_on_c, 6, 74, 115
8, 82272, Note_on_c, 6, 70, 60
8, 82300, Note_off_c, 6, 70, 60
8, 82300, Note_off_c, 6, 74, 115
8, 82320, Note_on_c, 6, 67, 115
8, 82320, Note_on_c, 6, 65, 60
8, 82348, Note_off_c, 6, 65, 60
8, 82348, Note_off_c, 6, 67, 115
8, 82368, Note_on_c, 6, 70, 115
8, 82368, Note_on_c, 6, 74, 60
8, 82396, Note_off_c, 6, 74, 60
8, 82396, Note_off_c, 6, 70, 115
8, 82416, Note_on_c, 6, 65, 115
8, 82416, Note_on_c, 6, 67, 60
8, 82444, Note_off_c, 6, 67, 60
8, 82444, Note_off_c, 6, 65, 115
8, 82464, Note_on_c, 6, 74, 115
8, 82464, Note_on_c, 6, 70, 60
8, 82492, Note_off_c, 6, 70, 60
8, 82492, Note_off_c, 6, 74, 115
8, 82512, Note_on_c, 6, 67, 115
8, 82512, Note_on_c, 6, 65, 60
8, 82540, Note_off_c, 6, 65, 60
8, 82540, Note_off_c, 6, 67, 115
8, 82560, Note_on_c, 6, 70, 115
8, 82560, Note_on_c, 6, 74, 60
8, 82588, Note_off_c, 6, 74, 60
8, 82588, Note_off_c, 6, 70, 115
8, 82608, Note_on_c, 6, 65, 115
8, 82608, Note_on_c, 6, 67, 60
8, 82636, Note_off_c, 6, 67, 60
8, 82636, Note_off_c, 6, 65, 115
8, 82656, Note_on_c, 6, 74, 115
8, 82656, Note_on_c, 6, 70, 60
8, 82684, Note_off_c, 6, 70, 60
8, 82684, Note_off_c, 6, 74, 115
8, 82704, Note_on_c, 6, 67, 115
8, 82704, Note_on_c, 6, 65, 60
8, 82732, Note_off_c, 6, 65, 60
8, 82732, Note_off_c, 6, 67, 115
8, 82752, Note_on_c, 6, 70, 115
8, 82752, Note_on_c, 6, 74, 60
8, 82780, Note_off_c, 6, 74, 60
8, 82780, Note_off_c, 6, 70, 115
8, 82800, Note_on_c, 6, 65, 115
8, 82800, Note_on_c, 6, 67, 60
8, 82828, Note_off_c, 6, 67, 60
8, 82828, Note_off_c, 6, 65, 115
8, 82848, Note_on_c, 6, 74, 115
8, 82848, Note_on_c, 6, 70, 60
8, 82876, Note_off_c, 6, 70, 60
8, 82876, Note_off_c, 6, 74, 115
8, 82896, Note_on_c, 6, 67, 115
8, 82896, Note_on_c, 6, 65, 60
8, 82924, Note_off_c, 6, 65, 60
8, 82924, Note_off_c, 6, 67, 115
8, 82944, Note_on_c, 6, 55, 115
8, 82944, Note_on_c, 6, 74, 60
8, 82972, Note_off_c, 6, 74, 60
8, 82972, Note_off_c, 6, 55, 115
8, 82992, Note_on_c, 6, 58, 115
8, 82992, Note_on_c, 6, 67, 60
8, 83020, Note_off_c, 6, 67, 60
8, 83020, Note_off_c, 6, 58, 115
8, 83040, Note_on_c, 6, 60, 115
8, 83040, Note_on_c, 6, 55, 60
8, 83068, Note_off_c, 6, 55, 60
8, 83068, Note_off_c, 6, 60, 115
8, 83088, Note_on_c, 6, 51, 115
8, 83088, Note_on_c, 6, 58, 60
8, 83116, Note_off_c, 6, 58, 60
8, 83116, Note_off_c, 6, 51, 115
8, 83136, Note_on_c, 6, 55, 115
8, 83136, Note_on_c, 6, 60, 60
8, 83164, Note_off_c, 6, 60, 60
8, 83164, Note_off_c, 6, 55, 115
8, 83184, Note_on_c, 6, 58, 115
8, 83184, Note_on_c, 6, 51, 60
8, 83212, Note_off_c, 6, 51, 60
8, 83212, Note_off_c, 6, 58, 115
8, 83232, Note_on_c, 6, 60, 115
8, 83232, Note_on_c, 6, 55, 60
8, 83260, Note_off_c, 6, 55, 60
8, 83260, Note_off_c, 6, 60, 115
8, 83280, Note_on_c, 6, 51, 115
8, 83280, Note_on_c, 6, 58, 60
8, 83308, Note_off_c, 6, 58, 60
8, 83308, Note_off_c, 6, 51, 115
8, 83328, Note_on_c, 6, 55, 115
8, 83328, Note_on_c, 6, 60, 60
8, 83356, Note_off_c, 6, 60, 60
8, 83356, Note_off_c, 6, 55, 115
8, 83376, Note_on_c, 6, 58, 115
8, 83376, Note_on_c, 6, 51, 60
8, 83404, Note_off_c, 6, 51, 60
8, 83404, Note_off_c, 6, 58, 115
8, 83424, Note_on_c, 6, 60, 115
8, 83424, Note_on_c, 6, 55, 60
8, 83452, Note_off_c, 6, 55, 60
8, 83452, Note_off_c, 6, 60, 115
8, 83472, Note_on_c, 6, 51, 115
8, 83472, Note_on_c, 6, 58, 60
8, 83500, Note_off_c, 6, 58, 60
8, 83500, Note_off_c, 6, 51, 115
8, 83520, Note_on_c, 6, 55, 115
8, 83520, Note_on_c, 6, 60, 60
8, 83548, Note_off_c, 6, 60, 60
8, 83548, Note_off_c, 6, 55, 115
8, 83568, Note_on_c, 6, 58, 115
8, 83568, Note_on_c, 6, 51, 60
8, 83596, Note_off_c, 6, 51, 60
8, 83596, Note_off_c, 6, 58, 115
8, 83616, Note_on_c, 6, 60, 115
8, 83616, Note_on_c, 6, 55, 60
8, 83644, Note_off_c, 6, 55, 60
8, 83644, Note_off_c, 6, 60, 115
8, 83664, Note_on_c, 6, 51, 115
8, 83664, Note_on_c, 6, 58, 60
8, 83692, Note_off_c, 6, 58, 60
8, 83692, Note_off_c, 6, 51, 115
8, 83712, Note_on_c, 6, 67, 115
8, 83712, Note_on_c, 6, 60, 60
8, 83740, Note_off_c, 6, 60, 60
8, 83740, Note_off_c, 6, 67, 115
8, 83760, Note_on_c, 6, 70, 115
8, 83760, Note_on_c, 6, 51, 60
8, 83788, Note_off_c, 6, 51, 60
8, 83788, Note_off_c, 6, 70, 115
8, 83808, Note_on_c, 6, 74, 115
8, 83808, Note_on_c, 6, 67, 60
8, 83836, Note_off_c, 6, 67, 60
8, 83836, Note_off_c, 6, 74, 115
8, 83856, Note_on_c, 6, 65, 115
8, 83856, Note_on_c, 6, 70, 60
8, 83884, Note_off_c, 6, 70, 60
8, 83884, Note_off_c, 6, 65, 115
8, 83904, Note_on_c, 6, 67, 115
8, 83904, Note_on_c, 6, 74, 60
8, 83932, Note_off_c, 6, 74, 60
8, 83932, Note_off_c, 6, 67, 115
8, 83952, Note_on_c, 6, 70, 115
8, 83952, Note_on_c, 6, 65, 60
8, 83980, Note_off_c, 6, 65, 60
8, 83980, Note_off_c, 6, 70, 115
8, 84000, Note_on_c, 6, 74, 115
8, 84000, Note_on_c, 6, 67, 60
8, 84028, Note_off_c, 6, 67, 60
8, 84028, Note_off_c, 6, 74, 115
8, 84048, Note_on_c, 6, 65, 115
8, 84048, Note_on_c, 6, 70, 60
8, 84076, Note_off_c, 6, 70, 60
8, 84076, Note_off_c, 6, 65, 115
8, 84096, Note_on_c, 6, 67, 115
8, 84096, Note_on_c, 6, 74, 60
8, 84124, Note_off_c, 6, 74, 60
8, 84124, Note_off_c, 6, 67, 115
8, 84144, Note_on_c, 6, 70, 115
8, 84144, Note_on_c, 6, 65, 60
8, 84172, Note_off_c, 6, 65, 60
8, 84172, Note_off_c, 6, 70, 115
8, 84192, Note_on_c, 6, 74, 115
8, 84192, Note_on_c, 6, 67, 60
8, 84220, Note_off_c, 6, 67, 60
8, 84220, Note_off_c, 6, 74, 115
8, 84240, Note_on_c, 6, 65, 115
8, 84240, Note_on_c, 6, 70, 60
8, 84268, Note_off_c, 6, 70, 60
8, 84268, Note_off_c, 6, 65, 115
8, 84288, Note_on_c, 6, 67, 115
8, 84288, Note_on_c, 6, 74, 60
8, 84316, Note_off_c, 6, 74, 60
8, 84316, Note_off_c, 6, 67, 115
8, 84336, Note_on_c, 6, 70, 115
8, 84336, Note_on_c, 6, 65, 60
8, 84364, Note_off_c, 6, 65, 60
8, 84364, Note_off_c, 6, 70, 115
8, 84384, Note_on_c, 6, 74, 115
8, 84384, Note_on_c, 6, 67, 60
8, 84412, Note_off_c, 6, 67, 60
8, 84412, Note_off_c, 6, 74, 115
8, 84432, Note_on_c, 6, 65, 115
8, 84432, Note_on_c, 6, 70, 60
8, 84460, Note_off_c, 6, 70, 60
8, 84460, Note_off_c, 6, 65, 115
8, 84480, Note_on_c, 6, 55, 115
8, 84480, Note_on_c, 6, 74, 60
8, 84508, Note_off_c, 6, 74, 60
8, 84508, Note_off_c, 6, 55, 115
8, 84528, Note_on_c, 6, 58, 115
8, 84528, Note_on_c, 6, 65, 60
8, 84556, Note_off_c, 6, 65, 60
8, 84556, Note_off_c, 6, 58, 115
8, 84576, Note_on_c, 6, 60, 115
8, 84576, Note_on_c, 6, 55, 60
8, 84604, Note_off_c, 6, 55, 60
8, 84604, Note_off_c, 6, 60, 115
8, 84624, Note_on_c, 6, 51, 115
8, 84624, Note_on_c, 6, 58, 60
8, 84652, Note_off_c, 6, 58, 60
8, 84652, Note_off_c, 6, 51, 115
8, 84672, Note_on_c, 6, 55, 115
8, 84672, Note_on_c, 6, 60, 60
8, 84700, Note_off_c, 6, 60, 60
8, 84700, Note_off_c, 6, 55, 115
8, 84720, Note_on_c, 6, 58, 115
8, 84720, Note_on_c, 6, 51, 60
8, 84748, Note_off_c, 6, 51, 60
8, 84748, Note_off_c, 6, 58, 115
8, 84768, Note_on_c, 6, 60, 115
8, 84768, Note_on_c, 6, 55, 60
8, 84796, Note_off_c, 6, 55, 60
8, 84796, Note_off_c, 6, 60, 115
8, 84816, Note_on_c, 6, 51, 115
8, 84816, Note_on_c, 6, 58, 60
8, 84844, Note_off_c, 6, 58, 60
8, 84844, Note_off_c, 6, 51, 115
8, 84864, Note_on_c, 6, 55, 115
8, 84864, Note_on_c, 6, 60, 60
8, 84892, Note_off_c, 6, 60, 60
8, 84892, Note_off_c, 6, 55, 115
8, 84912, Note_on_c, 6, 58, 115
8, 84912, Note_on_c, 6, 51, 60
8, 84940, Note_off_c, 6, 51, 60
8, 84940, Note_off_c, 6, 58, 115
8, 84960, Note_on_c, 6, 60, 115
8, 84960, Note_on_c, 6, 55, 60
8, 84988, Note_off_c, 6, 55, 60
8, 84988, Note_off_c, 6, 60, 115
8, 85008, Note_on_c, 6, 51, 115
8, 85008, Note_on_c, 6, 58, 60
8, 85036, Note_off_c, 6, 58, 60
8, 85036, Note_off_c, 6, 51, 115
8, 85056, Note_on_c, 6, 55, 115
8, 85056, Note_on_c, 6, 60, 60
8, 85084, Note_off_c, 6, 60, 60
8, 85084, Note_off_c, 6, 55, 115
8, 85104, Note_on_c, 6, 58, 115
8, 85104, Note_on_c, 6, 51, 60
8, 85132, Note_off_c, 6, 51, 60
8, 85132, Note_off_c, 6, 58, 115
8, 85152, Note_on_c, 6, 60, 115
8, 85152, Note_on_c, 6, 55, 60
8, 85180, Note_off_c, 6, 55, 60
8, 85180, Note_off_c, 6, 60, 115
8, 85200, Note_on_c, 6, 51, 115
8, 85200, Note_on_c, 6, 58, 60
8, 85228, Note_off_c, 6, 58, 60
8, 85228, Note_off_c, 6, 51, 115
8, 85248, Note_on_c, 6, 67, 115
8, 85248, Note_on_c, 6, 60, 60
8, 85276, Note_off_c, 6, 60, 60
8, 85276, Note_off_c, 6, 67, 115
8, 85296, Note_on_c, 6, 70, 115
8, 85296, Note_on_c, 6, 51, 60
8, 85324, Note_off_c, 6, 51, 60
8, 85324, Note_off_c, 6, 70, 115
8, 85344, Note_on_c, 6, 72, 115
8, 85344, Note_on_c, 6, 67, 60
8, 85372, Note_off_c, 6, 67, 60
8, 85372, Note_off_c, 6, 72, 115
8, 85392, Note_on_c, 6, 65, 115
8, 85392, Note_on_c, 6, 70, 60
8, 85420, Note_off_c, 6, 70, 60
8, 85420, Note_off_c, 6, 65, 115
8, 85440, Note_on_c, 6, 67, 115
8, 85440, Note_on_c, 6, 72, 60
8, 85468, Note_off_c, 6, 72, 60
8, 85468, Note_off_c, 6, 67, 115
8, 85488, Note_on_c, 6, 70, 115
8, 85488, Note_on_c, 6, 65, 60
8, 85516, Note_off_c, 6, 65, 60
8, 85516, Note_off_c, 6, 70, 115
8, 85536, Note_on_c, 6, 72, 115
8, 85536, Note_on_c, 6, 67, 60
8, 85564, Note_off_c, 6, 67, 60
8, 85564, Note_off_c, 6, 72, 115
8, 85584, Note_on_c, 6, 65, 115
8, 85584, Note_on_c, 6, 70, 60
8, 85612, Note_off_c, 6, 70, 60
8, 85612, Note_off_c, 6, 65, 115
8, 85632, Note_on_c, 6, 67, 115
8, 85632, Note_on_c, 6, 72, 60
8, 85660, Note_off_c, 6, 72, 60
8, 85660, Note_off_c, 6, 67, 115
8, 85680, Note_on_c, 6, 70, 115
8, 85680, Note_on_c, 6, 65, 60
8, 85708, Note_off_c, 6, 65, 60
8, 85708, Note_off_c, 6, 70, 115
8, 85728, Note_on_c, 6, 72, 115
8, 85728, Note_on_c, 6, 67, 60
8, 85756, Note_off_c, 6, 67, 60
8, 85756, Note_off_c, 6, 72, 115
8, 85776, Note_on_c, 6, 65, 115
8, 85776, Note_on_c, 6, 70, 60
8, 85804, Note_off_c, 6, 70, 60
8, 85804, Note_off_c, 6, 65, 115
8, 85824, Note_on_c, 6, 67, 115
8, 85824, Note_on_c, 6, 72, 60
8, 85852, Note_off_c, 6, 72, 60
8, 85852, Note_off_c, 6, 67, 115
8, 85872, Note_on_c, 6, 70, 115
8, 85872, Note_on_c, 6, 65, 60
8, 85900, Note_off_c, 6, 65, 60
8, 85900, Note_off_c, 6, 70, 115
8, 85920, Note_on_c, 6, 72, 115
8, 85920, Note_on_c, 6, 67, 60
8, 85948, Note_off_c, 6, 67, 60
8, 85948, Note_off_c, 6, 72, 115
8, 85968, Note_on_c, 6, 65, 115
8, 85968, Note_on_c, 6, 70, 60
8, 85996, Note_off_c, 6, 70, 60
8, 85996, Note_off_c, 6, 65, 115
8, 85996, End_track
9, 0, Start_track
9, 0, Text_t, "Low Voice"
9, 2880, Control_c, 7, 0, 0
9, 2882, Control_c, 7, 32, 0
9, 2884, Program_c, 7, 53
9, 2886, Control_c, 7, 7, 100
9, 2888, Control_c, 7, 10, 64
9, 2890, Control_c, 7, 11, 127
9, 2892, Control_c, 7, 91, 40
9, 2894, Control_c, 7, 93, 0
9, 31968, Note_on_c, 7, 46, 127
9, 32064, Note_off_c, 7, 46, 127
9, 32064, Note_on_c, 7, 48, 127
9, 32160, Note_off_c, 7, 48, 127
9, 32160, Note_on_c, 7, 46, 127
9, 32256, Note_off_c, 7, 46, 127
9, 32256, Pitch_bend_c, 7, 4480
9, 32256, Note_on_c, 7, 48, 127
9, 32268, Pitch_bend_c, 7, 4992
9, 32280, Pitch_bend_c, 7, 5248
9, 32288, Pitch_bend_c, 7, 5760
9, 32296, Pitch_bend_c, 7, 6400
9, 32304, Pitch_bend_c, 7, 7296
9, 32306, Pitch_bend_c, 7, 8192
9, 32424, Note_off_c, 7, 48, 127
9, 32448, Note_on_c, 7, 48, 127
9, 32536, Note_off_c, 7, 48, 127
9, 32556, Note_on_c, 7, 48, 127
9, 32652, Note_off_c, 7, 48, 127
9, 33024, Pitch_bend_c, 7, 4480
9, 33024, Note_on_c, 7, 48, 127
9, 33036, Pitch_bend_c, 7, 4992
9, 33048, Pitch_bend_c, 7, 5248
9, 33056, Pitch_bend_c, 7, 5760
9, 33064, Pitch_bend_c, 7, 6400
9, 33072, Pitch_bend_c, 7, 7296
9, 33074, Pitch_bend_c, 7, 8192
9, 33192, Note_off_c, 7, 48, 127
9, 33216, Note_on_c, 7, 48, 127
9, 33304, Note_off_c, 7, 48, 127
9, 33324, Note_on_c, 7, 48, 127
9, 33420, Note_off_c, 7, 48, 127
9, 35136, Note_on_c, 7, 48, 127
9, 35232, Note_off_c, 7, 48, 127
9, 35232, Note_on_c, 7, 46, 127
9, 35328, Note_off_c, 7, 46, 127
9, 35328, Pitch_bend_c, 7, 4480
9, 35328, Note_on_c, 7, 48, 127
9, 35340, Pitch_bend_c, 7, 4992
9, 35352, Pitch_bend_c, 7, 5248
9, 35360, Pitch_bend_c, 7, 5760
9, 35368, Pitch_bend_c, 7, 6400
9, 35376, Pitch_bend_c, 7, 7296
9, 35378, Pitch_bend_c, 7, 8192
9, 35496, Note_off_c, 7, 48, 127
9, 35520, Note_on_c, 7, 48, 127
9, 35608, Note_off_c, 7, 48, 127
9, 35628, Note_on_c, 7, 48, 127
9, 35724, Note_off_c, 7, 48, 127
9, 36096, Pitch_bend_c, 7, 4480
9, 36096, Note_on_c, 7, 48, 127
9, 36108, Pitch_bend_c, 7, 4992
9, 36120, Pitch_bend_c, 7, 5248
9, 36128, Pitch_bend_c, 7, 5760
9, 36136, Pitch_bend_c, 7, 6400
9, 36144, Pitch_bend_c, 7, 7296
9, 36146, Pitch_bend_c, 7, 8192
9, 36264, Note_off_c, 7, 48, 127
9, 36288, Note_on_c, 7, 48, 127
9, 36376, Note_off_c, 7, 48, 127
9, 36396, Note_on_c, 7, 48, 127
9, 36492, Note_off_c, 7, 48, 127
9, 38112, Note_on_c, 7, 48, 127
9, 38208, Note_off_c, 7, 48, 127
9, 38208, Note_on_c, 7, 48, 127
9, 38304, Note_off_c, 7, 48, 127
9, 38304, Note_on_c, 7, 46, 127
9, 38400, Note_off_c, 7, 46, 127
9, 38400, Pitch_bend_c, 7, 4480
9, 38400, Note_on_c, 7, 48, 127
9, 38412, Pitch_bend_c, 7, 4992
9, 38424, Pitch_bend_c, 7, 5248
9, 38432, Pitch_bend_c, 7, 5760
9, 38440, Pitch_bend_c, 7, 6400
9, 38448, Pitch_bend_c, 7, 7296
9, 38450, Pitch_bend_c, 7, 8192
9, 38568, Note_off_c, 7, 48, 127
9, 38592, Note_on_c, 7, 48, 127
9, 38680, Note_off_c, 7, 48, 127
9, 38700, Note_on_c, 7, 48, 127
9, 38796, Note_off_c, 7, 48, 127
9, 39168, Pitch_bend_c, 7, 4480
9, 39168, Note_on_c, 7, 48, 127
9, 39180, Pitch_bend_c, 7, 4992
9, 39192, Pitch_bend_c, 7, 5248
9, 39200, Pitch_bend_c, 7, 5760
9, 39208, Pitch_bend_c, 7, 6400
9, 39216, Pitch_bend_c, 7, 7296
9, 39218, Pitch_bend_c, 7, 8192
9, 39336, Note_off_c, 7, 48, 127
9, 39360, Note_on_c, 7, 48, 127
9, 39448, Note_off_c, 7, 48, 127
9, 39468, Note_on_c, 7, 48, 127
9, 39564, Note_off_c, 7, 48, 127
9, 41184, Note_on_c, 7, 48, 127
9, 41280, Note_off_c, 7, 48, 127
9, 41280, Note_on_c, 7, 48, 127
9, 41376, Note_off_c, 7, 48, 127
9, 41376, Note_on_c, 7, 46, 127
9, 41472, Note_off_c, 7, 46, 127
9, 41472, Pitch_bend_c, 7, 4480
9, 41472, Note_on_c, 7, 48, 127
9, 41484, Pitch_bend_c, 7, 4992
9, 41496, Pitch_bend_c, 7, 5248
9, 41504, Pitch_bend_c, 7, 5760
9, 41512, Pitch_bend_c, 7, 6400
9, 41520, Pitch_bend_c, 7, 7296
9, 41522, Pitch_bend_c, 7, 8192
9, 41640, Note_off_c, 7, 48, 127
9, 41664, Note_on_c, 7, 48, 127
9, 41752, Note_off_c, 7, 48, 127
9, 41772, Note_on_c, 7, 48, 127
9, 41868, Note_off_c, 7, 48, 127
9, 42240, Pitch_bend_c, 7, 4480
9, 42240, Note_on_c, 7, 48, 127
9, 42252, Pitch_bend_c, 7, 4992
9, 42264, Pitch_bend_c, 7, 5248
9, 42272, Pitch_bend_c, 7, 5760
9, 42280, Pitch_bend_c, 7, 6400
9, 42288, Pitch_bend_c, 7, 7296
9, 42290, Pitch_bend_c, 7, 8192
9, 42408, Note_off_c, 7, 48, 127
9, 42432, Note_on_c, 7, 48, 127
9, 42520, Note_off_c, 7, 48, 127
9, 42540, Note_on_c, 7, 48, 127
9, 42636, Note_off_c, 7, 48, 127
9, 42912, Note_on_c, 7, 53, 127
9, 43008, Note_off_c, 7, 53, 127
9, 43008, Note_on_c, 7, 55, 127
9, 43176, Note_off_c, 7, 55, 127
9, 43200, Note_on_c, 7, 58, 127
9, 43288, Note_off_c, 7, 58, 127
9, 43304, Note_on_c, 7, 58, 110
9, 43400, Note_off_c, 7, 58, 110
9, 45984, Note_on_c, 7, 53, 127
9, 46080, Note_off_c, 7, 53, 127
9, 46080, Note_on_c, 7, 55, 127
9, 46248, Note_off_c, 7, 55, 127
9, 46272, Note_on_c, 7, 58, 127
9, 46360, Note_off_c, 7, 58, 127
9, 46376, Note_on_c, 7, 58, 110
9, 46472, Note_off_c, 7, 58, 110
9, 50400, Note_on_c, 7, 46, 127
9, 50496, Note_off_c, 7, 46, 127
9, 50496, Note_on_c, 7, 48, 127
9, 50592, Note_off_c, 7, 48, 127
9, 50592, Note_on_c, 7, 46, 127
9, 50688, Note_off_c, 7, 46, 127
9, 50688, Pitch_bend_c, 7, 4480
9, 50688, Note_on_c, 7, 48, 127
9, 50700, Pitch_bend_c, 7, 4992
9, 50712, Pitch_bend_c, 7, 5248
9, 50720, Pitch_bend_c, 7, 5760
9, 50728, Pitch_bend_c, 7, 6400
9, 50736, Pitch_bend_c, 7, 7296
9, 50738, Pitch_bend_c, 7, 8192
9, 50856, Note_off_c, 7, 48, 127
9, 50880, Note_on_c, 7, 48, 127
9, 50968, Note_off_c, 7, 48, 127
9, 50988, Note_on_c, 7, 48, 127
9, 51084, Note_off_c, 7, 48, 127
9, 51456, Pitch_bend_c, 7, 4480
9, 51456, Note_on_c, 7, 48, 127
9, 51468, Pitch_bend_c, 7, 4992
9, 51480, Pitch_bend_c, 7, 5248
9, 51488, Pitch_bend_c, 7, 5760
9, 51496, Pitch_bend_c, 7, 6400
9, 51504, Pitch_bend_c, 7, 7296
9, 51506, Pitch_bend_c, 7, 8192
9, 51624, Note_off_c, 7, 48, 127
9, 51648, Note_on_c, 7, 48, 127
9, 51736, Note_off_c, 7, 48, 127
9, 51756, Note_on_c, 7, 48, 127
9, 51852, Note_off_c, 7, 48, 127
9, 53568, Note_on_c, 7, 48, 127
9, 53664, Note_off_c, 7, 48, 127
9, 53664, Note_on_c, 7, 46, 127
9, 53760, Note_off_c, 7, 46, 127
9, 53760, Pitch_bend_c, 7, 4480
9, 53760, Note_on_c, 7, 48, 127
9, 53772, Pitch_bend_c, 7, 4992
9, 53784, Pitch_bend_c, 7, 5248
9, 53792, Pitch_bend_c, 7, 5760
9, 53800, Pitch_bend_c, 7, 6400
9, 53808, Pitch_bend_c, 7, 7296
9, 53810, Pitch_bend_c, 7, 8192
9, 53928, Note_off_c, 7, 48, 127
9, 53952, Note_on_c, 7, 48, 127
9, 54040, Note_off_c, 7, 48, 127
9, 54060, Note_on_c, 7, 48, 127
9, 54156, Note_off_c, 7, 48, 127
9, 54528, Pitch_bend_c, 7, 4480
9, 54528, Note_on_c, 7, 48, 127
9, 54540, Pitch_bend_c, 7, 4992
9, 54552, Pitch_bend_c, 7, 5248
9, 54560, Pitch_bend_c, 7, 5760
9, 54568, Pitch_bend_c, 7, 6400
9, 54576, Pitch_bend_c, 7, 7296
9, 54578, Pitch_bend_c, 7, 8192
9, 54696, Note_off_c, 7, 48, 127
9, 54720, Note_on_c, 7, 48, 127
9, 54808, Note_off_c, 7, 48, 127
9, 54828, Note_on_c, 7, 48, 127
9, 54924, Note_off_c, 7, 48, 127
9, 56544, Note_on_c, 7, 48, 127
9, 56640, Note_off_c, 7, 48, 127
9, 56640, Note_on_c, 7, 48, 127
9, 56736, Note_off_c, 7, 48, 127
9, 56736, Note_on_c, 7, 46, 127
9, 56832, Note_off_c, 7, 46, 127
9, 56832, Pitch_bend_c, 7, 4480
9, 56832, Note_on_c, 7, 48, 127
9, 56844, Pitch_bend_c, 7, 4992
9, 56856, Pitch_bend_c, 7, 5248
9, 56864, Pitch_bend_c, 7, 5760
9, 56872, Pitch_bend_c, 7, 6400
9, 56880, Pitch_bend_c, 7, 7296
9, 56882, Pitch_bend_c, 7, 8192
9, 57000, Note_off_c, 7, 48, 127
9, 57024, Note_on_c, 7, 48, 127
9, 57112, Note_off_c, 7, 48, 127
9, 57132, Note_on_c, 7, 48, 127
9, 57228, Note_off_c, 7, 48, 127
9, 57600, Pitch_bend_c, 7, 4480
9, 57600, Note_on_c, 7, 48, 127
9, 57612, Pitch_bend_c, 7, 4992
9, 57624, Pitch_bend_c, 7, 5248
9, 57632, Pitch_bend_c, 7, 5760
9, 57640, Pitch_bend_c, 7, 6400
9, 57648, Pitch_bend_c, 7, 7296
9, 57650, Pitch_bend_c, 7, 8192
9, 57768, Note_off_c, 7, 48, 127
9, 57792, Note_on_c, 7, 48, 127
9, 57880, Note_off_c, 7, 48, 127
9, 57900, Note_on_c, 7, 48, 127
9, 57996, Note_off_c, 7, 48, 127
9, 59616, Note_on_c, 7, 48, 127
9, 59712, Note_off_c, 7, 48, 127
9, 59712, Note_on_c, 7, 48, 127
9, 59808, Note_off_c, 7, 48, 127
9, 59808, Note_on_c, 7, 46, 127
9, 59904, Note_off_c, 7, 46, 127
9, 59904, Pitch_bend_c, 7, 4480
9, 59904, Note_on_c, 7, 48, 127
9, 59916, Pitch_bend_c, 7, 4992
9, 59928, Pitch_bend_c, 7, 5248
9, 59936, Pitch_bend_c, 7, 5760
9, 59944, Pitch_bend_c, 7, 6400
9, 59952, Pitch_bend_c, 7, 7296
9, 59954, Pitch_bend_c, 7, 8192
9, 60072, Note_off_c, 7, 48, 127
9, 60096, Note_on_c, 7, 48, 127
9, 60184, Note_off_c, 7, 48, 127
9, 60204, Note_on_c, 7, 48, 127
9, 60300, Note_off_c, 7, 48, 127
9, 60672, Pitch_bend_c, 7, 4480
9, 60672, Note_on_c, 7, 48, 127
9, 60684, Pitch_bend_c, 7, 4992
9, 60696, Pitch_bend_c, 7, 5248
9, 60704, Pitch_bend_c, 7, 5760
9, 60712, Pitch_bend_c, 7, 6400
9, 60720, Pitch_bend_c, 7, 7296
9, 60722, Pitch_bend_c, 7, 8192
9, 60840, Note_off_c, 7, 48, 127
9, 60864, Note_on_c, 7, 48, 127
9, 60952, Note_off_c, 7, 48, 127
9, 60972, Note_on_c, 7, 48, 127
9, 61068, Note_off_c, 7, 48, 127
9, 61344, Note_on_c, 7, 53, 127
9, 61440, Note_off_c, 7, 53, 127
9, 61440, Note_on_c, 7, 55, 127
9, 61608, Note_off_c, 7, 55, 127
9, 61632, Note_on_c, 7, 58, 127
9, 61720, Note_off_c, 7, 58, 127
9, 61736, Note_on_c, 7, 58, 110
9, 61832, Note_off_c, 7, 58, 110
9, 64416, Note_on_c, 7, 53, 127
9, 64512, Note_off_c, 7, 53, 127
9, 64512, Note_on_c, 7, 55, 127
9, 64680, Note_off_c, 7, 55, 127
9, 64704, Note_on_c, 7, 58, 127
9, 64792, Note_off_c, 7, 58, 127
9, 64808, Note_on_c, 7, 58, 110
9, 64904, Note_off_c, 7, 58, 110
9, 82848, Note_on_c, 7, 53, 127
9, 82944, Note_off_c, 7, 53, 127
9, 82944, Note_on_c, 7, 55, 127
9, 83112, Note_off_c, 7, 55, 127
9, 83136, Note_on_c, 7, 58, 127
9, 83224, Note_off_c, 7, 58, 127
9, 83240, Note_on_c, 7, 58, 110
9, 83336, Note_off_c, 7, 58, 110
9, 88992, Note_on_c, 7, 53, 127
9, 89088, Note_off_c, 7, 53, 127
9, 89088, Note_on_c, 7, 55, 127
9, 89256, Note_off_c, 7, 55, 127
9, 89280, Note_on_c, 7, 58, 127
9, 89368, Note_off_c, 7, 58, 127
9, 89384, Note_on_c, 7, 58, 110
9, 89480, Note_off_c, 7, 58, 110
9, 89480, End_track
10, 0, Start_track
10, 0, Text_t, "Syn Strin"
10, 2880, Control_c, 8, 0, 0
10, 2882, Control_c, 8, 32, 0
10, 2884, Program_c, 8, 50
10, 2886, Control_c, 8, 7, 100
10, 2888, Control_c, 8, 10, 120
10, 2890, Control_c, 8, 11, 70
10, 2892, Control_c, 8, 91, 50
10, 2894, Control_c, 8, 93, 110
10, 42896, Note_on_c, 8, 65, 110
10, 42896, Note_on_c, 8, 53, 110
10, 42984, Note_off_c, 8, 53, 110
10, 42984, Note_off_c, 8, 65, 110
10, 42992, Note_on_c, 8, 67, 110
10, 42992, Note_on_c, 8, 55, 110
10, 43184, Note_off_c, 8, 55, 110
10, 43184, Note_off_c, 8, 67, 110
10, 43184, Note_on_c, 8, 70, 110
10, 43184, Note_on_c, 8, 58, 110
10, 43272, Note_off_c, 8, 58, 110
10, 43272, Note_off_c, 8, 70, 110
10, 43280, Note_on_c, 8, 70, 110
10, 43280, Note_on_c, 8, 58, 110
10, 43368, Note_off_c, 8, 58, 110
10, 43368, Note_off_c, 8, 70, 110
10, 43664, Note_on_c, 8, 67, 110
10, 43664, Note_on_c, 8, 55, 110
10, 43752, Note_off_c, 8, 55, 110
10, 43752, Note_off_c, 8, 67, 110
10, 43760, Note_on_c, 8, 70, 110
10, 43760, Note_on_c, 8, 58, 110
10, 43952, Note_off_c, 8, 58, 110
10, 43952, Note_off_c, 8, 70, 110
10, 43952, Note_on_c, 8, 72, 110
10, 43952, Note_on_c, 8, 60, 110
10, 44040, Note_off_c, 8, 60, 110
10, 44040, Note_off_c, 8, 72, 110
10, 44048, Note_on_c, 8, 72, 110
10, 44048, Note_on_c, 8, 60, 110
10, 44240, Note_off_c, 8, 60, 110
10, 44240, Note_off_c, 8, 72, 110
10, 44240, Note_on_c, 8, 70, 110
10, 44240, Note_on_c, 8, 58, 110
10, 44336, Note_off_c, 8, 58, 110
10, 44336, Note_off_c, 8, 70, 110
10, 44528, Note_on_c, 8, 55, 110
10, 44528, Note_on_c, 8, 67, 110
10, 44720, Note_off_c, 8, 67, 110
10, 44720, Note_off_c, 8, 55, 110
10, 44720, Note_on_c, 8, 58, 110
10, 44720, Note_on_c, 8, 70, 110
10, 44808, Note_off_c, 8, 70, 110
10, 44808, Note_off_c, 8, 58, 110
10, 44816, Note_on_c, 8, 58, 110
10, 44816, Note_on_c, 8, 70, 110
10, 45008, Note_off_c, 8, 70, 110
10, 45008, Note_off_c, 8, 58, 110
10, 45200, Note_on_c, 8, 55, 110
10, 45200, Note_on_c, 8, 67, 110
10, 45288, Note_off_c, 8, 67, 110
10, 45288, Note_off_c, 8, 55, 110
10, 45296, Note_on_c, 8, 58, 110
10, 45296, Note_on_c, 8, 70, 110
10, 45384, Note_off_c, 8, 70, 110
10, 45384, Note_off_c, 8, 58, 110
10, 45392, Note_on_c, 8, 60, 110
10, 45392, Note_on_c, 8, 72, 110
10, 45480, Note_off_c, 8, 72, 110
10, 45480, Note_off_c, 8, 60, 110
10, 45488, Note_on_c, 8, 62, 110
10, 45488, Note_on_c, 8, 74, 110
10, 45680, Note_off_c, 8, 74, 110
10, 45680, Note_off_c, 8, 62, 110
10, 45680, Note_on_c, 8, 58, 110
10, 45680, Note_on_c, 8, 70, 110
10, 45768, Note_off_c, 8, 70, 110
10, 45768, Note_off_c, 8, 58, 110
10, 46064, Note_on_c, 8, 55, 110
10, 46064, Note_on_c, 8, 67, 110
10, 46256, Note_off_c, 8, 67, 110
10, 46256, Note_off_c, 8, 55, 110
10, 46256, Note_on_c, 8, 58, 110
10, 46256, Note_on_c, 8, 70, 110
10, 46344, Note_off_c, 8, 70, 110
10, 46344, Note_off_c, 8, 58, 110
10, 46352, Note_on_c, 8, 58, 110
10, 46352, Note_on_c, 8, 70, 110
10, 46440, Note_off_c, 8, 70, 110
10, 46440, Note_off_c, 8, 58, 110
10, 46736, Note_on_c, 8, 67, 110
10, 46736, Note_on_c, 8, 55, 110
10, 46824, Note_off_c, 8, 55, 110
10, 46824, Note_off_c, 8, 67, 110
10, 46832, Note_on_c, 8, 70, 110
10, 46832, Note_on_c, 8, 58, 110
10, 47024, Note_off_c, 8, 58, 110
10, 47024, Note_off_c, 8, 70, 110
10, 47024, Note_on_c, 8, 72, 110
10, 47024, Note_on_c, 8, 60, 110
10, 47112, Note_off_c, 8, 60, 110
10, 47112, Note_off_c, 8, 72, 110
10, 47120, Note_on_c, 8, 60, 110
10, 47120, Note_on_c, 8, 72, 110
10, 47312, Note_off_c, 8, 72, 110
10, 47312, Note_off_c, 8, 60, 110
10, 47312, Note_on_c, 8, 62, 110
10, 47312, Note_on_c, 8, 74, 110
10, 47408, Note_off_c, 8, 74, 110
10, 47408, Note_off_c, 8, 62, 110
10, 47408, Note_on_c, 8, 58, 110
10, 47408, Note_on_c, 8, 70, 110
10, 47504, Note_off_c, 8, 70, 110
10, 47504, Note_off_c, 8, 58, 110
10, 47600, Note_on_c, 8, 55, 110
10, 47600, Note_on_c, 8, 67, 110
10, 47792, Note_off_c, 8, 67, 110
10, 47792, Note_off_c, 8, 55, 110
10, 47792, Note_on_c, 8, 58, 110
10, 47792, Note_on_c, 8, 70, 110
10, 47880, Note_off_c, 8, 70, 110
10, 47880, Note_off_c, 8, 58, 110
10, 47888, Note_on_c, 8, 55, 110
10, 47888, Note_on_c, 8, 67, 110
10, 47976, Note_off_c, 8, 67, 110
10, 47976, Note_off_c, 8, 55, 110
10, 47984, Note_on_c, 8, 58, 110
10, 47984, Note_on_c, 8, 70, 110
10, 48176, Note_off_c, 8, 70, 110
10, 48176, Note_off_c, 8, 58, 110
10, 48176, Note_on_c, 8, 60, 110
10, 48176, Note_on_c, 8, 72, 110
10, 48368, Note_off_c, 8, 72, 110
10, 48368, Note_off_c, 8, 60, 110
10, 48368, Note_on_c, 8, 62, 110
10, 48368, Note_on_c, 8, 74, 110
10, 48456, Note_off_c, 8, 74, 110
10, 48456, Note_off_c, 8, 62, 110
10, 48464, Note_on_c, 8, 60, 110
10, 48464, Note_on_c, 8, 72, 110
10, 48552, Note_off_c, 8, 72, 110
10, 48552, Note_off_c, 8, 60, 110
10, 48560, Note_on_c, 8, 57, 110
10, 48560, Note_on_c, 8, 69, 110
10, 48648, Note_off_c, 8, 69, 110
10, 48648, Note_off_c, 8, 57, 110
10, 48656, Note_on_c, 8, 53, 110
10, 48656, Note_on_c, 8, 65, 110
10, 49136, Note_off_c, 8, 65, 110
10, 49136, Note_off_c, 8, 53, 110
10, 61328, Note_on_c, 8, 65, 110
10, 61328, Note_on_c, 8, 53, 110
10, 61416, Note_off_c, 8, 53, 110
10, 61416, Note_off_c, 8, 65, 110
10, 61424, Note_on_c, 8, 67, 110
10, 61424, Note_on_c, 8, 55, 110
10, 61616, Note_off_c, 8, 55, 110
10, 61616, Note_off_c, 8, 67, 110
10, 61616, Note_on_c, 8, 70, 110
10, 61616, Note_on_c, 8, 58, 110
10, 61704, Note_off_c, 8, 58, 110
10, 61704, Note_off_c, 8, 70, 110
10, 61712, Note_on_c, 8, 70, 110
10, 61712, Note_on_c, 8, 58, 110
10, 61800, Note_off_c, 8, 58, 110
10, 61800, Note_off_c, 8, 70, 110
10, 62096, Note_on_c, 8, 67, 110
10, 62096, Note_on_c, 8, 55, 110
10, 62184, Note_off_c, 8, 55, 110
10, 62184, Note_off_c, 8, 67, 110
10, 62192, Note_on_c, 8, 70, 110
10, 62192, Note_on_c, 8, 58, 110
10, 62384, Note_off_c, 8, 58, 110
10, 62384, Note_off_c, 8, 70, 110
10, 62384, Note_on_c, 8, 72, 110
10, 62384, Note_on_c, 8, 60, 110
10, 62472, Note_off_c, 8, 60, 110
10, 62472, Note_off_c, 8, 72, 110
10, 62480, Note_on_c, 8, 72, 110
10, 62480, Note_on_c, 8, 60, 110
10, 62672, Note_off_c, 8, 60, 110
10, 62672, Note_off_c, 8, 72, 110
10, 62672, Note_on_c, 8, 70, 110
10, 62672, Note_on_c, 8, 58, 110
10, 62768, Note_off_c, 8, 58, 110
10, 62768, Note_off_c, 8, 70, 110
10, 62960, Note_on_c, 8, 55, 110
10, 62960, Note_on_c, 8, 67, 110
10, 63152, Note_off_c, 8, 67, 110
10, 63152, Note_off_c, 8, 55, 110
10, 63152, Note_on_c, 8, 58, 110
10, 63152, Note_on_c, 8, 70, 110
10, 63240, Note_off_c, 8, 70, 110
10, 63240, Note_off_c, 8, 58, 110
10, 63248, Note_on_c, 8, 58, 110
10, 63248, Note_on_c, 8, 70, 110
10, 63440, Note_off_c, 8, 70, 110
10, 63440, Note_off_c, 8, 58, 110
10, 63632, Note_on_c, 8, 55, 110
10, 63632, Note_on_c, 8, 67, 110
10, 63720, Note_off_c, 8, 67, 110
10, 63720, Note_off_c, 8, 55, 110
10, 63728, Note_on_c, 8, 58, 110
10, 63728, Note_on_c, 8, 70, 110
10, 63816, Note_off_c, 8, 70, 110
10, 63816, Note_off_c, 8, 58, 110
10, 63824, Note_on_c, 8, 60, 110
10, 63824, Note_on_c, 8, 72, 110
10, 63912, Note_off_c, 8, 72, 110
10, 63912, Note_off_c, 8, 60, 110
10, 63920, Note_on_c, 8, 62, 110
10, 63920, Note_on_c, 8, 74, 110
10, 64112, Note_off_c, 8, 74, 110
10, 64112, Note_off_c, 8, 62, 110
10, 64112, Note_on_c, 8, 58, 110
10, 64112, Note_on_c, 8, 70, 110
10, 64200, Note_off_c, 8, 70, 110
10, 64200, Note_off_c, 8, 58, 110
10, 64496, Note_on_c, 8, 55, 110
10, 64496, Note_on_c, 8, 67, 110
10, 64688, Note_off_c, 8, 67, 110
10, 64688, Note_off_c, 8, 55, 110
10, 64688, Note_on_c, 8, 58, 110
10, 64688, Note_on_c, 8, 70, 110
10, 64776, Note_off_c, 8, 70, 110
10, 64776, Note_off_c, 8, 58, 110
10, 64784, Note_on_c, 8, 58, 110
10, 64784, Note_on_c, 8, 70, 110
10, 64872, Note_off_c, 8, 70, 110
10, 64872, Note_off_c, 8, 58, 110
10, 65168, Note_on_c, 8, 67, 110
10, 65168, Note_on_c, 8, 55, 110
10, 65256, Note_off_c, 8, 55, 110
10, 65256, Note_off_c, 8, 67, 110
10, 65264, Note_on_c, 8, 70, 110
10, 65264, Note_on_c, 8, 58, 110
10, 65456, Note_off_c, 8, 58, 110
10, 65456, Note_off_c, 8, 70, 110
10, 65456, Note_on_c, 8, 72, 110
10, 65456, Note_on_c, 8, 60, 110
10, 65544, Note_off_c, 8, 60, 110
10, 65544, Note_off_c, 8, 72, 110
10, 65552, Note_on_c, 8, 60, 110
10, 65552, Note_on_c, 8, 72, 110
10, 65744, Note_off_c, 8, 72, 110
10, 65744, Note_off_c, 8, 60, 110
10, 65744, Note_on_c, 8, 62, 110
10, 65744, Note_on_c, 8, 74, 110
10, 65840, Note_off_c, 8, 74, 110
10, 65840, Note_off_c, 8, 62, 110
10, 65840, Note_on_c, 8, 58, 110
10, 65840, Note_on_c, 8, 70, 110
10, 65936, Note_off_c, 8, 70, 110
10, 65936, Note_off_c, 8, 58, 110
10, 66032, Note_on_c, 8, 55, 110
10, 66032, Note_on_c, 8, 67, 110
10, 66224, Note_off_c, 8, 67, 110
10, 66224, Note_off_c, 8, 55, 110
10, 66224, Note_on_c, 8, 58, 110
10, 66224, Note_on_c, 8, 70, 110
10, 66312, Note_off_c, 8, 70, 110
10, 66312, Note_off_c, 8, 58, 110
10, 66320, Note_on_c, 8, 55, 110
10, 66320, Note_on_c, 8, 67, 110
10, 66408, Note_off_c, 8, 67, 110
10, 66408, Note_off_c, 8, 55, 110
10, 66416, Note_on_c, 8, 58, 110
10, 66416, Note_on_c, 8, 70, 110
10, 66608, Note_off_c, 8, 70, 110
10, 66608, Note_off_c, 8, 58, 110
10, 66608, Note_on_c, 8, 60, 110
10, 66608, Note_on_c, 8, 72, 110
10, 66800, Note_off_c, 8, 72, 110
10, 66800, Note_off_c, 8, 60, 110
10, 66800, Note_on_c, 8, 62, 110
10, 66800, Note_on_c, 8, 74, 110
10, 66888, Note_off_c, 8, 74, 110
10, 66888, Note_off_c, 8, 62, 110
10, 66896, Note_on_c, 8, 60, 110
10, 66896, Note_on_c, 8, 72, 110
10, 66984, Note_off_c, 8, 72, 110
10, 66984, Note_off_c, 8, 60, 110
10, 66992, Note_on_c, 8, 57, 110
10, 66992, Note_on_c, 8, 69, 110
10, 67080, Note_off_c, 8, 69, 110
10, 67080, Note_off_c, 8, 57, 110
10, 67088, Note_on_c, 8, 53, 110
10, 67088, Note_on_c, 8, 65, 110
10, 67568, Note_off_c, 8, 65, 110
10, 67568, Note_off_c, 8, 53, 110
10, 98496, Note_on_c, 8, 74, 70
10, 98496, Note_on_c, 8, 70, 70
10, 98496, Note_on_c, 8, 67, 70
10, 98688, Note_off_c, 8, 67, 70
10, 98688, Note_off_c, 8, 70, 70
10, 98688, Note_off_c, 8, 74, 70
10, 98880, Note_on_c, 8, 67, 70
10, 98880, Note_on_c, 8, 74, 70
10, 98880, Note_on_c, 8, 70, 70
10, 99072, Note_off_c, 8, 70, 70
10, 99072, Note_off_c, 8, 74, 70
10, 99072, Note_off_c, 8, 67, 70
10, 99264, Note_on_c, 8, 67, 70
10, 99264, Note_on_c, 8, 74, 70
10, 99264, Note_on_c, 8, 70, 70
10, 99456, Note_off_c, 8, 70, 70
10, 99456, Note_off_c, 8, 74, 70
10, 99456, Note_off_c, 8, 67, 70
10, 99648, Note_on_c, 8, 67, 70
10, 99648, Note_on_c, 8, 74, 70
10, 99648, Note_on_c, 8, 70, 70
10, 99840, Note_off_c, 8, 70, 70
10, 99840, Note_off_c, 8, 74, 70
10, 99840, Note_off_c, 8, 67, 70
10, 100032, Note_on_c, 8, 74, 70
10, 100032, Note_on_c, 8, 70, 70
10, 100032, Note_on_c, 8, 67, 70
10, 100224, Note_off_c, 8, 67, 70
10, 100224, Note_off_c, 8, 70, 70
10, 100224, Note_off_c, 8, 74, 70
10, 100416, Note_on_c, 8, 67, 70
10, 100416, Note_on_c, 8, 74, 70
10, 100416, Note_on_c, 8, 70, 70
10, 100608, Note_off_c, 8, 70, 70
10, 100608, Note_off_c, 8, 74, 70
10, 100608, Note_off_c, 8, 67, 70
10, 100800, Note_on_c, 8, 67, 70
10, 100800, Note_on_c, 8, 74, 70
10, 100800, Note_on_c, 8, 70, 70
10, 100992, Note_off_c, 8, 70, 70
10, 100992, Note_off_c, 8, 74, 70
10, 100992, Note_off_c, 8, 67, 70
10, 101184, Note_on_c, 8, 67, 70
10, 101184, Note_on_c, 8, 74, 70
10, 101184, Note_on_c, 8, 70, 70
10, 101376, Note_off_c, 8, 70, 70
10, 101376, Note_off_c, 8, 74, 70
10, 101376, Note_off_c, 8, 67, 70
10, 101568, Note_on_c, 8, 74, 70
10, 101568, Note_on_c, 8, 70, 70
10, 101568, Note_on_c, 8, 67, 70
10, 101760, Note_off_c, 8, 67, 70
10, 101760, Note_off_c, 8, 70, 70
10, 101760, Note_off_c, 8, 74, 70
10, 101952, Note_on_c, 8, 67, 70
10, 101952, Note_on_c, 8, 74, 70
10, 101952, Note_on_c, 8, 70, 70
10, 102144, Note_off_c, 8, 70, 70
10, 102144, Note_off_c, 8, 74, 70
10, 102144, Note_off_c, 8, 67, 70
10, 102336, Note_on_c, 8, 67, 70
10, 102336, Note_on_c, 8, 74, 70
10, 102336, Note_on_c, 8, 70, 70
10, 102528, Note_off_c, 8, 70, 70
10, 102528, Note_off_c, 8, 74, 70
10, 102528, Note_off_c, 8, 67, 70
10, 102720, Note_on_c, 8, 67, 70
10, 102720, Note_on_c, 8, 74, 70
10, 102720, Note_on_c, 8, 70, 70
10, 102912, Note_off_c, 8, 70, 70
10, 102912, Note_off_c, 8, 74, 70
10, 102912, Note_off_c, 8, 67, 70
10, 103104, Note_on_c, 8, 74, 70
10, 103104, Note_on_c, 8, 70, 70
10, 103104, Note_on_c, 8, 67, 70
10, 103296, Note_off_c, 8, 67, 70
10, 103296, Note_off_c, 8, 70, 70
10, 103296, Note_off_c, 8, 74, 70
10, 103488, Note_on_c, 8, 67, 70
10, 103488, Note_on_c, 8, 74, 70
10, 103488, Note_on_c, 8, 70, 70
10, 103680, Note_off_c, 8, 70, 70
10, 103680, Note_off_c, 8, 74, 70
10, 103680, Note_off_c, 8, 67, 70
10, 103872, Note_on_c, 8, 77, 70
10, 103872, Note_on_c, 8, 72, 70
10, 103872, Note_on_c, 8, 69, 70
10, 104064, Note_off_c, 8, 69, 70
10, 104064, Note_off_c, 8, 72, 70
10, 104064, Note_off_c, 8, 77, 70
10, 104256, Note_on_c, 8, 77, 70
10, 104256, Note_on_c, 8, 72, 70
10, 104256, Note_on_c, 8, 69, 70
10, 104448, Note_off_c, 8, 69, 70
10, 104448, Note_off_c, 8, 72, 70
10, 104448, Note_off_c, 8, 77, 70
10, 104640, Note_on_c, 8, 74, 70
10, 104640, Note_on_c, 8, 70, 70
10, 104640, Note_on_c, 8, 67, 70
10, 104832, Note_off_c, 8, 67, 70
10, 104832, Note_off_c, 8, 70, 70
10, 104832, Note_off_c, 8, 74, 70
10, 105024, Note_on_c, 8, 67, 70
10, 105024, Note_on_c, 8, 74, 70
10, 105024, Note_on_c, 8, 70, 70
10, 105216, Note_off_c, 8, 70, 70
10, 105216, Note_off_c, 8, 74, 70
10, 105216, Note_off_c, 8, 67, 70
10, 105408, Note_on_c, 8, 67, 70
10, 105408, Note_on_c, 8, 74, 70
10, 105408, Note_on_c, 8, 70, 70
10, 105600, Note_off_c, 8, 70, 70
10, 105600, Note_off_c, 8, 74, 70
10, 105600, Note_off_c, 8, 67, 70
10, 105792, Note_on_c, 8, 67, 70
10, 105792, Note_on_c, 8, 74, 70
10, 105792, Note_on_c, 8, 70, 70
10, 105984, Note_off_c, 8, 70, 70
10, 105984, Note_off_c, 8, 74, 70
10, 105984, Note_off_c, 8, 67, 70
10, 106176, Note_on_c, 8, 74, 70
10, 106176, Note_on_c, 8, 70, 70
10, 106176, Note_on_c, 8, 67, 70
10, 106368, Note_off_c, 8, 67, 70
10, 106368, Note_off_c, 8, 70, 70
10, 106368, Note_off_c, 8, 74, 70
10, 106560, Note_on_c, 8, 67, 70
10, 106560, Note_on_c, 8, 74, 70
10, 106560, Note_on_c, 8, 70, 70
10, 106752, Note_off_c, 8, 70, 70
10, 106752, Note_off_c, 8, 74, 70
10, 106752, Note_off_c, 8, 67, 70
10, 106944, Note_on_c, 8, 67, 70
10, 106944, Note_on_c, 8, 74, 70
10, 106944, Note_on_c, 8, 70, 70
10, 107136, Note_off_c, 8, 70, 70
10, 107136, Note_off_c, 8, 74, 70
10, 107136, Note_off_c, 8, 67, 70
10, 107328, Note_on_c, 8, 67, 70
10, 107328, Note_on_c, 8, 74, 70
10, 107328, Note_on_c, 8, 70, 70
10, 107520, Note_off_c, 8, 70, 70
10, 107520, Note_off_c, 8, 74, 70
10, 107520, Note_off_c, 8, 67, 70
10, 107712, Note_on_c, 8, 74, 70
10, 107712, Note_on_c, 8, 70, 70
10, 107712, Note_on_c, 8, 67, 70
10, 107904, Note_off_c, 8, 67, 70
10, 107904, Note_off_c, 8, 70, 70
10, 107904, Note_off_c, 8, 74, 70
10, 108096, Note_on_c, 8, 67, 70
10, 108096, Note_on_c, 8, 74, 70
10, 108096, Note_on_c, 8, 70, 70
10, 108288, Note_off_c, 8, 70, 70
10, 108288, Note_off_c, 8, 74, 70
10, 108288, Note_off_c, 8, 67, 70
10, 108480, Note_on_c, 8, 67, 70
10, 108480, Note_on_c, 8, 74, 70
10, 108480, Note_on_c, 8, 70, 70
10, 108672, Note_off_c, 8, 70, 70
10, 108672, Note_off_c, 8, 74, 70
10, 108672, Note_off_c, 8, 67, 70
10, 108864, Note_on_c, 8, 67, 70
10, 108864, Note_on_c, 8, 74, 70
10, 108864, Note_on_c, 8, 70, 70
10, 109056, Note_off_c, 8, 70, 70
10, 109056, Note_off_c, 8, 74, 70
10, 109056, Note_off_c, 8, 67, 70
10, 109248, Note_on_c, 8, 74, 70
10, 109248, Note_on_c, 8, 70, 70
10, 109248, Note_on_c, 8, 67, 70
10, 109440, Note_off_c, 8, 67, 70
10, 109440, Note_off_c, 8, 70, 70
10, 109440, Note_off_c, 8, 74, 70
10, 109632, Note_on_c, 8, 67, 70
10, 109632, Note_on_c, 8, 74, 70
10, 109632, Note_on_c, 8, 70, 70
10, 109824, Note_off_c, 8, 70, 70
10, 109824, Note_off_c, 8, 74, 70
10, 109824, Note_off_c, 8, 67, 70
10, 110016, Note_on_c, 8, 77, 70
10, 110016, Note_on_c, 8, 72, 70
10, 110016, Note_on_c, 8, 69, 70
10, 110208, Note_off_c, 8, 69, 70
10, 110208, Note_off_c, 8, 72, 70
10, 110208, Note_off_c, 8, 77, 70
10, 110400, Note_on_c, 8, 77, 70
10, 110400, Note_on_c, 8, 72, 70
10, 110400, Note_on_c, 8, 69, 70
10, 110592, Note_off_c, 8, 69, 70
10, 110592, Note_off_c, 8, 72, 70
10, 110592, Note_off_c, 8, 77, 70
10, 110592, End_track
11, 0, Start_track
11, 0, Text_t, "Electr Ki"
11, 2880, Control_c, 9, 0, 0
11, 2882, Control_c, 9, 32, 0
11, 2884, Program_c, 9, 24
11, 2886, Control_c, 9, 7, 100
11, 2888, Control_c, 9, 10, 64
11, 2890, Control_c, 9, 11, 90
11, 2892, Control_c, 9, 91, 0
11, 2894, Control_c, 9, 93, 0
11, 9216, Note_on_c, 9, 36, 120
11, 9240, Note_off_c, 9, 36, 120
11, 9408, Note_on_c, 9, 36, 120
11, 9432, Note_off_c, 9, 36, 120
11, 9600, Note_on_c, 9, 36, 120
11, 9624, Note_off_c, 9, 36, 120
11, 9792, Note_on_c, 9, 36, 120
11, 9816, Note_off_c, 9, 36, 120
11, 9984, Note_on_c, 9, 36, 120
11, 10008, Note_off_c, 9, 36, 120
11, 10176, Note_on_c, 9, 36, 120
11, 10200, Note_off_c, 9, 36, 120
11, 10368, Note_on_c, 9, 36, 120
11, 10392, Note_off_c, 9, 36, 120
11, 10560, Note_on_c, 9, 36, 120
11, 10584, Note_off_c, 9, 36, 120
11, 10752, Note_on_c, 9, 36, 120
11, 10776, Note_off_c, 9, 36, 120
11, 10944, Note_on_c, 9, 36, 120
11, 10968, Note_off_c, 9, 36, 120
11, 11136, Note_on_c, 9, 36, 120
11, 11160, Note_off_c, 9, 36, 120
11, 11328, Note_on_c, 9, 36, 120
11, 11352, Note_off_c, 9, 36, 120
11, 11520, Note_on_c, 9, 36, 120
11, 11544, Note_off_c, 9, 36, 120
11, 11712, Note_on_c, 9, 36, 120
11, 11736, Note_off_c, 9, 36, 120
11, 11904, Note_on_c, 9, 36, 120
11, 11928, Note_off_c, 9, 36, 120
11, 12096, Note_on_c, 9, 36, 120
11, 12120, Note_off_c, 9, 36, 120
11, 12288, Note_on_c, 9, 36, 120
11, 12312, Note_off_c, 9, 36, 120
11, 12480, Note_on_c, 9, 36, 120
11, 12504, Note_off_c, 9, 36, 120
11, 12672, Note_on_c, 9, 36, 120
11, 12696, Note_off_c, 9, 36, 120
11, 12864, Note_on_c, 9, 36, 120
11, 12888, Note_off_c, 9, 36, 120
11, 13056, Note_on_c, 9, 36, 120
11, 13080, Note_off_c, 9, 36, 120
11, 13248, Note_on_c, 9, 36, 120
11, 13272, Note_off_c, 9, 36, 120
11, 13440, Note_on_c, 9, 36, 120
11, 13464, Note_off_c, 9, 36, 120
11, 13632, Note_on_c, 9, 36, 120
11, 13656, Note_off_c, 9, 36, 120
11, 13824, Note_on_c, 9, 36, 120
11, 13848, Note_off_c, 9, 36, 120
11, 14016, Note_on_c, 9, 36, 120
11, 14040, Note_off_c, 9, 36, 120
11, 14208, Note_on_c, 9, 36, 120
11, 14232, Note_off_c, 9, 36, 120
11, 14400, Note_on_c, 9, 36, 120
11, 14424, Note_off_c, 9, 36, 120
11, 14592, Note_on_c, 9, 36, 120
11, 14616, Note_off_c, 9, 36, 120
11, 14784, Note_on_c, 9, 36, 120
11, 14808, Note_off_c, 9, 36, 120
11, 14976, Note_on_c, 9, 36, 120
11, 15000, Note_off_c, 9, 36, 120
11, 15168, Note_on_c, 9, 36, 120
11, 15192, Note_off_c, 9, 36, 120
11, 15360, Note_on_c, 9, 36, 120
11, 15384, Note_off_c, 9, 36, 120
11, 15552, Note_on_c, 9, 36, 120
11, 15576, Note_off_c, 9, 36, 120
11, 15744, Note_on_c, 9, 36, 120
11, 15768, Note_off_c, 9, 36, 120
11, 15936, Note_on_c, 9, 36, 120
11, 15960, Note_off_c, 9, 36, 120
11, 16128, Note_on_c, 9, 36, 120
11, 16152, Note_off_c, 9, 36, 120
11, 16320, Note_on_c, 9, 36, 120
11, 16344, Note_off_c, 9, 36, 120
11, 16512, Note_on_c, 9, 36, 120
11, 16536, Note_off_c, 9, 36, 120
11, 16704, Note_on_c, 9, 36, 120
11, 16728, Note_off_c, 9, 36, 120
11, 16896, Note_on_c, 9, 36, 120
11, 16920, Note_off_c, 9, 36, 120
11, 17088, Note_on_c, 9, 36, 120
11, 17112, Note_off_c, 9, 36, 120
11, 17280, Note_on_c, 9, 36, 120
11, 17304, Note_off_c, 9, 36, 120
11, 17472, Note_on_c, 9, 36, 120
11, 17496, Note_off_c, 9, 36, 120
11, 17664, Note_on_c, 9, 36, 120
11, 17688, Note_off_c, 9, 36, 120
11, 17856, Note_on_c, 9, 36, 120
11, 17880, Note_off_c, 9, 36, 120
11, 18048, Note_on_c, 9, 36, 120
11, 18072, Note_off_c, 9, 36, 120
11, 18240, Note_on_c, 9, 36, 120
11, 18264, Note_off_c, 9, 36, 120
11, 18432, Note_on_c, 9, 36, 120
11, 18456, Note_off_c, 9, 36, 120
11, 18624, Note_on_c, 9, 36, 120
11, 18648, Note_off_c, 9, 36, 120
11, 18816, Note_on_c, 9, 36, 120
11, 18840, Note_off_c, 9, 36, 120
11, 19008, Note_on_c, 9, 36, 120
11, 19032, Note_off_c, 9, 36, 120
11, 19200, Note_on_c, 9, 36, 120
11, 19224, Note_off_c, 9, 36, 120
11, 19392, Note_on_c, 9, 36, 120
11, 19416, Note_off_c, 9, 36, 120
11, 19584, Note_on_c, 9, 36, 120
11, 19608, Note_off_c, 9, 36, 120
11, 19776, Note_on_c, 9, 36, 120
11, 19800, Note_off_c, 9, 36, 120
11, 19968, Note_on_c, 9, 36, 120
11, 19992, Note_off_c, 9, 36, 120
11, 20160, Note_on_c, 9, 36, 120
11, 20184, Note_off_c, 9, 36, 120
11, 20352, Note_on_c, 9, 36, 120
11, 20376, Note_off_c, 9, 36, 120
11, 20544, Note_on_c, 9, 36, 120
11, 20568, Note_off_c, 9, 36, 120
11, 20736, Note_on_c, 9, 36, 120
11, 20760, Note_off_c, 9, 36, 120
11, 20928, Note_on_c, 9, 36, 120
11, 20952, Note_off_c, 9, 36, 120
11, 21120, Note_on_c, 9, 36, 120
11, 21144, Note_off_c, 9, 36, 120
11, 21312, Note_on_c, 9, 36, 120
11, 21336, Note_off_c, 9, 36, 120
11, 21504, Note_on_c, 9, 36, 120
11, 21528, Note_off_c, 9, 36, 120
11, 21696, Note_on_c, 9, 36, 120
11, 21720, Note_off_c, 9, 36, 120
11, 21888, Note_on_c, 9, 36, 120
11, 21912, Note_off_c, 9, 36, 120
11, 22080, Note_on_c, 9, 36, 120
11, 22104, Note_off_c, 9, 36, 120
11, 22272, Note_on_c, 9, 36, 120
11, 22296, Note_off_c, 9, 36, 120
11, 22464, Note_on_c, 9, 36, 120
11, 22488, Note_off_c, 9, 36, 120
11, 22656, Note_on_c, 9, 36, 120
11, 22680, Note_off_c, 9, 36, 120
11, 22848, Note_on_c, 9, 36, 120
11, 22872, Note_off_c, 9, 36, 120
11, 23040, Note_on_c, 9, 36, 120
11, 23064, Note_off_c, 9, 36, 120
11, 23232, Note_on_c, 9, 36, 120
11, 23256, Note_off_c, 9, 36, 120
11, 23424, Note_on_c, 9, 36, 120
11, 23448, Note_off_c, 9, 36, 120
11, 23616, Note_on_c, 9, 36, 120
11, 23640, Note_off_c, 9, 36, 120
11, 23808, Note_on_c, 9, 36, 120
11, 23832, Note_off_c, 9, 36, 120
11, 24000, Note_on_c, 9, 36, 120
11, 24024, Note_off_c, 9, 36, 120
11, 24192, Note_on_c, 9, 36, 120
11, 24216, Note_off_c, 9, 36, 120
11, 24384, Note_on_c, 9, 36, 120
11, 24408, Note_off_c, 9, 36, 120
11, 24576, Note_on_c, 9, 36, 120
11, 24600, Note_off_c, 9, 36, 120
11, 24768, Note_on_c, 9, 36, 120
11, 24792, Note_off_c, 9, 36, 120
11, 24960, Note_on_c, 9, 36, 120
11, 24984, Note_off_c, 9, 36, 120
11, 25152, Note_on_c, 9, 36, 120
11, 25176, Note_off_c, 9, 36, 120
11, 25344, Note_on_c, 9, 36, 120
11, 25368, Note_off_c, 9, 36, 120
11, 25536, Note_on_c, 9, 36, 120
11, 25560, Note_off_c, 9, 36, 120
11, 25728, Note_on_c, 9, 36, 120
11, 25752, Note_off_c, 9, 36, 120
11, 25920, Note_on_c, 9, 36, 120
11, 25944, Note_off_c, 9, 36, 120
11, 26112, Note_on_c, 9, 36, 120
11, 26136, Note_off_c, 9, 36, 120
11, 26304, Note_on_c, 9, 36, 120
11, 26328, Note_off_c, 9, 36, 120
11, 26496, Note_on_c, 9, 36, 120
11, 26520, Note_off_c, 9, 36, 120
11, 26688, Note_on_c, 9, 36, 120
11, 26712, Note_off_c, 9, 36, 120
11, 26880, Note_on_c, 9, 36, 120
11, 26904, Note_off_c, 9, 36, 120
11, 27072, Note_on_c, 9, 36, 120
11, 27096, Note_off_c, 9, 36, 120
11, 27264, Note_on_c, 9, 36, 120
11, 27288, Note_off_c, 9, 36, 120
11, 27456, Note_on_c, 9, 36, 120
11, 27480, Note_off_c, 9, 36, 120
11, 27648, Note_on_c, 9, 36, 120
11, 27672, Note_off_c, 9, 36, 120
11, 30720, Note_on_c, 9, 36, 120
11, 30744, Note_off_c, 9, 36, 120
11, 32256, Note_on_c, 9, 36, 120
11, 32280, Note_off_c, 9, 36, 120
11, 32448, Note_on_c, 9, 36, 120
11, 32472, Note_off_c, 9, 36, 120
11, 32640, Note_on_c, 9, 36, 120
11, 32664, Note_off_c, 9, 36, 120
11, 32832, Note_on_c, 9, 36, 120
11, 32856, Note_off_c, 9, 36, 120
11, 33024, Note_on_c, 9, 36, 120
11, 33048, Note_off_c, 9, 36, 120
11, 33216, Note_on_c, 9, 36, 120
11, 33240, Note_off_c, 9, 36, 120
11, 33408, Note_on_c, 9, 36, 120
11, 33432, Note_off_c, 9, 36, 120
11, 33600, Note_on_c, 9, 36, 120
11, 33624, Note_off_c, 9, 36, 120
11, 33792, Note_on_c, 9, 36, 120
11, 33816, Note_off_c, 9, 36, 120
11, 33984, Note_on_c, 9, 36, 120
11, 34008, Note_off_c, 9, 36, 120
11, 34176, Note_on_c, 9, 36, 120
11, 34200, Note_off_c, 9, 36, 120
11, 34368, Note_on_c, 9, 36, 120
11, 34392, Note_off_c, 9, 36, 120
11, 34560, Note_on_c, 9, 36, 120
11, 34584, Note_off_c, 9, 36, 120
11, 34752, Note_on_c, 9, 36, 120
11, 34776, Note_off_c, 9, 36, 120
11, 34944, Note_on_c, 9, 36, 120
11, 34968, Note_off_c, 9, 36, 120
11, 35136, Note_on_c, 9, 36, 120
11, 35160, Note_off_c, 9, 36, 120
11, 35328, Note_on_c, 9, 36, 120
11, 35352, Note_off_c, 9, 36, 120
11, 35520, Note_on_c, 9, 36, 120
11, 35544, Note_off_c, 9, 36, 120
11, 35712, Note_on_c, 9, 36, 120
11, 35736, Note_off_c, 9, 36, 120
11, 35904, Note_on_c, 9, 36, 120
11, 35928, Note_off_c, 9, 36, 120
11, 36096, Note_on_c, 9, 36, 120
11, 36120, Note_off_c, 9, 36, 120
11, 36288, Note_on_c, 9, 36, 120
11, 36312, Note_off_c, 9, 36, 120
11, 36480, Note_on_c, 9, 36, 120
11, 36504, Note_off_c, 9, 36, 120
11, 36672, Note_on_c, 9, 36, 120
11, 36696, Note_off_c, 9, 36, 120
11, 36864, Note_on_c, 9, 36, 120
11, 36888, Note_off_c, 9, 36, 120
11, 37056, Note_on_c, 9, 36, 120
11, 37080, Note_off_c, 9, 36, 120
11, 37248, Note_on_c, 9, 36, 120
11, 37272, Note_off_c, 9, 36, 120
11, 37440, Note_on_c, 9, 36, 120
11, 37464, Note_off_c, 9, 36, 120
11, 37632, Note_on_c, 9, 36, 120
11, 37656, Note_off_c, 9, 36, 120
11, 37824, Note_on_c, 9, 36, 120
11, 37848, Note_off_c, 9, 36, 120
11, 38016, Note_on_c, 9, 36, 120
11, 38040, Note_off_c, 9, 36, 120
11, 38208, Note_on_c, 9, 36, 120
11, 38232, Note_off_c, 9, 36, 120
11, 38400, Note_on_c, 9, 36, 120
11, 38424, Note_off_c, 9, 36, 120
11, 38592, Note_on_c, 9, 36, 120
11, 38616, Note_off_c, 9, 36, 120
11, 38784, Note_on_c, 9, 36, 120
11, 38808, Note_off_c, 9, 36, 120
11, 38976, Note_on_c, 9, 36, 120
11, 39000, Note_off_c, 9, 36, 120
11, 39168, Note_on_c, 9, 36, 120
11, 39192, Note_off_c, 9, 36, 120
11, 39360, Note_on_c, 9, 36, 120
11, 39384, Note_off_c, 9, 36, 120
11, 39552, Note_on_c, 9, 36, 120
11, 39576, Note_off_c, 9, 36, 120
11, 39744, Note_on_c, 9, 36, 120
11, 39768, Note_off_c, 9, 36, 120
11, 39936, Note_on_c, 9, 36, 120
11, 39960, Note_off_c, 9, 36, 120
11, 40128, Note_on_c, 9, 36, 120
11, 40152, Note_off_c, 9, 36, 120
11, 40320, Note_on_c, 9, 36, 120
11, 40344, Note_off_c, 9, 36, 120
11, 40512, Note_on_c, 9, 36, 120
11, 40536, Note_off_c, 9, 36, 120
11, 40704, Note_on_c, 9, 36, 120
11, 40728, Note_off_c, 9, 36, 120
11, 40896, Note_on_c, 9, 36, 120
11, 40920, Note_off_c, 9, 36, 120
11, 41088, Note_on_c, 9, 36, 120
11, 41112, Note_off_c, 9, 36, 120
11, 41280, Note_on_c, 9, 36, 120
11, 41304, Note_off_c, 9, 36, 120
11, 41472, Note_on_c, 9, 36, 120
11, 41496, Note_off_c, 9, 36, 120
11, 41664, Note_on_c, 9, 36, 120
11, 41688, Note_off_c, 9, 36, 120
11, 41856, Note_on_c, 9, 36, 120
11, 41880, Note_off_c, 9, 36, 120
11, 42048, Note_on_c, 9, 36, 120
11, 42072, Note_off_c, 9, 36, 120
11, 42240, Note_on_c, 9, 36, 120
11, 42264, Note_off_c, 9, 36, 120
11, 42432, Note_on_c, 9, 36, 120
11, 42456, Note_off_c, 9, 36, 120
11, 42624, Note_on_c, 9, 36, 120
11, 42648, Note_off_c, 9, 36, 120
11, 42816, Note_on_c, 9, 36, 120
11, 42840, Note_off_c, 9, 36, 120
11, 43008, Note_on_c, 9, 36, 120
11, 43032, Note_off_c, 9, 36, 120
11, 43200, Note_on_c, 9, 36, 120
11, 43224, Note_off_c, 9, 36, 120
11, 43392, Note_on_c, 9, 36, 120
11, 43416, Note_off_c, 9, 36, 120
11, 43584, Note_on_c, 9, 36, 120
11, 43608, Note_off_c, 9, 36, 120
11, 43776, Note_on_c, 9, 36, 120
11, 43800, Note_off_c, 9, 36, 120
11, 43968, Note_on_c, 9, 36, 120
11, 43992, Note_off_c, 9, 36, 120
11, 44160, Note_on_c, 9, 36, 120
11, 44184, Note_off_c, 9, 36, 120
11, 44352, Note_on_c, 9, 36, 120
11, 44376, Note_off_c, 9, 36, 120
11, 44544, Note_on_c, 9, 36, 120
11, 44568, Note_off_c, 9, 36, 120
11, 44736, Note_on_c, 9, 36, 120
11, 44760, Note_off_c, 9, 36, 120
11, 44928, Note_on_c, 9, 36, 120
11, 44952, Note_off_c, 9, 36, 120
11, 45120, Note_on_c, 9, 36, 120
11, 45144, Note_off_c, 9, 36, 120
11, 45312, Note_on_c, 9, 36, 120
11, 45336, Note_off_c, 9, 36, 120
11, 45504, Note_on_c, 9, 36, 120
11, 45528, Note_off_c, 9, 36, 120
11, 45696, Note_on_c, 9, 36, 120
11, 45720, Note_off_c, 9, 36, 120
11, 45888, Note_on_c, 9, 36, 120
11, 45912, Note_off_c, 9, 36, 120
11, 46080, Note_on_c, 9, 36, 120
11, 46104, Note_off_c, 9, 36, 120
11, 46272, Note_on_c, 9, 36, 120
11, 46296, Note_off_c, 9, 36, 120
11, 46464, Note_on_c, 9, 36, 120
11, 46488, Note_off_c, 9, 36, 120
11, 46656, Note_on_c, 9, 36, 120
11, 46680, Note_off_c, 9, 36, 120
11, 46848, Note_on_c, 9, 36, 120
11, 46872, Note_off_c, 9, 36, 120
11, 47040, Note_on_c, 9, 36, 120
11, 47064, Note_off_c, 9, 36, 120
11, 47232, Note_on_c, 9, 36, 120
11, 47256, Note_off_c, 9, 36, 120
11, 47424, Note_on_c, 9, 36, 120
11, 47448, Note_off_c, 9, 36, 120
11, 47616, Note_on_c, 9, 36, 120
11, 47640, Note_off_c, 9, 36, 120
11, 47808, Note_on_c, 9, 36, 120
11, 47832, Note_off_c, 9, 36, 120
11, 48000, Note_on_c, 9, 36, 120
11, 48024, Note_off_c, 9, 36, 120
11, 48192, Note_on_c, 9, 36, 120
11, 48216, Note_off_c, 9, 36, 120
11, 48384, Note_on_c, 9, 36, 120
11, 48408, Note_off_c, 9, 36, 120
11, 48576, Note_on_c, 9, 36, 120
11, 48600, Note_off_c, 9, 36, 120
11, 48768, Note_on_c, 9, 36, 120
11, 48792, Note_off_c, 9, 36, 120
11, 48960, Note_on_c, 9, 36, 120
11, 48984, Note_off_c, 9, 36, 120
11, 49152, Note_on_c, 9, 36, 120
11, 49176, Note_off_c, 9, 36, 120
11, 50688, Note_on_c, 9, 36, 120
11, 50712, Note_off_c, 9, 36, 120
11, 50880, Note_on_c, 9, 36, 120
11, 50904, Note_off_c, 9, 36, 120
11, 51072, Note_on_c, 9, 36, 120
11, 51096, Note_off_c, 9, 36, 120
11, 51264, Note_on_c, 9, 36, 120
11, 51288, Note_off_c, 9, 36, 120
11, 51456, Note_on_c, 9, 36, 120
11, 51480, Note_off_c, 9, 36, 120
11, 51648, Note_on_c, 9, 36, 120
11, 51672, Note_off_c, 9, 36, 120
11, 51840, Note_on_c, 9, 36, 120
11, 51864, Note_off_c, 9, 36, 120
11, 52032, Note_on_c, 9, 36, 120
11, 52056, Note_off_c, 9, 36, 120
11, 52224, Note_on_c, 9, 36, 120
11, 52248, Note_off_c, 9, 36, 120
11, 52416, Note_on_c, 9, 36, 120
11, 52440, Note_off_c, 9, 36, 120
11, 52608, Note_on_c, 9, 36, 120
11, 52632, Note_off_c, 9, 36, 120
11, 52800, Note_on_c, 9, 36, 120
11, 52824, Note_off_c, 9, 36, 120
11, 52992, Note_on_c, 9, 36, 120
11, 53016, Note_off_c, 9, 36, 120
11, 53184, Note_on_c, 9, 36, 120
11, 53208, Note_off_c, 9, 36, 120
11, 53376, Note_on_c, 9, 36, 120
11, 53400, Note_off_c, 9, 36, 120
11, 53568, Note_on_c, 9, 36, 120
11, 53592, Note_off_c, 9, 36, 120
11, 53760, Note_on_c, 9, 36, 120
11, 53784, Note_off_c, 9, 36, 120
11, 53952, Note_on_c, 9, 36, 120
11, 53976, Note_off_c, 9, 36, 120
11, 54144, Note_on_c, 9, 36, 120
11, 54168, Note_off_c, 9, 36, 120
11, 54336, Note_on_c, 9, 36, 120
11, 54360, Note_off_c, 9, 36, 120
11, 54528, Note_on_c, 9, 36, 120
11, 54552, Note_off_c, 9, 36, 120
11, 54720, Note_on_c, 9, 36, 120
11, 54744, Note_off_c, 9, 36, 120
11, 54912, Note_on_c, 9, 36, 120
11, 54936, Note_off_c, 9, 36, 120
11, 55104, Note_on_c, 9, 36, 120
11, 55128, Note_off_c, 9, 36, 120
11, 55296, Note_on_c, 9, 36, 120
11, 55320, Note_off_c, 9, 36, 120
11, 55488, Note_on_c, 9, 36, 120
11, 55512, Note_off_c, 9, 36, 120
11, 55680, Note_on_c, 9, 36, 120
11, 55704, Note_off_c, 9, 36, 120
11, 55872, Note_on_c, 9, 36, 120
11, 55896, Note_off_c, 9, 36, 120
11, 56064, Note_on_c, 9, 36, 120
11, 56088, Note_off_c, 9, 36, 120
11, 56256, Note_on_c, 9, 36, 120
11, 56280, Note_off_c, 9, 36, 120
11, 56448, Note_on_c, 9, 36, 120
11, 56472, Note_off_c, 9, 36, 120
11, 56640, Note_on_c, 9, 36, 120
11, 56664, Note_off_c, 9, 36, 120
11, 56832, Note_on_c, 9, 36, 120
11, 56856, Note_off_c, 9, 36, 120
11, 57024, Note_on_c, 9, 36, 120
11, 57048, Note_off_c, 9, 36, 120
11, 57216, Note_on_c, 9, 36, 120
11, 57240, Note_off_c, 9, 36, 120
11, 57408, Note_on_c, 9, 36, 120
11, 57432, Note_off_c, 9, 36, 120
11, 57600, Note_on_c, 9, 36, 120
11, 57624, Note_off_c, 9, 36, 120
11, 57792, Note_on_c, 9, 36, 120
11, 57816, Note_off_c, 9, 36, 120
11, 57984, Note_on_c, 9, 36, 120
11, 58008, Note_off_c, 9, 36, 120
11, 58176, Note_on_c, 9, 36, 120
11, 58200, Note_off_c, 9, 36, 120
11, 58368, Note_on_c, 9, 36, 120
11, 58392, Note_off_c, 9, 36, 120
11, 58560, Note_on_c, 9, 36, 120
11, 58584, Note_off_c, 9, 36, 120
11, 58752, Note_on_c, 9, 36, 120
11, 58776, Note_off_c, 9, 36, 120
11, 58944, Note_on_c, 9, 36, 120
11, 58968, Note_off_c, 9, 36, 120
11, 59136, Note_on_c, 9, 36, 120
11, 59160, Note_off_c, 9, 36, 120
11, 59328, Note_on_c, 9, 36, 120
11, 59352, Note_off_c, 9, 36, 120
11, 59520, Note_on_c, 9, 36, 120
11, 59544, Note_off_c, 9, 36, 120
11, 59712, Note_on_c, 9, 36, 120
11, 59736, Note_off_c, 9, 36, 120
11, 59904, Note_on_c, 9, 36, 120
11, 59928, Note_off_c, 9, 36, 120
11, 60096, Note_on_c, 9, 36, 120
11, 60120, Note_off_c, 9, 36, 120
11, 60288, Note_on_c, 9, 36, 120
11, 60312, Note_off_c, 9, 36, 120
11, 60480, Note_on_c, 9, 36, 120
11, 60504, Note_off_c, 9, 36, 120
11, 60672, Note_on_c, 9, 36, 120
11, 60696, Note_off_c, 9, 36, 120
11, 60864, Note_on_c, 9, 36, 120
11, 60888, Note_off_c, 9, 36, 120
11, 61056, Note_on_c, 9, 36, 120
11, 61080, Note_off_c, 9, 36, 120
11, 61248, Note_on_c, 9, 36, 120
11, 61272, Note_off_c, 9, 36, 120
11, 61440, Note_on_c, 9, 36, 120
11, 61464, Note_off_c, 9, 36, 120
11, 61632, Note_on_c, 9, 36, 120
11, 61656, Note_off_c, 9, 36, 120
11, 61824, Note_on_c, 9, 36, 120
11, 61848, Note_off_c, 9, 36, 120
11, 62016, Note_on_c, 9, 36, 120
11, 62040, Note_off_c, 9, 36, 120
11, 62208, Note_on_c, 9, 36, 120
11, 62232, Note_off_c, 9, 36, 120
11, 62400, Note_on_c, 9, 36, 120
11, 62424, Note_off_c, 9, 36, 120
11, 62592, Note_on_c, 9, 36, 120
11, 62616, Note_off_c, 9, 36, 120
11, 62784, Note_on_c, 9, 36, 120
11, 62808, Note_off_c, 9, 36, 120
11, 62976, Note_on_c, 9, 36, 120
11, 63000, Note_off_c, 9, 36, 120
11, 63168, Note_on_c, 9, 36, 120
11, 63192, Note_off_c, 9, 36, 120
11, 63360, Note_on_c, 9, 36, 120
11, 63384, Note_off_c, 9, 36, 120
11, 63552, Note_on_c, 9, 36, 120
11, 63576, Note_off_c, 9, 36, 120
11, 63744, Note_on_c, 9, 36, 120
11, 63768, Note_off_c, 9, 36, 120
11, 63936, Note_on_c, 9, 36, 120
11, 63960, Note_off_c, 9, 36, 120
11, 64128, Note_on_c, 9, 36, 120
11, 64152, Note_off_c, 9, 36, 120
11, 64320, Note_on_c, 9, 36, 120
11, 64344, Note_off_c, 9, 36, 120
11, 64512, Note_on_c, 9, 36, 120
11, 64536, Note_off_c, 9, 36, 120
11, 64704, Note_on_c, 9, 36, 120
11, 64728, Note_off_c, 9, 36, 120
11, 64896, Note_on_c, 9, 36, 120
11, 64920, Note_off_c, 9, 36, 120
11, 65088, Note_on_c, 9, 36, 120
11, 65112, Note_off_c, 9, 36, 120
11, 65280, Note_on_c, 9, 36, 120
11, 65304, Note_off_c, 9, 36, 120
11, 65472, Note_on_c, 9, 36, 120
11, 65496, Note_off_c, 9, 36, 120
11, 65664, Note_on_c, 9, 36, 120
11, 65688, Note_off_c, 9, 36, 120
11, 65856, Note_on_c, 9, 36, 120
11, 65880, Note_off_c, 9, 36, 120
11, 66048, Note_on_c, 9, 36, 120
11, 66072, Note_off_c, 9, 36, 120
11, 66240, Note_on_c, 9, 36, 120
11, 66264, Note_off_c, 9, 36, 120
11, 66432, Note_on_c, 9, 36, 120
11, 66456, Note_off_c, 9, 36, 120
11, 66624, Note_on_c, 9, 36, 120
11, 66648, Note_off_c, 9, 36, 120
11, 66816, Note_on_c, 9, 36, 120
11, 66840, Note_off_c, 9, 36, 120
11, 67008, Note_on_c, 9, 36, 120
11, 67032, Note_off_c, 9, 36, 120
11, 67584, Note_on_c, 9, 36, 120
11, 67608, Note_off_c, 9, 36, 120
11, 67776, Note_on_c, 9, 36, 120
11, 67800, Note_off_c, 9, 36, 120
11, 67968, Note_on_c, 9, 36, 120
11, 67992, Note_off_c, 9, 36, 120
11, 68160, Note_on_c, 9, 36, 120
11, 68184, Note_off_c, 9, 36, 120
11, 68352, Note_on_c, 9, 36, 120
11, 68376, Note_off_c, 9, 36, 120
11, 68544, Note_on_c, 9, 36, 120
11, 68568, Note_off_c, 9, 36, 120
11, 68736, Note_on_c, 9, 36, 120
11, 68760, Note_off_c, 9, 36, 120
11, 68928, Note_on_c, 9, 36, 120
11, 68952, Note_off_c, 9, 36, 120
11, 69120, Note_on_c, 9, 36, 120
11, 69144, Note_off_c, 9, 36, 120
11, 69312, Note_on_c, 9, 36, 120
11, 69336, Note_off_c, 9, 36, 120
11, 69504, Note_on_c, 9, 36, 120
11, 69528, Note_off_c, 9, 36, 120
11, 69696, Note_on_c, 9, 36, 120
11, 69720, Note_off_c, 9, 36, 120
11, 70656, Note_on_c, 9, 36, 120
11, 70680, Note_off_c, 9, 36, 120
11, 70848, Note_on_c, 9, 36, 120
11, 70872, Note_off_c, 9, 36, 120
11, 71040, Note_on_c, 9, 36, 120
11, 71064, Note_off_c, 9, 36, 120
11, 71232, Note_on_c, 9, 36, 120
11, 71256, Note_off_c, 9, 36, 120
11, 71424, Note_on_c, 9, 36, 120
11, 71448, Note_off_c, 9, 36, 120
11, 71616, Note_on_c, 9, 36, 120
11, 71640, Note_off_c, 9, 36, 120
11, 71808, Note_on_c, 9, 36, 120
11, 71832, Note_off_c, 9, 36, 120
11, 72000, Note_on_c, 9, 36, 120
11, 72024, Note_off_c, 9, 36, 120
11, 72192, Note_on_c, 9, 36, 120
11, 72216, Note_off_c, 9, 36, 120
11, 72384, Note_on_c, 9, 36, 120
11, 72408, Note_off_c, 9, 36, 120
11, 72576, Note_on_c, 9, 36, 120
11, 72600, Note_off_c, 9, 36, 120
11, 72768, Note_on_c, 9, 36, 120
11, 72792, Note_off_c, 9, 36, 120
11, 72960, Note_on_c, 9, 36, 120
11, 72984, Note_off_c, 9, 36, 120
11, 73152, Note_on_c, 9, 36, 120
11, 73176, Note_off_c, 9, 36, 120
11, 73344, Note_on_c, 9, 36, 120
11, 73368, Note_off_c, 9, 36, 120
11, 73536, Note_on_c, 9, 36, 120
11, 73560, Note_off_c, 9, 36, 120
11, 73728, Note_on_c, 9, 36, 120
11, 73752, Note_off_c, 9, 36, 120
11, 73920, Note_on_c, 9, 36, 120
11, 73944, Note_off_c, 9, 36, 120
11, 74112, Note_on_c, 9, 36, 120
11, 74136, Note_off_c, 9, 36, 120
11, 74304, Note_on_c, 9, 36, 120
11, 74328, Note_off_c, 9, 36, 120
11, 74496, Note_on_c, 9, 36, 120
11, 74520, Note_off_c, 9, 36, 120
11, 74688, Note_on_c, 9, 36, 120
11, 74712, Note_off_c, 9, 36, 120
11, 74880, Note_on_c, 9, 36, 120
11, 74904, Note_off_c, 9, 36, 120
11, 75072, Note_on_c, 9, 36, 120
11, 75096, Note_off_c, 9, 36, 120
11, 75264, Note_on_c, 9, 36, 120
11, 75288, Note_off_c, 9, 36, 120
11, 75456, Note_on_c, 9, 36, 120
11, 75480, Note_off_c, 9, 36, 120
11, 75648, Note_on_c, 9, 36, 120
11, 75672, Note_off_c, 9, 36, 120
11, 75840, Note_on_c, 9, 36, 120
11, 75864, Note_off_c, 9, 36, 120
11, 76032, Note_on_c, 9, 36, 120
11, 76056, Note_off_c, 9, 36, 120
11, 76224, Note_on_c, 9, 36, 120
11, 76248, Note_off_c, 9, 36, 120
11, 76416, Note_on_c, 9, 36, 120
11, 76440, Note_off_c, 9, 36, 120
11, 76608, Note_on_c, 9, 36, 120
11, 76632, Note_off_c, 9, 36, 120
11, 76800, Note_on_c, 9, 36, 120
11, 76824, Note_off_c, 9, 36, 120
11, 76992, Note_on_c, 9, 36, 120
11, 77016, Note_off_c, 9, 36, 120
11, 77184, Note_on_c, 9, 36, 120
11, 77208, Note_off_c, 9, 36, 120
11, 77376, Note_on_c, 9, 36, 120
11, 77400, Note_off_c, 9, 36, 120
11, 77568, Note_on_c, 9, 36, 120
11, 77592, Note_off_c, 9, 36, 120
11, 77760, Note_on_c, 9, 36, 120
11, 77784, Note_off_c, 9, 36, 120
11, 77952, Note_on_c, 9, 36, 120
11, 77976, Note_off_c, 9, 36, 120
11, 78144, Note_on_c, 9, 36, 120
11, 78168, Note_off_c, 9, 36, 120
11, 78336, Note_on_c, 9, 36, 120
11, 78360, Note_off_c, 9, 36, 120
11, 78528, Note_on_c, 9, 36, 120
11, 78552, Note_off_c, 9, 36, 120
11, 78720, Note_on_c, 9, 36, 120
11, 78744, Note_off_c, 9, 36, 120
11, 78912, Note_on_c, 9, 36, 120
11, 78936, Note_off_c, 9, 36, 120
11, 79104, Note_on_c, 9, 36, 120
11, 79128, Note_off_c, 9, 36, 120
11, 79872, Note_on_c, 9, 36, 120
11, 79896, Note_off_c, 9, 36, 120
11, 80064, Note_on_c, 9, 36, 120
11, 80088, Note_off_c, 9, 36, 120
11, 80256, Note_on_c, 9, 36, 120
11, 80280, Note_off_c, 9, 36, 120
11, 80448, Note_on_c, 9, 36, 120
11, 80472, Note_off_c, 9, 36, 120
11, 80640, Note_on_c, 9, 36, 120
11, 80664, Note_off_c, 9, 36, 120
11, 80832, Note_on_c, 9, 36, 120
11, 80856, Note_off_c, 9, 36, 120
11, 81024, Note_on_c, 9, 36, 120
11, 81048, Note_off_c, 9, 36, 120
11, 81216, Note_on_c, 9, 36, 120
11, 81240, Note_off_c, 9, 36, 120
11, 81408, Note_on_c, 9, 36, 120
11, 81432, Note_off_c, 9, 36, 120
11, 81600, Note_on_c, 9, 36, 120
11, 81624, Note_off_c, 9, 36, 120
11, 81792, Note_on_c, 9, 36, 120
11, 81816, Note_off_c, 9, 36, 120
11, 81984, Note_on_c, 9, 36, 120
11, 82008, Note_off_c, 9, 36, 120
11, 82176, Note_on_c, 9, 36, 120
11, 82200, Note_off_c, 9, 36, 120
11, 82368, Note_on_c, 9, 36, 120
11, 82392, Note_off_c, 9, 36, 120
11, 82560, Note_on_c, 9, 36, 120
11, 82584, Note_off_c, 9, 36, 120
11, 82752, Note_on_c, 9, 36, 120
11, 82776, Note_off_c, 9, 36, 120
11, 82944, Note_on_c, 9, 36, 120
11, 82968, Note_off_c, 9, 36, 120
11, 83136, Note_on_c, 9, 36, 120
11, 83160, Note_off_c, 9, 36, 120
11, 83328, Note_on_c, 9, 36, 120
11, 83352, Note_off_c, 9, 36, 120
11, 83520, Note_on_c, 9, 36, 120
11, 83544, Note_off_c, 9, 36, 120
11, 83712, Note_on_c, 9, 36, 120
11, 83736, Note_off_c, 9, 36, 120
11, 83904, Note_on_c, 9, 36, 120
11, 83928, Note_off_c, 9, 36, 120
11, 84096, Note_on_c, 9, 36, 120
11, 84120, Note_off_c, 9, 36, 120
11, 84288, Note_on_c, 9, 36, 120
11, 84312, Note_off_c, 9, 36, 120
11, 84480, Note_on_c, 9, 36, 120
11, 84504, Note_off_c, 9, 36, 120
11, 84672, Note_on_c, 9, 36, 120
11, 84696, Note_off_c, 9, 36, 120
11, 84864, Note_on_c, 9, 36, 120
11, 84888, Note_off_c, 9, 36, 120
11, 85056, Note_on_c, 9, 36, 120
11, 85080, Note_off_c, 9, 36, 120
11, 85248, Note_on_c, 9, 36, 120
11, 85272, Note_off_c, 9, 36, 120
11, 85440, Note_on_c, 9, 36, 120
11, 85464, Note_off_c, 9, 36, 120
11, 85632, Note_on_c, 9, 36, 120
11, 85656, Note_off_c, 9, 36, 120
11, 85824, Note_on_c, 9, 36, 120
11, 85848, Note_off_c, 9, 36, 120
11, 86016, Note_on_c, 9, 36, 120
11, 86040, Note_off_c, 9, 36, 120
11, 86208, Note_on_c, 9, 36, 120
11, 86232, Note_off_c, 9, 36, 120
11, 86400, Note_on_c, 9, 36, 120
11, 86424, Note_off_c, 9, 36, 120
11, 86592, Note_on_c, 9, 36, 120
11, 86616, Note_off_c, 9, 36, 120
11, 86784, Note_on_c, 9, 36, 120
11, 86808, Note_off_c, 9, 36, 120
11, 86976, Note_on_c, 9, 36, 120
11, 87000, Note_off_c, 9, 36, 120
11, 87168, Note_on_c, 9, 36, 120
11, 87192, Note_off_c, 9, 36, 120
11, 87360, Note_on_c, 9, 36, 120
11, 87384, Note_off_c, 9, 36, 120
11, 87552, Note_on_c, 9, 36, 120
11, 87576, Note_off_c, 9, 36, 120
11, 87744, Note_on_c, 9, 36, 120
11, 87768, Note_off_c, 9, 36, 120
11, 87936, Note_on_c, 9, 36, 120
11, 87960, Note_off_c, 9, 36, 120
11, 88128, Note_on_c, 9, 36, 120
11, 88152, Note_off_c, 9, 36, 120
11, 88320, Note_on_c, 9, 36, 120
11, 88344, Note_off_c, 9, 36, 120
11, 88512, Note_on_c, 9, 36, 120
11, 88536, Note_off_c, 9, 36, 120
11, 88704, Note_on_c, 9, 36, 120
11, 88728, Note_off_c, 9, 36, 120
11, 88896, Note_on_c, 9, 36, 120
11, 88920, Note_off_c, 9, 36, 120
11, 89088, Note_on_c, 9, 36, 120
11, 89112, Note_off_c, 9, 36, 120
11, 89280, Note_on_c, 9, 36, 120
11, 89304, Note_off_c, 9, 36, 120
11, 89472, Note_on_c, 9, 36, 120
11, 89496, Note_off_c, 9, 36, 120
11, 89664, Note_on_c, 9, 36, 120
11, 89688, Note_off_c, 9, 36, 120
11, 89856, Note_on_c, 9, 36, 120
11, 89880, Note_off_c, 9, 36, 120
11, 90048, Note_on_c, 9, 36, 120
11, 90072, Note_off_c, 9, 36, 120
11, 90240, Note_on_c, 9, 36, 120
11, 90264, Note_off_c, 9, 36, 120
11, 90432, Note_on_c, 9, 36, 120
11, 90456, Note_off_c, 9, 36, 120
11, 92160, Note_on_c, 9, 36, 120
11, 92184, Note_off_c, 9, 36, 120
11, 92352, Note_on_c, 9, 36, 120
11, 92376, Note_off_c, 9, 36, 120
11, 92544, Note_on_c, 9, 36, 120
11, 92568, Note_off_c, 9, 36, 120
11, 92736, Note_on_c, 9, 36, 120
11, 92760, Note_off_c, 9, 36, 120
11, 92928, Note_on_c, 9, 36, 120
11, 92952, Note_off_c, 9, 36, 120
11, 93120, Note_on_c, 9, 36, 120
11, 93144, Note_off_c, 9, 36, 120
11, 93312, Note_on_c, 9, 36, 120
11, 93336, Note_off_c, 9, 36, 120
11, 93504, Note_on_c, 9, 36, 120
11, 93528, Note_off_c, 9, 36, 120
11, 93696, Note_on_c, 9, 36, 120
11, 93720, Note_off_c, 9, 36, 120
11, 93888, Note_on_c, 9, 36, 120
11, 93912, Note_off_c, 9, 36, 120
11, 94080, Note_on_c, 9, 36, 120
11, 94104, Note_off_c, 9, 36, 120
11, 94272, Note_on_c, 9, 36, 120
11, 94296, Note_off_c, 9, 36, 120
11, 94464, Note_on_c, 9, 36, 120
11, 94488, Note_off_c, 9, 36, 120
11, 94656, Note_on_c, 9, 36, 120
11, 94680, Note_off_c, 9, 36, 120
11, 94848, Note_on_c, 9, 36, 120
11, 94872, Note_off_c, 9, 36, 120
11, 95040, Note_on_c, 9, 36, 120
11, 95064, Note_off_c, 9, 36, 120
11, 95232, Note_on_c, 9, 36, 120
11, 95256, Note_off_c, 9, 36, 120
11, 95424, Note_on_c, 9, 36, 120
11, 95448, Note_off_c, 9, 36, 120
11, 95616, Note_on_c, 9, 36, 120
11, 95640, Note_off_c, 9, 36, 120
11, 95808, Note_on_c, 9, 36, 120
11, 95832, Note_off_c, 9, 36, 120
11, 96000, Note_on_c, 9, 36, 120
11, 96024, Note_off_c, 9, 36, 120
11, 96192, Note_on_c, 9, 36, 120
11, 96216, Note_off_c, 9, 36, 120
11, 96384, Note_on_c, 9, 36, 120
11, 96408, Note_off_c, 9, 36, 120
11, 96576, Note_on_c, 9, 36, 120
11, 96600, Note_off_c, 9, 36, 120
11, 96768, Note_on_c, 9, 36, 120
11, 96792, Note_off_c, 9, 36, 120
11, 96960, Note_on_c, 9, 36, 120
11, 96984, Note_off_c, 9, 36, 120
11, 97152, Note_on_c, 9, 36, 120
11, 97176, Note_off_c, 9, 36, 120
11, 97344, Note_on_c, 9, 36, 120
11, 97368, Note_off_c, 9, 36, 120
11, 97536, Note_on_c, 9, 36, 120
11, 97560, Note_off_c, 9, 36, 120
11, 97728, Note_on_c, 9, 36, 120
11, 97752, Note_off_c, 9, 36, 120
11, 97920, Note_on_c, 9, 36, 120
11, 97944, Note_off_c, 9, 36, 120
11, 98112, Note_on_c, 9, 36, 120
11, 98136, Note_off_c, 9, 36, 120
11, 98304, Note_on_c, 9, 36, 120
11, 98328, Note_off_c, 9, 36, 120
11, 98496, Note_on_c, 9, 36, 120
11, 98520, Note_off_c, 9, 36, 120
11, 98688, Note_on_c, 9, 36, 120
11, 98712, Note_off_c, 9, 36, 120
11, 98880, Note_on_c, 9, 36, 120
11, 98904, Note_off_c, 9, 36, 120
11, 99072, Note_on_c, 9, 36, 120
11, 99096, Note_off_c, 9, 36, 120
11, 99264, Note_on_c, 9, 36, 120
11, 99288, Note_off_c, 9, 36, 120
11, 99456, Note_on_c, 9, 36, 120
11, 99480, Note_off_c, 9, 36, 120
11, 99648, Note_on_c, 9, 36, 120
11, 99672, Note_off_c, 9, 36, 120
11, 99840, Note_on_c, 9, 36, 120
11, 99864, Note_off_c, 9, 36, 120
11, 100032, Note_on_c, 9, 36, 120
11, 100056, Note_off_c, 9, 36, 120
11, 100224, Note_on_c, 9, 36, 120
11, 100248, Note_off_c, 9, 36, 120
11, 100416, Note_on_c, 9, 36, 120
11, 100440, Note_off_c, 9, 36, 120
11, 100608, Note_on_c, 9, 36, 120
11, 100632, Note_off_c, 9, 36, 120
11, 100800, Note_on_c, 9, 36, 120
11, 100824, Note_off_c, 9, 36, 120
11, 100992, Note_on_c, 9, 36, 120
11, 101016, Note_off_c, 9, 36, 120
11, 101184, Note_on_c, 9, 36, 120
11, 101208, Note_off_c, 9, 36, 120
11, 101376, Note_on_c, 9, 36, 120
11, 101400, Note_off_c, 9, 36, 120
11, 101568, Note_on_c, 9, 36, 120
11, 101592, Note_off_c, 9, 36, 120
11, 101760, Note_on_c, 9, 36, 120
11, 101784, Note_off_c, 9, 36, 120
11, 101952, Note_on_c, 9, 36, 120
11, 101976, Note_off_c, 9, 36, 120
11, 102144, Note_on_c, 9, 36, 120
11, 102168, Note_off_c, 9, 36, 120
11, 102336, Note_on_c, 9, 36, 120
11, 102360, Note_off_c, 9, 36, 120
11, 102528, Note_on_c, 9, 36, 120
11, 102552, Note_off_c, 9, 36, 120
11, 102720, Note_on_c, 9, 36, 120
11, 102744, Note_off_c, 9, 36, 120
11, 102912, Note_on_c, 9, 36, 120
11, 102936, Note_off_c, 9, 36, 120
11, 103104, Note_on_c, 9, 36, 120
11, 103128, Note_off_c, 9, 36, 120
11, 103296, Note_on_c, 9, 36, 120
11, 103320, Note_off_c, 9, 36, 120
11, 103488, Note_on_c, 9, 36, 120
11, 103512, Note_off_c, 9, 36, 120
11, 103680, Note_on_c, 9, 36, 120
11, 103704, Note_off_c, 9, 36, 120
11, 103872, Note_on_c, 9, 36, 120
11, 103896, Note_off_c, 9, 36, 120
11, 104064, Note_on_c, 9, 36, 120
11, 104088, Note_off_c, 9, 36, 120
11, 104256, Note_on_c, 9, 36, 120
11, 104280, Note_off_c, 9, 36, 120
11, 104448, Note_on_c, 9, 36, 120
11, 104472, Note_off_c, 9, 36, 120
11, 104640, Note_on_c, 9, 36, 120
11, 104664, Note_off_c, 9, 36, 120
11, 104832, Note_on_c, 9, 36, 120
11, 104856, Note_off_c, 9, 36, 120
11, 105024, Note_on_c, 9, 36, 120
11, 105048, Note_off_c, 9, 36, 120
11, 105216, Note_on_c, 9, 36, 120
11, 105240, Note_off_c, 9, 36, 120
11, 105408, Note_on_c, 9, 36, 120
11, 105432, Note_off_c, 9, 36, 120
11, 105600, Note_on_c, 9, 36, 120
11, 105624, Note_off_c, 9, 36, 120
11, 105792, Note_on_c, 9, 36, 120
11, 105816, Note_off_c, 9, 36, 120
11, 105984, Note_on_c, 9, 36, 120
11, 106008, Note_off_c, 9, 36, 120
11, 106176, Note_on_c, 9, 36, 120
11, 106200, Note_off_c, 9, 36, 120
11, 106368, Note_on_c, 9, 36, 120
11, 106392, Note_off_c, 9, 36, 120
11, 106560, Note_on_c, 9, 36, 120
11, 106584, Note_off_c, 9, 36, 120
11, 106752, Note_on_c, 9, 36, 120
11, 106776, Note_off_c, 9, 36, 120
11, 106944, Note_on_c, 9, 36, 120
11, 106968, Note_off_c, 9, 36, 120
11, 107136, Note_on_c, 9, 36, 120
11, 107160, Note_off_c, 9, 36, 120
11, 107328, Note_on_c, 9, 36, 120
11, 107352, Note_off_c, 9, 36, 120
11, 107520, Note_on_c, 9, 36, 120
11, 107544, Note_off_c, 9, 36, 120
11, 107712, Note_on_c, 9, 36, 120
11, 107736, Note_off_c, 9, 36, 120
11, 107904, Note_on_c, 9, 36, 120
11, 107928, Note_off_c, 9, 36, 120
11, 108096, Note_on_c, 9, 36, 120
11, 108120, Note_off_c, 9, 36, 120
11, 108288, Note_on_c, 9, 36, 120
11, 108312, Note_off_c, 9, 36, 120
11, 108480, Note_on_c, 9, 36, 120
11, 108504, Note_off_c, 9, 36, 120
11, 108672, Note_on_c, 9, 36, 120
11, 108696, Note_off_c, 9, 36, 120
11, 108864, Note_on_c, 9, 36, 120
11, 108888, Note_off_c, 9, 36, 120
11, 109056, Note_on_c, 9, 36, 120
11, 109080, Note_off_c, 9, 36, 120
11, 109248, Note_on_c, 9, 36, 120
11, 109272, Note_off_c, 9, 36, 120
11, 109440, Note_on_c, 9, 36, 120
11, 109464, Note_off_c, 9, 36, 120
11, 109632, Note_on_c, 9, 36, 120
11, 109656, Note_off_c, 9, 36, 120
11, 109824, Note_on_c, 9, 36, 120
11, 109848, Note_off_c, 9, 36, 120
11, 110592, Note_on_c, 9, 36, 120
11, 110616, Note_off_c, 9, 36, 120
11, 110784, Note_on_c, 9, 36, 120
11, 110808, Note_off_c, 9, 36, 120
11, 110976, Note_on_c, 9, 36, 120
11, 111000, Note_off_c, 9, 36, 120
11, 111168, Note_on_c, 9, 36, 120
11, 111192, Note_off_c, 9, 36, 120
11, 111360, Note_on_c, 9, 36, 120
11, 111384, Note_off_c, 9, 36, 120
11, 111552, Note_on_c, 9, 36, 120
11, 111576, Note_off_c, 9, 36, 120
11, 111744, Note_on_c, 9, 36, 120
11, 111768, Note_off_c, 9, 36, 120
11, 111936, Note_on_c, 9, 36, 120
11, 111960, Note_off_c, 9, 36, 120
11, 112128, Note_on_c, 9, 36, 120
11, 112152, Note_off_c, 9, 36, 120
11, 112320, Note_on_c, 9, 36, 120
11, 112344, Note_off_c, 9, 36, 120
11, 112512, Note_on_c, 9, 36, 120
11, 112536, Note_off_c, 9, 36, 120
11, 112704, Note_on_c, 9, 36, 120
11, 112728, Note_off_c, 9, 36, 120
11, 112896, Note_on_c, 9, 36, 120
11, 112920, Note_off_c, 9, 36, 120
11, 113088, Note_on_c, 9, 36, 120
11, 113112, Note_off_c, 9, 36, 120
11, 113280, Note_on_c, 9, 36, 120
11, 113304, Note_off_c, 9, 36, 120
11, 113472, Note_on_c, 9, 36, 120
11, 113496, Note_off_c, 9, 36, 120
11, 113664, Note_on_c, 9, 36, 120
11, 113688, Note_off_c, 9, 36, 120
11, 113856, Note_on_c, 9, 36, 120
11, 113880, Note_off_c, 9, 36, 120
11, 114048, Note_on_c, 9, 36, 120
11, 114072, Note_off_c, 9, 36, 120
11, 114240, Note_on_c, 9, 36, 120
11, 114264, Note_off_c, 9, 36, 120
11, 114432, Note_on_c, 9, 36, 120
11, 114456, Note_off_c, 9, 36, 120
11, 114624, Note_on_c, 9, 36, 120
11, 114648, Note_off_c, 9, 36, 120
11, 114816, Note_on_c, 9, 36, 120
11, 114840, Note_off_c, 9, 36, 120
11, 115008, Note_on_c, 9, 36, 120
11, 115032, Note_off_c, 9, 36, 120
11, 115200, Note_on_c, 9, 36, 120
11, 115224, Note_off_c, 9, 36, 120
11, 115392, Note_on_c, 9, 36, 120
11, 115416, Note_off_c, 9, 36, 120
11, 115584, Note_on_c, 9, 36, 120
11, 115608, Note_off_c, 9, 36, 120
11, 115776, Note_on_c, 9, 36, 120
11, 115800, Note_off_c, 9, 36, 120
11, 115968, Note_on_c, 9, 36, 120
11, 115992, Note_off_c, 9, 36, 120
11, 116160, Note_on_c, 9, 36, 120
11, 116184, Note_off_c, 9, 36, 120
11, 116352, Note_on_c, 9, 36, 120
11, 116376, Note_off_c, 9, 36, 120
11, 116544, Note_on_c, 9, 36, 120
11, 116568, Note_off_c, 9, 36, 120
11, 116736, Note_on_c, 9, 36, 120
11, 116760, Note_off_c, 9, 36, 120
11, 116928, Note_on_c, 9, 36, 120
11, 116952, Note_off_c, 9, 36, 120
11, 117120, Note_on_c, 9, 36, 120
11, 117144, Note_off_c, 9, 36, 120
11, 117312, Note_on_c, 9, 36, 120
11, 117336, Note_off_c, 9, 36, 120
11, 117504, Note_on_c, 9, 36, 120
11, 117528, Note_off_c, 9, 36, 120
11, 117696, Note_on_c, 9, 36, 120
11, 117720, Note_off_c, 9, 36, 120
11, 117888, Note_on_c, 9, 36, 120
11, 117912, Note_off_c, 9, 36, 120
11, 118080, Note_on_c, 9, 36, 120
11, 118104, Note_off_c, 9, 36, 120
11, 118272, Note_on_c, 9, 36, 120
11, 118296, Note_off_c, 9, 36, 120
11, 118464, Note_on_c, 9, 36, 120
11, 118488, Note_off_c, 9, 36, 120
11, 118656, Note_on_c, 9, 36, 120
11, 118680, Note_off_c, 9, 36, 120
11, 118848, Note_on_c, 9, 36, 120
11, 118872, Note_off_c, 9, 36, 120
11, 119040, Note_on_c, 9, 36, 120
11, 119064, Note_off_c, 9, 36, 120
11, 119232, Note_on_c, 9, 36, 120
11, 119256, Note_off_c, 9, 36, 120
11, 119424, Note_on_c, 9, 36, 120
11, 119448, Note_off_c, 9, 36, 120
11, 119616, Note_on_c, 9, 36, 120
11, 119640, Note_off_c, 9, 36, 120
11, 119808, Note_on_c, 9, 36, 120
11, 119832, Note_off_c, 9, 36, 120
11, 120000, Note_on_c, 9, 36, 120
11, 120024, Note_off_c, 9, 36, 120
11, 120192, Note_on_c, 9, 36, 120
11, 120216, Note_off_c, 9, 36, 120
11, 120384, Note_on_c, 9, 36, 120
11, 120408, Note_off_c, 9, 36, 120
11, 120576, Note_on_c, 9, 36, 120
11, 120600, Note_off_c, 9, 36, 120
11, 120768, Note_on_c, 9, 36, 120
11, 120792, Note_off_c, 9, 36, 120
11, 120960, Note_on_c, 9, 36, 120
11, 120984, Note_off_c, 9, 36, 120
11, 121152, Note_on_c, 9, 36, 120
11, 121176, Note_off_c, 9, 36, 120
11, 121344, Note_on_c, 9, 36, 120
11, 121368, Note_off_c, 9, 36, 120
11, 121536, Note_on_c, 9, 36, 120
11, 121560, Note_off_c, 9, 36, 120
11, 121728, Note_on_c, 9, 36, 120
11, 121752, Note_off_c, 9, 36, 120
11, 121920, Note_on_c, 9, 36, 120
11, 121944, Note_off_c, 9, 36, 120
11, 122112, Note_on_c, 9, 36, 120
11, 122136, Note_off_c, 9, 36, 120
11, 122136, End_track
12, 0, Start_track
12, 0, Text_t, "Drum Loop"
12, 2880, Control_c, 10, 0, 0
12, 2882, Control_c, 10, 32, 0
12, 2884, Program_c, 10, 25
12, 2886, Control_c, 10, 7, 100
12, 2888, Control_c, 10, 10, 64
12, 2890, Control_c, 10, 11, 127
12, 2892, Control_c, 10, 91, 0
12, 2894, Control_c, 10, 93, 0
12, 8928, Note_on_c, 10, 40, 60
12, 8952, Note_off_c, 10, 40, 60
12, 8976, Note_on_c, 10, 40, 60
12, 9000, Note_off_c, 10, 40, 60
12, 9072, Note_on_c, 10, 40, 60
12, 9096, Note_off_c, 10, 40, 60
12, 9168, Note_on_c, 10, 40, 60
12, 9192, Note_off_c, 10, 40, 60
12, 9408, Note_on_c, 10, 27, 127
12, 9432, Note_off_c, 10, 27, 127
12, 9552, Note_on_c, 10, 40, 80
12, 9576, Note_off_c, 10, 40, 80
12, 9792, Note_on_c, 10, 27, 127
12, 9816, Note_off_c, 10, 27, 127
12, 10176, Note_on_c, 10, 27, 127
12, 10200, Note_off_c, 10, 27, 127
12, 10320, Note_on_c, 10, 40, 80
12, 10344, Note_off_c, 10, 40, 80
12, 10416, Note_on_c, 10, 40, 80
12, 10440, Note_off_c, 10, 40, 80
12, 10560, Note_on_c, 10, 27, 127
12, 10584, Note_off_c, 10, 27, 127
12, 10944, Note_on_c, 10, 27, 127
12, 10968, Note_off_c, 10, 27, 127
12, 11088, Note_on_c, 10, 40, 80
12, 11112, Note_off_c, 10, 40, 80
12, 11328, Note_on_c, 10, 27, 127
12, 11352, Note_off_c, 10, 27, 127
12, 11712, Note_on_c, 10, 27, 127
12, 11736, Note_off_c, 10, 27, 127
12, 11856, Note_on_c, 10, 40, 80
12, 11880, Note_off_c, 10, 40, 80
12, 11952, Note_on_c, 10, 40, 80
12, 11976, Note_off_c, 10, 40, 80
12, 12096, Note_on_c, 10, 27, 127
12, 12120, Note_off_c, 10, 27, 127
12, 12192, Note_on_c, 10, 40, 60
12, 12216, Note_off_c, 10, 40, 60
12, 12480, Note_on_c, 10, 27, 127
12, 12504, Note_off_c, 10, 27, 127
12, 12624, Note_on_c, 10, 40, 80
12, 12648, Note_off_c, 10, 40, 80
12, 12864, Note_on_c, 10, 27, 127
12, 12888, Note_off_c, 10, 27, 127
12, 13248, Note_on_c, 10, 27, 127
12, 13272, Note_off_c, 10, 27, 127
12, 13392, Note_on_c, 10, 40, 80
12, 13416, Note_off_c, 10, 40, 80
12, 13488, Note_on_c, 10, 40, 80
12, 13512, Note_off_c, 10, 40, 80
12, 13632, Note_on_c, 10, 27, 127
12, 13656, Note_off_c, 10, 27, 127
12, 13736, Note_on_c, 10, 38, 80
12, 13760, Note_off_c, 10, 38, 80
12, 13784, Note_on_c, 10, 38, 80
12, 13808, Note_off_c, 10, 38, 80
12, 14016, Note_on_c, 10, 27, 127
12, 14040, Note_off_c, 10, 27, 127
12, 14160, Note_on_c, 10, 40, 80
12, 14184, Note_off_c, 10, 40, 80
12, 14400, Note_on_c, 10, 27, 127
12, 14424, Note_off_c, 10, 27, 127
12, 15264, Note_on_c, 10, 40, 100
12, 15288, Note_off_c, 10, 40, 100
12, 15312, Note_on_c, 10, 40, 100
12, 15336, Note_off_c, 10, 40, 100
12, 15552, Note_on_c, 10, 27, 127
12, 15576, Note_off_c, 10, 27, 127
12, 15696, Note_on_c, 10, 40, 80
12, 15720, Note_off_c, 10, 40, 80
12, 15936, Note_on_c, 10, 27, 127
12, 15960, Note_off_c, 10, 27, 127
12, 16320, Note_on_c, 10, 27, 127
12, 16344, Note_off_c, 10, 27, 127
12, 16464, Note_on_c, 10, 40, 80
12, 16488, Note_off_c, 10, 40, 80
12, 16560, Note_on_c, 10, 40, 80
12, 16584, Note_off_c, 10, 40, 80
12, 16704, Note_on_c, 10, 27, 127
12, 16728, Note_off_c, 10, 27, 127
12, 17088, Note_on_c, 10, 27, 127
12, 17112, Note_off_c, 10, 27, 127
12, 17232, Note_on_c, 10, 40, 80
12, 17256, Note_off_c, 10, 40, 80
12, 17472, Note_on_c, 10, 27, 127
12, 17496, Note_off_c, 10, 27, 127
12, 17856, Note_on_c, 10, 27, 127
12, 17880, Note_off_c, 10, 27, 127
12, 18000, Note_on_c, 10, 40, 80
12, 18024, Note_off_c, 10, 40, 80
12, 18096, Note_on_c, 10, 40, 80
12, 18120, Note_off_c, 10, 40, 80
12, 18240, Note_on_c, 10, 27, 127
12, 18264, Note_off_c, 10, 27, 127
12, 18624, Note_on_c, 10, 27, 127
12, 18648, Note_off_c, 10, 27, 127
12, 18768, Note_on_c, 10, 40, 80
12, 18792, Note_off_c, 10, 40, 80
12, 19008, Note_on_c, 10, 27, 127
12, 19032, Note_off_c, 10, 27, 127
12, 19392, Note_on_c, 10, 27, 127
12, 19416, Note_off_c, 10, 27, 127
12, 19536, Note_on_c, 10, 40, 80
12, 19560, Note_off_c, 10, 40, 80
12, 19632, Note_on_c, 10, 40, 80
12, 19656, Note_off_c, 10, 40, 80
12, 19776, Note_on_c, 10, 27, 127
12, 19800, Note_off_c, 10, 27, 127
12, 19872, Note_on_c, 10, 38, 95
12, 19896, Note_off_c, 10, 38, 95
12, 19920, Note_on_c, 10, 38, 95
12, 19944, Note_off_c, 10, 38, 95
12, 20160, Note_on_c, 10, 27, 127
12, 20184, Note_off_c, 10, 27, 127
12, 20304, Note_on_c, 10, 40, 80
12, 20328, Note_off_c, 10, 40, 80
12, 20544, Note_on_c, 10, 27, 127
12, 20568, Note_off_c, 10, 27, 127
12, 20928, Note_on_c, 10, 27, 127
12, 20952, Note_off_c, 10, 27, 127
12, 21072, Note_on_c, 10, 40, 80
12, 21096, Note_off_c, 10, 40, 80
12, 21168, Note_on_c, 10, 40, 80
12, 21192, Note_off_c, 10, 40, 80
12, 21312, Note_on_c, 10, 27, 127
12, 21336, Note_off_c, 10, 27, 127
12, 21408, Note_on_c, 10, 40, 80
12, 21432, Note_off_c, 10, 40, 80
12, 21456, Note_on_c, 10, 40, 80
12, 21480, Note_off_c, 10, 40, 80
12, 21696, Note_on_c, 10, 27, 127
12, 21720, Note_off_c, 10, 27, 127
12, 21840, Note_on_c, 10, 40, 80
12, 21864, Note_off_c, 10, 40, 80
12, 22080, Note_on_c, 10, 27, 127
12, 22104, Note_off_c, 10, 27, 127
12, 22464, Note_on_c, 10, 27, 127
12, 22488, Note_off_c, 10, 27, 127
12, 22608, Note_on_c, 10, 40, 80
12, 22632, Note_off_c, 10, 40, 80
12, 22704, Note_on_c, 10, 40, 80
12, 22728, Note_off_c, 10, 40, 80
12, 22848, Note_on_c, 10, 27, 127
12, 22872, Note_off_c, 10, 27, 127
12, 23232, Note_on_c, 10, 27, 127
12, 23256, Note_off_c, 10, 27, 127
12, 23376, Note_on_c, 10, 40, 80
12, 23400, Note_off_c, 10, 40, 80
12, 23616, Note_on_c, 10, 27, 127
12, 23640, Note_off_c, 10, 27, 127
12, 24000, Note_on_c, 10, 27, 127
12, 24024, Note_off_c, 10, 27, 127
12, 24144, Note_on_c, 10, 40, 80
12, 24168, Note_off_c, 10, 40, 80
12, 24240, Note_on_c, 10, 40, 80
12, 24264, Note_off_c, 10, 40, 80
12, 24384, Note_on_c, 10, 27, 127
12, 24408, Note_off_c, 10, 27, 127
12, 24768, Note_on_c, 10, 27, 127
12, 24792, Note_off_c, 10, 27, 127
12, 24912, Note_on_c, 10, 40, 80
12, 24936, Note_off_c, 10, 40, 80
12, 25152, Note_on_c, 10, 27, 127
12, 25176, Note_off_c, 10, 27, 127
12, 25536, Note_on_c, 10, 27, 127
12, 25560, Note_off_c, 10, 27, 127
12, 25680, Note_on_c, 10, 40, 80
12, 25704, Note_off_c, 10, 40, 80
12, 25776, Note_on_c, 10, 40, 80
12, 25800, Note_off_c, 10, 40, 80
12, 25920, Note_on_c, 10, 27, 127
12, 25944, Note_off_c, 10, 27, 127
12, 26016, Note_on_c, 10, 38, 95
12, 26040, Note_off_c, 10, 38, 95
12, 26064, Note_on_c, 10, 38, 95
12, 26088, Note_off_c, 10, 38, 95
12, 26304, Note_on_c, 10, 27, 127
12, 26328, Note_off_c, 10, 27, 127
12, 26448, Note_on_c, 10, 40, 80
12, 26472, Note_off_c, 10, 40, 80
12, 26688, Note_on_c, 10, 27, 127
12, 26712, Note_off_c, 10, 27, 127
12, 27072, Note_on_c, 10, 27, 127
12, 27096, Note_off_c, 10, 27, 127
12, 27456, Note_on_c, 10, 27, 127
12, 27480, Note_off_c, 10, 27, 127
12, 27552, Note_on_c, 10, 40, 80
12, 27576, Note_off_c, 10, 40, 80
12, 27600, Note_on_c, 10, 40, 80
12, 27624, Note_off_c, 10, 40, 80
12, 27648, Note_on_c, 10, 40, 100
12, 27672, Note_off_c, 10, 40, 100
12, 30528, Note_on_c, 10, 40, 80
12, 30552, Note_off_c, 10, 40, 80
12, 30576, Note_on_c, 10, 40, 80
12, 30600, Note_off_c, 10, 40, 80
12, 30624, Note_on_c, 10, 40, 80
12, 30648, Note_off_c, 10, 40, 80
12, 30672, Note_on_c, 10, 40, 80
12, 30696, Note_off_c, 10, 40, 80
12, 31872, Note_on_c, 10, 40, 80
12, 31896, Note_off_c, 10, 40, 80
12, 31920, Note_on_c, 10, 40, 80
12, 31944, Note_off_c, 10, 40, 80
12, 31968, Note_on_c, 10, 40, 80
12, 31992, Note_off_c, 10, 40, 80
12, 32064, Note_on_c, 10, 40, 80
12, 32088, Note_off_c, 10, 40, 80
12, 32112, Note_on_c, 10, 40, 80
12, 32136, Note_off_c, 10, 40, 80
12, 32208, Note_on_c, 10, 40, 80
12, 32232, Note_off_c, 10, 40, 80
12, 32448, Note_on_c, 10, 27, 127
12, 32472, Note_off_c, 10, 27, 127
12, 32592, Note_on_c, 10, 40, 80
12, 32616, Note_off_c, 10, 40, 80
12, 32832, Note_on_c, 10, 27, 127
12, 32856, Note_off_c, 10, 27, 127
12, 33216, Note_on_c, 10, 27, 127
12, 33240, Note_off_c, 10, 27, 127
12, 33360, Note_on_c, 10, 40, 80
12, 33384, Note_off_c, 10, 40, 80
12, 33456, Note_on_c, 10, 40, 80
12, 33480, Note_off_c, 10, 40, 80
12, 33600, Note_on_c, 10, 27, 127
12, 33624, Note_off_c, 10, 27, 127
12, 33984, Note_on_c, 10, 27, 127
12, 34008, Note_off_c, 10, 27, 127
12, 34128, Note_on_c, 10, 40, 80
12, 34152, Note_off_c, 10, 40, 80
12, 34368, Note_on_c, 10, 27, 127
12, 34392, Note_off_c, 10, 27, 127
12, 34752, Note_on_c, 10, 27, 127
12, 34776, Note_off_c, 10, 27, 127
12, 34896, Note_on_c, 10, 40, 80
12, 34920, Note_off_c, 10, 40, 80
12, 34992, Note_on_c, 10, 40, 80
12, 35016, Note_off_c, 10, 40, 80
12, 35136, Note_on_c, 10, 27, 127
12, 35160, Note_off_c, 10, 27, 127
12, 35232, Note_on_c, 10, 38, 80
12, 35256, Note_off_c, 10, 38, 80
12, 35280, Note_on_c, 10, 38, 80
12, 35304, Note_off_c, 10, 38, 80
12, 35520, Note_on_c, 10, 27, 127
12, 35544, Note_off_c, 10, 27, 127
12, 35664, Note_on_c, 10, 40, 80
12, 35688, Note_off_c, 10, 40, 80
12, 35904, Note_on_c, 10, 27, 127
12, 35928, Note_off_c, 10, 27, 127
12, 36288, Note_on_c, 10, 27, 127
12, 36312, Note_off_c, 10, 27, 127
12, 36432, Note_on_c, 10, 40, 80
12, 36456, Note_off_c, 10, 40, 80
12, 36528, Note_on_c, 10, 40, 80
12, 36552, Note_off_c, 10, 40, 80
12, 36672, Note_on_c, 10, 27, 127
12, 36696, Note_off_c, 10, 27, 127
12, 36768, Note_on_c, 10, 38, 80
12, 36792, Note_off_c, 10, 38, 80
12, 36816, Note_on_c, 10, 38, 80
12, 36840, Note_off_c, 10, 38, 80
12, 37056, Note_on_c, 10, 27, 127
12, 37080, Note_off_c, 10, 27, 127
12, 37200, Note_on_c, 10, 40, 80
12, 37224, Note_off_c, 10, 40, 80
12, 37440, Note_on_c, 10, 27, 127
12, 37464, Note_off_c, 10, 27, 127
12, 37824, Note_on_c, 10, 27, 127
12, 37848, Note_off_c, 10, 27, 127
12, 37968, Note_on_c, 10, 40, 80
12, 37992, Note_off_c, 10, 40, 80
12, 38064, Note_on_c, 10, 40, 80
12, 38088, Note_off_c, 10, 40, 80
12, 38208, Note_on_c, 10, 27, 127
12, 38232, Note_off_c, 10, 27, 127
12, 38304, Note_on_c, 10, 38, 80
12, 38328, Note_off_c, 10, 38, 80
12, 38352, Note_on_c, 10, 38, 80
12, 38376, Note_off_c, 10, 38, 80
12, 38592, Note_on_c, 10, 27, 127
12, 38616, Note_off_c, 10, 27, 127
12, 38736, Note_on_c, 10, 40, 80
12, 38760, Note_off_c, 10, 40, 80
12, 38976, Note_on_c, 10, 27, 127
12, 39000, Note_off_c, 10, 27, 127
12, 39360, Note_on_c, 10, 27, 127
12, 39384, Note_off_c, 10, 27, 127
12, 39504, Note_on_c, 10, 40, 80
12, 39528, Note_off_c, 10, 40, 80
12, 39600, Note_on_c, 10, 40, 80
12, 39624, Note_off_c, 10, 40, 80
12, 39744, Note_on_c, 10, 27, 127
12, 39768, Note_off_c, 10, 27, 127
12, 39840, Note_on_c, 10, 38, 80
12, 39864, Note_off_c, 10, 38, 80
12, 39888, Note_on_c, 10, 38, 80
12, 39912, Note_off_c, 10, 38, 80
12, 40128, Note_on_c, 10, 27, 127
12, 40152, Note_off_c, 10, 27, 127
12, 40272, Note_on_c, 10, 40, 80
12, 40296, Note_off_c, 10, 40, 80
12, 40512, Note_on_c, 10, 27, 127
12, 40536, Note_off_c, 10, 27, 127
12, 40896, Note_on_c, 10, 27, 127
12, 40920, Note_off_c, 10, 27, 127
12, 41040, Note_on_c, 10, 40, 80
12, 41064, Note_off_c, 10, 40, 80
12, 41136, Note_on_c, 10, 40, 80
12, 41160, Note_off_c, 10, 40, 80
12, 41280, Note_on_c, 10, 27, 127
12, 41304, Note_off_c, 10, 27, 127
12, 41376, Note_on_c, 10, 38, 80
12, 41400, Note_off_c, 10, 38, 80
12, 41424, Note_on_c, 10, 38, 80
12, 41448, Note_off_c, 10, 38, 80
12, 41664, Note_on_c, 10, 27, 127
12, 41688, Note_off_c, 10, 27, 127
12, 41808, Note_on_c, 10, 40, 80
12, 41832, Note_off_c, 10, 40, 80
12, 42048, Note_on_c, 10, 27, 127
12, 42072, Note_off_c, 10, 27, 127
12, 42288, Note_on_c, 10, 40, 80
12, 42312, Note_off_c, 10, 40, 80
12, 42432, Note_on_c, 10, 27, 127
12, 42432, Note_on_c, 10, 40, 80
12, 42456, Note_off_c, 10, 40, 80
12, 42456, Note_off_c, 10, 27, 127
12, 42672, Note_on_c, 10, 40, 80
12, 42696, Note_off_c, 10, 40, 80
12, 42816, Note_on_c, 10, 27, 127
12, 42816, Note_on_c, 10, 40, 80
12, 42840, Note_off_c, 10, 40, 80
12, 42840, Note_off_c, 10, 27, 127
12, 42864, Note_on_c, 10, 40, 80
12, 42888, Note_off_c, 10, 40, 80
12, 42912, Note_on_c, 10, 40, 80
12, 42936, Note_off_c, 10, 40, 80
12, 42960, Note_on_c, 10, 40, 80
12, 42984, Note_off_c, 10, 40, 80
12, 43200, Note_on_c, 10, 27, 127
12, 43224, Note_off_c, 10, 27, 127
12, 43344, Note_on_c, 10, 40, 80
12, 43368, Note_off_c, 10, 40, 80
12, 43584, Note_on_c, 10, 27, 127
12, 43608, Note_off_c, 10, 27, 127
12, 43968, Note_on_c, 10, 27, 127
12, 43992, Note_off_c, 10, 27, 127
12, 44112, Note_on_c, 10, 40, 80
12, 44136, Note_off_c, 10, 40, 80
12, 44208, Note_on_c, 10, 40, 80
12, 44232, Note_off_c, 10, 40, 80
12, 44352, Note_on_c, 10, 27, 127
12, 44376, Note_off_c, 10, 27, 127
12, 44736, Note_on_c, 10, 27, 127
12, 44760, Note_off_c, 10, 27, 127
12, 44880, Note_on_c, 10, 40, 80
12, 44904, Note_off_c, 10, 40, 80
12, 45120, Note_on_c, 10, 27, 127
12, 45144, Note_off_c, 10, 27, 127
12, 45504, Note_on_c, 10, 27, 127
12, 45528, Note_off_c, 10, 27, 127
12, 45648, Note_on_c, 10, 40, 80
12, 45672, Note_off_c, 10, 40, 80
12, 45744, Note_on_c, 10, 40, 80
12, 45768, Note_off_c, 10, 40, 80
12, 45888, Note_on_c, 10, 27, 127
12, 45912, Note_off_c, 10, 27, 127
12, 45984, Note_on_c, 10, 38, 80
12, 46008, Note_off_c, 10, 38, 80
12, 46032, Note_on_c, 10, 38, 80
12, 46056, Note_off_c, 10, 38, 80
12, 46272, Note_on_c, 10, 27, 127
12, 46296, Note_off_c, 10, 27, 127
12, 46416, Note_on_c, 10, 40, 80
12, 46440, Note_off_c, 10, 40, 80
12, 46656, Note_on_c, 10, 27, 127
12, 46680, Note_off_c, 10, 27, 127
12, 47040, Note_on_c, 10, 27, 127
12, 47064, Note_off_c, 10, 27, 127
12, 47184, Note_on_c, 10, 40, 80
12, 47208, Note_off_c, 10, 40, 80
12, 47280, Note_on_c, 10, 40, 80
12, 47304, Note_off_c, 10, 40, 80
12, 47424, Note_on_c, 10, 27, 127
12, 47448, Note_off_c, 10, 27, 127
12, 47808, Note_on_c, 10, 27, 127
12, 47832, Note_off_c, 10, 27, 127
12, 47952, Note_on_c, 10, 40, 80
12, 47976, Note_off_c, 10, 40, 80
12, 48192, Note_on_c, 10, 27, 127
12, 48216, Note_off_c, 10, 27, 127
12, 48576, Note_on_c, 10, 27, 127
12, 48600, Note_off_c, 10, 27, 127
12, 48720, Note_on_c, 10, 40, 80
12, 48744, Note_off_c, 10, 40, 80
12, 48816, Note_on_c, 10, 40, 80
12, 48840, Note_off_c, 10, 40, 80
12, 48960, Note_on_c, 10, 27, 127
12, 48984, Note_off_c, 10, 27, 127
12, 49344, Note_on_c, 10, 27, 127
12, 49368, Note_off_c, 10, 27, 127
12, 49488, Note_on_c, 10, 40, 80
12, 49512, Note_off_c, 10, 40, 80
12, 49728, Note_on_c, 10, 27, 127
12, 49752, Note_off_c, 10, 27, 127
12, 50112, Note_on_c, 10, 27, 127
12, 50136, Note_off_c, 10, 27, 127
12, 50304, Note_on_c, 10, 40, 80
12, 50328, Note_off_c, 10, 40, 80
12, 50352, Note_on_c, 10, 40, 80
12, 50376, Note_off_c, 10, 40, 80
12, 50400, Note_on_c, 10, 40, 80
12, 50424, Note_off_c, 10, 40, 80
12, 50496, Note_on_c, 10, 40, 80
12, 50496, Note_on_c, 10, 27, 127
12, 50520, Note_off_c, 10, 27, 127
12, 50520, Note_off_c, 10, 40, 80
12, 50544, Note_on_c, 10, 40, 80
12, 50568, Note_off_c, 10, 40, 80
12, 50640, Note_on_c, 10, 40, 80
12, 50664, Note_off_c, 10, 40, 80
12, 50880, Note_on_c, 10, 27, 127
12, 50904, Note_off_c, 10, 27, 127
12, 51024, Note_on_c, 10, 40, 80
12, 51048, Note_off_c, 10, 40, 80
12, 51264, Note_on_c, 10, 27, 127
12, 51288, Note_off_c, 10, 27, 127
12, 51648, Note_on_c, 10, 27, 127
12, 51672, Note_off_c, 10, 27, 127
12, 51792, Note_on_c, 10, 40, 80
12, 51816, Note_off_c, 10, 40, 80
12, 51888, Note_on_c, 10, 40, 80
12, 51912, Note_off_c, 10, 40, 80
12, 52032, Note_on_c, 10, 27, 127
12, 52056, Note_off_c, 10, 27, 127
12, 52416, Note_on_c, 10, 27, 127
12, 52440, Note_off_c, 10, 27, 127
12, 52560, Note_on_c, 10, 40, 80
12, 52584, Note_off_c, 10, 40, 80
12, 52800, Note_on_c, 10, 27, 127
12, 52824, Note_off_c, 10, 27, 127
12, 53184, Note_on_c, 10, 27, 127
12, 53208, Note_off_c, 10, 27, 127
12, 53328, Note_on_c, 10, 40, 80
12, 53352, Note_off_c, 10, 40, 80
12, 53424, Note_on_c, 10, 40, 80
12, 53448, Note_off_c, 10, 40, 80
12, 53568, Note_on_c, 10, 27, 127
12, 53592, Note_off_c, 10, 27, 127
12, 53664, Note_on_c, 10, 38, 80
12, 53688, Note_off_c, 10, 38, 80
12, 53712, Note_on_c, 10, 38, 80
12, 53736, Note_off_c, 10, 38, 80
12, 53952, Note_on_c, 10, 27, 127
12, 53976, Note_off_c, 10, 27, 127
12, 54096, Note_on_c, 10, 40, 80
12, 54120, Note_off_c, 10, 40, 80
12, 54336, Note_on_c, 10, 27, 127
12, 54360, Note_off_c, 10, 27, 127
12, 54720, Note_on_c, 10, 27, 127
12, 54744, Note_off_c, 10, 27, 127
12, 54864, Note_on_c, 10, 40, 80
12, 54888, Note_off_c, 10, 40, 80
12, 54960, Note_on_c, 10, 40, 80
12, 54984, Note_off_c, 10, 40, 80
12, 55104, Note_on_c, 10, 27, 127
12, 55128, Note_off_c, 10, 27, 127
12, 55488, Note_on_c, 10, 27, 127
12, 55512, Note_off_c, 10, 27, 127
12, 55632, Note_on_c, 10, 40, 80
12, 55656, Note_off_c, 10, 40, 80
12, 55872, Note_on_c, 10, 27, 127
12, 55896, Note_off_c, 10, 27, 127
12, 56256, Note_on_c, 10, 27, 127
12, 56280, Note_off_c, 10, 27, 127
12, 56400, Note_on_c, 10, 40, 80
12, 56424, Note_off_c, 10, 40, 80
12, 56496, Note_on_c, 10, 40, 80
12, 56520, Note_off_c, 10, 40, 80
12, 56640, Note_on_c, 10, 27, 127
12, 56664, Note_off_c, 10, 27, 127
12, 56736, Note_on_c, 10, 38, 80
12, 56760, Note_off_c, 10, 38, 80
12, 56784, Note_on_c, 10, 38, 80
12, 56808, Note_off_c, 10, 38, 80
12, 57024, Note_on_c, 10, 27, 127
12, 57048, Note_off_c, 10, 27, 127
12, 57168, Note_on_c, 10, 40, 80
12, 57192, Note_off_c, 10, 40, 80
12, 57408, Note_on_c, 10, 27, 127
12, 57432, Note_off_c, 10, 27, 127
12, 57792, Note_on_c, 10, 27, 127
12, 57816, Note_off_c, 10, 27, 127
12, 57936, Note_on_c, 10, 40, 80
12, 57960, Note_off_c, 10, 40, 80
12, 58032, Note_on_c, 10, 40, 80
12, 58056, Note_off_c, 10, 40, 80
12, 58176, Note_on_c, 10, 27, 127
12, 58200, Note_off_c, 10, 27, 127
12, 58560, Note_on_c, 10, 27, 127
12, 58584, Note_off_c, 10, 27, 127
12, 58704, Note_on_c, 10, 40, 80
12, 58728, Note_off_c, 10, 40, 80
12, 58944, Note_on_c, 10, 27, 127
12, 58968, Note_off_c, 10, 27, 127
12, 59328, Note_on_c, 10, 27, 127
12, 59352, Note_off_c, 10, 27, 127
12, 59472, Note_on_c, 10, 40, 80
12, 59496, Note_off_c, 10, 40, 80
12, 59568, Note_on_c, 10, 40, 80
12, 59592, Note_off_c, 10, 40, 80
12, 59712, Note_on_c, 10, 27, 127
12, 59736, Note_off_c, 10, 27, 127
12, 59808, Note_on_c, 10, 38, 80
12, 59832, Note_off_c, 10, 38, 80
12, 59856, Note_on_c, 10, 38, 80
12, 59880, Note_off_c, 10, 38, 80
12, 60096, Note_on_c, 10, 27, 127
12, 60120, Note_off_c, 10, 27, 127
12, 60240, Note_on_c, 10, 40, 80
12, 60264, Note_off_c, 10, 40, 80
12, 60480, Note_on_c, 10, 27, 127
12, 60504, Note_off_c, 10, 27, 127
12, 60720, Note_on_c, 10, 40, 80
12, 60744, Note_off_c, 10, 40, 80
12, 60864, Note_on_c, 10, 27, 127
12, 60864, Note_on_c, 10, 40, 80
12, 60888, Note_off_c, 10, 40, 80
12, 60888, Note_off_c, 10, 27, 127
12, 61104, Note_on_c, 10, 40, 80
12, 61128, Note_off_c, 10, 40, 80
12, 61152, Note_on_c, 10, 40, 80
12, 61176, Note_off_c, 10, 40, 80
12, 61248, Note_on_c, 10, 27, 127
12, 61248, Note_on_c, 10, 40, 80
12, 61272, Note_off_c, 10, 40, 80
12, 61272, Note_off_c, 10, 27, 127
12, 61296, Note_on_c, 10, 40, 80
12, 61320, Note_off_c, 10, 40, 80
12, 61344, Note_on_c, 10, 40, 80
12, 61368, Note_off_c, 10, 40, 80
12, 61392, Note_on_c, 10, 40, 80
12, 61416, Note_off_c, 10, 40, 80
12, 61632, Note_on_c, 10, 27, 127
12, 61656, Note_off_c, 10, 27, 127
12, 61776, Note_on_c, 10, 40, 80
12, 61800, Note_off_c, 10, 40, 80
12, 62016, Note_on_c, 10, 27, 127
12, 62040, Note_off_c, 10, 27, 127
12, 62400, Note_on_c, 10, 27, 127
12, 62424, Note_off_c, 10, 27, 127
12, 62544, Note_on_c, 10, 40, 80
12, 62568, Note_off_c, 10, 40, 80
12, 62640, Note_on_c, 10, 40, 80
12, 62664, Note_off_c, 10, 40, 80
12, 62784, Note_on_c, 10, 27, 127
12, 62808, Note_off_c, 10, 27, 127
12, 63168, Note_on_c, 10, 27, 127
12, 63192, Note_off_c, 10, 27, 127
12, 63312, Note_on_c, 10, 40, 80
12, 63336, Note_off_c, 10, 40, 80
12, 63552, Note_on_c, 10, 27, 127
12, 63576, Note_off_c, 10, 27, 127
12, 63936, Note_on_c, 10, 27, 127
12, 63960, Note_off_c, 10, 27, 127
12, 64080, Note_on_c, 10, 40, 80
12, 64104, Note_off_c, 10, 40, 80
12, 64176, Note_on_c, 10, 40, 80
12, 64200, Note_off_c, 10, 40, 80
12, 64320, Note_on_c, 10, 27, 127
12, 64344, Note_off_c, 10, 27, 127
12, 64416, Note_on_c, 10, 38, 80
12, 64440, Note_off_c, 10, 38, 80
12, 64464, Note_on_c, 10, 38, 80
12, 64488, Note_off_c, 10, 38, 80
12, 64704, Note_on_c, 10, 27, 127
12, 64728, Note_off_c, 10, 27, 127
12, 64848, Note_on_c, 10, 40, 80
12, 64872, Note_off_c, 10, 40, 80
12, 65088, Note_on_c, 10, 27, 127
12, 65112, Note_off_c, 10, 27, 127
12, 65472, Note_on_c, 10, 27, 127
12, 65496, Note_off_c, 10, 27, 127
12, 65616, Note_on_c, 10, 40, 80
12, 65640, Note_off_c, 10, 40, 80
12, 65712, Note_on_c, 10, 40, 80
12, 65736, Note_off_c, 10, 40, 80
12, 65856, Note_on_c, 10, 27, 127
12, 65880, Note_off_c, 10, 27, 127
12, 66240, Note_on_c, 10, 27, 127
12, 66264, Note_off_c, 10, 27, 127
12, 66384, Note_on_c, 10, 40, 80
12, 66408, Note_off_c, 10, 40, 80
12, 66624, Note_on_c, 10, 27, 127
12, 66648, Note_off_c, 10, 27, 127
12, 67008, Note_on_c, 10, 27, 127
12, 67032, Note_off_c, 10, 27, 127
12, 67248, Note_on_c, 10, 40, 80
12, 67272, Note_off_c, 10, 40, 80
12, 67392, Note_on_c, 10, 27, 127
12, 67416, Note_off_c, 10, 27, 127
12, 67440, Note_on_c, 10, 27, 127
12, 67464, Note_off_c, 10, 27, 127
12, 67488, Note_on_c, 10, 27, 127
12, 67512, Note_off_c, 10, 27, 127
12, 67536, Note_on_c, 10, 27, 127
12, 67560, Note_off_c, 10, 27, 127
12, 71328, Note_on_c, 10, 38, 80
12, 71352, Note_off_c, 10, 38, 80
12, 71376, Note_on_c, 10, 38, 80
12, 71400, Note_off_c, 10, 38, 80
12, 72096, Note_on_c, 10, 38, 80
12, 72120, Note_off_c, 10, 38, 80
12, 72864, Note_on_c, 10, 38, 80
12, 72888, Note_off_c, 10, 38, 80
12, 72912, Note_on_c, 10, 38, 80
12, 72936, Note_off_c, 10, 38, 80
12, 73632, Note_on_c, 10, 38, 80
12, 73656, Note_off_c, 10, 38, 80
12, 73920, Note_on_c, 10, 40, 80
12, 73920, Note_on_c, 10, 27, 127
12, 73944, Note_off_c, 10, 27, 127
12, 73944, Note_off_c, 10, 40, 80
12, 74064, Note_on_c, 10, 40, 70
12, 74088, Note_off_c, 10, 40, 70
12, 74304, Note_on_c, 10, 27, 127
12, 74328, Note_off_c, 10, 27, 127
12, 74400, Note_on_c, 10, 30, 110
12, 74496, Note_off_c, 10, 30, 110
12, 74688, Note_on_c, 10, 40, 80
12, 74688, Note_on_c, 10, 27, 127
12, 74712, Note_off_c, 10, 27, 127
12, 74712, Note_off_c, 10, 40, 80
12, 74832, Note_on_c, 10, 40, 70
12, 74856, Note_off_c, 10, 40, 70
12, 75072, Note_on_c, 10, 27, 127
12, 75096, Note_off_c, 10, 27, 127
12, 75168, Note_on_c, 10, 38, 80
12, 75192, Note_off_c, 10, 38, 80
12, 75216, Note_on_c, 10, 38, 80
12, 75240, Note_off_c, 10, 38, 80
12, 75456, Note_on_c, 10, 27, 127
12, 75480, Note_off_c, 10, 27, 127
12, 75840, Note_on_c, 10, 27, 127
12, 75864, Note_off_c, 10, 27, 127
12, 75936, Note_on_c, 10, 30, 110
12, 76032, Note_off_c, 10, 30, 110
12, 76224, Note_on_c, 10, 27, 127
12, 76224, Note_on_c, 10, 40, 80
12, 76248, Note_off_c, 10, 40, 80
12, 76248, Note_off_c, 10, 27, 127
12, 76368, Note_on_c, 10, 40, 70
12, 76392, Note_off_c, 10, 40, 70
12, 76464, Note_on_c, 10, 40, 81
12, 76488, Note_off_c, 10, 40, 81
12, 76608, Note_on_c, 10, 27, 127
12, 76632, Note_off_c, 10, 27, 127
12, 76704, Note_on_c, 10, 38, 80
12, 76728, Note_off_c, 10, 38, 80
12, 76992, Note_on_c, 10, 40, 80
12, 76992, Note_on_c, 10, 27, 127
12, 77016, Note_off_c, 10, 27, 127
12, 77016, Note_off_c, 10, 40, 80
12, 77136, Note_on_c, 10, 40, 70
12, 77160, Note_off_c, 10, 40, 70
12, 77376, Note_on_c, 10, 27, 127
12, 77400, Note_off_c, 10, 27, 127
12, 77472, Note_on_c, 10, 30, 110
12, 77568, Note_off_c, 10, 30, 110
12, 77760, Note_on_c, 10, 40, 80
12, 77760, Note_on_c, 10, 27, 127
12, 77784, Note_off_c, 10, 27, 127
12, 77784, Note_off_c, 10, 40, 80
12, 77904, Note_on_c, 10, 40, 70
12, 77928, Note_off_c, 10, 40, 70
12, 78000, Note_on_c, 10, 40, 80
12, 78024, Note_off_c, 10, 40, 80
12, 78144, Note_on_c, 10, 27, 127
12, 78168, Note_off_c, 10, 27, 127
12, 78240, Note_on_c, 10, 38, 80
12, 78240, Note_on_c, 10, 30, 110
12, 78264, Note_off_c, 10, 38, 80
12, 78288, Note_on_c, 10, 38, 80
12, 78312, Note_off_c, 10, 38, 80
12, 78336, Note_off_c, 10, 30, 110
12, 78528, Note_on_c, 10, 27, 127
12, 78528, Note_on_c, 10, 40, 80
12, 78552, Note_off_c, 10, 40, 80
12, 78552, Note_off_c, 10, 27, 127
12, 78672, Note_on_c, 10, 40, 70
12, 78696, Note_off_c, 10, 40, 70
12, 78912, Note_on_c, 10, 27, 127
12, 78936, Note_off_c, 10, 27, 127
12, 79008, Note_on_c, 10, 30, 110
12, 79104, Note_off_c, 10, 30, 110
12, 80064, Note_on_c, 10, 27, 127
12, 80064, Note_on_c, 10, 40, 90
12, 80088, Note_off_c, 10, 40, 90
12, 80088, Note_off_c, 10, 27, 127
12, 80208, Note_on_c, 10, 40, 80
12, 80232, Note_off_c, 10, 40, 80
12, 80448, Note_on_c, 10, 27, 127
12, 80448, Note_on_c, 10, 40, 90
12, 80472, Note_off_c, 10, 40, 90
12, 80472, Note_off_c, 10, 27, 127
12, 80832, Note_on_c, 10, 27, 127
12, 80832, Note_on_c, 10, 40, 90
12, 80856, Note_off_c, 10, 40, 90
12, 80856, Note_off_c, 10, 27, 127
12, 80976, Note_on_c, 10, 40, 80
12, 81000, Note_off_c, 10, 40, 80
12, 81072, Note_on_c, 10, 40, 80
12, 81096, Note_off_c, 10, 40, 80
12, 81216, Note_on_c, 10, 27, 127
12, 81216, Note_on_c, 10, 40, 90
12, 81240, Note_off_c, 10, 40, 90
12, 81240, Note_off_c, 10, 27, 127
12, 81312, Note_on_c, 10, 38, 80
12, 81336, Note_off_c, 10, 38, 80
12, 81360, Note_on_c, 10, 38, 80
12, 81384, Note_off_c, 10, 38, 80
12, 81600, Note_on_c, 10, 27, 127
12, 81600, Note_on_c, 10, 40, 90
12, 81624, Note_off_c, 10, 40, 90
12, 81624, Note_off_c, 10, 27, 127
12, 81744, Note_on_c, 10, 40, 80
12, 81768, Note_off_c, 10, 40, 80
12, 81984, Note_on_c, 10, 27, 127
12, 81984, Note_on_c, 10, 40, 90
12, 82008, Note_off_c, 10, 40, 90
12, 82008, Note_off_c, 10, 27, 127
12, 82368, Note_on_c, 10, 27, 127
12, 82368, Note_on_c, 10, 40, 90
12, 82392, Note_off_c, 10, 40, 90
12, 82392, Note_off_c, 10, 27, 127
12, 82512, Note_on_c, 10, 40, 80
12, 82536, Note_off_c, 10, 40, 80
12, 82608, Note_on_c, 10, 40, 80
12, 82632, Note_off_c, 10, 40, 80
12, 82752, Note_on_c, 10, 27, 127
12, 82752, Note_on_c, 10, 40, 90
12, 82776, Note_off_c, 10, 40, 90
12, 82776, Note_off_c, 10, 27, 127
12, 83136, Note_on_c, 10, 27, 127
12, 83136, Note_on_c, 10, 40, 90
12, 83160, Note_off_c, 10, 40, 90
12, 83160, Note_off_c, 10, 27, 127
12, 83280, Note_on_c, 10, 40, 80
12, 83304, Note_off_c, 10, 40, 80
12, 83520, Note_on_c, 10, 27, 127
12, 83520, Note_on_c, 10, 40, 90
12, 83544, Note_off_c, 10, 40, 90
12, 83544, Note_off_c, 10, 27, 127
12, 83904, Note_on_c, 10, 27, 127
12, 83904, Note_on_c, 10, 40, 90
12, 83928, Note_off_c, 10, 40, 90
12, 83928, Note_off_c, 10, 27, 127
12, 84048, Note_on_c, 10, 40, 80
12, 84072, Note_off_c, 10, 40, 80
12, 84144, Note_on_c, 10, 40, 80
12, 84168, Note_off_c, 10, 40, 80
12, 84288, Note_on_c, 10, 27, 127
12, 84288, Note_on_c, 10, 40, 90
12, 84312, Note_off_c, 10, 40, 90
12, 84312, Note_off_c, 10, 27, 127
12, 84384, Note_on_c, 10, 38, 80
12, 84408, Note_off_c, 10, 38, 80
12, 84432, Note_on_c, 10, 38, 80
12, 84456, Note_off_c, 10, 38, 80
12, 84672, Note_on_c, 10, 27, 127
12, 84672, Note_on_c, 10, 40, 90
12, 84696, Note_off_c, 10, 40, 90
12, 84696, Note_off_c, 10, 27, 127
12, 84816, Note_on_c, 10, 40, 80
12, 84840, Note_off_c, 10, 40, 80
12, 85056, Note_on_c, 10, 27, 127
12, 85056, Note_on_c, 10, 40, 90
12, 85080, Note_off_c, 10, 40, 90
12, 85080, Note_off_c, 10, 27, 127
12, 85440, Note_on_c, 10, 27, 127
12, 85440, Note_on_c, 10, 40, 90
12, 85464, Note_off_c, 10, 40, 90
12, 85464, Note_off_c, 10, 27, 127
12, 85584, Note_on_c, 10, 40, 60
12, 85608, Note_off_c, 10, 40, 60
12, 85632, Note_on_c, 10, 40, 80
12, 85656, Note_off_c, 10, 40, 80
12, 85680, Note_on_c, 10, 40, 80
12, 85704, Note_off_c, 10, 40, 80
12, 85728, Note_on_c, 10, 40, 80
12, 85752, Note_off_c, 10, 40, 80
12, 85824, Note_off_c, 10, 40, 90
12, 85824, Note_on_c, 10, 27, 127
12, 85824, Note_on_c, 10, 40, 90
12, 85824, Note_on_c, 10, 40, 80
12, 85848, Note_off_c, 10, 40, 80
12, 85848, Note_off_c, 10, 27, 127
12, 85872, Note_on_c, 10, 40, 80
12, 85896, Note_off_c, 10, 40, 80
12, 85968, Note_on_c, 10, 40, 80
12, 85992, Note_off_c, 10, 40, 80
12, 86208, Note_on_c, 10, 27, 127
12, 86208, Note_on_c, 10, 40, 90
12, 86232, Note_off_c, 10, 40, 90
12, 86232, Note_off_c, 10, 27, 127
12, 86352, Note_on_c, 10, 40, 80
12, 86376, Note_off_c, 10, 40, 80
12, 86592, Note_on_c, 10, 27, 127
12, 86592, Note_on_c, 10, 40, 90
12, 86616, Note_off_c, 10, 40, 90
12, 86616, Note_off_c, 10, 27, 127
12, 86976, Note_on_c, 10, 27, 127
12, 86976, Note_on_c, 10, 40, 90
12, 87000, Note_off_c, 10, 40, 90
12, 87000, Note_off_c, 10, 27, 127
12, 87120, Note_on_c, 10, 40, 80
12, 87144, Note_off_c, 10, 40, 80
12, 87216, Note_on_c, 10, 40, 80
12, 87240, Note_off_c, 10, 40, 80
12, 87360, Note_on_c, 10, 27, 127
12, 87360, Note_on_c, 10, 40, 90
12, 87384, Note_off_c, 10, 40, 90
12, 87384, Note_off_c, 10, 27, 127
12, 87456, Note_on_c, 10, 38, 80
12, 87480, Note_off_c, 10, 38, 80
12, 87504, Note_on_c, 10, 38, 80
12, 87528, Note_off_c, 10, 38, 80
12, 87744, Note_on_c, 10, 27, 127
12, 87744, Note_on_c, 10, 40, 90
12, 87768, Note_off_c, 10, 40, 90
12, 87768, Note_off_c, 10, 27, 127
12, 87888, Note_on_c, 10, 40, 80
12, 87912, Note_off_c, 10, 40, 80
12, 88128, Note_on_c, 10, 27, 127
12, 88128, Note_on_c, 10, 40, 90
12, 88152, Note_off_c, 10, 40, 90
12, 88152, Note_off_c, 10, 27, 127
12, 88512, Note_on_c, 10, 27, 127
12, 88512, Note_on_c, 10, 40, 90
12, 88536, Note_off_c, 10, 40, 90
12, 88536, Note_off_c, 10, 27, 127
12, 88656, Note_on_c, 10, 40, 80
12, 88680, Note_off_c, 10, 40, 80
12, 88752, Note_on_c, 10, 40, 80
12, 88776, Note_off_c, 10, 40, 80
12, 88896, Note_on_c, 10, 27, 127
12, 88896, Note_on_c, 10, 40, 90
12, 88920, Note_off_c, 10, 40, 90
12, 88920, Note_off_c, 10, 27, 127
12, 89280, Note_on_c, 10, 27, 127
12, 89280, Note_on_c, 10, 40, 90
12, 89304, Note_off_c, 10, 40, 90
12, 89304, Note_off_c, 10, 27, 127
12, 89424, Note_on_c, 10, 40, 80
12, 89448, Note_off_c, 10, 40, 80
12, 89664, Note_on_c, 10, 27, 127
12, 89664, Note_on_c, 10, 40, 90
12, 89688, Note_off_c, 10, 40, 90
12, 89688, Note_off_c, 10, 27, 127
12, 90048, Note_on_c, 10, 27, 127
12, 90048, Note_on_c, 10, 40, 90
12, 90072, Note_off_c, 10, 40, 90
12, 90072, Note_off_c, 10, 27, 127
12, 90192, Note_on_c, 10, 40, 80
12, 90216, Note_off_c, 10, 40, 80
12, 90288, Note_on_c, 10, 40, 80
12, 90312, Note_off_c, 10, 40, 80
12, 90432, Note_on_c, 10, 27, 127
12, 90432, Note_on_c, 10, 40, 90
12, 90456, Note_off_c, 10, 40, 90
12, 90456, Note_off_c, 10, 27, 127
12, 90528, Note_on_c, 10, 38, 80
12, 90552, Note_off_c, 10, 38, 80
12, 90576, Note_on_c, 10, 38, 80
12, 90600, Note_off_c, 10, 38, 80
12, 91584, Note_on_c, 10, 40, 80
12, 91608, Note_off_c, 10, 40, 80
12, 91632, Note_on_c, 10, 40, 80
12, 91656, Note_off_c, 10, 40, 80
12, 91680, Note_on_c, 10, 40, 80
12, 91704, Note_off_c, 10, 40, 80
12, 91776, Note_on_c, 10, 40, 80
12, 91800, Note_off_c, 10, 40, 80
12, 91824, Note_on_c, 10, 40, 80
12, 91848, Note_off_c, 10, 40, 80
12, 91920, Note_on_c, 10, 40, 80
12, 91944, Note_off_c, 10, 40, 80
12, 91968, Note_on_c, 10, 40, 80
12, 91992, Note_off_c, 10, 40, 80
12, 92064, Note_on_c, 10, 40, 80
12, 92088, Note_off_c, 10, 40, 80
12, 92352, Note_on_c, 10, 27, 127
12, 92352, Note_on_c, 10, 40, 90
12, 92376, Note_off_c, 10, 40, 90
12, 92376, Note_off_c, 10, 27, 127
12, 92496, Note_on_c, 10, 40, 80
12, 92520, Note_off_c, 10, 40, 80
12, 92736, Note_on_c, 10, 27, 127
12, 92736, Note_on_c, 10, 40, 90
12, 92760, Note_off_c, 10, 40, 90
12, 92760, Note_off_c, 10, 27, 127
12, 93120, Note_on_c, 10, 27, 127
12, 93120, Note_on_c, 10, 40, 90
12, 93144, Note_off_c, 10, 40, 90
12, 93144, Note_off_c, 10, 27, 127
12, 93264, Note_on_c, 10, 40, 80
12, 93288, Note_off_c, 10, 40, 80
12, 93360, Note_on_c, 10, 40, 80
12, 93384, Note_off_c, 10, 40, 80
12, 93504, Note_on_c, 10, 27, 127
12, 93504, Note_on_c, 10, 40, 90
12, 93528, Note_off_c, 10, 40, 90
12, 93528, Note_off_c, 10, 27, 127
12, 93600, Note_on_c, 10, 38, 80
12, 93624, Note_off_c, 10, 38, 80
12, 93648, Note_on_c, 10, 38, 80
12, 93672, Note_off_c, 10, 38, 80
12, 93888, Note_on_c, 10, 27, 127
12, 93888, Note_on_c, 10, 40, 90
12, 93912, Note_off_c, 10, 40, 90
12, 93912, Note_off_c, 10, 27, 127
12, 94032, Note_on_c, 10, 40, 80
12, 94056, Note_off_c, 10, 40, 80
12, 94272, Note_on_c, 10, 27, 127
12, 94272, Note_on_c, 10, 40, 90
12, 94296, Note_off_c, 10, 40, 90
12, 94296, Note_off_c, 10, 27, 127
12, 94656, Note_on_c, 10, 27, 127
12, 94656, Note_on_c, 10, 40, 90
12, 94680, Note_off_c, 10, 40, 90
12, 94680, Note_off_c, 10, 27, 127
12, 94800, Note_on_c, 10, 40, 80
12, 94824, Note_off_c, 10, 40, 80
12, 94896, Note_on_c, 10, 40, 80
12, 94920, Note_off_c, 10, 40, 80
12, 95040, Note_on_c, 10, 27, 127
12, 95040, Note_on_c, 10, 40, 90
12, 95064, Note_off_c, 10, 40, 90
12, 95064, Note_off_c, 10, 27, 127
12, 95424, Note_on_c, 10, 27, 127
12, 95424, Note_on_c, 10, 40, 90
12, 95448, Note_off_c, 10, 40, 90
12, 95448, Note_off_c, 10, 27, 127
12, 95568, Note_on_c, 10, 40, 80
12, 95592, Note_off_c, 10, 40, 80
12, 95808, Note_on_c, 10, 27, 127
12, 95808, Note_on_c, 10, 40, 90
12, 95832, Note_off_c, 10, 40, 90
12, 95832, Note_off_c, 10, 27, 127
12, 96192, Note_on_c, 10, 27, 127
12, 96192, Note_on_c, 10, 40, 90
12, 96216, Note_off_c, 10, 40, 90
12, 96216, Note_off_c, 10, 27, 127
12, 96336, Note_on_c, 10, 40, 80
12, 96360, Note_off_c, 10, 40, 80
12, 96432, Note_on_c, 10, 40, 80
12, 96456, Note_off_c, 10, 40, 80
12, 96576, Note_on_c, 10, 27, 127
12, 96576, Note_on_c, 10, 40, 90
12, 96600, Note_off_c, 10, 40, 90
12, 96600, Note_off_c, 10, 27, 127
12, 96672, Note_on_c, 10, 38, 80
12, 96696, Note_off_c, 10, 38, 80
12, 96720, Note_on_c, 10, 38, 80
12, 96744, Note_off_c, 10, 38, 80
12, 96960, Note_on_c, 10, 27, 127
12, 96960, Note_on_c, 10, 40, 90
12, 96984, Note_off_c, 10, 40, 90
12, 96984, Note_off_c, 10, 27, 127
12, 97104, Note_on_c, 10, 40, 80
12, 97128, Note_off_c, 10, 40, 80
12, 97344, Note_on_c, 10, 27, 127
12, 97344, Note_on_c, 10, 40, 90
12, 97368, Note_off_c, 10, 40, 90
12, 97368, Note_off_c, 10, 27, 127
12, 97728, Note_on_c, 10, 27, 127
12, 97752, Note_off_c, 10, 27, 127
12, 97920, Note_on_c, 10, 40, 80
12, 97944, Note_off_c, 10, 40, 80
12, 97968, Note_on_c, 10, 40, 80
12, 97992, Note_off_c, 10, 40, 80
12, 98016, Note_on_c, 10, 40, 90
12, 98040, Note_off_c, 10, 40, 90
12, 98112, Note_on_c, 10, 27, 127
12, 98112, Note_on_c, 10, 40, 90
12, 98136, Note_off_c, 10, 40, 90
12, 98136, Note_off_c, 10, 27, 127
12, 98160, Note_on_c, 10, 40, 90
12, 98184, Note_off_c, 10, 40, 90
12, 98256, Note_on_c, 10, 40, 90
12, 98280, Note_off_c, 10, 40, 90
12, 98496, Note_on_c, 10, 27, 127
12, 98496, Note_on_c, 10, 40, 90
12, 98520, Note_off_c, 10, 40, 90
12, 98520, Note_off_c, 10, 27, 127
12, 98640, Note_on_c, 10, 40, 80
12, 98664, Note_off_c, 10, 40, 80
12, 98880, Note_on_c, 10, 27, 127
12, 98880, Note_on_c, 10, 40, 90
12, 98904, Note_off_c, 10, 40, 90
12, 98904, Note_off_c, 10, 27, 127
12, 99264, Note_on_c, 10, 27, 127
12, 99264, Note_on_c, 10, 40, 90
12, 99288, Note_off_c, 10, 40, 90
12, 99288, Note_off_c, 10, 27, 127
12, 99408, Note_on_c, 10, 40, 80
12, 99432, Note_off_c, 10, 40, 80
12, 99504, Note_on_c, 10, 40, 80
12, 99528, Note_off_c, 10, 40, 80
12, 99648, Note_on_c, 10, 27, 127
12, 99648, Note_on_c, 10, 40, 90
12, 99672, Note_off_c, 10, 40, 90
12, 99672, Note_off_c, 10, 27, 127
12, 99744, Note_on_c, 10, 38, 80
12, 99768, Note_off_c, 10, 38, 80
12, 99792, Note_on_c, 10, 38, 80
12, 99816, Note_off_c, 10, 38, 80
12, 100032, Note_on_c, 10, 27, 127
12, 100032, Note_on_c, 10, 40, 90
12, 100056, Note_off_c, 10, 40, 90
12, 100056, Note_off_c, 10, 27, 127
12, 100176, Note_on_c, 10, 40, 80
12, 100200, Note_off_c, 10, 40, 80
12, 100416, Note_on_c, 10, 27, 127
12, 100416, Note_on_c, 10, 40, 90
12, 100440, Note_off_c, 10, 40, 90
12, 100440, Note_off_c, 10, 27, 127
12, 100800, Note_on_c, 10, 27, 127
12, 100800, Note_on_c, 10, 40, 90
12, 100824, Note_off_c, 10, 40, 90
12, 100824, Note_off_c, 10, 27, 127
12, 100944, Note_on_c, 10, 40, 80
12, 100968, Note_off_c, 10, 40, 80
12, 101040, Note_on_c, 10, 40, 80
12, 101064, Note_off_c, 10, 40, 80
12, 101184, Note_on_c, 10, 27, 127
12, 101184, Note_on_c, 10, 40, 90
12, 101208, Note_off_c, 10, 40, 90
12, 101208, Note_off_c, 10, 27, 127
12, 101568, Note_on_c, 10, 27, 127
12, 101568, Note_on_c, 10, 40, 90
12, 101592, Note_off_c, 10, 40, 90
12, 101592, Note_off_c, 10, 27, 127
12, 101712, Note_on_c, 10, 40, 80
12, 101736, Note_off_c, 10, 40, 80
12, 101952, Note_on_c, 10, 27, 127
12, 101952, Note_on_c, 10, 40, 90
12, 101976, Note_off_c, 10, 40, 90
12, 101976, Note_off_c, 10, 27, 127
12, 102336, Note_on_c, 10, 27, 127
12, 102336, Note_on_c, 10, 40, 90
12, 102360, Note_off_c, 10, 40, 90
12, 102360, Note_off_c, 10, 27, 127
12, 102480, Note_on_c, 10, 40, 80
12, 102504, Note_off_c, 10, 40, 80
12, 102576, Note_on_c, 10, 40, 80
12, 102600, Note_off_c, 10, 40, 80
12, 102720, Note_on_c, 10, 27, 127
12, 102720, Note_on_c, 10, 40, 90
12, 102744, Note_off_c, 10, 40, 90
12, 102744, Note_off_c, 10, 27, 127
12, 102816, Note_on_c, 10, 38, 80
12, 102840, Note_off_c, 10, 38, 80
12, 102864, Note_on_c, 10, 38, 80
12, 102888, Note_off_c, 10, 38, 80
12, 103104, Note_on_c, 10, 27, 127
12, 103104, Note_on_c, 10, 40, 90
12, 103128, Note_off_c, 10, 40, 90
12, 103128, Note_off_c, 10, 27, 127
12, 103248, Note_on_c, 10, 40, 80
12, 103272, Note_off_c, 10, 40, 80
12, 103488, Note_on_c, 10, 27, 127
12, 103488, Note_on_c, 10, 40, 90
12, 103512, Note_off_c, 10, 40, 90
12, 103512, Note_off_c, 10, 27, 127
12, 103872, Note_on_c, 10, 27, 127
12, 103872, Note_on_c, 10, 40, 90
12, 103896, Note_off_c, 10, 40, 90
12, 103896, Note_off_c, 10, 27, 127
12, 104016, Note_on_c, 10, 40, 80
12, 104040, Note_off_c, 10, 40, 80
12, 104112, Note_on_c, 10, 40, 80
12, 104136, Note_off_c, 10, 40, 80
12, 104160, Note_on_c, 10, 40, 90
12, 104184, Note_off_c, 10, 40, 90
12, 104256, Note_on_c, 10, 27, 127
12, 104256, Note_on_c, 10, 40, 90
12, 104280, Note_off_c, 10, 40, 90
12, 104280, Note_off_c, 10, 27, 127
12, 104304, Note_on_c, 10, 40, 90
12, 104328, Note_off_c, 10, 40, 90
12, 104640, Note_on_c, 10, 27, 127
12, 104640, Note_on_c, 10, 40, 90
12, 104664, Note_off_c, 10, 40, 90
12, 104664, Note_off_c, 10, 27, 127
12, 104784, Note_on_c, 10, 40, 80
12, 104808, Note_off_c, 10, 40, 80
12, 105024, Note_on_c, 10, 27, 127
12, 105024, Note_on_c, 10, 40, 90
12, 105048, Note_off_c, 10, 40, 90
12, 105048, Note_off_c, 10, 27, 127
12, 105408, Note_on_c, 10, 27, 127
12, 105408, Note_on_c, 10, 40, 90
12, 105432, Note_off_c, 10, 40, 90
12, 105432, Note_off_c, 10, 27, 127
12, 105552, Note_on_c, 10, 40, 80
12, 105576, Note_off_c, 10, 40, 80
12, 105648, Note_on_c, 10, 40, 80
12, 105672, Note_off_c, 10, 40, 80
12, 105792, Note_on_c, 10, 27, 127
12, 105792, Note_on_c, 10, 40, 90
12, 105816, Note_off_c, 10, 40, 90
12, 105816, Note_off_c, 10, 27, 127
12, 105888, Note_on_c, 10, 38, 80
12, 105912, Note_off_c, 10, 38, 80
12, 105936, Note_on_c, 10, 38, 80
12, 105960, Note_off_c, 10, 38, 80
12, 106176, Note_on_c, 10, 27, 127
12, 106176, Note_on_c, 10, 40, 90
12, 106200, Note_off_c, 10, 40, 90
12, 106200, Note_off_c, 10, 27, 127
12, 106320, Note_on_c, 10, 40, 80
12, 106344, Note_off_c, 10, 40, 80
12, 106560, Note_on_c, 10, 27, 127
12, 106560, Note_on_c, 10, 40, 90
12, 106584, Note_off_c, 10, 40, 90
12, 106584, Note_off_c, 10, 27, 127
12, 106944, Note_on_c, 10, 27, 127
12, 106944, Note_on_c, 10, 40, 90
12, 106968, Note_off_c, 10, 40, 90
12, 106968, Note_off_c, 10, 27, 127
12, 107088, Note_on_c, 10, 40, 80
12, 107112, Note_off_c, 10, 40, 80
12, 107184, Note_on_c, 10, 40, 80
12, 107208, Note_off_c, 10, 40, 80
12, 107328, Note_on_c, 10, 27, 127
12, 107328, Note_on_c, 10, 40, 90
12, 107352, Note_off_c, 10, 40, 90
12, 107352, Note_off_c, 10, 27, 127
12, 107712, Note_on_c, 10, 27, 127
12, 107712, Note_on_c, 10, 40, 90
12, 107736, Note_off_c, 10, 40, 90
12, 107736, Note_off_c, 10, 27, 127
12, 107856, Note_on_c, 10, 40, 80
12, 107880, Note_off_c, 10, 40, 80
12, 108096, Note_on_c, 10, 27, 127
12, 108096, Note_on_c, 10, 40, 90
12, 108120, Note_off_c, 10, 40, 90
12, 108120, Note_off_c, 10, 27, 127
12, 108480, Note_on_c, 10, 27, 127
12, 108480, Note_on_c, 10, 40, 90
12, 108504, Note_off_c, 10, 40, 90
12, 108504, Note_off_c, 10, 27, 127
12, 108624, Note_on_c, 10, 40, 80
12, 108648, Note_off_c, 10, 40, 80
12, 108720, Note_on_c, 10, 40, 80
12, 108744, Note_off_c, 10, 40, 80
12, 108864, Note_on_c, 10, 27, 127
12, 108864, Note_on_c, 10, 40, 90
12, 108888, Note_off_c, 10, 40, 90
12, 108888, Note_off_c, 10, 27, 127
12, 108960, Note_on_c, 10, 38, 80
12, 108984, Note_off_c, 10, 38, 80
12, 109008, Note_on_c, 10, 38, 80
12, 109032, Note_off_c, 10, 38, 80
12, 109248, Note_on_c, 10, 27, 127
12, 109248, Note_on_c, 10, 40, 90
12, 109272, Note_off_c, 10, 40, 90
12, 109272, Note_off_c, 10, 27, 127
12, 109392, Note_on_c, 10, 40, 80
12, 109416, Note_off_c, 10, 40, 80
12, 109632, Note_on_c, 10, 27, 127
12, 109632, Note_on_c, 10, 40, 90
12, 109656, Note_off_c, 10, 40, 90
12, 109656, Note_off_c, 10, 27, 127
12, 110016, Note_on_c, 10, 27, 127
12, 110016, Note_on_c, 10, 40, 90
12, 110040, Note_off_c, 10, 40, 90
12, 110040, Note_off_c, 10, 27, 127
12, 110064, Note_on_c, 10, 40, 90
12, 110088, Note_off_c, 10, 40, 90
12, 110112, Note_on_c, 10, 40, 90
12, 110136, Note_off_c, 10, 40, 90
12, 110208, Note_on_c, 10, 40, 90
12, 110232, Note_off_c, 10, 40, 90
12, 110256, Note_on_c, 10, 40, 90
12, 110280, Note_off_c, 10, 40, 90
12, 110352, Note_on_c, 10, 40, 90
12, 110376, Note_off_c, 10, 40, 90
12, 110400, Note_on_c, 10, 27, 127
12, 110400, Note_on_c, 10, 40, 90
12, 110424, Note_off_c, 10, 40, 90
12, 110424, Note_off_c, 10, 27, 127
12, 110496, Note_on_c, 10, 40, 90
12, 110520, Note_off_c, 10, 40, 90
12, 110784, Note_on_c, 10, 27, 127
12, 110784, Note_on_c, 10, 40, 90
12, 110808, Note_off_c, 10, 40, 90
12, 110808, Note_off_c, 10, 27, 127
12, 110928, Note_on_c, 10, 40, 80
12, 110952, Note_off_c, 10, 40, 80
12, 111168, Note_on_c, 10, 27, 127
12, 111168, Note_on_c, 10, 40, 90
12, 111192, Note_off_c, 10, 40, 90
12, 111192, Note_off_c, 10, 27, 127
12, 111552, Note_on_c, 10, 27, 127
12, 111552, Note_on_c, 10, 40, 90
12, 111576, Note_off_c, 10, 40, 90
12, 111576, Note_off_c, 10, 27, 127
12, 111696, Note_on_c, 10, 40, 80
12, 111720, Note_off_c, 10, 40, 80
12, 111792, Note_on_c, 10, 40, 80
12, 111816, Note_off_c, 10, 40, 80
12, 111936, Note_on_c, 10, 27, 127
12, 111936, Note_on_c, 10, 40, 90
12, 111960, Note_off_c, 10, 40, 90
12, 111960, Note_off_c, 10, 27, 127
12, 112032, Note_on_c, 10, 38, 80
12, 112056, Note_off_c, 10, 38, 80
12, 112080, Note_on_c, 10, 38, 80
12, 112104, Note_off_c, 10, 38, 80
12, 112320, Note_on_c, 10, 27, 127
12, 112320, Note_on_c, 10, 40, 90
12, 112344, Note_off_c, 10, 40, 90
12, 112344, Note_off_c, 10, 27, 127
12, 112464, Note_on_c, 10, 40, 80
12, 112488, Note_off_c, 10, 40, 80
12, 112704, Note_on_c, 10, 27, 127
12, 112704, Note_on_c, 10, 40, 90
12, 112728, Note_off_c, 10, 40, 90
12, 112728, Note_off_c, 10, 27, 127
12, 113088, Note_on_c, 10, 27, 127
12, 113088, Note_on_c, 10, 40, 90
12, 113112, Note_off_c, 10, 40, 90
12, 113112, Note_off_c, 10, 27, 127
12, 113232, Note_on_c, 10, 40, 80
12, 113256, Note_off_c, 10, 40, 80
12, 113328, Note_on_c, 10, 40, 80
12, 113352, Note_off_c, 10, 40, 80
12, 113472, Note_on_c, 10, 27, 127
12, 113472, Note_on_c, 10, 40, 90
12, 113496, Note_off_c, 10, 40, 90
12, 113496, Note_off_c, 10, 27, 127
12, 113856, Note_on_c, 10, 27, 127
12, 113856, Note_on_c, 10, 40, 90
12, 113880, Note_off_c, 10, 40, 90
12, 113880, Note_off_c, 10, 27, 127
12, 114000, Note_on_c, 10, 40, 80
12, 114024, Note_off_c, 10, 40, 80
12, 114240, Note_on_c, 10, 27, 127
12, 114240, Note_on_c, 10, 40, 90
12, 114264, Note_off_c, 10, 40, 90
12, 114264, Note_off_c, 10, 27, 127
12, 114624, Note_on_c, 10, 27, 127
12, 114624, Note_on_c, 10, 40, 90
12, 114648, Note_off_c, 10, 40, 90
12, 114648, Note_off_c, 10, 27, 127
12, 114768, Note_on_c, 10, 40, 80
12, 114792, Note_off_c, 10, 40, 80
12, 114864, Note_on_c, 10, 40, 80
12, 114888, Note_off_c, 10, 40, 80
12, 115008, Note_on_c, 10, 27, 127
12, 115008, Note_on_c, 10, 40, 90
12, 115032, Note_off_c, 10, 40, 90
12, 115032, Note_off_c, 10, 27, 127
12, 115104, Note_on_c, 10, 38, 80
12, 115128, Note_off_c, 10, 38, 80
12, 115152, Note_on_c, 10, 38, 80
12, 115176, Note_off_c, 10, 38, 80
12, 115392, Note_on_c, 10, 27, 127
12, 115392, Note_on_c, 10, 40, 90
12, 115416, Note_off_c, 10, 40, 90
12, 115416, Note_off_c, 10, 27, 127
12, 115536, Note_on_c, 10, 40, 80
12, 115560, Note_off_c, 10, 40, 80
12, 115776, Note_on_c, 10, 27, 127
12, 115776, Note_on_c, 10, 40, 90
12, 115800, Note_off_c, 10, 40, 90
12, 115800, Note_off_c, 10, 27, 127
12, 116160, Note_on_c, 10, 27, 127
12, 116160, Note_on_c, 10, 40, 90
12, 116184, Note_off_c, 10, 40, 90
12, 116184, Note_off_c, 10, 27, 127
12, 116304, Note_on_c, 10, 40, 80
12, 116328, Note_off_c, 10, 40, 80
12, 116400, Note_on_c, 10, 40, 80
12, 116424, Note_off_c, 10, 40, 80
12, 116544, Note_on_c, 10, 27, 127
12, 116544, Note_on_c, 10, 40, 90
12, 116568, Note_off_c, 10, 40, 90
12, 116568, Note_off_c, 10, 27, 127
12, 116928, Note_on_c, 10, 27, 127
12, 116928, Note_on_c, 10, 40, 90
12, 116952, Note_off_c, 10, 40, 90
12, 116952, Note_off_c, 10, 27, 127
12, 117072, Note_on_c, 10, 40, 80
12, 117096, Note_off_c, 10, 40, 80
12, 117312, Note_on_c, 10, 27, 127
12, 117312, Note_on_c, 10, 40, 90
12, 117336, Note_off_c, 10, 40, 90
12, 117336, Note_off_c, 10, 27, 127
12, 117696, Note_on_c, 10, 27, 127
12, 117696, Note_on_c, 10, 40, 90
12, 117720, Note_off_c, 10, 40, 90
12, 117720, Note_off_c, 10, 27, 127
12, 117840, Note_on_c, 10, 40, 80
12, 117864, Note_off_c, 10, 40, 80
12, 117936, Note_on_c, 10, 40, 80
12, 117960, Note_off_c, 10, 40, 80
12, 118080, Note_on_c, 10, 27, 127
12, 118080, Note_on_c, 10, 40, 90
12, 118104, Note_off_c, 10, 40, 90
12, 118104, Note_off_c, 10, 27, 127
12, 118176, Note_on_c, 10, 38, 80
12, 118200, Note_off_c, 10, 38, 80
12, 118224, Note_on_c, 10, 38, 80
12, 118248, Note_off_c, 10, 38, 80
12, 118464, Note_on_c, 10, 27, 127
12, 118464, Note_on_c, 10, 40, 90
12, 118488, Note_off_c, 10, 40, 90
12, 118488, Note_off_c, 10, 27, 127
12, 118608, Note_on_c, 10, 40, 80
12, 118632, Note_off_c, 10, 40, 80
12, 118848, Note_on_c, 10, 27, 127
12, 118848, Note_on_c, 10, 40, 90
12, 118872, Note_off_c, 10, 40, 90
12, 118872, Note_off_c, 10, 27, 127
12, 119232, Note_on_c, 10, 27, 127
12, 119232, Note_on_c, 10, 40, 90
12, 119256, Note_off_c, 10, 40, 90
12, 119256, Note_off_c, 10, 27, 127
12, 119376, Note_on_c, 10, 40, 80
12, 119400, Note_off_c, 10, 40, 80
12, 119472, Note_on_c, 10, 40, 80
12, 119496, Note_off_c, 10, 40, 80
12, 119616, Note_on_c, 10, 27, 127
12, 119616, Note_on_c, 10, 40, 90
12, 119640, Note_off_c, 10, 40, 90
12, 119640, Note_off_c, 10, 27, 127
12, 120000, Note_on_c, 10, 27, 127
12, 120000, Note_on_c, 10, 40, 90
12, 120024, Note_off_c, 10, 40, 90
12, 120024, Note_off_c, 10, 27, 127
12, 120144, Note_on_c, 10, 40, 80
12, 120168, Note_off_c, 10, 40, 80
12, 120384, Note_on_c, 10, 27, 127
12, 120384, Note_on_c, 10, 40, 90
12, 120408, Note_off_c, 10, 40, 90
12, 120408, Note_off_c, 10, 27, 127
12, 120768, Note_on_c, 10, 27, 127
12, 120768, Note_on_c, 10, 40, 90
12, 120792, Note_off_c, 10, 40, 90
12, 120792, Note_off_c, 10, 27, 127
12, 120912, Note_on_c, 10, 40, 80
12, 120936, Note_off_c, 10, 40, 80
12, 121008, Note_on_c, 10, 40, 80
12, 121032, Note_off_c, 10, 40, 80
12, 121152, Note_on_c, 10, 27, 127
12, 121152, Note_on_c, 10, 40, 90
12, 121176, Note_off_c, 10, 40, 90
12, 121176, Note_off_c, 10, 27, 127
12, 121248, Note_on_c, 10, 38, 80
12, 121272, Note_off_c, 10, 38, 80
12, 121296, Note_on_c, 10, 38, 80
12, 121320, Note_off_c, 10, 38, 80
12, 121536, Note_on_c, 10, 27, 127
12, 121536, Note_on_c, 10, 40, 90
12, 121560, Note_off_c, 10, 40, 90
12, 121560, Note_off_c, 10, 27, 127
12, 121680, Note_on_c, 10, 40, 80
12, 121704, Note_off_c, 10, 40, 80
12, 121920, Note_on_c, 10, 27, 127
12, 121920, Note_on_c, 10, 40, 90
12, 121944, Note_off_c, 10, 40, 90
12, 121944, Note_off_c, 10, 27, 127
12, 121944, End_track
13, 0, Start_track
13, 0, Text_t, "HiHats"
13, 2880, Control_c, 11, 0, 0
13, 2882, Control_c, 11, 32, 0
13, 2884, Program_c, 11, 25
13, 2886, Control_c, 11, 7, 100
13, 2888, Control_c, 11, 10, 64
13, 2890, Control_c, 11, 11, 90
13, 2892, Control_c, 11, 91, 10
13, 2894, Control_c, 11, 93, 0
13, 6144, Note_on_c, 11, 44, 110
13, 6168, Note_off_c, 11, 44, 110
13, 6240, Note_on_c, 11, 46, 100
13, 6264, Note_off_c, 11, 46, 100
13, 6288, Note_on_c, 11, 70, 100
13, 6296, Note_on_c, 11, 44, 8
13, 6312, Note_off_c, 11, 70, 100
13, 6320, Note_off_c, 11, 44, 8
13, 6336, Note_on_c, 11, 44, 110
13, 6360, Note_off_c, 11, 44, 110
13, 6432, Note_on_c, 11, 46, 100
13, 6456, Note_off_c, 11, 46, 100
13, 6480, Note_on_c, 11, 70, 100
13, 6488, Note_on_c, 11, 44, 8
13, 6504, Note_off_c, 11, 70, 100
13, 6512, Note_off_c, 11, 44, 8
13, 6528, Note_on_c, 11, 44, 110
13, 6552, Note_off_c, 11, 44, 110
13, 6624, Note_on_c, 11, 46, 100
13, 6648, Note_off_c, 11, 46, 100
13, 6672, Note_on_c, 11, 70, 100
13, 6680, Note_on_c, 11, 44, 8
13, 6696, Note_off_c, 11, 70, 100
13, 6704, Note_off_c, 11, 44, 8
13, 6720, Note_on_c, 11, 44, 110
13, 6744, Note_off_c, 11, 44, 110
13, 6816, Note_on_c, 11, 46, 100
13, 6840, Note_off_c, 11, 46, 100
13, 6864, Note_on_c, 11, 70, 100
13, 6872, Note_on_c, 11, 44, 8
13, 6888, Note_off_c, 11, 70, 100
13, 6896, Note_off_c, 11, 44, 8
13, 6912, Note_on_c, 11, 44, 110
13, 6936, Note_off_c, 11, 44, 110
13, 7008, Note_on_c, 11, 46, 100
13, 7032, Note_off_c, 11, 46, 100
13, 7056, Note_on_c, 11, 70, 100
13, 7064, Note_on_c, 11, 44, 8
13, 7080, Note_off_c, 11, 70, 100
13, 7088, Note_off_c, 11, 44, 8
13, 7104, Note_on_c, 11, 44, 110
13, 7128, Note_off_c, 11, 44, 110
13, 7200, Note_on_c, 11, 46, 100
13, 7224, Note_off_c, 11, 46, 100
13, 7248, Note_on_c, 11, 70, 100
13, 7256, Note_on_c, 11, 44, 8
13, 7272, Note_off_c, 11, 70, 100
13, 7280, Note_off_c, 11, 44, 8
13, 7296, Note_on_c, 11, 44, 110
13, 7320, Note_off_c, 11, 44, 110
13, 7392, Note_on_c, 11, 46, 100
13, 7416, Note_off_c, 11, 46, 100
13, 7440, Note_on_c, 11, 70, 100
13, 7448, Note_on_c, 11, 44, 8
13, 7464, Note_off_c, 11, 70, 100
13, 7472, Note_off_c, 11, 44, 8
13, 7488, Note_on_c, 11, 44, 110
13, 7512, Note_off_c, 11, 44, 110
13, 7584, Note_on_c, 11, 46, 100
13, 7608, Note_off_c, 11, 46, 100
13, 7632, Note_on_c, 11, 70, 100
13, 7640, Note_on_c, 11, 44, 8
13, 7656, Note_off_c, 11, 70, 100
13, 7664, Note_off_c, 11, 44, 8
13, 7680, Note_on_c, 11, 44, 110
13, 7704, Note_off_c, 11, 44, 110
13, 7776, Note_on_c, 11, 46, 100
13, 7800, Note_off_c, 11, 46, 100
13, 7824, Note_on_c, 11, 70, 100
13, 7832, Note_on_c, 11, 44, 8
13, 7848, Note_off_c, 11, 70, 100
13, 7856, Note_off_c, 11, 44, 8
13, 7872, Note_on_c, 11, 44, 110
13, 7896, Note_off_c, 11, 44, 110
13, 7968, Note_on_c, 11, 46, 100
13, 7992, Note_off_c, 11, 46, 100
13, 8016, Note_on_c, 11, 70, 100
13, 8024, Note_on_c, 11, 44, 8
13, 8040, Note_off_c, 11, 70, 100
13, 8048, Note_off_c, 11, 44, 8
13, 8064, Note_on_c, 11, 44, 110
13, 8088, Note_off_c, 11, 44, 110
13, 8160, Note_on_c, 11, 46, 100
13, 8184, Note_off_c, 11, 46, 100
13, 8208, Note_on_c, 11, 70, 100
13, 8216, Note_on_c, 11, 44, 8
13, 8232, Note_off_c, 11, 70, 100
13, 8240, Note_off_c, 11, 44, 8
13, 8256, Note_on_c, 11, 44, 110
13, 8280, Note_off_c, 11, 44, 110
13, 8352, Note_on_c, 11, 46, 100
13, 8376, Note_off_c, 11, 46, 100
13, 8400, Note_on_c, 11, 70, 100
13, 8408, Note_on_c, 11, 44, 8
13, 8424, Note_off_c, 11, 70, 100
13, 8432, Note_off_c, 11, 44, 8
13, 8448, Note_on_c, 11, 44, 110
13, 8472, Note_off_c, 11, 44, 110
13, 8544, Note_on_c, 11, 46, 100
13, 8568, Note_off_c, 11, 46, 100
13, 8592, Note_on_c, 11, 70, 100
13, 8600, Note_on_c, 11, 44, 8
13, 8616, Note_off_c, 11, 70, 100
13, 8624, Note_off_c, 11, 44, 8
13, 8640, Note_on_c, 11, 44, 110
13, 8664, Note_off_c, 11, 44, 110
13, 8736, Note_on_c, 11, 46, 100
13, 8760, Note_off_c, 11, 46, 100
13, 8784, Note_on_c, 11, 70, 100
13, 8792, Note_on_c, 11, 44, 8
13, 8808, Note_off_c, 11, 70, 100
13, 8816, Note_off_c, 11, 44, 8
13, 8832, Note_on_c, 11, 44, 110
13, 8856, Note_off_c, 11, 44, 110
13, 8928, Note_on_c, 11, 46, 100
13, 8952, Note_off_c, 11, 46, 100
13, 8976, Note_on_c, 11, 70, 100
13, 8984, Note_on_c, 11, 44, 8
13, 9000, Note_off_c, 11, 70, 100
13, 9008, Note_off_c, 11, 44, 8
13, 9024, Note_on_c, 11, 44, 110
13, 9048, Note_off_c, 11, 44, 110
13, 9120, Note_on_c, 11, 46, 100
13, 9144, Note_off_c, 11, 46, 100
13, 9168, Note_on_c, 11, 70, 100
13, 9176, Note_on_c, 11, 44, 8
13, 9192, Note_off_c, 11, 70, 100
13, 9200, Note_off_c, 11, 44, 8
13, 9216, Note_on_c, 11, 44, 110
13, 9240, Note_off_c, 11, 44, 110
13, 9312, Note_on_c, 11, 46, 100
13, 9336, Note_off_c, 11, 46, 100
13, 9360, Note_on_c, 11, 70, 100
13, 9368, Note_on_c, 11, 44, 8
13, 9384, Note_off_c, 11, 70, 100
13, 9392, Note_off_c, 11, 44, 8
13, 9408, Note_on_c, 11, 44, 110
13, 9432, Note_off_c, 11, 44, 110
13, 9504, Note_on_c, 11, 46, 100
13, 9528, Note_off_c, 11, 46, 100
13, 9552, Note_on_c, 11, 70, 100
13, 9560, Note_on_c, 11, 44, 8
13, 9576, Note_off_c, 11, 70, 100
13, 9584, Note_off_c, 11, 44, 8
13, 9600, Note_on_c, 11, 44, 110
13, 9624, Note_off_c, 11, 44, 110
13, 9696, Note_on_c, 11, 46, 100
13, 9720, Note_off_c, 11, 46, 100
13, 9744, Note_on_c, 11, 70, 100
13, 9752, Note_on_c, 11, 44, 8
13, 9768, Note_off_c, 11, 70, 100
13, 9776, Note_off_c, 11, 44, 8
13, 9792, Note_on_c, 11, 44, 110
13, 9816, Note_off_c, 11, 44, 110
13, 9888, Note_on_c, 11, 46, 100
13, 9912, Note_off_c, 11, 46, 100
13, 9936, Note_on_c, 11, 70, 100
13, 9944, Note_on_c, 11, 44, 8
13, 9960, Note_off_c, 11, 70, 100
13, 9968, Note_off_c, 11, 44, 8
13, 9984, Note_on_c, 11, 44, 110
13, 10008, Note_off_c, 11, 44, 110
13, 10080, Note_on_c, 11, 46, 100
13, 10104, Note_off_c, 11, 46, 100
13, 10128, Note_on_c, 11, 70, 100
13, 10136, Note_on_c, 11, 44, 8
13, 10152, Note_off_c, 11, 70, 100
13, 10160, Note_off_c, 11, 44, 8
13, 10176, Note_on_c, 11, 44, 110
13, 10200, Note_off_c, 11, 44, 110
13, 10272, Note_on_c, 11, 46, 100
13, 10296, Note_off_c, 11, 46, 100
13, 10320, Note_on_c, 11, 70, 100
13, 10328, Note_on_c, 11, 44, 8
13, 10344, Note_off_c, 11, 70, 100
13, 10352, Note_off_c, 11, 44, 8
13, 10368, Note_on_c, 11, 44, 110
13, 10392, Note_off_c, 11, 44, 110
13, 10464, Note_on_c, 11, 46, 100
13, 10488, Note_off_c, 11, 46, 100
13, 10512, Note_on_c, 11, 70, 100
13, 10520, Note_on_c, 11, 44, 8
13, 10536, Note_off_c, 11, 70, 100
13, 10544, Note_off_c, 11, 44, 8
13, 10560, Note_on_c, 11, 44, 110
13, 10584, Note_off_c, 11, 44, 110
13, 10656, Note_on_c, 11, 46, 100
13, 10680, Note_off_c, 11, 46, 100
13, 10704, Note_on_c, 11, 70, 100
13, 10712, Note_on_c, 11, 44, 8
13, 10728, Note_off_c, 11, 70, 100
13, 10736, Note_off_c, 11, 44, 8
13, 10752, Note_on_c, 11, 44, 110
13, 10776, Note_off_c, 11, 44, 110
13, 10848, Note_on_c, 11, 46, 100
13, 10872, Note_off_c, 11, 46, 100
13, 10896, Note_on_c, 11, 70, 100
13, 10904, Note_on_c, 11, 44, 8
13, 10920, Note_off_c, 11, 70, 100
13, 10928, Note_off_c, 11, 44, 8
13, 10944, Note_on_c, 11, 44, 110
13, 10968, Note_off_c, 11, 44, 110
13, 11040, Note_on_c, 11, 46, 100
13, 11064, Note_off_c, 11, 46, 100
13, 11088, Note_on_c, 11, 70, 100
13, 11096, Note_on_c, 11, 44, 8
13, 11112, Note_off_c, 11, 70, 100
13, 11120, Note_off_c, 11, 44, 8
13, 11136, Note_on_c, 11, 44, 110
13, 11160, Note_off_c, 11, 44, 110
13, 11232, Note_on_c, 11, 46, 100
13, 11256, Note_off_c, 11, 46, 100
13, 11280, Note_on_c, 11, 70, 100
13, 11288, Note_on_c, 11, 44, 8
13, 11304, Note_off_c, 11, 70, 100
13, 11312, Note_off_c, 11, 44, 8
13, 11328, Note_on_c, 11, 44, 110
13, 11352, Note_off_c, 11, 44, 110
13, 11424, Note_on_c, 11, 46, 100
13, 11448, Note_off_c, 11, 46, 100
13, 11472, Note_on_c, 11, 70, 100
13, 11480, Note_on_c, 11, 44, 8
13, 11496, Note_off_c, 11, 70, 100
13, 11504, Note_off_c, 11, 44, 8
13, 11520, Note_on_c, 11, 44, 110
13, 11544, Note_off_c, 11, 44, 110
13, 11616, Note_on_c, 11, 46, 100
13, 11640, Note_off_c, 11, 46, 100
13, 11664, Note_on_c, 11, 70, 100
13, 11672, Note_on_c, 11, 44, 8
13, 11688, Note_off_c, 11, 70, 100
13, 11696, Note_off_c, 11, 44, 8
13, 11712, Note_on_c, 11, 44, 110
13, 11736, Note_off_c, 11, 44, 110
13, 11808, Note_on_c, 11, 46, 100
13, 11832, Note_off_c, 11, 46, 100
13, 11856, Note_on_c, 11, 70, 100
13, 11864, Note_on_c, 11, 44, 8
13, 11880, Note_off_c, 11, 70, 100
13, 11888, Note_off_c, 11, 44, 8
13, 11904, Note_on_c, 11, 44, 110
13, 11928, Note_off_c, 11, 44, 110
13, 12000, Note_on_c, 11, 46, 100
13, 12024, Note_off_c, 11, 46, 100
13, 12048, Note_on_c, 11, 70, 100
13, 12056, Note_on_c, 11, 44, 8
13, 12072, Note_off_c, 11, 70, 100
13, 12080, Note_off_c, 11, 44, 8
13, 12096, Note_on_c, 11, 44, 110
13, 12120, Note_off_c, 11, 44, 110
13, 12192, Note_on_c, 11, 46, 100
13, 12216, Note_off_c, 11, 46, 100
13, 12240, Note_on_c, 11, 70, 100
13, 12248, Note_on_c, 11, 44, 8
13, 12264, Note_off_c, 11, 70, 100
13, 12272, Note_off_c, 11, 44, 8
13, 12288, Note_on_c, 11, 44, 110
13, 12312, Note_off_c, 11, 44, 110
13, 12384, Note_on_c, 11, 46, 100
13, 12408, Note_off_c, 11, 46, 100
13, 12432, Note_on_c, 11, 70, 100
13, 12440, Note_on_c, 11, 44, 8
13, 12456, Note_off_c, 11, 70, 100
13, 12464, Note_off_c, 11, 44, 8
13, 12480, Note_on_c, 11, 44, 110
13, 12504, Note_off_c, 11, 44, 110
13, 12576, Note_on_c, 11, 46, 100
13, 12600, Note_off_c, 11, 46, 100
13, 12624, Note_on_c, 11, 70, 100
13, 12632, Note_on_c, 11, 44, 8
13, 12648, Note_off_c, 11, 70, 100
13, 12656, Note_off_c, 11, 44, 8
13, 12672, Note_on_c, 11, 44, 110
13, 12696, Note_off_c, 11, 44, 110
13, 12768, Note_on_c, 11, 46, 100
13, 12792, Note_off_c, 11, 46, 100
13, 12816, Note_on_c, 11, 70, 100
13, 12824, Note_on_c, 11, 44, 8
13, 12840, Note_off_c, 11, 70, 100
13, 12848, Note_off_c, 11, 44, 8
13, 12864, Note_on_c, 11, 44, 110
13, 12888, Note_off_c, 11, 44, 110
13, 12960, Note_on_c, 11, 46, 100
13, 12984, Note_off_c, 11, 46, 100
13, 13008, Note_on_c, 11, 70, 100
13, 13016, Note_on_c, 11, 44, 8
13, 13032, Note_off_c, 11, 70, 100
13, 13040, Note_off_c, 11, 44, 8
13, 13056, Note_on_c, 11, 44, 110
13, 13080, Note_off_c, 11, 44, 110
13, 13152, Note_on_c, 11, 46, 100
13, 13176, Note_off_c, 11, 46, 100
13, 13200, Note_on_c, 11, 70, 100
13, 13208, Note_on_c, 11, 44, 8
13, 13224, Note_off_c, 11, 70, 100
13, 13232, Note_off_c, 11, 44, 8
13, 13248, Note_on_c, 11, 44, 110
13, 13272, Note_off_c, 11, 44, 110
13, 13344, Note_on_c, 11, 46, 100
13, 13368, Note_off_c, 11, 46, 100
13, 13392, Note_on_c, 11, 70, 100
13, 13400, Note_on_c, 11, 44, 8
13, 13416, Note_off_c, 11, 70, 100
13, 13424, Note_off_c, 11, 44, 8
13, 13440, Note_on_c, 11, 44, 110
13, 13464, Note_off_c, 11, 44, 110
13, 13536, Note_on_c, 11, 46, 100
13, 13560, Note_off_c, 11, 46, 100
13, 13584, Note_on_c, 11, 70, 100
13, 13592, Note_on_c, 11, 44, 8
13, 13608, Note_off_c, 11, 70, 100
13, 13616, Note_off_c, 11, 44, 8
13, 13632, Note_on_c, 11, 44, 110
13, 13656, Note_off_c, 11, 44, 110
13, 13728, Note_on_c, 11, 46, 100
13, 13752, Note_off_c, 11, 46, 100
13, 13776, Note_on_c, 11, 70, 100
13, 13784, Note_on_c, 11, 44, 8
13, 13800, Note_off_c, 11, 70, 100
13, 13808, Note_off_c, 11, 44, 8
13, 13824, Note_on_c, 11, 44, 110
13, 13848, Note_off_c, 11, 44, 110
13, 13920, Note_on_c, 11, 46, 100
13, 13944, Note_off_c, 11, 46, 100
13, 13968, Note_on_c, 11, 70, 100
13, 13976, Note_on_c, 11, 44, 8
13, 13992, Note_off_c, 11, 70, 100
13, 14000, Note_off_c, 11, 44, 8
13, 14016, Note_on_c, 11, 44, 110
13, 14040, Note_off_c, 11, 44, 110
13, 14112, Note_on_c, 11, 46, 100
13, 14136, Note_off_c, 11, 46, 100
13, 14160, Note_on_c, 11, 70, 100
13, 14168, Note_on_c, 11, 44, 8
13, 14184, Note_off_c, 11, 70, 100
13, 14192, Note_off_c, 11, 44, 8
13, 14208, Note_on_c, 11, 44, 110
13, 14232, Note_off_c, 11, 44, 110
13, 14304, Note_on_c, 11, 46, 100
13, 14328, Note_off_c, 11, 46, 100
13, 14352, Note_on_c, 11, 70, 100
13, 14360, Note_on_c, 11, 44, 8
13, 14376, Note_off_c, 11, 70, 100
13, 14384, Note_off_c, 11, 44, 8
13, 14400, Note_on_c, 11, 44, 110
13, 14424, Note_off_c, 11, 44, 110
13, 14496, Note_on_c, 11, 46, 100
13, 14520, Note_off_c, 11, 46, 100
13, 14544, Note_on_c, 11, 70, 100
13, 14552, Note_on_c, 11, 44, 8
13, 14568, Note_off_c, 11, 70, 100
13, 14576, Note_off_c, 11, 44, 8
13, 14592, Note_on_c, 11, 44, 110
13, 14616, Note_off_c, 11, 44, 110
13, 14688, Note_on_c, 11, 46, 100
13, 14712, Note_off_c, 11, 46, 100
13, 14736, Note_on_c, 11, 70, 100
13, 14744, Note_on_c, 11, 44, 8
13, 14760, Note_off_c, 11, 70, 100
13, 14768, Note_off_c, 11, 44, 8
13, 14784, Note_on_c, 11, 44, 110
13, 14808, Note_off_c, 11, 44, 110
13, 14880, Note_on_c, 11, 46, 100
13, 14904, Note_off_c, 11, 46, 100
13, 14928, Note_on_c, 11, 70, 100
13, 14936, Note_on_c, 11, 44, 8
13, 14952, Note_off_c, 11, 70, 100
13, 14960, Note_off_c, 11, 44, 8
13, 14976, Note_on_c, 11, 44, 110
13, 15000, Note_off_c, 11, 44, 110
13, 15072, Note_on_c, 11, 46, 100
13, 15096, Note_off_c, 11, 46, 100
13, 15120, Note_on_c, 11, 70, 100
13, 15128, Note_on_c, 11, 44, 8
13, 15144, Note_off_c, 11, 70, 100
13, 15152, Note_off_c, 11, 44, 8
13, 15168, Note_on_c, 11, 44, 110
13, 15192, Note_off_c, 11, 44, 110
13, 15264, Note_on_c, 11, 46, 100
13, 15288, Note_off_c, 11, 46, 100
13, 15312, Note_on_c, 11, 70, 100
13, 15320, Note_on_c, 11, 44, 8
13, 15336, Note_off_c, 11, 70, 100
13, 15344, Note_off_c, 11, 44, 8
13, 15360, Note_on_c, 11, 44, 110
13, 15384, Note_off_c, 11, 44, 110
13, 15456, Note_on_c, 11, 46, 100
13, 15480, Note_off_c, 11, 46, 100
13, 15504, Note_on_c, 11, 70, 100
13, 15512, Note_on_c, 11, 44, 8
13, 15528, Note_off_c, 11, 70, 100
13, 15536, Note_off_c, 11, 44, 8
13, 15552, Note_on_c, 11, 44, 110
13, 15576, Note_off_c, 11, 44, 110
13, 15648, Note_on_c, 11, 46, 100
13, 15672, Note_off_c, 11, 46, 100
13, 15696, Note_on_c, 11, 70, 100
13, 15704, Note_on_c, 11, 44, 8
13, 15720, Note_off_c, 11, 70, 100
13, 15728, Note_off_c, 11, 44, 8
13, 15744, Note_on_c, 11, 44, 110
13, 15768, Note_off_c, 11, 44, 110
13, 15840, Note_on_c, 11, 46, 100
13, 15864, Note_off_c, 11, 46, 100
13, 15888, Note_on_c, 11, 70, 100
13, 15896, Note_on_c, 11, 44, 8
13, 15912, Note_off_c, 11, 70, 100
13, 15920, Note_off_c, 11, 44, 8
13, 15936, Note_on_c, 11, 44, 110
13, 15960, Note_off_c, 11, 44, 110
13, 16032, Note_on_c, 11, 46, 100
13, 16056, Note_off_c, 11, 46, 100
13, 16080, Note_on_c, 11, 70, 100
13, 16088, Note_on_c, 11, 44, 8
13, 16104, Note_off_c, 11, 70, 100
13, 16112, Note_off_c, 11, 44, 8
13, 16128, Note_on_c, 11, 44, 110
13, 16152, Note_off_c, 11, 44, 110
13, 16224, Note_on_c, 11, 46, 100
13, 16248, Note_off_c, 11, 46, 100
13, 16272, Note_on_c, 11, 70, 100
13, 16280, Note_on_c, 11, 44, 8
13, 16296, Note_off_c, 11, 70, 100
13, 16304, Note_off_c, 11, 44, 8
13, 16320, Note_on_c, 11, 44, 110
13, 16344, Note_off_c, 11, 44, 110
13, 16416, Note_on_c, 11, 46, 100
13, 16440, Note_off_c, 11, 46, 100
13, 16464, Note_on_c, 11, 70, 100
13, 16472, Note_on_c, 11, 44, 8
13, 16488, Note_off_c, 11, 70, 100
13, 16496, Note_off_c, 11, 44, 8
13, 16512, Note_on_c, 11, 44, 110
13, 16536, Note_off_c, 11, 44, 110
13, 16608, Note_on_c, 11, 46, 100
13, 16632, Note_off_c, 11, 46, 100
13, 16656, Note_on_c, 11, 70, 100
13, 16664, Note_on_c, 11, 44, 8
13, 16680, Note_off_c, 11, 70, 100
13, 16688, Note_off_c, 11, 44, 8
13, 16704, Note_on_c, 11, 44, 110
13, 16728, Note_off_c, 11, 44, 110
13, 16800, Note_on_c, 11, 46, 100
13, 16824, Note_off_c, 11, 46, 100
13, 16848, Note_on_c, 11, 70, 100
13, 16856, Note_on_c, 11, 44, 8
13, 16872, Note_off_c, 11, 70, 100
13, 16880, Note_off_c, 11, 44, 8
13, 16896, Note_on_c, 11, 44, 110
13, 16920, Note_off_c, 11, 44, 110
13, 16992, Note_on_c, 11, 46, 100
13, 17016, Note_off_c, 11, 46, 100
13, 17040, Note_on_c, 11, 70, 100
13, 17048, Note_on_c, 11, 44, 8
13, 17064, Note_off_c, 11, 70, 100
13, 17072, Note_off_c, 11, 44, 8
13, 17088, Note_on_c, 11, 44, 110
13, 17112, Note_off_c, 11, 44, 110
13, 17184, Note_on_c, 11, 46, 100
13, 17208, Note_off_c, 11, 46, 100
13, 17232, Note_on_c, 11, 70, 100
13, 17240, Note_on_c, 11, 44, 8
13, 17256, Note_off_c, 11, 70, 100
13, 17264, Note_off_c, 11, 44, 8
13, 17280, Note_on_c, 11, 44, 110
13, 17304, Note_off_c, 11, 44, 110
13, 17376, Note_on_c, 11, 46, 100
13, 17400, Note_off_c, 11, 46, 100
13, 17424, Note_on_c, 11, 70, 100
13, 17432, Note_on_c, 11, 44, 8
13, 17448, Note_off_c, 11, 70, 100
13, 17456, Note_off_c, 11, 44, 8
13, 17472, Note_on_c, 11, 44, 110
13, 17496, Note_off_c, 11, 44, 110
13, 17568, Note_on_c, 11, 46, 100
13, 17592, Note_off_c, 11, 46, 100
13, 17616, Note_on_c, 11, 70, 100
13, 17624, Note_on_c, 11, 44, 8
13, 17640, Note_off_c, 11, 70, 100
13, 17648, Note_off_c, 11, 44, 8
13, 17664, Note_on_c, 11, 44, 110
13, 17688, Note_off_c, 11, 44, 110
13, 17760, Note_on_c, 11, 46, 100
13, 17784, Note_off_c, 11, 46, 100
13, 17808, Note_on_c, 11, 70, 100
13, 17816, Note_on_c, 11, 44, 8
13, 17832, Note_off_c, 11, 70, 100
13, 17840, Note_off_c, 11, 44, 8
13, 17856, Note_on_c, 11, 44, 110
13, 17880, Note_off_c, 11, 44, 110
13, 17952, Note_on_c, 11, 46, 100
13, 17976, Note_off_c, 11, 46, 100
13, 18000, Note_on_c, 11, 70, 100
13, 18008, Note_on_c, 11, 44, 8
13, 18024, Note_off_c, 11, 70, 100
13, 18032, Note_off_c, 11, 44, 8
13, 18048, Note_on_c, 11, 44, 110
13, 18072, Note_off_c, 11, 44, 110
13, 18144, Note_on_c, 11, 46, 100
13, 18168, Note_off_c, 11, 46, 100
13, 18192, Note_on_c, 11, 70, 100
13, 18200, Note_on_c, 11, 44, 8
13, 18216, Note_off_c, 11, 70, 100
13, 18224, Note_off_c, 11, 44, 8
13, 18240, Note_on_c, 11, 44, 110
13, 18264, Note_off_c, 11, 44, 110
13, 18336, Note_on_c, 11, 46, 100
13, 18360, Note_off_c, 11, 46, 100
13, 18384, Note_on_c, 11, 70, 100
13, 18392, Note_on_c, 11, 44, 8
13, 18408, Note_off_c, 11, 70, 100
13, 18416, Note_off_c, 11, 44, 8
13, 18432, Note_on_c, 11, 44, 110
13, 18456, Note_off_c, 11, 44, 110
13, 18528, Note_on_c, 11, 46, 100
13, 18552, Note_off_c, 11, 46, 100
13, 18576, Note_on_c, 11, 70, 100
13, 18584, Note_on_c, 11, 44, 8
13, 18600, Note_off_c, 11, 70, 100
13, 18608, Note_off_c, 11, 44, 8
13, 18624, Note_on_c, 11, 44, 110
13, 18648, Note_off_c, 11, 44, 110
13, 18720, Note_on_c, 11, 46, 100
13, 18744, Note_off_c, 11, 46, 100
13, 18768, Note_on_c, 11, 70, 100
13, 18776, Note_on_c, 11, 44, 8
13, 18792, Note_off_c, 11, 70, 100
13, 18800, Note_off_c, 11, 44, 8
13, 18816, Note_on_c, 11, 44, 110
13, 18840, Note_off_c, 11, 44, 110
13, 18912, Note_on_c, 11, 46, 100
13, 18936, Note_off_c, 11, 46, 100
13, 18960, Note_on_c, 11, 70, 100
13, 18968, Note_on_c, 11, 44, 8
13, 18984, Note_off_c, 11, 70, 100
13, 18992, Note_off_c, 11, 44, 8
13, 19008, Note_on_c, 11, 44, 110
13, 19032, Note_off_c, 11, 44, 110
13, 19104, Note_on_c, 11, 46, 100
13, 19128, Note_off_c, 11, 46, 100
13, 19152, Note_on_c, 11, 70, 100
13, 19160, Note_on_c, 11, 44, 8
13, 19176, Note_off_c, 11, 70, 100
13, 19184, Note_off_c, 11, 44, 8
13, 19200, Note_on_c, 11, 44, 110
13, 19224, Note_off_c, 11, 44, 110
13, 19296, Note_on_c, 11, 46, 100
13, 19320, Note_off_c, 11, 46, 100
13, 19344, Note_on_c, 11, 70, 100
13, 19352, Note_on_c, 11, 44, 8
13, 19368, Note_off_c, 11, 70, 100
13, 19376, Note_off_c, 11, 44, 8
13, 19392, Note_on_c, 11, 44, 110
13, 19416, Note_off_c, 11, 44, 110
13, 19488, Note_on_c, 11, 46, 100
13, 19512, Note_off_c, 11, 46, 100
13, 19536, Note_on_c, 11, 70, 100
13, 19544, Note_on_c, 11, 44, 8
13, 19560, Note_off_c, 11, 70, 100
13, 19568, Note_off_c, 11, 44, 8
13, 19584, Note_on_c, 11, 44, 110
13, 19608, Note_off_c, 11, 44, 110
13, 19680, Note_on_c, 11, 46, 100
13, 19704, Note_off_c, 11, 46, 100
13, 19728, Note_on_c, 11, 70, 100
13, 19736, Note_on_c, 11, 44, 8
13, 19752, Note_off_c, 11, 70, 100
13, 19760, Note_off_c, 11, 44, 8
13, 19776, Note_on_c, 11, 44, 110
13, 19800, Note_off_c, 11, 44, 110
13, 19872, Note_on_c, 11, 46, 100
13, 19896, Note_off_c, 11, 46, 100
13, 19920, Note_on_c, 11, 70, 100
13, 19928, Note_on_c, 11, 44, 8
13, 19944, Note_off_c, 11, 70, 100
13, 19952, Note_off_c, 11, 44, 8
13, 19968, Note_on_c, 11, 44, 110
13, 19992, Note_off_c, 11, 44, 110
13, 20064, Note_on_c, 11, 46, 100
13, 20088, Note_off_c, 11, 46, 100
13, 20112, Note_on_c, 11, 70, 100
13, 20120, Note_on_c, 11, 44, 8
13, 20136, Note_off_c, 11, 70, 100
13, 20144, Note_off_c, 11, 44, 8
13, 20160, Note_on_c, 11, 44, 110
13, 20184, Note_off_c, 11, 44, 110
13, 20256, Note_on_c, 11, 46, 100
13, 20280, Note_off_c, 11, 46, 100
13, 20304, Note_on_c, 11, 70, 100
13, 20312, Note_on_c, 11, 44, 8
13, 20328, Note_off_c, 11, 70, 100
13, 20336, Note_off_c, 11, 44, 8
13, 20352, Note_on_c, 11, 44, 110
13, 20376, Note_off_c, 11, 44, 110
13, 20448, Note_on_c, 11, 46, 100
13, 20472, Note_off_c, 11, 46, 100
13, 20496, Note_on_c, 11, 70, 100
13, 20504, Note_on_c, 11, 44, 8
13, 20520, Note_off_c, 11, 70, 100
13, 20528, Note_off_c, 11, 44, 8
13, 20544, Note_on_c, 11, 44, 110
13, 20568, Note_off_c, 11, 44, 110
13, 20640, Note_on_c, 11, 46, 100
13, 20664, Note_off_c, 11, 46, 100
13, 20688, Note_on_c, 11, 70, 100
13, 20696, Note_on_c, 11, 44, 8
13, 20712, Note_off_c, 11, 70, 100
13, 20720, Note_off_c, 11, 44, 8
13, 20736, Note_on_c, 11, 44, 110
13, 20760, Note_off_c, 11, 44, 110
13, 20832, Note_on_c, 11, 46, 100
13, 20856, Note_off_c, 11, 46, 100
13, 20880, Note_on_c, 11, 70, 100
13, 20888, Note_on_c, 11, 44, 8
13, 20904, Note_off_c, 11, 70, 100
13, 20912, Note_off_c, 11, 44, 8
13, 20928, Note_on_c, 11, 44, 110
13, 20952, Note_off_c, 11, 44, 110
13, 21024, Note_on_c, 11, 46, 100
13, 21048, Note_off_c, 11, 46, 100
13, 21072, Note_on_c, 11, 70, 100
13, 21080, Note_on_c, 11, 44, 8
13, 21096, Note_off_c, 11, 70, 100
13, 21104, Note_off_c, 11, 44, 8
13, 21120, Note_on_c, 11, 44, 110
13, 21144, Note_off_c, 11, 44, 110
13, 21216, Note_on_c, 11, 46, 100
13, 21240, Note_off_c, 11, 46, 100
13, 21264, Note_on_c, 11, 70, 100
13, 21272, Note_on_c, 11, 44, 8
13, 21288, Note_off_c, 11, 70, 100
13, 21296, Note_off_c, 11, 44, 8
13, 21312, Note_on_c, 11, 44, 110
13, 21336, Note_off_c, 11, 44, 110
13, 21408, Note_on_c, 11, 46, 100
13, 21432, Note_off_c, 11, 46, 100
13, 21456, Note_on_c, 11, 70, 100
13, 21464, Note_on_c, 11, 44, 8
13, 21480, Note_off_c, 11, 70, 100
13, 21488, Note_off_c, 11, 44, 8
13, 21504, Note_on_c, 11, 44, 110
13, 21528, Note_off_c, 11, 44, 110
13, 21600, Note_on_c, 11, 46, 100
13, 21624, Note_off_c, 11, 46, 100
13, 21648, Note_on_c, 11, 70, 100
13, 21656, Note_on_c, 11, 44, 8
13, 21672, Note_off_c, 11, 70, 100
13, 21680, Note_off_c, 11, 44, 8
13, 21696, Note_on_c, 11, 44, 110
13, 21720, Note_off_c, 11, 44, 110
13, 21792, Note_on_c, 11, 46, 100
13, 21816, Note_off_c, 11, 46, 100
13, 21840, Note_on_c, 11, 70, 100
13, 21848, Note_on_c, 11, 44, 8
13, 21864, Note_off_c, 11, 70, 100
13, 21872, Note_off_c, 11, 44, 8
13, 21888, Note_on_c, 11, 44, 110
13, 21912, Note_off_c, 11, 44, 110
13, 21984, Note_on_c, 11, 46, 100
13, 22008, Note_off_c, 11, 46, 100
13, 22032, Note_on_c, 11, 70, 100
13, 22040, Note_on_c, 11, 44, 8
13, 22056, Note_off_c, 11, 70, 100
13, 22064, Note_off_c, 11, 44, 8
13, 22080, Note_on_c, 11, 44, 110
13, 22104, Note_off_c, 11, 44, 110
13, 22176, Note_on_c, 11, 46, 100
13, 22200, Note_off_c, 11, 46, 100
13, 22224, Note_on_c, 11, 70, 100
13, 22232, Note_on_c, 11, 44, 8
13, 22248, Note_off_c, 11, 70, 100
13, 22256, Note_off_c, 11, 44, 8
13, 22272, Note_on_c, 11, 44, 110
13, 22296, Note_off_c, 11, 44, 110
13, 22368, Note_on_c, 11, 46, 100
13, 22392, Note_off_c, 11, 46, 100
13, 22416, Note_on_c, 11, 70, 100
13, 22424, Note_on_c, 11, 44, 8
13, 22440, Note_off_c, 11, 70, 100
13, 22448, Note_off_c, 11, 44, 8
13, 22464, Note_on_c, 11, 44, 110
13, 22488, Note_off_c, 11, 44, 110
13, 22560, Note_on_c, 11, 46, 100
13, 22584, Note_off_c, 11, 46, 100
13, 22608, Note_on_c, 11, 70, 100
13, 22616, Note_on_c, 11, 44, 8
13, 22632, Note_off_c, 11, 70, 100
13, 22640, Note_off_c, 11, 44, 8
13, 22656, Note_on_c, 11, 44, 110
13, 22680, Note_off_c, 11, 44, 110
13, 22752, Note_on_c, 11, 46, 100
13, 22776, Note_off_c, 11, 46, 100
13, 22800, Note_on_c, 11, 70, 100
13, 22808, Note_on_c, 11, 44, 8
13, 22824, Note_off_c, 11, 70, 100
13, 22832, Note_off_c, 11, 44, 8
13, 22848, Note_on_c, 11, 44, 110
13, 22872, Note_off_c, 11, 44, 110
13, 22944, Note_on_c, 11, 46, 100
13, 22968, Note_off_c, 11, 46, 100
13, 22992, Note_on_c, 11, 70, 100
13, 23000, Note_on_c, 11, 44, 8
13, 23016, Note_off_c, 11, 70, 100
13, 23024, Note_off_c, 11, 44, 8
13, 23040, Note_on_c, 11, 44, 110
13, 23064, Note_off_c, 11, 44, 110
13, 23136, Note_on_c, 11, 46, 100
13, 23160, Note_off_c, 11, 46, 100
13, 23184, Note_on_c, 11, 70, 100
13, 23192, Note_on_c, 11, 44, 8
13, 23208, Note_off_c, 11, 70, 100
13, 23216, Note_off_c, 11, 44, 8
13, 23232, Note_on_c, 11, 44, 110
13, 23256, Note_off_c, 11, 44, 110
13, 23328, Note_on_c, 11, 46, 100
13, 23352, Note_off_c, 11, 46, 100
13, 23376, Note_on_c, 11, 70, 100
13, 23384, Note_on_c, 11, 44, 8
13, 23400, Note_off_c, 11, 70, 100
13, 23408, Note_off_c, 11, 44, 8
13, 23424, Note_on_c, 11, 44, 110
13, 23448, Note_off_c, 11, 44, 110
13, 23520, Note_on_c, 11, 46, 100
13, 23544, Note_off_c, 11, 46, 100
13, 23568, Note_on_c, 11, 70, 100
13, 23576, Note_on_c, 11, 44, 8
13, 23592, Note_off_c, 11, 70, 100
13, 23600, Note_off_c, 11, 44, 8
13, 23616, Note_on_c, 11, 44, 110
13, 23640, Note_off_c, 11, 44, 110
13, 23712, Note_on_c, 11, 46, 100
13, 23736, Note_off_c, 11, 46, 100
13, 23760, Note_on_c, 11, 70, 100
13, 23768, Note_on_c, 11, 44, 8
13, 23784, Note_off_c, 11, 70, 100
13, 23792, Note_off_c, 11, 44, 8
13, 23808, Note_on_c, 11, 44, 110
13, 23832, Note_off_c, 11, 44, 110
13, 23904, Note_on_c, 11, 46, 100
13, 23928, Note_off_c, 11, 46, 100
13, 23952, Note_on_c, 11, 70, 100
13, 23960, Note_on_c, 11, 44, 8
13, 23976, Note_off_c, 11, 70, 100
13, 23984, Note_off_c, 11, 44, 8
13, 24000, Note_on_c, 11, 44, 110
13, 24024, Note_off_c, 11, 44, 110
13, 24096, Note_on_c, 11, 46, 100
13, 24120, Note_off_c, 11, 46, 100
13, 24144, Note_on_c, 11, 70, 100
13, 24152, Note_on_c, 11, 44, 8
13, 24168, Note_off_c, 11, 70, 100
13, 24176, Note_off_c, 11, 44, 8
13, 24192, Note_on_c, 11, 44, 110
13, 24216, Note_off_c, 11, 44, 110
13, 24288, Note_on_c, 11, 46, 100
13, 24312, Note_off_c, 11, 46, 100
13, 24336, Note_on_c, 11, 70, 100
13, 24344, Note_on_c, 11, 44, 8
13, 24360, Note_off_c, 11, 70, 100
13, 24368, Note_off_c, 11, 44, 8
13, 24384, Note_on_c, 11, 44, 110
13, 24408, Note_off_c, 11, 44, 110
13, 24480, Note_on_c, 11, 46, 100
13, 24504, Note_off_c, 11, 46, 100
13, 24528, Note_on_c, 11, 70, 100
13, 24536, Note_on_c, 11, 44, 8
13, 24552, Note_off_c, 11, 70, 100
13, 24560, Note_off_c, 11, 44, 8
13, 24576, Note_on_c, 11, 44, 110
13, 24600, Note_off_c, 11, 44, 110
13, 24672, Note_on_c, 11, 46, 100
13, 24696, Note_off_c, 11, 46, 100
13, 24720, Note_on_c, 11, 70, 100
13, 24728, Note_on_c, 11, 44, 8
13, 24744, Note_off_c, 11, 70, 100
13, 24752, Note_off_c, 11, 44, 8
13, 24768, Note_on_c, 11, 44, 110
13, 24792, Note_off_c, 11, 44, 110
13, 24864, Note_on_c, 11, 46, 100
13, 24888, Note_off_c, 11, 46, 100
13, 24912, Note_on_c, 11, 70, 100
13, 24920, Note_on_c, 11, 44, 8
13, 24936, Note_off_c, 11, 70, 100
13, 24944, Note_off_c, 11, 44, 8
13, 24960, Note_on_c, 11, 44, 110
13, 24984, Note_off_c, 11, 44, 110
13, 25056, Note_on_c, 11, 46, 100
13, 25080, Note_off_c, 11, 46, 100
13, 25104, Note_on_c, 11, 70, 100
13, 25112, Note_on_c, 11, 44, 8
13, 25128, Note_off_c, 11, 70, 100
13, 25136, Note_off_c, 11, 44, 8
13, 25152, Note_on_c, 11, 44, 110
13, 25176, Note_off_c, 11, 44, 110
13, 25248, Note_on_c, 11, 46, 100
13, 25272, Note_off_c, 11, 46, 100
13, 25296, Note_on_c, 11, 70, 100
13, 25304, Note_on_c, 11, 44, 8
13, 25320, Note_off_c, 11, 70, 100
13, 25328, Note_off_c, 11, 44, 8
13, 25344, Note_on_c, 11, 44, 110
13, 25368, Note_off_c, 11, 44, 110
13, 25440, Note_on_c, 11, 46, 100
13, 25464, Note_off_c, 11, 46, 100
13, 25488, Note_on_c, 11, 70, 100
13, 25496, Note_on_c, 11, 44, 8
13, 25512, Note_off_c, 11, 70, 100
13, 25520, Note_off_c, 11, 44, 8
13, 25536, Note_on_c, 11, 44, 110
13, 25560, Note_off_c, 11, 44, 110
13, 25632, Note_on_c, 11, 46, 100
13, 25656, Note_off_c, 11, 46, 100
13, 25680, Note_on_c, 11, 70, 100
13, 25688, Note_on_c, 11, 44, 8
13, 25704, Note_off_c, 11, 70, 100
13, 25712, Note_off_c, 11, 44, 8
13, 25728, Note_on_c, 11, 44, 110
13, 25752, Note_off_c, 11, 44, 110
13, 25824, Note_on_c, 11, 46, 100
13, 25848, Note_off_c, 11, 46, 100
13, 25872, Note_on_c, 11, 70, 100
13, 25880, Note_on_c, 11, 44, 8
13, 25896, Note_off_c, 11, 70, 100
13, 25904, Note_off_c, 11, 44, 8
13, 25920, Note_on_c, 11, 44, 110
13, 25944, Note_off_c, 11, 44, 110
13, 26016, Note_on_c, 11, 46, 100
13, 26040, Note_off_c, 11, 46, 100
13, 26064, Note_on_c, 11, 70, 100
13, 26072, Note_on_c, 11, 44, 8
13, 26088, Note_off_c, 11, 70, 100
13, 26096, Note_off_c, 11, 44, 8
13, 26112, Note_on_c, 11, 44, 110
13, 26136, Note_off_c, 11, 44, 110
13, 26208, Note_on_c, 11, 46, 100
13, 26232, Note_off_c, 11, 46, 100
13, 26256, Note_on_c, 11, 70, 100
13, 26264, Note_on_c, 11, 44, 8
13, 26280, Note_off_c, 11, 70, 100
13, 26288, Note_off_c, 11, 44, 8
13, 26304, Note_on_c, 11, 44, 110
13, 26328, Note_off_c, 11, 44, 110
13, 26400, Note_on_c, 11, 46, 100
13, 26424, Note_off_c, 11, 46, 100
13, 26448, Note_on_c, 11, 70, 100
13, 26456, Note_on_c, 11, 44, 8
13, 26472, Note_off_c, 11, 70, 100
13, 26480, Note_off_c, 11, 44, 8
13, 26496, Note_on_c, 11, 44, 110
13, 26520, Note_off_c, 11, 44, 110
13, 26592, Note_on_c, 11, 46, 100
13, 26616, Note_off_c, 11, 46, 100
13, 26640, Note_on_c, 11, 70, 100
13, 26648, Note_on_c, 11, 44, 8
13, 26664, Note_off_c, 11, 70, 100
13, 26672, Note_off_c, 11, 44, 8
13, 26688, Note_on_c, 11, 44, 110
13, 26712, Note_off_c, 11, 44, 110
13, 26784, Note_on_c, 11, 46, 100
13, 26808, Note_off_c, 11, 46, 100
13, 26832, Note_on_c, 11, 70, 100
13, 26840, Note_on_c, 11, 44, 8
13, 26856, Note_off_c, 11, 70, 100
13, 26864, Note_off_c, 11, 44, 8
13, 26880, Note_on_c, 11, 44, 110
13, 26904, Note_off_c, 11, 44, 110
13, 26976, Note_on_c, 11, 46, 100
13, 27000, Note_off_c, 11, 46, 100
13, 27024, Note_on_c, 11, 70, 100
13, 27032, Note_on_c, 11, 44, 8
13, 27048, Note_off_c, 11, 70, 100
13, 27056, Note_off_c, 11, 44, 8
13, 27072, Note_on_c, 11, 44, 110
13, 27096, Note_off_c, 11, 44, 110
13, 27168, Note_on_c, 11, 46, 100
13, 27192, Note_off_c, 11, 46, 100
13, 27216, Note_on_c, 11, 70, 100
13, 27224, Note_on_c, 11, 44, 8
13, 27240, Note_off_c, 11, 70, 100
13, 27248, Note_off_c, 11, 44, 8
13, 27264, Note_on_c, 11, 44, 110
13, 27288, Note_off_c, 11, 44, 110
13, 27360, Note_on_c, 11, 46, 100
13, 27384, Note_off_c, 11, 46, 100
13, 27408, Note_on_c, 11, 70, 100
13, 27416, Note_on_c, 11, 44, 8
13, 27432, Note_off_c, 11, 70, 100
13, 27440, Note_off_c, 11, 44, 8
13, 27456, Note_on_c, 11, 44, 110
13, 27480, Note_off_c, 11, 44, 110
13, 27552, Note_on_c, 11, 46, 100
13, 27576, Note_off_c, 11, 46, 100
13, 27600, Note_on_c, 11, 70, 100
13, 27608, Note_on_c, 11, 44, 8
13, 27624, Note_off_c, 11, 70, 100
13, 27632, Note_off_c, 11, 44, 8
13, 32256, Note_on_c, 11, 44, 110
13, 32280, Note_off_c, 11, 44, 110
13, 32352, Note_on_c, 11, 46, 100
13, 32376, Note_off_c, 11, 46, 100
13, 32400, Note_on_c, 11, 70, 100
13, 32408, Note_on_c, 11, 44, 8
13, 32424, Note_off_c, 11, 70, 100
13, 32432, Note_off_c, 11, 44, 8
13, 32448, Note_on_c, 11, 44, 110
13, 32472, Note_off_c, 11, 44, 110
13, 32544, Note_on_c, 11, 46, 100
13, 32568, Note_off_c, 11, 46, 100
13, 32592, Note_on_c, 11, 70, 100
13, 32600, Note_on_c, 11, 44, 8
13, 32616, Note_off_c, 11, 70, 100
13, 32624, Note_off_c, 11, 44, 8
13, 32640, Note_on_c, 11, 44, 110
13, 32664, Note_off_c, 11, 44, 110
13, 32736, Note_on_c, 11, 46, 100
13, 32760, Note_off_c, 11, 46, 100
13, 32784, Note_on_c, 11, 70, 100
13, 32792, Note_on_c, 11, 44, 8
13, 32808, Note_off_c, 11, 70, 100
13, 32816, Note_off_c, 11, 44, 8
13, 32832, Note_on_c, 11, 44, 110
13, 32856, Note_off_c, 11, 44, 110
13, 32928, Note_on_c, 11, 46, 100
13, 32952, Note_off_c, 11, 46, 100
13, 32976, Note_on_c, 11, 70, 100
13, 32984, Note_on_c, 11, 44, 8
13, 33000, Note_off_c, 11, 70, 100
13, 33008, Note_off_c, 11, 44, 8
13, 33024, Note_on_c, 11, 44, 110
13, 33048, Note_off_c, 11, 44, 110
13, 33120, Note_on_c, 11, 46, 100
13, 33144, Note_off_c, 11, 46, 100
13, 33168, Note_on_c, 11, 70, 100
13, 33176, Note_on_c, 11, 44, 8
13, 33192, Note_off_c, 11, 70, 100
13, 33200, Note_off_c, 11, 44, 8
13, 33216, Note_on_c, 11, 44, 110
13, 33240, Note_off_c, 11, 44, 110
13, 33312, Note_on_c, 11, 46, 100
13, 33336, Note_off_c, 11, 46, 100
13, 33360, Note_on_c, 11, 70, 100
13, 33368, Note_on_c, 11, 44, 8
13, 33384, Note_off_c, 11, 70, 100
13, 33392, Note_off_c, 11, 44, 8
13, 33408, Note_on_c, 11, 44, 110
13, 33432, Note_off_c, 11, 44, 110
13, 33504, Note_on_c, 11, 46, 100
13, 33528, Note_off_c, 11, 46, 100
13, 33552, Note_on_c, 11, 70, 100
13, 33560, Note_on_c, 11, 44, 8
13, 33576, Note_off_c, 11, 70, 100
13, 33584, Note_off_c, 11, 44, 8
13, 33600, Note_on_c, 11, 44, 110
13, 33624, Note_off_c, 11, 44, 110
13, 33696, Note_on_c, 11, 46, 100
13, 33720, Note_off_c, 11, 46, 100
13, 33744, Note_on_c, 11, 70, 100
13, 33752, Note_on_c, 11, 44, 8
13, 33768, Note_off_c, 11, 70, 100
13, 33776, Note_off_c, 11, 44, 8
13, 33792, Note_on_c, 11, 44, 110
13, 33816, Note_off_c, 11, 44, 110
13, 33888, Note_on_c, 11, 46, 100
13, 33912, Note_off_c, 11, 46, 100
13, 33936, Note_on_c, 11, 70, 100
13, 33944, Note_on_c, 11, 44, 8
13, 33960, Note_off_c, 11, 70, 100
13, 33968, Note_off_c, 11, 44, 8
13, 33984, Note_on_c, 11, 44, 110
13, 34008, Note_off_c, 11, 44, 110
13, 34080, Note_on_c, 11, 46, 100
13, 34104, Note_off_c, 11, 46, 100
13, 34128, Note_on_c, 11, 70, 100
13, 34136, Note_on_c, 11, 44, 8
13, 34152, Note_off_c, 11, 70, 100
13, 34160, Note_off_c, 11, 44, 8
13, 34176, Note_on_c, 11, 44, 110
13, 34200, Note_off_c, 11, 44, 110
13, 34272, Note_on_c, 11, 46, 100
13, 34296, Note_off_c, 11, 46, 100
13, 34320, Note_on_c, 11, 70, 100
13, 34328, Note_on_c, 11, 44, 8
13, 34344, Note_off_c, 11, 70, 100
13, 34352, Note_off_c, 11, 44, 8
13, 34368, Note_on_c, 11, 44, 110
13, 34392, Note_off_c, 11, 44, 110
13, 34464, Note_on_c, 11, 46, 100
13, 34488, Note_off_c, 11, 46, 100
13, 34512, Note_on_c, 11, 70, 100
13, 34520, Note_on_c, 11, 44, 8
13, 34536, Note_off_c, 11, 70, 100
13, 34544, Note_off_c, 11, 44, 8
13, 34560, Note_on_c, 11, 44, 110
13, 34584, Note_off_c, 11, 44, 110
13, 34656, Note_on_c, 11, 46, 100
13, 34680, Note_off_c, 11, 46, 100
13, 34704, Note_on_c, 11, 70, 100
13, 34712, Note_on_c, 11, 44, 8
13, 34728, Note_off_c, 11, 70, 100
13, 34736, Note_off_c, 11, 44, 8
13, 34752, Note_on_c, 11, 44, 110
13, 34776, Note_off_c, 11, 44, 110
13, 34848, Note_on_c, 11, 46, 100
13, 34872, Note_off_c, 11, 46, 100
13, 34896, Note_on_c, 11, 70, 100
13, 34904, Note_on_c, 11, 44, 8
13, 34920, Note_off_c, 11, 70, 100
13, 34928, Note_off_c, 11, 44, 8
13, 34944, Note_on_c, 11, 44, 110
13, 34968, Note_off_c, 11, 44, 110
13, 35040, Note_on_c, 11, 46, 100
13, 35064, Note_off_c, 11, 46, 100
13, 35088, Note_on_c, 11, 70, 100
13, 35096, Note_on_c, 11, 44, 8
13, 35112, Note_off_c, 11, 70, 100
13, 35120, Note_off_c, 11, 44, 8
13, 35136, Note_on_c, 11, 44, 110
13, 35160, Note_off_c, 11, 44, 110
13, 35232, Note_on_c, 11, 46, 100
13, 35256, Note_off_c, 11, 46, 100
13, 35280, Note_on_c, 11, 70, 100
13, 35288, Note_on_c, 11, 44, 8
13, 35304, Note_off_c, 11, 70, 100
13, 35312, Note_off_c, 11, 44, 8
13, 35328, Note_on_c, 11, 44, 110
13, 35352, Note_off_c, 11, 44, 110
13, 35424, Note_on_c, 11, 46, 100
13, 35448, Note_off_c, 11, 46, 100
13, 35472, Note_on_c, 11, 70, 100
13, 35480, Note_on_c, 11, 44, 8
13, 35496, Note_off_c, 11, 70, 100
13, 35504, Note_off_c, 11, 44, 8
13, 35520, Note_on_c, 11, 44, 110
13, 35544, Note_off_c, 11, 44, 110
13, 35616, Note_on_c, 11, 46, 100
13, 35640, Note_off_c, 11, 46, 100
13, 35664, Note_on_c, 11, 70, 100
13, 35672, Note_on_c, 11, 44, 8
13, 35688, Note_off_c, 11, 70, 100
13, 35696, Note_off_c, 11, 44, 8
13, 35712, Note_on_c, 11, 44, 110
13, 35736, Note_off_c, 11, 44, 110
13, 35808, Note_on_c, 11, 46, 100
13, 35832, Note_off_c, 11, 46, 100
13, 35856, Note_on_c, 11, 70, 100
13, 35864, Note_on_c, 11, 44, 8
13, 35880, Note_off_c, 11, 70, 100
13, 35888, Note_off_c, 11, 44, 8
13, 35904, Note_on_c, 11, 44, 110
13, 35928, Note_off_c, 11, 44, 110
13, 36000, Note_on_c, 11, 46, 100
13, 36024, Note_off_c, 11, 46, 100
13, 36048, Note_on_c, 11, 70, 100
13, 36056, Note_on_c, 11, 44, 8
13, 36072, Note_off_c, 11, 70, 100
13, 36080, Note_off_c, 11, 44, 8
13, 36096, Note_on_c, 11, 44, 110
13, 36120, Note_off_c, 11, 44, 110
13, 36192, Note_on_c, 11, 46, 100
13, 36216, Note_off_c, 11, 46, 100
13, 36240, Note_on_c, 11, 70, 100
13, 36248, Note_on_c, 11, 44, 8
13, 36264, Note_off_c, 11, 70, 100
13, 36272, Note_off_c, 11, 44, 8
13, 36288, Note_on_c, 11, 44, 110
13, 36312, Note_off_c, 11, 44, 110
13, 36384, Note_on_c, 11, 46, 100
13, 36408, Note_off_c, 11, 46, 100
13, 36432, Note_on_c, 11, 70, 100
13, 36440, Note_on_c, 11, 44, 8
13, 36456, Note_off_c, 11, 70, 100
13, 36464, Note_off_c, 11, 44, 8
13, 36480, Note_on_c, 11, 44, 110
13, 36504, Note_off_c, 11, 44, 110
13, 36576, Note_on_c, 11, 46, 100
13, 36600, Note_off_c, 11, 46, 100
13, 36624, Note_on_c, 11, 70, 100
13, 36632, Note_on_c, 11, 44, 8
13, 36648, Note_off_c, 11, 70, 100
13, 36656, Note_off_c, 11, 44, 8
13, 36672, Note_on_c, 11, 44, 110
13, 36696, Note_off_c, 11, 44, 110
13, 36768, Note_on_c, 11, 46, 100
13, 36792, Note_off_c, 11, 46, 100
13, 36816, Note_on_c, 11, 70, 100
13, 36824, Note_on_c, 11, 44, 8
13, 36840, Note_off_c, 11, 70, 100
13, 36848, Note_off_c, 11, 44, 8
13, 36864, Note_on_c, 11, 44, 110
13, 36888, Note_off_c, 11, 44, 110
13, 36960, Note_on_c, 11, 46, 100
13, 36984, Note_off_c, 11, 46, 100
13, 37008, Note_on_c, 11, 70, 100
13, 37016, Note_on_c, 11, 44, 8
13, 37032, Note_off_c, 11, 70, 100
13, 37040, Note_off_c, 11, 44, 8
13, 37056, Note_on_c, 11, 44, 110
13, 37080, Note_off_c, 11, 44, 110
13, 37152, Note_on_c, 11, 46, 100
13, 37176, Note_off_c, 11, 46, 100
13, 37200, Note_on_c, 11, 70, 100
13, 37208, Note_on_c, 11, 44, 8
13, 37224, Note_off_c, 11, 70, 100
13, 37232, Note_off_c, 11, 44, 8
13, 37248, Note_on_c, 11, 44, 110
13, 37272, Note_off_c, 11, 44, 110
13, 37344, Note_on_c, 11, 46, 100
13, 37368, Note_off_c, 11, 46, 100
13, 37392, Note_on_c, 11, 70, 100
13, 37400, Note_on_c, 11, 44, 8
13, 37416, Note_off_c, 11, 70, 100
13, 37424, Note_off_c, 11, 44, 8
13, 37440, Note_on_c, 11, 44, 110
13, 37464, Note_off_c, 11, 44, 110
13, 37536, Note_on_c, 11, 46, 100
13, 37560, Note_off_c, 11, 46, 100
13, 37584, Note_on_c, 11, 70, 100
13, 37592, Note_on_c, 11, 44, 8
13, 37608, Note_off_c, 11, 70, 100
13, 37616, Note_off_c, 11, 44, 8
13, 37632, Note_on_c, 11, 44, 110
13, 37656, Note_off_c, 11, 44, 110
13, 37728, Note_on_c, 11, 46, 100
13, 37752, Note_off_c, 11, 46, 100
13, 37776, Note_on_c, 11, 70, 100
13, 37784, Note_on_c, 11, 44, 8
13, 37800, Note_off_c, 11, 70, 100
13, 37808, Note_off_c, 11, 44, 8
13, 37824, Note_on_c, 11, 44, 110
13, 37848, Note_off_c, 11, 44, 110
13, 37920, Note_on_c, 11, 46, 100
13, 37944, Note_off_c, 11, 46, 100
13, 37968, Note_on_c, 11, 70, 100
13, 37976, Note_on_c, 11, 44, 8
13, 37992, Note_off_c, 11, 70, 100
13, 38000, Note_off_c, 11, 44, 8
13, 38016, Note_on_c, 11, 44, 110
13, 38040, Note_off_c, 11, 44, 110
13, 38112, Note_on_c, 11, 46, 100
13, 38136, Note_off_c, 11, 46, 100
13, 38160, Note_on_c, 11, 70, 100
13, 38168, Note_on_c, 11, 44, 8
13, 38184, Note_off_c, 11, 70, 100
13, 38192, Note_off_c, 11, 44, 8
13, 38208, Note_on_c, 11, 44, 110
13, 38232, Note_off_c, 11, 44, 110
13, 38304, Note_on_c, 11, 46, 100
13, 38328, Note_off_c, 11, 46, 100
13, 38352, Note_on_c, 11, 70, 100
13, 38360, Note_on_c, 11, 44, 8
13, 38376, Note_off_c, 11, 70, 100
13, 38384, Note_off_c, 11, 44, 8
13, 38400, Note_on_c, 11, 44, 110
13, 38424, Note_off_c, 11, 44, 110
13, 38496, Note_on_c, 11, 46, 100
13, 38520, Note_off_c, 11, 46, 100
13, 38544, Note_on_c, 11, 70, 100
13, 38552, Note_on_c, 11, 44, 8
13, 38568, Note_off_c, 11, 70, 100
13, 38576, Note_off_c, 11, 44, 8
13, 38592, Note_on_c, 11, 44, 110
13, 38616, Note_off_c, 11, 44, 110
13, 38688, Note_on_c, 11, 46, 100
13, 38712, Note_off_c, 11, 46, 100
13, 38736, Note_on_c, 11, 70, 100
13, 38744, Note_on_c, 11, 44, 8
13, 38760, Note_off_c, 11, 70, 100
13, 38768, Note_off_c, 11, 44, 8
13, 38784, Note_on_c, 11, 44, 110
13, 38808, Note_off_c, 11, 44, 110
13, 38880, Note_on_c, 11, 46, 100
13, 38904, Note_off_c, 11, 46, 100
13, 38928, Note_on_c, 11, 70, 100
13, 38936, Note_on_c, 11, 44, 8
13, 38952, Note_off_c, 11, 70, 100
13, 38960, Note_off_c, 11, 44, 8
13, 38976, Note_on_c, 11, 44, 110
13, 39000, Note_off_c, 11, 44, 110
13, 39072, Note_on_c, 11, 46, 100
13, 39096, Note_off_c, 11, 46, 100
13, 39120, Note_on_c, 11, 70, 100
13, 39128, Note_on_c, 11, 44, 8
13, 39144, Note_off_c, 11, 70, 100
13, 39152, Note_off_c, 11, 44, 8
13, 39168, Note_on_c, 11, 44, 110
13, 39192, Note_off_c, 11, 44, 110
13, 39264, Note_on_c, 11, 46, 100
13, 39288, Note_off_c, 11, 46, 100
13, 39312, Note_on_c, 11, 70, 100
13, 39320, Note_on_c, 11, 44, 8
13, 39336, Note_off_c, 11, 70, 100
13, 39344, Note_off_c, 11, 44, 8
13, 39360, Note_on_c, 11, 44, 110
13, 39384, Note_off_c, 11, 44, 110
13, 39456, Note_on_c, 11, 46, 100
13, 39480, Note_off_c, 11, 46, 100
13, 39504, Note_on_c, 11, 70, 100
13, 39512, Note_on_c, 11, 44, 8
13, 39528, Note_off_c, 11, 70, 100
13, 39536, Note_off_c, 11, 44, 8
13, 39552, Note_on_c, 11, 44, 110
13, 39576, Note_off_c, 11, 44, 110
13, 39648, Note_on_c, 11, 46, 100
13, 39672, Note_off_c, 11, 46, 100
13, 39696, Note_on_c, 11, 70, 100
13, 39704, Note_on_c, 11, 44, 8
13, 39720, Note_off_c, 11, 70, 100
13, 39728, Note_off_c, 11, 44, 8
13, 39744, Note_on_c, 11, 44, 110
13, 39768, Note_off_c, 11, 44, 110
13, 39840, Note_on_c, 11, 46, 100
13, 39864, Note_off_c, 11, 46, 100
13, 39888, Note_on_c, 11, 70, 100
13, 39896, Note_on_c, 11, 44, 8
13, 39912, Note_off_c, 11, 70, 100
13, 39920, Note_off_c, 11, 44, 8
13, 39936, Note_on_c, 11, 44, 110
13, 39960, Note_off_c, 11, 44, 110
13, 40032, Note_on_c, 11, 46, 100
13, 40056, Note_off_c, 11, 46, 100
13, 40080, Note_on_c, 11, 70, 100
13, 40088, Note_on_c, 11, 44, 8
13, 40104, Note_off_c, 11, 70, 100
13, 40112, Note_off_c, 11, 44, 8
13, 40128, Note_on_c, 11, 44, 110
13, 40152, Note_off_c, 11, 44, 110
13, 40224, Note_on_c, 11, 46, 100
13, 40248, Note_off_c, 11, 46, 100
13, 40272, Note_on_c, 11, 70, 100
13, 40280, Note_on_c, 11, 44, 8
13, 40296, Note_off_c, 11, 70, 100
13, 40304, Note_off_c, 11, 44, 8
13, 40320, Note_on_c, 11, 44, 110
13, 40344, Note_off_c, 11, 44, 110
13, 40416, Note_on_c, 11, 46, 100
13, 40440, Note_off_c, 11, 46, 100
13, 40464, Note_on_c, 11, 70, 100
13, 40472, Note_on_c, 11, 44, 8
13, 40488, Note_off_c, 11, 70, 100
13, 40496, Note_off_c, 11, 44, 8
13, 40512, Note_on_c, 11, 44, 110
13, 40536, Note_off_c, 11, 44, 110
13, 40608, Note_on_c, 11, 46, 100
13, 40632, Note_off_c, 11, 46, 100
13, 40656, Note_on_c, 11, 70, 100
13, 40664, Note_on_c, 11, 44, 8
13, 40680, Note_off_c, 11, 70, 100
13, 40688, Note_off_c, 11, 44, 8
13, 40704, Note_on_c, 11, 44, 110
13, 40728, Note_off_c, 11, 44, 110
13, 40800, Note_on_c, 11, 46, 100
13, 40824, Note_off_c, 11, 46, 100
13, 40848, Note_on_c, 11, 70, 100
13, 40856, Note_on_c, 11, 44, 8
13, 40872, Note_off_c, 11, 70, 100
13, 40880, Note_off_c, 11, 44, 8
13, 40896, Note_on_c, 11, 44, 110
13, 40920, Note_off_c, 11, 44, 110
13, 40992, Note_on_c, 11, 46, 100
13, 41016, Note_off_c, 11, 46, 100
13, 41040, Note_on_c, 11, 70, 100
13, 41048, Note_on_c, 11, 44, 8
13, 41064, Note_off_c, 11, 70, 100
13, 41072, Note_off_c, 11, 44, 8
13, 41088, Note_on_c, 11, 44, 110
13, 41112, Note_off_c, 11, 44, 110
13, 41184, Note_on_c, 11, 46, 100
13, 41208, Note_off_c, 11, 46, 100
13, 41232, Note_on_c, 11, 70, 100
13, 41240, Note_on_c, 11, 44, 8
13, 41256, Note_off_c, 11, 70, 100
13, 41264, Note_off_c, 11, 44, 8
13, 41280, Note_on_c, 11, 44, 110
13, 41304, Note_off_c, 11, 44, 110
13, 41376, Note_on_c, 11, 46, 100
13, 41400, Note_off_c, 11, 46, 100
13, 41424, Note_on_c, 11, 70, 100
13, 41432, Note_on_c, 11, 44, 8
13, 41448, Note_off_c, 11, 70, 100
13, 41456, Note_off_c, 11, 44, 8
13, 41472, Note_on_c, 11, 44, 110
13, 41496, Note_off_c, 11, 44, 110
13, 41568, Note_on_c, 11, 46, 100
13, 41592, Note_off_c, 11, 46, 100
13, 41616, Note_on_c, 11, 70, 100
13, 41624, Note_on_c, 11, 44, 8
13, 41640, Note_off_c, 11, 70, 100
13, 41648, Note_off_c, 11, 44, 8
13, 41664, Note_on_c, 11, 44, 110
13, 41688, Note_off_c, 11, 44, 110
13, 41760, Note_on_c, 11, 46, 100
13, 41784, Note_off_c, 11, 46, 100
13, 41808, Note_on_c, 11, 70, 100
13, 41816, Note_on_c, 11, 44, 8
13, 41832, Note_off_c, 11, 70, 100
13, 41840, Note_off_c, 11, 44, 8
13, 41856, Note_on_c, 11, 44, 110
13, 41880, Note_off_c, 11, 44, 110
13, 41952, Note_on_c, 11, 46, 100
13, 41976, Note_off_c, 11, 46, 100
13, 42000, Note_on_c, 11, 70, 100
13, 42008, Note_on_c, 11, 44, 8
13, 42024, Note_off_c, 11, 70, 100
13, 42032, Note_off_c, 11, 44, 8
13, 42048, Note_on_c, 11, 44, 110
13, 42072, Note_off_c, 11, 44, 110
13, 42144, Note_on_c, 11, 46, 100
13, 42168, Note_off_c, 11, 46, 100
13, 42192, Note_on_c, 11, 70, 100
13, 42200, Note_on_c, 11, 44, 8
13, 42216, Note_off_c, 11, 70, 100
13, 42224, Note_off_c, 11, 44, 8
13, 42240, Note_on_c, 11, 44, 110
13, 42264, Note_off_c, 11, 44, 110
13, 42336, Note_on_c, 11, 46, 100
13, 42360, Note_off_c, 11, 46, 100
13, 42384, Note_on_c, 11, 70, 100
13, 42392, Note_on_c, 11, 44, 8
13, 42408, Note_off_c, 11, 70, 100
13, 42416, Note_off_c, 11, 44, 8
13, 42432, Note_on_c, 11, 44, 110
13, 42456, Note_off_c, 11, 44, 110
13, 42528, Note_on_c, 11, 46, 100
13, 42552, Note_off_c, 11, 46, 100
13, 42576, Note_on_c, 11, 70, 100
13, 42584, Note_on_c, 11, 44, 8
13, 42600, Note_off_c, 11, 70, 100
13, 42608, Note_off_c, 11, 44, 8
13, 42624, Note_on_c, 11, 44, 110
13, 42648, Note_off_c, 11, 44, 110
13, 42720, Note_on_c, 11, 46, 100
13, 42744, Note_off_c, 11, 46, 100
13, 42768, Note_on_c, 11, 70, 100
13, 42776, Note_on_c, 11, 44, 8
13, 42792, Note_off_c, 11, 70, 100
13, 42800, Note_off_c, 11, 44, 8
13, 42816, Note_on_c, 11, 44, 110
13, 42840, Note_off_c, 11, 44, 110
13, 42912, Note_on_c, 11, 46, 100
13, 42936, Note_off_c, 11, 46, 100
13, 42960, Note_on_c, 11, 70, 100
13, 42968, Note_on_c, 11, 44, 8
13, 42984, Note_off_c, 11, 70, 100
13, 42992, Note_off_c, 11, 44, 8
13, 43008, Note_on_c, 11, 44, 110
13, 43032, Note_off_c, 11, 44, 110
13, 43104, Note_on_c, 11, 46, 100
13, 43128, Note_off_c, 11, 46, 100
13, 43152, Note_on_c, 11, 70, 100
13, 43160, Note_on_c, 11, 44, 8
13, 43176, Note_off_c, 11, 70, 100
13, 43184, Note_off_c, 11, 44, 8
13, 43200, Note_on_c, 11, 44, 110
13, 43224, Note_off_c, 11, 44, 110
13, 43296, Note_on_c, 11, 46, 100
13, 43320, Note_off_c, 11, 46, 100
13, 43344, Note_on_c, 11, 70, 100
13, 43352, Note_on_c, 11, 44, 8
13, 43368, Note_off_c, 11, 70, 100
13, 43376, Note_off_c, 11, 44, 8
13, 43392, Note_on_c, 11, 44, 110
13, 43416, Note_off_c, 11, 44, 110
13, 43488, Note_on_c, 11, 46, 100
13, 43512, Note_off_c, 11, 46, 100
13, 43536, Note_on_c, 11, 70, 100
13, 43544, Note_on_c, 11, 44, 8
13, 43560, Note_off_c, 11, 70, 100
13, 43568, Note_off_c, 11, 44, 8
13, 43584, Note_on_c, 11, 44, 110
13, 43608, Note_off_c, 11, 44, 110
13, 43680, Note_on_c, 11, 46, 100
13, 43704, Note_off_c, 11, 46, 100
13, 43728, Note_on_c, 11, 70, 100
13, 43736, Note_on_c, 11, 44, 8
13, 43752, Note_off_c, 11, 70, 100
13, 43760, Note_off_c, 11, 44, 8
13, 43776, Note_on_c, 11, 44, 110
13, 43800, Note_off_c, 11, 44, 110
13, 43872, Note_on_c, 11, 46, 100
13, 43896, Note_off_c, 11, 46, 100
13, 43920, Note_on_c, 11, 70, 100
13, 43928, Note_on_c, 11, 44, 8
13, 43944, Note_off_c, 11, 70, 100
13, 43952, Note_off_c, 11, 44, 8
13, 43968, Note_on_c, 11, 44, 110
13, 43992, Note_off_c, 11, 44, 110
13, 44064, Note_on_c, 11, 46, 100
13, 44088, Note_off_c, 11, 46, 100
13, 44112, Note_on_c, 11, 70, 100
13, 44120, Note_on_c, 11, 44, 8
13, 44136, Note_off_c, 11, 70, 100
13, 44144, Note_off_c, 11, 44, 8
13, 44160, Note_on_c, 11, 44, 110
13, 44184, Note_off_c, 11, 44, 110
13, 44256, Note_on_c, 11, 46, 100
13, 44280, Note_off_c, 11, 46, 100
13, 44304, Note_on_c, 11, 70, 100
13, 44312, Note_on_c, 11, 44, 8
13, 44328, Note_off_c, 11, 70, 100
13, 44336, Note_off_c, 11, 44, 8
13, 44352, Note_on_c, 11, 44, 110
13, 44376, Note_off_c, 11, 44, 110
13, 44448, Note_on_c, 11, 46, 100
13, 44472, Note_off_c, 11, 46, 100
13, 44496, Note_on_c, 11, 70, 100
13, 44504, Note_on_c, 11, 44, 8
13, 44520, Note_off_c, 11, 70, 100
13, 44528, Note_off_c, 11, 44, 8
13, 44544, Note_on_c, 11, 44, 110
13, 44568, Note_off_c, 11, 44, 110
13, 44640, Note_on_c, 11, 46, 100
13, 44664, Note_off_c, 11, 46, 100
13, 44688, Note_on_c, 11, 70, 100
13, 44696, Note_on_c, 11, 44, 8
13, 44712, Note_off_c, 11, 70, 100
13, 44720, Note_off_c, 11, 44, 8
13, 44736, Note_on_c, 11, 44, 110
13, 44760, Note_off_c, 11, 44, 110
13, 44832, Note_on_c, 11, 46, 100
13, 44856, Note_off_c, 11, 46, 100
13, 44880, Note_on_c, 11, 70, 100
13, 44888, Note_on_c, 11, 44, 8
13, 44904, Note_off_c, 11, 70, 100
13, 44912, Note_off_c, 11, 44, 8
13, 44928, Note_on_c, 11, 44, 110
13, 44952, Note_off_c, 11, 44, 110
13, 45024, Note_on_c, 11, 46, 100
13, 45048, Note_off_c, 11, 46, 100
13, 45072, Note_on_c, 11, 70, 100
13, 45080, Note_on_c, 11, 44, 8
13, 45096, Note_off_c, 11, 70, 100
13, 45104, Note_off_c, 11, 44, 8
13, 45120, Note_on_c, 11, 44, 110
13, 45144, Note_off_c, 11, 44, 110
13, 45216, Note_on_c, 11, 46, 100
13, 45240, Note_off_c, 11, 46, 100
13, 45264, Note_on_c, 11, 70, 100
13, 45272, Note_on_c, 11, 44, 8
13, 45288, Note_off_c, 11, 70, 100
13, 45296, Note_off_c, 11, 44, 8
13, 45312, Note_on_c, 11, 44, 110
13, 45336, Note_off_c, 11, 44, 110
13, 45408, Note_on_c, 11, 46, 100
13, 45432, Note_off_c, 11, 46, 100
13, 45456, Note_on_c, 11, 70, 100
13, 45464, Note_on_c, 11, 44, 8
13, 45480, Note_off_c, 11, 70, 100
13, 45488, Note_off_c, 11, 44, 8
13, 45504, Note_on_c, 11, 44, 110
13, 45528, Note_off_c, 11, 44, 110
13, 45600, Note_on_c, 11, 46, 100
13, 45624, Note_off_c, 11, 46, 100
13, 45648, Note_on_c, 11, 70, 100
13, 45656, Note_on_c, 11, 44, 8
13, 45672, Note_off_c, 11, 70, 100
13, 45680, Note_off_c, 11, 44, 8
13, 45696, Note_on_c, 11, 44, 110
13, 45720, Note_off_c, 11, 44, 110
13, 45792, Note_on_c, 11, 46, 100
13, 45816, Note_off_c, 11, 46, 100
13, 45840, Note_on_c, 11, 70, 100
13, 45848, Note_on_c, 11, 44, 8
13, 45864, Note_off_c, 11, 70, 100
13, 45872, Note_off_c, 11, 44, 8
13, 45888, Note_on_c, 11, 44, 110
13, 45912, Note_off_c, 11, 44, 110
13, 45984, Note_on_c, 11, 46, 100
13, 46008, Note_off_c, 11, 46, 100
13, 46032, Note_on_c, 11, 70, 100
13, 46040, Note_on_c, 11, 44, 8
13, 46056, Note_off_c, 11, 70, 100
13, 46064, Note_off_c, 11, 44, 8
13, 46080, Note_on_c, 11, 44, 110
13, 46104, Note_off_c, 11, 44, 110
13, 46176, Note_on_c, 11, 46, 100
13, 46200, Note_off_c, 11, 46, 100
13, 46224, Note_on_c, 11, 70, 100
13, 46232, Note_on_c, 11, 44, 8
13, 46248, Note_off_c, 11, 70, 100
13, 46256, Note_off_c, 11, 44, 8
13, 46272, Note_on_c, 11, 44, 110
13, 46296, Note_off_c, 11, 44, 110
13, 46368, Note_on_c, 11, 46, 100
13, 46392, Note_off_c, 11, 46, 100
13, 46416, Note_on_c, 11, 70, 100
13, 46424, Note_on_c, 11, 44, 8
13, 46440, Note_off_c, 11, 70, 100
13, 46448, Note_off_c, 11, 44, 8
13, 46464, Note_on_c, 11, 44, 110
13, 46488, Note_off_c, 11, 44, 110
13, 46560, Note_on_c, 11, 46, 100
13, 46584, Note_off_c, 11, 46, 100
13, 46608, Note_on_c, 11, 70, 100
13, 46616, Note_on_c, 11, 44, 8
13, 46632, Note_off_c, 11, 70, 100
13, 46640, Note_off_c, 11, 44, 8
13, 46656, Note_on_c, 11, 44, 110
13, 46680, Note_off_c, 11, 44, 110
13, 46752, Note_on_c, 11, 46, 100
13, 46776, Note_off_c, 11, 46, 100
13, 46800, Note_on_c, 11, 70, 100
13, 46808, Note_on_c, 11, 44, 8
13, 46824, Note_off_c, 11, 70, 100
13, 46832, Note_off_c, 11, 44, 8
13, 46848, Note_on_c, 11, 44, 110
13, 46872, Note_off_c, 11, 44, 110
13, 46944, Note_on_c, 11, 46, 100
13, 46968, Note_off_c, 11, 46, 100
13, 46992, Note_on_c, 11, 70, 100
13, 47000, Note_on_c, 11, 44, 8
13, 47016, Note_off_c, 11, 70, 100
13, 47024, Note_off_c, 11, 44, 8
13, 47040, Note_on_c, 11, 44, 110
13, 47064, Note_off_c, 11, 44, 110
13, 47136, Note_on_c, 11, 46, 100
13, 47160, Note_off_c, 11, 46, 100
13, 47184, Note_on_c, 11, 70, 100
13, 47192, Note_on_c, 11, 44, 8
13, 47208, Note_off_c, 11, 70, 100
13, 47216, Note_off_c, 11, 44, 8
13, 47232, Note_on_c, 11, 44, 110
13, 47256, Note_off_c, 11, 44, 110
13, 47328, Note_on_c, 11, 46, 100
13, 47352, Note_off_c, 11, 46, 100
13, 47376, Note_on_c, 11, 70, 100
13, 47384, Note_on_c, 11, 44, 8
13, 47400, Note_off_c, 11, 70, 100
13, 47408, Note_off_c, 11, 44, 8
13, 47424, Note_on_c, 11, 44, 110
13, 47448, Note_off_c, 11, 44, 110
13, 47520, Note_on_c, 11, 46, 100
13, 47544, Note_off_c, 11, 46, 100
13, 47568, Note_on_c, 11, 70, 100
13, 47576, Note_on_c, 11, 44, 8
13, 47592, Note_off_c, 11, 70, 100
13, 47600, Note_off_c, 11, 44, 8
13, 47616, Note_on_c, 11, 44, 110
13, 47640, Note_off_c, 11, 44, 110
13, 47712, Note_on_c, 11, 46, 100
13, 47736, Note_off_c, 11, 46, 100
13, 47760, Note_on_c, 11, 70, 100
13, 47768, Note_on_c, 11, 44, 8
13, 47784, Note_off_c, 11, 70, 100
13, 47792, Note_off_c, 11, 44, 8
13, 47808, Note_on_c, 11, 44, 110
13, 47832, Note_off_c, 11, 44, 110
13, 47904, Note_on_c, 11, 46, 100
13, 47928, Note_off_c, 11, 46, 100
13, 47952, Note_on_c, 11, 70, 100
13, 47960, Note_on_c, 11, 44, 8
13, 47976, Note_off_c, 11, 70, 100
13, 47984, Note_off_c, 11, 44, 8
13, 48000, Note_on_c, 11, 44, 110
13, 48024, Note_off_c, 11, 44, 110
13, 48096, Note_on_c, 11, 46, 100
13, 48120, Note_off_c, 11, 46, 100
13, 48144, Note_on_c, 11, 70, 100
13, 48152, Note_on_c, 11, 44, 8
13, 48168, Note_off_c, 11, 70, 100
13, 48176, Note_off_c, 11, 44, 8
13, 48192, Note_on_c, 11, 44, 110
13, 48216, Note_off_c, 11, 44, 110
13, 48288, Note_on_c, 11, 46, 100
13, 48312, Note_off_c, 11, 46, 100
13, 48336, Note_on_c, 11, 70, 100
13, 48344, Note_on_c, 11, 44, 8
13, 48360, Note_off_c, 11, 70, 100
13, 48368, Note_off_c, 11, 44, 8
13, 48384, Note_on_c, 11, 44, 110
13, 48408, Note_off_c, 11, 44, 110
13, 48480, Note_on_c, 11, 46, 100
13, 48504, Note_off_c, 11, 46, 100
13, 48528, Note_on_c, 11, 70, 100
13, 48536, Note_on_c, 11, 44, 8
13, 48552, Note_off_c, 11, 70, 100
13, 48560, Note_off_c, 11, 44, 8
13, 48576, Note_on_c, 11, 44, 110
13, 48600, Note_off_c, 11, 44, 110
13, 48672, Note_on_c, 11, 46, 100
13, 48696, Note_off_c, 11, 46, 100
13, 48720, Note_on_c, 11, 70, 100
13, 48728, Note_on_c, 11, 44, 8
13, 48744, Note_off_c, 11, 70, 100
13, 48752, Note_off_c, 11, 44, 8
13, 48768, Note_on_c, 11, 44, 110
13, 48792, Note_off_c, 11, 44, 110
13, 48864, Note_on_c, 11, 46, 100
13, 48888, Note_off_c, 11, 46, 100
13, 48912, Note_on_c, 11, 70, 100
13, 48920, Note_on_c, 11, 44, 8
13, 48936, Note_off_c, 11, 70, 100
13, 48944, Note_off_c, 11, 44, 8
13, 48960, Note_on_c, 11, 44, 110
13, 48984, Note_off_c, 11, 44, 110
13, 49056, Note_on_c, 11, 46, 100
13, 49080, Note_off_c, 11, 46, 100
13, 49104, Note_on_c, 11, 70, 100
13, 49112, Note_on_c, 11, 44, 8
13, 49128, Note_off_c, 11, 70, 100
13, 49136, Note_off_c, 11, 44, 8
13, 49152, Note_on_c, 11, 44, 110
13, 49176, Note_off_c, 11, 44, 110
13, 49248, Note_on_c, 11, 46, 100
13, 49272, Note_off_c, 11, 46, 100
13, 49296, Note_on_c, 11, 70, 100
13, 49304, Note_on_c, 11, 44, 8
13, 49320, Note_off_c, 11, 70, 100
13, 49328, Note_off_c, 11, 44, 8
13, 49344, Note_on_c, 11, 44, 110
13, 49368, Note_off_c, 11, 44, 110
13, 49440, Note_on_c, 11, 46, 100
13, 49464, Note_off_c, 11, 46, 100
13, 49488, Note_on_c, 11, 70, 100
13, 49496, Note_on_c, 11, 44, 8
13, 49512, Note_off_c, 11, 70, 100
13, 49520, Note_off_c, 11, 44, 8
13, 49536, Note_on_c, 11, 44, 110
13, 49560, Note_off_c, 11, 44, 110
13, 49632, Note_on_c, 11, 46, 100
13, 49656, Note_off_c, 11, 46, 100
13, 49680, Note_on_c, 11, 70, 100
13, 49688, Note_on_c, 11, 44, 8
13, 49704, Note_off_c, 11, 70, 100
13, 49712, Note_off_c, 11, 44, 8
13, 49728, Note_on_c, 11, 44, 110
13, 49752, Note_off_c, 11, 44, 110
13, 49824, Note_on_c, 11, 46, 100
13, 49848, Note_off_c, 11, 46, 100
13, 49872, Note_on_c, 11, 70, 100
13, 49880, Note_on_c, 11, 44, 8
13, 49896, Note_off_c, 11, 70, 100
13, 49904, Note_off_c, 11, 44, 8
13, 49920, Note_on_c, 11, 44, 110
13, 49944, Note_off_c, 11, 44, 110
13, 50016, Note_on_c, 11, 46, 100
13, 50040, Note_off_c, 11, 46, 100
13, 50064, Note_on_c, 11, 70, 100
13, 50072, Note_on_c, 11, 44, 8
13, 50088, Note_off_c, 11, 70, 100
13, 50096, Note_off_c, 11, 44, 8
13, 50112, Note_on_c, 11, 44, 110
13, 50136, Note_off_c, 11, 44, 110
13, 50208, Note_on_c, 11, 46, 100
13, 50232, Note_off_c, 11, 46, 100
13, 50256, Note_on_c, 11, 70, 100
13, 50264, Note_on_c, 11, 44, 8
13, 50280, Note_off_c, 11, 70, 100
13, 50288, Note_off_c, 11, 44, 8
13, 50304, Note_on_c, 11, 44, 110
13, 50328, Note_off_c, 11, 44, 110
13, 50400, Note_on_c, 11, 46, 100
13, 50424, Note_off_c, 11, 46, 100
13, 50448, Note_on_c, 11, 70, 100
13, 50456, Note_on_c, 11, 44, 8
13, 50472, Note_off_c, 11, 70, 100
13, 50480, Note_off_c, 11, 44, 8
13, 50496, Note_on_c, 11, 44, 110
13, 50520, Note_off_c, 11, 44, 110
13, 50592, Note_on_c, 11, 46, 100
13, 50616, Note_off_c, 11, 46, 100
13, 50640, Note_on_c, 11, 70, 100
13, 50648, Note_on_c, 11, 44, 8
13, 50664, Note_off_c, 11, 70, 100
13, 50672, Note_off_c, 11, 44, 8
13, 50688, Note_on_c, 11, 44, 110
13, 50712, Note_off_c, 11, 44, 110
13, 50784, Note_on_c, 11, 46, 100
13, 50808, Note_off_c, 11, 46, 100
13, 50832, Note_on_c, 11, 70, 100
13, 50840, Note_on_c, 11, 44, 8
13, 50856, Note_off_c, 11, 70, 100
13, 50864, Note_off_c, 11, 44, 8
13, 50880, Note_on_c, 11, 44, 110
13, 50904, Note_off_c, 11, 44, 110
13, 50976, Note_on_c, 11, 46, 100
13, 51000, Note_off_c, 11, 46, 100
13, 51024, Note_on_c, 11, 70, 100
13, 51032, Note_on_c, 11, 44, 8
13, 51048, Note_off_c, 11, 70, 100
13, 51056, Note_off_c, 11, 44, 8
13, 51072, Note_on_c, 11, 44, 110
13, 51096, Note_off_c, 11, 44, 110
13, 51168, Note_on_c, 11, 46, 100
13, 51192, Note_off_c, 11, 46, 100
13, 51216, Note_on_c, 11, 70, 100
13, 51224, Note_on_c, 11, 44, 8
13, 51240, Note_off_c, 11, 70, 100
13, 51248, Note_off_c, 11, 44, 8
13, 51264, Note_on_c, 11, 44, 110
13, 51288, Note_off_c, 11, 44, 110
13, 51360, Note_on_c, 11, 46, 100
13, 51384, Note_off_c, 11, 46, 100
13, 51408, Note_on_c, 11, 70, 100
13, 51416, Note_on_c, 11, 44, 8
13, 51432, Note_off_c, 11, 70, 100
13, 51440, Note_off_c, 11, 44, 8
13, 51456, Note_on_c, 11, 44, 110
13, 51480, Note_off_c, 11, 44, 110
13, 51552, Note_on_c, 11, 46, 100
13, 51576, Note_off_c, 11, 46, 100
13, 51600, Note_on_c, 11, 70, 100
13, 51608, Note_on_c, 11, 44, 8
13, 51624, Note_off_c, 11, 70, 100
13, 51632, Note_off_c, 11, 44, 8
13, 51648, Note_on_c, 11, 44, 110
13, 51672, Note_off_c, 11, 44, 110
13, 51744, Note_on_c, 11, 46, 100
13, 51768, Note_off_c, 11, 46, 100
13, 51792, Note_on_c, 11, 70, 100
13, 51800, Note_on_c, 11, 44, 8
13, 51816, Note_off_c, 11, 70, 100
13, 51824, Note_off_c, 11, 44, 8
13, 51840, Note_on_c, 11, 44, 110
13, 51864, Note_off_c, 11, 44, 110
13, 51936, Note_on_c, 11, 46, 100
13, 51960, Note_off_c, 11, 46, 100
13, 51984, Note_on_c, 11, 70, 100
13, 51992, Note_on_c, 11, 44, 8
13, 52008, Note_off_c, 11, 70, 100
13, 52016, Note_off_c, 11, 44, 8
13, 52032, Note_on_c, 11, 44, 110
13, 52056, Note_off_c, 11, 44, 110
13, 52128, Note_on_c, 11, 46, 100
13, 52152, Note_off_c, 11, 46, 100
13, 52176, Note_on_c, 11, 70, 100
13, 52184, Note_on_c, 11, 44, 8
13, 52200, Note_off_c, 11, 70, 100
13, 52208, Note_off_c, 11, 44, 8
13, 52224, Note_on_c, 11, 44, 110
13, 52248, Note_off_c, 11, 44, 110
13, 52320, Note_on_c, 11, 46, 100
13, 52344, Note_off_c, 11, 46, 100
13, 52368, Note_on_c, 11, 70, 100
13, 52376, Note_on_c, 11, 44, 8
13, 52392, Note_off_c, 11, 70, 100
13, 52400, Note_off_c, 11, 44, 8
13, 52416, Note_on_c, 11, 44, 110
13, 52440, Note_off_c, 11, 44, 110
13, 52512, Note_on_c, 11, 46, 100
13, 52536, Note_off_c, 11, 46, 100
13, 52560, Note_on_c, 11, 70, 100
13, 52568, Note_on_c, 11, 44, 8
13, 52584, Note_off_c, 11, 70, 100
13, 52592, Note_off_c, 11, 44, 8
13, 52608, Note_on_c, 11, 44, 110
13, 52632, Note_off_c, 11, 44, 110
13, 52704, Note_on_c, 11, 46, 100
13, 52728, Note_off_c, 11, 46, 100
13, 52752, Note_on_c, 11, 70, 100
13, 52760, Note_on_c, 11, 44, 8
13, 52776, Note_off_c, 11, 70, 100
13, 52784, Note_off_c, 11, 44, 8
13, 52800, Note_on_c, 11, 44, 110
13, 52824, Note_off_c, 11, 44, 110
13, 52896, Note_on_c, 11, 46, 100
13, 52920, Note_off_c, 11, 46, 100
13, 52944, Note_on_c, 11, 70, 100
13, 52952, Note_on_c, 11, 44, 8
13, 52968, Note_off_c, 11, 70, 100
13, 52976, Note_off_c, 11, 44, 8
13, 52992, Note_on_c, 11, 44, 110
13, 53016, Note_off_c, 11, 44, 110
13, 53088, Note_on_c, 11, 46, 100
13, 53112, Note_off_c, 11, 46, 100
13, 53136, Note_on_c, 11, 70, 100
13, 53144, Note_on_c, 11, 44, 8
13, 53160, Note_off_c, 11, 70, 100
13, 53168, Note_off_c, 11, 44, 8
13, 53184, Note_on_c, 11, 44, 110
13, 53208, Note_off_c, 11, 44, 110
13, 53280, Note_on_c, 11, 46, 100
13, 53304, Note_off_c, 11, 46, 100
13, 53328, Note_on_c, 11, 70, 100
13, 53336, Note_on_c, 11, 44, 8
13, 53352, Note_off_c, 11, 70, 100
13, 53360, Note_off_c, 11, 44, 8
13, 53376, Note_on_c, 11, 44, 110
13, 53400, Note_off_c, 11, 44, 110
13, 53472, Note_on_c, 11, 46, 100
13, 53496, Note_off_c, 11, 46, 100
13, 53520, Note_on_c, 11, 70, 100
13, 53528, Note_on_c, 11, 44, 8
13, 53544, Note_off_c, 11, 70, 100
13, 53552, Note_off_c, 11, 44, 8
13, 53568, Note_on_c, 11, 44, 110
13, 53592, Note_off_c, 11, 44, 110
13, 53664, Note_on_c, 11, 46, 100
13, 53688, Note_off_c, 11, 46, 100
13, 53712, Note_on_c, 11, 70, 100
13, 53720, Note_on_c, 11, 44, 8
13, 53736, Note_off_c, 11, 70, 100
13, 53744, Note_off_c, 11, 44, 8
13, 53760, Note_on_c, 11, 44, 110
13, 53784, Note_off_c, 11, 44, 110
13, 53856, Note_on_c, 11, 46, 100
13, 53880, Note_off_c, 11, 46, 100
13, 53904, Note_on_c, 11, 70, 100
13, 53912, Note_on_c, 11, 44, 8
13, 53928, Note_off_c, 11, 70, 100
13, 53936, Note_off_c, 11, 44, 8
13, 53952, Note_on_c, 11, 44, 110
13, 53976, Note_off_c, 11, 44, 110
13, 54048, Note_on_c, 11, 46, 100
13, 54072, Note_off_c, 11, 46, 100
13, 54096, Note_on_c, 11, 70, 100
13, 54104, Note_on_c, 11, 44, 8
13, 54120, Note_off_c, 11, 70, 100
13, 54128, Note_off_c, 11, 44, 8
13, 54144, Note_on_c, 11, 44, 110
13, 54168, Note_off_c, 11, 44, 110
13, 54240, Note_on_c, 11, 46, 100
13, 54264, Note_off_c, 11, 46, 100
13, 54288, Note_on_c, 11, 70, 100
13, 54296, Note_on_c, 11, 44, 8
13, 54312, Note_off_c, 11, 70, 100
13, 54320, Note_off_c, 11, 44, 8
13, 54336, Note_on_c, 11, 44, 110
13, 54360, Note_off_c, 11, 44, 110
13, 54432, Note_on_c, 11, 46, 100
13, 54456, Note_off_c, 11, 46, 100
13, 54480, Note_on_c, 11, 70, 100
13, 54488, Note_on_c, 11, 44, 8
13, 54504, Note_off_c, 11, 70, 100
13, 54512, Note_off_c, 11, 44, 8
13, 54528, Note_on_c, 11, 44, 110
13, 54552, Note_off_c, 11, 44, 110
13, 54624, Note_on_c, 11, 46, 100
13, 54648, Note_off_c, 11, 46, 100
13, 54672, Note_on_c, 11, 70, 100
13, 54680, Note_on_c, 11, 44, 8
13, 54696, Note_off_c, 11, 70, 100
13, 54704, Note_off_c, 11, 44, 8
13, 54720, Note_on_c, 11, 44, 110
13, 54744, Note_off_c, 11, 44, 110
13, 54816, Note_on_c, 11, 46, 100
13, 54840, Note_off_c, 11, 46, 100
13, 54864, Note_on_c, 11, 70, 100
13, 54872, Note_on_c, 11, 44, 8
13, 54888, Note_off_c, 11, 70, 100
13, 54896, Note_off_c, 11, 44, 8
13, 54912, Note_on_c, 11, 44, 110
13, 54936, Note_off_c, 11, 44, 110
13, 55008, Note_on_c, 11, 46, 100
13, 55032, Note_off_c, 11, 46, 100
13, 55056, Note_on_c, 11, 70, 100
13, 55064, Note_on_c, 11, 44, 8
13, 55080, Note_off_c, 11, 70, 100
13, 55088, Note_off_c, 11, 44, 8
13, 55104, Note_on_c, 11, 44, 110
13, 55128, Note_off_c, 11, 44, 110
13, 55200, Note_on_c, 11, 46, 100
13, 55224, Note_off_c, 11, 46, 100
13, 55248, Note_on_c, 11, 70, 100
13, 55256, Note_on_c, 11, 44, 8
13, 55272, Note_off_c, 11, 70, 100
13, 55280, Note_off_c, 11, 44, 8
13, 55296, Note_on_c, 11, 44, 110
13, 55320, Note_off_c, 11, 44, 110
13, 55392, Note_on_c, 11, 46, 100
13, 55416, Note_off_c, 11, 46, 100
13, 55440, Note_on_c, 11, 70, 100
13, 55448, Note_on_c, 11, 44, 8
13, 55464, Note_off_c, 11, 70, 100
13, 55472, Note_off_c, 11, 44, 8
13, 55488, Note_on_c, 11, 44, 110
13, 55512, Note_off_c, 11, 44, 110
13, 55584, Note_on_c, 11, 46, 100
13, 55608, Note_off_c, 11, 46, 100
13, 55632, Note_on_c, 11, 70, 100
13, 55640, Note_on_c, 11, 44, 8
13, 55656, Note_off_c, 11, 70, 100
13, 55664, Note_off_c, 11, 44, 8
13, 55680, Note_on_c, 11, 44, 110
13, 55704, Note_off_c, 11, 44, 110
13, 55776, Note_on_c, 11, 46, 100
13, 55800, Note_off_c, 11, 46, 100
13, 55824, Note_on_c, 11, 70, 100
13, 55832, Note_on_c, 11, 44, 8
13, 55848, Note_off_c, 11, 70, 100
13, 55856, Note_off_c, 11, 44, 8
13, 55872, Note_on_c, 11, 44, 110
13, 55896, Note_off_c, 11, 44, 110
13, 55968, Note_on_c, 11, 46, 100
13, 55992, Note_off_c, 11, 46, 100
13, 56016, Note_on_c, 11, 70, 100
13, 56024, Note_on_c, 11, 44, 8
13, 56040, Note_off_c, 11, 70, 100
13, 56048, Note_off_c, 11, 44, 8
13, 56064, Note_on_c, 11, 44, 110
13, 56088, Note_off_c, 11, 44, 110
13, 56160, Note_on_c, 11, 46, 100
13, 56184, Note_off_c, 11, 46, 100
13, 56208, Note_on_c, 11, 70, 100
13, 56216, Note_on_c, 11, 44, 8
13, 56232, Note_off_c, 11, 70, 100
13, 56240, Note_off_c, 11, 44, 8
13, 56256, Note_on_c, 11, 44, 110
13, 56280, Note_off_c, 11, 44, 110
13, 56352, Note_on_c, 11, 46, 100
13, 56376, Note_off_c, 11, 46, 100
13, 56400, Note_on_c, 11, 70, 100
13, 56408, Note_on_c, 11, 44, 8
13, 56424, Note_off_c, 11, 70, 100
13, 56432, Note_off_c, 11, 44, 8
13, 56448, Note_on_c, 11, 44, 110
13, 56472, Note_off_c, 11, 44, 110
13, 56544, Note_on_c, 11, 46, 100
13, 56568, Note_off_c, 11, 46, 100
13, 56592, Note_on_c, 11, 70, 100
13, 56600, Note_on_c, 11, 44, 8
13, 56616, Note_off_c, 11, 70, 100
13, 56624, Note_off_c, 11, 44, 8
13, 56640, Note_on_c, 11, 44, 110
13, 56664, Note_off_c, 11, 44, 110
13, 56736, Note_on_c, 11, 46, 100
13, 56760, Note_off_c, 11, 46, 100
13, 56784, Note_on_c, 11, 70, 100
13, 56792, Note_on_c, 11, 44, 8
13, 56808, Note_off_c, 11, 70, 100
13, 56816, Note_off_c, 11, 44, 8
13, 56832, Note_on_c, 11, 44, 110
13, 56856, Note_off_c, 11, 44, 110
13, 56928, Note_on_c, 11, 46, 100
13, 56952, Note_off_c, 11, 46, 100
13, 56976, Note_on_c, 11, 70, 100
13, 56984, Note_on_c, 11, 44, 8
13, 57000, Note_off_c, 11, 70, 100
13, 57008, Note_off_c, 11, 44, 8
13, 57024, Note_on_c, 11, 44, 110
13, 57048, Note_off_c, 11, 44, 110
13, 57120, Note_on_c, 11, 46, 100
13, 57144, Note_off_c, 11, 46, 100
13, 57168, Note_on_c, 11, 70, 100
13, 57176, Note_on_c, 11, 44, 8
13, 57192, Note_off_c, 11, 70, 100
13, 57200, Note_off_c, 11, 44, 8
13, 57216, Note_on_c, 11, 44, 110
13, 57240, Note_off_c, 11, 44, 110
13, 57312, Note_on_c, 11, 46, 100
13, 57336, Note_off_c, 11, 46, 100
13, 57360, Note_on_c, 11, 70, 100
13, 57368, Note_on_c, 11, 44, 8
13, 57384, Note_off_c, 11, 70, 100
13, 57392, Note_off_c, 11, 44, 8
13, 57408, Note_on_c, 11, 44, 110
13, 57432, Note_off_c, 11, 44, 110
13, 57504, Note_on_c, 11, 46, 100
13, 57528, Note_off_c, 11, 46, 100
13, 57552, Note_on_c, 11, 70, 100
13, 57560, Note_on_c, 11, 44, 8
13, 57576, Note_off_c, 11, 70, 100
13, 57584, Note_off_c, 11, 44, 8
13, 57600, Note_on_c, 11, 44, 110
13, 57624, Note_off_c, 11, 44, 110
13, 57696, Note_on_c, 11, 46, 100
13, 57720, Note_off_c, 11, 46, 100
13, 57744, Note_on_c, 11, 70, 100
13, 57752, Note_on_c, 11, 44, 8
13, 57768, Note_off_c, 11, 70, 100
13, 57776, Note_off_c, 11, 44, 8
13, 57792, Note_on_c, 11, 44, 110
13, 57816, Note_off_c, 11, 44, 110
13, 57888, Note_on_c, 11, 46, 100
13, 57912, Note_off_c, 11, 46, 100
13, 57936, Note_on_c, 11, 70, 100
13, 57944, Note_on_c, 11, 44, 8
13, 57960, Note_off_c, 11, 70, 100
13, 57968, Note_off_c, 11, 44, 8
13, 57984, Note_on_c, 11, 44, 110
13, 58008, Note_off_c, 11, 44, 110
13, 58080, Note_on_c, 11, 46, 100
13, 58104, Note_off_c, 11, 46, 100
13, 58128, Note_on_c, 11, 70, 100
13, 58136, Note_on_c, 11, 44, 8
13, 58152, Note_off_c, 11, 70, 100
13, 58160, Note_off_c, 11, 44, 8
13, 58176, Note_on_c, 11, 44, 110
13, 58200, Note_off_c, 11, 44, 110
13, 58272, Note_on_c, 11, 46, 100
13, 58296, Note_off_c, 11, 46, 100
13, 58320, Note_on_c, 11, 70, 100
13, 58328, Note_on_c, 11, 44, 8
13, 58344, Note_off_c, 11, 70, 100
13, 58352, Note_off_c, 11, 44, 8
13, 58368, Note_on_c, 11, 44, 110
13, 58392, Note_off_c, 11, 44, 110
13, 58464, Note_on_c, 11, 46, 100
13, 58488, Note_off_c, 11, 46, 100
13, 58512, Note_on_c, 11, 70, 100
13, 58520, Note_on_c, 11, 44, 8
13, 58536, Note_off_c, 11, 70, 100
13, 58544, Note_off_c, 11, 44, 8
13, 58560, Note_on_c, 11, 44, 110
13, 58584, Note_off_c, 11, 44, 110
13, 58656, Note_on_c, 11, 46, 100
13, 58680, Note_off_c, 11, 46, 100
13, 58704, Note_on_c, 11, 70, 100
13, 58712, Note_on_c, 11, 44, 8
13, 58728, Note_off_c, 11, 70, 100
13, 58736, Note_off_c, 11, 44, 8
13, 58752, Note_on_c, 11, 44, 110
13, 58776, Note_off_c, 11, 44, 110
13, 58848, Note_on_c, 11, 46, 100
13, 58872, Note_off_c, 11, 46, 100
13, 58896, Note_on_c, 11, 70, 100
13, 58904, Note_on_c, 11, 44, 8
13, 58920, Note_off_c, 11, 70, 100
13, 58928, Note_off_c, 11, 44, 8
13, 58944, Note_on_c, 11, 44, 110
13, 58968, Note_off_c, 11, 44, 110
13, 59040, Note_on_c, 11, 46, 100
13, 59064, Note_off_c, 11, 46, 100
13, 59088, Note_on_c, 11, 70, 100
13, 59096, Note_on_c, 11, 44, 8
13, 59112, Note_off_c, 11, 70, 100
13, 59120, Note_off_c, 11, 44, 8
13, 59136, Note_on_c, 11, 44, 110
13, 59160, Note_off_c, 11, 44, 110
13, 59232, Note_on_c, 11, 46, 100
13, 59256, Note_off_c, 11, 46, 100
13, 59280, Note_on_c, 11, 70, 100
13, 59288, Note_on_c, 11, 44, 8
13, 59304, Note_off_c, 11, 70, 100
13, 59312, Note_off_c, 11, 44, 8
13, 59328, Note_on_c, 11, 44, 110
13, 59352, Note_off_c, 11, 44, 110
13, 59424, Note_on_c, 11, 46, 100
13, 59448, Note_off_c, 11, 46, 100
13, 59472, Note_on_c, 11, 70, 100
13, 59480, Note_on_c, 11, 44, 8
13, 59496, Note_off_c, 11, 70, 100
13, 59504, Note_off_c, 11, 44, 8
13, 59520, Note_on_c, 11, 44, 110
13, 59544, Note_off_c, 11, 44, 110
13, 59616, Note_on_c, 11, 46, 100
13, 59640, Note_off_c, 11, 46, 100
13, 59664, Note_on_c, 11, 70, 100
13, 59672, Note_on_c, 11, 44, 8
13, 59688, Note_off_c, 11, 70, 100
13, 59696, Note_off_c, 11, 44, 8
13, 59712, Note_on_c, 11, 44, 110
13, 59736, Note_off_c, 11, 44, 110
13, 59808, Note_on_c, 11, 46, 100
13, 59832, Note_off_c, 11, 46, 100
13, 59856, Note_on_c, 11, 70, 100
13, 59864, Note_on_c, 11, 44, 8
13, 59880, Note_off_c, 11, 70, 100
13, 59888, Note_off_c, 11, 44, 8
13, 59904, Note_on_c, 11, 44, 110
13, 59928, Note_off_c, 11, 44, 110
13, 60000, Note_on_c, 11, 46, 100
13, 60024, Note_off_c, 11, 46, 100
13, 60048, Note_on_c, 11, 70, 100
13, 60056, Note_on_c, 11, 44, 8
13, 60072, Note_off_c, 11, 70, 100
13, 60080, Note_off_c, 11, 44, 8
13, 60096, Note_on_c, 11, 44, 110
13, 60120, Note_off_c, 11, 44, 110
13, 60192, Note_on_c, 11, 46, 100
13, 60216, Note_off_c, 11, 46, 100
13, 60240, Note_on_c, 11, 70, 100
13, 60248, Note_on_c, 11, 44, 8
13, 60264, Note_off_c, 11, 70, 100
13, 60272, Note_off_c, 11, 44, 8
13, 60288, Note_on_c, 11, 44, 110
13, 60312, Note_off_c, 11, 44, 110
13, 60384, Note_on_c, 11, 46, 100
13, 60408, Note_off_c, 11, 46, 100
13, 60432, Note_on_c, 11, 70, 100
13, 60440, Note_on_c, 11, 44, 8
13, 60456, Note_off_c, 11, 70, 100
13, 60464, Note_off_c, 11, 44, 8
13, 60480, Note_on_c, 11, 44, 110
13, 60504, Note_off_c, 11, 44, 110
13, 60576, Note_on_c, 11, 46, 100
13, 60600, Note_off_c, 11, 46, 100
13, 60624, Note_on_c, 11, 70, 100
13, 60632, Note_on_c, 11, 44, 8
13, 60648, Note_off_c, 11, 70, 100
13, 60656, Note_off_c, 11, 44, 8
13, 60672, Note_on_c, 11, 44, 110
13, 60696, Note_off_c, 11, 44, 110
13, 60768, Note_on_c, 11, 46, 100
13, 60792, Note_off_c, 11, 46, 100
13, 60816, Note_on_c, 11, 70, 100
13, 60824, Note_on_c, 11, 44, 8
13, 60840, Note_off_c, 11, 70, 100
13, 60848, Note_off_c, 11, 44, 8
13, 60864, Note_on_c, 11, 44, 110
13, 60888, Note_off_c, 11, 44, 110
13, 60960, Note_on_c, 11, 46, 100
13, 60984, Note_off_c, 11, 46, 100
13, 61008, Note_on_c, 11, 70, 100
13, 61016, Note_on_c, 11, 44, 8
13, 61032, Note_off_c, 11, 70, 100
13, 61040, Note_off_c, 11, 44, 8
13, 61056, Note_on_c, 11, 44, 110
13, 61080, Note_off_c, 11, 44, 110
13, 61152, Note_on_c, 11, 46, 100
13, 61176, Note_off_c, 11, 46, 100
13, 61200, Note_on_c, 11, 70, 100
13, 61208, Note_on_c, 11, 44, 8
13, 61224, Note_off_c, 11, 70, 100
13, 61232, Note_off_c, 11, 44, 8
13, 61248, Note_on_c, 11, 44, 110
13, 61272, Note_off_c, 11, 44, 110
13, 61344, Note_on_c, 11, 46, 100
13, 61368, Note_off_c, 11, 46, 100
13, 61392, Note_on_c, 11, 70, 100
13, 61400, Note_on_c, 11, 44, 8
13, 61416, Note_off_c, 11, 70, 100
13, 61424, Note_off_c, 11, 44, 8
13, 61440, Note_on_c, 11, 44, 110
13, 61464, Note_off_c, 11, 44, 110
13, 61536, Note_on_c, 11, 46, 100
13, 61560, Note_off_c, 11, 46, 100
13, 61584, Note_on_c, 11, 70, 100
13, 61592, Note_on_c, 11, 44, 8
13, 61608, Note_off_c, 11, 70, 100
13, 61616, Note_off_c, 11, 44, 8
13, 61632, Note_on_c, 11, 44, 110
13, 61656, Note_off_c, 11, 44, 110
13, 61728, Note_on_c, 11, 46, 100
13, 61752, Note_off_c, 11, 46, 100
13, 61776, Note_on_c, 11, 70, 100
13, 61784, Note_on_c, 11, 44, 8
13, 61800, Note_off_c, 11, 70, 100
13, 61808, Note_off_c, 11, 44, 8
13, 61824, Note_on_c, 11, 44, 110
13, 61848, Note_off_c, 11, 44, 110
13, 61920, Note_on_c, 11, 46, 100
13, 61944, Note_off_c, 11, 46, 100
13, 61968, Note_on_c, 11, 70, 100
13, 61976, Note_on_c, 11, 44, 8
13, 61992, Note_off_c, 11, 70, 100
13, 62000, Note_off_c, 11, 44, 8
13, 62016, Note_on_c, 11, 44, 110
13, 62040, Note_off_c, 11, 44, 110
13, 62112, Note_on_c, 11, 46, 100
13, 62136, Note_off_c, 11, 46, 100
13, 62160, Note_on_c, 11, 70, 100
13, 62168, Note_on_c, 11, 44, 8
13, 62184, Note_off_c, 11, 70, 100
13, 62192, Note_off_c, 11, 44, 8
13, 62208, Note_on_c, 11, 44, 110
13, 62232, Note_off_c, 11, 44, 110
13, 62304, Note_on_c, 11, 46, 100
13, 62328, Note_off_c, 11, 46, 100
13, 62352, Note_on_c, 11, 70, 100
13, 62360, Note_on_c, 11, 44, 8
13, 62376, Note_off_c, 11, 70, 100
13, 62384, Note_off_c, 11, 44, 8
13, 62400, Note_on_c, 11, 44, 110
13, 62424, Note_off_c, 11, 44, 110
13, 62496, Note_on_c, 11, 46, 100
13, 62520, Note_off_c, 11, 46, 100
13, 62544, Note_on_c, 11, 70, 100
13, 62552, Note_on_c, 11, 44, 8
13, 62568, Note_off_c, 11, 70, 100
13, 62576, Note_off_c, 11, 44, 8
13, 62592, Note_on_c, 11, 44, 110
13, 62616, Note_off_c, 11, 44, 110
13, 62688, Note_on_c, 11, 46, 100
13, 62712, Note_off_c, 11, 46, 100
13, 62736, Note_on_c, 11, 70, 100
13, 62744, Note_on_c, 11, 44, 8
13, 62760, Note_off_c, 11, 70, 100
13, 62768, Note_off_c, 11, 44, 8
13, 62784, Note_on_c, 11, 44, 110
13, 62808, Note_off_c, 11, 44, 110
13, 62880, Note_on_c, 11, 46, 100
13, 62904, Note_off_c, 11, 46, 100
13, 62928, Note_on_c, 11, 70, 100
13, 62936, Note_on_c, 11, 44, 8
13, 62952, Note_off_c, 11, 70, 100
13, 62960, Note_off_c, 11, 44, 8
13, 62976, Note_on_c, 11, 44, 110
13, 63000, Note_off_c, 11, 44, 110
13, 63072, Note_on_c, 11, 46, 100
13, 63096, Note_off_c, 11, 46, 100
13, 63120, Note_on_c, 11, 70, 100
13, 63128, Note_on_c, 11, 44, 8
13, 63144, Note_off_c, 11, 70, 100
13, 63152, Note_off_c, 11, 44, 8
13, 63168, Note_on_c, 11, 44, 110
13, 63192, Note_off_c, 11, 44, 110
13, 63264, Note_on_c, 11, 46, 100
13, 63288, Note_off_c, 11, 46, 100
13, 63312, Note_on_c, 11, 70, 100
13, 63320, Note_on_c, 11, 44, 8
13, 63336, Note_off_c, 11, 70, 100
13, 63344, Note_off_c, 11, 44, 8
13, 63360, Note_on_c, 11, 44, 110
13, 63384, Note_off_c, 11, 44, 110
13, 63456, Note_on_c, 11, 46, 100
13, 63480, Note_off_c, 11, 46, 100
13, 63504, Note_on_c, 11, 70, 100
13, 63512, Note_on_c, 11, 44, 8
13, 63528, Note_off_c, 11, 70, 100
13, 63536, Note_off_c, 11, 44, 8
13, 63552, Note_on_c, 11, 44, 110
13, 63576, Note_off_c, 11, 44, 110
13, 63648, Note_on_c, 11, 46, 100
13, 63672, Note_off_c, 11, 46, 100
13, 63696, Note_on_c, 11, 70, 100
13, 63704, Note_on_c, 11, 44, 8
13, 63720, Note_off_c, 11, 70, 100
13, 63728, Note_off_c, 11, 44, 8
13, 63744, Note_on_c, 11, 44, 110
13, 63768, Note_off_c, 11, 44, 110
13, 63840, Note_on_c, 11, 46, 100
13, 63864, Note_off_c, 11, 46, 100
13, 63888, Note_on_c, 11, 70, 100
13, 63896, Note_on_c, 11, 44, 8
13, 63912, Note_off_c, 11, 70, 100
13, 63920, Note_off_c, 11, 44, 8
13, 63936, Note_on_c, 11, 44, 110
13, 63960, Note_off_c, 11, 44, 110
13, 64032, Note_on_c, 11, 46, 100
13, 64056, Note_off_c, 11, 46, 100
13, 64080, Note_on_c, 11, 70, 100
13, 64088, Note_on_c, 11, 44, 8
13, 64104, Note_off_c, 11, 70, 100
13, 64112, Note_off_c, 11, 44, 8
13, 64128, Note_on_c, 11, 44, 110
13, 64152, Note_off_c, 11, 44, 110
13, 64224, Note_on_c, 11, 46, 100
13, 64248, Note_off_c, 11, 46, 100
13, 64272, Note_on_c, 11, 70, 100
13, 64280, Note_on_c, 11, 44, 8
13, 64296, Note_off_c, 11, 70, 100
13, 64304, Note_off_c, 11, 44, 8
13, 64320, Note_on_c, 11, 44, 110
13, 64344, Note_off_c, 11, 44, 110
13, 64416, Note_on_c, 11, 46, 100
13, 64440, Note_off_c, 11, 46, 100
13, 64464, Note_on_c, 11, 70, 100
13, 64472, Note_on_c, 11, 44, 8
13, 64488, Note_off_c, 11, 70, 100
13, 64496, Note_off_c, 11, 44, 8
13, 64512, Note_on_c, 11, 44, 110
13, 64536, Note_off_c, 11, 44, 110
13, 64608, Note_on_c, 11, 46, 100
13, 64632, Note_off_c, 11, 46, 100
13, 64656, Note_on_c, 11, 70, 100
13, 64664, Note_on_c, 11, 44, 8
13, 64680, Note_off_c, 11, 70, 100
13, 64688, Note_off_c, 11, 44, 8
13, 64704, Note_on_c, 11, 44, 110
13, 64728, Note_off_c, 11, 44, 110
13, 64800, Note_on_c, 11, 46, 100
13, 64824, Note_off_c, 11, 46, 100
13, 64848, Note_on_c, 11, 70, 100
13, 64856, Note_on_c, 11, 44, 8
13, 64872, Note_off_c, 11, 70, 100
13, 64880, Note_off_c, 11, 44, 8
13, 64896, Note_on_c, 11, 44, 110
13, 64920, Note_off_c, 11, 44, 110
13, 64992, Note_on_c, 11, 46, 100
13, 65016, Note_off_c, 11, 46, 100
13, 65040, Note_on_c, 11, 70, 100
13, 65048, Note_on_c, 11, 44, 8
13, 65064, Note_off_c, 11, 70, 100
13, 65072, Note_off_c, 11, 44, 8
13, 65088, Note_on_c, 11, 44, 110
13, 65112, Note_off_c, 11, 44, 110
13, 65184, Note_on_c, 11, 46, 100
13, 65208, Note_off_c, 11, 46, 100
13, 65232, Note_on_c, 11, 70, 100
13, 65240, Note_on_c, 11, 44, 8
13, 65256, Note_off_c, 11, 70, 100
13, 65264, Note_off_c, 11, 44, 8
13, 65280, Note_on_c, 11, 44, 110
13, 65304, Note_off_c, 11, 44, 110
13, 65376, Note_on_c, 11, 46, 100
13, 65400, Note_off_c, 11, 46, 100
13, 65424, Note_on_c, 11, 70, 100
13, 65432, Note_on_c, 11, 44, 8
13, 65448, Note_off_c, 11, 70, 100
13, 65456, Note_off_c, 11, 44, 8
13, 65472, Note_on_c, 11, 44, 110
13, 65496, Note_off_c, 11, 44, 110
13, 65568, Note_on_c, 11, 46, 100
13, 65592, Note_off_c, 11, 46, 100
13, 65616, Note_on_c, 11, 70, 100
13, 65624, Note_on_c, 11, 44, 8
13, 65640, Note_off_c, 11, 70, 100
13, 65648, Note_off_c, 11, 44, 8
13, 65664, Note_on_c, 11, 44, 110
13, 65688, Note_off_c, 11, 44, 110
13, 65760, Note_on_c, 11, 46, 100
13, 65784, Note_off_c, 11, 46, 100
13, 65808, Note_on_c, 11, 70, 100
13, 65816, Note_on_c, 11, 44, 8
13, 65832, Note_off_c, 11, 70, 100
13, 65840, Note_off_c, 11, 44, 8
13, 65856, Note_on_c, 11, 44, 110
13, 65880, Note_off_c, 11, 44, 110
13, 65952, Note_on_c, 11, 46, 100
13, 65976, Note_off_c, 11, 46, 100
13, 66000, Note_on_c, 11, 70, 100
13, 66008, Note_on_c, 11, 44, 8
13, 66024, Note_off_c, 11, 70, 100
13, 66032, Note_off_c, 11, 44, 8
13, 66048, Note_on_c, 11, 44, 110
13, 66072, Note_off_c, 11, 44, 110
13, 66144, Note_on_c, 11, 46, 100
13, 66168, Note_off_c, 11, 46, 100
13, 66192, Note_on_c, 11, 70, 100
13, 66200, Note_on_c, 11, 44, 8
13, 66216, Note_off_c, 11, 70, 100
13, 66224, Note_off_c, 11, 44, 8
13, 66240, Note_on_c, 11, 44, 110
13, 66264, Note_off_c, 11, 44, 110
13, 66336, Note_on_c, 11, 46, 100
13, 66360, Note_off_c, 11, 46, 100
13, 66384, Note_on_c, 11, 70, 100
13, 66392, Note_on_c, 11, 44, 8
13, 66408, Note_off_c, 11, 70, 100
13, 66416, Note_off_c, 11, 44, 8
13, 66432, Note_on_c, 11, 44, 110
13, 66456, Note_off_c, 11, 44, 110
13, 66528, Note_on_c, 11, 46, 100
13, 66552, Note_off_c, 11, 46, 100
13, 66576, Note_on_c, 11, 70, 100
13, 66584, Note_on_c, 11, 44, 8
13, 66600, Note_off_c, 11, 70, 100
13, 66608, Note_off_c, 11, 44, 8
13, 66624, Note_on_c, 11, 44, 110
13, 66648, Note_off_c, 11, 44, 110
13, 66720, Note_on_c, 11, 46, 100
13, 66744, Note_off_c, 11, 46, 100
13, 66768, Note_on_c, 11, 70, 100
13, 66776, Note_on_c, 11, 44, 8
13, 66792, Note_off_c, 11, 70, 100
13, 66800, Note_off_c, 11, 44, 8
13, 66816, Note_on_c, 11, 44, 110
13, 66840, Note_off_c, 11, 44, 110
13, 66912, Note_on_c, 11, 46, 100
13, 66936, Note_off_c, 11, 46, 100
13, 66960, Note_on_c, 11, 70, 100
13, 66968, Note_on_c, 11, 44, 8
13, 66984, Note_off_c, 11, 70, 100
13, 66992, Note_off_c, 11, 44, 8
13, 67008, Note_on_c, 11, 44, 110
13, 67032, Note_off_c, 11, 44, 110
13, 67104, Note_on_c, 11, 46, 100
13, 67128, Note_off_c, 11, 46, 100
13, 67152, Note_on_c, 11, 70, 100
13, 67160, Note_on_c, 11, 44, 8
13, 67176, Note_off_c, 11, 70, 100
13, 67184, Note_off_c, 11, 44, 8
13, 67200, Note_on_c, 11, 44, 110
13, 67224, Note_off_c, 11, 44, 110
13, 67296, Note_on_c, 11, 46, 100
13, 67320, Note_off_c, 11, 46, 100
13, 67344, Note_on_c, 11, 70, 100
13, 67352, Note_on_c, 11, 44, 8
13, 67368, Note_off_c, 11, 70, 100
13, 67376, Note_off_c, 11, 44, 8
13, 67392, Note_on_c, 11, 44, 110
13, 67416, Note_off_c, 11, 44, 110
13, 67488, Note_on_c, 11, 46, 100
13, 67512, Note_off_c, 11, 46, 100
13, 67536, Note_on_c, 11, 70, 100
13, 67544, Note_on_c, 11, 44, 8
13, 67560, Note_off_c, 11, 70, 100
13, 67568, Note_off_c, 11, 44, 8
13, 67584, Note_on_c, 11, 44, 110
13, 67608, Note_off_c, 11, 44, 110
13, 67680, Note_on_c, 11, 46, 100
13, 67704, Note_off_c, 11, 46, 100
13, 67728, Note_on_c, 11, 70, 100
13, 67736, Note_on_c, 11, 44, 8
13, 67752, Note_off_c, 11, 70, 100
13, 67760, Note_off_c, 11, 44, 8
13, 67776, Note_on_c, 11, 44, 110
13, 67800, Note_off_c, 11, 44, 110
13, 67872, Note_on_c, 11, 46, 100
13, 67896, Note_off_c, 11, 46, 100
13, 67920, Note_on_c, 11, 70, 100
13, 67928, Note_on_c, 11, 44, 8
13, 67944, Note_off_c, 11, 70, 100
13, 67952, Note_off_c, 11, 44, 8
13, 67968, Note_on_c, 11, 44, 110
13, 67992, Note_off_c, 11, 44, 110
13, 68064, Note_on_c, 11, 46, 100
13, 68088, Note_off_c, 11, 46, 100
13, 68112, Note_on_c, 11, 70, 100
13, 68120, Note_on_c, 11, 44, 8
13, 68136, Note_off_c, 11, 70, 100
13, 68144, Note_off_c, 11, 44, 8
13, 68160, Note_on_c, 11, 44, 110
13, 68184, Note_off_c, 11, 44, 110
13, 68256, Note_on_c, 11, 46, 100
13, 68280, Note_off_c, 11, 46, 100
13, 68304, Note_on_c, 11, 70, 100
13, 68312, Note_on_c, 11, 44, 8
13, 68328, Note_off_c, 11, 70, 100
13, 68336, Note_off_c, 11, 44, 8
13, 68352, Note_on_c, 11, 44, 110
13, 68376, Note_off_c, 11, 44, 110
13, 68448, Note_on_c, 11, 46, 100
13, 68472, Note_off_c, 11, 46, 100
13, 68496, Note_on_c, 11, 70, 100
13, 68504, Note_on_c, 11, 44, 8
13, 68520, Note_off_c, 11, 70, 100
13, 68528, Note_off_c, 11, 44, 8
13, 68544, Note_on_c, 11, 44, 110
13, 68568, Note_off_c, 11, 44, 110
13, 68640, Note_on_c, 11, 46, 100
13, 68664, Note_off_c, 11, 46, 100
13, 68688, Note_on_c, 11, 70, 100
13, 68696, Note_on_c, 11, 44, 8
13, 68712, Note_off_c, 11, 70, 100
13, 68720, Note_off_c, 11, 44, 8
13, 68736, Note_on_c, 11, 44, 110
13, 68760, Note_off_c, 11, 44, 110
13, 68832, Note_on_c, 11, 46, 100
13, 68856, Note_off_c, 11, 46, 100
13, 68880, Note_on_c, 11, 70, 100
13, 68888, Note_on_c, 11, 44, 8
13, 68904, Note_off_c, 11, 70, 100
13, 68912, Note_off_c, 11, 44, 8
13, 68928, Note_on_c, 11, 44, 110
13, 68952, Note_off_c, 11, 44, 110
13, 69024, Note_on_c, 11, 46, 100
13, 69048, Note_off_c, 11, 46, 100
13, 69072, Note_on_c, 11, 70, 100
13, 69080, Note_on_c, 11, 44, 8
13, 69096, Note_off_c, 11, 70, 100
13, 69104, Note_off_c, 11, 44, 8
13, 69120, Note_on_c, 11, 44, 110
13, 69144, Note_off_c, 11, 44, 110
13, 69216, Note_on_c, 11, 46, 100
13, 69240, Note_off_c, 11, 46, 100
13, 69264, Note_on_c, 11, 70, 100
13, 69272, Note_on_c, 11, 44, 8
13, 69288, Note_off_c, 11, 70, 100
13, 69296, Note_off_c, 11, 44, 8
13, 69312, Note_on_c, 11, 44, 110
13, 69336, Note_off_c, 11, 44, 110
13, 69408, Note_on_c, 11, 46, 100
13, 69432, Note_off_c, 11, 46, 100
13, 69456, Note_on_c, 11, 70, 100
13, 69464, Note_on_c, 11, 44, 8
13, 69480, Note_off_c, 11, 70, 100
13, 69488, Note_off_c, 11, 44, 8
13, 69504, Note_on_c, 11, 44, 110
13, 69528, Note_off_c, 11, 44, 110
13, 69600, Note_on_c, 11, 46, 100
13, 69624, Note_off_c, 11, 46, 100
13, 69648, Note_on_c, 11, 70, 100
13, 69656, Note_on_c, 11, 44, 8
13, 69672, Note_off_c, 11, 70, 100
13, 69680, Note_off_c, 11, 44, 8
13, 69696, Note_on_c, 11, 44, 110
13, 69720, Note_off_c, 11, 44, 110
13, 69792, Note_on_c, 11, 46, 100
13, 69816, Note_off_c, 11, 46, 100
13, 69840, Note_on_c, 11, 70, 100
13, 69848, Note_on_c, 11, 44, 8
13, 69864, Note_off_c, 11, 70, 100
13, 69872, Note_off_c, 11, 44, 8
13, 69888, Note_on_c, 11, 44, 110
13, 69912, Note_off_c, 11, 44, 110
13, 69984, Note_on_c, 11, 46, 100
13, 70008, Note_off_c, 11, 46, 100
13, 70032, Note_on_c, 11, 70, 100
13, 70040, Note_on_c, 11, 44, 8
13, 70056, Note_off_c, 11, 70, 100
13, 70064, Note_off_c, 11, 44, 8
13, 70080, Note_on_c, 11, 44, 110
13, 70104, Note_off_c, 11, 44, 110
13, 70176, Note_on_c, 11, 46, 100
13, 70200, Note_off_c, 11, 46, 100
13, 70224, Note_on_c, 11, 70, 100
13, 70232, Note_on_c, 11, 44, 8
13, 70248, Note_off_c, 11, 70, 100
13, 70256, Note_off_c, 11, 44, 8
13, 70272, Note_on_c, 11, 44, 110
13, 70296, Note_off_c, 11, 44, 110
13, 70368, Note_on_c, 11, 46, 100
13, 70392, Note_off_c, 11, 46, 100
13, 70416, Note_on_c, 11, 70, 100
13, 70424, Note_on_c, 11, 44, 8
13, 70440, Note_off_c, 11, 70, 100
13, 70448, Note_off_c, 11, 44, 8
13, 70464, Note_on_c, 11, 44, 110
13, 70488, Note_off_c, 11, 44, 110
13, 70560, Note_on_c, 11, 46, 100
13, 70584, Note_off_c, 11, 46, 100
13, 70608, Note_on_c, 11, 70, 100
13, 70616, Note_on_c, 11, 44, 8
13, 70632, Note_off_c, 11, 70, 100
13, 70640, Note_off_c, 11, 44, 8
13, 70656, Note_on_c, 11, 44, 110
13, 70680, Note_off_c, 11, 44, 110
13, 70752, Note_on_c, 11, 46, 100
13, 70776, Note_off_c, 11, 46, 100
13, 70800, Note_on_c, 11, 70, 100
13, 70808, Note_on_c, 11, 44, 8
13, 70824, Note_off_c, 11, 70, 100
13, 70832, Note_off_c, 11, 44, 8
13, 70848, Note_on_c, 11, 44, 110
13, 70872, Note_off_c, 11, 44, 110
13, 70944, Note_on_c, 11, 46, 100
13, 70968, Note_off_c, 11, 46, 100
13, 70992, Note_on_c, 11, 70, 100
13, 71000, Note_on_c, 11, 44, 8
13, 71016, Note_off_c, 11, 70, 100
13, 71024, Note_off_c, 11, 44, 8
13, 71040, Note_on_c, 11, 44, 110
13, 71064, Note_off_c, 11, 44, 110
13, 71136, Note_on_c, 11, 46, 100
13, 71160, Note_off_c, 11, 46, 100
13, 71184, Note_on_c, 11, 70, 100
13, 71192, Note_on_c, 11, 44, 8
13, 71208, Note_off_c, 11, 70, 100
13, 71216, Note_off_c, 11, 44, 8
13, 71232, Note_on_c, 11, 44, 110
13, 71256, Note_off_c, 11, 44, 110
13, 71328, Note_on_c, 11, 46, 100
13, 71352, Note_off_c, 11, 46, 100
13, 71376, Note_on_c, 11, 70, 100
13, 71384, Note_on_c, 11, 44, 8
13, 71400, Note_off_c, 11, 70, 100
13, 71408, Note_off_c, 11, 44, 8
13, 71424, Note_on_c, 11, 44, 110
13, 71448, Note_off_c, 11, 44, 110
13, 71520, Note_on_c, 11, 46, 100
13, 71544, Note_off_c, 11, 46, 100
13, 71568, Note_on_c, 11, 70, 100
13, 71576, Note_on_c, 11, 44, 8
13, 71592, Note_off_c, 11, 70, 100
13, 71600, Note_off_c, 11, 44, 8
13, 71616, Note_on_c, 11, 44, 110
13, 71640, Note_off_c, 11, 44, 110
13, 71712, Note_on_c, 11, 46, 100
13, 71736, Note_off_c, 11, 46, 100
13, 71760, Note_on_c, 11, 70, 100
13, 71768, Note_on_c, 11, 44, 8
13, 71784, Note_off_c, 11, 70, 100
13, 71792, Note_off_c, 11, 44, 8
13, 71808, Note_on_c, 11, 44, 110
13, 71832, Note_off_c, 11, 44, 110
13, 71904, Note_on_c, 11, 46, 100
13, 71928, Note_off_c, 11, 46, 100
13, 71952, Note_on_c, 11, 70, 100
13, 71960, Note_on_c, 11, 44, 8
13, 71976, Note_off_c, 11, 70, 100
13, 71984, Note_off_c, 11, 44, 8
13, 72000, Note_on_c, 11, 44, 110
13, 72024, Note_off_c, 11, 44, 110
13, 72096, Note_on_c, 11, 46, 100
13, 72120, Note_off_c, 11, 46, 100
13, 72144, Note_on_c, 11, 70, 100
13, 72152, Note_on_c, 11, 44, 8
13, 72168, Note_off_c, 11, 70, 100
13, 72176, Note_off_c, 11, 44, 8
13, 72192, Note_on_c, 11, 44, 110
13, 72216, Note_off_c, 11, 44, 110
13, 72288, Note_on_c, 11, 46, 100
13, 72312, Note_off_c, 11, 46, 100
13, 72336, Note_on_c, 11, 70, 100
13, 72344, Note_on_c, 11, 44, 8
13, 72360, Note_off_c, 11, 70, 100
13, 72368, Note_off_c, 11, 44, 8
13, 72384, Note_on_c, 11, 44, 110
13, 72408, Note_off_c, 11, 44, 110
13, 72480, Note_on_c, 11, 46, 100
13, 72504, Note_off_c, 11, 46, 100
13, 72528, Note_on_c, 11, 70, 100
13, 72536, Note_on_c, 11, 44, 8
13, 72552, Note_off_c, 11, 70, 100
13, 72560, Note_off_c, 11, 44, 8
13, 72576, Note_on_c, 11, 44, 110
13, 72600, Note_off_c, 11, 44, 110
13, 72672, Note_on_c, 11, 46, 100
13, 72696, Note_off_c, 11, 46, 100
13, 72720, Note_on_c, 11, 70, 100
13, 72728, Note_on_c, 11, 44, 8
13, 72744, Note_off_c, 11, 70, 100
13, 72752, Note_off_c, 11, 44, 8
13, 72768, Note_on_c, 11, 44, 110
13, 72792, Note_off_c, 11, 44, 110
13, 72864, Note_on_c, 11, 46, 100
13, 72888, Note_off_c, 11, 46, 100
13, 72912, Note_on_c, 11, 70, 100
13, 72920, Note_on_c, 11, 44, 8
13, 72936, Note_off_c, 11, 70, 100
13, 72944, Note_off_c, 11, 44, 8
13, 72960, Note_on_c, 11, 44, 110
13, 72984, Note_off_c, 11, 44, 110
13, 73056, Note_on_c, 11, 46, 100
13, 73080, Note_off_c, 11, 46, 100
13, 73104, Note_on_c, 11, 70, 100
13, 73112, Note_on_c, 11, 44, 8
13, 73128, Note_off_c, 11, 70, 100
13, 73136, Note_off_c, 11, 44, 8
13, 73152, Note_on_c, 11, 44, 110
13, 73176, Note_off_c, 11, 44, 110
13, 73248, Note_on_c, 11, 46, 100
13, 73272, Note_off_c, 11, 46, 100
13, 73296, Note_on_c, 11, 70, 100
13, 73304, Note_on_c, 11, 44, 8
13, 73320, Note_off_c, 11, 70, 100
13, 73328, Note_off_c, 11, 44, 8
13, 73344, Note_on_c, 11, 44, 110
13, 73368, Note_off_c, 11, 44, 110
13, 73440, Note_on_c, 11, 46, 100
13, 73464, Note_off_c, 11, 46, 100
13, 73488, Note_on_c, 11, 70, 100
13, 73496, Note_on_c, 11, 44, 8
13, 73512, Note_off_c, 11, 70, 100
13, 73520, Note_off_c, 11, 44, 8
13, 73536, Note_on_c, 11, 44, 110
13, 73560, Note_off_c, 11, 44, 110
13, 73632, Note_on_c, 11, 46, 100
13, 73656, Note_off_c, 11, 46, 100
13, 73680, Note_on_c, 11, 70, 100
13, 73688, Note_on_c, 11, 44, 8
13, 73704, Note_off_c, 11, 70, 100
13, 73712, Note_off_c, 11, 44, 8
13, 73728, Note_on_c, 11, 44, 110
13, 73752, Note_off_c, 11, 44, 110
13, 73824, Note_on_c, 11, 46, 100
13, 73848, Note_off_c, 11, 46, 100
13, 73872, Note_on_c, 11, 70, 100
13, 73880, Note_on_c, 11, 44, 8
13, 73896, Note_off_c, 11, 70, 100
13, 73904, Note_off_c, 11, 44, 8
13, 73920, Note_on_c, 11, 44, 110
13, 73944, Note_off_c, 11, 44, 110
13, 74016, Note_on_c, 11, 46, 100
13, 74040, Note_off_c, 11, 46, 100
13, 74064, Note_on_c, 11, 70, 100
13, 74072, Note_on_c, 11, 44, 8
13, 74088, Note_off_c, 11, 70, 100
13, 74096, Note_off_c, 11, 44, 8
13, 74112, Note_on_c, 11, 44, 110
13, 74136, Note_off_c, 11, 44, 110
13, 74208, Note_on_c, 11, 46, 100
13, 74232, Note_off_c, 11, 46, 100
13, 74256, Note_on_c, 11, 70, 100
13, 74264, Note_on_c, 11, 44, 8
13, 74280, Note_off_c, 11, 70, 100
13, 74288, Note_off_c, 11, 44, 8
13, 74304, Note_on_c, 11, 44, 110
13, 74328, Note_off_c, 11, 44, 110
13, 74400, Note_on_c, 11, 46, 100
13, 74424, Note_off_c, 11, 46, 100
13, 74448, Note_on_c, 11, 70, 100
13, 74456, Note_on_c, 11, 44, 8
13, 74472, Note_off_c, 11, 70, 100
13, 74480, Note_off_c, 11, 44, 8
13, 74496, Note_on_c, 11, 44, 110
13, 74520, Note_off_c, 11, 44, 110
13, 74592, Note_on_c, 11, 46, 100
13, 74616, Note_off_c, 11, 46, 100
13, 74640, Note_on_c, 11, 70, 100
13, 74648, Note_on_c, 11, 44, 8
13, 74664, Note_off_c, 11, 70, 100
13, 74672, Note_off_c, 11, 44, 8
13, 74688, Note_on_c, 11, 44, 110
13, 74712, Note_off_c, 11, 44, 110
13, 74784, Note_on_c, 11, 46, 100
13, 74808, Note_off_c, 11, 46, 100
13, 74832, Note_on_c, 11, 70, 100
13, 74840, Note_on_c, 11, 44, 8
13, 74856, Note_off_c, 11, 70, 100
13, 74864, Note_off_c, 11, 44, 8
13, 74880, Note_on_c, 11, 44, 110
13, 74904, Note_off_c, 11, 44, 110
13, 74976, Note_on_c, 11, 46, 100
13, 75000, Note_off_c, 11, 46, 100
13, 75024, Note_on_c, 11, 70, 100
13, 75032, Note_on_c, 11, 44, 8
13, 75048, Note_off_c, 11, 70, 100
13, 75056, Note_off_c, 11, 44, 8
13, 75072, Note_on_c, 11, 44, 110
13, 75096, Note_off_c, 11, 44, 110
13, 75168, Note_on_c, 11, 46, 100
13, 75192, Note_off_c, 11, 46, 100
13, 75216, Note_on_c, 11, 70, 100
13, 75224, Note_on_c, 11, 44, 8
13, 75240, Note_off_c, 11, 70, 100
13, 75248, Note_off_c, 11, 44, 8
13, 75264, Note_on_c, 11, 44, 110
13, 75288, Note_off_c, 11, 44, 110
13, 75360, Note_on_c, 11, 46, 100
13, 75384, Note_off_c, 11, 46, 100
13, 75408, Note_on_c, 11, 70, 100
13, 75416, Note_on_c, 11, 44, 8
13, 75432, Note_off_c, 11, 70, 100
13, 75440, Note_off_c, 11, 44, 8
13, 75456, Note_on_c, 11, 44, 110
13, 75480, Note_off_c, 11, 44, 110
13, 75552, Note_on_c, 11, 46, 100
13, 75576, Note_off_c, 11, 46, 100
13, 75600, Note_on_c, 11, 70, 100
13, 75608, Note_on_c, 11, 44, 8
13, 75624, Note_off_c, 11, 70, 100
13, 75632, Note_off_c, 11, 44, 8
13, 75648, Note_on_c, 11, 44, 110
13, 75672, Note_off_c, 11, 44, 110
13, 75744, Note_on_c, 11, 46, 100
13, 75768, Note_off_c, 11, 46, 100
13, 75792, Note_on_c, 11, 70, 100
13, 75800, Note_on_c, 11, 44, 8
13, 75816, Note_off_c, 11, 70, 100
13, 75824, Note_off_c, 11, 44, 8
13, 75840, Note_on_c, 11, 44, 110
13, 75864, Note_off_c, 11, 44, 110
13, 75936, Note_on_c, 11, 46, 100
13, 75960, Note_off_c, 11, 46, 100
13, 75984, Note_on_c, 11, 70, 100
13, 75992, Note_on_c, 11, 44, 8
13, 76008, Note_off_c, 11, 70, 100
13, 76016, Note_off_c, 11, 44, 8
13, 76032, Note_on_c, 11, 44, 110
13, 76056, Note_off_c, 11, 44, 110
13, 76128, Note_on_c, 11, 46, 100
13, 76152, Note_off_c, 11, 46, 100
13, 76176, Note_on_c, 11, 70, 100
13, 76184, Note_on_c, 11, 44, 8
13, 76200, Note_off_c, 11, 70, 100
13, 76208, Note_off_c, 11, 44, 8
13, 76224, Note_on_c, 11, 44, 110
13, 76248, Note_off_c, 11, 44, 110
13, 76320, Note_on_c, 11, 46, 100
13, 76344, Note_off_c, 11, 46, 100
13, 76368, Note_on_c, 11, 70, 100
13, 76376, Note_on_c, 11, 44, 8
13, 76392, Note_off_c, 11, 70, 100
13, 76400, Note_off_c, 11, 44, 8
13, 76416, Note_on_c, 11, 44, 110
13, 76440, Note_off_c, 11, 44, 110
13, 76512, Note_on_c, 11, 46, 100
13, 76536, Note_off_c, 11, 46, 100
13, 76560, Note_on_c, 11, 70, 100
13, 76568, Note_on_c, 11, 44, 8
13, 76584, Note_off_c, 11, 70, 100
13, 76592, Note_off_c, 11, 44, 8
13, 76608, Note_on_c, 11, 44, 110
13, 76632, Note_off_c, 11, 44, 110
13, 76704, Note_on_c, 11, 46, 100
13, 76728, Note_off_c, 11, 46, 100
13, 76752, Note_on_c, 11, 70, 100
13, 76760, Note_on_c, 11, 44, 8
13, 76776, Note_off_c, 11, 70, 100
13, 76784, Note_off_c, 11, 44, 8
13, 76800, Note_on_c, 11, 44, 110
13, 76824, Note_off_c, 11, 44, 110
13, 76896, Note_on_c, 11, 46, 100
13, 76920, Note_off_c, 11, 46, 100
13, 76944, Note_on_c, 11, 70, 100
13, 76952, Note_on_c, 11, 44, 8
13, 76968, Note_off_c, 11, 70, 100
13, 76976, Note_off_c, 11, 44, 8
13, 76992, Note_on_c, 11, 44, 110
13, 77016, Note_off_c, 11, 44, 110
13, 77088, Note_on_c, 11, 46, 100
13, 77112, Note_off_c, 11, 46, 100
13, 77136, Note_on_c, 11, 70, 100
13, 77144, Note_on_c, 11, 44, 8
13, 77160, Note_off_c, 11, 70, 100
13, 77168, Note_off_c, 11, 44, 8
13, 77184, Note_on_c, 11, 44, 110
13, 77208, Note_off_c, 11, 44, 110
13, 77280, Note_on_c, 11, 46, 100
13, 77304, Note_off_c, 11, 46, 100
13, 77328, Note_on_c, 11, 70, 100
13, 77336, Note_on_c, 11, 44, 8
13, 77352, Note_off_c, 11, 70, 100
13, 77360, Note_off_c, 11, 44, 8
13, 77376, Note_on_c, 11, 44, 110
13, 77400, Note_off_c, 11, 44, 110
13, 77472, Note_on_c, 11, 46, 100
13, 77496, Note_off_c, 11, 46, 100
13, 77520, Note_on_c, 11, 70, 100
13, 77528, Note_on_c, 11, 44, 8
13, 77544, Note_off_c, 11, 70, 100
13, 77552, Note_off_c, 11, 44, 8
13, 77568, Note_on_c, 11, 44, 110
13, 77592, Note_off_c, 11, 44, 110
13, 77664, Note_on_c, 11, 46, 100
13, 77688, Note_off_c, 11, 46, 100
13, 77712, Note_on_c, 11, 70, 100
13, 77720, Note_on_c, 11, 44, 8
13, 77736, Note_off_c, 11, 70, 100
13, 77744, Note_off_c, 11, 44, 8
13, 77760, Note_on_c, 11, 44, 110
13, 77784, Note_off_c, 11, 44, 110
13, 77856, Note_on_c, 11, 46, 100
13, 77880, Note_off_c, 11, 46, 100
13, 77904, Note_on_c, 11, 70, 100
13, 77912, Note_on_c, 11, 44, 8
13, 77928, Note_off_c, 11, 70, 100
13, 77936, Note_off_c, 11, 44, 8
13, 77952, Note_on_c, 11, 44, 110
13, 77976, Note_off_c, 11, 44, 110
13, 78048, Note_on_c, 11, 46, 100
13, 78072, Note_off_c, 11, 46, 100
13, 78096, Note_on_c, 11, 70, 100
13, 78104, Note_on_c, 11, 44, 8
13, 78120, Note_off_c, 11, 70, 100
13, 78128, Note_off_c, 11, 44, 8
13, 78144, Note_on_c, 11, 44, 110
13, 78168, Note_off_c, 11, 44, 110
13, 78240, Note_on_c, 11, 46, 100
13, 78264, Note_off_c, 11, 46, 100
13, 78288, Note_on_c, 11, 70, 100
13, 78296, Note_on_c, 11, 44, 8
13, 78312, Note_off_c, 11, 70, 100
13, 78320, Note_off_c, 11, 44, 8
13, 78336, Note_on_c, 11, 44, 110
13, 78360, Note_off_c, 11, 44, 110
13, 78432, Note_on_c, 11, 46, 100
13, 78456, Note_off_c, 11, 46, 100
13, 78480, Note_on_c, 11, 70, 100
13, 78488, Note_on_c, 11, 44, 8
13, 78504, Note_off_c, 11, 70, 100
13, 78512, Note_off_c, 11, 44, 8
13, 78528, Note_on_c, 11, 44, 110
13, 78552, Note_off_c, 11, 44, 110
13, 78624, Note_on_c, 11, 46, 100
13, 78648, Note_off_c, 11, 46, 100
13, 78672, Note_on_c, 11, 70, 100
13, 78680, Note_on_c, 11, 44, 8
13, 78696, Note_off_c, 11, 70, 100
13, 78704, Note_off_c, 11, 44, 8
13, 78720, Note_on_c, 11, 44, 110
13, 78744, Note_off_c, 11, 44, 110
13, 78816, Note_on_c, 11, 46, 100
13, 78840, Note_off_c, 11, 46, 100
13, 78864, Note_on_c, 11, 70, 100
13, 78872, Note_on_c, 11, 44, 8
13, 78888, Note_off_c, 11, 70, 100
13, 78896, Note_off_c, 11, 44, 8
13, 78912, Note_on_c, 11, 44, 110
13, 78936, Note_off_c, 11, 44, 110
13, 79008, Note_on_c, 11, 46, 100
13, 79032, Note_off_c, 11, 46, 100
13, 79056, Note_on_c, 11, 70, 100
13, 79064, Note_on_c, 11, 44, 8
13, 79080, Note_off_c, 11, 70, 100
13, 79088, Note_off_c, 11, 44, 8
13, 79104, Note_on_c, 11, 44, 110
13, 79128, Note_off_c, 11, 44, 110
13, 79200, Note_on_c, 11, 46, 100
13, 79224, Note_off_c, 11, 46, 100
13, 79248, Note_on_c, 11, 70, 100
13, 79256, Note_on_c, 11, 44, 8
13, 79272, Note_off_c, 11, 70, 100
13, 79280, Note_off_c, 11, 44, 8
13, 79296, Note_on_c, 11, 44, 110
13, 79320, Note_off_c, 11, 44, 110
13, 79392, Note_on_c, 11, 46, 100
13, 79416, Note_off_c, 11, 46, 100
13, 79440, Note_on_c, 11, 70, 100
13, 79448, Note_on_c, 11, 44, 8
13, 79464, Note_off_c, 11, 70, 100
13, 79472, Note_off_c, 11, 44, 8
13, 79488, Note_on_c, 11, 44, 110
13, 79512, Note_off_c, 11, 44, 110
13, 79584, Note_on_c, 11, 46, 100
13, 79608, Note_off_c, 11, 46, 100
13, 79632, Note_on_c, 11, 70, 100
13, 79640, Note_on_c, 11, 44, 8
13, 79656, Note_off_c, 11, 70, 100
13, 79664, Note_off_c, 11, 44, 8
13, 79680, Note_on_c, 11, 44, 110
13, 79704, Note_off_c, 11, 44, 110
13, 79776, Note_on_c, 11, 46, 100
13, 79800, Note_off_c, 11, 46, 100
13, 79824, Note_on_c, 11, 70, 100
13, 79832, Note_on_c, 11, 44, 8
13, 79848, Note_off_c, 11, 70, 100
13, 79856, Note_off_c, 11, 44, 8
13, 79872, Note_on_c, 11, 44, 110
13, 79896, Note_off_c, 11, 44, 110
13, 79968, Note_on_c, 11, 46, 100
13, 79992, Note_off_c, 11, 46, 100
13, 80016, Note_on_c, 11, 70, 100
13, 80024, Note_on_c, 11, 44, 8
13, 80040, Note_off_c, 11, 70, 100
13, 80048, Note_off_c, 11, 44, 8
13, 80064, Note_on_c, 11, 44, 110
13, 80088, Note_off_c, 11, 44, 110
13, 80160, Note_on_c, 11, 46, 100
13, 80184, Note_off_c, 11, 46, 100
13, 80208, Note_on_c, 11, 70, 100
13, 80216, Note_on_c, 11, 44, 8
13, 80232, Note_off_c, 11, 70, 100
13, 80240, Note_off_c, 11, 44, 8
13, 80256, Note_on_c, 11, 44, 110
13, 80280, Note_off_c, 11, 44, 110
13, 80352, Note_on_c, 11, 46, 100
13, 80376, Note_off_c, 11, 46, 100
13, 80400, Note_on_c, 11, 70, 100
13, 80408, Note_on_c, 11, 44, 8
13, 80424, Note_off_c, 11, 70, 100
13, 80432, Note_off_c, 11, 44, 8
13, 80448, Note_on_c, 11, 44, 110
13, 80472, Note_off_c, 11, 44, 110
13, 80544, Note_on_c, 11, 46, 100
13, 80568, Note_off_c, 11, 46, 100
13, 80592, Note_on_c, 11, 70, 100
13, 80600, Note_on_c, 11, 44, 8
13, 80616, Note_off_c, 11, 70, 100
13, 80624, Note_off_c, 11, 44, 8
13, 80640, Note_on_c, 11, 44, 110
13, 80664, Note_off_c, 11, 44, 110
13, 80736, Note_on_c, 11, 46, 100
13, 80760, Note_off_c, 11, 46, 100
13, 80784, Note_on_c, 11, 70, 100
13, 80792, Note_on_c, 11, 44, 8
13, 80808, Note_off_c, 11, 70, 100
13, 80816, Note_off_c, 11, 44, 8
13, 80832, Note_on_c, 11, 44, 110
13, 80856, Note_off_c, 11, 44, 110
13, 80928, Note_on_c, 11, 46, 100
13, 80952, Note_off_c, 11, 46, 100
13, 80976, Note_on_c, 11, 70, 100
13, 80984, Note_on_c, 11, 44, 8
13, 81000, Note_off_c, 11, 70, 100
13, 81008, Note_off_c, 11, 44, 8
13, 81024, Note_on_c, 11, 44, 110
13, 81048, Note_off_c, 11, 44, 110
13, 81120, Note_on_c, 11, 46, 100
13, 81144, Note_off_c, 11, 46, 100
13, 81168, Note_on_c, 11, 70, 100
13, 81176, Note_on_c, 11, 44, 8
13, 81192, Note_off_c, 11, 70, 100
13, 81200, Note_off_c, 11, 44, 8
13, 81216, Note_on_c, 11, 44, 110
13, 81240, Note_off_c, 11, 44, 110
13, 81312, Note_on_c, 11, 46, 100
13, 81336, Note_off_c, 11, 46, 100
13, 81360, Note_on_c, 11, 70, 100
13, 81368, Note_on_c, 11, 44, 8
13, 81384, Note_off_c, 11, 70, 100
13, 81392, Note_off_c, 11, 44, 8
13, 81408, Note_on_c, 11, 44, 110
13, 81432, Note_off_c, 11, 44, 110
13, 81504, Note_on_c, 11, 46, 100
13, 81528, Note_off_c, 11, 46, 100
13, 81552, Note_on_c, 11, 70, 100
13, 81560, Note_on_c, 11, 44, 8
13, 81576, Note_off_c, 11, 70, 100
13, 81584, Note_off_c, 11, 44, 8
13, 81600, Note_on_c, 11, 44, 110
13, 81624, Note_off_c, 11, 44, 110
13, 81696, Note_on_c, 11, 46, 100
13, 81720, Note_off_c, 11, 46, 100
13, 81744, Note_on_c, 11, 70, 100
13, 81752, Note_on_c, 11, 44, 8
13, 81768, Note_off_c, 11, 70, 100
13, 81776, Note_off_c, 11, 44, 8
13, 81792, Note_on_c, 11, 44, 110
13, 81816, Note_off_c, 11, 44, 110
13, 81888, Note_on_c, 11, 46, 100
13, 81912, Note_off_c, 11, 46, 100
13, 81936, Note_on_c, 11, 70, 100
13, 81944, Note_on_c, 11, 44, 8
13, 81960, Note_off_c, 11, 70, 100
13, 81968, Note_off_c, 11, 44, 8
13, 81984, Note_on_c, 11, 44, 110
13, 82008, Note_off_c, 11, 44, 110
13, 82080, Note_on_c, 11, 46, 100
13, 82104, Note_off_c, 11, 46, 100
13, 82128, Note_on_c, 11, 70, 100
13, 82136, Note_on_c, 11, 44, 8
13, 82152, Note_off_c, 11, 70, 100
13, 82160, Note_off_c, 11, 44, 8
13, 82176, Note_on_c, 11, 44, 110
13, 82200, Note_off_c, 11, 44, 110
13, 82272, Note_on_c, 11, 46, 100
13, 82296, Note_off_c, 11, 46, 100
13, 82320, Note_on_c, 11, 70, 100
13, 82328, Note_on_c, 11, 44, 8
13, 82344, Note_off_c, 11, 70, 100
13, 82352, Note_off_c, 11, 44, 8
13, 82368, Note_on_c, 11, 44, 110
13, 82392, Note_off_c, 11, 44, 110
13, 82464, Note_on_c, 11, 46, 100
13, 82488, Note_off_c, 11, 46, 100
13, 82512, Note_on_c, 11, 70, 100
13, 82520, Note_on_c, 11, 44, 8
13, 82536, Note_off_c, 11, 70, 100
13, 82544, Note_off_c, 11, 44, 8
13, 82560, Note_on_c, 11, 44, 110
13, 82584, Note_off_c, 11, 44, 110
13, 82656, Note_on_c, 11, 46, 100
13, 82680, Note_off_c, 11, 46, 100
13, 82704, Note_on_c, 11, 70, 100
13, 82712, Note_on_c, 11, 44, 8
13, 82728, Note_off_c, 11, 70, 100
13, 82736, Note_off_c, 11, 44, 8
13, 82752, Note_on_c, 11, 44, 110
13, 82776, Note_off_c, 11, 44, 110
13, 82848, Note_on_c, 11, 46, 100
13, 82872, Note_off_c, 11, 46, 100
13, 82896, Note_on_c, 11, 70, 100
13, 82904, Note_on_c, 11, 44, 8
13, 82920, Note_off_c, 11, 70, 100
13, 82928, Note_off_c, 11, 44, 8
13, 82944, Note_on_c, 11, 44, 110
13, 82968, Note_off_c, 11, 44, 110
13, 83040, Note_on_c, 11, 46, 100
13, 83064, Note_off_c, 11, 46, 100
13, 83088, Note_on_c, 11, 70, 100
13, 83096, Note_on_c, 11, 44, 8
13, 83112, Note_off_c, 11, 70, 100
13, 83120, Note_off_c, 11, 44, 8
13, 83136, Note_on_c, 11, 44, 110
13, 83160, Note_off_c, 11, 44, 110
13, 83232, Note_on_c, 11, 46, 100
13, 83256, Note_off_c, 11, 46, 100
13, 83280, Note_on_c, 11, 70, 100
13, 83288, Note_on_c, 11, 44, 8
13, 83304, Note_off_c, 11, 70, 100
13, 83312, Note_off_c, 11, 44, 8
13, 83328, Note_on_c, 11, 44, 110
13, 83352, Note_off_c, 11, 44, 110
13, 83424, Note_on_c, 11, 46, 100
13, 83448, Note_off_c, 11, 46, 100
13, 83472, Note_on_c, 11, 70, 100
13, 83480, Note_on_c, 11, 44, 8
13, 83496, Note_off_c, 11, 70, 100
13, 83504, Note_off_c, 11, 44, 8
13, 83520, Note_on_c, 11, 44, 110
13, 83544, Note_off_c, 11, 44, 110
13, 83616, Note_on_c, 11, 46, 100
13, 83640, Note_off_c, 11, 46, 100
13, 83664, Note_on_c, 11, 70, 100
13, 83672, Note_on_c, 11, 44, 8
13, 83688, Note_off_c, 11, 70, 100
13, 83696, Note_off_c, 11, 44, 8
13, 83712, Note_on_c, 11, 44, 110
13, 83736, Note_off_c, 11, 44, 110
13, 83808, Note_on_c, 11, 46, 100
13, 83832, Note_off_c, 11, 46, 100
13, 83856, Note_on_c, 11, 70, 100
13, 83864, Note_on_c, 11, 44, 8
13, 83880, Note_off_c, 11, 70, 100
13, 83888, Note_off_c, 11, 44, 8
13, 83904, Note_on_c, 11, 44, 110
13, 83928, Note_off_c, 11, 44, 110
13, 84000, Note_on_c, 11, 46, 100
13, 84024, Note_off_c, 11, 46, 100
13, 84048, Note_on_c, 11, 70, 100
13, 84056, Note_on_c, 11, 44, 8
13, 84072, Note_off_c, 11, 70, 100
13, 84080, Note_off_c, 11, 44, 8
13, 84096, Note_on_c, 11, 44, 110
13, 84120, Note_off_c, 11, 44, 110
13, 84192, Note_on_c, 11, 46, 100
13, 84216, Note_off_c, 11, 46, 100
13, 84240, Note_on_c, 11, 70, 100
13, 84248, Note_on_c, 11, 44, 8
13, 84264, Note_off_c, 11, 70, 100
13, 84272, Note_off_c, 11, 44, 8
13, 84288, Note_on_c, 11, 44, 110
13, 84312, Note_off_c, 11, 44, 110
13, 84384, Note_on_c, 11, 46, 100
13, 84408, Note_off_c, 11, 46, 100
13, 84432, Note_on_c, 11, 70, 100
13, 84440, Note_on_c, 11, 44, 8
13, 84456, Note_off_c, 11, 70, 100
13, 84464, Note_off_c, 11, 44, 8
13, 84480, Note_on_c, 11, 44, 110
13, 84504, Note_off_c, 11, 44, 110
13, 84576, Note_on_c, 11, 46, 100
13, 84600, Note_off_c, 11, 46, 100
13, 84624, Note_on_c, 11, 70, 100
13, 84632, Note_on_c, 11, 44, 8
13, 84648, Note_off_c, 11, 70, 100
13, 84656, Note_off_c, 11, 44, 8
13, 84672, Note_on_c, 11, 44, 110
13, 84696, Note_off_c, 11, 44, 110
13, 84768, Note_on_c, 11, 46, 100
13, 84792, Note_off_c, 11, 46, 100
13, 84816, Note_on_c, 11, 70, 100
13, 84824, Note_on_c, 11, 44, 8
13, 84840, Note_off_c, 11, 70, 100
13, 84848, Note_off_c, 11, 44, 8
13, 84864, Note_on_c, 11, 44, 110
13, 84888, Note_off_c, 11, 44, 110
13, 84960, Note_on_c, 11, 46, 100
13, 84984, Note_off_c, 11, 46, 100
13, 85008, Note_on_c, 11, 70, 100
13, 85016, Note_on_c, 11, 44, 8
13, 85032, Note_off_c, 11, 70, 100
13, 85040, Note_off_c, 11, 44, 8
13, 85056, Note_on_c, 11, 44, 110
13, 85080, Note_off_c, 11, 44, 110
13, 85152, Note_on_c, 11, 46, 100
13, 85176, Note_off_c, 11, 46, 100
13, 85200, Note_on_c, 11, 70, 100
13, 85208, Note_on_c, 11, 44, 8
13, 85224, Note_off_c, 11, 70, 100
13, 85232, Note_off_c, 11, 44, 8
13, 85248, Note_on_c, 11, 44, 110
13, 85272, Note_off_c, 11, 44, 110
13, 85344, Note_on_c, 11, 46, 100
13, 85368, Note_off_c, 11, 46, 100
13, 85392, Note_on_c, 11, 70, 100
13, 85400, Note_on_c, 11, 44, 8
13, 85416, Note_off_c, 11, 70, 100
13, 85424, Note_off_c, 11, 44, 8
13, 85440, Note_on_c, 11, 44, 110
13, 85464, Note_off_c, 11, 44, 110
13, 85536, Note_on_c, 11, 46, 100
13, 85560, Note_off_c, 11, 46, 100
13, 85584, Note_on_c, 11, 70, 100
13, 85592, Note_on_c, 11, 44, 8
13, 85608, Note_off_c, 11, 70, 100
13, 85616, Note_off_c, 11, 44, 8
13, 85632, Note_on_c, 11, 44, 110
13, 85656, Note_off_c, 11, 44, 110
13, 85728, Note_on_c, 11, 46, 100
13, 85752, Note_off_c, 11, 46, 100
13, 85776, Note_on_c, 11, 70, 100
13, 85784, Note_on_c, 11, 44, 8
13, 85800, Note_off_c, 11, 70, 100
13, 85808, Note_off_c, 11, 44, 8
13, 85824, Note_on_c, 11, 44, 110
13, 85848, Note_off_c, 11, 44, 110
13, 85920, Note_on_c, 11, 46, 100
13, 85944, Note_off_c, 11, 46, 100
13, 85968, Note_on_c, 11, 70, 100
13, 85976, Note_on_c, 11, 44, 8
13, 85992, Note_off_c, 11, 70, 100
13, 86000, Note_off_c, 11, 44, 8
13, 86016, Note_on_c, 11, 44, 110
13, 86040, Note_off_c, 11, 44, 110
13, 86112, Note_on_c, 11, 46, 100
13, 86136, Note_off_c, 11, 46, 100
13, 86160, Note_on_c, 11, 70, 100
13, 86168, Note_on_c, 11, 44, 8
13, 86184, Note_off_c, 11, 70, 100
13, 86192, Note_off_c, 11, 44, 8
13, 86208, Note_on_c, 11, 44, 110
13, 86232, Note_off_c, 11, 44, 110
13, 86304, Note_on_c, 11, 46, 100
13, 86328, Note_off_c, 11, 46, 100
13, 86352, Note_on_c, 11, 70, 100
13, 86360, Note_on_c, 11, 44, 8
13, 86376, Note_off_c, 11, 70, 100
13, 86384, Note_off_c, 11, 44, 8
13, 86400, Note_on_c, 11, 44, 110
13, 86424, Note_off_c, 11, 44, 110
13, 86496, Note_on_c, 11, 46, 100
13, 86520, Note_off_c, 11, 46, 100
13, 86544, Note_on_c, 11, 70, 100
13, 86552, Note_on_c, 11, 44, 8
13, 86568, Note_off_c, 11, 70, 100
13, 86576, Note_off_c, 11, 44, 8
13, 86592, Note_on_c, 11, 44, 110
13, 86616, Note_off_c, 11, 44, 110
13, 86688, Note_on_c, 11, 46, 100
13, 86712, Note_off_c, 11, 46, 100
13, 86736, Note_on_c, 11, 70, 100
13, 86744, Note_on_c, 11, 44, 8
13, 86760, Note_off_c, 11, 70, 100
13, 86768, Note_off_c, 11, 44, 8
13, 86784, Note_on_c, 11, 44, 110
13, 86808, Note_off_c, 11, 44, 110
13, 86880, Note_on_c, 11, 46, 100
13, 86904, Note_off_c, 11, 46, 100
13, 86928, Note_on_c, 11, 70, 100
13, 86936, Note_on_c, 11, 44, 8
13, 86952, Note_off_c, 11, 70, 100
13, 86960, Note_off_c, 11, 44, 8
13, 86976, Note_on_c, 11, 44, 110
13, 87000, Note_off_c, 11, 44, 110
13, 87072, Note_on_c, 11, 46, 100
13, 87096, Note_off_c, 11, 46, 100
13, 87120, Note_on_c, 11, 70, 100
13, 87128, Note_on_c, 11, 44, 8
13, 87144, Note_off_c, 11, 70, 100
13, 87152, Note_off_c, 11, 44, 8
13, 87168, Note_on_c, 11, 44, 110
13, 87192, Note_off_c, 11, 44, 110
13, 87264, Note_on_c, 11, 46, 100
13, 87288, Note_off_c, 11, 46, 100
13, 87312, Note_on_c, 11, 70, 100
13, 87320, Note_on_c, 11, 44, 8
13, 87336, Note_off_c, 11, 70, 100
13, 87344, Note_off_c, 11, 44, 8
13, 87360, Note_on_c, 11, 44, 110
13, 87384, Note_off_c, 11, 44, 110
13, 87456, Note_on_c, 11, 46, 100
13, 87480, Note_off_c, 11, 46, 100
13, 87504, Note_on_c, 11, 70, 100
13, 87512, Note_on_c, 11, 44, 8
13, 87528, Note_off_c, 11, 70, 100
13, 87536, Note_off_c, 11, 44, 8
13, 87552, Note_on_c, 11, 44, 110
13, 87576, Note_off_c, 11, 44, 110
13, 87648, Note_on_c, 11, 46, 100
13, 87672, Note_off_c, 11, 46, 100
13, 87696, Note_on_c, 11, 70, 100
13, 87704, Note_on_c, 11, 44, 8
13, 87720, Note_off_c, 11, 70, 100
13, 87728, Note_off_c, 11, 44, 8
13, 87744, Note_on_c, 11, 44, 110
13, 87768, Note_off_c, 11, 44, 110
13, 87840, Note_on_c, 11, 46, 100
13, 87864, Note_off_c, 11, 46, 100
13, 87888, Note_on_c, 11, 70, 100
13, 87896, Note_on_c, 11, 44, 8
13, 87912, Note_off_c, 11, 70, 100
13, 87920, Note_off_c, 11, 44, 8
13, 87936, Note_on_c, 11, 44, 110
13, 87960, Note_off_c, 11, 44, 110
13, 88032, Note_on_c, 11, 46, 100
13, 88056, Note_off_c, 11, 46, 100
13, 88080, Note_on_c, 11, 70, 100
13, 88088, Note_on_c, 11, 44, 8
13, 88104, Note_off_c, 11, 70, 100
13, 88112, Note_off_c, 11, 44, 8
13, 88128, Note_on_c, 11, 44, 110
13, 88152, Note_off_c, 11, 44, 110
13, 88224, Note_on_c, 11, 46, 100
13, 88248, Note_off_c, 11, 46, 100
13, 88272, Note_on_c, 11, 70, 100
13, 88280, Note_on_c, 11, 44, 8
13, 88296, Note_off_c, 11, 70, 100
13, 88304, Note_off_c, 11, 44, 8
13, 88320, Note_on_c, 11, 44, 110
13, 88344, Note_off_c, 11, 44, 110
13, 88416, Note_on_c, 11, 46, 100
13, 88440, Note_off_c, 11, 46, 100
13, 88464, Note_on_c, 11, 70, 100
13, 88472, Note_on_c, 11, 44, 8
13, 88488, Note_off_c, 11, 70, 100
13, 88496, Note_off_c, 11, 44, 8
13, 88512, Note_on_c, 11, 44, 110
13, 88536, Note_off_c, 11, 44, 110
13, 88608, Note_on_c, 11, 46, 100
13, 88632, Note_off_c, 11, 46, 100
13, 88656, Note_on_c, 11, 70, 100
13, 88664, Note_on_c, 11, 44, 8
13, 88680, Note_off_c, 11, 70, 100
13, 88688, Note_off_c, 11, 44, 8
13, 88704, Note_on_c, 11, 44, 110
13, 88728, Note_off_c, 11, 44, 110
13, 88800, Note_on_c, 11, 46, 100
13, 88824, Note_off_c, 11, 46, 100
13, 88848, Note_on_c, 11, 70, 100
13, 88856, Note_on_c, 11, 44, 8
13, 88872, Note_off_c, 11, 70, 100
13, 88880, Note_off_c, 11, 44, 8
13, 88896, Note_on_c, 11, 44, 110
13, 88920, Note_off_c, 11, 44, 110
13, 88992, Note_on_c, 11, 46, 100
13, 89016, Note_off_c, 11, 46, 100
13, 89040, Note_on_c, 11, 70, 100
13, 89048, Note_on_c, 11, 44, 8
13, 89064, Note_off_c, 11, 70, 100
13, 89072, Note_off_c, 11, 44, 8
13, 89088, Note_on_c, 11, 44, 110
13, 89112, Note_off_c, 11, 44, 110
13, 89184, Note_on_c, 11, 46, 100
13, 89208, Note_off_c, 11, 46, 100
13, 89232, Note_on_c, 11, 70, 100
13, 89240, Note_on_c, 11, 44, 8
13, 89256, Note_off_c, 11, 70, 100
13, 89264, Note_off_c, 11, 44, 8
13, 89280, Note_on_c, 11, 44, 110
13, 89304, Note_off_c, 11, 44, 110
13, 89376, Note_on_c, 11, 46, 100
13, 89400, Note_off_c, 11, 46, 100
13, 89424, Note_on_c, 11, 70, 100
13, 89432, Note_on_c, 11, 44, 8
13, 89448, Note_off_c, 11, 70, 100
13, 89456, Note_off_c, 11, 44, 8
13, 89472, Note_on_c, 11, 44, 110
13, 89496, Note_off_c, 11, 44, 110
13, 89568, Note_on_c, 11, 46, 100
13, 89592, Note_off_c, 11, 46, 100
13, 89616, Note_on_c, 11, 70, 100
13, 89624, Note_on_c, 11, 44, 8
13, 89640, Note_off_c, 11, 70, 100
13, 89648, Note_off_c, 11, 44, 8
13, 89664, Note_on_c, 11, 44, 110
13, 89688, Note_off_c, 11, 44, 110
13, 89760, Note_on_c, 11, 46, 100
13, 89784, Note_off_c, 11, 46, 100
13, 89808, Note_on_c, 11, 70, 100
13, 89816, Note_on_c, 11, 44, 8
13, 89832, Note_off_c, 11, 70, 100
13, 89840, Note_off_c, 11, 44, 8
13, 89856, Note_on_c, 11, 44, 110
13, 89880, Note_off_c, 11, 44, 110
13, 89952, Note_on_c, 11, 46, 100
13, 89976, Note_off_c, 11, 46, 100
13, 90000, Note_on_c, 11, 70, 100
13, 90008, Note_on_c, 11, 44, 8
13, 90024, Note_off_c, 11, 70, 100
13, 90032, Note_off_c, 11, 44, 8
13, 90048, Note_on_c, 11, 44, 110
13, 90072, Note_off_c, 11, 44, 110
13, 90144, Note_on_c, 11, 46, 100
13, 90168, Note_off_c, 11, 46, 100
13, 90192, Note_on_c, 11, 70, 100
13, 90200, Note_on_c, 11, 44, 8
13, 90216, Note_off_c, 11, 70, 100
13, 90224, Note_off_c, 11, 44, 8
13, 90240, Note_on_c, 11, 44, 110
13, 90264, Note_off_c, 11, 44, 110
13, 90336, Note_on_c, 11, 46, 100
13, 90360, Note_off_c, 11, 46, 100
13, 90384, Note_on_c, 11, 70, 100
13, 90392, Note_on_c, 11, 44, 8
13, 90408, Note_off_c, 11, 70, 100
13, 90416, Note_off_c, 11, 44, 8
13, 90432, Note_on_c, 11, 44, 110
13, 90456, Note_off_c, 11, 44, 110
13, 90528, Note_on_c, 11, 46, 100
13, 90552, Note_off_c, 11, 46, 100
13, 90576, Note_on_c, 11, 70, 100
13, 90584, Note_on_c, 11, 44, 8
13, 90600, Note_off_c, 11, 70, 100
13, 90608, Note_off_c, 11, 44, 8
13, 90624, Note_on_c, 11, 44, 110
13, 90648, Note_off_c, 11, 44, 110
13, 90720, Note_on_c, 11, 46, 100
13, 90744, Note_off_c, 11, 46, 100
13, 90768, Note_on_c, 11, 70, 100
13, 90776, Note_on_c, 11, 44, 8
13, 90792, Note_off_c, 11, 70, 100
13, 90800, Note_off_c, 11, 44, 8
13, 90816, Note_on_c, 11, 44, 110
13, 90840, Note_off_c, 11, 44, 110
13, 90912, Note_on_c, 11, 46, 100
13, 90936, Note_off_c, 11, 46, 100
13, 90960, Note_on_c, 11, 70, 100
13, 90968, Note_on_c, 11, 44, 8
13, 90984, Note_off_c, 11, 70, 100
13, 90992, Note_off_c, 11, 44, 8
13, 91008, Note_on_c, 11, 44, 110
13, 91032, Note_off_c, 11, 44, 110
13, 91104, Note_on_c, 11, 46, 100
13, 91128, Note_off_c, 11, 46, 100
13, 91152, Note_on_c, 11, 70, 100
13, 91160, Note_on_c, 11, 44, 8
13, 91176, Note_off_c, 11, 70, 100
13, 91184, Note_off_c, 11, 44, 8
13, 91200, Note_on_c, 11, 44, 110
13, 91224, Note_off_c, 11, 44, 110
13, 91296, Note_on_c, 11, 46, 100
13, 91320, Note_off_c, 11, 46, 100
13, 91344, Note_on_c, 11, 70, 100
13, 91352, Note_on_c, 11, 44, 8
13, 91368, Note_off_c, 11, 70, 100
13, 91376, Note_off_c, 11, 44, 8
13, 91392, Note_on_c, 11, 44, 110
13, 91416, Note_off_c, 11, 44, 110
13, 91488, Note_on_c, 11, 46, 100
13, 91512, Note_off_c, 11, 46, 100
13, 91536, Note_on_c, 11, 70, 100
13, 91544, Note_on_c, 11, 44, 8
13, 91560, Note_off_c, 11, 70, 100
13, 91568, Note_off_c, 11, 44, 8
13, 91584, Note_on_c, 11, 44, 110
13, 91608, Note_off_c, 11, 44, 110
13, 91680, Note_on_c, 11, 46, 100
13, 91704, Note_off_c, 11, 46, 100
13, 91728, Note_on_c, 11, 70, 100
13, 91736, Note_on_c, 11, 44, 8
13, 91752, Note_off_c, 11, 70, 100
13, 91760, Note_off_c, 11, 44, 8
13, 91776, Note_on_c, 11, 44, 110
13, 91800, Note_off_c, 11, 44, 110
13, 91872, Note_on_c, 11, 46, 100
13, 91896, Note_off_c, 11, 46, 100
13, 91920, Note_on_c, 11, 70, 100
13, 91928, Note_on_c, 11, 44, 8
13, 91944, Note_off_c, 11, 70, 100
13, 91952, Note_off_c, 11, 44, 8
13, 91968, Note_on_c, 11, 44, 110
13, 91992, Note_off_c, 11, 44, 110
13, 92064, Note_on_c, 11, 46, 100
13, 92088, Note_off_c, 11, 46, 100
13, 92112, Note_on_c, 11, 70, 100
13, 92120, Note_on_c, 11, 44, 8
13, 92136, Note_off_c, 11, 70, 100
13, 92144, Note_off_c, 11, 44, 8
13, 92160, Note_on_c, 11, 44, 110
13, 92184, Note_off_c, 11, 44, 110
13, 92256, Note_on_c, 11, 46, 100
13, 92280, Note_off_c, 11, 46, 100
13, 92304, Note_on_c, 11, 70, 100
13, 92312, Note_on_c, 11, 44, 8
13, 92328, Note_off_c, 11, 70, 100
13, 92336, Note_off_c, 11, 44, 8
13, 92352, Note_on_c, 11, 44, 110
13, 92376, Note_off_c, 11, 44, 110
13, 92448, Note_on_c, 11, 46, 100
13, 92472, Note_off_c, 11, 46, 100
13, 92496, Note_on_c, 11, 70, 100
13, 92504, Note_on_c, 11, 44, 8
13, 92520, Note_off_c, 11, 70, 100
13, 92528, Note_off_c, 11, 44, 8
13, 92544, Note_on_c, 11, 44, 110
13, 92568, Note_off_c, 11, 44, 110
13, 92640, Note_on_c, 11, 46, 100
13, 92664, Note_off_c, 11, 46, 100
13, 92688, Note_on_c, 11, 70, 100
13, 92696, Note_on_c, 11, 44, 8
13, 92712, Note_off_c, 11, 70, 100
13, 92720, Note_off_c, 11, 44, 8
13, 92736, Note_on_c, 11, 44, 110
13, 92760, Note_off_c, 11, 44, 110
13, 92832, Note_on_c, 11, 46, 100
13, 92856, Note_off_c, 11, 46, 100
13, 92880, Note_on_c, 11, 70, 100
13, 92888, Note_on_c, 11, 44, 8
13, 92904, Note_off_c, 11, 70, 100
13, 92912, Note_off_c, 11, 44, 8
13, 92928, Note_on_c, 11, 44, 110
13, 92952, Note_off_c, 11, 44, 110
13, 93024, Note_on_c, 11, 46, 100
13, 93048, Note_off_c, 11, 46, 100
13, 93072, Note_on_c, 11, 70, 100
13, 93080, Note_on_c, 11, 44, 8
13, 93096, Note_off_c, 11, 70, 100
13, 93104, Note_off_c, 11, 44, 8
13, 93120, Note_on_c, 11, 44, 110
13, 93144, Note_off_c, 11, 44, 110
13, 93216, Note_on_c, 11, 46, 100
13, 93240, Note_off_c, 11, 46, 100
13, 93264, Note_on_c, 11, 70, 100
13, 93272, Note_on_c, 11, 44, 8
13, 93288, Note_off_c, 11, 70, 100
13, 93296, Note_off_c, 11, 44, 8
13, 93312, Note_on_c, 11, 44, 110
13, 93336, Note_off_c, 11, 44, 110
13, 93408, Note_on_c, 11, 46, 100
13, 93432, Note_off_c, 11, 46, 100
13, 93456, Note_on_c, 11, 70, 100
13, 93464, Note_on_c, 11, 44, 8
13, 93480, Note_off_c, 11, 70, 100
13, 93488, Note_off_c, 11, 44, 8
13, 93504, Note_on_c, 11, 44, 110
13, 93528, Note_off_c, 11, 44, 110
13, 93600, Note_on_c, 11, 46, 100
13, 93624, Note_off_c, 11, 46, 100
13, 93648, Note_on_c, 11, 70, 100
13, 93656, Note_on_c, 11, 44, 8
13, 93672, Note_off_c, 11, 70, 100
13, 93680, Note_off_c, 11, 44, 8
13, 93696, Note_on_c, 11, 44, 110
13, 93720, Note_off_c, 11, 44, 110
13, 93792, Note_on_c, 11, 46, 100
13, 93816, Note_off_c, 11, 46, 100
13, 93840, Note_on_c, 11, 70, 100
13, 93848, Note_on_c, 11, 44, 8
13, 93864, Note_off_c, 11, 70, 100
13, 93872, Note_off_c, 11, 44, 8
13, 93888, Note_on_c, 11, 44, 110
13, 93912, Note_off_c, 11, 44, 110
13, 93984, Note_on_c, 11, 46, 100
13, 94008, Note_off_c, 11, 46, 100
13, 94032, Note_on_c, 11, 70, 100
13, 94040, Note_on_c, 11, 44, 8
13, 94056, Note_off_c, 11, 70, 100
13, 94064, Note_off_c, 11, 44, 8
13, 94080, Note_on_c, 11, 44, 110
13, 94104, Note_off_c, 11, 44, 110
13, 94176, Note_on_c, 11, 46, 100
13, 94200, Note_off_c, 11, 46, 100
13, 94224, Note_on_c, 11, 70, 100
13, 94232, Note_on_c, 11, 44, 8
13, 94248, Note_off_c, 11, 70, 100
13, 94256, Note_off_c, 11, 44, 8
13, 94272, Note_on_c, 11, 44, 110
13, 94296, Note_off_c, 11, 44, 110
13, 94368, Note_on_c, 11, 46, 100
13, 94392, Note_off_c, 11, 46, 100
13, 94416, Note_on_c, 11, 70, 100
13, 94424, Note_on_c, 11, 44, 8
13, 94440, Note_off_c, 11, 70, 100
13, 94448, Note_off_c, 11, 44, 8
13, 94464, Note_on_c, 11, 44, 110
13, 94488, Note_off_c, 11, 44, 110
13, 94560, Note_on_c, 11, 46, 100
13, 94584, Note_off_c, 11, 46, 100
13, 94608, Note_on_c, 11, 70, 100
13, 94616, Note_on_c, 11, 44, 8
13, 94632, Note_off_c, 11, 70, 100
13, 94640, Note_off_c, 11, 44, 8
13, 94656, Note_on_c, 11, 44, 110
13, 94680, Note_off_c, 11, 44, 110
13, 94752, Note_on_c, 11, 46, 100
13, 94776, Note_off_c, 11, 46, 100
13, 94800, Note_on_c, 11, 70, 100
13, 94808, Note_on_c, 11, 44, 8
13, 94824, Note_off_c, 11, 70, 100
13, 94832, Note_off_c, 11, 44, 8
13, 94848, Note_on_c, 11, 44, 110
13, 94872, Note_off_c, 11, 44, 110
13, 94944, Note_on_c, 11, 46, 100
13, 94968, Note_off_c, 11, 46, 100
13, 94992, Note_on_c, 11, 70, 100
13, 95000, Note_on_c, 11, 44, 8
13, 95016, Note_off_c, 11, 70, 100
13, 95024, Note_off_c, 11, 44, 8
13, 95040, Note_on_c, 11, 44, 110
13, 95064, Note_off_c, 11, 44, 110
13, 95136, Note_on_c, 11, 46, 100
13, 95160, Note_off_c, 11, 46, 100
13, 95184, Note_on_c, 11, 70, 100
13, 95192, Note_on_c, 11, 44, 8
13, 95208, Note_off_c, 11, 70, 100
13, 95216, Note_off_c, 11, 44, 8
13, 95232, Note_on_c, 11, 44, 110
13, 95256, Note_off_c, 11, 44, 110
13, 95328, Note_on_c, 11, 46, 100
13, 95352, Note_off_c, 11, 46, 100
13, 95376, Note_on_c, 11, 70, 100
13, 95384, Note_on_c, 11, 44, 8
13, 95400, Note_off_c, 11, 70, 100
13, 95408, Note_off_c, 11, 44, 8
13, 95424, Note_on_c, 11, 44, 110
13, 95448, Note_off_c, 11, 44, 110
13, 95520, Note_on_c, 11, 46, 100
13, 95544, Note_off_c, 11, 46, 100
13, 95568, Note_on_c, 11, 70, 100
13, 95576, Note_on_c, 11, 44, 8
13, 95592, Note_off_c, 11, 70, 100
13, 95600, Note_off_c, 11, 44, 8
13, 95616, Note_on_c, 11, 44, 110
13, 95640, Note_off_c, 11, 44, 110
13, 95712, Note_on_c, 11, 46, 100
13, 95736, Note_off_c, 11, 46, 100
13, 95760, Note_on_c, 11, 70, 100
13, 95768, Note_on_c, 11, 44, 8
13, 95784, Note_off_c, 11, 70, 100
13, 95792, Note_off_c, 11, 44, 8
13, 95808, Note_on_c, 11, 44, 110
13, 95832, Note_off_c, 11, 44, 110
13, 95904, Note_on_c, 11, 46, 100
13, 95928, Note_off_c, 11, 46, 100
13, 95952, Note_on_c, 11, 70, 100
13, 95960, Note_on_c, 11, 44, 8
13, 95976, Note_off_c, 11, 70, 100
13, 95984, Note_off_c, 11, 44, 8
13, 96000, Note_on_c, 11, 44, 110
13, 96024, Note_off_c, 11, 44, 110
13, 96096, Note_on_c, 11, 46, 100
13, 96120, Note_off_c, 11, 46, 100
13, 96144, Note_on_c, 11, 70, 100
13, 96152, Note_on_c, 11, 44, 8
13, 96168, Note_off_c, 11, 70, 100
13, 96176, Note_off_c, 11, 44, 8
13, 96192, Note_on_c, 11, 44, 110
13, 96216, Note_off_c, 11, 44, 110
13, 96288, Note_on_c, 11, 46, 100
13, 96312, Note_off_c, 11, 46, 100
13, 96336, Note_on_c, 11, 70, 100
13, 96344, Note_on_c, 11, 44, 8
13, 96360, Note_off_c, 11, 70, 100
13, 96368, Note_off_c, 11, 44, 8
13, 96384, Note_on_c, 11, 44, 110
13, 96408, Note_off_c, 11, 44, 110
13, 96480, Note_on_c, 11, 46, 100
13, 96504, Note_off_c, 11, 46, 100
13, 96528, Note_on_c, 11, 70, 100
13, 96536, Note_on_c, 11, 44, 8
13, 96552, Note_off_c, 11, 70, 100
13, 96560, Note_off_c, 11, 44, 8
13, 96576, Note_on_c, 11, 44, 110
13, 96600, Note_off_c, 11, 44, 110
13, 96672, Note_on_c, 11, 46, 100
13, 96696, Note_off_c, 11, 46, 100
13, 96720, Note_on_c, 11, 70, 100
13, 96728, Note_on_c, 11, 44, 8
13, 96744, Note_off_c, 11, 70, 100
13, 96752, Note_off_c, 11, 44, 8
13, 96768, Note_on_c, 11, 44, 110
13, 96792, Note_off_c, 11, 44, 110
13, 96864, Note_on_c, 11, 46, 100
13, 96888, Note_off_c, 11, 46, 100
13, 96912, Note_on_c, 11, 70, 100
13, 96920, Note_on_c, 11, 44, 8
13, 96936, Note_off_c, 11, 70, 100
13, 96944, Note_off_c, 11, 44, 8
13, 96960, Note_on_c, 11, 44, 110
13, 96984, Note_off_c, 11, 44, 110
13, 97056, Note_on_c, 11, 46, 100
13, 97080, Note_off_c, 11, 46, 100
13, 97104, Note_on_c, 11, 70, 100
13, 97112, Note_on_c, 11, 44, 8
13, 97128, Note_off_c, 11, 70, 100
13, 97136, Note_off_c, 11, 44, 8
13, 97152, Note_on_c, 11, 44, 110
13, 97176, Note_off_c, 11, 44, 110
13, 97248, Note_on_c, 11, 46, 100
13, 97272, Note_off_c, 11, 46, 100
13, 97296, Note_on_c, 11, 70, 100
13, 97304, Note_on_c, 11, 44, 8
13, 97320, Note_off_c, 11, 70, 100
13, 97328, Note_off_c, 11, 44, 8
13, 97344, Note_on_c, 11, 44, 110
13, 97368, Note_off_c, 11, 44, 110
13, 97440, Note_on_c, 11, 46, 100
13, 97464, Note_off_c, 11, 46, 100
13, 97488, Note_on_c, 11, 70, 100
13, 97496, Note_on_c, 11, 44, 8
13, 97512, Note_off_c, 11, 70, 100
13, 97520, Note_off_c, 11, 44, 8
13, 97536, Note_on_c, 11, 44, 110
13, 97560, Note_off_c, 11, 44, 110
13, 97632, Note_on_c, 11, 46, 100
13, 97656, Note_off_c, 11, 46, 100
13, 97680, Note_on_c, 11, 70, 100
13, 97688, Note_on_c, 11, 44, 8
13, 97704, Note_off_c, 11, 70, 100
13, 97712, Note_off_c, 11, 44, 8
13, 97728, Note_on_c, 11, 44, 110
13, 97752, Note_off_c, 11, 44, 110
13, 97824, Note_on_c, 11, 46, 100
13, 97848, Note_off_c, 11, 46, 100
13, 97872, Note_on_c, 11, 70, 100
13, 97880, Note_on_c, 11, 44, 8
13, 97896, Note_off_c, 11, 70, 100
13, 97904, Note_off_c, 11, 44, 8
13, 97920, Note_on_c, 11, 44, 110
13, 97944, Note_off_c, 11, 44, 110
13, 98016, Note_on_c, 11, 46, 100
13, 98040, Note_off_c, 11, 46, 100
13, 98064, Note_on_c, 11, 70, 100
13, 98072, Note_on_c, 11, 44, 8
13, 98088, Note_off_c, 11, 70, 100
13, 98096, Note_off_c, 11, 44, 8
13, 98112, Note_on_c, 11, 44, 110
13, 98136, Note_off_c, 11, 44, 110
13, 98208, Note_on_c, 11, 46, 100
13, 98232, Note_off_c, 11, 46, 100
13, 98256, Note_on_c, 11, 70, 100
13, 98264, Note_on_c, 11, 44, 8
13, 98280, Note_off_c, 11, 70, 100
13, 98288, Note_off_c, 11, 44, 8
13, 98304, Note_on_c, 11, 44, 110
13, 98328, Note_off_c, 11, 44, 110
13, 98400, Note_on_c, 11, 46, 100
13, 98424, Note_off_c, 11, 46, 100
13, 98448, Note_on_c, 11, 70, 100
13, 98456, Note_on_c, 11, 44, 8
13, 98472, Note_off_c, 11, 70, 100
13, 98480, Note_off_c, 11, 44, 8
13, 98496, Note_on_c, 11, 44, 110
13, 98520, Note_off_c, 11, 44, 110
13, 98592, Note_on_c, 11, 46, 100
13, 98616, Note_off_c, 11, 46, 100
13, 98640, Note_on_c, 11, 70, 100
13, 98648, Note_on_c, 11, 44, 8
13, 98664, Note_off_c, 11, 70, 100
13, 98672, Note_off_c, 11, 44, 8
13, 98688, Note_on_c, 11, 44, 110
13, 98712, Note_off_c, 11, 44, 110
13, 98784, Note_on_c, 11, 46, 100
13, 98808, Note_off_c, 11, 46, 100
13, 98832, Note_on_c, 11, 70, 100
13, 98840, Note_on_c, 11, 44, 8
13, 98856, Note_off_c, 11, 70, 100
13, 98864, Note_off_c, 11, 44, 8
13, 98880, Note_on_c, 11, 44, 110
13, 98904, Note_off_c, 11, 44, 110
13, 98976, Note_on_c, 11, 46, 100
13, 99000, Note_off_c, 11, 46, 100
13, 99024, Note_on_c, 11, 70, 100
13, 99032, Note_on_c, 11, 44, 8
13, 99048, Note_off_c, 11, 70, 100
13, 99056, Note_off_c, 11, 44, 8
13, 99072, Note_on_c, 11, 44, 110
13, 99096, Note_off_c, 11, 44, 110
13, 99168, Note_on_c, 11, 46, 100
13, 99192, Note_off_c, 11, 46, 100
13, 99216, Note_on_c, 11, 70, 100
13, 99224, Note_on_c, 11, 44, 8
13, 99240, Note_off_c, 11, 70, 100
13, 99248, Note_off_c, 11, 44, 8
13, 99264, Note_on_c, 11, 44, 110
13, 99288, Note_off_c, 11, 44, 110
13, 99360, Note_on_c, 11, 46, 100
13, 99384, Note_off_c, 11, 46, 100
13, 99408, Note_on_c, 11, 70, 100
13, 99416, Note_on_c, 11, 44, 8
13, 99432, Note_off_c, 11, 70, 100
13, 99440, Note_off_c, 11, 44, 8
13, 99456, Note_on_c, 11, 44, 110
13, 99480, Note_off_c, 11, 44, 110
13, 99552, Note_on_c, 11, 46, 100
13, 99576, Note_off_c, 11, 46, 100
13, 99600, Note_on_c, 11, 70, 100
13, 99608, Note_on_c, 11, 44, 8
13, 99624, Note_off_c, 11, 70, 100
13, 99632, Note_off_c, 11, 44, 8
13, 99648, Note_on_c, 11, 44, 110
13, 99672, Note_off_c, 11, 44, 110
13, 99744, Note_on_c, 11, 46, 100
13, 99768, Note_off_c, 11, 46, 100
13, 99792, Note_on_c, 11, 70, 100
13, 99800, Note_on_c, 11, 44, 8
13, 99816, Note_off_c, 11, 70, 100
13, 99824, Note_off_c, 11, 44, 8
13, 99840, Note_on_c, 11, 44, 110
13, 99864, Note_off_c, 11, 44, 110
13, 99936, Note_on_c, 11, 46, 100
13, 99960, Note_off_c, 11, 46, 100
13, 99984, Note_on_c, 11, 70, 100
13, 99992, Note_on_c, 11, 44, 8
13, 100008, Note_off_c, 11, 70, 100
13, 100016, Note_off_c, 11, 44, 8
13, 100032, Note_on_c, 11, 44, 110
13, 100056, Note_off_c, 11, 44, 110
13, 100128, Note_on_c, 11, 46, 100
13, 100152, Note_off_c, 11, 46, 100
13, 100176, Note_on_c, 11, 70, 100
13, 100184, Note_on_c, 11, 44, 8
13, 100200, Note_off_c, 11, 70, 100
13, 100208, Note_off_c, 11, 44, 8
13, 100224, Note_on_c, 11, 44, 110
13, 100248, Note_off_c, 11, 44, 110
13, 100320, Note_on_c, 11, 46, 100
13, 100344, Note_off_c, 11, 46, 100
13, 100368, Note_on_c, 11, 70, 100
13, 100376, Note_on_c, 11, 44, 8
13, 100392, Note_off_c, 11, 70, 100
13, 100400, Note_off_c, 11, 44, 8
13, 100416, Note_on_c, 11, 44, 110
13, 100440, Note_off_c, 11, 44, 110
13, 100512, Note_on_c, 11, 46, 100
13, 100536, Note_off_c, 11, 46, 100
13, 100560, Note_on_c, 11, 70, 100
13, 100568, Note_on_c, 11, 44, 8
13, 100584, Note_off_c, 11, 70, 100
13, 100592, Note_off_c, 11, 44, 8
13, 100608, Note_on_c, 11, 44, 110
13, 100632, Note_off_c, 11, 44, 110
13, 100704, Note_on_c, 11, 46, 100
13, 100728, Note_off_c, 11, 46, 100
13, 100752, Note_on_c, 11, 70, 100
13, 100760, Note_on_c, 11, 44, 8
13, 100776, Note_off_c, 11, 70, 100
13, 100784, Note_off_c, 11, 44, 8
13, 100800, Note_on_c, 11, 44, 110
13, 100824, Note_off_c, 11, 44, 110
13, 100896, Note_on_c, 11, 46, 100
13, 100920, Note_off_c, 11, 46, 100
13, 100944, Note_on_c, 11, 70, 100
13, 100952, Note_on_c, 11, 44, 8
13, 100968, Note_off_c, 11, 70, 100
13, 100976, Note_off_c, 11, 44, 8
13, 100992, Note_on_c, 11, 44, 110
13, 101016, Note_off_c, 11, 44, 110
13, 101088, Note_on_c, 11, 46, 100
13, 101112, Note_off_c, 11, 46, 100
13, 101136, Note_on_c, 11, 70, 100
13, 101144, Note_on_c, 11, 44, 8
13, 101160, Note_off_c, 11, 70, 100
13, 101168, Note_off_c, 11, 44, 8
13, 101184, Note_on_c, 11, 44, 110
13, 101208, Note_off_c, 11, 44, 110
13, 101280, Note_on_c, 11, 46, 100
13, 101304, Note_off_c, 11, 46, 100
13, 101328, Note_on_c, 11, 70, 100
13, 101336, Note_on_c, 11, 44, 8
13, 101352, Note_off_c, 11, 70, 100
13, 101360, Note_off_c, 11, 44, 8
13, 101376, Note_on_c, 11, 44, 110
13, 101400, Note_off_c, 11, 44, 110
13, 101472, Note_on_c, 11, 46, 100
13, 101496, Note_off_c, 11, 46, 100
13, 101520, Note_on_c, 11, 70, 100
13, 101528, Note_on_c, 11, 44, 8
13, 101544, Note_off_c, 11, 70, 100
13, 101552, Note_off_c, 11, 44, 8
13, 101568, Note_on_c, 11, 44, 110
13, 101592, Note_off_c, 11, 44, 110
13, 101664, Note_on_c, 11, 46, 100
13, 101688, Note_off_c, 11, 46, 100
13, 101712, Note_on_c, 11, 70, 100
13, 101720, Note_on_c, 11, 44, 8
13, 101736, Note_off_c, 11, 70, 100
13, 101744, Note_off_c, 11, 44, 8
13, 101760, Note_on_c, 11, 44, 110
13, 101784, Note_off_c, 11, 44, 110
13, 101856, Note_on_c, 11, 46, 100
13, 101880, Note_off_c, 11, 46, 100
13, 101904, Note_on_c, 11, 70, 100
13, 101912, Note_on_c, 11, 44, 8
13, 101928, Note_off_c, 11, 70, 100
13, 101936, Note_off_c, 11, 44, 8
13, 101952, Note_on_c, 11, 44, 110
13, 101976, Note_off_c, 11, 44, 110
13, 102048, Note_on_c, 11, 46, 100
13, 102072, Note_off_c, 11, 46, 100
13, 102096, Note_on_c, 11, 70, 100
13, 102104, Note_on_c, 11, 44, 8
13, 102120, Note_off_c, 11, 70, 100
13, 102128, Note_off_c, 11, 44, 8
13, 102144, Note_on_c, 11, 44, 110
13, 102168, Note_off_c, 11, 44, 110
13, 102240, Note_on_c, 11, 46, 100
13, 102264, Note_off_c, 11, 46, 100
13, 102288, Note_on_c, 11, 70, 100
13, 102296, Note_on_c, 11, 44, 8
13, 102312, Note_off_c, 11, 70, 100
13, 102320, Note_off_c, 11, 44, 8
13, 102336, Note_on_c, 11, 44, 110
13, 102360, Note_off_c, 11, 44, 110
13, 102432, Note_on_c, 11, 46, 100
13, 102456, Note_off_c, 11, 46, 100
13, 102480, Note_on_c, 11, 70, 100
13, 102488, Note_on_c, 11, 44, 8
13, 102504, Note_off_c, 11, 70, 100
13, 102512, Note_off_c, 11, 44, 8
13, 102528, Note_on_c, 11, 44, 110
13, 102552, Note_off_c, 11, 44, 110
13, 102624, Note_on_c, 11, 46, 100
13, 102648, Note_off_c, 11, 46, 100
13, 102672, Note_on_c, 11, 70, 100
13, 102680, Note_on_c, 11, 44, 8
13, 102696, Note_off_c, 11, 70, 100
13, 102704, Note_off_c, 11, 44, 8
13, 102720, Note_on_c, 11, 44, 110
13, 102744, Note_off_c, 11, 44, 110
13, 102816, Note_on_c, 11, 46, 100
13, 102840, Note_off_c, 11, 46, 100
13, 102864, Note_on_c, 11, 70, 100
13, 102872, Note_on_c, 11, 44, 8
13, 102888, Note_off_c, 11, 70, 100
13, 102896, Note_off_c, 11, 44, 8
13, 102912, Note_on_c, 11, 44, 110
13, 102936, Note_off_c, 11, 44, 110
13, 103008, Note_on_c, 11, 46, 100
13, 103032, Note_off_c, 11, 46, 100
13, 103056, Note_on_c, 11, 70, 100
13, 103064, Note_on_c, 11, 44, 8
13, 103080, Note_off_c, 11, 70, 100
13, 103088, Note_off_c, 11, 44, 8
13, 103104, Note_on_c, 11, 44, 110
13, 103128, Note_off_c, 11, 44, 110
13, 103200, Note_on_c, 11, 46, 100
13, 103224, Note_off_c, 11, 46, 100
13, 103248, Note_on_c, 11, 70, 100
13, 103256, Note_on_c, 11, 44, 8
13, 103272, Note_off_c, 11, 70, 100
13, 103280, Note_off_c, 11, 44, 8
13, 103296, Note_on_c, 11, 44, 110
13, 103320, Note_off_c, 11, 44, 110
13, 103392, Note_on_c, 11, 46, 100
13, 103416, Note_off_c, 11, 46, 100
13, 103440, Note_on_c, 11, 70, 100
13, 103448, Note_on_c, 11, 44, 8
13, 103464, Note_off_c, 11, 70, 100
13, 103472, Note_off_c, 11, 44, 8
13, 103488, Note_on_c, 11, 44, 110
13, 103512, Note_off_c, 11, 44, 110
13, 103584, Note_on_c, 11, 46, 100
13, 103608, Note_off_c, 11, 46, 100
13, 103632, Note_on_c, 11, 70, 100
13, 103640, Note_on_c, 11, 44, 8
13, 103656, Note_off_c, 11, 70, 100
13, 103664, Note_off_c, 11, 44, 8
13, 103680, Note_on_c, 11, 44, 110
13, 103704, Note_off_c, 11, 44, 110
13, 103776, Note_on_c, 11, 46, 100
13, 103800, Note_off_c, 11, 46, 100
13, 103824, Note_on_c, 11, 70, 100
13, 103832, Note_on_c, 11, 44, 8
13, 103848, Note_off_c, 11, 70, 100
13, 103856, Note_off_c, 11, 44, 8
13, 103872, Note_on_c, 11, 44, 110
13, 103896, Note_off_c, 11, 44, 110
13, 103968, Note_on_c, 11, 46, 100
13, 103992, Note_off_c, 11, 46, 100
13, 104016, Note_on_c, 11, 70, 100
13, 104024, Note_on_c, 11, 44, 8
13, 104040, Note_off_c, 11, 70, 100
13, 104048, Note_off_c, 11, 44, 8
13, 104064, Note_on_c, 11, 44, 110
13, 104088, Note_off_c, 11, 44, 110
13, 104160, Note_on_c, 11, 46, 100
13, 104184, Note_off_c, 11, 46, 100
13, 104208, Note_on_c, 11, 70, 100
13, 104216, Note_on_c, 11, 44, 8
13, 104232, Note_off_c, 11, 70, 100
13, 104240, Note_off_c, 11, 44, 8
13, 104256, Note_on_c, 11, 44, 110
13, 104280, Note_off_c, 11, 44, 110
13, 104352, Note_on_c, 11, 46, 100
13, 104376, Note_off_c, 11, 46, 100
13, 104400, Note_on_c, 11, 70, 100
13, 104408, Note_on_c, 11, 44, 8
13, 104424, Note_off_c, 11, 70, 100
13, 104432, Note_off_c, 11, 44, 8
13, 104448, Note_on_c, 11, 44, 110
13, 104472, Note_off_c, 11, 44, 110
13, 104544, Note_on_c, 11, 46, 100
13, 104568, Note_off_c, 11, 46, 100
13, 104592, Note_on_c, 11, 70, 100
13, 104600, Note_on_c, 11, 44, 8
13, 104616, Note_off_c, 11, 70, 100
13, 104624, Note_off_c, 11, 44, 8
13, 104640, Note_on_c, 11, 44, 110
13, 104664, Note_off_c, 11, 44, 110
13, 104736, Note_on_c, 11, 46, 100
13, 104760, Note_off_c, 11, 46, 100
13, 104784, Note_on_c, 11, 70, 100
13, 104792, Note_on_c, 11, 44, 8
13, 104808, Note_off_c, 11, 70, 100
13, 104816, Note_off_c, 11, 44, 8
13, 104832, Note_on_c, 11, 44, 110
13, 104856, Note_off_c, 11, 44, 110
13, 104928, Note_on_c, 11, 46, 100
13, 104952, Note_off_c, 11, 46, 100
13, 104976, Note_on_c, 11, 70, 100
13, 104984, Note_on_c, 11, 44, 8
13, 105000, Note_off_c, 11, 70, 100
13, 105008, Note_off_c, 11, 44, 8
13, 105024, Note_on_c, 11, 44, 110
13, 105048, Note_off_c, 11, 44, 110
13, 105120, Note_on_c, 11, 46, 100
13, 105144, Note_off_c, 11, 46, 100
13, 105168, Note_on_c, 11, 70, 100
13, 105176, Note_on_c, 11, 44, 8
13, 105192, Note_off_c, 11, 70, 100
13, 105200, Note_off_c, 11, 44, 8
13, 105216, Note_on_c, 11, 44, 110
13, 105240, Note_off_c, 11, 44, 110
13, 105312, Note_on_c, 11, 46, 100
13, 105336, Note_off_c, 11, 46, 100
13, 105360, Note_on_c, 11, 70, 100
13, 105368, Note_on_c, 11, 44, 8
13, 105384, Note_off_c, 11, 70, 100
13, 105392, Note_off_c, 11, 44, 8
13, 105408, Note_on_c, 11, 44, 110
13, 105432, Note_off_c, 11, 44, 110
13, 105504, Note_on_c, 11, 46, 100
13, 105528, Note_off_c, 11, 46, 100
13, 105552, Note_on_c, 11, 70, 100
13, 105560, Note_on_c, 11, 44, 8
13, 105576, Note_off_c, 11, 70, 100
13, 105584, Note_off_c, 11, 44, 8
13, 105600, Note_on_c, 11, 44, 110
13, 105624, Note_off_c, 11, 44, 110
13, 105696, Note_on_c, 11, 46, 100
13, 105720, Note_off_c, 11, 46, 100
13, 105744, Note_on_c, 11, 70, 100
13, 105752, Note_on_c, 11, 44, 8
13, 105768, Note_off_c, 11, 70, 100
13, 105776, Note_off_c, 11, 44, 8
13, 105792, Note_on_c, 11, 44, 110
13, 105816, Note_off_c, 11, 44, 110
13, 105888, Note_on_c, 11, 46, 100
13, 105912, Note_off_c, 11, 46, 100
13, 105936, Note_on_c, 11, 70, 100
13, 105944, Note_on_c, 11, 44, 8
13, 105960, Note_off_c, 11, 70, 100
13, 105968, Note_off_c, 11, 44, 8
13, 105984, Note_on_c, 11, 44, 110
13, 106008, Note_off_c, 11, 44, 110
13, 106080, Note_on_c, 11, 46, 100
13, 106104, Note_off_c, 11, 46, 100
13, 106128, Note_on_c, 11, 70, 100
13, 106136, Note_on_c, 11, 44, 8
13, 106152, Note_off_c, 11, 70, 100
13, 106160, Note_off_c, 11, 44, 8
13, 106176, Note_on_c, 11, 44, 110
13, 106200, Note_off_c, 11, 44, 110
13, 106272, Note_on_c, 11, 46, 100
13, 106296, Note_off_c, 11, 46, 100
13, 106320, Note_on_c, 11, 70, 100
13, 106328, Note_on_c, 11, 44, 8
13, 106344, Note_off_c, 11, 70, 100
13, 106352, Note_off_c, 11, 44, 8
13, 106368, Note_on_c, 11, 44, 110
13, 106392, Note_off_c, 11, 44, 110
13, 106464, Note_on_c, 11, 46, 100
13, 106488, Note_off_c, 11, 46, 100
13, 106512, Note_on_c, 11, 70, 100
13, 106520, Note_on_c, 11, 44, 8
13, 106536, Note_off_c, 11, 70, 100
13, 106544, Note_off_c, 11, 44, 8
13, 106560, Note_on_c, 11, 44, 110
13, 106584, Note_off_c, 11, 44, 110
13, 106656, Note_on_c, 11, 46, 100
13, 106680, Note_off_c, 11, 46, 100
13, 106704, Note_on_c, 11, 70, 100
13, 106712, Note_on_c, 11, 44, 8
13, 106728, Note_off_c, 11, 70, 100
13, 106736, Note_off_c, 11, 44, 8
13, 106752, Note_on_c, 11, 44, 110
13, 106776, Note_off_c, 11, 44, 110
13, 106848, Note_on_c, 11, 46, 100
13, 106872, Note_off_c, 11, 46, 100
13, 106896, Note_on_c, 11, 70, 100
13, 106904, Note_on_c, 11, 44, 8
13, 106920, Note_off_c, 11, 70, 100
13, 106928, Note_off_c, 11, 44, 8
13, 106944, Note_on_c, 11, 44, 110
13, 106968, Note_off_c, 11, 44, 110
13, 107040, Note_on_c, 11, 46, 100
13, 107064, Note_off_c, 11, 46, 100
13, 107088, Note_on_c, 11, 70, 100
13, 107096, Note_on_c, 11, 44, 8
13, 107112, Note_off_c, 11, 70, 100
13, 107120, Note_off_c, 11, 44, 8
13, 107136, Note_on_c, 11, 44, 110
13, 107160, Note_off_c, 11, 44, 110
13, 107232, Note_on_c, 11, 46, 100
13, 107256, Note_off_c, 11, 46, 100
13, 107280, Note_on_c, 11, 70, 100
13, 107288, Note_on_c, 11, 44, 8
13, 107304, Note_off_c, 11, 70, 100
13, 107312, Note_off_c, 11, 44, 8
13, 107328, Note_on_c, 11, 44, 110
13, 107352, Note_off_c, 11, 44, 110
13, 107424, Note_on_c, 11, 46, 100
13, 107448, Note_off_c, 11, 46, 100
13, 107472, Note_on_c, 11, 70, 100
13, 107480, Note_on_c, 11, 44, 8
13, 107496, Note_off_c, 11, 70, 100
13, 107504, Note_off_c, 11, 44, 8
13, 107520, Note_on_c, 11, 44, 110
13, 107544, Note_off_c, 11, 44, 110
13, 107616, Note_on_c, 11, 46, 100
13, 107640, Note_off_c, 11, 46, 100
13, 107664, Note_on_c, 11, 70, 100
13, 107672, Note_on_c, 11, 44, 8
13, 107688, Note_off_c, 11, 70, 100
13, 107696, Note_off_c, 11, 44, 8
13, 107712, Note_on_c, 11, 44, 110
13, 107736, Note_off_c, 11, 44, 110
13, 107808, Note_on_c, 11, 46, 100
13, 107832, Note_off_c, 11, 46, 100
13, 107856, Note_on_c, 11, 70, 100
13, 107864, Note_on_c, 11, 44, 8
13, 107880, Note_off_c, 11, 70, 100
13, 107888, Note_off_c, 11, 44, 8
13, 107904, Note_on_c, 11, 44, 110
13, 107928, Note_off_c, 11, 44, 110
13, 108000, Note_on_c, 11, 46, 100
13, 108024, Note_off_c, 11, 46, 100
13, 108048, Note_on_c, 11, 70, 100
13, 108056, Note_on_c, 11, 44, 8
13, 108072, Note_off_c, 11, 70, 100
13, 108080, Note_off_c, 11, 44, 8
13, 108096, Note_on_c, 11, 44, 110
13, 108120, Note_off_c, 11, 44, 110
13, 108192, Note_on_c, 11, 46, 100
13, 108216, Note_off_c, 11, 46, 100
13, 108240, Note_on_c, 11, 70, 100
13, 108248, Note_on_c, 11, 44, 8
13, 108264, Note_off_c, 11, 70, 100
13, 108272, Note_off_c, 11, 44, 8
13, 108288, Note_on_c, 11, 44, 110
13, 108312, Note_off_c, 11, 44, 110
13, 108384, Note_on_c, 11, 46, 100
13, 108408, Note_off_c, 11, 46, 100
13, 108432, Note_on_c, 11, 70, 100
13, 108440, Note_on_c, 11, 44, 8
13, 108456, Note_off_c, 11, 70, 100
13, 108464, Note_off_c, 11, 44, 8
13, 108480, Note_on_c, 11, 44, 110
13, 108504, Note_off_c, 11, 44, 110
13, 108576, Note_on_c, 11, 46, 100
13, 108600, Note_off_c, 11, 46, 100
13, 108624, Note_on_c, 11, 70, 100
13, 108632, Note_on_c, 11, 44, 8
13, 108648, Note_off_c, 11, 70, 100
13, 108656, Note_off_c, 11, 44, 8
13, 108672, Note_on_c, 11, 44, 110
13, 108696, Note_off_c, 11, 44, 110
13, 108768, Note_on_c, 11, 46, 100
13, 108792, Note_off_c, 11, 46, 100
13, 108816, Note_on_c, 11, 70, 100
13, 108824, Note_on_c, 11, 44, 8
13, 108840, Note_off_c, 11, 70, 100
13, 108848, Note_off_c, 11, 44, 8
13, 108864, Note_on_c, 11, 44, 110
13, 108888, Note_off_c, 11, 44, 110
13, 108960, Note_on_c, 11, 46, 100
13, 108984, Note_off_c, 11, 46, 100
13, 109008, Note_on_c, 11, 70, 100
13, 109016, Note_on_c, 11, 44, 8
13, 109032, Note_off_c, 11, 70, 100
13, 109040, Note_off_c, 11, 44, 8
13, 109056, Note_on_c, 11, 44, 110
13, 109080, Note_off_c, 11, 44, 110
13, 109152, Note_on_c, 11, 46, 100
13, 109176, Note_off_c, 11, 46, 100
13, 109200, Note_on_c, 11, 70, 100
13, 109208, Note_on_c, 11, 44, 8
13, 109224, Note_off_c, 11, 70, 100
13, 109232, Note_off_c, 11, 44, 8
13, 109248, Note_on_c, 11, 44, 110
13, 109272, Note_off_c, 11, 44, 110
13, 109344, Note_on_c, 11, 46, 100
13, 109368, Note_off_c, 11, 46, 100
13, 109392, Note_on_c, 11, 70, 100
13, 109400, Note_on_c, 11, 44, 8
13, 109416, Note_off_c, 11, 70, 100
13, 109424, Note_off_c, 11, 44, 8
13, 109440, Note_on_c, 11, 44, 110
13, 109464, Note_off_c, 11, 44, 110
13, 109536, Note_on_c, 11, 46, 100
13, 109560, Note_off_c, 11, 46, 100
13, 109584, Note_on_c, 11, 70, 100
13, 109592, Note_on_c, 11, 44, 8
13, 109608, Note_off_c, 11, 70, 100
13, 109616, Note_off_c, 11, 44, 8
13, 109632, Note_on_c, 11, 44, 110
13, 109656, Note_off_c, 11, 44, 110
13, 109728, Note_on_c, 11, 46, 100
13, 109752, Note_off_c, 11, 46, 100
13, 109776, Note_on_c, 11, 70, 100
13, 109784, Note_on_c, 11, 44, 8
13, 109800, Note_off_c, 11, 70, 100
13, 109808, Note_off_c, 11, 44, 8
13, 109824, Note_on_c, 11, 44, 110
13, 109848, Note_off_c, 11, 44, 110
13, 109920, Note_on_c, 11, 46, 100
13, 109944, Note_off_c, 11, 46, 100
13, 109968, Note_on_c, 11, 70, 100
13, 109976, Note_on_c, 11, 44, 8
13, 109992, Note_off_c, 11, 70, 100
13, 110000, Note_off_c, 11, 44, 8
13, 110016, Note_on_c, 11, 44, 110
13, 110040, Note_off_c, 11, 44, 110
13, 110112, Note_on_c, 11, 46, 100
13, 110136, Note_off_c, 11, 46, 100
13, 110160, Note_on_c, 11, 70, 100
13, 110168, Note_on_c, 11, 44, 8
13, 110184, Note_off_c, 11, 70, 100
13, 110192, Note_off_c, 11, 44, 8
13, 110208, Note_on_c, 11, 44, 110
13, 110232, Note_off_c, 11, 44, 110
13, 110304, Note_on_c, 11, 46, 100
13, 110328, Note_off_c, 11, 46, 100
13, 110352, Note_on_c, 11, 70, 100
13, 110360, Note_on_c, 11, 44, 8
13, 110376, Note_off_c, 11, 70, 100
13, 110384, Note_off_c, 11, 44, 8
13, 110400, Note_on_c, 11, 44, 110
13, 110424, Note_off_c, 11, 44, 110
13, 110496, Note_on_c, 11, 46, 100
13, 110520, Note_off_c, 11, 46, 100
13, 110544, Note_on_c, 11, 70, 100
13, 110552, Note_on_c, 11, 44, 8
13, 110568, Note_off_c, 11, 70, 100
13, 110576, Note_off_c, 11, 44, 8
13, 110592, Note_on_c, 11, 44, 110
13, 110616, Note_off_c, 11, 44, 110
13, 110688, Note_on_c, 11, 46, 100
13, 110712, Note_off_c, 11, 46, 100
13, 110736, Note_on_c, 11, 70, 100
13, 110744, Note_on_c, 11, 44, 8
13, 110760, Note_off_c, 11, 70, 100
13, 110768, Note_off_c, 11, 44, 8
13, 110784, Note_on_c, 11, 44, 110
13, 110808, Note_off_c, 11, 44, 110
13, 110880, Note_on_c, 11, 46, 100
13, 110904, Note_off_c, 11, 46, 100
13, 110928, Note_on_c, 11, 70, 100
13, 110936, Note_on_c, 11, 44, 8
13, 110952, Note_off_c, 11, 70, 100
13, 110960, Note_off_c, 11, 44, 8
13, 110976, Note_on_c, 11, 44, 110
13, 111000, Note_off_c, 11, 44, 110
13, 111072, Note_on_c, 11, 46, 100
13, 111096, Note_off_c, 11, 46, 100
13, 111120, Note_on_c, 11, 70, 100
13, 111128, Note_on_c, 11, 44, 8
13, 111144, Note_off_c, 11, 70, 100
13, 111152, Note_off_c, 11, 44, 8
13, 111168, Note_on_c, 11, 44, 110
13, 111192, Note_off_c, 11, 44, 110
13, 111264, Note_on_c, 11, 46, 100
13, 111288, Note_off_c, 11, 46, 100
13, 111312, Note_on_c, 11, 70, 100
13, 111320, Note_on_c, 11, 44, 8
13, 111336, Note_off_c, 11, 70, 100
13, 111344, Note_off_c, 11, 44, 8
13, 111360, Note_on_c, 11, 44, 110
13, 111384, Note_off_c, 11, 44, 110
13, 111456, Note_on_c, 11, 46, 100
13, 111480, Note_off_c, 11, 46, 100
13, 111504, Note_on_c, 11, 70, 100
13, 111512, Note_on_c, 11, 44, 8
13, 111528, Note_off_c, 11, 70, 100
13, 111536, Note_off_c, 11, 44, 8
13, 111552, Note_on_c, 11, 44, 110
13, 111576, Note_off_c, 11, 44, 110
13, 111648, Note_on_c, 11, 46, 100
13, 111672, Note_off_c, 11, 46, 100
13, 111696, Note_on_c, 11, 70, 100
13, 111704, Note_on_c, 11, 44, 8
13, 111720, Note_off_c, 11, 70, 100
13, 111728, Note_off_c, 11, 44, 8
13, 111744, Note_on_c, 11, 44, 110
13, 111768, Note_off_c, 11, 44, 110
13, 111840, Note_on_c, 11, 46, 100
13, 111864, Note_off_c, 11, 46, 100
13, 111888, Note_on_c, 11, 70, 100
13, 111896, Note_on_c, 11, 44, 8
13, 111912, Note_off_c, 11, 70, 100
13, 111920, Note_off_c, 11, 44, 8
13, 111936, Note_on_c, 11, 44, 110
13, 111960, Note_off_c, 11, 44, 110
13, 112032, Note_on_c, 11, 46, 100
13, 112056, Note_off_c, 11, 46, 100
13, 112080, Note_on_c, 11, 70, 100
13, 112088, Note_on_c, 11, 44, 8
13, 112104, Note_off_c, 11, 70, 100
13, 112112, Note_off_c, 11, 44, 8
13, 112128, Note_on_c, 11, 44, 110
13, 112152, Note_off_c, 11, 44, 110
13, 112224, Note_on_c, 11, 46, 100
13, 112248, Note_off_c, 11, 46, 100
13, 112272, Note_on_c, 11, 70, 100
13, 112280, Note_on_c, 11, 44, 8
13, 112296, Note_off_c, 11, 70, 100
13, 112304, Note_off_c, 11, 44, 8
13, 112320, Note_on_c, 11, 44, 110
13, 112344, Note_off_c, 11, 44, 110
13, 112416, Note_on_c, 11, 46, 100
13, 112440, Note_off_c, 11, 46, 100
13, 112464, Note_on_c, 11, 70, 100
13, 112472, Note_on_c, 11, 44, 8
13, 112488, Note_off_c, 11, 70, 100
13, 112496, Note_off_c, 11, 44, 8
13, 112512, Note_on_c, 11, 44, 110
13, 112536, Note_off_c, 11, 44, 110
13, 112608, Note_on_c, 11, 46, 100
13, 112632, Note_off_c, 11, 46, 100
13, 112656, Note_on_c, 11, 70, 100
13, 112664, Note_on_c, 11, 44, 8
13, 112680, Note_off_c, 11, 70, 100
13, 112688, Note_off_c, 11, 44, 8
13, 112704, Note_on_c, 11, 44, 110
13, 112728, Note_off_c, 11, 44, 110
13, 112800, Note_on_c, 11, 46, 100
13, 112824, Note_off_c, 11, 46, 100
13, 112848, Note_on_c, 11, 70, 100
13, 112856, Note_on_c, 11, 44, 8
13, 112872, Note_off_c, 11, 70, 100
13, 112880, Note_off_c, 11, 44, 8
13, 112896, Note_on_c, 11, 44, 110
13, 112920, Note_off_c, 11, 44, 110
13, 112992, Note_on_c, 11, 46, 100
13, 113016, Note_off_c, 11, 46, 100
13, 113040, Note_on_c, 11, 70, 100
13, 113048, Note_on_c, 11, 44, 8
13, 113064, Note_off_c, 11, 70, 100
13, 113072, Note_off_c, 11, 44, 8
13, 113088, Note_on_c, 11, 44, 110
13, 113112, Note_off_c, 11, 44, 110
13, 113184, Note_on_c, 11, 46, 100
13, 113208, Note_off_c, 11, 46, 100
13, 113232, Note_on_c, 11, 70, 100
13, 113240, Note_on_c, 11, 44, 8
13, 113256, Note_off_c, 11, 70, 100
13, 113264, Note_off_c, 11, 44, 8
13, 113280, Note_on_c, 11, 44, 110
13, 113304, Note_off_c, 11, 44, 110
13, 113376, Note_on_c, 11, 46, 100
13, 113400, Note_off_c, 11, 46, 100
13, 113424, Note_on_c, 11, 70, 100
13, 113432, Note_on_c, 11, 44, 8
13, 113448, Note_off_c, 11, 70, 100
13, 113456, Note_off_c, 11, 44, 8
13, 113472, Note_on_c, 11, 44, 110
13, 113496, Note_off_c, 11, 44, 110
13, 113568, Note_on_c, 11, 46, 100
13, 113592, Note_off_c, 11, 46, 100
13, 113616, Note_on_c, 11, 70, 100
13, 113624, Note_on_c, 11, 44, 8
13, 113640, Note_off_c, 11, 70, 100
13, 113648, Note_off_c, 11, 44, 8
13, 113664, Note_on_c, 11, 44, 110
13, 113688, Note_off_c, 11, 44, 110
13, 113760, Note_on_c, 11, 46, 100
13, 113784, Note_off_c, 11, 46, 100
13, 113808, Note_on_c, 11, 70, 100
13, 113816, Note_on_c, 11, 44, 8
13, 113832, Note_off_c, 11, 70, 100
13, 113840, Note_off_c, 11, 44, 8
13, 113856, Note_on_c, 11, 44, 110
13, 113880, Note_off_c, 11, 44, 110
13, 113952, Note_on_c, 11, 46, 100
13, 113976, Note_off_c, 11, 46, 100
13, 114000, Note_on_c, 11, 70, 100
13, 114008, Note_on_c, 11, 44, 8
13, 114024, Note_off_c, 11, 70, 100
13, 114032, Note_off_c, 11, 44, 8
13, 114048, Note_on_c, 11, 44, 110
13, 114072, Note_off_c, 11, 44, 110
13, 114144, Note_on_c, 11, 46, 100
13, 114168, Note_off_c, 11, 46, 100
13, 114192, Note_on_c, 11, 70, 100
13, 114200, Note_on_c, 11, 44, 8
13, 114216, Note_off_c, 11, 70, 100
13, 114224, Note_off_c, 11, 44, 8
13, 114240, Note_on_c, 11, 44, 110
13, 114264, Note_off_c, 11, 44, 110
13, 114336, Note_on_c, 11, 46, 100
13, 114360, Note_off_c, 11, 46, 100
13, 114384, Note_on_c, 11, 70, 100
13, 114392, Note_on_c, 11, 44, 8
13, 114408, Note_off_c, 11, 70, 100
13, 114416, Note_off_c, 11, 44, 8
13, 114432, Note_on_c, 11, 44, 110
13, 114456, Note_off_c, 11, 44, 110
13, 114528, Note_on_c, 11, 46, 100
13, 114552, Note_off_c, 11, 46, 100
13, 114576, Note_on_c, 11, 70, 100
13, 114584, Note_on_c, 11, 44, 8
13, 114600, Note_off_c, 11, 70, 100
13, 114608, Note_off_c, 11, 44, 8
13, 114624, Note_on_c, 11, 44, 110
13, 114648, Note_off_c, 11, 44, 110
13, 114720, Note_on_c, 11, 46, 100
13, 114744, Note_off_c, 11, 46, 100
13, 114768, Note_on_c, 11, 70, 100
13, 114776, Note_on_c, 11, 44, 8
13, 114792, Note_off_c, 11, 70, 100
13, 114800, Note_off_c, 11, 44, 8
13, 114816, Note_on_c, 11, 44, 110
13, 114840, Note_off_c, 11, 44, 110
13, 114912, Note_on_c, 11, 46, 100
13, 114936, Note_off_c, 11, 46, 100
13, 114960, Note_on_c, 11, 70, 100
13, 114968, Note_on_c, 11, 44, 8
13, 114984, Note_off_c, 11, 70, 100
13, 114992, Note_off_c, 11, 44, 8
13, 115008, Note_on_c, 11, 44, 110
13, 115032, Note_off_c, 11, 44, 110
13, 115104, Note_on_c, 11, 46, 100
13, 115128, Note_off_c, 11, 46, 100
13, 115152, Note_on_c, 11, 70, 100
13, 115160, Note_on_c, 11, 44, 8
13, 115176, Note_off_c, 11, 70, 100
13, 115184, Note_off_c, 11, 44, 8
13, 115200, Note_on_c, 11, 44, 110
13, 115224, Note_off_c, 11, 44, 110
13, 115296, Note_on_c, 11, 46, 100
13, 115320, Note_off_c, 11, 46, 100
13, 115344, Note_on_c, 11, 70, 100
13, 115352, Note_on_c, 11, 44, 8
13, 115368, Note_off_c, 11, 70, 100
13, 115376, Note_off_c, 11, 44, 8
13, 115392, Note_on_c, 11, 44, 110
13, 115416, Note_off_c, 11, 44, 110
13, 115488, Note_on_c, 11, 46, 100
13, 115512, Note_off_c, 11, 46, 100
13, 115536, Note_on_c, 11, 70, 100
13, 115544, Note_on_c, 11, 44, 8
13, 115560, Note_off_c, 11, 70, 100
13, 115568, Note_off_c, 11, 44, 8
13, 115584, Note_on_c, 11, 44, 110
13, 115608, Note_off_c, 11, 44, 110
13, 115680, Note_on_c, 11, 46, 100
13, 115704, Note_off_c, 11, 46, 100
13, 115728, Note_on_c, 11, 70, 100
13, 115736, Note_on_c, 11, 44, 8
13, 115752, Note_off_c, 11, 70, 100
13, 115760, Note_off_c, 11, 44, 8
13, 115776, Note_on_c, 11, 44, 110
13, 115800, Note_off_c, 11, 44, 110
13, 115872, Note_on_c, 11, 46, 100
13, 115896, Note_off_c, 11, 46, 100
13, 115920, Note_on_c, 11, 70, 100
13, 115928, Note_on_c, 11, 44, 8
13, 115944, Note_off_c, 11, 70, 100
13, 115952, Note_off_c, 11, 44, 8
13, 115968, Note_on_c, 11, 44, 110
13, 115992, Note_off_c, 11, 44, 110
13, 116064, Note_on_c, 11, 46, 100
13, 116088, Note_off_c, 11, 46, 100
13, 116112, Note_on_c, 11, 70, 100
13, 116120, Note_on_c, 11, 44, 8
13, 116136, Note_off_c, 11, 70, 100
13, 116144, Note_off_c, 11, 44, 8
13, 116160, Note_on_c, 11, 44, 110
13, 116184, Note_off_c, 11, 44, 110
13, 116256, Note_on_c, 11, 46, 100
13, 116280, Note_off_c, 11, 46, 100
13, 116304, Note_on_c, 11, 70, 100
13, 116312, Note_on_c, 11, 44, 8
13, 116328, Note_off_c, 11, 70, 100
13, 116336, Note_off_c, 11, 44, 8
13, 116352, Note_on_c, 11, 44, 110
13, 116376, Note_off_c, 11, 44, 110
13, 116448, Note_on_c, 11, 46, 100
13, 116472, Note_off_c, 11, 46, 100
13, 116496, Note_on_c, 11, 70, 100
13, 116504, Note_on_c, 11, 44, 8
13, 116520, Note_off_c, 11, 70, 100
13, 116528, Note_off_c, 11, 44, 8
13, 116544, Note_on_c, 11, 44, 110
13, 116568, Note_off_c, 11, 44, 110
13, 116640, Note_on_c, 11, 46, 100
13, 116664, Note_off_c, 11, 46, 100
13, 116688, Note_on_c, 11, 70, 100
13, 116696, Note_on_c, 11, 44, 8
13, 116712, Note_off_c, 11, 70, 100
13, 116720, Note_off_c, 11, 44, 8
13, 116736, Note_on_c, 11, 44, 110
13, 116760, Note_off_c, 11, 44, 110
13, 116832, Note_on_c, 11, 46, 100
13, 116856, Note_off_c, 11, 46, 100
13, 116880, Note_on_c, 11, 70, 100
13, 116888, Note_on_c, 11, 44, 8
13, 116904, Note_off_c, 11, 70, 100
13, 116912, Note_off_c, 11, 44, 8
13, 116928, Note_on_c, 11, 44, 110
13, 116952, Note_off_c, 11, 44, 110
13, 117024, Note_on_c, 11, 46, 100
13, 117048, Note_off_c, 11, 46, 100
13, 117072, Note_on_c, 11, 70, 100
13, 117080, Note_on_c, 11, 44, 8
13, 117096, Note_off_c, 11, 70, 100
13, 117104, Note_off_c, 11, 44, 8
13, 117120, Note_on_c, 11, 44, 110
13, 117144, Note_off_c, 11, 44, 110
13, 117216, Note_on_c, 11, 46, 100
13, 117240, Note_off_c, 11, 46, 100
13, 117264, Note_on_c, 11, 70, 100
13, 117272, Note_on_c, 11, 44, 8
13, 117288, Note_off_c, 11, 70, 100
13, 117296, Note_off_c, 11, 44, 8
13, 117312, Note_on_c, 11, 44, 110
13, 117336, Note_off_c, 11, 44, 110
13, 117408, Note_on_c, 11, 46, 100
13, 117432, Note_off_c, 11, 46, 100
13, 117456, Note_on_c, 11, 70, 100
13, 117464, Note_on_c, 11, 44, 8
13, 117480, Note_off_c, 11, 70, 100
13, 117488, Note_off_c, 11, 44, 8
13, 117504, Note_on_c, 11, 44, 110
13, 117528, Note_off_c, 11, 44, 110
13, 117600, Note_on_c, 11, 46, 100
13, 117624, Note_off_c, 11, 46, 100
13, 117648, Note_on_c, 11, 70, 100
13, 117656, Note_on_c, 11, 44, 8
13, 117672, Note_off_c, 11, 70, 100
13, 117680, Note_off_c, 11, 44, 8
13, 117696, Note_on_c, 11, 44, 110
13, 117720, Note_off_c, 11, 44, 110
13, 117792, Note_on_c, 11, 46, 100
13, 117816, Note_off_c, 11, 46, 100
13, 117840, Note_on_c, 11, 70, 100
13, 117848, Note_on_c, 11, 44, 8
13, 117864, Note_off_c, 11, 70, 100
13, 117872, Note_off_c, 11, 44, 8
13, 117888, Note_on_c, 11, 44, 110
13, 117912, Note_off_c, 11, 44, 110
13, 117984, Note_on_c, 11, 46, 100
13, 118008, Note_off_c, 11, 46, 100
13, 118032, Note_on_c, 11, 70, 100
13, 118040, Note_on_c, 11, 44, 8
13, 118056, Note_off_c, 11, 70, 100
13, 118064, Note_off_c, 11, 44, 8
13, 118080, Note_on_c, 11, 44, 110
13, 118104, Note_off_c, 11, 44, 110
13, 118176, Note_on_c, 11, 46, 100
13, 118200, Note_off_c, 11, 46, 100
13, 118224, Note_on_c, 11, 70, 100
13, 118232, Note_on_c, 11, 44, 8
13, 118248, Note_off_c, 11, 70, 100
13, 118256, Note_off_c, 11, 44, 8
13, 118272, Note_on_c, 11, 44, 110
13, 118296, Note_off_c, 11, 44, 110
13, 118368, Note_on_c, 11, 46, 100
13, 118392, Note_off_c, 11, 46, 100
13, 118416, Note_on_c, 11, 70, 100
13, 118424, Note_on_c, 11, 44, 8
13, 118440, Note_off_c, 11, 70, 100
13, 118448, Note_off_c, 11, 44, 8
13, 118464, Note_on_c, 11, 44, 110
13, 118488, Note_off_c, 11, 44, 110
13, 118560, Note_on_c, 11, 46, 100
13, 118584, Note_off_c, 11, 46, 100
13, 118608, Note_on_c, 11, 70, 100
13, 118616, Note_on_c, 11, 44, 8
13, 118632, Note_off_c, 11, 70, 100
13, 118640, Note_off_c, 11, 44, 8
13, 118656, Note_on_c, 11, 44, 110
13, 118680, Note_off_c, 11, 44, 110
13, 118752, Note_on_c, 11, 46, 100
13, 118776, Note_off_c, 11, 46, 100
13, 118800, Note_on_c, 11, 70, 100
13, 118808, Note_on_c, 11, 44, 8
13, 118824, Note_off_c, 11, 70, 100
13, 118832, Note_off_c, 11, 44, 8
13, 118848, Note_on_c, 11, 44, 110
13, 118872, Note_off_c, 11, 44, 110
13, 118944, Note_on_c, 11, 46, 100
13, 118968, Note_off_c, 11, 46, 100
13, 118992, Note_on_c, 11, 70, 100
13, 119000, Note_on_c, 11, 44, 8
13, 119016, Note_off_c, 11, 70, 100
13, 119024, Note_off_c, 11, 44, 8
13, 119040, Note_on_c, 11, 44, 110
13, 119064, Note_off_c, 11, 44, 110
13, 119136, Note_on_c, 11, 46, 100
13, 119160, Note_off_c, 11, 46, 100
13, 119184, Note_on_c, 11, 70, 100
13, 119192, Note_on_c, 11, 44, 8
13, 119208, Note_off_c, 11, 70, 100
13, 119216, Note_off_c, 11, 44, 8
13, 119232, Note_on_c, 11, 44, 110
13, 119256, Note_off_c, 11, 44, 110
13, 119328, Note_on_c, 11, 46, 100
13, 119352, Note_off_c, 11, 46, 100
13, 119376, Note_on_c, 11, 70, 100
13, 119384, Note_on_c, 11, 44, 8
13, 119400, Note_off_c, 11, 70, 100
13, 119408, Note_off_c, 11, 44, 8
13, 119424, Note_on_c, 11, 44, 110
13, 119448, Note_off_c, 11, 44, 110
13, 119520, Note_on_c, 11, 46, 100
13, 119544, Note_off_c, 11, 46, 100
13, 119568, Note_on_c, 11, 70, 100
13, 119576, Note_on_c, 11, 44, 8
13, 119592, Note_off_c, 11, 70, 100
13, 119600, Note_off_c, 11, 44, 8
13, 119616, Note_on_c, 11, 44, 110
13, 119640, Note_off_c, 11, 44, 110
13, 119712, Note_on_c, 11, 46, 100
13, 119736, Note_off_c, 11, 46, 100
13, 119760, Note_on_c, 11, 70, 100
13, 119768, Note_on_c, 11, 44, 8
13, 119784, Note_off_c, 11, 70, 100
13, 119792, Note_off_c, 11, 44, 8
13, 119808, Note_on_c, 11, 44, 110
13, 119832, Note_off_c, 11, 44, 110
13, 119904, Note_on_c, 11, 46, 100
13, 119928, Note_off_c, 11, 46, 100
13, 119952, Note_on_c, 11, 70, 100
13, 119960, Note_on_c, 11, 44, 8
13, 119976, Note_off_c, 11, 70, 100
13, 119984, Note_off_c, 11, 44, 8
13, 120000, Note_on_c, 11, 44, 110
13, 120024, Note_off_c, 11, 44, 110
13, 120096, Note_on_c, 11, 46, 100
13, 120120, Note_off_c, 11, 46, 100
13, 120144, Note_on_c, 11, 70, 100
13, 120152, Note_on_c, 11, 44, 8
13, 120168, Note_off_c, 11, 70, 100
13, 120176, Note_off_c, 11, 44, 8
13, 120192, Note_on_c, 11, 44, 110
13, 120216, Note_off_c, 11, 44, 110
13, 120288, Note_on_c, 11, 46, 100
13, 120312, Note_off_c, 11, 46, 100
13, 120336, Note_on_c, 11, 70, 100
13, 120344, Note_on_c, 11, 44, 8
13, 120360, Note_off_c, 11, 70, 100
13, 120368, Note_off_c, 11, 44, 8
13, 120384, Note_on_c, 11, 44, 110
13, 120408, Note_off_c, 11, 44, 110
13, 120480, Note_on_c, 11, 46, 100
13, 120504, Note_off_c, 11, 46, 100
13, 120528, Note_on_c, 11, 70, 100
13, 120536, Note_on_c, 11, 44, 8
13, 120552, Note_off_c, 11, 70, 100
13, 120560, Note_off_c, 11, 44, 8
13, 120576, Note_on_c, 11, 44, 110
13, 120600, Note_off_c, 11, 44, 110
13, 120672, Note_on_c, 11, 46, 100
13, 120696, Note_off_c, 11, 46, 100
13, 120720, Note_on_c, 11, 70, 100
13, 120728, Note_on_c, 11, 44, 8
13, 120744, Note_off_c, 11, 70, 100
13, 120752, Note_off_c, 11, 44, 8
13, 120768, Note_on_c, 11, 44, 110
13, 120792, Note_off_c, 11, 44, 110
13, 120864, Note_on_c, 11, 46, 100
13, 120888, Note_off_c, 11, 46, 100
13, 120912, Note_on_c, 11, 70, 100
13, 120920, Note_on_c, 11, 44, 8
13, 120936, Note_off_c, 11, 70, 100
13, 120944, Note_off_c, 11, 44, 8
13, 120960, Note_on_c, 11, 44, 110
13, 120984, Note_off_c, 11, 44, 110
13, 121056, Note_on_c, 11, 46, 100
13, 121080, Note_off_c, 11, 46, 100
13, 121104, Note_on_c, 11, 70, 100
13, 121112, Note_on_c, 11, 44, 8
13, 121128, Note_off_c, 11, 70, 100
13, 121136, Note_off_c, 11, 44, 8
13, 121152, Note_on_c, 11, 44, 110
13, 121176, Note_off_c, 11, 44, 110
13, 121248, Note_on_c, 11, 46, 100
13, 121272, Note_off_c, 11, 46, 100
13, 121296, Note_on_c, 11, 70, 100
13, 121304, Note_on_c, 11, 44, 8
13, 121320, Note_off_c, 11, 70, 100
13, 121328, Note_off_c, 11, 44, 8
13, 121344, Note_on_c, 11, 44, 110
13, 121368, Note_off_c, 11, 44, 110
13, 121440, Note_on_c, 11, 46, 100
13, 121464, Note_off_c, 11, 46, 100
13, 121488, Note_on_c, 11, 70, 100
13, 121496, Note_on_c, 11, 44, 8
13, 121512, Note_off_c, 11, 70, 100
13, 121520, Note_off_c, 11, 44, 8
13, 121536, Note_on_c, 11, 44, 110
13, 121560, Note_off_c, 11, 44, 110
13, 121632, Note_on_c, 11, 46, 100
13, 121656, Note_off_c, 11, 46, 100
13, 121680, Note_on_c, 11, 70, 100
13, 121688, Note_on_c, 11, 44, 8
13, 121704, Note_off_c, 11, 70, 100
13, 121712, Note_off_c, 11, 44, 8
13, 121728, Note_on_c, 11, 44, 110
13, 121752, Note_off_c, 11, 44, 110
13, 121824, Note_on_c, 11, 46, 100
13, 121848, Note_off_c, 11, 46, 100
13, 121872, Note_on_c, 11, 70, 100
13, 121880, Note_on_c, 11, 44, 8
13, 121896, Note_off_c, 11, 70, 100
13, 121904, Note_off_c, 11, 44, 8
13, 121920, Note_on_c, 11, 44, 110
13, 121944, Note_off_c, 11, 44, 110
13, 122016, Note_on_c, 11, 46, 100
13, 122040, Note_off_c, 11, 46, 100
13, 122064, Note_on_c, 11, 70, 100
13, 122072, Note_on_c, 11, 44, 8
13, 178592, Note_off_c, 11, 70, 100
13, 178608, Note_off_c, 11, 44, 8
13, 178608, End_track
14, 0, Start_track
14, 0, Text_t, "Bow Glass"
14, 2880, Control_c, 12, 0, 0
14, 2882, Control_c, 12, 32, 0
14, 2884, Program_c, 12, 92
14, 2886, Control_c, 12, 7, 100
14, 2888, Control_c, 12, 10, 64
14, 2890, Control_c, 12, 11, 90
14, 2892, Control_c, 12, 91, 40
14, 2894, Control_c, 12, 93, 60
14, 98208, Note_on_c, 12, 79, 100
14, 98300, Note_off_c, 12, 79, 100
14, 98304, Note_on_c, 12, 86, 100
14, 98592, Note_off_c, 12, 86, 100
14, 98784, Note_on_c, 12, 82, 100
14, 98876, Note_off_c, 12, 82, 100
14, 98880, Note_on_c, 12, 84, 100
14, 98972, Note_off_c, 12, 84, 100
14, 98976, Note_on_c, 12, 79, 100
14, 99168, Note_off_c, 12, 79, 100
14, 99168, Note_on_c, 12, 82, 100
14, 99260, Note_off_c, 12, 82, 100
14, 99264, Note_on_c, 12, 84, 100
14, 99356, Note_off_c, 12, 84, 100
14, 99360, Note_on_c, 12, 77, 100
14, 99552, Note_off_c, 12, 77, 100
14, 99552, Note_on_c, 12, 82, 100
14, 99644, Note_off_c, 12, 82, 100
14, 99744, Note_on_c, 12, 79, 100
14, 99836, Note_off_c, 12, 79, 100
14, 99840, Note_on_c, 12, 86, 100
14, 100128, Note_off_c, 12, 86, 100
14, 100320, Note_on_c, 12, 82, 100
14, 100412, Note_off_c, 12, 82, 100
14, 100416, Note_on_c, 12, 84, 100
14, 100508, Note_off_c, 12, 84, 100
14, 100512, Note_on_c, 12, 79, 100
14, 100704, Note_off_c, 12, 79, 100
14, 100704, Note_on_c, 12, 82, 100
14, 100796, Note_off_c, 12, 82, 100
14, 100800, Note_on_c, 12, 84, 100
14, 100892, Note_off_c, 12, 84, 100
14, 100896, Note_on_c, 12, 77, 100
14, 101088, Note_off_c, 12, 77, 100
14, 101280, Note_on_c, 12, 79, 100
14, 101372, Note_off_c, 12, 79, 100
14, 101376, Note_on_c, 12, 86, 100
14, 101664, Note_off_c, 12, 86, 100
14, 101856, Note_on_c, 12, 82, 100
14, 101948, Note_off_c, 12, 82, 100
14, 101952, Note_on_c, 12, 84, 100
14, 102044, Note_off_c, 12, 84, 100
14, 102048, Note_on_c, 12, 79, 100
14, 102240, Note_off_c, 12, 79, 100
14, 102240, Note_on_c, 12, 82, 100
14, 102332, Note_off_c, 12, 82, 100
14, 102336, Note_on_c, 12, 84, 100
14, 102428, Note_off_c, 12, 84, 100
14, 102432, Note_on_c, 12, 77, 100
14, 102624, Note_off_c, 12, 77, 100
14, 102624, Note_on_c, 12, 82, 100
14, 102716, Note_off_c, 12, 82, 100
14, 102816, Note_on_c, 12, 79, 100
14, 102908, Note_off_c, 12, 79, 100
14, 102912, Note_on_c, 12, 86, 100
14, 103200, Note_off_c, 12, 86, 100
14, 103392, Note_on_c, 12, 82, 100
14, 103484, Note_off_c, 12, 82, 100
14, 103488, Note_on_c, 12, 86, 100
14, 103580, Note_off_c, 12, 86, 100
14, 103584, Note_on_c, 12, 84, 100
14, 103872, Note_off_c, 12, 84, 100
14, 104352, Note_on_c, 12, 79, 100
14, 104444, Note_off_c, 12, 79, 100
14, 104448, Note_on_c, 12, 86, 100
14, 104736, Note_off_c, 12, 86, 100
14, 104928, Note_on_c, 12, 82, 100
14, 105020, Note_off_c, 12, 82, 100
14, 105024, Note_on_c, 12, 84, 100
14, 105116, Note_off_c, 12, 84, 100
14, 105120, Note_on_c, 12, 79, 100
14, 105312, Note_off_c, 12, 79, 100
14, 105312, Note_on_c, 12, 82, 100
14, 105404, Note_off_c, 12, 82, 100
14, 105408, Note_on_c, 12, 84, 100
14, 105500, Note_off_c, 12, 84, 100
14, 105504, Note_on_c, 12, 77, 100
14, 105696, Note_off_c, 12, 77, 100
14, 105696, Note_on_c, 12, 82, 100
14, 105788, Note_off_c, 12, 82, 100
14, 105888, Note_on_c, 12, 79, 100
14, 105980, Note_off_c, 12, 79, 100
14, 105984, Note_on_c, 12, 86, 100
14, 106272, Note_off_c, 12, 86, 100
14, 106464, Note_on_c, 12, 82, 100
14, 106556, Note_off_c, 12, 82, 100
14, 106560, Note_on_c, 12, 84, 100
14, 106652, Note_off_c, 12, 84, 100
14, 106656, Note_on_c, 12, 79, 100
14, 106848, Note_off_c, 12, 79, 100
14, 106848, Note_on_c, 12, 82, 100
14, 106940, Note_off_c, 12, 82, 100
14, 106944, Note_on_c, 12, 84, 100
14, 107036, Note_off_c, 12, 84, 100
14, 107040, Note_on_c, 12, 77, 100
14, 107232, Note_off_c, 12, 77, 100
14, 107424, Note_on_c, 12, 79, 100
14, 107516, Note_off_c, 12, 79, 100
14, 107520, Note_on_c, 12, 86, 100
14, 107808, Note_off_c, 12, 86, 100
14, 108000, Note_on_c, 12, 82, 100
14, 108092, Note_off_c, 12, 82, 100
14, 108096, Note_on_c, 12, 84, 100
14, 108188, Note_off_c, 12, 84, 100
14, 108192, Note_on_c, 12, 79, 100
14, 108384, Note_off_c, 12, 79, 100
14, 108384, Note_on_c, 12, 82, 100
14, 108476, Note_off_c, 12, 82, 100
14, 108480, Note_on_c, 12, 84, 100
14, 108572, Note_off_c, 12, 84, 100
14, 108576, Note_on_c, 12, 77, 100
14, 108768, Note_off_c, 12, 77, 100
14, 108768, Note_on_c, 12, 82, 100
14, 108860, Note_off_c, 12, 82, 100
14, 108960, Note_on_c, 12, 79, 100
14, 109052, Note_off_c, 12, 79, 100
14, 109056, Note_on_c, 12, 86, 100
14, 109344, Note_off_c, 12, 86, 100
14, 109536, Note_on_c, 12, 82, 100
14, 109628, Note_off_c, 12, 82, 100
14, 109632, Note_on_c, 12, 86, 100
14, 109724, Note_off_c, 12, 86, 100
14, 109728, Note_on_c, 12, 84, 100
14, 110016, Note_off_c, 12, 84, 100
14, 110016, End_track
15, 0, Start_track
15, 0, Text_t, "Fall Bloc"
15, 2880, Control_c, 13, 0, 0
15, 2882, Control_c, 13, 32, 0
15, 2884, Program_c, 13, 115
15, 2886, Control_c, 13, 7, 100
15, 2888, Control_c, 13, 10, 96
15, 2890, Control_c, 13, 11, 89
15, 2892, Control_c, 13, 91, 40
15, 2894, Control_c, 13, 93, 0
15, 27648, Control_c, 13, 11, 120
15, 27648, Note_on_c, 13, 118, 80
15, 27672, Note_off_c, 13, 118, 80
15, 27696, Note_on_c, 13, 117, 80
15, 27720, Note_off_c, 13, 117, 80
15, 27744, Note_on_c, 13, 116, 80
15, 27768, Note_off_c, 13, 116, 80
15, 27792, Note_on_c, 13, 115, 80
15, 27816, Note_off_c, 13, 115, 80
15, 27840, Note_on_c, 13, 114, 80
15, 27864, Note_off_c, 13, 114, 80
15, 27888, Note_on_c, 13, 113, 80
15, 27912, Note_off_c, 13, 113, 80
15, 27936, Note_on_c, 13, 112, 80
15, 27960, Note_off_c, 13, 112, 80
15, 27984, Note_on_c, 13, 111, 80
15, 28008, Note_off_c, 13, 111, 80
15, 28016, Control_c, 13, 11, 114
15, 28032, Note_on_c, 13, 110, 80
15, 28056, Note_off_c, 13, 110, 80
15, 28080, Note_on_c, 13, 109, 80
15, 28104, Note_off_c, 13, 109, 80
15, 28128, Note_on_c, 13, 108, 80
15, 28152, Note_off_c, 13, 108, 80
15, 28176, Note_on_c, 13, 107, 80
15, 28200, Note_off_c, 13, 107, 80
15, 28224, Note_on_c, 13, 106, 80
15, 28248, Note_off_c, 13, 106, 80
15, 28272, Note_on_c, 13, 105, 80
15, 28296, Note_off_c, 13, 105, 80
15, 28320, Note_on_c, 13, 104, 80
15, 28344, Note_off_c, 13, 104, 80
15, 28368, Note_on_c, 13, 103, 80
15, 28392, Note_off_c, 13, 103, 80
15, 28416, Control_c, 13, 11, 105
15, 28416, Note_on_c, 13, 102, 80
15, 28440, Note_off_c, 13, 102, 80
15, 28464, Note_on_c, 13, 101, 80
15, 28488, Note_off_c, 13, 101, 80
15, 28512, Note_on_c, 13, 100, 80
15, 28536, Note_off_c, 13, 100, 80
15, 28560, Note_on_c, 13, 99, 80
15, 28584, Note_off_c, 13, 99, 80
15, 28608, Note_on_c, 13, 98, 80
15, 28632, Note_off_c, 13, 98, 80
15, 28656, Note_on_c, 13, 97, 80
15, 28680, Note_off_c, 13, 97, 80
15, 28704, Note_on_c, 13, 96, 80
15, 28728, Note_off_c, 13, 96, 80
15, 28752, Note_on_c, 13, 95, 80
15, 28776, Note_off_c, 13, 95, 80
15, 28784, Control_c, 13, 11, 97
15, 28800, Note_on_c, 13, 94, 80
15, 28824, Note_off_c, 13, 94, 80
15, 28848, Note_on_c, 13, 93, 80
15, 28872, Note_off_c, 13, 93, 80
15, 28896, Note_on_c, 13, 92, 80
15, 28920, Note_off_c, 13, 92, 80
15, 28944, Note_on_c, 13, 91, 80
15, 28968, Note_off_c, 13, 91, 80
15, 28992, Note_on_c, 13, 90, 80
15, 29016, Note_off_c, 13, 90, 80
15, 29040, Note_on_c, 13, 89, 80
15, 29064, Note_off_c, 13, 89, 80
15, 29088, Note_on_c, 13, 88, 80
15, 29112, Note_off_c, 13, 88, 80
15, 29136, Note_on_c, 13, 87, 80
15, 29160, Note_off_c, 13, 87, 80
15, 29184, Control_c, 13, 11, 89
15, 29184, Note_on_c, 13, 86, 80
15, 29208, Note_off_c, 13, 86, 80
15, 29232, Note_on_c, 13, 85, 80
15, 29256, Note_off_c, 13, 85, 80
15, 29280, Note_on_c, 13, 84, 80
15, 29304, Note_off_c, 13, 84, 80
15, 29328, Note_on_c, 13, 83, 80
15, 29352, Note_off_c, 13, 83, 80
15, 29376, Note_on_c, 13, 82, 80
15, 29400, Note_off_c, 13, 82, 80
15, 29424, Note_on_c, 13, 81, 80
15, 29448, Note_off_c, 13, 81, 80
15, 29472, Note_on_c, 13, 80, 80
15, 29496, Note_off_c, 13, 80, 80
15, 29520, Note_on_c, 13, 79, 80
15, 29544, Note_off_c, 13, 79, 80
15, 29568, Note_on_c, 13, 78, 80
15, 29592, Note_off_c, 13, 78, 80
15, 29600, Control_c, 13, 11, 77
15, 29616, Note_on_c, 13, 77, 80
15, 29640, Note_off_c, 13, 77, 80
15, 29664, Note_on_c, 13, 76, 80
15, 29688, Note_off_c, 13, 76, 80
15, 29712, Note_on_c, 13, 75, 80
15, 29736, Note_off_c, 13, 75, 80
15, 29760, Note_on_c, 13, 74, 80
15, 29784, Note_off_c, 13, 74, 80
15, 29808, Note_on_c, 13, 73, 80
15, 29832, Note_off_c, 13, 73, 80
15, 29856, Note_on_c, 13, 72, 80
15, 29880, Note_off_c, 13, 72, 80
15, 29904, Note_on_c, 13, 71, 80
15, 29928, Note_off_c, 13, 71, 80
15, 29952, Control_c, 13, 11, 68
15, 29952, Note_on_c, 13, 70, 80
15, 29976, Note_off_c, 13, 70, 80
15, 30000, Note_on_c, 13, 69, 80
15, 30024, Note_off_c, 13, 69, 80
15, 30048, Note_on_c, 13, 68, 80
15, 30072, Note_off_c, 13, 68, 80
15, 30096, Note_on_c, 13, 67, 80
15, 30120, Note_off_c, 13, 67, 80
15, 30144, Note_on_c, 13, 66, 80
15, 30160, Control_c, 13, 11, 64
15, 30168, Note_off_c, 13, 66, 80
15, 30192, Note_on_c, 13, 65, 80
15, 30216, Note_off_c, 13, 65, 80
15, 30240, Note_on_c, 13, 64, 80
15, 30264, Note_off_c, 13, 64, 80
15, 30288, Note_on_c, 13, 63, 80
15, 30312, Note_off_c, 13, 63, 80
15, 30320, Control_c, 13, 11, 60
15, 30336, Note_on_c, 13, 62, 80
15, 30360, Note_off_c, 13, 62, 80
15, 30384, Note_on_c, 13, 61, 80
15, 30408, Note_off_c, 13, 61, 80
15, 30432, Note_on_c, 13, 60, 80
15, 30456, Note_off_c, 13, 60, 80
15, 30480, Note_on_c, 13, 59, 80
15, 30504, Note_off_c, 13, 59, 80
15, 30528, Control_c, 13, 11, 54
15, 30528, Note_on_c, 13, 58, 80
15, 30552, Note_off_c, 13, 58, 80
15, 30576, Note_on_c, 13, 57, 80
15, 30600, Note_off_c, 13, 57, 80
15, 30624, Note_on_c, 13, 56, 80
15, 30648, Note_off_c, 13, 56, 80
15, 30672, Note_on_c, 13, 55, 80
15, 30696, Note_off_c, 13, 55, 80
15, 49152, Control_c, 13, 11, 105
15, 49152, Note_on_c, 13, 102, 100
15, 49176, Note_off_c, 13, 102, 100
15, 49200, Note_on_c, 13, 101, 100
15, 49224, Note_off_c, 13, 101, 100
15, 49248, Note_on_c, 13, 100, 100
15, 49272, Note_off_c, 13, 100, 100
15, 49296, Note_on_c, 13, 99, 100
15, 49320, Note_off_c, 13, 99, 100
15, 49344, Note_on_c, 13, 98, 100
15, 49368, Note_off_c, 13, 98, 100
15, 49392, Note_on_c, 13, 97, 100
15, 49416, Note_off_c, 13, 97, 100
15, 49440, Note_on_c, 13, 96, 100
15, 49464, Note_off_c, 13, 96, 100
15, 49488, Note_on_c, 13, 95, 100
15, 49512, Note_off_c, 13, 95, 100
15, 49520, Control_c, 13, 11, 97
15, 49536, Note_on_c, 13, 94, 100
15, 49560, Note_off_c, 13, 94, 100
15, 49584, Note_on_c, 13, 93, 100
15, 49608, Note_off_c, 13, 93, 100
15, 49632, Note_on_c, 13, 92, 100
15, 49656, Note_off_c, 13, 92, 100
15, 49680, Note_on_c, 13, 91, 100
15, 49704, Note_off_c, 13, 91, 100
15, 49728, Note_on_c, 13, 90, 100
15, 49752, Note_off_c, 13, 90, 100
15, 49776, Note_on_c, 13, 89, 100
15, 49800, Note_off_c, 13, 89, 100
15, 49824, Note_on_c, 13, 88, 100
15, 49848, Note_off_c, 13, 88, 100
15, 49872, Note_on_c, 13, 87, 100
15, 49896, Note_off_c, 13, 87, 100
15, 49920, Control_c, 13, 11, 89
15, 49920, Note_on_c, 13, 86, 100
15, 49944, Note_off_c, 13, 86, 100
15, 49968, Note_on_c, 13, 85, 100
15, 49992, Note_off_c, 13, 85, 100
15, 50016, Note_on_c, 13, 84, 100
15, 50040, Note_off_c, 13, 84, 100
15, 50064, Note_on_c, 13, 83, 100
15, 50088, Note_off_c, 13, 83, 100
15, 50112, Note_on_c, 13, 82, 100
15, 50136, Note_off_c, 13, 82, 100
15, 50160, Note_on_c, 13, 81, 100
15, 50184, Note_off_c, 13, 81, 100
15, 50208, Note_on_c, 13, 80, 100
15, 50232, Note_off_c, 13, 80, 100
15, 50256, Note_on_c, 13, 79, 100
15, 50280, Note_off_c, 13, 79, 100
15, 50304, Note_on_c, 13, 78, 100
15, 50328, Note_off_c, 13, 78, 100
15, 50336, Control_c, 13, 11, 77
15, 50352, Note_on_c, 13, 77, 100
15, 50376, Note_off_c, 13, 77, 100
15, 50400, Note_on_c, 13, 76, 100
15, 50424, Note_off_c, 13, 76, 100
15, 50448, Note_on_c, 13, 75, 100
15, 50472, Note_off_c, 13, 75, 100
15, 50496, Note_on_c, 13, 74, 100
15, 50520, Note_off_c, 13, 74, 100
15, 50544, Note_on_c, 13, 73, 100
15, 50568, Note_off_c, 13, 73, 100
15, 50592, Note_on_c, 13, 72, 100
15, 50616, Note_off_c, 13, 72, 100
15, 50640, Note_on_c, 13, 71, 100
15, 50664, Note_off_c, 13, 71, 100
15, 67584, Control_c, 13, 11, 120
15, 67584, Note_on_c, 13, 118, 80
15, 67608, Note_off_c, 13, 118, 80
15, 67632, Note_on_c, 13, 117, 80
15, 67656, Note_off_c, 13, 117, 80
15, 67680, Note_on_c, 13, 116, 80
15, 67704, Note_off_c, 13, 116, 80
15, 67728, Note_on_c, 13, 115, 80
15, 67752, Note_off_c, 13, 115, 80
15, 67776, Note_on_c, 13, 114, 80
15, 67800, Note_off_c, 13, 114, 80
15, 67824, Note_on_c, 13, 113, 80
15, 67848, Note_off_c, 13, 113, 80
15, 67872, Note_on_c, 13, 112, 80
15, 67896, Note_off_c, 13, 112, 80
15, 67920, Note_on_c, 13, 111, 80
15, 67944, Note_off_c, 13, 111, 80
15, 67952, Control_c, 13, 11, 114
15, 67968, Note_on_c, 13, 110, 80
15, 67992, Note_off_c, 13, 110, 80
15, 68016, Note_on_c, 13, 109, 80
15, 68040, Note_off_c, 13, 109, 80
15, 68064, Note_on_c, 13, 108, 80
15, 68088, Note_off_c, 13, 108, 80
15, 68112, Note_on_c, 13, 107, 80
15, 68136, Note_off_c, 13, 107, 80
15, 68160, Note_on_c, 13, 106, 80
15, 68184, Note_off_c, 13, 106, 80
15, 68208, Note_on_c, 13, 105, 80
15, 68232, Note_off_c, 13, 105, 80
15, 68256, Note_on_c, 13, 104, 80
15, 68280, Note_off_c, 13, 104, 80
15, 68304, Note_on_c, 13, 103, 80
15, 68328, Note_off_c, 13, 103, 80
15, 68352, Control_c, 13, 11, 105
15, 68352, Note_on_c, 13, 102, 80
15, 68376, Note_off_c, 13, 102, 80
15, 68400, Note_on_c, 13, 101, 80
15, 68424, Note_off_c, 13, 101, 80
15, 68448, Note_on_c, 13, 100, 80
15, 68472, Note_off_c, 13, 100, 80
15, 68496, Note_on_c, 13, 99, 80
15, 68520, Note_off_c, 13, 99, 80
15, 68544, Note_on_c, 13, 98, 80
15, 68568, Note_off_c, 13, 98, 80
15, 68592, Note_on_c, 13, 97, 80
15, 68616, Note_off_c, 13, 97, 80
15, 68640, Note_on_c, 13, 96, 80
15, 68664, Note_off_c, 13, 96, 80
15, 68688, Note_on_c, 13, 95, 80
15, 68712, Note_off_c, 13, 95, 80
15, 68720, Control_c, 13, 11, 97
15, 68736, Note_on_c, 13, 94, 80
15, 68760, Note_off_c, 13, 94, 80
15, 68784, Note_on_c, 13, 93, 80
15, 68808, Note_off_c, 13, 93, 80
15, 68832, Note_on_c, 13, 92, 80
15, 68856, Note_off_c, 13, 92, 80
15, 68880, Note_on_c, 13, 91, 80
15, 68904, Note_off_c, 13, 91, 80
15, 68928, Note_on_c, 13, 90, 80
15, 68952, Note_off_c, 13, 90, 80
15, 68976, Note_on_c, 13, 89, 80
15, 69000, Note_off_c, 13, 89, 80
15, 69024, Note_on_c, 13, 88, 80
15, 69048, Note_off_c, 13, 88, 80
15, 69072, Note_on_c, 13, 87, 80
15, 69096, Note_off_c, 13, 87, 80
15, 69120, Control_c, 13, 11, 89
15, 69120, Note_on_c, 13, 86, 80
15, 69144, Note_off_c, 13, 86, 80
15, 69168, Note_on_c, 13, 85, 80
15, 69192, Note_off_c, 13, 85, 80
15, 69216, Note_on_c, 13, 84, 80
15, 69240, Note_off_c, 13, 84, 80
15, 69264, Note_on_c, 13, 83, 80
15, 69288, Note_off_c, 13, 83, 80
15, 69312, Note_on_c, 13, 82, 80
15, 69336, Note_off_c, 13, 82, 80
15, 69360, Note_on_c, 13, 81, 80
15, 69384, Note_off_c, 13, 81, 80
15, 69408, Note_on_c, 13, 80, 80
15, 69432, Note_off_c, 13, 80, 80
15, 69456, Note_on_c, 13, 79, 80
15, 69480, Note_off_c, 13, 79, 80
15, 69504, Note_on_c, 13, 78, 80
15, 69528, Note_off_c, 13, 78, 80
15, 69536, Control_c, 13, 11, 77
15, 69552, Note_on_c, 13, 77, 80
15, 69576, Note_off_c, 13, 77, 80
15, 69600, Note_on_c, 13, 76, 80
15, 69624, Note_off_c, 13, 76, 80
15, 69648, Note_on_c, 13, 75, 80
15, 69672, Note_off_c, 13, 75, 80
15, 69696, Note_on_c, 13, 74, 80
15, 69720, Note_off_c, 13, 74, 80
15, 69744, Note_on_c, 13, 73, 80
15, 69768, Note_off_c, 13, 73, 80
15, 69792, Note_on_c, 13, 72, 80
15, 69816, Note_off_c, 13, 72, 80
15, 69840, Note_on_c, 13, 71, 80
15, 69864, Note_off_c, 13, 71, 80
15, 69888, Control_c, 13, 11, 68
15, 69888, Note_on_c, 13, 70, 80
15, 69912, Note_off_c, 13, 70, 80
15, 69936, Note_on_c, 13, 69, 80
15, 69960, Note_off_c, 13, 69, 80
15, 69984, Note_on_c, 13, 68, 80
15, 70008, Note_off_c, 13, 68, 80
15, 70032, Note_on_c, 13, 67, 80
15, 70056, Note_off_c, 13, 67, 80
15, 70080, Note_on_c, 13, 66, 80
15, 70096, Control_c, 13, 11, 64
15, 70104, Note_off_c, 13, 66, 80
15, 70128, Note_on_c, 13, 65, 80
15, 70152, Note_off_c, 13, 65, 80
15, 70176, Note_on_c, 13, 64, 80
15, 70200, Note_off_c, 13, 64, 80
15, 70224, Note_on_c, 13, 63, 80
15, 70248, Note_off_c, 13, 63, 80
15, 70256, Control_c, 13, 11, 60
15, 70272, Note_on_c, 13, 62, 80
15, 70296, Note_off_c, 13, 62, 80
15, 70320, Note_on_c, 13, 61, 80
15, 70344, Note_off_c, 13, 61, 80
15, 70368, Note_on_c, 13, 60, 80
15, 70392, Note_off_c, 13, 60, 80
15, 70416, Note_on_c, 13, 59, 80
15, 70440, Note_off_c, 13, 59, 80
15, 70464, Control_c, 13, 11, 54
15, 70464, Note_on_c, 13, 58, 80
15, 70488, Note_off_c, 13, 58, 80
15, 70512, Note_on_c, 13, 57, 80
15, 70536, Note_off_c, 13, 57, 80
15, 70560, Note_on_c, 13, 56, 80
15, 70584, Note_off_c, 13, 56, 80
15, 70584, End_track
16, 0, Start_track
16, 0, Text_t, "TR808 Sla"
16, 2880, Control_c, 14, 0, 0
16, 2882, Control_c, 14, 32, 0
16, 2884, Program_c, 14, 25
16, 2886, Control_c, 14, 7, 100
16, 2888, Control_c, 14, 10, 64
16, 2890, Control_c, 14, 11, 107
16, 2892, Control_c, 14, 91, 110
16, 2894, Control_c, 14, 93, 0
16, 9168, Note_on_c, 14, 28, 127
16, 9204, Note_off_c, 14, 28, 127
16, 12192, Note_on_c, 14, 28, 127
16, 12228, Note_off_c, 14, 28, 127
16, 18336, Note_on_c, 14, 28, 127
16, 18372, Note_off_c, 14, 28, 127
16, 21312, Note_on_c, 14, 28, 127
16, 21348, Note_off_c, 14, 28, 127
16, 24480, Note_on_c, 14, 28, 127
16, 24516, Note_off_c, 14, 28, 127
16, 27456, Note_on_c, 14, 28, 127
16, 27492, Note_off_c, 14, 28, 127
16, 36768, Note_on_c, 14, 28, 127
16, 36804, Note_off_c, 14, 28, 127
16, 39744, Note_on_c, 14, 28, 127
16, 39780, Note_off_c, 14, 28, 127
16, 42432, Note_on_c, 14, 28, 127
16, 42468, Note_off_c, 14, 28, 127
16, 60864, Note_on_c, 14, 28, 127
16, 60900, Note_off_c, 14, 28, 127
16, 67248, Note_on_c, 14, 28, 127
16, 67284, Note_off_c, 14, 28, 127
16, 70560, Note_on_c, 14, 28, 127
16, 70596, Note_off_c, 14, 28, 127
16, 72096, Note_on_c, 14, 28, 127
16, 72132, Note_off_c, 14, 28, 127
16, 73632, Note_on_c, 14, 28, 127
16, 73668, Note_off_c, 14, 28, 127
16, 76704, Note_on_c, 14, 28, 127
16, 76740, Note_off_c, 14, 28, 127
16, 79104, Note_on_c, 14, 28, 127
16, 79140, Note_off_c, 14, 28, 127
16, 85968, Note_on_c, 14, 28, 127
16, 86004, Note_off_c, 14, 28, 127
16, 92352, Note_on_c, 14, 28, 127
16, 92388, Note_off_c, 14, 28, 127
16, 101280, Note_on_c, 14, 28, 127
16, 101316, Note_off_c, 14, 28, 127
16, 104160, Note_on_c, 14, 28, 127
16, 104196, Note_off_c, 14, 28, 127
16, 104256, Note_on_c, 14, 28, 127
16, 104292, Note_off_c, 14, 28, 127
16, 104304, Note_on_c, 14, 28, 127
16, 104340, Note_off_c, 14, 28, 127
16, 113568, Note_on_c, 14, 28, 127
16, 113604, Note_off_c, 14, 28, 127
16, 116640, Note_on_c, 14, 28, 127
16, 116676, Note_off_c, 14, 28, 127
16, 122112, Note_on_c, 14, 28, 127
16, 122148, Note_off_c, 14, 28, 127
16, 122148, End_track
17, 0, Start_track
17, 0, Text_t, "SynthDrum"
17, 2880, Control_c, 15, 0, 0
17, 2882, Control_c, 15, 32, 0
17, 2884, Program_c, 15, 118
17, 2886, Control_c, 15, 7, 100
17, 2888, Control_c, 15, 10, 64
17, 2890, Control_c, 15, 11, 100
17, 2892, Control_c, 15, 91, 100
17, 2894, Control_c, 15, 93, 0
17, 14592, Control_c, 15, 11, 50
17, 14600, Note_on_c, 15, 35, 100
17, 14604, Note_off_c, 15, 35, 100
17, 14604, Note_on_c, 15, 36, 100
17, 14608, Note_off_c, 15, 36, 100
17, 14610, Control_c, 15, 11, 54
17, 14620, Note_on_c, 15, 38, 100
17, 14624, Note_off_c, 15, 38, 100
17, 14632, Control_c, 15, 11, 57
17, 14650, Control_c, 15, 11, 60
17, 14654, Note_on_c, 15, 40, 100
17, 14658, Note_off_c, 15, 40, 100
17, 14684, Note_on_c, 15, 41, 100
17, 14688, Note_off_c, 15, 41, 100
17, 14690, Control_c, 15, 11, 65
17, 14720, Note_on_c, 15, 43, 100
17, 14724, Note_off_c, 15, 43, 100
17, 14730, Control_c, 15, 11, 68
17, 14742, Note_on_c, 15, 45, 100
17, 14746, Note_off_c, 15, 45, 100
17, 14764, Note_on_c, 15, 47, 100
17, 14768, Note_off_c, 15, 47, 100
17, 14784, Control_c, 15, 11, 73
17, 14784, Note_on_c, 15, 48, 100
17, 14788, Note_off_c, 15, 48, 100
17, 14806, Note_on_c, 15, 50, 100
17, 14810, Note_off_c, 15, 50, 100
17, 14824, Note_on_c, 15, 52, 100
17, 14828, Note_off_c, 15, 52, 100
17, 14834, Control_c, 15, 11, 76
17, 14848, Note_on_c, 15, 53, 100
17, 14852, Note_off_c, 15, 53, 100
17, 14870, Note_on_c, 15, 55, 100
17, 14874, Note_off_c, 15, 55, 100
17, 14886, Control_c, 15, 11, 80
17, 14890, Note_on_c, 15, 57, 100
17, 14894, Note_off_c, 15, 57, 100
17, 14914, Note_on_c, 15, 59, 100
17, 14918, Note_off_c, 15, 59, 100
17, 14928, Control_c, 15, 11, 84
17, 14940, Note_on_c, 15, 60, 100
17, 14944, Note_off_c, 15, 60, 100
17, 14962, Note_on_c, 15, 62, 100
17, 14966, Note_off_c, 15, 62, 100
17, 14976, Control_c, 15, 11, 88
17, 14984, Note_on_c, 15, 64, 100
17, 14988, Note_off_c, 15, 64, 100
17, 15004, Note_on_c, 15, 65, 100
17, 15008, Note_off_c, 15, 65, 100
17, 15026, Control_c, 15, 11, 93
17, 15026, Note_on_c, 15, 67, 100
17, 15030, Note_off_c, 15, 67, 100
17, 15042, Note_on_c, 15, 69, 100
17, 15046, Note_off_c, 15, 69, 100
17, 15064, Note_on_c, 15, 71, 100
17, 15068, Note_off_c, 15, 71, 100
17, 15080, Control_c, 15, 11, 97
17, 15084, Note_on_c, 15, 72, 100
17, 15088, Note_off_c, 15, 72, 100
17, 15104, Note_on_c, 15, 74, 100
17, 15108, Note_off_c, 15, 74, 100
17, 15120, Control_c, 15, 11, 101
17, 15124, Note_on_c, 15, 76, 100
17, 15128, Note_off_c, 15, 76, 100
17, 15144, Note_on_c, 15, 77, 100
17, 15148, Note_off_c, 15, 77, 100
17, 15162, Note_on_c, 15, 79, 100
17, 15166, Note_off_c, 15, 79, 100
17, 15178, Control_c, 15, 11, 105
17, 15182, Note_on_c, 15, 81, 100
17, 15186, Note_off_c, 15, 81, 100
17, 15198, Note_on_c, 15, 83, 100
17, 15202, Note_off_c, 15, 83, 100
17, 15218, Note_on_c, 15, 84, 100
17, 15222, Note_off_c, 15, 84, 100
17, 15226, Control_c, 15, 11, 111
17, 15232, Note_on_c, 15, 86, 100
17, 15236, Note_off_c, 15, 86, 100
17, 15248, Note_on_c, 15, 88, 100
17, 15252, Note_off_c, 15, 88, 100
17, 15262, Note_on_c, 15, 89, 100
17, 15266, Note_off_c, 15, 89, 100
17, 15270, Control_c, 15, 11, 113
17, 15278, Note_on_c, 15, 91, 100
17, 15282, Note_off_c, 15, 91, 100
17, 15290, Note_on_c, 15, 93, 100
17, 15294, Note_off_c, 15, 93, 100
17, 15302, Note_on_c, 15, 95, 100
17, 15306, Note_off_c, 15, 95, 100
17, 15314, Control_c, 15, 11, 119
17, 15314, Note_on_c, 15, 96, 100
17, 15318, Note_off_c, 15, 96, 100
17, 15328, Note_on_c, 15, 98, 100
17, 15332, Note_off_c, 15, 98, 100
17, 15338, Note_on_c, 15, 100, 100
17, 15342, Note_off_c, 15, 100, 100
17, 15350, Note_on_c, 15, 101, 100
17, 15354, Note_off_c, 15, 101, 100
17, 15360, Control_c, 15, 11, 127
17, 15362, Note_on_c, 15, 103, 100
17, 15366, Note_off_c, 15, 103, 100
17, 15372, Note_on_c, 15, 105, 100
17, 15376, Note_off_c, 15, 105, 100
17, 15384, Note_on_c, 15, 107, 100
17, 15388, Note_off_c, 15, 107, 100
17, 26880, Control_c, 15, 11, 50
17, 26888, Note_on_c, 15, 35, 100
17, 26892, Note_off_c, 15, 35, 100
17, 26892, Note_on_c, 15, 36, 100
17, 26896, Note_off_c, 15, 36, 100
17, 26898, Control_c, 15, 11, 54
17, 26908, Note_on_c, 15, 38, 100
17, 26912, Note_off_c, 15, 38, 100
17, 26920, Control_c, 15, 11, 57
17, 26938, Control_c, 15, 11, 60
17, 26942, Note_on_c, 15, 40, 100
17, 26946, Note_off_c, 15, 40, 100
17, 26972, Note_on_c, 15, 41, 100
17, 26976, Note_off_c, 15, 41, 100
17, 26978, Control_c, 15, 11, 65
17, 27008, Note_on_c, 15, 43, 100
17, 27012, Note_off_c, 15, 43, 100
17, 27018, Control_c, 15, 11, 68
17, 27030, Note_on_c, 15, 45, 100
17, 27034, Note_off_c, 15, 45, 100
17, 27052, Note_on_c, 15, 47, 100
17, 27056, Note_off_c, 15, 47, 100
17, 27072, Control_c, 15, 11, 73
17, 27072, Note_on_c, 15, 48, 100
17, 27076, Note_off_c, 15, 48, 100
17, 27094, Note_on_c, 15, 50, 100
17, 27098, Note_off_c, 15, 50, 100
17, 27112, Note_on_c, 15, 52, 100
17, 27116, Note_off_c, 15, 52, 100
17, 27122, Control_c, 15, 11, 76
17, 27136, Note_on_c, 15, 53, 100
17, 27140, Note_off_c, 15, 53, 100
17, 27158, Note_on_c, 15, 55, 100
17, 27162, Note_off_c, 15, 55, 100
17, 27174, Control_c, 15, 11, 80
17, 27178, Note_on_c, 15, 57, 100
17, 27182, Note_off_c, 15, 57, 100
17, 27202, Note_on_c, 15, 59, 100
17, 27206, Note_off_c, 15, 59, 100
17, 27216, Control_c, 15, 11, 84
17, 27228, Note_on_c, 15, 60, 100
17, 27232, Note_off_c, 15, 60, 100
17, 27250, Note_on_c, 15, 62, 100
17, 27254, Note_off_c, 15, 62, 100
17, 27264, Control_c, 15, 11, 88
17, 27272, Note_on_c, 15, 64, 100
17, 27276, Note_off_c, 15, 64, 100
17, 27292, Note_on_c, 15, 65, 100
17, 27296, Note_off_c, 15, 65, 100
17, 27314, Control_c, 15, 11, 93
17, 27314, Note_on_c, 15, 67, 100
17, 27318, Note_off_c, 15, 67, 100
17, 27330, Note_on_c, 15, 69, 100
17, 27334, Note_off_c, 15, 69, 100
17, 27352, Note_on_c, 15, 71, 100
17, 27356, Note_off_c, 15, 71, 100
17, 27368, Control_c, 15, 11, 97
17, 27372, Note_on_c, 15, 72, 100
17, 27376, Note_off_c, 15, 72, 100
17, 27392, Note_on_c, 15, 74, 100
17, 27396, Note_off_c, 15, 74, 100
17, 27408, Control_c, 15, 11, 101
17, 27412, Note_on_c, 15, 76, 100
17, 27416, Note_off_c, 15, 76, 100
17, 27432, Note_on_c, 15, 77, 100
17, 27436, Note_off_c, 15, 77, 100
17, 27450, Note_on_c, 15, 79, 100
17, 27454, Note_off_c, 15, 79, 100
17, 27466, Control_c, 15, 11, 105
17, 27470, Note_on_c, 15, 81, 100
17, 27474, Note_off_c, 15, 81, 100
17, 27486, Note_on_c, 15, 83, 100
17, 27490, Note_off_c, 15, 83, 100
17, 27506, Note_on_c, 15, 84, 100
17, 27510, Note_off_c, 15, 84, 100
17, 27514, Control_c, 15, 11, 111
17, 27520, Note_on_c, 15, 86, 100
17, 27524, Note_off_c, 15, 86, 100
17, 27536, Note_on_c, 15, 88, 100
17, 27540, Note_off_c, 15, 88, 100
17, 27550, Note_on_c, 15, 89, 100
17, 27554, Note_off_c, 15, 89, 100
17, 27558, Control_c, 15, 11, 113
17, 27566, Note_on_c, 15, 91, 100
17, 27570, Note_off_c, 15, 91, 100
17, 27578, Note_on_c, 15, 93, 100
17, 27582, Note_off_c, 15, 93, 100
17, 27590, Note_on_c, 15, 95, 100
17, 27594, Note_off_c, 15, 95, 100
17, 27602, Control_c, 15, 11, 119
17, 27602, Note_on_c, 15, 96, 100
17, 27606, Note_off_c, 15, 96, 100
17, 27616, Note_on_c, 15, 98, 100
17, 27620, Note_off_c, 15, 98, 100
17, 27626, Note_on_c, 15, 100, 100
17, 27630, Note_off_c, 15, 100, 100
17, 27638, Note_on_c, 15, 101, 100
17, 27642, Note_off_c, 15, 101, 100
17, 27648, Control_c, 15, 11, 127
17, 27650, Note_on_c, 15, 103, 100
17, 27654, Note_off_c, 15, 103, 100
17, 27660, Note_on_c, 15, 105, 100
17, 27664, Note_off_c, 15, 105, 100
17, 27672, Note_on_c, 15, 107, 100
17, 27676, Note_off_c, 15, 107, 100
17, 29952, Control_c, 15, 11, 50
17, 29960, Note_on_c, 15, 35, 100
17, 29964, Note_off_c, 15, 35, 100
17, 29964, Note_on_c, 15, 36, 100
17, 29968, Note_off_c, 15, 36, 100
17, 29970, Control_c, 15, 11, 54
17, 29980, Note_on_c, 15, 38, 100
17, 29984, Note_off_c, 15, 38, 100
17, 29992, Control_c, 15, 11, 57
17, 30010, Control_c, 15, 11, 60
17, 30014, Note_on_c, 15, 40, 100
17, 30018, Note_off_c, 15, 40, 100
17, 30044, Note_on_c, 15, 41, 100
17, 30048, Note_off_c, 15, 41, 100
17, 30050, Control_c, 15, 11, 65
17, 30080, Note_on_c, 15, 43, 100
17, 30084, Note_off_c, 15, 43, 100
17, 30090, Control_c, 15, 11, 68
17, 30102, Note_on_c, 15, 45, 100
17, 30106, Note_off_c, 15, 45, 100
17, 30124, Note_on_c, 15, 47, 100
17, 30128, Note_off_c, 15, 47, 100
17, 30144, Control_c, 15, 11, 73
17, 30144, Note_on_c, 15, 48, 100
17, 30148, Note_off_c, 15, 48, 100
17, 30166, Note_on_c, 15, 50, 100
17, 30170, Note_off_c, 15, 50, 100
17, 30184, Note_on_c, 15, 52, 100
17, 30188, Note_off_c, 15, 52, 100
17, 30194, Control_c, 15, 11, 76
17, 30208, Note_on_c, 15, 53, 100
17, 30212, Note_off_c, 15, 53, 100
17, 30230, Note_on_c, 15, 55, 100
17, 30234, Note_off_c, 15, 55, 100
17, 30246, Control_c, 15, 11, 80
17, 30250, Note_on_c, 15, 57, 100
17, 30254, Note_off_c, 15, 57, 100
17, 30274, Note_on_c, 15, 59, 100
17, 30278, Note_off_c, 15, 59, 100
17, 30288, Control_c, 15, 11, 84
17, 30300, Note_on_c, 15, 60, 100
17, 30304, Note_off_c, 15, 60, 100
17, 30322, Note_on_c, 15, 62, 100
17, 30326, Note_off_c, 15, 62, 100
17, 30336, Control_c, 15, 11, 88
17, 30344, Note_on_c, 15, 64, 100
17, 30348, Note_off_c, 15, 64, 100
17, 30364, Note_on_c, 15, 65, 100
17, 30368, Note_off_c, 15, 65, 100
17, 30386, Control_c, 15, 11, 93
17, 30386, Note_on_c, 15, 67, 100
17, 30390, Note_off_c, 15, 67, 100
17, 30402, Note_on_c, 15, 69, 100
17, 30406, Note_off_c, 15, 69, 100
17, 30424, Note_on_c, 15, 71, 100
17, 30428, Note_off_c, 15, 71, 100
17, 30440, Control_c, 15, 11, 97
17, 30444, Note_on_c, 15, 72, 100
17, 30448, Note_off_c, 15, 72, 100
17, 30464, Note_on_c, 15, 74, 100
17, 30468, Note_off_c, 15, 74, 100
17, 30480, Control_c, 15, 11, 101
17, 30484, Note_on_c, 15, 76, 100
17, 30488, Note_off_c, 15, 76, 100
17, 30504, Note_on_c, 15, 77, 100
17, 30508, Note_off_c, 15, 77, 100
17, 30522, Note_on_c, 15, 79, 100
17, 30526, Note_off_c, 15, 79, 100
17, 30538, Control_c, 15, 11, 105
17, 30542, Note_on_c, 15, 81, 100
17, 30546, Note_off_c, 15, 81, 100
17, 30558, Note_on_c, 15, 83, 100
17, 30562, Note_off_c, 15, 83, 100
17, 30578, Note_on_c, 15, 84, 100
17, 30582, Note_off_c, 15, 84, 100
17, 30586, Control_c, 15, 11, 111
17, 30592, Note_on_c, 15, 86, 100
17, 30596, Note_off_c, 15, 86, 100
17, 30608, Note_on_c, 15, 88, 100
17, 30612, Note_off_c, 15, 88, 100
17, 30622, Note_on_c, 15, 89, 100
17, 30626, Note_off_c, 15, 89, 100
17, 30630, Control_c, 15, 11, 113
17, 30638, Note_on_c, 15, 91, 100
17, 30642, Note_off_c, 15, 91, 100
17, 30650, Note_on_c, 15, 93, 100
17, 30654, Note_off_c, 15, 93, 100
17, 30662, Note_on_c, 15, 95, 100
17, 30666, Note_off_c, 15, 95, 100
17, 30674, Control_c, 15, 11, 119
17, 30674, Note_on_c, 15, 96, 100
17, 30678, Note_off_c, 15, 96, 100
17, 30688, Note_on_c, 15, 98, 100
17, 30692, Note_off_c, 15, 98, 100
17, 30698, Note_on_c, 15, 100, 100
17, 30702, Note_off_c, 15, 100, 100
17, 30710, Note_on_c, 15, 101, 100
17, 30714, Note_off_c, 15, 101, 100
17, 30720, Control_c, 15, 11, 127
17, 30722, Note_on_c, 15, 103, 100
17, 30726, Note_off_c, 15, 103, 100
17, 30732, Note_on_c, 15, 105, 100
17, 30736, Note_off_c, 15, 105, 100
17, 30744, Note_on_c, 15, 107, 100
17, 30748, Note_off_c, 15, 107, 100
17, 48384, Control_c, 15, 11, 50
17, 48392, Note_on_c, 15, 35, 100
17, 48396, Note_off_c, 15, 35, 100
17, 48396, Note_on_c, 15, 36, 100
17, 48400, Note_off_c, 15, 36, 100
17, 48402, Control_c, 15, 11, 54
17, 48412, Note_on_c, 15, 38, 100
17, 48416, Note_off_c, 15, 38, 100
17, 48424, Control_c, 15, 11, 57
17, 48442, Control_c, 15, 11, 60
17, 48446, Note_on_c, 15, 40, 100
17, 48450, Note_off_c, 15, 40, 100
17, 48476, Note_on_c, 15, 41, 100
17, 48480, Note_off_c, 15, 41, 100
17, 48482, Control_c, 15, 11, 65
17, 48512, Note_on_c, 15, 43, 100
17, 48516, Note_off_c, 15, 43, 100
17, 48522, Control_c, 15, 11, 68
17, 48534, Note_on_c, 15, 45, 100
17, 48538, Note_off_c, 15, 45, 100
17, 48556, Note_on_c, 15, 47, 100
17, 48560, Note_off_c, 15, 47, 100
17, 48576, Control_c, 15, 11, 73
17, 48576, Note_on_c, 15, 48, 100
17, 48580, Note_off_c, 15, 48, 100
17, 48598, Note_on_c, 15, 50, 100
17, 48602, Note_off_c, 15, 50, 100
17, 48616, Note_on_c, 15, 52, 100
17, 48620, Note_off_c, 15, 52, 100
17, 48626, Control_c, 15, 11, 76
17, 48640, Note_on_c, 15, 53, 100
17, 48644, Note_off_c, 15, 53, 100
17, 48662, Note_on_c, 15, 55, 100
17, 48666, Note_off_c, 15, 55, 100
17, 48678, Control_c, 15, 11, 80
17, 48682, Note_on_c, 15, 57, 100
17, 48686, Note_off_c, 15, 57, 100
17, 48706, Note_on_c, 15, 59, 100
17, 48710, Note_off_c, 15, 59, 100
17, 48720, Control_c, 15, 11, 84
17, 48732, Note_on_c, 15, 60, 100
17, 48736, Note_off_c, 15, 60, 100
17, 48754, Note_on_c, 15, 62, 100
17, 48758, Note_off_c, 15, 62, 100
17, 48768, Control_c, 15, 11, 88
17, 48776, Note_on_c, 15, 64, 100
17, 48780, Note_off_c, 15, 64, 100
17, 48796, Note_on_c, 15, 65, 100
17, 48800, Note_off_c, 15, 65, 100
17, 48818, Control_c, 15, 11, 93
17, 48818, Note_on_c, 15, 67, 100
17, 48822, Note_off_c, 15, 67, 100
17, 48834, Note_on_c, 15, 69, 100
17, 48838, Note_off_c, 15, 69, 100
17, 48856, Note_on_c, 15, 71, 100
17, 48860, Note_off_c, 15, 71, 100
17, 48872, Control_c, 15, 11, 97
17, 48876, Note_on_c, 15, 72, 100
17, 48880, Note_off_c, 15, 72, 100
17, 48896, Note_on_c, 15, 74, 100
17, 48900, Note_off_c, 15, 74, 100
17, 48912, Control_c, 15, 11, 101
17, 48916, Note_on_c, 15, 76, 100
17, 48920, Note_off_c, 15, 76, 100
17, 48936, Note_on_c, 15, 77, 100
17, 48940, Note_off_c, 15, 77, 100
17, 48954, Note_on_c, 15, 79, 100
17, 48958, Note_off_c, 15, 79, 100
17, 48970, Control_c, 15, 11, 105
17, 48974, Note_on_c, 15, 81, 100
17, 48978, Note_off_c, 15, 81, 100
17, 48990, Note_on_c, 15, 83, 100
17, 48994, Note_off_c, 15, 83, 100
17, 49010, Note_on_c, 15, 84, 100
17, 49014, Note_off_c, 15, 84, 100
17, 49018, Control_c, 15, 11, 111
17, 49024, Note_on_c, 15, 86, 100
17, 49028, Note_off_c, 15, 86, 100
17, 49040, Note_on_c, 15, 88, 100
17, 49044, Note_off_c, 15, 88, 100
17, 49054, Note_on_c, 15, 89, 100
17, 49058, Note_off_c, 15, 89, 100
17, 49062, Control_c, 15, 11, 113
17, 49070, Note_on_c, 15, 91, 100
17, 49074, Note_off_c, 15, 91, 100
17, 49082, Note_on_c, 15, 93, 100
17, 49086, Note_off_c, 15, 93, 100
17, 49094, Note_on_c, 15, 95, 100
17, 49098, Note_off_c, 15, 95, 100
17, 49106, Control_c, 15, 11, 119
17, 49106, Note_on_c, 15, 96, 100
17, 49110, Note_off_c, 15, 96, 100
17, 49120, Note_on_c, 15, 98, 100
17, 49124, Note_off_c, 15, 98, 100
17, 49130, Note_on_c, 15, 100, 100
17, 49134, Note_off_c, 15, 100, 100
17, 49142, Note_on_c, 15, 101, 100
17, 49146, Note_off_c, 15, 101, 100
17, 49152, Control_c, 15, 11, 127
17, 49154, Note_on_c, 15, 103, 100
17, 49158, Note_off_c, 15, 103, 100
17, 49164, Note_on_c, 15, 105, 100
17, 49168, Note_off_c, 15, 105, 100
17, 49176, Note_on_c, 15, 107, 100
17, 49180, Note_off_c, 15, 107, 100
17, 70752, Note_on_c, 15, 68, 100
17, 70784, Note_off_c, 15, 68, 100
17, 70800, Note_on_c, 15, 80, 100
17, 70832, Note_off_c, 15, 80, 100
17, 70848, Note_on_c, 15, 86, 100
17, 70880, Note_off_c, 15, 86, 100
17, 70944, Note_on_c, 15, 68, 100
17, 70976, Note_off_c, 15, 68, 100
17, 71040, Note_on_c, 15, 68, 100
17, 71072, Note_off_c, 15, 68, 100
17, 71088, Note_on_c, 15, 80, 100
17, 71120, Note_off_c, 15, 80, 100
17, 71184, Note_on_c, 15, 68, 100
17, 71216, Note_off_c, 15, 68, 100
17, 71520, Note_on_c, 15, 68, 100
17, 71552, Note_off_c, 15, 68, 100
17, 71568, Note_on_c, 15, 80, 100
17, 71600, Note_off_c, 15, 80, 100
17, 71616, Note_on_c, 15, 86, 100
17, 71648, Note_off_c, 15, 86, 100
17, 71712, Note_on_c, 15, 68, 100
17, 71744, Note_off_c, 15, 68, 100
17, 71808, Note_on_c, 15, 68, 100
17, 71840, Note_off_c, 15, 68, 100
17, 71856, Note_on_c, 15, 80, 100
17, 71888, Note_off_c, 15, 80, 100
17, 71952, Note_on_c, 15, 68, 100
17, 71984, Note_off_c, 15, 68, 100
17, 72288, Note_on_c, 15, 68, 100
17, 72320, Note_off_c, 15, 68, 100
17, 72336, Note_on_c, 15, 80, 100
17, 72368, Note_off_c, 15, 80, 100
17, 72384, Note_on_c, 15, 86, 100
17, 72416, Note_off_c, 15, 86, 100
17, 72480, Note_on_c, 15, 68, 100
17, 72512, Note_off_c, 15, 68, 100
17, 72576, Note_on_c, 15, 68, 100
17, 72608, Note_off_c, 15, 68, 100
17, 72624, Note_on_c, 15, 80, 100
17, 72656, Note_off_c, 15, 80, 100
17, 72720, Note_on_c, 15, 68, 100
17, 72752, Note_off_c, 15, 68, 100
17, 73056, Note_on_c, 15, 68, 100
17, 73088, Note_off_c, 15, 68, 100
17, 73104, Note_on_c, 15, 80, 100
17, 73136, Note_off_c, 15, 80, 100
17, 73152, Note_on_c, 15, 86, 100
17, 73184, Note_off_c, 15, 86, 100
17, 73248, Note_on_c, 15, 68, 100
17, 73280, Note_off_c, 15, 68, 100
17, 73344, Note_on_c, 15, 68, 100
17, 73376, Note_off_c, 15, 68, 100
17, 73392, Note_on_c, 15, 80, 100
17, 73424, Note_off_c, 15, 80, 100
17, 73488, Note_on_c, 15, 68, 100
17, 73520, Note_off_c, 15, 68, 100
17, 73824, Note_on_c, 15, 68, 100
17, 73856, Note_off_c, 15, 68, 100
17, 73872, Note_on_c, 15, 80, 100
17, 73904, Note_off_c, 15, 80, 100
17, 73920, Note_on_c, 15, 86, 100
17, 73952, Note_off_c, 15, 86, 100
17, 74016, Note_on_c, 15, 68, 100
17, 74048, Note_off_c, 15, 68, 100
17, 74112, Note_on_c, 15, 68, 100
17, 74144, Note_off_c, 15, 68, 100
17, 74160, Note_on_c, 15, 80, 100
17, 74192, Note_off_c, 15, 80, 100
17, 74256, Note_on_c, 15, 68, 100
17, 74288, Note_off_c, 15, 68, 100
17, 74592, Note_on_c, 15, 68, 100
17, 74624, Note_off_c, 15, 68, 100
17, 74640, Note_on_c, 15, 80, 100
17, 74672, Note_off_c, 15, 80, 100
17, 74688, Note_on_c, 15, 86, 100
17, 74720, Note_off_c, 15, 86, 100
17, 74784, Note_on_c, 15, 68, 100
17, 74816, Note_off_c, 15, 68, 100
17, 74880, Note_on_c, 15, 68, 100
17, 74912, Note_off_c, 15, 68, 100
17, 74928, Note_on_c, 15, 80, 100
17, 74960, Note_off_c, 15, 80, 100
17, 75024, Note_on_c, 15, 68, 100
17, 75056, Note_off_c, 15, 68, 100
17, 75360, Note_on_c, 15, 68, 100
17, 75392, Note_off_c, 15, 68, 100
17, 75408, Note_on_c, 15, 80, 100
17, 75440, Note_off_c, 15, 80, 100
17, 75456, Note_on_c, 15, 86, 100
17, 75488, Note_off_c, 15, 86, 100
17, 75552, Note_on_c, 15, 68, 100
17, 75584, Note_off_c, 15, 68, 100
17, 75648, Note_on_c, 15, 68, 100
17, 75680, Note_off_c, 15, 68, 100
17, 75696, Note_on_c, 15, 80, 100
17, 75728, Note_off_c, 15, 80, 100
17, 75792, Note_on_c, 15, 68, 100
17, 75824, Note_off_c, 15, 68, 100
17, 76128, Note_on_c, 15, 68, 100
17, 76160, Note_off_c, 15, 68, 100
17, 76176, Note_on_c, 15, 80, 100
17, 76208, Note_off_c, 15, 80, 100
17, 76224, Note_on_c, 15, 86, 100
17, 76256, Note_off_c, 15, 86, 100
17, 76320, Note_on_c, 15, 68, 100
17, 76352, Note_off_c, 15, 68, 100
17, 76416, Note_on_c, 15, 68, 100
17, 76448, Note_off_c, 15, 68, 100
17, 76464, Note_on_c, 15, 80, 100
17, 76496, Note_off_c, 15, 80, 100
17, 76560, Note_on_c, 15, 68, 100
17, 76592, Note_off_c, 15, 68, 100
17, 76896, Note_on_c, 15, 68, 100
17, 76928, Note_off_c, 15, 68, 100
17, 76992, Note_on_c, 15, 86, 100
17, 77024, Note_off_c, 15, 86, 100
17, 77088, Note_on_c, 15, 68, 100
17, 77120, Note_off_c, 15, 68, 100
17, 77136, Note_on_c, 15, 74, 100
17, 77168, Note_off_c, 15, 74, 100
17, 77232, Note_on_c, 15, 68, 100
17, 77264, Note_off_c, 15, 68, 100
17, 77280, Note_on_c, 15, 80, 100
17, 77312, Note_off_c, 15, 80, 100
17, 77568, Note_on_c, 15, 68, 100
17, 77600, Note_off_c, 15, 68, 100
17, 77664, Note_on_c, 15, 74, 100
17, 77696, Note_off_c, 15, 74, 100
17, 77760, Note_on_c, 15, 92, 100
17, 77792, Note_off_c, 15, 92, 100
17, 77856, Note_on_c, 15, 74, 100
17, 77888, Note_off_c, 15, 74, 100
17, 77904, Note_on_c, 15, 80, 100
17, 77936, Note_off_c, 15, 80, 100
17, 78000, Note_on_c, 15, 74, 100
17, 78032, Note_off_c, 15, 74, 100
17, 78048, Note_on_c, 15, 86, 100
17, 78080, Note_off_c, 15, 86, 100
17, 78432, Note_on_c, 15, 68, 100
17, 78464, Note_off_c, 15, 68, 100
17, 78528, Note_on_c, 15, 86, 100
17, 78560, Note_off_c, 15, 86, 100
17, 78624, Note_on_c, 15, 68, 100
17, 78656, Note_off_c, 15, 68, 100
17, 78672, Note_on_c, 15, 74, 100
17, 78704, Note_off_c, 15, 74, 100
17, 78768, Note_on_c, 15, 68, 100
17, 78800, Note_off_c, 15, 68, 100
17, 78816, Note_on_c, 15, 80, 100
17, 78848, Note_off_c, 15, 80, 100
17, 79104, Control_c, 15, 11, 50
17, 79112, Note_on_c, 15, 35, 100
17, 79116, Note_off_c, 15, 35, 100
17, 79116, Note_on_c, 15, 36, 100
17, 79120, Note_off_c, 15, 36, 100
17, 79122, Control_c, 15, 11, 54
17, 79132, Note_on_c, 15, 38, 100
17, 79136, Note_off_c, 15, 38, 100
17, 79144, Control_c, 15, 11, 57
17, 79162, Control_c, 15, 11, 60
17, 79166, Note_on_c, 15, 40, 100
17, 79170, Note_off_c, 15, 40, 100
17, 79196, Note_on_c, 15, 41, 100
17, 79200, Note_off_c, 15, 41, 100
17, 79202, Control_c, 15, 11, 65
17, 79232, Note_on_c, 15, 43, 100
17, 79236, Note_off_c, 15, 43, 100
17, 79242, Control_c, 15, 11, 68
17, 79254, Note_on_c, 15, 45, 100
17, 79258, Note_off_c, 15, 45, 100
17, 79276, Note_on_c, 15, 47, 100
17, 79280, Note_off_c, 15, 47, 100
17, 79296, Control_c, 15, 11, 73
17, 79296, Note_on_c, 15, 48, 100
17, 79300, Note_off_c, 15, 48, 100
17, 79318, Note_on_c, 15, 50, 100
17, 79322, Note_off_c, 15, 50, 100
17, 79336, Note_on_c, 15, 52, 100
17, 79340, Note_off_c, 15, 52, 100
17, 79346, Control_c, 15, 11, 76
17, 79360, Note_on_c, 15, 53, 100
17, 79364, Note_off_c, 15, 53, 100
17, 79382, Note_on_c, 15, 55, 100
17, 79386, Note_off_c, 15, 55, 100
17, 79398, Control_c, 15, 11, 80
17, 79402, Note_on_c, 15, 57, 100
17, 79406, Note_off_c, 15, 57, 100
17, 79426, Note_on_c, 15, 59, 100
17, 79430, Note_off_c, 15, 59, 100
17, 79440, Control_c, 15, 11, 84
17, 79452, Note_on_c, 15, 60, 100
17, 79456, Note_off_c, 15, 60, 100
17, 79474, Note_on_c, 15, 62, 100
17, 79478, Note_off_c, 15, 62, 100
17, 79488, Control_c, 15, 11, 88
17, 79496, Note_on_c, 15, 64, 100
17, 79500, Note_off_c, 15, 64, 100
17, 79516, Note_on_c, 15, 65, 100
17, 79520, Note_off_c, 15, 65, 100
17, 79538, Control_c, 15, 11, 93
17, 79538, Note_on_c, 15, 67, 100
17, 79542, Note_off_c, 15, 67, 100
17, 79554, Note_on_c, 15, 69, 100
17, 79558, Note_off_c, 15, 69, 100
17, 79576, Note_on_c, 15, 71, 100
17, 79580, Note_off_c, 15, 71, 100
17, 79592, Control_c, 15, 11, 97
17, 79596, Note_on_c, 15, 72, 100
17, 79600, Note_off_c, 15, 72, 100
17, 79616, Note_on_c, 15, 74, 100
17, 79620, Note_off_c, 15, 74, 100
17, 79632, Control_c, 15, 11, 101
17, 79636, Note_on_c, 15, 76, 100
17, 79640, Note_off_c, 15, 76, 100
17, 79656, Note_on_c, 15, 77, 100
17, 79660, Note_off_c, 15, 77, 100
17, 79674, Note_on_c, 15, 79, 100
17, 79678, Note_off_c, 15, 79, 100
17, 79690, Control_c, 15, 11, 105
17, 79694, Note_on_c, 15, 81, 100
17, 79698, Note_off_c, 15, 81, 100
17, 79710, Note_on_c, 15, 83, 100
17, 79714, Note_off_c, 15, 83, 100
17, 79730, Note_on_c, 15, 84, 100
17, 79734, Note_off_c, 15, 84, 100
17, 79738, Control_c, 15, 11, 111
17, 79744, Note_on_c, 15, 86, 100
17, 79748, Note_off_c, 15, 86, 100
17, 79760, Note_on_c, 15, 88, 100
17, 79764, Note_off_c, 15, 88, 100
17, 79774, Note_on_c, 15, 89, 100
17, 79778, Note_off_c, 15, 89, 100
17, 79782, Control_c, 15, 11, 113
17, 79790, Note_on_c, 15, 91, 100
17, 79794, Note_off_c, 15, 91, 100
17, 79802, Note_on_c, 15, 93, 100
17, 79806, Note_off_c, 15, 93, 100
17, 79814, Note_on_c, 15, 95, 100
17, 79818, Note_off_c, 15, 95, 100
17, 79826, Control_c, 15, 11, 119
17, 79826, Note_on_c, 15, 96, 100
17, 79830, Note_off_c, 15, 96, 100
17, 79840, Note_on_c, 15, 98, 100
17, 79844, Note_off_c, 15, 98, 100
17, 79850, Note_on_c, 15, 100, 100
17, 79854, Note_off_c, 15, 100, 100
17, 79862, Note_on_c, 15, 101, 100
17, 79866, Note_off_c, 15, 101, 100
17, 79872, Control_c, 15, 11, 127
17, 79874, Note_on_c, 15, 103, 100
17, 79878, Note_off_c, 15, 103, 100
17, 79884, Note_on_c, 15, 105, 100
17, 79888, Note_off_c, 15, 105, 100
17, 79896, Note_on_c, 15, 107, 100
17, 79900, Note_off_c, 15, 107, 100
17, 97536, Control_c, 15, 11, 50
17, 97544, Note_on_c, 15, 35, 100
17, 97548, Note_off_c, 15, 35, 100
17, 97548, Note_on_c, 15, 36, 100
17, 97552, Note_off_c, 15, 36, 100
17, 97554, Control_c, 15, 11, 54
17, 97564, Note_on_c, 15, 38, 100
17, 97568, Note_off_c, 15, 38, 100
17, 97576, Control_c, 15, 11, 57
17, 97594, Control_c, 15, 11, 60
17, 97598, Note_on_c, 15, 40, 100
17, 97602, Note_off_c, 15, 40, 100
17, 97628, Note_on_c, 15, 41, 100
17, 97632, Note_off_c, 15, 41, 100
17, 97634, Control_c, 15, 11, 65
17, 97664, Note_on_c, 15, 43, 100
17, 97668, Note_off_c, 15, 43, 100
17, 97674, Control_c, 15, 11, 68
17, 97686, Note_on_c, 15, 45, 100
17, 97690, Note_off_c, 15, 45, 100
17, 97708, Note_on_c, 15, 47, 100
17, 97712, Note_off_c, 15, 47, 100
17, 97728, Control_c, 15, 11, 73
17, 97728, Note_on_c, 15, 48, 100
17, 97732, Note_off_c, 15, 48, 100
17, 97750, Note_on_c, 15, 50, 100
17, 97754, Note_off_c, 15, 50, 100
17, 97768, Note_on_c, 15, 52, 100
17, 97772, Note_off_c, 15, 52, 100
17, 97778, Control_c, 15, 11, 76
17, 97792, Note_on_c, 15, 53, 100
17, 97796, Note_off_c, 15, 53, 100
17, 97814, Note_on_c, 15, 55, 100
17, 97818, Note_off_c, 15, 55, 100
17, 97830, Control_c, 15, 11, 80
17, 97834, Note_on_c, 15, 57, 100
17, 97838, Note_off_c, 15, 57, 100
17, 97858, Note_on_c, 15, 59, 100
17, 97862, Note_off_c, 15, 59, 100
17, 97872, Control_c, 15, 11, 84
17, 97884, Note_on_c, 15, 60, 100
17, 97888, Note_off_c, 15, 60, 100
17, 97906, Note_on_c, 15, 62, 100
17, 97910, Note_off_c, 15, 62, 100
17, 97920, Control_c, 15, 11, 88
17, 97928, Note_on_c, 15, 64, 100
17, 97932, Note_off_c, 15, 64, 100
17, 97948, Note_on_c, 15, 65, 100
17, 97952, Note_off_c, 15, 65, 100
17, 97970, Control_c, 15, 11, 93
17, 97970, Note_on_c, 15, 67, 100
17, 97974, Note_off_c, 15, 67, 100
17, 97986, Note_on_c, 15, 69, 100
17, 97990, Note_off_c, 15, 69, 100
17, 98008, Note_on_c, 15, 71, 100
17, 98012, Note_off_c, 15, 71, 100
17, 98024, Control_c, 15, 11, 97
17, 98028, Note_on_c, 15, 72, 100
17, 98032, Note_off_c, 15, 72, 100
17, 98048, Note_on_c, 15, 74, 100
17, 98052, Note_off_c, 15, 74, 100
17, 98064, Control_c, 15, 11, 101
17, 98068, Note_on_c, 15, 76, 100
17, 98072, Note_off_c, 15, 76, 100
17, 98088, Note_on_c, 15, 77, 100
17, 98092, Note_off_c, 15, 77, 100
17, 98106, Note_on_c, 15, 79, 100
17, 98110, Note_off_c, 15, 79, 100
17, 98122, Control_c, 15, 11, 105
17, 98126, Note_on_c, 15, 81, 100
17, 98130, Note_off_c, 15, 81, 100
17, 98142, Note_on_c, 15, 83, 100
17, 98146, Note_off_c, 15, 83, 100
17, 98162, Note_on_c, 15, 84, 100
17, 98166, Note_off_c, 15, 84, 100
17, 98170, Control_c, 15, 11, 111
17, 98176, Note_on_c, 15, 86, 100
17, 98180, Note_off_c, 15, 86, 100
17, 98192, Note_on_c, 15, 88, 100
17, 98196, Note_off_c, 15, 88, 100
17, 98206, Note_on_c, 15, 89, 100
17, 98210, Note_off_c, 15, 89, 100
17, 98214, Control_c, 15, 11, 113
17, 98222, Note_on_c, 15, 91, 100
17, 98226, Note_off_c, 15, 91, 100
17, 98234, Note_on_c, 15, 93, 100
17, 98238, Note_off_c, 15, 93, 100
17, 98246, Note_on_c, 15, 95, 100
17, 98250, Note_off_c, 15, 95, 100
17, 98258, Control_c, 15, 11, 119
17, 98258, Note_on_c, 15, 96, 100
17, 98262, Note_off_c, 15, 96, 100
17, 98272, Note_on_c, 15, 98, 100
17, 98276, Note_off_c, 15, 98, 100
17, 98282, Note_on_c, 15, 100, 100
17, 98286, Note_off_c, 15, 100, 100
17, 98294, Note_on_c, 15, 101, 100
17, 98298, Note_off_c, 15, 101, 100
17, 98304, Control_c, 15, 11, 127
17, 98306, Note_on_c, 15, 103, 100
17, 98310, Note_off_c, 15, 103, 100
17, 98316, Note_on_c, 15, 105, 100
17, 98320, Note_off_c, 15, 105, 100
17, 98328, Note_on_c, 15, 107, 100
17, 98332, Note_off_c, 15, 107, 100
17, 109824, Control_c, 15, 11, 50
17, 109832, Note_on_c, 15, 35, 100
17, 109836, Note_off_c, 15, 35, 100
17, 109836, Note_on_c, 15, 36, 100
17, 109840, Note_off_c, 15, 36, 100
17, 109842, Control_c, 15, 11, 54
17, 109852, Note_on_c, 15, 38, 100
17, 109856, Note_off_c, 15, 38, 100
17, 109864, Control_c, 15, 11, 57
17, 109882, Control_c, 15, 11, 60
17, 109886, Note_on_c, 15, 40, 100
17, 109890, Note_off_c, 15, 40, 100
17, 109916, Note_on_c, 15, 41, 100
17, 109920, Note_off_c, 15, 41, 100
17, 109922, Control_c, 15, 11, 65
17, 109952, Note_on_c, 15, 43, 100
17, 109956, Note_off_c, 15, 43, 100
17, 109962, Control_c, 15, 11, 68
17, 109974, Note_on_c, 15, 45, 100
17, 109978, Note_off_c, 15, 45, 100
17, 109996, Note_on_c, 15, 47, 100
17, 110000, Note_off_c, 15, 47, 100
17, 110016, Control_c, 15, 11, 73
17, 110016, Note_on_c, 15, 48, 100
17, 110020, Note_off_c, 15, 48, 100
17, 110038, Note_on_c, 15, 50, 100
17, 110042, Note_off_c, 15, 50, 100
17, 110056, Note_on_c, 15, 52, 100
17, 110060, Note_off_c, 15, 52, 100
17, 110066, Control_c, 15, 11, 76
17, 110080, Note_on_c, 15, 53, 100
17, 110084, Note_off_c, 15, 53, 100
17, 110102, Note_on_c, 15, 55, 100
17, 110106, Note_off_c, 15, 55, 100
17, 110118, Control_c, 15, 11, 80
17, 110122, Note_on_c, 15, 57, 100
17, 110126, Note_off_c, 15, 57, 100
17, 110146, Note_on_c, 15, 59, 100
17, 110150, Note_off_c, 15, 59, 100
17, 110160, Control_c, 15, 11, 84
17, 110172, Note_on_c, 15, 60, 100
17, 110176, Note_off_c, 15, 60, 100
17, 110194, Note_on_c, 15, 62, 100
17, 110198, Note_off_c, 15, 62, 100
17, 110208, Control_c, 15, 11, 88
17, 110216, Note_on_c, 15, 64, 100
17, 110220, Note_off_c, 15, 64, 100
17, 110236, Note_on_c, 15, 65, 100
17, 110240, Note_off_c, 15, 65, 100
17, 110258, Control_c, 15, 11, 93
17, 110258, Note_on_c, 15, 67, 100
17, 110262, Note_off_c, 15, 67, 100
17, 110274, Note_on_c, 15, 69, 100
17, 110278, Note_off_c, 15, 69, 100
17, 110296, Note_on_c, 15, 71, 100
17, 110300, Note_off_c, 15, 71, 100
17, 110312, Control_c, 15, 11, 97
17, 110316, Note_on_c, 15, 72, 100
17, 110320, Note_off_c, 15, 72, 100
17, 110336, Note_on_c, 15, 74, 100
17, 110340, Note_off_c, 15, 74, 100
17, 110352, Control_c, 15, 11, 101
17, 110356, Note_on_c, 15, 76, 100
17, 110360, Note_off_c, 15, 76, 100
17, 110376, Note_on_c, 15, 77, 100
17, 110380, Note_off_c, 15, 77, 100
17, 110394, Note_on_c, 15, 79, 100
17, 110398, Note_off_c, 15, 79, 100
17, 110410, Control_c, 15, 11, 105
17, 110414, Note_on_c, 15, 81, 100
17, 110418, Note_off_c, 15, 81, 100
17, 110430, Note_on_c, 15, 83, 100
17, 110434, Note_off_c, 15, 83, 100
17, 110450, Note_on_c, 15, 84, 100
17, 110454, Note_off_c, 15, 84, 100
17, 110458, Control_c, 15, 11, 111
17, 110464, Note_on_c, 15, 86, 100
17, 110468, Note_off_c, 15, 86, 100
17, 110480, Note_on_c, 15, 88, 100
17, 110484, Note_off_c, 15, 88, 100
17, 110494, Note_on_c, 15, 89, 100
17, 110498, Note_off_c, 15, 89, 100
17, 110502, Control_c, 15, 11, 113
17, 110510, Note_on_c, 15, 91, 100
17, 110514, Note_off_c, 15, 91, 100
17, 110522, Note_on_c, 15, 93, 100
17, 110526, Note_off_c, 15, 93, 100
17, 110534, Note_on_c, 15, 95, 100
17, 110538, Note_off_c, 15, 95, 100
17, 110546, Control_c, 15, 11, 119
17, 110546, Note_on_c, 15, 96, 100
17, 110550, Note_off_c, 15, 96, 100
17, 110560, Note_on_c, 15, 98, 100
17, 110564, Note_off_c, 15, 98, 100
17, 110570, Note_on_c, 15, 100, 100
17, 110574, Note_off_c, 15, 100, 100
17, 110582, Note_on_c, 15, 101, 100
17, 110586, Note_off_c, 15, 101, 100
17, 110592, Control_c, 15, 11, 127
17, 110594, Note_on_c, 15, 103, 100
17, 110598, Note_off_c, 15, 103, 100
17, 110604, Note_on_c, 15, 105, 100
17, 110608, Note_off_c, 15, 105, 100
17, 110616, Note_on_c, 15, 107, 100
17, 110620, Note_off_c, 15, 107, 100
17, 121344, Control_c, 15, 11, 50
17, 121352, Note_on_c, 15, 35, 100
17, 121356, Note_off_c, 15, 35, 100
17, 121356, Note_on_c, 15, 36, 100
17, 121360, Note_off_c, 15, 36, 100
17, 121362, Control_c, 15, 11, 54
17, 121372, Note_on_c, 15, 38, 100
17, 121376, Note_off_c, 15, 38, 100
17, 121384, Control_c, 15, 11, 57
17, 121402, Control_c, 15, 11, 60
17, 121406, Note_on_c, 15, 40, 100
17, 121410, Note_off_c, 15, 40, 100
17, 121436, Note_on_c, 15, 41, 100
17, 121440, Note_off_c, 15, 41, 100
17, 121442, Control_c, 15, 11, 65
17, 121472, Note_on_c, 15, 43, 100
17, 121476, Note_off_c, 15, 43, 100
17, 121482, Control_c, 15, 11, 68
17, 121494, Note_on_c, 15, 45, 100
17, 121498, Note_off_c, 15, 45, 100
17, 121516, Note_on_c, 15, 47, 100
17, 121520, Note_off_c, 15, 47, 100
17, 121536, Control_c, 15, 11, 73
17, 121536, Note_on_c, 15, 48, 100
17, 121540, Note_off_c, 15, 48, 100
17, 121558, Note_on_c, 15, 50, 100
17, 121562, Note_off_c, 15, 50, 100
17, 121576, Note_on_c, 15, 52, 100
17, 121580, Note_off_c, 15, 52, 100
17, 121586, Control_c, 15, 11, 76
17, 121600, Note_on_c, 15, 53, 100
17, 121604, Note_off_c, 15, 53, 100
17, 121622, Note_on_c, 15, 55, 100
17, 121626, Note_off_c, 15, 55, 100
17, 121638, Control_c, 15, 11, 80
17, 121642, Note_on_c, 15, 57, 100
17, 121646, Note_off_c, 15, 57, 100
17, 121666, Note_on_c, 15, 59, 100
17, 121670, Note_off_c, 15, 59, 100
17, 121680, Control_c, 15, 11, 84
17, 121692, Note_on_c, 15, 60, 100
17, 121696, Note_off_c, 15, 60, 100
17, 121714, Note_on_c, 15, 62, 100
17, 121718, Note_off_c, 15, 62, 100
17, 121728, Control_c, 15, 11, 88
17, 121736, Note_on_c, 15, 64, 100
17, 121740, Note_off_c, 15, 64, 100
17, 121756, Note_on_c, 15, 65, 100
17, 121760, Note_off_c, 15, 65, 100
17, 121778, Control_c, 15, 11, 93
17, 121778, Note_on_c, 15, 67, 100
17, 121782, Note_off_c, 15, 67, 100
17, 121794, Note_on_c, 15, 69, 100
17, 121798, Note_off_c, 15, 69, 100
17, 121816, Note_on_c, 15, 71, 100
17, 121820, Note_off_c, 15, 71, 100
17, 121832, Control_c, 15, 11, 97
17, 121836, Note_on_c, 15, 72, 100
17, 121840, Note_off_c, 15, 72, 100
17, 121856, Note_on_c, 15, 74, 100
17, 121860, Note_off_c, 15, 74, 100
17, 121872, Control_c, 15, 11, 101
17, 121876, Note_on_c, 15, 76, 100
17, 121880, Note_off_c, 15, 76, 100
17, 121896, Note_on_c, 15, 77, 100
17, 121900, Note_off_c, 15, 77, 100
17, 121914, Note_on_c, 15, 79, 100
17, 121918, Note_off_c, 15, 79, 100
17, 121930, Control_c, 15, 11, 105
17, 121934, Note_on_c, 15, 81, 100
17, 121938, Note_off_c, 15, 81, 100
17, 121950, Note_on_c, 15, 83, 100
17, 121954, Note_off_c, 15, 83, 100
17, 121970, Note_on_c, 15, 84, 100
17, 121974, Note_off_c, 15, 84, 100
17, 121978, Control_c, 15, 11, 111
17, 121984, Note_on_c, 15, 86, 100
17, 121988, Note_off_c, 15, 86, 100
17, 122000, Note_on_c, 15, 88, 100
17, 122004, Note_off_c, 15, 88, 100
17, 122014, Note_on_c, 15, 89, 100
17, 122018, Note_off_c, 15, 89, 100
17, 122022, Control_c, 15, 11, 113
17, 122030, Note_on_c, 15, 91, 100
17, 122034, Note_off_c, 15, 91, 100
17, 122042, Note_on_c, 15, 93, 100
17, 122046, Note_off_c, 15, 93, 100
17, 122054, Note_on_c, 15, 95, 100
17, 122058, Note_off_c, 15, 95, 100
17, 122066, Control_c, 15, 11, 119
17, 122066, Note_on_c, 15, 96, 100
17, 122070, Note_off_c, 15, 96, 100
17, 122080, Note_on_c, 15, 98, 100
17, 122084, Note_off_c, 15, 98, 100
17, 122090, Note_on_c, 15, 100, 100
17, 122094, Note_off_c, 15, 100, 100
17, 122102, Note_on_c, 15, 101, 100
17, 122106, Note_off_c, 15, 101, 100
17, 122112, Control_c, 15, 11, 127
17, 122114, Note_on_c, 15, 103, 100
17, 122118, Note_off_c, 15, 103, 100
17, 122124, Note_on_c, 15, 105, 100
17, 122128, Note_off_c, 15, 105, 100
17, 122136, Note_on_c, 15, 107, 100
17, 122140, Note_off_c, 15, 107, 100
17, 122140, End_track
18, 0, Start_track
18, 0, Text_t, "SC55dump"
18, 117, System_exclusive, 89, 41, 10, 42, 12, 48, 00, 00, 00, 04, 00, 00, 07, 0F, 05, 04, 04, 02, 04, 00, 04, 00, 00, 00, 02, 0D, 02, 00, 05, 03, 04, 0F, 05, 05, 04, 0E, 04, 04, 02, 00, 04, 03, 06, 01, 06, 0E, 07, 06, 06, 01, 07, 03, 02, 00, 02, 0D, 00, 02, 00, 06, 00, 02, 00, 02, 00, 02, 00, 02, 00, 02, 00, 02, 00, 02, 00, 02, 00, 00, 00, 00, 00, 00, 00, 00, 00, 00, 00, 00, 00, 00, 00, 00, 00, 04, 00, 04, 00, 00, 04, 00, 04, 00, 00, 00, 00, 00, 00, 00, 00, 02, 00, 00, 04, 00, 00, 08, 05, 00, 00, 03, 01, 03, 00, 00, 00, 00, 00, 00, 00, 00, 00, 00, 00, 00, 00, 00, 22, F7
18, 153, System_exclusive, 89, 41, 10, 42, 12, 48, 01, 00, 00, 00, 00, 00, 00, 00, 00, 00, 00, 00, 00, 00, 00, 00, 00, 00, 00, 00, 01, 08, 0F, 0F, 0F, 0F, 00, 09, 0D, 00, 04, 00, 08, 00, 06, 04, 04, 00, 04, 00, 04, 00, 00, 00, 07, 0F, 00, 00, 00, 00, 04, 00, 04, 00, 04, 00, 04, 00, 04, 00, 04, 00, 04, 00, 04, 00, 00, 00, 00, 00, 04, 00, 04, 00, 04, 00, 04, 00, 04, 00, 04, 00, 04, 00, 04, 00, 04, 00, 04, 00, 04, 00, 04, 00, 01, 00, 01, 01, 04, 00, 04, 00, 04, 00, 00, 00, 04, 00, 00, 0A, 00, 00, 00, 00, 04, 00, 00, 00, 00, 00, 00, 00, 04, 02, 04, 00, 04, 00, 00, 00, 25, F7
18, 189, System_exclusive, 89, 41, 10, 42, 12, 48, 02, 00, 04, 00, 00, 00, 00, 00, 00, 00, 04, 00, 00, 00, 00, 00, 00, 00, 04, 00, 04, 00, 04, 00, 04, 00, 04, 00, 00, 00, 00, 00, 00, 00, 04, 00, 00, 00, 00, 00, 00, 00, 04, 00, 04, 00, 04, 00, 04, 00, 04, 00, 00, 00, 00, 00, 00, 00, 04, 00, 00, 00, 00, 00, 00, 00, 04, 00, 04, 00, 04, 00, 00, 00, 04, 00, 00, 00, 00, 00, 00, 00, 04, 00, 00, 00, 00, 00, 00, 00, 04, 00, 04, 00, 04, 00, 00, 00, 04, 00, 00, 00, 00, 00, 00, 00, 04, 00, 00, 00, 00, 00, 00, 00, 00, 00, 05, 09, 0F, 0F, 0F, 0F, 00, 00, 08, 01, 04, 00, 08, 00, 77, F7
18, 225, System_exclusive, 89, 41, 10, 42, 12, 48, 03, 00, 06, 04, 04, 00, 04, 00, 04, 00, 00, 00, 07, 0F, 06, 0E, 02, 08, 04, 00, 04, 00, 04, 00, 04, 00, 04, 00, 04, 00, 04, 00, 04, 00, 00, 00, 00, 00, 04, 00, 04, 00, 04, 00, 04, 00, 04, 00, 04, 00, 04, 00, 04, 00, 04, 00, 04, 00, 04, 00, 04, 00, 01, 00, 01, 01, 04, 00, 04, 00, 04, 00, 00, 00, 04, 00, 00, 0A, 00, 00, 00, 00, 04, 00, 00, 00, 00, 00, 00, 00, 04, 02, 04, 00, 04, 00, 00, 00, 04, 00, 00, 00, 00, 00, 00, 00, 04, 00, 00, 00, 00, 00, 00, 00, 04, 00, 04, 00, 04, 00, 04, 00, 04, 00, 00, 00, 00, 00, 00, 00, 50, F7
18, 261, System_exclusive, 89, 41, 10, 42, 12, 48, 04, 00, 04, 00, 00, 00, 00, 00, 00, 00, 04, 00, 04, 00, 04, 00, 04, 00, 04, 00, 00, 00, 00, 00, 00, 00, 04, 00, 00, 00, 00, 00, 00, 00, 04, 00, 04, 00, 04, 00, 00, 00, 04, 00, 00, 00, 00, 00, 00, 00, 04, 00, 00, 00, 00, 00, 00, 00, 04, 00, 04, 00, 04, 00, 00, 00, 04, 00, 00, 00, 00, 00, 00, 00, 04, 00, 00, 00, 00, 00, 00, 00, 00, 00, 02, 06, 0F, 0F, 0F, 0F, 00, 01, 08, 01, 04, 00, 08, 00, 06, 04, 04, 00, 04, 00, 04, 00, 00, 00, 07, 0F, 05, 00, 00, 0A, 04, 00, 04, 00, 04, 00, 04, 00, 04, 00, 04, 00, 04, 00, 04, 00, 3B, F7
18, 296, System_exclusive, 89, 41, 10, 42, 12, 48, 05, 00, 00, 00, 00, 00, 04, 00, 04, 00, 04, 00, 04, 00, 04, 00, 04, 00, 04, 00, 04, 00, 04, 00, 04, 00, 04, 00, 04, 00, 01, 00, 01, 01, 04, 00, 04, 00, 04, 00, 00, 00, 04, 00, 00, 0A, 00, 00, 00, 00, 04, 00, 00, 00, 00, 00, 00, 00, 04, 02, 04, 00, 04, 00, 00, 00, 04, 00, 00, 00, 00, 00, 00, 00, 04, 00, 00, 00, 00, 00, 00, 00, 04, 00, 04, 00, 04, 00, 04, 00, 04, 00, 00, 00, 00, 00, 00, 00, 04, 00, 00, 00, 00, 00, 00, 00, 04, 00, 04, 00, 04, 00, 04, 00, 04, 00, 00, 00, 00, 00, 00, 00, 04, 00, 00, 00, 00, 00, 00, 00, 1C, F7
18, 332, System_exclusive, 89, 41, 10, 42, 12, 48, 06, 00, 04, 00, 04, 00, 04, 00, 00, 00, 04, 00, 00, 00, 00, 00, 00, 00, 04, 00, 00, 00, 00, 00, 00, 00, 04, 00, 04, 00, 04, 00, 00, 00, 04, 00, 00, 00, 00, 00, 00, 00, 04, 00, 00, 00, 00, 00, 00, 00, 00, 00, 05, 07, 0F, 0F, 0F, 0F, 00, 02, 08, 01, 04, 00, 08, 00, 06, 04, 05, 08, 04, 00, 04, 00, 00, 00, 07, 0F, 00, 00, 03, 0C, 04, 00, 04, 00, 04, 00, 04, 00, 04, 00, 04, 00, 04, 00, 04, 00, 00, 00, 00, 00, 04, 00, 04, 00, 04, 00, 04, 00, 04, 00, 04, 00, 04, 00, 04, 00, 04, 00, 04, 00, 04, 00, 04, 00, 01, 00, 01, 01, 14, F7
18, 368, System_exclusive, 89, 41, 10, 42, 12, 48, 07, 00, 04, 00, 04, 00, 04, 00, 00, 00, 04, 00, 00, 0A, 00, 00, 00, 00, 04, 00, 00, 00, 00, 00, 00, 00, 04, 02, 04, 00, 04, 00, 00, 00, 04, 00, 00, 00, 00, 00, 00, 00, 04, 00, 00, 00, 00, 00, 00, 00, 04, 00, 04, 00, 04, 00, 04, 00, 04, 00, 00, 00, 00, 00, 00, 00, 04, 00, 00, 00, 00, 00, 00, 00, 04, 00, 04, 00, 04, 00, 04, 00, 04, 00, 00, 00, 00, 00, 00, 00, 04, 00, 00, 00, 00, 00, 00, 00, 04, 00, 04, 00, 04, 00, 00, 00, 04, 00, 00, 00, 00, 00, 00, 00, 04, 00, 00, 00, 00, 00, 00, 00, 04, 00, 04, 00, 04, 00, 00, 00, 2D, F7
18, 403, System_exclusive, 89, 41, 10, 42, 12, 48, 08, 00, 04, 00, 00, 00, 00, 00, 00, 00, 04, 00, 00, 00, 00, 00, 00, 00, 00, 00, 06, 03, 0F, 0F, 0F, 0F, 00, 03, 08, 01, 04, 00, 08, 00, 06, 04, 04, 00, 04, 00, 04, 00, 00, 00, 07, 0F, 00, 00, 02, 08, 04, 00, 04, 00, 04, 00, 04, 00, 04, 00, 04, 00, 04, 00, 04, 00, 00, 00, 00, 00, 04, 00, 04, 00, 04, 00, 04, 00, 04, 00, 04, 00, 04, 00, 04, 00, 04, 00, 04, 00, 04, 00, 04, 00, 01, 00, 01, 01, 04, 00, 04, 00, 04, 00, 00, 00, 04, 00, 00, 0A, 00, 00, 00, 00, 04, 00, 00, 00, 00, 00, 00, 00, 04, 02, 04, 00, 04, 00, 00, 00, 16, F7
18, 440, System_exclusive, 89, 41, 10, 42, 12, 48, 09, 00, 04, 00, 00, 00, 00, 00, 00, 00, 04, 00, 00, 00, 00, 00, 00, 00, 04, 00, 04, 00, 04, 00, 04, 00, 04, 00, 00, 00, 00, 00, 00, 00, 04, 00, 00, 00, 00, 00, 00, 00, 04, 00, 04, 00, 04, 00, 04, 00, 04, 00, 00, 00, 00, 00, 00, 00, 04, 00, 00, 00, 00, 00, 00, 00, 04, 00, 04, 00, 04, 00, 00, 00, 04, 00, 00, 00, 00, 00, 00, 00, 04, 00, 00, 00, 00, 00, 00, 00, 04, 00, 04, 00, 04, 00, 00, 00, 04, 00, 00, 00, 00, 00, 00, 00, 04, 00, 00, 00, 00, 00, 00, 00, 00, 00, 00, 07, 0F, 0F, 0F, 0F, 00, 04, 08, 01, 04, 00, 08, 00, 73, F7
18, 476, System_exclusive, 89, 41, 10, 42, 12, 48, 0A, 00, 06, 04, 01, 00, 04, 00, 04, 00, 00, 00, 07, 0F, 00, 00, 02, 08, 04, 00, 04, 00, 04, 00, 04, 00, 04, 00, 04, 00, 04, 00, 04, 00, 00, 00, 00, 00, 04, 00, 04, 00, 04, 00, 04, 00, 04, 00, 04, 00, 04, 00, 04, 00, 04, 00, 04, 00, 04, 00, 04, 00, 01, 00, 01, 01, 04, 00, 04, 00, 04, 00, 00, 00, 04, 00, 00, 0A, 00, 00, 00, 00, 04, 00, 00, 00, 00, 00, 00, 00, 04, 02, 04, 00, 04, 00, 00, 00, 04, 00, 00, 00, 00, 00, 00, 00, 04, 00, 00, 00, 00, 00, 00, 00, 04, 00, 04, 00, 04, 00, 04, 00, 04, 00, 00, 00, 00, 00, 00, 00, 60, F7
18, 512, System_exclusive, 89, 41, 10, 42, 12, 48, 0B, 00, 04, 00, 00, 00, 00, 00, 00, 00, 04, 00, 04, 00, 04, 00, 04, 00, 04, 00, 00, 00, 00, 00, 00, 00, 04, 00, 00, 00, 00, 00, 00, 00, 04, 00, 04, 00, 04, 00, 00, 00, 04, 00, 00, 00, 00, 00, 00, 00, 04, 00, 00, 00, 00, 00, 00, 00, 04, 00, 04, 00, 04, 00, 00, 00, 04, 00, 00, 00, 00, 00, 00, 00, 04, 00, 00, 00, 00, 00, 00, 00, 00, 00, 00, 07, 0F, 0F, 0F, 0F, 00, 05, 08, 01, 04, 00, 08, 00, 06, 04, 07, 00, 04, 00, 04, 00, 00, 00, 07, 0F, 00, 00, 02, 08, 04, 00, 04, 00, 04, 00, 04, 00, 04, 00, 04, 00, 04, 00, 04, 00, 33, F7
18, 548, System_exclusive, 89, 41, 10, 42, 12, 48, 0C, 00, 00, 00, 00, 00, 04, 00, 04, 00, 04, 00, 04, 00, 04, 00, 04, 00, 04, 00, 04, 00, 04, 00, 04, 00, 04, 00, 04, 00, 01, 00, 01, 01, 04, 00, 04, 00, 04, 00, 00, 00, 04, 00, 00, 0A, 00, 00, 00, 00, 04, 00, 00, 00, 00, 00, 00, 00, 04, 02, 04, 00, 04, 00, 00, 00, 04, 00, 00, 00, 00, 00, 00, 00, 04, 00, 00, 00, 00, 00, 00, 00, 04, 00, 04, 00, 04, 00, 04, 00, 04, 00, 00, 00, 00, 00, 00, 00, 04, 00, 00, 00, 00, 00, 00, 00, 04, 00, 04, 00, 04, 00, 04, 00, 04, 00, 00, 00, 00, 00, 00, 00, 04, 00, 00, 00, 00, 00, 00, 00, 15, F7
18, 584, System_exclusive, 89, 41, 10, 42, 12, 48, 0D, 00, 04, 00, 04, 00, 04, 00, 00, 00, 04, 00, 00, 00, 00, 00, 00, 00, 04, 00, 00, 00, 00, 00, 00, 00, 04, 00, 04, 00, 04, 00, 00, 00, 04, 00, 00, 00, 00, 00, 00, 00, 04, 00, 00, 00, 00, 00, 00, 00, 00, 00, 03, 0E, 0F, 0F, 0F, 0F, 00, 06, 08, 01, 04, 00, 08, 00, 06, 04, 02, 08, 04, 00, 04, 00, 00, 00, 07, 0F, 00, 00, 03, 02, 04, 00, 04, 00, 04, 00, 04, 00, 04, 00, 04, 00, 04, 00, 04, 00, 00, 00, 00, 00, 04, 00, 04, 00, 04, 00, 04, 00, 04, 00, 04, 00, 04, 00, 04, 00, 04, 00, 04, 00, 04, 00, 04, 00, 01, 00, 01, 01, 11, F7
18, 621, System_exclusive, 89, 41, 10, 42, 12, 48, 0E, 00, 04, 00, 04, 00, 04, 00, 00, 00, 04, 00, 00, 0A, 00, 00, 00, 00, 04, 00, 00, 00, 00, 00, 00, 00, 04, 02, 04, 00, 04, 00, 00, 00, 04, 00, 00, 00, 00, 00, 00, 00, 04, 00, 00, 00, 00, 00, 00, 00, 04, 00, 04, 00, 04, 00, 04, 00, 04, 00, 00, 00, 00, 00, 00, 00, 04, 00, 00, 00, 00, 00, 00, 00, 04, 00, 04, 00, 04, 00, 04, 00, 04, 00, 00, 00, 00, 00, 00, 00, 04, 00, 00, 00, 00, 00, 00, 00, 04, 00, 04, 00, 04, 00, 00, 00, 04, 00, 00, 00, 00, 00, 00, 00, 04, 00, 00, 00, 00, 00, 00, 00, 04, 00, 04, 00, 04, 00, 00, 00, 26, F7
18, 657, System_exclusive, 89, 41, 10, 42, 12, 48, 0F, 00, 04, 00, 00, 00, 00, 00, 00, 00, 04, 00, 00, 00, 00, 00, 00, 00, 00, 00, 03, 05, 0F, 0F, 0F, 0F, 00, 07, 08, 01, 04, 00, 08, 00, 06, 04, 04, 00, 04, 00, 04, 00, 00, 00, 07, 0F, 00, 00, 02, 08, 04, 00, 04, 00, 04, 00, 04, 00, 04, 00, 04, 00, 04, 00, 04, 00, 00, 00, 00, 00, 04, 00, 04, 00, 04, 00, 04, 00, 04, 00, 04, 00, 04, 00, 04, 00, 04, 00, 04, 00, 04, 00, 04, 00, 01, 00, 01, 01, 04, 00, 04, 00, 04, 00, 00, 00, 04, 00, 00, 0A, 00, 00, 00, 00, 04, 00, 00, 00, 00, 00, 00, 00, 04, 02, 04, 00, 04, 00, 00, 00, 0C, F7
18, 692, System_exclusive, 89, 41, 10, 42, 12, 48, 10, 00, 04, 00, 00, 00, 00, 00, 00, 00, 04, 00, 00, 00, 00, 00, 00, 00, 04, 00, 04, 00, 04, 00, 04, 00, 04, 00, 00, 00, 00, 00, 00, 00, 04, 00, 00, 00, 00, 00, 00, 00, 04, 00, 04, 00, 04, 00, 04, 00, 04, 00, 00, 00, 00, 00, 00, 00, 04, 00, 00, 00, 00, 00, 00, 00, 04, 00, 04, 00, 04, 00, 00, 00, 04, 00, 00, 00, 00, 00, 00, 00, 04, 00, 00, 00, 00, 00, 00, 00, 04, 00, 04, 00, 04, 00, 00, 00, 04, 00, 00, 00, 00, 00, 00, 00, 04, 00, 00, 00, 00, 00, 00, 00, 00, 00, 03, 02, 0F, 0F, 0F, 0F, 00, 08, 08, 01, 04, 00, 08, 00, 6A, F7
18, 728, System_exclusive, 89, 41, 10, 42, 12, 48, 11, 00, 06, 04, 07, 08, 04, 00, 04, 00, 00, 00, 07, 0F, 06, 0E, 03, 02, 04, 00, 04, 00, 04, 00, 04, 00, 04, 00, 04, 00, 04, 00, 04, 00, 00, 00, 00, 00, 04, 00, 04, 00, 04, 00, 04, 00, 04, 00, 04, 00, 04, 00, 04, 00, 04, 00, 04, 00, 04, 00, 04, 00, 01, 00, 01, 01, 04, 00, 04, 00, 04, 00, 00, 00, 04, 00, 00, 0A, 00, 00, 00, 00, 04, 00, 00, 00, 00, 00, 00, 00, 04, 02, 04, 00, 04, 00, 00, 00, 04, 00, 00, 00, 00, 00, 00, 00, 04, 00, 00, 00, 00, 00, 00, 00, 04, 00, 04, 00, 04, 00, 04, 00, 04, 00, 00, 00, 00, 00, 00, 00, 3C, F7
18, 764, System_exclusive, 89, 41, 10, 42, 12, 48, 12, 00, 04, 00, 00, 00, 00, 00, 00, 00, 04, 00, 04, 00, 04, 00, 04, 00, 04, 00, 00, 00, 00, 00, 00, 00, 04, 00, 00, 00, 00, 00, 00, 00, 04, 00, 04, 00, 04, 00, 00, 00, 04, 00, 00, 00, 00, 00, 00, 00, 04, 00, 00, 00, 00, 00, 00, 00, 04, 00, 04, 00, 04, 00, 00, 00, 04, 00, 00, 00, 00, 00, 00, 00, 04, 00, 00, 00, 00, 00, 00, 00, 00, 00, 01, 09, 0F, 0F, 0F, 0F, 00, 0A, 0B, 01, 04, 00, 08, 00, 06, 04, 04, 00, 04, 00, 04, 00, 00, 00, 07, 0F, 00, 00, 00, 00, 04, 00, 04, 00, 04, 00, 04, 00, 04, 00, 04, 00, 04, 00, 04, 00, 2E, F7
18, 800, System_exclusive, 89, 41, 10, 42, 12, 48, 13, 00, 00, 00, 00, 00, 04, 00, 04, 00, 04, 00, 04, 00, 04, 00, 04, 00, 04, 00, 04, 00, 04, 00, 04, 00, 04, 00, 04, 00, 01, 00, 01, 01, 04, 00, 04, 00, 04, 00, 00, 00, 04, 00, 00, 0A, 00, 00, 00, 00, 04, 00, 00, 00, 00, 00, 00, 00, 04, 02, 04, 00, 04, 00, 00, 00, 04, 00, 00, 00, 00, 00, 00, 00, 04, 00, 00, 00, 00, 00, 00, 00, 04, 00, 04, 00, 04, 00, 04, 00, 04, 00, 00, 00, 00, 00, 00, 00, 04, 00, 00, 00, 00, 00, 00, 00, 04, 00, 04, 00, 04, 00, 04, 00, 04, 00, 00, 00, 00, 00, 00, 00, 04, 00, 00, 00, 00, 00, 00, 00, 0E, F7
18, 836, System_exclusive, 89, 41, 10, 42, 12, 48, 14, 00, 04, 00, 04, 00, 04, 00, 00, 00, 04, 00, 00, 00, 00, 00, 00, 00, 04, 00, 00, 00, 00, 00, 00, 00, 04, 00, 04, 00, 04, 00, 00, 00, 04, 00, 00, 00, 00, 00, 00, 00, 04, 00, 00, 00, 00, 00, 00, 00, 00, 00, 01, 09, 0F, 0F, 0F, 0F, 00, 0B, 0B, 01, 04, 00, 08, 00, 06, 04, 04, 00, 04, 00, 04, 00, 00, 00, 07, 0F, 00, 00, 00, 0A, 04, 00, 04, 00, 04, 00, 04, 00, 04, 00, 04, 00, 04, 00, 04, 00, 00, 00, 00, 00, 04, 00, 04, 00, 04, 00, 04, 00, 04, 00, 04, 00, 04, 00, 04, 00, 04, 00, 04, 00, 04, 00, 04, 00, 01, 00, 01, 01, 0A, F7
18, 872, System_exclusive, 89, 41, 10, 42, 12, 48, 15, 00, 04, 00, 04, 00, 04, 00, 00, 00, 04, 00, 00, 0A, 00, 00, 00, 00, 04, 00, 00, 00, 00, 00, 00, 00, 04, 02, 04, 00, 04, 00, 00, 00, 04, 00, 00, 00, 00, 00, 00, 00, 04, 00, 00, 00, 00, 00, 00, 00, 04, 00, 04, 00, 04, 00, 04, 00, 04, 00, 00, 00, 00, 00, 00, 00, 04, 00, 00, 00, 00, 00, 00, 00, 04, 00, 04, 00, 04, 00, 04, 00, 04, 00, 00, 00, 00, 00, 00, 00, 04, 00, 00, 00, 00, 00, 00, 00, 04, 00, 04, 00, 04, 00, 00, 00, 04, 00, 00, 00, 00, 00, 00, 00, 04, 00, 00, 00, 00, 00, 00, 00, 04, 00, 04, 00, 04, 00, 00, 00, 1F, F7
18, 907, System_exclusive, 89, 41, 10, 42, 12, 48, 16, 00, 04, 00, 00, 00, 00, 00, 00, 00, 04, 00, 00, 00, 00, 00, 00, 00, 00, 00, 05, 0C, 0F, 0F, 0F, 0F, 00, 0C, 08, 01, 04, 00, 08, 00, 06, 04, 04, 00, 04, 00, 04, 00, 00, 00, 07, 0F, 03, 0C, 02, 08, 04, 00, 04, 00, 04, 00, 04, 00, 04, 00, 04, 00, 04, 00, 04, 00, 00, 00, 00, 00, 04, 00, 04, 00, 04, 00, 04, 00, 04, 00, 04, 00, 04, 00, 04, 00, 04, 00, 04, 00, 04, 00, 04, 00, 01, 00, 01, 01, 04, 00, 04, 00, 04, 00, 00, 00, 04, 00, 00, 0A, 00, 00, 00, 00, 04, 00, 00, 00, 00, 00, 00, 00, 04, 02, 04, 00, 04, 00, 00, 00, 68, F7
18, 943, System_exclusive, 89, 41, 10, 42, 12, 48, 17, 00, 04, 00, 00, 00, 00, 00, 00, 00, 04, 00, 00, 00, 00, 00, 00, 00, 04, 00, 04, 00, 04, 00, 04, 00, 04, 00, 00, 00, 00, 00, 00, 00, 04, 00, 00, 00, 00, 00, 00, 00, 04, 00, 04, 00, 04, 00, 04, 00, 04, 00, 00, 00, 00, 00, 00, 00, 04, 00, 00, 00, 00, 00, 00, 00, 04, 00, 04, 00, 04, 00, 00, 00, 04, 00, 00, 00, 00, 00, 00, 00, 04, 00, 00, 00, 00, 00, 00, 00, 04, 00, 04, 00, 04, 00, 00, 00, 04, 00, 00, 00, 00, 00, 00, 00, 04, 00, 00, 00, 00, 00, 00, 00, 00, 00, 07, 03, 0F, 0F, 0F, 0F, 00, 0D, 08, 01, 04, 00, 08, 00, 59, F7
18, 979, System_exclusive, 89, 41, 10, 42, 12, 48, 18, 00, 06, 04, 06, 00, 04, 00, 04, 00, 00, 00, 07, 0F, 00, 00, 02, 08, 04, 00, 04, 00, 04, 00, 04, 00, 04, 00, 04, 00, 04, 00, 04, 00, 00, 00, 00, 00, 04, 00, 04, 00, 04, 00, 04, 00, 04, 00, 04, 00, 04, 00, 04, 00, 04, 00, 04, 00, 04, 00, 04, 00, 01, 00, 01, 01, 04, 00, 04, 00, 04, 00, 00, 00, 04, 00, 00, 0A, 00, 00, 00, 00, 04, 00, 00, 00, 00, 00, 00, 00, 04, 02, 04, 00, 04, 00, 00, 00, 04, 00, 00, 00, 00, 00, 00, 00, 04, 00, 00, 00, 00, 00, 00, 00, 04, 00, 04, 00, 04, 00, 04, 00, 04, 00, 00, 00, 00, 00, 00, 00, 4D, F7
18, 1016, System_exclusive, 89, 41, 10, 42, 12, 48, 19, 00, 04, 00, 00, 00, 00, 00, 00, 00, 04, 00, 04, 00, 04, 00, 04, 00, 04, 00, 00, 00, 00, 00, 00, 00, 04, 00, 00, 00, 00, 00, 00, 00, 04, 00, 04, 00, 04, 00, 00, 00, 04, 00, 00, 00, 00, 00, 00, 00, 04, 00, 00, 00, 00, 00, 00, 00, 04, 00, 04, 00, 04, 00, 00, 00, 04, 00, 00, 00, 00, 00, 00, 00, 04, 00, 00, 00, 00, 00, 00, 00, 00, 00, 01, 09, 0F, 0F, 0F, 0F, 00, 0E, 0B, 01, 04, 00, 08, 00, 06, 04, 04, 00, 04, 00, 04, 00, 00, 00, 07, 0F, 00, 00, 06, 0E, 04, 00, 04, 00, 04, 00, 04, 00, 04, 00, 04, 00, 04, 00, 04, 00, 0F, F7
18, 1052, System_exclusive, 89, 41, 10, 42, 12, 48, 1A, 00, 00, 00, 00, 00, 04, 00, 04, 00, 04, 00, 04, 00, 04, 00, 04, 00, 04, 00, 04, 00, 04, 00, 04, 00, 04, 00, 04, 00, 01, 00, 01, 01, 04, 00, 04, 00, 04, 00, 00, 00, 04, 00, 00, 0A, 00, 00, 00, 00, 04, 00, 00, 00, 00, 00, 00, 00, 04, 02, 04, 00, 04, 00, 00, 00, 04, 00, 00, 00, 00, 00, 00, 00, 04, 00, 00, 00, 00, 00, 00, 00, 04, 00, 04, 00, 04, 00, 04, 00, 04, 00, 00, 00, 00, 00, 00, 00, 04, 00, 00, 00, 00, 00, 00, 00, 04, 00, 04, 00, 04, 00, 04, 00, 04, 00, 00, 00, 00, 00, 00, 00, 04, 00, 00, 00, 00, 00, 00, 00, 07, F7
18, 1087, System_exclusive, 89, 41, 10, 42, 12, 48, 1B, 00, 04, 00, 04, 00, 04, 00, 00, 00, 04, 00, 00, 00, 00, 00, 00, 00, 04, 00, 00, 00, 00, 00, 00, 00, 04, 00, 04, 00, 04, 00, 00, 00, 04, 00, 00, 00, 00, 00, 00, 00, 04, 00, 00, 00, 00, 00, 00, 00, 00, 00, 07, 06, 0F, 0F, 0F, 0F, 00, 0F, 08, 01, 04, 00, 08, 00, 06, 04, 04, 00, 04, 00, 04, 00, 00, 00, 07, 0F, 00, 00, 06, 04, 04, 00, 04, 00, 04, 00, 04, 00, 04, 00, 04, 00, 04, 00, 04, 00, 00, 00, 00, 00, 04, 00, 04, 00, 04, 00, 04, 00, 04, 00, 04, 00, 04, 00, 04, 00, 04, 00, 04, 00, 04, 00, 04, 00, 01, 00, 01, 01, 7F, F7
18, 1124, System_exclusive, 89, 41, 10, 42, 12, 48, 1C, 00, 04, 00, 04, 00, 04, 00, 00, 00, 04, 00, 00, 0A, 00, 00, 00, 00, 04, 00, 00, 00, 00, 00, 00, 00, 04, 02, 04, 00, 04, 00, 00, 00, 04, 00, 00, 00, 00, 00, 00, 00, 04, 00, 00, 00, 00, 00, 00, 00, 04, 00, 04, 00, 04, 00, 04, 00, 04, 00, 00, 00, 00, 00, 00, 00, 04, 00, 00, 00, 00, 00, 00, 00, 04, 00, 04, 00, 04, 00, 04, 00, 04, 00, 00, 00, 00, 00, 00, 00, 04, 00, 00, 00, 00, 00, 00, 00, 04, 00, 04, 00, 04, 00, 00, 00, 04, 00, 00, 00, 00, 00, 00, 00, 04, 00, 00, 00, 00, 00, 00, 00, 04, 00, 04, 00, 04, 00, 00, 00, 18, F7
18, 1158, System_exclusive, 19, 41, 10, 42, 12, 48, 1D, 00, 04, 00, 00, 00, 00, 00, 00, 00, 04, 00, 00, 00, 00, 00, 00, 00, 13, F7
18, 1196, System_exclusive, 89, 41, 10, 42, 12, 49, 00, 00, 00, 00, 00, 00, 00, 00, 00, 00, 00, 00, 00, 00, 00, 00, 00, 00, 00, 00, 00, 00, 00, 00, 00, 00, 00, 00, 00, 00, 00, 00, 00, 00, 00, 00, 00, 00, 00, 00, 00, 00, 00, 00, 00, 00, 00, 00, 00, 00, 00, 00, 00, 00, 00, 00, 03, 0C, 03, 0C, 03, 0C, 03, 0C, 03, 0C, 03, 0C, 03, 0C, 03, 0C, 03, 0C, 03, 0C, 03, 0C, 03, 0C, 03, 0C, 03, 0C, 02, 00, 03, 0C, 02, 08, 03, 0C, 02, 0E, 03, 0C, 03, 06, 03, 0C, 03, 0C, 04, 04, 03, 0C, 03, 0C, 03, 0C, 03, 0C, 04, 05, 03, 0C, 03, 0D, 03, 0C, 03, 0D, 03, 0C, 03, 0C, 03, 0C, 03, 04, 36, F7
18, 1231, System_exclusive, 89, 41, 10, 42, 12, 49, 01, 00, 02, 0E, 03, 0D, 03, 08, 04, 01, 03, 0C, 03, 0C, 03, 0C, 03, 0C, 03, 0C, 03, 0C, 03, 0C, 03, 0C, 04, 04, 03, 0F, 03, 0C, 03, 0C, 03, 0C, 03, 0C, 03, 0C, 03, 0C, 03, 0C, 03, 0C, 03, 0C, 03, 0C, 00, 00, 00, 00, 00, 00, 00, 00, 00, 00, 00, 00, 00, 00, 00, 00, 00, 00, 00, 00, 00, 00, 00, 00, 00, 00, 00, 00, 00, 00, 00, 00, 00, 00, 00, 00, 00, 00, 00, 00, 00, 00, 00, 00, 00, 00, 00, 00, 00, 00, 00, 00, 00, 00, 00, 00, 00, 00, 00, 00, 00, 00, 00, 00, 00, 00, 00, 00, 00, 00, 00, 00, 00, 00, 00, 00, 00, 00, 00, 00, 5E, F7
18, 1284, System_exclusive, 89, 41, 10, 42, 12, 49, 02, 00, 07, 0F, 07, 0F, 07, 0F, 07, 0F, 07, 0F, 07, 0F, 07, 0F, 07, 0F, 07, 0F, 07, 0F, 07, 0F, 07, 0F, 07, 0F, 07, 0F, 07, 0F, 07, 0F, 07, 0F, 07, 0F, 07, 0F, 07, 0F, 07, 0F, 07, 0F, 07, 0F, 07, 0F, 07, 0F, 07, 0F, 07, 0F, 04, 0F, 06, 0B, 05, 07, 05, 0B, 07, 03, 07, 0F, 06, 07, 06, 07, 07, 0F, 07, 0F, 07, 0F, 07, 0F, 06, 03, 07, 0F, 07, 0F, 07, 0F, 07, 0F, 05, 07, 07, 0F, 07, 0F, 07, 0F, 07, 0F, 07, 0F, 07, 0F, 07, 08, 06, 0F, 06, 03, 07, 07, 05, 03, 07, 03, 07, 0F, 06, 09, 07, 08, 07, 0F, 07, 0F, 06, 03, 06, 0B, 59, F7
18, 1319, System_exclusive, 89, 41, 10, 42, 12, 49, 03, 00, 07, 0B, 06, 03, 06, 03, 06, 03, 06, 03, 05, 0F, 06, 09, 04, 0F, 05, 03, 06, 0B, 06, 0F, 06, 0E, 06, 0B, 06, 0B, 05, 03, 05, 07, 05, 0F, 05, 0F, 07, 0B, 07, 07, 07, 0B, 07, 0B, 07, 0F, 07, 0F, 07, 0F, 07, 0F, 07, 0F, 07, 0F, 07, 0F, 07, 0F, 07, 0F, 07, 0F, 07, 0F, 07, 0F, 07, 0F, 07, 0F, 07, 0F, 07, 0F, 07, 0F, 07, 0F, 07, 0F, 07, 0F, 07, 0F, 07, 0F, 07, 0F, 07, 0F, 07, 0F, 07, 0F, 07, 0F, 07, 0F, 07, 0F, 07, 0F, 07, 0F, 07, 0F, 07, 0F, 07, 0F, 07, 0F, 07, 0F, 07, 0F, 07, 0F, 07, 0F, 07, 0F, 07, 0F, 07, 0F, 48, F7
18, 1375, System_exclusive, 89, 41, 10, 42, 12, 49, 04, 00, 00, 00, 00, 00, 00, 00, 00, 00, 00, 00, 00, 00, 00, 00, 00, 00, 00, 00, 00, 00, 00, 00, 00, 00, 00, 00, 00, 00, 00, 00, 00, 00, 00, 00, 00, 00, 00, 00, 00, 00, 00, 00, 00, 00, 00, 00, 00, 00, 00, 00, 00, 00, 00, 00, 00, 00, 00, 00, 00, 07, 00, 07, 00, 00, 00, 00, 00, 00, 00, 00, 00, 00, 00, 00, 00, 00, 00, 00, 00, 00, 00, 00, 00, 00, 00, 01, 00, 00, 00, 01, 00, 00, 00, 01, 00, 00, 00, 00, 00, 00, 00, 00, 00, 00, 00, 00, 00, 00, 00, 00, 00, 00, 00, 00, 00, 00, 00, 00, 00, 00, 00, 00, 00, 00, 00, 00, 00, 00, 22, F7
18, 1410, System_exclusive, 89, 41, 10, 42, 12, 49, 05, 00, 00, 00, 00, 00, 00, 00, 00, 00, 00, 00, 00, 00, 00, 00, 00, 02, 00, 02, 00, 03, 00, 03, 00, 00, 00, 00, 00, 00, 00, 04, 00, 04, 00, 05, 00, 05, 00, 00, 00, 00, 00, 00, 00, 00, 00, 06, 00, 06, 00, 00, 00, 00, 00, 00, 00, 00, 00, 00, 00, 00, 00, 00, 00, 00, 00, 00, 00, 00, 00, 00, 00, 00, 00, 00, 00, 00, 00, 00, 00, 00, 00, 00, 00, 00, 00, 00, 00, 00, 00, 00, 00, 00, 00, 00, 00, 00, 00, 00, 00, 00, 00, 00, 00, 00, 00, 00, 00, 00, 00, 00, 00, 00, 00, 00, 00, 00, 00, 00, 00, 00, 00, 00, 00, 00, 00, 00, 00, 00, 0A, F7
18, 1463, System_exclusive, 89, 41, 10, 42, 12, 49, 06, 00, 04, 00, 04, 00, 04, 00, 04, 00, 04, 00, 04, 00, 04, 00, 04, 00, 04, 00, 04, 00, 04, 00, 04, 00, 04, 00, 04, 00, 04, 00, 04, 00, 04, 00, 04, 00, 04, 00, 04, 00, 04, 00, 04, 00, 04, 00, 04, 00, 04, 00, 04, 00, 04, 00, 03, 01, 03, 01, 03, 06, 03, 06, 04, 00, 03, 06, 04, 00, 04, 00, 04, 00, 04, 00, 04, 00, 04, 00, 03, 06, 04, 00, 02, 02, 05, 04, 02, 0E, 05, 04, 03, 0A, 05, 04, 04, 06, 05, 02, 05, 04, 05, 0E, 02, 0C, 02, 0C, 02, 0C, 04, 0A, 03, 06, 05, 04, 02, 0C, 01, 0D, 02, 02, 06, 03, 06, 03, 02, 07, 02, 0C, 7D, F7
18, 1498, System_exclusive, 89, 41, 10, 42, 12, 49, 07, 00, 03, 01, 05, 04, 05, 04, 01, 0D, 01, 0D, 01, 0D, 01, 08, 06, 03, 06, 03, 05, 0E, 05, 0E, 05, 04, 06, 03, 06, 03, 02, 0C, 02, 0C, 01, 08, 01, 08, 05, 0E, 06, 03, 06, 08, 02, 02, 02, 0C, 02, 0C, 04, 00, 04, 00, 04, 00, 04, 00, 04, 00, 04, 00, 04, 00, 04, 00, 04, 00, 04, 00, 04, 00, 04, 00, 04, 00, 04, 00, 04, 00, 04, 00, 04, 00, 04, 00, 04, 00, 04, 00, 04, 00, 04, 00, 04, 00, 04, 00, 04, 00, 04, 00, 04, 00, 04, 00, 04, 00, 04, 00, 04, 00, 04, 00, 04, 00, 04, 00, 04, 00, 04, 00, 04, 00, 04, 00, 04, 00, 04, 00, 7C, F7
18, 1551, System_exclusive, 89, 41, 10, 42, 12, 49, 08, 00, 00, 00, 00, 00, 00, 00, 00, 00, 00, 00, 00, 00, 00, 00, 00, 00, 00, 00, 00, 00, 00, 00, 00, 00, 00, 00, 00, 00, 00, 00, 00, 00, 00, 00, 00, 00, 00, 00, 00, 00, 00, 00, 00, 00, 00, 00, 00, 00, 00, 00, 00, 00, 00, 00, 07, 0F, 07, 0F, 03, 0F, 03, 0F, 03, 0F, 00, 00, 03, 0F, 03, 0F, 02, 00, 07, 0F, 07, 0F, 07, 0F, 07, 0F, 07, 0F, 07, 0F, 01, 0F, 07, 0F, 02, 00, 07, 0F, 01, 0F, 07, 0F, 07, 0F, 07, 0F, 07, 0F, 07, 0F, 07, 0F, 07, 0F, 03, 0F, 07, 0F, 03, 0F, 07, 0F, 07, 0F, 07, 0F, 05, 0F, 05, 0F, 07, 0F, 07, 0F, 6B, F7
18, 1590, System_exclusive, 89, 41, 10, 42, 12, 49, 09, 00, 05, 0F, 07, 0F, 07, 0F, 05, 0F, 05, 0F, 03, 0F, 03, 0F, 07, 0F, 07, 0F, 03, 0F, 03, 0F, 05, 0F, 05, 0F, 05, 0F, 07, 0F, 07, 0F, 05, 0F, 07, 0F, 03, 0F, 07, 0F, 07, 0F, 05, 0F, 05, 0F, 05, 0F, 00, 00, 00, 00, 00, 00, 00, 00, 00, 00, 00, 00, 00, 00, 00, 00, 00, 00, 00, 00, 00, 00, 00, 00, 00, 00, 00, 00, 00, 00, 00, 00, 00, 00, 00, 00, 00, 00, 00, 00, 00, 00, 00, 00, 00, 00, 00, 00, 00, 00, 00, 00, 00, 00, 00, 00, 00, 00, 00, 00, 00, 00, 00, 00, 00, 00, 00, 00, 00, 00, 00, 00, 00, 00, 00, 00, 00, 00, 00, 00, 46, F7
18, 1642, System_exclusive, 89, 41, 10, 42, 12, 49, 0A, 00, 00, 00, 00, 00, 00, 00, 00, 00, 00, 00, 00, 00, 00, 00, 00, 00, 00, 00, 00, 00, 00, 00, 00, 00, 00, 00, 00, 00, 00, 00, 00, 00, 00, 00, 00, 00, 00, 00, 00, 00, 00, 00, 00, 00, 00, 00, 00, 00, 00, 00, 00, 00, 00, 00, 07, 0F, 07, 0F, 03, 0F, 03, 0F, 03, 0F, 00, 00, 03, 0F, 03, 0F, 02, 00, 07, 0F, 07, 0F, 07, 0F, 07, 0F, 07, 0F, 07, 0F, 01, 0F, 07, 0F, 02, 00, 07, 0F, 01, 0F, 07, 0F, 07, 0F, 07, 0F, 07, 0F, 07, 0F, 07, 0F, 07, 0F, 03, 0F, 07, 0F, 03, 0F, 07, 0F, 07, 0F, 07, 0F, 05, 0F, 05, 0F, 07, 0F, 07, 0F, 69, F7
18, 1678, System_exclusive, 89, 41, 10, 42, 12, 49, 0B, 00, 05, 0F, 07, 0F, 07, 0F, 05, 0F, 05, 0F, 03, 0F, 03, 0F, 07, 0F, 07, 0F, 03, 0F, 03, 0F, 05, 0F, 05, 0F, 05, 0F, 07, 0F, 07, 0F, 05, 0F, 07, 0F, 03, 0F, 07, 0F, 07, 0F, 05, 0F, 05, 0F, 05, 0F, 00, 00, 00, 00, 00, 00, 00, 00, 00, 00, 00, 00, 00, 00, 00, 00, 00, 00, 00, 00, 00, 00, 00, 00, 00, 00, 00, 00, 00, 00, 00, 00, 00, 00, 00, 00, 00, 00, 00, 00, 00, 00, 00, 00, 00, 00, 00, 00, 00, 00, 00, 00, 00, 00, 00, 00, 00, 00, 00, 00, 00, 00, 00, 00, 00, 00, 00, 00, 00, 00, 00, 00, 00, 00, 00, 00, 00, 00, 00, 00, 44, F7
18, 1734, System_exclusive, 89, 41, 10, 42, 12, 49, 0C, 00, 00, 00, 00, 00, 00, 00, 00, 00, 00, 00, 00, 00, 00, 00, 00, 00, 00, 00, 00, 00, 00, 00, 00, 00, 00, 00, 00, 00, 00, 00, 00, 00, 00, 00, 00, 00, 00, 00, 00, 00, 00, 00, 00, 00, 00, 00, 00, 00, 00, 00, 00, 00, 00, 00, 01, 00, 01, 00, 01, 00, 01, 00, 01, 00, 01, 00, 01, 00, 01, 00, 01, 00, 01, 00, 01, 00, 01, 00, 01, 00, 01, 00, 01, 00, 01, 00, 01, 00, 01, 00, 01, 00, 01, 00, 01, 00, 01, 00, 01, 00, 01, 00, 01, 00, 01, 00, 01, 00, 01, 00, 01, 00, 01, 00, 01, 00, 01, 00, 01, 00, 01, 00, 01, 00, 01, 00, 01, 00, 06, F7
18, 1770, System_exclusive, 89, 41, 10, 42, 12, 49, 0D, 00, 01, 00, 01, 00, 01, 00, 01, 00, 01, 00, 01, 00, 01, 00, 01, 00, 01, 00, 01, 00, 01, 00, 01, 00, 01, 00, 01, 00, 01, 00, 01, 00, 01, 00, 01, 00, 01, 00, 01, 00, 01, 00, 01, 00, 01, 00, 01, 00, 00, 00, 00, 00, 00, 00, 00, 00, 00, 00, 00, 00, 00, 00, 00, 00, 00, 00, 00, 00, 00, 00, 00, 00, 00, 00, 00, 00, 00, 00, 00, 00, 00, 00, 00, 00, 00, 00, 00, 00, 00, 00, 00, 00, 00, 00, 00, 00, 00, 00, 00, 00, 00, 00, 00, 00, 00, 00, 00, 00, 00, 00, 00, 00, 00, 00, 00, 00, 00, 00, 00, 00, 00, 00, 00, 00, 00, 00, 00, 00, 12, F7
18, 1821, System_exclusive, 21, 41, 10, 42, 12, 49, 0E, 00, 05, 04, 05, 02, 02, 0D, 03, 08, 03, 00, 03, 08, 02, 00, 02, 00, 02, 00, 02, 00, 02, 00, 02, 00, 65, F7
18, 1862, System_exclusive, 89, 41, 10, 42, 12, 49, 10, 00, 00, 00, 00, 00, 00, 00, 00, 00, 00, 00, 00, 00, 00, 00, 00, 00, 00, 00, 00, 00, 00, 00, 00, 00, 00, 00, 00, 00, 00, 00, 00, 00, 00, 00, 00, 00, 00, 00, 00, 00, 00, 00, 00, 00, 00, 00, 00, 00, 00, 00, 00, 00, 00, 00, 03, 0C, 03, 0C, 03, 0C, 03, 0C, 03, 0C, 03, 0C, 03, 0C, 03, 0C, 03, 0C, 03, 0E, 03, 0C, 03, 0C, 03, 0C, 03, 0C, 02, 06, 03, 0C, 02, 0E, 03, 0C, 03, 04, 03, 0C, 03, 0C, 04, 04, 03, 0C, 04, 0C, 03, 0C, 03, 0C, 03, 0C, 03, 0C, 04, 05, 03, 0C, 03, 0D, 03, 0C, 03, 0D, 03, 0C, 03, 0C, 03, 0C, 04, 01, 1C, F7
18, 1902, System_exclusive, 89, 41, 10, 42, 12, 49, 11, 00, 03, 0C, 03, 0D, 03, 08, 04, 01, 03, 0C, 03, 0C, 03, 0C, 03, 0C, 03, 0C, 03, 0C, 03, 0C, 03, 0C, 04, 04, 03, 0F, 03, 0C, 03, 0C, 03, 0C, 03, 0C, 03, 0C, 03, 0C, 03, 0C, 03, 0C, 03, 0C, 03, 0C, 00, 00, 00, 00, 00, 00, 00, 00, 00, 00, 00, 00, 00, 00, 00, 00, 00, 00, 00, 00, 00, 00, 00, 00, 00, 00, 00, 00, 00, 00, 00, 00, 00, 00, 00, 00, 00, 00, 00, 00, 00, 00, 00, 00, 00, 00, 00, 00, 00, 00, 00, 00, 00, 00, 00, 00, 00, 00, 00, 00, 00, 00, 00, 00, 00, 00, 00, 00, 00, 00, 00, 00, 00, 00, 00, 00, 00, 00, 00, 00, 4F, F7
18, 1954, System_exclusive, 89, 41, 10, 42, 12, 49, 12, 00, 07, 0F, 07, 0F, 07, 0F, 07, 0F, 07, 0F, 07, 0F, 07, 0F, 07, 0F, 07, 0F, 07, 0F, 07, 0F, 07, 0F, 07, 0F, 07, 0F, 07, 0F, 07, 0F, 07, 0F, 07, 0F, 07, 0F, 07, 0F, 07, 0F, 07, 0F, 07, 0F, 07, 0F, 07, 0F, 07, 0F, 07, 0F, 04, 0F, 06, 0B, 05, 07, 05, 0B, 07, 03, 07, 0F, 06, 07, 06, 07, 07, 0F, 07, 0F, 07, 0F, 07, 0F, 06, 03, 07, 0F, 07, 0F, 07, 0B, 07, 0F, 05, 07, 07, 0F, 07, 07, 07, 0F, 07, 0F, 07, 0F, 07, 0F, 07, 08, 06, 0F, 06, 03, 07, 07, 05, 03, 07, 03, 07, 0F, 06, 09, 07, 08, 07, 0F, 07, 0F, 06, 03, 06, 0B, 55, F7
18, 1989, System_exclusive, 89, 41, 10, 42, 12, 49, 13, 00, 07, 0B, 06, 03, 06, 03, 06, 03, 06, 03, 05, 0F, 06, 09, 04, 0F, 05, 03, 06, 0B, 06, 0F, 06, 0E, 06, 0B, 06, 0B, 05, 03, 05, 07, 05, 0F, 05, 0F, 07, 0B, 07, 07, 07, 0B, 07, 0B, 07, 0F, 07, 0F, 07, 0F, 07, 0F, 07, 0F, 07, 0F, 07, 0F, 07, 0F, 07, 0F, 07, 0F, 07, 0F, 07, 0F, 07, 0F, 07, 0F, 07, 0F, 07, 0F, 07, 0F, 07, 0F, 07, 0F, 07, 0F, 07, 0F, 07, 0F, 07, 0F, 07, 0F, 07, 0F, 07, 0F, 07, 0F, 07, 0F, 07, 0F, 07, 0F, 07, 0F, 07, 0F, 07, 0F, 07, 0F, 07, 0F, 07, 0F, 07, 0F, 07, 0F, 07, 0F, 07, 0F, 07, 0F, 07, 0F, 38, F7
18, 2046, System_exclusive, 89, 41, 10, 42, 12, 49, 14, 00, 00, 00, 00, 00, 00, 00, 00, 00, 00, 00, 00, 00, 00, 00, 00, 00, 00, 00, 00, 00, 00, 00, 00, 00, 00, 00, 00, 00, 00, 00, 00, 00, 00, 00, 00, 00, 00, 00, 00, 00, 00, 00, 00, 00, 00, 00, 00, 00, 00, 00, 00, 00, 00, 00, 00, 00, 00, 00, 00, 07, 00, 07, 00, 00, 00, 00, 00, 00, 00, 00, 00, 00, 00, 00, 00, 00, 00, 00, 00, 00, 00, 00, 00, 00, 00, 01, 00, 00, 00, 01, 00, 00, 00, 01, 00, 00, 00, 00, 00, 00, 00, 00, 00, 00, 00, 00, 00, 00, 00, 00, 00, 00, 00, 00, 00, 00, 00, 00, 00, 00, 00, 00, 00, 00, 00, 00, 00, 00, 12, F7
18, 2081, System_exclusive, 89, 41, 10, 42, 12, 49, 15, 00, 00, 00, 00, 00, 00, 00, 00, 00, 00, 00, 00, 00, 00, 00, 00, 02, 00, 02, 00, 03, 00, 03, 00, 00, 00, 00, 00, 00, 00, 04, 00, 04, 00, 05, 00, 05, 00, 00, 00, 00, 00, 00, 00, 00, 00, 06, 00, 06, 00, 00, 00, 00, 00, 00, 00, 00, 00, 00, 00, 00, 00, 00, 00, 00, 00, 00, 00, 00, 00, 00, 00, 00, 00, 00, 00, 00, 00, 00, 00, 00, 00, 00, 00, 00, 00, 00, 00, 00, 00, 00, 00, 00, 00, 00, 00, 00, 00, 00, 00, 00, 00, 00, 00, 00, 00, 00, 00, 00, 00, 00, 00, 00, 00, 00, 00, 00, 00, 00, 00, 00, 00, 00, 00, 00, 00, 00, 00, 00, 7A, F7
18, 2133, System_exclusive, 89, 41, 10, 42, 12, 49, 16, 00, 04, 00, 04, 00, 04, 00, 04, 00, 04, 00, 04, 00, 04, 00, 04, 00, 04, 00, 04, 00, 04, 00, 04, 00, 04, 00, 04, 00, 04, 00, 04, 00, 04, 00, 04, 00, 04, 00, 04, 00, 04, 00, 04, 00, 04, 00, 04, 00, 04, 00, 04, 00, 04, 00, 03, 01, 03, 01, 03, 06, 03, 06, 04, 00, 03, 06, 04, 00, 04, 00, 04, 00, 04, 00, 04, 00, 04, 00, 03, 06, 04, 00, 02, 02, 05, 04, 02, 0E, 05, 04, 03, 0A, 05, 04, 04, 06, 05, 02, 05, 04, 05, 0E, 02, 0C, 02, 0C, 02, 0C, 04, 0A, 03, 06, 05, 04, 02, 0C, 01, 0D, 02, 02, 06, 03, 06, 03, 02, 07, 02, 07, 72, F7
18, 2169, System_exclusive, 89, 41, 10, 42, 12, 49, 17, 00, 02, 0C, 05, 04, 05, 04, 01, 0D, 01, 0D, 01, 0D, 01, 08, 06, 03, 06, 03, 05, 0E, 05, 0E, 05, 04, 06, 03, 06, 03, 02, 0C, 02, 0C, 01, 08, 01, 08, 05, 0E, 06, 03, 06, 08, 02, 02, 02, 0C, 02, 0C, 04, 00, 04, 00, 04, 00, 04, 00, 04, 00, 04, 00, 04, 00, 04, 00, 04, 00, 04, 00, 04, 00, 04, 00, 04, 00, 04, 00, 04, 00, 04, 00, 04, 00, 04, 00, 04, 00, 04, 00, 04, 00, 04, 00, 04, 00, 04, 00, 04, 00, 04, 00, 04, 00, 04, 00, 04, 00, 04, 00, 04, 00, 04, 00, 04, 00, 04, 00, 04, 00, 04, 00, 04, 00, 04, 00, 04, 00, 04, 00, 62, F7
18, 2222, System_exclusive, 89, 41, 10, 42, 12, 49, 18, 00, 00, 00, 00, 00, 00, 00, 00, 00, 00, 00, 00, 00, 00, 00, 00, 00, 00, 00, 00, 00, 00, 00, 00, 00, 00, 00, 00, 00, 00, 00, 00, 00, 00, 00, 00, 00, 00, 00, 00, 00, 00, 00, 00, 00, 00, 00, 00, 00, 00, 00, 00, 00, 00, 00, 07, 0F, 07, 0F, 03, 0F, 03, 0F, 03, 0F, 00, 00, 03, 0F, 03, 0F, 02, 00, 02, 00, 07, 0F, 07, 0F, 07, 0F, 07, 0F, 07, 0F, 01, 0F, 07, 0F, 02, 00, 07, 0F, 01, 0F, 07, 0F, 07, 0F, 07, 0F, 07, 0F, 07, 0F, 01, 00, 07, 0F, 03, 0F, 07, 0F, 03, 0F, 07, 0F, 07, 0F, 07, 0F, 05, 0F, 05, 0F, 07, 0F, 07, 0F, 04, F7
18, 2261, System_exclusive, 89, 41, 10, 42, 12, 49, 19, 00, 05, 0F, 07, 0F, 07, 0F, 06, 04, 06, 04, 03, 0F, 03, 0F, 07, 0F, 07, 0F, 03, 0F, 03, 0F, 05, 0F, 05, 0F, 05, 0F, 07, 0F, 07, 0F, 05, 0F, 07, 0F, 03, 0F, 07, 0F, 07, 0F, 05, 0F, 05, 0F, 05, 0F, 00, 00, 00, 00, 00, 00, 00, 00, 00, 00, 00, 00, 00, 00, 00, 00, 00, 00, 00, 00, 00, 00, 00, 00, 00, 00, 00, 00, 00, 00, 00, 00, 00, 00, 00, 00, 00, 00, 00, 00, 00, 00, 00, 00, 00, 00, 00, 00, 00, 00, 00, 00, 00, 00, 00, 00, 00, 00, 00, 00, 00, 00, 00, 00, 00, 00, 00, 00, 00, 00, 00, 00, 00, 00, 00, 00, 00, 00, 00, 00, 4A, F7
18, 2313, System_exclusive, 89, 41, 10, 42, 12, 49, 1A, 00, 00, 00, 00, 00, 00, 00, 00, 00, 00, 00, 00, 00, 00, 00, 00, 00, 00, 00, 00, 00, 00, 00, 00, 00, 00, 00, 00, 00, 00, 00, 00, 00, 00, 00, 00, 00, 00, 00, 00, 00, 00, 00, 00, 00, 00, 00, 00, 00, 00, 00, 00, 00, 00, 00, 07, 0F, 07, 0F, 03, 0F, 03, 0F, 03, 0F, 00, 00, 03, 0F, 03, 0F, 02, 00, 02, 00, 07, 0F, 07, 0F, 07, 0F, 07, 0F, 07, 0F, 01, 0F, 07, 0F, 02, 00, 07, 0F, 01, 0F, 07, 0F, 07, 0F, 07, 0F, 07, 0F, 07, 0F, 07, 0F, 07, 0F, 03, 0F, 07, 0F, 03, 0F, 07, 0F, 07, 0F, 07, 0F, 05, 0F, 05, 0F, 07, 0F, 07, 0F, 6D, F7
18, 2349, System_exclusive, 89, 41, 10, 42, 12, 49, 1B, 00, 05, 0F, 07, 0F, 07, 0F, 06, 04, 06, 04, 03, 0F, 03, 0F, 07, 0F, 07, 0F, 03, 0F, 03, 0F, 05, 0F, 05, 0F, 05, 0F, 07, 0F, 07, 0F, 05, 0F, 07, 0F, 03, 0F, 07, 0F, 07, 0F, 05, 0F, 05, 0F, 05, 0F, 00, 00, 00, 00, 00, 00, 00, 00, 00, 00, 00, 00, 00, 00, 00, 00, 00, 00, 00, 00, 00, 00, 00, 00, 00, 00, 00, 00, 00, 00, 00, 00, 00, 00, 00, 00, 00, 00, 00, 00, 00, 00, 00, 00, 00, 00, 00, 00, 00, 00, 00, 00, 00, 00, 00, 00, 00, 00, 00, 00, 00, 00, 00, 00, 00, 00, 00, 00, 00, 00, 00, 00, 00, 00, 00, 00, 00, 00, 00, 00, 48, F7
18, 2405, System_exclusive, 89, 41, 10, 42, 12, 49, 1C, 00, 00, 00, 00, 00, 00, 00, 00, 00, 00, 00, 00, 00, 00, 00, 00, 00, 00, 00, 00, 00, 00, 00, 00, 00, 00, 00, 00, 00, 00, 00, 00, 00, 00, 00, 00, 00, 00, 00, 00, 00, 00, 00, 00, 00, 00, 00, 00, 00, 00, 00, 00, 00, 00, 00, 01, 00, 01, 00, 01, 00, 01, 00, 01, 00, 01, 00, 01, 00, 01, 00, 01, 00, 01, 00, 01, 00, 01, 00, 01, 00, 01, 00, 01, 00, 01, 00, 01, 00, 01, 00, 01, 00, 01, 00, 01, 00, 01, 00, 01, 00, 01, 00, 01, 00, 01, 00, 01, 00, 01, 00, 01, 00, 01, 00, 01, 00, 01, 00, 01, 00, 01, 00, 01, 00, 01, 00, 01, 00, 76, F7
18, 2440, System_exclusive, 89, 41, 10, 42, 12, 49, 1D, 00, 01, 00, 01, 00, 01, 00, 01, 00, 01, 00, 01, 00, 01, 00, 01, 00, 01, 00, 01, 00, 01, 00, 01, 00, 01, 00, 01, 00, 01, 00, 01, 00, 01, 00, 01, 00, 01, 00, 01, 00, 01, 00, 01, 00, 01, 00, 01, 00, 00, 00, 00, 00, 00, 00, 00, 00, 00, 00, 00, 00, 00, 00, 00, 00, 00, 00, 00, 00, 00, 00, 00, 00, 00, 00, 00, 00, 00, 00, 00, 00, 00, 00, 00, 00, 00, 00, 00, 00, 00, 00, 00, 00, 00, 00, 00, 00, 00, 00, 00, 00, 00, 00, 00, 00, 00, 00, 00, 00, 00, 00, 00, 00, 00, 00, 00, 00, 00, 00, 00, 00, 00, 00, 00, 00, 00, 00, 00, 00, 02, F7
18, 2491, System_exclusive, 21, 41, 10, 42, 12, 49, 1E, 00, 04, 05, 04, 0C, 04, 05, 04, 03, 05, 04, 05, 02, 04, 0F, 04, 0E, 04, 09, 04, 03, 02, 00, 02, 00, 23, F7
18, 2491, End_track
0, 0, End_of_file