0, 0, Header, 1, 18, 192
1, 0, Start_track
1, 0, Time_signature, 4, 2, 24, 8
1, 0, Tempo, 468750
1, 262143, End_track
2, 0, Start_track
2, 0, Text_t, "Synth Pad"
2, 2880, Control_c, 0, 0, 0
2, 2882, Control_c, 0, 32, 0
2, 2884, Program_c, 0, 89
2, 2886, Control_c, 0, 7, 100
2, 2888, Control_c, 0, 10, 64
2, 2890, Control_c, 0, 11, 80
2, 2892, Control_c, 0, 91, 40
2, 2894, Control_c, 0, 93, 110
2, 3744, Note_on_c, 0, 46, 1072, 4032, Note_off_c, 0, 46, 1072, 4512, Note_on_c, 0, 58, 1072, 4800, Note_off_c, 0, 58, 1072, 6816, Note_on_c, 0, 46, 1072, 7104, Note_off_c, 0, 46, 1072, 7584, Note_on_c, 0, 58, 1072, 7872, Note_off_c, 0, 58, 1072, 32160, Note_on_c, 0, 74, 602, 32160, Note_on_c, 0, 70, 602, 32256, Note_off_c, 0, 70, 602, 32256, Note_off_c, 0, 74, 602, 32256, Note_on_c, 0, 67, 602, 32256, Note_on_c, 0, 72, 602, 32736, Note_off_c, 0, 72, 602, 32736, Note_off_c, 0, 67, 602, 32928, Note_on_c, 0, 74, 602, 32928, Note_on_c, 0, 70, 602, 33024, Note_on_c, 0, 72, 602, 33024, Note_on_c, 0, 67, 602, 33030, Note_off_c, 0, 70, 602, 33030, Note_off_c, 0, 74, 602, 33504, Note_off_c, 0, 67, 602, 33504, Note_off_c, 0, 72, 602, 33792, Note_on_c, 0, 74, 402, 33792, Note_on_c, 0, 70, 402, 33792, Note_on_c, 0, 67, 402, 34932, Note_off_c, 0, 67, 402, 34932, Note_off_c, 0, 70, 402, 34932, Note_off_c, 0, 74, 402, 35328, Note_on_c, 0, 67, 602, 35328, Note_on_c, 0, 72, 602, 35808, Note_off_c, 0, 72, 602, 35808, Note_off_c, 0, 67, 602, 36000, Note_on_c, 0, 74, 602, 36000, Note_on_c, 0, 70, 602, 36096, Note_on_c, 0, 72, 602, 36096, Note_on_c, 0, 67, 602, 36102, Note_off_c, 0, 70, 602, 36102, Note_off_c, 0, 74, 602, 36576, Note_off_c, 0, 67, 602, 36576, Note_off_c, 0, 72, 602, 36864, Note_on_c, 0, 74, 402, 36864, Note_on_c, 0, 70, 402, 36864, Note_on_c, 0, 67, 402, 37440, Note_off_c, 0, 70, 402, 37632, Note_on_c, 0, 72, 602, 37824, Note_off_c, 0, 72, 602, 37824, Note_on_c, 0, 69, 602, 37920, Note_off_c, 0, 69, 602, 37920, Note_on_c, 0, 70, 602, 38208, Note_off_c, 0, 70, 602, 38208, Note_off_c, 0, 67, 402, 38208, Note_off_c, 0, 74, 402, 38400, Note_on_c, 0, 67, 602, 38400, Note_on_c, 0, 72, 602, 38880, Note_off_c, 0, 72, 602, 38880, Note_off_c, 0, 67, 602, 39072, Note_on_c, 0, 74, 602, 39072, Note_on_c, 0, 70, 602, 39168, Note_on_c, 0, 72, 602, 39168, Note_on_c, 0, 67, 602, 39174, Note_off_c, 0, 70, 602, 39174, Note_off_c, 0, 74, 602, 39648, Note_off_c, 0, 67, 602, 39648, Note_off_c, 0, 72, 602, 39936, Note_on_c, 0, 74, 402, 39936, Note_on_c, 0, 70, 402, 39936, Note_on_c, 0, 67, 402, 40512, Note_off_c, 0, 70, 402, 40704, Note_on_c, 0, 72, 602, 40896, Note_off_c, 0, 72, 602, 40896, Note_on_c, 0, 69, 602, 40992, Note_off_c, 0, 69, 602, 40992, Note_on_c, 0, 70, 602, 41280, Note_off_c, 0, 70, 602, 41280, Note_off_c, 0, 67, 402, 41280, Note_off_c, 0, 74, 402, 41472, Note_on_c, 0, 67, 602, 41472, Note_on_c, 0, 72, 602, 41952, Note_off_c, 0, 72, 602, 41952, Note_off_c, 0, 67, 602, 42144, Note_on_c, 0, 74, 602, 42144, Note_on_c, 0, 70, 602, 42240, Note_on_c, 0, 72, 602, 42240, Note_on_c, 0, 67, 602, 42246, Note_off_c, 0, 70, 602, 42246, Note_off_c, 0, 74, 602, 42720, Note_off_c, 0, 67, 602, 42720, Note_off_c, 0, 72, 602, 43008, Note_on_c, 0, 67, 1102, 43200, Note_off_c, 0, 67, 1102, 43200, Note_on_c, 0, 70, 1102, 43288, Note_off_c, 0, 70, 1102, 43296, Note_on_c, 0, 70, 1102, 43384, Note_off_c, 0, 70, 1102, 43680, Note_on_c, 0, 67, 1102, 43768, Note_off_c, 0, 67, 1102, 43776, Note_on_c, 0, 70, 1102, 43968, Note_off_c, 0, 70, 1102, 43968, Note_on_c, 0, 72, 1102, 44056, Note_off_c, 0, 72, 1102, 44064, Note_on_c, 0, 72, 1102, 44256, Note_off_c, 0, 72, 1102, 44256, Note_on_c, 0, 70, 1102, 44352, Note_off_c, 0, 70, 1102, 44544, Note_on_c, 0, 67, 1102, 44736, Note_off_c, 0, 67, 1102, 44736, Note_on_c, 0, 70, 1102, 44824, Note_off_c, 0, 70, 1102, 44832, Note_on_c, 0, 70, 1102, 45024, Note_off_c, 0, 70, 1102, 45216, Note_on_c, 0, 67, 1102, 45304, Note_off_c, 0, 67, 1102, 45312, Note_on_c, 0, 70, 1102, 45400, Note_off_c, 0, 70, 1102, 45408, Note_on_c, 0, 72, 1102, 45496, Note_off_c, 0, 72, 1102, 45504, Note_on_c, 0, 74, 1102, 45696, Note_off_c, 0, 74, 1102, 45696, Note_on_c, 0, 70, 1102, 45784, Note_off_c, 0, 70, 1102, 46080, Note_on_c, 0, 67, 1102, 46272, Note_off_c, 0, 67, 1102, 46272, Note_on_c, 0, 70, 1102, 46360, Note_off_c, 0, 70, 1102, 46368, Note_on_c, 0, 70, 1102, 46456, Note_off_c, 0, 70, 1102, 47136, Note_on_c, 0, 72, 1102, 47328, Note_off_c, 0, 72, 1102, 47328, Note_on_c, 0, 74, 1102, 47424, Note_off_c, 0, 74, 1102, 47424, Note_on_c, 0, 70, 1102, 47520, Note_off_c, 0, 70, 1102, 47616, Note_on_c, 0, 67, 1102, 47808, Note_off_c, 0, 67, 1102, 47808, Note_on_c, 0, 70, 1102, 47896, Note_off_c, 0, 70, 1102, 47904, Note_on_c, 0, 67, 1102, 47992, Note_off_c, 0, 67, 1102, 48000, Note_on_c, 0, 70, 1102, 48192, Note_off_c, 0, 70, 1102, 48192, Note_on_c, 0, 72, 1102, 48384, Note_off_c, 0, 72, 1102, 48384, Note_on_c, 0, 74, 1102, 48472, Note_off_c, 0, 74, 1102, 48480, Note_on_c, 0, 72, 1102, 48568, Note_off_c, 0, 72, 1102, 48576, Note_on_c, 0, 69, 1102, 48664, Note_off_c, 0, 69, 1102, 48672, Note_on_c, 0, 65, 1102, 49152, Note_off_c, 0, 65, 1102, 50400, Note_on_c, 0, 74, 602, 50400, Note_on_c, 0, 70, 602, 50684, Note_off_c, 0, 70, 602, 50684, Note_off_c, 0, 74, 602, 50688, Note_on_c, 0, 67, 602, 50688, Note_on_c, 0, 72, 602, 51168, Note_off_c, 0, 72, 602, 51168, Note_off_c, 0, 67, 602, 51360, Note_on_c, 0, 74, 602, 51360, Note_on_c, 0, 70, 602, 51456, Note_on_c, 0, 72, 602, 51456, Note_on_c, 0, 67, 602, 51462, Note_off_c, 0, 70, 602, 51462, Note_off_c, 0, 74, 602, 51936, Note_off_c, 0, 67, 602, 51936, Note_off_c, 0, 72, 602, 52224, Note_on_c, 0, 74, 402, 52224, Note_on_c, 0, 70, 402, 52224, Note_on_c, 0, 67, 402, 53364, Note_off_c, 0, 67, 402, 53364, Note_off_c, 0, 70, 402, 53364, Note_off_c, 0, 74, 402, 53760, Note_on_c, 0, 67, 602, 53760, Note_on_c, 0, 72, 602, 54240, Note_off_c, 0, 72, 602, 54240, Note_off_c, 0, 67, 602, 54432, Note_on_c, 0, 74, 602, 54432, Note_on_c, 0, 70, 602, 54528, Note_on_c, 0, 72, 602, 54528, Note_on_c, 0, 67, 602, 54534, Note_off_c, 0, 70, 602, 54534, Note_off_c, 0, 74, 602, 55008, Note_off_c, 0, 67, 602, 55008, Note_off_c, 0, 72, 602, 55296, Note_on_c, 0, 74, 402, 55296, Note_on_c, 0, 70, 402, 55296, Note_on_c, 0, 67, 402, 55872, Note_off_c, 0, 70, 402, 56064, Note_on_c, 0, 72, 602, 56256, Note_off_c, 0, 72, 602, 56256, Note_on_c, 0, 69, 602, 56352, Note_off_c, 0, 69, 602, 56352, Note_on_c, 0, 70, 602, 56640, Note_off_c, 0, 70, 602, 56640, Note_off_c, 0, 67, 402, 56640, Note_off_c, 0, 74, 402, 56832, Note_on_c, 0, 67, 602, 56832, Note_on_c, 0, 72, 602, 57312, Note_off_c, 0, 72, 602, 57312, Note_off_c, 0, 67, 602, 57504, Note_on_c, 0, 74, 602, 57504, Note_on_c, 0, 70, 602, 57600, Note_on_c, 0, 72, 602, 57600, Note_on_c, 0, 67, 602, 57606, Note_off_c, 0, 70, 602, 57606, Note_off_c, 0, 74, 602, 58080, Note_off_c, 0, 67, 602, 58080, Note_off_c, 0, 72, 602, 58368, Note_on_c, 0, 74, 402, 58368, Note_on_c, 0, 70, 402, 58368, Note_on_c, 0, 67, 402, 58944, Note_off_c, 0, 70, 402, 59136, Note_on_c, 0, 72, 602, 59328, Note_off_c, 0, 72, 602, 59328, Note_on_c, 0, 69, 602, 59424, Note_off_c, 0, 69, 602, 59424, Note_on_c, 0, 70, 602, 59712, Note_off_c, 0, 70, 602, 59712, Note_off_c, 0, 67, 402, 59712, Note_off_c, 0, 74, 402, 59904, Note_on_c, 0, 67, 602, 59904, Note_on_c, 0, 72, 602, 60384, Note_off_c, 0, 72, 602, 60384, Note_off_c, 0, 67, 602, 60576, Note_on_c, 0, 74, 602, 60576, Note_on_c, 0, 70, 602, 60672, Note_on_c, 0, 72, 602, 60672, Note_on_c, 0, 67, 602, 60678, Note_off_c, 0, 70, 602, 60678, Note_off_c, 0, 74, 602, 61152, Note_off_c, 0, 67, 602, 61152, Note_off_c, 0, 72, 602, 61440, Note_on_c, 0, 67, 1102, 61632, Note_off_c, 0, 67, 1102, 61632, Note_on_c, 0, 70, 1102, 61720, Note_off_c, 0, 70, 1102, 61728, Note_on_c, 0, 70, 1102, 61816, Note_off_c, 0, 70, 1102, 62112, Note_on_c, 0, 67, 1102, 62200, Note_off_c, 0, 67, 1102, 62208, Note_on_c, 0, 70, 1102, 62400, Note_off_c, 0, 70, 1102, 62400, Note_on_c, 0, 72, 1102, 62488, Note_off_c, 0, 72, 1102, 62496, Note_on_c, 0, 72, 1102, 62688, Note_off_c, 0, 72, 1102, 62688, Note_on_c, 0, 70, 1102, 62784, Note_off_c, 0, 70, 1102, 62976, Note_on_c, 0, 67, 1102, 63168, Note_off_c, 0, 67, 1102, 63168, Note_on_c, 0, 70, 1102, 63256, Note_off_c, 0, 70, 1102, 63264, Note_on_c, 0, 70, 1102, 63456, Note_off_c, 0, 70, 1102, 63648, Note_on_c, 0, 67, 1102, 63736, Note_off_c, 0, 67, 1102, 63744, Note_on_c, 0, 70, 1102, 63832, Note_off_c, 0, 70, 1102, 63840, Note_on_c, 0, 72, 1102, 63928, Note_off_c, 0, 72, 1102, 63936, Note_on_c, 0, 74, 1102, 64128, Note_off_c, 0, 74, 1102, 64128, Note_on_c, 0, 70, 1102, 64216, Note_off_c, 0, 70, 1102, 64512, Note_on_c, 0, 67, 1102, 64704, Note_off_c, 0, 67, 1102, 64704, Note_on_c, 0, 70, 1102, 64792, Note_off_c, 0, 70, 1102, 64800, Note_on_c, 0, 70, 1102, 64888, Note_off_c, 0, 70, 1102, 65568, Note_on_c, 0, 72, 1102, 65760, Note_off_c, 0, 72, 1102, 65760, Note_on_c, 0, 74, 1102, 65856, Note_off_c, 0, 74, 1102, 65856, Note_on_c, 0, 70, 1102, 65952, Note_off_c, 0, 70, 1102, 66048, Note_on_c, 0, 67, 1102, 66240, Note_off_c, 0, 67, 1102, 66240, Note_on_c, 0, 70, 1102, 66328, Note_off_c, 0, 70, 1102, 66336, Note_on_c, 0, 67, 1102, 66424, Note_off_c, 0, 67, 1102, 66432, Note_on_c, 0, 70, 1102, 66624, Note_off_c, 0, 70, 1102, 66624, Note_on_c, 0, 72, 1102, 66816, Note_off_c, 0, 72, 1102, 66816, Note_on_c, 0, 74, 1102, 66904, Note_off_c, 0, 74, 1102, 66912, Note_on_c, 0, 72, 1102, 67000, Note_off_c, 0, 72, 1102, 67008, Note_on_c, 0, 69, 1102, 67096, Note_off_c, 0, 69, 1102, 67104, Note_on_c, 0, 65, 1102, 67584, Note_off_c, 0, 65, 1102, 79872, Note_on_c, 0, 67, 702, 79872, Note_on_c, 0, 70, 702, 80064, Note_off_c, 0, 70, 702, 80064, Note_off_c, 0, 67, 702, 80832, Note_on_c, 0, 72, 702, 80832, Note_on_c, 0, 67, 702, 81120, Note_off_c, 0, 72, 702, 81120, Note_on_c, 0, 70, 702, 81216, Note_off_c, 0, 70, 702, 81216, Note_off_c, 0, 67, 702, 82080, Note_on_c, 0, 67, 702, 82080, Note_on_c, 0, 70, 702, 82368, Note_off_c, 0, 67, 702, 82384, Note_off_c, 0, 70, 702, 83904, Note_on_c, 0, 72, 702, 83904, Note_on_c, 0, 67, 702, 84192, Note_off_c, 0, 72, 702, 84192, Note_on_c, 0, 70, 702, 84288, Note_off_c, 0, 70, 702, 84288, Note_off_c, 0, 67, 702, 85152, Note_on_c, 0, 72, 702, 85152, Note_on_c, 0, 65, 702, 85440, Note_off_c, 0, 65, 702, 85456, Note_off_c, 0, 72, 702, 86016, Note_on_c, 0, 67, 702, 86016, Note_on_c, 0, 70, 702, 86208, Note_off_c, 0, 70, 702, 86208, Note_off_c, 0, 67, 702, 86976, Note_on_c, 0, 72, 702, 86976, Note_on_c, 0, 67, 702, 87264, Note_off_c, 0, 72, 702, 87264, Note_on_c, 0, 70, 702, 87360, Note_off_c, 0, 70, 702, 87360, Note_off_c, 0, 67, 702, 88224, Note_on_c, 0, 67, 702, 88224, Note_on_c, 0, 70, 702, 88512, Note_off_c, 0, 67, 702, 88528, Note_off_c, 0, 70, 702, 90048, Note_on_c, 0, 72, 702, 90048, Note_on_c, 0, 67, 702, 90336, Note_off_c, 0, 72, 702, 90336, Note_on_c, 0, 70, 702, 90432, Note_off_c, 0, 70, 702, 90432, Note_off_c, 0, 67, 702, 91296, Note_on_c, 0, 72, 702, 91296, Note_on_c, 0, 65, 702, 91584, Note_off_c, 0, 65, 702, 91600, Note_off_c, 0, 72, 702, 91600, End_track
3, 0, Start_track
3, 0, Text_t, "Synth Bas"
3, 2880, Control_c, 1, 0, 0
3, 2882, Control_c, 1, 32, 0
3, 2884, Program_c, 1, 38
3, 2886, Control_c, 1, 7, 100
3, 2888, Control_c, 1, 10, 64
3, 2890, Control_c, 1, 11, 85
3, 2892, Control_c, 1, 91, 10
3, 2894, Control_c, 1, 93, 80
3, 31968, Note_on_c, 1, 24, 1103, 32008, Note_off_c, 1, 24, 1103, 32160, Note_on_c, 1, 24, 1103, 32200, Note_off_c, 1, 24, 1103, 32256, Note_on_c, 1, 24, 1103, 32320, Note_off_c, 1, 24, 1103, 32448, Note_on_c, 1, 24, 1103, 32588, Note_off_c, 1, 24, 1103, 32592, Note_on_c, 1, 24, 1103, 32640, Note_off_c, 1, 24, 1103, 32688, Note_on_c, 1, 24, 1103, 32828, Note_off_c, 1, 24, 1103, 32832, Note_on_c, 1, 24, 1103, 32896, Note_off_c, 1, 24, 1103, 33024, Note_on_c, 1, 24, 1103, 33088, Note_off_c, 1, 24, 1103, 33216, Note_on_c, 1, 24, 1103, 33356, Note_off_c, 1, 24, 1103, 33360, Note_on_c, 1, 24, 1103, 33408, Note_off_c, 1, 24, 1103, 33456, Note_on_c, 1, 24, 1103, 33596, Note_off_c, 1, 24, 1103, 33600, Note_on_c, 1, 24, 1103, 33664, Note_off_c, 1, 24, 1103, 33792, Note_on_c, 1, 19, 1103, 33856, Note_off_c, 1, 19, 1103, 33984, Note_on_c, 1, 31, 1103, 34124, Note_off_c, 1, 31, 1103, 34128, Note_on_c, 1, 19, 1103, 34176, Note_off_c, 1, 19, 1103, 34224, Note_on_c, 1, 19, 1103, 34364, Note_off_c, 1, 19, 1103, 34368, Note_on_c, 1, 19, 1103, 34432, Note_off_c, 1, 19, 1103, 34560, Note_on_c, 1, 19, 1103, 34624, Note_off_c, 1, 19, 1103, 34752, Note_on_c, 1, 31, 1103, 34892, Note_off_c, 1, 31, 1103, 34896, Note_on_c, 1, 19, 1103, 34944, Note_off_c, 1, 19, 1103, 34992, Note_on_c, 1, 19, 1103, 35132, Note_off_c, 1, 19, 1103, 35136, Note_on_c, 1, 19, 1103, 35200, Note_off_c, 1, 19, 1103, 35328, Note_on_c, 1, 24, 1103, 35392, Note_off_c, 1, 24, 1103, 35520, Note_on_c, 1, 24, 1103, 35660, Note_off_c, 1, 24, 1103, 35664, Note_on_c, 1, 24, 1103, 35712, Note_off_c, 1, 24, 1103, 35760, Note_on_c, 1, 24, 1103, 35900, Note_off_c, 1, 24, 1103, 35904, Note_on_c, 1, 24, 1103, 35968, Note_off_c, 1, 24, 1103, 36096, Note_on_c, 1, 24, 1103, 36160, Note_off_c, 1, 24, 1103, 36288, Note_on_c, 1, 24, 1103, 36428, Note_off_c, 1, 24, 1103, 36432, Note_on_c, 1, 24, 1103, 36480, Note_off_c, 1, 24, 1103, 36528, Note_on_c, 1, 24, 1103, 36668, Note_off_c, 1, 24, 1103, 36672, Note_on_c, 1, 24, 1103, 36736, Note_off_c, 1, 24, 1103, 36864, Note_on_c, 1, 19, 1103, 36928, Note_off_c, 1, 19, 1103, 37056, Note_on_c, 1, 31, 1103, 37196, Note_off_c, 1, 31, 1103, 37200, Note_on_c, 1, 19, 1103, 37248, Note_off_c, 1, 19, 1103, 37296, Note_on_c, 1, 19, 1103, 37436, Note_off_c, 1, 19, 1103, 37440, Note_on_c, 1, 19, 1103, 37504, Note_off_c, 1, 19, 1103, 37632, Note_on_c, 1, 19, 1103, 37696, Note_off_c, 1, 19, 1103, 37824, Note_on_c, 1, 31, 1103, 37964, Note_off_c, 1, 31, 1103, 37968, Note_on_c, 1, 19, 1103, 38016, Note_off_c, 1, 19, 1103, 38064, Note_on_c, 1, 19, 1103, 38204, Note_off_c, 1, 19, 1103, 38208, Note_on_c, 1, 19, 1103, 38272, Note_off_c, 1, 19, 1103, 38400, Note_on_c, 1, 24, 1103, 38464, Note_off_c, 1, 24, 1103, 38592, Note_on_c, 1, 24, 1103, 38732, Note_off_c, 1, 24, 1103, 38736, Note_on_c, 1, 24, 1103, 38784, Note_off_c, 1, 24, 1103, 38832, Note_on_c, 1, 24, 1103, 38972, Note_off_c, 1, 24, 1103, 38976, Note_on_c, 1, 24, 1103, 39040, Note_off_c, 1, 24, 1103, 39168, Note_on_c, 1, 24, 1103, 39232, Note_off_c, 1, 24, 1103, 39360, Note_on_c, 1, 24, 1103, 39500, Note_off_c, 1, 24, 1103, 39504, Note_on_c, 1, 24, 1103, 39552, Note_off_c, 1, 24, 1103, 39600, Note_on_c, 1, 24, 1103, 39740, Note_off_c, 1, 24, 1103, 39744, Note_on_c, 1, 24, 1103, 39808, Note_off_c, 1, 24, 1103, 39936, Note_on_c, 1, 19, 1103, 40000, Note_off_c, 1, 19, 1103, 40128, Note_on_c, 1, 31, 1103, 40268, Note_off_c, 1, 31, 1103, 40272, Note_on_c, 1, 19, 1103, 40320, Note_off_c, 1, 19, 1103, 40368, Note_on_c, 1, 19, 1103, 40508, Note_off_c, 1, 19, 1103, 40512, Note_on_c, 1, 19, 1103, 40576, Note_off_c, 1, 19, 1103, 40704, Note_on_c, 1, 19, 1103, 40768, Note_off_c, 1, 19, 1103, 40896, Note_on_c, 1, 31, 1103, 41036, Note_off_c, 1, 31, 1103, 41040, Note_on_c, 1, 19, 1103, 41088, Note_off_c, 1, 19, 1103, 41136, Note_on_c, 1, 19, 1103, 41276, Note_off_c, 1, 19, 1103, 41280, Note_on_c, 1, 19, 1103, 41344, Note_off_c, 1, 19, 1103, 41472, Note_on_c, 1, 24, 1103, 41536, Note_off_c, 1, 24, 1103, 41664, Note_on_c, 1, 24, 1103, 41804, Note_off_c, 1, 24, 1103, 41808, Note_on_c, 1, 24, 1103, 41856, Note_off_c, 1, 24, 1103, 41904, Note_on_c, 1, 24, 1103, 42044, Note_off_c, 1, 24, 1103, 42048, Note_on_c, 1, 24, 1103, 42112, Note_off_c, 1, 24, 1103, 42240, Note_on_c, 1, 24, 1103, 42304, Note_off_c, 1, 24, 1103, 42432, Note_on_c, 1, 24, 1103, 42572, Note_off_c, 1, 24, 1103, 42576, Note_on_c, 1, 24, 1103, 42624, Note_off_c, 1, 24, 1103, 42672, Note_on_c, 1, 24, 1103, 42812, Note_off_c, 1, 24, 1103, 42816, Note_on_c, 1, 24, 1103, 42880, Note_off_c, 1, 24, 1103, 43008, Note_on_c, 1, 15, 1103, 43072, Note_off_c, 1, 15, 1103, 43200, Note_on_c, 1, 15, 1103, 43340, Note_off_c, 1, 15, 1103, 43344, Note_on_c, 1, 15, 1103, 43392, Note_off_c, 1, 15, 1103, 43440, Note_on_c, 1, 15, 1103, 43580, Note_off_c, 1, 15, 1103, 43584, Note_on_c, 1, 15, 1103, 43648, Note_off_c, 1, 15, 1103, 43776, Note_on_c, 1, 19, 1103, 43840, Note_off_c, 1, 19, 1103, 43968, Note_on_c, 1, 19, 1103, 44108, Note_off_c, 1, 19, 1103, 44112, Note_on_c, 1, 19, 1103, 44160, Note_off_c, 1, 19, 1103, 44208, Note_on_c, 1, 22, 1103, 44348, Note_off_c, 1, 22, 1103, 44352, Note_on_c, 1, 22, 1103, 44416, Note_off_c, 1, 22, 1103, 44448, Note_on_c, 1, 22, 1203, 44496, Note_off_c, 1, 22, 1203, 44496, Note_on_c, 1, 24, 1103, 44544, Note_off_c, 1, 24, 1103, 44544, Note_on_c, 1, 15, 1103, 44608, Note_off_c, 1, 15, 1103, 44736, Note_on_c, 1, 15, 1103, 44876, Note_off_c, 1, 15, 1103, 44880, Note_on_c, 1, 15, 1103, 44928, Note_off_c, 1, 15, 1103, 44976, Note_on_c, 1, 15, 1103, 45116, Note_off_c, 1, 15, 1103, 45120, Note_on_c, 1, 15, 1103, 45184, Note_off_c, 1, 15, 1103, 45312, Note_on_c, 1, 19, 1103, 45376, Note_off_c, 1, 19, 1103, 45504, Note_on_c, 1, 19, 1103, 45644, Note_off_c, 1, 19, 1103, 45648, Note_on_c, 1, 19, 1103, 45696, Note_off_c, 1, 19, 1103, 45744, Note_on_c, 1, 22, 1103, 45884, Note_off_c, 1, 22, 1103, 45888, Note_on_c, 1, 22, 1103, 45952, Note_off_c, 1, 22, 1103, 45984, Note_on_c, 1, 22, 1203, 46032, Note_off_c, 1, 22, 1203, 46032, Note_on_c, 1, 24, 1103, 46080, Note_off_c, 1, 24, 1103, 46080, Note_on_c, 1, 15, 1103, 46144, Note_off_c, 1, 15, 1103, 46272, Note_on_c, 1, 15, 1103, 46412, Note_off_c, 1, 15, 1103, 46416, Note_on_c, 1, 15, 1103, 46464, Note_off_c, 1, 15, 1103, 46512, Note_on_c, 1, 15, 1103, 46652, Note_off_c, 1, 15, 1103, 46656, Note_on_c, 1, 15, 1103, 46720, Note_off_c, 1, 15, 1103, 46848, Note_on_c, 1, 19, 1103, 46912, Note_off_c, 1, 19, 1103, 47040, Note_on_c, 1, 19, 1103, 47180, Note_off_c, 1, 19, 1103, 47184, Note_on_c, 1, 19, 1103, 47232, Note_off_c, 1, 19, 1103, 47280, Note_on_c, 1, 22, 1103, 47420, Note_off_c, 1, 22, 1103, 47424, Note_on_c, 1, 22, 1103, 47488, Note_off_c, 1, 22, 1103, 47520, Note_on_c, 1, 22, 1203, 47568, Note_off_c, 1, 22, 1203, 47616, Note_on_c, 1, 15, 1103, 47680, Note_off_c, 1, 15, 1103, 47808, Note_on_c, 1, 15, 1103, 47948, Note_off_c, 1, 15, 1103, 47952, Note_on_c, 1, 15, 1103, 48000, Note_off_c, 1, 15, 1103, 48048, Note_on_c, 1, 15, 1103, 48188, Note_off_c, 1, 15, 1103, 48192, Note_on_c, 1, 15, 1103, 48256, Note_off_c, 1, 15, 1103, 48384, Note_on_c, 1, 17, 1103, 48448, Note_off_c, 1, 17, 1103, 48576, Note_on_c, 1, 17, 1103, 48716, Note_off_c, 1, 17, 1103, 48720, Note_on_c, 1, 17, 1103, 48768, Note_off_c, 1, 17, 1103, 48816, Note_on_c, 1, 17, 1103, 48956, Note_off_c, 1, 17, 1103, 48960, Note_on_c, 1, 17, 1103, 49024, Note_off_c, 1, 17, 1103, 50448, Note_on_c, 1, 24, 1103, 50488, Note_off_c, 1, 24, 1103, 50592, Note_on_c, 1, 24, 1103, 50632, Note_off_c, 1, 24, 1103, 50688, Note_on_c, 1, 24, 1103, 50752, Note_off_c, 1, 24, 1103, 50880, Note_on_c, 1, 24, 1103, 51020, Note_off_c, 1, 24, 1103, 51024, Note_on_c, 1, 24, 1103, 51072, Note_off_c, 1, 24, 1103, 51120, Note_on_c, 1, 24, 1103, 51260, Note_off_c, 1, 24, 1103, 51264, Note_on_c, 1, 24, 1103, 51328, Note_off_c, 1, 24, 1103, 51456, Note_on_c, 1, 24, 1103, 51520, Note_off_c, 1, 24, 1103, 51648, Note_on_c, 1, 24, 1103, 51788, Note_off_c, 1, 24, 1103, 51792, Note_on_c, 1, 24, 1103, 51840, Note_off_c, 1, 24, 1103, 51888, Note_on_c, 1, 24, 1103, 52028, Note_off_c, 1, 24, 1103, 52032, Note_on_c, 1, 24, 1103, 52096, Note_off_c, 1, 24, 1103, 52224, Note_on_c, 1, 19, 1103, 52288, Note_off_c, 1, 19, 1103, 52416, Note_on_c, 1, 31, 1103, 52556, Note_off_c, 1, 31, 1103, 52560, Note_on_c, 1, 19, 1103, 52608, Note_off_c, 1, 19, 1103, 52656, Note_on_c, 1, 19, 1103, 52796, Note_off_c, 1, 19, 1103, 52800, Note_on_c, 1, 19, 1103, 52864, Note_off_c, 1, 19, 1103, 52992, Note_on_c, 1, 19, 1103, 53056, Note_off_c, 1, 19, 1103, 53184, Note_on_c, 1, 31, 1103, 53324, Note_off_c, 1, 31, 1103, 53328, Note_on_c, 1, 19, 1103, 53376, Note_off_c, 1, 19, 1103, 53424, Note_on_c, 1, 19, 1103, 53564, Note_off_c, 1, 19, 1103, 53568, Note_on_c, 1, 19, 1103, 53632, Note_off_c, 1, 19, 1103, 53760, Note_on_c, 1, 24, 1103, 53824, Note_off_c, 1, 24, 1103, 53952, Note_on_c, 1, 24, 1103, 54092, Note_off_c, 1, 24, 1103, 54096, Note_on_c, 1, 24, 1103, 54144, Note_off_c, 1, 24, 1103, 54192, Note_on_c, 1, 24, 1103, 54332, Note_off_c, 1, 24, 1103, 54336, Note_on_c, 1, 24, 1103, 54400, Note_off_c, 1, 24, 1103, 54528, Note_on_c, 1, 24, 1103, 54592, Note_off_c, 1, 24, 1103, 54720, Note_on_c, 1, 24, 1103, 54860, Note_off_c, 1, 24, 1103, 54864, Note_on_c, 1, 24, 1103, 54912, Note_off_c, 1, 24, 1103, 54960, Note_on_c, 1, 24, 1103, 55100, Note_off_c, 1, 24, 1103, 55104, Note_on_c, 1, 24, 1103, 55168, Note_off_c, 1, 24, 1103, 55296, Note_on_c, 1, 19, 1103, 55360, Note_off_c, 1, 19, 1103, 55488, Note_on_c, 1, 31, 1103, 55628, Note_off_c, 1, 31, 1103, 55632, Note_on_c, 1, 19, 1103, 55680, Note_off_c, 1, 19, 1103, 55728, Note_on_c, 1, 19, 1103, 55868, Note_off_c, 1, 19, 1103, 55872, Note_on_c, 1, 19, 1103, 55936, Note_off_c, 1, 19, 1103, 56064, Note_on_c, 1, 19, 1103, 56128, Note_off_c, 1, 19, 1103, 56256, Note_on_c, 1, 31, 1103, 56396, Note_off_c, 1, 31, 1103, 56400, Note_on_c, 1, 19, 1103, 56448, Note_off_c, 1, 19, 1103, 56496, Note_on_c, 1, 19, 1103, 56636, Note_off_c, 1, 19, 1103, 56640, Note_on_c, 1, 19, 1103, 56704, Note_off_c, 1, 19, 1103, 56832, Note_on_c, 1, 24, 1103, 56896, Note_off_c, 1, 24, 1103, 57024, Note_on_c, 1, 24, 1103, 57164, Note_off_c, 1, 24, 1103, 57168, Note_on_c, 1, 24, 1103, 57216, Note_off_c, 1, 24, 1103, 57264, Note_on_c, 1, 24, 1103, 57404, Note_off_c, 1, 24, 1103, 57408, Note_on_c, 1, 24, 1103, 57472, Note_off_c, 1, 24, 1103, 57600, Note_on_c, 1, 24, 1103, 57664, Note_off_c, 1, 24, 1103, 57792, Note_on_c, 1, 24, 1103, 57932, Note_off_c, 1, 24, 1103, 57936, Note_on_c, 1, 24, 1103, 57984, Note_off_c, 1, 24, 1103, 58032, Note_on_c, 1, 24, 1103, 58172, Note_off_c, 1, 24, 1103, 58176, Note_on_c, 1, 24, 1103, 58240, Note_off_c, 1, 24, 1103, 58368, Note_on_c, 1, 19, 1103, 58432, Note_off_c, 1, 19, 1103, 58560, Note_on_c, 1, 31, 1103, 58700, Note_off_c, 1, 31, 1103, 58704, Note_on_c, 1, 19, 1103, 58752, Note_off_c, 1, 19, 1103, 58800, Note_on_c, 1, 19, 1103, 58940, Note_off_c, 1, 19, 1103, 58944, Note_on_c, 1, 19, 1103, 59008, Note_off_c, 1, 19, 1103, 59136, Note_on_c, 1, 19, 1103, 59200, Note_off_c, 1, 19, 1103, 59328, Note_on_c, 1, 31, 1103, 59468, Note_off_c, 1, 31, 1103, 59472, Note_on_c, 1, 19, 1103, 59520, Note_off_c, 1, 19, 1103, 59568, Note_on_c, 1, 19, 1103, 59708, Note_off_c, 1, 19, 1103, 59712, Note_on_c, 1, 19, 1103, 59776, Note_off_c, 1, 19, 1103, 59904, Note_on_c, 1, 24, 1103, 59968, Note_off_c, 1, 24, 1103, 60096, Note_on_c, 1, 24, 1103, 60236, Note_off_c, 1, 24, 1103, 60240, Note_on_c, 1, 24, 1103, 60288, Note_off_c, 1, 24, 1103, 60336, Note_on_c, 1, 24, 1103, 60476, Note_off_c, 1, 24, 1103, 60480, Note_on_c, 1, 24, 1103, 60544, Note_off_c, 1, 24, 1103, 60672, Note_on_c, 1, 24, 1103, 60736, Note_off_c, 1, 24, 1103, 60864, Note_on_c, 1, 24, 1103, 61004, Note_off_c, 1, 24, 1103, 61008, Note_on_c, 1, 24, 1103, 61056, Note_off_c, 1, 24, 1103, 61104, Note_on_c, 1, 24, 1103, 61244, Note_off_c, 1, 24, 1103, 61248, Note_on_c, 1, 24, 1103, 61312, Note_off_c, 1, 24, 1103, 61440, Note_on_c, 1, 15, 1103, 61504, Note_off_c, 1, 15, 1103, 61632, Note_on_c, 1, 15, 1103, 61772, Note_off_c, 1, 15, 1103, 61776, Note_on_c, 1, 15, 1103, 61824, Note_off_c, 1, 15, 1103, 61872, Note_on_c, 1, 15, 1103, 62012, Note_off_c, 1, 15, 1103, 62016, Note_on_c, 1, 15, 1103, 62080, Note_off_c, 1, 15, 1103, 62208, Note_on_c, 1, 19, 1103, 62272, Note_off_c, 1, 19, 1103, 62400, Note_on_c, 1, 19, 1103, 62540, Note_off_c, 1, 19, 1103, 62544, Note_on_c, 1, 19, 1103, 62592, Note_off_c, 1, 19, 1103, 62640, Note_on_c, 1, 22, 1103, 62780, Note_off_c, 1, 22, 1103, 62784, Note_on_c, 1, 22, 1103, 62848, Note_off_c, 1, 22, 1103, 62880, Note_on_c, 1, 22, 1203, 62928, Note_off_c, 1, 22, 1203, 62928, Note_on_c, 1, 24, 1103, 62976, Note_off_c, 1, 24, 1103, 62976, Note_on_c, 1, 15, 1103, 63040, Note_off_c, 1, 15, 1103, 63168, Note_on_c, 1, 15, 1103, 63308, Note_off_c, 1, 15, 1103, 63312, Note_on_c, 1, 15, 1103, 63360, Note_off_c, 1, 15, 1103, 63408, Note_on_c, 1, 15, 1103, 63548, Note_off_c, 1, 15, 1103, 63552, Note_on_c, 1, 15, 1103, 63616, Note_off_c, 1, 15, 1103, 63744, Note_on_c, 1, 19, 1103, 63808, Note_off_c, 1, 19, 1103, 63936, Note_on_c, 1, 19, 1103, 64076, Note_off_c, 1, 19, 1103, 64080, Note_on_c, 1, 19, 1103, 64128, Note_off_c, 1, 19, 1103, 64176, Note_on_c, 1, 22, 1103, 64316, Note_off_c, 1, 22, 1103, 64320, Note_on_c, 1, 22, 1103, 64384, Note_off_c, 1, 22, 1103, 64416, Note_on_c, 1, 22, 1203, 64464, Note_off_c, 1, 22, 1203, 64464, Note_on_c, 1, 24, 1103, 64512, Note_off_c, 1, 24, 1103, 64512, Note_on_c, 1, 15, 1103, 64576, Note_off_c, 1, 15, 1103, 64704, Note_on_c, 1, 15, 1103, 64844, Note_off_c, 1, 15, 1103, 64848, Note_on_c, 1, 15, 1103, 64896, Note_off_c, 1, 15, 1103, 64944, Note_on_c, 1, 15, 1103, 65084, Note_off_c, 1, 15, 1103, 65088, Note_on_c, 1, 15, 1103, 65152, Note_off_c, 1, 15, 1103, 65280, Note_on_c, 1, 19, 1103, 65344, Note_off_c, 1, 19, 1103, 65472, Note_on_c, 1, 19, 1103, 65612, Note_off_c, 1, 19, 1103, 65616, Note_on_c, 1, 19, 1103, 65664, Note_off_c, 1, 19, 1103, 65712, Note_on_c, 1, 22, 1103, 65852, Note_off_c, 1, 22, 1103, 65856, Note_on_c, 1, 22, 1103, 65920, Note_off_c, 1, 22, 1103, 65952, Note_on_c, 1, 22, 1203, 66000, Note_off_c, 1, 22, 1203, 66048, Note_on_c, 1, 15, 1103, 66112, Note_off_c, 1, 15, 1103, 66240, Note_on_c, 1, 15, 1103, 66380, Note_off_c, 1, 15, 1103, 66384, Note_on_c, 1, 15, 1103, 66432, Note_off_c, 1, 15, 1103, 66480, Note_on_c, 1, 15, 1103, 66620, Note_off_c, 1, 15, 1103, 66624, Note_on_c, 1, 15, 1103, 66688, Note_off_c, 1, 15, 1103, 66816, Note_on_c, 1, 17, 1103, 66880, Note_off_c, 1, 17, 1103, 67008, Note_on_c, 1, 17, 1103, 67148, Note_off_c, 1, 17, 1103, 67152, Note_on_c, 1, 17, 1103, 67200, Note_off_c, 1, 17, 1103, 67248, Note_on_c, 1, 17, 1103, 67388, Note_off_c, 1, 17, 1103, 67392, Note_on_c, 1, 17, 1103, 67456, Note_off_c, 1, 17, 1103, 79872, Note_on_c, 1, 15, 1103, 79936, Note_off_c, 1, 15, 1103, 80064, Note_on_c, 1, 15, 1103, 80204, Note_off_c, 1, 15, 1103, 80208, Note_on_c, 1, 15, 1103, 80256, Note_off_c, 1, 15, 1103, 80304, Note_on_c, 1, 15, 1103, 80444, Note_off_c, 1, 15, 1103, 80448, Note_on_c, 1, 15, 1103, 80512, Note_off_c, 1, 15, 1103, 80640, Note_on_c, 1, 19, 1103, 80704, Note_off_c, 1, 19, 1103, 80832, Note_on_c, 1, 19, 1103, 80972, Note_off_c, 1, 19, 1103, 80976, Note_on_c, 1, 19, 1103, 81024, Note_off_c, 1, 19, 1103, 81072, Note_on_c, 1, 22, 1103, 81212, Note_off_c, 1, 22, 1103, 81216, Note_on_c, 1, 22, 1103, 81280, Note_off_c, 1, 22, 1103, 81312, Note_on_c, 1, 22, 1203, 81360, Note_off_c, 1, 22, 1203, 81360, Note_on_c, 1, 24, 1103, 81408, Note_off_c, 1, 24, 1103, 81408, Note_on_c, 1, 15, 1103, 81472, Note_off_c, 1, 15, 1103, 81600, Note_on_c, 1, 15, 1103, 81740, Note_off_c, 1, 15, 1103, 81744, Note_on_c, 1, 15, 1103, 81792, Note_off_c, 1, 15, 1103, 81840, Note_on_c, 1, 15, 1103, 81980, Note_off_c, 1, 15, 1103, 81984, Note_on_c, 1, 15, 1103, 82048, Note_off_c, 1, 15, 1103, 82176, Note_on_c, 1, 19, 1103, 82240, Note_off_c, 1, 19, 1103, 82368, Note_on_c, 1, 19, 1103, 82508, Note_off_c, 1, 19, 1103, 82512, Note_on_c, 1, 19, 1103, 82560, Note_off_c, 1, 19, 1103, 82608, Note_on_c, 1, 22, 1103, 82748, Note_off_c, 1, 22, 1103, 82752, Note_on_c, 1, 22, 1103, 82816, Note_off_c, 1, 22, 1103, 82848, Note_on_c, 1, 22, 1203, 82896, Note_off_c, 1, 22, 1203, 82896, Note_on_c, 1, 24, 1103, 82944, Note_off_c, 1, 24, 1103, 82944, Note_on_c, 1, 15, 1103, 83008, Note_off_c, 1, 15, 1103, 83136, Note_on_c, 1, 15, 1103, 83276, Note_off_c, 1, 15, 1103, 83280, Note_on_c, 1, 15, 1103, 83328, Note_off_c, 1, 15, 1103, 83376, Note_on_c, 1, 15, 1103, 83516, Note_off_c, 1, 15, 1103, 83520, Note_on_c, 1, 15, 1103, 83584, Note_off_c, 1, 15, 1103, 83712, Note_on_c, 1, 19, 1103, 83776, Note_off_c, 1, 19, 1103, 83904, Note_on_c, 1, 19, 1103, 84044, Note_off_c, 1, 19, 1103, 84048, Note_on_c, 1, 19, 1103, 84096, Note_off_c, 1, 19, 1103, 84144, Note_on_c, 1, 22, 1103, 84284, Note_off_c, 1, 22, 1103, 84288, Note_on_c, 1, 22, 1103, 84352, Note_off_c, 1, 22, 1103, 84384, Note_on_c, 1, 22, 1203, 84432, Note_off_c, 1, 22, 1203, 84480, Note_on_c, 1, 15, 1103, 84544, Note_off_c, 1, 15, 1103, 84672, Note_on_c, 1, 15, 1103, 84812, Note_off_c, 1, 15, 1103, 84816, Note_on_c, 1, 15, 1103, 84864, Note_off_c, 1, 15, 1103, 84912, Note_on_c, 1, 15, 1103, 85052, Note_off_c, 1, 15, 1103, 85056, Note_on_c, 1, 15, 1103, 85120, Note_off_c, 1, 15, 1103, 85248, Note_on_c, 1, 17, 1103, 85312, Note_off_c, 1, 17, 1103, 85440, Note_on_c, 1, 17, 1103, 85580, Note_off_c, 1, 17, 1103, 85584, Note_on_c, 1, 17, 1103, 85632, Note_off_c, 1, 17, 1103, 85680, Note_on_c, 1, 17, 1103, 85820, Note_off_c, 1, 17, 1103, 85824, Note_on_c, 1, 17, 1103, 85888, Note_off_c, 1, 17, 1103, 86016, Note_on_c, 1, 15, 1103, 86080, Note_off_c, 1, 15, 1103, 86208, Note_on_c, 1, 15, 1103, 86348, Note_off_c, 1, 15, 1103, 86352, Note_on_c, 1, 15, 1103, 86400, Note_off_c, 1, 15, 1103, 86448, Note_on_c, 1, 15, 1103, 86588, Note_off_c, 1, 15, 1103, 86592, Note_on_c, 1, 15, 1103, 86656, Note_off_c, 1, 15, 1103, 86784, Note_on_c, 1, 19, 1103, 86848, Note_off_c, 1, 19, 1103, 86976, Note_on_c, 1, 19, 1103, 87116, Note_off_c, 1, 19, 1103, 87120, Note_on_c, 1, 19, 1103, 87168, Note_off_c, 1, 19, 1103, 87216, Note_on_c, 1, 22, 1103, 87356, Note_off_c, 1, 22, 1103, 87360, Note_on_c, 1, 22, 1103, 87424, Note_off_c, 1, 22, 1103, 87456, Note_on_c, 1, 22, 1203, 87504, Note_off_c, 1, 22, 1203, 87504, Note_on_c, 1, 24, 1103, 87552, Note_off_c, 1, 24, 1103, 87552, Note_on_c, 1, 15, 1103, 87616, Note_off_c, 1, 15, 1103, 87744, Note_on_c, 1, 15, 1103, 87884, Note_off_c, 1, 15, 1103, 87888, Note_on_c, 1, 15, 1103, 87936, Note_off_c, 1, 15, 1103, 87984, Note_on_c, 1, 15, 1103, 88124, Note_off_c, 1, 15, 1103, 88128, Note_on_c, 1, 15, 1103, 88192, Note_off_c, 1, 15, 1103, 88320, Note_on_c, 1, 19, 1103, 88384, Note_off_c, 1, 19, 1103, 88512, Note_on_c, 1, 19, 1103, 88652, Note_off_c, 1, 19, 1103, 88656, Note_on_c, 1, 19, 1103, 88704, Note_off_c, 1, 19, 1103, 88752, Note_on_c, 1, 22, 1103, 88892, Note_off_c, 1, 22, 1103, 88896, Note_on_c, 1, 22, 1103, 88960, Note_off_c, 1, 22, 1103, 88992, Note_on_c, 1, 22, 1203, 89040, Note_off_c, 1, 22, 1203, 89040, Note_on_c, 1, 24, 1103, 89088, Note_off_c, 1, 24, 1103, 89088, Note_on_c, 1, 15, 1103, 89152, Note_off_c, 1, 15, 1103, 89280, Note_on_c, 1, 15, 1103, 89420, Note_off_c, 1, 15, 1103, 89424, Note_on_c, 1, 15, 1103, 89472, Note_off_c, 1, 15, 1103, 89520, Note_on_c, 1, 15, 1103, 89660, Note_off_c, 1, 15, 1103, 89664, Note_on_c, 1, 15, 1103, 89728, Note_off_c, 1, 15, 1103, 89856, Note_on_c, 1, 19, 1103, 89920, Note_off_c, 1, 19, 1103, 90048, Note_on_c, 1, 19, 1103, 90188, Note_off_c, 1, 19, 1103, 90192, Note_on_c, 1, 19, 1103, 90240, Note_off_c, 1, 19, 1103, 90288, Note_on_c, 1, 22, 1103, 90428, Note_off_c, 1, 22, 1103, 90432, Note_on_c, 1, 22, 1103, 90496, Note_off_c, 1, 22, 1103, 90528, Note_on_c, 1, 22, 1203, 90576, Note_off_c, 1, 22, 1203, 90624, Note_on_c, 1, 15, 1103, 90688, Note_off_c, 1, 15, 1103, 90816, Note_on_c, 1, 15, 1103, 90956, Note_off_c, 1, 15, 1103, 90960, Note_on_c, 1, 15, 1103, 91008, Note_off_c, 1, 15, 1103, 91056, Note_on_c, 1, 15, 1103, 91196, Note_off_c, 1, 15, 1103, 91200, Note_on_c, 1, 15, 1103, 91264, Note_off_c, 1, 15, 1103, 91392, Note_on_c, 1, 17, 1103, 91456, Note_off_c, 1, 17, 1103, 91584, Note_on_c, 1, 17, 1103, 91724, Note_off_c, 1, 17, 1103, 91728, Note_on_c, 1, 17, 1103, 91776, Note_off_c, 1, 17, 1103, 91824, Note_on_c, 1, 17, 1103, 91964, Note_off_c, 1, 17, 1103, 91968, Note_on_c, 1, 17, 1103, 92032, Note_off_c, 1, 17, 1103, 92160, Note_on_c, 1, 15, 1103, 92224, Note_off_c, 1, 15, 1103, 92352, Note_on_c, 1, 15, 1103, 92492, Note_off_c, 1, 15, 1103, 92496, Note_on_c, 1, 15, 1103, 92544, Note_off_c, 1, 15, 1103, 92592, Note_on_c, 1, 15, 1103, 92732, Note_off_c, 1, 15, 1103, 92736, Note_on_c, 1, 15, 1103, 92800, Note_off_c, 1, 15, 1103, 92928, Note_on_c, 1, 19, 1103, 92992, Note_off_c, 1, 19, 1103, 93120, Note_on_c, 1, 19, 1103, 93260, Note_off_c, 1, 19, 1103, 93264, Note_on_c, 1, 19, 1103, 93312, Note_off_c, 1, 19, 1103, 93360, Note_on_c, 1, 22, 1103, 93500, Note_off_c, 1, 22, 1103, 93504, Note_on_c, 1, 22, 1103, 93568, Note_off_c, 1, 22, 1103, 93600, Note_on_c, 1, 22, 1203, 93648, Note_off_c, 1, 22, 1203, 93648, Note_on_c, 1, 24, 1103, 93696, Note_off_c, 1, 24, 1103, 93696, Note_on_c, 1, 15, 1103, 93760, Note_off_c, 1, 15, 1103, 93888, Note_on_c, 1, 15, 1103, 94028, Note_off_c, 1, 15, 1103, 94032, Note_on_c, 1, 15, 1103, 94080, Note_off_c, 1, 15, 1103, 94128, Note_on_c, 1, 15, 1103, 94268, Note_off_c, 1, 15, 1103, 94272, Note_on_c, 1, 15, 1103, 94336, Note_off_c, 1, 15, 1103, 94464, Note_on_c, 1, 19, 1103, 94528, Note_off_c, 1, 19, 1103, 94656, Note_on_c, 1, 19, 1103, 94796, Note_off_c, 1, 19, 1103, 94800, Note_on_c, 1, 19, 1103, 94848, Note_off_c, 1, 19, 1103, 94896, Note_on_c, 1, 22, 1103, 95036, Note_off_c, 1, 22, 1103, 95040, Note_on_c, 1, 22, 1103, 95104, Note_off_c, 1, 22, 1103, 95136, Note_on_c, 1, 22, 1203, 95184, Note_off_c, 1, 22, 1203, 95184, Note_on_c, 1, 24, 1103, 95232, Note_off_c, 1, 24, 1103, 95232, Note_on_c, 1, 15, 1103, 95296, Note_off_c, 1, 15, 1103, 95424, Note_on_c, 1, 15, 1103, 95564, Note_off_c, 1, 15, 1103, 95568, Note_on_c, 1, 15, 1103, 95616, Note_off_c, 1, 15, 1103, 95664, Note_on_c, 1, 15, 1103, 95804, Note_off_c, 1, 15, 1103, 95808, Note_on_c, 1, 15, 1103, 95872, Note_off_c, 1, 15, 1103, 96000, Note_on_c, 1, 19, 1103, 96064, Note_off_c, 1, 19, 1103, 96192, Note_on_c, 1, 19, 1103, 96332, Note_off_c, 1, 19, 1103, 96336, Note_on_c, 1, 19, 1103, 96384, Note_off_c, 1, 19, 1103, 96432, Note_on_c, 1, 22, 1103, 96572, Note_off_c, 1, 22, 1103, 96576, Note_on_c, 1, 22, 1103, 96640, Note_off_c, 1, 22, 1103, 96672, Note_on_c, 1, 22, 1203, 96720, Note_off_c, 1, 22, 1203, 96768, Note_on_c, 1, 15, 1103, 96832, Note_off_c, 1, 15, 1103, 96960, Note_on_c, 1, 15, 1103, 97100, Note_off_c, 1, 15, 1103, 97104, Note_on_c, 1, 15, 1103, 97152, Note_off_c, 1, 15, 1103, 97200, Note_on_c, 1, 15, 1103, 97340, Note_off_c, 1, 15, 1103, 97344, Note_on_c, 1, 15, 1103, 97408, Note_off_c, 1, 15, 1103, 97536, Note_on_c, 1, 17, 1103, 97600, Note_off_c, 1, 17, 1103, 97728, Note_on_c, 1, 17, 1103, 97868, Note_off_c, 1, 17, 1103, 97872, Note_on_c, 1, 17, 1103, 97920, Note_off_c, 1, 17, 1103, 97968, Note_on_c, 1, 17, 1103, 98108, Note_off_c, 1, 17, 1103, 98112, Note_on_c, 1, 17, 1103, 98176, Note_off_c, 1, 17, 1103, 98304, Note_on_c, 1, 15, 1103, 98368, Note_off_c, 1, 15, 1103, 98496, Note_on_c, 1, 15, 1103, 98636, Note_off_c, 1, 15, 1103, 98640, Note_on_c, 1, 15, 1103, 98688, Note_off_c, 1, 15, 1103, 98736, Note_on_c, 1, 15, 1103, 98876, Note_off_c, 1, 15, 1103, 98880, Note_on_c, 1, 15, 1103, 98944, Note_off_c, 1, 15, 1103, 99072, Note_on_c, 1, 19, 1103, 99136, Note_off_c, 1, 19, 1103, 99264, Note_on_c, 1, 19, 1103, 99404, Note_off_c, 1, 19, 1103, 99408, Note_on_c, 1, 19, 1103, 99456, Note_off_c, 1, 19, 1103, 99504, Note_on_c, 1, 22, 1103, 99644, Note_off_c, 1, 22, 1103, 99648, Note_on_c, 1, 22, 1103, 99712, Note_off_c, 1, 22, 1103, 99744, Note_on_c, 1, 22, 1203, 99792, Note_off_c, 1, 22, 1203, 99792, Note_on_c, 1, 24, 1103, 99840, Note_off_c, 1, 24, 1103, 99840, Note_on_c, 1, 15, 1103, 99904, Note_off_c, 1, 15, 1103, 100032, Note_on_c, 1, 15, 1103, 100172, Note_off_c, 1, 15, 1103, 100176, Note_on_c, 1, 15, 1103, 100224, Note_off_c, 1, 15, 1103, 100272, Note_on_c, 1, 15, 1103, 100412, Note_off_c, 1, 15, 1103, 100416, Note_on_c, 1, 15, 1103, 100480, Note_off_c, 1, 15, 1103, 100608, Note_on_c, 1, 19, 1103, 100672, Note_off_c, 1, 19, 1103, 100800, Note_on_c, 1, 19, 1103, 100940, Note_off_c, 1, 19, 1103, 100944, Note_on_c, 1, 19, 1103, 100992, Note_off_c, 1, 19, 1103, 101040, Note_on_c, 1, 22, 1103, 101180, Note_off_c, 1, 22, 1103, 101184, Note_on_c, 1, 22, 1103, 101248, Note_off_c, 1, 22, 1103, 101280, Note_on_c, 1, 22, 1203, 101328, Note_off_c, 1, 22, 1203, 101328, Note_on_c, 1, 24, 1103, 101376, Note_off_c, 1, 24, 1103, 101376, Note_on_c, 1, 15, 1103, 101440, Note_off_c, 1, 15, 1103, 101568, Note_on_c, 1, 15, 1103, 101708, Note_off_c, 1, 15, 1103, 101712, Note_on_c, 1, 15, 1103, 101760, Note_off_c, 1, 15, 1103, 101808, Note_on_c, 1, 15, 1103, 101948, Note_off_c, 1, 15, 1103, 101952, Note_on_c, 1, 15, 1103, 102016, Note_off_c, 1, 15, 1103, 102144, Note_on_c, 1, 19, 1103, 102208, Note_off_c, 1, 19, 1103, 102336, Note_on_c, 1, 19, 1103, 102476, Note_off_c, 1, 19, 1103, 102480, Note_on_c, 1, 19, 1103, 102528, Note_off_c, 1, 19, 1103, 102576, Note_on_c, 1, 22, 1103, 102716, Note_off_c, 1, 22, 1103, 102720, Note_on_c, 1, 22, 1103, 102784, Note_off_c, 1, 22, 1103, 102816, Note_on_c, 1, 22, 1203, 102864, Note_off_c, 1, 22, 1203, 102912, Note_on_c, 1, 15, 1103, 102976, Note_off_c, 1, 15, 1103, 103104, Note_on_c, 1, 15, 1103, 103244, Note_off_c, 1, 15, 1103, 103248, Note_on_c, 1, 15, 1103, 103296, Note_off_c, 1, 15, 1103, 103344, Note_on_c, 1, 15, 1103, 103484, Note_off_c, 1, 15, 1103, 103488, Note_on_c, 1, 15, 1103, 103552, Note_off_c, 1, 15, 1103, 103680, Note_on_c, 1, 17, 1103, 103744, Note_off_c, 1, 17, 1103, 103872, Note_on_c, 1, 17, 1103, 104012, Note_off_c, 1, 17, 1103, 104016, Note_on_c, 1, 17, 1103, 104064, Note_off_c, 1, 17, 1103, 104112, Note_on_c, 1, 17, 1103, 104252, Note_off_c, 1, 17, 1103, 104256, Note_on_c, 1, 17, 1103, 104320, Note_off_c, 1, 17, 1103, 104448, Note_on_c, 1, 15, 1103, 104512, Note_off_c, 1, 15, 1103, 104640, Note_on_c, 1, 15, 1103, 104780, Note_off_c, 1, 15, 1103, 104784, Note_on_c, 1, 15, 1103, 104832, Note_off_c, 1, 15, 1103, 104880, Note_on_c, 1, 15, 1103, 105020, Note_off_c, 1, 15, 1103, 105024, Note_on_c, 1, 15, 1103, 105088, Note_off_c, 1, 15, 1103, 105216, Note_on_c, 1, 19, 1103, 105280, Note_off_c, 1, 19, 1103, 105408, Note_on_c, 1, 19, 1103, 105548, Note_off_c, 1, 19, 1103, 105552, Note_on_c, 1, 19, 1103, 105600, Note_off_c, 1, 19, 1103, 105648, Note_on_c, 1, 22, 1103, 105788, Note_off_c, 1, 22, 1103, 105792, Note_on_c, 1, 22, 1103, 105856, Note_off_c, 1, 22, 1103, 105888, Note_on_c, 1, 22, 1203, 105936, Note_off_c, 1, 22, 1203, 105936, Note_on_c, 1, 24, 1103, 105984, Note_off_c, 1, 24, 1103, 105984, Note_on_c, 1, 15, 1103, 106048, Note_off_c, 1, 15, 1103, 106176, Note_on_c, 1, 15, 1103, 106316, Note_off_c, 1, 15, 1103, 106320, Note_on_c, 1, 15, 1103, 106368, Note_off_c, 1, 15, 1103, 106416, Note_on_c, 1, 15, 1103, 106556, Note_off_c, 1, 15, 1103, 106560, Note_on_c, 1, 15, 1103, 106624, Note_off_c, 1, 15, 1103, 106752, Note_on_c, 1, 19, 1103, 106816, Note_off_c, 1, 19, 1103, 106944, Note_on_c, 1, 19, 1103, 107084, Note_off_c, 1, 19, 1103, 107088, Note_on_c, 1, 19, 1103, 107136, Note_off_c, 1, 19, 1103, 107184, Note_on_c, 1, 22, 1103, 107324, Note_off_c, 1, 22, 1103, 107328, Note_on_c, 1, 22, 1103, 107392, Note_off_c, 1, 22, 1103, 107424, Note_on_c, 1, 22, 1203, 107472, Note_off_c, 1, 22, 1203, 107472, Note_on_c, 1, 24, 1103, 107520, Note_off_c, 1, 24, 1103, 107520, Note_on_c, 1, 15, 1103, 107584, Note_off_c, 1, 15, 1103, 107712, Note_on_c, 1, 15, 1103, 107852, Note_off_c, 1, 15, 1103, 107856, Note_on_c, 1, 15, 1103, 107904, Note_off_c, 1, 15, 1103, 107952, Note_on_c, 1, 15, 1103, 108092, Note_off_c, 1, 15, 1103, 108096, Note_on_c, 1, 15, 1103, 108160, Note_off_c, 1, 15, 1103, 108288, Note_on_c, 1, 19, 1103, 108352, Note_off_c, 1, 19, 1103, 108480, Note_on_c, 1, 19, 1103, 108620, Note_off_c, 1, 19, 1103, 108624, Note_on_c, 1, 19, 1103, 108672, Note_off_c, 1, 19, 1103, 108720, Note_on_c, 1, 22, 1103, 108860, Note_off_c, 1, 22, 1103, 108864, Note_on_c, 1, 22, 1103, 108928, Note_off_c, 1, 22, 1103, 108960, Note_on_c, 1, 22, 1203, 109008, Note_off_c, 1, 22, 1203, 109056, Note_on_c, 1, 15, 1103, 109120, Note_off_c, 1, 15, 1103, 109248, Note_on_c, 1, 15, 1103, 109388, Note_off_c, 1, 15, 1103, 109392, Note_on_c, 1, 15, 1103, 109440, Note_off_c, 1, 15, 1103, 109488, Note_on_c, 1, 15, 1103, 109628, Note_off_c, 1, 15, 1103, 109632, Note_on_c, 1, 15, 1103, 109696, Note_off_c, 1, 15, 1103, 109824, Note_on_c, 1, 17, 1103, 109888, Note_off_c, 1, 17, 1103, 110016, Note_on_c, 1, 17, 1103, 110156, Note_off_c, 1, 17, 1103, 110160, Note_on_c, 1, 17, 1103, 110208, Note_off_c, 1, 17, 1103, 110256, Note_on_c, 1, 17, 1103, 110396, Note_off_c, 1, 17, 1103, 110400, Note_on_c, 1, 17, 1103, 110464, Note_off_c, 1, 17, 1103, 110592, Note_on_c, 1, 15, 1103, 110656, Note_off_c, 1, 15, 1103, 110784, Note_on_c, 1, 15, 1103, 110924, Note_off_c, 1, 15, 1103, 110928, Note_on_c, 1, 15, 1103, 110976, Note_off_c, 1, 15, 1103, 111024, Note_on_c, 1, 15, 1103, 111164, Note_off_c, 1, 15, 1103, 111168, Note_on_c, 1, 15, 1103, 111232, Note_off_c, 1, 15, 1103, 111360, Note_on_c, 1, 19, 1103, 111424, Note_off_c, 1, 19, 1103, 111552, Note_on_c, 1, 19, 1103, 111692, Note_off_c, 1, 19, 1103, 111696, Note_on_c, 1, 19, 1103, 111744, Note_off_c, 1, 19, 1103, 111792, Note_on_c, 1, 22, 1103, 111932, Note_off_c, 1, 22, 1103, 111936, Note_on_c, 1, 22, 1103, 112000, Note_off_c, 1, 22, 1103, 112032, Note_on_c, 1, 22, 1203, 112080, Note_off_c, 1, 22, 1203, 112080, Note_on_c, 1, 24, 1103, 112128, Note_off_c, 1, 24, 1103, 112128, Note_on_c, 1, 15, 1103, 112192, Note_off_c, 1, 15, 1103, 112320, Note_on_c, 1, 15, 1103, 112460, Note_off_c, 1, 15, 1103, 112464, Note_on_c, 1, 15, 1103, 112512, Note_off_c, 1, 15, 1103, 112560, Note_on_c, 1, 15, 1103, 112700, Note_off_c, 1, 15, 1103, 112704, Note_on_c, 1, 15, 1103, 112768, Note_off_c, 1, 15, 1103, 112896, Note_on_c, 1, 19, 1103, 112960, Note_off_c, 1, 19, 1103, 113088, Note_on_c, 1, 19, 1103, 113228, Note_off_c, 1, 19, 1103, 113232, Note_on_c, 1, 19, 1103, 113280, Note_off_c, 1, 19, 1103, 113328, Note_on_c, 1, 22, 1103, 113468, Note_off_c, 1, 22, 1103, 113472, Note_on_c, 1, 22, 1103, 113536, Note_off_c, 1, 22, 1103, 113568, Note_on_c, 1, 22, 1203, 113616, Note_off_c, 1, 22, 1203, 113616, Note_on_c, 1, 24, 1103, 113664, Note_off_c, 1, 24, 1103, 113664, Note_on_c, 1, 15, 1103, 113728, Note_off_c, 1, 15, 1103, 113856, Note_on_c, 1, 15, 1103, 113996, Note_off_c, 1, 15, 1103, 114000, Note_on_c, 1, 15, 1103, 114048, Note_off_c, 1, 15, 1103, 114096, Note_on_c, 1, 15, 1103, 114236, Note_off_c, 1, 15, 1103, 114240, Note_on_c, 1, 15, 1103, 114304, Note_off_c, 1, 15, 1103, 114432, Note_on_c, 1, 19, 1103, 114496, Note_off_c, 1, 19, 1103, 114624, Note_on_c, 1, 19, 1103, 114764, Note_off_c, 1, 19, 1103, 114768, Note_on_c, 1, 19, 1103, 114816, Note_off_c, 1, 19, 1103, 114864, Note_on_c, 1, 22, 1103, 115004, Note_off_c, 1, 22, 1103, 115008, Note_on_c, 1, 22, 1103, 115072, Note_off_c, 1, 22, 1103, 115104, Note_on_c, 1, 22, 1203, 115152, Note_off_c, 1, 22, 1203, 115200, Note_on_c, 1, 15, 1103, 115264, Note_off_c, 1, 15, 1103, 115392, Note_on_c, 1, 15, 1103, 115532, Note_off_c, 1, 15, 1103, 115536, Note_on_c, 1, 15, 1103, 115584, Note_off_c, 1, 15, 1103, 115632, Note_on_c, 1, 15, 1103, 115772, Note_off_c, 1, 15, 1103, 115776, Note_on_c, 1, 15, 1103, 115840, Note_off_c, 1, 15, 1103, 115968, Note_on_c, 1, 17, 1103, 116032, Note_off_c, 1, 17, 1103, 116160, Note_on_c, 1, 17, 1103, 116300, Note_off_c, 1, 17, 1103, 116304, Note_on_c, 1, 17, 1103, 116352, Note_off_c, 1, 17, 1103, 116400, Note_on_c, 1, 17, 1103, 116540, Note_off_c, 1, 17, 1103, 116544, Note_on_c, 1, 17, 1103, 116608, Note_off_c, 1, 17, 1103, 116736, Note_on_c, 1, 15, 1103, 116800, Note_off_c, 1, 15, 1103, 116928, Note_on_c, 1, 15, 1103, 117068, Note_off_c, 1, 15, 1103, 117072, Note_on_c, 1, 15, 1103, 117120, Note_off_c, 1, 15, 1103, 117168, Note_on_c, 1, 15, 1103, 117308, Note_off_c, 1, 15, 1103, 117312, Note_on_c, 1, 15, 1103, 117376, Note_off_c, 1, 15, 1103, 117504, Note_on_c, 1, 19, 1103, 117568, Note_off_c, 1, 19, 1103, 117696, Note_on_c, 1, 19, 1103, 117836, Note_off_c, 1, 19, 1103, 117840, Note_on_c, 1, 19, 1103, 117888, Note_off_c, 1, 19, 1103, 117936, Note_on_c, 1, 22, 1103, 118076, Note_off_c, 1, 22, 1103, 118080, Note_on_c, 1, 22, 1103, 118144, Note_off_c, 1, 22, 1103, 118176, Note_on_c, 1, 22, 1203, 118224, Note_off_c, 1, 22, 1203, 118224, Note_on_c, 1, 24, 1103, 118272, Note_off_c, 1, 24, 1103, 118272, Note_on_c, 1, 15, 1103, 118336, Note_off_c, 1, 15, 1103, 118464, Note_on_c, 1, 15, 1103, 118604, Note_off_c, 1, 15, 1103, 118608, Note_on_c, 1, 15, 1103, 118656, Note_off_c, 1, 15, 1103, 118704, Note_on_c, 1, 15, 1103, 118844, Note_off_c, 1, 15, 1103, 118848, Note_on_c, 1, 15, 1103, 118912, Note_off_c, 1, 15, 1103, 119040, Note_on_c, 1, 19, 1103, 119104, Note_off_c, 1, 19, 1103, 119232, Note_on_c, 1, 19, 1103, 119372, Note_off_c, 1, 19, 1103, 119376, Note_on_c, 1, 19, 1103, 119424, Note_off_c, 1, 19, 1103, 119472, Note_on_c, 1, 22, 1103, 119612, Note_off_c, 1, 22, 1103, 119616, Note_on_c, 1, 22, 1103, 119680, Note_off_c, 1, 22, 1103, 119712, Note_on_c, 1, 22, 1203, 119760, Note_off_c, 1, 22, 1203, 119760, Note_on_c, 1, 24, 1103, 119808, Note_off_c, 1, 24, 1103, 119808, Note_on_c, 1, 15, 1103, 119872, Note_off_c, 1, 15, 1103, 120000, Note_on_c, 1, 15, 1103, 120140, Note_off_c, 1, 15, 1103, 120144, Note_on_c, 1, 15, 1103, 120192, Note_off_c, 1, 15, 1103, 120240, Note_on_c, 1, 15, 1103, 120380, Note_off_c, 1, 15, 1103, 120384, Note_on_c, 1, 15, 1103, 120448, Note_off_c, 1, 15, 1103, 120576, Note_on_c, 1, 19, 1103, 120640, Note_off_c, 1, 19, 1103, 120768, Note_on_c, 1, 19, 1103, 120908, Note_off_c, 1, 19, 1103, 120912, Note_on_c, 1, 19, 1103, 120960, Note_off_c, 1, 19, 1103, 121008, Note_on_c, 1, 22, 1103, 121148, Note_off_c, 1, 22, 1103, 121152, Note_on_c, 1, 22, 1103, 121216, Note_off_c, 1, 22, 1103, 121248, Note_on_c, 1, 22, 1203, 121296, Note_off_c, 1, 22, 1203, 121344, Note_on_c, 1, 15, 1103, 121408, Note_off_c, 1, 15, 1103, 121536, Note_on_c, 1, 15, 1103, 121676, Note_off_c, 1, 15, 1103, 121680, Note_on_c, 1, 15, 1103, 121728, Note_off_c, 1, 15, 1103, 121776, Note_on_c, 1, 15, 1103, 121916, Note_off_c, 1, 15, 1103, 121920, Note_on_c, 1, 15, 1103, 121984, Note_off_c, 1, 15, 1103, 122112, Note_on_c, 1, 17, 1103, 122224, Note_off_c, 1, 17, 1103, 122224, End_track
4, 0, Start_track
4, 0, Text_t, "Hi Syn Ri"
4, 2880, Control_c, 2, 0, 0
4, 2882, Control_c, 2, 32, 0
4, 2884, Program_c, 2, 87
4, 2886, Control_c, 2, 7, 100
4, 2888, Control_c, 2, 10, 88
4, 2890, Control_c, 2, 11, 70
4, 2892, Control_c, 2, 91, 60
4, 2894, Control_c, 2, 93, 0
4, 9216, Note_on_c, 2, 67, 1104, 9244, Note_off_c, 2, 67, 1104, 9264, Note_on_c, 2, 65, 1104, 9292, Note_off_c, 2, 65, 1104, 9312, Note_on_c, 2, 70, 1104, 9340, Note_off_c, 2, 70, 1104, 9360, Note_on_c, 2, 65, 1104, 9388, Note_off_c, 2, 65, 1104, 9408, Note_on_c, 2, 72, 1104, 9436, Note_off_c, 2, 72, 1104, 9456, Note_on_c, 2, 74, 1104, 9484, Note_off_c, 2, 74, 1104, 9504, Note_on_c, 2, 67, 1104, 9532, Note_off_c, 2, 67, 1104, 9552, Note_on_c, 2, 70, 1104, 9580, Note_off_c, 2, 70, 1104, 9600, Note_on_c, 2, 65, 1104, 9628, Note_off_c, 2, 65, 1104, 9648, Note_on_c, 2, 72, 1104, 9676, Note_off_c, 2, 72, 1104, 9696, Note_on_c, 2, 74, 1104, 9724, Note_off_c, 2, 74, 1104, 9744, Note_on_c, 2, 65, 1104, 9772, Note_off_c, 2, 65, 1104, 9792, Note_on_c, 2, 70, 1104, 9820, Note_off_c, 2, 70, 1104, 9840, Note_on_c, 2, 65, 1104, 9868, Note_off_c, 2, 65, 1104, 9888, Note_on_c, 2, 72, 1104, 9916, Note_off_c, 2, 72, 1104, 9936, Note_on_c, 2, 74, 1104, 9964, Note_off_c, 2, 74, 1104, 9984, Note_on_c, 2, 67, 1104, 10012, Note_off_c, 2, 67, 1104, 10032, Note_on_c, 2, 70, 1104, 10060, Note_off_c, 2, 70, 1104, 10080, Note_on_c, 2, 65, 1104, 10108, Note_off_c, 2, 65, 1104, 10128, Note_on_c, 2, 72, 1104, 10156, Note_off_c, 2, 72, 1104, 10176, Note_on_c, 2, 74, 1104, 10204, Note_off_c, 2, 74, 1104, 10224, Note_on_c, 2, 65, 1104, 10252, Note_off_c, 2, 65, 1104, 10272, Note_on_c, 2, 70, 1104, 10300, Note_off_c, 2, 70, 1104, 10320, Note_on_c, 2, 65, 1104, 10348, Note_off_c, 2, 65, 1104, 10368, Note_on_c, 2, 72, 1104, 10396, Note_off_c, 2, 72, 1104, 10416, Note_on_c, 2, 65, 1104, 10444, Note_off_c, 2, 65, 1104, 10464, Note_on_c, 2, 74, 1104, 10492, Note_off_c, 2, 74, 1104, 10512, Note_on_c, 2, 65, 1104, 10540, Note_off_c, 2, 65, 1104, 10608, Note_on_c, 2, 70, 1104, 10636, Note_off_c, 2, 70, 1104, 10656, Note_on_c, 2, 72, 1104, 10684, Note_off_c, 2, 72, 1104, 10704, Note_on_c, 2, 74, 1104, 10732, Note_off_c, 2, 74, 1104, 10752, Note_on_c, 2, 67, 1104, 10780, Note_off_c, 2, 67, 1104, 10800, Note_on_c, 2, 70, 1104, 10828, Note_off_c, 2, 70, 1104, 10848, Note_on_c, 2, 65, 1104, 10876, Note_off_c, 2, 65, 1104, 10896, Note_on_c, 2, 72, 1104, 10924, Note_off_c, 2, 72, 1104, 10944, Note_on_c, 2, 74, 1104, 10972, Note_off_c, 2, 74, 1104, 10992, Note_on_c, 2, 65, 1104, 11020, Note_off_c, 2, 65, 1104, 11040, Note_on_c, 2, 70, 1104, 11068, Note_off_c, 2, 70, 1104, 11088, Note_on_c, 2, 65, 1104, 11116, Note_off_c, 2, 65, 1104, 11136, Note_on_c, 2, 72, 1104, 11164, Note_off_c, 2, 72, 1104, 11184, Note_on_c, 2, 74, 1104, 11212, Note_off_c, 2, 74, 1104, 11232, Note_on_c, 2, 65, 1104, 11260, Note_off_c, 2, 65, 1104, 11280, Note_on_c, 2, 70, 1104, 11308, Note_off_c, 2, 70, 1104, 11328, Note_on_c, 2, 65, 1104, 11356, Note_off_c, 2, 65, 1104, 11376, Note_on_c, 2, 72, 1104, 11404, Note_off_c, 2, 72, 1104, 11424, Note_on_c, 2, 74, 1104, 11452, Note_off_c, 2, 74, 1104, 11472, Note_on_c, 2, 67, 1104, 11500, Note_off_c, 2, 67, 1104, 11520, Note_on_c, 2, 70, 1104, 11548, Note_off_c, 2, 70, 1104, 11568, Note_on_c, 2, 65, 1104, 11596, Note_off_c, 2, 65, 1104, 11616, Note_on_c, 2, 70, 1104, 11644, Note_off_c, 2, 70, 1104, 11664, Note_on_c, 2, 77, 1104, 11692, Note_off_c, 2, 77, 1104, 11712, Note_on_c, 2, 82, 1104, 11740, Note_off_c, 2, 82, 1104, 11760, Note_on_c, 2, 74, 1104, 11788, Note_off_c, 2, 74, 1104, 11808, Note_on_c, 2, 74, 1104, 11836, Note_off_c, 2, 74, 1104, 11856, Note_on_c, 2, 70, 1104, 11884, Note_off_c, 2, 70, 1104, 11904, Note_on_c, 2, 70, 1104, 11932, Note_off_c, 2, 70, 1104, 11952, Note_on_c, 2, 65, 1104, 11980, Note_off_c, 2, 65, 1104, 12000, Note_on_c, 2, 70, 1104, 12028, Note_off_c, 2, 70, 1104, 12048, Note_on_c, 2, 77, 1104, 12076, Note_off_c, 2, 77, 1104, 12096, Note_on_c, 2, 82, 1104, 12124, Note_off_c, 2, 82, 1104, 12144, Note_on_c, 2, 74, 1104, 12172, Note_off_c, 2, 74, 1104, 12192, Note_on_c, 2, 74, 1104, 12220, Note_off_c, 2, 74, 1104, 12240, Note_on_c, 2, 70, 1104, 12268, Note_off_c, 2, 70, 1104, 12288, Note_on_c, 2, 74, 1104, 12316, Note_off_c, 2, 74, 1104, 12336, Note_on_c, 2, 67, 1104, 12364, Note_off_c, 2, 67, 1104, 12384, Note_on_c, 2, 74, 1104, 12412, Note_off_c, 2, 74, 1104, 12432, Note_on_c, 2, 65, 1104, 12460, Note_off_c, 2, 65, 1104, 12480, Note_on_c, 2, 70, 1104, 12508, Note_off_c, 2, 70, 1104, 12528, Note_on_c, 2, 82, 1104, 12556, Note_off_c, 2, 82, 1104, 12576, Note_on_c, 2, 79, 1104, 12604, Note_off_c, 2, 79, 1104, 12624, Note_on_c, 2, 77, 1104, 12652, Note_off_c, 2, 77, 1104, 12672, Note_on_c, 2, 74, 1104, 12700, Note_off_c, 2, 74, 1104, 12720, Note_on_c, 2, 67, 1104, 12748, Note_off_c, 2, 67, 1104, 12768, Note_on_c, 2, 70, 1104, 12796, Note_off_c, 2, 70, 1104, 12816, Note_on_c, 2, 65, 1104, 12844, Note_off_c, 2, 65, 1104, 12864, Note_on_c, 2, 74, 1104, 12892, Note_off_c, 2, 74, 1104, 12912, Note_on_c, 2, 67, 1104, 12940, Note_off_c, 2, 67, 1104, 12960, Note_on_c, 2, 74, 1104, 12988, Note_off_c, 2, 74, 1104, 13008, Note_on_c, 2, 65, 1104, 13036, Note_off_c, 2, 65, 1104, 13056, Note_on_c, 2, 70, 1104, 13084, Note_off_c, 2, 70, 1104, 13104, Note_on_c, 2, 67, 1104, 13132, Note_off_c, 2, 67, 1104, 13152, Note_on_c, 2, 74, 1104, 13180, Note_off_c, 2, 74, 1104, 13200, Note_on_c, 2, 65, 1104, 13228, Note_off_c, 2, 65, 1104, 13248, Note_on_c, 2, 70, 1104, 13276, Note_off_c, 2, 70, 1104, 13296, Note_on_c, 2, 67, 1104, 13324, Note_off_c, 2, 67, 1104, 13344, Note_on_c, 2, 74, 1104, 13372, Note_off_c, 2, 74, 1104, 13392, Note_on_c, 2, 65, 1104, 13420, Note_off_c, 2, 65, 1104, 13440, Note_on_c, 2, 70, 1104, 13468, Note_off_c, 2, 70, 1104, 13488, Note_on_c, 2, 67, 1104, 13516, Note_off_c, 2, 67, 1104, 13536, Note_on_c, 2, 74, 1104, 13564, Note_off_c, 2, 74, 1104, 13584, Note_on_c, 2, 65, 1104, 13612, Note_off_c, 2, 65, 1104, 13632, Note_on_c, 2, 70, 1104, 13660, Note_off_c, 2, 70, 1104, 13680, Note_on_c, 2, 67, 1104, 13708, Note_off_c, 2, 67, 1104, 13728, Note_on_c, 2, 74, 1104, 13756, Note_off_c, 2, 74, 1104, 13776, Note_on_c, 2, 65, 1104, 13804, Note_off_c, 2, 65, 1104, 13824, Note_on_c, 2, 70, 1104, 13852, Note_off_c, 2, 70, 1104, 13872, Note_on_c, 2, 67, 1104, 13900, Note_off_c, 2, 67, 1104, 13920, Note_on_c, 2, 74, 1104, 13948, Note_off_c, 2, 74, 1104, 13968, Note_on_c, 2, 65, 1104, 13996, Note_off_c, 2, 65, 1104, 14016, Note_on_c, 2, 70, 1104, 14044, Note_off_c, 2, 70, 1104, 14064, Note_on_c, 2, 67, 1104, 14092, Note_off_c, 2, 67, 1104, 14112, Note_on_c, 2, 74, 1104, 14140, Note_off_c, 2, 74, 1104, 14160, Note_on_c, 2, 65, 1104, 14188, Note_off_c, 2, 65, 1104, 14208, Note_on_c, 2, 70, 1104, 14236, Note_off_c, 2, 70, 1104, 14256, Note_on_c, 2, 67, 1104, 14284, Note_off_c, 2, 67, 1104, 14304, Note_on_c, 2, 74, 1104, 14332, Note_off_c, 2, 74, 1104, 14352, Note_on_c, 2, 65, 1104, 14380, Note_off_c, 2, 65, 1104, 14400, Note_on_c, 2, 70, 1104, 14428, Note_off_c, 2, 70, 1104, 14448, Note_on_c, 2, 67, 1104, 14476, Note_off_c, 2, 67, 1104, 14496, Note_on_c, 2, 74, 1104, 14524, Note_off_c, 2, 74, 1104, 14544, Note_on_c, 2, 65, 1104, 14572, Note_off_c, 2, 65, 1104, 14592, Note_on_c, 2, 70, 1104, 14620, Note_off_c, 2, 70, 1104, 14640, Note_on_c, 2, 67, 1104, 14668, Note_off_c, 2, 67, 1104, 14688, Note_on_c, 2, 74, 1104, 14716, Note_off_c, 2, 74, 1104, 14736, Note_on_c, 2, 65, 1104, 14764, Note_off_c, 2, 65, 1104, 14784, Note_on_c, 2, 70, 1104, 14812, Note_off_c, 2, 70, 1104, 14832, Note_on_c, 2, 67, 1104, 14860, Note_off_c, 2, 67, 1104, 14880, Note_on_c, 2, 74, 1104, 14908, Note_off_c, 2, 74, 1104, 14928, Note_on_c, 2, 65, 1104, 14956, Note_off_c, 2, 65, 1104, 14976, Note_on_c, 2, 70, 1104, 15004, Note_off_c, 2, 70, 1104, 15024, Note_on_c, 2, 67, 1104, 15052, Note_off_c, 2, 67, 1104, 15072, Note_on_c, 2, 74, 1104, 15100, Note_off_c, 2, 74, 1104, 15120, Note_on_c, 2, 65, 1104, 15148, Note_off_c, 2, 65, 1104, 15168, Note_on_c, 2, 70, 1104, 15196, Note_off_c, 2, 70, 1104, 15216, Note_on_c, 2, 67, 1104, 15244, Note_off_c, 2, 67, 1104, 15264, Note_on_c, 2, 74, 1104, 15292, Note_off_c, 2, 74, 1104, 15312, Note_on_c, 2, 65, 1104, 15340, Note_off_c, 2, 65, 1104, 21504, Note_on_c, 2, 86, 904, 21532, Note_off_c, 2, 86, 904, 21552, Note_on_c, 2, 77, 904, 21580, Note_off_c, 2, 77, 904, 21600, Note_on_c, 2, 82, 904, 21628, Note_off_c, 2, 82, 904, 21648, Note_on_c, 2, 77, 904, 21676, Note_off_c, 2, 77, 904, 21696, Note_on_c, 2, 84, 904, 21724, Note_off_c, 2, 84, 904, 21744, Note_on_c, 2, 86, 904, 21772, Note_off_c, 2, 86, 904, 21792, Note_on_c, 2, 77, 904, 21820, Note_off_c, 2, 77, 904, 21840, Note_on_c, 2, 82, 904, 21868, Note_off_c, 2, 82, 904, 21888, Note_on_c, 2, 77, 904, 21916, Note_off_c, 2, 77, 904, 21936, Note_on_c, 2, 84, 904, 21964, Note_off_c, 2, 84, 904, 21984, Note_on_c, 2, 86, 904, 22012, Note_off_c, 2, 86, 904, 22032, Note_on_c, 2, 77, 904, 22060, Note_off_c, 2, 77, 904, 22080, Note_on_c, 2, 82, 904, 22108, Note_off_c, 2, 82, 904, 22128, Note_on_c, 2, 77, 904, 22156, Note_off_c, 2, 77, 904, 22176, Note_on_c, 2, 84, 904, 22204, Note_off_c, 2, 84, 904, 22224, Note_on_c, 2, 86, 904, 22252, Note_off_c, 2, 86, 904, 22272, Note_on_c, 2, 77, 904, 22300, Note_off_c, 2, 77, 904, 22320, Note_on_c, 2, 82, 904, 22348, Note_off_c, 2, 82, 904, 22368, Note_on_c, 2, 77, 904, 22396, Note_off_c, 2, 77, 904, 22416, Note_on_c, 2, 84, 904, 22444, Note_off_c, 2, 84, 904, 22464, Note_on_c, 2, 86, 904, 22492, Note_off_c, 2, 86, 904, 22512, Note_on_c, 2, 77, 904, 22540, Note_off_c, 2, 77, 904, 22560, Note_on_c, 2, 82, 904, 22588, Note_off_c, 2, 82, 904, 22608, Note_on_c, 2, 77, 904, 22636, Note_off_c, 2, 77, 904, 22656, Note_on_c, 2, 82, 904, 22684, Note_off_c, 2, 82, 904, 22704, Note_on_c, 2, 91, 904, 22732, Note_off_c, 2, 91, 904, 22752, Note_on_c, 2, 89, 904, 22780, Note_off_c, 2, 89, 904, 22800, Note_on_c, 2, 77, 904, 22828, Note_off_c, 2, 77, 904, 22848, Note_on_c, 2, 82, 904, 22876, Note_off_c, 2, 82, 904, 22896, Note_on_c, 2, 77, 904, 22924, Note_off_c, 2, 77, 904, 22944, Note_on_c, 2, 84, 904, 22972, Note_off_c, 2, 84, 904, 22992, Note_on_c, 2, 86, 904, 23020, Note_off_c, 2, 86, 904, 23040, Note_on_c, 2, 77, 904, 23068, Note_off_c, 2, 77, 904, 23088, Note_on_c, 2, 82, 904, 23116, Note_off_c, 2, 82, 904, 23136, Note_on_c, 2, 77, 904, 23164, Note_off_c, 2, 77, 904, 23184, Note_on_c, 2, 84, 904, 23212, Note_off_c, 2, 84, 904, 23232, Note_on_c, 2, 86, 904, 23260, Note_off_c, 2, 86, 904, 23280, Note_on_c, 2, 77, 904, 23308, Note_off_c, 2, 77, 904, 23328, Note_on_c, 2, 82, 904, 23356, Note_off_c, 2, 82, 904, 23376, Note_on_c, 2, 77, 904, 23404, Note_off_c, 2, 77, 904, 23424, Note_on_c, 2, 86, 904, 23452, Note_off_c, 2, 86, 904, 23472, Note_on_c, 2, 77, 904, 23500, Note_off_c, 2, 77, 904, 23520, Note_on_c, 2, 82, 904, 23548, Note_off_c, 2, 82, 904, 23568, Note_on_c, 2, 77, 904, 23596, Note_off_c, 2, 77, 904, 23616, Note_on_c, 2, 86, 904, 23644, Note_off_c, 2, 86, 904, 23664, Note_on_c, 2, 77, 904, 23692, Note_off_c, 2, 77, 904, 23712, Note_on_c, 2, 82, 904, 23740, Note_off_c, 2, 82, 904, 23760, Note_on_c, 2, 77, 904, 23788, Note_off_c, 2, 77, 904, 23808, Note_on_c, 2, 89, 904, 23836, Note_off_c, 2, 89, 904, 23856, Note_on_c, 2, 94, 904, 23884, Note_off_c, 2, 94, 904, 23904, Note_on_c, 2, 84, 904, 23932, Note_off_c, 2, 84, 904, 23952, Note_on_c, 2, 77, 904, 23980, Note_off_c, 2, 77, 904, 24048, Note_on_c, 2, 82, 904, 24076, Note_off_c, 2, 82, 904, 24096, Note_on_c, 2, 77, 904, 24124, Note_off_c, 2, 77, 904, 24144, Note_on_c, 2, 82, 904, 24172, Note_off_c, 2, 82, 904, 24192, Note_on_c, 2, 77, 904, 24220, Note_off_c, 2, 77, 904, 24240, Note_on_c, 2, 86, 904, 24268, Note_off_c, 2, 86, 904, 24288, Note_on_c, 2, 77, 904, 24316, Note_off_c, 2, 77, 904, 24336, Note_on_c, 2, 82, 904, 24364, Note_off_c, 2, 82, 904, 24432, Note_on_c, 2, 89, 904, 24460, Note_off_c, 2, 89, 904, 24528, Note_on_c, 2, 77, 904, 24556, Note_off_c, 2, 77, 904, 24624, Note_on_c, 2, 86, 904, 24652, Note_off_c, 2, 86, 904, 24672, Note_on_c, 2, 77, 904, 24700, Note_off_c, 2, 77, 904, 24720, Note_on_c, 2, 86, 904, 24748, Note_off_c, 2, 86, 904, 24816, Note_on_c, 2, 77, 904, 24844, Note_off_c, 2, 77, 904, 24864, Note_on_c, 2, 82, 904, 24892, Note_off_c, 2, 82, 904, 24912, Note_on_c, 2, 91, 904, 24940, Note_off_c, 2, 91, 904, 24960, Note_on_c, 2, 89, 904, 24988, Note_off_c, 2, 89, 904, 25008, Note_on_c, 2, 86, 904, 25036, Note_off_c, 2, 86, 904, 25056, Note_on_c, 2, 82, 904, 25084, Note_off_c, 2, 82, 904, 25104, Note_on_c, 2, 86, 904, 25132, Note_off_c, 2, 86, 904, 25200, Note_on_c, 2, 77, 904, 25228, Note_off_c, 2, 77, 904, 25248, Note_on_c, 2, 82, 904, 25276, Note_off_c, 2, 82, 904, 25296, Note_on_c, 2, 86, 904, 25324, Note_off_c, 2, 86, 904, 25344, Note_on_c, 2, 77, 904, 25372, Note_off_c, 2, 77, 904, 25392, Note_on_c, 2, 82, 904, 25420, Note_off_c, 2, 82, 904, 25440, Note_on_c, 2, 79, 904, 25468, Note_off_c, 2, 79, 904, 25488, Note_on_c, 2, 86, 904, 25516, Note_off_c, 2, 86, 904, 25536, Note_on_c, 2, 77, 904, 25564, Note_off_c, 2, 77, 904, 25584, Note_on_c, 2, 82, 904, 25612, Note_off_c, 2, 82, 904, 25632, Note_on_c, 2, 79, 904, 25660, Note_off_c, 2, 79, 904, 25680, Note_on_c, 2, 86, 904, 25708, Note_off_c, 2, 86, 904, 25728, Note_on_c, 2, 77, 904, 25756, Note_off_c, 2, 77, 904, 25776, Note_on_c, 2, 82, 904, 25804, Note_off_c, 2, 82, 904, 25824, Note_on_c, 2, 79, 904, 25852, Note_off_c, 2, 79, 904, 25872, Note_on_c, 2, 86, 904, 25900, Note_off_c, 2, 86, 904, 25920, Note_on_c, 2, 77, 904, 25948, Note_off_c, 2, 77, 904, 25968, Note_on_c, 2, 82, 904, 25996, Note_off_c, 2, 82, 904, 26016, Note_on_c, 2, 79, 904, 26044, Note_off_c, 2, 79, 904, 26064, Note_on_c, 2, 86, 904, 26092, Note_off_c, 2, 86, 904, 26112, Note_on_c, 2, 77, 904, 26140, Note_off_c, 2, 77, 904, 26160, Note_on_c, 2, 82, 904, 26188, Note_off_c, 2, 82, 904, 26208, Note_on_c, 2, 79, 904, 26236, Note_off_c, 2, 79, 904, 26256, Note_on_c, 2, 86, 904, 26284, Note_off_c, 2, 86, 904, 26304, Note_on_c, 2, 77, 904, 26332, Note_off_c, 2, 77, 904, 26352, Note_on_c, 2, 82, 904, 26380, Note_off_c, 2, 82, 904, 26400, Note_on_c, 2, 79, 904, 26428, Note_off_c, 2, 79, 904, 26448, Note_on_c, 2, 86, 904, 26476, Note_off_c, 2, 86, 904, 26496, Note_on_c, 2, 77, 904, 26524, Note_off_c, 2, 77, 904, 26544, Note_on_c, 2, 82, 904, 26572, Note_off_c, 2, 82, 904, 26592, Note_on_c, 2, 79, 904, 26620, Note_off_c, 2, 79, 904, 26640, Note_on_c, 2, 86, 904, 26668, Note_off_c, 2, 86, 904, 26688, Note_on_c, 2, 77, 904, 26716, Note_off_c, 2, 77, 904, 26736, Note_on_c, 2, 82, 904, 26764, Note_off_c, 2, 82, 904, 26784, Note_on_c, 2, 79, 904, 26812, Note_off_c, 2, 79, 904, 26832, Note_on_c, 2, 86, 904, 26860, Note_off_c, 2, 86, 904, 26880, Note_on_c, 2, 89, 904, 26908, Note_off_c, 2, 89, 904, 26928, Note_on_c, 2, 82, 904, 26956, Note_off_c, 2, 82, 904, 26976, Note_on_c, 2, 86, 904, 27004, Note_off_c, 2, 86, 904, 27024, Note_on_c, 2, 79, 904, 27052, Note_off_c, 2, 79, 904, 27072, Note_on_c, 2, 77, 904, 27100, Note_off_c, 2, 77, 904, 27120, Note_on_c, 2, 82, 904, 27148, Note_off_c, 2, 82, 904, 27168, Note_on_c, 2, 79, 904, 27196, Note_off_c, 2, 79, 904, 27216, Note_on_c, 2, 89, 904, 27244, Note_off_c, 2, 89, 904, 27264, Note_on_c, 2, 77, 904, 27292, Note_off_c, 2, 77, 904, 27312, Note_on_c, 2, 86, 904, 27340, Note_off_c, 2, 86, 904, 27360, Note_on_c, 2, 79, 904, 27388, Note_off_c, 2, 79, 904, 27408, Note_on_c, 2, 82, 904, 27436, Note_off_c, 2, 82, 904, 27456, Note_on_c, 2, 77, 904, 27484, Note_off_c, 2, 77, 904, 27504, Note_on_c, 2, 82, 904, 27532, Note_off_c, 2, 82, 904, 27552, Note_on_c, 2, 79, 904, 27580, Note_off_c, 2, 79, 904, 27600, Note_on_c, 2, 86, 904, 27628, Note_off_c, 2, 86, 904, 79872, Note_on_c, 2, 67, 1104, 79900, Note_off_c, 2, 67, 1104, 79920, Note_on_c, 2, 65, 1104, 79948, Note_off_c, 2, 65, 1104, 79968, Note_on_c, 2, 70, 1104, 79996, Note_off_c, 2, 70, 1104, 80016, Note_on_c, 2, 65, 1104, 80044, Note_off_c, 2, 65, 1104, 80064, Note_on_c, 2, 72, 1104, 80092, Note_off_c, 2, 72, 1104, 80112, Note_on_c, 2, 74, 1104, 80140, Note_off_c, 2, 74, 1104, 80160, Note_on_c, 2, 67, 1104, 80188, Note_off_c, 2, 67, 1104, 80208, Note_on_c, 2, 70, 1104, 80236, Note_off_c, 2, 70, 1104, 80256, Note_on_c, 2, 65, 1104, 80284, Note_off_c, 2, 65, 1104, 80304, Note_on_c, 2, 72, 1104, 80332, Note_off_c, 2, 72, 1104, 80352, Note_on_c, 2, 74, 1104, 80380, Note_off_c, 2, 74, 1104, 80400, Note_on_c, 2, 65, 1104, 80428, Note_off_c, 2, 65, 1104, 80448, Note_on_c, 2, 70, 1104, 80476, Note_off_c, 2, 70, 1104, 80496, Note_on_c, 2, 65, 1104, 80524, Note_off_c, 2, 65, 1104, 80544, Note_on_c, 2, 72, 1104, 80572, Note_off_c, 2, 72, 1104, 80592, Note_on_c, 2, 74, 1104, 80620, Note_off_c, 2, 74, 1104, 80640, Note_on_c, 2, 67, 1104, 80668, Note_off_c, 2, 67, 1104, 80688, Note_on_c, 2, 70, 1104, 80716, Note_off_c, 2, 70, 1104, 80736, Note_on_c, 2, 65, 1104, 80764, Note_off_c, 2, 65, 1104, 80784, Note_on_c, 2, 72, 1104, 80812, Note_off_c, 2, 72, 1104, 80832, Note_on_c, 2, 74, 1104, 80860, Note_off_c, 2, 74, 1104, 80880, Note_on_c, 2, 65, 1104, 80908, Note_off_c, 2, 65, 1104, 80928, Note_on_c, 2, 70, 1104, 80956, Note_off_c, 2, 70, 1104, 80976, Note_on_c, 2, 65, 1104, 81004, Note_off_c, 2, 65, 1104, 81024, Note_on_c, 2, 72, 1104, 81052, Note_off_c, 2, 72, 1104, 81072, Note_on_c, 2, 65, 1104, 81100, Note_off_c, 2, 65, 1104, 81120, Note_on_c, 2, 74, 1104, 81148, Note_off_c, 2, 74, 1104, 81168, Note_on_c, 2, 65, 1104, 81196, Note_off_c, 2, 65, 1104, 81264, Note_on_c, 2, 70, 1104, 81292, Note_off_c, 2, 70, 1104, 81312, Note_on_c, 2, 72, 1104, 81340, Note_off_c, 2, 72, 1104, 81360, Note_on_c, 2, 74, 1104, 81388, Note_off_c, 2, 74, 1104, 81408, Note_on_c, 2, 67, 1104, 81436, Note_off_c, 2, 67, 1104, 81456, Note_on_c, 2, 70, 1104, 81484, Note_off_c, 2, 70, 1104, 81504, Note_on_c, 2, 65, 1104, 81532, Note_off_c, 2, 65, 1104, 81552, Note_on_c, 2, 72, 1104, 81580, Note_off_c, 2, 72, 1104, 81600, Note_on_c, 2, 74, 1104, 81628, Note_off_c, 2, 74, 1104, 81648, Note_on_c, 2, 65, 1104, 81676, Note_off_c, 2, 65, 1104, 81696, Note_on_c, 2, 70, 1104, 81724, Note_off_c, 2, 70, 1104, 81744, Note_on_c, 2, 65, 1104, 81772, Note_off_c, 2, 65, 1104, 81792, Note_on_c, 2, 72, 1104, 81820, Note_off_c, 2, 72, 1104, 81840, Note_on_c, 2, 74, 1104, 81868, Note_off_c, 2, 74, 1104, 81888, Note_on_c, 2, 65, 1104, 81916, Note_off_c, 2, 65, 1104, 81936, Note_on_c, 2, 70, 1104, 81964, Note_off_c, 2, 70, 1104, 81984, Note_on_c, 2, 65, 1104, 82012, Note_off_c, 2, 65, 1104, 82032, Note_on_c, 2, 72, 1104, 82060, Note_off_c, 2, 72, 1104, 82080, Note_on_c, 2, 74, 1104, 82108, Note_off_c, 2, 74, 1104, 82128, Note_on_c, 2, 67, 1104, 82156, Note_off_c, 2, 67, 1104, 82176, Note_on_c, 2, 70, 1104, 82204, Note_off_c, 2, 70, 1104, 82224, Note_on_c, 2, 65, 1104, 82252, Note_off_c, 2, 65, 1104, 82272, Note_on_c, 2, 70, 1104, 82300, Note_off_c, 2, 70, 1104, 82320, Note_on_c, 2, 77, 1104, 82348, Note_off_c, 2, 77, 1104, 82368, Note_on_c, 2, 82, 1104, 82396, Note_off_c, 2, 82, 1104, 82416, Note_on_c, 2, 74, 1104, 82444, Note_off_c, 2, 74, 1104, 82464, Note_on_c, 2, 74, 1104, 82492, Note_off_c, 2, 74, 1104, 82512, Note_on_c, 2, 70, 1104, 82540, Note_off_c, 2, 70, 1104, 82560, Note_on_c, 2, 70, 1104, 82588, Note_off_c, 2, 70, 1104, 82608, Note_on_c, 2, 65, 1104, 82636, Note_off_c, 2, 65, 1104, 82656, Note_on_c, 2, 70, 1104, 82684, Note_off_c, 2, 70, 1104, 82704, Note_on_c, 2, 77, 1104, 82732, Note_off_c, 2, 77, 1104, 82752, Note_on_c, 2, 82, 1104, 82780, Note_off_c, 2, 82, 1104, 82800, Note_on_c, 2, 74, 1104, 82828, Note_off_c, 2, 74, 1104, 82848, Note_on_c, 2, 74, 1104, 82876, Note_off_c, 2, 74, 1104, 82896, Note_on_c, 2, 70, 1104, 82924, Note_off_c, 2, 70, 1104, 82944, Note_on_c, 2, 74, 1104, 82972, Note_off_c, 2, 74, 1104, 82992, Note_on_c, 2, 67, 1104, 83020, Note_off_c, 2, 67, 1104, 83040, Note_on_c, 2, 74, 1104, 83068, Note_off_c, 2, 74, 1104, 83088, Note_on_c, 2, 65, 1104, 83116, Note_off_c, 2, 65, 1104, 83136, Note_on_c, 2, 70, 1104, 83164, Note_off_c, 2, 70, 1104, 83184, Note_on_c, 2, 82, 1104, 83212, Note_off_c, 2, 82, 1104, 83232, Note_on_c, 2, 79, 1104, 83260, Note_off_c, 2, 79, 1104, 83280, Note_on_c, 2, 77, 1104, 83308, Note_off_c, 2, 77, 1104, 83328, Note_on_c, 2, 74, 1104, 83356, Note_off_c, 2, 74, 1104, 83376, Note_on_c, 2, 67, 1104, 83404, Note_off_c, 2, 67, 1104, 83424, Note_on_c, 2, 70, 1104, 83452, Note_off_c, 2, 70, 1104, 83472, Note_on_c, 2, 65, 1104, 83500, Note_off_c, 2, 65, 1104, 83520, Note_on_c, 2, 74, 1104, 83548, Note_off_c, 2, 74, 1104, 83568, Note_on_c, 2, 67, 1104, 83596, Note_off_c, 2, 67, 1104, 83616, Note_on_c, 2, 74, 1104, 83644, Note_off_c, 2, 74, 1104, 83664, Note_on_c, 2, 65, 1104, 83692, Note_off_c, 2, 65, 1104, 83712, Note_on_c, 2, 70, 1104, 83740, Note_off_c, 2, 70, 1104, 83760, Note_on_c, 2, 67, 1104, 83788, Note_off_c, 2, 67, 1104, 83808, Note_on_c, 2, 74, 1104, 83836, Note_off_c, 2, 74, 1104, 83856, Note_on_c, 2, 65, 1104, 83884, Note_off_c, 2, 65, 1104, 83904, Note_on_c, 2, 70, 1104, 83932, Note_off_c, 2, 70, 1104, 83952, Note_on_c, 2, 67, 1104, 83980, Note_off_c, 2, 67, 1104, 84000, Note_on_c, 2, 74, 1104, 84028, Note_off_c, 2, 74, 1104, 84048, Note_on_c, 2, 65, 1104, 84076, Note_off_c, 2, 65, 1104, 84096, Note_on_c, 2, 70, 1104, 84124, Note_off_c, 2, 70, 1104, 84144, Note_on_c, 2, 67, 1104, 84172, Note_off_c, 2, 67, 1104, 84192, Note_on_c, 2, 74, 1104, 84220, Note_off_c, 2, 74, 1104, 84240, Note_on_c, 2, 65, 1104, 84268, Note_off_c, 2, 65, 1104, 84288, Note_on_c, 2, 70, 1104, 84316, Note_off_c, 2, 70, 1104, 84336, Note_on_c, 2, 67, 1104, 84364, Note_off_c, 2, 67, 1104, 84384, Note_on_c, 2, 74, 1104, 84412, Note_off_c, 2, 74, 1104, 84432, Note_on_c, 2, 65, 1104, 84460, Note_off_c, 2, 65, 1104, 84480, Note_on_c, 2, 70, 1104, 84508, Note_off_c, 2, 70, 1104, 84528, Note_on_c, 2, 67, 1104, 84556, Note_off_c, 2, 67, 1104, 84576, Note_on_c, 2, 74, 1104, 84604, Note_off_c, 2, 74, 1104, 84624, Note_on_c, 2, 65, 1104, 84652, Note_off_c, 2, 65, 1104, 84672, Note_on_c, 2, 70, 1104, 84700, Note_off_c, 2, 70, 1104, 84720, Note_on_c, 2, 67, 1104, 84748, Note_off_c, 2, 67, 1104, 84768, Note_on_c, 2, 74, 1104, 84796, Note_off_c, 2, 74, 1104, 84816, Note_on_c, 2, 65, 1104, 84844, Note_off_c, 2, 65, 1104, 84864, Note_on_c, 2, 70, 1104, 84892, Note_off_c, 2, 70, 1104, 84912, Note_on_c, 2, 67, 1104, 84940, Note_off_c, 2, 67, 1104, 84960, Note_on_c, 2, 74, 1104, 84988, Note_off_c, 2, 74, 1104, 85008, Note_on_c, 2, 65, 1104, 85036, Note_off_c, 2, 65, 1104, 85056, Note_on_c, 2, 70, 1104, 85084, Note_off_c, 2, 70, 1104, 85104, Note_on_c, 2, 67, 1104, 85132, Note_off_c, 2, 67, 1104, 85152, Note_on_c, 2, 74, 1104, 85180, Note_off_c, 2, 74, 1104, 85200, Note_on_c, 2, 65, 1104, 85228, Note_off_c, 2, 65, 1104, 85248, Note_on_c, 2, 70, 1104, 85276, Note_off_c, 2, 70, 1104, 85296, Note_on_c, 2, 67, 1104, 85324, Note_off_c, 2, 67, 1104, 85344, Note_on_c, 2, 74, 1104, 85372, Note_off_c, 2, 74, 1104, 85392, Note_on_c, 2, 65, 1104, 85420, Note_off_c, 2, 65, 1104, 85440, Note_on_c, 2, 70, 1104, 85468, Note_off_c, 2, 70, 1104, 85488, Note_on_c, 2, 67, 1104, 85516, Note_off_c, 2, 67, 1104, 85536, Note_on_c, 2, 74, 1104, 85564, Note_off_c, 2, 74, 1104, 85584, Note_on_c, 2, 65, 1104, 85612, Note_off_c, 2, 65, 1104, 85632, Note_on_c, 2, 70, 1104, 85660, Note_off_c, 2, 70, 1104, 85680, Note_on_c, 2, 67, 1104, 85708, Note_off_c, 2, 67, 1104, 85728, Note_on_c, 2, 74, 1104, 85756, Note_off_c, 2, 74, 1104, 85776, Note_on_c, 2, 65, 1104, 85804, Note_off_c, 2, 65, 1104, 85824, Note_on_c, 2, 70, 1104, 85852, Note_off_c, 2, 70, 1104, 85872, Note_on_c, 2, 67, 1104, 85900, Note_off_c, 2, 67, 1104, 85920, Note_on_c, 2, 74, 1104, 85948, Note_off_c, 2, 74, 1104, 85968, Note_on_c, 2, 65, 1104, 85996, Note_off_c, 2, 65, 1104, 85996, End_track
5, 0, Start_track
5, 0, Text_t, "Pluck Syn"
5, 2880, Control_c, 3, 0, 0
5, 2882, Control_c, 3, 32, 0
5, 2884, Program_c, 3, 99
5, 2886, Control_c, 3, 7, 100
5, 2888, Control_c, 3, 10, 64
5, 2890, Control_c, 3, 11, 95
5, 2892, Control_c, 3, 91, 40
5, 2894, Control_c, 3, 93, 0
5, 30624, Note_on_c, 3, 62, 1005, 30720, Note_on_c, 3, 67, 1005, 30724, Note_off_c, 3, 62, 1005, 30816, Note_on_c, 3, 65, 1005, 30822, Note_off_c, 3, 67, 1005, 31104, Note_off_c, 3, 65, 1005, 31104, Note_on_c, 3, 62, 1005, 31200, Note_on_c, 3, 60, 1005, 31218, Note_off_c, 3, 62, 1005, 31468, Note_off_c, 3, 60, 1005, 31488, Note_on_c, 3, 58, 1005, 31584, Note_on_c, 3, 60, 1005, 31594, Note_off_c, 3, 58, 1005, 31672, Note_off_c, 3, 60, 1005, 31680, Note_on_c, 3, 62, 1005, 31776, Note_on_c, 3, 55, 1005, 31790, Note_off_c, 3, 62, 1005, 32256, Note_off_c, 3, 55, 1005, 33696, Note_on_c, 3, 62, 1005, 33790, Note_off_c, 3, 62, 1005, 33792, Note_on_c, 3, 67, 1005, 33886, Note_off_c, 3, 67, 1005, 33888, Note_on_c, 3, 65, 1005, 34080, Note_on_c, 3, 67, 1005, 34096, Note_off_c, 3, 65, 1005, 34176, Note_on_c, 3, 62, 1005, 34184, Note_off_c, 3, 67, 1005, 34248, Note_off_c, 3, 62, 1005, 34272, Note_on_c, 3, 60, 1005, 34560, Note_on_c, 3, 58, 1005, 34570, Note_off_c, 3, 60, 1005, 34656, Note_off_c, 3, 58, 1005, 34656, Note_on_c, 3, 60, 1005, 34748, Note_off_c, 3, 60, 1005, 34752, Note_on_c, 3, 62, 1005, 34848, Note_on_c, 3, 55, 1005, 34850, Note_off_c, 3, 62, 1005, 35328, Note_off_c, 3, 55, 1005, 36768, Note_on_c, 3, 67, 1005, 36850, Note_off_c, 3, 67, 1005, 36864, Note_on_c, 3, 70, 1005, 37344, Note_on_c, 3, 69, 1005, 37346, Note_off_c, 3, 70, 1005, 37440, Note_off_c, 3, 69, 1005, 37440, Note_on_c, 3, 70, 1005, 37528, Note_off_c, 3, 70, 1005, 37536, Note_on_c, 3, 72, 1005, 37632, Note_on_c, 3, 69, 1005, 37640, Note_off_c, 3, 72, 1005, 37818, Note_off_c, 3, 69, 1005, 37824, Note_on_c, 3, 65, 1005, 37920, Note_on_c, 3, 67, 1005, 37926, Note_off_c, 3, 65, 1005, 38400, Note_off_c, 3, 67, 1005, 39840, Note_on_c, 3, 67, 1005, 39922, Note_off_c, 3, 67, 1005, 39936, Note_on_c, 3, 70, 1005, 40416, Note_on_c, 3, 69, 1005, 40418, Note_off_c, 3, 70, 1005, 40512, Note_off_c, 3, 69, 1005, 40512, Note_on_c, 3, 70, 1005, 40600, Note_off_c, 3, 70, 1005, 40608, Note_on_c, 3, 72, 1005, 40704, Note_on_c, 3, 69, 1005, 40712, Note_off_c, 3, 72, 1005, 40890, Note_off_c, 3, 69, 1005, 40896, Note_on_c, 3, 65, 1005, 40992, Note_on_c, 3, 67, 1005, 40998, Note_off_c, 3, 65, 1005, 41472, Note_off_c, 3, 67, 1005, 49056, Note_on_c, 3, 62, 1005, 49152, Note_on_c, 3, 67, 1005, 49156, Note_off_c, 3, 62, 1005, 49248, Note_on_c, 3, 65, 1005, 49254, Note_off_c, 3, 67, 1005, 49536, Note_off_c, 3, 65, 1005, 49536, Note_on_c, 3, 62, 1005, 49632, Note_on_c, 3, 60, 1005, 49650, Note_off_c, 3, 62, 1005, 49900, Note_off_c, 3, 60, 1005, 49920, Note_on_c, 3, 58, 1005, 50016, Note_on_c, 3, 60, 1005, 50026, Note_off_c, 3, 58, 1005, 50104, Note_off_c, 3, 60, 1005, 50112, Note_on_c, 3, 62, 1005, 50208, Note_on_c, 3, 55, 1005, 50222, Note_off_c, 3, 62, 1005, 50688, Note_off_c, 3, 55, 1005, 52128, Note_on_c, 3, 62, 1005, 52222, Note_off_c, 3, 62, 1005, 52224, Note_on_c, 3, 67, 1005, 52318, Note_off_c, 3, 67, 1005, 52320, Note_on_c, 3, 65, 1005, 52512, Note_on_c, 3, 67, 1005, 52528, Note_off_c, 3, 65, 1005, 52608, Note_on_c, 3, 62, 1005, 52616, Note_off_c, 3, 67, 1005, 52680, Note_off_c, 3, 62, 1005, 52704, Note_on_c, 3, 60, 1005, 52992, Note_on_c, 3, 58, 1005, 53002, Note_off_c, 3, 60, 1005, 53088, Note_off_c, 3, 58, 1005, 53088, Note_on_c, 3, 60, 1005, 53180, Note_off_c, 3, 60, 1005, 53184, Note_on_c, 3, 62, 1005, 53280, Note_on_c, 3, 55, 1005, 53282, Note_off_c, 3, 62, 1005, 53760, Note_off_c, 3, 55, 1005, 55200, Note_on_c, 3, 67, 1005, 55282, Note_off_c, 3, 67, 1005, 55296, Note_on_c, 3, 70, 1005, 55776, Note_on_c, 3, 69, 1005, 55778, Note_off_c, 3, 70, 1005, 55872, Note_off_c, 3, 69, 1005, 55872, Note_on_c, 3, 70, 1005, 55960, Note_off_c, 3, 70, 1005, 55968, Note_on_c, 3, 72, 1005, 56064, Note_on_c, 3, 69, 1005, 56072, Note_off_c, 3, 72, 1005, 56250, Note_off_c, 3, 69, 1005, 56256, Note_on_c, 3, 65, 1005, 56352, Note_on_c, 3, 67, 1005, 56358, Note_off_c, 3, 65, 1005, 56832, Note_off_c, 3, 67, 1005, 58272, Note_on_c, 3, 67, 1005, 58354, Note_off_c, 3, 67, 1005, 58368, Note_on_c, 3, 70, 1005, 58848, Note_on_c, 3, 69, 1005, 58850, Note_off_c, 3, 70, 1005, 58944, Note_off_c, 3, 69, 1005, 58944, Note_on_c, 3, 70, 1005, 59032, Note_off_c, 3, 70, 1005, 59040, Note_on_c, 3, 72, 1005, 59136, Note_on_c, 3, 69, 1005, 59144, Note_off_c, 3, 72, 1005, 59322, Note_off_c, 3, 69, 1005, 59328, Note_on_c, 3, 65, 1005, 59424, Note_on_c, 3, 67, 1005, 59430, Note_off_c, 3, 65, 1005, 59904, Note_off_c, 3, 67, 1005, 110496, Note_on_c, 3, 62, 1005, 110592, Note_on_c, 3, 67, 1005, 110596, Note_off_c, 3, 62, 1005, 110688, Note_on_c, 3, 65, 1005, 110694, Note_off_c, 3, 67, 1005, 110976, Note_off_c, 3, 65, 1005, 110976, Note_on_c, 3, 62, 1005, 111072, Note_on_c, 3, 60, 1005, 111090, Note_off_c, 3, 62, 1005, 111340, Note_off_c, 3, 60, 1005, 111360, Note_on_c, 3, 58, 1005, 111456, Note_on_c, 3, 60, 1005, 111466, Note_off_c, 3, 58, 1005, 111544, Note_off_c, 3, 60, 1005, 111552, Note_on_c, 3, 62, 1005, 111648, Note_on_c, 3, 55, 1005, 111662, Note_off_c, 3, 62, 1005, 112032, Note_off_c, 3, 55, 1005, 112032, Note_on_c, 3, 62, 1005, 112126, Note_off_c, 3, 62, 1005, 112128, Note_on_c, 3, 67, 1005, 112222, Note_off_c, 3, 67, 1005, 112224, Note_on_c, 3, 65, 1005, 112416, Note_on_c, 3, 67, 1005, 112432, Note_off_c, 3, 65, 1005, 112512, Note_on_c, 3, 62, 1005, 112520, Note_off_c, 3, 67, 1005, 112584, Note_off_c, 3, 62, 1005, 112608, Note_on_c, 3, 60, 1005, 112896, Note_on_c, 3, 58, 1005, 112906, Note_off_c, 3, 60, 1005, 112992, Note_off_c, 3, 58, 1005, 112992, Note_on_c, 3, 60, 1005, 113084, Note_off_c, 3, 60, 1005, 113088, Note_on_c, 3, 62, 1005, 113184, Note_on_c, 3, 55, 1005, 113186, Note_off_c, 3, 62, 1005, 113568, Note_off_c, 3, 55, 1005, 113568, Note_on_c, 3, 62, 1005, 113662, Note_off_c, 3, 62, 1005, 113664, Note_on_c, 3, 67, 1005, 113758, Note_off_c, 3, 67, 1005, 113760, Note_on_c, 3, 65, 1005, 113856, Note_off_c, 3, 65, 1005, 113856, Note_on_c, 3, 67, 1005, 113952, Note_on_c, 3, 65, 1005, 113960, Note_off_c, 3, 67, 1005, 114048, Note_off_c, 3, 65, 1005, 114048, Note_on_c, 3, 62, 1005, 114144, Note_off_c, 3, 62, 1005, 114144, Note_on_c, 3, 60, 1005, 114240, Note_off_c, 3, 60, 1005, 114240, Note_on_c, 3, 62, 1005, 114336, Note_off_c, 3, 62, 1005, 114336, Note_on_c, 3, 60, 1005, 114432, Note_off_c, 3, 60, 1005, 114432, Note_on_c, 3, 58, 1005, 114528, Note_off_c, 3, 58, 1005, 114528, Note_on_c, 3, 60, 1005, 114620, Note_off_c, 3, 60, 1005, 114624, Note_on_c, 3, 62, 1005, 114720, Note_on_c, 3, 55, 1005, 114722, Note_off_c, 3, 62, 1005, 114888, Note_off_c, 3, 55, 1005, 114912, Note_on_c, 3, 55, 705, 115080, Note_off_c, 3, 55, 705, 115104, Note_on_c, 3, 55, 605, 115288, Note_off_c, 3, 55, 605, 115680, Note_on_c, 3, 62, 1005, 115856, Note_off_c, 3, 62, 1005, 115872, Note_on_c, 3, 62, 1005, 115968, Note_on_c, 3, 62, 1005, 115970, Note_off_c, 3, 62, 1005, 116064, Note_off_c, 3, 62, 1005, 116064, Note_on_c, 3, 60, 1005, 116160, Note_on_c, 3, 57, 1005, 116162, Note_off_c, 3, 60, 1005, 116256, Note_on_c, 3, 53, 1005, 116258, Note_off_c, 3, 57, 1005, 116640, Note_off_c, 3, 53, 1005, 116640, Note_on_c, 3, 62, 1005, 116736, Note_on_c, 3, 67, 1005, 116740, Note_off_c, 3, 62, 1005, 116832, Note_on_c, 3, 65, 1005, 116838, Note_off_c, 3, 67, 1005, 117120, Note_off_c, 3, 65, 1005, 117120, Note_on_c, 3, 62, 1005, 117216, Note_on_c, 3, 60, 1005, 117234, Note_off_c, 3, 62, 1005, 117484, Note_off_c, 3, 60, 1005, 117504, Note_on_c, 3, 58, 1005, 117600, Note_on_c, 3, 60, 1005, 117610, Note_off_c, 3, 58, 1005, 117688, Note_off_c, 3, 60, 1005, 117696, Note_on_c, 3, 62, 1005, 117792, Note_on_c, 3, 55, 1005, 117806, Note_off_c, 3, 62, 1005, 118176, Note_off_c, 3, 55, 1005, 118176, Note_on_c, 3, 62, 1005, 118270, Note_off_c, 3, 62, 1005, 118272, Note_on_c, 3, 67, 1005, 118366, Note_off_c, 3, 67, 1005, 118368, Note_on_c, 3, 65, 1005, 118560, Note_on_c, 3, 67, 1005, 118576, Note_off_c, 3, 65, 1005, 118656, Note_on_c, 3, 62, 1005, 118664, Note_off_c, 3, 67, 1005, 118728, Note_off_c, 3, 62, 1005, 118752, Note_on_c, 3, 60, 1005, 119040, Note_on_c, 3, 58, 1005, 119050, Note_off_c, 3, 60, 1005, 119136, Note_off_c, 3, 58, 1005, 119136, Note_on_c, 3, 60, 1005, 119228, Note_off_c, 3, 60, 1005, 119232, Note_on_c, 3, 62, 1005, 119328, Note_on_c, 3, 55, 1005, 119330, Note_off_c, 3, 62, 1005, 119712, Note_off_c, 3, 55, 1005, 119712, Note_on_c, 3, 62, 1005, 119806, Note_off_c, 3, 62, 1005, 119808, Note_on_c, 3, 67, 1005, 119902, Note_off_c, 3, 67, 1005, 119904, Note_on_c, 3, 65, 1005, 120000, Note_off_c, 3, 65, 1005, 120000, Note_on_c, 3, 67, 1005, 120096, Note_on_c, 3, 65, 1005, 120104, Note_off_c, 3, 67, 1005, 120192, Note_off_c, 3, 65, 1005, 120192, Note_on_c, 3, 62, 1005, 120288, Note_off_c, 3, 62, 1005, 120288, Note_on_c, 3, 60, 1005, 120384, Note_off_c, 3, 60, 1005, 120384, Note_on_c, 3, 62, 1005, 120480, Note_off_c, 3, 62, 1005, 120480, Note_on_c, 3, 60, 1005, 120576, Note_off_c, 3, 60, 1005, 120576, Note_on_c, 3, 58, 1005, 120672, Note_off_c, 3, 58, 1005, 120672, Note_on_c, 3, 60, 1005, 120764, Note_off_c, 3, 60, 1005, 120768, Note_on_c, 3, 62, 1005, 120864, Note_on_c, 3, 55, 1005, 120866, Note_off_c, 3, 62, 1005, 121032, Note_off_c, 3, 55, 1005, 121056, Note_on_c, 3, 55, 705, 121224, Note_off_c, 3, 55, 705, 121248, Note_on_c, 3, 55, 605, 121432, Note_off_c, 3, 55, 605, 121824, Note_on_c, 3, 62, 1005, 122000, Note_off_c, 3, 62, 1005, 122016, Note_on_c, 3, 62, 1005, 122112, Note_on_c, 3, 62, 1005, 122114, Note_off_c, 3, 62, 1005, 122208, Note_off_c, 3, 62, 1005, 122240, Note_on_c, 3, 60, 1005, 122364, Note_off_c, 3, 60, 1005, 122368, Note_on_c, 3, 57, 1005, 122492, Note_off_c, 3, 57, 1005, 122492, End_track
6, 0, Start_track
6, 0, Text_t, "Riff Left"
6, 2880, Control_c, 4, 0, 0
6, 2882, Control_c, 4, 32, 0
6, 2884, Program_c, 4, 7
6, 2886, Control_c, 4, 7, 100
6, 2888, Control_c, 4, 10, 16
6, 2890, Control_c, 4, 11, 80
6, 2892, Control_c, 4, 91, 40
6, 2894, Control_c, 4, 93, 0
6, 15360, Note_on_c, 4, 48, 906, 15392, Note_off_c, 4, 48, 906, 15408, Note_on_c, 4, 50, 906, 15440, Note_off_c, 4, 50, 906, 15456, Note_on_c, 4, 46, 906, 15488, Note_off_c, 4, 46, 906, 15504, Note_on_c, 4, 41, 906, 15536, Note_off_c, 4, 41, 906, 15600, Note_on_c, 4, 48, 906, 15632, Note_off_c, 4, 48, 906, 15648, Note_on_c, 4, 50, 906, 15680, Note_off_c, 4, 50, 906, 15696, Note_on_c, 4, 46, 906, 15728, Note_off_c, 4, 46, 906, 15744, Note_on_c, 4, 41, 906, 15776, Note_off_c, 4, 41, 906, 15792, Note_on_c, 4, 43, 906, 15824, Note_off_c, 4, 43, 906, 15840, Note_on_c, 4, 48, 906, 15872, Note_off_c, 4, 48, 906, 15888, Note_on_c, 4, 50, 906, 15920, Note_off_c, 4, 50, 906, 15936, Note_on_c, 4, 46, 906, 15968, Note_off_c, 4, 46, 906, 15984, Note_on_c, 4, 41, 906, 16016, Note_off_c, 4, 41, 906, 16032, Note_on_c, 4, 43, 906, 16064, Note_off_c, 4, 43, 906, 16080, Note_on_c, 4, 48, 906, 16112, Note_off_c, 4, 48, 906, 16128, Note_on_c, 4, 50, 906, 16160, Note_off_c, 4, 50, 906, 16176, Note_on_c, 4, 46, 906, 16208, Note_off_c, 4, 46, 906, 16272, Note_on_c, 4, 43, 906, 16304, Note_off_c, 4, 43, 906, 16368, Note_on_c, 4, 50, 906, 16400, Note_off_c, 4, 50, 906, 16416, Note_on_c, 4, 46, 906, 16448, Note_off_c, 4, 46, 906, 16464, Note_on_c, 4, 41, 906, 16496, Note_off_c, 4, 41, 906, 16560, Note_on_c, 4, 48, 906, 16592, Note_off_c, 4, 48, 906, 16608, Note_on_c, 4, 50, 906, 16640, Note_off_c, 4, 50, 906, 16656, Note_on_c, 4, 46, 906, 16688, Note_off_c, 4, 46, 906, 16752, Note_on_c, 4, 43, 906, 16784, Note_off_c, 4, 43, 906, 16800, Note_on_c, 4, 48, 906, 16832, Note_off_c, 4, 48, 906, 16848, Note_on_c, 4, 50, 906, 16880, Note_off_c, 4, 50, 906, 16944, Note_on_c, 4, 41, 906, 16976, Note_off_c, 4, 41, 906, 16992, Note_on_c, 4, 43, 906, 17024, Note_off_c, 4, 43, 906, 17040, Note_on_c, 4, 48, 906, 17072, Note_off_c, 4, 48, 906, 17136, Note_on_c, 4, 46, 906, 17168, Note_off_c, 4, 46, 906, 17184, Note_on_c, 4, 41, 906, 17216, Note_off_c, 4, 41, 906, 17232, Note_on_c, 4, 43, 906, 17264, Note_off_c, 4, 43, 906, 17280, Note_on_c, 4, 48, 906, 17312, Note_off_c, 4, 48, 906, 17328, Note_on_c, 4, 50, 906, 17360, Note_off_c, 4, 50, 906, 17376, Note_on_c, 4, 46, 906, 17408, Note_off_c, 4, 46, 906, 17424, Note_on_c, 4, 41, 906, 17456, Note_off_c, 4, 41, 906, 17520, Note_on_c, 4, 48, 906, 17552, Note_off_c, 4, 48, 906, 17568, Note_on_c, 4, 50, 906, 17600, Note_off_c, 4, 50, 906, 17616, Note_on_c, 4, 46, 906, 17648, Note_off_c, 4, 46, 906, 17664, Note_on_c, 4, 41, 906, 17696, Note_off_c, 4, 41, 906, 17712, Note_on_c, 4, 43, 906, 17744, Note_off_c, 4, 43, 906, 17760, Note_on_c, 4, 48, 906, 17792, Note_off_c, 4, 48, 906, 17808, Note_on_c, 4, 50, 906, 17840, Note_off_c, 4, 50, 906, 17904, Note_on_c, 4, 41, 906, 17936, Note_off_c, 4, 41, 906, 17952, Note_on_c, 4, 43, 906, 17984, Note_off_c, 4, 43, 906, 18000, Note_on_c, 4, 48, 906, 18032, Note_off_c, 4, 48, 906, 18048, Note_on_c, 4, 50, 906, 18080, Note_off_c, 4, 50, 906, 18096, Note_on_c, 4, 46, 906, 18128, Note_off_c, 4, 46, 906, 18144, Note_on_c, 4, 41, 906, 18176, Note_off_c, 4, 41, 906, 18192, Note_on_c, 4, 43, 906, 18224, Note_off_c, 4, 43, 906, 18432, Note_on_c, 4, 48, 906, 18464, Note_off_c, 4, 48, 906, 18480, Note_on_c, 4, 50, 906, 18512, Note_off_c, 4, 50, 906, 18528, Note_on_c, 4, 46, 906, 18560, Note_off_c, 4, 46, 906, 18576, Note_on_c, 4, 41, 906, 18608, Note_off_c, 4, 41, 906, 18672, Note_on_c, 4, 48, 906, 18704, Note_off_c, 4, 48, 906, 18720, Note_on_c, 4, 50, 906, 18752, Note_off_c, 4, 50, 906, 18768, Note_on_c, 4, 46, 906, 18800, Note_off_c, 4, 46, 906, 18816, Note_on_c, 4, 41, 906, 18848, Note_off_c, 4, 41, 906, 18864, Note_on_c, 4, 43, 906, 18896, Note_off_c, 4, 43, 906, 18912, Note_on_c, 4, 48, 906, 18944, Note_off_c, 4, 48, 906, 18960, Note_on_c, 4, 50, 906, 18992, Note_off_c, 4, 50, 906, 19008, Note_on_c, 4, 46, 906, 19040, Note_off_c, 4, 46, 906, 19056, Note_on_c, 4, 41, 906, 19088, Note_off_c, 4, 41, 906, 19104, Note_on_c, 4, 43, 906, 19136, Note_off_c, 4, 43, 906, 19152, Note_on_c, 4, 48, 906, 19184, Note_off_c, 4, 48, 906, 19200, Note_on_c, 4, 50, 906, 19232, Note_off_c, 4, 50, 906, 19248, Note_on_c, 4, 46, 906, 19280, Note_off_c, 4, 46, 906, 19344, Note_on_c, 4, 43, 906, 19376, Note_off_c, 4, 43, 906, 19440, Note_on_c, 4, 50, 906, 19472, Note_off_c, 4, 50, 906, 19488, Note_on_c, 4, 46, 906, 19520, Note_off_c, 4, 46, 906, 19536, Note_on_c, 4, 41, 906, 19568, Note_off_c, 4, 41, 906, 19632, Note_on_c, 4, 48, 906, 19664, Note_off_c, 4, 48, 906, 19680, Note_on_c, 4, 50, 906, 19712, Note_off_c, 4, 50, 906, 19728, Note_on_c, 4, 46, 906, 19760, Note_off_c, 4, 46, 906, 19824, Note_on_c, 4, 43, 906, 19856, Note_off_c, 4, 43, 906, 19872, Note_on_c, 4, 48, 906, 19904, Note_off_c, 4, 48, 906, 19920, Note_on_c, 4, 50, 906, 19952, Note_off_c, 4, 50, 906, 20016, Note_on_c, 4, 41, 906, 20048, Note_off_c, 4, 41, 906, 20064, Note_on_c, 4, 43, 906, 20096, Note_off_c, 4, 43, 906, 20112, Note_on_c, 4, 48, 906, 20144, Note_off_c, 4, 48, 906, 20208, Note_on_c, 4, 46, 906, 20240, Note_off_c, 4, 46, 906, 20256, Note_on_c, 4, 41, 906, 20288, Note_off_c, 4, 41, 906, 20304, Note_on_c, 4, 43, 906, 20336, Note_off_c, 4, 43, 906, 20352, Note_on_c, 4, 48, 906, 20384, Note_off_c, 4, 48, 906, 20400, Note_on_c, 4, 50, 906, 20432, Note_off_c, 4, 50, 906, 20448, Note_on_c, 4, 46, 906, 20480, Note_off_c, 4, 46, 906, 20496, Note_on_c, 4, 41, 906, 20528, Note_off_c, 4, 41, 906, 20592, Note_on_c, 4, 48, 906, 20624, Note_off_c, 4, 48, 906, 20640, Note_on_c, 4, 50, 906, 20672, Note_off_c, 4, 50, 906, 20688, Note_on_c, 4, 46, 906, 20720, Note_off_c, 4, 46, 906, 20736, Note_on_c, 4, 41, 906, 20768, Note_off_c, 4, 41, 906, 20784, Note_on_c, 4, 43, 906, 20816, Note_off_c, 4, 43, 906, 20832, Note_on_c, 4, 48, 906, 20864, Note_off_c, 4, 48, 906, 20880, Note_on_c, 4, 50, 906, 20912, Note_off_c, 4, 50, 906, 20976, Note_on_c, 4, 41, 906, 21008, Note_off_c, 4, 41, 906, 21024, Note_on_c, 4, 43, 906, 21056, Note_off_c, 4, 43, 906, 21072, Note_on_c, 4, 48, 906, 21104, Note_off_c, 4, 48, 906, 21120, Note_on_c, 4, 50, 906, 21152, Note_off_c, 4, 50, 906, 21168, Note_on_c, 4, 46, 906, 21200, Note_off_c, 4, 46, 906, 21216, Note_on_c, 4, 41, 906, 21248, Note_off_c, 4, 41, 906, 21264, Note_on_c, 4, 43, 906, 21296, Note_off_c, 4, 43, 906, 21504, Note_on_c, 4, 48, 906, 21536, Note_off_c, 4, 48, 906, 21552, Note_on_c, 4, 50, 906, 21584, Note_off_c, 4, 50, 906, 21600, Note_on_c, 4, 46, 906, 21632, Note_off_c, 4, 46, 906, 21648, Note_on_c, 4, 41, 906, 21680, Note_off_c, 4, 41, 906, 21744, Note_on_c, 4, 48, 906, 21776, Note_off_c, 4, 48, 906, 21792, Note_on_c, 4, 50, 906, 21824, Note_off_c, 4, 50, 906, 21840, Note_on_c, 4, 46, 906, 21872, Note_off_c, 4, 46, 906, 21888, Note_on_c, 4, 41, 906, 21920, Note_off_c, 4, 41, 906, 21936, Note_on_c, 4, 43, 906, 21968, Note_off_c, 4, 43, 906, 21984, Note_on_c, 4, 48, 906, 22016, Note_off_c, 4, 48, 906, 22032, Note_on_c, 4, 50, 906, 22064, Note_off_c, 4, 50, 906, 22080, Note_on_c, 4, 46, 906, 22112, Note_off_c, 4, 46, 906, 22128, Note_on_c, 4, 41, 906, 22160, Note_off_c, 4, 41, 906, 22176, Note_on_c, 4, 43, 906, 22208, Note_off_c, 4, 43, 906, 22224, Note_on_c, 4, 48, 906, 22256, Note_off_c, 4, 48, 906, 22272, Note_on_c, 4, 50, 906, 22304, Note_off_c, 4, 50, 906, 22320, Note_on_c, 4, 46, 906, 22352, Note_off_c, 4, 46, 906, 22416, Note_on_c, 4, 43, 906, 22448, Note_off_c, 4, 43, 906, 22512, Note_on_c, 4, 50, 906, 22544, Note_off_c, 4, 50, 906, 22560, Note_on_c, 4, 46, 906, 22592, Note_off_c, 4, 46, 906, 22608, Note_on_c, 4, 41, 906, 22640, Note_off_c, 4, 41, 906, 22704, Note_on_c, 4, 48, 906, 22736, Note_off_c, 4, 48, 906, 22752, Note_on_c, 4, 50, 906, 22784, Note_off_c, 4, 50, 906, 22800, Note_on_c, 4, 46, 906, 22832, Note_off_c, 4, 46, 906, 22896, Note_on_c, 4, 43, 906, 22928, Note_off_c, 4, 43, 906, 22944, Note_on_c, 4, 48, 906, 22976, Note_off_c, 4, 48, 906, 22992, Note_on_c, 4, 50, 906, 23024, Note_off_c, 4, 50, 906, 23088, Note_on_c, 4, 41, 906, 23120, Note_off_c, 4, 41, 906, 23136, Note_on_c, 4, 43, 906, 23168, Note_off_c, 4, 43, 906, 23184, Note_on_c, 4, 48, 906, 23216, Note_off_c, 4, 48, 906, 23280, Note_on_c, 4, 46, 906, 23312, Note_off_c, 4, 46, 906, 23328, Note_on_c, 4, 41, 906, 23360, Note_off_c, 4, 41, 906, 23376, Note_on_c, 4, 43, 906, 23408, Note_off_c, 4, 43, 906, 23424, Note_on_c, 4, 48, 906, 23456, Note_off_c, 4, 48, 906, 23472, Note_on_c, 4, 50, 906, 23504, Note_off_c, 4, 50, 906, 23520, Note_on_c, 4, 46, 906, 23552, Note_off_c, 4, 46, 906, 23568, Note_on_c, 4, 41, 906, 23600, Note_off_c, 4, 41, 906, 23664, Note_on_c, 4, 48, 906, 23696, Note_off_c, 4, 48, 906, 23712, Note_on_c, 4, 50, 906, 23744, Note_off_c, 4, 50, 906, 23760, Note_on_c, 4, 46, 906, 23792, Note_off_c, 4, 46, 906, 23808, Note_on_c, 4, 41, 906, 23840, Note_off_c, 4, 41, 906, 23856, Note_on_c, 4, 43, 906, 23888, Note_off_c, 4, 43, 906, 23904, Note_on_c, 4, 48, 906, 23936, Note_off_c, 4, 48, 906, 23952, Note_on_c, 4, 50, 906, 23984, Note_off_c, 4, 50, 906, 24048, Note_on_c, 4, 41, 906, 24080, Note_off_c, 4, 41, 906, 24096, Note_on_c, 4, 43, 906, 24128, Note_off_c, 4, 43, 906, 24144, Note_on_c, 4, 48, 906, 24176, Note_off_c, 4, 48, 906, 24192, Note_on_c, 4, 50, 906, 24224, Note_off_c, 4, 50, 906, 24240, Note_on_c, 4, 46, 906, 24272, Note_off_c, 4, 46, 906, 24288, Note_on_c, 4, 41, 906, 24320, Note_off_c, 4, 41, 906, 24336, Note_on_c, 4, 43, 906, 24368, Note_off_c, 4, 43, 906, 24576, Note_on_c, 4, 48, 906, 24608, Note_off_c, 4, 48, 906, 24624, Note_on_c, 4, 50, 906, 24656, Note_off_c, 4, 50, 906, 24672, Note_on_c, 4, 46, 906, 24704, Note_off_c, 4, 46, 906, 24720, Note_on_c, 4, 41, 906, 24752, Note_off_c, 4, 41, 906, 24816, Note_on_c, 4, 48, 906, 24848, Note_off_c, 4, 48, 906, 24864, Note_on_c, 4, 50, 906, 24896, Note_off_c, 4, 50, 906, 24912, Note_on_c, 4, 46, 906, 24944, Note_off_c, 4, 46, 906, 24960, Note_on_c, 4, 41, 906, 24992, Note_off_c, 4, 41, 906, 25008, Note_on_c, 4, 43, 906, 25040, Note_off_c, 4, 43, 906, 25056, Note_on_c, 4, 48, 906, 25088, Note_off_c, 4, 48, 906, 25104, Note_on_c, 4, 50, 906, 25136, Note_off_c, 4, 50, 906, 25152, Note_on_c, 4, 46, 906, 25184, Note_off_c, 4, 46, 906, 25200, Note_on_c, 4, 41, 906, 25232, Note_off_c, 4, 41, 906, 25248, Note_on_c, 4, 43, 906, 25280, Note_off_c, 4, 43, 906, 25296, Note_on_c, 4, 48, 906, 25328, Note_off_c, 4, 48, 906, 25344, Note_on_c, 4, 50, 906, 25376, Note_off_c, 4, 50, 906, 25392, Note_on_c, 4, 46, 906, 25424, Note_off_c, 4, 46, 906, 25488, Note_on_c, 4, 43, 906, 25520, Note_off_c, 4, 43, 906, 25584, Note_on_c, 4, 50, 906, 25616, Note_off_c, 4, 50, 906, 25632, Note_on_c, 4, 46, 906, 25664, Note_off_c, 4, 46, 906, 25680, Note_on_c, 4, 41, 906, 25712, Note_off_c, 4, 41, 906, 25776, Note_on_c, 4, 48, 906, 25808, Note_off_c, 4, 48, 906, 25824, Note_on_c, 4, 50, 906, 25856, Note_off_c, 4, 50, 906, 25872, Note_on_c, 4, 46, 906, 25904, Note_off_c, 4, 46, 906, 25968, Note_on_c, 4, 43, 906, 26000, Note_off_c, 4, 43, 906, 26016, Note_on_c, 4, 48, 906, 26048, Note_off_c, 4, 48, 906, 26064, Note_on_c, 4, 50, 906, 26096, Note_off_c, 4, 50, 906, 26160, Note_on_c, 4, 41, 906, 26192, Note_off_c, 4, 41, 906, 26208, Note_on_c, 4, 43, 906, 26240, Note_off_c, 4, 43, 906, 26256, Note_on_c, 4, 48, 906, 26288, Note_off_c, 4, 48, 906, 26352, Note_on_c, 4, 46, 906, 26384, Note_off_c, 4, 46, 906, 26400, Note_on_c, 4, 41, 906, 26432, Note_off_c, 4, 41, 906, 26448, Note_on_c, 4, 43, 906, 26480, Note_off_c, 4, 43, 906, 26496, Note_on_c, 4, 48, 906, 26528, Note_off_c, 4, 48, 906, 26544, Note_on_c, 4, 50, 906, 26576, Note_off_c, 4, 50, 906, 26592, Note_on_c, 4, 46, 906, 26624, Note_off_c, 4, 46, 906, 26640, Note_on_c, 4, 41, 906, 26672, Note_off_c, 4, 41, 906, 26736, Note_on_c, 4, 48, 906, 26768, Note_off_c, 4, 48, 906, 26784, Note_on_c, 4, 50, 906, 26816, Note_off_c, 4, 50, 906, 26832, Note_on_c, 4, 46, 906, 26864, Note_off_c, 4, 46, 906, 26880, Note_on_c, 4, 41, 906, 26912, Note_off_c, 4, 41, 906, 26928, Note_on_c, 4, 43, 906, 26960, Note_off_c, 4, 43, 906, 26976, Note_on_c, 4, 48, 906, 27008, Note_off_c, 4, 48, 906, 27024, Note_on_c, 4, 50, 906, 27056, Note_off_c, 4, 50, 906, 27120, Note_on_c, 4, 41, 906, 27152, Note_off_c, 4, 41, 906, 27168, Note_on_c, 4, 43, 906, 27200, Note_off_c, 4, 43, 906, 27216, Note_on_c, 4, 48, 906, 27248, Note_off_c, 4, 48, 906, 27264, Note_on_c, 4, 50, 906, 27296, Note_off_c, 4, 50, 906, 27312, Note_on_c, 4, 46, 906, 27344, Note_off_c, 4, 46, 906, 27360, Note_on_c, 4, 41, 906, 27392, Note_off_c, 4, 41, 906, 27408, Note_on_c, 4, 43, 906, 27440, Note_off_c, 4, 43, 906, 27744, Note_on_c, 4, 41, 1006, 27776, Note_off_c, 4, 41, 1006, 27840, Note_on_c, 4, 43, 1006, 27840, Note_on_c, 4, 50, 1006, 27840, Note_on_c, 4, 46, 1006, 27872, Note_off_c, 4, 46, 1006, 27872, Note_off_c, 4, 50, 1006, 27872, Note_off_c, 4, 43, 1006, 27936, Note_on_c, 4, 41, 1006, 27968, Note_off_c, 4, 41, 1006, 27984, Note_on_c, 4, 50, 1006, 27984, Note_on_c, 4, 46, 1006, 27984, Note_on_c, 4, 43, 1006, 28016, Note_off_c, 4, 43, 1006, 28016, Note_off_c, 4, 46, 1006, 28016, Note_off_c, 4, 50, 1006, 28128, Note_on_c, 4, 41, 1006, 28160, Note_off_c, 4, 41, 1006, 28224, Note_on_c, 4, 43, 1006, 28224, Note_on_c, 4, 50, 1006, 28224, Note_on_c, 4, 46, 1006, 28256, Note_off_c, 4, 46, 1006, 28256, Note_off_c, 4, 50, 1006, 28256, Note_off_c, 4, 43, 1006, 28320, Note_on_c, 4, 41, 1006, 28352, Note_off_c, 4, 41, 1006, 28368, Note_on_c, 4, 50, 1006, 28368, Note_on_c, 4, 46, 1006, 28368, Note_on_c, 4, 43, 1006, 28400, Note_off_c, 4, 43, 1006, 28400, Note_off_c, 4, 46, 1006, 28400, Note_off_c, 4, 50, 1006, 28512, Note_on_c, 4, 41, 1006, 28544, Note_off_c, 4, 41, 1006, 28608, Note_on_c, 4, 43, 1006, 28608, Note_on_c, 4, 50, 1006, 28608, Note_on_c, 4, 46, 1006, 28640, Note_off_c, 4, 46, 1006, 28640, Note_off_c, 4, 50, 1006, 28640, Note_off_c, 4, 43, 1006, 28704, Note_on_c, 4, 41, 1006, 28736, Note_off_c, 4, 41, 1006, 28752, Note_on_c, 4, 50, 1006, 28752, Note_on_c, 4, 46, 1006, 28752, Note_on_c, 4, 43, 1006, 28784, Note_off_c, 4, 43, 1006, 28784, Note_off_c, 4, 46, 1006, 28784, Note_off_c, 4, 50, 1006, 28896, Note_on_c, 4, 41, 1006, 28928, Note_off_c, 4, 41, 1006, 28992, Note_on_c, 4, 43, 1006, 28992, Note_on_c, 4, 50, 1006, 28992, Note_on_c, 4, 46, 1006, 29024, Note_off_c, 4, 46, 1006, 29024, Note_off_c, 4, 50, 1006, 29024, Note_off_c, 4, 43, 1006, 29088, Note_on_c, 4, 41, 1006, 29120, Note_off_c, 4, 41, 1006, 29136, Note_on_c, 4, 50, 1006, 29136, Note_on_c, 4, 46, 1006, 29136, Note_on_c, 4, 43, 1006, 29168, Note_off_c, 4, 43, 1006, 29168, Note_off_c, 4, 46, 1006, 29168, Note_off_c, 4, 50, 1006, 29280, Note_on_c, 4, 41, 1006, 29312, Note_off_c, 4, 41, 1006, 29376, Note_on_c, 4, 43, 1006, 29376, Note_on_c, 4, 50, 1006, 29376, Note_on_c, 4, 46, 1006, 29408, Note_off_c, 4, 46, 1006, 29408, Note_off_c, 4, 50, 1006, 29408, Note_off_c, 4, 43, 1006, 29472, Note_on_c, 4, 41, 1006, 29504, Note_off_c, 4, 41, 1006, 29520, Note_on_c, 4, 50, 1006, 29520, Note_on_c, 4, 46, 1006, 29520, Note_on_c, 4, 43, 1006, 29552, Note_off_c, 4, 43, 1006, 29552, Note_off_c, 4, 46, 1006, 29552, Note_off_c, 4, 50, 1006, 29664, Note_on_c, 4, 41, 1006, 29696, Note_off_c, 4, 41, 1006, 29760, Note_on_c, 4, 43, 1006, 29760, Note_on_c, 4, 50, 1006, 29760, Note_on_c, 4, 46, 1006, 29792, Note_off_c, 4, 46, 1006, 29792, Note_off_c, 4, 50, 1006, 29792, Note_off_c, 4, 43, 1006, 29856, Note_on_c, 4, 41, 1006, 29888, Note_off_c, 4, 41, 1006, 29904, Note_on_c, 4, 50, 1006, 29904, Note_on_c, 4, 46, 1006, 29904, Note_on_c, 4, 43, 1006, 29936, Note_off_c, 4, 43, 1006, 29936, Note_off_c, 4, 46, 1006, 29936, Note_off_c, 4, 50, 1006, 30048, Note_on_c, 4, 41, 1006, 30080, Note_off_c, 4, 41, 1006, 30144, Note_on_c, 4, 43, 1006, 30144, Note_on_c, 4, 50, 1006, 30144, Note_on_c, 4, 46, 1006, 30176, Note_off_c, 4, 46, 1006, 30176, Note_off_c, 4, 50, 1006, 30176, Note_off_c, 4, 43, 1006, 30240, Note_on_c, 4, 41, 1006, 30272, Note_off_c, 4, 41, 1006, 30288, Note_on_c, 4, 50, 1006, 30288, Note_on_c, 4, 46, 1006, 30288, Note_on_c, 4, 43, 1006, 30320, Note_off_c, 4, 43, 1006, 30320, Note_off_c, 4, 46, 1006, 30320, Note_off_c, 4, 50, 1006, 30432, Note_on_c, 4, 41, 1006, 30464, Note_off_c, 4, 41, 1006, 30528, Note_on_c, 4, 43, 1006, 30528, Note_on_c, 4, 50, 1006, 30528, Note_on_c, 4, 46, 1006, 30560, Note_off_c, 4, 46, 1006, 30560, Note_off_c, 4, 50, 1006, 30560, Note_off_c, 4, 43, 1006, 30624, Note_on_c, 4, 41, 1006, 30656, Note_off_c, 4, 41, 1006, 30672, Note_on_c, 4, 50, 1006, 30672, Note_on_c, 4, 46, 1006, 30672, Note_on_c, 4, 43, 1006, 30704, Note_off_c, 4, 43, 1006, 30704, Note_off_c, 4, 46, 1006, 30704, Note_off_c, 4, 50, 1006, 30816, Note_on_c, 4, 41, 1006, 30848, Note_off_c, 4, 41, 1006, 30912, Note_on_c, 4, 43, 1006, 30912, Note_on_c, 4, 50, 1006, 30912, Note_on_c, 4, 46, 1006, 30944, Note_off_c, 4, 46, 1006, 30944, Note_off_c, 4, 50, 1006, 30944, Note_off_c, 4, 43, 1006, 31008, Note_on_c, 4, 41, 1006, 31040, Note_off_c, 4, 41, 1006, 31056, Note_on_c, 4, 50, 1006, 31056, Note_on_c, 4, 46, 1006, 31056, Note_on_c, 4, 43, 1006, 31088, Note_off_c, 4, 43, 1006, 31088, Note_off_c, 4, 46, 1006, 31088, Note_off_c, 4, 50, 1006, 31200, Note_on_c, 4, 41, 1006, 31232, Note_off_c, 4, 41, 1006, 31296, Note_on_c, 4, 43, 1006, 31296, Note_on_c, 4, 50, 1006, 31296, Note_on_c, 4, 46, 1006, 31328, Note_off_c, 4, 46, 1006, 31328, Note_off_c, 4, 50, 1006, 31328, Note_off_c, 4, 43, 1006, 31392, Note_on_c, 4, 41, 1006, 31424, Note_off_c, 4, 41, 1006, 31440, Note_on_c, 4, 50, 1006, 31440, Note_on_c, 4, 46, 1006, 31440, Note_on_c, 4, 43, 1006, 31472, Note_off_c, 4, 43, 1006, 31472, Note_off_c, 4, 46, 1006, 31472, Note_off_c, 4, 50, 1006, 31584, Note_on_c, 4, 41, 1006, 31616, Note_off_c, 4, 41, 1006, 31680, Note_on_c, 4, 43, 1006, 31680, Note_on_c, 4, 50, 1006, 31680, Note_on_c, 4, 46, 1006, 31712, Note_off_c, 4, 46, 1006, 31712, Note_off_c, 4, 50, 1006, 31712, Note_off_c, 4, 43, 1006, 31776, Note_on_c, 4, 41, 1006, 31808, Note_off_c, 4, 41, 1006, 31824, Note_on_c, 4, 50, 1006, 31824, Note_on_c, 4, 46, 1006, 31824, Note_on_c, 4, 43, 1006, 31856, Note_off_c, 4, 43, 1006, 31856, Note_off_c, 4, 46, 1006, 31856, Note_off_c, 4, 50, 1006, 31968, Note_on_c, 4, 41, 1006, 32000, Note_off_c, 4, 41, 1006, 32064, Note_on_c, 4, 43, 1006, 32064, Note_on_c, 4, 50, 1006, 32064, Note_on_c, 4, 46, 1006, 32096, Note_off_c, 4, 46, 1006, 32096, Note_off_c, 4, 50, 1006, 32096, Note_off_c, 4, 43, 1006, 32160, Note_on_c, 4, 41, 1006, 32192, Note_off_c, 4, 41, 1006, 32208, Note_on_c, 4, 50, 1006, 32208, Note_on_c, 4, 46, 1006, 32208, Note_on_c, 4, 43, 1006, 32240, Note_off_c, 4, 43, 1006, 32240, Note_off_c, 4, 46, 1006, 32240, Note_off_c, 4, 50, 1006, 32352, Note_on_c, 4, 53, 1006, 32384, Note_off_c, 4, 53, 1006, 32448, Note_on_c, 4, 55, 1006, 32448, Note_on_c, 4, 62, 1006, 32448, Note_on_c, 4, 58, 1006, 32480, Note_off_c, 4, 58, 1006, 32480, Note_off_c, 4, 62, 1006, 32480, Note_off_c, 4, 55, 1006, 32544, Note_on_c, 4, 53, 1006, 32576, Note_off_c, 4, 53, 1006, 32592, Note_on_c, 4, 62, 1006, 32592, Note_on_c, 4, 58, 1006, 32592, Note_on_c, 4, 55, 1006, 32624, Note_off_c, 4, 55, 1006, 32624, Note_off_c, 4, 58, 1006, 32624, Note_off_c, 4, 62, 1006, 32736, Note_on_c, 4, 53, 1006, 32768, Note_off_c, 4, 53, 1006, 32832, Note_on_c, 4, 55, 1006, 32832, Note_on_c, 4, 62, 1006, 32832, Note_on_c, 4, 58, 1006, 32864, Note_off_c, 4, 58, 1006, 32864, Note_off_c, 4, 62, 1006, 32864, Note_off_c, 4, 55, 1006, 32928, Note_on_c, 4, 53, 1006, 32960, Note_off_c, 4, 53, 1006, 32976, Note_on_c, 4, 62, 1006, 32976, Note_on_c, 4, 58, 1006, 32976, Note_on_c, 4, 55, 1006, 33008, Note_off_c, 4, 55, 1006, 33008, Note_off_c, 4, 58, 1006, 33008, Note_off_c, 4, 62, 1006, 33120, Note_on_c, 4, 53, 1006, 33152, Note_off_c, 4, 53, 1006, 33216, Note_on_c, 4, 55, 1006, 33216, Note_on_c, 4, 62, 1006, 33216, Note_on_c, 4, 58, 1006, 33248, Note_off_c, 4, 58, 1006, 33248, Note_off_c, 4, 62, 1006, 33248, Note_off_c, 4, 55, 1006, 33312, Note_on_c, 4, 53, 1006, 33344, Note_off_c, 4, 53, 1006, 33360, Note_on_c, 4, 62, 1006, 33360, Note_on_c, 4, 58, 1006, 33360, Note_on_c, 4, 55, 1006, 33392, Note_off_c, 4, 55, 1006, 33392, Note_off_c, 4, 58, 1006, 33392, Note_off_c, 4, 62, 1006, 33504, Note_on_c, 4, 53, 1006, 33536, Note_off_c, 4, 53, 1006, 33600, Note_on_c, 4, 55, 1006, 33600, Note_on_c, 4, 62, 1006, 33600, Note_on_c, 4, 58, 1006, 33632, Note_off_c, 4, 58, 1006, 33632, Note_off_c, 4, 62, 1006, 33632, Note_off_c, 4, 55, 1006, 33696, Note_on_c, 4, 53, 1006, 33728, Note_off_c, 4, 53, 1006, 33744, Note_on_c, 4, 62, 1006, 33744, Note_on_c, 4, 58, 1006, 33744, Note_on_c, 4, 55, 1006, 33776, Note_off_c, 4, 55, 1006, 33776, Note_off_c, 4, 58, 1006, 33776, Note_off_c, 4, 62, 1006, 33888, Note_on_c, 4, 53, 1006, 33920, Note_off_c, 4, 53, 1006, 33984, Note_on_c, 4, 55, 1006, 33984, Note_on_c, 4, 62, 1006, 33984, Note_on_c, 4, 58, 1006, 34016, Note_off_c, 4, 58, 1006, 34016, Note_off_c, 4, 62, 1006, 34016, Note_off_c, 4, 55, 1006, 34080, Note_on_c, 4, 53, 1006, 34112, Note_off_c, 4, 53, 1006, 34128, Note_on_c, 4, 62, 1006, 34128, Note_on_c, 4, 58, 1006, 34128, Note_on_c, 4, 55, 1006, 34160, Note_off_c, 4, 55, 1006, 34160, Note_off_c, 4, 58, 1006, 34160, Note_off_c, 4, 62, 1006, 34272, Note_on_c, 4, 53, 1006, 34304, Note_off_c, 4, 53, 1006, 34368, Note_on_c, 4, 55, 1006, 34368, Note_on_c, 4, 62, 1006, 34368, Note_on_c, 4, 58, 1006, 34400, Note_off_c, 4, 58, 1006, 34400, Note_off_c, 4, 62, 1006, 34400, Note_off_c, 4, 55, 1006, 34464, Note_on_c, 4, 53, 1006, 34496, Note_off_c, 4, 53, 1006, 34512, Note_on_c, 4, 62, 1006, 34512, Note_on_c, 4, 58, 1006, 34512, Note_on_c, 4, 55, 1006, 34544, Note_off_c, 4, 55, 1006, 34544, Note_off_c, 4, 58, 1006, 34544, Note_off_c, 4, 62, 1006, 34656, Note_on_c, 4, 53, 1006, 34688, Note_off_c, 4, 53, 1006, 34752, Note_on_c, 4, 55, 1006, 34752, Note_on_c, 4, 62, 1006, 34752, Note_on_c, 4, 58, 1006, 34784, Note_off_c, 4, 58, 1006, 34784, Note_off_c, 4, 62, 1006, 34784, Note_off_c, 4, 55, 1006, 34848, Note_on_c, 4, 53, 1006, 34880, Note_off_c, 4, 53, 1006, 34896, Note_on_c, 4, 62, 1006, 34896, Note_on_c, 4, 58, 1006, 34896, Note_on_c, 4, 55, 1006, 34928, Note_off_c, 4, 55, 1006, 34928, Note_off_c, 4, 58, 1006, 34928, Note_off_c, 4, 62, 1006, 35040, Note_on_c, 4, 53, 1006, 35072, Note_off_c, 4, 53, 1006, 35136, Note_on_c, 4, 55, 1006, 35136, Note_on_c, 4, 62, 1006, 35136, Note_on_c, 4, 58, 1006, 35168, Note_off_c, 4, 58, 1006, 35168, Note_off_c, 4, 62, 1006, 35168, Note_off_c, 4, 55, 1006, 35232, Note_on_c, 4, 53, 1006, 35264, Note_off_c, 4, 53, 1006, 35280, Note_on_c, 4, 62, 1006, 35280, Note_on_c, 4, 58, 1006, 35280, Note_on_c, 4, 55, 1006, 35312, Note_off_c, 4, 55, 1006, 35312, Note_off_c, 4, 58, 1006, 35312, Note_off_c, 4, 62, 1006, 35424, Note_on_c, 4, 53, 1006, 35456, Note_off_c, 4, 53, 1006, 35520, Note_on_c, 4, 55, 1006, 35520, Note_on_c, 4, 62, 1006, 35520, Note_on_c, 4, 58, 1006, 35552, Note_off_c, 4, 58, 1006, 35552, Note_off_c, 4, 62, 1006, 35552, Note_off_c, 4, 55, 1006, 35616, Note_on_c, 4, 53, 1006, 35648, Note_off_c, 4, 53, 1006, 35664, Note_on_c, 4, 62, 1006, 35664, Note_on_c, 4, 58, 1006, 35664, Note_on_c, 4, 55, 1006, 35696, Note_off_c, 4, 55, 1006, 35696, Note_off_c, 4, 58, 1006, 35696, Note_off_c, 4, 62, 1006, 35808, Note_on_c, 4, 53, 1006, 35840, Note_off_c, 4, 53, 1006, 35904, Note_on_c, 4, 55, 1006, 35904, Note_on_c, 4, 62, 1006, 35904, Note_on_c, 4, 58, 1006, 35936, Note_off_c, 4, 58, 1006, 35936, Note_off_c, 4, 62, 1006, 35936, Note_off_c, 4, 55, 1006, 36000, Note_on_c, 4, 53, 1006, 36032, Note_off_c, 4, 53, 1006, 36048, Note_on_c, 4, 62, 1006, 36048, Note_on_c, 4, 58, 1006, 36048, Note_on_c, 4, 55, 1006, 36080, Note_off_c, 4, 55, 1006, 36080, Note_off_c, 4, 58, 1006, 36080, Note_off_c, 4, 62, 1006, 36192, Note_on_c, 4, 53, 1006, 36224, Note_off_c, 4, 53, 1006, 36288, Note_on_c, 4, 55, 1006, 36288, Note_on_c, 4, 62, 1006, 36288, Note_on_c, 4, 58, 1006, 36320, Note_off_c, 4, 58, 1006, 36320, Note_off_c, 4, 62, 1006, 36320, Note_off_c, 4, 55, 1006, 36384, Note_on_c, 4, 53, 1006, 36416, Note_off_c, 4, 53, 1006, 36432, Note_on_c, 4, 62, 1006, 36432, Note_on_c, 4, 58, 1006, 36432, Note_on_c, 4, 55, 1006, 36464, Note_off_c, 4, 55, 1006, 36464, Note_off_c, 4, 58, 1006, 36464, Note_off_c, 4, 62, 1006, 36576, Note_on_c, 4, 53, 1006, 36608, Note_off_c, 4, 53, 1006, 36672, Note_on_c, 4, 55, 1006, 36672, Note_on_c, 4, 62, 1006, 36672, Note_on_c, 4, 58, 1006, 36704, Note_off_c, 4, 58, 1006, 36704, Note_off_c, 4, 62, 1006, 36704, Note_off_c, 4, 55, 1006, 36768, Note_on_c, 4, 53, 1006, 36800, Note_off_c, 4, 53, 1006, 36816, Note_on_c, 4, 62, 1006, 36816, Note_on_c, 4, 58, 1006, 36816, Note_on_c, 4, 55, 1006, 36848, Note_off_c, 4, 55, 1006, 36848, Note_off_c, 4, 58, 1006, 36848, Note_off_c, 4, 62, 1006, 36960, Note_on_c, 4, 53, 1006, 36992, Note_off_c, 4, 53, 1006, 37056, Note_on_c, 4, 55, 1006, 37056, Note_on_c, 4, 62, 1006, 37056, Note_on_c, 4, 58, 1006, 37088, Note_off_c, 4, 58, 1006, 37088, Note_off_c, 4, 62, 1006, 37088, Note_off_c, 4, 55, 1006, 37152, Note_on_c, 4, 53, 1006, 37184, Note_off_c, 4, 53, 1006, 37200, Note_on_c, 4, 62, 1006, 37200, Note_on_c, 4, 58, 1006, 37200, Note_on_c, 4, 55, 1006, 37232, Note_off_c, 4, 55, 1006, 37232, Note_off_c, 4, 58, 1006, 37232, Note_off_c, 4, 62, 1006, 37344, Note_on_c, 4, 53, 1006, 37376, Note_off_c, 4, 53, 1006, 37440, Note_on_c, 4, 55, 1006, 37440, Note_on_c, 4, 62, 1006, 37440, Note_on_c, 4, 58, 1006, 37472, Note_off_c, 4, 58, 1006, 37472, Note_off_c, 4, 62, 1006, 37472, Note_off_c, 4, 55, 1006, 37536, Note_on_c, 4, 53, 1006, 37568, Note_off_c, 4, 53, 1006, 37584, Note_on_c, 4, 62, 1006, 37584, Note_on_c, 4, 58, 1006, 37584, Note_on_c, 4, 55, 1006, 37616, Note_off_c, 4, 55, 1006, 37616, Note_off_c, 4, 58, 1006, 37616, Note_off_c, 4, 62, 1006, 37728, Note_on_c, 4, 53, 1006, 37760, Note_off_c, 4, 53, 1006, 37824, Note_on_c, 4, 55, 1006, 37824, Note_on_c, 4, 62, 1006, 37824, Note_on_c, 4, 58, 1006, 37856, Note_off_c, 4, 58, 1006, 37856, Note_off_c, 4, 62, 1006, 37856, Note_off_c, 4, 55, 1006, 37920, Note_on_c, 4, 53, 1006, 37952, Note_off_c, 4, 53, 1006, 37968, Note_on_c, 4, 62, 1006, 37968, Note_on_c, 4, 58, 1006, 37968, Note_on_c, 4, 55, 1006, 38000, Note_off_c, 4, 55, 1006, 38000, Note_off_c, 4, 58, 1006, 38000, Note_off_c, 4, 62, 1006, 38112, Note_on_c, 4, 53, 1006, 38144, Note_off_c, 4, 53, 1006, 38208, Note_on_c, 4, 55, 1006, 38208, Note_on_c, 4, 62, 1006, 38208, Note_on_c, 4, 58, 1006, 38240, Note_off_c, 4, 58, 1006, 38240, Note_off_c, 4, 62, 1006, 38240, Note_off_c, 4, 55, 1006, 38304, Note_on_c, 4, 53, 1006, 38336, Note_off_c, 4, 53, 1006, 38352, Note_on_c, 4, 62, 1006, 38352, Note_on_c, 4, 58, 1006, 38352, Note_on_c, 4, 55, 1006, 38384, Note_off_c, 4, 55, 1006, 38384, Note_off_c, 4, 58, 1006, 38384, Note_off_c, 4, 62, 1006, 38496, Note_on_c, 4, 53, 1006, 38528, Note_off_c, 4, 53, 1006, 38592, Note_on_c, 4, 55, 1006, 38592, Note_on_c, 4, 62, 1006, 38592, Note_on_c, 4, 58, 1006, 38624, Note_off_c, 4, 58, 1006, 38624, Note_off_c, 4, 62, 1006, 38624, Note_off_c, 4, 55, 1006, 38688, Note_on_c, 4, 53, 1006, 38720, Note_off_c, 4, 53, 1006, 38736, Note_on_c, 4, 62, 1006, 38736, Note_on_c, 4, 58, 1006, 38736, Note_on_c, 4, 55, 1006, 38768, Note_off_c, 4, 55, 1006, 38768, Note_off_c, 4, 58, 1006, 38768, Note_off_c, 4, 62, 1006, 38880, Note_on_c, 4, 53, 1006, 38912, Note_off_c, 4, 53, 1006, 38976, Note_on_c, 4, 55, 1006, 38976, Note_on_c, 4, 62, 1006, 38976, Note_on_c, 4, 58, 1006, 39008, Note_off_c, 4, 58, 1006, 39008, Note_off_c, 4, 62, 1006, 39008, Note_off_c, 4, 55, 1006, 39072, Note_on_c, 4, 53, 1006, 39104, Note_off_c, 4, 53, 1006, 39120, Note_on_c, 4, 62, 1006, 39120, Note_on_c, 4, 58, 1006, 39120, Note_on_c, 4, 55, 1006, 39152, Note_off_c, 4, 55, 1006, 39152, Note_off_c, 4, 58, 1006, 39152, Note_off_c, 4, 62, 1006, 39264, Note_on_c, 4, 53, 1006, 39296, Note_off_c, 4, 53, 1006, 39360, Note_on_c, 4, 55, 1006, 39360, Note_on_c, 4, 62, 1006, 39360, Note_on_c, 4, 58, 1006, 39392, Note_off_c, 4, 58, 1006, 39392, Note_off_c, 4, 62, 1006, 39392, Note_off_c, 4, 55, 1006, 39456, Note_on_c, 4, 53, 1006, 39488, Note_off_c, 4, 53, 1006, 39504, Note_on_c, 4, 62, 1006, 39504, Note_on_c, 4, 58, 1006, 39504, Note_on_c, 4, 55, 1006, 39536, Note_off_c, 4, 55, 1006, 39536, Note_off_c, 4, 58, 1006, 39536, Note_off_c, 4, 62, 1006, 39648, Note_on_c, 4, 53, 1006, 39680, Note_off_c, 4, 53, 1006, 39744, Note_on_c, 4, 55, 1006, 39744, Note_on_c, 4, 62, 1006, 39744, Note_on_c, 4, 58, 1006, 39776, Note_off_c, 4, 58, 1006, 39776, Note_off_c, 4, 62, 1006, 39776, Note_off_c, 4, 55, 1006, 39840, Note_on_c, 4, 53, 1006, 39872, Note_off_c, 4, 53, 1006, 39888, Note_on_c, 4, 62, 1006, 39888, Note_on_c, 4, 58, 1006, 39888, Note_on_c, 4, 55, 1006, 39920, Note_off_c, 4, 55, 1006, 39920, Note_off_c, 4, 58, 1006, 39920, Note_off_c, 4, 62, 1006, 40032, Note_on_c, 4, 53, 1006, 40064, Note_off_c, 4, 53, 1006, 40128, Note_on_c, 4, 55, 1006, 40128, Note_on_c, 4, 62, 1006, 40128, Note_on_c, 4, 58, 1006, 40160, Note_off_c, 4, 58, 1006, 40160, Note_off_c, 4, 62, 1006, 40160, Note_off_c, 4, 55, 1006, 40224, Note_on_c, 4, 53, 1006, 40256, Note_off_c, 4, 53, 1006, 40272, Note_on_c, 4, 62, 1006, 40272, Note_on_c, 4, 58, 1006, 40272, Note_on_c, 4, 55, 1006, 40304, Note_off_c, 4, 55, 1006, 40304, Note_off_c, 4, 58, 1006, 40304, Note_off_c, 4, 62, 1006, 40416, Note_on_c, 4, 53, 1006, 40448, Note_off_c, 4, 53, 1006, 40512, Note_on_c, 4, 55, 1006, 40512, Note_on_c, 4, 62, 1006, 40512, Note_on_c, 4, 58, 1006, 40544, Note_off_c, 4, 58, 1006, 40544, Note_off_c, 4, 62, 1006, 40544, Note_off_c, 4, 55, 1006, 40608, Note_on_c, 4, 53, 1006, 40640, Note_off_c, 4, 53, 1006, 40656, Note_on_c, 4, 62, 1006, 40656, Note_on_c, 4, 58, 1006, 40656, Note_on_c, 4, 55, 1006, 40688, Note_off_c, 4, 55, 1006, 40688, Note_off_c, 4, 58, 1006, 40688, Note_off_c, 4, 62, 1006, 40800, Note_on_c, 4, 53, 1006, 40832, Note_off_c, 4, 53, 1006, 40896, Note_on_c, 4, 55, 1006, 40896, Note_on_c, 4, 62, 1006, 40896, Note_on_c, 4, 58, 1006, 40928, Note_off_c, 4, 58, 1006, 40928, Note_off_c, 4, 62, 1006, 40928, Note_off_c, 4, 55, 1006, 40992, Note_on_c, 4, 53, 1006, 41024, Note_off_c, 4, 53, 1006, 41040, Note_on_c, 4, 62, 1006, 41040, Note_on_c, 4, 58, 1006, 41040, Note_on_c, 4, 55, 1006, 41072, Note_off_c, 4, 55, 1006, 41072, Note_off_c, 4, 58, 1006, 41072, Note_off_c, 4, 62, 1006, 41184, Note_on_c, 4, 53, 1006, 41216, Note_off_c, 4, 53, 1006, 41280, Note_on_c, 4, 55, 1006, 41280, Note_on_c, 4, 62, 1006, 41280, Note_on_c, 4, 58, 1006, 41312, Note_off_c, 4, 58, 1006, 41312, Note_off_c, 4, 62, 1006, 41312, Note_off_c, 4, 55, 1006, 41376, Note_on_c, 4, 53, 1006, 41408, Note_off_c, 4, 53, 1006, 41424, Note_on_c, 4, 62, 1006, 41424, Note_on_c, 4, 58, 1006, 41424, Note_on_c, 4, 55, 1006, 41456, Note_off_c, 4, 55, 1006, 41456, Note_off_c, 4, 58, 1006, 41456, Note_off_c, 4, 62, 1006, 41568, Note_on_c, 4, 53, 1006, 41600, Note_off_c, 4, 53, 1006, 41664, Note_on_c, 4, 55, 1006, 41664, Note_on_c, 4, 62, 1006, 41664, Note_on_c, 4, 58, 1006, 41696, Note_off_c, 4, 58, 1006, 41696, Note_off_c, 4, 62, 1006, 41696, Note_off_c, 4, 55, 1006, 41760, Note_on_c, 4, 53, 1006, 41792, Note_off_c, 4, 53, 1006, 41808, Note_on_c, 4, 62, 1006, 41808, Note_on_c, 4, 58, 1006, 41808, Note_on_c, 4, 55, 1006, 41840, Note_off_c, 4, 55, 1006, 41840, Note_off_c, 4, 58, 1006, 41840, Note_off_c, 4, 62, 1006, 41952, Note_on_c, 4, 53, 1006, 41984, Note_off_c, 4, 53, 1006, 42048, Note_on_c, 4, 55, 1006, 42048, Note_on_c, 4, 62, 1006, 42048, Note_on_c, 4, 58, 1006, 42080, Note_off_c, 4, 58, 1006, 42080, Note_off_c, 4, 62, 1006, 42080, Note_off_c, 4, 55, 1006, 42144, Note_on_c, 4, 53, 1006, 42176, Note_off_c, 4, 53, 1006, 42192, Note_on_c, 4, 62, 1006, 42192, Note_on_c, 4, 58, 1006, 42192, Note_on_c, 4, 55, 1006, 42224, Note_off_c, 4, 55, 1006, 42224, Note_off_c, 4, 58, 1006, 42224, Note_off_c, 4, 62, 1006, 42336, Note_on_c, 4, 53, 1006, 42368, Note_off_c, 4, 53, 1006, 42432, Note_on_c, 4, 55, 1006, 42432, Note_on_c, 4, 62, 1006, 42432, Note_on_c, 4, 58, 1006, 42464, Note_off_c, 4, 58, 1006, 42464, Note_off_c, 4, 62, 1006, 42464, Note_off_c, 4, 55, 1006, 42528, Note_on_c, 4, 53, 1006, 42560, Note_off_c, 4, 53, 1006, 42576, Note_on_c, 4, 62, 1006, 42576, Note_on_c, 4, 58, 1006, 42576, Note_on_c, 4, 55, 1006, 42608, Note_off_c, 4, 55, 1006, 42608, Note_off_c, 4, 58, 1006, 42608, Note_off_c, 4, 62, 1006, 42720, Note_on_c, 4, 53, 1006, 42752, Note_off_c, 4, 53, 1006, 42816, Note_on_c, 4, 55, 1006, 42816, Note_on_c, 4, 62, 1006, 42816, Note_on_c, 4, 58, 1006, 42848, Note_off_c, 4, 58, 1006, 42848, Note_off_c, 4, 62, 1006, 42848, Note_off_c, 4, 55, 1006, 42912, Note_on_c, 4, 53, 1006, 42944, Note_off_c, 4, 53, 1006, 42960, Note_on_c, 4, 62, 1006, 42960, Note_on_c, 4, 58, 1006, 42960, Note_on_c, 4, 55, 1006, 42992, Note_off_c, 4, 55, 1006, 42992, Note_off_c, 4, 58, 1006, 42992, Note_off_c, 4, 62, 1006, 43104, Note_on_c, 4, 53, 1006, 43136, Note_off_c, 4, 53, 1006, 43200, Note_on_c, 4, 55, 1006, 43200, Note_on_c, 4, 62, 1006, 43200, Note_on_c, 4, 58, 1006, 43232, Note_off_c, 4, 58, 1006, 43232, Note_off_c, 4, 62, 1006, 43232, Note_off_c, 4, 55, 1006, 43296, Note_on_c, 4, 53, 1006, 43328, Note_off_c, 4, 53, 1006, 43344, Note_on_c, 4, 62, 1006, 43344, Note_on_c, 4, 58, 1006, 43344, Note_on_c, 4, 55, 1006, 43376, Note_off_c, 4, 55, 1006, 43376, Note_off_c, 4, 58, 1006, 43376, Note_off_c, 4, 62, 1006, 43488, Note_on_c, 4, 53, 1006, 43520, Note_off_c, 4, 53, 1006, 43584, Note_on_c, 4, 55, 1006, 43584, Note_on_c, 4, 62, 1006, 43584, Note_on_c, 4, 58, 1006, 43616, Note_off_c, 4, 58, 1006, 43616, Note_off_c, 4, 62, 1006, 43616, Note_off_c, 4, 55, 1006, 43680, Note_on_c, 4, 53, 1006, 43712, Note_off_c, 4, 53, 1006, 43728, Note_on_c, 4, 62, 1006, 43728, Note_on_c, 4, 58, 1006, 43728, Note_on_c, 4, 55, 1006, 43760, Note_off_c, 4, 55, 1006, 43760, Note_off_c, 4, 58, 1006, 43760, Note_off_c, 4, 62, 1006, 43872, Note_on_c, 4, 53, 1006, 43904, Note_off_c, 4, 53, 1006, 43968, Note_on_c, 4, 55, 1006, 43968, Note_on_c, 4, 62, 1006, 43968, Note_on_c, 4, 58, 1006, 44000, Note_off_c, 4, 58, 1006, 44000, Note_off_c, 4, 62, 1006, 44000, Note_off_c, 4, 55, 1006, 44064, Note_on_c, 4, 53, 1006, 44096, Note_off_c, 4, 53, 1006, 44112, Note_on_c, 4, 62, 1006, 44112, Note_on_c, 4, 58, 1006, 44112, Note_on_c, 4, 55, 1006, 44144, Note_off_c, 4, 55, 1006, 44144, Note_off_c, 4, 58, 1006, 44144, Note_off_c, 4, 62, 1006, 44256, Note_on_c, 4, 53, 1006, 44288, Note_off_c, 4, 53, 1006, 44352, Note_on_c, 4, 55, 1006, 44352, Note_on_c, 4, 62, 1006, 44352, Note_on_c, 4, 58, 1006, 44384, Note_off_c, 4, 58, 1006, 44384, Note_off_c, 4, 62, 1006, 44384, Note_off_c, 4, 55, 1006, 44448, Note_on_c, 4, 53, 1006, 44480, Note_off_c, 4, 53, 1006, 44496, Note_on_c, 4, 62, 1006, 44496, Note_on_c, 4, 58, 1006, 44496, Note_on_c, 4, 55, 1006, 44528, Note_off_c, 4, 55, 1006, 44528, Note_off_c, 4, 58, 1006, 44528, Note_off_c, 4, 62, 1006, 44640, Note_on_c, 4, 53, 1006, 44672, Note_off_c, 4, 53, 1006, 44736, Note_on_c, 4, 55, 1006, 44736, Note_on_c, 4, 62, 1006, 44736, Note_on_c, 4, 58, 1006, 44768, Note_off_c, 4, 58, 1006, 44768, Note_off_c, 4, 62, 1006, 44768, Note_off_c, 4, 55, 1006, 44832, Note_on_c, 4, 53, 1006, 44864, Note_off_c, 4, 53, 1006, 44880, Note_on_c, 4, 62, 1006, 44880, Note_on_c, 4, 58, 1006, 44880, Note_on_c, 4, 55, 1006, 44912, Note_off_c, 4, 55, 1006, 44912, Note_off_c, 4, 58, 1006, 44912, Note_off_c, 4, 62, 1006, 45024, Note_on_c, 4, 53, 1006, 45056, Note_off_c, 4, 53, 1006, 45120, Note_on_c, 4, 55, 1006, 45120, Note_on_c, 4, 62, 1006, 45120, Note_on_c, 4, 58, 1006, 45152, Note_off_c, 4, 58, 1006, 45152, Note_off_c, 4, 62, 1006, 45152, Note_off_c, 4, 55, 1006, 45216, Note_on_c, 4, 53, 1006, 45248, Note_off_c, 4, 53, 1006, 45264, Note_on_c, 4, 62, 1006, 45264, Note_on_c, 4, 58, 1006, 45264, Note_on_c, 4, 55, 1006, 45296, Note_off_c, 4, 55, 1006, 45296, Note_off_c, 4, 58, 1006, 45296, Note_off_c, 4, 62, 1006, 45408, Note_on_c, 4, 53, 1006, 45440, Note_off_c, 4, 53, 1006, 45504, Note_on_c, 4, 55, 1006, 45504, Note_on_c, 4, 62, 1006, 45504, Note_on_c, 4, 58, 1006, 45536, Note_off_c, 4, 58, 1006, 45536, Note_off_c, 4, 62, 1006, 45536, Note_off_c, 4, 55, 1006, 45600, Note_on_c, 4, 53, 1006, 45632, Note_off_c, 4, 53, 1006, 45648, Note_on_c, 4, 62, 1006, 45648, Note_on_c, 4, 58, 1006, 45648, Note_on_c, 4, 55, 1006, 45680, Note_off_c, 4, 55, 1006, 45680, Note_off_c, 4, 58, 1006, 45680, Note_off_c, 4, 62, 1006, 45792, Note_on_c, 4, 53, 1006, 45824, Note_off_c, 4, 53, 1006, 45888, Note_on_c, 4, 55, 1006, 45888, Note_on_c, 4, 62, 1006, 45888, Note_on_c, 4, 58, 1006, 45920, Note_off_c, 4, 58, 1006, 45920, Note_off_c, 4, 62, 1006, 45920, Note_off_c, 4, 55, 1006, 45984, Note_on_c, 4, 53, 1006, 46016, Note_off_c, 4, 53, 1006, 46032, Note_on_c, 4, 62, 1006, 46032, Note_on_c, 4, 58, 1006, 46032, Note_on_c, 4, 55, 1006, 46064, Note_off_c, 4, 55, 1006, 46064, Note_off_c, 4, 58, 1006, 46064, Note_off_c, 4, 62, 1006, 46176, Note_on_c, 4, 53, 1006, 46208, Note_off_c, 4, 53, 1006, 46272, Note_on_c, 4, 55, 1006, 46272, Note_on_c, 4, 62, 1006, 46272, Note_on_c, 4, 58, 1006, 46304, Note_off_c, 4, 58, 1006, 46304, Note_off_c, 4, 62, 1006, 46304, Note_off_c, 4, 55, 1006, 46368, Note_on_c, 4, 53, 1006, 46400, Note_off_c, 4, 53, 1006, 46416, Note_on_c, 4, 62, 1006, 46416, Note_on_c, 4, 58, 1006, 46416, Note_on_c, 4, 55, 1006, 46448, Note_off_c, 4, 55, 1006, 46448, Note_off_c, 4, 58, 1006, 46448, Note_off_c, 4, 62, 1006, 46560, Note_on_c, 4, 53, 1006, 46592, Note_off_c, 4, 53, 1006, 46656, Note_on_c, 4, 55, 1006, 46656, Note_on_c, 4, 62, 1006, 46656, Note_on_c, 4, 58, 1006, 46688, Note_off_c, 4, 58, 1006, 46688, Note_off_c, 4, 62, 1006, 46688, Note_off_c, 4, 55, 1006, 46752, Note_on_c, 4, 53, 1006, 46784, Note_off_c, 4, 53, 1006, 46800, Note_on_c, 4, 62, 1006, 46800, Note_on_c, 4, 58, 1006, 46800, Note_on_c, 4, 55, 1006, 46832, Note_off_c, 4, 55, 1006, 46832, Note_off_c, 4, 58, 1006, 46832, Note_off_c, 4, 62, 1006, 46944, Note_on_c, 4, 53, 1006, 46976, Note_off_c, 4, 53, 1006, 47040, Note_on_c, 4, 55, 1006, 47040, Note_on_c, 4, 62, 1006, 47040, Note_on_c, 4, 58, 1006, 47072, Note_off_c, 4, 58, 1006, 47072, Note_off_c, 4, 62, 1006, 47072, Note_off_c, 4, 55, 1006, 47136, Note_on_c, 4, 53, 1006, 47168, Note_off_c, 4, 53, 1006, 47184, Note_on_c, 4, 62, 1006, 47184, Note_on_c, 4, 58, 1006, 47184, Note_on_c, 4, 55, 1006, 47216, Note_off_c, 4, 55, 1006, 47216, Note_off_c, 4, 58, 1006, 47216, Note_off_c, 4, 62, 1006, 47328, Note_on_c, 4, 53, 1006, 47360, Note_off_c, 4, 53, 1006, 47424, Note_on_c, 4, 55, 1006, 47424, Note_on_c, 4, 62, 1006, 47424, Note_on_c, 4, 58, 1006, 47456, Note_off_c, 4, 58, 1006, 47456, Note_off_c, 4, 62, 1006, 47456, Note_off_c, 4, 55, 1006, 47520, Note_on_c, 4, 53, 1006, 47552, Note_off_c, 4, 53, 1006, 47568, Note_on_c, 4, 62, 1006, 47568, Note_on_c, 4, 58, 1006, 47568, Note_on_c, 4, 55, 1006, 47600, Note_off_c, 4, 55, 1006, 47600, Note_off_c, 4, 58, 1006, 47600, Note_off_c, 4, 62, 1006, 47712, Note_on_c, 4, 53, 1006, 47744, Note_off_c, 4, 53, 1006, 47808, Note_on_c, 4, 55, 1006, 47808, Note_on_c, 4, 62, 1006, 47808, Note_on_c, 4, 58, 1006, 47840, Note_off_c, 4, 58, 1006, 47840, Note_off_c, 4, 62, 1006, 47840, Note_off_c, 4, 55, 1006, 47904, Note_on_c, 4, 53, 1006, 47936, Note_off_c, 4, 53, 1006, 47952, Note_on_c, 4, 62, 1006, 47952, Note_on_c, 4, 58, 1006, 47952, Note_on_c, 4, 55, 1006, 47984, Note_off_c, 4, 55, 1006, 47984, Note_off_c, 4, 58, 1006, 47984, Note_off_c, 4, 62, 1006, 48096, Note_on_c, 4, 53, 1006, 48128, Note_off_c, 4, 53, 1006, 48192, Note_on_c, 4, 55, 1006, 48192, Note_on_c, 4, 62, 1006, 48192, Note_on_c, 4, 58, 1006, 48224, Note_off_c, 4, 58, 1006, 48224, Note_off_c, 4, 62, 1006, 48224, Note_off_c, 4, 55, 1006, 48288, Note_on_c, 4, 53, 1006, 48320, Note_off_c, 4, 53, 1006, 48336, Note_on_c, 4, 62, 1006, 48336, Note_on_c, 4, 58, 1006, 48336, Note_on_c, 4, 55, 1006, 48368, Note_off_c, 4, 55, 1006, 48368, Note_off_c, 4, 58, 1006, 48368, Note_off_c, 4, 62, 1006, 48480, Note_on_c, 4, 53, 1006, 48512, Note_off_c, 4, 53, 1006, 48672, Note_on_c, 4, 53, 1006, 48704, Note_off_c, 4, 53, 1006, 48864, Note_on_c, 4, 53, 1006, 48896, Note_off_c, 4, 53, 1006, 49056, Note_on_c, 4, 53, 1006, 49088, Note_off_c, 4, 53, 1006, 49248, Note_on_c, 4, 41, 1006, 49280, Note_off_c, 4, 41, 1006, 49344, Note_on_c, 4, 43, 1006, 49344, Note_on_c, 4, 50, 1006, 49344, Note_on_c, 4, 46, 1006, 49376, Note_off_c, 4, 46, 1006, 49376, Note_off_c, 4, 50, 1006, 49376, Note_off_c, 4, 43, 1006, 49440, Note_on_c, 4, 41, 1006, 49472, Note_off_c, 4, 41, 1006, 49488, Note_on_c, 4, 50, 1006, 49488, Note_on_c, 4, 46, 1006, 49488, Note_on_c, 4, 43, 1006, 49520, Note_off_c, 4, 43, 1006, 49520, Note_off_c, 4, 46, 1006, 49520, Note_off_c, 4, 50, 1006, 49632, Note_on_c, 4, 41, 1006, 49664, Note_off_c, 4, 41, 1006, 49728, Note_on_c, 4, 43, 1006, 49728, Note_on_c, 4, 50, 1006, 49728, Note_on_c, 4, 46, 1006, 49760, Note_off_c, 4, 46, 1006, 49760, Note_off_c, 4, 50, 1006, 49760, Note_off_c, 4, 43, 1006, 49824, Note_on_c, 4, 41, 1006, 49856, Note_off_c, 4, 41, 1006, 49872, Note_on_c, 4, 50, 1006, 49872, Note_on_c, 4, 46, 1006, 49872, Note_on_c, 4, 43, 1006, 49904, Note_off_c, 4, 43, 1006, 49904, Note_off_c, 4, 46, 1006, 49904, Note_off_c, 4, 50, 1006, 50016, Note_on_c, 4, 41, 1006, 50048, Note_off_c, 4, 41, 1006, 50112, Note_on_c, 4, 43, 1006, 50112, Note_on_c, 4, 50, 1006, 50112, Note_on_c, 4, 46, 1006, 50144, Note_off_c, 4, 46, 1006, 50144, Note_off_c, 4, 50, 1006, 50144, Note_off_c, 4, 43, 1006, 50208, Note_on_c, 4, 41, 1006, 50240, Note_off_c, 4, 41, 1006, 50256, Note_on_c, 4, 50, 1006, 50256, Note_on_c, 4, 46, 1006, 50256, Note_on_c, 4, 43, 1006, 50288, Note_off_c, 4, 43, 1006, 50288, Note_off_c, 4, 46, 1006, 50288, Note_off_c, 4, 50, 1006, 50400, Note_on_c, 4, 41, 1006, 50432, Note_off_c, 4, 41, 1006, 50496, Note_on_c, 4, 43, 1006, 50496, Note_on_c, 4, 50, 1006, 50496, Note_on_c, 4, 46, 1006, 50528, Note_off_c, 4, 46, 1006, 50528, Note_off_c, 4, 50, 1006, 50528, Note_off_c, 4, 43, 1006, 50592, Note_on_c, 4, 41, 1006, 50624, Note_off_c, 4, 41, 1006, 50640, Note_on_c, 4, 50, 1006, 50640, Note_on_c, 4, 46, 1006, 50640, Note_on_c, 4, 43, 1006, 50672, Note_off_c, 4, 43, 1006, 50672, Note_off_c, 4, 46, 1006, 50672, Note_off_c, 4, 50, 1006, 50784, Note_on_c, 4, 53, 1006, 50816, Note_off_c, 4, 53, 1006, 50880, Note_on_c, 4, 55, 1006, 50880, Note_on_c, 4, 62, 1006, 50880, Note_on_c, 4, 58, 1006, 50912, Note_off_c, 4, 58, 1006, 50912, Note_off_c, 4, 62, 1006, 50912, Note_off_c, 4, 55, 1006, 50976, Note_on_c, 4, 53, 1006, 51008, Note_off_c, 4, 53, 1006, 51024, Note_on_c, 4, 62, 1006, 51024, Note_on_c, 4, 58, 1006, 51024, Note_on_c, 4, 55, 1006, 51056, Note_off_c, 4, 55, 1006, 51056, Note_off_c, 4, 58, 1006, 51056, Note_off_c, 4, 62, 1006, 51168, Note_on_c, 4, 53, 1006, 51200, Note_off_c, 4, 53, 1006, 51264, Note_on_c, 4, 55, 1006, 51264, Note_on_c, 4, 62, 1006, 51264, Note_on_c, 4, 58, 1006, 51296, Note_off_c, 4, 58, 1006, 51296, Note_off_c, 4, 62, 1006, 51296, Note_off_c, 4, 55, 1006, 51360, Note_on_c, 4, 53, 1006, 51392, Note_off_c, 4, 53, 1006, 51408, Note_on_c, 4, 62, 1006, 51408, Note_on_c, 4, 58, 1006, 51408, Note_on_c, 4, 55, 1006, 51440, Note_off_c, 4, 55, 1006, 51440, Note_off_c, 4, 58, 1006, 51440, Note_off_c, 4, 62, 1006, 51552, Note_on_c, 4, 53, 1006, 51584, Note_off_c, 4, 53, 1006, 51648, Note_on_c, 4, 55, 1006, 51648, Note_on_c, 4, 62, 1006, 51648, Note_on_c, 4, 58, 1006, 51680, Note_off_c, 4, 58, 1006, 51680, Note_off_c, 4, 62, 1006, 51680, Note_off_c, 4, 55, 1006, 51744, Note_on_c, 4, 53, 1006, 51776, Note_off_c, 4, 53, 1006, 51792, Note_on_c, 4, 62, 1006, 51792, Note_on_c, 4, 58, 1006, 51792, Note_on_c, 4, 55, 1006, 51824, Note_off_c, 4, 55, 1006, 51824, Note_off_c, 4, 58, 1006, 51824, Note_off_c, 4, 62, 1006, 51936, Note_on_c, 4, 53, 1006, 51968, Note_off_c, 4, 53, 1006, 52032, Note_on_c, 4, 55, 1006, 52032, Note_on_c, 4, 62, 1006, 52032, Note_on_c, 4, 58, 1006, 52064, Note_off_c, 4, 58, 1006, 52064, Note_off_c, 4, 62, 1006, 52064, Note_off_c, 4, 55, 1006, 52128, Note_on_c, 4, 53, 1006, 52160, Note_off_c, 4, 53, 1006, 52176, Note_on_c, 4, 62, 1006, 52176, Note_on_c, 4, 58, 1006, 52176, Note_on_c, 4, 55, 1006, 52208, Note_off_c, 4, 55, 1006, 52208, Note_off_c, 4, 58, 1006, 52208, Note_off_c, 4, 62, 1006, 52320, Note_on_c, 4, 53, 1006, 52352, Note_off_c, 4, 53, 1006, 52416, Note_on_c, 4, 55, 1006, 52416, Note_on_c, 4, 62, 1006, 52416, Note_on_c, 4, 58, 1006, 52448, Note_off_c, 4, 58, 1006, 52448, Note_off_c, 4, 62, 1006, 52448, Note_off_c, 4, 55, 1006, 52512, Note_on_c, 4, 53, 1006, 52544, Note_off_c, 4, 53, 1006, 52560, Note_on_c, 4, 62, 1006, 52560, Note_on_c, 4, 58, 1006, 52560, Note_on_c, 4, 55, 1006, 52592, Note_off_c, 4, 55, 1006, 52592, Note_off_c, 4, 58, 1006, 52592, Note_off_c, 4, 62, 1006, 52704, Note_on_c, 4, 53, 1006, 52736, Note_off_c, 4, 53, 1006, 52800, Note_on_c, 4, 55, 1006, 52800, Note_on_c, 4, 62, 1006, 52800, Note_on_c, 4, 58, 1006, 52832, Note_off_c, 4, 58, 1006, 52832, Note_off_c, 4, 62, 1006, 52832, Note_off_c, 4, 55, 1006, 52896, Note_on_c, 4, 53, 1006, 52928, Note_off_c, 4, 53, 1006, 52944, Note_on_c, 4, 62, 1006, 52944, Note_on_c, 4, 58, 1006, 52944, Note_on_c, 4, 55, 1006, 52976, Note_off_c, 4, 55, 1006, 52976, Note_off_c, 4, 58, 1006, 52976, Note_off_c, 4, 62, 1006, 53088, Note_on_c, 4, 53, 1006, 53120, Note_off_c, 4, 53, 1006, 53184, Note_on_c, 4, 55, 1006, 53184, Note_on_c, 4, 62, 1006, 53184, Note_on_c, 4, 58, 1006, 53216, Note_off_c, 4, 58, 1006, 53216, Note_off_c, 4, 62, 1006, 53216, Note_off_c, 4, 55, 1006, 53280, Note_on_c, 4, 53, 1006, 53312, Note_off_c, 4, 53, 1006, 53328, Note_on_c, 4, 62, 1006, 53328, Note_on_c, 4, 58, 1006, 53328, Note_on_c, 4, 55, 1006, 53360, Note_off_c, 4, 55, 1006, 53360, Note_off_c, 4, 58, 1006, 53360, Note_off_c, 4, 62, 1006, 53472, Note_on_c, 4, 53, 1006, 53504, Note_off_c, 4, 53, 1006, 53568, Note_on_c, 4, 55, 1006, 53568, Note_on_c, 4, 62, 1006, 53568, Note_on_c, 4, 58, 1006, 53600, Note_off_c, 4, 58, 1006, 53600, Note_off_c, 4, 62, 1006, 53600, Note_off_c, 4, 55, 1006, 53664, Note_on_c, 4, 53, 1006, 53696, Note_off_c, 4, 53, 1006, 53712, Note_on_c, 4, 62, 1006, 53712, Note_on_c, 4, 58, 1006, 53712, Note_on_c, 4, 55, 1006, 53744, Note_off_c, 4, 55, 1006, 53744, Note_off_c, 4, 58, 1006, 53744, Note_off_c, 4, 62, 1006, 53856, Note_on_c, 4, 53, 1006, 53888, Note_off_c, 4, 53, 1006, 53952, Note_on_c, 4, 55, 1006, 53952, Note_on_c, 4, 62, 1006, 53952, Note_on_c, 4, 58, 1006, 53984, Note_off_c, 4, 58, 1006, 53984, Note_off_c, 4, 62, 1006, 53984, Note_off_c, 4, 55, 1006, 54048, Note_on_c, 4, 53, 1006, 54080, Note_off_c, 4, 53, 1006, 54096, Note_on_c, 4, 62, 1006, 54096, Note_on_c, 4, 58, 1006, 54096, Note_on_c, 4, 55, 1006, 54128, Note_off_c, 4, 55, 1006, 54128, Note_off_c, 4, 58, 1006, 54128, Note_off_c, 4, 62, 1006, 54240, Note_on_c, 4, 53, 1006, 54272, Note_off_c, 4, 53, 1006, 54336, Note_on_c, 4, 55, 1006, 54336, Note_on_c, 4, 62, 1006, 54336, Note_on_c, 4, 58, 1006, 54368, Note_off_c, 4, 58, 1006, 54368, Note_off_c, 4, 62, 1006, 54368, Note_off_c, 4, 55, 1006, 54432, Note_on_c, 4, 53, 1006, 54464, Note_off_c, 4, 53, 1006, 54480, Note_on_c, 4, 62, 1006, 54480, Note_on_c, 4, 58, 1006, 54480, Note_on_c, 4, 55, 1006, 54512, Note_off_c, 4, 55, 1006, 54512, Note_off_c, 4, 58, 1006, 54512, Note_off_c, 4, 62, 1006, 54624, Note_on_c, 4, 53, 1006, 54656, Note_off_c, 4, 53, 1006, 54720, Note_on_c, 4, 55, 1006, 54720, Note_on_c, 4, 62, 1006, 54720, Note_on_c, 4, 58, 1006, 54752, Note_off_c, 4, 58, 1006, 54752, Note_off_c, 4, 62, 1006, 54752, Note_off_c, 4, 55, 1006, 54816, Note_on_c, 4, 53, 1006, 54848, Note_off_c, 4, 53, 1006, 54864, Note_on_c, 4, 62, 1006, 54864, Note_on_c, 4, 58, 1006, 54864, Note_on_c, 4, 55, 1006, 54896, Note_off_c, 4, 55, 1006, 54896, Note_off_c, 4, 58, 1006, 54896, Note_off_c, 4, 62, 1006, 55008, Note_on_c, 4, 53, 1006, 55040, Note_off_c, 4, 53, 1006, 55104, Note_on_c, 4, 55, 1006, 55104, Note_on_c, 4, 62, 1006, 55104, Note_on_c, 4, 58, 1006, 55136, Note_off_c, 4, 58, 1006, 55136, Note_off_c, 4, 62, 1006, 55136, Note_off_c, 4, 55, 1006, 55200, Note_on_c, 4, 53, 1006, 55232, Note_off_c, 4, 53, 1006, 55248, Note_on_c, 4, 62, 1006, 55248, Note_on_c, 4, 58, 1006, 55248, Note_on_c, 4, 55, 1006, 55280, Note_off_c, 4, 55, 1006, 55280, Note_off_c, 4, 58, 1006, 55280, Note_off_c, 4, 62, 1006, 55392, Note_on_c, 4, 53, 1006, 55424, Note_off_c, 4, 53, 1006, 55488, Note_on_c, 4, 55, 1006, 55488, Note_on_c, 4, 62, 1006, 55488, Note_on_c, 4, 58, 1006, 55520, Note_off_c, 4, 58, 1006, 55520, Note_off_c, 4, 62, 1006, 55520, Note_off_c, 4, 55, 1006, 55584, Note_on_c, 4, 53, 1006, 55616, Note_off_c, 4, 53, 1006, 55632, Note_on_c, 4, 62, 1006, 55632, Note_on_c, 4, 58, 1006, 55632, Note_on_c, 4, 55, 1006, 55664, Note_off_c, 4, 55, 1006, 55664, Note_off_c, 4, 58, 1006, 55664, Note_off_c, 4, 62, 1006, 55776, Note_on_c, 4, 53, 1006, 55808, Note_off_c, 4, 53, 1006, 55872, Note_on_c, 4, 55, 1006, 55872, Note_on_c, 4, 62, 1006, 55872, Note_on_c, 4, 58, 1006, 55904, Note_off_c, 4, 58, 1006, 55904, Note_off_c, 4, 62, 1006, 55904, Note_off_c, 4, 55, 1006, 55968, Note_on_c, 4, 53, 1006, 56000, Note_off_c, 4, 53, 1006, 56016, Note_on_c, 4, 62, 1006, 56016, Note_on_c, 4, 58, 1006, 56016, Note_on_c, 4, 55, 1006, 56048, Note_off_c, 4, 55, 1006, 56048, Note_off_c, 4, 58, 1006, 56048, Note_off_c, 4, 62, 1006, 56160, Note_on_c, 4, 53, 1006, 56192, Note_off_c, 4, 53, 1006, 56256, Note_on_c, 4, 55, 1006, 56256, Note_on_c, 4, 62, 1006, 56256, Note_on_c, 4, 58, 1006, 56288, Note_off_c, 4, 58, 1006, 56288, Note_off_c, 4, 62, 1006, 56288, Note_off_c, 4, 55, 1006, 56352, Note_on_c, 4, 53, 1006, 56384, Note_off_c, 4, 53, 1006, 56400, Note_on_c, 4, 62, 1006, 56400, Note_on_c, 4, 58, 1006, 56400, Note_on_c, 4, 55, 1006, 56432, Note_off_c, 4, 55, 1006, 56432, Note_off_c, 4, 58, 1006, 56432, Note_off_c, 4, 62, 1006, 56544, Note_on_c, 4, 53, 1006, 56576, Note_off_c, 4, 53, 1006, 56640, Note_on_c, 4, 55, 1006, 56640, Note_on_c, 4, 62, 1006, 56640, Note_on_c, 4, 58, 1006, 56672, Note_off_c, 4, 58, 1006, 56672, Note_off_c, 4, 62, 1006, 56672, Note_off_c, 4, 55, 1006, 56736, Note_on_c, 4, 53, 1006, 56768, Note_off_c, 4, 53, 1006, 56784, Note_on_c, 4, 62, 1006, 56784, Note_on_c, 4, 58, 1006, 56784, Note_on_c, 4, 55, 1006, 56816, Note_off_c, 4, 55, 1006, 56816, Note_off_c, 4, 58, 1006, 56816, Note_off_c, 4, 62, 1006, 56928, Note_on_c, 4, 53, 1006, 56960, Note_off_c, 4, 53, 1006, 57024, Note_on_c, 4, 55, 1006, 57024, Note_on_c, 4, 62, 1006, 57024, Note_on_c, 4, 58, 1006, 57056, Note_off_c, 4, 58, 1006, 57056, Note_off_c, 4, 62, 1006, 57056, Note_off_c, 4, 55, 1006, 57120, Note_on_c, 4, 53, 1006, 57152, Note_off_c, 4, 53, 1006, 57168, Note_on_c, 4, 62, 1006, 57168, Note_on_c, 4, 58, 1006, 57168, Note_on_c, 4, 55, 1006, 57200, Note_off_c, 4, 55, 1006, 57200, Note_off_c, 4, 58, 1006, 57200, Note_off_c, 4, 62, 1006, 57312, Note_on_c, 4, 53, 1006, 57344, Note_off_c, 4, 53, 1006, 57408, Note_on_c, 4, 55, 1006, 57408, Note_on_c, 4, 62, 1006, 57408, Note_on_c, 4, 58, 1006, 57440, Note_off_c, 4, 58, 1006, 57440, Note_off_c, 4, 62, 1006, 57440, Note_off_c, 4, 55, 1006, 57504, Note_on_c, 4, 53, 1006, 57536, Note_off_c, 4, 53, 1006, 57552, Note_on_c, 4, 62, 1006, 57552, Note_on_c, 4, 58, 1006, 57552, Note_on_c, 4, 55, 1006, 57584, Note_off_c, 4, 55, 1006, 57584, Note_off_c, 4, 58, 1006, 57584, Note_off_c, 4, 62, 1006, 57696, Note_on_c, 4, 53, 1006, 57728, Note_off_c, 4, 53, 1006, 57792, Note_on_c, 4, 55, 1006, 57792, Note_on_c, 4, 62, 1006, 57792, Note_on_c, 4, 58, 1006, 57824, Note_off_c, 4, 58, 1006, 57824, Note_off_c, 4, 62, 1006, 57824, Note_off_c, 4, 55, 1006, 57888, Note_on_c, 4, 53, 1006, 57920, Note_off_c, 4, 53, 1006, 57936, Note_on_c, 4, 62, 1006, 57936, Note_on_c, 4, 58, 1006, 57936, Note_on_c, 4, 55, 1006, 57968, Note_off_c, 4, 55, 1006, 57968, Note_off_c, 4, 58, 1006, 57968, Note_off_c, 4, 62, 1006, 58080, Note_on_c, 4, 53, 1006, 58112, Note_off_c, 4, 53, 1006, 58176, Note_on_c, 4, 55, 1006, 58176, Note_on_c, 4, 62, 1006, 58176, Note_on_c, 4, 58, 1006, 58208, Note_off_c, 4, 58, 1006, 58208, Note_off_c, 4, 62, 1006, 58208, Note_off_c, 4, 55, 1006, 58272, Note_on_c, 4, 53, 1006, 58304, Note_off_c, 4, 53, 1006, 58320, Note_on_c, 4, 62, 1006, 58320, Note_on_c, 4, 58, 1006, 58320, Note_on_c, 4, 55, 1006, 58352, Note_off_c, 4, 55, 1006, 58352, Note_off_c, 4, 58, 1006, 58352, Note_off_c, 4, 62, 1006, 58464, Note_on_c, 4, 53, 1006, 58496, Note_off_c, 4, 53, 1006, 58560, Note_on_c, 4, 55, 1006, 58560, Note_on_c, 4, 62, 1006, 58560, Note_on_c, 4, 58, 1006, 58592, Note_off_c, 4, 58, 1006, 58592, Note_off_c, 4, 62, 1006, 58592, Note_off_c, 4, 55, 1006, 58656, Note_on_c, 4, 53, 1006, 58688, Note_off_c, 4, 53, 1006, 58704, Note_on_c, 4, 62, 1006, 58704, Note_on_c, 4, 58, 1006, 58704, Note_on_c, 4, 55, 1006, 58736, Note_off_c, 4, 55, 1006, 58736, Note_off_c, 4, 58, 1006, 58736, Note_off_c, 4, 62, 1006, 58848, Note_on_c, 4, 53, 1006, 58880, Note_off_c, 4, 53, 1006, 58944, Note_on_c, 4, 55, 1006, 58944, Note_on_c, 4, 62, 1006, 58944, Note_on_c, 4, 58, 1006, 58976, Note_off_c, 4, 58, 1006, 58976, Note_off_c, 4, 62, 1006, 58976, Note_off_c, 4, 55, 1006, 59040, Note_on_c, 4, 53, 1006, 59072, Note_off_c, 4, 53, 1006, 59088, Note_on_c, 4, 62, 1006, 59088, Note_on_c, 4, 58, 1006, 59088, Note_on_c, 4, 55, 1006, 59120, Note_off_c, 4, 55, 1006, 59120, Note_off_c, 4, 58, 1006, 59120, Note_off_c, 4, 62, 1006, 59232, Note_on_c, 4, 53, 1006, 59264, Note_off_c, 4, 53, 1006, 59328, Note_on_c, 4, 55, 1006, 59328, Note_on_c, 4, 62, 1006, 59328, Note_on_c, 4, 58, 1006, 59360, Note_off_c, 4, 58, 1006, 59360, Note_off_c, 4, 62, 1006, 59360, Note_off_c, 4, 55, 1006, 59424, Note_on_c, 4, 53, 1006, 59456, Note_off_c, 4, 53, 1006, 59472, Note_on_c, 4, 62, 1006, 59472, Note_on_c, 4, 58, 1006, 59472, Note_on_c, 4, 55, 1006, 59504, Note_off_c, 4, 55, 1006, 59504, Note_off_c, 4, 58, 1006, 59504, Note_off_c, 4, 62, 1006, 59616, Note_on_c, 4, 53, 1006, 59648, Note_off_c, 4, 53, 1006, 59712, Note_on_c, 4, 55, 1006, 59712, Note_on_c, 4, 62, 1006, 59712, Note_on_c, 4, 58, 1006, 59744, Note_off_c, 4, 58, 1006, 59744, Note_off_c, 4, 62, 1006, 59744, Note_off_c, 4, 55, 1006, 59808, Note_on_c, 4, 53, 1006, 59840, Note_off_c, 4, 53, 1006, 59856, Note_on_c, 4, 62, 1006, 59856, Note_on_c, 4, 58, 1006, 59856, Note_on_c, 4, 55, 1006, 59888, Note_off_c, 4, 55, 1006, 59888, Note_off_c, 4, 58, 1006, 59888, Note_off_c, 4, 62, 1006, 60000, Note_on_c, 4, 53, 1006, 60032, Note_off_c, 4, 53, 1006, 60096, Note_on_c, 4, 55, 1006, 60096, Note_on_c, 4, 62, 1006, 60096, Note_on_c, 4, 58, 1006, 60128, Note_off_c, 4, 58, 1006, 60128, Note_off_c, 4, 62, 1006, 60128, Note_off_c, 4, 55, 1006, 60192, Note_on_c, 4, 53, 1006, 60224, Note_off_c, 4, 53, 1006, 60240, Note_on_c, 4, 62, 1006, 60240, Note_on_c, 4, 58, 1006, 60240, Note_on_c, 4, 55, 1006, 60272, Note_off_c, 4, 55, 1006, 60272, Note_off_c, 4, 58, 1006, 60272, Note_off_c, 4, 62, 1006, 60384, Note_on_c, 4, 53, 1006, 60416, Note_off_c, 4, 53, 1006, 60480, Note_on_c, 4, 55, 1006, 60480, Note_on_c, 4, 62, 1006, 60480, Note_on_c, 4, 58, 1006, 60512, Note_off_c, 4, 58, 1006, 60512, Note_off_c, 4, 62, 1006, 60512, Note_off_c, 4, 55, 1006, 60576, Note_on_c, 4, 53, 1006, 60608, Note_off_c, 4, 53, 1006, 60624, Note_on_c, 4, 62, 1006, 60624, Note_on_c, 4, 58, 1006, 60624, Note_on_c, 4, 55, 1006, 60656, Note_off_c, 4, 55, 1006, 60656, Note_off_c, 4, 58, 1006, 60656, Note_off_c, 4, 62, 1006, 60768, Note_on_c, 4, 53, 1006, 60800, Note_off_c, 4, 53, 1006, 60864, Note_on_c, 4, 55, 1006, 60864, Note_on_c, 4, 62, 1006, 60864, Note_on_c, 4, 58, 1006, 60896, Note_off_c, 4, 58, 1006, 60896, Note_off_c, 4, 62, 1006, 60896, Note_off_c, 4, 55, 1006, 60960, Note_on_c, 4, 53, 1006, 60992, Note_off_c, 4, 53, 1006, 61008, Note_on_c, 4, 62, 1006, 61008, Note_on_c, 4, 58, 1006, 61008, Note_on_c, 4, 55, 1006, 61040, Note_off_c, 4, 55, 1006, 61040, Note_off_c, 4, 58, 1006, 61040, Note_off_c, 4, 62, 1006, 61152, Note_on_c, 4, 53, 1006, 61184, Note_off_c, 4, 53, 1006, 61248, Note_on_c, 4, 55, 1006, 61248, Note_on_c, 4, 62, 1006, 61248, Note_on_c, 4, 58, 1006, 61280, Note_off_c, 4, 58, 1006, 61280, Note_off_c, 4, 62, 1006, 61280, Note_off_c, 4, 55, 1006, 61344, Note_on_c, 4, 53, 1006, 61376, Note_off_c, 4, 53, 1006, 61392, Note_on_c, 4, 62, 1006, 61392, Note_on_c, 4, 58, 1006, 61392, Note_on_c, 4, 55, 1006, 61424, Note_off_c, 4, 55, 1006, 61424, Note_off_c, 4, 58, 1006, 61424, Note_off_c, 4, 62, 1006, 61536, Note_on_c, 4, 53, 1006, 61568, Note_off_c, 4, 53, 1006, 61632, Note_on_c, 4, 55, 1006, 61632, Note_on_c, 4, 62, 1006, 61632, Note_on_c, 4, 58, 1006, 61664, Note_off_c, 4, 58, 1006, 61664, Note_off_c, 4, 62, 1006, 61664, Note_off_c, 4, 55, 1006, 61728, Note_on_c, 4, 53, 1006, 61760, Note_off_c, 4, 53, 1006, 61776, Note_on_c, 4, 62, 1006, 61776, Note_on_c, 4, 58, 1006, 61776, Note_on_c, 4, 55, 1006, 61808, Note_off_c, 4, 55, 1006, 61808, Note_off_c, 4, 58, 1006, 61808, Note_off_c, 4, 62, 1006, 61920, Note_on_c, 4, 53, 1006, 61952, Note_off_c, 4, 53, 1006, 62016, Note_on_c, 4, 55, 1006, 62016, Note_on_c, 4, 62, 1006, 62016, Note_on_c, 4, 58, 1006, 62048, Note_off_c, 4, 58, 1006, 62048, Note_off_c, 4, 62, 1006, 62048, Note_off_c, 4, 55, 1006, 62112, Note_on_c, 4, 53, 1006, 62144, Note_off_c, 4, 53, 1006, 62160, Note_on_c, 4, 62, 1006, 62160, Note_on_c, 4, 58, 1006, 62160, Note_on_c, 4, 55, 1006, 62192, Note_off_c, 4, 55, 1006, 62192, Note_off_c, 4, 58, 1006, 62192, Note_off_c, 4, 62, 1006, 62304, Note_on_c, 4, 53, 1006, 62336, Note_off_c, 4, 53, 1006, 62400, Note_on_c, 4, 55, 1006, 62400, Note_on_c, 4, 62, 1006, 62400, Note_on_c, 4, 58, 1006, 62432, Note_off_c, 4, 58, 1006, 62432, Note_off_c, 4, 62, 1006, 62432, Note_off_c, 4, 55, 1006, 62496, Note_on_c, 4, 53, 1006, 62528, Note_off_c, 4, 53, 1006, 62544, Note_on_c, 4, 62, 1006, 62544, Note_on_c, 4, 58, 1006, 62544, Note_on_c, 4, 55, 1006, 62576, Note_off_c, 4, 55, 1006, 62576, Note_off_c, 4, 58, 1006, 62576, Note_off_c, 4, 62, 1006, 62688, Note_on_c, 4, 53, 1006, 62720, Note_off_c, 4, 53, 1006, 62784, Note_on_c, 4, 55, 1006, 62784, Note_on_c, 4, 62, 1006, 62784, Note_on_c, 4, 58, 1006, 62816, Note_off_c, 4, 58, 1006, 62816, Note_off_c, 4, 62, 1006, 62816, Note_off_c, 4, 55, 1006, 62880, Note_on_c, 4, 53, 1006, 62912, Note_off_c, 4, 53, 1006, 62928, Note_on_c, 4, 62, 1006, 62928, Note_on_c, 4, 58, 1006, 62928, Note_on_c, 4, 55, 1006, 62960, Note_off_c, 4, 55, 1006, 62960, Note_off_c, 4, 58, 1006, 62960, Note_off_c, 4, 62, 1006, 63072, Note_on_c, 4, 53, 1006, 63104, Note_off_c, 4, 53, 1006, 63168, Note_on_c, 4, 55, 1006, 63168, Note_on_c, 4, 62, 1006, 63168, Note_on_c, 4, 58, 1006, 63200, Note_off_c, 4, 58, 1006, 63200, Note_off_c, 4, 62, 1006, 63200, Note_off_c, 4, 55, 1006, 63264, Note_on_c, 4, 53, 1006, 63296, Note_off_c, 4, 53, 1006, 63312, Note_on_c, 4, 62, 1006, 63312, Note_on_c, 4, 58, 1006, 63312, Note_on_c, 4, 55, 1006, 63344, Note_off_c, 4, 55, 1006, 63344, Note_off_c, 4, 58, 1006, 63344, Note_off_c, 4, 62, 1006, 63456, Note_on_c, 4, 53, 1006, 63488, Note_off_c, 4, 53, 1006, 63552, Note_on_c, 4, 55, 1006, 63552, Note_on_c, 4, 62, 1006, 63552, Note_on_c, 4, 58, 1006, 63584, Note_off_c, 4, 58, 1006, 63584, Note_off_c, 4, 62, 1006, 63584, Note_off_c, 4, 55, 1006, 63648, Note_on_c, 4, 53, 1006, 63680, Note_off_c, 4, 53, 1006, 63696, Note_on_c, 4, 62, 1006, 63696, Note_on_c, 4, 58, 1006, 63696, Note_on_c, 4, 55, 1006, 63728, Note_off_c, 4, 55, 1006, 63728, Note_off_c, 4, 58, 1006, 63728, Note_off_c, 4, 62, 1006, 63840, Note_on_c, 4, 53, 1006, 63872, Note_off_c, 4, 53, 1006, 63936, Note_on_c, 4, 55, 1006, 63936, Note_on_c, 4, 62, 1006, 63936, Note_on_c, 4, 58, 1006, 63968, Note_off_c, 4, 58, 1006, 63968, Note_off_c, 4, 62, 1006, 63968, Note_off_c, 4, 55, 1006, 64032, Note_on_c, 4, 53, 1006, 64064, Note_off_c, 4, 53, 1006, 64080, Note_on_c, 4, 62, 1006, 64080, Note_on_c, 4, 58, 1006, 64080, Note_on_c, 4, 55, 1006, 64112, Note_off_c, 4, 55, 1006, 64112, Note_off_c, 4, 58, 1006, 64112, Note_off_c, 4, 62, 1006, 64224, Note_on_c, 4, 53, 1006, 64256, Note_off_c, 4, 53, 1006, 64320, Note_on_c, 4, 55, 1006, 64320, Note_on_c, 4, 62, 1006, 64320, Note_on_c, 4, 58, 1006, 64352, Note_off_c, 4, 58, 1006, 64352, Note_off_c, 4, 62, 1006, 64352, Note_off_c, 4, 55, 1006, 64416, Note_on_c, 4, 53, 1006, 64448, Note_off_c, 4, 53, 1006, 64464, Note_on_c, 4, 62, 1006, 64464, Note_on_c, 4, 58, 1006, 64464, Note_on_c, 4, 55, 1006, 64496, Note_off_c, 4, 55, 1006, 64496, Note_off_c, 4, 58, 1006, 64496, Note_off_c, 4, 62, 1006, 64608, Note_on_c, 4, 53, 1006, 64640, Note_off_c, 4, 53, 1006, 64704, Note_on_c, 4, 55, 1006, 64704, Note_on_c, 4, 62, 1006, 64704, Note_on_c, 4, 58, 1006, 64736, Note_off_c, 4, 58, 1006, 64736, Note_off_c, 4, 62, 1006, 64736, Note_off_c, 4, 55, 1006, 64800, Note_on_c, 4, 53, 1006, 64832, Note_off_c, 4, 53, 1006, 64848, Note_on_c, 4, 62, 1006, 64848, Note_on_c, 4, 58, 1006, 64848, Note_on_c, 4, 55, 1006, 64880, Note_off_c, 4, 55, 1006, 64880, Note_off_c, 4, 58, 1006, 64880, Note_off_c, 4, 62, 1006, 64992, Note_on_c, 4, 53, 1006, 65024, Note_off_c, 4, 53, 1006, 65088, Note_on_c, 4, 55, 1006, 65088, Note_on_c, 4, 62, 1006, 65088, Note_on_c, 4, 58, 1006, 65120, Note_off_c, 4, 58, 1006, 65120, Note_off_c, 4, 62, 1006, 65120, Note_off_c, 4, 55, 1006, 65184, Note_on_c, 4, 53, 1006, 65216, Note_off_c, 4, 53, 1006, 65232, Note_on_c, 4, 62, 1006, 65232, Note_on_c, 4, 58, 1006, 65232, Note_on_c, 4, 55, 1006, 65264, Note_off_c, 4, 55, 1006, 65264, Note_off_c, 4, 58, 1006, 65264, Note_off_c, 4, 62, 1006, 65376, Note_on_c, 4, 53, 1006, 65408, Note_off_c, 4, 53, 1006, 65472, Note_on_c, 4, 55, 1006, 65472, Note_on_c, 4, 62, 1006, 65472, Note_on_c, 4, 58, 1006, 65504, Note_off_c, 4, 58, 1006, 65504, Note_off_c, 4, 62, 1006, 65504, Note_off_c, 4, 55, 1006, 65568, Note_on_c, 4, 53, 1006, 65600, Note_off_c, 4, 53, 1006, 65616, Note_on_c, 4, 62, 1006, 65616, Note_on_c, 4, 58, 1006, 65616, Note_on_c, 4, 55, 1006, 65648, Note_off_c, 4, 55, 1006, 65648, Note_off_c, 4, 58, 1006, 65648, Note_off_c, 4, 62, 1006, 65760, Note_on_c, 4, 53, 1006, 65792, Note_off_c, 4, 53, 1006, 65856, Note_on_c, 4, 55, 1006, 65856, Note_on_c, 4, 62, 1006, 65856, Note_on_c, 4, 58, 1006, 65888, Note_off_c, 4, 58, 1006, 65888, Note_off_c, 4, 62, 1006, 65888, Note_off_c, 4, 55, 1006, 65952, Note_on_c, 4, 53, 1006, 65984, Note_off_c, 4, 53, 1006, 66000, Note_on_c, 4, 62, 1006, 66000, Note_on_c, 4, 58, 1006, 66000, Note_on_c, 4, 55, 1006, 66032, Note_off_c, 4, 55, 1006, 66032, Note_off_c, 4, 58, 1006, 66032, Note_off_c, 4, 62, 1006, 66144, Note_on_c, 4, 53, 1006, 66176, Note_off_c, 4, 53, 1006, 66240, Note_on_c, 4, 55, 1006, 66240, Note_on_c, 4, 62, 1006, 66240, Note_on_c, 4, 58, 1006, 66272, Note_off_c, 4, 58, 1006, 66272, Note_off_c, 4, 62, 1006, 66272, Note_off_c, 4, 55, 1006, 66336, Note_on_c, 4, 53, 1006, 66368, Note_off_c, 4, 53, 1006, 66384, Note_on_c, 4, 62, 1006, 66384, Note_on_c, 4, 58, 1006, 66384, Note_on_c, 4, 55, 1006, 66416, Note_off_c, 4, 55, 1006, 66416, Note_off_c, 4, 58, 1006, 66416, Note_off_c, 4, 62, 1006, 66528, Note_on_c, 4, 53, 1006, 66560, Note_off_c, 4, 53, 1006, 66624, Note_on_c, 4, 55, 1006, 66624, Note_on_c, 4, 62, 1006, 66624, Note_on_c, 4, 58, 1006, 66656, Note_off_c, 4, 58, 1006, 66656, Note_off_c, 4, 62, 1006, 66656, Note_off_c, 4, 55, 1006, 66720, Note_on_c, 4, 53, 1006, 66752, Note_off_c, 4, 53, 1006, 66768, Note_on_c, 4, 62, 1006, 66768, Note_on_c, 4, 58, 1006, 66768, Note_on_c, 4, 55, 1006, 66800, Note_off_c, 4, 55, 1006, 66800, Note_off_c, 4, 58, 1006, 66800, Note_off_c, 4, 62, 1006, 66912, Note_on_c, 4, 53, 1006, 66944, Note_off_c, 4, 53, 1006, 67104, Note_on_c, 4, 53, 1006, 67136, Note_off_c, 4, 53, 1006, 67296, Note_on_c, 4, 53, 1006, 67328, Note_off_c, 4, 53, 1006, 67488, Note_on_c, 4, 53, 1006, 67520, Note_off_c, 4, 53, 1006, 86016, Note_on_c, 4, 48, 906, 86048, Note_off_c, 4, 48, 906, 86064, Note_on_c, 4, 50, 906, 86096, Note_off_c, 4, 50, 906, 86112, Note_on_c, 4, 46, 906, 86144, Note_off_c, 4, 46, 906, 86160, Note_on_c, 4, 41, 906, 86192, Note_off_c, 4, 41, 906, 86256, Note_on_c, 4, 48, 906, 86288, Note_off_c, 4, 48, 906, 86304, Note_on_c, 4, 50, 906, 86336, Note_off_c, 4, 50, 906, 86352, Note_on_c, 4, 46, 906, 86384, Note_off_c, 4, 46, 906, 86400, Note_on_c, 4, 41, 906, 86432, Note_off_c, 4, 41, 906, 86448, Note_on_c, 4, 43, 906, 86480, Note_off_c, 4, 43, 906, 86496, Note_on_c, 4, 48, 906, 86528, Note_off_c, 4, 48, 906, 86544, Note_on_c, 4, 50, 906, 86576, Note_off_c, 4, 50, 906, 86592, Note_on_c, 4, 46, 906, 86624, Note_off_c, 4, 46, 906, 86640, Note_on_c, 4, 41, 906, 86672, Note_off_c, 4, 41, 906, 86688, Note_on_c, 4, 43, 906, 86720, Note_off_c, 4, 43, 906, 86736, Note_on_c, 4, 48, 906, 86768, Note_off_c, 4, 48, 906, 86784, Note_on_c, 4, 50, 906, 86816, Note_off_c, 4, 50, 906, 86832, Note_on_c, 4, 46, 906, 86864, Note_off_c, 4, 46, 906, 86928, Note_on_c, 4, 43, 906, 86960, Note_off_c, 4, 43, 906, 87024, Note_on_c, 4, 50, 906, 87056, Note_off_c, 4, 50, 906, 87072, Note_on_c, 4, 46, 906, 87104, Note_off_c, 4, 46, 906, 87120, Note_on_c, 4, 41, 906, 87152, Note_off_c, 4, 41, 906, 87216, Note_on_c, 4, 48, 906, 87248, Note_off_c, 4, 48, 906, 87264, Note_on_c, 4, 50, 906, 87296, Note_off_c, 4, 50, 906, 87312, Note_on_c, 4, 46, 906, 87344, Note_off_c, 4, 46, 906, 87408, Note_on_c, 4, 43, 906, 87440, Note_off_c, 4, 43, 906, 87456, Note_on_c, 4, 48, 906, 87488, Note_off_c, 4, 48, 906, 87504, Note_on_c, 4, 50, 906, 87536, Note_off_c, 4, 50, 906, 87600, Note_on_c, 4, 41, 906, 87632, Note_off_c, 4, 41, 906, 87648, Note_on_c, 4, 43, 906, 87680, Note_off_c, 4, 43, 906, 87696, Note_on_c, 4, 48, 906, 87728, Note_off_c, 4, 48, 906, 87792, Note_on_c, 4, 46, 906, 87824, Note_off_c, 4, 46, 906, 87840, Note_on_c, 4, 41, 906, 87872, Note_off_c, 4, 41, 906, 87888, Note_on_c, 4, 43, 906, 87920, Note_off_c, 4, 43, 906, 87936, Note_on_c, 4, 48, 906, 87968, Note_off_c, 4, 48, 906, 87984, Note_on_c, 4, 50, 906, 88016, Note_off_c, 4, 50, 906, 88032, Note_on_c, 4, 46, 906, 88064, Note_off_c, 4, 46, 906, 88080, Note_on_c, 4, 41, 906, 88112, Note_off_c, 4, 41, 906, 88176, Note_on_c, 4, 48, 906, 88208, Note_off_c, 4, 48, 906, 88224, Note_on_c, 4, 50, 906, 88256, Note_off_c, 4, 50, 906, 88272, Note_on_c, 4, 46, 906, 88304, Note_off_c, 4, 46, 906, 88320, Note_on_c, 4, 41, 906, 88352, Note_off_c, 4, 41, 906, 88368, Note_on_c, 4, 43, 906, 88400, Note_off_c, 4, 43, 906, 88416, Note_on_c, 4, 48, 906, 88448, Note_off_c, 4, 48, 906, 88464, Note_on_c, 4, 50, 906, 88496, Note_off_c, 4, 50, 906, 88560, Note_on_c, 4, 41, 906, 88592, Note_off_c, 4, 41, 906, 88608, Note_on_c, 4, 43, 906, 88640, Note_off_c, 4, 43, 906, 88656, Note_on_c, 4, 48, 906, 88688, Note_off_c, 4, 48, 906, 88704, Note_on_c, 4, 50, 906, 88736, Note_off_c, 4, 50, 906, 88752, Note_on_c, 4, 46, 906, 88784, Note_off_c, 4, 46, 906, 88800, Note_on_c, 4, 41, 906, 88832, Note_off_c, 4, 41, 906, 88848, Note_on_c, 4, 43, 906, 88880, Note_off_c, 4, 43, 906, 89088, Note_on_c, 4, 48, 906, 89120, Note_off_c, 4, 48, 906, 89136, Note_on_c, 4, 50, 906, 89168, Note_off_c, 4, 50, 906, 89184, Note_on_c, 4, 46, 906, 89216, Note_off_c, 4, 46, 906, 89232, Note_on_c, 4, 41, 906, 89264, Note_off_c, 4, 41, 906, 89328, Note_on_c, 4, 48, 906, 89360, Note_off_c, 4, 48, 906, 89376, Note_on_c, 4, 50, 906, 89408, Note_off_c, 4, 50, 906, 89424, Note_on_c, 4, 46, 906, 89456, Note_off_c, 4, 46, 906, 89472, Note_on_c, 4, 41, 906, 89504, Note_off_c, 4, 41, 906, 89520, Note_on_c, 4, 43, 906, 89552, Note_off_c, 4, 43, 906, 89568, Note_on_c, 4, 48, 906, 89600, Note_off_c, 4, 48, 906, 89616, Note_on_c, 4, 50, 906, 89648, Note_off_c, 4, 50, 906, 89664, Note_on_c, 4, 46, 906, 89696, Note_off_c, 4, 46, 906, 89712, Note_on_c, 4, 41, 906, 89744, Note_off_c, 4, 41, 906, 89760, Note_on_c, 4, 43, 906, 89792, Note_off_c, 4, 43, 906, 89808, Note_on_c, 4, 48, 906, 89840, Note_off_c, 4, 48, 906, 89856, Note_on_c, 4, 50, 906, 89888, Note_off_c, 4, 50, 906, 89904, Note_on_c, 4, 46, 906, 89936, Note_off_c, 4, 46, 906, 90000, Note_on_c, 4, 43, 906, 90032, Note_off_c, 4, 43, 906, 90096, Note_on_c, 4, 50, 906, 90128, Note_off_c, 4, 50, 906, 90144, Note_on_c, 4, 46, 906, 90176, Note_off_c, 4, 46, 906, 90192, Note_on_c, 4, 41, 906, 90224, Note_off_c, 4, 41, 906, 90288, Note_on_c, 4, 48, 906, 90320, Note_off_c, 4, 48, 906, 90336, Note_on_c, 4, 50, 906, 90368, Note_off_c, 4, 50, 906, 90384, Note_on_c, 4, 46, 906, 90416, Note_off_c, 4, 46, 906, 90480, Note_on_c, 4, 43, 906, 90512, Note_off_c, 4, 43, 906, 90528, Note_on_c, 4, 48, 906, 90560, Note_off_c, 4, 48, 906, 90576, Note_on_c, 4, 50, 906, 90608, Note_off_c, 4, 50, 906, 90672, Note_on_c, 4, 41, 906, 90704, Note_off_c, 4, 41, 906, 90720, Note_on_c, 4, 43, 906, 90752, Note_off_c, 4, 43, 906, 90768, Note_on_c, 4, 48, 906, 90800, Note_off_c, 4, 48, 906, 90864, Note_on_c, 4, 46, 906, 90896, Note_off_c, 4, 46, 906, 90912, Note_on_c, 4, 41, 906, 90944, Note_off_c, 4, 41, 906, 90960, Note_on_c, 4, 43, 906, 90992, Note_off_c, 4, 43, 906, 91008, Note_on_c, 4, 48, 906, 91040, Note_off_c, 4, 48, 906, 91056, Note_on_c, 4, 50, 906, 91088, Note_off_c, 4, 50, 906, 91104, Note_on_c, 4, 46, 906, 91136, Note_off_c, 4, 46, 906, 91152, Note_on_c, 4, 41, 906, 91184, Note_off_c, 4, 41, 906, 91248, Note_on_c, 4, 48, 906, 91280, Note_off_c, 4, 48, 906, 91296, Note_on_c, 4, 50, 906, 91328, Note_off_c, 4, 50, 906, 91344, Note_on_c, 4, 46, 906, 91376, Note_off_c, 4, 46, 906, 91392, Note_on_c, 4, 41, 906, 91424, Note_off_c, 4, 41, 906, 91440, Note_on_c, 4, 43, 906, 91472, Note_off_c, 4, 43, 906, 91488, Note_on_c, 4, 48, 906, 91520, Note_off_c, 4, 48, 906, 91536, Note_on_c, 4, 50, 906, 91568, Note_off_c, 4, 50, 906, 91632, Note_on_c, 4, 41, 906, 91664, Note_off_c, 4, 41, 906, 91680, Note_on_c, 4, 43, 906, 91712, Note_off_c, 4, 43, 906, 91728, Note_on_c, 4, 48, 906, 91760, Note_off_c, 4, 48, 906, 91776, Note_on_c, 4, 50, 906, 91808, Note_off_c, 4, 50, 906, 91824, Note_on_c, 4, 46, 906, 91856, Note_off_c, 4, 46, 906, 91872, Note_on_c, 4, 41, 906, 91904, Note_off_c, 4, 41, 906, 91920, Note_on_c, 4, 43, 906, 91952, Note_off_c, 4, 43, 906, 91968, Note_on_c, 4, 48, 906, 92000, Note_off_c, 4, 48, 906, 92016, Note_on_c, 4, 50, 906, 92048, Note_off_c, 4, 50, 906, 92112, Note_on_c, 4, 41, 906, 92144, Note_off_c, 4, 41, 906, 92256, Note_on_c, 4, 53, 1006, 92288, Note_off_c, 4, 53, 1006, 92352, Note_on_c, 4, 55, 1006, 92352, Note_on_c, 4, 62, 1006, 92352, Note_on_c, 4, 58, 1006, 92384, Note_off_c, 4, 58, 1006, 92384, Note_off_c, 4, 62, 1006, 92384, Note_off_c, 4, 55, 1006, 92448, Note_on_c, 4, 53, 1006, 92480, Note_off_c, 4, 53, 1006, 92496, Note_on_c, 4, 62, 1006, 92496, Note_on_c, 4, 58, 1006, 92496, Note_on_c, 4, 55, 1006, 92528, Note_off_c, 4, 55, 1006, 92528, Note_off_c, 4, 58, 1006, 92528, Note_off_c, 4, 62, 1006, 92640, Note_on_c, 4, 53, 1006, 92672, Note_off_c, 4, 53, 1006, 92736, Note_on_c, 4, 55, 1006, 92736, Note_on_c, 4, 62, 1006, 92736, Note_on_c, 4, 58, 1006, 92768, Note_off_c, 4, 58, 1006, 92768, Note_off_c, 4, 62, 1006, 92768, Note_off_c, 4, 55, 1006, 92832, Note_on_c, 4, 53, 1006, 92864, Note_off_c, 4, 53, 1006, 92880, Note_on_c, 4, 62, 1006, 92880, Note_on_c, 4, 58, 1006, 92880, Note_on_c, 4, 55, 1006, 92912, Note_off_c, 4, 55, 1006, 92912, Note_off_c, 4, 58, 1006, 92912, Note_off_c, 4, 62, 1006, 93024, Note_on_c, 4, 53, 1006, 93056, Note_off_c, 4, 53, 1006, 93120, Note_on_c, 4, 55, 1006, 93120, Note_on_c, 4, 62, 1006, 93120, Note_on_c, 4, 58, 1006, 93152, Note_off_c, 4, 58, 1006, 93152, Note_off_c, 4, 62, 1006, 93152, Note_off_c, 4, 55, 1006, 93216, Note_on_c, 4, 53, 1006, 93248, Note_off_c, 4, 53, 1006, 93264, Note_on_c, 4, 62, 1006, 93264, Note_on_c, 4, 58, 1006, 93264, Note_on_c, 4, 55, 1006, 93296, Note_off_c, 4, 55, 1006, 93296, Note_off_c, 4, 58, 1006, 93296, Note_off_c, 4, 62, 1006, 93408, Note_on_c, 4, 53, 1006, 93440, Note_off_c, 4, 53, 1006, 93504, Note_on_c, 4, 55, 1006, 93504, Note_on_c, 4, 62, 1006, 93504, Note_on_c, 4, 58, 1006, 93536, Note_off_c, 4, 58, 1006, 93536, Note_off_c, 4, 62, 1006, 93536, Note_off_c, 4, 55, 1006, 93600, Note_on_c, 4, 53, 1006, 93632, Note_off_c, 4, 53, 1006, 93648, Note_on_c, 4, 62, 1006, 93648, Note_on_c, 4, 58, 1006, 93648, Note_on_c, 4, 55, 1006, 93680, Note_off_c, 4, 55, 1006, 93680, Note_off_c, 4, 58, 1006, 93680, Note_off_c, 4, 62, 1006, 93792, Note_on_c, 4, 53, 1006, 93824, Note_off_c, 4, 53, 1006, 93888, Note_on_c, 4, 55, 1006, 93888, Note_on_c, 4, 62, 1006, 93888, Note_on_c, 4, 58, 1006, 93920, Note_off_c, 4, 58, 1006, 93920, Note_off_c, 4, 62, 1006, 93920, Note_off_c, 4, 55, 1006, 93984, Note_on_c, 4, 53, 1006, 94016, Note_off_c, 4, 53, 1006, 94032, Note_on_c, 4, 62, 1006, 94032, Note_on_c, 4, 58, 1006, 94032, Note_on_c, 4, 55, 1006, 94064, Note_off_c, 4, 55, 1006, 94064, Note_off_c, 4, 58, 1006, 94064, Note_off_c, 4, 62, 1006, 94176, Note_on_c, 4, 53, 1006, 94208, Note_off_c, 4, 53, 1006, 94272, Note_on_c, 4, 55, 1006, 94272, Note_on_c, 4, 62, 1006, 94272, Note_on_c, 4, 58, 1006, 94304, Note_off_c, 4, 58, 1006, 94304, Note_off_c, 4, 62, 1006, 94304, Note_off_c, 4, 55, 1006, 94368, Note_on_c, 4, 53, 1006, 94400, Note_off_c, 4, 53, 1006, 94416, Note_on_c, 4, 62, 1006, 94416, Note_on_c, 4, 58, 1006, 94416, Note_on_c, 4, 55, 1006, 94448, Note_off_c, 4, 55, 1006, 94448, Note_off_c, 4, 58, 1006, 94448, Note_off_c, 4, 62, 1006, 94560, Note_on_c, 4, 53, 1006, 94592, Note_off_c, 4, 53, 1006, 94656, Note_on_c, 4, 55, 1006, 94656, Note_on_c, 4, 62, 1006, 94656, Note_on_c, 4, 58, 1006, 94688, Note_off_c, 4, 58, 1006, 94688, Note_off_c, 4, 62, 1006, 94688, Note_off_c, 4, 55, 1006, 94752, Note_on_c, 4, 53, 1006, 94784, Note_off_c, 4, 53, 1006, 94800, Note_on_c, 4, 62, 1006, 94800, Note_on_c, 4, 58, 1006, 94800, Note_on_c, 4, 55, 1006, 94832, Note_off_c, 4, 55, 1006, 94832, Note_off_c, 4, 58, 1006, 94832, Note_off_c, 4, 62, 1006, 94944, Note_on_c, 4, 53, 1006, 94976, Note_off_c, 4, 53, 1006, 95040, Note_on_c, 4, 55, 1006, 95040, Note_on_c, 4, 62, 1006, 95040, Note_on_c, 4, 58, 1006, 95072, Note_off_c, 4, 58, 1006, 95072, Note_off_c, 4, 62, 1006, 95072, Note_off_c, 4, 55, 1006, 95136, Note_on_c, 4, 53, 1006, 95168, Note_off_c, 4, 53, 1006, 95184, Note_on_c, 4, 62, 1006, 95184, Note_on_c, 4, 58, 1006, 95184, Note_on_c, 4, 55, 1006, 95216, Note_off_c, 4, 55, 1006, 95216, Note_off_c, 4, 58, 1006, 95216, Note_off_c, 4, 62, 1006, 95328, Note_on_c, 4, 53, 1006, 95360, Note_off_c, 4, 53, 1006, 95424, Note_on_c, 4, 55, 1006, 95424, Note_on_c, 4, 62, 1006, 95424, Note_on_c, 4, 58, 1006, 95456, Note_off_c, 4, 58, 1006, 95456, Note_off_c, 4, 62, 1006, 95456, Note_off_c, 4, 55, 1006, 95520, Note_on_c, 4, 53, 1006, 95552, Note_off_c, 4, 53, 1006, 95568, Note_on_c, 4, 62, 1006, 95568, Note_on_c, 4, 58, 1006, 95568, Note_on_c, 4, 55, 1006, 95600, Note_off_c, 4, 55, 1006, 95600, Note_off_c, 4, 58, 1006, 95600, Note_off_c, 4, 62, 1006, 95712, Note_on_c, 4, 53, 1006, 95744, Note_off_c, 4, 53, 1006, 95808, Note_on_c, 4, 55, 1006, 95808, Note_on_c, 4, 62, 1006, 95808, Note_on_c, 4, 58, 1006, 95840, Note_off_c, 4, 58, 1006, 95840, Note_off_c, 4, 62, 1006, 95840, Note_off_c, 4, 55, 1006, 95904, Note_on_c, 4, 53, 1006, 95936, Note_off_c, 4, 53, 1006, 95952, Note_on_c, 4, 62, 1006, 95952, Note_on_c, 4, 58, 1006, 95952, Note_on_c, 4, 55, 1006, 95984, Note_off_c, 4, 55, 1006, 95984, Note_off_c, 4, 58, 1006, 95984, Note_off_c, 4, 62, 1006, 96096, Note_on_c, 4, 53, 1006, 96128, Note_off_c, 4, 53, 1006, 96192, Note_on_c, 4, 55, 1006, 96192, Note_on_c, 4, 62, 1006, 96192, Note_on_c, 4, 58, 1006, 96224, Note_off_c, 4, 58, 1006, 96224, Note_off_c, 4, 62, 1006, 96224, Note_off_c, 4, 55, 1006, 96288, Note_on_c, 4, 53, 1006, 96320, Note_off_c, 4, 53, 1006, 96336, Note_on_c, 4, 62, 1006, 96336, Note_on_c, 4, 58, 1006, 96336, Note_on_c, 4, 55, 1006, 96368, Note_off_c, 4, 55, 1006, 96368, Note_off_c, 4, 58, 1006, 96368, Note_off_c, 4, 62, 1006, 96480, Note_on_c, 4, 53, 1006, 96512, Note_off_c, 4, 53, 1006, 96576, Note_on_c, 4, 55, 1006, 96576, Note_on_c, 4, 62, 1006, 96576, Note_on_c, 4, 58, 1006, 96608, Note_off_c, 4, 58, 1006, 96608, Note_off_c, 4, 62, 1006, 96608, Note_off_c, 4, 55, 1006, 96672, Note_on_c, 4, 53, 1006, 96704, Note_off_c, 4, 53, 1006, 96720, Note_on_c, 4, 62, 1006, 96720, Note_on_c, 4, 58, 1006, 96720, Note_on_c, 4, 55, 1006, 96752, Note_off_c, 4, 55, 1006, 96752, Note_off_c, 4, 58, 1006, 96752, Note_off_c, 4, 62, 1006, 96864, Note_on_c, 4, 53, 1006, 96896, Note_off_c, 4, 53, 1006, 96960, Note_on_c, 4, 55, 1006, 96960, Note_on_c, 4, 62, 1006, 96960, Note_on_c, 4, 58, 1006, 96992, Note_off_c, 4, 58, 1006, 96992, Note_off_c, 4, 62, 1006, 96992, Note_off_c, 4, 55, 1006, 97056, Note_on_c, 4, 53, 1006, 97088, Note_off_c, 4, 53, 1006, 97104, Note_on_c, 4, 62, 1006, 97104, Note_on_c, 4, 58, 1006, 97104, Note_on_c, 4, 55, 1006, 97136, Note_off_c, 4, 55, 1006, 97136, Note_off_c, 4, 58, 1006, 97136, Note_off_c, 4, 62, 1006, 97248, Note_on_c, 4, 53, 1006, 97280, Note_off_c, 4, 53, 1006, 97344, Note_on_c, 4, 55, 1006, 97344, Note_on_c, 4, 62, 1006, 97344, Note_on_c, 4, 58, 1006, 97376, Note_off_c, 4, 58, 1006, 97376, Note_off_c, 4, 62, 1006, 97376, Note_off_c, 4, 55, 1006, 97440, Note_on_c, 4, 53, 1006, 97472, Note_off_c, 4, 53, 1006, 97488, Note_on_c, 4, 62, 1006, 97488, Note_on_c, 4, 58, 1006, 97488, Note_on_c, 4, 55, 1006, 97520, Note_off_c, 4, 55, 1006, 97520, Note_off_c, 4, 58, 1006, 97520, Note_off_c, 4, 62, 1006, 97632, Note_on_c, 4, 53, 1006, 97664, Note_off_c, 4, 53, 1006, 97728, Note_on_c, 4, 55, 1006, 97728, Note_on_c, 4, 62, 1006, 97728, Note_on_c, 4, 58, 1006, 97760, Note_off_c, 4, 58, 1006, 97760, Note_off_c, 4, 62, 1006, 97760, Note_off_c, 4, 55, 1006, 97824, Note_on_c, 4, 53, 1006, 97856, Note_off_c, 4, 53, 1006, 97872, Note_on_c, 4, 62, 1006, 97872, Note_on_c, 4, 58, 1006, 97872, Note_on_c, 4, 55, 1006, 97904, Note_off_c, 4, 55, 1006, 97904, Note_off_c, 4, 58, 1006, 97904, Note_off_c, 4, 62, 1006, 98016, Note_on_c, 4, 53, 1006, 98048, Note_off_c, 4, 53, 1006, 98112, Note_on_c, 4, 55, 1006, 98112, Note_on_c, 4, 62, 1006, 98112, Note_on_c, 4, 58, 1006, 98144, Note_off_c, 4, 58, 1006, 98144, Note_off_c, 4, 62, 1006, 98144, Note_off_c, 4, 55, 1006, 98208, Note_on_c, 4, 53, 1006, 98240, Note_off_c, 4, 53, 1006, 98256, Note_on_c, 4, 62, 1006, 98256, Note_on_c, 4, 58, 1006, 98256, Note_on_c, 4, 55, 1006, 98288, Note_off_c, 4, 55, 1006, 98288, Note_off_c, 4, 58, 1006, 98288, Note_off_c, 4, 62, 1006, 98400, Note_on_c, 4, 53, 1006, 98432, Note_off_c, 4, 53, 1006, 98496, Note_on_c, 4, 55, 1006, 98496, Note_on_c, 4, 62, 1006, 98496, Note_on_c, 4, 58, 1006, 98528, Note_off_c, 4, 58, 1006, 98528, Note_off_c, 4, 62, 1006, 98528, Note_off_c, 4, 55, 1006, 98592, Note_on_c, 4, 53, 1006, 98624, Note_off_c, 4, 53, 1006, 98640, Note_on_c, 4, 62, 1006, 98640, Note_on_c, 4, 58, 1006, 98640, Note_on_c, 4, 55, 1006, 98672, Note_off_c, 4, 55, 1006, 98672, Note_off_c, 4, 58, 1006, 98672, Note_off_c, 4, 62, 1006, 98784, Note_on_c, 4, 53, 1006, 98816, Note_off_c, 4, 53, 1006, 98880, Note_on_c, 4, 55, 1006, 98880, Note_on_c, 4, 62, 1006, 98880, Note_on_c, 4, 58, 1006, 98912, Note_off_c, 4, 58, 1006, 98912, Note_off_c, 4, 62, 1006, 98912, Note_off_c, 4, 55, 1006, 98976, Note_on_c, 4, 53, 1006, 99008, Note_off_c, 4, 53, 1006, 99024, Note_on_c, 4, 62, 1006, 99024, Note_on_c, 4, 58, 1006, 99024, Note_on_c, 4, 55, 1006, 99056, Note_off_c, 4, 55, 1006, 99056, Note_off_c, 4, 58, 1006, 99056, Note_off_c, 4, 62, 1006, 99168, Note_on_c, 4, 53, 1006, 99200, Note_off_c, 4, 53, 1006, 99264, Note_on_c, 4, 55, 1006, 99264, Note_on_c, 4, 62, 1006, 99264, Note_on_c, 4, 58, 1006, 99296, Note_off_c, 4, 58, 1006, 99296, Note_off_c, 4, 62, 1006, 99296, Note_off_c, 4, 55, 1006, 99360, Note_on_c, 4, 53, 1006, 99392, Note_off_c, 4, 53, 1006, 99408, Note_on_c, 4, 62, 1006, 99408, Note_on_c, 4, 58, 1006, 99408, Note_on_c, 4, 55, 1006, 99440, Note_off_c, 4, 55, 1006, 99440, Note_off_c, 4, 58, 1006, 99440, Note_off_c, 4, 62, 1006, 99552, Note_on_c, 4, 53, 1006, 99584, Note_off_c, 4, 53, 1006, 99648, Note_on_c, 4, 55, 1006, 99648, Note_on_c, 4, 62, 1006, 99648, Note_on_c, 4, 58, 1006, 99680, Note_off_c, 4, 58, 1006, 99680, Note_off_c, 4, 62, 1006, 99680, Note_off_c, 4, 55, 1006, 99744, Note_on_c, 4, 53, 1006, 99776, Note_off_c, 4, 53, 1006, 99792, Note_on_c, 4, 62, 1006, 99792, Note_on_c, 4, 58, 1006, 99792, Note_on_c, 4, 55, 1006, 99824, Note_off_c, 4, 55, 1006, 99824, Note_off_c, 4, 58, 1006, 99824, Note_off_c, 4, 62, 1006, 99936, Note_on_c, 4, 53, 1006, 99968, Note_off_c, 4, 53, 1006, 100032, Note_on_c, 4, 55, 1006, 100032, Note_on_c, 4, 62, 1006, 100032, Note_on_c, 4, 58, 1006, 100064, Note_off_c, 4, 58, 1006, 100064, Note_off_c, 4, 62, 1006, 100064, Note_off_c, 4, 55, 1006, 100128, Note_on_c, 4, 53, 1006, 100160, Note_off_c, 4, 53, 1006, 100176, Note_on_c, 4, 62, 1006, 100176, Note_on_c, 4, 58, 1006, 100176, Note_on_c, 4, 55, 1006, 100208, Note_off_c, 4, 55, 1006, 100208, Note_off_c, 4, 58, 1006, 100208, Note_off_c, 4, 62, 1006, 100320, Note_on_c, 4, 53, 1006, 100352, Note_off_c, 4, 53, 1006, 100416, Note_on_c, 4, 55, 1006, 100416, Note_on_c, 4, 62, 1006, 100416, Note_on_c, 4, 58, 1006, 100448, Note_off_c, 4, 58, 1006, 100448, Note_off_c, 4, 62, 1006, 100448, Note_off_c, 4, 55, 1006, 100512, Note_on_c, 4, 53, 1006, 100544, Note_off_c, 4, 53, 1006, 100560, Note_on_c, 4, 62, 1006, 100560, Note_on_c, 4, 58, 1006, 100560, Note_on_c, 4, 55, 1006, 100592, Note_off_c, 4, 55, 1006, 100592, Note_off_c, 4, 58, 1006, 100592, Note_off_c, 4, 62, 1006, 100704, Note_on_c, 4, 53, 1006, 100736, Note_off_c, 4, 53, 1006, 100800, Note_on_c, 4, 55, 1006, 100800, Note_on_c, 4, 62, 1006, 100800, Note_on_c, 4, 58, 1006, 100832, Note_off_c, 4, 58, 1006, 100832, Note_off_c, 4, 62, 1006, 100832, Note_off_c, 4, 55, 1006, 100896, Note_on_c, 4, 53, 1006, 100928, Note_off_c, 4, 53, 1006, 100944, Note_on_c, 4, 62, 1006, 100944, Note_on_c, 4, 58, 1006, 100944, Note_on_c, 4, 55, 1006, 100976, Note_off_c, 4, 55, 1006, 100976, Note_off_c, 4, 58, 1006, 100976, Note_off_c, 4, 62, 1006, 101088, Note_on_c, 4, 53, 1006, 101120, Note_off_c, 4, 53, 1006, 101184, Note_on_c, 4, 55, 1006, 101184, Note_on_c, 4, 62, 1006, 101184, Note_on_c, 4, 58, 1006, 101216, Note_off_c, 4, 58, 1006, 101216, Note_off_c, 4, 62, 1006, 101216, Note_off_c, 4, 55, 1006, 101280, Note_on_c, 4, 53, 1006, 101312, Note_off_c, 4, 53, 1006, 101328, Note_on_c, 4, 62, 1006, 101328, Note_on_c, 4, 58, 1006, 101328, Note_on_c, 4, 55, 1006, 101360, Note_off_c, 4, 55, 1006, 101360, Note_off_c, 4, 58, 1006, 101360, Note_off_c, 4, 62, 1006, 101472, Note_on_c, 4, 53, 1006, 101504, Note_off_c, 4, 53, 1006, 101568, Note_on_c, 4, 55, 1006, 101568, Note_on_c, 4, 62, 1006, 101568, Note_on_c, 4, 58, 1006, 101600, Note_off_c, 4, 58, 1006, 101600, Note_off_c, 4, 62, 1006, 101600, Note_off_c, 4, 55, 1006, 101664, Note_on_c, 4, 53, 1006, 101696, Note_off_c, 4, 53, 1006, 101712, Note_on_c, 4, 62, 1006, 101712, Note_on_c, 4, 58, 1006, 101712, Note_on_c, 4, 55, 1006, 101744, Note_off_c, 4, 55, 1006, 101744, Note_off_c, 4, 58, 1006, 101744, Note_off_c, 4, 62, 1006, 101856, Note_on_c, 4, 53, 1006, 101888, Note_off_c, 4, 53, 1006, 101952, Note_on_c, 4, 55, 1006, 101952, Note_on_c, 4, 62, 1006, 101952, Note_on_c, 4, 58, 1006, 101984, Note_off_c, 4, 58, 1006, 101984, Note_off_c, 4, 62, 1006, 101984, Note_off_c, 4, 55, 1006, 102048, Note_on_c, 4, 53, 1006, 102080, Note_off_c, 4, 53, 1006, 102096, Note_on_c, 4, 62, 1006, 102096, Note_on_c, 4, 58, 1006, 102096, Note_on_c, 4, 55, 1006, 102128, Note_off_c, 4, 55, 1006, 102128, Note_off_c, 4, 58, 1006, 102128, Note_off_c, 4, 62, 1006, 102240, Note_on_c, 4, 53, 1006, 102272, Note_off_c, 4, 53, 1006, 102336, Note_on_c, 4, 55, 1006, 102336, Note_on_c, 4, 62, 1006, 102336, Note_on_c, 4, 58, 1006, 102368, Note_off_c, 4, 58, 1006, 102368, Note_off_c, 4, 62, 1006, 102368, Note_off_c, 4, 55, 1006, 102432, Note_on_c, 4, 53, 1006, 102464, Note_off_c, 4, 53, 1006, 102480, Note_on_c, 4, 62, 1006, 102480, Note_on_c, 4, 58, 1006, 102480, Note_on_c, 4, 55, 1006, 102512, Note_off_c, 4, 55, 1006, 102512, Note_off_c, 4, 58, 1006, 102512, Note_off_c, 4, 62, 1006, 102624, Note_on_c, 4, 53, 1006, 102656, Note_off_c, 4, 53, 1006, 102720, Note_on_c, 4, 55, 1006, 102720, Note_on_c, 4, 62, 1006, 102720, Note_on_c, 4, 58, 1006, 102752, Note_off_c, 4, 58, 1006, 102752, Note_off_c, 4, 62, 1006, 102752, Note_off_c, 4, 55, 1006, 102816, Note_on_c, 4, 53, 1006, 102848, Note_off_c, 4, 53, 1006, 102864, Note_on_c, 4, 62, 1006, 102864, Note_on_c, 4, 58, 1006, 102864, Note_on_c, 4, 55, 1006, 102896, Note_off_c, 4, 55, 1006, 102896, Note_off_c, 4, 58, 1006, 102896, Note_off_c, 4, 62, 1006, 103008, Note_on_c, 4, 53, 1006, 103040, Note_off_c, 4, 53, 1006, 103104, Note_on_c, 4, 55, 1006, 103104, Note_on_c, 4, 62, 1006, 103104, Note_on_c, 4, 58, 1006, 103136, Note_off_c, 4, 58, 1006, 103136, Note_off_c, 4, 62, 1006, 103136, Note_off_c, 4, 55, 1006, 103200, Note_on_c, 4, 53, 1006, 103232, Note_off_c, 4, 53, 1006, 103248, Note_on_c, 4, 62, 1006, 103248, Note_on_c, 4, 58, 1006, 103248, Note_on_c, 4, 55, 1006, 103280, Note_off_c, 4, 55, 1006, 103280, Note_off_c, 4, 58, 1006, 103280, Note_off_c, 4, 62, 1006, 103392, Note_on_c, 4, 53, 1006, 103424, Note_off_c, 4, 53, 1006, 103488, Note_on_c, 4, 55, 1006, 103488, Note_on_c, 4, 62, 1006, 103488, Note_on_c, 4, 58, 1006, 103520, Note_off_c, 4, 58, 1006, 103520, Note_off_c, 4, 62, 1006, 103520, Note_off_c, 4, 55, 1006, 103584, Note_on_c, 4, 53, 1006, 103616, Note_off_c, 4, 53, 1006, 103632, Note_on_c, 4, 62, 1006, 103632, Note_on_c, 4, 58, 1006, 103632, Note_on_c, 4, 55, 1006, 103664, Note_off_c, 4, 55, 1006, 103664, Note_off_c, 4, 58, 1006, 103664, Note_off_c, 4, 62, 1006, 103776, Note_on_c, 4, 53, 1006, 103808, Note_off_c, 4, 53, 1006, 103872, Note_on_c, 4, 65, 1006, 103872, Note_on_c, 4, 60, 1006, 103872, Note_on_c, 4, 57, 1006, 103904, Note_off_c, 4, 57, 1006, 103904, Note_off_c, 4, 60, 1006, 103904, Note_off_c, 4, 65, 1006, 103968, Note_on_c, 4, 53, 1006, 104000, Note_off_c, 4, 53, 1006, 104016, Note_on_c, 4, 60, 1006, 104016, Note_on_c, 4, 57, 1006, 104016, Note_on_c, 4, 65, 1006, 104048, Note_off_c, 4, 65, 1006, 104048, Note_off_c, 4, 57, 1006, 104048, Note_off_c, 4, 60, 1006, 104160, Note_on_c, 4, 53, 1006, 104192, Note_off_c, 4, 53, 1006, 104256, Note_on_c, 4, 65, 1006, 104256, Note_on_c, 4, 60, 1006, 104256, Note_on_c, 4, 57, 1006, 104288, Note_off_c, 4, 57, 1006, 104288, Note_off_c, 4, 60, 1006, 104288, Note_off_c, 4, 65, 1006, 104352, Note_on_c, 4, 53, 1006, 104384, Note_off_c, 4, 53, 1006, 104400, Note_on_c, 4, 60, 1006, 104400, Note_on_c, 4, 57, 1006, 104400, Note_on_c, 4, 65, 1006, 104432, Note_off_c, 4, 65, 1006, 104432, Note_off_c, 4, 57, 1006, 104432, Note_off_c, 4, 60, 1006, 104544, Note_on_c, 4, 53, 1006, 104576, Note_off_c, 4, 53, 1006, 104640, Note_on_c, 4, 55, 1006, 104640, Note_on_c, 4, 62, 1006, 104640, Note_on_c, 4, 58, 1006, 104672, Note_off_c, 4, 58, 1006, 104672, Note_off_c, 4, 62, 1006, 104672, Note_off_c, 4, 55, 1006, 104736, Note_on_c, 4, 53, 1006, 104768, Note_off_c, 4, 53, 1006, 104784, Note_on_c, 4, 62, 1006, 104784, Note_on_c, 4, 58, 1006, 104784, Note_on_c, 4, 55, 1006, 104816, Note_off_c, 4, 55, 1006, 104816, Note_off_c, 4, 58, 1006, 104816, Note_off_c, 4, 62, 1006, 104928, Note_on_c, 4, 53, 1006, 104960, Note_off_c, 4, 53, 1006, 105024, Note_on_c, 4, 55, 1006, 105024, Note_on_c, 4, 62, 1006, 105024, Note_on_c, 4, 58, 1006, 105056, Note_off_c, 4, 58, 1006, 105056, Note_off_c, 4, 62, 1006, 105056, Note_off_c, 4, 55, 1006, 105120, Note_on_c, 4, 53, 1006, 105152, Note_off_c, 4, 53, 1006, 105168, Note_on_c, 4, 62, 1006, 105168, Note_on_c, 4, 58, 1006, 105168, Note_on_c, 4, 55, 1006, 105200, Note_off_c, 4, 55, 1006, 105200, Note_off_c, 4, 58, 1006, 105200, Note_off_c, 4, 62, 1006, 105312, Note_on_c, 4, 53, 1006, 105344, Note_off_c, 4, 53, 1006, 105408, Note_on_c, 4, 55, 1006, 105408, Note_on_c, 4, 62, 1006, 105408, Note_on_c, 4, 58, 1006, 105440, Note_off_c, 4, 58, 1006, 105440, Note_off_c, 4, 62, 1006, 105440, Note_off_c, 4, 55, 1006, 105504, Note_on_c, 4, 53, 1006, 105536, Note_off_c, 4, 53, 1006, 105552, Note_on_c, 4, 62, 1006, 105552, Note_on_c, 4, 58, 1006, 105552, Note_on_c, 4, 55, 1006, 105584, Note_off_c, 4, 55, 1006, 105584, Note_off_c, 4, 58, 1006, 105584, Note_off_c, 4, 62, 1006, 105696, Note_on_c, 4, 53, 1006, 105728, Note_off_c, 4, 53, 1006, 105792, Note_on_c, 4, 55, 1006, 105792, Note_on_c, 4, 62, 1006, 105792, Note_on_c, 4, 58, 1006, 105824, Note_off_c, 4, 58, 1006, 105824, Note_off_c, 4, 62, 1006, 105824, Note_off_c, 4, 55, 1006, 105888, Note_on_c, 4, 53, 1006, 105920, Note_off_c, 4, 53, 1006, 105936, Note_on_c, 4, 62, 1006, 105936, Note_on_c, 4, 58, 1006, 105936, Note_on_c, 4, 55, 1006, 105968, Note_off_c, 4, 55, 1006, 105968, Note_off_c, 4, 58, 1006, 105968, Note_off_c, 4, 62, 1006, 106080, Note_on_c, 4, 53, 1006, 106112, Note_off_c, 4, 53, 1006, 106176, Note_on_c, 4, 55, 1006, 106176, Note_on_c, 4, 62, 1006, 106176, Note_on_c, 4, 58, 1006, 106208, Note_off_c, 4, 58, 1006, 106208, Note_off_c, 4, 62, 1006, 106208, Note_off_c, 4, 55, 1006, 106272, Note_on_c, 4, 53, 1006, 106304, Note_off_c, 4, 53, 1006, 106320, Note_on_c, 4, 62, 1006, 106320, Note_on_c, 4, 58, 1006, 106320, Note_on_c, 4, 55, 1006, 106352, Note_off_c, 4, 55, 1006, 106352, Note_off_c, 4, 58, 1006, 106352, Note_off_c, 4, 62, 1006, 106464, Note_on_c, 4, 53, 1006, 106496, Note_off_c, 4, 53, 1006, 106560, Note_on_c, 4, 55, 1006, 106560, Note_on_c, 4, 62, 1006, 106560, Note_on_c, 4, 58, 1006, 106592, Note_off_c, 4, 58, 1006, 106592, Note_off_c, 4, 62, 1006, 106592, Note_off_c, 4, 55, 1006, 106656, Note_on_c, 4, 53, 1006, 106688, Note_off_c, 4, 53, 1006, 106704, Note_on_c, 4, 62, 1006, 106704, Note_on_c, 4, 58, 1006, 106704, Note_on_c, 4, 55, 1006, 106736, Note_off_c, 4, 55, 1006, 106736, Note_off_c, 4, 58, 1006, 106736, Note_off_c, 4, 62, 1006, 106848, Note_on_c, 4, 53, 1006, 106880, Note_off_c, 4, 53, 1006, 106944, Note_on_c, 4, 55, 1006, 106944, Note_on_c, 4, 62, 1006, 106944, Note_on_c, 4, 58, 1006, 106976, Note_off_c, 4, 58, 1006, 106976, Note_off_c, 4, 62, 1006, 106976, Note_off_c, 4, 55, 1006, 107040, Note_on_c, 4, 53, 1006, 107072, Note_off_c, 4, 53, 1006, 107088, Note_on_c, 4, 62, 1006, 107088, Note_on_c, 4, 58, 1006, 107088, Note_on_c, 4, 55, 1006, 107120, Note_off_c, 4, 55, 1006, 107120, Note_off_c, 4, 58, 1006, 107120, Note_off_c, 4, 62, 1006, 107232, Note_on_c, 4, 53, 1006, 107264, Note_off_c, 4, 53, 1006, 107328, Note_on_c, 4, 55, 1006, 107328, Note_on_c, 4, 62, 1006, 107328, Note_on_c, 4, 58, 1006, 107360, Note_off_c, 4, 58, 1006, 107360, Note_off_c, 4, 62, 1006, 107360, Note_off_c, 4, 55, 1006, 107424, Note_on_c, 4, 53, 1006, 107456, Note_off_c, 4, 53, 1006, 107472, Note_on_c, 4, 62, 1006, 107472, Note_on_c, 4, 58, 1006, 107472, Note_on_c, 4, 55, 1006, 107504, Note_off_c, 4, 55, 1006, 107504, Note_off_c, 4, 58, 1006, 107504, Note_off_c, 4, 62, 1006, 107616, Note_on_c, 4, 53, 1006, 107648, Note_off_c, 4, 53, 1006, 107712, Note_on_c, 4, 55, 1006, 107712, Note_on_c, 4, 62, 1006, 107712, Note_on_c, 4, 58, 1006, 107744, Note_off_c, 4, 58, 1006, 107744, Note_off_c, 4, 62, 1006, 107744, Note_off_c, 4, 55, 1006, 107808, Note_on_c, 4, 53, 1006, 107840, Note_off_c, 4, 53, 1006, 107856, Note_on_c, 4, 62, 1006, 107856, Note_on_c, 4, 58, 1006, 107856, Note_on_c, 4, 55, 1006, 107888, Note_off_c, 4, 55, 1006, 107888, Note_off_c, 4, 58, 1006, 107888, Note_off_c, 4, 62, 1006, 108000, Note_on_c, 4, 53, 1006, 108032, Note_off_c, 4, 53, 1006, 108096, Note_on_c, 4, 55, 1006, 108096, Note_on_c, 4, 62, 1006, 108096, Note_on_c, 4, 58, 1006, 108128, Note_off_c, 4, 58, 1006, 108128, Note_off_c, 4, 62, 1006, 108128, Note_off_c, 4, 55, 1006, 108192, Note_on_c, 4, 53, 1006, 108224, Note_off_c, 4, 53, 1006, 108240, Note_on_c, 4, 62, 1006, 108240, Note_on_c, 4, 58, 1006, 108240, Note_on_c, 4, 55, 1006, 108272, Note_off_c, 4, 55, 1006, 108272, Note_off_c, 4, 58, 1006, 108272, Note_off_c, 4, 62, 1006, 108384, Note_on_c, 4, 53, 1006, 108416, Note_off_c, 4, 53, 1006, 108480, Note_on_c, 4, 55, 1006, 108480, Note_on_c, 4, 62, 1006, 108480, Note_on_c, 4, 58, 1006, 108512, Note_off_c, 4, 58, 1006, 108512, Note_off_c, 4, 62, 1006, 108512, Note_off_c, 4, 55, 1006, 108576, Note_on_c, 4, 53, 1006, 108608, Note_off_c, 4, 53, 1006, 108624, Note_on_c, 4, 62, 1006, 108624, Note_on_c, 4, 58, 1006, 108624, Note_on_c, 4, 55, 1006, 108656, Note_off_c, 4, 55, 1006, 108656, Note_off_c, 4, 58, 1006, 108656, Note_off_c, 4, 62, 1006, 108768, Note_on_c, 4, 53, 1006, 108800, Note_off_c, 4, 53, 1006, 108864, Note_on_c, 4, 55, 1006, 108864, Note_on_c, 4, 62, 1006, 108864, Note_on_c, 4, 58, 1006, 108896, Note_off_c, 4, 58, 1006, 108896, Note_off_c, 4, 62, 1006, 108896, Note_off_c, 4, 55, 1006, 108960, Note_on_c, 4, 53, 1006, 108992, Note_off_c, 4, 53, 1006, 109008, Note_on_c, 4, 62, 1006, 109008, Note_on_c, 4, 58, 1006, 109008, Note_on_c, 4, 55, 1006, 109040, Note_off_c, 4, 55, 1006, 109040, Note_off_c, 4, 58, 1006, 109040, Note_off_c, 4, 62, 1006, 109152, Note_on_c, 4, 53, 1006, 109184, Note_off_c, 4, 53, 1006, 109248, Note_on_c, 4, 55, 1006, 109248, Note_on_c, 4, 62, 1006, 109248, Note_on_c, 4, 58, 1006, 109280, Note_off_c, 4, 58, 1006, 109280, Note_off_c, 4, 62, 1006, 109280, Note_off_c, 4, 55, 1006, 109344, Note_on_c, 4, 53, 1006, 109376, Note_off_c, 4, 53, 1006, 109392, Note_on_c, 4, 62, 1006, 109392, Note_on_c, 4, 58, 1006, 109392, Note_on_c, 4, 55, 1006, 109424, Note_off_c, 4, 55, 1006, 109424, Note_off_c, 4, 58, 1006, 109424, Note_off_c, 4, 62, 1006, 109536, Note_on_c, 4, 53, 1006, 109568, Note_off_c, 4, 53, 1006, 109632, Note_on_c, 4, 55, 1006, 109632, Note_on_c, 4, 62, 1006, 109632, Note_on_c, 4, 58, 1006, 109664, Note_off_c, 4, 58, 1006, 109664, Note_off_c, 4, 62, 1006, 109664, Note_off_c, 4, 55, 1006, 109728, Note_on_c, 4, 53, 1006, 109760, Note_off_c, 4, 53, 1006, 109776, Note_on_c, 4, 62, 1006, 109776, Note_on_c, 4, 58, 1006, 109776, Note_on_c, 4, 55, 1006, 109808, Note_off_c, 4, 55, 1006, 109808, Note_off_c, 4, 58, 1006, 109808, Note_off_c, 4, 62, 1006, 109920, Note_on_c, 4, 53, 1006, 109952, Note_off_c, 4, 53, 1006, 110016, Note_on_c, 4, 65, 1006, 110016, Note_on_c, 4, 60, 1006, 110016, Note_on_c, 4, 57, 1006, 110048, Note_off_c, 4, 57, 1006, 110048, Note_off_c, 4, 60, 1006, 110048, Note_off_c, 4, 65, 1006, 110112, Note_on_c, 4, 53, 1006, 110144, Note_off_c, 4, 53, 1006, 110160, Note_on_c, 4, 60, 1006, 110160, Note_on_c, 4, 57, 1006, 110160, Note_on_c, 4, 65, 1006, 110192, Note_off_c, 4, 65, 1006, 110192, Note_off_c, 4, 57, 1006, 110192, Note_off_c, 4, 60, 1006, 110304, Note_on_c, 4, 53, 1006, 110336, Note_off_c, 4, 53, 1006, 110400, Note_on_c, 4, 65, 1006, 110400, Note_on_c, 4, 60, 1006, 110400, Note_on_c, 4, 57, 1006, 110432, Note_off_c, 4, 57, 1006, 110432, Note_off_c, 4, 60, 1006, 110432, Note_off_c, 4, 65, 1006, 110496, Note_on_c, 4, 53, 1006, 110528, Note_off_c, 4, 53, 1006, 110544, Note_on_c, 4, 60, 1006, 110544, Note_on_c, 4, 57, 1006, 110544, Note_on_c, 4, 65, 1006, 110576, Note_off_c, 4, 65, 1006, 110576, Note_off_c, 4, 57, 1006, 110576, Note_off_c, 4, 60, 1006, 110592, Note_on_c, 4, 48, 906, 110624, Note_off_c, 4, 48, 906, 110640, Note_on_c, 4, 50, 906, 110672, Note_off_c, 4, 50, 906, 110688, Note_on_c, 4, 46, 906, 110720, Note_off_c, 4, 46, 906, 110736, Note_on_c, 4, 41, 906, 110768, Note_off_c, 4, 41, 906, 110832, Note_on_c, 4, 48, 906, 110864, Note_off_c, 4, 48, 906, 110880, Note_on_c, 4, 50, 906, 110912, Note_off_c, 4, 50, 906, 110928, Note_on_c, 4, 46, 906, 110960, Note_off_c, 4, 46, 906, 110976, Note_on_c, 4, 41, 906, 111008, Note_off_c, 4, 41, 906, 111024, Note_on_c, 4, 43, 906, 111056, Note_off_c, 4, 43, 906, 111072, Note_on_c, 4, 48, 906, 111104, Note_off_c, 4, 48, 906, 111120, Note_on_c, 4, 50, 906, 111152, Note_off_c, 4, 50, 906, 111168, Note_on_c, 4, 46, 906, 111200, Note_off_c, 4, 46, 906, 111216, Note_on_c, 4, 41, 906, 111248, Note_off_c, 4, 41, 906, 111264, Note_on_c, 4, 43, 906, 111296, Note_off_c, 4, 43, 906, 111312, Note_on_c, 4, 48, 906, 111344, Note_off_c, 4, 48, 906, 111360, Note_on_c, 4, 50, 906, 111392, Note_off_c, 4, 50, 906, 111408, Note_on_c, 4, 46, 906, 111440, Note_off_c, 4, 46, 906, 111504, Note_on_c, 4, 43, 906, 111536, Note_off_c, 4, 43, 906, 111600, Note_on_c, 4, 50, 906, 111632, Note_off_c, 4, 50, 906, 111648, Note_on_c, 4, 46, 906, 111680, Note_off_c, 4, 46, 906, 111696, Note_on_c, 4, 41, 906, 111728, Note_off_c, 4, 41, 906, 111792, Note_on_c, 4, 48, 906, 111824, Note_off_c, 4, 48, 906, 111840, Note_on_c, 4, 50, 906, 111872, Note_off_c, 4, 50, 906, 111888, Note_on_c, 4, 46, 906, 111920, Note_off_c, 4, 46, 906, 111984, Note_on_c, 4, 43, 906, 112016, Note_off_c, 4, 43, 906, 112032, Note_on_c, 4, 48, 906, 112064, Note_off_c, 4, 48, 906, 112080, Note_on_c, 4, 50, 906, 112112, Note_off_c, 4, 50, 906, 112176, Note_on_c, 4, 41, 906, 112208, Note_off_c, 4, 41, 906, 112224, Note_on_c, 4, 43, 906, 112256, Note_off_c, 4, 43, 906, 112272, Note_on_c, 4, 48, 906, 112304, Note_off_c, 4, 48, 906, 112368, Note_on_c, 4, 46, 906, 112400, Note_off_c, 4, 46, 906, 112416, Note_on_c, 4, 41, 906, 112448, Note_off_c, 4, 41, 906, 112464, Note_on_c, 4, 43, 906, 112496, Note_off_c, 4, 43, 906, 112512, Note_on_c, 4, 48, 906, 112544, Note_off_c, 4, 48, 906, 112560, Note_on_c, 4, 50, 906, 112592, Note_off_c, 4, 50, 906, 112608, Note_on_c, 4, 46, 906, 112640, Note_off_c, 4, 46, 906, 112656, Note_on_c, 4, 41, 906, 112688, Note_off_c, 4, 41, 906, 112752, Note_on_c, 4, 48, 906, 112784, Note_off_c, 4, 48, 906, 112800, Note_on_c, 4, 50, 906, 112832, Note_off_c, 4, 50, 906, 112848, Note_on_c, 4, 46, 906, 112880, Note_off_c, 4, 46, 906, 112896, Note_on_c, 4, 41, 906, 112928, Note_off_c, 4, 41, 906, 112944, Note_on_c, 4, 43, 906, 112976, Note_off_c, 4, 43, 906, 112992, Note_on_c, 4, 48, 906, 113024, Note_off_c, 4, 48, 906, 113040, Note_on_c, 4, 50, 906, 113072, Note_off_c, 4, 50, 906, 113136, Note_on_c, 4, 41, 906, 113168, Note_off_c, 4, 41, 906, 113184, Note_on_c, 4, 43, 906, 113216, Note_off_c, 4, 43, 906, 113232, Note_on_c, 4, 48, 906, 113264, Note_off_c, 4, 48, 906, 113280, Note_on_c, 4, 50, 906, 113312, Note_off_c, 4, 50, 906, 113328, Note_on_c, 4, 46, 906, 113360, Note_off_c, 4, 46, 906, 113376, Note_on_c, 4, 41, 906, 113408, Note_off_c, 4, 41, 906, 113424, Note_on_c, 4, 43, 906, 113456, Note_off_c, 4, 43, 906, 113520, Note_on_c, 4, 46, 906, 113552, Note_off_c, 4, 46, 906, 113568, Note_on_c, 4, 41, 906, 113600, Note_off_c, 4, 41, 906, 113616, Note_on_c, 4, 43, 906, 113648, Note_off_c, 4, 43, 906, 113664, Note_on_c, 4, 48, 906, 113696, Note_off_c, 4, 48, 906, 113712, Note_on_c, 4, 50, 906, 113744, Note_off_c, 4, 50, 906, 113760, Note_on_c, 4, 46, 906, 113792, Note_off_c, 4, 46, 906, 113808, Note_on_c, 4, 41, 906, 113840, Note_off_c, 4, 41, 906, 113904, Note_on_c, 4, 48, 906, 113936, Note_off_c, 4, 48, 906, 113952, Note_on_c, 4, 50, 906, 113984, Note_off_c, 4, 50, 906, 114000, Note_on_c, 4, 46, 906, 114032, Note_off_c, 4, 46, 906, 114048, Note_on_c, 4, 41, 906, 114080, Note_off_c, 4, 41, 906, 114096, Note_on_c, 4, 43, 906, 114128, Note_off_c, 4, 43, 906, 114144, Note_on_c, 4, 48, 906, 114176, Note_off_c, 4, 48, 906, 114192, Note_on_c, 4, 50, 906, 114224, Note_off_c, 4, 50, 906, 114240, Note_on_c, 4, 46, 906, 114272, Note_off_c, 4, 46, 906, 114288, Note_on_c, 4, 41, 906, 114320, Note_off_c, 4, 41, 906, 114336, Note_on_c, 4, 43, 906, 114368, Note_off_c, 4, 43, 906, 114384, Note_on_c, 4, 48, 906, 114416, Note_off_c, 4, 48, 906, 114432, Note_on_c, 4, 50, 906, 114464, Note_off_c, 4, 50, 906, 114480, Note_on_c, 4, 46, 906, 114512, Note_off_c, 4, 46, 906, 114576, Note_on_c, 4, 43, 906, 114608, Note_off_c, 4, 43, 906, 114672, Note_on_c, 4, 50, 906, 114704, Note_off_c, 4, 50, 906, 114720, Note_on_c, 4, 46, 906, 114752, Note_off_c, 4, 46, 906, 114768, Note_on_c, 4, 41, 906, 114800, Note_off_c, 4, 41, 906, 114864, Note_on_c, 4, 48, 906, 114896, Note_off_c, 4, 48, 906, 114912, Note_on_c, 4, 50, 906, 114944, Note_off_c, 4, 50, 906, 114960, Note_on_c, 4, 46, 906, 114992, Note_off_c, 4, 46, 906, 115056, Note_on_c, 4, 43, 906, 115088, Note_off_c, 4, 43, 906, 115104, Note_on_c, 4, 48, 906, 115136, Note_off_c, 4, 48, 906, 115152, Note_on_c, 4, 50, 906, 115184, Note_off_c, 4, 50, 906, 115248, Note_on_c, 4, 41, 906, 115280, Note_off_c, 4, 41, 906, 115296, Note_on_c, 4, 43, 906, 115328, Note_off_c, 4, 43, 906, 115344, Note_on_c, 4, 48, 906, 115376, Note_off_c, 4, 48, 906, 115440, Note_on_c, 4, 46, 906, 115472, Note_off_c, 4, 46, 906, 115488, Note_on_c, 4, 41, 906, 115520, Note_off_c, 4, 41, 906, 115536, Note_on_c, 4, 43, 906, 115568, Note_off_c, 4, 43, 906, 115584, Note_on_c, 4, 48, 906, 115616, Note_off_c, 4, 48, 906, 115632, Note_on_c, 4, 50, 906, 115664, Note_off_c, 4, 50, 906, 115680, Note_on_c, 4, 46, 906, 115712, Note_off_c, 4, 46, 906, 115728, Note_on_c, 4, 41, 906, 115760, Note_off_c, 4, 41, 906, 115824, Note_on_c, 4, 48, 906, 115856, Note_off_c, 4, 48, 906, 115872, Note_on_c, 4, 50, 906, 115904, Note_off_c, 4, 50, 906, 115920, Note_on_c, 4, 46, 906, 115952, Note_off_c, 4, 46, 906, 115968, Note_on_c, 4, 41, 906, 116000, Note_off_c, 4, 41, 906, 116016, Note_on_c, 4, 43, 906, 116048, Note_off_c, 4, 43, 906, 116064, Note_on_c, 4, 48, 906, 116096, Note_off_c, 4, 48, 906, 116112, Note_on_c, 4, 50, 906, 116144, Note_off_c, 4, 50, 906, 116208, Note_on_c, 4, 41, 906, 116240, Note_off_c, 4, 41, 906, 116256, Note_on_c, 4, 43, 906, 116288, Note_off_c, 4, 43, 906, 116304, Note_on_c, 4, 48, 906, 116336, Note_off_c, 4, 48, 906, 116352, Note_on_c, 4, 50, 906, 116384, Note_off_c, 4, 50, 906, 116400, Note_on_c, 4, 46, 906, 116432, Note_off_c, 4, 46, 906, 116448, Note_on_c, 4, 41, 906, 116480, Note_off_c, 4, 41, 906, 116496, Note_on_c, 4, 43, 906, 116528, Note_off_c, 4, 43, 906, 116544, Note_on_c, 4, 48, 906, 116576, Note_off_c, 4, 48, 906, 116592, Note_on_c, 4, 50, 906, 116624, Note_off_c, 4, 50, 906, 116688, Note_on_c, 4, 41, 906, 116720, Note_off_c, 4, 41, 906, 116736, Note_on_c, 4, 48, 906, 116768, Note_off_c, 4, 48, 906, 116784, Note_on_c, 4, 50, 906, 116816, Note_off_c, 4, 50, 906, 116832, Note_on_c, 4, 46, 906, 116864, Note_off_c, 4, 46, 906, 116880, Note_on_c, 4, 41, 906, 116912, Note_off_c, 4, 41, 906, 116976, Note_on_c, 4, 48, 906, 117008, Note_off_c, 4, 48, 906, 117024, Note_on_c, 4, 50, 906, 117056, Note_off_c, 4, 50, 906, 117072, Note_on_c, 4, 46, 906, 117104, Note_off_c, 4, 46, 906, 117120, Note_on_c, 4, 41, 906, 117152, Note_off_c, 4, 41, 906, 117168, Note_on_c, 4, 43, 906, 117200, Note_off_c, 4, 43, 906, 117216, Note_on_c, 4, 48, 906, 117248, Note_off_c, 4, 48, 906, 117264, Note_on_c, 4, 50, 906, 117296, Note_off_c, 4, 50, 906, 117312, Note_on_c, 4, 46, 906, 117344, Note_off_c, 4, 46, 906, 117360, Note_on_c, 4, 41, 906, 117392, Note_off_c, 4, 41, 906, 117408, Note_on_c, 4, 43, 906, 117440, Note_off_c, 4, 43, 906, 117456, Note_on_c, 4, 48, 906, 117488, Note_off_c, 4, 48, 906, 117504, Note_on_c, 4, 50, 906, 117536, Note_off_c, 4, 50, 906, 117552, Note_on_c, 4, 46, 906, 117584, Note_off_c, 4, 46, 906, 117648, Note_on_c, 4, 43, 906, 117680, Note_off_c, 4, 43, 906, 117744, Note_on_c, 4, 50, 906, 117776, Note_off_c, 4, 50, 906, 117792, Note_on_c, 4, 46, 906, 117824, Note_off_c, 4, 46, 906, 117840, Note_on_c, 4, 41, 906, 117872, Note_off_c, 4, 41, 906, 117936, Note_on_c, 4, 48, 906, 117968, Note_off_c, 4, 48, 906, 117984, Note_on_c, 4, 50, 906, 118016, Note_off_c, 4, 50, 906, 118032, Note_on_c, 4, 46, 906, 118064, Note_off_c, 4, 46, 906, 118128, Note_on_c, 4, 43, 906, 118160, Note_off_c, 4, 43, 906, 118176, Note_on_c, 4, 48, 906, 118208, Note_off_c, 4, 48, 906, 118224, Note_on_c, 4, 50, 906, 118256, Note_off_c, 4, 50, 906, 118320, Note_on_c, 4, 41, 906, 118352, Note_off_c, 4, 41, 906, 118368, Note_on_c, 4, 43, 906, 118400, Note_off_c, 4, 43, 906, 118416, Note_on_c, 4, 48, 906, 118448, Note_off_c, 4, 48, 906, 118512, Note_on_c, 4, 46, 906, 118544, Note_off_c, 4, 46, 906, 118560, Note_on_c, 4, 41, 906, 118592, Note_off_c, 4, 41, 906, 118608, Note_on_c, 4, 43, 906, 118640, Note_off_c, 4, 43, 906, 118656, Note_on_c, 4, 48, 906, 118688, Note_off_c, 4, 48, 906, 118704, Note_on_c, 4, 50, 906, 118736, Note_off_c, 4, 50, 906, 118752, Note_on_c, 4, 46, 906, 118784, Note_off_c, 4, 46, 906, 118800, Note_on_c, 4, 41, 906, 118832, Note_off_c, 4, 41, 906, 118896, Note_on_c, 4, 48, 906, 118928, Note_off_c, 4, 48, 906, 118944, Note_on_c, 4, 50, 906, 118976, Note_off_c, 4, 50, 906, 118992, Note_on_c, 4, 46, 906, 119024, Note_off_c, 4, 46, 906, 119040, Note_on_c, 4, 41, 906, 119072, Note_off_c, 4, 41, 906, 119088, Note_on_c, 4, 43, 906, 119120, Note_off_c, 4, 43, 906, 119136, Note_on_c, 4, 48, 906, 119168, Note_off_c, 4, 48, 906, 119184, Note_on_c, 4, 50, 906, 119216, Note_off_c, 4, 50, 906, 119280, Note_on_c, 4, 41, 906, 119312, Note_off_c, 4, 41, 906, 119328, Note_on_c, 4, 43, 906, 119360, Note_off_c, 4, 43, 906, 119376, Note_on_c, 4, 48, 906, 119408, Note_off_c, 4, 48, 906, 119424, Note_on_c, 4, 50, 906, 119456, Note_off_c, 4, 50, 906, 119472, Note_on_c, 4, 46, 906, 119504, Note_off_c, 4, 46, 906, 119520, Note_on_c, 4, 41, 906, 119552, Note_off_c, 4, 41, 906, 119568, Note_on_c, 4, 43, 906, 119600, Note_off_c, 4, 43, 906, 119664, Note_on_c, 4, 46, 906, 119696, Note_off_c, 4, 46, 906, 119712, Note_on_c, 4, 41, 906, 119744, Note_off_c, 4, 41, 906, 119760, Note_on_c, 4, 43, 906, 119792, Note_off_c, 4, 43, 906, 119808, Note_on_c, 4, 48, 906, 119840, Note_off_c, 4, 48, 906, 119856, Note_on_c, 4, 50, 906, 119888, Note_off_c, 4, 50, 906, 119904, Note_on_c, 4, 46, 906, 119936, Note_off_c, 4, 46, 906, 119952, Note_on_c, 4, 41, 906, 119984, Note_off_c, 4, 41, 906, 120048, Note_on_c, 4, 48, 906, 120080, Note_off_c, 4, 48, 906, 120096, Note_on_c, 4, 50, 906, 120128, Note_off_c, 4, 50, 906, 120144, Note_on_c, 4, 46, 906, 120176, Note_off_c, 4, 46, 906, 120192, Note_on_c, 4, 41, 906, 120224, Note_off_c, 4, 41, 906, 120240, Note_on_c, 4, 43, 906, 120272, Note_off_c, 4, 43, 906, 120288, Note_on_c, 4, 48, 906, 120320, Note_off_c, 4, 48, 906, 120336, Note_on_c, 4, 50, 906, 120368, Note_off_c, 4, 50, 906, 120384, Note_on_c, 4, 46, 906, 120416, Note_off_c, 4, 46, 906, 120432, Note_on_c, 4, 41, 906, 120464, Note_off_c, 4, 41, 906, 120480, Note_on_c, 4, 43, 906, 120512, Note_off_c, 4, 43, 906, 120528, Note_on_c, 4, 48, 906, 120560, Note_off_c, 4, 48, 906, 120576, Note_on_c, 4, 50, 906, 120608, Note_off_c, 4, 50, 906, 120624, Note_on_c, 4, 46, 906, 120656, Note_off_c, 4, 46, 906, 120720, Note_on_c, 4, 43, 906, 120752, Note_off_c, 4, 43, 906, 120816, Note_on_c, 4, 50, 906, 120848, Note_off_c, 4, 50, 906, 120864, Note_on_c, 4, 46, 906, 120896, Note_off_c, 4, 46, 906, 120912, Note_on_c, 4, 41, 906, 120944, Note_off_c, 4, 41, 906, 121008, Note_on_c, 4, 48, 906, 121040, Note_off_c, 4, 48, 906, 121056, Note_on_c, 4, 50, 906, 121088, Note_off_c, 4, 50, 906, 121104, Note_on_c, 4, 46, 906, 121136, Note_off_c, 4, 46, 906, 121200, Note_on_c, 4, 43, 906, 121232, Note_off_c, 4, 43, 906, 121248, Note_on_c, 4, 48, 906, 121280, Note_off_c, 4, 48, 906, 121296, Note_on_c, 4, 50, 906, 121328, Note_off_c, 4, 50, 906, 121392, Note_on_c, 4, 41, 906, 121424, Note_off_c, 4, 41, 906, 121440, Note_on_c, 4, 43, 906, 121472, Note_off_c, 4, 43, 906, 121488, Note_on_c, 4, 48, 906, 121520, Note_off_c, 4, 48, 906, 121584, Note_on_c, 4, 46, 906, 121616, Note_off_c, 4, 46, 906, 121632, Note_on_c, 4, 41, 906, 121664, Note_off_c, 4, 41, 906, 121680, Note_on_c, 4, 43, 906, 121712, Note_off_c, 4, 43, 906, 121728, Note_on_c, 4, 48, 906, 121760, Note_off_c, 4, 48, 906, 121776, Note_on_c, 4, 50, 906, 121808, Note_off_c, 4, 50, 906, 121824, Note_on_c, 4, 46, 906, 121856, Note_off_c, 4, 46, 906, 121872, Note_on_c, 4, 41, 906, 121904, Note_off_c, 4, 41, 906, 121968, Note_on_c, 4, 48, 906, 122000, Note_off_c, 4, 48, 906, 122016, Note_on_c, 4, 50, 906, 122048, Note_off_c, 4, 50, 906, 122064, Note_on_c, 4, 46, 906, 122096, Note_off_c, 4, 46, 906, 122096, End_track
7, 0, Start_track
7, 0, Text_t, "Riff Righ"
7, 2880, Control_c, 5, 0, 0
7, 2882, Control_c, 5, 32, 0
7, 2884, Program_c, 5, 7
7, 2886, Control_c, 5, 7, 100
7, 2888, Control_c, 5, 10, 112
7, 2890, Control_c, 5, 11, 80
7, 2892, Control_c, 5, 91, 40
7, 2894, Control_c, 5, 93, 0
7, 15360, Note_on_c, 5, 43, 907, 15392, Note_off_c, 5, 43, 907, 15408, Note_on_c, 5, 46, 907, 15440, Note_off_c, 5, 46, 907, 15456, Note_on_c, 5, 41, 907, 15488, Note_off_c, 5, 41, 907, 15504, Note_on_c, 5, 48, 907, 15536, Note_off_c, 5, 48, 907, 15600, Note_on_c, 5, 46, 907, 15632, Note_off_c, 5, 46, 907, 15648, Note_on_c, 5, 41, 907, 15680, Note_off_c, 5, 41, 907, 15744, Note_on_c, 5, 43, 907, 15776, Note_off_c, 5, 43, 907, 15792, Note_on_c, 5, 46, 907, 15824, Note_off_c, 5, 46, 907, 15840, Note_on_c, 5, 41, 907, 15872, Note_off_c, 5, 41, 907, 15888, Note_on_c, 5, 48, 907, 15920, Note_off_c, 5, 48, 907, 15984, Note_on_c, 5, 46, 907, 16016, Note_off_c, 5, 46, 907, 16032, Note_on_c, 5, 41, 907, 16064, Note_off_c, 5, 41, 907, 16128, Note_on_c, 5, 43, 907, 16160, Note_off_c, 5, 43, 907, 16176, Note_on_c, 5, 46, 907, 16208, Note_off_c, 5, 46, 907, 16224, Note_on_c, 5, 41, 907, 16256, Note_off_c, 5, 41, 907, 16272, Note_on_c, 5, 48, 907, 16304, Note_off_c, 5, 48, 907, 16368, Note_on_c, 5, 46, 907, 16400, Note_off_c, 5, 46, 907, 16416, Note_on_c, 5, 41, 907, 16448, Note_off_c, 5, 41, 907, 16512, Note_on_c, 5, 43, 907, 16544, Note_off_c, 5, 43, 907, 16560, Note_on_c, 5, 46, 907, 16592, Note_off_c, 5, 46, 907, 16608, Note_on_c, 5, 41, 907, 16640, Note_off_c, 5, 41, 907, 16656, Note_on_c, 5, 48, 907, 16688, Note_off_c, 5, 48, 907, 16752, Note_on_c, 5, 46, 907, 16784, Note_off_c, 5, 46, 907, 16800, Note_on_c, 5, 41, 907, 16832, Note_off_c, 5, 41, 907, 16896, Note_on_c, 5, 58, 907, 16928, Note_off_c, 5, 58, 907, 16944, Note_on_c, 5, 60, 907, 16976, Note_off_c, 5, 60, 907, 16992, Note_on_c, 5, 55, 907, 17024, Note_off_c, 5, 55, 907, 17040, Note_on_c, 5, 53, 907, 17072, Note_off_c, 5, 53, 907, 17088, Note_on_c, 5, 58, 907, 17120, Note_off_c, 5, 58, 907, 17136, Note_on_c, 5, 60, 907, 17168, Note_off_c, 5, 60, 907, 17184, Note_on_c, 5, 55, 907, 17216, Note_off_c, 5, 55, 907, 17232, Note_on_c, 5, 53, 907, 17264, Note_off_c, 5, 53, 907, 17280, Note_on_c, 5, 58, 907, 17312, Note_off_c, 5, 58, 907, 17328, Note_on_c, 5, 60, 907, 17360, Note_off_c, 5, 60, 907, 17376, Note_on_c, 5, 55, 907, 17408, Note_off_c, 5, 55, 907, 17424, Note_on_c, 5, 53, 907, 17456, Note_off_c, 5, 53, 907, 17472, Note_on_c, 5, 58, 907, 17504, Note_off_c, 5, 58, 907, 17520, Note_on_c, 5, 60, 907, 17552, Note_off_c, 5, 60, 907, 17568, Note_on_c, 5, 55, 907, 17600, Note_off_c, 5, 55, 907, 17616, Note_on_c, 5, 53, 907, 17648, Note_off_c, 5, 53, 907, 17664, Note_on_c, 5, 58, 907, 17696, Note_off_c, 5, 58, 907, 17712, Note_on_c, 5, 60, 907, 17744, Note_off_c, 5, 60, 907, 17760, Note_on_c, 5, 55, 907, 17792, Note_off_c, 5, 55, 907, 17808, Note_on_c, 5, 53, 907, 17840, Note_off_c, 5, 53, 907, 17856, Note_on_c, 5, 58, 907, 17888, Note_off_c, 5, 58, 907, 17904, Note_on_c, 5, 60, 907, 17936, Note_off_c, 5, 60, 907, 17952, Note_on_c, 5, 55, 907, 17984, Note_off_c, 5, 55, 907, 18000, Note_on_c, 5, 53, 907, 18032, Note_off_c, 5, 53, 907, 18048, Note_on_c, 5, 58, 907, 18080, Note_off_c, 5, 58, 907, 18096, Note_on_c, 5, 60, 907, 18128, Note_off_c, 5, 60, 907, 18144, Note_on_c, 5, 55, 907, 18176, Note_off_c, 5, 55, 907, 18192, Note_on_c, 5, 53, 907, 18224, Note_off_c, 5, 53, 907, 18240, Note_on_c, 5, 58, 907, 18272, Note_off_c, 5, 58, 907, 18288, Note_on_c, 5, 60, 907, 18320, Note_off_c, 5, 60, 907, 18336, Note_on_c, 5, 55, 907, 18368, Note_off_c, 5, 55, 907, 18384, Note_on_c, 5, 53, 907, 18416, Note_off_c, 5, 53, 907, 18432, Note_on_c, 5, 43, 907, 18464, Note_off_c, 5, 43, 907, 18480, Note_on_c, 5, 41, 907, 18512, Note_off_c, 5, 41, 907, 18528, Note_on_c, 5, 46, 907, 18560, Note_off_c, 5, 46, 907, 18576, Note_on_c, 5, 43, 907, 18608, Note_off_c, 5, 43, 907, 18672, Note_on_c, 5, 41, 907, 18704, Note_off_c, 5, 41, 907, 18720, Note_on_c, 5, 46, 907, 18752, Note_off_c, 5, 46, 907, 18768, Note_on_c, 5, 43, 907, 18800, Note_off_c, 5, 43, 907, 18816, Note_on_c, 5, 43, 907, 18848, Note_off_c, 5, 43, 907, 18864, Note_on_c, 5, 41, 907, 18896, Note_off_c, 5, 41, 907, 18912, Note_on_c, 5, 46, 907, 18944, Note_off_c, 5, 46, 907, 18960, Note_on_c, 5, 43, 907, 18992, Note_off_c, 5, 43, 907, 19056, Note_on_c, 5, 41, 907, 19088, Note_off_c, 5, 41, 907, 19104, Note_on_c, 5, 46, 907, 19136, Note_off_c, 5, 46, 907, 19152, Note_on_c, 5, 43, 907, 19184, Note_off_c, 5, 43, 907, 19200, Note_on_c, 5, 43, 907, 19232, Note_off_c, 5, 43, 907, 19248, Note_on_c, 5, 41, 907, 19280, Note_off_c, 5, 41, 907, 19296, Note_on_c, 5, 46, 907, 19328, Note_off_c, 5, 46, 907, 19344, Note_on_c, 5, 43, 907, 19376, Note_off_c, 5, 43, 907, 19440, Note_on_c, 5, 41, 907, 19472, Note_off_c, 5, 41, 907, 19488, Note_on_c, 5, 46, 907, 19520, Note_off_c, 5, 46, 907, 19536, Note_on_c, 5, 43, 907, 19568, Note_off_c, 5, 43, 907, 19584, Note_on_c, 5, 43, 907, 19616, Note_off_c, 5, 43, 907, 19632, Note_on_c, 5, 41, 907, 19664, Note_off_c, 5, 41, 907, 19680, Note_on_c, 5, 46, 907, 19712, Note_off_c, 5, 46, 907, 19728, Note_on_c, 5, 43, 907, 19760, Note_off_c, 5, 43, 907, 19824, Note_on_c, 5, 41, 907, 19856, Note_off_c, 5, 41, 907, 19872, Note_on_c, 5, 46, 907, 19904, Note_off_c, 5, 46, 907, 19920, Note_on_c, 5, 43, 907, 19952, Note_off_c, 5, 43, 907, 19968, Note_on_c, 5, 58, 907, 20000, Note_off_c, 5, 58, 907, 20016, Note_on_c, 5, 53, 907, 20048, Note_off_c, 5, 53, 907, 20064, Note_on_c, 5, 55, 907, 20096, Note_off_c, 5, 55, 907, 20112, Note_on_c, 5, 60, 907, 20144, Note_off_c, 5, 60, 907, 20160, Note_on_c, 5, 58, 907, 20192, Note_off_c, 5, 58, 907, 20208, Note_on_c, 5, 53, 907, 20240, Note_off_c, 5, 53, 907, 20256, Note_on_c, 5, 55, 907, 20288, Note_off_c, 5, 55, 907, 20304, Note_on_c, 5, 60, 907, 20336, Note_off_c, 5, 60, 907, 20352, Note_on_c, 5, 58, 907, 20384, Note_off_c, 5, 58, 907, 20400, Note_on_c, 5, 53, 907, 20432, Note_off_c, 5, 53, 907, 20448, Note_on_c, 5, 55, 907, 20480, Note_off_c, 5, 55, 907, 20496, Note_on_c, 5, 60, 907, 20528, Note_off_c, 5, 60, 907, 20544, Note_on_c, 5, 58, 907, 20576, Note_off_c, 5, 58, 907, 20592, Note_on_c, 5, 53, 907, 20624, Note_off_c, 5, 53, 907, 20640, Note_on_c, 5, 55, 907, 20672, Note_off_c, 5, 55, 907, 20688, Note_on_c, 5, 60, 907, 20720, Note_off_c, 5, 60, 907, 20736, Note_on_c, 5, 58, 907, 20768, Note_off_c, 5, 58, 907, 20784, Note_on_c, 5, 53, 907, 20816, Note_off_c, 5, 53, 907, 20832, Note_on_c, 5, 55, 907, 20864, Note_off_c, 5, 55, 907, 20880, Note_on_c, 5, 60, 907, 20912, Note_off_c, 5, 60, 907, 20928, Note_on_c, 5, 58, 907, 20960, Note_off_c, 5, 58, 907, 20976, Note_on_c, 5, 53, 907, 21008, Note_off_c, 5, 53, 907, 21024, Note_on_c, 5, 55, 907, 21056, Note_off_c, 5, 55, 907, 21072, Note_on_c, 5, 60, 907, 21104, Note_off_c, 5, 60, 907, 21120, Note_on_c, 5, 58, 907, 21152, Note_off_c, 5, 58, 907, 21168, Note_on_c, 5, 53, 907, 21200, Note_off_c, 5, 53, 907, 21216, Note_on_c, 5, 55, 907, 21248, Note_off_c, 5, 55, 907, 21264, Note_on_c, 5, 60, 907, 21296, Note_off_c, 5, 60, 907, 21312, Note_on_c, 5, 58, 907, 21344, Note_off_c, 5, 58, 907, 21360, Note_on_c, 5, 53, 907, 21392, Note_off_c, 5, 53, 907, 21408, Note_on_c, 5, 55, 907, 21440, Note_off_c, 5, 55, 907, 21456, Note_on_c, 5, 60, 907, 21488, Note_off_c, 5, 60, 907, 21504, Note_on_c, 5, 43, 907, 21536, Note_off_c, 5, 43, 907, 21552, Note_on_c, 5, 46, 907, 21584, Note_off_c, 5, 46, 907, 21600, Note_on_c, 5, 41, 907, 21632, Note_off_c, 5, 41, 907, 21648, Note_on_c, 5, 48, 907, 21680, Note_off_c, 5, 48, 907, 21744, Note_on_c, 5, 46, 907, 21776, Note_off_c, 5, 46, 907, 21792, Note_on_c, 5, 41, 907, 21824, Note_off_c, 5, 41, 907, 21888, Note_on_c, 5, 43, 907, 21920, Note_off_c, 5, 43, 907, 21936, Note_on_c, 5, 46, 907, 21968, Note_off_c, 5, 46, 907, 21984, Note_on_c, 5, 41, 907, 22016, Note_off_c, 5, 41, 907, 22032, Note_on_c, 5, 48, 907, 22064, Note_off_c, 5, 48, 907, 22128, Note_on_c, 5, 46, 907, 22160, Note_off_c, 5, 46, 907, 22176, Note_on_c, 5, 41, 907, 22208, Note_off_c, 5, 41, 907, 22272, Note_on_c, 5, 43, 907, 22304, Note_off_c, 5, 43, 907, 22320, Note_on_c, 5, 46, 907, 22352, Note_off_c, 5, 46, 907, 22368, Note_on_c, 5, 41, 907, 22400, Note_off_c, 5, 41, 907, 22416, Note_on_c, 5, 48, 907, 22448, Note_off_c, 5, 48, 907, 22512, Note_on_c, 5, 46, 907, 22544, Note_off_c, 5, 46, 907, 22560, Note_on_c, 5, 41, 907, 22592, Note_off_c, 5, 41, 907, 22656, Note_on_c, 5, 43, 907, 22688, Note_off_c, 5, 43, 907, 22704, Note_on_c, 5, 46, 907, 22736, Note_off_c, 5, 46, 907, 22752, Note_on_c, 5, 41, 907, 22784, Note_off_c, 5, 41, 907, 22800, Note_on_c, 5, 48, 907, 22832, Note_off_c, 5, 48, 907, 22896, Note_on_c, 5, 46, 907, 22928, Note_off_c, 5, 46, 907, 22944, Note_on_c, 5, 41, 907, 22976, Note_off_c, 5, 41, 907, 23040, Note_on_c, 5, 58, 907, 23072, Note_off_c, 5, 58, 907, 23088, Note_on_c, 5, 60, 907, 23120, Note_off_c, 5, 60, 907, 23136, Note_on_c, 5, 55, 907, 23168, Note_off_c, 5, 55, 907, 23184, Note_on_c, 5, 53, 907, 23216, Note_off_c, 5, 53, 907, 23232, Note_on_c, 5, 58, 907, 23264, Note_off_c, 5, 58, 907, 23280, Note_on_c, 5, 60, 907, 23312, Note_off_c, 5, 60, 907, 23328, Note_on_c, 5, 55, 907, 23360, Note_off_c, 5, 55, 907, 23376, Note_on_c, 5, 53, 907, 23408, Note_off_c, 5, 53, 907, 23424, Note_on_c, 5, 58, 907, 23456, Note_off_c, 5, 58, 907, 23472, Note_on_c, 5, 60, 907, 23504, Note_off_c, 5, 60, 907, 23520, Note_on_c, 5, 55, 907, 23552, Note_off_c, 5, 55, 907, 23568, Note_on_c, 5, 53, 907, 23600, Note_off_c, 5, 53, 907, 23616, Note_on_c, 5, 58, 907, 23648, Note_off_c, 5, 58, 907, 23664, Note_on_c, 5, 60, 907, 23696, Note_off_c, 5, 60, 907, 23712, Note_on_c, 5, 55, 907, 23744, Note_off_c, 5, 55, 907, 23760, Note_on_c, 5, 53, 907, 23792, Note_off_c, 5, 53, 907, 23808, Note_on_c, 5, 58, 907, 23840, Note_off_c, 5, 58, 907, 23856, Note_on_c, 5, 60, 907, 23888, Note_off_c, 5, 60, 907, 23904, Note_on_c, 5, 55, 907, 23936, Note_off_c, 5, 55, 907, 23952, Note_on_c, 5, 53, 907, 23984, Note_off_c, 5, 53, 907, 24000, Note_on_c, 5, 58, 907, 24032, Note_off_c, 5, 58, 907, 24048, Note_on_c, 5, 60, 907, 24080, Note_off_c, 5, 60, 907, 24096, Note_on_c, 5, 55, 907, 24128, Note_off_c, 5, 55, 907, 24144, Note_on_c, 5, 53, 907, 24176, Note_off_c, 5, 53, 907, 24192, Note_on_c, 5, 58, 907, 24224, Note_off_c, 5, 58, 907, 24240, Note_on_c, 5, 60, 907, 24272, Note_off_c, 5, 60, 907, 24288, Note_on_c, 5, 55, 907, 24320, Note_off_c, 5, 55, 907, 24336, Note_on_c, 5, 53, 907, 24368, Note_off_c, 5, 53, 907, 24384, Note_on_c, 5, 58, 907, 24416, Note_off_c, 5, 58, 907, 24432, Note_on_c, 5, 60, 907, 24464, Note_off_c, 5, 60, 907, 24480, Note_on_c, 5, 55, 907, 24512, Note_off_c, 5, 55, 907, 24528, Note_on_c, 5, 53, 907, 24560, Note_off_c, 5, 53, 907, 24576, Note_on_c, 5, 43, 907, 24608, Note_off_c, 5, 43, 907, 24624, Note_on_c, 5, 41, 907, 24656, Note_off_c, 5, 41, 907, 24672, Note_on_c, 5, 46, 907, 24704, Note_off_c, 5, 46, 907, 24720, Note_on_c, 5, 43, 907, 24752, Note_off_c, 5, 43, 907, 24816, Note_on_c, 5, 41, 907, 24848, Note_off_c, 5, 41, 907, 24864, Note_on_c, 5, 46, 907, 24896, Note_off_c, 5, 46, 907, 24912, Note_on_c, 5, 43, 907, 24944, Note_off_c, 5, 43, 907, 24960, Note_on_c, 5, 43, 907, 24992, Note_off_c, 5, 43, 907, 25008, Note_on_c, 5, 41, 907, 25040, Note_off_c, 5, 41, 907, 25056, Note_on_c, 5, 46, 907, 25088, Note_off_c, 5, 46, 907, 25104, Note_on_c, 5, 43, 907, 25136, Note_off_c, 5, 43, 907, 25200, Note_on_c, 5, 41, 907, 25232, Note_off_c, 5, 41, 907, 25248, Note_on_c, 5, 46, 907, 25280, Note_off_c, 5, 46, 907, 25296, Note_on_c, 5, 43, 907, 25328, Note_off_c, 5, 43, 907, 25344, Note_on_c, 5, 43, 907, 25376, Note_off_c, 5, 43, 907, 25392, Note_on_c, 5, 41, 907, 25424, Note_off_c, 5, 41, 907, 25440, Note_on_c, 5, 46, 907, 25472, Note_off_c, 5, 46, 907, 25488, Note_on_c, 5, 43, 907, 25520, Note_off_c, 5, 43, 907, 25584, Note_on_c, 5, 41, 907, 25616, Note_off_c, 5, 41, 907, 25632, Note_on_c, 5, 46, 907, 25664, Note_off_c, 5, 46, 907, 25680, Note_on_c, 5, 43, 907, 25712, Note_off_c, 5, 43, 907, 25728, Note_on_c, 5, 43, 907, 25760, Note_off_c, 5, 43, 907, 25776, Note_on_c, 5, 41, 907, 25808, Note_off_c, 5, 41, 907, 25824, Note_on_c, 5, 46, 907, 25856, Note_off_c, 5, 46, 907, 25872, Note_on_c, 5, 43, 907, 25904, Note_off_c, 5, 43, 907, 25968, Note_on_c, 5, 41, 907, 26000, Note_off_c, 5, 41, 907, 26016, Note_on_c, 5, 46, 907, 26048, Note_off_c, 5, 46, 907, 26064, Note_on_c, 5, 43, 907, 26096, Note_off_c, 5, 43, 907, 26112, Note_on_c, 5, 58, 907, 26144, Note_off_c, 5, 58, 907, 26160, Note_on_c, 5, 53, 907, 26192, Note_off_c, 5, 53, 907, 26208, Note_on_c, 5, 55, 907, 26240, Note_off_c, 5, 55, 907, 26256, Note_on_c, 5, 60, 907, 26288, Note_off_c, 5, 60, 907, 26304, Note_on_c, 5, 58, 907, 26336, Note_off_c, 5, 58, 907, 26352, Note_on_c, 5, 53, 907, 26384, Note_off_c, 5, 53, 907, 26400, Note_on_c, 5, 55, 907, 26432, Note_off_c, 5, 55, 907, 26448, Note_on_c, 5, 60, 907, 26480, Note_off_c, 5, 60, 907, 26496, Note_on_c, 5, 58, 907, 26528, Note_off_c, 5, 58, 907, 26544, Note_on_c, 5, 53, 907, 26576, Note_off_c, 5, 53, 907, 26592, Note_on_c, 5, 55, 907, 26624, Note_off_c, 5, 55, 907, 26640, Note_on_c, 5, 60, 907, 26672, Note_off_c, 5, 60, 907, 26688, Note_on_c, 5, 58, 907, 26720, Note_off_c, 5, 58, 907, 26736, Note_on_c, 5, 53, 907, 26768, Note_off_c, 5, 53, 907, 26784, Note_on_c, 5, 55, 907, 26816, Note_off_c, 5, 55, 907, 26832, Note_on_c, 5, 60, 907, 26864, Note_off_c, 5, 60, 907, 26880, Note_on_c, 5, 58, 907, 26912, Note_off_c, 5, 58, 907, 26928, Note_on_c, 5, 53, 907, 26960, Note_off_c, 5, 53, 907, 26976, Note_on_c, 5, 55, 907, 27008, Note_off_c, 5, 55, 907, 27024, Note_on_c, 5, 60, 907, 27056, Note_off_c, 5, 60, 907, 27072, Note_on_c, 5, 58, 907, 27104, Note_off_c, 5, 58, 907, 27120, Note_on_c, 5, 53, 907, 27152, Note_off_c, 5, 53, 907, 27168, Note_on_c, 5, 55, 907, 27200, Note_off_c, 5, 55, 907, 27216, Note_on_c, 5, 60, 907, 27248, Note_off_c, 5, 60, 907, 27264, Note_on_c, 5, 58, 907, 27296, Note_off_c, 5, 58, 907, 27312, Note_on_c, 5, 53, 907, 27344, Note_off_c, 5, 53, 907, 27360, Note_on_c, 5, 55, 907, 27392, Note_off_c, 5, 55, 907, 27408, Note_on_c, 5, 60, 907, 27440, Note_off_c, 5, 60, 907, 27456, Note_on_c, 5, 58, 907, 27488, Note_off_c, 5, 58, 907, 27504, Note_on_c, 5, 53, 907, 27536, Note_off_c, 5, 53, 907, 27552, Note_on_c, 5, 55, 907, 27584, Note_off_c, 5, 55, 907, 27600, Note_on_c, 5, 60, 907, 27632, Note_off_c, 5, 60, 907, 27792, Note_on_c, 5, 41, 607, 27824, Note_off_c, 5, 41, 607, 27888, Note_on_c, 5, 43, 607, 27888, Note_on_c, 5, 50, 607, 27888, Note_on_c, 5, 46, 607, 27920, Note_off_c, 5, 46, 607, 27920, Note_off_c, 5, 50, 607, 27920, Note_off_c, 5, 43, 607, 27984, Note_on_c, 5, 41, 607, 28016, Note_off_c, 5, 41, 607, 28176, Note_on_c, 5, 41, 607, 28208, Note_off_c, 5, 41, 607, 28272, Note_on_c, 5, 43, 607, 28272, Note_on_c, 5, 50, 607, 28272, Note_on_c, 5, 46, 607, 28304, Note_off_c, 5, 46, 607, 28304, Note_off_c, 5, 50, 607, 28304, Note_off_c, 5, 43, 607, 28368, Note_on_c, 5, 41, 607, 28400, Note_off_c, 5, 41, 607, 28560, Note_on_c, 5, 41, 607, 28592, Note_off_c, 5, 41, 607, 28656, Note_on_c, 5, 43, 607, 28656, Note_on_c, 5, 50, 607, 28656, Note_on_c, 5, 46, 607, 28688, Note_off_c, 5, 46, 607, 28688, Note_off_c, 5, 50, 607, 28688, Note_off_c, 5, 43, 607, 28752, Note_on_c, 5, 41, 607, 28784, Note_off_c, 5, 41, 607, 28944, Note_on_c, 5, 41, 607, 28976, Note_off_c, 5, 41, 607, 29040, Note_on_c, 5, 43, 607, 29040, Note_on_c, 5, 50, 607, 29040, Note_on_c, 5, 46, 607, 29072, Note_off_c, 5, 46, 607, 29072, Note_off_c, 5, 50, 607, 29072, Note_off_c, 5, 43, 607, 29136, Note_on_c, 5, 41, 607, 29168, Note_off_c, 5, 41, 607, 29328, Note_on_c, 5, 41, 607, 29360, Note_off_c, 5, 41, 607, 29424, Note_on_c, 5, 43, 607, 29424, Note_on_c, 5, 50, 607, 29424, Note_on_c, 5, 46, 607, 29456, Note_off_c, 5, 46, 607, 29456, Note_off_c, 5, 50, 607, 29456, Note_off_c, 5, 43, 607, 29520, Note_on_c, 5, 41, 607, 29552, Note_off_c, 5, 41, 607, 29712, Note_on_c, 5, 41, 607, 29744, Note_off_c, 5, 41, 607, 29808, Note_on_c, 5, 43, 607, 29808, Note_on_c, 5, 50, 607, 29808, Note_on_c, 5, 46, 607, 29840, Note_off_c, 5, 46, 607, 29840, Note_off_c, 5, 50, 607, 29840, Note_off_c, 5, 43, 607, 29904, Note_on_c, 5, 41, 607, 29936, Note_off_c, 5, 41, 607, 30096, Note_on_c, 5, 41, 607, 30128, Note_off_c, 5, 41, 607, 30192, Note_on_c, 5, 43, 607, 30192, Note_on_c, 5, 50, 607, 30192, Note_on_c, 5, 46, 607, 30224, Note_off_c, 5, 46, 607, 30224, Note_off_c, 5, 50, 607, 30224, Note_off_c, 5, 43, 607, 30288, Note_on_c, 5, 41, 607, 30320, Note_off_c, 5, 41, 607, 30480, Note_on_c, 5, 41, 607, 30512, Note_off_c, 5, 41, 607, 30576, Note_on_c, 5, 43, 607, 30576, Note_on_c, 5, 50, 607, 30576, Note_on_c, 5, 46, 607, 30608, Note_off_c, 5, 46, 607, 30608, Note_off_c, 5, 50, 607, 30608, Note_off_c, 5, 43, 607, 30672, Note_on_c, 5, 41, 607, 30704, Note_off_c, 5, 41, 607, 30864, Note_on_c, 5, 41, 607, 30896, Note_off_c, 5, 41, 607, 30960, Note_on_c, 5, 43, 607, 30960, Note_on_c, 5, 50, 607, 30960, Note_on_c, 5, 46, 607, 30992, Note_off_c, 5, 46, 607, 30992, Note_off_c, 5, 50, 607, 30992, Note_off_c, 5, 43, 607, 31056, Note_on_c, 5, 41, 607, 31088, Note_off_c, 5, 41, 607, 31248, Note_on_c, 5, 41, 607, 31280, Note_off_c, 5, 41, 607, 31344, Note_on_c, 5, 43, 607, 31344, Note_on_c, 5, 50, 607, 31344, Note_on_c, 5, 46, 607, 31376, Note_off_c, 5, 46, 607, 31376, Note_off_c, 5, 50, 607, 31376, Note_off_c, 5, 43, 607, 31440, Note_on_c, 5, 41, 607, 31472, Note_off_c, 5, 41, 607, 31632, Note_on_c, 5, 41, 607, 31664, Note_off_c, 5, 41, 607, 31728, Note_on_c, 5, 43, 607, 31728, Note_on_c, 5, 50, 607, 31728, Note_on_c, 5, 46, 607, 31760, Note_off_c, 5, 46, 607, 31760, Note_off_c, 5, 50, 607, 31760, Note_off_c, 5, 43, 607, 31824, Note_on_c, 5, 41, 607, 31856, Note_off_c, 5, 41, 607, 32016, Note_on_c, 5, 41, 607, 32048, Note_off_c, 5, 41, 607, 32112, Note_on_c, 5, 43, 607, 32112, Note_on_c, 5, 50, 607, 32112, Note_on_c, 5, 46, 607, 32144, Note_off_c, 5, 46, 607, 32144, Note_off_c, 5, 50, 607, 32144, Note_off_c, 5, 43, 607, 32208, Note_on_c, 5, 41, 607, 32240, Note_off_c, 5, 41, 607, 32304, Note_on_c, 5, 53, 707, 32336, Note_off_c, 5, 53, 707, 32400, Note_on_c, 5, 53, 707, 32432, Note_off_c, 5, 53, 707, 32496, Note_on_c, 5, 55, 707, 32496, Note_on_c, 5, 62, 707, 32496, Note_on_c, 5, 58, 707, 32528, Note_off_c, 5, 58, 707, 32528, Note_off_c, 5, 62, 707, 32528, Note_off_c, 5, 55, 707, 32592, Note_on_c, 5, 53, 707, 32624, Note_off_c, 5, 53, 707, 32688, Note_on_c, 5, 53, 707, 32720, Note_off_c, 5, 53, 707, 32784, Note_on_c, 5, 53, 707, 32816, Note_off_c, 5, 53, 707, 32880, Note_on_c, 5, 55, 707, 32880, Note_on_c, 5, 62, 707, 32880, Note_on_c, 5, 58, 707, 32912, Note_off_c, 5, 58, 707, 32912, Note_off_c, 5, 62, 707, 32912, Note_off_c, 5, 55, 707, 32976, Note_on_c, 5, 53, 707, 33008, Note_off_c, 5, 53, 707, 33072, Note_on_c, 5, 53, 707, 33104, Note_off_c, 5, 53, 707, 33168, Note_on_c, 5, 53, 707, 33200, Note_off_c, 5, 53, 707, 33264, Note_on_c, 5, 55, 707, 33264, Note_on_c, 5, 62, 707, 33264, Note_on_c, 5, 58, 707, 33296, Note_off_c, 5, 58, 707, 33296, Note_off_c, 5, 62, 707, 33296, Note_off_c, 5, 55, 707, 33360, Note_on_c, 5, 53, 707, 33392, Note_off_c, 5, 53, 707, 33456, Note_on_c, 5, 53, 707, 33488, Note_off_c, 5, 53, 707, 33552, Note_on_c, 5, 53, 707, 33584, Note_off_c, 5, 53, 707, 33648, Note_on_c, 5, 55, 707, 33648, Note_on_c, 5, 62, 707, 33648, Note_on_c, 5, 58, 707, 33680, Note_off_c, 5, 58, 707, 33680, Note_off_c, 5, 62, 707, 33680, Note_off_c, 5, 55, 707, 33744, Note_on_c, 5, 53, 707, 33776, Note_off_c, 5, 53, 707, 33840, Note_on_c, 5, 53, 707, 33872, Note_off_c, 5, 53, 707, 33936, Note_on_c, 5, 53, 707, 33968, Note_off_c, 5, 53, 707, 34032, Note_on_c, 5, 55, 707, 34032, Note_on_c, 5, 62, 707, 34032, Note_on_c, 5, 58, 707, 34064, Note_off_c, 5, 58, 707, 34064, Note_off_c, 5, 62, 707, 34064, Note_off_c, 5, 55, 707, 34128, Note_on_c, 5, 53, 707, 34160, Note_off_c, 5, 53, 707, 34224, Note_on_c, 5, 53, 707, 34256, Note_off_c, 5, 53, 707, 34320, Note_on_c, 5, 53, 707, 34352, Note_off_c, 5, 53, 707, 34416, Note_on_c, 5, 55, 707, 34416, Note_on_c, 5, 62, 707, 34416, Note_on_c, 5, 58, 707, 34448, Note_off_c, 5, 58, 707, 34448, Note_off_c, 5, 62, 707, 34448, Note_off_c, 5, 55, 707, 34512, Note_on_c, 5, 53, 707, 34544, Note_off_c, 5, 53, 707, 34608, Note_on_c, 5, 53, 707, 34640, Note_off_c, 5, 53, 707, 34704, Note_on_c, 5, 53, 707, 34736, Note_off_c, 5, 53, 707, 34800, Note_on_c, 5, 55, 707, 34800, Note_on_c, 5, 62, 707, 34800, Note_on_c, 5, 58, 707, 34832, Note_off_c, 5, 58, 707, 34832, Note_off_c, 5, 62, 707, 34832, Note_off_c, 5, 55, 707, 34896, Note_on_c, 5, 53, 707, 34928, Note_off_c, 5, 53, 707, 34992, Note_on_c, 5, 53, 707, 35024, Note_off_c, 5, 53, 707, 35088, Note_on_c, 5, 53, 707, 35120, Note_off_c, 5, 53, 707, 35184, Note_on_c, 5, 55, 707, 35184, Note_on_c, 5, 62, 707, 35184, Note_on_c, 5, 58, 707, 35216, Note_off_c, 5, 58, 707, 35216, Note_off_c, 5, 62, 707, 35216, Note_off_c, 5, 55, 707, 35280, Note_on_c, 5, 53, 707, 35312, Note_off_c, 5, 53, 707, 35376, Note_on_c, 5, 53, 707, 35408, Note_off_c, 5, 53, 707, 35472, Note_on_c, 5, 53, 707, 35504, Note_off_c, 5, 53, 707, 35568, Note_on_c, 5, 55, 707, 35568, Note_on_c, 5, 62, 707, 35568, Note_on_c, 5, 58, 707, 35600, Note_off_c, 5, 58, 707, 35600, Note_off_c, 5, 62, 707, 35600, Note_off_c, 5, 55, 707, 35664, Note_on_c, 5, 53, 707, 35696, Note_off_c, 5, 53, 707, 35760, Note_on_c, 5, 53, 707, 35792, Note_off_c, 5, 53, 707, 35856, Note_on_c, 5, 53, 707, 35888, Note_off_c, 5, 53, 707, 35952, Note_on_c, 5, 55, 707, 35952, Note_on_c, 5, 62, 707, 35952, Note_on_c, 5, 58, 707, 35984, Note_off_c, 5, 58, 707, 35984, Note_off_c, 5, 62, 707, 35984, Note_off_c, 5, 55, 707, 36048, Note_on_c, 5, 53, 707, 36080, Note_off_c, 5, 53, 707, 36144, Note_on_c, 5, 53, 707, 36176, Note_off_c, 5, 53, 707, 36240, Note_on_c, 5, 53, 707, 36272, Note_off_c, 5, 53, 707, 36336, Note_on_c, 5, 55, 707, 36336, Note_on_c, 5, 62, 707, 36336, Note_on_c, 5, 58, 707, 36368, Note_off_c, 5, 58, 707, 36368, Note_off_c, 5, 62, 707, 36368, Note_off_c, 5, 55, 707, 36432, Note_on_c, 5, 53, 707, 36464, Note_off_c, 5, 53, 707, 36528, Note_on_c, 5, 53, 707, 36560, Note_off_c, 5, 53, 707, 36624, Note_on_c, 5, 53, 707, 36656, Note_off_c, 5, 53, 707, 36720, Note_on_c, 5, 55, 707, 36720, Note_on_c, 5, 62, 707, 36720, Note_on_c, 5, 58, 707, 36752, Note_off_c, 5, 58, 707, 36752, Note_off_c, 5, 62, 707, 36752, Note_off_c, 5, 55, 707, 36816, Note_on_c, 5, 53, 707, 36848, Note_off_c, 5, 53, 707, 36912, Note_on_c, 5, 53, 707, 36944, Note_off_c, 5, 53, 707, 37008, Note_on_c, 5, 53, 707, 37040, Note_off_c, 5, 53, 707, 37104, Note_on_c, 5, 55, 707, 37104, Note_on_c, 5, 62, 707, 37104, Note_on_c, 5, 58, 707, 37136, Note_off_c, 5, 58, 707, 37136, Note_off_c, 5, 62, 707, 37136, Note_off_c, 5, 55, 707, 37200, Note_on_c, 5, 53, 707, 37232, Note_off_c, 5, 53, 707, 37296, Note_on_c, 5, 53, 707, 37328, Note_off_c, 5, 53, 707, 37392, Note_on_c, 5, 53, 707, 37424, Note_off_c, 5, 53, 707, 37488, Note_on_c, 5, 55, 707, 37488, Note_on_c, 5, 62, 707, 37488, Note_on_c, 5, 58, 707, 37520, Note_off_c, 5, 58, 707, 37520, Note_off_c, 5, 62, 707, 37520, Note_off_c, 5, 55, 707, 37584, Note_on_c, 5, 53, 707, 37616, Note_off_c, 5, 53, 707, 37680, Note_on_c, 5, 53, 707, 37712, Note_off_c, 5, 53, 707, 37776, Note_on_c, 5, 53, 707, 37808, Note_off_c, 5, 53, 707, 37872, Note_on_c, 5, 55, 707, 37872, Note_on_c, 5, 62, 707, 37872, Note_on_c, 5, 58, 707, 37904, Note_off_c, 5, 58, 707, 37904, Note_off_c, 5, 62, 707, 37904, Note_off_c, 5, 55, 707, 37968, Note_on_c, 5, 53, 707, 38000, Note_off_c, 5, 53, 707, 38064, Note_on_c, 5, 53, 707, 38096, Note_off_c, 5, 53, 707, 38160, Note_on_c, 5, 53, 707, 38192, Note_off_c, 5, 53, 707, 38256, Note_on_c, 5, 55, 707, 38256, Note_on_c, 5, 62, 707, 38256, Note_on_c, 5, 58, 707, 38288, Note_off_c, 5, 58, 707, 38288, Note_off_c, 5, 62, 707, 38288, Note_off_c, 5, 55, 707, 38352, Note_on_c, 5, 53, 707, 38384, Note_off_c, 5, 53, 707, 38448, Note_on_c, 5, 53, 707, 38480, Note_off_c, 5, 53, 707, 38544, Note_on_c, 5, 53, 707, 38576, Note_off_c, 5, 53, 707, 38640, Note_on_c, 5, 55, 707, 38640, Note_on_c, 5, 62, 707, 38640, Note_on_c, 5, 58, 707, 38672, Note_off_c, 5, 58, 707, 38672, Note_off_c, 5, 62, 707, 38672, Note_off_c, 5, 55, 707, 38736, Note_on_c, 5, 53, 707, 38768, Note_off_c, 5, 53, 707, 38832, Note_on_c, 5, 53, 707, 38864, Note_off_c, 5, 53, 707, 38928, Note_on_c, 5, 53, 707, 38960, Note_off_c, 5, 53, 707, 39024, Note_on_c, 5, 55, 707, 39024, Note_on_c, 5, 62, 707, 39024, Note_on_c, 5, 58, 707, 39056, Note_off_c, 5, 58, 707, 39056, Note_off_c, 5, 62, 707, 39056, Note_off_c, 5, 55, 707, 39120, Note_on_c, 5, 53, 707, 39152, Note_off_c, 5, 53, 707, 39216, Note_on_c, 5, 53, 707, 39248, Note_off_c, 5, 53, 707, 39312, Note_on_c, 5, 53, 707, 39344, Note_off_c, 5, 53, 707, 39408, Note_on_c, 5, 55, 707, 39408, Note_on_c, 5, 62, 707, 39408, Note_on_c, 5, 58, 707, 39440, Note_off_c, 5, 58, 707, 39440, Note_off_c, 5, 62, 707, 39440, Note_off_c, 5, 55, 707, 39504, Note_on_c, 5, 53, 707, 39536, Note_off_c, 5, 53, 707, 39600, Note_on_c, 5, 53, 707, 39632, Note_off_c, 5, 53, 707, 39696, Note_on_c, 5, 53, 707, 39728, Note_off_c, 5, 53, 707, 39792, Note_on_c, 5, 55, 707, 39792, Note_on_c, 5, 62, 707, 39792, Note_on_c, 5, 58, 707, 39824, Note_off_c, 5, 58, 707, 39824, Note_off_c, 5, 62, 707, 39824, Note_off_c, 5, 55, 707, 39888, Note_on_c, 5, 53, 707, 39920, Note_off_c, 5, 53, 707, 39984, Note_on_c, 5, 53, 707, 40016, Note_off_c, 5, 53, 707, 40080, Note_on_c, 5, 53, 707, 40112, Note_off_c, 5, 53, 707, 40176, Note_on_c, 5, 55, 707, 40176, Note_on_c, 5, 62, 707, 40176, Note_on_c, 5, 58, 707, 40208, Note_off_c, 5, 58, 707, 40208, Note_off_c, 5, 62, 707, 40208, Note_off_c, 5, 55, 707, 40272, Note_on_c, 5, 53, 707, 40304, Note_off_c, 5, 53, 707, 40368, Note_on_c, 5, 53, 707, 40400, Note_off_c, 5, 53, 707, 40464, Note_on_c, 5, 53, 707, 40496, Note_off_c, 5, 53, 707, 40560, Note_on_c, 5, 55, 707, 40560, Note_on_c, 5, 62, 707, 40560, Note_on_c, 5, 58, 707, 40592, Note_off_c, 5, 58, 707, 40592, Note_off_c, 5, 62, 707, 40592, Note_off_c, 5, 55, 707, 40656, Note_on_c, 5, 53, 707, 40688, Note_off_c, 5, 53, 707, 40752, Note_on_c, 5, 53, 707, 40784, Note_off_c, 5, 53, 707, 40848, Note_on_c, 5, 53, 707, 40880, Note_off_c, 5, 53, 707, 40944, Note_on_c, 5, 55, 707, 40944, Note_on_c, 5, 62, 707, 40944, Note_on_c, 5, 58, 707, 40976, Note_off_c, 5, 58, 707, 40976, Note_off_c, 5, 62, 707, 40976, Note_off_c, 5, 55, 707, 41040, Note_on_c, 5, 53, 707, 41072, Note_off_c, 5, 53, 707, 41136, Note_on_c, 5, 53, 707, 41168, Note_off_c, 5, 53, 707, 41232, Note_on_c, 5, 53, 707, 41264, Note_off_c, 5, 53, 707, 41328, Note_on_c, 5, 55, 707, 41328, Note_on_c, 5, 62, 707, 41328, Note_on_c, 5, 58, 707, 41360, Note_off_c, 5, 58, 707, 41360, Note_off_c, 5, 62, 707, 41360, Note_off_c, 5, 55, 707, 41424, Note_on_c, 5, 53, 707, 41456, Note_off_c, 5, 53, 707, 41520, Note_on_c, 5, 53, 707, 41552, Note_off_c, 5, 53, 707, 41616, Note_on_c, 5, 53, 707, 41648, Note_off_c, 5, 53, 707, 41712, Note_on_c, 5, 55, 707, 41712, Note_on_c, 5, 62, 707, 41712, Note_on_c, 5, 58, 707, 41744, Note_off_c, 5, 58, 707, 41744, Note_off_c, 5, 62, 707, 41744, Note_off_c, 5, 55, 707, 41808, Note_on_c, 5, 53, 707, 41840, Note_off_c, 5, 53, 707, 41904, Note_on_c, 5, 53, 707, 41936, Note_off_c, 5, 53, 707, 42000, Note_on_c, 5, 53, 707, 42032, Note_off_c, 5, 53, 707, 42096, Note_on_c, 5, 55, 707, 42096, Note_on_c, 5, 62, 707, 42096, Note_on_c, 5, 58, 707, 42128, Note_off_c, 5, 58, 707, 42128, Note_off_c, 5, 62, 707, 42128, Note_off_c, 5, 55, 707, 42192, Note_on_c, 5, 53, 707, 42224, Note_off_c, 5, 53, 707, 42288, Note_on_c, 5, 53, 707, 42320, Note_off_c, 5, 53, 707, 42384, Note_on_c, 5, 53, 707, 42416, Note_off_c, 5, 53, 707, 42480, Note_on_c, 5, 55, 707, 42480, Note_on_c, 5, 62, 707, 42480, Note_on_c, 5, 58, 707, 42512, Note_off_c, 5, 58, 707, 42512, Note_off_c, 5, 62, 707, 42512, Note_off_c, 5, 55, 707, 42576, Note_on_c, 5, 53, 707, 42608, Note_off_c, 5, 53, 707, 42672, Note_on_c, 5, 53, 707, 42704, Note_off_c, 5, 53, 707, 42768, Note_on_c, 5, 53, 707, 42800, Note_off_c, 5, 53, 707, 42864, Note_on_c, 5, 55, 707, 42864, Note_on_c, 5, 62, 707, 42864, Note_on_c, 5, 58, 707, 42896, Note_off_c, 5, 58, 707, 42896, Note_off_c, 5, 62, 707, 42896, Note_off_c, 5, 55, 707, 42960, Note_on_c, 5, 53, 707, 42992, Note_off_c, 5, 53, 707, 43056, Note_on_c, 5, 53, 707, 43088, Note_off_c, 5, 53, 707, 43152, Note_on_c, 5, 53, 707, 43184, Note_off_c, 5, 53, 707, 43248, Note_on_c, 5, 55, 707, 43248, Note_on_c, 5, 62, 707, 43248, Note_on_c, 5, 58, 707, 43280, Note_off_c, 5, 58, 707, 43280, Note_off_c, 5, 62, 707, 43280, Note_off_c, 5, 55, 707, 43344, Note_on_c, 5, 53, 707, 43376, Note_off_c, 5, 53, 707, 43440, Note_on_c, 5, 53, 707, 43472, Note_off_c, 5, 53, 707, 43536, Note_on_c, 5, 53, 707, 43568, Note_off_c, 5, 53, 707, 43632, Note_on_c, 5, 55, 707, 43632, Note_on_c, 5, 62, 707, 43632, Note_on_c, 5, 58, 707, 43664, Note_off_c, 5, 58, 707, 43664, Note_off_c, 5, 62, 707, 43664, Note_off_c, 5, 55, 707, 43728, Note_on_c, 5, 53, 707, 43760, Note_off_c, 5, 53, 707, 43824, Note_on_c, 5, 53, 707, 43856, Note_off_c, 5, 53, 707, 43920, Note_on_c, 5, 53, 707, 43952, Note_off_c, 5, 53, 707, 44016, Note_on_c, 5, 55, 707, 44016, Note_on_c, 5, 62, 707, 44016, Note_on_c, 5, 58, 707, 44048, Note_off_c, 5, 58, 707, 44048, Note_off_c, 5, 62, 707, 44048, Note_off_c, 5, 55, 707, 44112, Note_on_c, 5, 53, 707, 44144, Note_off_c, 5, 53, 707, 44208, Note_on_c, 5, 53, 707, 44240, Note_off_c, 5, 53, 707, 44304, Note_on_c, 5, 53, 707, 44336, Note_off_c, 5, 53, 707, 44400, Note_on_c, 5, 55, 707, 44400, Note_on_c, 5, 62, 707, 44400, Note_on_c, 5, 58, 707, 44432, Note_off_c, 5, 58, 707, 44432, Note_off_c, 5, 62, 707, 44432, Note_off_c, 5, 55, 707, 44496, Note_on_c, 5, 53, 707, 44528, Note_off_c, 5, 53, 707, 44592, Note_on_c, 5, 53, 707, 44624, Note_off_c, 5, 53, 707, 44688, Note_on_c, 5, 53, 707, 44720, Note_off_c, 5, 53, 707, 44784, Note_on_c, 5, 55, 707, 44784, Note_on_c, 5, 62, 707, 44784, Note_on_c, 5, 58, 707, 44816, Note_off_c, 5, 58, 707, 44816, Note_off_c, 5, 62, 707, 44816, Note_off_c, 5, 55, 707, 44880, Note_on_c, 5, 53, 707, 44912, Note_off_c, 5, 53, 707, 44976, Note_on_c, 5, 53, 707, 45008, Note_off_c, 5, 53, 707, 45072, Note_on_c, 5, 53, 707, 45104, Note_off_c, 5, 53, 707, 45168, Note_on_c, 5, 55, 707, 45168, Note_on_c, 5, 62, 707, 45168, Note_on_c, 5, 58, 707, 45200, Note_off_c, 5, 58, 707, 45200, Note_off_c, 5, 62, 707, 45200, Note_off_c, 5, 55, 707, 45264, Note_on_c, 5, 53, 707, 45296, Note_off_c, 5, 53, 707, 45360, Note_on_c, 5, 53, 707, 45392, Note_off_c, 5, 53, 707, 45456, Note_on_c, 5, 53, 707, 45488, Note_off_c, 5, 53, 707, 45552, Note_on_c, 5, 55, 707, 45552, Note_on_c, 5, 62, 707, 45552, Note_on_c, 5, 58, 707, 45584, Note_off_c, 5, 58, 707, 45584, Note_off_c, 5, 62, 707, 45584, Note_off_c, 5, 55, 707, 45648, Note_on_c, 5, 53, 707, 45680, Note_off_c, 5, 53, 707, 45744, Note_on_c, 5, 53, 707, 45776, Note_off_c, 5, 53, 707, 45840, Note_on_c, 5, 53, 707, 45872, Note_off_c, 5, 53, 707, 45936, Note_on_c, 5, 55, 707, 45936, Note_on_c, 5, 62, 707, 45936, Note_on_c, 5, 58, 707, 45968, Note_off_c, 5, 58, 707, 45968, Note_off_c, 5, 62, 707, 45968, Note_off_c, 5, 55, 707, 46032, Note_on_c, 5, 53, 707, 46064, Note_off_c, 5, 53, 707, 46128, Note_on_c, 5, 53, 707, 46160, Note_off_c, 5, 53, 707, 46224, Note_on_c, 5, 53, 707, 46256, Note_off_c, 5, 53, 707, 46320, Note_on_c, 5, 55, 707, 46320, Note_on_c, 5, 62, 707, 46320, Note_on_c, 5, 58, 707, 46352, Note_off_c, 5, 58, 707, 46352, Note_off_c, 5, 62, 707, 46352, Note_off_c, 5, 55, 707, 46416, Note_on_c, 5, 53, 707, 46448, Note_off_c, 5, 53, 707, 46512, Note_on_c, 5, 53, 707, 46544, Note_off_c, 5, 53, 707, 46608, Note_on_c, 5, 53, 707, 46640, Note_off_c, 5, 53, 707, 46704, Note_on_c, 5, 55, 707, 46704, Note_on_c, 5, 62, 707, 46704, Note_on_c, 5, 58, 707, 46736, Note_off_c, 5, 58, 707, 46736, Note_off_c, 5, 62, 707, 46736, Note_off_c, 5, 55, 707, 46800, Note_on_c, 5, 53, 707, 46832, Note_off_c, 5, 53, 707, 46896, Note_on_c, 5, 53, 707, 46928, Note_off_c, 5, 53, 707, 46992, Note_on_c, 5, 53, 707, 47024, Note_off_c, 5, 53, 707, 47088, Note_on_c, 5, 55, 707, 47088, Note_on_c, 5, 62, 707, 47088, Note_on_c, 5, 58, 707, 47120, Note_off_c, 5, 58, 707, 47120, Note_off_c, 5, 62, 707, 47120, Note_off_c, 5, 55, 707, 47184, Note_on_c, 5, 53, 707, 47216, Note_off_c, 5, 53, 707, 47280, Note_on_c, 5, 53, 707, 47312, Note_off_c, 5, 53, 707, 47376, Note_on_c, 5, 53, 707, 47408, Note_off_c, 5, 53, 707, 47472, Note_on_c, 5, 55, 707, 47472, Note_on_c, 5, 62, 707, 47472, Note_on_c, 5, 58, 707, 47504, Note_off_c, 5, 58, 707, 47504, Note_off_c, 5, 62, 707, 47504, Note_off_c, 5, 55, 707, 47568, Note_on_c, 5, 53, 707, 47600, Note_off_c, 5, 53, 707, 47664, Note_on_c, 5, 53, 707, 47696, Note_off_c, 5, 53, 707, 47760, Note_on_c, 5, 53, 707, 47792, Note_off_c, 5, 53, 707, 47856, Note_on_c, 5, 55, 707, 47856, Note_on_c, 5, 62, 707, 47856, Note_on_c, 5, 58, 707, 47888, Note_off_c, 5, 58, 707, 47888, Note_off_c, 5, 62, 707, 47888, Note_off_c, 5, 55, 707, 47952, Note_on_c, 5, 53, 707, 47984, Note_off_c, 5, 53, 707, 48048, Note_on_c, 5, 53, 707, 48080, Note_off_c, 5, 53, 707, 48144, Note_on_c, 5, 53, 707, 48176, Note_off_c, 5, 53, 707, 48240, Note_on_c, 5, 55, 707, 48240, Note_on_c, 5, 62, 707, 48240, Note_on_c, 5, 58, 707, 48272, Note_off_c, 5, 58, 707, 48272, Note_off_c, 5, 62, 707, 48272, Note_off_c, 5, 55, 707, 48336, Note_on_c, 5, 53, 707, 48368, Note_off_c, 5, 53, 707, 48432, Note_on_c, 5, 53, 707, 48464, Note_off_c, 5, 53, 707, 48528, Note_on_c, 5, 53, 707, 48560, Note_off_c, 5, 53, 707, 48720, Note_on_c, 5, 53, 707, 48752, Note_off_c, 5, 53, 707, 48816, Note_on_c, 5, 53, 707, 48848, Note_off_c, 5, 53, 707, 48912, Note_on_c, 5, 53, 707, 48944, Note_off_c, 5, 53, 707, 49104, Note_on_c, 5, 53, 707, 49136, Note_off_c, 5, 53, 707, 49296, Note_on_c, 5, 41, 607, 49328, Note_off_c, 5, 41, 607, 49392, Note_on_c, 5, 43, 607, 49392, Note_on_c, 5, 50, 607, 49392, Note_on_c, 5, 46, 607, 49424, Note_off_c, 5, 46, 607, 49424, Note_off_c, 5, 50, 607, 49424, Note_off_c, 5, 43, 607, 49488, Note_on_c, 5, 41, 607, 49520, Note_off_c, 5, 41, 607, 49680, Note_on_c, 5, 41, 607, 49712, Note_off_c, 5, 41, 607, 49776, Note_on_c, 5, 43, 607, 49776, Note_on_c, 5, 50, 607, 49776, Note_on_c, 5, 46, 607, 49808, Note_off_c, 5, 46, 607, 49808, Note_off_c, 5, 50, 607, 49808, Note_off_c, 5, 43, 607, 49872, Note_on_c, 5, 41, 607, 49904, Note_off_c, 5, 41, 607, 50064, Note_on_c, 5, 41, 607, 50096, Note_off_c, 5, 41, 607, 50160, Note_on_c, 5, 43, 607, 50160, Note_on_c, 5, 50, 607, 50160, Note_on_c, 5, 46, 607, 50192, Note_off_c, 5, 46, 607, 50192, Note_off_c, 5, 50, 607, 50192, Note_off_c, 5, 43, 607, 50256, Note_on_c, 5, 41, 607, 50288, Note_off_c, 5, 41, 607, 50448, Note_on_c, 5, 41, 607, 50480, Note_off_c, 5, 41, 607, 50544, Note_on_c, 5, 43, 607, 50544, Note_on_c, 5, 50, 607, 50544, Note_on_c, 5, 46, 607, 50576, Note_off_c, 5, 46, 607, 50576, Note_off_c, 5, 50, 607, 50576, Note_off_c, 5, 43, 607, 50640, Note_on_c, 5, 41, 607, 50672, Note_off_c, 5, 41, 607, 50736, Note_on_c, 5, 53, 707, 50768, Note_off_c, 5, 53, 707, 50832, Note_on_c, 5, 53, 707, 50864, Note_off_c, 5, 53, 707, 50928, Note_on_c, 5, 55, 707, 50928, Note_on_c, 5, 62, 707, 50928, Note_on_c, 5, 58, 707, 50960, Note_off_c, 5, 58, 707, 50960, Note_off_c, 5, 62, 707, 50960, Note_off_c, 5, 55, 707, 51024, Note_on_c, 5, 53, 707, 51056, Note_off_c, 5, 53, 707, 51120, Note_on_c, 5, 53, 707, 51152, Note_off_c, 5, 53, 707, 51216, Note_on_c, 5, 53, 707, 51248, Note_off_c, 5, 53, 707, 51312, Note_on_c, 5, 55, 707, 51312, Note_on_c, 5, 62, 707, 51312, Note_on_c, 5, 58, 707, 51344, Note_off_c, 5, 58, 707, 51344, Note_off_c, 5, 62, 707, 51344, Note_off_c, 5, 55, 707, 51408, Note_on_c, 5, 53, 707, 51440, Note_off_c, 5, 53, 707, 51504, Note_on_c, 5, 53, 707, 51536, Note_off_c, 5, 53, 707, 51600, Note_on_c, 5, 53, 707, 51632, Note_off_c, 5, 53, 707, 51696, Note_on_c, 5, 55, 707, 51696, Note_on_c, 5, 62, 707, 51696, Note_on_c, 5, 58, 707, 51728, Note_off_c, 5, 58, 707, 51728, Note_off_c, 5, 62, 707, 51728, Note_off_c, 5, 55, 707, 51792, Note_on_c, 5, 53, 707, 51824, Note_off_c, 5, 53, 707, 51888, Note_on_c, 5, 53, 707, 51920, Note_off_c, 5, 53, 707, 51984, Note_on_c, 5, 53, 707, 52016, Note_off_c, 5, 53, 707, 52080, Note_on_c, 5, 55, 707, 52080, Note_on_c, 5, 62, 707, 52080, Note_on_c, 5, 58, 707, 52112, Note_off_c, 5, 58, 707, 52112, Note_off_c, 5, 62, 707, 52112, Note_off_c, 5, 55, 707, 52176, Note_on_c, 5, 53, 707, 52208, Note_off_c, 5, 53, 707, 52272, Note_on_c, 5, 53, 707, 52304, Note_off_c, 5, 53, 707, 52368, Note_on_c, 5, 53, 707, 52400, Note_off_c, 5, 53, 707, 52464, Note_on_c, 5, 55, 707, 52464, Note_on_c, 5, 62, 707, 52464, Note_on_c, 5, 58, 707, 52496, Note_off_c, 5, 58, 707, 52496, Note_off_c, 5, 62, 707, 52496, Note_off_c, 5, 55, 707, 52560, Note_on_c, 5, 53, 707, 52592, Note_off_c, 5, 53, 707, 52656, Note_on_c, 5, 53, 707, 52688, Note_off_c, 5, 53, 707, 52752, Note_on_c, 5, 53, 707, 52784, Note_off_c, 5, 53, 707, 52848, Note_on_c, 5, 55, 707, 52848, Note_on_c, 5, 62, 707, 52848, Note_on_c, 5, 58, 707, 52880, Note_off_c, 5, 58, 707, 52880, Note_off_c, 5, 62, 707, 52880, Note_off_c, 5, 55, 707, 52944, Note_on_c, 5, 53, 707, 52976, Note_off_c, 5, 53, 707, 53040, Note_on_c, 5, 53, 707, 53072, Note_off_c, 5, 53, 707, 53136, Note_on_c, 5, 53, 707, 53168, Note_off_c, 5, 53, 707, 53232, Note_on_c, 5, 55, 707, 53232, Note_on_c, 5, 62, 707, 53232, Note_on_c, 5, 58, 707, 53264, Note_off_c, 5, 58, 707, 53264, Note_off_c, 5, 62, 707, 53264, Note_off_c, 5, 55, 707, 53328, Note_on_c, 5, 53, 707, 53360, Note_off_c, 5, 53, 707, 53424, Note_on_c, 5, 53, 707, 53456, Note_off_c, 5, 53, 707, 53520, Note_on_c, 5, 53, 707, 53552, Note_off_c, 5, 53, 707, 53616, Note_on_c, 5, 55, 707, 53616, Note_on_c, 5, 62, 707, 53616, Note_on_c, 5, 58, 707, 53648, Note_off_c, 5, 58, 707, 53648, Note_off_c, 5, 62, 707, 53648, Note_off_c, 5, 55, 707, 53712, Note_on_c, 5, 53, 707, 53744, Note_off_c, 5, 53, 707, 53808, Note_on_c, 5, 53, 707, 53840, Note_off_c, 5, 53, 707, 53904, Note_on_c, 5, 53, 707, 53936, Note_off_c, 5, 53, 707, 54000, Note_on_c, 5, 55, 707, 54000, Note_on_c, 5, 62, 707, 54000, Note_on_c, 5, 58, 707, 54032, Note_off_c, 5, 58, 707, 54032, Note_off_c, 5, 62, 707, 54032, Note_off_c, 5, 55, 707, 54096, Note_on_c, 5, 53, 707, 54128, Note_off_c, 5, 53, 707, 54192, Note_on_c, 5, 53, 707, 54224, Note_off_c, 5, 53, 707, 54288, Note_on_c, 5, 53, 707, 54320, Note_off_c, 5, 53, 707, 54384, Note_on_c, 5, 55, 707, 54384, Note_on_c, 5, 62, 707, 54384, Note_on_c, 5, 58, 707, 54416, Note_off_c, 5, 58, 707, 54416, Note_off_c, 5, 62, 707, 54416, Note_off_c, 5, 55, 707, 54480, Note_on_c, 5, 53, 707, 54512, Note_off_c, 5, 53, 707, 54576, Note_on_c, 5, 53, 707, 54608, Note_off_c, 5, 53, 707, 54672, Note_on_c, 5, 53, 707, 54704, Note_off_c, 5, 53, 707, 54768, Note_on_c, 5, 55, 707, 54768, Note_on_c, 5, 62, 707, 54768, Note_on_c, 5, 58, 707, 54800, Note_off_c, 5, 58, 707, 54800, Note_off_c, 5, 62, 707, 54800, Note_off_c, 5, 55, 707, 54864, Note_on_c, 5, 53, 707, 54896, Note_off_c, 5, 53, 707, 54960, Note_on_c, 5, 53, 707, 54992, Note_off_c, 5, 53, 707, 55056, Note_on_c, 5, 53, 707, 55088, Note_off_c, 5, 53, 707, 55152, Note_on_c, 5, 55, 707, 55152, Note_on_c, 5, 62, 707, 55152, Note_on_c, 5, 58, 707, 55184, Note_off_c, 5, 58, 707, 55184, Note_off_c, 5, 62, 707, 55184, Note_off_c, 5, 55, 707, 55248, Note_on_c, 5, 53, 707, 55280, Note_off_c, 5, 53, 707, 55344, Note_on_c, 5, 53, 707, 55376, Note_off_c, 5, 53, 707, 55440, Note_on_c, 5, 53, 707, 55472, Note_off_c, 5, 53, 707, 55536, Note_on_c, 5, 55, 707, 55536, Note_on_c, 5, 62, 707, 55536, Note_on_c, 5, 58, 707, 55568, Note_off_c, 5, 58, 707, 55568, Note_off_c, 5, 62, 707, 55568, Note_off_c, 5, 55, 707, 55632, Note_on_c, 5, 53, 707, 55664, Note_off_c, 5, 53, 707, 55728, Note_on_c, 5, 53, 707, 55760, Note_off_c, 5, 53, 707, 55824, Note_on_c, 5, 53, 707, 55856, Note_off_c, 5, 53, 707, 55920, Note_on_c, 5, 55, 707, 55920, Note_on_c, 5, 62, 707, 55920, Note_on_c, 5, 58, 707, 55952, Note_off_c, 5, 58, 707, 55952, Note_off_c, 5, 62, 707, 55952, Note_off_c, 5, 55, 707, 56016, Note_on_c, 5, 53, 707, 56048, Note_off_c, 5, 53, 707, 56112, Note_on_c, 5, 53, 707, 56144, Note_off_c, 5, 53, 707, 56208, Note_on_c, 5, 53, 707, 56240, Note_off_c, 5, 53, 707, 56304, Note_on_c, 5, 55, 707, 56304, Note_on_c, 5, 62, 707, 56304, Note_on_c, 5, 58, 707, 56336, Note_off_c, 5, 58, 707, 56336, Note_off_c, 5, 62, 707, 56336, Note_off_c, 5, 55, 707, 56400, Note_on_c, 5, 53, 707, 56432, Note_off_c, 5, 53, 707, 56496, Note_on_c, 5, 53, 707, 56528, Note_off_c, 5, 53, 707, 56592, Note_on_c, 5, 53, 707, 56624, Note_off_c, 5, 53, 707, 56688, Note_on_c, 5, 55, 707, 56688, Note_on_c, 5, 62, 707, 56688, Note_on_c, 5, 58, 707, 56720, Note_off_c, 5, 58, 707, 56720, Note_off_c, 5, 62, 707, 56720, Note_off_c, 5, 55, 707, 56784, Note_on_c, 5, 53, 707, 56816, Note_off_c, 5, 53, 707, 56880, Note_on_c, 5, 53, 707, 56912, Note_off_c, 5, 53, 707, 56976, Note_on_c, 5, 53, 707, 57008, Note_off_c, 5, 53, 707, 57072, Note_on_c, 5, 55, 707, 57072, Note_on_c, 5, 62, 707, 57072, Note_on_c, 5, 58, 707, 57104, Note_off_c, 5, 58, 707, 57104, Note_off_c, 5, 62, 707, 57104, Note_off_c, 5, 55, 707, 57168, Note_on_c, 5, 53, 707, 57200, Note_off_c, 5, 53, 707, 57264, Note_on_c, 5, 53, 707, 57296, Note_off_c, 5, 53, 707, 57360, Note_on_c, 5, 53, 707, 57392, Note_off_c, 5, 53, 707, 57456, Note_on_c, 5, 55, 707, 57456, Note_on_c, 5, 62, 707, 57456, Note_on_c, 5, 58, 707, 57488, Note_off_c, 5, 58, 707, 57488, Note_off_c, 5, 62, 707, 57488, Note_off_c, 5, 55, 707, 57552, Note_on_c, 5, 53, 707, 57584, Note_off_c, 5, 53, 707, 57648, Note_on_c, 5, 53, 707, 57680, Note_off_c, 5, 53, 707, 57744, Note_on_c, 5, 53, 707, 57776, Note_off_c, 5, 53, 707, 57840, Note_on_c, 5, 55, 707, 57840, Note_on_c, 5, 62, 707, 57840, Note_on_c, 5, 58, 707, 57872, Note_off_c, 5, 58, 707, 57872, Note_off_c, 5, 62, 707, 57872, Note_off_c, 5, 55, 707, 57936, Note_on_c, 5, 53, 707, 57968, Note_off_c, 5, 53, 707, 58032, Note_on_c, 5, 53, 707, 58064, Note_off_c, 5, 53, 707, 58128, Note_on_c, 5, 53, 707, 58160, Note_off_c, 5, 53, 707, 58224, Note_on_c, 5, 55, 707, 58224, Note_on_c, 5, 62, 707, 58224, Note_on_c, 5, 58, 707, 58256, Note_off_c, 5, 58, 707, 58256, Note_off_c, 5, 62, 707, 58256, Note_off_c, 5, 55, 707, 58320, Note_on_c, 5, 53, 707, 58352, Note_off_c, 5, 53, 707, 58416, Note_on_c, 5, 53, 707, 58448, Note_off_c, 5, 53, 707, 58512, Note_on_c, 5, 53, 707, 58544, Note_off_c, 5, 53, 707, 58608, Note_on_c, 5, 55, 707, 58608, Note_on_c, 5, 62, 707, 58608, Note_on_c, 5, 58, 707, 58640, Note_off_c, 5, 58, 707, 58640, Note_off_c, 5, 62, 707, 58640, Note_off_c, 5, 55, 707, 58704, Note_on_c, 5, 53, 707, 58736, Note_off_c, 5, 53, 707, 58800, Note_on_c, 5, 53, 707, 58832, Note_off_c, 5, 53, 707, 58896, Note_on_c, 5, 53, 707, 58928, Note_off_c, 5, 53, 707, 58992, Note_on_c, 5, 55, 707, 58992, Note_on_c, 5, 62, 707, 58992, Note_on_c, 5, 58, 707, 59024, Note_off_c, 5, 58, 707, 59024, Note_off_c, 5, 62, 707, 59024, Note_off_c, 5, 55, 707, 59088, Note_on_c, 5, 53, 707, 59120, Note_off_c, 5, 53, 707, 59184, Note_on_c, 5, 53, 707, 59216, Note_off_c, 5, 53, 707, 59280, Note_on_c, 5, 53, 707, 59312, Note_off_c, 5, 53, 707, 59376, Note_on_c, 5, 55, 707, 59376, Note_on_c, 5, 62, 707, 59376, Note_on_c, 5, 58, 707, 59408, Note_off_c, 5, 58, 707, 59408, Note_off_c, 5, 62, 707, 59408, Note_off_c, 5, 55, 707, 59472, Note_on_c, 5, 53, 707, 59504, Note_off_c, 5, 53, 707, 59568, Note_on_c, 5, 53, 707, 59600, Note_off_c, 5, 53, 707, 59664, Note_on_c, 5, 53, 707, 59696, Note_off_c, 5, 53, 707, 59760, Note_on_c, 5, 55, 707, 59760, Note_on_c, 5, 62, 707, 59760, Note_on_c, 5, 58, 707, 59792, Note_off_c, 5, 58, 707, 59792, Note_off_c, 5, 62, 707, 59792, Note_off_c, 5, 55, 707, 59856, Note_on_c, 5, 53, 707, 59888, Note_off_c, 5, 53, 707, 59952, Note_on_c, 5, 53, 707, 59984, Note_off_c, 5, 53, 707, 60048, Note_on_c, 5, 53, 707, 60080, Note_off_c, 5, 53, 707, 60144, Note_on_c, 5, 55, 707, 60144, Note_on_c, 5, 62, 707, 60144, Note_on_c, 5, 58, 707, 60176, Note_off_c, 5, 58, 707, 60176, Note_off_c, 5, 62, 707, 60176, Note_off_c, 5, 55, 707, 60240, Note_on_c, 5, 53, 707, 60272, Note_off_c, 5, 53, 707, 60336, Note_on_c, 5, 53, 707, 60368, Note_off_c, 5, 53, 707, 60432, Note_on_c, 5, 53, 707, 60464, Note_off_c, 5, 53, 707, 60528, Note_on_c, 5, 55, 707, 60528, Note_on_c, 5, 62, 707, 60528, Note_on_c, 5, 58, 707, 60560, Note_off_c, 5, 58, 707, 60560, Note_off_c, 5, 62, 707, 60560, Note_off_c, 5, 55, 707, 60624, Note_on_c, 5, 53, 707, 60656, Note_off_c, 5, 53, 707, 60720, Note_on_c, 5, 53, 707, 60752, Note_off_c, 5, 53, 707, 60816, Note_on_c, 5, 53, 707, 60848, Note_off_c, 5, 53, 707, 60912, Note_on_c, 5, 55, 707, 60912, Note_on_c, 5, 62, 707, 60912, Note_on_c, 5, 58, 707, 60944, Note_off_c, 5, 58, 707, 60944, Note_off_c, 5, 62, 707, 60944, Note_off_c, 5, 55, 707, 61008, Note_on_c, 5, 53, 707, 61040, Note_off_c, 5, 53, 707, 61104, Note_on_c, 5, 53, 707, 61136, Note_off_c, 5, 53, 707, 61200, Note_on_c, 5, 53, 707, 61232, Note_off_c, 5, 53, 707, 61296, Note_on_c, 5, 55, 707, 61296, Note_on_c, 5, 62, 707, 61296, Note_on_c, 5, 58, 707, 61328, Note_off_c, 5, 58, 707, 61328, Note_off_c, 5, 62, 707, 61328, Note_off_c, 5, 55, 707, 61392, Note_on_c, 5, 53, 707, 61424, Note_off_c, 5, 53, 707, 61488, Note_on_c, 5, 53, 707, 61520, Note_off_c, 5, 53, 707, 61584, Note_on_c, 5, 53, 707, 61616, Note_off_c, 5, 53, 707, 61680, Note_on_c, 5, 55, 707, 61680, Note_on_c, 5, 62, 707, 61680, Note_on_c, 5, 58, 707, 61712, Note_off_c, 5, 58, 707, 61712, Note_off_c, 5, 62, 707, 61712, Note_off_c, 5, 55, 707, 61776, Note_on_c, 5, 53, 707, 61808, Note_off_c, 5, 53, 707, 61872, Note_on_c, 5, 53, 707, 61904, Note_off_c, 5, 53, 707, 61968, Note_on_c, 5, 53, 707, 62000, Note_off_c, 5, 53, 707, 62064, Note_on_c, 5, 55, 707, 62064, Note_on_c, 5, 62, 707, 62064, Note_on_c, 5, 58, 707, 62096, Note_off_c, 5, 58, 707, 62096, Note_off_c, 5, 62, 707, 62096, Note_off_c, 5, 55, 707, 62160, Note_on_c, 5, 53, 707, 62192, Note_off_c, 5, 53, 707, 62256, Note_on_c, 5, 53, 707, 62288, Note_off_c, 5, 53, 707, 62352, Note_on_c, 5, 53, 707, 62384, Note_off_c, 5, 53, 707, 62448, Note_on_c, 5, 55, 707, 62448, Note_on_c, 5, 62, 707, 62448, Note_on_c, 5, 58, 707, 62480, Note_off_c, 5, 58, 707, 62480, Note_off_c, 5, 62, 707, 62480, Note_off_c, 5, 55, 707, 62544, Note_on_c, 5, 53, 707, 62576, Note_off_c, 5, 53, 707, 62640, Note_on_c, 5, 53, 707, 62672, Note_off_c, 5, 53, 707, 62736, Note_on_c, 5, 53, 707, 62768, Note_off_c, 5, 53, 707, 62832, Note_on_c, 5, 55, 707, 62832, Note_on_c, 5, 62, 707, 62832, Note_on_c, 5, 58, 707, 62864, Note_off_c, 5, 58, 707, 62864, Note_off_c, 5, 62, 707, 62864, Note_off_c, 5, 55, 707, 62928, Note_on_c, 5, 53, 707, 62960, Note_off_c, 5, 53, 707, 63024, Note_on_c, 5, 53, 707, 63056, Note_off_c, 5, 53, 707, 63120, Note_on_c, 5, 53, 707, 63152, Note_off_c, 5, 53, 707, 63216, Note_on_c, 5, 55, 707, 63216, Note_on_c, 5, 62, 707, 63216, Note_on_c, 5, 58, 707, 63248, Note_off_c, 5, 58, 707, 63248, Note_off_c, 5, 62, 707, 63248, Note_off_c, 5, 55, 707, 63312, Note_on_c, 5, 53, 707, 63344, Note_off_c, 5, 53, 707, 63408, Note_on_c, 5, 53, 707, 63440, Note_off_c, 5, 53, 707, 63504, Note_on_c, 5, 53, 707, 63536, Note_off_c, 5, 53, 707, 63600, Note_on_c, 5, 55, 707, 63600, Note_on_c, 5, 62, 707, 63600, Note_on_c, 5, 58, 707, 63632, Note_off_c, 5, 58, 707, 63632, Note_off_c, 5, 62, 707, 63632, Note_off_c, 5, 55, 707, 63696, Note_on_c, 5, 53, 707, 63728, Note_off_c, 5, 53, 707, 63792, Note_on_c, 5, 53, 707, 63824, Note_off_c, 5, 53, 707, 63888, Note_on_c, 5, 53, 707, 63920, Note_off_c, 5, 53, 707, 63984, Note_on_c, 5, 55, 707, 63984, Note_on_c, 5, 62, 707, 63984, Note_on_c, 5, 58, 707, 64016, Note_off_c, 5, 58, 707, 64016, Note_off_c, 5, 62, 707, 64016, Note_off_c, 5, 55, 707, 64080, Note_on_c, 5, 53, 707, 64112, Note_off_c, 5, 53, 707, 64176, Note_on_c, 5, 53, 707, 64208, Note_off_c, 5, 53, 707, 64272, Note_on_c, 5, 53, 707, 64304, Note_off_c, 5, 53, 707, 64368, Note_on_c, 5, 55, 707, 64368, Note_on_c, 5, 62, 707, 64368, Note_on_c, 5, 58, 707, 64400, Note_off_c, 5, 58, 707, 64400, Note_off_c, 5, 62, 707, 64400, Note_off_c, 5, 55, 707, 64464, Note_on_c, 5, 53, 707, 64496, Note_off_c, 5, 53, 707, 64560, Note_on_c, 5, 53, 707, 64592, Note_off_c, 5, 53, 707, 64656, Note_on_c, 5, 53, 707, 64688, Note_off_c, 5, 53, 707, 64752, Note_on_c, 5, 55, 707, 64752, Note_on_c, 5, 62, 707, 64752, Note_on_c, 5, 58, 707, 64784, Note_off_c, 5, 58, 707, 64784, Note_off_c, 5, 62, 707, 64784, Note_off_c, 5, 55, 707, 64848, Note_on_c, 5, 53, 707, 64880, Note_off_c, 5, 53, 707, 64944, Note_on_c, 5, 53, 707, 64976, Note_off_c, 5, 53, 707, 65040, Note_on_c, 5, 53, 707, 65072, Note_off_c, 5, 53, 707, 65136, Note_on_c, 5, 55, 707, 65136, Note_on_c, 5, 62, 707, 65136, Note_on_c, 5, 58, 707, 65168, Note_off_c, 5, 58, 707, 65168, Note_off_c, 5, 62, 707, 65168, Note_off_c, 5, 55, 707, 65232, Note_on_c, 5, 53, 707, 65264, Note_off_c, 5, 53, 707, 65328, Note_on_c, 5, 53, 707, 65360, Note_off_c, 5, 53, 707, 65424, Note_on_c, 5, 53, 707, 65456, Note_off_c, 5, 53, 707, 65520, Note_on_c, 5, 55, 707, 65520, Note_on_c, 5, 62, 707, 65520, Note_on_c, 5, 58, 707, 65552, Note_off_c, 5, 58, 707, 65552, Note_off_c, 5, 62, 707, 65552, Note_off_c, 5, 55, 707, 65616, Note_on_c, 5, 53, 707, 65648, Note_off_c, 5, 53, 707, 65712, Note_on_c, 5, 53, 707, 65744, Note_off_c, 5, 53, 707, 65808, Note_on_c, 5, 53, 707, 65840, Note_off_c, 5, 53, 707, 65904, Note_on_c, 5, 55, 707, 65904, Note_on_c, 5, 62, 707, 65904, Note_on_c, 5, 58, 707, 65936, Note_off_c, 5, 58, 707, 65936, Note_off_c, 5, 62, 707, 65936, Note_off_c, 5, 55, 707, 66000, Note_on_c, 5, 53, 707, 66032, Note_off_c, 5, 53, 707, 66096, Note_on_c, 5, 53, 707, 66128, Note_off_c, 5, 53, 707, 66192, Note_on_c, 5, 53, 707, 66224, Note_off_c, 5, 53, 707, 66288, Note_on_c, 5, 55, 707, 66288, Note_on_c, 5, 62, 707, 66288, Note_on_c, 5, 58, 707, 66320, Note_off_c, 5, 58, 707, 66320, Note_off_c, 5, 62, 707, 66320, Note_off_c, 5, 55, 707, 66384, Note_on_c, 5, 53, 707, 66416, Note_off_c, 5, 53, 707, 66480, Note_on_c, 5, 53, 707, 66512, Note_off_c, 5, 53, 707, 66576, Note_on_c, 5, 53, 707, 66608, Note_off_c, 5, 53, 707, 66672, Note_on_c, 5, 55, 707, 66672, Note_on_c, 5, 62, 707, 66672, Note_on_c, 5, 58, 707, 66704, Note_off_c, 5, 58, 707, 66704, Note_off_c, 5, 62, 707, 66704, Note_off_c, 5, 55, 707, 66768, Note_on_c, 5, 53, 707, 66800, Note_off_c, 5, 53, 707, 66864, Note_on_c, 5, 53, 707, 66896, Note_off_c, 5, 53, 707, 66960, Note_on_c, 5, 53, 707, 66992, Note_off_c, 5, 53, 707, 67152, Note_on_c, 5, 53, 707, 67184, Note_off_c, 5, 53, 707, 67248, Note_on_c, 5, 53, 707, 67280, Note_off_c, 5, 53, 707, 67344, Note_on_c, 5, 53, 707, 67376, Note_off_c, 5, 53, 707, 67536, Note_on_c, 5, 53, 707, 67568, Note_off_c, 5, 53, 707, 86016, Note_on_c, 5, 43, 907, 86048, Note_off_c, 5, 43, 907, 86064, Note_on_c, 5, 46, 907, 86096, Note_off_c, 5, 46, 907, 86112, Note_on_c, 5, 41, 907, 86144, Note_off_c, 5, 41, 907, 86160, Note_on_c, 5, 48, 907, 86192, Note_off_c, 5, 48, 907, 86256, Note_on_c, 5, 46, 907, 86288, Note_off_c, 5, 46, 907, 86304, Note_on_c, 5, 41, 907, 86336, Note_off_c, 5, 41, 907, 86400, Note_on_c, 5, 43, 907, 86432, Note_off_c, 5, 43, 907, 86448, Note_on_c, 5, 46, 907, 86480, Note_off_c, 5, 46, 907, 86496, Note_on_c, 5, 41, 907, 86528, Note_off_c, 5, 41, 907, 86544, Note_on_c, 5, 48, 907, 86576, Note_off_c, 5, 48, 907, 86640, Note_on_c, 5, 46, 907, 86672, Note_off_c, 5, 46, 907, 86688, Note_on_c, 5, 41, 907, 86720, Note_off_c, 5, 41, 907, 86784, Note_on_c, 5, 43, 907, 86816, Note_off_c, 5, 43, 907, 86832, Note_on_c, 5, 46, 907, 86864, Note_off_c, 5, 46, 907, 86880, Note_on_c, 5, 41, 907, 86912, Note_off_c, 5, 41, 907, 86928, Note_on_c, 5, 48, 907, 86960, Note_off_c, 5, 48, 907, 87024, Note_on_c, 5, 46, 907, 87056, Note_off_c, 5, 46, 907, 87072, Note_on_c, 5, 41, 907, 87104, Note_off_c, 5, 41, 907, 87168, Note_on_c, 5, 43, 907, 87200, Note_off_c, 5, 43, 907, 87216, Note_on_c, 5, 46, 907, 87248, Note_off_c, 5, 46, 907, 87264, Note_on_c, 5, 41, 907, 87296, Note_off_c, 5, 41, 907, 87312, Note_on_c, 5, 48, 907, 87344, Note_off_c, 5, 48, 907, 87408, Note_on_c, 5, 46, 907, 87440, Note_off_c, 5, 46, 907, 87456, Note_on_c, 5, 41, 907, 87488, Note_off_c, 5, 41, 907, 87552, Note_on_c, 5, 46, 907, 87584, Note_off_c, 5, 46, 907, 87600, Note_on_c, 5, 48, 907, 87632, Note_off_c, 5, 48, 907, 87648, Note_on_c, 5, 43, 907, 87680, Note_off_c, 5, 43, 907, 87696, Note_on_c, 5, 41, 907, 87728, Note_off_c, 5, 41, 907, 87744, Note_on_c, 5, 46, 907, 87776, Note_off_c, 5, 46, 907, 87792, Note_on_c, 5, 48, 907, 87824, Note_off_c, 5, 48, 907, 87840, Note_on_c, 5, 43, 907, 87872, Note_off_c, 5, 43, 907, 87888, Note_on_c, 5, 41, 907, 87920, Note_off_c, 5, 41, 907, 87936, Note_on_c, 5, 46, 907, 87968, Note_off_c, 5, 46, 907, 87984, Note_on_c, 5, 48, 907, 88016, Note_off_c, 5, 48, 907, 88032, Note_on_c, 5, 43, 907, 88064, Note_off_c, 5, 43, 907, 88080, Note_on_c, 5, 41, 907, 88112, Note_off_c, 5, 41, 907, 88128, Note_on_c, 5, 46, 907, 88160, Note_off_c, 5, 46, 907, 88176, Note_on_c, 5, 48, 907, 88208, Note_off_c, 5, 48, 907, 88224, Note_on_c, 5, 43, 907, 88256, Note_off_c, 5, 43, 907, 88272, Note_on_c, 5, 41, 907, 88304, Note_off_c, 5, 41, 907, 88320, Note_on_c, 5, 46, 907, 88352, Note_off_c, 5, 46, 907, 88368, Note_on_c, 5, 48, 907, 88400, Note_off_c, 5, 48, 907, 88416, Note_on_c, 5, 43, 907, 88448, Note_off_c, 5, 43, 907, 88464, Note_on_c, 5, 41, 907, 88496, Note_off_c, 5, 41, 907, 88512, Note_on_c, 5, 46, 907, 88544, Note_off_c, 5, 46, 907, 88560, Note_on_c, 5, 48, 907, 88592, Note_off_c, 5, 48, 907, 88608, Note_on_c, 5, 43, 907, 88640, Note_off_c, 5, 43, 907, 88656, Note_on_c, 5, 41, 907, 88688, Note_off_c, 5, 41, 907, 88704, Note_on_c, 5, 46, 907, 88736, Note_off_c, 5, 46, 907, 88752, Note_on_c, 5, 48, 907, 88784, Note_off_c, 5, 48, 907, 88800, Note_on_c, 5, 43, 907, 88832, Note_off_c, 5, 43, 907, 88848, Note_on_c, 5, 41, 907, 88880, Note_off_c, 5, 41, 907, 88896, Note_on_c, 5, 46, 907, 88928, Note_off_c, 5, 46, 907, 88944, Note_on_c, 5, 48, 907, 88976, Note_off_c, 5, 48, 907, 88992, Note_on_c, 5, 43, 907, 89024, Note_off_c, 5, 43, 907, 89040, Note_on_c, 5, 41, 907, 89072, Note_off_c, 5, 41, 907, 89088, Note_on_c, 5, 43, 907, 89120, Note_off_c, 5, 43, 907, 89136, Note_on_c, 5, 41, 907, 89168, Note_off_c, 5, 41, 907, 89184, Note_on_c, 5, 46, 907, 89216, Note_off_c, 5, 46, 907, 89232, Note_on_c, 5, 43, 907, 89264, Note_off_c, 5, 43, 907, 89328, Note_on_c, 5, 41, 907, 89360, Note_off_c, 5, 41, 907, 89376, Note_on_c, 5, 46, 907, 89408, Note_off_c, 5, 46, 907, 89424, Note_on_c, 5, 43, 907, 89456, Note_off_c, 5, 43, 907, 89472, Note_on_c, 5, 43, 907, 89504, Note_off_c, 5, 43, 907, 89520, Note_on_c, 5, 41, 907, 89552, Note_off_c, 5, 41, 907, 89568, Note_on_c, 5, 46, 907, 89600, Note_off_c, 5, 46, 907, 89616, Note_on_c, 5, 43, 907, 89648, Note_off_c, 5, 43, 907, 89712, Note_on_c, 5, 41, 907, 89744, Note_off_c, 5, 41, 907, 89760, Note_on_c, 5, 46, 907, 89792, Note_off_c, 5, 46, 907, 89808, Note_on_c, 5, 43, 907, 89840, Note_off_c, 5, 43, 907, 89856, Note_on_c, 5, 43, 907, 89888, Note_off_c, 5, 43, 907, 89904, Note_on_c, 5, 41, 907, 89936, Note_off_c, 5, 41, 907, 89952, Note_on_c, 5, 46, 907, 89984, Note_off_c, 5, 46, 907, 90000, Note_on_c, 5, 43, 907, 90032, Note_off_c, 5, 43, 907, 90096, Note_on_c, 5, 41, 907, 90128, Note_off_c, 5, 41, 907, 90144, Note_on_c, 5, 46, 907, 90176, Note_off_c, 5, 46, 907, 90192, Note_on_c, 5, 43, 907, 90224, Note_off_c, 5, 43, 907, 90240, Note_on_c, 5, 43, 907, 90272, Note_off_c, 5, 43, 907, 90288, Note_on_c, 5, 41, 907, 90320, Note_off_c, 5, 41, 907, 90336, Note_on_c, 5, 46, 907, 90368, Note_off_c, 5, 46, 907, 90384, Note_on_c, 5, 43, 907, 90416, Note_off_c, 5, 43, 907, 90480, Note_on_c, 5, 41, 907, 90512, Note_off_c, 5, 41, 907, 90528, Note_on_c, 5, 46, 907, 90560, Note_off_c, 5, 46, 907, 90576, Note_on_c, 5, 43, 907, 90608, Note_off_c, 5, 43, 907, 90624, Note_on_c, 5, 46, 907, 90656, Note_off_c, 5, 46, 907, 90672, Note_on_c, 5, 41, 907, 90704, Note_off_c, 5, 41, 907, 90720, Note_on_c, 5, 43, 907, 90752, Note_off_c, 5, 43, 907, 90768, Note_on_c, 5, 48, 907, 90800, Note_off_c, 5, 48, 907, 90816, Note_on_c, 5, 46, 907, 90848, Note_off_c, 5, 46, 907, 90864, Note_on_c, 5, 41, 907, 90896, Note_off_c, 5, 41, 907, 90912, Note_on_c, 5, 43, 907, 90944, Note_off_c, 5, 43, 907, 90960, Note_on_c, 5, 48, 907, 90992, Note_off_c, 5, 48, 907, 91008, Note_on_c, 5, 46, 907, 91040, Note_off_c, 5, 46, 907, 91056, Note_on_c, 5, 41, 907, 91088, Note_off_c, 5, 41, 907, 91104, Note_on_c, 5, 43, 907, 91136, Note_off_c, 5, 43, 907, 91152, Note_on_c, 5, 48, 907, 91184, Note_off_c, 5, 48, 907, 91200, Note_on_c, 5, 46, 907, 91232, Note_off_c, 5, 46, 907, 91248, Note_on_c, 5, 41, 907, 91280, Note_off_c, 5, 41, 907, 91296, Note_on_c, 5, 43, 907, 91328, Note_off_c, 5, 43, 907, 91344, Note_on_c, 5, 48, 907, 91376, Note_off_c, 5, 48, 907, 91392, Note_on_c, 5, 46, 907, 91424, Note_off_c, 5, 46, 907, 91440, Note_on_c, 5, 41, 907, 91472, Note_off_c, 5, 41, 907, 91488, Note_on_c, 5, 43, 907, 91520, Note_off_c, 5, 43, 907, 91536, Note_on_c, 5, 48, 907, 91568, Note_off_c, 5, 48, 907, 91584, Note_on_c, 5, 46, 907, 91616, Note_off_c, 5, 46, 907, 91632, Note_on_c, 5, 41, 907, 91664, Note_off_c, 5, 41, 907, 91680, Note_on_c, 5, 43, 907, 91712, Note_off_c, 5, 43, 907, 91728, Note_on_c, 5, 48, 907, 91760, Note_off_c, 5, 48, 907, 91776, Note_on_c, 5, 46, 907, 91808, Note_off_c, 5, 46, 907, 91824, Note_on_c, 5, 41, 907, 91856, Note_off_c, 5, 41, 907, 91872, Note_on_c, 5, 43, 907, 91904, Note_off_c, 5, 43, 907, 91920, Note_on_c, 5, 48, 907, 91952, Note_off_c, 5, 48, 907, 91968, Note_on_c, 5, 46, 907, 92000, Note_off_c, 5, 46, 907, 92016, Note_on_c, 5, 41, 907, 92048, Note_off_c, 5, 41, 907, 92064, Note_on_c, 5, 43, 907, 92096, Note_off_c, 5, 43, 907, 92112, Note_on_c, 5, 48, 907, 92144, Note_off_c, 5, 48, 907, 92208, Note_on_c, 5, 53, 707, 92240, Note_off_c, 5, 53, 707, 92304, Note_on_c, 5, 53, 707, 92336, Note_off_c, 5, 53, 707, 92400, Note_on_c, 5, 55, 707, 92400, Note_on_c, 5, 62, 707, 92400, Note_on_c, 5, 58, 707, 92432, Note_off_c, 5, 58, 707, 92432, Note_off_c, 5, 62, 707, 92432, Note_off_c, 5, 55, 707, 92496, Note_on_c, 5, 53, 707, 92528, Note_off_c, 5, 53, 707, 92592, Note_on_c, 5, 53, 707, 92624, Note_off_c, 5, 53, 707, 92688, Note_on_c, 5, 53, 707, 92720, Note_off_c, 5, 53, 707, 92784, Note_on_c, 5, 55, 707, 92784, Note_on_c, 5, 62, 707, 92784, Note_on_c, 5, 58, 707, 92816, Note_off_c, 5, 58, 707, 92816, Note_off_c, 5, 62, 707, 92816, Note_off_c, 5, 55, 707, 92880, Note_on_c, 5, 53, 707, 92912, Note_off_c, 5, 53, 707, 92976, Note_on_c, 5, 53, 707, 93008, Note_off_c, 5, 53, 707, 93072, Note_on_c, 5, 53, 707, 93104, Note_off_c, 5, 53, 707, 93168, Note_on_c, 5, 55, 707, 93168, Note_on_c, 5, 62, 707, 93168, Note_on_c, 5, 58, 707, 93200, Note_off_c, 5, 58, 707, 93200, Note_off_c, 5, 62, 707, 93200, Note_off_c, 5, 55, 707, 93264, Note_on_c, 5, 53, 707, 93296, Note_off_c, 5, 53, 707, 93360, Note_on_c, 5, 53, 707, 93392, Note_off_c, 5, 53, 707, 93456, Note_on_c, 5, 53, 707, 93488, Note_off_c, 5, 53, 707, 93552, Note_on_c, 5, 55, 707, 93552, Note_on_c, 5, 62, 707, 93552, Note_on_c, 5, 58, 707, 93584, Note_off_c, 5, 58, 707, 93584, Note_off_c, 5, 62, 707, 93584, Note_off_c, 5, 55, 707, 93648, Note_on_c, 5, 53, 707, 93680, Note_off_c, 5, 53, 707, 93744, Note_on_c, 5, 53, 707, 93776, Note_off_c, 5, 53, 707, 93840, Note_on_c, 5, 53, 707, 93872, Note_off_c, 5, 53, 707, 93936, Note_on_c, 5, 55, 707, 93936, Note_on_c, 5, 62, 707, 93936, Note_on_c, 5, 58, 707, 93968, Note_off_c, 5, 58, 707, 93968, Note_off_c, 5, 62, 707, 93968, Note_off_c, 5, 55, 707, 94032, Note_on_c, 5, 53, 707, 94064, Note_off_c, 5, 53, 707, 94128, Note_on_c, 5, 53, 707, 94160, Note_off_c, 5, 53, 707, 94224, Note_on_c, 5, 53, 707, 94256, Note_off_c, 5, 53, 707, 94320, Note_on_c, 5, 55, 707, 94320, Note_on_c, 5, 62, 707, 94320, Note_on_c, 5, 58, 707, 94352, Note_off_c, 5, 58, 707, 94352, Note_off_c, 5, 62, 707, 94352, Note_off_c, 5, 55, 707, 94416, Note_on_c, 5, 53, 707, 94448, Note_off_c, 5, 53, 707, 94512, Note_on_c, 5, 53, 707, 94544, Note_off_c, 5, 53, 707, 94608, Note_on_c, 5, 53, 707, 94640, Note_off_c, 5, 53, 707, 94704, Note_on_c, 5, 55, 707, 94704, Note_on_c, 5, 62, 707, 94704, Note_on_c, 5, 58, 707, 94736, Note_off_c, 5, 58, 707, 94736, Note_off_c, 5, 62, 707, 94736, Note_off_c, 5, 55, 707, 94800, Note_on_c, 5, 53, 707, 94832, Note_off_c, 5, 53, 707, 94896, Note_on_c, 5, 53, 707, 94928, Note_off_c, 5, 53, 707, 94992, Note_on_c, 5, 53, 707, 95024, Note_off_c, 5, 53, 707, 95088, Note_on_c, 5, 55, 707, 95088, Note_on_c, 5, 62, 707, 95088, Note_on_c, 5, 58, 707, 95120, Note_off_c, 5, 58, 707, 95120, Note_off_c, 5, 62, 707, 95120, Note_off_c, 5, 55, 707, 95184, Note_on_c, 5, 53, 707, 95216, Note_off_c, 5, 53, 707, 95280, Note_on_c, 5, 53, 707, 95312, Note_off_c, 5, 53, 707, 95376, Note_on_c, 5, 53, 707, 95408, Note_off_c, 5, 53, 707, 95472, Note_on_c, 5, 55, 707, 95472, Note_on_c, 5, 62, 707, 95472, Note_on_c, 5, 58, 707, 95504, Note_off_c, 5, 58, 707, 95504, Note_off_c, 5, 62, 707, 95504, Note_off_c, 5, 55, 707, 95568, Note_on_c, 5, 53, 707, 95600, Note_off_c, 5, 53, 707, 95664, Note_on_c, 5, 53, 707, 95696, Note_off_c, 5, 53, 707, 95760, Note_on_c, 5, 53, 707, 95792, Note_off_c, 5, 53, 707, 95856, Note_on_c, 5, 55, 707, 95856, Note_on_c, 5, 62, 707, 95856, Note_on_c, 5, 58, 707, 95888, Note_off_c, 5, 58, 707, 95888, Note_off_c, 5, 62, 707, 95888, Note_off_c, 5, 55, 707, 95952, Note_on_c, 5, 53, 707, 95984, Note_off_c, 5, 53, 707, 96048, Note_on_c, 5, 53, 707, 96080, Note_off_c, 5, 53, 707, 96144, Note_on_c, 5, 53, 707, 96176, Note_off_c, 5, 53, 707, 96240, Note_on_c, 5, 55, 707, 96240, Note_on_c, 5, 62, 707, 96240, Note_on_c, 5, 58, 707, 96272, Note_off_c, 5, 58, 707, 96272, Note_off_c, 5, 62, 707, 96272, Note_off_c, 5, 55, 707, 96336, Note_on_c, 5, 53, 707, 96368, Note_off_c, 5, 53, 707, 96432, Note_on_c, 5, 53, 707, 96464, Note_off_c, 5, 53, 707, 96528, Note_on_c, 5, 53, 707, 96560, Note_off_c, 5, 53, 707, 96624, Note_on_c, 5, 55, 707, 96624, Note_on_c, 5, 62, 707, 96624, Note_on_c, 5, 58, 707, 96656, Note_off_c, 5, 58, 707, 96656, Note_off_c, 5, 62, 707, 96656, Note_off_c, 5, 55, 707, 96720, Note_on_c, 5, 53, 707, 96752, Note_off_c, 5, 53, 707, 96816, Note_on_c, 5, 53, 707, 96848, Note_off_c, 5, 53, 707, 96912, Note_on_c, 5, 53, 707, 96944, Note_off_c, 5, 53, 707, 97008, Note_on_c, 5, 55, 707, 97008, Note_on_c, 5, 62, 707, 97008, Note_on_c, 5, 58, 707, 97040, Note_off_c, 5, 58, 707, 97040, Note_off_c, 5, 62, 707, 97040, Note_off_c, 5, 55, 707, 97104, Note_on_c, 5, 53, 707, 97136, Note_off_c, 5, 53, 707, 97200, Note_on_c, 5, 53, 707, 97232, Note_off_c, 5, 53, 707, 97296, Note_on_c, 5, 53, 707, 97328, Note_off_c, 5, 53, 707, 97392, Note_on_c, 5, 55, 707, 97392, Note_on_c, 5, 62, 707, 97392, Note_on_c, 5, 58, 707, 97424, Note_off_c, 5, 58, 707, 97424, Note_off_c, 5, 62, 707, 97424, Note_off_c, 5, 55, 707, 97488, Note_on_c, 5, 53, 707, 97520, Note_off_c, 5, 53, 707, 97584, Note_on_c, 5, 53, 707, 97616, Note_off_c, 5, 53, 707, 97680, Note_on_c, 5, 53, 707, 97712, Note_off_c, 5, 53, 707, 97776, Note_on_c, 5, 55, 707, 97776, Note_on_c, 5, 62, 707, 97776, Note_on_c, 5, 58, 707, 97808, Note_off_c, 5, 58, 707, 97808, Note_off_c, 5, 62, 707, 97808, Note_off_c, 5, 55, 707, 97872, Note_on_c, 5, 53, 707, 97904, Note_off_c, 5, 53, 707, 97968, Note_on_c, 5, 53, 707, 98000, Note_off_c, 5, 53, 707, 98064, Note_on_c, 5, 53, 707, 98096, Note_off_c, 5, 53, 707, 98160, Note_on_c, 5, 55, 707, 98160, Note_on_c, 5, 62, 707, 98160, Note_on_c, 5, 58, 707, 98192, Note_off_c, 5, 58, 707, 98192, Note_off_c, 5, 62, 707, 98192, Note_off_c, 5, 55, 707, 98256, Note_on_c, 5, 53, 707, 98288, Note_off_c, 5, 53, 707, 98352, Note_on_c, 5, 53, 707, 98384, Note_off_c, 5, 53, 707, 98448, Note_on_c, 5, 53, 707, 98480, Note_off_c, 5, 53, 707, 98544, Note_on_c, 5, 55, 707, 98544, Note_on_c, 5, 62, 707, 98544, Note_on_c, 5, 58, 707, 98576, Note_off_c, 5, 58, 707, 98576, Note_off_c, 5, 62, 707, 98576, Note_off_c, 5, 55, 707, 98640, Note_on_c, 5, 53, 707, 98672, Note_off_c, 5, 53, 707, 98736, Note_on_c, 5, 53, 707, 98768, Note_off_c, 5, 53, 707, 98832, Note_on_c, 5, 53, 707, 98864, Note_off_c, 5, 53, 707, 98928, Note_on_c, 5, 55, 707, 98928, Note_on_c, 5, 62, 707, 98928, Note_on_c, 5, 58, 707, 98960, Note_off_c, 5, 58, 707, 98960, Note_off_c, 5, 62, 707, 98960, Note_off_c, 5, 55, 707, 99024, Note_on_c, 5, 53, 707, 99056, Note_off_c, 5, 53, 707, 99120, Note_on_c, 5, 53, 707, 99152, Note_off_c, 5, 53, 707, 99216, Note_on_c, 5, 53, 707, 99248, Note_off_c, 5, 53, 707, 99312, Note_on_c, 5, 55, 707, 99312, Note_on_c, 5, 62, 707, 99312, Note_on_c, 5, 58, 707, 99344, Note_off_c, 5, 58, 707, 99344, Note_off_c, 5, 62, 707, 99344, Note_off_c, 5, 55, 707, 99408, Note_on_c, 5, 53, 707, 99440, Note_off_c, 5, 53, 707, 99504, Note_on_c, 5, 53, 707, 99536, Note_off_c, 5, 53, 707, 99600, Note_on_c, 5, 53, 707, 99632, Note_off_c, 5, 53, 707, 99696, Note_on_c, 5, 55, 707, 99696, Note_on_c, 5, 62, 707, 99696, Note_on_c, 5, 58, 707, 99728, Note_off_c, 5, 58, 707, 99728, Note_off_c, 5, 62, 707, 99728, Note_off_c, 5, 55, 707, 99792, Note_on_c, 5, 53, 707, 99824, Note_off_c, 5, 53, 707, 99888, Note_on_c, 5, 53, 707, 99920, Note_off_c, 5, 53, 707, 99984, Note_on_c, 5, 53, 707, 100016, Note_off_c, 5, 53, 707, 100080, Note_on_c, 5, 55, 707, 100080, Note_on_c, 5, 62, 707, 100080, Note_on_c, 5, 58, 707, 100112, Note_off_c, 5, 58, 707, 100112, Note_off_c, 5, 62, 707, 100112, Note_off_c, 5, 55, 707, 100176, Note_on_c, 5, 53, 707, 100208, Note_off_c, 5, 53, 707, 100272, Note_on_c, 5, 53, 707, 100304, Note_off_c, 5, 53, 707, 100368, Note_on_c, 5, 53, 707, 100400, Note_off_c, 5, 53, 707, 100464, Note_on_c, 5, 55, 707, 100464, Note_on_c, 5, 62, 707, 100464, Note_on_c, 5, 58, 707, 100496, Note_off_c, 5, 58, 707, 100496, Note_off_c, 5, 62, 707, 100496, Note_off_c, 5, 55, 707, 100560, Note_on_c, 5, 53, 707, 100592, Note_off_c, 5, 53, 707, 100656, Note_on_c, 5, 53, 707, 100688, Note_off_c, 5, 53, 707, 100752, Note_on_c, 5, 53, 707, 100784, Note_off_c, 5, 53, 707, 100848, Note_on_c, 5, 55, 707, 100848, Note_on_c, 5, 62, 707, 100848, Note_on_c, 5, 58, 707, 100880, Note_off_c, 5, 58, 707, 100880, Note_off_c, 5, 62, 707, 100880, Note_off_c, 5, 55, 707, 100944, Note_on_c, 5, 53, 707, 100976, Note_off_c, 5, 53, 707, 101040, Note_on_c, 5, 53, 707, 101072, Note_off_c, 5, 53, 707, 101136, Note_on_c, 5, 53, 707, 101168, Note_off_c, 5, 53, 707, 101232, Note_on_c, 5, 55, 707, 101232, Note_on_c, 5, 62, 707, 101232, Note_on_c, 5, 58, 707, 101264, Note_off_c, 5, 58, 707, 101264, Note_off_c, 5, 62, 707, 101264, Note_off_c, 5, 55, 707, 101328, Note_on_c, 5, 53, 707, 101360, Note_off_c, 5, 53, 707, 101424, Note_on_c, 5, 53, 707, 101456, Note_off_c, 5, 53, 707, 101520, Note_on_c, 5, 53, 707, 101552, Note_off_c, 5, 53, 707, 101616, Note_on_c, 5, 55, 707, 101616, Note_on_c, 5, 62, 707, 101616, Note_on_c, 5, 58, 707, 101648, Note_off_c, 5, 58, 707, 101648, Note_off_c, 5, 62, 707, 101648, Note_off_c, 5, 55, 707, 101712, Note_on_c, 5, 53, 707, 101744, Note_off_c, 5, 53, 707, 101808, Note_on_c, 5, 53, 707, 101840, Note_off_c, 5, 53, 707, 101904, Note_on_c, 5, 53, 707, 101936, Note_off_c, 5, 53, 707, 102000, Note_on_c, 5, 55, 707, 102000, Note_on_c, 5, 62, 707, 102000, Note_on_c, 5, 58, 707, 102032, Note_off_c, 5, 58, 707, 102032, Note_off_c, 5, 62, 707, 102032, Note_off_c, 5, 55, 707, 102096, Note_on_c, 5, 53, 707, 102128, Note_off_c, 5, 53, 707, 102192, Note_on_c, 5, 53, 707, 102224, Note_off_c, 5, 53, 707, 102288, Note_on_c, 5, 53, 707, 102320, Note_off_c, 5, 53, 707, 102384, Note_on_c, 5, 55, 707, 102384, Note_on_c, 5, 62, 707, 102384, Note_on_c, 5, 58, 707, 102416, Note_off_c, 5, 58, 707, 102416, Note_off_c, 5, 62, 707, 102416, Note_off_c, 5, 55, 707, 102480, Note_on_c, 5, 53, 707, 102512, Note_off_c, 5, 53, 707, 102576, Note_on_c, 5, 53, 707, 102608, Note_off_c, 5, 53, 707, 102672, Note_on_c, 5, 53, 707, 102704, Note_off_c, 5, 53, 707, 102768, Note_on_c, 5, 55, 707, 102768, Note_on_c, 5, 62, 707, 102768, Note_on_c, 5, 58, 707, 102800, Note_off_c, 5, 58, 707, 102800, Note_off_c, 5, 62, 707, 102800, Note_off_c, 5, 55, 707, 102864, Note_on_c, 5, 53, 707, 102896, Note_off_c, 5, 53, 707, 102960, Note_on_c, 5, 53, 707, 102992, Note_off_c, 5, 53, 707, 103056, Note_on_c, 5, 53, 707, 103088, Note_off_c, 5, 53, 707, 103152, Note_on_c, 5, 55, 707, 103152, Note_on_c, 5, 62, 707, 103152, Note_on_c, 5, 58, 707, 103184, Note_off_c, 5, 58, 707, 103184, Note_off_c, 5, 62, 707, 103184, Note_off_c, 5, 55, 707, 103248, Note_on_c, 5, 53, 707, 103280, Note_off_c, 5, 53, 707, 103344, Note_on_c, 5, 53, 707, 103376, Note_off_c, 5, 53, 707, 103440, Note_on_c, 5, 53, 707, 103472, Note_off_c, 5, 53, 707, 103536, Note_on_c, 5, 55, 707, 103536, Note_on_c, 5, 62, 707, 103536, Note_on_c, 5, 58, 707, 103568, Note_off_c, 5, 58, 707, 103568, Note_off_c, 5, 62, 707, 103568, Note_off_c, 5, 55, 707, 103632, Note_on_c, 5, 53, 707, 103664, Note_off_c, 5, 53, 707, 103728, Note_on_c, 5, 53, 707, 103760, Note_off_c, 5, 53, 707, 103824, Note_on_c, 5, 53, 707, 103856, Note_off_c, 5, 53, 707, 103920, Note_on_c, 5, 57, 707, 103920, Note_on_c, 5, 65, 707, 103920, Note_on_c, 5, 60, 707, 103952, Note_off_c, 5, 60, 707, 103952, Note_off_c, 5, 65, 707, 103952, Note_off_c, 5, 57, 707, 104016, Note_on_c, 5, 53, 707, 104048, Note_off_c, 5, 53, 707, 104112, Note_on_c, 5, 53, 707, 104144, Note_off_c, 5, 53, 707, 104208, Note_on_c, 5, 53, 707, 104240, Note_off_c, 5, 53, 707, 104304, Note_on_c, 5, 57, 707, 104304, Note_on_c, 5, 65, 707, 104304, Note_on_c, 5, 60, 707, 104336, Note_off_c, 5, 60, 707, 104336, Note_off_c, 5, 65, 707, 104336, Note_off_c, 5, 57, 707, 104400, Note_on_c, 5, 53, 707, 104432, Note_off_c, 5, 53, 707, 104496, Note_on_c, 5, 53, 707, 104528, Note_off_c, 5, 53, 707, 104592, Note_on_c, 5, 53, 707, 104624, Note_off_c, 5, 53, 707, 104688, Note_on_c, 5, 55, 707, 104688, Note_on_c, 5, 62, 707, 104688, Note_on_c, 5, 58, 707, 104720, Note_off_c, 5, 58, 707, 104720, Note_off_c, 5, 62, 707, 104720, Note_off_c, 5, 55, 707, 104784, Note_on_c, 5, 53, 707, 104816, Note_off_c, 5, 53, 707, 104880, Note_on_c, 5, 53, 707, 104912, Note_off_c, 5, 53, 707, 104976, Note_on_c, 5, 53, 707, 105008, Note_off_c, 5, 53, 707, 105072, Note_on_c, 5, 55, 707, 105072, Note_on_c, 5, 62, 707, 105072, Note_on_c, 5, 58, 707, 105104, Note_off_c, 5, 58, 707, 105104, Note_off_c, 5, 62, 707, 105104, Note_off_c, 5, 55, 707, 105168, Note_on_c, 5, 53, 707, 105200, Note_off_c, 5, 53, 707, 105264, Note_on_c, 5, 53, 707, 105296, Note_off_c, 5, 53, 707, 105360, Note_on_c, 5, 53, 707, 105392, Note_off_c, 5, 53, 707, 105456, Note_on_c, 5, 55, 707, 105456, Note_on_c, 5, 62, 707, 105456, Note_on_c, 5, 58, 707, 105488, Note_off_c, 5, 58, 707, 105488, Note_off_c, 5, 62, 707, 105488, Note_off_c, 5, 55, 707, 105552, Note_on_c, 5, 53, 707, 105584, Note_off_c, 5, 53, 707, 105648, Note_on_c, 5, 53, 707, 105680, Note_off_c, 5, 53, 707, 105744, Note_on_c, 5, 53, 707, 105776, Note_off_c, 5, 53, 707, 105840, Note_on_c, 5, 55, 707, 105840, Note_on_c, 5, 62, 707, 105840, Note_on_c, 5, 58, 707, 105872, Note_off_c, 5, 58, 707, 105872, Note_off_c, 5, 62, 707, 105872, Note_off_c, 5, 55, 707, 105936, Note_on_c, 5, 53, 707, 105968, Note_off_c, 5, 53, 707, 106032, Note_on_c, 5, 53, 707, 106064, Note_off_c, 5, 53, 707, 106128, Note_on_c, 5, 53, 707, 106160, Note_off_c, 5, 53, 707, 106224, Note_on_c, 5, 55, 707, 106224, Note_on_c, 5, 62, 707, 106224, Note_on_c, 5, 58, 707, 106256, Note_off_c, 5, 58, 707, 106256, Note_off_c, 5, 62, 707, 106256, Note_off_c, 5, 55, 707, 106320, Note_on_c, 5, 53, 707, 106352, Note_off_c, 5, 53, 707, 106416, Note_on_c, 5, 53, 707, 106448, Note_off_c, 5, 53, 707, 106512, Note_on_c, 5, 53, 707, 106544, Note_off_c, 5, 53, 707, 106608, Note_on_c, 5, 55, 707, 106608, Note_on_c, 5, 62, 707, 106608, Note_on_c, 5, 58, 707, 106640, Note_off_c, 5, 58, 707, 106640, Note_off_c, 5, 62, 707, 106640, Note_off_c, 5, 55, 707, 106704, Note_on_c, 5, 53, 707, 106736, Note_off_c, 5, 53, 707, 106800, Note_on_c, 5, 53, 707, 106832, Note_off_c, 5, 53, 707, 106896, Note_on_c, 5, 53, 707, 106928, Note_off_c, 5, 53, 707, 106992, Note_on_c, 5, 55, 707, 106992, Note_on_c, 5, 62, 707, 106992, Note_on_c, 5, 58, 707, 107024, Note_off_c, 5, 58, 707, 107024, Note_off_c, 5, 62, 707, 107024, Note_off_c, 5, 55, 707, 107088, Note_on_c, 5, 53, 707, 107120, Note_off_c, 5, 53, 707, 107184, Note_on_c, 5, 53, 707, 107216, Note_off_c, 5, 53, 707, 107280, Note_on_c, 5, 53, 707, 107312, Note_off_c, 5, 53, 707, 107376, Note_on_c, 5, 55, 707, 107376, Note_on_c, 5, 62, 707, 107376, Note_on_c, 5, 58, 707, 107408, Note_off_c, 5, 58, 707, 107408, Note_off_c, 5, 62, 707, 107408, Note_off_c, 5, 55, 707, 107472, Note_on_c, 5, 53, 707, 107504, Note_off_c, 5, 53, 707, 107568, Note_on_c, 5, 53, 707, 107600, Note_off_c, 5, 53, 707, 107664, Note_on_c, 5, 53, 707, 107696, Note_off_c, 5, 53, 707, 107760, Note_on_c, 5, 55, 707, 107760, Note_on_c, 5, 62, 707, 107760, Note_on_c, 5, 58, 707, 107792, Note_off_c, 5, 58, 707, 107792, Note_off_c, 5, 62, 707, 107792, Note_off_c, 5, 55, 707, 107856, Note_on_c, 5, 53, 707, 107888, Note_off_c, 5, 53, 707, 107952, Note_on_c, 5, 53, 707, 107984, Note_off_c, 5, 53, 707, 108048, Note_on_c, 5, 53, 707, 108080, Note_off_c, 5, 53, 707, 108144, Note_on_c, 5, 55, 707, 108144, Note_on_c, 5, 62, 707, 108144, Note_on_c, 5, 58, 707, 108176, Note_off_c, 5, 58, 707, 108176, Note_off_c, 5, 62, 707, 108176, Note_off_c, 5, 55, 707, 108240, Note_on_c, 5, 53, 707, 108272, Note_off_c, 5, 53, 707, 108336, Note_on_c, 5, 53, 707, 108368, Note_off_c, 5, 53, 707, 108432, Note_on_c, 5, 53, 707, 108464, Note_off_c, 5, 53, 707, 108528, Note_on_c, 5, 55, 707, 108528, Note_on_c, 5, 62, 707, 108528, Note_on_c, 5, 58, 707, 108560, Note_off_c, 5, 58, 707, 108560, Note_off_c, 5, 62, 707, 108560, Note_off_c, 5, 55, 707, 108624, Note_on_c, 5, 53, 707, 108656, Note_off_c, 5, 53, 707, 108720, Note_on_c, 5, 53, 707, 108752, Note_off_c, 5, 53, 707, 108816, Note_on_c, 5, 53, 707, 108848, Note_off_c, 5, 53, 707, 108912, Note_on_c, 5, 55, 707, 108912, Note_on_c, 5, 62, 707, 108912, Note_on_c, 5, 58, 707, 108944, Note_off_c, 5, 58, 707, 108944, Note_off_c, 5, 62, 707, 108944, Note_off_c, 5, 55, 707, 109008, Note_on_c, 5, 53, 707, 109040, Note_off_c, 5, 53, 707, 109104, Note_on_c, 5, 53, 707, 109136, Note_off_c, 5, 53, 707, 109200, Note_on_c, 5, 53, 707, 109232, Note_off_c, 5, 53, 707, 109296, Note_on_c, 5, 55, 707, 109296, Note_on_c, 5, 62, 707, 109296, Note_on_c, 5, 58, 707, 109328, Note_off_c, 5, 58, 707, 109328, Note_off_c, 5, 62, 707, 109328, Note_off_c, 5, 55, 707, 109392, Note_on_c, 5, 53, 707, 109424, Note_off_c, 5, 53, 707, 109488, Note_on_c, 5, 53, 707, 109520, Note_off_c, 5, 53, 707, 109584, Note_on_c, 5, 53, 707, 109616, Note_off_c, 5, 53, 707, 109680, Note_on_c, 5, 55, 707, 109680, Note_on_c, 5, 62, 707, 109680, Note_on_c, 5, 58, 707, 109712, Note_off_c, 5, 58, 707, 109712, Note_off_c, 5, 62, 707, 109712, Note_off_c, 5, 55, 707, 109776, Note_on_c, 5, 53, 707, 109808, Note_off_c, 5, 53, 707, 109872, Note_on_c, 5, 53, 707, 109904, Note_off_c, 5, 53, 707, 109968, Note_on_c, 5, 53, 707, 110000, Note_off_c, 5, 53, 707, 110064, Note_on_c, 5, 57, 707, 110064, Note_on_c, 5, 65, 707, 110064, Note_on_c, 5, 60, 707, 110096, Note_off_c, 5, 60, 707, 110096, Note_off_c, 5, 65, 707, 110096, Note_off_c, 5, 57, 707, 110160, Note_on_c, 5, 53, 707, 110192, Note_off_c, 5, 53, 707, 110256, Note_on_c, 5, 53, 707, 110288, Note_off_c, 5, 53, 707, 110352, Note_on_c, 5, 53, 707, 110384, Note_off_c, 5, 53, 707, 110448, Note_on_c, 5, 57, 707, 110448, Note_on_c, 5, 65, 707, 110448, Note_on_c, 5, 60, 707, 110480, Note_off_c, 5, 60, 707, 110480, Note_off_c, 5, 65, 707, 110480, Note_off_c, 5, 57, 707, 110544, Note_on_c, 5, 53, 707, 110576, Note_off_c, 5, 53, 707, 110592, Note_on_c, 5, 43, 907, 110624, Note_off_c, 5, 43, 907, 110640, Note_on_c, 5, 46, 907, 110672, Note_off_c, 5, 46, 907, 110688, Note_on_c, 5, 41, 907, 110720, Note_off_c, 5, 41, 907, 110736, Note_on_c, 5, 48, 907, 110768, Note_off_c, 5, 48, 907, 110832, Note_on_c, 5, 46, 907, 110864, Note_off_c, 5, 46, 907, 110880, Note_on_c, 5, 41, 907, 110912, Note_off_c, 5, 41, 907, 110976, Note_on_c, 5, 43, 907, 111008, Note_off_c, 5, 43, 907, 111024, Note_on_c, 5, 46, 907, 111056, Note_off_c, 5, 46, 907, 111072, Note_on_c, 5, 41, 907, 111104, Note_off_c, 5, 41, 907, 111120, Note_on_c, 5, 48, 907, 111152, Note_off_c, 5, 48, 907, 111216, Note_on_c, 5, 46, 907, 111248, Note_off_c, 5, 46, 907, 111264, Note_on_c, 5, 41, 907, 111296, Note_off_c, 5, 41, 907, 111360, Note_on_c, 5, 43, 907, 111392, Note_off_c, 5, 43, 907, 111408, Note_on_c, 5, 46, 907, 111440, Note_off_c, 5, 46, 907, 111456, Note_on_c, 5, 41, 907, 111488, Note_off_c, 5, 41, 907, 111504, Note_on_c, 5, 48, 907, 111536, Note_off_c, 5, 48, 907, 111600, Note_on_c, 5, 46, 907, 111632, Note_off_c, 5, 46, 907, 111648, Note_on_c, 5, 41, 907, 111680, Note_off_c, 5, 41, 907, 111744, Note_on_c, 5, 43, 907, 111776, Note_off_c, 5, 43, 907, 111792, Note_on_c, 5, 46, 907, 111824, Note_off_c, 5, 46, 907, 111840, Note_on_c, 5, 41, 907, 111872, Note_off_c, 5, 41, 907, 111888, Note_on_c, 5, 48, 907, 111920, Note_off_c, 5, 48, 907, 111984, Note_on_c, 5, 46, 907, 112016, Note_off_c, 5, 46, 907, 112032, Note_on_c, 5, 41, 907, 112064, Note_off_c, 5, 41, 907, 112128, Note_on_c, 5, 58, 907, 112160, Note_off_c, 5, 58, 907, 112176, Note_on_c, 5, 60, 907, 112208, Note_off_c, 5, 60, 907, 112224, Note_on_c, 5, 55, 907, 112256, Note_off_c, 5, 55, 907, 112272, Note_on_c, 5, 53, 907, 112304, Note_off_c, 5, 53, 907, 112320, Note_on_c, 5, 58, 907, 112352, Note_off_c, 5, 58, 907, 112368, Note_on_c, 5, 60, 907, 112400, Note_off_c, 5, 60, 907, 112416, Note_on_c, 5, 55, 907, 112448, Note_off_c, 5, 55, 907, 112464, Note_on_c, 5, 53, 907, 112496, Note_off_c, 5, 53, 907, 112512, Note_on_c, 5, 58, 907, 112544, Note_off_c, 5, 58, 907, 112560, Note_on_c, 5, 60, 907, 112592, Note_off_c, 5, 60, 907, 112608, Note_on_c, 5, 55, 907, 112640, Note_off_c, 5, 55, 907, 112656, Note_on_c, 5, 53, 907, 112688, Note_off_c, 5, 53, 907, 112704, Note_on_c, 5, 58, 907, 112736, Note_off_c, 5, 58, 907, 112752, Note_on_c, 5, 60, 907, 112784, Note_off_c, 5, 60, 907, 112800, Note_on_c, 5, 55, 907, 112832, Note_off_c, 5, 55, 907, 112848, Note_on_c, 5, 53, 907, 112880, Note_off_c, 5, 53, 907, 112896, Note_on_c, 5, 58, 907, 112928, Note_off_c, 5, 58, 907, 112944, Note_on_c, 5, 60, 907, 112976, Note_off_c, 5, 60, 907, 112992, Note_on_c, 5, 55, 907, 113024, Note_off_c, 5, 55, 907, 113040, Note_on_c, 5, 53, 907, 113072, Note_off_c, 5, 53, 907, 113088, Note_on_c, 5, 58, 907, 113120, Note_off_c, 5, 58, 907, 113136, Note_on_c, 5, 60, 907, 113168, Note_off_c, 5, 60, 907, 113184, Note_on_c, 5, 55, 907, 113216, Note_off_c, 5, 55, 907, 113232, Note_on_c, 5, 53, 907, 113264, Note_off_c, 5, 53, 907, 113280, Note_on_c, 5, 58, 907, 113312, Note_off_c, 5, 58, 907, 113328, Note_on_c, 5, 60, 907, 113360, Note_off_c, 5, 60, 907, 113376, Note_on_c, 5, 55, 907, 113408, Note_off_c, 5, 55, 907, 113424, Note_on_c, 5, 53, 907, 113456, Note_off_c, 5, 53, 907, 113472, Note_on_c, 5, 58, 907, 113504, Note_off_c, 5, 58, 907, 113520, Note_on_c, 5, 60, 907, 113552, Note_off_c, 5, 60, 907, 113568, Note_on_c, 5, 55, 907, 113600, Note_off_c, 5, 55, 907, 113616, Note_on_c, 5, 53, 907, 113648, Note_off_c, 5, 53, 907, 113664, Note_on_c, 5, 43, 907, 113696, Note_off_c, 5, 43, 907, 113712, Note_on_c, 5, 41, 907, 113744, Note_off_c, 5, 41, 907, 113760, Note_on_c, 5, 46, 907, 113792, Note_off_c, 5, 46, 907, 113808, Note_on_c, 5, 43, 907, 113840, Note_off_c, 5, 43, 907, 113904, Note_on_c, 5, 41, 907, 113936, Note_off_c, 5, 41, 907, 113952, Note_on_c, 5, 46, 907, 113984, Note_off_c, 5, 46, 907, 114000, Note_on_c, 5, 43, 907, 114032, Note_off_c, 5, 43, 907, 114048, Note_on_c, 5, 43, 907, 114080, Note_off_c, 5, 43, 907, 114096, Note_on_c, 5, 41, 907, 114128, Note_off_c, 5, 41, 907, 114144, Note_on_c, 5, 46, 907, 114176, Note_off_c, 5, 46, 907, 114192, Note_on_c, 5, 43, 907, 114224, Note_off_c, 5, 43, 907, 114288, Note_on_c, 5, 41, 907, 114320, Note_off_c, 5, 41, 907, 114336, Note_on_c, 5, 46, 907, 114368, Note_off_c, 5, 46, 907, 114384, Note_on_c, 5, 43, 907, 114416, Note_off_c, 5, 43, 907, 114432, Note_on_c, 5, 43, 907, 114464, Note_off_c, 5, 43, 907, 114480, Note_on_c, 5, 41, 907, 114512, Note_off_c, 5, 41, 907, 114528, Note_on_c, 5, 46, 907, 114560, Note_off_c, 5, 46, 907, 114576, Note_on_c, 5, 43, 907, 114608, Note_off_c, 5, 43, 907, 114672, Note_on_c, 5, 41, 907, 114704, Note_off_c, 5, 41, 907, 114720, Note_on_c, 5, 46, 907, 114752, Note_off_c, 5, 46, 907, 114768, Note_on_c, 5, 43, 907, 114800, Note_off_c, 5, 43, 907, 114816, Note_on_c, 5, 43, 907, 114848, Note_off_c, 5, 43, 907, 114864, Note_on_c, 5, 41, 907, 114896, Note_off_c, 5, 41, 907, 114912, Note_on_c, 5, 46, 907, 114944, Note_off_c, 5, 46, 907, 114960, Note_on_c, 5, 43, 907, 114992, Note_off_c, 5, 43, 907, 115056, Note_on_c, 5, 41, 907, 115088, Note_off_c, 5, 41, 907, 115104, Note_on_c, 5, 46, 907, 115136, Note_off_c, 5, 46, 907, 115152, Note_on_c, 5, 43, 907, 115184, Note_off_c, 5, 43, 907, 115200, Note_on_c, 5, 58, 907, 115232, Note_off_c, 5, 58, 907, 115248, Note_on_c, 5, 53, 907, 115280, Note_off_c, 5, 53, 907, 115296, Note_on_c, 5, 55, 907, 115328, Note_off_c, 5, 55, 907, 115344, Note_on_c, 5, 60, 907, 115376, Note_off_c, 5, 60, 907, 115392, Note_on_c, 5, 58, 907, 115424, Note_off_c, 5, 58, 907, 115440, Note_on_c, 5, 53, 907, 115472, Note_off_c, 5, 53, 907, 115488, Note_on_c, 5, 55, 907, 115520, Note_off_c, 5, 55, 907, 115536, Note_on_c, 5, 60, 907, 115568, Note_off_c, 5, 60, 907, 115584, Note_on_c, 5, 58, 907, 115616, Note_off_c, 5, 58, 907, 115632, Note_on_c, 5, 53, 907, 115664, Note_off_c, 5, 53, 907, 115680, Note_on_c, 5, 55, 907, 115712, Note_off_c, 5, 55, 907, 115728, Note_on_c, 5, 60, 907, 115760, Note_off_c, 5, 60, 907, 115776, Note_on_c, 5, 58, 907, 115808, Note_off_c, 5, 58, 907, 115824, Note_on_c, 5, 53, 907, 115856, Note_off_c, 5, 53, 907, 115872, Note_on_c, 5, 55, 907, 115904, Note_off_c, 5, 55, 907, 115920, Note_on_c, 5, 60, 907, 115952, Note_off_c, 5, 60, 907, 115968, Note_on_c, 5, 58, 907, 116000, Note_off_c, 5, 58, 907, 116016, Note_on_c, 5, 53, 907, 116048, Note_off_c, 5, 53, 907, 116064, Note_on_c, 5, 55, 907, 116096, Note_off_c, 5, 55, 907, 116112, Note_on_c, 5, 60, 907, 116144, Note_off_c, 5, 60, 907, 116160, Note_on_c, 5, 58, 907, 116192, Note_off_c, 5, 58, 907, 116208, Note_on_c, 5, 53, 907, 116240, Note_off_c, 5, 53, 907, 116256, Note_on_c, 5, 55, 907, 116288, Note_off_c, 5, 55, 907, 116304, Note_on_c, 5, 60, 907, 116336, Note_off_c, 5, 60, 907, 116352, Note_on_c, 5, 58, 907, 116384, Note_off_c, 5, 58, 907, 116400, Note_on_c, 5, 53, 907, 116432, Note_off_c, 5, 53, 907, 116448, Note_on_c, 5, 55, 907, 116480, Note_off_c, 5, 55, 907, 116496, Note_on_c, 5, 60, 907, 116528, Note_off_c, 5, 60, 907, 116544, Note_on_c, 5, 58, 907, 116576, Note_off_c, 5, 58, 907, 116592, Note_on_c, 5, 53, 907, 116624, Note_off_c, 5, 53, 907, 116640, Note_on_c, 5, 55, 907, 116672, Note_off_c, 5, 55, 907, 116688, Note_on_c, 5, 60, 907, 116720, Note_off_c, 5, 60, 907, 116736, Note_on_c, 5, 43, 907, 116768, Note_off_c, 5, 43, 907, 116784, Note_on_c, 5, 46, 907, 116816, Note_off_c, 5, 46, 907, 116832, Note_on_c, 5, 41, 907, 116864, Note_off_c, 5, 41, 907, 116880, Note_on_c, 5, 48, 907, 116912, Note_off_c, 5, 48, 907, 116976, Note_on_c, 5, 46, 907, 117008, Note_off_c, 5, 46, 907, 117024, Note_on_c, 5, 41, 907, 117056, Note_off_c, 5, 41, 907, 117120, Note_on_c, 5, 43, 907, 117152, Note_off_c, 5, 43, 907, 117168, Note_on_c, 5, 46, 907, 117200, Note_off_c, 5, 46, 907, 117216, Note_on_c, 5, 41, 907, 117248, Note_off_c, 5, 41, 907, 117264, Note_on_c, 5, 48, 907, 117296, Note_off_c, 5, 48, 907, 117360, Note_on_c, 5, 46, 907, 117392, Note_off_c, 5, 46, 907, 117408, Note_on_c, 5, 41, 907, 117440, Note_off_c, 5, 41, 907, 117504, Note_on_c, 5, 43, 907, 117536, Note_off_c, 5, 43, 907, 117552, Note_on_c, 5, 46, 907, 117584, Note_off_c, 5, 46, 907, 117600, Note_on_c, 5, 41, 907, 117632, Note_off_c, 5, 41, 907, 117648, Note_on_c, 5, 48, 907, 117680, Note_off_c, 5, 48, 907, 117744, Note_on_c, 5, 46, 907, 117776, Note_off_c, 5, 46, 907, 117792, Note_on_c, 5, 41, 907, 117824, Note_off_c, 5, 41, 907, 117888, Note_on_c, 5, 43, 907, 117920, Note_off_c, 5, 43, 907, 117936, Note_on_c, 5, 46, 907, 117968, Note_off_c, 5, 46, 907, 117984, Note_on_c, 5, 41, 907, 118016, Note_off_c, 5, 41, 907, 118032, Note_on_c, 5, 48, 907, 118064, Note_off_c, 5, 48, 907, 118128, Note_on_c, 5, 46, 907, 118160, Note_off_c, 5, 46, 907, 118176, Note_on_c, 5, 41, 907, 118208, Note_off_c, 5, 41, 907, 118272, Note_on_c, 5, 58, 907, 118304, Note_off_c, 5, 58, 907, 118320, Note_on_c, 5, 60, 907, 118352, Note_off_c, 5, 60, 907, 118368, Note_on_c, 5, 55, 907, 118400, Note_off_c, 5, 55, 907, 118416, Note_on_c, 5, 53, 907, 118448, Note_off_c, 5, 53, 907, 118464, Note_on_c, 5, 58, 907, 118496, Note_off_c, 5, 58, 907, 118512, Note_on_c, 5, 60, 907, 118544, Note_off_c, 5, 60, 907, 118560, Note_on_c, 5, 55, 907, 118592, Note_off_c, 5, 55, 907, 118608, Note_on_c, 5, 53, 907, 118640, Note_off_c, 5, 53, 907, 118656, Note_on_c, 5, 58, 907, 118688, Note_off_c, 5, 58, 907, 118704, Note_on_c, 5, 60, 907, 118736, Note_off_c, 5, 60, 907, 118752, Note_on_c, 5, 55, 907, 118784, Note_off_c, 5, 55, 907, 118800, Note_on_c, 5, 53, 907, 118832, Note_off_c, 5, 53, 907, 118848, Note_on_c, 5, 58, 907, 118880, Note_off_c, 5, 58, 907, 118896, Note_on_c, 5, 60, 907, 118928, Note_off_c, 5, 60, 907, 118944, Note_on_c, 5, 55, 907, 118976, Note_off_c, 5, 55, 907, 118992, Note_on_c, 5, 53, 907, 119024, Note_off_c, 5, 53, 907, 119040, Note_on_c, 5, 58, 907, 119072, Note_off_c, 5, 58, 907, 119088, Note_on_c, 5, 60, 907, 119120, Note_off_c, 5, 60, 907, 119136, Note_on_c, 5, 55, 907, 119168, Note_off_c, 5, 55, 907, 119184, Note_on_c, 5, 53, 907, 119216, Note_off_c, 5, 53, 907, 119232, Note_on_c, 5, 58, 907, 119264, Note_off_c, 5, 58, 907, 119280, Note_on_c, 5, 60, 907, 119312, Note_off_c, 5, 60, 907, 119328, Note_on_c, 5, 55, 907, 119360, Note_off_c, 5, 55, 907, 119376, Note_on_c, 5, 53, 907, 119408, Note_off_c, 5, 53, 907, 119424, Note_on_c, 5, 58, 907, 119456, Note_off_c, 5, 58, 907, 119472, Note_on_c, 5, 60, 907, 119504, Note_off_c, 5, 60, 907, 119520, Note_on_c, 5, 55, 907, 119552, Note_off_c, 5, 55, 907, 119568, Note_on_c, 5, 53, 907, 119600, Note_off_c, 5, 53, 907, 119616, Note_on_c, 5, 58, 907, 119648, Note_off_c, 5, 58, 907, 119664, Note_on_c, 5, 60, 907, 119696, Note_off_c, 5, 60, 907, 119712, Note_on_c, 5, 55, 907, 119744, Note_off_c, 5, 55, 907, 119760, Note_on_c, 5, 53, 907, 119792, Note_off_c, 5, 53, 907, 119808, Note_on_c, 5, 43, 907, 119840, Note_off_c, 5, 43, 907, 119856, Note_on_c, 5, 41, 907, 119888, Note_off_c, 5, 41, 907, 119904, Note_on_c, 5, 46, 907, 119936, Note_off_c, 5, 46, 907, 119952, Note_on_c, 5, 43, 907, 119984, Note_off_c, 5, 43, 907, 120048, Note_on_c, 5, 41, 907, 120080, Note_off_c, 5, 41, 907, 120096, Note_on_c, 5, 46, 907, 120128, Note_off_c, 5, 46, 907, 120144, Note_on_c, 5, 43, 907, 120176, Note_off_c, 5, 43, 907, 120192, Note_on_c, 5, 43, 907, 120224, Note_off_c, 5, 43, 907, 120240, Note_on_c, 5, 41, 907, 120272, Note_off_c, 5, 41, 907, 120288, Note_on_c, 5, 46, 907, 120320, Note_off_c, 5, 46, 907, 120336, Note_on_c, 5, 43, 907, 120368, Note_off_c, 5, 43, 907, 120432, Note_on_c, 5, 41, 907, 120464, Note_off_c, 5, 41, 907, 120480, Note_on_c, 5, 46, 907, 120512, Note_off_c, 5, 46, 907, 120528, Note_on_c, 5, 43, 907, 120560, Note_off_c, 5, 43, 907, 120576, Note_on_c, 5, 43, 907, 120608, Note_off_c, 5, 43, 907, 120624, Note_on_c, 5, 41, 907, 120656, Note_off_c, 5, 41, 907, 120672, Note_on_c, 5, 46, 907, 120704, Note_off_c, 5, 46, 907, 120720, Note_on_c, 5, 43, 907, 120752, Note_off_c, 5, 43, 907, 120816, Note_on_c, 5, 41, 907, 120848, Note_off_c, 5, 41, 907, 120864, Note_on_c, 5, 46, 907, 120896, Note_off_c, 5, 46, 907, 120912, Note_on_c, 5, 43, 907, 120944, Note_off_c, 5, 43, 907, 120960, Note_on_c, 5, 43, 907, 120992, Note_off_c, 5, 43, 907, 121008, Note_on_c, 5, 41, 907, 121040, Note_off_c, 5, 41, 907, 121056, Note_on_c, 5, 46, 907, 121088, Note_off_c, 5, 46, 907, 121104, Note_on_c, 5, 43, 907, 121136, Note_off_c, 5, 43, 907, 121200, Note_on_c, 5, 41, 907, 121232, Note_off_c, 5, 41, 907, 121248, Note_on_c, 5, 46, 907, 121280, Note_off_c, 5, 46, 907, 121296, Note_on_c, 5, 43, 907, 121328, Note_off_c, 5, 43, 907, 121344, Note_on_c, 5, 58, 907, 121376, Note_off_c, 5, 58, 907, 121392, Note_on_c, 5, 53, 907, 121424, Note_off_c, 5, 53, 907, 121440, Note_on_c, 5, 55, 907, 121472, Note_off_c, 5, 55, 907, 121488, Note_on_c, 5, 60, 907, 121520, Note_off_c, 5, 60, 907, 121536, Note_on_c, 5, 58, 907, 121568, Note_off_c, 5, 58, 907, 121584, Note_on_c, 5, 53, 907, 121616, Note_off_c, 5, 53, 907, 121632, Note_on_c, 5, 55, 907, 121664, Note_off_c, 5, 55, 907, 121680, Note_on_c, 5, 60, 907, 121712, Note_off_c, 5, 60, 907, 121728, Note_on_c, 5, 58, 907, 121760, Note_off_c, 5, 58, 907, 121776, Note_on_c, 5, 53, 907, 121808, Note_off_c, 5, 53, 907, 121824, Note_on_c, 5, 55, 907, 121856, Note_off_c, 5, 55, 907, 121872, Note_on_c, 5, 60, 907, 121904, Note_off_c, 5, 60, 907, 121920, Note_on_c, 5, 58, 907, 121952, Note_off_c, 5, 58, 907, 121968, Note_on_c, 5, 53, 907, 122000, Note_off_c, 5, 53, 907, 122016, Note_on_c, 5, 55, 907, 122048, Note_off_c, 5, 55, 907, 122064, Note_on_c, 5, 60, 907, 122096, Note_off_c, 5, 60, 907, 122096, End_track
8, 0, Start_track
8, 0, Text_t, "SynthRiff"
8, 2880, Control_c, 6, 0, 0
8, 2882, Control_c, 6, 32, 0
8, 2884, Program_c, 6, 62
8, 2886, Control_c, 6, 7, 100
8, 2888, Control_c, 6, 10, 40
8, 2890, Control_c, 6, 11, 70
8, 2892, Control_c, 6, 91, 50
8, 2894, Control_c, 6, 93, 0
8, 3072, Note_on_c, 6, 39, 1158, 3100, Note_off_c, 6, 39, 1158, 3120, Note_on_c, 6, 48, 1158, 3148, Note_off_c, 6, 48, 1158, 3168, Note_on_c, 6, 46, 1158, 3168, Note_on_c, 6, 39, 608, 3196, Note_off_c, 6, 39, 608, 3196, Note_off_c, 6, 46, 1158, 3216, Note_on_c, 6, 43, 1158, 3216, Note_on_c, 6, 48, 608, 3244, Note_off_c, 6, 48, 608, 3244, Note_off_c, 6, 43, 1158, 3264, Note_on_c, 6, 39, 1158, 3264, Note_on_c, 6, 46, 608, 3292, Note_off_c, 6, 46, 608, 3292, Note_off_c, 6, 39, 1158, 3312, Note_on_c, 6, 48, 1158, 3312, Note_on_c, 6, 43, 608, 3340, Note_off_c, 6, 43, 608, 3340, Note_off_c, 6, 48, 1158, 3360, Note_on_c, 6, 46, 1158, 3360, Note_on_c, 6, 39, 608, 3388, Note_off_c, 6, 39, 608, 3388, Note_off_c, 6, 46, 1158, 3408, Note_on_c, 6, 43, 1158, 3408, Note_on_c, 6, 48, 608, 3436, Note_off_c, 6, 48, 608, 3436, Note_off_c, 6, 43, 1158, 3456, Note_on_c, 6, 39, 1158, 3456, Note_on_c, 6, 46, 608, 3484, Note_off_c, 6, 46, 608, 3484, Note_off_c, 6, 39, 1158, 3504, Note_on_c, 6, 48, 1158, 3504, Note_on_c, 6, 43, 608, 3532, Note_off_c, 6, 43, 608, 3532, Note_off_c, 6, 48, 1158, 3552, Note_on_c, 6, 46, 1158, 3552, Note_on_c, 6, 39, 608, 3580, Note_off_c, 6, 39, 608, 3580, Note_off_c, 6, 46, 1158, 3600, Note_on_c, 6, 43, 1158, 3600, Note_on_c, 6, 48, 608, 3628, Note_off_c, 6, 48, 608, 3628, Note_off_c, 6, 43, 1158, 3648, Note_on_c, 6, 39, 1158, 3648, Note_on_c, 6, 46, 608, 3676, Note_off_c, 6, 46, 608, 3676, Note_off_c, 6, 39, 1158, 3696, Note_on_c, 6, 48, 1158, 3696, Note_on_c, 6, 43, 608, 3724, Note_off_c, 6, 43, 608, 3724, Note_off_c, 6, 48, 1158, 3744, Note_on_c, 6, 46, 1158, 3744, Note_on_c, 6, 39, 608, 3772, Note_off_c, 6, 39, 608, 3772, Note_off_c, 6, 46, 1158, 3792, Note_on_c, 6, 48, 608, 3820, Note_off_c, 6, 48, 608, 3840, Note_on_c, 6, 55, 1158, 3840, Note_on_c, 6, 46, 608, 3868, Note_off_c, 6, 46, 608, 3868, Note_off_c, 6, 55, 1158, 3888, Note_on_c, 6, 62, 1158, 3916, Note_off_c, 6, 62, 1158, 3936, Note_on_c, 6, 58, 1158, 3936, Note_on_c, 6, 55, 608, 3964, Note_off_c, 6, 55, 608, 3964, Note_off_c, 6, 58, 1158, 3984, Note_on_c, 6, 53, 1158, 3984, Note_on_c, 6, 62, 608, 4012, Note_off_c, 6, 62, 608, 4012, Note_off_c, 6, 53, 1158, 4032, Note_on_c, 6, 55, 1158, 4032, Note_on_c, 6, 58, 608, 4060, Note_off_c, 6, 58, 608, 4060, Note_off_c, 6, 55, 1158, 4080, Note_on_c, 6, 62, 1158, 4080, Note_on_c, 6, 53, 608, 4108, Note_off_c, 6, 53, 608, 4108, Note_off_c, 6, 62, 1158, 4128, Note_on_c, 6, 58, 1158, 4128, Note_on_c, 6, 55, 608, 4156, Note_off_c, 6, 55, 608, 4156, Note_off_c, 6, 58, 1158, 4176, Note_on_c, 6, 53, 1158, 4176, Note_on_c, 6, 62, 608, 4204, Note_off_c, 6, 62, 608, 4204, Note_off_c, 6, 53, 1158, 4224, Note_on_c, 6, 55, 1158, 4224, Note_on_c, 6, 58, 608, 4252, Note_off_c, 6, 58, 608, 4252, Note_off_c, 6, 55, 1158, 4272, Note_on_c, 6, 62, 1158, 4272, Note_on_c, 6, 53, 608, 4300, Note_off_c, 6, 53, 608, 4300, Note_off_c, 6, 62, 1158, 4320, Note_on_c, 6, 58, 1158, 4320, Note_on_c, 6, 55, 608, 4348, Note_off_c, 6, 55, 608, 4348, Note_off_c, 6, 58, 1158, 4368, Note_on_c, 6, 53, 1158, 4368, Note_on_c, 6, 62, 608, 4396, Note_off_c, 6, 62, 608, 4396, Note_off_c, 6, 53, 1158, 4416, Note_on_c, 6, 55, 1158, 4416, Note_on_c, 6, 58, 608, 4444, Note_off_c, 6, 58, 608, 4444, Note_off_c, 6, 55, 1158, 4464, Note_on_c, 6, 62, 1158, 4464, Note_on_c, 6, 53, 608, 4492, Note_off_c, 6, 53, 608, 4492, Note_off_c, 6, 62, 1158, 4512, Note_on_c, 6, 58, 1158, 4512, Note_on_c, 6, 55, 608, 4540, Note_off_c, 6, 55, 608, 4540, Note_off_c, 6, 58, 1158, 4560, Note_on_c, 6, 53, 1158, 4560, Note_on_c, 6, 62, 608, 4588, Note_off_c, 6, 62, 608, 4588, Note_off_c, 6, 53, 1158, 4608, Note_on_c, 6, 39, 1158, 4608, Note_on_c, 6, 58, 608, 4636, Note_off_c, 6, 58, 608, 4636, Note_off_c, 6, 39, 1158, 4656, Note_on_c, 6, 48, 1158, 4656, Note_on_c, 6, 53, 608, 4684, Note_off_c, 6, 53, 608, 4684, Note_off_c, 6, 48, 1158, 4704, Note_on_c, 6, 46, 1158, 4704, Note_on_c, 6, 39, 608, 4732, Note_off_c, 6, 39, 608, 4732, Note_off_c, 6, 46, 1158, 4752, Note_on_c, 6, 43, 1158, 4752, Note_on_c, 6, 48, 608, 4780, Note_off_c, 6, 48, 608, 4780, Note_off_c, 6, 43, 1158, 4800, Note_on_c, 6, 39, 1158, 4800, Note_on_c, 6, 46, 608, 4828, Note_off_c, 6, 46, 608, 4828, Note_off_c, 6, 39, 1158, 4848, Note_on_c, 6, 48, 1158, 4848, Note_on_c, 6, 43, 608, 4876, Note_off_c, 6, 43, 608, 4876, Note_off_c, 6, 48, 1158, 4896, Note_on_c, 6, 46, 1158, 4896, Note_on_c, 6, 39, 608, 4924, Note_off_c, 6, 39, 608, 4924, Note_off_c, 6, 46, 1158, 4944, Note_on_c, 6, 43, 1158, 4944, Note_on_c, 6, 48, 608, 4972, Note_off_c, 6, 48, 608, 4972, Note_off_c, 6, 43, 1158, 4992, Note_on_c, 6, 39, 1158, 4992, Note_on_c, 6, 46, 608, 5020, Note_off_c, 6, 46, 608, 5020, Note_off_c, 6, 39, 1158, 5040, Note_on_c, 6, 48, 1158, 5040, Note_on_c, 6, 43, 608, 5068, Note_off_c, 6, 43, 608, 5068, Note_off_c, 6, 48, 1158, 5088, Note_on_c, 6, 46, 1158, 5088, Note_on_c, 6, 39, 608, 5116, Note_off_c, 6, 39, 608, 5116, Note_off_c, 6, 46, 1158, 5136, Note_on_c, 6, 43, 1158, 5136, Note_on_c, 6, 48, 608, 5164, Note_off_c, 6, 48, 608, 5164, Note_off_c, 6, 43, 1158, 5184, Note_on_c, 6, 39, 1158, 5184, Note_on_c, 6, 46, 608, 5212, Note_off_c, 6, 46, 608, 5212, Note_off_c, 6, 39, 1158, 5232, Note_on_c, 6, 48, 1158, 5232, Note_on_c, 6, 43, 608, 5260, Note_off_c, 6, 43, 608, 5260, Note_off_c, 6, 48, 1158, 5280, Note_on_c, 6, 46, 1158, 5280, Note_on_c, 6, 39, 608, 5308, Note_off_c, 6, 39, 608, 5308, Note_off_c, 6, 46, 1158, 5328, Note_on_c, 6, 48, 608, 5356, Note_off_c, 6, 48, 608, 5376, Note_on_c, 6, 58, 1158, 5376, Note_on_c, 6, 46, 608, 5404, Note_off_c, 6, 46, 608, 5404, Note_off_c, 6, 58, 1158, 5424, Note_on_c, 6, 53, 1158, 5452, Note_off_c, 6, 53, 1158, 5472, Note_on_c, 6, 62, 1158, 5472, Note_on_c, 6, 58, 608, 5500, Note_off_c, 6, 58, 608, 5500, Note_off_c, 6, 62, 1158, 5520, Note_on_c, 6, 55, 1158, 5520, Note_on_c, 6, 53, 608, 5548, Note_off_c, 6, 53, 608, 5548, Note_off_c, 6, 55, 1158, 5568, Note_on_c, 6, 58, 1158, 5568, Note_on_c, 6, 62, 608, 5596, Note_off_c, 6, 62, 608, 5596, Note_off_c, 6, 58, 1158, 5616, Note_on_c, 6, 53, 1158, 5616, Note_on_c, 6, 55, 608, 5644, Note_off_c, 6, 55, 608, 5644, Note_off_c, 6, 53, 1158, 5664, Note_on_c, 6, 62, 1158, 5664, Note_on_c, 6, 58, 608, 5692, Note_off_c, 6, 58, 608, 5692, Note_off_c, 6, 62, 1158, 5712, Note_on_c, 6, 55, 1158, 5712, Note_on_c, 6, 53, 608, 5740, Note_off_c, 6, 53, 608, 5740, Note_off_c, 6, 55, 1158, 5760, Note_on_c, 6, 58, 1158, 5760, Note_on_c, 6, 62, 608, 5788, Note_off_c, 6, 62, 608, 5788, Note_off_c, 6, 58, 1158, 5808, Note_on_c, 6, 53, 1158, 5808, Note_on_c, 6, 55, 608, 5836, Note_off_c, 6, 55, 608, 5836, Note_off_c, 6, 53, 1158, 5856, Note_on_c, 6, 62, 1158, 5856, Note_on_c, 6, 58, 608, 5884, Note_off_c, 6, 58, 608, 5884, Note_off_c, 6, 62, 1158, 5904, Note_on_c, 6, 55, 1158, 5904, Note_on_c, 6, 53, 608, 5932, Note_off_c, 6, 53, 608, 5932, Note_off_c, 6, 55, 1158, 5952, Note_on_c, 6, 58, 1158, 5952, Note_on_c, 6, 62, 608, 5980, Note_off_c, 6, 62, 608, 5980, Note_off_c, 6, 58, 1158, 6000, Note_on_c, 6, 53, 1158, 6000, Note_on_c, 6, 55, 608, 6028, Note_off_c, 6, 55, 608, 6028, Note_off_c, 6, 53, 1158, 6048, Note_on_c, 6, 62, 1158, 6048, Note_on_c, 6, 58, 608, 6076, Note_off_c, 6, 58, 608, 6076, Note_off_c, 6, 62, 1158, 6096, Note_on_c, 6, 55, 1158, 6096, Note_on_c, 6, 53, 608, 6124, Note_off_c, 6, 53, 608, 6124, Note_off_c, 6, 55, 1158, 6144, Note_on_c, 6, 43, 1158, 6144, Note_on_c, 6, 62, 608, 6172, Note_off_c, 6, 62, 608, 6172, Note_off_c, 6, 43, 1158, 6192, Note_on_c, 6, 46, 1158, 6192, Note_on_c, 6, 55, 608, 6220, Note_off_c, 6, 55, 608, 6220, Note_off_c, 6, 46, 1158, 6240, Note_on_c, 6, 48, 1158, 6240, Note_on_c, 6, 43, 608, 6268, Note_off_c, 6, 43, 608, 6268, Note_off_c, 6, 48, 1158, 6288, Note_on_c, 6, 39, 1158, 6288, Note_on_c, 6, 46, 608, 6316, Note_off_c, 6, 46, 608, 6316, Note_off_c, 6, 39, 1158, 6336, Note_on_c, 6, 43, 1158, 6336, Note_on_c, 6, 48, 608, 6364, Note_off_c, 6, 48, 608, 6364, Note_off_c, 6, 43, 1158, 6384, Note_on_c, 6, 46, 1158, 6384, Note_on_c, 6, 39, 608, 6412, Note_off_c, 6, 39, 608, 6412, Note_off_c, 6, 46, 1158, 6432, Note_on_c, 6, 48, 1158, 6432, Note_on_c, 6, 43, 608, 6460, Note_off_c, 6, 43, 608, 6460, Note_off_c, 6, 48, 1158, 6480, Note_on_c, 6, 39, 1158, 6480, Note_on_c, 6, 46, 608, 6508, Note_off_c, 6, 46, 608, 6508, Note_off_c, 6, 39, 1158, 6528, Note_on_c, 6, 43, 1158, 6528, Note_on_c, 6, 48, 608, 6556, Note_off_c, 6, 48, 608, 6556, Note_off_c, 6, 43, 1158, 6576, Note_on_c, 6, 46, 1158, 6576, Note_on_c, 6, 39, 608, 6604, Note_off_c, 6, 39, 608, 6604, Note_off_c, 6, 46, 1158, 6624, Note_on_c, 6, 48, 1158, 6624, Note_on_c, 6, 43, 608, 6652, Note_off_c, 6, 43, 608, 6652, Note_off_c, 6, 48, 1158, 6672, Note_on_c, 6, 39, 1158, 6672, Note_on_c, 6, 46, 608, 6700, Note_off_c, 6, 46, 608, 6700, Note_off_c, 6, 39, 1158, 6720, Note_on_c, 6, 43, 1158, 6720, Note_on_c, 6, 48, 608, 6748, Note_off_c, 6, 48, 608, 6748, Note_off_c, 6, 43, 1158, 6768, Note_on_c, 6, 46, 1158, 6768, Note_on_c, 6, 39, 608, 6796, Note_off_c, 6, 39, 608, 6796, Note_off_c, 6, 46, 1158, 6816, Note_on_c, 6, 48, 1158, 6816, Note_on_c, 6, 43, 608, 6844, Note_off_c, 6, 43, 608, 6844, Note_off_c, 6, 48, 1158, 6864, Note_on_c, 6, 39, 1158, 6864, Note_on_c, 6, 46, 608, 6892, Note_off_c, 6, 46, 608, 6892, Note_off_c, 6, 39, 1158, 6912, Note_on_c, 6, 55, 1158, 6912, Note_on_c, 6, 48, 608, 6940, Note_off_c, 6, 48, 608, 6940, Note_off_c, 6, 55, 1158, 6960, Note_on_c, 6, 58, 1158, 6960, Note_on_c, 6, 39, 608, 6988, Note_off_c, 6, 39, 608, 6988, Note_off_c, 6, 58, 1158, 7008, Note_on_c, 6, 62, 1158, 7008, Note_on_c, 6, 55, 608, 7036, Note_off_c, 6, 55, 608, 7036, Note_off_c, 6, 62, 1158, 7056, Note_on_c, 6, 53, 1158, 7056, Note_on_c, 6, 58, 608, 7084, Note_off_c, 6, 58, 608, 7084, Note_off_c, 6, 53, 1158, 7104, Note_on_c, 6, 55, 1158, 7104, Note_on_c, 6, 62, 608, 7132, Note_off_c, 6, 62, 608, 7132, Note_off_c, 6, 55, 1158, 7152, Note_on_c, 6, 58, 1158, 7152, Note_on_c, 6, 53, 608, 7180, Note_off_c, 6, 53, 608, 7180, Note_off_c, 6, 58, 1158, 7200, Note_on_c, 6, 62, 1158, 7200, Note_on_c, 6, 55, 608, 7228, Note_off_c, 6, 55, 608, 7228, Note_off_c, 6, 62, 1158, 7248, Note_on_c, 6, 53, 1158, 7248, Note_on_c, 6, 58, 608, 7276, Note_off_c, 6, 58, 608, 7276, Note_off_c, 6, 53, 1158, 7296, Note_on_c, 6, 55, 1158, 7296, Note_on_c, 6, 62, 608, 7324, Note_off_c, 6, 62, 608, 7324, Note_off_c, 6, 55, 1158, 7344, Note_on_c, 6, 58, 1158, 7344, Note_on_c, 6, 53, 608, 7372, Note_off_c, 6, 53, 608, 7372, Note_off_c, 6, 58, 1158, 7392, Note_on_c, 6, 62, 1158, 7392, Note_on_c, 6, 55, 608, 7420, Note_off_c, 6, 55, 608, 7420, Note_off_c, 6, 62, 1158, 7440, Note_on_c, 6, 53, 1158, 7440, Note_on_c, 6, 58, 608, 7468, Note_off_c, 6, 58, 608, 7468, Note_off_c, 6, 53, 1158, 7488, Note_on_c, 6, 55, 1158, 7488, Note_on_c, 6, 62, 608, 7516, Note_off_c, 6, 62, 608, 7516, Note_off_c, 6, 55, 1158, 7536, Note_on_c, 6, 58, 1158, 7536, Note_on_c, 6, 53, 608, 7564, Note_off_c, 6, 53, 608, 7564, Note_off_c, 6, 58, 1158, 7584, Note_on_c, 6, 62, 1158, 7584, Note_on_c, 6, 55, 608, 7612, Note_off_c, 6, 55, 608, 7612, Note_off_c, 6, 62, 1158, 7632, Note_on_c, 6, 53, 1158, 7632, Note_on_c, 6, 58, 608, 7660, Note_off_c, 6, 58, 608, 7660, Note_off_c, 6, 53, 1158, 7680, Note_on_c, 6, 43, 1158, 7680, Note_on_c, 6, 62, 608, 7708, Note_off_c, 6, 62, 608, 7708, Note_off_c, 6, 43, 1158, 7728, Note_on_c, 6, 46, 1158, 7728, Note_on_c, 6, 53, 608, 7756, Note_off_c, 6, 53, 608, 7756, Note_off_c, 6, 46, 1158, 7776, Note_on_c, 6, 48, 1158, 7776, Note_on_c, 6, 43, 608, 7804, Note_off_c, 6, 43, 608, 7804, Note_off_c, 6, 48, 1158, 7824, Note_on_c, 6, 39, 1158, 7824, Note_on_c, 6, 46, 608, 7852, Note_off_c, 6, 46, 608, 7852, Note_off_c, 6, 39, 1158, 7872, Note_on_c, 6, 43, 1158, 7872, Note_on_c, 6, 48, 608, 7900, Note_off_c, 6, 48, 608, 7900, Note_off_c, 6, 43, 1158, 7920, Note_on_c, 6, 46, 1158, 7920, Note_on_c, 6, 39, 608, 7948, Note_off_c, 6, 39, 608, 7948, Note_off_c, 6, 46, 1158, 7968, Note_on_c, 6, 48, 1158, 7968, Note_on_c, 6, 43, 608, 7996, Note_off_c, 6, 43, 608, 7996, Note_off_c, 6, 48, 1158, 8016, Note_on_c, 6, 39, 1158, 8016, Note_on_c, 6, 46, 608, 8044, Note_off_c, 6, 46, 608, 8044, Note_off_c, 6, 39, 1158, 8064, Note_on_c, 6, 43, 1158, 8064, Note_on_c, 6, 48, 608, 8092, Note_off_c, 6, 48, 608, 8092, Note_off_c, 6, 43, 1158, 8112, Note_on_c, 6, 46, 1158, 8112, Note_on_c, 6, 39, 608, 8140, Note_off_c, 6, 39, 608, 8140, Note_off_c, 6, 46, 1158, 8160, Note_on_c, 6, 48, 1158, 8160, Note_on_c, 6, 43, 608, 8188, Note_off_c, 6, 43, 608, 8188, Note_off_c, 6, 48, 1158, 8208, Note_on_c, 6, 39, 1158, 8208, Note_on_c, 6, 46, 608, 8236, Note_off_c, 6, 46, 608, 8236, Note_off_c, 6, 39, 1158, 8256, Note_on_c, 6, 43, 1158, 8256, Note_on_c, 6, 48, 608, 8284, Note_off_c, 6, 48, 608, 8284, Note_off_c, 6, 43, 1158, 8304, Note_on_c, 6, 46, 1158, 8304, Note_on_c, 6, 39, 608, 8332, Note_off_c, 6, 39, 608, 8332, Note_off_c, 6, 46, 1158, 8352, Note_on_c, 6, 48, 1158, 8352, Note_on_c, 6, 43, 608, 8380, Note_off_c, 6, 43, 608, 8380, Note_off_c, 6, 48, 1158, 8400, Note_on_c, 6, 39, 1158, 8400, Note_on_c, 6, 46, 608, 8428, Note_off_c, 6, 46, 608, 8428, Note_off_c, 6, 39, 1158, 8448, Note_on_c, 6, 55, 1158, 8448, Note_on_c, 6, 48, 608, 8476, Note_off_c, 6, 48, 608, 8476, Note_off_c, 6, 55, 1158, 8496, Note_on_c, 6, 58, 1158, 8496, Note_on_c, 6, 39, 608, 8524, Note_off_c, 6, 39, 608, 8524, Note_off_c, 6, 58, 1158, 8544, Note_on_c, 6, 60, 1158, 8544, Note_on_c, 6, 55, 608, 8572, Note_off_c, 6, 55, 608, 8572, Note_off_c, 6, 60, 1158, 8592, Note_on_c, 6, 53, 1158, 8592, Note_on_c, 6, 58, 608, 8620, Note_off_c, 6, 58, 608, 8620, Note_off_c, 6, 53, 1158, 8640, Note_on_c, 6, 55, 1158, 8640, Note_on_c, 6, 60, 608, 8668, Note_off_c, 6, 60, 608, 8668, Note_off_c, 6, 55, 1158, 8688, Note_on_c, 6, 58, 1158, 8688, Note_on_c, 6, 53, 608, 8716, Note_off_c, 6, 53, 608, 8716, Note_off_c, 6, 58, 1158, 8736, Note_on_c, 6, 60, 1158, 8736, Note_on_c, 6, 55, 608, 8764, Note_off_c, 6, 55, 608, 8764, Note_off_c, 6, 60, 1158, 8784, Note_on_c, 6, 53, 1158, 8784, Note_on_c, 6, 58, 608, 8812, Note_off_c, 6, 58, 608, 8812, Note_off_c, 6, 53, 1158, 8832, Note_on_c, 6, 55, 1158, 8832, Note_on_c, 6, 60, 608, 8860, Note_off_c, 6, 60, 608, 8860, Note_off_c, 6, 55, 1158, 8880, Note_on_c, 6, 58, 1158, 8880, Note_on_c, 6, 53, 608, 8908, Note_off_c, 6, 53, 608, 8908, Note_off_c, 6, 58, 1158, 8928, Note_on_c, 6, 60, 1158, 8928, Note_on_c, 6, 55, 608, 8956, Note_off_c, 6, 55, 608, 8956, Note_off_c, 6, 60, 1158, 8976, Note_on_c, 6, 53, 1158, 8976, Note_on_c, 6, 58, 608, 9004, Note_off_c, 6, 58, 608, 9004, Note_off_c, 6, 53, 1158, 9024, Note_on_c, 6, 55, 1158, 9024, Note_on_c, 6, 60, 608, 9052, Note_off_c, 6, 60, 608, 9052, Note_off_c, 6, 55, 1158, 9072, Note_on_c, 6, 58, 1158, 9072, Note_on_c, 6, 53, 608, 9100, Note_off_c, 6, 53, 608, 9100, Note_off_c, 6, 58, 1158, 9120, Note_on_c, 6, 60, 1158, 9120, Note_on_c, 6, 55, 608, 9148, Note_off_c, 6, 55, 608, 9148, Note_off_c, 6, 60, 1158, 9168, Note_on_c, 6, 53, 1158, 9168, Note_on_c, 6, 58, 608, 9196, Note_off_c, 6, 58, 608, 9196, Note_off_c, 6, 53, 1158, 9216, Note_on_c, 6, 39, 1158, 9216, Note_on_c, 6, 60, 608, 9244, Note_off_c, 6, 60, 608, 9244, Note_off_c, 6, 39, 1158, 9264, Note_on_c, 6, 48, 1158, 9264, Note_on_c, 6, 53, 608, 9292, Note_off_c, 6, 53, 608, 9292, Note_off_c, 6, 48, 1158, 9312, Note_on_c, 6, 46, 1158, 9312, Note_on_c, 6, 39, 608, 9340, Note_off_c, 6, 39, 608, 9340, Note_off_c, 6, 46, 1158, 9360, Note_on_c, 6, 43, 1158, 9360, Note_on_c, 6, 48, 608, 9388, Note_off_c, 6, 48, 608, 9388, Note_off_c, 6, 43, 1158, 9408, Note_on_c, 6, 39, 1158, 9408, Note_on_c, 6, 46, 608, 9436, Note_off_c, 6, 46, 608, 9436, Note_off_c, 6, 39, 1158, 9456, Note_on_c, 6, 48, 1158, 9456, Note_on_c, 6, 43, 608, 9484, Note_off_c, 6, 43, 608, 9484, Note_off_c, 6, 48, 1158, 9504, Note_on_c, 6, 46, 1158, 9504, Note_on_c, 6, 39, 608, 9532, Note_off_c, 6, 39, 608, 9532, Note_off_c, 6, 46, 1158, 9552, Note_on_c, 6, 43, 1158, 9552, Note_on_c, 6, 48, 608, 9580, Note_off_c, 6, 48, 608, 9580, Note_off_c, 6, 43, 1158, 9600, Note_on_c, 6, 39, 1158, 9600, Note_on_c, 6, 46, 608, 9628, Note_off_c, 6, 46, 608, 9628, Note_off_c, 6, 39, 1158, 9648, Note_on_c, 6, 48, 1158, 9648, Note_on_c, 6, 43, 608, 9676, Note_off_c, 6, 43, 608, 9676, Note_off_c, 6, 48, 1158, 9696, Note_on_c, 6, 46, 1158, 9696, Note_on_c, 6, 39, 608, 9724, Note_off_c, 6, 39, 608, 9724, Note_off_c, 6, 46, 1158, 9744, Note_on_c, 6, 43, 1158, 9744, Note_on_c, 6, 48, 608, 9772, Note_off_c, 6, 48, 608, 9772, Note_off_c, 6, 43, 1158, 9792, Note_on_c, 6, 39, 1158, 9792, Note_on_c, 6, 46, 608, 9820, Note_off_c, 6, 46, 608, 9820, Note_off_c, 6, 39, 1158, 9840, Note_on_c, 6, 48, 1158, 9840, Note_on_c, 6, 43, 608, 9868, Note_off_c, 6, 43, 608, 9868, Note_off_c, 6, 48, 1158, 9888, Note_on_c, 6, 46, 1158, 9888, Note_on_c, 6, 39, 608, 9916, Note_off_c, 6, 39, 608, 9916, Note_off_c, 6, 46, 1158, 9936, Note_on_c, 6, 48, 608, 9964, Note_off_c, 6, 48, 608, 9984, Note_on_c, 6, 55, 1158, 9984, Note_on_c, 6, 46, 608, 10012, Note_off_c, 6, 46, 608, 10012, Note_off_c, 6, 55, 1158, 10032, Note_on_c, 6, 62, 1158, 10060, Note_off_c, 6, 62, 1158, 10080, Note_on_c, 6, 58, 1158, 10080, Note_on_c, 6, 55, 608, 10108, Note_off_c, 6, 55, 608, 10108, Note_off_c, 6, 58, 1158, 10128, Note_on_c, 6, 53, 1158, 10128, Note_on_c, 6, 62, 608, 10156, Note_off_c, 6, 62, 608, 10156, Note_off_c, 6, 53, 1158, 10176, Note_on_c, 6, 55, 1158, 10176, Note_on_c, 6, 58, 608, 10204, Note_off_c, 6, 58, 608, 10204, Note_off_c, 6, 55, 1158, 10224, Note_on_c, 6, 62, 1158, 10224, Note_on_c, 6, 53, 608, 10252, Note_off_c, 6, 53, 608, 10252, Note_off_c, 6, 62, 1158, 10272, Note_on_c, 6, 58, 1158, 10272, Note_on_c, 6, 55, 608, 10300, Note_off_c, 6, 55, 608, 10300, Note_off_c, 6, 58, 1158, 10320, Note_on_c, 6, 53, 1158, 10320, Note_on_c, 6, 62, 608, 10348, Note_off_c, 6, 62, 608, 10348, Note_off_c, 6, 53, 1158, 10368, Note_on_c, 6, 55, 1158, 10368, Note_on_c, 6, 58, 608, 10396, Note_off_c, 6, 58, 608, 10396, Note_off_c, 6, 55, 1158, 10416, Note_on_c, 6, 62, 1158, 10416, Note_on_c, 6, 53, 608, 10444, Note_off_c, 6, 53, 608, 10444, Note_off_c, 6, 62, 1158, 10464, Note_on_c, 6, 58, 1158, 10464, Note_on_c, 6, 55, 608, 10492, Note_off_c, 6, 55, 608, 10492, Note_off_c, 6, 58, 1158, 10512, Note_on_c, 6, 53, 1158, 10512, Note_on_c, 6, 62, 608, 10540, Note_off_c, 6, 62, 608, 10540, Note_off_c, 6, 53, 1158, 10560, Note_on_c, 6, 55, 1158, 10560, Note_on_c, 6, 58, 608, 10588, Note_off_c, 6, 58, 608, 10588, Note_off_c, 6, 55, 1158, 10608, Note_on_c, 6, 62, 1158, 10608, Note_on_c, 6, 53, 608, 10636, Note_off_c, 6, 53, 608, 10636, Note_off_c, 6, 62, 1158, 10656, Note_on_c, 6, 58, 1158, 10656, Note_on_c, 6, 55, 608, 10684, Note_off_c, 6, 55, 608, 10684, Note_off_c, 6, 58, 1158, 10704, Note_on_c, 6, 53, 1158, 10704, Note_on_c, 6, 62, 608, 10732, Note_off_c, 6, 62, 608, 10732, Note_off_c, 6, 53, 1158, 10752, Note_on_c, 6, 39, 1158, 10752, Note_on_c, 6, 58, 608, 10780, Note_off_c, 6, 58, 608, 10780, Note_off_c, 6, 39, 1158, 10800, Note_on_c, 6, 48, 1158, 10800, Note_on_c, 6, 53, 608, 10828, Note_off_c, 6, 53, 608, 10828, Note_off_c, 6, 48, 1158, 10848, Note_on_c, 6, 46, 1158, 10848, Note_on_c, 6, 39, 608, 10876, Note_off_c, 6, 39, 608, 10876, Note_off_c, 6, 46, 1158, 10896, Note_on_c, 6, 43, 1158, 10896, Note_on_c, 6, 48, 608, 10924, Note_off_c, 6, 48, 608, 10924, Note_off_c, 6, 43, 1158, 10944, Note_on_c, 6, 39, 1158, 10944, Note_on_c, 6, 46, 608, 10972, Note_off_c, 6, 46, 608, 10972, Note_off_c, 6, 39, 1158, 10992, Note_on_c, 6, 48, 1158, 10992, Note_on_c, 6, 43, 608, 11020, Note_off_c, 6, 43, 608, 11020, Note_off_c, 6, 48, 1158, 11040, Note_on_c, 6, 46, 1158, 11040, Note_on_c, 6, 39, 608, 11068, Note_off_c, 6, 39, 608, 11068, Note_off_c, 6, 46, 1158, 11088, Note_on_c, 6, 43, 1158, 11088, Note_on_c, 6, 48, 608, 11116, Note_off_c, 6, 48, 608, 11116, Note_off_c, 6, 43, 1158, 11136, Note_on_c, 6, 39, 1158, 11136, Note_on_c, 6, 46, 608, 11164, Note_off_c, 6, 46, 608, 11164, Note_off_c, 6, 39, 1158, 11184, Note_on_c, 6, 48, 1158, 11184, Note_on_c, 6, 43, 608, 11212, Note_off_c, 6, 43, 608, 11212, Note_off_c, 6, 48, 1158, 11232, Note_on_c, 6, 46, 1158, 11232, Note_on_c, 6, 39, 608, 11260, Note_off_c, 6, 39, 608, 11260, Note_off_c, 6, 46, 1158, 11280, Note_on_c, 6, 43, 1158, 11280, Note_on_c, 6, 48, 608, 11308, Note_off_c, 6, 48, 608, 11308, Note_off_c, 6, 43, 1158, 11328, Note_on_c, 6, 39, 1158, 11328, Note_on_c, 6, 46, 608, 11356, Note_off_c, 6, 46, 608, 11356, Note_off_c, 6, 39, 1158, 11376, Note_on_c, 6, 48, 1158, 11376, Note_on_c, 6, 43, 608, 11404, Note_off_c, 6, 43, 608, 11404, Note_off_c, 6, 48, 1158, 11424, Note_on_c, 6, 46, 1158, 11424, Note_on_c, 6, 39, 608, 11452, Note_off_c, 6, 39, 608, 11452, Note_off_c, 6, 46, 1158, 11472, Note_on_c, 6, 48, 608, 11500, Note_off_c, 6, 48, 608, 11520, Note_on_c, 6, 58, 1158, 11520, Note_on_c, 6, 46, 608, 11548, Note_off_c, 6, 46, 608, 11548, Note_off_c, 6, 58, 1158, 11568, Note_on_c, 6, 53, 1158, 11596, Note_off_c, 6, 53, 1158, 11616, Note_on_c, 6, 62, 1158, 11616, Note_on_c, 6, 58, 608, 11644, Note_off_c, 6, 58, 608, 11644, Note_off_c, 6, 62, 1158, 11664, Note_on_c, 6, 55, 1158, 11664, Note_on_c, 6, 53, 608, 11692, Note_off_c, 6, 53, 608, 11692, Note_off_c, 6, 55, 1158, 11712, Note_on_c, 6, 58, 1158, 11712, Note_on_c, 6, 62, 608, 11740, Note_off_c, 6, 62, 608, 11740, Note_off_c, 6, 58, 1158, 11760, Note_on_c, 6, 53, 1158, 11760, Note_on_c, 6, 55, 608, 11788, Note_off_c, 6, 55, 608, 11788, Note_off_c, 6, 53, 1158, 11808, Note_on_c, 6, 62, 1158, 11808, Note_on_c, 6, 58, 608, 11836, Note_off_c, 6, 58, 608, 11836, Note_off_c, 6, 62, 1158, 11856, Note_on_c, 6, 55, 1158, 11856, Note_on_c, 6, 53, 608, 11884, Note_off_c, 6, 53, 608, 11884, Note_off_c, 6, 55, 1158, 11904, Note_on_c, 6, 58, 1158, 11904, Note_on_c, 6, 62, 608, 11932, Note_off_c, 6, 62, 608, 11932, Note_off_c, 6, 58, 1158, 11952, Note_on_c, 6, 53, 1158, 11952, Note_on_c, 6, 55, 608, 11980, Note_off_c, 6, 55, 608, 11980, Note_off_c, 6, 53, 1158, 12000, Note_on_c, 6, 62, 1158, 12000, Note_on_c, 6, 58, 608, 12028, Note_off_c, 6, 58, 608, 12028, Note_off_c, 6, 62, 1158, 12048, Note_on_c, 6, 55, 1158, 12048, Note_on_c, 6, 53, 608, 12076, Note_off_c, 6, 53, 608, 12076, Note_off_c, 6, 55, 1158, 12096, Note_on_c, 6, 58, 1158, 12096, Note_on_c, 6, 62, 608, 12124, Note_off_c, 6, 62, 608, 12124, Note_off_c, 6, 58, 1158, 12144, Note_on_c, 6, 53, 1158, 12144, Note_on_c, 6, 55, 608, 12172, Note_off_c, 6, 55, 608, 12172, Note_off_c, 6, 53, 1158, 12192, Note_on_c, 6, 62, 1158, 12192, Note_on_c, 6, 58, 608, 12220, Note_off_c, 6, 58, 608, 12220, Note_off_c, 6, 62, 1158, 12240, Note_on_c, 6, 55, 1158, 12240, Note_on_c, 6, 53, 608, 12268, Note_off_c, 6, 53, 608, 12268, Note_off_c, 6, 55, 1158, 12288, Note_on_c, 6, 43, 1158, 12288, Note_on_c, 6, 62, 608, 12316, Note_off_c, 6, 62, 608, 12316, Note_off_c, 6, 43, 1158, 12336, Note_on_c, 6, 46, 1158, 12336, Note_on_c, 6, 55, 608, 12364, Note_off_c, 6, 55, 608, 12364, Note_off_c, 6, 46, 1158, 12384, Note_on_c, 6, 48, 1158, 12384, Note_on_c, 6, 43, 608, 12412, Note_off_c, 6, 43, 608, 12412, Note_off_c, 6, 48, 1158, 12432, Note_on_c, 6, 39, 1158, 12432, Note_on_c, 6, 46, 608, 12460, Note_off_c, 6, 46, 608, 12460, Note_off_c, 6, 39, 1158, 12480, Note_on_c, 6, 43, 1158, 12480, Note_on_c, 6, 48, 608, 12508, Note_off_c, 6, 48, 608, 12508, Note_off_c, 6, 43, 1158, 12528, Note_on_c, 6, 46, 1158, 12528, Note_on_c, 6, 39, 608, 12556, Note_off_c, 6, 39, 608, 12556, Note_off_c, 6, 46, 1158, 12576, Note_on_c, 6, 48, 1158, 12576, Note_on_c, 6, 43, 608, 12604, Note_off_c, 6, 43, 608, 12604, Note_off_c, 6, 48, 1158, 12624, Note_on_c, 6, 39, 1158, 12624, Note_on_c, 6, 46, 608, 12652, Note_off_c, 6, 46, 608, 12652, Note_off_c, 6, 39, 1158, 12672, Note_on_c, 6, 43, 1158, 12672, Note_on_c, 6, 48, 608, 12700, Note_off_c, 6, 48, 608, 12700, Note_off_c, 6, 43, 1158, 12720, Note_on_c, 6, 46, 1158, 12720, Note_on_c, 6, 39, 608, 12748, Note_off_c, 6, 39, 608, 12748, Note_off_c, 6, 46, 1158, 12768, Note_on_c, 6, 48, 1158, 12768, Note_on_c, 6, 43, 608, 12796, Note_off_c, 6, 43, 608, 12796, Note_off_c, 6, 48, 1158, 12816, Note_on_c, 6, 39, 1158, 12816, Note_on_c, 6, 46, 608, 12844, Note_off_c, 6, 46, 608, 12844, Note_off_c, 6, 39, 1158, 12864, Note_on_c, 6, 43, 1158, 12864, Note_on_c, 6, 48, 608, 12892, Note_off_c, 6, 48, 608, 12892, Note_off_c, 6, 43, 1158, 12912, Note_on_c, 6, 46, 1158, 12912, Note_on_c, 6, 39, 608, 12940, Note_off_c, 6, 39, 608, 12940, Note_off_c, 6, 46, 1158, 12960, Note_on_c, 6, 48, 1158, 12960, Note_on_c, 6, 43, 608, 12988, Note_off_c, 6, 43, 608, 12988, Note_off_c, 6, 48, 1158, 13008, Note_on_c, 6, 39, 1158, 13008, Note_on_c, 6, 46, 608, 13036, Note_off_c, 6, 46, 608, 13036, Note_off_c, 6, 39, 1158, 13056, Note_on_c, 6, 55, 1158, 13056, Note_on_c, 6, 48, 608, 13084, Note_off_c, 6, 48, 608, 13084, Note_off_c, 6, 55, 1158, 13104, Note_on_c, 6, 58, 1158, 13104, Note_on_c, 6, 39, 608, 13132, Note_off_c, 6, 39, 608, 13132, Note_off_c, 6, 58, 1158, 13152, Note_on_c, 6, 62, 1158, 13152, Note_on_c, 6, 55, 608, 13180, Note_off_c, 6, 55, 608, 13180, Note_off_c, 6, 62, 1158, 13200, Note_on_c, 6, 53, 1158, 13200, Note_on_c, 6, 58, 608, 13228, Note_off_c, 6, 58, 608, 13228, Note_off_c, 6, 53, 1158, 13248, Note_on_c, 6, 55, 1158, 13248, Note_on_c, 6, 62, 608, 13276, Note_off_c, 6, 62, 608, 13276, Note_off_c, 6, 55, 1158, 13296, Note_on_c, 6, 58, 1158, 13296, Note_on_c, 6, 53, 608, 13324, Note_off_c, 6, 53, 608, 13324, Note_off_c, 6, 58, 1158, 13344, Note_on_c, 6, 62, 1158, 13344, Note_on_c, 6, 55, 608, 13372, Note_off_c, 6, 55, 608, 13372, Note_off_c, 6, 62, 1158, 13392, Note_on_c, 6, 53, 1158, 13392, Note_on_c, 6, 58, 608, 13420, Note_off_c, 6, 58, 608, 13420, Note_off_c, 6, 53, 1158, 13440, Note_on_c, 6, 55, 1158, 13440, Note_on_c, 6, 62, 608, 13468, Note_off_c, 6, 62, 608, 13468, Note_off_c, 6, 55, 1158, 13488, Note_on_c, 6, 58, 1158, 13488, Note_on_c, 6, 53, 608, 13516, Note_off_c, 6, 53, 608, 13516, Note_off_c, 6, 58, 1158, 13536, Note_on_c, 6, 62, 1158, 13536, Note_on_c, 6, 55, 608, 13564, Note_off_c, 6, 55, 608, 13564, Note_off_c, 6, 62, 1158, 13584, Note_on_c, 6, 53, 1158, 13584, Note_on_c, 6, 58, 608, 13612, Note_off_c, 6, 58, 608, 13612, Note_off_c, 6, 53, 1158, 13632, Note_on_c, 6, 55, 1158, 13632, Note_on_c, 6, 62, 608, 13660, Note_off_c, 6, 62, 608, 13660, Note_off_c, 6, 55, 1158, 13680, Note_on_c, 6, 58, 1158, 13680, Note_on_c, 6, 53, 608, 13708, Note_off_c, 6, 53, 608, 13708, Note_off_c, 6, 58, 1158, 13728, Note_on_c, 6, 62, 1158, 13728, Note_on_c, 6, 55, 608, 13756, Note_off_c, 6, 55, 608, 13756, Note_off_c, 6, 62, 1158, 13776, Note_on_c, 6, 53, 1158, 13776, Note_on_c, 6, 58, 608, 13804, Note_off_c, 6, 58, 608, 13804, Note_off_c, 6, 53, 1158, 13824, Note_on_c, 6, 43, 1158, 13824, Note_on_c, 6, 62, 608, 13852, Note_off_c, 6, 62, 608, 13852, Note_off_c, 6, 43, 1158, 13872, Note_on_c, 6, 46, 1158, 13872, Note_on_c, 6, 53, 608, 13900, Note_off_c, 6, 53, 608, 13900, Note_off_c, 6, 46, 1158, 13920, Note_on_c, 6, 48, 1158, 13920, Note_on_c, 6, 43, 608, 13948, Note_off_c, 6, 43, 608, 13948, Note_off_c, 6, 48, 1158, 13968, Note_on_c, 6, 39, 1158, 13968, Note_on_c, 6, 46, 608, 13996, Note_off_c, 6, 46, 608, 13996, Note_off_c, 6, 39, 1158, 14016, Note_on_c, 6, 43, 1158, 14016, Note_on_c, 6, 48, 608, 14044, Note_off_c, 6, 48, 608, 14044, Note_off_c, 6, 43, 1158, 14064, Note_on_c, 6, 46, 1158, 14064, Note_on_c, 6, 39, 608, 14092, Note_off_c, 6, 39, 608, 14092, Note_off_c, 6, 46, 1158, 14112, Note_on_c, 6, 48, 1158, 14112, Note_on_c, 6, 43, 608, 14140, Note_off_c, 6, 43, 608, 14140, Note_off_c, 6, 48, 1158, 14160, Note_on_c, 6, 39, 1158, 14160, Note_on_c, 6, 46, 608, 14188, Note_off_c, 6, 46, 608, 14188, Note_off_c, 6, 39, 1158, 14208, Note_on_c, 6, 43, 1158, 14208, Note_on_c, 6, 48, 608, 14236, Note_off_c, 6, 48, 608, 14236, Note_off_c, 6, 43, 1158, 14256, Note_on_c, 6, 46, 1158, 14256, Note_on_c, 6, 39, 608, 14284, Note_off_c, 6, 39, 608, 14284, Note_off_c, 6, 46, 1158, 14304, Note_on_c, 6, 48, 1158, 14304, Note_on_c, 6, 43, 608, 14332, Note_off_c, 6, 43, 608, 14332, Note_off_c, 6, 48, 1158, 14352, Note_on_c, 6, 39, 1158, 14352, Note_on_c, 6, 46, 608, 14380, Note_off_c, 6, 46, 608, 14380, Note_off_c, 6, 39, 1158, 14400, Note_on_c, 6, 43, 1158, 14400, Note_on_c, 6, 48, 608, 14428, Note_off_c, 6, 48, 608, 14428, Note_off_c, 6, 43, 1158, 14448, Note_on_c, 6, 46, 1158, 14448, Note_on_c, 6, 39, 608, 14476, Note_off_c, 6, 39, 608, 14476, Note_off_c, 6, 46, 1158, 14496, Note_on_c, 6, 48, 1158, 14496, Note_on_c, 6, 43, 608, 14524, Note_off_c, 6, 43, 608, 14524, Note_off_c, 6, 48, 1158, 14544, Note_on_c, 6, 39, 1158, 14544, Note_on_c, 6, 46, 608, 14572, Note_off_c, 6, 46, 608, 14572, Note_off_c, 6, 39, 1158, 14592, Note_on_c, 6, 55, 1158, 14592, Note_on_c, 6, 48, 608, 14620, Note_off_c, 6, 48, 608, 14620, Note_off_c, 6, 55, 1158, 14640, Note_on_c, 6, 58, 1158, 14640, Note_on_c, 6, 39, 608, 14668, Note_off_c, 6, 39, 608, 14668, Note_off_c, 6, 58, 1158, 14688, Note_on_c, 6, 60, 1158, 14688, Note_on_c, 6, 55, 608, 14716, Note_off_c, 6, 55, 608, 14716, Note_off_c, 6, 60, 1158, 14736, Note_on_c, 6, 53, 1158, 14736, Note_on_c, 6, 58, 608, 14764, Note_off_c, 6, 58, 608, 14764, Note_off_c, 6, 53, 1158, 14784, Note_on_c, 6, 55, 1158, 14784, Note_on_c, 6, 60, 608, 14812, Note_off_c, 6, 60, 608, 14812, Note_off_c, 6, 55, 1158, 14832, Note_on_c, 6, 58, 1158, 14832, Note_on_c, 6, 53, 608, 14860, Note_off_c, 6, 53, 608, 14860, Note_off_c, 6, 58, 1158, 14880, Note_on_c, 6, 60, 1158, 14880, Note_on_c, 6, 55, 608, 14908, Note_off_c, 6, 55, 608, 14908, Note_off_c, 6, 60, 1158, 14928, Note_on_c, 6, 53, 1158, 14928, Note_on_c, 6, 58, 608, 14956, Note_off_c, 6, 58, 608, 14956, Note_off_c, 6, 53, 1158, 14976, Note_on_c, 6, 55, 1158, 14976, Note_on_c, 6, 60, 608, 15004, Note_off_c, 6, 60, 608, 15004, Note_off_c, 6, 55, 1158, 15024, Note_on_c, 6, 58, 1158, 15024, Note_on_c, 6, 53, 608, 15052, Note_off_c, 6, 53, 608, 15052, Note_off_c, 6, 58, 1158, 15072, Note_on_c, 6, 60, 1158, 15072, Note_on_c, 6, 55, 608, 15100, Note_off_c, 6, 55, 608, 15100, Note_off_c, 6, 60, 1158, 15120, Note_on_c, 6, 53, 1158, 15120, Note_on_c, 6, 58, 608, 15148, Note_off_c, 6, 58, 608, 15148, Note_off_c, 6, 53, 1158, 15168, Note_on_c, 6, 55, 1158, 15168, Note_on_c, 6, 60, 608, 15196, Note_off_c, 6, 60, 608, 15196, Note_off_c, 6, 55, 1158, 15216, Note_on_c, 6, 58, 1158, 15216, Note_on_c, 6, 53, 608, 15244, Note_off_c, 6, 53, 608, 15244, Note_off_c, 6, 58, 1158, 15264, Note_on_c, 6, 60, 1158, 15264, Note_on_c, 6, 55, 608, 15292, Note_off_c, 6, 55, 608, 15292, Note_off_c, 6, 60, 1158, 15312, Note_on_c, 6, 53, 1158, 15312, Note_on_c, 6, 58, 608, 15340, Note_off_c, 6, 58, 608, 15340, Note_off_c, 6, 53, 1158, 15360, Note_on_c, 6, 60, 608, 15388, Note_off_c, 6, 60, 608, 15408, Note_on_c, 6, 53, 608, 15436, Note_off_c, 6, 53, 608, 79872, Note_on_c, 6, 39, 1158, 79900, Note_off_c, 6, 39, 1158, 79920, Note_on_c, 6, 48, 1158, 79948, Note_off_c, 6, 48, 1158, 79968, Note_on_c, 6, 46, 1158, 79968, Note_on_c, 6, 39, 608, 79996, Note_off_c, 6, 39, 608, 79996, Note_off_c, 6, 46, 1158, 80016, Note_on_c, 6, 43, 1158, 80016, Note_on_c, 6, 48, 608, 80044, Note_off_c, 6, 48, 608, 80044, Note_off_c, 6, 43, 1158, 80064, Note_on_c, 6, 39, 1158, 80064, Note_on_c, 6, 46, 608, 80092, Note_off_c, 6, 46, 608, 80092, Note_off_c, 6, 39, 1158, 80112, Note_on_c, 6, 48, 1158, 80112, Note_on_c, 6, 43, 608, 80140, Note_off_c, 6, 43, 608, 80140, Note_off_c, 6, 48, 1158, 80160, Note_on_c, 6, 46, 1158, 80160, Note_on_c, 6, 39, 608, 80188, Note_off_c, 6, 39, 608, 80188, Note_off_c, 6, 46, 1158, 80208, Note_on_c, 6, 43, 1158, 80208, Note_on_c, 6, 48, 608, 80236, Note_off_c, 6, 48, 608, 80236, Note_off_c, 6, 43, 1158, 80256, Note_on_c, 6, 39, 1158, 80256, Note_on_c, 6, 46, 608, 80284, Note_off_c, 6, 46, 608, 80284, Note_off_c, 6, 39, 1158, 80304, Note_on_c, 6, 48, 1158, 80304, Note_on_c, 6, 43, 608, 80332, Note_off_c, 6, 43, 608, 80332, Note_off_c, 6, 48, 1158, 80352, Note_on_c, 6, 46, 1158, 80352, Note_on_c, 6, 39, 608, 80380, Note_off_c, 6, 39, 608, 80380, Note_off_c, 6, 46, 1158, 80400, Note_on_c, 6, 43, 1158, 80400, Note_on_c, 6, 48, 608, 80428, Note_off_c, 6, 48, 608, 80428, Note_off_c, 6, 43, 1158, 80448, Note_on_c, 6, 39, 1158, 80448, Note_on_c, 6, 46, 608, 80476, Note_off_c, 6, 46, 608, 80476, Note_off_c, 6, 39, 1158, 80496, Note_on_c, 6, 48, 1158, 80496, Note_on_c, 6, 43, 608, 80524, Note_off_c, 6, 43, 608, 80524, Note_off_c, 6, 48, 1158, 80544, Note_on_c, 6, 46, 1158, 80544, Note_on_c, 6, 39, 608, 80572, Note_off_c, 6, 39, 608, 80572, Note_off_c, 6, 46, 1158, 80592, Note_on_c, 6, 48, 608, 80620, Note_off_c, 6, 48, 608, 80640, Note_on_c, 6, 55, 1158, 80640, Note_on_c, 6, 46, 608, 80668, Note_off_c, 6, 46, 608, 80668, Note_off_c, 6, 55, 1158, 80688, Note_on_c, 6, 62, 1158, 80716, Note_off_c, 6, 62, 1158, 80736, Note_on_c, 6, 58, 1158, 80736, Note_on_c, 6, 55, 608, 80764, Note_off_c, 6, 55, 608, 80764, Note_off_c, 6, 58, 1158, 80784, Note_on_c, 6, 53, 1158, 80784, Note_on_c, 6, 62, 608, 80812, Note_off_c, 6, 62, 608, 80812, Note_off_c, 6, 53, 1158, 80832, Note_on_c, 6, 55, 1158, 80832, Note_on_c, 6, 58, 608, 80860, Note_off_c, 6, 58, 608, 80860, Note_off_c, 6, 55, 1158, 80880, Note_on_c, 6, 62, 1158, 80880, Note_on_c, 6, 53, 608, 80908, Note_off_c, 6, 53, 608, 80908, Note_off_c, 6, 62, 1158, 80928, Note_on_c, 6, 58, 1158, 80928, Note_on_c, 6, 55, 608, 80956, Note_off_c, 6, 55, 608, 80956, Note_off_c, 6, 58, 1158, 80976, Note_on_c, 6, 53, 1158, 80976, Note_on_c, 6, 62, 608, 81004, Note_off_c, 6, 62, 608, 81004, Note_off_c, 6, 53, 1158, 81024, Note_on_c, 6, 55, 1158, 81024, Note_on_c, 6, 58, 608, 81052, Note_off_c, 6, 58, 608, 81052, Note_off_c, 6, 55, 1158, 81072, Note_on_c, 6, 62, 1158, 81072, Note_on_c, 6, 53, 608, 81100, Note_off_c, 6, 53, 608, 81100, Note_off_c, 6, 62, 1158, 81120, Note_on_c, 6, 58, 1158, 81120, Note_on_c, 6, 55, 608, 81148, Note_off_c, 6, 55, 608, 81148, Note_off_c, 6, 58, 1158, 81168, Note_on_c, 6, 53, 1158, 81168, Note_on_c, 6, 62, 608, 81196, Note_off_c, 6, 62, 608, 81196, Note_off_c, 6, 53, 1158, 81216, Note_on_c, 6, 55, 1158, 81216, Note_on_c, 6, 58, 608, 81244, Note_off_c, 6, 58, 608, 81244, Note_off_c, 6, 55, 1158, 81264, Note_on_c, 6, 62, 1158, 81264, Note_on_c, 6, 53, 608, 81292, Note_off_c, 6, 53, 608, 81292, Note_off_c, 6, 62, 1158, 81312, Note_on_c, 6, 58, 1158, 81312, Note_on_c, 6, 55, 608, 81340, Note_off_c, 6, 55, 608, 81340, Note_off_c, 6, 58, 1158, 81360, Note_on_c, 6, 53, 1158, 81360, Note_on_c, 6, 62, 608, 81388, Note_off_c, 6, 62, 608, 81388, Note_off_c, 6, 53, 1158, 81408, Note_on_c, 6, 39, 1158, 81408, Note_on_c, 6, 58, 608, 81436, Note_off_c, 6, 58, 608, 81436, Note_off_c, 6, 39, 1158, 81456, Note_on_c, 6, 48, 1158, 81456, Note_on_c, 6, 53, 608, 81484, Note_off_c, 6, 53, 608, 81484, Note_off_c, 6, 48, 1158, 81504, Note_on_c, 6, 46, 1158, 81504, Note_on_c, 6, 39, 608, 81532, Note_off_c, 6, 39, 608, 81532, Note_off_c, 6, 46, 1158, 81552, Note_on_c, 6, 43, 1158, 81552, Note_on_c, 6, 48, 608, 81580, Note_off_c, 6, 48, 608, 81580, Note_off_c, 6, 43, 1158, 81600, Note_on_c, 6, 39, 1158, 81600, Note_on_c, 6, 46, 608, 81628, Note_off_c, 6, 46, 608, 81628, Note_off_c, 6, 39, 1158, 81648, Note_on_c, 6, 48, 1158, 81648, Note_on_c, 6, 43, 608, 81676, Note_off_c, 6, 43, 608, 81676, Note_off_c, 6, 48, 1158, 81696, Note_on_c, 6, 46, 1158, 81696, Note_on_c, 6, 39, 608, 81724, Note_off_c, 6, 39, 608, 81724, Note_off_c, 6, 46, 1158, 81744, Note_on_c, 6, 43, 1158, 81744, Note_on_c, 6, 48, 608, 81772, Note_off_c, 6, 48, 608, 81772, Note_off_c, 6, 43, 1158, 81792, Note_on_c, 6, 39, 1158, 81792, Note_on_c, 6, 46, 608, 81820, Note_off_c, 6, 46, 608, 81820, Note_off_c, 6, 39, 1158, 81840, Note_on_c, 6, 48, 1158, 81840, Note_on_c, 6, 43, 608, 81868, Note_off_c, 6, 43, 608, 81868, Note_off_c, 6, 48, 1158, 81888, Note_on_c, 6, 46, 1158, 81888, Note_on_c, 6, 39, 608, 81916, Note_off_c, 6, 39, 608, 81916, Note_off_c, 6, 46, 1158, 81936, Note_on_c, 6, 43, 1158, 81936, Note_on_c, 6, 48, 608, 81964, Note_off_c, 6, 48, 608, 81964, Note_off_c, 6, 43, 1158, 81984, Note_on_c, 6, 39, 1158, 81984, Note_on_c, 6, 46, 608, 82012, Note_off_c, 6, 46, 608, 82012, Note_off_c, 6, 39, 1158, 82032, Note_on_c, 6, 48, 1158, 82032, Note_on_c, 6, 43, 608, 82060, Note_off_c, 6, 43, 608, 82060, Note_off_c, 6, 48, 1158, 82080, Note_on_c, 6, 46, 1158, 82080, Note_on_c, 6, 39, 608, 82108, Note_off_c, 6, 39, 608, 82108, Note_off_c, 6, 46, 1158, 82128, Note_on_c, 6, 48, 608, 82156, Note_off_c, 6, 48, 608, 82176, Note_on_c, 6, 58, 1158, 82176, Note_on_c, 6, 46, 608, 82204, Note_off_c, 6, 46, 608, 82204, Note_off_c, 6, 58, 1158, 82224, Note_on_c, 6, 53, 1158, 82252, Note_off_c, 6, 53, 1158, 82272, Note_on_c, 6, 62, 1158, 82272, Note_on_c, 6, 58, 608, 82300, Note_off_c, 6, 58, 608, 82300, Note_off_c, 6, 62, 1158, 82320, Note_on_c, 6, 55, 1158, 82320, Note_on_c, 6, 53, 608, 82348, Note_off_c, 6, 53, 608, 82348, Note_off_c, 6, 55, 1158, 82368, Note_on_c, 6, 58, 1158, 82368, Note_on_c, 6, 62, 608, 82396, Note_off_c, 6, 62, 608, 82396, Note_off_c, 6, 58, 1158, 82416, Note_on_c, 6, 53, 1158, 82416, Note_on_c, 6, 55, 608, 82444, Note_off_c, 6, 55, 608, 82444, Note_off_c, 6, 53, 1158, 82464, Note_on_c, 6, 62, 1158, 82464, Note_on_c, 6, 58, 608, 82492, Note_off_c, 6, 58, 608, 82492, Note_off_c, 6, 62, 1158, 82512, Note_on_c, 6, 55, 1158, 82512, Note_on_c, 6, 53, 608, 82540, Note_off_c, 6, 53, 608, 82540, Note_off_c, 6, 55, 1158, 82560, Note_on_c, 6, 58, 1158, 82560, Note_on_c, 6, 62, 608, 82588, Note_off_c, 6, 62, 608, 82588, Note_off_c, 6, 58, 1158, 82608, Note_on_c, 6, 53, 1158, 82608, Note_on_c, 6, 55, 608, 82636, Note_off_c, 6, 55, 608, 82636, Note_off_c, 6, 53, 1158, 82656, Note_on_c, 6, 62, 1158, 82656, Note_on_c, 6, 58, 608, 82684, Note_off_c, 6, 58, 608, 82684, Note_off_c, 6, 62, 1158, 82704, Note_on_c, 6, 55, 1158, 82704, Note_on_c, 6, 53, 608, 82732, Note_off_c, 6, 53, 608, 82732, Note_off_c, 6, 55, 1158, 82752, Note_on_c, 6, 58, 1158, 82752, Note_on_c, 6, 62, 608, 82780, Note_off_c, 6, 62, 608, 82780, Note_off_c, 6, 58, 1158, 82800, Note_on_c, 6, 53, 1158, 82800, Note_on_c, 6, 55, 608, 82828, Note_off_c, 6, 55, 608, 82828, Note_off_c, 6, 53, 1158, 82848, Note_on_c, 6, 62, 1158, 82848, Note_on_c, 6, 58, 608, 82876, Note_off_c, 6, 58, 608, 82876, Note_off_c, 6, 62, 1158, 82896, Note_on_c, 6, 55, 1158, 82896, Note_on_c, 6, 53, 608, 82924, Note_off_c, 6, 53, 608, 82924, Note_off_c, 6, 55, 1158, 82944, Note_on_c, 6, 43, 1158, 82944, Note_on_c, 6, 62, 608, 82972, Note_off_c, 6, 62, 608, 82972, Note_off_c, 6, 43, 1158, 82992, Note_on_c, 6, 46, 1158, 82992, Note_on_c, 6, 55, 608, 83020, Note_off_c, 6, 55, 608, 83020, Note_off_c, 6, 46, 1158, 83040, Note_on_c, 6, 48, 1158, 83040, Note_on_c, 6, 43, 608, 83068, Note_off_c, 6, 43, 608, 83068, Note_off_c, 6, 48, 1158, 83088, Note_on_c, 6, 39, 1158, 83088, Note_on_c, 6, 46, 608, 83116, Note_off_c, 6, 46, 608, 83116, Note_off_c, 6, 39, 1158, 83136, Note_on_c, 6, 43, 1158, 83136, Note_on_c, 6, 48, 608, 83164, Note_off_c, 6, 48, 608, 83164, Note_off_c, 6, 43, 1158, 83184, Note_on_c, 6, 46, 1158, 83184, Note_on_c, 6, 39, 608, 83212, Note_off_c, 6, 39, 608, 83212, Note_off_c, 6, 46, 1158, 83232, Note_on_c, 6, 48, 1158, 83232, Note_on_c, 6, 43, 608, 83260, Note_off_c, 6, 43, 608, 83260, Note_off_c, 6, 48, 1158, 83280, Note_on_c, 6, 39, 1158, 83280, Note_on_c, 6, 46, 608, 83308, Note_off_c, 6, 46, 608, 83308, Note_off_c, 6, 39, 1158, 83328, Note_on_c, 6, 43, 1158, 83328, Note_on_c, 6, 48, 608, 83356, Note_off_c, 6, 48, 608, 83356, Note_off_c, 6, 43, 1158, 83376, Note_on_c, 6, 46, 1158, 83376, Note_on_c, 6, 39, 608, 83404, Note_off_c, 6, 39, 608, 83404, Note_off_c, 6, 46, 1158, 83424, Note_on_c, 6, 48, 1158, 83424, Note_on_c, 6, 43, 608, 83452, Note_off_c, 6, 43, 608, 83452, Note_off_c, 6, 48, 1158, 83472, Note_on_c, 6, 39, 1158, 83472, Note_on_c, 6, 46, 608, 83500, Note_off_c, 6, 46, 608, 83500, Note_off_c, 6, 39, 1158, 83520, Note_on_c, 6, 43, 1158, 83520, Note_on_c, 6, 48, 608, 83548, Note_off_c, 6, 48, 608, 83548, Note_off_c, 6, 43, 1158, 83568, Note_on_c, 6, 46, 1158, 83568, Note_on_c, 6, 39, 608, 83596, Note_off_c, 6, 39, 608, 83596, Note_off_c, 6, 46, 1158, 83616, Note_on_c, 6, 48, 1158, 83616, Note_on_c, 6, 43, 608, 83644, Note_off_c, 6, 43, 608, 83644, Note_off_c, 6, 48, 1158, 83664, Note_on_c, 6, 39, 1158, 83664, Note_on_c, 6, 46, 608, 83692, Note_off_c, 6, 46, 608, 83692, Note_off_c, 6, 39, 1158, 83712, Note_on_c, 6, 55, 1158, 83712, Note_on_c, 6, 48, 608, 83740, Note_off_c, 6, 48, 608, 83740, Note_off_c, 6, 55, 1158, 83760, Note_on_c, 6, 58, 1158, 83760, Note_on_c, 6, 39, 608, 83788, Note_off_c, 6, 39, 608, 83788, Note_off_c, 6, 58, 1158, 83808, Note_on_c, 6, 62, 1158, 83808, Note_on_c, 6, 55, 608, 83836, Note_off_c, 6, 55, 608, 83836, Note_off_c, 6, 62, 1158, 83856, Note_on_c, 6, 53, 1158, 83856, Note_on_c, 6, 58, 608, 83884, Note_off_c, 6, 58, 608, 83884, Note_off_c, 6, 53, 1158, 83904, Note_on_c, 6, 55, 1158, 83904, Note_on_c, 6, 62, 608, 83932, Note_off_c, 6, 62, 608, 83932, Note_off_c, 6, 55, 1158, 83952, Note_on_c, 6, 58, 1158, 83952, Note_on_c, 6, 53, 608, 83980, Note_off_c, 6, 53, 608, 83980, Note_off_c, 6, 58, 1158, 84000, Note_on_c, 6, 62, 1158, 84000, Note_on_c, 6, 55, 608, 84028, Note_off_c, 6, 55, 608, 84028, Note_off_c, 6, 62, 1158, 84048, Note_on_c, 6, 53, 1158, 84048, Note_on_c, 6, 58, 608, 84076, Note_off_c, 6, 58, 608, 84076, Note_off_c, 6, 53, 1158, 84096, Note_on_c, 6, 55, 1158, 84096, Note_on_c, 6, 62, 608, 84124, Note_off_c, 6, 62, 608, 84124, Note_off_c, 6, 55, 1158, 84144, Note_on_c, 6, 58, 1158, 84144, Note_on_c, 6, 53, 608, 84172, Note_off_c, 6, 53, 608, 84172, Note_off_c, 6, 58, 1158, 84192, Note_on_c, 6, 62, 1158, 84192, Note_on_c, 6, 55, 608, 84220, Note_off_c, 6, 55, 608, 84220, Note_off_c, 6, 62, 1158, 84240, Note_on_c, 6, 53, 1158, 84240, Note_on_c, 6, 58, 608, 84268, Note_off_c, 6, 58, 608, 84268, Note_off_c, 6, 53, 1158, 84288, Note_on_c, 6, 55, 1158, 84288, Note_on_c, 6, 62, 608, 84316, Note_off_c, 6, 62, 608, 84316, Note_off_c, 6, 55, 1158, 84336, Note_on_c, 6, 58, 1158, 84336, Note_on_c, 6, 53, 608, 84364, Note_off_c, 6, 53, 608, 84364, Note_off_c, 6, 58, 1158, 84384, Note_on_c, 6, 62, 1158, 84384, Note_on_c, 6, 55, 608, 84412, Note_off_c, 6, 55, 608, 84412, Note_off_c, 6, 62, 1158, 84432, Note_on_c, 6, 53, 1158, 84432, Note_on_c, 6, 58, 608, 84460, Note_off_c, 6, 58, 608, 84460, Note_off_c, 6, 53, 1158, 84480, Note_on_c, 6, 43, 1158, 84480, Note_on_c, 6, 62, 608, 84508, Note_off_c, 6, 62, 608, 84508, Note_off_c, 6, 43, 1158, 84528, Note_on_c, 6, 46, 1158, 84528, Note_on_c, 6, 53, 608, 84556, Note_off_c, 6, 53, 608, 84556, Note_off_c, 6, 46, 1158, 84576, Note_on_c, 6, 48, 1158, 84576, Note_on_c, 6, 43, 608, 84604, Note_off_c, 6, 43, 608, 84604, Note_off_c, 6, 48, 1158, 84624, Note_on_c, 6, 39, 1158, 84624, Note_on_c, 6, 46, 608, 84652, Note_off_c, 6, 46, 608, 84652, Note_off_c, 6, 39, 1158, 84672, Note_on_c, 6, 43, 1158, 84672, Note_on_c, 6, 48, 608, 84700, Note_off_c, 6, 48, 608, 84700, Note_off_c, 6, 43, 1158, 84720, Note_on_c, 6, 46, 1158, 84720, Note_on_c, 6, 39, 608, 84748, Note_off_c, 6, 39, 608, 84748, Note_off_c, 6, 46, 1158, 84768, Note_on_c, 6, 48, 1158, 84768, Note_on_c, 6, 43, 608, 84796, Note_off_c, 6, 43, 608, 84796, Note_off_c, 6, 48, 1158, 84816, Note_on_c, 6, 39, 1158, 84816, Note_on_c, 6, 46, 608, 84844, Note_off_c, 6, 46, 608, 84844, Note_off_c, 6, 39, 1158, 84864, Note_on_c, 6, 43, 1158, 84864, Note_on_c, 6, 48, 608, 84892, Note_off_c, 6, 48, 608, 84892, Note_off_c, 6, 43, 1158, 84912, Note_on_c, 6, 46, 1158, 84912, Note_on_c, 6, 39, 608, 84940, Note_off_c, 6, 39, 608, 84940, Note_off_c, 6, 46, 1158, 84960, Note_on_c, 6, 48, 1158, 84960, Note_on_c, 6, 43, 608, 84988, Note_off_c, 6, 43, 608, 84988, Note_off_c, 6, 48, 1158, 85008, Note_on_c, 6, 39, 1158, 85008, Note_on_c, 6, 46, 608, 85036, Note_off_c, 6, 46, 608, 85036, Note_off_c, 6, 39, 1158, 85056, Note_on_c, 6, 43, 1158, 85056, Note_on_c, 6, 48, 608, 85084, Note_off_c, 6, 48, 608, 85084, Note_off_c, 6, 43, 1158, 85104, Note_on_c, 6, 46, 1158, 85104, Note_on_c, 6, 39, 608, 85132, Note_off_c, 6, 39, 608, 85132, Note_off_c, 6, 46, 1158, 85152, Note_on_c, 6, 48, 1158, 85152, Note_on_c, 6, 43, 608, 85180, Note_off_c, 6, 43, 608, 85180, Note_off_c, 6, 48, 1158, 85200, Note_on_c, 6, 39, 1158, 85200, Note_on_c, 6, 46, 608, 85228, Note_off_c, 6, 46, 608, 85228, Note_off_c, 6, 39, 1158, 85248, Note_on_c, 6, 55, 1158, 85248, Note_on_c, 6, 48, 608, 85276, Note_off_c, 6, 48, 608, 85276, Note_off_c, 6, 55, 1158, 85296, Note_on_c, 6, 58, 1158, 85296, Note_on_c, 6, 39, 608, 85324, Note_off_c, 6, 39, 608, 85324, Note_off_c, 6, 58, 1158, 85344, Note_on_c, 6, 60, 1158, 85344, Note_on_c, 6, 55, 608, 85372, Note_off_c, 6, 55, 608, 85372, Note_off_c, 6, 60, 1158, 85392, Note_on_c, 6, 53, 1158, 85392, Note_on_c, 6, 58, 608, 85420, Note_off_c, 6, 58, 608, 85420, Note_off_c, 6, 53, 1158, 85440, Note_on_c, 6, 55, 1158, 85440, Note_on_c, 6, 60, 608, 85468, Note_off_c, 6, 60, 608, 85468, Note_off_c, 6, 55, 1158, 85488, Note_on_c, 6, 58, 1158, 85488, Note_on_c, 6, 53, 608, 85516, Note_off_c, 6, 53, 608, 85516, Note_off_c, 6, 58, 1158, 85536, Note_on_c, 6, 60, 1158, 85536, Note_on_c, 6, 55, 608, 85564, Note_off_c, 6, 55, 608, 85564, Note_off_c, 6, 60, 1158, 85584, Note_on_c, 6, 53, 1158, 85584, Note_on_c, 6, 58, 608, 85612, Note_off_c, 6, 58, 608, 85612, Note_off_c, 6, 53, 1158, 85632, Note_on_c, 6, 55, 1158, 85632, Note_on_c, 6, 60, 608, 85660, Note_off_c, 6, 60, 608, 85660, Note_off_c, 6, 55, 1158, 85680, Note_on_c, 6, 58, 1158, 85680, Note_on_c, 6, 53, 608, 85708, Note_off_c, 6, 53, 608, 85708, Note_off_c, 6, 58, 1158, 85728, Note_on_c, 6, 60, 1158, 85728, Note_on_c, 6, 55, 608, 85756, Note_off_c, 6, 55, 608, 85756, Note_off_c, 6, 60, 1158, 85776, Note_on_c, 6, 53, 1158, 85776, Note_on_c, 6, 58, 608, 85804, Note_off_c, 6, 58, 608, 85804, Note_off_c, 6, 53, 1158, 85824, Note_on_c, 6, 55, 1158, 85824, Note_on_c, 6, 60, 608, 85852, Note_off_c, 6, 60, 608, 85852, Note_off_c, 6, 55, 1158, 85872, Note_on_c, 6, 58, 1158, 85872, Note_on_c, 6, 53, 608, 85900, Note_off_c, 6, 53, 608, 85900, Note_off_c, 6, 58, 1158, 85920, Note_on_c, 6, 60, 1158, 85920, Note_on_c, 6, 55, 608, 85948, Note_off_c, 6, 55, 608, 85948, Note_off_c, 6, 60, 1158, 85968, Note_on_c, 6, 53, 1158, 85968, Note_on_c, 6, 58, 608, 85996, Note_off_c, 6, 58, 608, 85996, Note_off_c, 6, 53, 1158, 85996, End_track
9, 0, Start_track
9, 0, Text_t, "Low Voice"
9, 2880, Control_c, 7, 0, 0
9, 2882, Control_c, 7, 32, 0
9, 2884, Program_c, 7, 53
9, 2886, Control_c, 7, 7, 100
9, 2888, Control_c, 7, 10, 64
9, 2890, Control_c, 7, 11, 127
9, 2892, Control_c, 7, 91, 40
9, 2894, Control_c, 7, 93, 0
9, 31968, Note_on_c, 7, 34, 1279, 32064, Note_off_c, 7, 34, 1279, 32064, Note_on_c, 7, 36, 1279, 32160, Note_off_c, 7, 36, 1279, 32160, Note_on_c, 7, 34, 1279, 32256, Note_off_c, 7, 34, 1279, 32256, Pitch_bend_c, 7, 4480
9, 32256, Note_on_c, 7, 36, 1279, 32268, Pitch_bend_c, 7, 4992
9, 32280, Pitch_bend_c, 7, 5248
9, 32288, Pitch_bend_c, 7, 5760
9, 32296, Pitch_bend_c, 7, 6400
9, 32304, Pitch_bend_c, 7, 7296
9, 32306, Pitch_bend_c, 7, 8192
9, 32424, Note_off_c, 7, 36, 1279, 32448, Note_on_c, 7, 36, 1279, 32536, Note_off_c, 7, 36, 1279, 32556, Note_on_c, 7, 36, 1279, 32652, Note_off_c, 7, 36, 1279, 33024, Pitch_bend_c, 7, 4480
9, 33024, Note_on_c, 7, 36, 1279, 33036, Pitch_bend_c, 7, 4992
9, 33048, Pitch_bend_c, 7, 5248
9, 33056, Pitch_bend_c, 7, 5760
9, 33064, Pitch_bend_c, 7, 6400
9, 33072, Pitch_bend_c, 7, 7296
9, 33074, Pitch_bend_c, 7, 8192
9, 33192, Note_off_c, 7, 36, 1279, 33216, Note_on_c, 7, 36, 1279, 33304, Note_off_c, 7, 36, 1279, 33324, Note_on_c, 7, 36, 1279, 33420, Note_off_c, 7, 36, 1279, 35136, Note_on_c, 7, 36, 1279, 35232, Note_off_c, 7, 36, 1279, 35232, Note_on_c, 7, 34, 1279, 35328, Note_off_c, 7, 34, 1279, 35328, Pitch_bend_c, 7, 4480
9, 35328, Note_on_c, 7, 36, 1279, 35340, Pitch_bend_c, 7, 4992
9, 35352, Pitch_bend_c, 7, 5248
9, 35360, Pitch_bend_c, 7, 5760
9, 35368, Pitch_bend_c, 7, 6400
9, 35376, Pitch_bend_c, 7, 7296
9, 35378, Pitch_bend_c, 7, 8192
9, 35496, Note_off_c, 7, 36, 1279, 35520, Note_on_c, 7, 36, 1279, 35608, Note_off_c, 7, 36, 1279, 35628, Note_on_c, 7, 36, 1279, 35724, Note_off_c, 7, 36, 1279, 36096, Pitch_bend_c, 7, 4480
9, 36096, Note_on_c, 7, 36, 1279, 36108, Pitch_bend_c, 7, 4992
9, 36120, Pitch_bend_c, 7, 5248
9, 36128, Pitch_bend_c, 7, 5760
9, 36136, Pitch_bend_c, 7, 6400
9, 36144, Pitch_bend_c, 7, 7296
9, 36146, Pitch_bend_c, 7, 8192
9, 36264, Note_off_c, 7, 36, 1279, 36288, Note_on_c, 7, 36, 1279, 36376, Note_off_c, 7, 36, 1279, 36396, Note_on_c, 7, 36, 1279, 36492, Note_off_c, 7, 36, 1279, 38112, Note_on_c, 7, 36, 1279, 38208, Note_off_c, 7, 36, 1279, 38208, Note_on_c, 7, 36, 1279, 38304, Note_off_c, 7, 36, 1279, 38304, Note_on_c, 7, 34, 1279, 38400, Note_off_c, 7, 34, 1279, 38400, Pitch_bend_c, 7, 4480
9, 38400, Note_on_c, 7, 36, 1279, 38412, Pitch_bend_c, 7, 4992
9, 38424, Pitch_bend_c, 7, 5248
9, 38432, Pitch_bend_c, 7, 5760
9, 38440, Pitch_bend_c, 7, 6400
9, 38448, Pitch_bend_c, 7, 7296
9, 38450, Pitch_bend_c, 7, 8192
9, 38568, Note_off_c, 7, 36, 1279, 38592, Note_on_c, 7, 36, 1279, 38680, Note_off_c, 7, 36, 1279, 38700, Note_on_c, 7, 36, 1279, 38796, Note_off_c, 7, 36, 1279, 39168, Pitch_bend_c, 7, 4480
9, 39168, Note_on_c, 7, 36, 1279, 39180, Pitch_bend_c, 7, 4992
9, 39192, Pitch_bend_c, 7, 5248
9, 39200, Pitch_bend_c, 7, 5760
9, 39208, Pitch_bend_c, 7, 6400
9, 39216, Pitch_bend_c, 7, 7296
9, 39218, Pitch_bend_c, 7, 8192
9, 39336, Note_off_c, 7, 36, 1279, 39360, Note_on_c, 7, 36, 1279, 39448, Note_off_c, 7, 36, 1279, 39468, Note_on_c, 7, 36, 1279, 39564, Note_off_c, 7, 36, 1279, 41184, Note_on_c, 7, 36, 1279, 41280, Note_off_c, 7, 36, 1279, 41280, Note_on_c, 7, 36, 1279, 41376, Note_off_c, 7, 36, 1279, 41376, Note_on_c, 7, 34, 1279, 41472, Note_off_c, 7, 34, 1279, 41472, Pitch_bend_c, 7, 4480
9, 41472, Note_on_c, 7, 36, 1279, 41484, Pitch_bend_c, 7, 4992
9, 41496, Pitch_bend_c, 7, 5248
9, 41504, Pitch_bend_c, 7, 5760
9, 41512, Pitch_bend_c, 7, 6400
9, 41520, Pitch_bend_c, 7, 7296
9, 41522, Pitch_bend_c, 7, 8192
9, 41640, Note_off_c, 7, 36, 1279, 41664, Note_on_c, 7, 36, 1279, 41752, Note_off_c, 7, 36, 1279, 41772, Note_on_c, 7, 36, 1279, 41868, Note_off_c, 7, 36, 1279, 42240, Pitch_bend_c, 7, 4480
9, 42240, Note_on_c, 7, 36, 1279, 42252, Pitch_bend_c, 7, 4992
9, 42264, Pitch_bend_c, 7, 5248
9, 42272, Pitch_bend_c, 7, 5760
9, 42280, Pitch_bend_c, 7, 6400
9, 42288, Pitch_bend_c, 7, 7296
9, 42290, Pitch_bend_c, 7, 8192
9, 42408, Note_off_c, 7, 36, 1279, 42432, Note_on_c, 7, 36, 1279, 42520, Note_off_c, 7, 36, 1279, 42540, Note_on_c, 7, 36, 1279, 42636, Note_off_c, 7, 36, 1279, 42912, Note_on_c, 7, 41, 1279, 43008, Note_off_c, 7, 41, 1279, 43008, Note_on_c, 7, 43, 1279, 43176, Note_off_c, 7, 43, 1279, 43200, Note_on_c, 7, 46, 1279, 43288, Note_off_c, 7, 46, 1279, 43304, Note_on_c, 7, 46, 1109, 43400, Note_off_c, 7, 46, 1109, 45984, Note_on_c, 7, 41, 1279, 46080, Note_off_c, 7, 41, 1279, 46080, Note_on_c, 7, 43, 1279, 46248, Note_off_c, 7, 43, 1279, 46272, Note_on_c, 7, 46, 1279, 46360, Note_off_c, 7, 46, 1279, 46376, Note_on_c, 7, 46, 1109, 46472, Note_off_c, 7, 46, 1109, 50400, Note_on_c, 7, 34, 1279, 50496, Note_off_c, 7, 34, 1279, 50496, Note_on_c, 7, 36, 1279, 50592, Note_off_c, 7, 36, 1279, 50592, Note_on_c, 7, 34, 1279, 50688, Note_off_c, 7, 34, 1279, 50688, Pitch_bend_c, 7, 4480
9, 50688, Note_on_c, 7, 36, 1279, 50700, Pitch_bend_c, 7, 4992
9, 50712, Pitch_bend_c, 7, 5248
9, 50720, Pitch_bend_c, 7, 5760
9, 50728, Pitch_bend_c, 7, 6400
9, 50736, Pitch_bend_c, 7, 7296
9, 50738, Pitch_bend_c, 7, 8192
9, 50856, Note_off_c, 7, 36, 1279, 50880, Note_on_c, 7, 36, 1279, 50968, Note_off_c, 7, 36, 1279, 50988, Note_on_c, 7, 36, 1279, 51084, Note_off_c, 7, 36, 1279, 51456, Pitch_bend_c, 7, 4480
9, 51456, Note_on_c, 7, 36, 1279, 51468, Pitch_bend_c, 7, 4992
9, 51480, Pitch_bend_c, 7, 5248
9, 51488, Pitch_bend_c, 7, 5760
9, 51496, Pitch_bend_c, 7, 6400
9, 51504, Pitch_bend_c, 7, 7296
9, 51506, Pitch_bend_c, 7, 8192
9, 51624, Note_off_c, 7, 36, 1279, 51648, Note_on_c, 7, 36, 1279, 51736, Note_off_c, 7, 36, 1279, 51756, Note_on_c, 7, 36, 1279, 51852, Note_off_c, 7, 36, 1279, 53568, Note_on_c, 7, 36, 1279, 53664, Note_off_c, 7, 36, 1279, 53664, Note_on_c, 7, 34, 1279, 53760, Note_off_c, 7, 34, 1279, 53760, Pitch_bend_c, 7, 4480
9, 53760, Note_on_c, 7, 36, 1279, 53772, Pitch_bend_c, 7, 4992
9, 53784, Pitch_bend_c, 7, 5248
9, 53792, Pitch_bend_c, 7, 5760
9, 53800, Pitch_bend_c, 7, 6400
9, 53808, Pitch_bend_c, 7, 7296
9, 53810, Pitch_bend_c, 7, 8192
9, 53928, Note_off_c, 7, 36, 1279, 53952, Note_on_c, 7, 36, 1279, 54040, Note_off_c, 7, 36, 1279, 54060, Note_on_c, 7, 36, 1279, 54156, Note_off_c, 7, 36, 1279, 54528, Pitch_bend_c, 7, 4480
9, 54528, Note_on_c, 7, 36, 1279, 54540, Pitch_bend_c, 7, 4992
9, 54552, Pitch_bend_c, 7, 5248
9, 54560, Pitch_bend_c, 7, 5760
9, 54568, Pitch_bend_c, 7, 6400
9, 54576, Pitch_bend_c, 7, 7296
9, 54578, Pitch_bend_c, 7, 8192
9, 54696, Note_off_c, 7, 36, 1279, 54720, Note_on_c, 7, 36, 1279, 54808, Note_off_c, 7, 36, 1279, 54828, Note_on_c, 7, 36, 1279, 54924, Note_off_c, 7, 36, 1279, 56544, Note_on_c, 7, 36, 1279, 56640, Note_off_c, 7, 36, 1279, 56640, Note_on_c, 7, 36, 1279, 56736, Note_off_c, 7, 36, 1279, 56736, Note_on_c, 7, 34, 1279, 56832, Note_off_c, 7, 34, 1279, 56832, Pitch_bend_c, 7, 4480
9, 56832, Note_on_c, 7, 36, 1279, 56844, Pitch_bend_c, 7, 4992
9, 56856, Pitch_bend_c, 7, 5248
9, 56864, Pitch_bend_c, 7, 5760
9, 56872, Pitch_bend_c, 7, 6400
9, 56880, Pitch_bend_c, 7, 7296
9, 56882, Pitch_bend_c, 7, 8192
9, 57000, Note_off_c, 7, 36, 1279, 57024, Note_on_c, 7, 36, 1279, 57112, Note_off_c, 7, 36, 1279, 57132, Note_on_c, 7, 36, 1279, 57228, Note_off_c, 7, 36, 1279, 57600, Pitch_bend_c, 7, 4480
9, 57600, Note_on_c, 7, 36, 1279, 57612, Pitch_bend_c, 7, 4992
9, 57624, Pitch_bend_c, 7, 5248
9, 57632, Pitch_bend_c, 7, 5760
9, 57640, Pitch_bend_c, 7, 6400
9, 57648, Pitch_bend_c, 7, 7296
9, 57650, Pitch_bend_c, 7, 8192
9, 57768, Note_off_c, 7, 36, 1279, 57792, Note_on_c, 7, 36, 1279, 57880, Note_off_c, 7, 36, 1279, 57900, Note_on_c, 7, 36, 1279, 57996, Note_off_c, 7, 36, 1279, 59616, Note_on_c, 7, 36, 1279, 59712, Note_off_c, 7, 36, 1279, 59712, Note_on_c, 7, 36, 1279, 59808, Note_off_c, 7, 36, 1279, 59808, Note_on_c, 7, 34, 1279, 59904, Note_off_c, 7, 34, 1279, 59904, Pitch_bend_c, 7, 4480
9, 59904, Note_on_c, 7, 36, 1279, 59916, Pitch_bend_c, 7, 4992
9, 59928, Pitch_bend_c, 7, 5248
9, 59936, Pitch_bend_c, 7, 5760
9, 59944, Pitch_bend_c, 7, 6400
9, 59952, Pitch_bend_c, 7, 7296
9, 59954, Pitch_bend_c, 7, 8192
9, 60072, Note_off_c, 7, 36, 1279, 60096, Note_on_c, 7, 36, 1279, 60184, Note_off_c, 7, 36, 1279, 60204, Note_on_c, 7, 36, 1279, 60300, Note_off_c, 7, 36, 1279, 60672, Pitch_bend_c, 7, 4480
9, 60672, Note_on_c, 7, 36, 1279, 60684, Pitch_bend_c, 7, 4992
9, 60696, Pitch_bend_c, 7, 5248
9, 60704, Pitch_bend_c, 7, 5760
9, 60712, Pitch_bend_c, 7, 6400
9, 60720, Pitch_bend_c, 7, 7296
9, 60722, Pitch_bend_c, 7, 8192
9, 60840, Note_off_c, 7, 36, 1279, 60864, Note_on_c, 7, 36, 1279, 60952, Note_off_c, 7, 36, 1279, 60972, Note_on_c, 7, 36, 1279, 61068, Note_off_c, 7, 36, 1279, 61344, Note_on_c, 7, 41, 1279, 61440, Note_off_c, 7, 41, 1279, 61440, Note_on_c, 7, 43, 1279, 61608, Note_off_c, 7, 43, 1279, 61632, Note_on_c, 7, 46, 1279, 61720, Note_off_c, 7, 46, 1279, 61736, Note_on_c, 7, 46, 1109, 61832, Note_off_c, 7, 46, 1109, 64416, Note_on_c, 7, 41, 1279, 64512, Note_off_c, 7, 41, 1279, 64512, Note_on_c, 7, 43, 1279, 64680, Note_off_c, 7, 43, 1279, 64704, Note_on_c, 7, 46, 1279, 64792, Note_off_c, 7, 46, 1279, 64808, Note_on_c, 7, 46, 1109, 64904, Note_off_c, 7, 46, 1109, 82848, Note_on_c, 7, 41, 1279, 82944, Note_off_c, 7, 41, 1279, 82944, Note_on_c, 7, 43, 1279, 83112, Note_off_c, 7, 43, 1279, 83136, Note_on_c, 7, 46, 1279, 83224, Note_off_c, 7, 46, 1279, 83240, Note_on_c, 7, 46, 1109, 83336, Note_off_c, 7, 46, 1109, 88992, Note_on_c, 7, 41, 1279, 89088, Note_off_c, 7, 41, 1279, 89088, Note_on_c, 7, 43, 1279, 89256, Note_off_c, 7, 43, 1279, 89280, Note_on_c, 7, 46, 1279, 89368, Note_off_c, 7, 46, 1279, 89384, Note_on_c, 7, 46, 1109, 89480, Note_off_c, 7, 46, 1109, 89480, End_track
10, 0, Start_track
10, 0, Text_t, "Syn Strin"
10, 2880, Control_c, 8, 0, 0
10, 2882, Control_c, 8, 32, 0
10, 2884, Program_c, 8, 50
10, 2886, Control_c, 8, 7, 100
10, 2888, Control_c, 8, 10, 120
10, 2890, Control_c, 8, 11, 70
10, 2892, Control_c, 8, 91, 50
10, 2894, Control_c, 8, 93, 110
10, 42896, Note_on_c, 8, 53, 11010, 42896, Note_on_c, 8, 41, 11010, 42984, Note_off_c, 8, 41, 11010, 42984, Note_off_c, 8, 53, 11010, 42992, Note_on_c, 8, 55, 11010, 42992, Note_on_c, 8, 43, 11010, 43184, Note_off_c, 8, 43, 11010, 43184, Note_off_c, 8, 55, 11010, 43184, Note_on_c, 8, 58, 11010, 43184, Note_on_c, 8, 46, 11010, 43272, Note_off_c, 8, 46, 11010, 43272, Note_off_c, 8, 58, 11010, 43280, Note_on_c, 8, 58, 11010, 43280, Note_on_c, 8, 46, 11010, 43368, Note_off_c, 8, 46, 11010, 43368, Note_off_c, 8, 58, 11010, 43664, Note_on_c, 8, 55, 11010, 43664, Note_on_c, 8, 43, 11010, 43752, Note_off_c, 8, 43, 11010, 43752, Note_off_c, 8, 55, 11010, 43760, Note_on_c, 8, 58, 11010, 43760, Note_on_c, 8, 46, 11010, 43952, Note_off_c, 8, 46, 11010, 43952, Note_off_c, 8, 58, 11010, 43952, Note_on_c, 8, 60, 11010, 43952, Note_on_c, 8, 48, 11010, 44040, Note_off_c, 8, 48, 11010, 44040, Note_off_c, 8, 60, 11010, 44048, Note_on_c, 8, 60, 11010, 44048, Note_on_c, 8, 48, 11010, 44240, Note_off_c, 8, 48, 11010, 44240, Note_off_c, 8, 60, 11010, 44240, Note_on_c, 8, 58, 11010, 44240, Note_on_c, 8, 46, 11010, 44336, Note_off_c, 8, 46, 11010, 44336, Note_off_c, 8, 58, 11010, 44528, Note_on_c, 8, 43, 11010, 44528, Note_on_c, 8, 55, 11010, 44720, Note_off_c, 8, 55, 11010, 44720, Note_off_c, 8, 43, 11010, 44720, Note_on_c, 8, 46, 11010, 44720, Note_on_c, 8, 58, 11010, 44808, Note_off_c, 8, 58, 11010, 44808, Note_off_c, 8, 46, 11010, 44816, Note_on_c, 8, 46, 11010, 44816, Note_on_c, 8, 58, 11010, 45008, Note_off_c, 8, 58, 11010, 45008, Note_off_c, 8, 46, 11010, 45200, Note_on_c, 8, 43, 11010, 45200, Note_on_c, 8, 55, 11010, 45288, Note_off_c, 8, 55, 11010, 45288, Note_off_c, 8, 43, 11010, 45296, Note_on_c, 8, 46, 11010, 45296, Note_on_c, 8, 58, 11010, 45384, Note_off_c, 8, 58, 11010, 45384, Note_off_c, 8, 46, 11010, 45392, Note_on_c, 8, 48, 11010, 45392, Note_on_c, 8, 60, 11010, 45480, Note_off_c, 8, 60, 11010, 45480, Note_off_c, 8, 48, 11010, 45488, Note_on_c, 8, 50, 11010, 45488, Note_on_c, 8, 62, 11010, 45680, Note_off_c, 8, 62, 11010, 45680, Note_off_c, 8, 50, 11010, 45680, Note_on_c, 8, 46, 11010, 45680, Note_on_c, 8, 58, 11010, 45768, Note_off_c, 8, 58, 11010, 45768, Note_off_c, 8, 46, 11010, 46064, Note_on_c, 8, 43, 11010, 46064, Note_on_c, 8, 55, 11010, 46256, Note_off_c, 8, 55, 11010, 46256, Note_off_c, 8, 43, 11010, 46256, Note_on_c, 8, 46, 11010, 46256, Note_on_c, 8, 58, 11010, 46344, Note_off_c, 8, 58, 11010, 46344, Note_off_c, 8, 46, 11010, 46352, Note_on_c, 8, 46, 11010, 46352, Note_on_c, 8, 58, 11010, 46440, Note_off_c, 8, 58, 11010, 46440, Note_off_c, 8, 46, 11010, 46736, Note_on_c, 8, 55, 11010, 46736, Note_on_c, 8, 43, 11010, 46824, Note_off_c, 8, 43, 11010, 46824, Note_off_c, 8, 55, 11010, 46832, Note_on_c, 8, 58, 11010, 46832, Note_on_c, 8, 46, 11010, 47024, Note_off_c, 8, 46, 11010, 47024, Note_off_c, 8, 58, 11010, 47024, Note_on_c, 8, 60, 11010, 47024, Note_on_c, 8, 48, 11010, 47112, Note_off_c, 8, 48, 11010, 47112, Note_off_c, 8, 60, 11010, 47120, Note_on_c, 8, 48, 11010, 47120, Note_on_c, 8, 60, 11010, 47312, Note_off_c, 8, 60, 11010, 47312, Note_off_c, 8, 48, 11010, 47312, Note_on_c, 8, 50, 11010, 47312, Note_on_c, 8, 62, 11010, 47408, Note_off_c, 8, 62, 11010, 47408, Note_off_c, 8, 50, 11010, 47408, Note_on_c, 8, 46, 11010, 47408, Note_on_c, 8, 58, 11010, 47504, Note_off_c, 8, 58, 11010, 47504, Note_off_c, 8, 46, 11010, 47600, Note_on_c, 8, 43, 11010, 47600, Note_on_c, 8, 55, 11010, 47792, Note_off_c, 8, 55, 11010, 47792, Note_off_c, 8, 43, 11010, 47792, Note_on_c, 8, 46, 11010, 47792, Note_on_c, 8, 58, 11010, 47880, Note_off_c, 8, 58, 11010, 47880, Note_off_c, 8, 46, 11010, 47888, Note_on_c, 8, 43, 11010, 47888, Note_on_c, 8, 55, 11010, 47976, Note_off_c, 8, 55, 11010, 47976, Note_off_c, 8, 43, 11010, 47984, Note_on_c, 8, 46, 11010, 47984, Note_on_c, 8, 58, 11010, 48176, Note_off_c, 8, 58, 11010, 48176, Note_off_c, 8, 46, 11010, 48176, Note_on_c, 8, 48, 11010, 48176, Note_on_c, 8, 60, 11010, 48368, Note_off_c, 8, 60, 11010, 48368, Note_off_c, 8, 48, 11010, 48368, Note_on_c, 8, 50, 11010, 48368, Note_on_c, 8, 62, 11010, 48456, Note_off_c, 8, 62, 11010, 48456, Note_off_c, 8, 50, 11010, 48464, Note_on_c, 8, 48, 11010, 48464, Note_on_c, 8, 60, 11010, 48552, Note_off_c, 8, 60, 11010, 48552, Note_off_c, 8, 48, 11010, 48560, Note_on_c, 8, 45, 11010, 48560, Note_on_c, 8, 57, 11010, 48648, Note_off_c, 8, 57, 11010, 48648, Note_off_c, 8, 45, 11010, 48656, Note_on_c, 8, 41, 11010, 48656, Note_on_c, 8, 53, 11010, 49136, Note_off_c, 8, 53, 11010, 49136, Note_off_c, 8, 41, 11010, 61328, Note_on_c, 8, 53, 11010, 61328, Note_on_c, 8, 41, 11010, 61416, Note_off_c, 8, 41, 11010, 61416, Note_off_c, 8, 53, 11010, 61424, Note_on_c, 8, 55, 11010, 61424, Note_on_c, 8, 43, 11010, 61616, Note_off_c, 8, 43, 11010, 61616, Note_off_c, 8, 55, 11010, 61616, Note_on_c, 8, 58, 11010, 61616, Note_on_c, 8, 46, 11010, 61704, Note_off_c, 8, 46, 11010, 61704, Note_off_c, 8, 58, 11010, 61712, Note_on_c, 8, 58, 11010, 61712, Note_on_c, 8, 46, 11010, 61800, Note_off_c, 8, 46, 11010, 61800, Note_off_c, 8, 58, 11010, 62096, Note_on_c, 8, 55, 11010, 62096, Note_on_c, 8, 43, 11010, 62184, Note_off_c, 8, 43, 11010, 62184, Note_off_c, 8, 55, 11010, 62192, Note_on_c, 8, 58, 11010, 62192, Note_on_c, 8, 46, 11010, 62384, Note_off_c, 8, 46, 11010, 62384, Note_off_c, 8, 58, 11010, 62384, Note_on_c, 8, 60, 11010, 62384, Note_on_c, 8, 48, 11010, 62472, Note_off_c, 8, 48, 11010, 62472, Note_off_c, 8, 60, 11010, 62480, Note_on_c, 8, 60, 11010, 62480, Note_on_c, 8, 48, 11010, 62672, Note_off_c, 8, 48, 11010, 62672, Note_off_c, 8, 60, 11010, 62672, Note_on_c, 8, 58, 11010, 62672, Note_on_c, 8, 46, 11010, 62768, Note_off_c, 8, 46, 11010, 62768, Note_off_c, 8, 58, 11010, 62960, Note_on_c, 8, 43, 11010, 62960, Note_on_c, 8, 55, 11010, 63152, Note_off_c, 8, 55, 11010, 63152, Note_off_c, 8, 43, 11010, 63152, Note_on_c, 8, 46, 11010, 63152, Note_on_c, 8, 58, 11010, 63240, Note_off_c, 8, 58, 11010, 63240, Note_off_c, 8, 46, 11010, 63248, Note_on_c, 8, 46, 11010, 63248, Note_on_c, 8, 58, 11010, 63440, Note_off_c, 8, 58, 11010, 63440, Note_off_c, 8, 46, 11010, 63632, Note_on_c, 8, 43, 11010, 63632, Note_on_c, 8, 55, 11010, 63720, Note_off_c, 8, 55, 11010, 63720, Note_off_c, 8, 43, 11010, 63728, Note_on_c, 8, 46, 11010, 63728, Note_on_c, 8, 58, 11010, 63816, Note_off_c, 8, 58, 11010, 63816, Note_off_c, 8, 46, 11010, 63824, Note_on_c, 8, 48, 11010, 63824, Note_on_c, 8, 60, 11010, 63912, Note_off_c, 8, 60, 11010, 63912, Note_off_c, 8, 48, 11010, 63920, Note_on_c, 8, 50, 11010, 63920, Note_on_c, 8, 62, 11010, 64112, Note_off_c, 8, 62, 11010, 64112, Note_off_c, 8, 50, 11010, 64112, Note_on_c, 8, 46, 11010, 64112, Note_on_c, 8, 58, 11010, 64200, Note_off_c, 8, 58, 11010, 64200, Note_off_c, 8, 46, 11010, 64496, Note_on_c, 8, 43, 11010, 64496, Note_on_c, 8, 55, 11010, 64688, Note_off_c, 8, 55, 11010, 64688, Note_off_c, 8, 43, 11010, 64688, Note_on_c, 8, 46, 11010, 64688, Note_on_c, 8, 58, 11010, 64776, Note_off_c, 8, 58, 11010, 64776, Note_off_c, 8, 46, 11010, 64784, Note_on_c, 8, 46, 11010, 64784, Note_on_c, 8, 58, 11010, 64872, Note_off_c, 8, 58, 11010, 64872, Note_off_c, 8, 46, 11010, 65168, Note_on_c, 8, 55, 11010, 65168, Note_on_c, 8, 43, 11010, 65256, Note_off_c, 8, 43, 11010, 65256, Note_off_c, 8, 55, 11010, 65264, Note_on_c, 8, 58, 11010, 65264, Note_on_c, 8, 46, 11010, 65456, Note_off_c, 8, 46, 11010, 65456, Note_off_c, 8, 58, 11010, 65456, Note_on_c, 8, 60, 11010, 65456, Note_on_c, 8, 48, 11010, 65544, Note_off_c, 8, 48, 11010, 65544, Note_off_c, 8, 60, 11010, 65552, Note_on_c, 8, 48, 11010, 65552, Note_on_c, 8, 60, 11010, 65744, Note_off_c, 8, 60, 11010, 65744, Note_off_c, 8, 48, 11010, 65744, Note_on_c, 8, 50, 11010, 65744, Note_on_c, 8, 62, 11010, 65840, Note_off_c, 8, 62, 11010, 65840, Note_off_c, 8, 50, 11010, 65840, Note_on_c, 8, 46, 11010, 65840, Note_on_c, 8, 58, 11010, 65936, Note_off_c, 8, 58, 11010, 65936, Note_off_c, 8, 46, 11010, 66032, Note_on_c, 8, 43, 11010, 66032, Note_on_c, 8, 55, 11010, 66224, Note_off_c, 8, 55, 11010, 66224, Note_off_c, 8, 43, 11010, 66224, Note_on_c, 8, 46, 11010, 66224, Note_on_c, 8, 58, 11010, 66312, Note_off_c, 8, 58, 11010, 66312, Note_off_c, 8, 46, 11010, 66320, Note_on_c, 8, 43, 11010, 66320, Note_on_c, 8, 55, 11010, 66408, Note_off_c, 8, 55, 11010, 66408, Note_off_c, 8, 43, 11010, 66416, Note_on_c, 8, 46, 11010, 66416, Note_on_c, 8, 58, 11010, 66608, Note_off_c, 8, 58, 11010, 66608, Note_off_c, 8, 46, 11010, 66608, Note_on_c, 8, 48, 11010, 66608, Note_on_c, 8, 60, 11010, 66800, Note_off_c, 8, 60, 11010, 66800, Note_off_c, 8, 48, 11010, 66800, Note_on_c, 8, 50, 11010, 66800, Note_on_c, 8, 62, 11010, 66888, Note_off_c, 8, 62, 11010, 66888, Note_off_c, 8, 50, 11010, 66896, Note_on_c, 8, 48, 11010, 66896, Note_on_c, 8, 60, 11010, 66984, Note_off_c, 8, 60, 11010, 66984, Note_off_c, 8, 48, 11010, 66992, Note_on_c, 8, 45, 11010, 66992, Note_on_c, 8, 57, 11010, 67080, Note_off_c, 8, 57, 11010, 67080, Note_off_c, 8, 45, 11010, 67088, Note_on_c, 8, 41, 11010, 67088, Note_on_c, 8, 53, 11010, 67568, Note_off_c, 8, 53, 11010, 67568, Note_off_c, 8, 41, 11010, 98496, Note_on_c, 8, 62, 7010, 98496, Note_on_c, 8, 58, 7010, 98496, Note_on_c, 8, 55, 7010, 98688, Note_off_c, 8, 55, 7010, 98688, Note_off_c, 8, 58, 7010, 98688, Note_off_c, 8, 62, 7010, 98880, Note_on_c, 8, 55, 7010, 98880, Note_on_c, 8, 62, 7010, 98880, Note_on_c, 8, 58, 7010, 99072, Note_off_c, 8, 58, 7010, 99072, Note_off_c, 8, 62, 7010, 99072, Note_off_c, 8, 55, 7010, 99264, Note_on_c, 8, 55, 7010, 99264, Note_on_c, 8, 62, 7010, 99264, Note_on_c, 8, 58, 7010, 99456, Note_off_c, 8, 58, 7010, 99456, Note_off_c, 8, 62, 7010, 99456, Note_off_c, 8, 55, 7010, 99648, Note_on_c, 8, 55, 7010, 99648, Note_on_c, 8, 62, 7010, 99648, Note_on_c, 8, 58, 7010, 99840, Note_off_c, 8, 58, 7010, 99840, Note_off_c, 8, 62, 7010, 99840, Note_off_c, 8, 55, 7010, 100032, Note_on_c, 8, 62, 7010, 100032, Note_on_c, 8, 58, 7010, 100032, Note_on_c, 8, 55, 7010, 100224, Note_off_c, 8, 55, 7010, 100224, Note_off_c, 8, 58, 7010, 100224, Note_off_c, 8, 62, 7010, 100416, Note_on_c, 8, 55, 7010, 100416, Note_on_c, 8, 62, 7010, 100416, Note_on_c, 8, 58, 7010, 100608, Note_off_c, 8, 58, 7010, 100608, Note_off_c, 8, 62, 7010, 100608, Note_off_c, 8, 55, 7010, 100800, Note_on_c, 8, 55, 7010, 100800, Note_on_c, 8, 62, 7010, 100800, Note_on_c, 8, 58, 7010, 100992, Note_off_c, 8, 58, 7010, 100992, Note_off_c, 8, 62, 7010, 100992, Note_off_c, 8, 55, 7010, 101184, Note_on_c, 8, 55, 7010, 101184, Note_on_c, 8, 62, 7010, 101184, Note_on_c, 8, 58, 7010, 101376, Note_off_c, 8, 58, 7010, 101376, Note_off_c, 8, 62, 7010, 101376, Note_off_c, 8, 55, 7010, 101568, Note_on_c, 8, 62, 7010, 101568, Note_on_c, 8, 58, 7010, 101568, Note_on_c, 8, 55, 7010, 101760, Note_off_c, 8, 55, 7010, 101760, Note_off_c, 8, 58, 7010, 101760, Note_off_c, 8, 62, 7010, 101952, Note_on_c, 8, 55, 7010, 101952, Note_on_c, 8, 62, 7010, 101952, Note_on_c, 8, 58, 7010, 102144, Note_off_c, 8, 58, 7010, 102144, Note_off_c, 8, 62, 7010, 102144, Note_off_c, 8, 55, 7010, 102336, Note_on_c, 8, 55, 7010, 102336, Note_on_c, 8, 62, 7010, 102336, Note_on_c, 8, 58, 7010, 102528, Note_off_c, 8, 58, 7010, 102528, Note_off_c, 8, 62, 7010, 102528, Note_off_c, 8, 55, 7010, 102720, Note_on_c, 8, 55, 7010, 102720, Note_on_c, 8, 62, 7010, 102720, Note_on_c, 8, 58, 7010, 102912, Note_off_c, 8, 58, 7010, 102912, Note_off_c, 8, 62, 7010, 102912, Note_off_c, 8, 55, 7010, 103104, Note_on_c, 8, 62, 7010, 103104, Note_on_c, 8, 58, 7010, 103104, Note_on_c, 8, 55, 7010, 103296, Note_off_c, 8, 55, 7010, 103296, Note_off_c, 8, 58, 7010, 103296, Note_off_c, 8, 62, 7010, 103488, Note_on_c, 8, 55, 7010, 103488, Note_on_c, 8, 62, 7010, 103488, Note_on_c, 8, 58, 7010, 103680, Note_off_c, 8, 58, 7010, 103680, Note_off_c, 8, 62, 7010, 103680, Note_off_c, 8, 55, 7010, 103872, Note_on_c, 8, 65, 7010, 103872, Note_on_c, 8, 60, 7010, 103872, Note_on_c, 8, 57, 7010, 104064, Note_off_c, 8, 57, 7010, 104064, Note_off_c, 8, 60, 7010, 104064, Note_off_c, 8, 65, 7010, 104256, Note_on_c, 8, 65, 7010, 104256, Note_on_c, 8, 60, 7010, 104256, Note_on_c, 8, 57, 7010, 104448, Note_off_c, 8, 57, 7010, 104448, Note_off_c, 8, 60, 7010, 104448, Note_off_c, 8, 65, 7010, 104640, Note_on_c, 8, 62, 7010, 104640, Note_on_c, 8, 58, 7010, 104640, Note_on_c, 8, 55, 7010, 104832, Note_off_c, 8, 55, 7010, 104832, Note_off_c, 8, 58, 7010, 104832, Note_off_c, 8, 62, 7010, 105024, Note_on_c, 8, 55, 7010, 105024, Note_on_c, 8, 62, 7010, 105024, Note_on_c, 8, 58, 7010, 105216, Note_off_c, 8, 58, 7010, 105216, Note_off_c, 8, 62, 7010, 105216, Note_off_c, 8, 55, 7010, 105408, Note_on_c, 8, 55, 7010, 105408, Note_on_c, 8, 62, 7010, 105408, Note_on_c, 8, 58, 7010, 105600, Note_off_c, 8, 58, 7010, 105600, Note_off_c, 8, 62, 7010, 105600, Note_off_c, 8, 55, 7010, 105792, Note_on_c, 8, 55, 7010, 105792, Note_on_c, 8, 62, 7010, 105792, Note_on_c, 8, 58, 7010, 105984, Note_off_c, 8, 58, 7010, 105984, Note_off_c, 8, 62, 7010, 105984, Note_off_c, 8, 55, 7010, 106176, Note_on_c, 8, 62, 7010, 106176, Note_on_c, 8, 58, 7010, 106176, Note_on_c, 8, 55, 7010, 106368, Note_off_c, 8, 55, 7010, 106368, Note_off_c, 8, 58, 7010, 106368, Note_off_c, 8, 62, 7010, 106560, Note_on_c, 8, 55, 7010, 106560, Note_on_c, 8, 62, 7010, 106560, Note_on_c, 8, 58, 7010, 106752, Note_off_c, 8, 58, 7010, 106752, Note_off_c, 8, 62, 7010, 106752, Note_off_c, 8, 55, 7010, 106944, Note_on_c, 8, 55, 7010, 106944, Note_on_c, 8, 62, 7010, 106944, Note_on_c, 8, 58, 7010, 107136, Note_off_c, 8, 58, 7010, 107136, Note_off_c, 8, 62, 7010, 107136, Note_off_c, 8, 55, 7010, 107328, Note_on_c, 8, 55, 7010, 107328, Note_on_c, 8, 62, 7010, 107328, Note_on_c, 8, 58, 7010, 107520, Note_off_c, 8, 58, 7010, 107520, Note_off_c, 8, 62, 7010, 107520, Note_off_c, 8, 55, 7010, 107712, Note_on_c, 8, 62, 7010, 107712, Note_on_c, 8, 58, 7010, 107712, Note_on_c, 8, 55, 7010, 107904, Note_off_c, 8, 55, 7010, 107904, Note_off_c, 8, 58, 7010, 107904, Note_off_c, 8, 62, 7010, 108096, Note_on_c, 8, 55, 7010, 108096, Note_on_c, 8, 62, 7010, 108096, Note_on_c, 8, 58, 7010, 108288, Note_off_c, 8, 58, 7010, 108288, Note_off_c, 8, 62, 7010, 108288, Note_off_c, 8, 55, 7010, 108480, Note_on_c, 8, 55, 7010, 108480, Note_on_c, 8, 62, 7010, 108480, Note_on_c, 8, 58, 7010, 108672, Note_off_c, 8, 58, 7010, 108672, Note_off_c, 8, 62, 7010, 108672, Note_off_c, 8, 55, 7010, 108864, Note_on_c, 8, 55, 7010, 108864, Note_on_c, 8, 62, 7010, 108864, Note_on_c, 8, 58, 7010, 109056, Note_off_c, 8, 58, 7010, 109056, Note_off_c, 8, 62, 7010, 109056, Note_off_c, 8, 55, 7010, 109248, Note_on_c, 8, 62, 7010, 109248, Note_on_c, 8, 58, 7010, 109248, Note_on_c, 8, 55, 7010, 109440, Note_off_c, 8, 55, 7010, 109440, Note_off_c, 8, 58, 7010, 109440, Note_off_c, 8, 62, 7010, 109632, Note_on_c, 8, 55, 7010, 109632, Note_on_c, 8, 62, 7010, 109632, Note_on_c, 8, 58, 7010, 109824, Note_off_c, 8, 58, 7010, 109824, Note_off_c, 8, 62, 7010, 109824, Note_off_c, 8, 55, 7010, 110016, Note_on_c, 8, 65, 7010, 110016, Note_on_c, 8, 60, 7010, 110016, Note_on_c, 8, 57, 7010, 110208, Note_off_c, 8, 57, 7010, 110208, Note_off_c, 8, 60, 7010, 110208, Note_off_c, 8, 65, 7010, 110400, Note_on_c, 8, 65, 7010, 110400, Note_on_c, 8, 60, 7010, 110400, Note_on_c, 8, 57, 7010, 110592, Note_off_c, 8, 57, 7010, 110592, Note_off_c, 8, 60, 7010, 110592, Note_off_c, 8, 65, 7010, 110592, End_track
11, 0, Start_track
11, 0, Text_t, "Electr Ki"
11, 2880, Control_c, 9, 0, 0
11, 2882, Control_c, 9, 32, 0
11, 2884, Program_c, 9, 24
11, 2886, Control_c, 9, 7, 100
11, 2888, Control_c, 9, 10, 64
11, 2890, Control_c, 9, 11, 90
11, 2892, Control_c, 9, 91, 0
11, 2894, Control_c, 9, 93, 0
11, 9216, Note_on_c, 9, 24, 12011, 9240, Note_off_c, 9, 24, 12011, 9408, Note_on_c, 9, 24, 12011, 9432, Note_off_c, 9, 24, 12011, 9600, Note_on_c, 9, 24, 12011, 9624, Note_off_c, 9, 24, 12011, 9792, Note_on_c, 9, 24, 12011, 9816, Note_off_c, 9, 24, 12011, 9984, Note_on_c, 9, 24, 12011, 10008, Note_off_c, 9, 24, 12011, 10176, Note_on_c, 9, 24, 12011, 10200, Note_off_c, 9, 24, 12011, 10368, Note_on_c, 9, 24, 12011, 10392, Note_off_c, 9, 24, 12011, 10560, Note_on_c, 9, 24, 12011, 10584, Note_off_c, 9, 24, 12011, 10752, Note_on_c, 9, 24, 12011, 10776, Note_off_c, 9, 24, 12011, 10944, Note_on_c, 9, 24, 12011, 10968, Note_off_c, 9, 24, 12011, 11136, Note_on_c, 9, 24, 12011, 11160, Note_off_c, 9, 24, 12011, 11328, Note_on_c, 9, 24, 12011, 11352, Note_off_c, 9, 24, 12011, 11520, Note_on_c, 9, 24, 12011, 11544, Note_off_c, 9, 24, 12011, 11712, Note_on_c, 9, 24, 12011, 11736, Note_off_c, 9, 24, 12011, 11904, Note_on_c, 9, 24, 12011, 11928, Note_off_c, 9, 24, 12011, 12096, Note_on_c, 9, 24, 12011, 12120, Note_off_c, 9, 24, 12011, 12288, Note_on_c, 9, 24, 12011, 12312, Note_off_c, 9, 24, 12011, 12480, Note_on_c, 9, 24, 12011, 12504, Note_off_c, 9, 24, 12011, 12672, Note_on_c, 9, 24, 12011, 12696, Note_off_c, 9, 24, 12011, 12864, Note_on_c, 9, 24, 12011, 12888, Note_off_c, 9, 24, 12011, 13056, Note_on_c, 9, 24, 12011, 13080, Note_off_c, 9, 24, 12011, 13248, Note_on_c, 9, 24, 12011, 13272, Note_off_c, 9, 24, 12011, 13440, Note_on_c, 9, 24, 12011, 13464, Note_off_c, 9, 24, 12011, 13632, Note_on_c, 9, 24, 12011, 13656, Note_off_c, 9, 24, 12011, 13824, Note_on_c, 9, 24, 12011, 13848, Note_off_c, 9, 24, 12011, 14016, Note_on_c, 9, 24, 12011, 14040, Note_off_c, 9, 24, 12011, 14208, Note_on_c, 9, 24, 12011, 14232, Note_off_c, 9, 24, 12011, 14400, Note_on_c, 9, 24, 12011, 14424, Note_off_c, 9, 24, 12011, 14592, Note_on_c, 9, 24, 12011, 14616, Note_off_c, 9, 24, 12011, 14784, Note_on_c, 9, 24, 12011, 14808, Note_off_c, 9, 24, 12011, 14976, Note_on_c, 9, 24, 12011, 15000, Note_off_c, 9, 24, 12011, 15168, Note_on_c, 9, 24, 12011, 15192, Note_off_c, 9, 24, 12011, 15360, Note_on_c, 9, 24, 12011, 15384, Note_off_c, 9, 24, 12011, 15552, Note_on_c, 9, 24, 12011, 15576, Note_off_c, 9, 24, 12011, 15744, Note_on_c, 9, 24, 12011, 15768, Note_off_c, 9, 24, 12011, 15936, Note_on_c, 9, 24, 12011, 15960, Note_off_c, 9, 24, 12011, 16128, Note_on_c, 9, 24, 12011, 16152, Note_off_c, 9, 24, 12011, 16320, Note_on_c, 9, 24, 12011, 16344, Note_off_c, 9, 24, 12011, 16512, Note_on_c, 9, 24, 12011, 16536, Note_off_c, 9, 24, 12011, 16704, Note_on_c, 9, 24, 12011, 16728, Note_off_c, 9, 24, 12011, 16896, Note_on_c, 9, 24, 12011, 16920, Note_off_c, 9, 24, 12011, 17088, Note_on_c, 9, 24, 12011, 17112, Note_off_c, 9, 24, 12011, 17280, Note_on_c, 9, 24, 12011, 17304, Note_off_c, 9, 24, 12011, 17472, Note_on_c, 9, 24, 12011, 17496, Note_off_c, 9, 24, 12011, 17664, Note_on_c, 9, 24, 12011, 17688, Note_off_c, 9, 24, 12011, 17856, Note_on_c, 9, 24, 12011, 17880, Note_off_c, 9, 24, 12011, 18048, Note_on_c, 9, 24, 12011, 18072, Note_off_c, 9, 24, 12011, 18240, Note_on_c, 9, 24, 12011, 18264, Note_off_c, 9, 24, 12011, 18432, Note_on_c, 9, 24, 12011, 18456, Note_off_c, 9, 24, 12011, 18624, Note_on_c, 9, 24, 12011, 18648, Note_off_c, 9, 24, 12011, 18816, Note_on_c, 9, 24, 12011, 18840, Note_off_c, 9, 24, 12011, 19008, Note_on_c, 9, 24, 12011, 19032, Note_off_c, 9, 24, 12011, 19200, Note_on_c, 9, 24, 12011, 19224, Note_off_c, 9, 24, 12011, 19392, Note_on_c, 9, 24, 12011, 19416, Note_off_c, 9, 24, 12011, 19584, Note_on_c, 9, 24, 12011, 19608, Note_off_c, 9, 24, 12011, 19776, Note_on_c, 9, 24, 12011, 19800, Note_off_c, 9, 24, 12011, 19968, Note_on_c, 9, 24, 12011, 19992, Note_off_c, 9, 24, 12011, 20160, Note_on_c, 9, 24, 12011, 20184, Note_off_c, 9, 24, 12011, 20352, Note_on_c, 9, 24, 12011, 20376, Note_off_c, 9, 24, 12011, 20544, Note_on_c, 9, 24, 12011, 20568, Note_off_c, 9, 24, 12011, 20736, Note_on_c, 9, 24, 12011, 20760, Note_off_c, 9, 24, 12011, 20928, Note_on_c, 9, 24, 12011, 20952, Note_off_c, 9, 24, 12011, 21120, Note_on_c, 9, 24, 12011, 21144, Note_off_c, 9, 24, 12011, 21312, Note_on_c, 9, 24, 12011, 21336, Note_off_c, 9, 24, 12011, 21504, Note_on_c, 9, 24, 12011, 21528, Note_off_c, 9, 24, 12011, 21696, Note_on_c, 9, 24, 12011, 21720, Note_off_c, 9, 24, 12011, 21888, Note_on_c, 9, 24, 12011, 21912, Note_off_c, 9, 24, 12011, 22080, Note_on_c, 9, 24, 12011, 22104, Note_off_c, 9, 24, 12011, 22272, Note_on_c, 9, 24, 12011, 22296, Note_off_c, 9, 24, 12011, 22464, Note_on_c, 9, 24, 12011, 22488, Note_off_c, 9, 24, 12011, 22656, Note_on_c, 9, 24, 12011, 22680, Note_off_c, 9, 24, 12011, 22848, Note_on_c, 9, 24, 12011, 22872, Note_off_c, 9, 24, 12011, 23040, Note_on_c, 9, 24, 12011, 23064, Note_off_c, 9, 24, 12011, 23232, Note_on_c, 9, 24, 12011, 23256, Note_off_c, 9, 24, 12011, 23424, Note_on_c, 9, 24, 12011, 23448, Note_off_c, 9, 24, 12011, 23616, Note_on_c, 9, 24, 12011, 23640, Note_off_c, 9, 24, 12011, 23808, Note_on_c, 9, 24, 12011, 23832, Note_off_c, 9, 24, 12011, 24000, Note_on_c, 9, 24, 12011, 24024, Note_off_c, 9, 24, 12011, 24192, Note_on_c, 9, 24, 12011, 24216, Note_off_c, 9, 24, 12011, 24384, Note_on_c, 9, 24, 12011, 24408, Note_off_c, 9, 24, 12011, 24576, Note_on_c, 9, 24, 12011, 24600, Note_off_c, 9, 24, 12011, 24768, Note_on_c, 9, 24, 12011, 24792, Note_off_c, 9, 24, 12011, 24960, Note_on_c, 9, 24, 12011, 24984, Note_off_c, 9, 24, 12011, 25152, Note_on_c, 9, 24, 12011, 25176, Note_off_c, 9, 24, 12011, 25344, Note_on_c, 9, 24, 12011, 25368, Note_off_c, 9, 24, 12011, 25536, Note_on_c, 9, 24, 12011, 25560, Note_off_c, 9, 24, 12011, 25728, Note_on_c, 9, 24, 12011, 25752, Note_off_c, 9, 24, 12011, 25920, Note_on_c, 9, 24, 12011, 25944, Note_off_c, 9, 24, 12011, 26112, Note_on_c, 9, 24, 12011, 26136, Note_off_c, 9, 24, 12011, 26304, Note_on_c, 9, 24, 12011, 26328, Note_off_c, 9, 24, 12011, 26496, Note_on_c, 9, 24, 12011, 26520, Note_off_c, 9, 24, 12011, 26688, Note_on_c, 9, 24, 12011, 26712, Note_off_c, 9, 24, 12011, 26880, Note_on_c, 9, 24, 12011, 26904, Note_off_c, 9, 24, 12011, 27072, Note_on_c, 9, 24, 12011, 27096, Note_off_c, 9, 24, 12011, 27264, Note_on_c, 9, 24, 12011, 27288, Note_off_c, 9, 24, 12011, 27456, Note_on_c, 9, 24, 12011, 27480, Note_off_c, 9, 24, 12011, 27648, Note_on_c, 9, 24, 12011, 27672, Note_off_c, 9, 24, 12011, 30720, Note_on_c, 9, 24, 12011, 30744, Note_off_c, 9, 24, 12011, 32256, Note_on_c, 9, 24, 12011, 32280, Note_off_c, 9, 24, 12011, 32448, Note_on_c, 9, 24, 12011, 32472, Note_off_c, 9, 24, 12011, 32640, Note_on_c, 9, 24, 12011, 32664, Note_off_c, 9, 24, 12011, 32832, Note_on_c, 9, 24, 12011, 32856, Note_off_c, 9, 24, 12011, 33024, Note_on_c, 9, 24, 12011, 33048, Note_off_c, 9, 24, 12011, 33216, Note_on_c, 9, 24, 12011, 33240, Note_off_c, 9, 24, 12011, 33408, Note_on_c, 9, 24, 12011, 33432, Note_off_c, 9, 24, 12011, 33600, Note_on_c, 9, 24, 12011, 33624, Note_off_c, 9, 24, 12011, 33792, Note_on_c, 9, 24, 12011, 33816, Note_off_c, 9, 24, 12011, 33984, Note_on_c, 9, 24, 12011, 34008, Note_off_c, 9, 24, 12011, 34176, Note_on_c, 9, 24, 12011, 34200, Note_off_c, 9, 24, 12011, 34368, Note_on_c, 9, 24, 12011, 34392, Note_off_c, 9, 24, 12011, 34560, Note_on_c, 9, 24, 12011, 34584, Note_off_c, 9, 24, 12011, 34752, Note_on_c, 9, 24, 12011, 34776, Note_off_c, 9, 24, 12011, 34944, Note_on_c, 9, 24, 12011, 34968, Note_off_c, 9, 24, 12011, 35136, Note_on_c, 9, 24, 12011, 35160, Note_off_c, 9, 24, 12011, 35328, Note_on_c, 9, 24, 12011, 35352, Note_off_c, 9, 24, 12011, 35520, Note_on_c, 9, 24, 12011, 35544, Note_off_c, 9, 24, 12011, 35712, Note_on_c, 9, 24, 12011, 35736, Note_off_c, 9, 24, 12011, 35904, Note_on_c, 9, 24, 12011, 35928, Note_off_c, 9, 24, 12011, 36096, Note_on_c, 9, 24, 12011, 36120, Note_off_c, 9, 24, 12011, 36288, Note_on_c, 9, 24, 12011, 36312, Note_off_c, 9, 24, 12011, 36480, Note_on_c, 9, 24, 12011, 36504, Note_off_c, 9, 24, 12011, 36672, Note_on_c, 9, 24, 12011, 36696, Note_off_c, 9, 24, 12011, 36864, Note_on_c, 9, 24, 12011, 36888, Note_off_c, 9, 24, 12011, 37056, Note_on_c, 9, 24, 12011, 37080, Note_off_c, 9, 24, 12011, 37248, Note_on_c, 9, 24, 12011, 37272, Note_off_c, 9, 24, 12011, 37440, Note_on_c, 9, 24, 12011, 37464, Note_off_c, 9, 24, 12011, 37632, Note_on_c, 9, 24, 12011, 37656, Note_off_c, 9, 24, 12011, 37824, Note_on_c, 9, 24, 12011, 37848, Note_off_c, 9, 24, 12011, 38016, Note_on_c, 9, 24, 12011, 38040, Note_off_c, 9, 24, 12011, 38208, Note_on_c, 9, 24, 12011, 38232, Note_off_c, 9, 24, 12011, 38400, Note_on_c, 9, 24, 12011, 38424, Note_off_c, 9, 24, 12011, 38592, Note_on_c, 9, 24, 12011, 38616, Note_off_c, 9, 24, 12011, 38784, Note_on_c, 9, 24, 12011, 38808, Note_off_c, 9, 24, 12011, 38976, Note_on_c, 9, 24, 12011, 39000, Note_off_c, 9, 24, 12011, 39168, Note_on_c, 9, 24, 12011, 39192, Note_off_c, 9, 24, 12011, 39360, Note_on_c, 9, 24, 12011, 39384, Note_off_c, 9, 24, 12011, 39552, Note_on_c, 9, 24, 12011, 39576, Note_off_c, 9, 24, 12011, 39744, Note_on_c, 9, 24, 12011, 39768, Note_off_c, 9, 24, 12011, 39936, Note_on_c, 9, 24, 12011, 39960, Note_off_c, 9, 24, 12011, 40128, Note_on_c, 9, 24, 12011, 40152, Note_off_c, 9, 24, 12011, 40320, Note_on_c, 9, 24, 12011, 40344, Note_off_c, 9, 24, 12011, 40512, Note_on_c, 9, 24, 12011, 40536, Note_off_c, 9, 24, 12011, 40704, Note_on_c, 9, 24, 12011, 40728, Note_off_c, 9, 24, 12011, 40896, Note_on_c, 9, 24, 12011, 40920, Note_off_c, 9, 24, 12011, 41088, Note_on_c, 9, 24, 12011, 41112, Note_off_c, 9, 24, 12011, 41280, Note_on_c, 9, 24, 12011, 41304, Note_off_c, 9, 24, 12011, 41472, Note_on_c, 9, 24, 12011, 41496, Note_off_c, 9, 24, 12011, 41664, Note_on_c, 9, 24, 12011, 41688, Note_off_c, 9, 24, 12011, 41856, Note_on_c, 9, 24, 12011, 41880, Note_off_c, 9, 24, 12011, 42048, Note_on_c, 9, 24, 12011, 42072, Note_off_c, 9, 24, 12011, 42240, Note_on_c, 9, 24, 12011, 42264, Note_off_c, 9, 24, 12011, 42432, Note_on_c, 9, 24, 12011, 42456, Note_off_c, 9, 24, 12011, 42624, Note_on_c, 9, 24, 12011, 42648, Note_off_c, 9, 24, 12011, 42816, Note_on_c, 9, 24, 12011, 42840, Note_off_c, 9, 24, 12011, 43008, Note_on_c, 9, 24, 12011, 43032, Note_off_c, 9, 24, 12011, 43200, Note_on_c, 9, 24, 12011, 43224, Note_off_c, 9, 24, 12011, 43392, Note_on_c, 9, 24, 12011, 43416, Note_off_c, 9, 24, 12011, 43584, Note_on_c, 9, 24, 12011, 43608, Note_off_c, 9, 24, 12011, 43776, Note_on_c, 9, 24, 12011, 43800, Note_off_c, 9, 24, 12011, 43968, Note_on_c, 9, 24, 12011, 43992, Note_off_c, 9, 24, 12011, 44160, Note_on_c, 9, 24, 12011, 44184, Note_off_c, 9, 24, 12011, 44352, Note_on_c, 9, 24, 12011, 44376, Note_off_c, 9, 24, 12011, 44544, Note_on_c, 9, 24, 12011, 44568, Note_off_c, 9, 24, 12011, 44736, Note_on_c, 9, 24, 12011, 44760, Note_off_c, 9, 24, 12011, 44928, Note_on_c, 9, 24, 12011, 44952, Note_off_c, 9, 24, 12011, 45120, Note_on_c, 9, 24, 12011, 45144, Note_off_c, 9, 24, 12011, 45312, Note_on_c, 9, 24, 12011, 45336, Note_off_c, 9, 24, 12011, 45504, Note_on_c, 9, 24, 12011, 45528, Note_off_c, 9, 24, 12011, 45696, Note_on_c, 9, 24, 12011, 45720, Note_off_c, 9, 24, 12011, 45888, Note_on_c, 9, 24, 12011, 45912, Note_off_c, 9, 24, 12011, 46080, Note_on_c, 9, 24, 12011, 46104, Note_off_c, 9, 24, 12011, 46272, Note_on_c, 9, 24, 12011, 46296, Note_off_c, 9, 24, 12011, 46464, Note_on_c, 9, 24, 12011, 46488, Note_off_c, 9, 24, 12011, 46656, Note_on_c, 9, 24, 12011, 46680, Note_off_c, 9, 24, 12011, 46848, Note_on_c, 9, 24, 12011, 46872, Note_off_c, 9, 24, 12011, 47040, Note_on_c, 9, 24, 12011, 47064, Note_off_c, 9, 24, 12011, 47232, Note_on_c, 9, 24, 12011, 47256, Note_off_c, 9, 24, 12011, 47424, Note_on_c, 9, 24, 12011, 47448, Note_off_c, 9, 24, 12011, 47616, Note_on_c, 9, 24, 12011, 47640, Note_off_c, 9, 24, 12011, 47808, Note_on_c, 9, 24, 12011, 47832, Note_off_c, 9, 24, 12011, 48000, Note_on_c, 9, 24, 12011, 48024, Note_off_c, 9, 24, 12011, 48192, Note_on_c, 9, 24, 12011, 48216, Note_off_c, 9, 24, 12011, 48384, Note_on_c, 9, 24, 12011, 48408, Note_off_c, 9, 24, 12011, 48576, Note_on_c, 9, 24, 12011, 48600, Note_off_c, 9, 24, 12011, 48768, Note_on_c, 9, 24, 12011, 48792, Note_off_c, 9, 24, 12011, 48960, Note_on_c, 9, 24, 12011, 48984, Note_off_c, 9, 24, 12011, 49152, Note_on_c, 9, 24, 12011, 49176, Note_off_c, 9, 24, 12011, 50688, Note_on_c, 9, 24, 12011, 50712, Note_off_c, 9, 24, 12011, 50880, Note_on_c, 9, 24, 12011, 50904, Note_off_c, 9, 24, 12011, 51072, Note_on_c, 9, 24, 12011, 51096, Note_off_c, 9, 24, 12011, 51264, Note_on_c, 9, 24, 12011, 51288, Note_off_c, 9, 24, 12011, 51456, Note_on_c, 9, 24, 12011, 51480, Note_off_c, 9, 24, 12011, 51648, Note_on_c, 9, 24, 12011, 51672, Note_off_c, 9, 24, 12011, 51840, Note_on_c, 9, 24, 12011, 51864, Note_off_c, 9, 24, 12011, 52032, Note_on_c, 9, 24, 12011, 52056, Note_off_c, 9, 24, 12011, 52224, Note_on_c, 9, 24, 12011, 52248, Note_off_c, 9, 24, 12011, 52416, Note_on_c, 9, 24, 12011, 52440, Note_off_c, 9, 24, 12011, 52608, Note_on_c, 9, 24, 12011, 52632, Note_off_c, 9, 24, 12011, 52800, Note_on_c, 9, 24, 12011, 52824, Note_off_c, 9, 24, 12011, 52992, Note_on_c, 9, 24, 12011, 53016, Note_off_c, 9, 24, 12011, 53184, Note_on_c, 9, 24, 12011, 53208, Note_off_c, 9, 24, 12011, 53376, Note_on_c, 9, 24, 12011, 53400, Note_off_c, 9, 24, 12011, 53568, Note_on_c, 9, 24, 12011, 53592, Note_off_c, 9, 24, 12011, 53760, Note_on_c, 9, 24, 12011, 53784, Note_off_c, 9, 24, 12011, 53952, Note_on_c, 9, 24, 12011, 53976, Note_off_c, 9, 24, 12011, 54144, Note_on_c, 9, 24, 12011, 54168, Note_off_c, 9, 24, 12011, 54336, Note_on_c, 9, 24, 12011, 54360, Note_off_c, 9, 24, 12011, 54528, Note_on_c, 9, 24, 12011, 54552, Note_off_c, 9, 24, 12011, 54720, Note_on_c, 9, 24, 12011, 54744, Note_off_c, 9, 24, 12011, 54912, Note_on_c, 9, 24, 12011, 54936, Note_off_c, 9, 24, 12011, 55104, Note_on_c, 9, 24, 12011, 55128, Note_off_c, 9, 24, 12011, 55296, Note_on_c, 9, 24, 12011, 55320, Note_off_c, 9, 24, 12011, 55488, Note_on_c, 9, 24, 12011, 55512, Note_off_c, 9, 24, 12011, 55680, Note_on_c, 9, 24, 12011, 55704, Note_off_c, 9, 24, 12011, 55872, Note_on_c, 9, 24, 12011, 55896, Note_off_c, 9, 24, 12011, 56064, Note_on_c, 9, 24, 12011, 56088, Note_off_c, 9, 24, 12011, 56256, Note_on_c, 9, 24, 12011, 56280, Note_off_c, 9, 24, 12011, 56448, Note_on_c, 9, 24, 12011, 56472, Note_off_c, 9, 24, 12011, 56640, Note_on_c, 9, 24, 12011, 56664, Note_off_c, 9, 24, 12011, 56832, Note_on_c, 9, 24, 12011, 56856, Note_off_c, 9, 24, 12011, 57024, Note_on_c, 9, 24, 12011, 57048, Note_off_c, 9, 24, 12011, 57216, Note_on_c, 9, 24, 12011, 57240, Note_off_c, 9, 24, 12011, 57408, Note_on_c, 9, 24, 12011, 57432, Note_off_c, 9, 24, 12011, 57600, Note_on_c, 9, 24, 12011, 57624, Note_off_c, 9, 24, 12011, 57792, Note_on_c, 9, 24, 12011, 57816, Note_off_c, 9, 24, 12011, 57984, Note_on_c, 9, 24, 12011, 58008, Note_off_c, 9, 24, 12011, 58176, Note_on_c, 9, 24, 12011, 58200, Note_off_c, 9, 24, 12011, 58368, Note_on_c, 9, 24, 12011, 58392, Note_off_c, 9, 24, 12011, 58560, Note_on_c, 9, 24, 12011, 58584, Note_off_c, 9, 24, 12011, 58752, Note_on_c, 9, 24, 12011, 58776, Note_off_c, 9, 24, 12011, 58944, Note_on_c, 9, 24, 12011, 58968, Note_off_c, 9, 24, 12011, 59136, Note_on_c, 9, 24, 12011, 59160, Note_off_c, 9, 24, 12011, 59328, Note_on_c, 9, 24, 12011, 59352, Note_off_c, 9, 24, 12011, 59520, Note_on_c, 9, 24, 12011, 59544, Note_off_c, 9, 24, 12011, 59712, Note_on_c, 9, 24, 12011, 59736, Note_off_c, 9, 24, 12011, 59904, Note_on_c, 9, 24, 12011, 59928, Note_off_c, 9, 24, 12011, 60096, Note_on_c, 9, 24, 12011, 60120, Note_off_c, 9, 24, 12011, 60288, Note_on_c, 9, 24, 12011, 60312, Note_off_c, 9, 24, 12011, 60480, Note_on_c, 9, 24, 12011, 60504, Note_off_c, 9, 24, 12011, 60672, Note_on_c, 9, 24, 12011, 60696, Note_off_c, 9, 24, 12011, 60864, Note_on_c, 9, 24, 12011, 60888, Note_off_c, 9, 24, 12011, 61056, Note_on_c, 9, 24, 12011, 61080, Note_off_c, 9, 24, 12011, 61248, Note_on_c, 9, 24, 12011, 61272, Note_off_c, 9, 24, 12011, 61440, Note_on_c, 9, 24, 12011, 61464, Note_off_c, 9, 24, 12011, 61632, Note_on_c, 9, 24, 12011, 61656, Note_off_c, 9, 24, 12011, 61824, Note_on_c, 9, 24, 12011, 61848, Note_off_c, 9, 24, 12011, 62016, Note_on_c, 9, 24, 12011, 62040, Note_off_c, 9, 24, 12011, 62208, Note_on_c, 9, 24, 12011, 62232, Note_off_c, 9, 24, 12011, 62400, Note_on_c, 9, 24, 12011, 62424, Note_off_c, 9, 24, 12011, 62592, Note_on_c, 9, 24, 12011, 62616, Note_off_c, 9, 24, 12011, 62784, Note_on_c, 9, 24, 12011, 62808, Note_off_c, 9, 24, 12011, 62976, Note_on_c, 9, 24, 12011, 63000, Note_off_c, 9, 24, 12011, 63168, Note_on_c, 9, 24, 12011, 63192, Note_off_c, 9, 24, 12011, 63360, Note_on_c, 9, 24, 12011, 63384, Note_off_c, 9, 24, 12011, 63552, Note_on_c, 9, 24, 12011, 63576, Note_off_c, 9, 24, 12011, 63744, Note_on_c, 9, 24, 12011, 63768, Note_off_c, 9, 24, 12011, 63936, Note_on_c, 9, 24, 12011, 63960, Note_off_c, 9, 24, 12011, 64128, Note_on_c, 9, 24, 12011, 64152, Note_off_c, 9, 24, 12011, 64320, Note_on_c, 9, 24, 12011, 64344, Note_off_c, 9, 24, 12011, 64512, Note_on_c, 9, 24, 12011, 64536, Note_off_c, 9, 24, 12011, 64704, Note_on_c, 9, 24, 12011, 64728, Note_off_c, 9, 24, 12011, 64896, Note_on_c, 9, 24, 12011, 64920, Note_off_c, 9, 24, 12011, 65088, Note_on_c, 9, 24, 12011, 65112, Note_off_c, 9, 24, 12011, 65280, Note_on_c, 9, 24, 12011, 65304, Note_off_c, 9, 24, 12011, 65472, Note_on_c, 9, 24, 12011, 65496, Note_off_c, 9, 24, 12011, 65664, Note_on_c, 9, 24, 12011, 65688, Note_off_c, 9, 24, 12011, 65856, Note_on_c, 9, 24, 12011, 65880, Note_off_c, 9, 24, 12011, 66048, Note_on_c, 9, 24, 12011, 66072, Note_off_c, 9, 24, 12011, 66240, Note_on_c, 9, 24, 12011, 66264, Note_off_c, 9, 24, 12011, 66432, Note_on_c, 9, 24, 12011, 66456, Note_off_c, 9, 24, 12011, 66624, Note_on_c, 9, 24, 12011, 66648, Note_off_c, 9, 24, 12011, 66816, Note_on_c, 9, 24, 12011, 66840, Note_off_c, 9, 24, 12011, 67008, Note_on_c, 9, 24, 12011, 67032, Note_off_c, 9, 24, 12011, 67584, Note_on_c, 9, 24, 12011, 67608, Note_off_c, 9, 24, 12011, 67776, Note_on_c, 9, 24, 12011, 67800, Note_off_c, 9, 24, 12011, 67968, Note_on_c, 9, 24, 12011, 67992, Note_off_c, 9, 24, 12011, 68160, Note_on_c, 9, 24, 12011, 68184, Note_off_c, 9, 24, 12011, 68352, Note_on_c, 9, 24, 12011, 68376, Note_off_c, 9, 24, 12011, 68544, Note_on_c, 9, 24, 12011, 68568, Note_off_c, 9, 24, 12011, 68736, Note_on_c, 9, 24, 12011, 68760, Note_off_c, 9, 24, 12011, 68928, Note_on_c, 9, 24, 12011, 68952, Note_off_c, 9, 24, 12011, 69120, Note_on_c, 9, 24, 12011, 69144, Note_off_c, 9, 24, 12011, 69312, Note_on_c, 9, 24, 12011, 69336, Note_off_c, 9, 24, 12011, 69504, Note_on_c, 9, 24, 12011, 69528, Note_off_c, 9, 24, 12011, 69696, Note_on_c, 9, 24, 12011, 69720, Note_off_c, 9, 24, 12011, 70656, Note_on_c, 9, 24, 12011, 70680, Note_off_c, 9, 24, 12011, 70848, Note_on_c, 9, 24, 12011, 70872, Note_off_c, 9, 24, 12011, 71040, Note_on_c, 9, 24, 12011, 71064, Note_off_c, 9, 24, 12011, 71232, Note_on_c, 9, 24, 12011, 71256, Note_off_c, 9, 24, 12011, 71424, Note_on_c, 9, 24, 12011, 71448, Note_off_c, 9, 24, 12011, 71616, Note_on_c, 9, 24, 12011, 71640, Note_off_c, 9, 24, 12011, 71808, Note_on_c, 9, 24, 12011, 71832, Note_off_c, 9, 24, 12011, 72000, Note_on_c, 9, 24, 12011, 72024, Note_off_c, 9, 24, 12011, 72192, Note_on_c, 9, 24, 12011, 72216, Note_off_c, 9, 24, 12011, 72384, Note_on_c, 9, 24, 12011, 72408, Note_off_c, 9, 24, 12011, 72576, Note_on_c, 9, 24, 12011, 72600, Note_off_c, 9, 24, 12011, 72768, Note_on_c, 9, 24, 12011, 72792, Note_off_c, 9, 24, 12011, 72960, Note_on_c, 9, 24, 12011, 72984, Note_off_c, 9, 24, 12011, 73152, Note_on_c, 9, 24, 12011, 73176, Note_off_c, 9, 24, 12011, 73344, Note_on_c, 9, 24, 12011, 73368, Note_off_c, 9, 24, 12011, 73536, Note_on_c, 9, 24, 12011, 73560, Note_off_c, 9, 24, 12011, 73728, Note_on_c, 9, 24, 12011, 73752, Note_off_c, 9, 24, 12011, 73920, Note_on_c, 9, 24, 12011, 73944, Note_off_c, 9, 24, 12011, 74112, Note_on_c, 9, 24, 12011, 74136, Note_off_c, 9, 24, 12011, 74304, Note_on_c, 9, 24, 12011, 74328, Note_off_c, 9, 24, 12011, 74496, Note_on_c, 9, 24, 12011, 74520, Note_off_c, 9, 24, 12011, 74688, Note_on_c, 9, 24, 12011, 74712, Note_off_c, 9, 24, 12011, 74880, Note_on_c, 9, 24, 12011, 74904, Note_off_c, 9, 24, 12011, 75072, Note_on_c, 9, 24, 12011, 75096, Note_off_c, 9, 24, 12011, 75264, Note_on_c, 9, 24, 12011, 75288, Note_off_c, 9, 24, 12011, 75456, Note_on_c, 9, 24, 12011, 75480, Note_off_c, 9, 24, 12011, 75648, Note_on_c, 9, 24, 12011, 75672, Note_off_c, 9, 24, 12011, 75840, Note_on_c, 9, 24, 12011, 75864, Note_off_c, 9, 24, 12011, 76032, Note_on_c, 9, 24, 12011, 76056, Note_off_c, 9, 24, 12011, 76224, Note_on_c, 9, 24, 12011, 76248, Note_off_c, 9, 24, 12011, 76416, Note_on_c, 9, 24, 12011, 76440, Note_off_c, 9, 24, 12011, 76608, Note_on_c, 9, 24, 12011, 76632, Note_off_c, 9, 24, 12011, 76800, Note_on_c, 9, 24, 12011, 76824, Note_off_c, 9, 24, 12011, 76992, Note_on_c, 9, 24, 12011, 77016, Note_off_c, 9, 24, 12011, 77184, Note_on_c, 9, 24, 12011, 77208, Note_off_c, 9, 24, 12011, 77376, Note_on_c, 9, 24, 12011, 77400, Note_off_c, 9, 24, 12011, 77568, Note_on_c, 9, 24, 12011, 77592, Note_off_c, 9, 24, 12011, 77760, Note_on_c, 9, 24, 12011, 77784, Note_off_c, 9, 24, 12011, 77952, Note_on_c, 9, 24, 12011, 77976, Note_off_c, 9, 24, 12011, 78144, Note_on_c, 9, 24, 12011, 78168, Note_off_c, 9, 24, 12011, 78336, Note_on_c, 9, 24, 12011, 78360, Note_off_c, 9, 24, 12011, 78528, Note_on_c, 9, 24, 12011, 78552, Note_off_c, 9, 24, 12011, 78720, Note_on_c, 9, 24, 12011, 78744, Note_off_c, 9, 24, 12011, 78912, Note_on_c, 9, 24, 12011, 78936, Note_off_c, 9, 24, 12011, 79104, Note_on_c, 9, 24, 12011, 79128, Note_off_c, 9, 24, 12011, 79872, Note_on_c, 9, 24, 12011, 79896, Note_off_c, 9, 24, 12011, 80064, Note_on_c, 9, 24, 12011, 80088, Note_off_c, 9, 24, 12011, 80256, Note_on_c, 9, 24, 12011, 80280, Note_off_c, 9, 24, 12011, 80448, Note_on_c, 9, 24, 12011, 80472, Note_off_c, 9, 24, 12011, 80640, Note_on_c, 9, 24, 12011, 80664, Note_off_c, 9, 24, 12011, 80832, Note_on_c, 9, 24, 12011, 80856, Note_off_c, 9, 24, 12011, 81024, Note_on_c, 9, 24, 12011, 81048, Note_off_c, 9, 24, 12011, 81216, Note_on_c, 9, 24, 12011, 81240, Note_off_c, 9, 24, 12011, 81408, Note_on_c, 9, 24, 12011, 81432, Note_off_c, 9, 24, 12011, 81600, Note_on_c, 9, 24, 12011, 81624, Note_off_c, 9, 24, 12011, 81792, Note_on_c, 9, 24, 12011, 81816, Note_off_c, 9, 24, 12011, 81984, Note_on_c, 9, 24, 12011, 82008, Note_off_c, 9, 24, 12011, 82176, Note_on_c, 9, 24, 12011, 82200, Note_off_c, 9, 24, 12011, 82368, Note_on_c, 9, 24, 12011, 82392, Note_off_c, 9, 24, 12011, 82560, Note_on_c, 9, 24, 12011, 82584, Note_off_c, 9, 24, 12011, 82752, Note_on_c, 9, 24, 12011, 82776, Note_off_c, 9, 24, 12011, 82944, Note_on_c, 9, 24, 12011, 82968, Note_off_c, 9, 24, 12011, 83136, Note_on_c, 9, 24, 12011, 83160, Note_off_c, 9, 24, 12011, 83328, Note_on_c, 9, 24, 12011, 83352, Note_off_c, 9, 24, 12011, 83520, Note_on_c, 9, 24, 12011, 83544, Note_off_c, 9, 24, 12011, 83712, Note_on_c, 9, 24, 12011, 83736, Note_off_c, 9, 24, 12011, 83904, Note_on_c, 9, 24, 12011, 83928, Note_off_c, 9, 24, 12011, 84096, Note_on_c, 9, 24, 12011, 84120, Note_off_c, 9, 24, 12011, 84288, Note_on_c, 9, 24, 12011, 84312, Note_off_c, 9, 24, 12011, 84480, Note_on_c, 9, 24, 12011, 84504, Note_off_c, 9, 24, 12011, 84672, Note_on_c, 9, 24, 12011, 84696, Note_off_c, 9, 24, 12011, 84864, Note_on_c, 9, 24, 12011, 84888, Note_off_c, 9, 24, 12011, 85056, Note_on_c, 9, 24, 12011, 85080, Note_off_c, 9, 24, 12011, 85248, Note_on_c, 9, 24, 12011, 85272, Note_off_c, 9, 24, 12011, 85440, Note_on_c, 9, 24, 12011, 85464, Note_off_c, 9, 24, 12011, 85632, Note_on_c, 9, 24, 12011, 85656, Note_off_c, 9, 24, 12011, 85824, Note_on_c, 9, 24, 12011, 85848, Note_off_c, 9, 24, 12011, 86016, Note_on_c, 9, 24, 12011, 86040, Note_off_c, 9, 24, 12011, 86208, Note_on_c, 9, 24, 12011, 86232, Note_off_c, 9, 24, 12011, 86400, Note_on_c, 9, 24, 12011, 86424, Note_off_c, 9, 24, 12011, 86592, Note_on_c, 9, 24, 12011, 86616, Note_off_c, 9, 24, 12011, 86784, Note_on_c, 9, 24, 12011, 86808, Note_off_c, 9, 24, 12011, 86976, Note_on_c, 9, 24, 12011, 87000, Note_off_c, 9, 24, 12011, 87168, Note_on_c, 9, 24, 12011, 87192, Note_off_c, 9, 24, 12011, 87360, Note_on_c, 9, 24, 12011, 87384, Note_off_c, 9, 24, 12011, 87552, Note_on_c, 9, 24, 12011, 87576, Note_off_c, 9, 24, 12011, 87744, Note_on_c, 9, 24, 12011, 87768, Note_off_c, 9, 24, 12011, 87936, Note_on_c, 9, 24, 12011, 87960, Note_off_c, 9, 24, 12011, 88128, Note_on_c, 9, 24, 12011, 88152, Note_off_c, 9, 24, 12011, 88320, Note_on_c, 9, 24, 12011, 88344, Note_off_c, 9, 24, 12011, 88512, Note_on_c, 9, 24, 12011, 88536, Note_off_c, 9, 24, 12011, 88704, Note_on_c, 9, 24, 12011, 88728, Note_off_c, 9, 24, 12011, 88896, Note_on_c, 9, 24, 12011, 88920, Note_off_c, 9, 24, 12011, 89088, Note_on_c, 9, 24, 12011, 89112, Note_off_c, 9, 24, 12011, 89280, Note_on_c, 9, 24, 12011, 89304, Note_off_c, 9, 24, 12011, 89472, Note_on_c, 9, 24, 12011, 89496, Note_off_c, 9, 24, 12011, 89664, Note_on_c, 9, 24, 12011, 89688, Note_off_c, 9, 24, 12011, 89856, Note_on_c, 9, 24, 12011, 89880, Note_off_c, 9, 24, 12011, 90048, Note_on_c, 9, 24, 12011, 90072, Note_off_c, 9, 24, 12011, 90240, Note_on_c, 9, 24, 12011, 90264, Note_off_c, 9, 24, 12011, 90432, Note_on_c, 9, 24, 12011, 90456, Note_off_c, 9, 24, 12011, 92160, Note_on_c, 9, 24, 12011, 92184, Note_off_c, 9, 24, 12011, 92352, Note_on_c, 9, 24, 12011, 92376, Note_off_c, 9, 24, 12011, 92544, Note_on_c, 9, 24, 12011, 92568, Note_off_c, 9, 24, 12011, 92736, Note_on_c, 9, 24, 12011, 92760, Note_off_c, 9, 24, 12011, 92928, Note_on_c, 9, 24, 12011, 92952, Note_off_c, 9, 24, 12011, 93120, Note_on_c, 9, 24, 12011, 93144, Note_off_c, 9, 24, 12011, 93312, Note_on_c, 9, 24, 12011, 93336, Note_off_c, 9, 24, 12011, 93504, Note_on_c, 9, 24, 12011, 93528, Note_off_c, 9, 24, 12011, 93696, Note_on_c, 9, 24, 12011, 93720, Note_off_c, 9, 24, 12011, 93888, Note_on_c, 9, 24, 12011, 93912, Note_off_c, 9, 24, 12011, 94080, Note_on_c, 9, 24, 12011, 94104, Note_off_c, 9, 24, 12011, 94272, Note_on_c, 9, 24, 12011, 94296, Note_off_c, 9, 24, 12011, 94464, Note_on_c, 9, 24, 12011, 94488, Note_off_c, 9, 24, 12011, 94656, Note_on_c, 9, 24, 12011, 94680, Note_off_c, 9, 24, 12011, 94848, Note_on_c, 9, 24, 12011, 94872, Note_off_c, 9, 24, 12011, 95040, Note_on_c, 9, 24, 12011, 95064, Note_off_c, 9, 24, 12011, 95232, Note_on_c, 9, 24, 12011, 95256, Note_off_c, 9, 24, 12011, 95424, Note_on_c, 9, 24, 12011, 95448, Note_off_c, 9, 24, 12011, 95616, Note_on_c, 9, 24, 12011, 95640, Note_off_c, 9, 24, 12011, 95808, Note_on_c, 9, 24, 12011, 95832, Note_off_c, 9, 24, 12011, 96000, Note_on_c, 9, 24, 12011, 96024, Note_off_c, 9, 24, 12011, 96192, Note_on_c, 9, 24, 12011, 96216, Note_off_c, 9, 24, 12011, 96384, Note_on_c, 9, 24, 12011, 96408, Note_off_c, 9, 24, 12011, 96576, Note_on_c, 9, 24, 12011, 96600, Note_off_c, 9, 24, 12011, 96768, Note_on_c, 9, 24, 12011, 96792, Note_off_c, 9, 24, 12011, 96960, Note_on_c, 9, 24, 12011, 96984, Note_off_c, 9, 24, 12011, 97152, Note_on_c, 9, 24, 12011, 97176, Note_off_c, 9, 24, 12011, 97344, Note_on_c, 9, 24, 12011, 97368, Note_off_c, 9, 24, 12011, 97536, Note_on_c, 9, 24, 12011, 97560, Note_off_c, 9, 24, 12011, 97728, Note_on_c, 9, 24, 12011, 97752, Note_off_c, 9, 24, 12011, 97920, Note_on_c, 9, 24, 12011, 97944, Note_off_c, 9, 24, 12011, 98112, Note_on_c, 9, 24, 12011, 98136, Note_off_c, 9, 24, 12011, 98304, Note_on_c, 9, 24, 12011, 98328, Note_off_c, 9, 24, 12011, 98496, Note_on_c, 9, 24, 12011, 98520, Note_off_c, 9, 24, 12011, 98688, Note_on_c, 9, 24, 12011, 98712, Note_off_c, 9, 24, 12011, 98880, Note_on_c, 9, 24, 12011, 98904, Note_off_c, 9, 24, 12011, 99072, Note_on_c, 9, 24, 12011, 99096, Note_off_c, 9, 24, 12011, 99264, Note_on_c, 9, 24, 12011, 99288, Note_off_c, 9, 24, 12011, 99456, Note_on_c, 9, 24, 12011, 99480, Note_off_c, 9, 24, 12011, 99648, Note_on_c, 9, 24, 12011, 99672, Note_off_c, 9, 24, 12011, 99840, Note_on_c, 9, 24, 12011, 99864, Note_off_c, 9, 24, 12011, 100032, Note_on_c, 9, 24, 12011, 100056, Note_off_c, 9, 24, 12011, 100224, Note_on_c, 9, 24, 12011, 100248, Note_off_c, 9, 24, 12011, 100416, Note_on_c, 9, 24, 12011, 100440, Note_off_c, 9, 24, 12011, 100608, Note_on_c, 9, 24, 12011, 100632, Note_off_c, 9, 24, 12011, 100800, Note_on_c, 9, 24, 12011, 100824, Note_off_c, 9, 24, 12011, 100992, Note_on_c, 9, 24, 12011, 101016, Note_off_c, 9, 24, 12011, 101184, Note_on_c, 9, 24, 12011, 101208, Note_off_c, 9, 24, 12011, 101376, Note_on_c, 9, 24, 12011, 101400, Note_off_c, 9, 24, 12011, 101568, Note_on_c, 9, 24, 12011, 101592, Note_off_c, 9, 24, 12011, 101760, Note_on_c, 9, 24, 12011, 101784, Note_off_c, 9, 24, 12011, 101952, Note_on_c, 9, 24, 12011, 101976, Note_off_c, 9, 24, 12011, 102144, Note_on_c, 9, 24, 12011, 102168, Note_off_c, 9, 24, 12011, 102336, Note_on_c, 9, 24, 12011, 102360, Note_off_c, 9, 24, 12011, 102528, Note_on_c, 9, 24, 12011, 102552, Note_off_c, 9, 24, 12011, 102720, Note_on_c, 9, 24, 12011, 102744, Note_off_c, 9, 24, 12011, 102912, Note_on_c, 9, 24, 12011, 102936, Note_off_c, 9, 24, 12011, 103104, Note_on_c, 9, 24, 12011, 103128, Note_off_c, 9, 24, 12011, 103296, Note_on_c, 9, 24, 12011, 103320, Note_off_c, 9, 24, 12011, 103488, Note_on_c, 9, 24, 12011, 103512, Note_off_c, 9, 24, 12011, 103680, Note_on_c, 9, 24, 12011, 103704, Note_off_c, 9, 24, 12011, 103872, Note_on_c, 9, 24, 12011, 103896, Note_off_c, 9, 24, 12011, 104064, Note_on_c, 9, 24, 12011, 104088, Note_off_c, 9, 24, 12011, 104256, Note_on_c, 9, 24, 12011, 104280, Note_off_c, 9, 24, 12011, 104448, Note_on_c, 9, 24, 12011, 104472, Note_off_c, 9, 24, 12011, 104640, Note_on_c, 9, 24, 12011, 104664, Note_off_c, 9, 24, 12011, 104832, Note_on_c, 9, 24, 12011, 104856, Note_off_c, 9, 24, 12011, 105024, Note_on_c, 9, 24, 12011, 105048, Note_off_c, 9, 24, 12011, 105216, Note_on_c, 9, 24, 12011, 105240, Note_off_c, 9, 24, 12011, 105408, Note_on_c, 9, 24, 12011, 105432, Note_off_c, 9, 24, 12011, 105600, Note_on_c, 9, 24, 12011, 105624, Note_off_c, 9, 24, 12011, 105792, Note_on_c, 9, 24, 12011, 105816, Note_off_c, 9, 24, 12011, 105984, Note_on_c, 9, 24, 12011, 106008, Note_off_c, 9, 24, 12011, 106176, Note_on_c, 9, 24, 12011, 106200, Note_off_c, 9, 24, 12011, 106368, Note_on_c, 9, 24, 12011, 106392, Note_off_c, 9, 24, 12011, 106560, Note_on_c, 9, 24, 12011, 106584, Note_off_c, 9, 24, 12011, 106752, Note_on_c, 9, 24, 12011, 106776, Note_off_c, 9, 24, 12011, 106944, Note_on_c, 9, 24, 12011, 106968, Note_off_c, 9, 24, 12011, 107136, Note_on_c, 9, 24, 12011, 107160, Note_off_c, 9, 24, 12011, 107328, Note_on_c, 9, 24, 12011, 107352, Note_off_c, 9, 24, 12011, 107520, Note_on_c, 9, 24, 12011, 107544, Note_off_c, 9, 24, 12011, 107712, Note_on_c, 9, 24, 12011, 107736, Note_off_c, 9, 24, 12011, 107904, Note_on_c, 9, 24, 12011, 107928, Note_off_c, 9, 24, 12011, 108096, Note_on_c, 9, 24, 12011, 108120, Note_off_c, 9, 24, 12011, 108288, Note_on_c, 9, 24, 12011, 108312, Note_off_c, 9, 24, 12011, 108480, Note_on_c, 9, 24, 12011, 108504, Note_off_c, 9, 24, 12011, 108672, Note_on_c, 9, 24, 12011, 108696, Note_off_c, 9, 24, 12011, 108864, Note_on_c, 9, 24, 12011, 108888, Note_off_c, 9, 24, 12011, 109056, Note_on_c, 9, 24, 12011, 109080, Note_off_c, 9, 24, 12011, 109248, Note_on_c, 9, 24, 12011, 109272, Note_off_c, 9, 24, 12011, 109440, Note_on_c, 9, 24, 12011, 109464, Note_off_c, 9, 24, 12011, 109632, Note_on_c, 9, 24, 12011, 109656, Note_off_c, 9, 24, 12011, 109824, Note_on_c, 9, 24, 12011, 109848, Note_off_c, 9, 24, 12011, 110592, Note_on_c, 9, 24, 12011, 110616, Note_off_c, 9, 24, 12011, 110784, Note_on_c, 9, 24, 12011, 110808, Note_off_c, 9, 24, 12011, 110976, Note_on_c, 9, 24, 12011, 111000, Note_off_c, 9, 24, 12011, 111168, Note_on_c, 9, 24, 12011, 111192, Note_off_c, 9, 24, 12011, 111360, Note_on_c, 9, 24, 12011, 111384, Note_off_c, 9, 24, 12011, 111552, Note_on_c, 9, 24, 12011, 111576, Note_off_c, 9, 24, 12011, 111744, Note_on_c, 9, 24, 12011, 111768, Note_off_c, 9, 24, 12011, 111936, Note_on_c, 9, 24, 12011, 111960, Note_off_c, 9, 24, 12011, 112128, Note_on_c, 9, 24, 12011, 112152, Note_off_c, 9, 24, 12011, 112320, Note_on_c, 9, 24, 12011, 112344, Note_off_c, 9, 24, 12011, 112512, Note_on_c, 9, 24, 12011, 112536, Note_off_c, 9, 24, 12011, 112704, Note_on_c, 9, 24, 12011, 112728, Note_off_c, 9, 24, 12011, 112896, Note_on_c, 9, 24, 12011, 112920, Note_off_c, 9, 24, 12011, 113088, Note_on_c, 9, 24, 12011, 113112, Note_off_c, 9, 24, 12011, 113280, Note_on_c, 9, 24, 12011, 113304, Note_off_c, 9, 24, 12011, 113472, Note_on_c, 9, 24, 12011, 113496, Note_off_c, 9, 24, 12011, 113664, Note_on_c, 9, 24, 12011, 113688, Note_off_c, 9, 24, 12011, 113856, Note_on_c, 9, 24, 12011, 113880, Note_off_c, 9, 24, 12011, 114048, Note_on_c, 9, 24, 12011, 114072, Note_off_c, 9, 24, 12011, 114240, Note_on_c, 9, 24, 12011, 114264, Note_off_c, 9, 24, 12011, 114432, Note_on_c, 9, 24, 12011, 114456, Note_off_c, 9, 24, 12011, 114624, Note_on_c, 9, 24, 12011, 114648, Note_off_c, 9, 24, 12011, 114816, Note_on_c, 9, 24, 12011, 114840, Note_off_c, 9, 24, 12011, 115008, Note_on_c, 9, 24, 12011, 115032, Note_off_c, 9, 24, 12011, 115200, Note_on_c, 9, 24, 12011, 115224, Note_off_c, 9, 24, 12011, 115392, Note_on_c, 9, 24, 12011, 115416, Note_off_c, 9, 24, 12011, 115584, Note_on_c, 9, 24, 12011, 115608, Note_off_c, 9, 24, 12011, 115776, Note_on_c, 9, 24, 12011, 115800, Note_off_c, 9, 24, 12011, 115968, Note_on_c, 9, 24, 12011, 115992, Note_off_c, 9, 24, 12011, 116160, Note_on_c, 9, 24, 12011, 116184, Note_off_c, 9, 24, 12011, 116352, Note_on_c, 9, 24, 12011, 116376, Note_off_c, 9, 24, 12011, 116544, Note_on_c, 9, 24, 12011, 116568, Note_off_c, 9, 24, 12011, 116736, Note_on_c, 9, 24, 12011, 116760, Note_off_c, 9, 24, 12011, 116928, Note_on_c, 9, 24, 12011, 116952, Note_off_c, 9, 24, 12011, 117120, Note_on_c, 9, 24, 12011, 117144, Note_off_c, 9, 24, 12011, 117312, Note_on_c, 9, 24, 12011, 117336, Note_off_c, 9, 24, 12011, 117504, Note_on_c, 9, 24, 12011, 117528, Note_off_c, 9, 24, 12011, 117696, Note_on_c, 9, 24, 12011, 117720, Note_off_c, 9, 24, 12011, 117888, Note_on_c, 9, 24, 12011, 117912, Note_off_c, 9, 24, 12011, 118080, Note_on_c, 9, 24, 12011, 118104, Note_off_c, 9, 24, 12011, 118272, Note_on_c, 9, 24, 12011, 118296, Note_off_c, 9, 24, 12011, 118464, Note_on_c, 9, 24, 12011, 118488, Note_off_c, 9, 24, 12011, 118656, Note_on_c, 9, 24, 12011, 118680, Note_off_c, 9, 24, 12011, 118848, Note_on_c, 9, 24, 12011, 118872, Note_off_c, 9, 24, 12011, 119040, Note_on_c, 9, 24, 12011, 119064, Note_off_c, 9, 24, 12011, 119232, Note_on_c, 9, 24, 12011, 119256, Note_off_c, 9, 24, 12011, 119424, Note_on_c, 9, 24, 12011, 119448, Note_off_c, 9, 24, 12011, 119616, Note_on_c, 9, 24, 12011, 119640, Note_off_c, 9, 24, 12011, 119808, Note_on_c, 9, 24, 12011, 119832, Note_off_c, 9, 24, 12011, 120000, Note_on_c, 9, 24, 12011, 120024, Note_off_c, 9, 24, 12011, 120192, Note_on_c, 9, 24, 12011, 120216, Note_off_c, 9, 24, 12011, 120384, Note_on_c, 9, 24, 12011, 120408, Note_off_c, 9, 24, 12011, 120576, Note_on_c, 9, 24, 12011, 120600, Note_off_c, 9, 24, 12011, 120768, Note_on_c, 9, 24, 12011, 120792, Note_off_c, 9, 24, 12011, 120960, Note_on_c, 9, 24, 12011, 120984, Note_off_c, 9, 24, 12011, 121152, Note_on_c, 9, 24, 12011, 121176, Note_off_c, 9, 24, 12011, 121344, Note_on_c, 9, 24, 12011, 121368, Note_off_c, 9, 24, 12011, 121536, Note_on_c, 9, 24, 12011, 121560, Note_off_c, 9, 24, 12011, 121728, Note_on_c, 9, 24, 12011, 121752, Note_off_c, 9, 24, 12011, 121920, Note_on_c, 9, 24, 12011, 121944, Note_off_c, 9, 24, 12011, 122112, Note_on_c, 9, 24, 12011, 122136, Note_off_c, 9, 24, 12011, 122136, End_track
12, 0, Start_track
12, 0, Text_t, "Drum Loop"
12, 2880, Control_c, 10, 0, 0
12, 2882, Control_c, 10, 32, 0
12, 2884, Program_c, 10, 25
12, 2886, Control_c, 10, 7, 100
12, 2888, Control_c, 10, 10, 64
12, 2890, Control_c, 10, 11, 127
12, 2892, Control_c, 10, 91, 0
12, 2894, Control_c, 10, 93, 0
12, 8928, Note_on_c, 10, 28, 6012, 8952, Note_off_c, 10, 28, 6012, 8976, Note_on_c, 10, 28, 6012, 9000, Note_off_c, 10, 28, 6012, 9072, Note_on_c, 10, 28, 6012, 9096, Note_off_c, 10, 28, 6012, 9168, Note_on_c, 10, 28, 6012, 9192, Note_off_c, 10, 28, 6012, 9408, Note_on_c, 10, 15, 12712, 9432, Note_off_c, 10, 15, 12712, 9552, Note_on_c, 10, 28, 8012, 9576, Note_off_c, 10, 28, 8012, 9792, Note_on_c, 10, 15, 12712, 9816, Note_off_c, 10, 15, 12712, 10176, Note_on_c, 10, 15, 12712, 10200, Note_off_c, 10, 15, 12712, 10320, Note_on_c, 10, 28, 8012, 10344, Note_off_c, 10, 28, 8012, 10416, Note_on_c, 10, 28, 8012, 10440, Note_off_c, 10, 28, 8012, 10560, Note_on_c, 10, 15, 12712, 10584, Note_off_c, 10, 15, 12712, 10944, Note_on_c, 10, 15, 12712, 10968, Note_off_c, 10, 15, 12712, 11088, Note_on_c, 10, 28, 8012, 11112, Note_off_c, 10, 28, 8012, 11328, Note_on_c, 10, 15, 12712, 11352, Note_off_c, 10, 15, 12712, 11712, Note_on_c, 10, 15, 12712, 11736, Note_off_c, 10, 15, 12712, 11856, Note_on_c, 10, 28, 8012, 11880, Note_off_c, 10, 28, 8012, 11952, Note_on_c, 10, 28, 8012, 11976, Note_off_c, 10, 28, 8012, 12096, Note_on_c, 10, 15, 12712, 12120, Note_off_c, 10, 15, 12712, 12192, Note_on_c, 10, 28, 6012, 12216, Note_off_c, 10, 28, 6012, 12480, Note_on_c, 10, 15, 12712, 12504, Note_off_c, 10, 15, 12712, 12624, Note_on_c, 10, 28, 8012, 12648, Note_off_c, 10, 28, 8012, 12864, Note_on_c, 10, 15, 12712, 12888, Note_off_c, 10, 15, 12712, 13248, Note_on_c, 10, 15, 12712, 13272, Note_off_c, 10, 15, 12712, 13392, Note_on_c, 10, 28, 8012, 13416, Note_off_c, 10, 28, 8012, 13488, Note_on_c, 10, 28, 8012, 13512, Note_off_c, 10, 28, 8012, 13632, Note_on_c, 10, 15, 12712, 13656, Note_off_c, 10, 15, 12712, 13736, Note_on_c, 10, 26, 8012, 13760, Note_off_c, 10, 26, 8012, 13784, Note_on_c, 10, 26, 8012, 13808, Note_off_c, 10, 26, 8012, 14016, Note_on_c, 10, 15, 12712, 14040, Note_off_c, 10, 15, 12712, 14160, Note_on_c, 10, 28, 8012, 14184, Note_off_c, 10, 28, 8012, 14400, Note_on_c, 10, 15, 12712, 14424, Note_off_c, 10, 15, 12712, 15264, Note_on_c, 10, 28, 10012, 15288, Note_off_c, 10, 28, 10012, 15312, Note_on_c, 10, 28, 10012, 15336, Note_off_c, 10, 28, 10012, 15552, Note_on_c, 10, 15, 12712, 15576, Note_off_c, 10, 15, 12712, 15696, Note_on_c, 10, 28, 8012, 15720, Note_off_c, 10, 28, 8012, 15936, Note_on_c, 10, 15, 12712, 15960, Note_off_c, 10, 15, 12712, 16320, Note_on_c, 10, 15, 12712, 16344, Note_off_c, 10, 15, 12712, 16464, Note_on_c, 10, 28, 8012, 16488, Note_off_c, 10, 28, 8012, 16560, Note_on_c, 10, 28, 8012, 16584, Note_off_c, 10, 28, 8012, 16704, Note_on_c, 10, 15, 12712, 16728, Note_off_c, 10, 15, 12712, 17088, Note_on_c, 10, 15, 12712, 17112, Note_off_c, 10, 15, 12712, 17232, Note_on_c, 10, 28, 8012, 17256, Note_off_c, 10, 28, 8012, 17472, Note_on_c, 10, 15, 12712, 17496, Note_off_c, 10, 15, 12712, 17856, Note_on_c, 10, 15, 12712, 17880, Note_off_c, 10, 15, 12712, 18000, Note_on_c, 10, 28, 8012, 18024, Note_off_c, 10, 28, 8012, 18096, Note_on_c, 10, 28, 8012, 18120, Note_off_c, 10, 28, 8012, 18240, Note_on_c, 10, 15, 12712, 18264, Note_off_c, 10, 15, 12712, 18624, Note_on_c, 10, 15, 12712, 18648, Note_off_c, 10, 15, 12712, 18768, Note_on_c, 10, 28, 8012, 18792, Note_off_c, 10, 28, 8012, 19008, Note_on_c, 10, 15, 12712, 19032, Note_off_c, 10, 15, 12712, 19392, Note_on_c, 10, 15, 12712, 19416, Note_off_c, 10, 15, 12712, 19536, Note_on_c, 10, 28, 8012, 19560, Note_off_c, 10, 28, 8012, 19632, Note_on_c, 10, 28, 8012, 19656, Note_off_c, 10, 28, 8012, 19776, Note_on_c, 10, 15, 12712, 19800, Note_off_c, 10, 15, 12712, 19872, Note_on_c, 10, 26, 9512, 19896, Note_off_c, 10, 26, 9512, 19920, Note_on_c, 10, 26, 9512, 19944, Note_off_c, 10, 26, 9512, 20160, Note_on_c, 10, 15, 12712, 20184, Note_off_c, 10, 15, 12712, 20304, Note_on_c, 10, 28, 8012, 20328, Note_off_c, 10, 28, 8012, 20544, Note_on_c, 10, 15, 12712, 20568, Note_off_c, 10, 15, 12712, 20928, Note_on_c, 10, 15, 12712, 20952, Note_off_c, 10, 15, 12712, 21072, Note_on_c, 10, 28, 8012, 21096, Note_off_c, 10, 28, 8012, 21168, Note_on_c, 10, 28, 8012, 21192, Note_off_c, 10, 28, 8012, 21312, Note_on_c, 10, 15, 12712, 21336, Note_off_c, 10, 15, 12712, 21408, Note_on_c, 10, 28, 8012, 21432, Note_off_c, 10, 28, 8012, 21456, Note_on_c, 10, 28, 8012, 21480, Note_off_c, 10, 28, 8012, 21696, Note_on_c, 10, 15, 12712, 21720, Note_off_c, 10, 15, 12712, 21840, Note_on_c, 10, 28, 8012, 21864, Note_off_c, 10, 28, 8012, 22080, Note_on_c, 10, 15, 12712, 22104, Note_off_c, 10, 15, 12712, 22464, Note_on_c, 10, 15, 12712, 22488, Note_off_c, 10, 15, 12712, 22608, Note_on_c, 10, 28, 8012, 22632, Note_off_c, 10, 28, 8012, 22704, Note_on_c, 10, 28, 8012, 22728, Note_off_c, 10, 28, 8012, 22848, Note_on_c, 10, 15, 12712, 22872, Note_off_c, 10, 15, 12712, 23232, Note_on_c, 10, 15, 12712, 23256, Note_off_c, 10, 15, 12712, 23376, Note_on_c, 10, 28, 8012, 23400, Note_off_c, 10, 28, 8012, 23616, Note_on_c, 10, 15, 12712, 23640, Note_off_c, 10, 15, 12712, 24000, Note_on_c, 10, 15, 12712, 24024, Note_off_c, 10, 15, 12712, 24144, Note_on_c, 10, 28, 8012, 24168, Note_off_c, 10, 28, 8012, 24240, Note_on_c, 10, 28, 8012, 24264, Note_off_c, 10, 28, 8012, 24384, Note_on_c, 10, 15, 12712, 24408, Note_off_c, 10, 15, 12712, 24768, Note_on_c, 10, 15, 12712, 24792, Note_off_c, 10, 15, 12712, 24912, Note_on_c, 10, 28, 8012, 24936, Note_off_c, 10, 28, 8012, 25152, Note_on_c, 10, 15, 12712, 25176, Note_off_c, 10, 15, 12712, 25536, Note_on_c, 10, 15, 12712, 25560, Note_off_c, 10, 15, 12712, 25680, Note_on_c, 10, 28, 8012, 25704, Note_off_c, 10, 28, 8012, 25776, Note_on_c, 10, 28, 8012, 25800, Note_off_c, 10, 28, 8012, 25920, Note_on_c, 10, 15, 12712, 25944, Note_off_c, 10, 15, 12712, 26016, Note_on_c, 10, 26, 9512, 26040, Note_off_c, 10, 26, 9512, 26064, Note_on_c, 10, 26, 9512, 26088, Note_off_c, 10, 26, 9512, 26304, Note_on_c, 10, 15, 12712, 26328, Note_off_c, 10, 15, 12712, 26448, Note_on_c, 10, 28, 8012, 26472, Note_off_c, 10, 28, 8012, 26688, Note_on_c, 10, 15, 12712, 26712, Note_off_c, 10, 15, 12712, 27072, Note_on_c, 10, 15, 12712, 27096, Note_off_c, 10, 15, 12712, 27456, Note_on_c, 10, 15, 12712, 27480, Note_off_c, 10, 15, 12712, 27552, Note_on_c, 10, 28, 8012, 27576, Note_off_c, 10, 28, 8012, 27600, Note_on_c, 10, 28, 8012, 27624, Note_off_c, 10, 28, 8012, 27648, Note_on_c, 10, 28, 10012, 27672, Note_off_c, 10, 28, 10012, 30528, Note_on_c, 10, 28, 8012, 30552, Note_off_c, 10, 28, 8012, 30576, Note_on_c, 10, 28, 8012, 30600, Note_off_c, 10, 28, 8012, 30624, Note_on_c, 10, 28, 8012, 30648, Note_off_c, 10, 28, 8012, 30672, Note_on_c, 10, 28, 8012, 30696, Note_off_c, 10, 28, 8012, 31872, Note_on_c, 10, 28, 8012, 31896, Note_off_c, 10, 28, 8012, 31920, Note_on_c, 10, 28, 8012, 31944, Note_off_c, 10, 28, 8012, 31968, Note_on_c, 10, 28, 8012, 31992, Note_off_c, 10, 28, 8012, 32064, Note_on_c, 10, 28, 8012, 32088, Note_off_c, 10, 28, 8012, 32112, Note_on_c, 10, 28, 8012, 32136, Note_off_c, 10, 28, 8012, 32208, Note_on_c, 10, 28, 8012, 32232, Note_off_c, 10, 28, 8012, 32448, Note_on_c, 10, 15, 12712, 32472, Note_off_c, 10, 15, 12712, 32592, Note_on_c, 10, 28, 8012, 32616, Note_off_c, 10, 28, 8012, 32832, Note_on_c, 10, 15, 12712, 32856, Note_off_c, 10, 15, 12712, 33216, Note_on_c, 10, 15, 12712, 33240, Note_off_c, 10, 15, 12712, 33360, Note_on_c, 10, 28, 8012, 33384, Note_off_c, 10, 28, 8012, 33456, Note_on_c, 10, 28, 8012, 33480, Note_off_c, 10, 28, 8012, 33600, Note_on_c, 10, 15, 12712, 33624, Note_off_c, 10, 15, 12712, 33984, Note_on_c, 10, 15, 12712, 34008, Note_off_c, 10, 15, 12712, 34128, Note_on_c, 10, 28, 8012, 34152, Note_off_c, 10, 28, 8012, 34368, Note_on_c, 10, 15, 12712, 34392, Note_off_c, 10, 15, 12712, 34752, Note_on_c, 10, 15, 12712, 34776, Note_off_c, 10, 15, 12712, 34896, Note_on_c, 10, 28, 8012, 34920, Note_off_c, 10, 28, 8012, 34992, Note_on_c, 10, 28, 8012, 35016, Note_off_c, 10, 28, 8012, 35136, Note_on_c, 10, 15, 12712, 35160, Note_off_c, 10, 15, 12712, 35232, Note_on_c, 10, 26, 8012, 35256, Note_off_c, 10, 26, 8012, 35280, Note_on_c, 10, 26, 8012, 35304, Note_off_c, 10, 26, 8012, 35520, Note_on_c, 10, 15, 12712, 35544, Note_off_c, 10, 15, 12712, 35664, Note_on_c, 10, 28, 8012, 35688, Note_off_c, 10, 28, 8012, 35904, Note_on_c, 10, 15, 12712, 35928, Note_off_c, 10, 15, 12712, 36288, Note_on_c, 10, 15, 12712, 36312, Note_off_c, 10, 15, 12712, 36432, Note_on_c, 10, 28, 8012, 36456, Note_off_c, 10, 28, 8012, 36528, Note_on_c, 10, 28, 8012, 36552, Note_off_c, 10, 28, 8012, 36672, Note_on_c, 10, 15, 12712, 36696, Note_off_c, 10, 15, 12712, 36768, Note_on_c, 10, 26, 8012, 36792, Note_off_c, 10, 26, 8012, 36816, Note_on_c, 10, 26, 8012, 36840, Note_off_c, 10, 26, 8012, 37056, Note_on_c, 10, 15, 12712, 37080, Note_off_c, 10, 15, 12712, 37200, Note_on_c, 10, 28, 8012, 37224, Note_off_c, 10, 28, 8012, 37440, Note_on_c, 10, 15, 12712, 37464, Note_off_c, 10, 15, 12712, 37824, Note_on_c, 10, 15, 12712, 37848, Note_off_c, 10, 15, 12712, 37968, Note_on_c, 10, 28, 8012, 37992, Note_off_c, 10, 28, 8012, 38064, Note_on_c, 10, 28, 8012, 38088, Note_off_c, 10, 28, 8012, 38208, Note_on_c, 10, 15, 12712, 38232, Note_off_c, 10, 15, 12712, 38304, Note_on_c, 10, 26, 8012, 38328, Note_off_c, 10, 26, 8012, 38352, Note_on_c, 10, 26, 8012, 38376, Note_off_c, 10, 26, 8012, 38592, Note_on_c, 10, 15, 12712, 38616, Note_off_c, 10, 15, 12712, 38736, Note_on_c, 10, 28, 8012, 38760, Note_off_c, 10, 28, 8012, 38976, Note_on_c, 10, 15, 12712, 39000, Note_off_c, 10, 15, 12712, 39360, Note_on_c, 10, 15, 12712, 39384, Note_off_c, 10, 15, 12712, 39504, Note_on_c, 10, 28, 8012, 39528, Note_off_c, 10, 28, 8012, 39600, Note_on_c, 10, 28, 8012, 39624, Note_off_c, 10, 28, 8012, 39744, Note_on_c, 10, 15, 12712, 39768, Note_off_c, 10, 15, 12712, 39840, Note_on_c, 10, 26, 8012, 39864, Note_off_c, 10, 26, 8012, 39888, Note_on_c, 10, 26, 8012, 39912, Note_off_c, 10, 26, 8012, 40128, Note_on_c, 10, 15, 12712, 40152, Note_off_c, 10, 15, 12712, 40272, Note_on_c, 10, 28, 8012, 40296, Note_off_c, 10, 28, 8012, 40512, Note_on_c, 10, 15, 12712, 40536, Note_off_c, 10, 15, 12712, 40896, Note_on_c, 10, 15, 12712, 40920, Note_off_c, 10, 15, 12712, 41040, Note_on_c, 10, 28, 8012, 41064, Note_off_c, 10, 28, 8012, 41136, Note_on_c, 10, 28, 8012, 41160, Note_off_c, 10, 28, 8012, 41280, Note_on_c, 10, 15, 12712, 41304, Note_off_c, 10, 15, 12712, 41376, Note_on_c, 10, 26, 8012, 41400, Note_off_c, 10, 26, 8012, 41424, Note_on_c, 10, 26, 8012, 41448, Note_off_c, 10, 26, 8012, 41664, Note_on_c, 10, 15, 12712, 41688, Note_off_c, 10, 15, 12712, 41808, Note_on_c, 10, 28, 8012, 41832, Note_off_c, 10, 28, 8012, 42048, Note_on_c, 10, 15, 12712, 42072, Note_off_c, 10, 15, 12712, 42288, Note_on_c, 10, 28, 8012, 42312, Note_off_c, 10, 28, 8012, 42432, Note_on_c, 10, 15, 12712, 42432, Note_on_c, 10, 28, 8012, 42456, Note_off_c, 10, 28, 8012, 42456, Note_off_c, 10, 15, 12712, 42672, Note_on_c, 10, 28, 8012, 42696, Note_off_c, 10, 28, 8012, 42816, Note_on_c, 10, 15, 12712, 42816, Note_on_c, 10, 28, 8012, 42840, Note_off_c, 10, 28, 8012, 42840, Note_off_c, 10, 15, 12712, 42864, Note_on_c, 10, 28, 8012, 42888, Note_off_c, 10, 28, 8012, 42912, Note_on_c, 10, 28, 8012, 42936, Note_off_c, 10, 28, 8012, 42960, Note_on_c, 10, 28, 8012, 42984, Note_off_c, 10, 28, 8012, 43200, Note_on_c, 10, 15, 12712, 43224, Note_off_c, 10, 15, 12712, 43344, Note_on_c, 10, 28, 8012, 43368, Note_off_c, 10, 28, 8012, 43584, Note_on_c, 10, 15, 12712, 43608, Note_off_c, 10, 15, 12712, 43968, Note_on_c, 10, 15, 12712, 43992, Note_off_c, 10, 15, 12712, 44112, Note_on_c, 10, 28, 8012, 44136, Note_off_c, 10, 28, 8012, 44208, Note_on_c, 10, 28, 8012, 44232, Note_off_c, 10, 28, 8012, 44352, Note_on_c, 10, 15, 12712, 44376, Note_off_c, 10, 15, 12712, 44736, Note_on_c, 10, 15, 12712, 44760, Note_off_c, 10, 15, 12712, 44880, Note_on_c, 10, 28, 8012, 44904, Note_off_c, 10, 28, 8012, 45120, Note_on_c, 10, 15, 12712, 45144, Note_off_c, 10, 15, 12712, 45504, Note_on_c, 10, 15, 12712, 45528, Note_off_c, 10, 15, 12712, 45648, Note_on_c, 10, 28, 8012, 45672, Note_off_c, 10, 28, 8012, 45744, Note_on_c, 10, 28, 8012, 45768, Note_off_c, 10, 28, 8012, 45888, Note_on_c, 10, 15, 12712, 45912, Note_off_c, 10, 15, 12712, 45984, Note_on_c, 10, 26, 8012, 46008, Note_off_c, 10, 26, 8012, 46032, Note_on_c, 10, 26, 8012, 46056, Note_off_c, 10, 26, 8012, 46272, Note_on_c, 10, 15, 12712, 46296, Note_off_c, 10, 15, 12712, 46416, Note_on_c, 10, 28, 8012, 46440, Note_off_c, 10, 28, 8012, 46656, Note_on_c, 10, 15, 12712, 46680, Note_off_c, 10, 15, 12712, 47040, Note_on_c, 10, 15, 12712, 47064, Note_off_c, 10, 15, 12712, 47184, Note_on_c, 10, 28, 8012, 47208, Note_off_c, 10, 28, 8012, 47280, Note_on_c, 10, 28, 8012, 47304, Note_off_c, 10, 28, 8012, 47424, Note_on_c, 10, 15, 12712, 47448, Note_off_c, 10, 15, 12712, 47808, Note_on_c, 10, 15, 12712, 47832, Note_off_c, 10, 15, 12712, 47952, Note_on_c, 10, 28, 8012, 47976, Note_off_c, 10, 28, 8012, 48192, Note_on_c, 10, 15, 12712, 48216, Note_off_c, 10, 15, 12712, 48576, Note_on_c, 10, 15, 12712, 48600, Note_off_c, 10, 15, 12712, 48720, Note_on_c, 10, 28, 8012, 48744, Note_off_c, 10, 28, 8012, 48816, Note_on_c, 10, 28, 8012, 48840, Note_off_c, 10, 28, 8012, 48960, Note_on_c, 10, 15, 12712, 48984, Note_off_c, 10, 15, 12712, 49344, Note_on_c, 10, 15, 12712, 49368, Note_off_c, 10, 15, 12712, 49488, Note_on_c, 10, 28, 8012, 49512, Note_off_c, 10, 28, 8012, 49728, Note_on_c, 10, 15, 12712, 49752, Note_off_c, 10, 15, 12712, 50112, Note_on_c, 10, 15, 12712, 50136, Note_off_c, 10, 15, 12712, 50304, Note_on_c, 10, 28, 8012, 50328, Note_off_c, 10, 28, 8012, 50352, Note_on_c, 10, 28, 8012, 50376, Note_off_c, 10, 28, 8012, 50400, Note_on_c, 10, 28, 8012, 50424, Note_off_c, 10, 28, 8012, 50496, Note_on_c, 10, 28, 8012, 50496, Note_on_c, 10, 15, 12712, 50520, Note_off_c, 10, 15, 12712, 50520, Note_off_c, 10, 28, 8012, 50544, Note_on_c, 10, 28, 8012, 50568, Note_off_c, 10, 28, 8012, 50640, Note_on_c, 10, 28, 8012, 50664, Note_off_c, 10, 28, 8012, 50880, Note_on_c, 10, 15, 12712, 50904, Note_off_c, 10, 15, 12712, 51024, Note_on_c, 10, 28, 8012, 51048, Note_off_c, 10, 28, 8012, 51264, Note_on_c, 10, 15, 12712, 51288, Note_off_c, 10, 15, 12712, 51648, Note_on_c, 10, 15, 12712, 51672, Note_off_c, 10, 15, 12712, 51792, Note_on_c, 10, 28, 8012, 51816, Note_off_c, 10, 28, 8012, 51888, Note_on_c, 10, 28, 8012, 51912, Note_off_c, 10, 28, 8012, 52032, Note_on_c, 10, 15, 12712, 52056, Note_off_c, 10, 15, 12712, 52416, Note_on_c, 10, 15, 12712, 52440, Note_off_c, 10, 15, 12712, 52560, Note_on_c, 10, 28, 8012, 52584, Note_off_c, 10, 28, 8012, 52800, Note_on_c, 10, 15, 12712, 52824, Note_off_c, 10, 15, 12712, 53184, Note_on_c, 10, 15, 12712, 53208, Note_off_c, 10, 15, 12712, 53328, Note_on_c, 10, 28, 8012, 53352, Note_off_c, 10, 28, 8012, 53424, Note_on_c, 10, 28, 8012, 53448, Note_off_c, 10, 28, 8012, 53568, Note_on_c, 10, 15, 12712, 53592, Note_off_c, 10, 15, 12712, 53664, Note_on_c, 10, 26, 8012, 53688, Note_off_c, 10, 26, 8012, 53712, Note_on_c, 10, 26, 8012, 53736, Note_off_c, 10, 26, 8012, 53952, Note_on_c, 10, 15, 12712, 53976, Note_off_c, 10, 15, 12712, 54096, Note_on_c, 10, 28, 8012, 54120, Note_off_c, 10, 28, 8012, 54336, Note_on_c, 10, 15, 12712, 54360, Note_off_c, 10, 15, 12712, 54720, Note_on_c, 10, 15, 12712, 54744, Note_off_c, 10, 15, 12712, 54864, Note_on_c, 10, 28, 8012, 54888, Note_off_c, 10, 28, 8012, 54960, Note_on_c, 10, 28, 8012, 54984, Note_off_c, 10, 28, 8012, 55104, Note_on_c, 10, 15, 12712, 55128, Note_off_c, 10, 15, 12712, 55488, Note_on_c, 10, 15, 12712, 55512, Note_off_c, 10, 15, 12712, 55632, Note_on_c, 10, 28, 8012, 55656, Note_off_c, 10, 28, 8012, 55872, Note_on_c, 10, 15, 12712, 55896, Note_off_c, 10, 15, 12712, 56256, Note_on_c, 10, 15, 12712, 56280, Note_off_c, 10, 15, 12712, 56400, Note_on_c, 10, 28, 8012, 56424, Note_off_c, 10, 28, 8012, 56496, Note_on_c, 10, 28, 8012, 56520, Note_off_c, 10, 28, 8012, 56640, Note_on_c, 10, 15, 12712, 56664, Note_off_c, 10, 15, 12712, 56736, Note_on_c, 10, 26, 8012, 56760, Note_off_c, 10, 26, 8012, 56784, Note_on_c, 10, 26, 8012, 56808, Note_off_c, 10, 26, 8012, 57024, Note_on_c, 10, 15, 12712, 57048, Note_off_c, 10, 15, 12712, 57168, Note_on_c, 10, 28, 8012, 57192, Note_off_c, 10, 28, 8012, 57408, Note_on_c, 10, 15, 12712, 57432, Note_off_c, 10, 15, 12712, 57792, Note_on_c, 10, 15, 12712, 57816, Note_off_c, 10, 15, 12712, 57936, Note_on_c, 10, 28, 8012, 57960, Note_off_c, 10, 28, 8012, 58032, Note_on_c, 10, 28, 8012, 58056, Note_off_c, 10, 28, 8012, 58176, Note_on_c, 10, 15, 12712, 58200, Note_off_c, 10, 15, 12712, 58560, Note_on_c, 10, 15, 12712, 58584, Note_off_c, 10, 15, 12712, 58704, Note_on_c, 10, 28, 8012, 58728, Note_off_c, 10, 28, 8012, 58944, Note_on_c, 10, 15, 12712, 58968, Note_off_c, 10, 15, 12712, 59328, Note_on_c, 10, 15, 12712, 59352, Note_off_c, 10, 15, 12712, 59472, Note_on_c, 10, 28, 8012, 59496, Note_off_c, 10, 28, 8012, 59568, Note_on_c, 10, 28, 8012, 59592, Note_off_c, 10, 28, 8012, 59712, Note_on_c, 10, 15, 12712, 59736, Note_off_c, 10, 15, 12712, 59808, Note_on_c, 10, 26, 8012, 59832, Note_off_c, 10, 26, 8012, 59856, Note_on_c, 10, 26, 8012, 59880, Note_off_c, 10, 26, 8012, 60096, Note_on_c, 10, 15, 12712, 60120, Note_off_c, 10, 15, 12712, 60240, Note_on_c, 10, 28, 8012, 60264, Note_off_c, 10, 28, 8012, 60480, Note_on_c, 10, 15, 12712, 60504, Note_off_c, 10, 15, 12712, 60720, Note_on_c, 10, 28, 8012, 60744, Note_off_c, 10, 28, 8012, 60864, Note_on_c, 10, 15, 12712, 60864, Note_on_c, 10, 28, 8012, 60888, Note_off_c, 10, 28, 8012, 60888, Note_off_c, 10, 15, 12712, 61104, Note_on_c, 10, 28, 8012, 61128, Note_off_c, 10, 28, 8012, 61152, Note_on_c, 10, 28, 8012, 61176, Note_off_c, 10, 28, 8012, 61248, Note_on_c, 10, 15, 12712, 61248, Note_on_c, 10, 28, 8012, 61272, Note_off_c, 10, 28, 8012, 61272, Note_off_c, 10, 15, 12712, 61296, Note_on_c, 10, 28, 8012, 61320, Note_off_c, 10, 28, 8012, 61344, Note_on_c, 10, 28, 8012, 61368, Note_off_c, 10, 28, 8012, 61392, Note_on_c, 10, 28, 8012, 61416, Note_off_c, 10, 28, 8012, 61632, Note_on_c, 10, 15, 12712, 61656, Note_off_c, 10, 15, 12712, 61776, Note_on_c, 10, 28, 8012, 61800, Note_off_c, 10, 28, 8012, 62016, Note_on_c, 10, 15, 12712, 62040, Note_off_c, 10, 15, 12712, 62400, Note_on_c, 10, 15, 12712, 62424, Note_off_c, 10, 15, 12712, 62544, Note_on_c, 10, 28, 8012, 62568, Note_off_c, 10, 28, 8012, 62640, Note_on_c, 10, 28, 8012, 62664, Note_off_c, 10, 28, 8012, 62784, Note_on_c, 10, 15, 12712, 62808, Note_off_c, 10, 15, 12712, 63168, Note_on_c, 10, 15, 12712, 63192, Note_off_c, 10, 15, 12712, 63312, Note_on_c, 10, 28, 8012, 63336, Note_off_c, 10, 28, 8012, 63552, Note_on_c, 10, 15, 12712, 63576, Note_off_c, 10, 15, 12712, 63936, Note_on_c, 10, 15, 12712, 63960, Note_off_c, 10, 15, 12712, 64080, Note_on_c, 10, 28, 8012, 64104, Note_off_c, 10, 28, 8012, 64176, Note_on_c, 10, 28, 8012, 64200, Note_off_c, 10, 28, 8012, 64320, Note_on_c, 10, 15, 12712, 64344, Note_off_c, 10, 15, 12712, 64416, Note_on_c, 10, 26, 8012, 64440, Note_off_c, 10, 26, 8012, 64464, Note_on_c, 10, 26, 8012, 64488, Note_off_c, 10, 26, 8012, 64704, Note_on_c, 10, 15, 12712, 64728, Note_off_c, 10, 15, 12712, 64848, Note_on_c, 10, 28, 8012, 64872, Note_off_c, 10, 28, 8012, 65088, Note_on_c, 10, 15, 12712, 65112, Note_off_c, 10, 15, 12712, 65472, Note_on_c, 10, 15, 12712, 65496, Note_off_c, 10, 15, 12712, 65616, Note_on_c, 10, 28, 8012, 65640, Note_off_c, 10, 28, 8012, 65712, Note_on_c, 10, 28, 8012, 65736, Note_off_c, 10, 28, 8012, 65856, Note_on_c, 10, 15, 12712, 65880, Note_off_c, 10, 15, 12712, 66240, Note_on_c, 10, 15, 12712, 66264, Note_off_c, 10, 15, 12712, 66384, Note_on_c, 10, 28, 8012, 66408, Note_off_c, 10, 28, 8012, 66624, Note_on_c, 10, 15, 12712, 66648, Note_off_c, 10, 15, 12712, 67008, Note_on_c, 10, 15, 12712, 67032, Note_off_c, 10, 15, 12712, 67248, Note_on_c, 10, 28, 8012, 67272, Note_off_c, 10, 28, 8012, 67392, Note_on_c, 10, 15, 12712, 67416, Note_off_c, 10, 15, 12712, 67440, Note_on_c, 10, 15, 12712, 67464, Note_off_c, 10, 15, 12712, 67488, Note_on_c, 10, 15, 12712, 67512, Note_off_c, 10, 15, 12712, 67536, Note_on_c, 10, 15, 12712, 67560, Note_off_c, 10, 15, 12712, 71328, Note_on_c, 10, 26, 8012, 71352, Note_off_c, 10, 26, 8012, 71376, Note_on_c, 10, 26, 8012, 71400, Note_off_c, 10, 26, 8012, 72096, Note_on_c, 10, 26, 8012, 72120, Note_off_c, 10, 26, 8012, 72864, Note_on_c, 10, 26, 8012, 72888, Note_off_c, 10, 26, 8012, 72912, Note_on_c, 10, 26, 8012, 72936, Note_off_c, 10, 26, 8012, 73632, Note_on_c, 10, 26, 8012, 73656, Note_off_c, 10, 26, 8012, 73920, Note_on_c, 10, 28, 8012, 73920, Note_on_c, 10, 15, 12712, 73944, Note_off_c, 10, 15, 12712, 73944, Note_off_c, 10, 28, 8012, 74064, Note_on_c, 10, 28, 7012, 74088, Note_off_c, 10, 28, 7012, 74304, Note_on_c, 10, 15, 12712, 74328, Note_off_c, 10, 15, 12712, 74400, Note_on_c, 10, 18, 11012, 74496, Note_off_c, 10, 18, 11012, 74688, Note_on_c, 10, 28, 8012, 74688, Note_on_c, 10, 15, 12712, 74712, Note_off_c, 10, 15, 12712, 74712, Note_off_c, 10, 28, 8012, 74832, Note_on_c, 10, 28, 7012, 74856, Note_off_c, 10, 28, 7012, 75072, Note_on_c, 10, 15, 12712, 75096, Note_off_c, 10, 15, 12712, 75168, Note_on_c, 10, 26, 8012, 75192, Note_off_c, 10, 26, 8012, 75216, Note_on_c, 10, 26, 8012, 75240, Note_off_c, 10, 26, 8012, 75456, Note_on_c, 10, 15, 12712, 75480, Note_off_c, 10, 15, 12712, 75840, Note_on_c, 10, 15, 12712, 75864, Note_off_c, 10, 15, 12712, 75936, Note_on_c, 10, 18, 11012, 76032, Note_off_c, 10, 18, 11012, 76224, Note_on_c, 10, 15, 12712, 76224, Note_on_c, 10, 28, 8012, 76248, Note_off_c, 10, 28, 8012, 76248, Note_off_c, 10, 15, 12712, 76368, Note_on_c, 10, 28, 7012, 76392, Note_off_c, 10, 28, 7012, 76464, Note_on_c, 10, 28, 8112, 76488, Note_off_c, 10, 28, 8112, 76608, Note_on_c, 10, 15, 12712, 76632, Note_off_c, 10, 15, 12712, 76704, Note_on_c, 10, 26, 8012, 76728, Note_off_c, 10, 26, 8012, 76992, Note_on_c, 10, 28, 8012, 76992, Note_on_c, 10, 15, 12712, 77016, Note_off_c, 10, 15, 12712, 77016, Note_off_c, 10, 28, 8012, 77136, Note_on_c, 10, 28, 7012, 77160, Note_off_c, 10, 28, 7012, 77376, Note_on_c, 10, 15, 12712, 77400, Note_off_c, 10, 15, 12712, 77472, Note_on_c, 10, 18, 11012, 77568, Note_off_c, 10, 18, 11012, 77760, Note_on_c, 10, 28, 8012, 77760, Note_on_c, 10, 15, 12712, 77784, Note_off_c, 10, 15, 12712, 77784, Note_off_c, 10, 28, 8012, 77904, Note_on_c, 10, 28, 7012, 77928, Note_off_c, 10, 28, 7012, 78000, Note_on_c, 10, 28, 8012, 78024, Note_off_c, 10, 28, 8012, 78144, Note_on_c, 10, 15, 12712, 78168, Note_off_c, 10, 15, 12712, 78240, Note_on_c, 10, 26, 8012, 78240, Note_on_c, 10, 18, 11012, 78264, Note_off_c, 10, 26, 8012, 78288, Note_on_c, 10, 26, 8012, 78312, Note_off_c, 10, 26, 8012, 78336, Note_off_c, 10, 18, 11012, 78528, Note_on_c, 10, 15, 12712, 78528, Note_on_c, 10, 28, 8012, 78552, Note_off_c, 10, 28, 8012, 78552, Note_off_c, 10, 15, 12712, 78672, Note_on_c, 10, 28, 7012, 78696, Note_off_c, 10, 28, 7012, 78912, Note_on_c, 10, 15, 12712, 78936, Note_off_c, 10, 15, 12712, 79008, Note_on_c, 10, 18, 11012, 79104, Note_off_c, 10, 18, 11012, 80064, Note_on_c, 10, 15, 12712, 80064, Note_on_c, 10, 28, 9012, 80088, Note_off_c, 10, 28, 9012, 80088, Note_off_c, 10, 15, 12712, 80208, Note_on_c, 10, 28, 8012, 80232, Note_off_c, 10, 28, 8012, 80448, Note_on_c, 10, 15, 12712, 80448, Note_on_c, 10, 28, 9012, 80472, Note_off_c, 10, 28, 9012, 80472, Note_off_c, 10, 15, 12712, 80832, Note_on_c, 10, 15, 12712, 80832, Note_on_c, 10, 28, 9012, 80856, Note_off_c, 10, 28, 9012, 80856, Note_off_c, 10, 15, 12712, 80976, Note_on_c, 10, 28, 8012, 81000, Note_off_c, 10, 28, 8012, 81072, Note_on_c, 10, 28, 8012, 81096, Note_off_c, 10, 28, 8012, 81216, Note_on_c, 10, 15, 12712, 81216, Note_on_c, 10, 28, 9012, 81240, Note_off_c, 10, 28, 9012, 81240, Note_off_c, 10, 15, 12712, 81312, Note_on_c, 10, 26, 8012, 81336, Note_off_c, 10, 26, 8012, 81360, Note_on_c, 10, 26, 8012, 81384, Note_off_c, 10, 26, 8012, 81600, Note_on_c, 10, 15, 12712, 81600, Note_on_c, 10, 28, 9012, 81624, Note_off_c, 10, 28, 9012, 81624, Note_off_c, 10, 15, 12712, 81744, Note_on_c, 10, 28, 8012, 81768, Note_off_c, 10, 28, 8012, 81984, Note_on_c, 10, 15, 12712, 81984, Note_on_c, 10, 28, 9012, 82008, Note_off_c, 10, 28, 9012, 82008, Note_off_c, 10, 15, 12712, 82368, Note_on_c, 10, 15, 12712, 82368, Note_on_c, 10, 28, 9012, 82392, Note_off_c, 10, 28, 9012, 82392, Note_off_c, 10, 15, 12712, 82512, Note_on_c, 10, 28, 8012, 82536, Note_off_c, 10, 28, 8012, 82608, Note_on_c, 10, 28, 8012, 82632, Note_off_c, 10, 28, 8012, 82752, Note_on_c, 10, 15, 12712, 82752, Note_on_c, 10, 28, 9012, 82776, Note_off_c, 10, 28, 9012, 82776, Note_off_c, 10, 15, 12712, 83136, Note_on_c, 10, 15, 12712, 83136, Note_on_c, 10, 28, 9012, 83160, Note_off_c, 10, 28, 9012, 83160, Note_off_c, 10, 15, 12712, 83280, Note_on_c, 10, 28, 8012, 83304, Note_off_c, 10, 28, 8012, 83520, Note_on_c, 10, 15, 12712, 83520, Note_on_c, 10, 28, 9012, 83544, Note_off_c, 10, 28, 9012, 83544, Note_off_c, 10, 15, 12712, 83904, Note_on_c, 10, 15, 12712, 83904, Note_on_c, 10, 28, 9012, 83928, Note_off_c, 10, 28, 9012, 83928, Note_off_c, 10, 15, 12712, 84048, Note_on_c, 10, 28, 8012, 84072, Note_off_c, 10, 28, 8012, 84144, Note_on_c, 10, 28, 8012, 84168, Note_off_c, 10, 28, 8012, 84288, Note_on_c, 10, 15, 12712, 84288, Note_on_c, 10, 28, 9012, 84312, Note_off_c, 10, 28, 9012, 84312, Note_off_c, 10, 15, 12712, 84384, Note_on_c, 10, 26, 8012, 84408, Note_off_c, 10, 26, 8012, 84432, Note_on_c, 10, 26, 8012, 84456, Note_off_c, 10, 26, 8012, 84672, Note_on_c, 10, 15, 12712, 84672, Note_on_c, 10, 28, 9012, 84696, Note_off_c, 10, 28, 9012, 84696, Note_off_c, 10, 15, 12712, 84816, Note_on_c, 10, 28, 8012, 84840, Note_off_c, 10, 28, 8012, 85056, Note_on_c, 10, 15, 12712, 85056, Note_on_c, 10, 28, 9012, 85080, Note_off_c, 10, 28, 9012, 85080, Note_off_c, 10, 15, 12712, 85440, Note_on_c, 10, 15, 12712, 85440, Note_on_c, 10, 28, 9012, 85464, Note_off_c, 10, 28, 9012, 85464, Note_off_c, 10, 15, 12712, 85584, Note_on_c, 10, 28, 6012, 85608, Note_off_c, 10, 28, 6012, 85632, Note_on_c, 10, 28, 8012, 85656, Note_off_c, 10, 28, 8012, 85680, Note_on_c, 10, 28, 8012, 85704, Note_off_c, 10, 28, 8012, 85728, Note_on_c, 10, 28, 8012, 85752, Note_off_c, 10, 28, 8012, 85824, Note_off_c, 10, 28, 9012, 85824, Note_on_c, 10, 15, 12712, 85824, Note_on_c, 10, 28, 9012, 85824, Note_on_c, 10, 28, 8012, 85848, Note_off_c, 10, 28, 8012, 85848, Note_off_c, 10, 15, 12712, 85872, Note_on_c, 10, 28, 8012, 85896, Note_off_c, 10, 28, 8012, 85968, Note_on_c, 10, 28, 8012, 85992, Note_off_c, 10, 28, 8012, 86208, Note_on_c, 10, 15, 12712, 86208, Note_on_c, 10, 28, 9012, 86232, Note_off_c, 10, 28, 9012, 86232, Note_off_c, 10, 15, 12712, 86352, Note_on_c, 10, 28, 8012, 86376, Note_off_c, 10, 28, 8012, 86592, Note_on_c, 10, 15, 12712, 86592, Note_on_c, 10, 28, 9012, 86616, Note_off_c, 10, 28, 9012, 86616, Note_off_c, 10, 15, 12712, 86976, Note_on_c, 10, 15, 12712, 86976, Note_on_c, 10, 28, 9012, 87000, Note_off_c, 10, 28, 9012, 87000, Note_off_c, 10, 15, 12712, 87120, Note_on_c, 10, 28, 8012, 87144, Note_off_c, 10, 28, 8012, 87216, Note_on_c, 10, 28, 8012, 87240, Note_off_c, 10, 28, 8012, 87360, Note_on_c, 10, 15, 12712, 87360, Note_on_c, 10, 28, 9012, 87384, Note_off_c, 10, 28, 9012, 87384, Note_off_c, 10, 15, 12712, 87456, Note_on_c, 10, 26, 8012, 87480, Note_off_c, 10, 26, 8012, 87504, Note_on_c, 10, 26, 8012, 87528, Note_off_c, 10, 26, 8012, 87744, Note_on_c, 10, 15, 12712, 87744, Note_on_c, 10, 28, 9012, 87768, Note_off_c, 10, 28, 9012, 87768, Note_off_c, 10, 15, 12712, 87888, Note_on_c, 10, 28, 8012, 87912, Note_off_c, 10, 28, 8012, 88128, Note_on_c, 10, 15, 12712, 88128, Note_on_c, 10, 28, 9012, 88152, Note_off_c, 10, 28, 9012, 88152, Note_off_c, 10, 15, 12712, 88512, Note_on_c, 10, 15, 12712, 88512, Note_on_c, 10, 28, 9012, 88536, Note_off_c, 10, 28, 9012, 88536, Note_off_c, 10, 15, 12712, 88656, Note_on_c, 10, 28, 8012, 88680, Note_off_c, 10, 28, 8012, 88752, Note_on_c, 10, 28, 8012, 88776, Note_off_c, 10, 28, 8012, 88896, Note_on_c, 10, 15, 12712, 88896, Note_on_c, 10, 28, 9012, 88920, Note_off_c, 10, 28, 9012, 88920, Note_off_c, 10, 15, 12712, 89280, Note_on_c, 10, 15, 12712, 89280, Note_on_c, 10, 28, 9012, 89304, Note_off_c, 10, 28, 9012, 89304, Note_off_c, 10, 15, 12712, 89424, Note_on_c, 10, 28, 8012, 89448, Note_off_c, 10, 28, 8012, 89664, Note_on_c, 10, 15, 12712, 89664, Note_on_c, 10, 28, 9012, 89688, Note_off_c, 10, 28, 9012, 89688, Note_off_c, 10, 15, 12712, 90048, Note_on_c, 10, 15, 12712, 90048, Note_on_c, 10, 28, 9012, 90072, Note_off_c, 10, 28, 9012, 90072, Note_off_c, 10, 15, 12712, 90192, Note_on_c, 10, 28, 8012, 90216, Note_off_c, 10, 28, 8012, 90288, Note_on_c, 10, 28, 8012, 90312, Note_off_c, 10, 28, 8012, 90432, Note_on_c, 10, 15, 12712, 90432, Note_on_c, 10, 28, 9012, 90456, Note_off_c, 10, 28, 9012, 90456, Note_off_c, 10, 15, 12712, 90528, Note_on_c, 10, 26, 8012, 90552, Note_off_c, 10, 26, 8012, 90576, Note_on_c, 10, 26, 8012, 90600, Note_off_c, 10, 26, 8012, 91584, Note_on_c, 10, 28, 8012, 91608, Note_off_c, 10, 28, 8012, 91632, Note_on_c, 10, 28, 8012, 91656, Note_off_c, 10, 28, 8012, 91680, Note_on_c, 10, 28, 8012, 91704, Note_off_c, 10, 28, 8012, 91776, Note_on_c, 10, 28, 8012, 91800, Note_off_c, 10, 28, 8012, 91824, Note_on_c, 10, 28, 8012, 91848, Note_off_c, 10, 28, 8012, 91920, Note_on_c, 10, 28, 8012, 91944, Note_off_c, 10, 28, 8012, 91968, Note_on_c, 10, 28, 8012, 91992, Note_off_c, 10, 28, 8012, 92064, Note_on_c, 10, 28, 8012, 92088, Note_off_c, 10, 28, 8012, 92352, Note_on_c, 10, 15, 12712, 92352, Note_on_c, 10, 28, 9012, 92376, Note_off_c, 10, 28, 9012, 92376, Note_off_c, 10, 15, 12712, 92496, Note_on_c, 10, 28, 8012, 92520, Note_off_c, 10, 28, 8012, 92736, Note_on_c, 10, 15, 12712, 92736, Note_on_c, 10, 28, 9012, 92760, Note_off_c, 10, 28, 9012, 92760, Note_off_c, 10, 15, 12712, 93120, Note_on_c, 10, 15, 12712, 93120, Note_on_c, 10, 28, 9012, 93144, Note_off_c, 10, 28, 9012, 93144, Note_off_c, 10, 15, 12712, 93264, Note_on_c, 10, 28, 8012, 93288, Note_off_c, 10, 28, 8012, 93360, Note_on_c, 10, 28, 8012, 93384, Note_off_c, 10, 28, 8012, 93504, Note_on_c, 10, 15, 12712, 93504, Note_on_c, 10, 28, 9012, 93528, Note_off_c, 10, 28, 9012, 93528, Note_off_c, 10, 15, 12712, 93600, Note_on_c, 10, 26, 8012, 93624, Note_off_c, 10, 26, 8012, 93648, Note_on_c, 10, 26, 8012, 93672, Note_off_c, 10, 26, 8012, 93888, Note_on_c, 10, 15, 12712, 93888, Note_on_c, 10, 28, 9012, 93912, Note_off_c, 10, 28, 9012, 93912, Note_off_c, 10, 15, 12712, 94032, Note_on_c, 10, 28, 8012, 94056, Note_off_c, 10, 28, 8012, 94272, Note_on_c, 10, 15, 12712, 94272, Note_on_c, 10, 28, 9012, 94296, Note_off_c, 10, 28, 9012, 94296, Note_off_c, 10, 15, 12712, 94656, Note_on_c, 10, 15, 12712, 94656, Note_on_c, 10, 28, 9012, 94680, Note_off_c, 10, 28, 9012, 94680, Note_off_c, 10, 15, 12712, 94800, Note_on_c, 10, 28, 8012, 94824, Note_off_c, 10, 28, 8012, 94896, Note_on_c, 10, 28, 8012, 94920, Note_off_c, 10, 28, 8012, 95040, Note_on_c, 10, 15, 12712, 95040, Note_on_c, 10, 28, 9012, 95064, Note_off_c, 10, 28, 9012, 95064, Note_off_c, 10, 15, 12712, 95424, Note_on_c, 10, 15, 12712, 95424, Note_on_c, 10, 28, 9012, 95448, Note_off_c, 10, 28, 9012, 95448, Note_off_c, 10, 15, 12712, 95568, Note_on_c, 10, 28, 8012, 95592, Note_off_c, 10, 28, 8012, 95808, Note_on_c, 10, 15, 12712, 95808, Note_on_c, 10, 28, 9012, 95832, Note_off_c, 10, 28, 9012, 95832, Note_off_c, 10, 15, 12712, 96192, Note_on_c, 10, 15, 12712, 96192, Note_on_c, 10, 28, 9012, 96216, Note_off_c, 10, 28, 9012, 96216, Note_off_c, 10, 15, 12712, 96336, Note_on_c, 10, 28, 8012, 96360, Note_off_c, 10, 28, 8012, 96432, Note_on_c, 10, 28, 8012, 96456, Note_off_c, 10, 28, 8012, 96576, Note_on_c, 10, 15, 12712, 96576, Note_on_c, 10, 28, 9012, 96600, Note_off_c, 10, 28, 9012, 96600, Note_off_c, 10, 15, 12712, 96672, Note_on_c, 10, 26, 8012, 96696, Note_off_c, 10, 26, 8012, 96720, Note_on_c, 10, 26, 8012, 96744, Note_off_c, 10, 26, 8012, 96960, Note_on_c, 10, 15, 12712, 96960, Note_on_c, 10, 28, 9012, 96984, Note_off_c, 10, 28, 9012, 96984, Note_off_c, 10, 15, 12712, 97104, Note_on_c, 10, 28, 8012, 97128, Note_off_c, 10, 28, 8012, 97344, Note_on_c, 10, 15, 12712, 97344, Note_on_c, 10, 28, 9012, 97368, Note_off_c, 10, 28, 9012, 97368, Note_off_c, 10, 15, 12712, 97728, Note_on_c, 10, 15, 12712, 97752, Note_off_c, 10, 15, 12712, 97920, Note_on_c, 10, 28, 8012, 97944, Note_off_c, 10, 28, 8012, 97968, Note_on_c, 10, 28, 8012, 97992, Note_off_c, 10, 28, 8012, 98016, Note_on_c, 10, 28, 9012, 98040, Note_off_c, 10, 28, 9012, 98112, Note_on_c, 10, 15, 12712, 98112, Note_on_c, 10, 28, 9012, 98136, Note_off_c, 10, 28, 9012, 98136, Note_off_c, 10, 15, 12712, 98160, Note_on_c, 10, 28, 9012, 98184, Note_off_c, 10, 28, 9012, 98256, Note_on_c, 10, 28, 9012, 98280, Note_off_c, 10, 28, 9012, 98496, Note_on_c, 10, 15, 12712, 98496, Note_on_c, 10, 28, 9012, 98520, Note_off_c, 10, 28, 9012, 98520, Note_off_c, 10, 15, 12712, 98640, Note_on_c, 10, 28, 8012, 98664, Note_off_c, 10, 28, 8012, 98880, Note_on_c, 10, 15, 12712, 98880, Note_on_c, 10, 28, 9012, 98904, Note_off_c, 10, 28, 9012, 98904, Note_off_c, 10, 15, 12712, 99264, Note_on_c, 10, 15, 12712, 99264, Note_on_c, 10, 28, 9012, 99288, Note_off_c, 10, 28, 9012, 99288, Note_off_c, 10, 15, 12712, 99408, Note_on_c, 10, 28, 8012, 99432, Note_off_c, 10, 28, 8012, 99504, Note_on_c, 10, 28, 8012, 99528, Note_off_c, 10, 28, 8012, 99648, Note_on_c, 10, 15, 12712, 99648, Note_on_c, 10, 28, 9012, 99672, Note_off_c, 10, 28, 9012, 99672, Note_off_c, 10, 15, 12712, 99744, Note_on_c, 10, 26, 8012, 99768, Note_off_c, 10, 26, 8012, 99792, Note_on_c, 10, 26, 8012, 99816, Note_off_c, 10, 26, 8012, 100032, Note_on_c, 10, 15, 12712, 100032, Note_on_c, 10, 28, 9012, 100056, Note_off_c, 10, 28, 9012, 100056, Note_off_c, 10, 15, 12712, 100176, Note_on_c, 10, 28, 8012, 100200, Note_off_c, 10, 28, 8012, 100416, Note_on_c, 10, 15, 12712, 100416, Note_on_c, 10, 28, 9012, 100440, Note_off_c, 10, 28, 9012, 100440, Note_off_c, 10, 15, 12712, 100800, Note_on_c, 10, 15, 12712, 100800, Note_on_c, 10, 28, 9012, 100824, Note_off_c, 10, 28, 9012, 100824, Note_off_c, 10, 15, 12712, 100944, Note_on_c, 10, 28, 8012, 100968, Note_off_c, 10, 28, 8012, 101040, Note_on_c, 10, 28, 8012, 101064, Note_off_c, 10, 28, 8012, 101184, Note_on_c, 10, 15, 12712, 101184, Note_on_c, 10, 28, 9012, 101208, Note_off_c, 10, 28, 9012, 101208, Note_off_c, 10, 15, 12712, 101568, Note_on_c, 10, 15, 12712, 101568, Note_on_c, 10, 28, 9012, 101592, Note_off_c, 10, 28, 9012, 101592, Note_off_c, 10, 15, 12712, 101712, Note_on_c, 10, 28, 8012, 101736, Note_off_c, 10, 28, 8012, 101952, Note_on_c, 10, 15, 12712, 101952, Note_on_c, 10, 28, 9012, 101976, Note_off_c, 10, 28, 9012, 101976, Note_off_c, 10, 15, 12712, 102336, Note_on_c, 10, 15, 12712, 102336, Note_on_c, 10, 28, 9012, 102360, Note_off_c, 10, 28, 9012, 102360, Note_off_c, 10, 15, 12712, 102480, Note_on_c, 10, 28, 8012, 102504, Note_off_c, 10, 28, 8012, 102576, Note_on_c, 10, 28, 8012, 102600, Note_off_c, 10, 28, 8012, 102720, Note_on_c, 10, 15, 12712, 102720, Note_on_c, 10, 28, 9012, 102744, Note_off_c, 10, 28, 9012, 102744, Note_off_c, 10, 15, 12712, 102816, Note_on_c, 10, 26, 8012, 102840, Note_off_c, 10, 26, 8012, 102864, Note_on_c, 10, 26, 8012, 102888, Note_off_c, 10, 26, 8012, 103104, Note_on_c, 10, 15, 12712, 103104, Note_on_c, 10, 28, 9012, 103128, Note_off_c, 10, 28, 9012, 103128, Note_off_c, 10, 15, 12712, 103248, Note_on_c, 10, 28, 8012, 103272, Note_off_c, 10, 28, 8012, 103488, Note_on_c, 10, 15, 12712, 103488, Note_on_c, 10, 28, 9012, 103512, Note_off_c, 10, 28, 9012, 103512, Note_off_c, 10, 15, 12712, 103872, Note_on_c, 10, 15, 12712, 103872, Note_on_c, 10, 28, 9012, 103896, Note_off_c, 10, 28, 9012, 103896, Note_off_c, 10, 15, 12712, 104016, Note_on_c, 10, 28, 8012, 104040, Note_off_c, 10, 28, 8012, 104112, Note_on_c, 10, 28, 8012, 104136, Note_off_c, 10, 28, 8012, 104160, Note_on_c, 10, 28, 9012, 104184, Note_off_c, 10, 28, 9012, 104256, Note_on_c, 10, 15, 12712, 104256, Note_on_c, 10, 28, 9012, 104280, Note_off_c, 10, 28, 9012, 104280, Note_off_c, 10, 15, 12712, 104304, Note_on_c, 10, 28, 9012, 104328, Note_off_c, 10, 28, 9012, 104640, Note_on_c, 10, 15, 12712, 104640, Note_on_c, 10, 28, 9012, 104664, Note_off_c, 10, 28, 9012, 104664, Note_off_c, 10, 15, 12712, 104784, Note_on_c, 10, 28, 8012, 104808, Note_off_c, 10, 28, 8012, 105024, Note_on_c, 10, 15, 12712, 105024, Note_on_c, 10, 28, 9012, 105048, Note_off_c, 10, 28, 9012, 105048, Note_off_c, 10, 15, 12712, 105408, Note_on_c, 10, 15, 12712, 105408, Note_on_c, 10, 28, 9012, 105432, Note_off_c, 10, 28, 9012, 105432, Note_off_c, 10, 15, 12712, 105552, Note_on_c, 10, 28, 8012, 105576, Note_off_c, 10, 28, 8012, 105648, Note_on_c, 10, 28, 8012, 105672, Note_off_c, 10, 28, 8012, 105792, Note_on_c, 10, 15, 12712, 105792, Note_on_c, 10, 28, 9012, 105816, Note_off_c, 10, 28, 9012, 105816, Note_off_c, 10, 15, 12712, 105888, Note_on_c, 10, 26, 8012, 105912, Note_off_c, 10, 26, 8012, 105936, Note_on_c, 10, 26, 8012, 105960, Note_off_c, 10, 26, 8012, 106176, Note_on_c, 10, 15, 12712, 106176, Note_on_c, 10, 28, 9012, 106200, Note_off_c, 10, 28, 9012, 106200, Note_off_c, 10, 15, 12712, 106320, Note_on_c, 10, 28, 8012, 106344, Note_off_c, 10, 28, 8012, 106560, Note_on_c, 10, 15, 12712, 106560, Note_on_c, 10, 28, 9012, 106584, Note_off_c, 10, 28, 9012, 106584, Note_off_c, 10, 15, 12712, 106944, Note_on_c, 10, 15, 12712, 106944, Note_on_c, 10, 28, 9012, 106968, Note_off_c, 10, 28, 9012, 106968, Note_off_c, 10, 15, 12712, 107088, Note_on_c, 10, 28, 8012, 107112, Note_off_c, 10, 28, 8012, 107184, Note_on_c, 10, 28, 8012, 107208, Note_off_c, 10, 28, 8012, 107328, Note_on_c, 10, 15, 12712, 107328, Note_on_c, 10, 28, 9012, 107352, Note_off_c, 10, 28, 9012, 107352, Note_off_c, 10, 15, 12712, 107712, Note_on_c, 10, 15, 12712, 107712, Note_on_c, 10, 28, 9012, 107736, Note_off_c, 10, 28, 9012, 107736, Note_off_c, 10, 15, 12712, 107856, Note_on_c, 10, 28, 8012, 107880, Note_off_c, 10, 28, 8012, 108096, Note_on_c, 10, 15, 12712, 108096, Note_on_c, 10, 28, 9012, 108120, Note_off_c, 10, 28, 9012, 108120, Note_off_c, 10, 15, 12712, 108480, Note_on_c, 10, 15, 12712, 108480, Note_on_c, 10, 28, 9012, 108504, Note_off_c, 10, 28, 9012, 108504, Note_off_c, 10, 15, 12712, 108624, Note_on_c, 10, 28, 8012, 108648, Note_off_c, 10, 28, 8012, 108720, Note_on_c, 10, 28, 8012, 108744, Note_off_c, 10, 28, 8012, 108864, Note_on_c, 10, 15, 12712, 108864, Note_on_c, 10, 28, 9012, 108888, Note_off_c, 10, 28, 9012, 108888, Note_off_c, 10, 15, 12712, 108960, Note_on_c, 10, 26, 8012, 108984, Note_off_c, 10, 26, 8012, 109008, Note_on_c, 10, 26, 8012, 109032, Note_off_c, 10, 26, 8012, 109248, Note_on_c, 10, 15, 12712, 109248, Note_on_c, 10, 28, 9012, 109272, Note_off_c, 10, 28, 9012, 109272, Note_off_c, 10, 15, 12712, 109392, Note_on_c, 10, 28, 8012, 109416, Note_off_c, 10, 28, 8012, 109632, Note_on_c, 10, 15, 12712, 109632, Note_on_c, 10, 28, 9012, 109656, Note_off_c, 10, 28, 9012, 109656, Note_off_c, 10, 15, 12712, 110016, Note_on_c, 10, 15, 12712, 110016, Note_on_c, 10, 28, 9012, 110040, Note_off_c, 10, 28, 9012, 110040, Note_off_c, 10, 15, 12712, 110064, Note_on_c, 10, 28, 9012, 110088, Note_off_c, 10, 28, 9012, 110112, Note_on_c, 10, 28, 9012, 110136, Note_off_c, 10, 28, 9012, 110208, Note_on_c, 10, 28, 9012, 110232, Note_off_c, 10, 28, 9012, 110256, Note_on_c, 10, 28, 9012, 110280, Note_off_c, 10, 28, 9012, 110352, Note_on_c, 10, 28, 9012, 110376, Note_off_c, 10, 28, 9012, 110400, Note_on_c, 10, 15, 12712, 110400, Note_on_c, 10, 28, 9012, 110424, Note_off_c, 10, 28, 9012, 110424, Note_off_c, 10, 15, 12712, 110496, Note_on_c, 10, 28, 9012, 110520, Note_off_c, 10, 28, 9012, 110784, Note_on_c, 10, 15, 12712, 110784, Note_on_c, 10, 28, 9012, 110808, Note_off_c, 10, 28, 9012, 110808, Note_off_c, 10, 15, 12712, 110928, Note_on_c, 10, 28, 8012, 110952, Note_off_c, 10, 28, 8012, 111168, Note_on_c, 10, 15, 12712, 111168, Note_on_c, 10, 28, 9012, 111192, Note_off_c, 10, 28, 9012, 111192, Note_off_c, 10, 15, 12712, 111552, Note_on_c, 10, 15, 12712, 111552, Note_on_c, 10, 28, 9012, 111576, Note_off_c, 10, 28, 9012, 111576, Note_off_c, 10, 15, 12712, 111696, Note_on_c, 10, 28, 8012, 111720, Note_off_c, 10, 28, 8012, 111792, Note_on_c, 10, 28, 8012, 111816, Note_off_c, 10, 28, 8012, 111936, Note_on_c, 10, 15, 12712, 111936, Note_on_c, 10, 28, 9012, 111960, Note_off_c, 10, 28, 9012, 111960, Note_off_c, 10, 15, 12712, 112032, Note_on_c, 10, 26, 8012, 112056, Note_off_c, 10, 26, 8012, 112080, Note_on_c, 10, 26, 8012, 112104, Note_off_c, 10, 26, 8012, 112320, Note_on_c, 10, 15, 12712, 112320, Note_on_c, 10, 28, 9012, 112344, Note_off_c, 10, 28, 9012, 112344, Note_off_c, 10, 15, 12712, 112464, Note_on_c, 10, 28, 8012, 112488, Note_off_c, 10, 28, 8012, 112704, Note_on_c, 10, 15, 12712, 112704, Note_on_c, 10, 28, 9012, 112728, Note_off_c, 10, 28, 9012, 112728, Note_off_c, 10, 15, 12712, 113088, Note_on_c, 10, 15, 12712, 113088, Note_on_c, 10, 28, 9012, 113112, Note_off_c, 10, 28, 9012, 113112, Note_off_c, 10, 15, 12712, 113232, Note_on_c, 10, 28, 8012, 113256, Note_off_c, 10, 28, 8012, 113328, Note_on_c, 10, 28, 8012, 113352, Note_off_c, 10, 28, 8012, 113472, Note_on_c, 10, 15, 12712, 113472, Note_on_c, 10, 28, 9012, 113496, Note_off_c, 10, 28, 9012, 113496, Note_off_c, 10, 15, 12712, 113856, Note_on_c, 10, 15, 12712, 113856, Note_on_c, 10, 28, 9012, 113880, Note_off_c, 10, 28, 9012, 113880, Note_off_c, 10, 15, 12712, 114000, Note_on_c, 10, 28, 8012, 114024, Note_off_c, 10, 28, 8012, 114240, Note_on_c, 10, 15, 12712, 114240, Note_on_c, 10, 28, 9012, 114264, Note_off_c, 10, 28, 9012, 114264, Note_off_c, 10, 15, 12712, 114624, Note_on_c, 10, 15, 12712, 114624, Note_on_c, 10, 28, 9012, 114648, Note_off_c, 10, 28, 9012, 114648, Note_off_c, 10, 15, 12712, 114768, Note_on_c, 10, 28, 8012, 114792, Note_off_c, 10, 28, 8012, 114864, Note_on_c, 10, 28, 8012, 114888, Note_off_c, 10, 28, 8012, 115008, Note_on_c, 10, 15, 12712, 115008, Note_on_c, 10, 28, 9012, 115032, Note_off_c, 10, 28, 9012, 115032, Note_off_c, 10, 15, 12712, 115104, Note_on_c, 10, 26, 8012, 115128, Note_off_c, 10, 26, 8012, 115152, Note_on_c, 10, 26, 8012, 115176, Note_off_c, 10, 26, 8012, 115392, Note_on_c, 10, 15, 12712, 115392, Note_on_c, 10, 28, 9012, 115416, Note_off_c, 10, 28, 9012, 115416, Note_off_c, 10, 15, 12712, 115536, Note_on_c, 10, 28, 8012, 115560, Note_off_c, 10, 28, 8012, 115776, Note_on_c, 10, 15, 12712, 115776, Note_on_c, 10, 28, 9012, 115800, Note_off_c, 10, 28, 9012, 115800, Note_off_c, 10, 15, 12712, 116160, Note_on_c, 10, 15, 12712, 116160, Note_on_c, 10, 28, 9012, 116184, Note_off_c, 10, 28, 9012, 116184, Note_off_c, 10, 15, 12712, 116304, Note_on_c, 10, 28, 8012, 116328, Note_off_c, 10, 28, 8012, 116400, Note_on_c, 10, 28, 8012, 116424, Note_off_c, 10, 28, 8012, 116544, Note_on_c, 10, 15, 12712, 116544, Note_on_c, 10, 28, 9012, 116568, Note_off_c, 10, 28, 9012, 116568, Note_off_c, 10, 15, 12712, 116928, Note_on_c, 10, 15, 12712, 116928, Note_on_c, 10, 28, 9012, 116952, Note_off_c, 10, 28, 9012, 116952, Note_off_c, 10, 15, 12712, 117072, Note_on_c, 10, 28, 8012, 117096, Note_off_c, 10, 28, 8012, 117312, Note_on_c, 10, 15, 12712, 117312, Note_on_c, 10, 28, 9012, 117336, Note_off_c, 10, 28, 9012, 117336, Note_off_c, 10, 15, 12712, 117696, Note_on_c, 10, 15, 12712, 117696, Note_on_c, 10, 28, 9012, 117720, Note_off_c, 10, 28, 9012, 117720, Note_off_c, 10, 15, 12712, 117840, Note_on_c, 10, 28, 8012, 117864, Note_off_c, 10, 28, 8012, 117936, Note_on_c, 10, 28, 8012, 117960, Note_off_c, 10, 28, 8012, 118080, Note_on_c, 10, 15, 12712, 118080, Note_on_c, 10, 28, 9012, 118104, Note_off_c, 10, 28, 9012, 118104, Note_off_c, 10, 15, 12712, 118176, Note_on_c, 10, 26, 8012, 118200, Note_off_c, 10, 26, 8012, 118224, Note_on_c, 10, 26, 8012, 118248, Note_off_c, 10, 26, 8012, 118464, Note_on_c, 10, 15, 12712, 118464, Note_on_c, 10, 28, 9012, 118488, Note_off_c, 10, 28, 9012, 118488, Note_off_c, 10, 15, 12712, 118608, Note_on_c, 10, 28, 8012, 118632, Note_off_c, 10, 28, 8012, 118848, Note_on_c, 10, 15, 12712, 118848, Note_on_c, 10, 28, 9012, 118872, Note_off_c, 10, 28, 9012, 118872, Note_off_c, 10, 15, 12712, 119232, Note_on_c, 10, 15, 12712, 119232, Note_on_c, 10, 28, 9012, 119256, Note_off_c, 10, 28, 9012, 119256, Note_off_c, 10, 15, 12712, 119376, Note_on_c, 10, 28, 8012, 119400, Note_off_c, 10, 28, 8012, 119472, Note_on_c, 10, 28, 8012, 119496, Note_off_c, 10, 28, 8012, 119616, Note_on_c, 10, 15, 12712, 119616, Note_on_c, 10, 28, 9012, 119640, Note_off_c, 10, 28, 9012, 119640, Note_off_c, 10, 15, 12712, 120000, Note_on_c, 10, 15, 12712, 120000, Note_on_c, 10, 28, 9012, 120024, Note_off_c, 10, 28, 9012, 120024, Note_off_c, 10, 15, 12712, 120144, Note_on_c, 10, 28, 8012, 120168, Note_off_c, 10, 28, 8012, 120384, Note_on_c, 10, 15, 12712, 120384, Note_on_c, 10, 28, 9012, 120408, Note_off_c, 10, 28, 9012, 120408, Note_off_c, 10, 15, 12712, 120768, Note_on_c, 10, 15, 12712, 120768, Note_on_c, 10, 28, 9012, 120792, Note_off_c, 10, 28, 9012, 120792, Note_off_c, 10, 15, 12712, 120912, Note_on_c, 10, 28, 8012, 120936, Note_off_c, 10, 28, 8012, 121008, Note_on_c, 10, 28, 8012, 121032, Note_off_c, 10, 28, 8012, 121152, Note_on_c, 10, 15, 12712, 121152, Note_on_c, 10, 28, 9012, 121176, Note_off_c, 10, 28, 9012, 121176, Note_off_c, 10, 15, 12712, 121248, Note_on_c, 10, 26, 8012, 121272, Note_off_c, 10, 26, 8012, 121296, Note_on_c, 10, 26, 8012, 121320, Note_off_c, 10, 26, 8012, 121536, Note_on_c, 10, 15, 12712, 121536, Note_on_c, 10, 28, 9012, 121560, Note_off_c, 10, 28, 9012, 121560, Note_off_c, 10, 15, 12712, 121680, Note_on_c, 10, 28, 8012, 121704, Note_off_c, 10, 28, 8012, 121920, Note_on_c, 10, 15, 12712, 121920, Note_on_c, 10, 28, 9012, 121944, Note_off_c, 10, 28, 9012, 121944, Note_off_c, 10, 15, 12712, 121944, End_track
13, 0, Start_track
13, 0, Text_t, "HiHats"
13, 2880, Control_c, 11, 0, 0
13, 2882, Control_c, 11, 32, 0
13, 2884, Program_c, 11, 25
13, 2886, Control_c, 11, 7, 100
13, 2888, Control_c, 11, 10, 64
13, 2890, Control_c, 11, 11, 90
13, 2892, Control_c, 11, 91, 10
13, 2894, Control_c, 11, 93, 0
13, 6144, Note_on_c, 11, 32, 11013, 6168, Note_off_c, 11, 32, 11013, 6240, Note_on_c, 11, 34, 10013, 6264, Note_off_c, 11, 34, 10013, 6288, Note_on_c, 11, 58, 10013, 6296, Note_on_c, 11, 32, 813, 6312, Note_off_c, 11, 58, 10013, 6320, Note_off_c, 11, 32, 813, 6336, Note_on_c, 11, 32, 11013, 6360, Note_off_c, 11, 32, 11013, 6432, Note_on_c, 11, 34, 10013, 6456, Note_off_c, 11, 34, 10013, 6480, Note_on_c, 11, 58, 10013, 6488, Note_on_c, 11, 32, 813, 6504, Note_off_c, 11, 58, 10013, 6512, Note_off_c, 11, 32, 813, 6528, Note_on_c, 11, 32, 11013, 6552, Note_off_c, 11, 32, 11013, 6624, Note_on_c, 11, 34, 10013, 6648, Note_off_c, 11, 34, 10013, 6672, Note_on_c, 11, 58, 10013, 6680, Note_on_c, 11, 32, 813, 6696, Note_off_c, 11, 58, 10013, 6704, Note_off_c, 11, 32, 813, 6720, Note_on_c, 11, 32, 11013, 6744, Note_off_c, 11, 32, 11013, 6816, Note_on_c, 11, 34, 10013, 6840, Note_off_c, 11, 34, 10013, 6864, Note_on_c, 11, 58, 10013, 6872, Note_on_c, 11, 32, 813, 6888, Note_off_c, 11, 58, 10013, 6896, Note_off_c, 11, 32, 813, 6912, Note_on_c, 11, 32, 11013, 6936, Note_off_c, 11, 32, 11013, 7008, Note_on_c, 11, 34, 10013, 7032, Note_off_c, 11, 34, 10013, 7056, Note_on_c, 11, 58, 10013, 7064, Note_on_c, 11, 32, 813, 7080, Note_off_c, 11, 58, 10013, 7088, Note_off_c, 11, 32, 813, 7104, Note_on_c, 11, 32, 11013, 7128, Note_off_c, 11, 32, 11013, 7200, Note_on_c, 11, 34, 10013, 7224, Note_off_c, 11, 34, 10013, 7248, Note_on_c, 11, 58, 10013, 7256, Note_on_c, 11, 32, 813, 7272, Note_off_c, 11, 58, 10013, 7280, Note_off_c, 11, 32, 813, 7296, Note_on_c, 11, 32, 11013, 7320, Note_off_c, 11, 32, 11013, 7392, Note_on_c, 11, 34, 10013, 7416, Note_off_c, 11, 34, 10013, 7440, Note_on_c, 11, 58, 10013, 7448, Note_on_c, 11, 32, 813, 7464, Note_off_c, 11, 58, 10013, 7472, Note_off_c, 11, 32, 813, 7488, Note_on_c, 11, 32, 11013, 7512, Note_off_c, 11, 32, 11013, 7584, Note_on_c, 11, 34, 10013, 7608, Note_off_c, 11, 34, 10013, 7632, Note_on_c, 11, 58, 10013, 7640, Note_on_c, 11, 32, 813, 7656, Note_off_c, 11, 58, 10013, 7664, Note_off_c, 11, 32, 813, 7680, Note_on_c, 11, 32, 11013, 7704, Note_off_c, 11, 32, 11013, 7776, Note_on_c, 11, 34, 10013, 7800, Note_off_c, 11, 34, 10013, 7824, Note_on_c, 11, 58, 10013, 7832, Note_on_c, 11, 32, 813, 7848, Note_off_c, 11, 58, 10013, 7856, Note_off_c, 11, 32, 813, 7872, Note_on_c, 11, 32, 11013, 7896, Note_off_c, 11, 32, 11013, 7968, Note_on_c, 11, 34, 10013, 7992, Note_off_c, 11, 34, 10013, 8016, Note_on_c, 11, 58, 10013, 8024, Note_on_c, 11, 32, 813, 8040, Note_off_c, 11, 58, 10013, 8048, Note_off_c, 11, 32, 813, 8064, Note_on_c, 11, 32, 11013, 8088, Note_off_c, 11, 32, 11013, 8160, Note_on_c, 11, 34, 10013, 8184, Note_off_c, 11, 34, 10013, 8208, Note_on_c, 11, 58, 10013, 8216, Note_on_c, 11, 32, 813, 8232, Note_off_c, 11, 58, 10013, 8240, Note_off_c, 11, 32, 813, 8256, Note_on_c, 11, 32, 11013, 8280, Note_off_c, 11, 32, 11013, 8352, Note_on_c, 11, 34, 10013, 8376, Note_off_c, 11, 34, 10013, 8400, Note_on_c, 11, 58, 10013, 8408, Note_on_c, 11, 32, 813, 8424, Note_off_c, 11, 58, 10013, 8432, Note_off_c, 11, 32, 813, 8448, Note_on_c, 11, 32, 11013, 8472, Note_off_c, 11, 32, 11013, 8544, Note_on_c, 11, 34, 10013, 8568, Note_off_c, 11, 34, 10013, 8592, Note_on_c, 11, 58, 10013, 8600, Note_on_c, 11, 32, 813, 8616, Note_off_c, 11, 58, 10013, 8624, Note_off_c, 11, 32, 813, 8640, Note_on_c, 11, 32, 11013, 8664, Note_off_c, 11, 32, 11013, 8736, Note_on_c, 11, 34, 10013, 8760, Note_off_c, 11, 34, 10013, 8784, Note_on_c, 11, 58, 10013, 8792, Note_on_c, 11, 32, 813, 8808, Note_off_c, 11, 58, 10013, 8816, Note_off_c, 11, 32, 813, 8832, Note_on_c, 11, 32, 11013, 8856, Note_off_c, 11, 32, 11013, 8928, Note_on_c, 11, 34, 10013, 8952, Note_off_c, 11, 34, 10013, 8976, Note_on_c, 11, 58, 10013, 8984, Note_on_c, 11, 32, 813, 9000, Note_off_c, 11, 58, 10013, 9008, Note_off_c, 11, 32, 813, 9024, Note_on_c, 11, 32, 11013, 9048, Note_off_c, 11, 32, 11013, 9120, Note_on_c, 11, 34, 10013, 9144, Note_off_c, 11, 34, 10013, 9168, Note_on_c, 11, 58, 10013, 9176, Note_on_c, 11, 32, 813, 9192, Note_off_c, 11, 58, 10013, 9200, Note_off_c, 11, 32, 813, 9216, Note_on_c, 11, 32, 11013, 9240, Note_off_c, 11, 32, 11013, 9312, Note_on_c, 11, 34, 10013, 9336, Note_off_c, 11, 34, 10013, 9360, Note_on_c, 11, 58, 10013, 9368, Note_on_c, 11, 32, 813, 9384, Note_off_c, 11, 58, 10013, 9392, Note_off_c, 11, 32, 813, 9408, Note_on_c, 11, 32, 11013, 9432, Note_off_c, 11, 32, 11013, 9504, Note_on_c, 11, 34, 10013, 9528, Note_off_c, 11, 34, 10013, 9552, Note_on_c, 11, 58, 10013, 9560, Note_on_c, 11, 32, 813, 9576, Note_off_c, 11, 58, 10013, 9584, Note_off_c, 11, 32, 813, 9600, Note_on_c, 11, 32, 11013, 9624, Note_off_c, 11, 32, 11013, 9696, Note_on_c, 11, 34, 10013, 9720, Note_off_c, 11, 34, 10013, 9744, Note_on_c, 11, 58, 10013, 9752, Note_on_c, 11, 32, 813, 9768, Note_off_c, 11, 58, 10013, 9776, Note_off_c, 11, 32, 813, 9792, Note_on_c, 11, 32, 11013, 9816, Note_off_c, 11, 32, 11013, 9888, Note_on_c, 11, 34, 10013, 9912, Note_off_c, 11, 34, 10013, 9936, Note_on_c, 11, 58, 10013, 9944, Note_on_c, 11, 32, 813, 9960, Note_off_c, 11, 58, 10013, 9968, Note_off_c, 11, 32, 813, 9984, Note_on_c, 11, 32, 11013, 10008, Note_off_c, 11, 32, 11013, 10080, Note_on_c, 11, 34, 10013, 10104, Note_off_c, 11, 34, 10013, 10128, Note_on_c, 11, 58, 10013, 10136, Note_on_c, 11, 32, 813, 10152, Note_off_c, 11, 58, 10013, 10160, Note_off_c, 11, 32, 813, 10176, Note_on_c, 11, 32, 11013, 10200, Note_off_c, 11, 32, 11013, 10272, Note_on_c, 11, 34, 10013, 10296, Note_off_c, 11, 34, 10013, 10320, Note_on_c, 11, 58, 10013, 10328, Note_on_c, 11, 32, 813, 10344, Note_off_c, 11, 58, 10013, 10352, Note_off_c, 11, 32, 813, 10368, Note_on_c, 11, 32, 11013, 10392, Note_off_c, 11, 32, 11013, 10464, Note_on_c, 11, 34, 10013, 10488, Note_off_c, 11, 34, 10013, 10512, Note_on_c, 11, 58, 10013, 10520, Note_on_c, 11, 32, 813, 10536, Note_off_c, 11, 58, 10013, 10544, Note_off_c, 11, 32, 813, 10560, Note_on_c, 11, 32, 11013, 10584, Note_off_c, 11, 32, 11013, 10656, Note_on_c, 11, 34, 10013, 10680, Note_off_c, 11, 34, 10013, 10704, Note_on_c, 11, 58, 10013, 10712, Note_on_c, 11, 32, 813, 10728, Note_off_c, 11, 58, 10013, 10736, Note_off_c, 11, 32, 813, 10752, Note_on_c, 11, 32, 11013, 10776, Note_off_c, 11, 32, 11013, 10848, Note_on_c, 11, 34, 10013, 10872, Note_off_c, 11, 34, 10013, 10896, Note_on_c, 11, 58, 10013, 10904, Note_on_c, 11, 32, 813, 10920, Note_off_c, 11, 58, 10013, 10928, Note_off_c, 11, 32, 813, 10944, Note_on_c, 11, 32, 11013, 10968, Note_off_c, 11, 32, 11013, 11040, Note_on_c, 11, 34, 10013, 11064, Note_off_c, 11, 34, 10013, 11088, Note_on_c, 11, 58, 10013, 11096, Note_on_c, 11, 32, 813, 11112, Note_off_c, 11, 58, 10013, 11120, Note_off_c, 11, 32, 813, 11136, Note_on_c, 11, 32, 11013, 11160, Note_off_c, 11, 32, 11013, 11232, Note_on_c, 11, 34, 10013, 11256, Note_off_c, 11, 34, 10013, 11280, Note_on_c, 11, 58, 10013, 11288, Note_on_c, 11, 32, 813, 11304, Note_off_c, 11, 58, 10013, 11312, Note_off_c, 11, 32, 813, 11328, Note_on_c, 11, 32, 11013, 11352, Note_off_c, 11, 32, 11013, 11424, Note_on_c, 11, 34, 10013, 11448, Note_off_c, 11, 34, 10013, 11472, Note_on_c, 11, 58, 10013, 11480, Note_on_c, 11, 32, 813, 11496, Note_off_c, 11, 58, 10013, 11504, Note_off_c, 11, 32, 813, 11520, Note_on_c, 11, 32, 11013, 11544, Note_off_c, 11, 32, 11013, 11616, Note_on_c, 11, 34, 10013, 11640, Note_off_c, 11, 34, 10013, 11664, Note_on_c, 11, 58, 10013, 11672, Note_on_c, 11, 32, 813, 11688, Note_off_c, 11, 58, 10013, 11696, Note_off_c, 11, 32, 813, 11712, Note_on_c, 11, 32, 11013, 11736, Note_off_c, 11, 32, 11013, 11808, Note_on_c, 11, 34, 10013, 11832, Note_off_c, 11, 34, 10013, 11856, Note_on_c, 11, 58, 10013, 11864, Note_on_c, 11, 32, 813, 11880, Note_off_c, 11, 58, 10013, 11888, Note_off_c, 11, 32, 813, 11904, Note_on_c, 11, 32, 11013, 11928, Note_off_c, 11, 32, 11013, 12000, Note_on_c, 11, 34, 10013, 12024, Note_off_c, 11, 34, 10013, 12048, Note_on_c, 11, 58, 10013, 12056, Note_on_c, 11, 32, 813, 12072, Note_off_c, 11, 58, 10013, 12080, Note_off_c, 11, 32, 813, 12096, Note_on_c, 11, 32, 11013, 12120, Note_off_c, 11, 32, 11013, 12192, Note_on_c, 11, 34, 10013, 12216, Note_off_c, 11, 34, 10013, 12240, Note_on_c, 11, 58, 10013, 12248, Note_on_c, 11, 32, 813, 12264, Note_off_c, 11, 58, 10013, 12272, Note_off_c, 11, 32, 813, 12288, Note_on_c, 11, 32, 11013, 12312, Note_off_c, 11, 32, 11013, 12384, Note_on_c, 11, 34, 10013, 12408, Note_off_c, 11, 34, 10013, 12432, Note_on_c, 11, 58, 10013, 12440, Note_on_c, 11, 32, 813, 12456, Note_off_c, 11, 58, 10013, 12464, Note_off_c, 11, 32, 813, 12480, Note_on_c, 11, 32, 11013, 12504, Note_off_c, 11, 32, 11013, 12576, Note_on_c, 11, 34, 10013, 12600, Note_off_c, 11, 34, 10013, 12624, Note_on_c, 11, 58, 10013, 12632, Note_on_c, 11, 32, 813, 12648, Note_off_c, 11, 58, 10013, 12656, Note_off_c, 11, 32, 813, 12672, Note_on_c, 11, 32, 11013, 12696, Note_off_c, 11, 32, 11013, 12768, Note_on_c, 11, 34, 10013, 12792, Note_off_c, 11, 34, 10013, 12816, Note_on_c, 11, 58, 10013, 12824, Note_on_c, 11, 32, 813, 12840, Note_off_c, 11, 58, 10013, 12848, Note_off_c, 11, 32, 813, 12864, Note_on_c, 11, 32, 11013, 12888, Note_off_c, 11, 32, 11013, 12960, Note_on_c, 11, 34, 10013, 12984, Note_off_c, 11, 34, 10013, 13008, Note_on_c, 11, 58, 10013, 13016, Note_on_c, 11, 32, 813, 13032, Note_off_c, 11, 58, 10013, 13040, Note_off_c, 11, 32, 813, 13056, Note_on_c, 11, 32, 11013, 13080, Note_off_c, 11, 32, 11013, 13152, Note_on_c, 11, 34, 10013, 13176, Note_off_c, 11, 34, 10013, 13200, Note_on_c, 11, 58, 10013, 13208, Note_on_c, 11, 32, 813, 13224, Note_off_c, 11, 58, 10013, 13232, Note_off_c, 11, 32, 813, 13248, Note_on_c, 11, 32, 11013, 13272, Note_off_c, 11, 32, 11013, 13344, Note_on_c, 11, 34, 10013, 13368, Note_off_c, 11, 34, 10013, 13392, Note_on_c, 11, 58, 10013, 13400, Note_on_c, 11, 32, 813, 13416, Note_off_c, 11, 58, 10013, 13424, Note_off_c, 11, 32, 813, 13440, Note_on_c, 11, 32, 11013, 13464, Note_off_c, 11, 32, 11013, 13536, Note_on_c, 11, 34, 10013, 13560, Note_off_c, 11, 34, 10013, 13584, Note_on_c, 11, 58, 10013, 13592, Note_on_c, 11, 32, 813, 13608, Note_off_c, 11, 58, 10013, 13616, Note_off_c, 11, 32, 813, 13632, Note_on_c, 11, 32, 11013, 13656, Note_off_c, 11, 32, 11013, 13728, Note_on_c, 11, 34, 10013, 13752, Note_off_c, 11, 34, 10013, 13776, Note_on_c, 11, 58, 10013, 13784, Note_on_c, 11, 32, 813, 13800, Note_off_c, 11, 58, 10013, 13808, Note_off_c, 11, 32, 813, 13824, Note_on_c, 11, 32, 11013, 13848, Note_off_c, 11, 32, 11013, 13920, Note_on_c, 11, 34, 10013, 13944, Note_off_c, 11, 34, 10013, 13968, Note_on_c, 11, 58, 10013, 13976, Note_on_c, 11, 32, 813, 13992, Note_off_c, 11, 58, 10013, 14000, Note_off_c, 11, 32, 813, 14016, Note_on_c, 11, 32, 11013, 14040, Note_off_c, 11, 32, 11013, 14112, Note_on_c, 11, 34, 10013, 14136, Note_off_c, 11, 34, 10013, 14160, Note_on_c, 11, 58, 10013, 14168, Note_on_c, 11, 32, 813, 14184, Note_off_c, 11, 58, 10013, 14192, Note_off_c, 11, 32, 813, 14208, Note_on_c, 11, 32, 11013, 14232, Note_off_c, 11, 32, 11013, 14304, Note_on_c, 11, 34, 10013, 14328, Note_off_c, 11, 34, 10013, 14352, Note_on_c, 11, 58, 10013, 14360, Note_on_c, 11, 32, 813, 14376, Note_off_c, 11, 58, 10013, 14384, Note_off_c, 11, 32, 813, 14400, Note_on_c, 11, 32, 11013, 14424, Note_off_c, 11, 32, 11013, 14496, Note_on_c, 11, 34, 10013, 14520, Note_off_c, 11, 34, 10013, 14544, Note_on_c, 11, 58, 10013, 14552, Note_on_c, 11, 32, 813, 14568, Note_off_c, 11, 58, 10013, 14576, Note_off_c, 11, 32, 813, 14592, Note_on_c, 11, 32, 11013, 14616, Note_off_c, 11, 32, 11013, 14688, Note_on_c, 11, 34, 10013, 14712, Note_off_c, 11, 34, 10013, 14736, Note_on_c, 11, 58, 10013, 14744, Note_on_c, 11, 32, 813, 14760, Note_off_c, 11, 58, 10013, 14768, Note_off_c, 11, 32, 813, 14784, Note_on_c, 11, 32, 11013, 14808, Note_off_c, 11, 32, 11013, 14880, Note_on_c, 11, 34, 10013, 14904, Note_off_c, 11, 34, 10013, 14928, Note_on_c, 11, 58, 10013, 14936, Note_on_c, 11, 32, 813, 14952, Note_off_c, 11, 58, 10013, 14960, Note_off_c, 11, 32, 813, 14976, Note_on_c, 11, 32, 11013, 15000, Note_off_c, 11, 32, 11013, 15072, Note_on_c, 11, 34, 10013, 15096, Note_off_c, 11, 34, 10013, 15120, Note_on_c, 11, 58, 10013, 15128, Note_on_c, 11, 32, 813, 15144, Note_off_c, 11, 58, 10013, 15152, Note_off_c, 11, 32, 813, 15168, Note_on_c, 11, 32, 11013, 15192, Note_off_c, 11, 32, 11013, 15264, Note_on_c, 11, 34, 10013, 15288, Note_off_c, 11, 34, 10013, 15312, Note_on_c, 11, 58, 10013, 15320, Note_on_c, 11, 32, 813, 15336, Note_off_c, 11, 58, 10013, 15344, Note_off_c, 11, 32, 813, 15360, Note_on_c, 11, 32, 11013, 15384, Note_off_c, 11, 32, 11013, 15456, Note_on_c, 11, 34, 10013, 15480, Note_off_c, 11, 34, 10013, 15504, Note_on_c, 11, 58, 10013, 15512, Note_on_c, 11, 32, 813, 15528, Note_off_c, 11, 58, 10013, 15536, Note_off_c, 11, 32, 813, 15552, Note_on_c, 11, 32, 11013, 15576, Note_off_c, 11, 32, 11013, 15648, Note_on_c, 11, 34, 10013, 15672, Note_off_c, 11, 34, 10013, 15696, Note_on_c, 11, 58, 10013, 15704, Note_on_c, 11, 32, 813, 15720, Note_off_c, 11, 58, 10013, 15728, Note_off_c, 11, 32, 813, 15744, Note_on_c, 11, 32, 11013, 15768, Note_off_c, 11, 32, 11013, 15840, Note_on_c, 11, 34, 10013, 15864, Note_off_c, 11, 34, 10013, 15888, Note_on_c, 11, 58, 10013, 15896, Note_on_c, 11, 32, 813, 15912, Note_off_c, 11, 58, 10013, 15920, Note_off_c, 11, 32, 813, 15936, Note_on_c, 11, 32, 11013, 15960, Note_off_c, 11, 32, 11013, 16032, Note_on_c, 11, 34, 10013, 16056, Note_off_c, 11, 34, 10013, 16080, Note_on_c, 11, 58, 10013, 16088, Note_on_c, 11, 32, 813, 16104, Note_off_c, 11, 58, 10013, 16112, Note_off_c, 11, 32, 813, 16128, Note_on_c, 11, 32, 11013, 16152, Note_off_c, 11, 32, 11013, 16224, Note_on_c, 11, 34, 10013, 16248, Note_off_c, 11, 34, 10013, 16272, Note_on_c, 11, 58, 10013, 16280, Note_on_c, 11, 32, 813, 16296, Note_off_c, 11, 58, 10013, 16304, Note_off_c, 11, 32, 813, 16320, Note_on_c, 11, 32, 11013, 16344, Note_off_c, 11, 32, 11013, 16416, Note_on_c, 11, 34, 10013, 16440, Note_off_c, 11, 34, 10013, 16464, Note_on_c, 11, 58, 10013, 16472, Note_on_c, 11, 32, 813, 16488, Note_off_c, 11, 58, 10013, 16496, Note_off_c, 11, 32, 813, 16512, Note_on_c, 11, 32, 11013, 16536, Note_off_c, 11, 32, 11013, 16608, Note_on_c, 11, 34, 10013, 16632, Note_off_c, 11, 34, 10013, 16656, Note_on_c, 11, 58, 10013, 16664, Note_on_c, 11, 32, 813, 16680, Note_off_c, 11, 58, 10013, 16688, Note_off_c, 11, 32, 813, 16704, Note_on_c, 11, 32, 11013, 16728, Note_off_c, 11, 32, 11013, 16800, Note_on_c, 11, 34, 10013, 16824, Note_off_c, 11, 34, 10013, 16848, Note_on_c, 11, 58, 10013, 16856, Note_on_c, 11, 32, 813, 16872, Note_off_c, 11, 58, 10013, 16880, Note_off_c, 11, 32, 813, 16896, Note_on_c, 11, 32, 11013, 16920, Note_off_c, 11, 32, 11013, 16992, Note_on_c, 11, 34, 10013, 17016, Note_off_c, 11, 34, 10013, 17040, Note_on_c, 11, 58, 10013, 17048, Note_on_c, 11, 32, 813, 17064, Note_off_c, 11, 58, 10013, 17072, Note_off_c, 11, 32, 813, 17088, Note_on_c, 11, 32, 11013, 17112, Note_off_c, 11, 32, 11013, 17184, Note_on_c, 11, 34, 10013, 17208, Note_off_c, 11, 34, 10013, 17232, Note_on_c, 11, 58, 10013, 17240, Note_on_c, 11, 32, 813, 17256, Note_off_c, 11, 58, 10013, 17264, Note_off_c, 11, 32, 813, 17280, Note_on_c, 11, 32, 11013, 17304, Note_off_c, 11, 32, 11013, 17376, Note_on_c, 11, 34, 10013, 17400, Note_off_c, 11, 34, 10013, 17424, Note_on_c, 11, 58, 10013, 17432, Note_on_c, 11, 32, 813, 17448, Note_off_c, 11, 58, 10013, 17456, Note_off_c, 11, 32, 813, 17472, Note_on_c, 11, 32, 11013, 17496, Note_off_c, 11, 32, 11013, 17568, Note_on_c, 11, 34, 10013, 17592, Note_off_c, 11, 34, 10013, 17616, Note_on_c, 11, 58, 10013, 17624, Note_on_c, 11, 32, 813, 17640, Note_off_c, 11, 58, 10013, 17648, Note_off_c, 11, 32, 813, 17664, Note_on_c, 11, 32, 11013, 17688, Note_off_c, 11, 32, 11013, 17760, Note_on_c, 11, 34, 10013, 17784, Note_off_c, 11, 34, 10013, 17808, Note_on_c, 11, 58, 10013, 17816, Note_on_c, 11, 32, 813, 17832, Note_off_c, 11, 58, 10013, 17840, Note_off_c, 11, 32, 813, 17856, Note_on_c, 11, 32, 11013, 17880, Note_off_c, 11, 32, 11013, 17952, Note_on_c, 11, 34, 10013, 17976, Note_off_c, 11, 34, 10013, 18000, Note_on_c, 11, 58, 10013, 18008, Note_on_c, 11, 32, 813, 18024, Note_off_c, 11, 58, 10013, 18032, Note_off_c, 11, 32, 813, 18048, Note_on_c, 11, 32, 11013, 18072, Note_off_c, 11, 32, 11013, 18144, Note_on_c, 11, 34, 10013, 18168, Note_off_c, 11, 34, 10013, 18192, Note_on_c, 11, 58, 10013, 18200, Note_on_c, 11, 32, 813, 18216, Note_off_c, 11, 58, 10013, 18224, Note_off_c, 11, 32, 813, 18240, Note_on_c, 11, 32, 11013, 18264, Note_off_c, 11, 32, 11013, 18336, Note_on_c, 11, 34, 10013, 18360, Note_off_c, 11, 34, 10013, 18384, Note_on_c, 11, 58, 10013, 18392, Note_on_c, 11, 32, 813, 18408, Note_off_c, 11, 58, 10013, 18416, Note_off_c, 11, 32, 813, 18432, Note_on_c, 11, 32, 11013, 18456, Note_off_c, 11, 32, 11013, 18528, Note_on_c, 11, 34, 10013, 18552, Note_off_c, 11, 34, 10013, 18576, Note_on_c, 11, 58, 10013, 18584, Note_on_c, 11, 32, 813, 18600, Note_off_c, 11, 58, 10013, 18608, Note_off_c, 11, 32, 813, 18624, Note_on_c, 11, 32, 11013, 18648, Note_off_c, 11, 32, 11013, 18720, Note_on_c, 11, 34, 10013, 18744, Note_off_c, 11, 34, 10013, 18768, Note_on_c, 11, 58, 10013, 18776, Note_on_c, 11, 32, 813, 18792, Note_off_c, 11, 58, 10013, 18800, Note_off_c, 11, 32, 813, 18816, Note_on_c, 11, 32, 11013, 18840, Note_off_c, 11, 32, 11013, 18912, Note_on_c, 11, 34, 10013, 18936, Note_off_c, 11, 34, 10013, 18960, Note_on_c, 11, 58, 10013, 18968, Note_on_c, 11, 32, 813, 18984, Note_off_c, 11, 58, 10013, 18992, Note_off_c, 11, 32, 813, 19008, Note_on_c, 11, 32, 11013, 19032, Note_off_c, 11, 32, 11013, 19104, Note_on_c, 11, 34, 10013, 19128, Note_off_c, 11, 34, 10013, 19152, Note_on_c, 11, 58, 10013, 19160, Note_on_c, 11, 32, 813, 19176, Note_off_c, 11, 58, 10013, 19184, Note_off_c, 11, 32, 813, 19200, Note_on_c, 11, 32, 11013, 19224, Note_off_c, 11, 32, 11013, 19296, Note_on_c, 11, 34, 10013, 19320, Note_off_c, 11, 34, 10013, 19344, Note_on_c, 11, 58, 10013, 19352, Note_on_c, 11, 32, 813, 19368, Note_off_c, 11, 58, 10013, 19376, Note_off_c, 11, 32, 813, 19392, Note_on_c, 11, 32, 11013, 19416, Note_off_c, 11, 32, 11013, 19488, Note_on_c, 11, 34, 10013, 19512, Note_off_c, 11, 34, 10013, 19536, Note_on_c, 11, 58, 10013, 19544, Note_on_c, 11, 32, 813, 19560, Note_off_c, 11, 58, 10013, 19568, Note_off_c, 11, 32, 813, 19584, Note_on_c, 11, 32, 11013, 19608, Note_off_c, 11, 32, 11013, 19680, Note_on_c, 11, 34, 10013, 19704, Note_off_c, 11, 34, 10013, 19728, Note_on_c, 11, 58, 10013, 19736, Note_on_c, 11, 32, 813, 19752, Note_off_c, 11, 58, 10013, 19760, Note_off_c, 11, 32, 813, 19776, Note_on_c, 11, 32, 11013, 19800, Note_off_c, 11, 32, 11013, 19872, Note_on_c, 11, 34, 10013, 19896, Note_off_c, 11, 34, 10013, 19920, Note_on_c, 11, 58, 10013, 19928, Note_on_c, 11, 32, 813, 19944, Note_off_c, 11, 58, 10013, 19952, Note_off_c, 11, 32, 813, 19968, Note_on_c, 11, 32, 11013, 19992, Note_off_c, 11, 32, 11013, 20064, Note_on_c, 11, 34, 10013, 20088, Note_off_c, 11, 34, 10013, 20112, Note_on_c, 11, 58, 10013, 20120, Note_on_c, 11, 32, 813, 20136, Note_off_c, 11, 58, 10013, 20144, Note_off_c, 11, 32, 813, 20160, Note_on_c, 11, 32, 11013, 20184, Note_off_c, 11, 32, 11013, 20256, Note_on_c, 11, 34, 10013, 20280, Note_off_c, 11, 34, 10013, 20304, Note_on_c, 11, 58, 10013, 20312, Note_on_c, 11, 32, 813, 20328, Note_off_c, 11, 58, 10013, 20336, Note_off_c, 11, 32, 813, 20352, Note_on_c, 11, 32, 11013, 20376, Note_off_c, 11, 32, 11013, 20448, Note_on_c, 11, 34, 10013, 20472, Note_off_c, 11, 34, 10013, 20496, Note_on_c, 11, 58, 10013, 20504, Note_on_c, 11, 32, 813, 20520, Note_off_c, 11, 58, 10013, 20528, Note_off_c, 11, 32, 813, 20544, Note_on_c, 11, 32, 11013, 20568, Note_off_c, 11, 32, 11013, 20640, Note_on_c, 11, 34, 10013, 20664, Note_off_c, 11, 34, 10013, 20688, Note_on_c, 11, 58, 10013, 20696, Note_on_c, 11, 32, 813, 20712, Note_off_c, 11, 58, 10013, 20720, Note_off_c, 11, 32, 813, 20736, Note_on_c, 11, 32, 11013, 20760, Note_off_c, 11, 32, 11013, 20832, Note_on_c, 11, 34, 10013, 20856, Note_off_c, 11, 34, 10013, 20880, Note_on_c, 11, 58, 10013, 20888, Note_on_c, 11, 32, 813, 20904, Note_off_c, 11, 58, 10013, 20912, Note_off_c, 11, 32, 813, 20928, Note_on_c, 11, 32, 11013, 20952, Note_off_c, 11, 32, 11013, 21024, Note_on_c, 11, 34, 10013, 21048, Note_off_c, 11, 34, 10013, 21072, Note_on_c, 11, 58, 10013, 21080, Note_on_c, 11, 32, 813, 21096, Note_off_c, 11, 58, 10013, 21104, Note_off_c, 11, 32, 813, 21120, Note_on_c, 11, 32, 11013, 21144, Note_off_c, 11, 32, 11013, 21216, Note_on_c, 11, 34, 10013, 21240, Note_off_c, 11, 34, 10013, 21264, Note_on_c, 11, 58, 10013, 21272, Note_on_c, 11, 32, 813, 21288, Note_off_c, 11, 58, 10013, 21296, Note_off_c, 11, 32, 813, 21312, Note_on_c, 11, 32, 11013, 21336, Note_off_c, 11, 32, 11013, 21408, Note_on_c, 11, 34, 10013, 21432, Note_off_c, 11, 34, 10013, 21456, Note_on_c, 11, 58, 10013, 21464, Note_on_c, 11, 32, 813, 21480, Note_off_c, 11, 58, 10013, 21488, Note_off_c, 11, 32, 813, 21504, Note_on_c, 11, 32, 11013, 21528, Note_off_c, 11, 32, 11013, 21600, Note_on_c, 11, 34, 10013, 21624, Note_off_c, 11, 34, 10013, 21648, Note_on_c, 11, 58, 10013, 21656, Note_on_c, 11, 32, 813, 21672, Note_off_c, 11, 58, 10013, 21680, Note_off_c, 11, 32, 813, 21696, Note_on_c, 11, 32, 11013, 21720, Note_off_c, 11, 32, 11013, 21792, Note_on_c, 11, 34, 10013, 21816, Note_off_c, 11, 34, 10013, 21840, Note_on_c, 11, 58, 10013, 21848, Note_on_c, 11, 32, 813, 21864, Note_off_c, 11, 58, 10013, 21872, Note_off_c, 11, 32, 813, 21888, Note_on_c, 11, 32, 11013, 21912, Note_off_c, 11, 32, 11013, 21984, Note_on_c, 11, 34, 10013, 22008, Note_off_c, 11, 34, 10013, 22032, Note_on_c, 11, 58, 10013, 22040, Note_on_c, 11, 32, 813, 22056, Note_off_c, 11, 58, 10013, 22064, Note_off_c, 11, 32, 813, 22080, Note_on_c, 11, 32, 11013, 22104, Note_off_c, 11, 32, 11013, 22176, Note_on_c, 11, 34, 10013, 22200, Note_off_c, 11, 34, 10013, 22224, Note_on_c, 11, 58, 10013, 22232, Note_on_c, 11, 32, 813, 22248, Note_off_c, 11, 58, 10013, 22256, Note_off_c, 11, 32, 813, 22272, Note_on_c, 11, 32, 11013, 22296, Note_off_c, 11, 32, 11013, 22368, Note_on_c, 11, 34, 10013, 22392, Note_off_c, 11, 34, 10013, 22416, Note_on_c, 11, 58, 10013, 22424, Note_on_c, 11, 32, 813, 22440, Note_off_c, 11, 58, 10013, 22448, Note_off_c, 11, 32, 813, 22464, Note_on_c, 11, 32, 11013, 22488, Note_off_c, 11, 32, 11013, 22560, Note_on_c, 11, 34, 10013, 22584, Note_off_c, 11, 34, 10013, 22608, Note_on_c, 11, 58, 10013, 22616, Note_on_c, 11, 32, 813, 22632, Note_off_c, 11, 58, 10013, 22640, Note_off_c, 11, 32, 813, 22656, Note_on_c, 11, 32, 11013, 22680, Note_off_c, 11, 32, 11013, 22752, Note_on_c, 11, 34, 10013, 22776, Note_off_c, 11, 34, 10013, 22800, Note_on_c, 11, 58, 10013, 22808, Note_on_c, 11, 32, 813, 22824, Note_off_c, 11, 58, 10013, 22832, Note_off_c, 11, 32, 813, 22848, Note_on_c, 11, 32, 11013, 22872, Note_off_c, 11, 32, 11013, 22944, Note_on_c, 11, 34, 10013, 22968, Note_off_c, 11, 34, 10013, 22992, Note_on_c, 11, 58, 10013, 23000, Note_on_c, 11, 32, 813, 23016, Note_off_c, 11, 58, 10013, 23024, Note_off_c, 11, 32, 813, 23040, Note_on_c, 11, 32, 11013, 23064, Note_off_c, 11, 32, 11013, 23136, Note_on_c, 11, 34, 10013, 23160, Note_off_c, 11, 34, 10013, 23184, Note_on_c, 11, 58, 10013, 23192, Note_on_c, 11, 32, 813, 23208, Note_off_c, 11, 58, 10013, 23216, Note_off_c, 11, 32, 813, 23232, Note_on_c, 11, 32, 11013, 23256, Note_off_c, 11, 32, 11013, 23328, Note_on_c, 11, 34, 10013, 23352, Note_off_c, 11, 34, 10013, 23376, Note_on_c, 11, 58, 10013, 23384, Note_on_c, 11, 32, 813, 23400, Note_off_c, 11, 58, 10013, 23408, Note_off_c, 11, 32, 813, 23424, Note_on_c, 11, 32, 11013, 23448, Note_off_c, 11, 32, 11013, 23520, Note_on_c, 11, 34, 10013, 23544, Note_off_c, 11, 34, 10013, 23568, Note_on_c, 11, 58, 10013, 23576, Note_on_c, 11, 32, 813, 23592, Note_off_c, 11, 58, 10013, 23600, Note_off_c, 11, 32, 813, 23616, Note_on_c, 11, 32, 11013, 23640, Note_off_c, 11, 32, 11013, 23712, Note_on_c, 11, 34, 10013, 23736, Note_off_c, 11, 34, 10013, 23760, Note_on_c, 11, 58, 10013, 23768, Note_on_c, 11, 32, 813, 23784, Note_off_c, 11, 58, 10013, 23792, Note_off_c, 11, 32, 813, 23808, Note_on_c, 11, 32, 11013, 23832, Note_off_c, 11, 32, 11013, 23904, Note_on_c, 11, 34, 10013, 23928, Note_off_c, 11, 34, 10013, 23952, Note_on_c, 11, 58, 10013, 23960, Note_on_c, 11, 32, 813, 23976, Note_off_c, 11, 58, 10013, 23984, Note_off_c, 11, 32, 813, 24000, Note_on_c, 11, 32, 11013, 24024, Note_off_c, 11, 32, 11013, 24096, Note_on_c, 11, 34, 10013, 24120, Note_off_c, 11, 34, 10013, 24144, Note_on_c, 11, 58, 10013, 24152, Note_on_c, 11, 32, 813, 24168, Note_off_c, 11, 58, 10013, 24176, Note_off_c, 11, 32, 813, 24192, Note_on_c, 11, 32, 11013, 24216, Note_off_c, 11, 32, 11013, 24288, Note_on_c, 11, 34, 10013, 24312, Note_off_c, 11, 34, 10013, 24336, Note_on_c, 11, 58, 10013, 24344, Note_on_c, 11, 32, 813, 24360, Note_off_c, 11, 58, 10013, 24368, Note_off_c, 11, 32, 813, 24384, Note_on_c, 11, 32, 11013, 24408, Note_off_c, 11, 32, 11013, 24480, Note_on_c, 11, 34, 10013, 24504, Note_off_c, 11, 34, 10013, 24528, Note_on_c, 11, 58, 10013, 24536, Note_on_c, 11, 32, 813, 24552, Note_off_c, 11, 58, 10013, 24560, Note_off_c, 11, 32, 813, 24576, Note_on_c, 11, 32, 11013, 24600, Note_off_c, 11, 32, 11013, 24672, Note_on_c, 11, 34, 10013, 24696, Note_off_c, 11, 34, 10013, 24720, Note_on_c, 11, 58, 10013, 24728, Note_on_c, 11, 32, 813, 24744, Note_off_c, 11, 58, 10013, 24752, Note_off_c, 11, 32, 813, 24768, Note_on_c, 11, 32, 11013, 24792, Note_off_c, 11, 32, 11013, 24864, Note_on_c, 11, 34, 10013, 24888, Note_off_c, 11, 34, 10013, 24912, Note_on_c, 11, 58, 10013, 24920, Note_on_c, 11, 32, 813, 24936, Note_off_c, 11, 58, 10013, 24944, Note_off_c, 11, 32, 813, 24960, Note_on_c, 11, 32, 11013, 24984, Note_off_c, 11, 32, 11013, 25056, Note_on_c, 11, 34, 10013, 25080, Note_off_c, 11, 34, 10013, 25104, Note_on_c, 11, 58, 10013, 25112, Note_on_c, 11, 32, 813, 25128, Note_off_c, 11, 58, 10013, 25136, Note_off_c, 11, 32, 813, 25152, Note_on_c, 11, 32, 11013, 25176, Note_off_c, 11, 32, 11013, 25248, Note_on_c, 11, 34, 10013, 25272, Note_off_c, 11, 34, 10013, 25296, Note_on_c, 11, 58, 10013, 25304, Note_on_c, 11, 32, 813, 25320, Note_off_c, 11, 58, 10013, 25328, Note_off_c, 11, 32, 813, 25344, Note_on_c, 11, 32, 11013, 25368, Note_off_c, 11, 32, 11013, 25440, Note_on_c, 11, 34, 10013, 25464, Note_off_c, 11, 34, 10013, 25488, Note_on_c, 11, 58, 10013, 25496, Note_on_c, 11, 32, 813, 25512, Note_off_c, 11, 58, 10013, 25520, Note_off_c, 11, 32, 813, 25536, Note_on_c, 11, 32, 11013, 25560, Note_off_c, 11, 32, 11013, 25632, Note_on_c, 11, 34, 10013, 25656, Note_off_c, 11, 34, 10013, 25680, Note_on_c, 11, 58, 10013, 25688, Note_on_c, 11, 32, 813, 25704, Note_off_c, 11, 58, 10013, 25712, Note_off_c, 11, 32, 813, 25728, Note_on_c, 11, 32, 11013, 25752, Note_off_c, 11, 32, 11013, 25824, Note_on_c, 11, 34, 10013, 25848, Note_off_c, 11, 34, 10013, 25872, Note_on_c, 11, 58, 10013, 25880, Note_on_c, 11, 32, 813, 25896, Note_off_c, 11, 58, 10013, 25904, Note_off_c, 11, 32, 813, 25920, Note_on_c, 11, 32, 11013, 25944, Note_off_c, 11, 32, 11013, 26016, Note_on_c, 11, 34, 10013, 26040, Note_off_c, 11, 34, 10013, 26064, Note_on_c, 11, 58, 10013, 26072, Note_on_c, 11, 32, 813, 26088, Note_off_c, 11, 58, 10013, 26096, Note_off_c, 11, 32, 813, 26112, Note_on_c, 11, 32, 11013, 26136, Note_off_c, 11, 32, 11013, 26208, Note_on_c, 11, 34, 10013, 26232, Note_off_c, 11, 34, 10013, 26256, Note_on_c, 11, 58, 10013, 26264, Note_on_c, 11, 32, 813, 26280, Note_off_c, 11, 58, 10013, 26288, Note_off_c, 11, 32, 813, 26304, Note_on_c, 11, 32, 11013, 26328, Note_off_c, 11, 32, 11013, 26400, Note_on_c, 11, 34, 10013, 26424, Note_off_c, 11, 34, 10013, 26448, Note_on_c, 11, 58, 10013, 26456, Note_on_c, 11, 32, 813, 26472, Note_off_c, 11, 58, 10013, 26480, Note_off_c, 11, 32, 813, 26496, Note_on_c, 11, 32, 11013, 26520, Note_off_c, 11, 32, 11013, 26592, Note_on_c, 11, 34, 10013, 26616, Note_off_c, 11, 34, 10013, 26640, Note_on_c, 11, 58, 10013, 26648, Note_on_c, 11, 32, 813, 26664, Note_off_c, 11, 58, 10013, 26672, Note_off_c, 11, 32, 813, 26688, Note_on_c, 11, 32, 11013, 26712, Note_off_c, 11, 32, 11013, 26784, Note_on_c, 11, 34, 10013, 26808, Note_off_c, 11, 34, 10013, 26832, Note_on_c, 11, 58, 10013, 26840, Note_on_c, 11, 32, 813, 26856, Note_off_c, 11, 58, 10013, 26864, Note_off_c, 11, 32, 813, 26880, Note_on_c, 11, 32, 11013, 26904, Note_off_c, 11, 32, 11013, 26976, Note_on_c, 11, 34, 10013, 27000, Note_off_c, 11, 34, 10013, 27024, Note_on_c, 11, 58, 10013, 27032, Note_on_c, 11, 32, 813, 27048, Note_off_c, 11, 58, 10013, 27056, Note_off_c, 11, 32, 813, 27072, Note_on_c, 11, 32, 11013, 27096, Note_off_c, 11, 32, 11013, 27168, Note_on_c, 11, 34, 10013, 27192, Note_off_c, 11, 34, 10013, 27216, Note_on_c, 11, 58, 10013, 27224, Note_on_c, 11, 32, 813, 27240, Note_off_c, 11, 58, 10013, 27248, Note_off_c, 11, 32, 813, 27264, Note_on_c, 11, 32, 11013, 27288, Note_off_c, 11, 32, 11013, 27360, Note_on_c, 11, 34, 10013, 27384, Note_off_c, 11, 34, 10013, 27408, Note_on_c, 11, 58, 10013, 27416, Note_on_c, 11, 32, 813, 27432, Note_off_c, 11, 58, 10013, 27440, Note_off_c, 11, 32, 813, 27456, Note_on_c, 11, 32, 11013, 27480, Note_off_c, 11, 32, 11013, 27552, Note_on_c, 11, 34, 10013, 27576, Note_off_c, 11, 34, 10013, 27600, Note_on_c, 11, 58, 10013, 27608, Note_on_c, 11, 32, 813, 27624, Note_off_c, 11, 58, 10013, 27632, Note_off_c, 11, 32, 813, 32256, Note_on_c, 11, 32, 11013, 32280, Note_off_c, 11, 32, 11013, 32352, Note_on_c, 11, 34, 10013, 32376, Note_off_c, 11, 34, 10013, 32400, Note_on_c, 11, 58, 10013, 32408, Note_on_c, 11, 32, 813, 32424, Note_off_c, 11, 58, 10013, 32432, Note_off_c, 11, 32, 813, 32448, Note_on_c, 11, 32, 11013, 32472, Note_off_c, 11, 32, 11013, 32544, Note_on_c, 11, 34, 10013, 32568, Note_off_c, 11, 34, 10013, 32592, Note_on_c, 11, 58, 10013, 32600, Note_on_c, 11, 32, 813, 32616, Note_off_c, 11, 58, 10013, 32624, Note_off_c, 11, 32, 813, 32640, Note_on_c, 11, 32, 11013, 32664, Note_off_c, 11, 32, 11013, 32736, Note_on_c, 11, 34, 10013, 32760, Note_off_c, 11, 34, 10013, 32784, Note_on_c, 11, 58, 10013, 32792, Note_on_c, 11, 32, 813, 32808, Note_off_c, 11, 58, 10013, 32816, Note_off_c, 11, 32, 813, 32832, Note_on_c, 11, 32, 11013, 32856, Note_off_c, 11, 32, 11013, 32928, Note_on_c, 11, 34, 10013, 32952, Note_off_c, 11, 34, 10013, 32976, Note_on_c, 11, 58, 10013, 32984, Note_on_c, 11, 32, 813, 33000, Note_off_c, 11, 58, 10013, 33008, Note_off_c, 11, 32, 813, 33024, Note_on_c, 11, 32, 11013, 33048, Note_off_c, 11, 32, 11013, 33120, Note_on_c, 11, 34, 10013, 33144, Note_off_c, 11, 34, 10013, 33168, Note_on_c, 11, 58, 10013, 33176, Note_on_c, 11, 32, 813, 33192, Note_off_c, 11, 58, 10013, 33200, Note_off_c, 11, 32, 813, 33216, Note_on_c, 11, 32, 11013, 33240, Note_off_c, 11, 32, 11013, 33312, Note_on_c, 11, 34, 10013, 33336, Note_off_c, 11, 34, 10013, 33360, Note_on_c, 11, 58, 10013, 33368, Note_on_c, 11, 32, 813, 33384, Note_off_c, 11, 58, 10013, 33392, Note_off_c, 11, 32, 813, 33408, Note_on_c, 11, 32, 11013, 33432, Note_off_c, 11, 32, 11013, 33504, Note_on_c, 11, 34, 10013, 33528, Note_off_c, 11, 34, 10013, 33552, Note_on_c, 11, 58, 10013, 33560, Note_on_c, 11, 32, 813, 33576, Note_off_c, 11, 58, 10013, 33584, Note_off_c, 11, 32, 813, 33600, Note_on_c, 11, 32, 11013, 33624, Note_off_c, 11, 32, 11013, 33696, Note_on_c, 11, 34, 10013, 33720, Note_off_c, 11, 34, 10013, 33744, Note_on_c, 11, 58, 10013, 33752, Note_on_c, 11, 32, 813, 33768, Note_off_c, 11, 58, 10013, 33776, Note_off_c, 11, 32, 813, 33792, Note_on_c, 11, 32, 11013, 33816, Note_off_c, 11, 32, 11013, 33888, Note_on_c, 11, 34, 10013, 33912, Note_off_c, 11, 34, 10013, 33936, Note_on_c, 11, 58, 10013, 33944, Note_on_c, 11, 32, 813, 33960, Note_off_c, 11, 58, 10013, 33968, Note_off_c, 11, 32, 813, 33984, Note_on_c, 11, 32, 11013, 34008, Note_off_c, 11, 32, 11013, 34080, Note_on_c, 11, 34, 10013, 34104, Note_off_c, 11, 34, 10013, 34128, Note_on_c, 11, 58, 10013, 34136, Note_on_c, 11, 32, 813, 34152, Note_off_c, 11, 58, 10013, 34160, Note_off_c, 11, 32, 813, 34176, Note_on_c, 11, 32, 11013, 34200, Note_off_c, 11, 32, 11013, 34272, Note_on_c, 11, 34, 10013, 34296, Note_off_c, 11, 34, 10013, 34320, Note_on_c, 11, 58, 10013, 34328, Note_on_c, 11, 32, 813, 34344, Note_off_c, 11, 58, 10013, 34352, Note_off_c, 11, 32, 813, 34368, Note_on_c, 11, 32, 11013, 34392, Note_off_c, 11, 32, 11013, 34464, Note_on_c, 11, 34, 10013, 34488, Note_off_c, 11, 34, 10013, 34512, Note_on_c, 11, 58, 10013, 34520, Note_on_c, 11, 32, 813, 34536, Note_off_c, 11, 58, 10013, 34544, Note_off_c, 11, 32, 813, 34560, Note_on_c, 11, 32, 11013, 34584, Note_off_c, 11, 32, 11013, 34656, Note_on_c, 11, 34, 10013, 34680, Note_off_c, 11, 34, 10013, 34704, Note_on_c, 11, 58, 10013, 34712, Note_on_c, 11, 32, 813, 34728, Note_off_c, 11, 58, 10013, 34736, Note_off_c, 11, 32, 813, 34752, Note_on_c, 11, 32, 11013, 34776, Note_off_c, 11, 32, 11013, 34848, Note_on_c, 11, 34, 10013, 34872, Note_off_c, 11, 34, 10013, 34896, Note_on_c, 11, 58, 10013, 34904, Note_on_c, 11, 32, 813, 34920, Note_off_c, 11, 58, 10013, 34928, Note_off_c, 11, 32, 813, 34944, Note_on_c, 11, 32, 11013, 34968, Note_off_c, 11, 32, 11013, 35040, Note_on_c, 11, 34, 10013, 35064, Note_off_c, 11, 34, 10013, 35088, Note_on_c, 11, 58, 10013, 35096, Note_on_c, 11, 32, 813, 35112, Note_off_c, 11, 58, 10013, 35120, Note_off_c, 11, 32, 813, 35136, Note_on_c, 11, 32, 11013, 35160, Note_off_c, 11, 32, 11013, 35232, Note_on_c, 11, 34, 10013, 35256, Note_off_c, 11, 34, 10013, 35280, Note_on_c, 11, 58, 10013, 35288, Note_on_c, 11, 32, 813, 35304, Note_off_c, 11, 58, 10013, 35312, Note_off_c, 11, 32, 813, 35328, Note_on_c, 11, 32, 11013, 35352, Note_off_c, 11, 32, 11013, 35424, Note_on_c, 11, 34, 10013, 35448, Note_off_c, 11, 34, 10013, 35472, Note_on_c, 11, 58, 10013, 35480, Note_on_c, 11, 32, 813, 35496, Note_off_c, 11, 58, 10013, 35504, Note_off_c, 11, 32, 813, 35520, Note_on_c, 11, 32, 11013, 35544, Note_off_c, 11, 32, 11013, 35616, Note_on_c, 11, 34, 10013, 35640, Note_off_c, 11, 34, 10013, 35664, Note_on_c, 11, 58, 10013, 35672, Note_on_c, 11, 32, 813, 35688, Note_off_c, 11, 58, 10013, 35696, Note_off_c, 11, 32, 813, 35712, Note_on_c, 11, 32, 11013, 35736, Note_off_c, 11, 32, 11013, 35808, Note_on_c, 11, 34, 10013, 35832, Note_off_c, 11, 34, 10013, 35856, Note_on_c, 11, 58, 10013, 35864, Note_on_c, 11, 32, 813, 35880, Note_off_c, 11, 58, 10013, 35888, Note_off_c, 11, 32, 813, 35904, Note_on_c, 11, 32, 11013, 35928, Note_off_c, 11, 32, 11013, 36000, Note_on_c, 11, 34, 10013, 36024, Note_off_c, 11, 34, 10013, 36048, Note_on_c, 11, 58, 10013, 36056, Note_on_c, 11, 32, 813, 36072, Note_off_c, 11, 58, 10013, 36080, Note_off_c, 11, 32, 813, 36096, Note_on_c, 11, 32, 11013, 36120, Note_off_c, 11, 32, 11013, 36192, Note_on_c, 11, 34, 10013, 36216, Note_off_c, 11, 34, 10013, 36240, Note_on_c, 11, 58, 10013, 36248, Note_on_c, 11, 32, 813, 36264, Note_off_c, 11, 58, 10013, 36272, Note_off_c, 11, 32, 813, 36288, Note_on_c, 11, 32, 11013, 36312, Note_off_c, 11, 32, 11013, 36384, Note_on_c, 11, 34, 10013, 36408, Note_off_c, 11, 34, 10013, 36432, Note_on_c, 11, 58, 10013, 36440, Note_on_c, 11, 32, 813, 36456, Note_off_c, 11, 58, 10013, 36464, Note_off_c, 11, 32, 813, 36480, Note_on_c, 11, 32, 11013, 36504, Note_off_c, 11, 32, 11013, 36576, Note_on_c, 11, 34, 10013, 36600, Note_off_c, 11, 34, 10013, 36624, Note_on_c, 11, 58, 10013, 36632, Note_on_c, 11, 32, 813, 36648, Note_off_c, 11, 58, 10013, 36656, Note_off_c, 11, 32, 813, 36672, Note_on_c, 11, 32, 11013, 36696, Note_off_c, 11, 32, 11013, 36768, Note_on_c, 11, 34, 10013, 36792, Note_off_c, 11, 34, 10013, 36816, Note_on_c, 11, 58, 10013, 36824, Note_on_c, 11, 32, 813, 36840, Note_off_c, 11, 58, 10013, 36848, Note_off_c, 11, 32, 813, 36864, Note_on_c, 11, 32, 11013, 36888, Note_off_c, 11, 32, 11013, 36960, Note_on_c, 11, 34, 10013, 36984, Note_off_c, 11, 34, 10013, 37008, Note_on_c, 11, 58, 10013, 37016, Note_on_c, 11, 32, 813, 37032, Note_off_c, 11, 58, 10013, 37040, Note_off_c, 11, 32, 813, 37056, Note_on_c, 11, 32, 11013, 37080, Note_off_c, 11, 32, 11013, 37152, Note_on_c, 11, 34, 10013, 37176, Note_off_c, 11, 34, 10013, 37200, Note_on_c, 11, 58, 10013, 37208, Note_on_c, 11, 32, 813, 37224, Note_off_c, 11, 58, 10013, 37232, Note_off_c, 11, 32, 813, 37248, Note_on_c, 11, 32, 11013, 37272, Note_off_c, 11, 32, 11013, 37344, Note_on_c, 11, 34, 10013, 37368, Note_off_c, 11, 34, 10013, 37392, Note_on_c, 11, 58, 10013, 37400, Note_on_c, 11, 32, 813, 37416, Note_off_c, 11, 58, 10013, 37424, Note_off_c, 11, 32, 813, 37440, Note_on_c, 11, 32, 11013, 37464, Note_off_c, 11, 32, 11013, 37536, Note_on_c, 11, 34, 10013, 37560, Note_off_c, 11, 34, 10013, 37584, Note_on_c, 11, 58, 10013, 37592, Note_on_c, 11, 32, 813, 37608, Note_off_c, 11, 58, 10013, 37616, Note_off_c, 11, 32, 813, 37632, Note_on_c, 11, 32, 11013, 37656, Note_off_c, 11, 32, 11013, 37728, Note_on_c, 11, 34, 10013, 37752, Note_off_c, 11, 34, 10013, 37776, Note_on_c, 11, 58, 10013, 37784, Note_on_c, 11, 32, 813, 37800, Note_off_c, 11, 58, 10013, 37808, Note_off_c, 11, 32, 813, 37824, Note_on_c, 11, 32, 11013, 37848, Note_off_c, 11, 32, 11013, 37920, Note_on_c, 11, 34, 10013, 37944, Note_off_c, 11, 34, 10013, 37968, Note_on_c, 11, 58, 10013, 37976, Note_on_c, 11, 32, 813, 37992, Note_off_c, 11, 58, 10013, 38000, Note_off_c, 11, 32, 813, 38016, Note_on_c, 11, 32, 11013, 38040, Note_off_c, 11, 32, 11013, 38112, Note_on_c, 11, 34, 10013, 38136, Note_off_c, 11, 34, 10013, 38160, Note_on_c, 11, 58, 10013, 38168, Note_on_c, 11, 32, 813, 38184, Note_off_c, 11, 58, 10013, 38192, Note_off_c, 11, 32, 813, 38208, Note_on_c, 11, 32, 11013, 38232, Note_off_c, 11, 32, 11013, 38304, Note_on_c, 11, 34, 10013, 38328, Note_off_c, 11, 34, 10013, 38352, Note_on_c, 11, 58, 10013, 38360, Note_on_c, 11, 32, 813, 38376, Note_off_c, 11, 58, 10013, 38384, Note_off_c, 11, 32, 813, 38400, Note_on_c, 11, 32, 11013, 38424, Note_off_c, 11, 32, 11013, 38496, Note_on_c, 11, 34, 10013, 38520, Note_off_c, 11, 34, 10013, 38544, Note_on_c, 11, 58, 10013, 38552, Note_on_c, 11, 32, 813, 38568, Note_off_c, 11, 58, 10013, 38576, Note_off_c, 11, 32, 813, 38592, Note_on_c, 11, 32, 11013, 38616, Note_off_c, 11, 32, 11013, 38688, Note_on_c, 11, 34, 10013, 38712, Note_off_c, 11, 34, 10013, 38736, Note_on_c, 11, 58, 10013, 38744, Note_on_c, 11, 32, 813, 38760, Note_off_c, 11, 58, 10013, 38768, Note_off_c, 11, 32, 813, 38784, Note_on_c, 11, 32, 11013, 38808, Note_off_c, 11, 32, 11013, 38880, Note_on_c, 11, 34, 10013, 38904, Note_off_c, 11, 34, 10013, 38928, Note_on_c, 11, 58, 10013, 38936, Note_on_c, 11, 32, 813, 38952, Note_off_c, 11, 58, 10013, 38960, Note_off_c, 11, 32, 813, 38976, Note_on_c, 11, 32, 11013, 39000, Note_off_c, 11, 32, 11013, 39072, Note_on_c, 11, 34, 10013, 39096, Note_off_c, 11, 34, 10013, 39120, Note_on_c, 11, 58, 10013, 39128, Note_on_c, 11, 32, 813, 39144, Note_off_c, 11, 58, 10013, 39152, Note_off_c, 11, 32, 813, 39168, Note_on_c, 11, 32, 11013, 39192, Note_off_c, 11, 32, 11013, 39264, Note_on_c, 11, 34, 10013, 39288, Note_off_c, 11, 34, 10013, 39312, Note_on_c, 11, 58, 10013, 39320, Note_on_c, 11, 32, 813, 39336, Note_off_c, 11, 58, 10013, 39344, Note_off_c, 11, 32, 813, 39360, Note_on_c, 11, 32, 11013, 39384, Note_off_c, 11, 32, 11013, 39456, Note_on_c, 11, 34, 10013, 39480, Note_off_c, 11, 34, 10013, 39504, Note_on_c, 11, 58, 10013, 39512, Note_on_c, 11, 32, 813, 39528, Note_off_c, 11, 58, 10013, 39536, Note_off_c, 11, 32, 813, 39552, Note_on_c, 11, 32, 11013, 39576, Note_off_c, 11, 32, 11013, 39648, Note_on_c, 11, 34, 10013, 39672, Note_off_c, 11, 34, 10013, 39696, Note_on_c, 11, 58, 10013, 39704, Note_on_c, 11, 32, 813, 39720, Note_off_c, 11, 58, 10013, 39728, Note_off_c, 11, 32, 813, 39744, Note_on_c, 11, 32, 11013, 39768, Note_off_c, 11, 32, 11013, 39840, Note_on_c, 11, 34, 10013, 39864, Note_off_c, 11, 34, 10013, 39888, Note_on_c, 11, 58, 10013, 39896, Note_on_c, 11, 32, 813, 39912, Note_off_c, 11, 58, 10013, 39920, Note_off_c, 11, 32, 813, 39936, Note_on_c, 11, 32, 11013, 39960, Note_off_c, 11, 32, 11013, 40032, Note_on_c, 11, 34, 10013, 40056, Note_off_c, 11, 34, 10013, 40080, Note_on_c, 11, 58, 10013, 40088, Note_on_c, 11, 32, 813, 40104, Note_off_c, 11, 58, 10013, 40112, Note_off_c, 11, 32, 813, 40128, Note_on_c, 11, 32, 11013, 40152, Note_off_c, 11, 32, 11013, 40224, Note_on_c, 11, 34, 10013, 40248, Note_off_c, 11, 34, 10013, 40272, Note_on_c, 11, 58, 10013, 40280, Note_on_c, 11, 32, 813, 40296, Note_off_c, 11, 58, 10013, 40304, Note_off_c, 11, 32, 813, 40320, Note_on_c, 11, 32, 11013, 40344, Note_off_c, 11, 32, 11013, 40416, Note_on_c, 11, 34, 10013, 40440, Note_off_c, 11, 34, 10013, 40464, Note_on_c, 11, 58, 10013, 40472, Note_on_c, 11, 32, 813, 40488, Note_off_c, 11, 58, 10013, 40496, Note_off_c, 11, 32, 813, 40512, Note_on_c, 11, 32, 11013, 40536, Note_off_c, 11, 32, 11013, 40608, Note_on_c, 11, 34, 10013, 40632, Note_off_c, 11, 34, 10013, 40656, Note_on_c, 11, 58, 10013, 40664, Note_on_c, 11, 32, 813, 40680, Note_off_c, 11, 58, 10013, 40688, Note_off_c, 11, 32, 813, 40704, Note_on_c, 11, 32, 11013, 40728, Note_off_c, 11, 32, 11013, 40800, Note_on_c, 11, 34, 10013, 40824, Note_off_c, 11, 34, 10013, 40848, Note_on_c, 11, 58, 10013, 40856, Note_on_c, 11, 32, 813, 40872, Note_off_c, 11, 58, 10013, 40880, Note_off_c, 11, 32, 813, 40896, Note_on_c, 11, 32, 11013, 40920, Note_off_c, 11, 32, 11013, 40992, Note_on_c, 11, 34, 10013, 41016, Note_off_c, 11, 34, 10013, 41040, Note_on_c, 11, 58, 10013, 41048, Note_on_c, 11, 32, 813, 41064, Note_off_c, 11, 58, 10013, 41072, Note_off_c, 11, 32, 813, 41088, Note_on_c, 11, 32, 11013, 41112, Note_off_c, 11, 32, 11013, 41184, Note_on_c, 11, 34, 10013, 41208, Note_off_c, 11, 34, 10013, 41232, Note_on_c, 11, 58, 10013, 41240, Note_on_c, 11, 32, 813, 41256, Note_off_c, 11, 58, 10013, 41264, Note_off_c, 11, 32, 813, 41280, Note_on_c, 11, 32, 11013, 41304, Note_off_c, 11, 32, 11013, 41376, Note_on_c, 11, 34, 10013, 41400, Note_off_c, 11, 34, 10013, 41424, Note_on_c, 11, 58, 10013, 41432, Note_on_c, 11, 32, 813, 41448, Note_off_c, 11, 58, 10013, 41456, Note_off_c, 11, 32, 813, 41472, Note_on_c, 11, 32, 11013, 41496, Note_off_c, 11, 32, 11013, 41568, Note_on_c, 11, 34, 10013, 41592, Note_off_c, 11, 34, 10013, 41616, Note_on_c, 11, 58, 10013, 41624, Note_on_c, 11, 32, 813, 41640, Note_off_c, 11, 58, 10013, 41648, Note_off_c, 11, 32, 813, 41664, Note_on_c, 11, 32, 11013, 41688, Note_off_c, 11, 32, 11013, 41760, Note_on_c, 11, 34, 10013, 41784, Note_off_c, 11, 34, 10013, 41808, Note_on_c, 11, 58, 10013, 41816, Note_on_c, 11, 32, 813, 41832, Note_off_c, 11, 58, 10013, 41840, Note_off_c, 11, 32, 813, 41856, Note_on_c, 11, 32, 11013, 41880, Note_off_c, 11, 32, 11013, 41952, Note_on_c, 11, 34, 10013, 41976, Note_off_c, 11, 34, 10013, 42000, Note_on_c, 11, 58, 10013, 42008, Note_on_c, 11, 32, 813, 42024, Note_off_c, 11, 58, 10013, 42032, Note_off_c, 11, 32, 813, 42048, Note_on_c, 11, 32, 11013, 42072, Note_off_c, 11, 32, 11013, 42144, Note_on_c, 11, 34, 10013, 42168, Note_off_c, 11, 34, 10013, 42192, Note_on_c, 11, 58, 10013, 42200, Note_on_c, 11, 32, 813, 42216, Note_off_c, 11, 58, 10013, 42224, Note_off_c, 11, 32, 813, 42240, Note_on_c, 11, 32, 11013, 42264, Note_off_c, 11, 32, 11013, 42336, Note_on_c, 11, 34, 10013, 42360, Note_off_c, 11, 34, 10013, 42384, Note_on_c, 11, 58, 10013, 42392, Note_on_c, 11, 32, 813, 42408, Note_off_c, 11, 58, 10013, 42416, Note_off_c, 11, 32, 813, 42432, Note_on_c, 11, 32, 11013, 42456, Note_off_c, 11, 32, 11013, 42528, Note_on_c, 11, 34, 10013, 42552, Note_off_c, 11, 34, 10013, 42576, Note_on_c, 11, 58, 10013, 42584, Note_on_c, 11, 32, 813, 42600, Note_off_c, 11, 58, 10013, 42608, Note_off_c, 11, 32, 813, 42624, Note_on_c, 11, 32, 11013, 42648, Note_off_c, 11, 32, 11013, 42720, Note_on_c, 11, 34, 10013, 42744, Note_off_c, 11, 34, 10013, 42768, Note_on_c, 11, 58, 10013, 42776, Note_on_c, 11, 32, 813, 42792, Note_off_c, 11, 58, 10013, 42800, Note_off_c, 11, 32, 813, 42816, Note_on_c, 11, 32, 11013, 42840, Note_off_c, 11, 32, 11013, 42912, Note_on_c, 11, 34, 10013, 42936, Note_off_c, 11, 34, 10013, 42960, Note_on_c, 11, 58, 10013, 42968, Note_on_c, 11, 32, 813, 42984, Note_off_c, 11, 58, 10013, 42992, Note_off_c, 11, 32, 813, 43008, Note_on_c, 11, 32, 11013, 43032, Note_off_c, 11, 32, 11013, 43104, Note_on_c, 11, 34, 10013, 43128, Note_off_c, 11, 34, 10013, 43152, Note_on_c, 11, 58, 10013, 43160, Note_on_c, 11, 32, 813, 43176, Note_off_c, 11, 58, 10013, 43184, Note_off_c, 11, 32, 813, 43200, Note_on_c, 11, 32, 11013, 43224, Note_off_c, 11, 32, 11013, 43296, Note_on_c, 11, 34, 10013, 43320, Note_off_c, 11, 34, 10013, 43344, Note_on_c, 11, 58, 10013, 43352, Note_on_c, 11, 32, 813, 43368, Note_off_c, 11, 58, 10013, 43376, Note_off_c, 11, 32, 813, 43392, Note_on_c, 11, 32, 11013, 43416, Note_off_c, 11, 32, 11013, 43488, Note_on_c, 11, 34, 10013, 43512, Note_off_c, 11, 34, 10013, 43536, Note_on_c, 11, 58, 10013, 43544, Note_on_c, 11, 32, 813, 43560, Note_off_c, 11, 58, 10013, 43568, Note_off_c, 11, 32, 813, 43584, Note_on_c, 11, 32, 11013, 43608, Note_off_c, 11, 32, 11013, 43680, Note_on_c, 11, 34, 10013, 43704, Note_off_c, 11, 34, 10013, 43728, Note_on_c, 11, 58, 10013, 43736, Note_on_c, 11, 32, 813, 43752, Note_off_c, 11, 58, 10013, 43760, Note_off_c, 11, 32, 813, 43776, Note_on_c, 11, 32, 11013, 43800, Note_off_c, 11, 32, 11013, 43872, Note_on_c, 11, 34, 10013, 43896, Note_off_c, 11, 34, 10013, 43920, Note_on_c, 11, 58, 10013, 43928, Note_on_c, 11, 32, 813, 43944, Note_off_c, 11, 58, 10013, 43952, Note_off_c, 11, 32, 813, 43968, Note_on_c, 11, 32, 11013, 43992, Note_off_c, 11, 32, 11013, 44064, Note_on_c, 11, 34, 10013, 44088, Note_off_c, 11, 34, 10013, 44112, Note_on_c, 11, 58, 10013, 44120, Note_on_c, 11, 32, 813, 44136, Note_off_c, 11, 58, 10013, 44144, Note_off_c, 11, 32, 813, 44160, Note_on_c, 11, 32, 11013, 44184, Note_off_c, 11, 32, 11013, 44256, Note_on_c, 11, 34, 10013, 44280, Note_off_c, 11, 34, 10013, 44304, Note_on_c, 11, 58, 10013, 44312, Note_on_c, 11, 32, 813, 44328, Note_off_c, 11, 58, 10013, 44336, Note_off_c, 11, 32, 813, 44352, Note_on_c, 11, 32, 11013, 44376, Note_off_c, 11, 32, 11013, 44448, Note_on_c, 11, 34, 10013, 44472, Note_off_c, 11, 34, 10013, 44496, Note_on_c, 11, 58, 10013, 44504, Note_on_c, 11, 32, 813, 44520, Note_off_c, 11, 58, 10013, 44528, Note_off_c, 11, 32, 813, 44544, Note_on_c, 11, 32, 11013, 44568, Note_off_c, 11, 32, 11013, 44640, Note_on_c, 11, 34, 10013, 44664, Note_off_c, 11, 34, 10013, 44688, Note_on_c, 11, 58, 10013, 44696, Note_on_c, 11, 32, 813, 44712, Note_off_c, 11, 58, 10013, 44720, Note_off_c, 11, 32, 813, 44736, Note_on_c, 11, 32, 11013, 44760, Note_off_c, 11, 32, 11013, 44832, Note_on_c, 11, 34, 10013, 44856, Note_off_c, 11, 34, 10013, 44880, Note_on_c, 11, 58, 10013, 44888, Note_on_c, 11, 32, 813, 44904, Note_off_c, 11, 58, 10013, 44912, Note_off_c, 11, 32, 813, 44928, Note_on_c, 11, 32, 11013, 44952, Note_off_c, 11, 32, 11013, 45024, Note_on_c, 11, 34, 10013, 45048, Note_off_c, 11, 34, 10013, 45072, Note_on_c, 11, 58, 10013, 45080, Note_on_c, 11, 32, 813, 45096, Note_off_c, 11, 58, 10013, 45104, Note_off_c, 11, 32, 813, 45120, Note_on_c, 11, 32, 11013, 45144, Note_off_c, 11, 32, 11013, 45216, Note_on_c, 11, 34, 10013, 45240, Note_off_c, 11, 34, 10013, 45264, Note_on_c, 11, 58, 10013, 45272, Note_on_c, 11, 32, 813, 45288, Note_off_c, 11, 58, 10013, 45296, Note_off_c, 11, 32, 813, 45312, Note_on_c, 11, 32, 11013, 45336, Note_off_c, 11, 32, 11013, 45408, Note_on_c, 11, 34, 10013, 45432, Note_off_c, 11, 34, 10013, 45456, Note_on_c, 11, 58, 10013, 45464, Note_on_c, 11, 32, 813, 45480, Note_off_c, 11, 58, 10013, 45488, Note_off_c, 11, 32, 813, 45504, Note_on_c, 11, 32, 11013, 45528, Note_off_c, 11, 32, 11013, 45600, Note_on_c, 11, 34, 10013, 45624, Note_off_c, 11, 34, 10013, 45648, Note_on_c, 11, 58, 10013, 45656, Note_on_c, 11, 32, 813, 45672, Note_off_c, 11, 58, 10013, 45680, Note_off_c, 11, 32, 813, 45696, Note_on_c, 11, 32, 11013, 45720, Note_off_c, 11, 32, 11013, 45792, Note_on_c, 11, 34, 10013, 45816, Note_off_c, 11, 34, 10013, 45840, Note_on_c, 11, 58, 10013, 45848, Note_on_c, 11, 32, 813, 45864, Note_off_c, 11, 58, 10013, 45872, Note_off_c, 11, 32, 813, 45888, Note_on_c, 11, 32, 11013, 45912, Note_off_c, 11, 32, 11013, 45984, Note_on_c, 11, 34, 10013, 46008, Note_off_c, 11, 34, 10013, 46032, Note_on_c, 11, 58, 10013, 46040, Note_on_c, 11, 32, 813, 46056, Note_off_c, 11, 58, 10013, 46064, Note_off_c, 11, 32, 813, 46080, Note_on_c, 11, 32, 11013, 46104, Note_off_c, 11, 32, 11013, 46176, Note_on_c, 11, 34, 10013, 46200, Note_off_c, 11, 34, 10013, 46224, Note_on_c, 11, 58, 10013, 46232, Note_on_c, 11, 32, 813, 46248, Note_off_c, 11, 58, 10013, 46256, Note_off_c, 11, 32, 813, 46272, Note_on_c, 11, 32, 11013, 46296, Note_off_c, 11, 32, 11013, 46368, Note_on_c, 11, 34, 10013, 46392, Note_off_c, 11, 34, 10013, 46416, Note_on_c, 11, 58, 10013, 46424, Note_on_c, 11, 32, 813, 46440, Note_off_c, 11, 58, 10013, 46448, Note_off_c, 11, 32, 813, 46464, Note_on_c, 11, 32, 11013, 46488, Note_off_c, 11, 32, 11013, 46560, Note_on_c, 11, 34, 10013, 46584, Note_off_c, 11, 34, 10013, 46608, Note_on_c, 11, 58, 10013, 46616, Note_on_c, 11, 32, 813, 46632, Note_off_c, 11, 58, 10013, 46640, Note_off_c, 11, 32, 813, 46656, Note_on_c, 11, 32, 11013, 46680, Note_off_c, 11, 32, 11013, 46752, Note_on_c, 11, 34, 10013, 46776, Note_off_c, 11, 34, 10013, 46800, Note_on_c, 11, 58, 10013, 46808, Note_on_c, 11, 32, 813, 46824, Note_off_c, 11, 58, 10013, 46832, Note_off_c, 11, 32, 813, 46848, Note_on_c, 11, 32, 11013, 46872, Note_off_c, 11, 32, 11013, 46944, Note_on_c, 11, 34, 10013, 46968, Note_off_c, 11, 34, 10013, 46992, Note_on_c, 11, 58, 10013, 47000, Note_on_c, 11, 32, 813, 47016, Note_off_c, 11, 58, 10013, 47024, Note_off_c, 11, 32, 813, 47040, Note_on_c, 11, 32, 11013, 47064, Note_off_c, 11, 32, 11013, 47136, Note_on_c, 11, 34, 10013, 47160, Note_off_c, 11, 34, 10013, 47184, Note_on_c, 11, 58, 10013, 47192, Note_on_c, 11, 32, 813, 47208, Note_off_c, 11, 58, 10013, 47216, Note_off_c, 11, 32, 813, 47232, Note_on_c, 11, 32, 11013, 47256, Note_off_c, 11, 32, 11013, 47328, Note_on_c, 11, 34, 10013, 47352, Note_off_c, 11, 34, 10013, 47376, Note_on_c, 11, 58, 10013, 47384, Note_on_c, 11, 32, 813, 47400, Note_off_c, 11, 58, 10013, 47408, Note_off_c, 11, 32, 813, 47424, Note_on_c, 11, 32, 11013, 47448, Note_off_c, 11, 32, 11013, 47520, Note_on_c, 11, 34, 10013, 47544, Note_off_c, 11, 34, 10013, 47568, Note_on_c, 11, 58, 10013, 47576, Note_on_c, 11, 32, 813, 47592, Note_off_c, 11, 58, 10013, 47600, Note_off_c, 11, 32, 813, 47616, Note_on_c, 11, 32, 11013, 47640, Note_off_c, 11, 32, 11013, 47712, Note_on_c, 11, 34, 10013, 47736, Note_off_c, 11, 34, 10013, 47760, Note_on_c, 11, 58, 10013, 47768, Note_on_c, 11, 32, 813, 47784, Note_off_c, 11, 58, 10013, 47792, Note_off_c, 11, 32, 813, 47808, Note_on_c, 11, 32, 11013, 47832, Note_off_c, 11, 32, 11013, 47904, Note_on_c, 11, 34, 10013, 47928, Note_off_c, 11, 34, 10013, 47952, Note_on_c, 11, 58, 10013, 47960, Note_on_c, 11, 32, 813, 47976, Note_off_c, 11, 58, 10013, 47984, Note_off_c, 11, 32, 813, 48000, Note_on_c, 11, 32, 11013, 48024, Note_off_c, 11, 32, 11013, 48096, Note_on_c, 11, 34, 10013, 48120, Note_off_c, 11, 34, 10013, 48144, Note_on_c, 11, 58, 10013, 48152, Note_on_c, 11, 32, 813, 48168, Note_off_c, 11, 58, 10013, 48176, Note_off_c, 11, 32, 813, 48192, Note_on_c, 11, 32, 11013, 48216, Note_off_c, 11, 32, 11013, 48288, Note_on_c, 11, 34, 10013, 48312, Note_off_c, 11, 34, 10013, 48336, Note_on_c, 11, 58, 10013, 48344, Note_on_c, 11, 32, 813, 48360, Note_off_c, 11, 58, 10013, 48368, Note_off_c, 11, 32, 813, 48384, Note_on_c, 11, 32, 11013, 48408, Note_off_c, 11, 32, 11013, 48480, Note_on_c, 11, 34, 10013, 48504, Note_off_c, 11, 34, 10013, 48528, Note_on_c, 11, 58, 10013, 48536, Note_on_c, 11, 32, 813, 48552, Note_off_c, 11, 58, 10013, 48560, Note_off_c, 11, 32, 813, 48576, Note_on_c, 11, 32, 11013, 48600, Note_off_c, 11, 32, 11013, 48672, Note_on_c, 11, 34, 10013, 48696, Note_off_c, 11, 34, 10013, 48720, Note_on_c, 11, 58, 10013, 48728, Note_on_c, 11, 32, 813, 48744, Note_off_c, 11, 58, 10013, 48752, Note_off_c, 11, 32, 813, 48768, Note_on_c, 11, 32, 11013, 48792, Note_off_c, 11, 32, 11013, 48864, Note_on_c, 11, 34, 10013, 48888, Note_off_c, 11, 34, 10013, 48912, Note_on_c, 11, 58, 10013, 48920, Note_on_c, 11, 32, 813, 48936, Note_off_c, 11, 58, 10013, 48944, Note_off_c, 11, 32, 813, 48960, Note_on_c, 11, 32, 11013, 48984, Note_off_c, 11, 32, 11013, 49056, Note_on_c, 11, 34, 10013, 49080, Note_off_c, 11, 34, 10013, 49104, Note_on_c, 11, 58, 10013, 49112, Note_on_c, 11, 32, 813, 49128, Note_off_c, 11, 58, 10013, 49136, Note_off_c, 11, 32, 813, 49152, Note_on_c, 11, 32, 11013, 49176, Note_off_c, 11, 32, 11013, 49248, Note_on_c, 11, 34, 10013, 49272, Note_off_c, 11, 34, 10013, 49296, Note_on_c, 11, 58, 10013, 49304, Note_on_c, 11, 32, 813, 49320, Note_off_c, 11, 58, 10013, 49328, Note_off_c, 11, 32, 813, 49344, Note_on_c, 11, 32, 11013, 49368, Note_off_c, 11, 32, 11013, 49440, Note_on_c, 11, 34, 10013, 49464, Note_off_c, 11, 34, 10013, 49488, Note_on_c, 11, 58, 10013, 49496, Note_on_c, 11, 32, 813, 49512, Note_off_c, 11, 58, 10013, 49520, Note_off_c, 11, 32, 813, 49536, Note_on_c, 11, 32, 11013, 49560, Note_off_c, 11, 32, 11013, 49632, Note_on_c, 11, 34, 10013, 49656, Note_off_c, 11, 34, 10013, 49680, Note_on_c, 11, 58, 10013, 49688, Note_on_c, 11, 32, 813, 49704, Note_off_c, 11, 58, 10013, 49712, Note_off_c, 11, 32, 813, 49728, Note_on_c, 11, 32, 11013, 49752, Note_off_c, 11, 32, 11013, 49824, Note_on_c, 11, 34, 10013, 49848, Note_off_c, 11, 34, 10013, 49872, Note_on_c, 11, 58, 10013, 49880, Note_on_c, 11, 32, 813, 49896, Note_off_c, 11, 58, 10013, 49904, Note_off_c, 11, 32, 813, 49920, Note_on_c, 11, 32, 11013, 49944, Note_off_c, 11, 32, 11013, 50016, Note_on_c, 11, 34, 10013, 50040, Note_off_c, 11, 34, 10013, 50064, Note_on_c, 11, 58, 10013, 50072, Note_on_c, 11, 32, 813, 50088, Note_off_c, 11, 58, 10013, 50096, Note_off_c, 11, 32, 813, 50112, Note_on_c, 11, 32, 11013, 50136, Note_off_c, 11, 32, 11013, 50208, Note_on_c, 11, 34, 10013, 50232, Note_off_c, 11, 34, 10013, 50256, Note_on_c, 11, 58, 10013, 50264, Note_on_c, 11, 32, 813, 50280, Note_off_c, 11, 58, 10013, 50288, Note_off_c, 11, 32, 813, 50304, Note_on_c, 11, 32, 11013, 50328, Note_off_c, 11, 32, 11013, 50400, Note_on_c, 11, 34, 10013, 50424, Note_off_c, 11, 34, 10013, 50448, Note_on_c, 11, 58, 10013, 50456, Note_on_c, 11, 32, 813, 50472, Note_off_c, 11, 58, 10013, 50480, Note_off_c, 11, 32, 813, 50496, Note_on_c, 11, 32, 11013, 50520, Note_off_c, 11, 32, 11013, 50592, Note_on_c, 11, 34, 10013, 50616, Note_off_c, 11, 34, 10013, 50640, Note_on_c, 11, 58, 10013, 50648, Note_on_c, 11, 32, 813, 50664, Note_off_c, 11, 58, 10013, 50672, Note_off_c, 11, 32, 813, 50688, Note_on_c, 11, 32, 11013, 50712, Note_off_c, 11, 32, 11013, 50784, Note_on_c, 11, 34, 10013, 50808, Note_off_c, 11, 34, 10013, 50832, Note_on_c, 11, 58, 10013, 50840, Note_on_c, 11, 32, 813, 50856, Note_off_c, 11, 58, 10013, 50864, Note_off_c, 11, 32, 813, 50880, Note_on_c, 11, 32, 11013, 50904, Note_off_c, 11, 32, 11013, 50976, Note_on_c, 11, 34, 10013, 51000, Note_off_c, 11, 34, 10013, 51024, Note_on_c, 11, 58, 10013, 51032, Note_on_c, 11, 32, 813, 51048, Note_off_c, 11, 58, 10013, 51056, Note_off_c, 11, 32, 813, 51072, Note_on_c, 11, 32, 11013, 51096, Note_off_c, 11, 32, 11013, 51168, Note_on_c, 11, 34, 10013, 51192, Note_off_c, 11, 34, 10013, 51216, Note_on_c, 11, 58, 10013, 51224, Note_on_c, 11, 32, 813, 51240, Note_off_c, 11, 58, 10013, 51248, Note_off_c, 11, 32, 813, 51264, Note_on_c, 11, 32, 11013, 51288, Note_off_c, 11, 32, 11013, 51360, Note_on_c, 11, 34, 10013, 51384, Note_off_c, 11, 34, 10013, 51408, Note_on_c, 11, 58, 10013, 51416, Note_on_c, 11, 32, 813, 51432, Note_off_c, 11, 58, 10013, 51440, Note_off_c, 11, 32, 813, 51456, Note_on_c, 11, 32, 11013, 51480, Note_off_c, 11, 32, 11013, 51552, Note_on_c, 11, 34, 10013, 51576, Note_off_c, 11, 34, 10013, 51600, Note_on_c, 11, 58, 10013, 51608, Note_on_c, 11, 32, 813, 51624, Note_off_c, 11, 58, 10013, 51632, Note_off_c, 11, 32, 813, 51648, Note_on_c, 11, 32, 11013, 51672, Note_off_c, 11, 32, 11013, 51744, Note_on_c, 11, 34, 10013, 51768, Note_off_c, 11, 34, 10013, 51792, Note_on_c, 11, 58, 10013, 51800, Note_on_c, 11, 32, 813, 51816, Note_off_c, 11, 58, 10013, 51824, Note_off_c, 11, 32, 813, 51840, Note_on_c, 11, 32, 11013, 51864, Note_off_c, 11, 32, 11013, 51936, Note_on_c, 11, 34, 10013, 51960, Note_off_c, 11, 34, 10013, 51984, Note_on_c, 11, 58, 10013, 51992, Note_on_c, 11, 32, 813, 52008, Note_off_c, 11, 58, 10013, 52016, Note_off_c, 11, 32, 813, 52032, Note_on_c, 11, 32, 11013, 52056, Note_off_c, 11, 32, 11013, 52128, Note_on_c, 11, 34, 10013, 52152, Note_off_c, 11, 34, 10013, 52176, Note_on_c, 11, 58, 10013, 52184, Note_on_c, 11, 32, 813, 52200, Note_off_c, 11, 58, 10013, 52208, Note_off_c, 11, 32, 813, 52224, Note_on_c, 11, 32, 11013, 52248, Note_off_c, 11, 32, 11013, 52320, Note_on_c, 11, 34, 10013, 52344, Note_off_c, 11, 34, 10013, 52368, Note_on_c, 11, 58, 10013, 52376, Note_on_c, 11, 32, 813, 52392, Note_off_c, 11, 58, 10013, 52400, Note_off_c, 11, 32, 813, 52416, Note_on_c, 11, 32, 11013, 52440, Note_off_c, 11, 32, 11013, 52512, Note_on_c, 11, 34, 10013, 52536, Note_off_c, 11, 34, 10013, 52560, Note_on_c, 11, 58, 10013, 52568, Note_on_c, 11, 32, 813, 52584, Note_off_c, 11, 58, 10013, 52592, Note_off_c, 11, 32, 813, 52608, Note_on_c, 11, 32, 11013, 52632, Note_off_c, 11, 32, 11013, 52704, Note_on_c, 11, 34, 10013, 52728, Note_off_c, 11, 34, 10013, 52752, Note_on_c, 11, 58, 10013, 52760, Note_on_c, 11, 32, 813, 52776, Note_off_c, 11, 58, 10013, 52784, Note_off_c, 11, 32, 813, 52800, Note_on_c, 11, 32, 11013, 52824, Note_off_c, 11, 32, 11013, 52896, Note_on_c, 11, 34, 10013, 52920, Note_off_c, 11, 34, 10013, 52944, Note_on_c, 11, 58, 10013, 52952, Note_on_c, 11, 32, 813, 52968, Note_off_c, 11, 58, 10013, 52976, Note_off_c, 11, 32, 813, 52992, Note_on_c, 11, 32, 11013, 53016, Note_off_c, 11, 32, 11013, 53088, Note_on_c, 11, 34, 10013, 53112, Note_off_c, 11, 34, 10013, 53136, Note_on_c, 11, 58, 10013, 53144, Note_on_c, 11, 32, 813, 53160, Note_off_c, 11, 58, 10013, 53168, Note_off_c, 11, 32, 813, 53184, Note_on_c, 11, 32, 11013, 53208, Note_off_c, 11, 32, 11013, 53280, Note_on_c, 11, 34, 10013, 53304, Note_off_c, 11, 34, 10013, 53328, Note_on_c, 11, 58, 10013, 53336, Note_on_c, 11, 32, 813, 53352, Note_off_c, 11, 58, 10013, 53360, Note_off_c, 11, 32, 813, 53376, Note_on_c, 11, 32, 11013, 53400, Note_off_c, 11, 32, 11013, 53472, Note_on_c, 11, 34, 10013, 53496, Note_off_c, 11, 34, 10013, 53520, Note_on_c, 11, 58, 10013, 53528, Note_on_c, 11, 32, 813, 53544, Note_off_c, 11, 58, 10013, 53552, Note_off_c, 11, 32, 813, 53568, Note_on_c, 11, 32, 11013, 53592, Note_off_c, 11, 32, 11013, 53664, Note_on_c, 11, 34, 10013, 53688, Note_off_c, 11, 34, 10013, 53712, Note_on_c, 11, 58, 10013, 53720, Note_on_c, 11, 32, 813, 53736, Note_off_c, 11, 58, 10013, 53744, Note_off_c, 11, 32, 813, 53760, Note_on_c, 11, 32, 11013, 53784, Note_off_c, 11, 32, 11013, 53856, Note_on_c, 11, 34, 10013, 53880, Note_off_c, 11, 34, 10013, 53904, Note_on_c, 11, 58, 10013, 53912, Note_on_c, 11, 32, 813, 53928, Note_off_c, 11, 58, 10013, 53936, Note_off_c, 11, 32, 813, 53952, Note_on_c, 11, 32, 11013, 53976, Note_off_c, 11, 32, 11013, 54048, Note_on_c, 11, 34, 10013, 54072, Note_off_c, 11, 34, 10013, 54096, Note_on_c, 11, 58, 10013, 54104, Note_on_c, 11, 32, 813, 54120, Note_off_c, 11, 58, 10013, 54128, Note_off_c, 11, 32, 813, 54144, Note_on_c, 11, 32, 11013, 54168, Note_off_c, 11, 32, 11013, 54240, Note_on_c, 11, 34, 10013, 54264, Note_off_c, 11, 34, 10013, 54288, Note_on_c, 11, 58, 10013, 54296, Note_on_c, 11, 32, 813, 54312, Note_off_c, 11, 58, 10013, 54320, Note_off_c, 11, 32, 813, 54336, Note_on_c, 11, 32, 11013, 54360, Note_off_c, 11, 32, 11013, 54432, Note_on_c, 11, 34, 10013, 54456, Note_off_c, 11, 34, 10013, 54480, Note_on_c, 11, 58, 10013, 54488, Note_on_c, 11, 32, 813, 54504, Note_off_c, 11, 58, 10013, 54512, Note_off_c, 11, 32, 813, 54528, Note_on_c, 11, 32, 11013, 54552, Note_off_c, 11, 32, 11013, 54624, Note_on_c, 11, 34, 10013, 54648, Note_off_c, 11, 34, 10013, 54672, Note_on_c, 11, 58, 10013, 54680, Note_on_c, 11, 32, 813, 54696, Note_off_c, 11, 58, 10013, 54704, Note_off_c, 11, 32, 813, 54720, Note_on_c, 11, 32, 11013, 54744, Note_off_c, 11, 32, 11013, 54816, Note_on_c, 11, 34, 10013, 54840, Note_off_c, 11, 34, 10013, 54864, Note_on_c, 11, 58, 10013, 54872, Note_on_c, 11, 32, 813, 54888, Note_off_c, 11, 58, 10013, 54896, Note_off_c, 11, 32, 813, 54912, Note_on_c, 11, 32, 11013, 54936, Note_off_c, 11, 32, 11013, 55008, Note_on_c, 11, 34, 10013, 55032, Note_off_c, 11, 34, 10013, 55056, Note_on_c, 11, 58, 10013, 55064, Note_on_c, 11, 32, 813, 55080, Note_off_c, 11, 58, 10013, 55088, Note_off_c, 11, 32, 813, 55104, Note_on_c, 11, 32, 11013, 55128, Note_off_c, 11, 32, 11013, 55200, Note_on_c, 11, 34, 10013, 55224, Note_off_c, 11, 34, 10013, 55248, Note_on_c, 11, 58, 10013, 55256, Note_on_c, 11, 32, 813, 55272, Note_off_c, 11, 58, 10013, 55280, Note_off_c, 11, 32, 813, 55296, Note_on_c, 11, 32, 11013, 55320, Note_off_c, 11, 32, 11013, 55392, Note_on_c, 11, 34, 10013, 55416, Note_off_c, 11, 34, 10013, 55440, Note_on_c, 11, 58, 10013, 55448, Note_on_c, 11, 32, 813, 55464, Note_off_c, 11, 58, 10013, 55472, Note_off_c, 11, 32, 813, 55488, Note_on_c, 11, 32, 11013, 55512, Note_off_c, 11, 32, 11013, 55584, Note_on_c, 11, 34, 10013, 55608, Note_off_c, 11, 34, 10013, 55632, Note_on_c, 11, 58, 10013, 55640, Note_on_c, 11, 32, 813, 55656, Note_off_c, 11, 58, 10013, 55664, Note_off_c, 11, 32, 813, 55680, Note_on_c, 11, 32, 11013, 55704, Note_off_c, 11, 32, 11013, 55776, Note_on_c, 11, 34, 10013, 55800, Note_off_c, 11, 34, 10013, 55824, Note_on_c, 11, 58, 10013, 55832, Note_on_c, 11, 32, 813, 55848, Note_off_c, 11, 58, 10013, 55856, Note_off_c, 11, 32, 813, 55872, Note_on_c, 11, 32, 11013, 55896, Note_off_c, 11, 32, 11013, 55968, Note_on_c, 11, 34, 10013, 55992, Note_off_c, 11, 34, 10013, 56016, Note_on_c, 11, 58, 10013, 56024, Note_on_c, 11, 32, 813, 56040, Note_off_c, 11, 58, 10013, 56048, Note_off_c, 11, 32, 813, 56064, Note_on_c, 11, 32, 11013, 56088, Note_off_c, 11, 32, 11013, 56160, Note_on_c, 11, 34, 10013, 56184, Note_off_c, 11, 34, 10013, 56208, Note_on_c, 11, 58, 10013, 56216, Note_on_c, 11, 32, 813, 56232, Note_off_c, 11, 58, 10013, 56240, Note_off_c, 11, 32, 813, 56256, Note_on_c, 11, 32, 11013, 56280, Note_off_c, 11, 32, 11013, 56352, Note_on_c, 11, 34, 10013, 56376, Note_off_c, 11, 34, 10013, 56400, Note_on_c, 11, 58, 10013, 56408, Note_on_c, 11, 32, 813, 56424, Note_off_c, 11, 58, 10013, 56432, Note_off_c, 11, 32, 813, 56448, Note_on_c, 11, 32, 11013, 56472, Note_off_c, 11, 32, 11013, 56544, Note_on_c, 11, 34, 10013, 56568, Note_off_c, 11, 34, 10013, 56592, Note_on_c, 11, 58, 10013, 56600, Note_on_c, 11, 32, 813, 56616, Note_off_c, 11, 58, 10013, 56624, Note_off_c, 11, 32, 813, 56640, Note_on_c, 11, 32, 11013, 56664, Note_off_c, 11, 32, 11013, 56736, Note_on_c, 11, 34, 10013, 56760, Note_off_c, 11, 34, 10013, 56784, Note_on_c, 11, 58, 10013, 56792, Note_on_c, 11, 32, 813, 56808, Note_off_c, 11, 58, 10013, 56816, Note_off_c, 11, 32, 813, 56832, Note_on_c, 11, 32, 11013, 56856, Note_off_c, 11, 32, 11013, 56928, Note_on_c, 11, 34, 10013, 56952, Note_off_c, 11, 34, 10013, 56976, Note_on_c, 11, 58, 10013, 56984, Note_on_c, 11, 32, 813, 57000, Note_off_c, 11, 58, 10013, 57008, Note_off_c, 11, 32, 813, 57024, Note_on_c, 11, 32, 11013, 57048, Note_off_c, 11, 32, 11013, 57120, Note_on_c, 11, 34, 10013, 57144, Note_off_c, 11, 34, 10013, 57168, Note_on_c, 11, 58, 10013, 57176, Note_on_c, 11, 32, 813, 57192, Note_off_c, 11, 58, 10013, 57200, Note_off_c, 11, 32, 813, 57216, Note_on_c, 11, 32, 11013, 57240, Note_off_c, 11, 32, 11013, 57312, Note_on_c, 11, 34, 10013, 57336, Note_off_c, 11, 34, 10013, 57360, Note_on_c, 11, 58, 10013, 57368, Note_on_c, 11, 32, 813, 57384, Note_off_c, 11, 58, 10013, 57392, Note_off_c, 11, 32, 813, 57408, Note_on_c, 11, 32, 11013, 57432, Note_off_c, 11, 32, 11013, 57504, Note_on_c, 11, 34, 10013, 57528, Note_off_c, 11, 34, 10013, 57552, Note_on_c, 11, 58, 10013, 57560, Note_on_c, 11, 32, 813, 57576, Note_off_c, 11, 58, 10013, 57584, Note_off_c, 11, 32, 813, 57600, Note_on_c, 11, 32, 11013, 57624, Note_off_c, 11, 32, 11013, 57696, Note_on_c, 11, 34, 10013, 57720, Note_off_c, 11, 34, 10013, 57744, Note_on_c, 11, 58, 10013, 57752, Note_on_c, 11, 32, 813, 57768, Note_off_c, 11, 58, 10013, 57776, Note_off_c, 11, 32, 813, 57792, Note_on_c, 11, 32, 11013, 57816, Note_off_c, 11, 32, 11013, 57888, Note_on_c, 11, 34, 10013, 57912, Note_off_c, 11, 34, 10013, 57936, Note_on_c, 11, 58, 10013, 57944, Note_on_c, 11, 32, 813, 57960, Note_off_c, 11, 58, 10013, 57968, Note_off_c, 11, 32, 813, 57984, Note_on_c, 11, 32, 11013, 58008, Note_off_c, 11, 32, 11013, 58080, Note_on_c, 11, 34, 10013, 58104, Note_off_c, 11, 34, 10013, 58128, Note_on_c, 11, 58, 10013, 58136, Note_on_c, 11, 32, 813, 58152, Note_off_c, 11, 58, 10013, 58160, Note_off_c, 11, 32, 813, 58176, Note_on_c, 11, 32, 11013, 58200, Note_off_c, 11, 32, 11013, 58272, Note_on_c, 11, 34, 10013, 58296, Note_off_c, 11, 34, 10013, 58320, Note_on_c, 11, 58, 10013, 58328, Note_on_c, 11, 32, 813, 58344, Note_off_c, 11, 58, 10013, 58352, Note_off_c, 11, 32, 813, 58368, Note_on_c, 11, 32, 11013, 58392, Note_off_c, 11, 32, 11013, 58464, Note_on_c, 11, 34, 10013, 58488, Note_off_c, 11, 34, 10013, 58512, Note_on_c, 11, 58, 10013, 58520, Note_on_c, 11, 32, 813, 58536, Note_off_c, 11, 58, 10013, 58544, Note_off_c, 11, 32, 813, 58560, Note_on_c, 11, 32, 11013, 58584, Note_off_c, 11, 32, 11013, 58656, Note_on_c, 11, 34, 10013, 58680, Note_off_c, 11, 34, 10013, 58704, Note_on_c, 11, 58, 10013, 58712, Note_on_c, 11, 32, 813, 58728, Note_off_c, 11, 58, 10013, 58736, Note_off_c, 11, 32, 813, 58752, Note_on_c, 11, 32, 11013, 58776, Note_off_c, 11, 32, 11013, 58848, Note_on_c, 11, 34, 10013, 58872, Note_off_c, 11, 34, 10013, 58896, Note_on_c, 11, 58, 10013, 58904, Note_on_c, 11, 32, 813, 58920, Note_off_c, 11, 58, 10013, 58928, Note_off_c, 11, 32, 813, 58944, Note_on_c, 11, 32, 11013, 58968, Note_off_c, 11, 32, 11013, 59040, Note_on_c, 11, 34, 10013, 59064, Note_off_c, 11, 34, 10013, 59088, Note_on_c, 11, 58, 10013, 59096, Note_on_c, 11, 32, 813, 59112, Note_off_c, 11, 58, 10013, 59120, Note_off_c, 11, 32, 813, 59136, Note_on_c, 11, 32, 11013, 59160, Note_off_c, 11, 32, 11013, 59232, Note_on_c, 11, 34, 10013, 59256, Note_off_c, 11, 34, 10013, 59280, Note_on_c, 11, 58, 10013, 59288, Note_on_c, 11, 32, 813, 59304, Note_off_c, 11, 58, 10013, 59312, Note_off_c, 11, 32, 813, 59328, Note_on_c, 11, 32, 11013, 59352, Note_off_c, 11, 32, 11013, 59424, Note_on_c, 11, 34, 10013, 59448, Note_off_c, 11, 34, 10013, 59472, Note_on_c, 11, 58, 10013, 59480, Note_on_c, 11, 32, 813, 59496, Note_off_c, 11, 58, 10013, 59504, Note_off_c, 11, 32, 813, 59520, Note_on_c, 11, 32, 11013, 59544, Note_off_c, 11, 32, 11013, 59616, Note_on_c, 11, 34, 10013, 59640, Note_off_c, 11, 34, 10013, 59664, Note_on_c, 11, 58, 10013, 59672, Note_on_c, 11, 32, 813, 59688, Note_off_c, 11, 58, 10013, 59696, Note_off_c, 11, 32, 813, 59712, Note_on_c, 11, 32, 11013, 59736, Note_off_c, 11, 32, 11013, 59808, Note_on_c, 11, 34, 10013, 59832, Note_off_c, 11, 34, 10013, 59856, Note_on_c, 11, 58, 10013, 59864, Note_on_c, 11, 32, 813, 59880, Note_off_c, 11, 58, 10013, 59888, Note_off_c, 11, 32, 813, 59904, Note_on_c, 11, 32, 11013, 59928, Note_off_c, 11, 32, 11013, 60000, Note_on_c, 11, 34, 10013, 60024, Note_off_c, 11, 34, 10013, 60048, Note_on_c, 11, 58, 10013, 60056, Note_on_c, 11, 32, 813, 60072, Note_off_c, 11, 58, 10013, 60080, Note_off_c, 11, 32, 813, 60096, Note_on_c, 11, 32, 11013, 60120, Note_off_c, 11, 32, 11013, 60192, Note_on_c, 11, 34, 10013, 60216, Note_off_c, 11, 34, 10013, 60240, Note_on_c, 11, 58, 10013, 60248, Note_on_c, 11, 32, 813, 60264, Note_off_c, 11, 58, 10013, 60272, Note_off_c, 11, 32, 813, 60288, Note_on_c, 11, 32, 11013, 60312, Note_off_c, 11, 32, 11013, 60384, Note_on_c, 11, 34, 10013, 60408, Note_off_c, 11, 34, 10013, 60432, Note_on_c, 11, 58, 10013, 60440, Note_on_c, 11, 32, 813, 60456, Note_off_c, 11, 58, 10013, 60464, Note_off_c, 11, 32, 813, 60480, Note_on_c, 11, 32, 11013, 60504, Note_off_c, 11, 32, 11013, 60576, Note_on_c, 11, 34, 10013, 60600, Note_off_c, 11, 34, 10013, 60624, Note_on_c, 11, 58, 10013, 60632, Note_on_c, 11, 32, 813, 60648, Note_off_c, 11, 58, 10013, 60656, Note_off_c, 11, 32, 813, 60672, Note_on_c, 11, 32, 11013, 60696, Note_off_c, 11, 32, 11013, 60768, Note_on_c, 11, 34, 10013, 60792, Note_off_c, 11, 34, 10013, 60816, Note_on_c, 11, 58, 10013, 60824, Note_on_c, 11, 32, 813, 60840, Note_off_c, 11, 58, 10013, 60848, Note_off_c, 11, 32, 813, 60864, Note_on_c, 11, 32, 11013, 60888, Note_off_c, 11, 32, 11013, 60960, Note_on_c, 11, 34, 10013, 60984, Note_off_c, 11, 34, 10013, 61008, Note_on_c, 11, 58, 10013, 61016, Note_on_c, 11, 32, 813, 61032, Note_off_c, 11, 58, 10013, 61040, Note_off_c, 11, 32, 813, 61056, Note_on_c, 11, 32, 11013, 61080, Note_off_c, 11, 32, 11013, 61152, Note_on_c, 11, 34, 10013, 61176, Note_off_c, 11, 34, 10013, 61200, Note_on_c, 11, 58, 10013, 61208, Note_on_c, 11, 32, 813, 61224, Note_off_c, 11, 58, 10013, 61232, Note_off_c, 11, 32, 813, 61248, Note_on_c, 11, 32, 11013, 61272, Note_off_c, 11, 32, 11013, 61344, Note_on_c, 11, 34, 10013, 61368, Note_off_c, 11, 34, 10013, 61392, Note_on_c, 11, 58, 10013, 61400, Note_on_c, 11, 32, 813, 61416, Note_off_c, 11, 58, 10013, 61424, Note_off_c, 11, 32, 813, 61440, Note_on_c, 11, 32, 11013, 61464, Note_off_c, 11, 32, 11013, 61536, Note_on_c, 11, 34, 10013, 61560, Note_off_c, 11, 34, 10013, 61584, Note_on_c, 11, 58, 10013, 61592, Note_on_c, 11, 32, 813, 61608, Note_off_c, 11, 58, 10013, 61616, Note_off_c, 11, 32, 813, 61632, Note_on_c, 11, 32, 11013, 61656, Note_off_c, 11, 32, 11013, 61728, Note_on_c, 11, 34, 10013, 61752, Note_off_c, 11, 34, 10013, 61776, Note_on_c, 11, 58, 10013, 61784, Note_on_c, 11, 32, 813, 61800, Note_off_c, 11, 58, 10013, 61808, Note_off_c, 11, 32, 813, 61824, Note_on_c, 11, 32, 11013, 61848, Note_off_c, 11, 32, 11013, 61920, Note_on_c, 11, 34, 10013, 61944, Note_off_c, 11, 34, 10013, 61968, Note_on_c, 11, 58, 10013, 61976, Note_on_c, 11, 32, 813, 61992, Note_off_c, 11, 58, 10013, 62000, Note_off_c, 11, 32, 813, 62016, Note_on_c, 11, 32, 11013, 62040, Note_off_c, 11, 32, 11013, 62112, Note_on_c, 11, 34, 10013, 62136, Note_off_c, 11, 34, 10013, 62160, Note_on_c, 11, 58, 10013, 62168, Note_on_c, 11, 32, 813, 62184, Note_off_c, 11, 58, 10013, 62192, Note_off_c, 11, 32, 813, 62208, Note_on_c, 11, 32, 11013, 62232, Note_off_c, 11, 32, 11013, 62304, Note_on_c, 11, 34, 10013, 62328, Note_off_c, 11, 34, 10013, 62352, Note_on_c, 11, 58, 10013, 62360, Note_on_c, 11, 32, 813, 62376, Note_off_c, 11, 58, 10013, 62384, Note_off_c, 11, 32, 813, 62400, Note_on_c, 11, 32, 11013, 62424, Note_off_c, 11, 32, 11013, 62496, Note_on_c, 11, 34, 10013, 62520, Note_off_c, 11, 34, 10013, 62544, Note_on_c, 11, 58, 10013, 62552, Note_on_c, 11, 32, 813, 62568, Note_off_c, 11, 58, 10013, 62576, Note_off_c, 11, 32, 813, 62592, Note_on_c, 11, 32, 11013, 62616, Note_off_c, 11, 32, 11013, 62688, Note_on_c, 11, 34, 10013, 62712, Note_off_c, 11, 34, 10013, 62736, Note_on_c, 11, 58, 10013, 62744, Note_on_c, 11, 32, 813, 62760, Note_off_c, 11, 58, 10013, 62768, Note_off_c, 11, 32, 813, 62784, Note_on_c, 11, 32, 11013, 62808, Note_off_c, 11, 32, 11013, 62880, Note_on_c, 11, 34, 10013, 62904, Note_off_c, 11, 34, 10013, 62928, Note_on_c, 11, 58, 10013, 62936, Note_on_c, 11, 32, 813, 62952, Note_off_c, 11, 58, 10013, 62960, Note_off_c, 11, 32, 813, 62976, Note_on_c, 11, 32, 11013, 63000, Note_off_c, 11, 32, 11013, 63072, Note_on_c, 11, 34, 10013, 63096, Note_off_c, 11, 34, 10013, 63120, Note_on_c, 11, 58, 10013, 63128, Note_on_c, 11, 32, 813, 63144, Note_off_c, 11, 58, 10013, 63152, Note_off_c, 11, 32, 813, 63168, Note_on_c, 11, 32, 11013, 63192, Note_off_c, 11, 32, 11013, 63264, Note_on_c, 11, 34, 10013, 63288, Note_off_c, 11, 34, 10013, 63312, Note_on_c, 11, 58, 10013, 63320, Note_on_c, 11, 32, 813, 63336, Note_off_c, 11, 58, 10013, 63344, Note_off_c, 11, 32, 813, 63360, Note_on_c, 11, 32, 11013, 63384, Note_off_c, 11, 32, 11013, 63456, Note_on_c, 11, 34, 10013, 63480, Note_off_c, 11, 34, 10013, 63504, Note_on_c, 11, 58, 10013, 63512, Note_on_c, 11, 32, 813, 63528, Note_off_c, 11, 58, 10013, 63536, Note_off_c, 11, 32, 813, 63552, Note_on_c, 11, 32, 11013, 63576, Note_off_c, 11, 32, 11013, 63648, Note_on_c, 11, 34, 10013, 63672, Note_off_c, 11, 34, 10013, 63696, Note_on_c, 11, 58, 10013, 63704, Note_on_c, 11, 32, 813, 63720, Note_off_c, 11, 58, 10013, 63728, Note_off_c, 11, 32, 813, 63744, Note_on_c, 11, 32, 11013, 63768, Note_off_c, 11, 32, 11013, 63840, Note_on_c, 11, 34, 10013, 63864, Note_off_c, 11, 34, 10013, 63888, Note_on_c, 11, 58, 10013, 63896, Note_on_c, 11, 32, 813, 63912, Note_off_c, 11, 58, 10013, 63920, Note_off_c, 11, 32, 813, 63936, Note_on_c, 11, 32, 11013, 63960, Note_off_c, 11, 32, 11013, 64032, Note_on_c, 11, 34, 10013, 64056, Note_off_c, 11, 34, 10013, 64080, Note_on_c, 11, 58, 10013, 64088, Note_on_c, 11, 32, 813, 64104, Note_off_c, 11, 58, 10013, 64112, Note_off_c, 11, 32, 813, 64128, Note_on_c, 11, 32, 11013, 64152, Note_off_c, 11, 32, 11013, 64224, Note_on_c, 11, 34, 10013, 64248, Note_off_c, 11, 34, 10013, 64272, Note_on_c, 11, 58, 10013, 64280, Note_on_c, 11, 32, 813, 64296, Note_off_c, 11, 58, 10013, 64304, Note_off_c, 11, 32, 813, 64320, Note_on_c, 11, 32, 11013, 64344, Note_off_c, 11, 32, 11013, 64416, Note_on_c, 11, 34, 10013, 64440, Note_off_c, 11, 34, 10013, 64464, Note_on_c, 11, 58, 10013, 64472, Note_on_c, 11, 32, 813, 64488, Note_off_c, 11, 58, 10013, 64496, Note_off_c, 11, 32, 813, 64512, Note_on_c, 11, 32, 11013, 64536, Note_off_c, 11, 32, 11013, 64608, Note_on_c, 11, 34, 10013, 64632, Note_off_c, 11, 34, 10013, 64656, Note_on_c, 11, 58, 10013, 64664, Note_on_c, 11, 32, 813, 64680, Note_off_c, 11, 58, 10013, 64688, Note_off_c, 11, 32, 813, 64704, Note_on_c, 11, 32, 11013, 64728, Note_off_c, 11, 32, 11013, 64800, Note_on_c, 11, 34, 10013, 64824, Note_off_c, 11, 34, 10013, 64848, Note_on_c, 11, 58, 10013, 64856, Note_on_c, 11, 32, 813, 64872, Note_off_c, 11, 58, 10013, 64880, Note_off_c, 11, 32, 813, 64896, Note_on_c, 11, 32, 11013, 64920, Note_off_c, 11, 32, 11013, 64992, Note_on_c, 11, 34, 10013, 65016, Note_off_c, 11, 34, 10013, 65040, Note_on_c, 11, 58, 10013, 65048, Note_on_c, 11, 32, 813, 65064, Note_off_c, 11, 58, 10013, 65072, Note_off_c, 11, 32, 813, 65088, Note_on_c, 11, 32, 11013, 65112, Note_off_c, 11, 32, 11013, 65184, Note_on_c, 11, 34, 10013, 65208, Note_off_c, 11, 34, 10013, 65232, Note_on_c, 11, 58, 10013, 65240, Note_on_c, 11, 32, 813, 65256, Note_off_c, 11, 58, 10013, 65264, Note_off_c, 11, 32, 813, 65280, Note_on_c, 11, 32, 11013, 65304, Note_off_c, 11, 32, 11013, 65376, Note_on_c, 11, 34, 10013, 65400, Note_off_c, 11, 34, 10013, 65424, Note_on_c, 11, 58, 10013, 65432, Note_on_c, 11, 32, 813, 65448, Note_off_c, 11, 58, 10013, 65456, Note_off_c, 11, 32, 813, 65472, Note_on_c, 11, 32, 11013, 65496, Note_off_c, 11, 32, 11013, 65568, Note_on_c, 11, 34, 10013, 65592, Note_off_c, 11, 34, 10013, 65616, Note_on_c, 11, 58, 10013, 65624, Note_on_c, 11, 32, 813, 65640, Note_off_c, 11, 58, 10013, 65648, Note_off_c, 11, 32, 813, 65664, Note_on_c, 11, 32, 11013, 65688, Note_off_c, 11, 32, 11013, 65760, Note_on_c, 11, 34, 10013, 65784, Note_off_c, 11, 34, 10013, 65808, Note_on_c, 11, 58, 10013, 65816, Note_on_c, 11, 32, 813, 65832, Note_off_c, 11, 58, 10013, 65840, Note_off_c, 11, 32, 813, 65856, Note_on_c, 11, 32, 11013, 65880, Note_off_c, 11, 32, 11013, 65952, Note_on_c, 11, 34, 10013, 65976, Note_off_c, 11, 34, 10013, 66000, Note_on_c, 11, 58, 10013, 66008, Note_on_c, 11, 32, 813, 66024, Note_off_c, 11, 58, 10013, 66032, Note_off_c, 11, 32, 813, 66048, Note_on_c, 11, 32, 11013, 66072, Note_off_c, 11, 32, 11013, 66144, Note_on_c, 11, 34, 10013, 66168, Note_off_c, 11, 34, 10013, 66192, Note_on_c, 11, 58, 10013, 66200, Note_on_c, 11, 32, 813, 66216, Note_off_c, 11, 58, 10013, 66224, Note_off_c, 11, 32, 813, 66240, Note_on_c, 11, 32, 11013, 66264, Note_off_c, 11, 32, 11013, 66336, Note_on_c, 11, 34, 10013, 66360, Note_off_c, 11, 34, 10013, 66384, Note_on_c, 11, 58, 10013, 66392, Note_on_c, 11, 32, 813, 66408, Note_off_c, 11, 58, 10013, 66416, Note_off_c, 11, 32, 813, 66432, Note_on_c, 11, 32, 11013, 66456, Note_off_c, 11, 32, 11013, 66528, Note_on_c, 11, 34, 10013, 66552, Note_off_c, 11, 34, 10013, 66576, Note_on_c, 11, 58, 10013, 66584, Note_on_c, 11, 32, 813, 66600, Note_off_c, 11, 58, 10013, 66608, Note_off_c, 11, 32, 813, 66624, Note_on_c, 11, 32, 11013, 66648, Note_off_c, 11, 32, 11013, 66720, Note_on_c, 11, 34, 10013, 66744, Note_off_c, 11, 34, 10013, 66768, Note_on_c, 11, 58, 10013, 66776, Note_on_c, 11, 32, 813, 66792, Note_off_c, 11, 58, 10013, 66800, Note_off_c, 11, 32, 813, 66816, Note_on_c, 11, 32, 11013, 66840, Note_off_c, 11, 32, 11013, 66912, Note_on_c, 11, 34, 10013, 66936, Note_off_c, 11, 34, 10013, 66960, Note_on_c, 11, 58, 10013, 66968, Note_on_c, 11, 32, 813, 66984, Note_off_c, 11, 58, 10013, 66992, Note_off_c, 11, 32, 813, 67008, Note_on_c, 11, 32, 11013, 67032, Note_off_c, 11, 32, 11013, 67104, Note_on_c, 11, 34, 10013, 67128, Note_off_c, 11, 34, 10013, 67152, Note_on_c, 11, 58, 10013, 67160, Note_on_c, 11, 32, 813, 67176, Note_off_c, 11, 58, 10013, 67184, Note_off_c, 11, 32, 813, 67200, Note_on_c, 11, 32, 11013, 67224, Note_off_c, 11, 32, 11013, 67296, Note_on_c, 11, 34, 10013, 67320, Note_off_c, 11, 34, 10013, 67344, Note_on_c, 11, 58, 10013, 67352, Note_on_c, 11, 32, 813, 67368, Note_off_c, 11, 58, 10013, 67376, Note_off_c, 11, 32, 813, 67392, Note_on_c, 11, 32, 11013, 67416, Note_off_c, 11, 32, 11013, 67488, Note_on_c, 11, 34, 10013, 67512, Note_off_c, 11, 34, 10013, 67536, Note_on_c, 11, 58, 10013, 67544, Note_on_c, 11, 32, 813, 67560, Note_off_c, 11, 58, 10013, 67568, Note_off_c, 11, 32, 813, 67584, Note_on_c, 11, 32, 11013, 67608, Note_off_c, 11, 32, 11013, 67680, Note_on_c, 11, 34, 10013, 67704, Note_off_c, 11, 34, 10013, 67728, Note_on_c, 11, 58, 10013, 67736, Note_on_c, 11, 32, 813, 67752, Note_off_c, 11, 58, 10013, 67760, Note_off_c, 11, 32, 813, 67776, Note_on_c, 11, 32, 11013, 67800, Note_off_c, 11, 32, 11013, 67872, Note_on_c, 11, 34, 10013, 67896, Note_off_c, 11, 34, 10013, 67920, Note_on_c, 11, 58, 10013, 67928, Note_on_c, 11, 32, 813, 67944, Note_off_c, 11, 58, 10013, 67952, Note_off_c, 11, 32, 813, 67968, Note_on_c, 11, 32, 11013, 67992, Note_off_c, 11, 32, 11013, 68064, Note_on_c, 11, 34, 10013, 68088, Note_off_c, 11, 34, 10013, 68112, Note_on_c, 11, 58, 10013, 68120, Note_on_c, 11, 32, 813, 68136, Note_off_c, 11, 58, 10013, 68144, Note_off_c, 11, 32, 813, 68160, Note_on_c, 11, 32, 11013, 68184, Note_off_c, 11, 32, 11013, 68256, Note_on_c, 11, 34, 10013, 68280, Note_off_c, 11, 34, 10013, 68304, Note_on_c, 11, 58, 10013, 68312, Note_on_c, 11, 32, 813, 68328, Note_off_c, 11, 58, 10013, 68336, Note_off_c, 11, 32, 813, 68352, Note_on_c, 11, 32, 11013, 68376, Note_off_c, 11, 32, 11013, 68448, Note_on_c, 11, 34, 10013, 68472, Note_off_c, 11, 34, 10013, 68496, Note_on_c, 11, 58, 10013, 68504, Note_on_c, 11, 32, 813, 68520, Note_off_c, 11, 58, 10013, 68528, Note_off_c, 11, 32, 813, 68544, Note_on_c, 11, 32, 11013, 68568, Note_off_c, 11, 32, 11013, 68640, Note_on_c, 11, 34, 10013, 68664, Note_off_c, 11, 34, 10013, 68688, Note_on_c, 11, 58, 10013, 68696, Note_on_c, 11, 32, 813, 68712, Note_off_c, 11, 58, 10013, 68720, Note_off_c, 11, 32, 813, 68736, Note_on_c, 11, 32, 11013, 68760, Note_off_c, 11, 32, 11013, 68832, Note_on_c, 11, 34, 10013, 68856, Note_off_c, 11, 34, 10013, 68880, Note_on_c, 11, 58, 10013, 68888, Note_on_c, 11, 32, 813, 68904, Note_off_c, 11, 58, 10013, 68912, Note_off_c, 11, 32, 813, 68928, Note_on_c, 11, 32, 11013, 68952, Note_off_c, 11, 32, 11013, 69024, Note_on_c, 11, 34, 10013, 69048, Note_off_c, 11, 34, 10013, 69072, Note_on_c, 11, 58, 10013, 69080, Note_on_c, 11, 32, 813, 69096, Note_off_c, 11, 58, 10013, 69104, Note_off_c, 11, 32, 813, 69120, Note_on_c, 11, 32, 11013, 69144, Note_off_c, 11, 32, 11013, 69216, Note_on_c, 11, 34, 10013, 69240, Note_off_c, 11, 34, 10013, 69264, Note_on_c, 11, 58, 10013, 69272, Note_on_c, 11, 32, 813, 69288, Note_off_c, 11, 58, 10013, 69296, Note_off_c, 11, 32, 813, 69312, Note_on_c, 11, 32, 11013, 69336, Note_off_c, 11, 32, 11013, 69408, Note_on_c, 11, 34, 10013, 69432, Note_off_c, 11, 34, 10013, 69456, Note_on_c, 11, 58, 10013, 69464, Note_on_c, 11, 32, 813, 69480, Note_off_c, 11, 58, 10013, 69488, Note_off_c, 11, 32, 813, 69504, Note_on_c, 11, 32, 11013, 69528, Note_off_c, 11, 32, 11013, 69600, Note_on_c, 11, 34, 10013, 69624, Note_off_c, 11, 34, 10013, 69648, Note_on_c, 11, 58, 10013, 69656, Note_on_c, 11, 32, 813, 69672, Note_off_c, 11, 58, 10013, 69680, Note_off_c, 11, 32, 813, 69696, Note_on_c, 11, 32, 11013, 69720, Note_off_c, 11, 32, 11013, 69792, Note_on_c, 11, 34, 10013, 69816, Note_off_c, 11, 34, 10013, 69840, Note_on_c, 11, 58, 10013, 69848, Note_on_c, 11, 32, 813, 69864, Note_off_c, 11, 58, 10013, 69872, Note_off_c, 11, 32, 813, 69888, Note_on_c, 11, 32, 11013, 69912, Note_off_c, 11, 32, 11013, 69984, Note_on_c, 11, 34, 10013, 70008, Note_off_c, 11, 34, 10013, 70032, Note_on_c, 11, 58, 10013, 70040, Note_on_c, 11, 32, 813, 70056, Note_off_c, 11, 58, 10013, 70064, Note_off_c, 11, 32, 813, 70080, Note_on_c, 11, 32, 11013, 70104, Note_off_c, 11, 32, 11013, 70176, Note_on_c, 11, 34, 10013, 70200, Note_off_c, 11, 34, 10013, 70224, Note_on_c, 11, 58, 10013, 70232, Note_on_c, 11, 32, 813, 70248, Note_off_c, 11, 58, 10013, 70256, Note_off_c, 11, 32, 813, 70272, Note_on_c, 11, 32, 11013, 70296, Note_off_c, 11, 32, 11013, 70368, Note_on_c, 11, 34, 10013, 70392, Note_off_c, 11, 34, 10013, 70416, Note_on_c, 11, 58, 10013, 70424, Note_on_c, 11, 32, 813, 70440, Note_off_c, 11, 58, 10013, 70448, Note_off_c, 11, 32, 813, 70464, Note_on_c, 11, 32, 11013, 70488, Note_off_c, 11, 32, 11013, 70560, Note_on_c, 11, 34, 10013, 70584, Note_off_c, 11, 34, 10013, 70608, Note_on_c, 11, 58, 10013, 70616, Note_on_c, 11, 32, 813, 70632, Note_off_c, 11, 58, 10013, 70640, Note_off_c, 11, 32, 813, 70656, Note_on_c, 11, 32, 11013, 70680, Note_off_c, 11, 32, 11013, 70752, Note_on_c, 11, 34, 10013, 70776, Note_off_c, 11, 34, 10013, 70800, Note_on_c, 11, 58, 10013, 70808, Note_on_c, 11, 32, 813, 70824, Note_off_c, 11, 58, 10013, 70832, Note_off_c, 11, 32, 813, 70848, Note_on_c, 11, 32, 11013, 70872, Note_off_c, 11, 32, 11013, 70944, Note_on_c, 11, 34, 10013, 70968, Note_off_c, 11, 34, 10013, 70992, Note_on_c, 11, 58, 10013, 71000, Note_on_c, 11, 32, 813, 71016, Note_off_c, 11, 58, 10013, 71024, Note_off_c, 11, 32, 813, 71040, Note_on_c, 11, 32, 11013, 71064, Note_off_c, 11, 32, 11013, 71136, Note_on_c, 11, 34, 10013, 71160, Note_off_c, 11, 34, 10013, 71184, Note_on_c, 11, 58, 10013, 71192, Note_on_c, 11, 32, 813, 71208, Note_off_c, 11, 58, 10013, 71216, Note_off_c, 11, 32, 813, 71232, Note_on_c, 11, 32, 11013, 71256, Note_off_c, 11, 32, 11013, 71328, Note_on_c, 11, 34, 10013, 71352, Note_off_c, 11, 34, 10013, 71376, Note_on_c, 11, 58, 10013, 71384, Note_on_c, 11, 32, 813, 71400, Note_off_c, 11, 58, 10013, 71408, Note_off_c, 11, 32, 813, 71424, Note_on_c, 11, 32, 11013, 71448, Note_off_c, 11, 32, 11013, 71520, Note_on_c, 11, 34, 10013, 71544, Note_off_c, 11, 34, 10013, 71568, Note_on_c, 11, 58, 10013, 71576, Note_on_c, 11, 32, 813, 71592, Note_off_c, 11, 58, 10013, 71600, Note_off_c, 11, 32, 813, 71616, Note_on_c, 11, 32, 11013, 71640, Note_off_c, 11, 32, 11013, 71712, Note_on_c, 11, 34, 10013, 71736, Note_off_c, 11, 34, 10013, 71760, Note_on_c, 11, 58, 10013, 71768, Note_on_c, 11, 32, 813, 71784, Note_off_c, 11, 58, 10013, 71792, Note_off_c, 11, 32, 813, 71808, Note_on_c, 11, 32, 11013, 71832, Note_off_c, 11, 32, 11013, 71904, Note_on_c, 11, 34, 10013, 71928, Note_off_c, 11, 34, 10013, 71952, Note_on_c, 11, 58, 10013, 71960, Note_on_c, 11, 32, 813, 71976, Note_off_c, 11, 58, 10013, 71984, Note_off_c, 11, 32, 813, 72000, Note_on_c, 11, 32, 11013, 72024, Note_off_c, 11, 32, 11013, 72096, Note_on_c, 11, 34, 10013, 72120, Note_off_c, 11, 34, 10013, 72144, Note_on_c, 11, 58, 10013, 72152, Note_on_c, 11, 32, 813, 72168, Note_off_c, 11, 58, 10013, 72176, Note_off_c, 11, 32, 813, 72192, Note_on_c, 11, 32, 11013, 72216, Note_off_c, 11, 32, 11013, 72288, Note_on_c, 11, 34, 10013, 72312, Note_off_c, 11, 34, 10013, 72336, Note_on_c, 11, 58, 10013, 72344, Note_on_c, 11, 32, 813, 72360, Note_off_c, 11, 58, 10013, 72368, Note_off_c, 11, 32, 813, 72384, Note_on_c, 11, 32, 11013, 72408, Note_off_c, 11, 32, 11013, 72480, Note_on_c, 11, 34, 10013, 72504, Note_off_c, 11, 34, 10013, 72528, Note_on_c, 11, 58, 10013, 72536, Note_on_c, 11, 32, 813, 72552, Note_off_c, 11, 58, 10013, 72560, Note_off_c, 11, 32, 813, 72576, Note_on_c, 11, 32, 11013, 72600, Note_off_c, 11, 32, 11013, 72672, Note_on_c, 11, 34, 10013, 72696, Note_off_c, 11, 34, 10013, 72720, Note_on_c, 11, 58, 10013, 72728, Note_on_c, 11, 32, 813, 72744, Note_off_c, 11, 58, 10013, 72752, Note_off_c, 11, 32, 813, 72768, Note_on_c, 11, 32, 11013, 72792, Note_off_c, 11, 32, 11013, 72864, Note_on_c, 11, 34, 10013, 72888, Note_off_c, 11, 34, 10013, 72912, Note_on_c, 11, 58, 10013, 72920, Note_on_c, 11, 32, 813, 72936, Note_off_c, 11, 58, 10013, 72944, Note_off_c, 11, 32, 813, 72960, Note_on_c, 11, 32, 11013, 72984, Note_off_c, 11, 32, 11013, 73056, Note_on_c, 11, 34, 10013, 73080, Note_off_c, 11, 34, 10013, 73104, Note_on_c, 11, 58, 10013, 73112, Note_on_c, 11, 32, 813, 73128, Note_off_c, 11, 58, 10013, 73136, Note_off_c, 11, 32, 813, 73152, Note_on_c, 11, 32, 11013, 73176, Note_off_c, 11, 32, 11013, 73248, Note_on_c, 11, 34, 10013, 73272, Note_off_c, 11, 34, 10013, 73296, Note_on_c, 11, 58, 10013, 73304, Note_on_c, 11, 32, 813, 73320, Note_off_c, 11, 58, 10013, 73328, Note_off_c, 11, 32, 813, 73344, Note_on_c, 11, 32, 11013, 73368, Note_off_c, 11, 32, 11013, 73440, Note_on_c, 11, 34, 10013, 73464, Note_off_c, 11, 34, 10013, 73488, Note_on_c, 11, 58, 10013, 73496, Note_on_c, 11, 32, 813, 73512, Note_off_c, 11, 58, 10013, 73520, Note_off_c, 11, 32, 813, 73536, Note_on_c, 11, 32, 11013, 73560, Note_off_c, 11, 32, 11013, 73632, Note_on_c, 11, 34, 10013, 73656, Note_off_c, 11, 34, 10013, 73680, Note_on_c, 11, 58, 10013, 73688, Note_on_c, 11, 32, 813, 73704, Note_off_c, 11, 58, 10013, 73712, Note_off_c, 11, 32, 813, 73728, Note_on_c, 11, 32, 11013, 73752, Note_off_c, 11, 32, 11013, 73824, Note_on_c, 11, 34, 10013, 73848, Note_off_c, 11, 34, 10013, 73872, Note_on_c, 11, 58, 10013, 73880, Note_on_c, 11, 32, 813, 73896, Note_off_c, 11, 58, 10013, 73904, Note_off_c, 11, 32, 813, 73920, Note_on_c, 11, 32, 11013, 73944, Note_off_c, 11, 32, 11013, 74016, Note_on_c, 11, 34, 10013, 74040, Note_off_c, 11, 34, 10013, 74064, Note_on_c, 11, 58, 10013, 74072, Note_on_c, 11, 32, 813, 74088, Note_off_c, 11, 58, 10013, 74096, Note_off_c, 11, 32, 813, 74112, Note_on_c, 11, 32, 11013, 74136, Note_off_c, 11, 32, 11013, 74208, Note_on_c, 11, 34, 10013, 74232, Note_off_c, 11, 34, 10013, 74256, Note_on_c, 11, 58, 10013, 74264, Note_on_c, 11, 32, 813, 74280, Note_off_c, 11, 58, 10013, 74288, Note_off_c, 11, 32, 813, 74304, Note_on_c, 11, 32, 11013, 74328, Note_off_c, 11, 32, 11013, 74400, Note_on_c, 11, 34, 10013, 74424, Note_off_c, 11, 34, 10013, 74448, Note_on_c, 11, 58, 10013, 74456, Note_on_c, 11, 32, 813, 74472, Note_off_c, 11, 58, 10013, 74480, Note_off_c, 11, 32, 813, 74496, Note_on_c, 11, 32, 11013, 74520, Note_off_c, 11, 32, 11013, 74592, Note_on_c, 11, 34, 10013, 74616, Note_off_c, 11, 34, 10013, 74640, Note_on_c, 11, 58, 10013, 74648, Note_on_c, 11, 32, 813, 74664, Note_off_c, 11, 58, 10013, 74672, Note_off_c, 11, 32, 813, 74688, Note_on_c, 11, 32, 11013, 74712, Note_off_c, 11, 32, 11013, 74784, Note_on_c, 11, 34, 10013, 74808, Note_off_c, 11, 34, 10013, 74832, Note_on_c, 11, 58, 10013, 74840, Note_on_c, 11, 32, 813, 74856, Note_off_c, 11, 58, 10013, 74864, Note_off_c, 11, 32, 813, 74880, Note_on_c, 11, 32, 11013, 74904, Note_off_c, 11, 32, 11013, 74976, Note_on_c, 11, 34, 10013, 75000, Note_off_c, 11, 34, 10013, 75024, Note_on_c, 11, 58, 10013, 75032, Note_on_c, 11, 32, 813, 75048, Note_off_c, 11, 58, 10013, 75056, Note_off_c, 11, 32, 813, 75072, Note_on_c, 11, 32, 11013, 75096, Note_off_c, 11, 32, 11013, 75168, Note_on_c, 11, 34, 10013, 75192, Note_off_c, 11, 34, 10013, 75216, Note_on_c, 11, 58, 10013, 75224, Note_on_c, 11, 32, 813, 75240, Note_off_c, 11, 58, 10013, 75248, Note_off_c, 11, 32, 813, 75264, Note_on_c, 11, 32, 11013, 75288, Note_off_c, 11, 32, 11013, 75360, Note_on_c, 11, 34, 10013, 75384, Note_off_c, 11, 34, 10013, 75408, Note_on_c, 11, 58, 10013, 75416, Note_on_c, 11, 32, 813, 75432, Note_off_c, 11, 58, 10013, 75440, Note_off_c, 11, 32, 813, 75456, Note_on_c, 11, 32, 11013, 75480, Note_off_c, 11, 32, 11013, 75552, Note_on_c, 11, 34, 10013, 75576, Note_off_c, 11, 34, 10013, 75600, Note_on_c, 11, 58, 10013, 75608, Note_on_c, 11, 32, 813, 75624, Note_off_c, 11, 58, 10013, 75632, Note_off_c, 11, 32, 813, 75648, Note_on_c, 11, 32, 11013, 75672, Note_off_c, 11, 32, 11013, 75744, Note_on_c, 11, 34, 10013, 75768, Note_off_c, 11, 34, 10013, 75792, Note_on_c, 11, 58, 10013, 75800, Note_on_c, 11, 32, 813, 75816, Note_off_c, 11, 58, 10013, 75824, Note_off_c, 11, 32, 813, 75840, Note_on_c, 11, 32, 11013, 75864, Note_off_c, 11, 32, 11013, 75936, Note_on_c, 11, 34, 10013, 75960, Note_off_c, 11, 34, 10013, 75984, Note_on_c, 11, 58, 10013, 75992, Note_on_c, 11, 32, 813, 76008, Note_off_c, 11, 58, 10013, 76016, Note_off_c, 11, 32, 813, 76032, Note_on_c, 11, 32, 11013, 76056, Note_off_c, 11, 32, 11013, 76128, Note_on_c, 11, 34, 10013, 76152, Note_off_c, 11, 34, 10013, 76176, Note_on_c, 11, 58, 10013, 76184, Note_on_c, 11, 32, 813, 76200, Note_off_c, 11, 58, 10013, 76208, Note_off_c, 11, 32, 813, 76224, Note_on_c, 11, 32, 11013, 76248, Note_off_c, 11, 32, 11013, 76320, Note_on_c, 11, 34, 10013, 76344, Note_off_c, 11, 34, 10013, 76368, Note_on_c, 11, 58, 10013, 76376, Note_on_c, 11, 32, 813, 76392, Note_off_c, 11, 58, 10013, 76400, Note_off_c, 11, 32, 813, 76416, Note_on_c, 11, 32, 11013, 76440, Note_off_c, 11, 32, 11013, 76512, Note_on_c, 11, 34, 10013, 76536, Note_off_c, 11, 34, 10013, 76560, Note_on_c, 11, 58, 10013, 76568, Note_on_c, 11, 32, 813, 76584, Note_off_c, 11, 58, 10013, 76592, Note_off_c, 11, 32, 813, 76608, Note_on_c, 11, 32, 11013, 76632, Note_off_c, 11, 32, 11013, 76704, Note_on_c, 11, 34, 10013, 76728, Note_off_c, 11, 34, 10013, 76752, Note_on_c, 11, 58, 10013, 76760, Note_on_c, 11, 32, 813, 76776, Note_off_c, 11, 58, 10013, 76784, Note_off_c, 11, 32, 813, 76800, Note_on_c, 11, 32, 11013, 76824, Note_off_c, 11, 32, 11013, 76896, Note_on_c, 11, 34, 10013, 76920, Note_off_c, 11, 34, 10013, 76944, Note_on_c, 11, 58, 10013, 76952, Note_on_c, 11, 32, 813, 76968, Note_off_c, 11, 58, 10013, 76976, Note_off_c, 11, 32, 813, 76992, Note_on_c, 11, 32, 11013, 77016, Note_off_c, 11, 32, 11013, 77088, Note_on_c, 11, 34, 10013, 77112, Note_off_c, 11, 34, 10013, 77136, Note_on_c, 11, 58, 10013, 77144, Note_on_c, 11, 32, 813, 77160, Note_off_c, 11, 58, 10013, 77168, Note_off_c, 11, 32, 813, 77184, Note_on_c, 11, 32, 11013, 77208, Note_off_c, 11, 32, 11013, 77280, Note_on_c, 11, 34, 10013, 77304, Note_off_c, 11, 34, 10013, 77328, Note_on_c, 11, 58, 10013, 77336, Note_on_c, 11, 32, 813, 77352, Note_off_c, 11, 58, 10013, 77360, Note_off_c, 11, 32, 813, 77376, Note_on_c, 11, 32, 11013, 77400, Note_off_c, 11, 32, 11013, 77472, Note_on_c, 11, 34, 10013, 77496, Note_off_c, 11, 34, 10013, 77520, Note_on_c, 11, 58, 10013, 77528, Note_on_c, 11, 32, 813, 77544, Note_off_c, 11, 58, 10013, 77552, Note_off_c, 11, 32, 813, 77568, Note_on_c, 11, 32, 11013, 77592, Note_off_c, 11, 32, 11013, 77664, Note_on_c, 11, 34, 10013, 77688, Note_off_c, 11, 34, 10013, 77712, Note_on_c, 11, 58, 10013, 77720, Note_on_c, 11, 32, 813, 77736, Note_off_c, 11, 58, 10013, 77744, Note_off_c, 11, 32, 813, 77760, Note_on_c, 11, 32, 11013, 77784, Note_off_c, 11, 32, 11013, 77856, Note_on_c, 11, 34, 10013, 77880, Note_off_c, 11, 34, 10013, 77904, Note_on_c, 11, 58, 10013, 77912, Note_on_c, 11, 32, 813, 77928, Note_off_c, 11, 58, 10013, 77936, Note_off_c, 11, 32, 813, 77952, Note_on_c, 11, 32, 11013, 77976, Note_off_c, 11, 32, 11013, 78048, Note_on_c, 11, 34, 10013, 78072, Note_off_c, 11, 34, 10013, 78096, Note_on_c, 11, 58, 10013, 78104, Note_on_c, 11, 32, 813, 78120, Note_off_c, 11, 58, 10013, 78128, Note_off_c, 11, 32, 813, 78144, Note_on_c, 11, 32, 11013, 78168, Note_off_c, 11, 32, 11013, 78240, Note_on_c, 11, 34, 10013, 78264, Note_off_c, 11, 34, 10013, 78288, Note_on_c, 11, 58, 10013, 78296, Note_on_c, 11, 32, 813, 78312, Note_off_c, 11, 58, 10013, 78320, Note_off_c, 11, 32, 813, 78336, Note_on_c, 11, 32, 11013, 78360, Note_off_c, 11, 32, 11013, 78432, Note_on_c, 11, 34, 10013, 78456, Note_off_c, 11, 34, 10013, 78480, Note_on_c, 11, 58, 10013, 78488, Note_on_c, 11, 32, 813, 78504, Note_off_c, 11, 58, 10013, 78512, Note_off_c, 11, 32, 813, 78528, Note_on_c, 11, 32, 11013, 78552, Note_off_c, 11, 32, 11013, 78624, Note_on_c, 11, 34, 10013, 78648, Note_off_c, 11, 34, 10013, 78672, Note_on_c, 11, 58, 10013, 78680, Note_on_c, 11, 32, 813, 78696, Note_off_c, 11, 58, 10013, 78704, Note_off_c, 11, 32, 813, 78720, Note_on_c, 11, 32, 11013, 78744, Note_off_c, 11, 32, 11013, 78816, Note_on_c, 11, 34, 10013, 78840, Note_off_c, 11, 34, 10013, 78864, Note_on_c, 11, 58, 10013, 78872, Note_on_c, 11, 32, 813, 78888, Note_off_c, 11, 58, 10013, 78896, Note_off_c, 11, 32, 813, 78912, Note_on_c, 11, 32, 11013, 78936, Note_off_c, 11, 32, 11013, 79008, Note_on_c, 11, 34, 10013, 79032, Note_off_c, 11, 34, 10013, 79056, Note_on_c, 11, 58, 10013, 79064, Note_on_c, 11, 32, 813, 79080, Note_off_c, 11, 58, 10013, 79088, Note_off_c, 11, 32, 813, 79104, Note_on_c, 11, 32, 11013, 79128, Note_off_c, 11, 32, 11013, 79200, Note_on_c, 11, 34, 10013, 79224, Note_off_c, 11, 34, 10013, 79248, Note_on_c, 11, 58, 10013, 79256, Note_on_c, 11, 32, 813, 79272, Note_off_c, 11, 58, 10013, 79280, Note_off_c, 11, 32, 813, 79296, Note_on_c, 11, 32, 11013, 79320, Note_off_c, 11, 32, 11013, 79392, Note_on_c, 11, 34, 10013, 79416, Note_off_c, 11, 34, 10013, 79440, Note_on_c, 11, 58, 10013, 79448, Note_on_c, 11, 32, 813, 79464, Note_off_c, 11, 58, 10013, 79472, Note_off_c, 11, 32, 813, 79488, Note_on_c, 11, 32, 11013, 79512, Note_off_c, 11, 32, 11013, 79584, Note_on_c, 11, 34, 10013, 79608, Note_off_c, 11, 34, 10013, 79632, Note_on_c, 11, 58, 10013, 79640, Note_on_c, 11, 32, 813, 79656, Note_off_c, 11, 58, 10013, 79664, Note_off_c, 11, 32, 813, 79680, Note_on_c, 11, 32, 11013, 79704, Note_off_c, 11, 32, 11013, 79776, Note_on_c, 11, 34, 10013, 79800, Note_off_c, 11, 34, 10013, 79824, Note_on_c, 11, 58, 10013, 79832, Note_on_c, 11, 32, 813, 79848, Note_off_c, 11, 58, 10013, 79856, Note_off_c, 11, 32, 813, 79872, Note_on_c, 11, 32, 11013, 79896, Note_off_c, 11, 32, 11013, 79968, Note_on_c, 11, 34, 10013, 79992, Note_off_c, 11, 34, 10013, 80016, Note_on_c, 11, 58, 10013, 80024, Note_on_c, 11, 32, 813, 80040, Note_off_c, 11, 58, 10013, 80048, Note_off_c, 11, 32, 813, 80064, Note_on_c, 11, 32, 11013, 80088, Note_off_c, 11, 32, 11013, 80160, Note_on_c, 11, 34, 10013, 80184, Note_off_c, 11, 34, 10013, 80208, Note_on_c, 11, 58, 10013, 80216, Note_on_c, 11, 32, 813, 80232, Note_off_c, 11, 58, 10013, 80240, Note_off_c, 11, 32, 813, 80256, Note_on_c, 11, 32, 11013, 80280, Note_off_c, 11, 32, 11013, 80352, Note_on_c, 11, 34, 10013, 80376, Note_off_c, 11, 34, 10013, 80400, Note_on_c, 11, 58, 10013, 80408, Note_on_c, 11, 32, 813, 80424, Note_off_c, 11, 58, 10013, 80432, Note_off_c, 11, 32, 813, 80448, Note_on_c, 11, 32, 11013, 80472, Note_off_c, 11, 32, 11013, 80544, Note_on_c, 11, 34, 10013, 80568, Note_off_c, 11, 34, 10013, 80592, Note_on_c, 11, 58, 10013, 80600, Note_on_c, 11, 32, 813, 80616, Note_off_c, 11, 58, 10013, 80624, Note_off_c, 11, 32, 813, 80640, Note_on_c, 11, 32, 11013, 80664, Note_off_c, 11, 32, 11013, 80736, Note_on_c, 11, 34, 10013, 80760, Note_off_c, 11, 34, 10013, 80784, Note_on_c, 11, 58, 10013, 80792, Note_on_c, 11, 32, 813, 80808, Note_off_c, 11, 58, 10013, 80816, Note_off_c, 11, 32, 813, 80832, Note_on_c, 11, 32, 11013, 80856, Note_off_c, 11, 32, 11013, 80928, Note_on_c, 11, 34, 10013, 80952, Note_off_c, 11, 34, 10013, 80976, Note_on_c, 11, 58, 10013, 80984, Note_on_c, 11, 32, 813, 81000, Note_off_c, 11, 58, 10013, 81008, Note_off_c, 11, 32, 813, 81024, Note_on_c, 11, 32, 11013, 81048, Note_off_c, 11, 32, 11013, 81120, Note_on_c, 11, 34, 10013, 81144, Note_off_c, 11, 34, 10013, 81168, Note_on_c, 11, 58, 10013, 81176, Note_on_c, 11, 32, 813, 81192, Note_off_c, 11, 58, 10013, 81200, Note_off_c, 11, 32, 813, 81216, Note_on_c, 11, 32, 11013, 81240, Note_off_c, 11, 32, 11013, 81312, Note_on_c, 11, 34, 10013, 81336, Note_off_c, 11, 34, 10013, 81360, Note_on_c, 11, 58, 10013, 81368, Note_on_c, 11, 32, 813, 81384, Note_off_c, 11, 58, 10013, 81392, Note_off_c, 11, 32, 813, 81408, Note_on_c, 11, 32, 11013, 81432, Note_off_c, 11, 32, 11013, 81504, Note_on_c, 11, 34, 10013, 81528, Note_off_c, 11, 34, 10013, 81552, Note_on_c, 11, 58, 10013, 81560, Note_on_c, 11, 32, 813, 81576, Note_off_c, 11, 58, 10013, 81584, Note_off_c, 11, 32, 813, 81600, Note_on_c, 11, 32, 11013, 81624, Note_off_c, 11, 32, 11013, 81696, Note_on_c, 11, 34, 10013, 81720, Note_off_c, 11, 34, 10013, 81744, Note_on_c, 11, 58, 10013, 81752, Note_on_c, 11, 32, 813, 81768, Note_off_c, 11, 58, 10013, 81776, Note_off_c, 11, 32, 813, 81792, Note_on_c, 11, 32, 11013, 81816, Note_off_c, 11, 32, 11013, 81888, Note_on_c, 11, 34, 10013, 81912, Note_off_c, 11, 34, 10013, 81936, Note_on_c, 11, 58, 10013, 81944, Note_on_c, 11, 32, 813, 81960, Note_off_c, 11, 58, 10013, 81968, Note_off_c, 11, 32, 813, 81984, Note_on_c, 11, 32, 11013, 82008, Note_off_c, 11, 32, 11013, 82080, Note_on_c, 11, 34, 10013, 82104, Note_off_c, 11, 34, 10013, 82128, Note_on_c, 11, 58, 10013, 82136, Note_on_c, 11, 32, 813, 82152, Note_off_c, 11, 58, 10013, 82160, Note_off_c, 11, 32, 813, 82176, Note_on_c, 11, 32, 11013, 82200, Note_off_c, 11, 32, 11013, 82272, Note_on_c, 11, 34, 10013, 82296, Note_off_c, 11, 34, 10013, 82320, Note_on_c, 11, 58, 10013, 82328, Note_on_c, 11, 32, 813, 82344, Note_off_c, 11, 58, 10013, 82352, Note_off_c, 11, 32, 813, 82368, Note_on_c, 11, 32, 11013, 82392, Note_off_c, 11, 32, 11013, 82464, Note_on_c, 11, 34, 10013, 82488, Note_off_c, 11, 34, 10013, 82512, Note_on_c, 11, 58, 10013, 82520, Note_on_c, 11, 32, 813, 82536, Note_off_c, 11, 58, 10013, 82544, Note_off_c, 11, 32, 813, 82560, Note_on_c, 11, 32, 11013, 82584, Note_off_c, 11, 32, 11013, 82656, Note_on_c, 11, 34, 10013, 82680, Note_off_c, 11, 34, 10013, 82704, Note_on_c, 11, 58, 10013, 82712, Note_on_c, 11, 32, 813, 82728, Note_off_c, 11, 58, 10013, 82736, Note_off_c, 11, 32, 813, 82752, Note_on_c, 11, 32, 11013, 82776, Note_off_c, 11, 32, 11013, 82848, Note_on_c, 11, 34, 10013, 82872, Note_off_c, 11, 34, 10013, 82896, Note_on_c, 11, 58, 10013, 82904, Note_on_c, 11, 32, 813, 82920, Note_off_c, 11, 58, 10013, 82928, Note_off_c, 11, 32, 813, 82944, Note_on_c, 11, 32, 11013, 82968, Note_off_c, 11, 32, 11013, 83040, Note_on_c, 11, 34, 10013, 83064, Note_off_c, 11, 34, 10013, 83088, Note_on_c, 11, 58, 10013, 83096, Note_on_c, 11, 32, 813, 83112, Note_off_c, 11, 58, 10013, 83120, Note_off_c, 11, 32, 813, 83136, Note_on_c, 11, 32, 11013, 83160, Note_off_c, 11, 32, 11013, 83232, Note_on_c, 11, 34, 10013, 83256, Note_off_c, 11, 34, 10013, 83280, Note_on_c, 11, 58, 10013, 83288, Note_on_c, 11, 32, 813, 83304, Note_off_c, 11, 58, 10013, 83312, Note_off_c, 11, 32, 813, 83328, Note_on_c, 11, 32, 11013, 83352, Note_off_c, 11, 32, 11013, 83424, Note_on_c, 11, 34, 10013, 83448, Note_off_c, 11, 34, 10013, 83472, Note_on_c, 11, 58, 10013, 83480, Note_on_c, 11, 32, 813, 83496, Note_off_c, 11, 58, 10013, 83504, Note_off_c, 11, 32, 813, 83520, Note_on_c, 11, 32, 11013, 83544, Note_off_c, 11, 32, 11013, 83616, Note_on_c, 11, 34, 10013, 83640, Note_off_c, 11, 34, 10013, 83664, Note_on_c, 11, 58, 10013, 83672, Note_on_c, 11, 32, 813, 83688, Note_off_c, 11, 58, 10013, 83696, Note_off_c, 11, 32, 813, 83712, Note_on_c, 11, 32, 11013, 83736, Note_off_c, 11, 32, 11013, 83808, Note_on_c, 11, 34, 10013, 83832, Note_off_c, 11, 34, 10013, 83856, Note_on_c, 11, 58, 10013, 83864, Note_on_c, 11, 32, 813, 83880, Note_off_c, 11, 58, 10013, 83888, Note_off_c, 11, 32, 813, 83904, Note_on_c, 11, 32, 11013, 83928, Note_off_c, 11, 32, 11013, 84000, Note_on_c, 11, 34, 10013, 84024, Note_off_c, 11, 34, 10013, 84048, Note_on_c, 11, 58, 10013, 84056, Note_on_c, 11, 32, 813, 84072, Note_off_c, 11, 58, 10013, 84080, Note_off_c, 11, 32, 813, 84096, Note_on_c, 11, 32, 11013, 84120, Note_off_c, 11, 32, 11013, 84192, Note_on_c, 11, 34, 10013, 84216, Note_off_c, 11, 34, 10013, 84240, Note_on_c, 11, 58, 10013, 84248, Note_on_c, 11, 32, 813, 84264, Note_off_c, 11, 58, 10013, 84272, Note_off_c, 11, 32, 813, 84288, Note_on_c, 11, 32, 11013, 84312, Note_off_c, 11, 32, 11013, 84384, Note_on_c, 11, 34, 10013, 84408, Note_off_c, 11, 34, 10013, 84432, Note_on_c, 11, 58, 10013, 84440, Note_on_c, 11, 32, 813, 84456, Note_off_c, 11, 58, 10013, 84464, Note_off_c, 11, 32, 813, 84480, Note_on_c, 11, 32, 11013, 84504, Note_off_c, 11, 32, 11013, 84576, Note_on_c, 11, 34, 10013, 84600, Note_off_c, 11, 34, 10013, 84624, Note_on_c, 11, 58, 10013, 84632, Note_on_c, 11, 32, 813, 84648, Note_off_c, 11, 58, 10013, 84656, Note_off_c, 11, 32, 813, 84672, Note_on_c, 11, 32, 11013, 84696, Note_off_c, 11, 32, 11013, 84768, Note_on_c, 11, 34, 10013, 84792, Note_off_c, 11, 34, 10013, 84816, Note_on_c, 11, 58, 10013, 84824, Note_on_c, 11, 32, 813, 84840, Note_off_c, 11, 58, 10013, 84848, Note_off_c, 11, 32, 813, 84864, Note_on_c, 11, 32, 11013, 84888, Note_off_c, 11, 32, 11013, 84960, Note_on_c, 11, 34, 10013, 84984, Note_off_c, 11, 34, 10013, 85008, Note_on_c, 11, 58, 10013, 85016, Note_on_c, 11, 32, 813, 85032, Note_off_c, 11, 58, 10013, 85040, Note_off_c, 11, 32, 813, 85056, Note_on_c, 11, 32, 11013, 85080, Note_off_c, 11, 32, 11013, 85152, Note_on_c, 11, 34, 10013, 85176, Note_off_c, 11, 34, 10013, 85200, Note_on_c, 11, 58, 10013, 85208, Note_on_c, 11, 32, 813, 85224, Note_off_c, 11, 58, 10013, 85232, Note_off_c, 11, 32, 813, 85248, Note_on_c, 11, 32, 11013, 85272, Note_off_c, 11, 32, 11013, 85344, Note_on_c, 11, 34, 10013, 85368, Note_off_c, 11, 34, 10013, 85392, Note_on_c, 11, 58, 10013, 85400, Note_on_c, 11, 32, 813, 85416, Note_off_c, 11, 58, 10013, 85424, Note_off_c, 11, 32, 813, 85440, Note_on_c, 11, 32, 11013, 85464, Note_off_c, 11, 32, 11013, 85536, Note_on_c, 11, 34, 10013, 85560, Note_off_c, 11, 34, 10013, 85584, Note_on_c, 11, 58, 10013, 85592, Note_on_c, 11, 32, 813, 85608, Note_off_c, 11, 58, 10013, 85616, Note_off_c, 11, 32, 813, 85632, Note_on_c, 11, 32, 11013, 85656, Note_off_c, 11, 32, 11013, 85728, Note_on_c, 11, 34, 10013, 85752, Note_off_c, 11, 34, 10013, 85776, Note_on_c, 11, 58, 10013, 85784, Note_on_c, 11, 32, 813, 85800, Note_off_c, 11, 58, 10013, 85808, Note_off_c, 11, 32, 813, 85824, Note_on_c, 11, 32, 11013, 85848, Note_off_c, 11, 32, 11013, 85920, Note_on_c, 11, 34, 10013, 85944, Note_off_c, 11, 34, 10013, 85968, Note_on_c, 11, 58, 10013, 85976, Note_on_c, 11, 32, 813, 85992, Note_off_c, 11, 58, 10013, 86000, Note_off_c, 11, 32, 813, 86016, Note_on_c, 11, 32, 11013, 86040, Note_off_c, 11, 32, 11013, 86112, Note_on_c, 11, 34, 10013, 86136, Note_off_c, 11, 34, 10013, 86160, Note_on_c, 11, 58, 10013, 86168, Note_on_c, 11, 32, 813, 86184, Note_off_c, 11, 58, 10013, 86192, Note_off_c, 11, 32, 813, 86208, Note_on_c, 11, 32, 11013, 86232, Note_off_c, 11, 32, 11013, 86304, Note_on_c, 11, 34, 10013, 86328, Note_off_c, 11, 34, 10013, 86352, Note_on_c, 11, 58, 10013, 86360, Note_on_c, 11, 32, 813, 86376, Note_off_c, 11, 58, 10013, 86384, Note_off_c, 11, 32, 813, 86400, Note_on_c, 11, 32, 11013, 86424, Note_off_c, 11, 32, 11013, 86496, Note_on_c, 11, 34, 10013, 86520, Note_off_c, 11, 34, 10013, 86544, Note_on_c, 11, 58, 10013, 86552, Note_on_c, 11, 32, 813, 86568, Note_off_c, 11, 58, 10013, 86576, Note_off_c, 11, 32, 813, 86592, Note_on_c, 11, 32, 11013, 86616, Note_off_c, 11, 32, 11013, 86688, Note_on_c, 11, 34, 10013, 86712, Note_off_c, 11, 34, 10013, 86736, Note_on_c, 11, 58, 10013, 86744, Note_on_c, 11, 32, 813, 86760, Note_off_c, 11, 58, 10013, 86768, Note_off_c, 11, 32, 813, 86784, Note_on_c, 11, 32, 11013, 86808, Note_off_c, 11, 32, 11013, 86880, Note_on_c, 11, 34, 10013, 86904, Note_off_c, 11, 34, 10013, 86928, Note_on_c, 11, 58, 10013, 86936, Note_on_c, 11, 32, 813, 86952, Note_off_c, 11, 58, 10013, 86960, Note_off_c, 11, 32, 813, 86976, Note_on_c, 11, 32, 11013, 87000, Note_off_c, 11, 32, 11013, 87072, Note_on_c, 11, 34, 10013, 87096, Note_off_c, 11, 34, 10013, 87120, Note_on_c, 11, 58, 10013, 87128, Note_on_c, 11, 32, 813, 87144, Note_off_c, 11, 58, 10013, 87152, Note_off_c, 11, 32, 813, 87168, Note_on_c, 11, 32, 11013, 87192, Note_off_c, 11, 32, 11013, 87264, Note_on_c, 11, 34, 10013, 87288, Note_off_c, 11, 34, 10013, 87312, Note_on_c, 11, 58, 10013, 87320, Note_on_c, 11, 32, 813, 87336, Note_off_c, 11, 58, 10013, 87344, Note_off_c, 11, 32, 813, 87360, Note_on_c, 11, 32, 11013, 87384, Note_off_c, 11, 32, 11013, 87456, Note_on_c, 11, 34, 10013, 87480, Note_off_c, 11, 34, 10013, 87504, Note_on_c, 11, 58, 10013, 87512, Note_on_c, 11, 32, 813, 87528, Note_off_c, 11, 58, 10013, 87536, Note_off_c, 11, 32, 813, 87552, Note_on_c, 11, 32, 11013, 87576, Note_off_c, 11, 32, 11013, 87648, Note_on_c, 11, 34, 10013, 87672, Note_off_c, 11, 34, 10013, 87696, Note_on_c, 11, 58, 10013, 87704, Note_on_c, 11, 32, 813, 87720, Note_off_c, 11, 58, 10013, 87728, Note_off_c, 11, 32, 813, 87744, Note_on_c, 11, 32, 11013, 87768, Note_off_c, 11, 32, 11013, 87840, Note_on_c, 11, 34, 10013, 87864, Note_off_c, 11, 34, 10013, 87888, Note_on_c, 11, 58, 10013, 87896, Note_on_c, 11, 32, 813, 87912, Note_off_c, 11, 58, 10013, 87920, Note_off_c, 11, 32, 813, 87936, Note_on_c, 11, 32, 11013, 87960, Note_off_c, 11, 32, 11013, 88032, Note_on_c, 11, 34, 10013, 88056, Note_off_c, 11, 34, 10013, 88080, Note_on_c, 11, 58, 10013, 88088, Note_on_c, 11, 32, 813, 88104, Note_off_c, 11, 58, 10013, 88112, Note_off_c, 11, 32, 813, 88128, Note_on_c, 11, 32, 11013, 88152, Note_off_c, 11, 32, 11013, 88224, Note_on_c, 11, 34, 10013, 88248, Note_off_c, 11, 34, 10013, 88272, Note_on_c, 11, 58, 10013, 88280, Note_on_c, 11, 32, 813, 88296, Note_off_c, 11, 58, 10013, 88304, Note_off_c, 11, 32, 813, 88320, Note_on_c, 11, 32, 11013, 88344, Note_off_c, 11, 32, 11013, 88416, Note_on_c, 11, 34, 10013, 88440, Note_off_c, 11, 34, 10013, 88464, Note_on_c, 11, 58, 10013, 88472, Note_on_c, 11, 32, 813, 88488, Note_off_c, 11, 58, 10013, 88496, Note_off_c, 11, 32, 813, 88512, Note_on_c, 11, 32, 11013, 88536, Note_off_c, 11, 32, 11013, 88608, Note_on_c, 11, 34, 10013, 88632, Note_off_c, 11, 34, 10013, 88656, Note_on_c, 11, 58, 10013, 88664, Note_on_c, 11, 32, 813, 88680, Note_off_c, 11, 58, 10013, 88688, Note_off_c, 11, 32, 813, 88704, Note_on_c, 11, 32, 11013, 88728, Note_off_c, 11, 32, 11013, 88800, Note_on_c, 11, 34, 10013, 88824, Note_off_c, 11, 34, 10013, 88848, Note_on_c, 11, 58, 10013, 88856, Note_on_c, 11, 32, 813, 88872, Note_off_c, 11, 58, 10013, 88880, Note_off_c, 11, 32, 813, 88896, Note_on_c, 11, 32, 11013, 88920, Note_off_c, 11, 32, 11013, 88992, Note_on_c, 11, 34, 10013, 89016, Note_off_c, 11, 34, 10013, 89040, Note_on_c, 11, 58, 10013, 89048, Note_on_c, 11, 32, 813, 89064, Note_off_c, 11, 58, 10013, 89072, Note_off_c, 11, 32, 813, 89088, Note_on_c, 11, 32, 11013, 89112, Note_off_c, 11, 32, 11013, 89184, Note_on_c, 11, 34, 10013, 89208, Note_off_c, 11, 34, 10013, 89232, Note_on_c, 11, 58, 10013, 89240, Note_on_c, 11, 32, 813, 89256, Note_off_c, 11, 58, 10013, 89264, Note_off_c, 11, 32, 813, 89280, Note_on_c, 11, 32, 11013, 89304, Note_off_c, 11, 32, 11013, 89376, Note_on_c, 11, 34, 10013, 89400, Note_off_c, 11, 34, 10013, 89424, Note_on_c, 11, 58, 10013, 89432, Note_on_c, 11, 32, 813, 89448, Note_off_c, 11, 58, 10013, 89456, Note_off_c, 11, 32, 813, 89472, Note_on_c, 11, 32, 11013, 89496, Note_off_c, 11, 32, 11013, 89568, Note_on_c, 11, 34, 10013, 89592, Note_off_c, 11, 34, 10013, 89616, Note_on_c, 11, 58, 10013, 89624, Note_on_c, 11, 32, 813, 89640, Note_off_c, 11, 58, 10013, 89648, Note_off_c, 11, 32, 813, 89664, Note_on_c, 11, 32, 11013, 89688, Note_off_c, 11, 32, 11013, 89760, Note_on_c, 11, 34, 10013, 89784, Note_off_c, 11, 34, 10013, 89808, Note_on_c, 11, 58, 10013, 89816, Note_on_c, 11, 32, 813, 89832, Note_off_c, 11, 58, 10013, 89840, Note_off_c, 11, 32, 813, 89856, Note_on_c, 11, 32, 11013, 89880, Note_off_c, 11, 32, 11013, 89952, Note_on_c, 11, 34, 10013, 89976, Note_off_c, 11, 34, 10013, 90000, Note_on_c, 11, 58, 10013, 90008, Note_on_c, 11, 32, 813, 90024, Note_off_c, 11, 58, 10013, 90032, Note_off_c, 11, 32, 813, 90048, Note_on_c, 11, 32, 11013, 90072, Note_off_c, 11, 32, 11013, 90144, Note_on_c, 11, 34, 10013, 90168, Note_off_c, 11, 34, 10013, 90192, Note_on_c, 11, 58, 10013, 90200, Note_on_c, 11, 32, 813, 90216, Note_off_c, 11, 58, 10013, 90224, Note_off_c, 11, 32, 813, 90240, Note_on_c, 11, 32, 11013, 90264, Note_off_c, 11, 32, 11013, 90336, Note_on_c, 11, 34, 10013, 90360, Note_off_c, 11, 34, 10013, 90384, Note_on_c, 11, 58, 10013, 90392, Note_on_c, 11, 32, 813, 90408, Note_off_c, 11, 58, 10013, 90416, Note_off_c, 11, 32, 813, 90432, Note_on_c, 11, 32, 11013, 90456, Note_off_c, 11, 32, 11013, 90528, Note_on_c, 11, 34, 10013, 90552, Note_off_c, 11, 34, 10013, 90576, Note_on_c, 11, 58, 10013, 90584, Note_on_c, 11, 32, 813, 90600, Note_off_c, 11, 58, 10013, 90608, Note_off_c, 11, 32, 813, 90624, Note_on_c, 11, 32, 11013, 90648, Note_off_c, 11, 32, 11013, 90720, Note_on_c, 11, 34, 10013, 90744, Note_off_c, 11, 34, 10013, 90768, Note_on_c, 11, 58, 10013, 90776, Note_on_c, 11, 32, 813, 90792, Note_off_c, 11, 58, 10013, 90800, Note_off_c, 11, 32, 813, 90816, Note_on_c, 11, 32, 11013, 90840, Note_off_c, 11, 32, 11013, 90912, Note_on_c, 11, 34, 10013, 90936, Note_off_c, 11, 34, 10013, 90960, Note_on_c, 11, 58, 10013, 90968, Note_on_c, 11, 32, 813, 90984, Note_off_c, 11, 58, 10013, 90992, Note_off_c, 11, 32, 813, 91008, Note_on_c, 11, 32, 11013, 91032, Note_off_c, 11, 32, 11013, 91104, Note_on_c, 11, 34, 10013, 91128, Note_off_c, 11, 34, 10013, 91152, Note_on_c, 11, 58, 10013, 91160, Note_on_c, 11, 32, 813, 91176, Note_off_c, 11, 58, 10013, 91184, Note_off_c, 11, 32, 813, 91200, Note_on_c, 11, 32, 11013, 91224, Note_off_c, 11, 32, 11013, 91296, Note_on_c, 11, 34, 10013, 91320, Note_off_c, 11, 34, 10013, 91344, Note_on_c, 11, 58, 10013, 91352, Note_on_c, 11, 32, 813, 91368, Note_off_c, 11, 58, 10013, 91376, Note_off_c, 11, 32, 813, 91392, Note_on_c, 11, 32, 11013, 91416, Note_off_c, 11, 32, 11013, 91488, Note_on_c, 11, 34, 10013, 91512, Note_off_c, 11, 34, 10013, 91536, Note_on_c, 11, 58, 10013, 91544, Note_on_c, 11, 32, 813, 91560, Note_off_c, 11, 58, 10013, 91568, Note_off_c, 11, 32, 813, 91584, Note_on_c, 11, 32, 11013, 91608, Note_off_c, 11, 32, 11013, 91680, Note_on_c, 11, 34, 10013, 91704, Note_off_c, 11, 34, 10013, 91728, Note_on_c, 11, 58, 10013, 91736, Note_on_c, 11, 32, 813, 91752, Note_off_c, 11, 58, 10013, 91760, Note_off_c, 11, 32, 813, 91776, Note_on_c, 11, 32, 11013, 91800, Note_off_c, 11, 32, 11013, 91872, Note_on_c, 11, 34, 10013, 91896, Note_off_c, 11, 34, 10013, 91920, Note_on_c, 11, 58, 10013, 91928, Note_on_c, 11, 32, 813, 91944, Note_off_c, 11, 58, 10013, 91952, Note_off_c, 11, 32, 813, 91968, Note_on_c, 11, 32, 11013, 91992, Note_off_c, 11, 32, 11013, 92064, Note_on_c, 11, 34, 10013, 92088, Note_off_c, 11, 34, 10013, 92112, Note_on_c, 11, 58, 10013, 92120, Note_on_c, 11, 32, 813, 92136, Note_off_c, 11, 58, 10013, 92144, Note_off_c, 11, 32, 813, 92160, Note_on_c, 11, 32, 11013, 92184, Note_off_c, 11, 32, 11013, 92256, Note_on_c, 11, 34, 10013, 92280, Note_off_c, 11, 34, 10013, 92304, Note_on_c, 11, 58, 10013, 92312, Note_on_c, 11, 32, 813, 92328, Note_off_c, 11, 58, 10013, 92336, Note_off_c, 11, 32, 813, 92352, Note_on_c, 11, 32, 11013, 92376, Note_off_c, 11, 32, 11013, 92448, Note_on_c, 11, 34, 10013, 92472, Note_off_c, 11, 34, 10013, 92496, Note_on_c, 11, 58, 10013, 92504, Note_on_c, 11, 32, 813, 92520, Note_off_c, 11, 58, 10013, 92528, Note_off_c, 11, 32, 813, 92544, Note_on_c, 11, 32, 11013, 92568, Note_off_c, 11, 32, 11013, 92640, Note_on_c, 11, 34, 10013, 92664, Note_off_c, 11, 34, 10013, 92688, Note_on_c, 11, 58, 10013, 92696, Note_on_c, 11, 32, 813, 92712, Note_off_c, 11, 58, 10013, 92720, Note_off_c, 11, 32, 813, 92736, Note_on_c, 11, 32, 11013, 92760, Note_off_c, 11, 32, 11013, 92832, Note_on_c, 11, 34, 10013, 92856, Note_off_c, 11, 34, 10013, 92880, Note_on_c, 11, 58, 10013, 92888, Note_on_c, 11, 32, 813, 92904, Note_off_c, 11, 58, 10013, 92912, Note_off_c, 11, 32, 813, 92928, Note_on_c, 11, 32, 11013, 92952, Note_off_c, 11, 32, 11013, 93024, Note_on_c, 11, 34, 10013, 93048, Note_off_c, 11, 34, 10013, 93072, Note_on_c, 11, 58, 10013, 93080, Note_on_c, 11, 32, 813, 93096, Note_off_c, 11, 58, 10013, 93104, Note_off_c, 11, 32, 813, 93120, Note_on_c, 11, 32, 11013, 93144, Note_off_c, 11, 32, 11013, 93216, Note_on_c, 11, 34, 10013, 93240, Note_off_c, 11, 34, 10013, 93264, Note_on_c, 11, 58, 10013, 93272, Note_on_c, 11, 32, 813, 93288, Note_off_c, 11, 58, 10013, 93296, Note_off_c, 11, 32, 813, 93312, Note_on_c, 11, 32, 11013, 93336, Note_off_c, 11, 32, 11013, 93408, Note_on_c, 11, 34, 10013, 93432, Note_off_c, 11, 34, 10013, 93456, Note_on_c, 11, 58, 10013, 93464, Note_on_c, 11, 32, 813, 93480, Note_off_c, 11, 58, 10013, 93488, Note_off_c, 11, 32, 813, 93504, Note_on_c, 11, 32, 11013, 93528, Note_off_c, 11, 32, 11013, 93600, Note_on_c, 11, 34, 10013, 93624, Note_off_c, 11, 34, 10013, 93648, Note_on_c, 11, 58, 10013, 93656, Note_on_c, 11, 32, 813, 93672, Note_off_c, 11, 58, 10013, 93680, Note_off_c, 11, 32, 813, 93696, Note_on_c, 11, 32, 11013, 93720, Note_off_c, 11, 32, 11013, 93792, Note_on_c, 11, 34, 10013, 93816, Note_off_c, 11, 34, 10013, 93840, Note_on_c, 11, 58, 10013, 93848, Note_on_c, 11, 32, 813, 93864, Note_off_c, 11, 58, 10013, 93872, Note_off_c, 11, 32, 813, 93888, Note_on_c, 11, 32, 11013, 93912, Note_off_c, 11, 32, 11013, 93984, Note_on_c, 11, 34, 10013, 94008, Note_off_c, 11, 34, 10013, 94032, Note_on_c, 11, 58, 10013, 94040, Note_on_c, 11, 32, 813, 94056, Note_off_c, 11, 58, 10013, 94064, Note_off_c, 11, 32, 813, 94080, Note_on_c, 11, 32, 11013, 94104, Note_off_c, 11, 32, 11013, 94176, Note_on_c, 11, 34, 10013, 94200, Note_off_c, 11, 34, 10013, 94224, Note_on_c, 11, 58, 10013, 94232, Note_on_c, 11, 32, 813, 94248, Note_off_c, 11, 58, 10013, 94256, Note_off_c, 11, 32, 813, 94272, Note_on_c, 11, 32, 11013, 94296, Note_off_c, 11, 32, 11013, 94368, Note_on_c, 11, 34, 10013, 94392, Note_off_c, 11, 34, 10013, 94416, Note_on_c, 11, 58, 10013, 94424, Note_on_c, 11, 32, 813, 94440, Note_off_c, 11, 58, 10013, 94448, Note_off_c, 11, 32, 813, 94464, Note_on_c, 11, 32, 11013, 94488, Note_off_c, 11, 32, 11013, 94560, Note_on_c, 11, 34, 10013, 94584, Note_off_c, 11, 34, 10013, 94608, Note_on_c, 11, 58, 10013, 94616, Note_on_c, 11, 32, 813, 94632, Note_off_c, 11, 58, 10013, 94640, Note_off_c, 11, 32, 813, 94656, Note_on_c, 11, 32, 11013, 94680, Note_off_c, 11, 32, 11013, 94752, Note_on_c, 11, 34, 10013, 94776, Note_off_c, 11, 34, 10013, 94800, Note_on_c, 11, 58, 10013, 94808, Note_on_c, 11, 32, 813, 94824, Note_off_c, 11, 58, 10013, 94832, Note_off_c, 11, 32, 813, 94848, Note_on_c, 11, 32, 11013, 94872, Note_off_c, 11, 32, 11013, 94944, Note_on_c, 11, 34, 10013, 94968, Note_off_c, 11, 34, 10013, 94992, Note_on_c, 11, 58, 10013, 95000, Note_on_c, 11, 32, 813, 95016, Note_off_c, 11, 58, 10013, 95024, Note_off_c, 11, 32, 813, 95040, Note_on_c, 11, 32, 11013, 95064, Note_off_c, 11, 32, 11013, 95136, Note_on_c, 11, 34, 10013, 95160, Note_off_c, 11, 34, 10013, 95184, Note_on_c, 11, 58, 10013, 95192, Note_on_c, 11, 32, 813, 95208, Note_off_c, 11, 58, 10013, 95216, Note_off_c, 11, 32, 813, 95232, Note_on_c, 11, 32, 11013, 95256, Note_off_c, 11, 32, 11013, 95328, Note_on_c, 11, 34, 10013, 95352, Note_off_c, 11, 34, 10013, 95376, Note_on_c, 11, 58, 10013, 95384, Note_on_c, 11, 32, 813, 95400, Note_off_c, 11, 58, 10013, 95408, Note_off_c, 11, 32, 813, 95424, Note_on_c, 11, 32, 11013, 95448, Note_off_c, 11, 32, 11013, 95520, Note_on_c, 11, 34, 10013, 95544, Note_off_c, 11, 34, 10013, 95568, Note_on_c, 11, 58, 10013, 95576, Note_on_c, 11, 32, 813, 95592, Note_off_c, 11, 58, 10013, 95600, Note_off_c, 11, 32, 813, 95616, Note_on_c, 11, 32, 11013, 95640, Note_off_c, 11, 32, 11013, 95712, Note_on_c, 11, 34, 10013, 95736, Note_off_c, 11, 34, 10013, 95760, Note_on_c, 11, 58, 10013, 95768, Note_on_c, 11, 32, 813, 95784, Note_off_c, 11, 58, 10013, 95792, Note_off_c, 11, 32, 813, 95808, Note_on_c, 11, 32, 11013, 95832, Note_off_c, 11, 32, 11013, 95904, Note_on_c, 11, 34, 10013, 95928, Note_off_c, 11, 34, 10013, 95952, Note_on_c, 11, 58, 10013, 95960, Note_on_c, 11, 32, 813, 95976, Note_off_c, 11, 58, 10013, 95984, Note_off_c, 11, 32, 813, 96000, Note_on_c, 11, 32, 11013, 96024, Note_off_c, 11, 32, 11013, 96096, Note_on_c, 11, 34, 10013, 96120, Note_off_c, 11, 34, 10013, 96144, Note_on_c, 11, 58, 10013, 96152, Note_on_c, 11, 32, 813, 96168, Note_off_c, 11, 58, 10013, 96176, Note_off_c, 11, 32, 813, 96192, Note_on_c, 11, 32, 11013, 96216, Note_off_c, 11, 32, 11013, 96288, Note_on_c, 11, 34, 10013, 96312, Note_off_c, 11, 34, 10013, 96336, Note_on_c, 11, 58, 10013, 96344, Note_on_c, 11, 32, 813, 96360, Note_off_c, 11, 58, 10013, 96368, Note_off_c, 11, 32, 813, 96384, Note_on_c, 11, 32, 11013, 96408, Note_off_c, 11, 32, 11013, 96480, Note_on_c, 11, 34, 10013, 96504, Note_off_c, 11, 34, 10013, 96528, Note_on_c, 11, 58, 10013, 96536, Note_on_c, 11, 32, 813, 96552, Note_off_c, 11, 58, 10013, 96560, Note_off_c, 11, 32, 813, 96576, Note_on_c, 11, 32, 11013, 96600, Note_off_c, 11, 32, 11013, 96672, Note_on_c, 11, 34, 10013, 96696, Note_off_c, 11, 34, 10013, 96720, Note_on_c, 11, 58, 10013, 96728, Note_on_c, 11, 32, 813, 96744, Note_off_c, 11, 58, 10013, 96752, Note_off_c, 11, 32, 813, 96768, Note_on_c, 11, 32, 11013, 96792, Note_off_c, 11, 32, 11013, 96864, Note_on_c, 11, 34, 10013, 96888, Note_off_c, 11, 34, 10013, 96912, Note_on_c, 11, 58, 10013, 96920, Note_on_c, 11, 32, 813, 96936, Note_off_c, 11, 58, 10013, 96944, Note_off_c, 11, 32, 813, 96960, Note_on_c, 11, 32, 11013, 96984, Note_off_c, 11, 32, 11013, 97056, Note_on_c, 11, 34, 10013, 97080, Note_off_c, 11, 34, 10013, 97104, Note_on_c, 11, 58, 10013, 97112, Note_on_c, 11, 32, 813, 97128, Note_off_c, 11, 58, 10013, 97136, Note_off_c, 11, 32, 813, 97152, Note_on_c, 11, 32, 11013, 97176, Note_off_c, 11, 32, 11013, 97248, Note_on_c, 11, 34, 10013, 97272, Note_off_c, 11, 34, 10013, 97296, Note_on_c, 11, 58, 10013, 97304, Note_on_c, 11, 32, 813, 97320, Note_off_c, 11, 58, 10013, 97328, Note_off_c, 11, 32, 813, 97344, Note_on_c, 11, 32, 11013, 97368, Note_off_c, 11, 32, 11013, 97440, Note_on_c, 11, 34, 10013, 97464, Note_off_c, 11, 34, 10013, 97488, Note_on_c, 11, 58, 10013, 97496, Note_on_c, 11, 32, 813, 97512, Note_off_c, 11, 58, 10013, 97520, Note_off_c, 11, 32, 813, 97536, Note_on_c, 11, 32, 11013, 97560, Note_off_c, 11, 32, 11013, 97632, Note_on_c, 11, 34, 10013, 97656, Note_off_c, 11, 34, 10013, 97680, Note_on_c, 11, 58, 10013, 97688, Note_on_c, 11, 32, 813, 97704, Note_off_c, 11, 58, 10013, 97712, Note_off_c, 11, 32, 813, 97728, Note_on_c, 11, 32, 11013, 97752, Note_off_c, 11, 32, 11013, 97824, Note_on_c, 11, 34, 10013, 97848, Note_off_c, 11, 34, 10013, 97872, Note_on_c, 11, 58, 10013, 97880, Note_on_c, 11, 32, 813, 97896, Note_off_c, 11, 58, 10013, 97904, Note_off_c, 11, 32, 813, 97920, Note_on_c, 11, 32, 11013, 97944, Note_off_c, 11, 32, 11013, 98016, Note_on_c, 11, 34, 10013, 98040, Note_off_c, 11, 34, 10013, 98064, Note_on_c, 11, 58, 10013, 98072, Note_on_c, 11, 32, 813, 98088, Note_off_c, 11, 58, 10013, 98096, Note_off_c, 11, 32, 813, 98112, Note_on_c, 11, 32, 11013, 98136, Note_off_c, 11, 32, 11013, 98208, Note_on_c, 11, 34, 10013, 98232, Note_off_c, 11, 34, 10013, 98256, Note_on_c, 11, 58, 10013, 98264, Note_on_c, 11, 32, 813, 98280, Note_off_c, 11, 58, 10013, 98288, Note_off_c, 11, 32, 813, 98304, Note_on_c, 11, 32, 11013, 98328, Note_off_c, 11, 32, 11013, 98400, Note_on_c, 11, 34, 10013, 98424, Note_off_c, 11, 34, 10013, 98448, Note_on_c, 11, 58, 10013, 98456, Note_on_c, 11, 32, 813, 98472, Note_off_c, 11, 58, 10013, 98480, Note_off_c, 11, 32, 813, 98496, Note_on_c, 11, 32, 11013, 98520, Note_off_c, 11, 32, 11013, 98592, Note_on_c, 11, 34, 10013, 98616, Note_off_c, 11, 34, 10013, 98640, Note_on_c, 11, 58, 10013, 98648, Note_on_c, 11, 32, 813, 98664, Note_off_c, 11, 58, 10013, 98672, Note_off_c, 11, 32, 813, 98688, Note_on_c, 11, 32, 11013, 98712, Note_off_c, 11, 32, 11013, 98784, Note_on_c, 11, 34, 10013, 98808, Note_off_c, 11, 34, 10013, 98832, Note_on_c, 11, 58, 10013, 98840, Note_on_c, 11, 32, 813, 98856, Note_off_c, 11, 58, 10013, 98864, Note_off_c, 11, 32, 813, 98880, Note_on_c, 11, 32, 11013, 98904, Note_off_c, 11, 32, 11013, 98976, Note_on_c, 11, 34, 10013, 99000, Note_off_c, 11, 34, 10013, 99024, Note_on_c, 11, 58, 10013, 99032, Note_on_c, 11, 32, 813, 99048, Note_off_c, 11, 58, 10013, 99056, Note_off_c, 11, 32, 813, 99072, Note_on_c, 11, 32, 11013, 99096, Note_off_c, 11, 32, 11013, 99168, Note_on_c, 11, 34, 10013, 99192, Note_off_c, 11, 34, 10013, 99216, Note_on_c, 11, 58, 10013, 99224, Note_on_c, 11, 32, 813, 99240, Note_off_c, 11, 58, 10013, 99248, Note_off_c, 11, 32, 813, 99264, Note_on_c, 11, 32, 11013, 99288, Note_off_c, 11, 32, 11013, 99360, Note_on_c, 11, 34, 10013, 99384, Note_off_c, 11, 34, 10013, 99408, Note_on_c, 11, 58, 10013, 99416, Note_on_c, 11, 32, 813, 99432, Note_off_c, 11, 58, 10013, 99440, Note_off_c, 11, 32, 813, 99456, Note_on_c, 11, 32, 11013, 99480, Note_off_c, 11, 32, 11013, 99552, Note_on_c, 11, 34, 10013, 99576, Note_off_c, 11, 34, 10013, 99600, Note_on_c, 11, 58, 10013, 99608, Note_on_c, 11, 32, 813, 99624, Note_off_c, 11, 58, 10013, 99632, Note_off_c, 11, 32, 813, 99648, Note_on_c, 11, 32, 11013, 99672, Note_off_c, 11, 32, 11013, 99744, Note_on_c, 11, 34, 10013, 99768, Note_off_c, 11, 34, 10013, 99792, Note_on_c, 11, 58, 10013, 99800, Note_on_c, 11, 32, 813, 99816, Note_off_c, 11, 58, 10013, 99824, Note_off_c, 11, 32, 813, 99840, Note_on_c, 11, 32, 11013, 99864, Note_off_c, 11, 32, 11013, 99936, Note_on_c, 11, 34, 10013, 99960, Note_off_c, 11, 34, 10013, 99984, Note_on_c, 11, 58, 10013, 99992, Note_on_c, 11, 32, 813, 100008, Note_off_c, 11, 58, 10013, 100016, Note_off_c, 11, 32, 813, 100032, Note_on_c, 11, 32, 11013, 100056, Note_off_c, 11, 32, 11013, 100128, Note_on_c, 11, 34, 10013, 100152, Note_off_c, 11, 34, 10013, 100176, Note_on_c, 11, 58, 10013, 100184, Note_on_c, 11, 32, 813, 100200, Note_off_c, 11, 58, 10013, 100208, Note_off_c, 11, 32, 813, 100224, Note_on_c, 11, 32, 11013, 100248, Note_off_c, 11, 32, 11013, 100320, Note_on_c, 11, 34, 10013, 100344, Note_off_c, 11, 34, 10013, 100368, Note_on_c, 11, 58, 10013, 100376, Note_on_c, 11, 32, 813, 100392, Note_off_c, 11, 58, 10013, 100400, Note_off_c, 11, 32, 813, 100416, Note_on_c, 11, 32, 11013, 100440, Note_off_c, 11, 32, 11013, 100512, Note_on_c, 11, 34, 10013, 100536, Note_off_c, 11, 34, 10013, 100560, Note_on_c, 11, 58, 10013, 100568, Note_on_c, 11, 32, 813, 100584, Note_off_c, 11, 58, 10013, 100592, Note_off_c, 11, 32, 813, 100608, Note_on_c, 11, 32, 11013, 100632, Note_off_c, 11, 32, 11013, 100704, Note_on_c, 11, 34, 10013, 100728, Note_off_c, 11, 34, 10013, 100752, Note_on_c, 11, 58, 10013, 100760, Note_on_c, 11, 32, 813, 100776, Note_off_c, 11, 58, 10013, 100784, Note_off_c, 11, 32, 813, 100800, Note_on_c, 11, 32, 11013, 100824, Note_off_c, 11, 32, 11013, 100896, Note_on_c, 11, 34, 10013, 100920, Note_off_c, 11, 34, 10013, 100944, Note_on_c, 11, 58, 10013, 100952, Note_on_c, 11, 32, 813, 100968, Note_off_c, 11, 58, 10013, 100976, Note_off_c, 11, 32, 813, 100992, Note_on_c, 11, 32, 11013, 101016, Note_off_c, 11, 32, 11013, 101088, Note_on_c, 11, 34, 10013, 101112, Note_off_c, 11, 34, 10013, 101136, Note_on_c, 11, 58, 10013, 101144, Note_on_c, 11, 32, 813, 101160, Note_off_c, 11, 58, 10013, 101168, Note_off_c, 11, 32, 813, 101184, Note_on_c, 11, 32, 11013, 101208, Note_off_c, 11, 32, 11013, 101280, Note_on_c, 11, 34, 10013, 101304, Note_off_c, 11, 34, 10013, 101328, Note_on_c, 11, 58, 10013, 101336, Note_on_c, 11, 32, 813, 101352, Note_off_c, 11, 58, 10013, 101360, Note_off_c, 11, 32, 813, 101376, Note_on_c, 11, 32, 11013, 101400, Note_off_c, 11, 32, 11013, 101472, Note_on_c, 11, 34, 10013, 101496, Note_off_c, 11, 34, 10013, 101520, Note_on_c, 11, 58, 10013, 101528, Note_on_c, 11, 32, 813, 101544, Note_off_c, 11, 58, 10013, 101552, Note_off_c, 11, 32, 813, 101568, Note_on_c, 11, 32, 11013, 101592, Note_off_c, 11, 32, 11013, 101664, Note_on_c, 11, 34, 10013, 101688, Note_off_c, 11, 34, 10013, 101712, Note_on_c, 11, 58, 10013, 101720, Note_on_c, 11, 32, 813, 101736, Note_off_c, 11, 58, 10013, 101744, Note_off_c, 11, 32, 813, 101760, Note_on_c, 11, 32, 11013, 101784, Note_off_c, 11, 32, 11013, 101856, Note_on_c, 11, 34, 10013, 101880, Note_off_c, 11, 34, 10013, 101904, Note_on_c, 11, 58, 10013, 101912, Note_on_c, 11, 32, 813, 101928, Note_off_c, 11, 58, 10013, 101936, Note_off_c, 11, 32, 813, 101952, Note_on_c, 11, 32, 11013, 101976, Note_off_c, 11, 32, 11013, 102048, Note_on_c, 11, 34, 10013, 102072, Note_off_c, 11, 34, 10013, 102096, Note_on_c, 11, 58, 10013, 102104, Note_on_c, 11, 32, 813, 102120, Note_off_c, 11, 58, 10013, 102128, Note_off_c, 11, 32, 813, 102144, Note_on_c, 11, 32, 11013, 102168, Note_off_c, 11, 32, 11013, 102240, Note_on_c, 11, 34, 10013, 102264, Note_off_c, 11, 34, 10013, 102288, Note_on_c, 11, 58, 10013, 102296, Note_on_c, 11, 32, 813, 102312, Note_off_c, 11, 58, 10013, 102320, Note_off_c, 11, 32, 813, 102336, Note_on_c, 11, 32, 11013, 102360, Note_off_c, 11, 32, 11013, 102432, Note_on_c, 11, 34, 10013, 102456, Note_off_c, 11, 34, 10013, 102480, Note_on_c, 11, 58, 10013, 102488, Note_on_c, 11, 32, 813, 102504, Note_off_c, 11, 58, 10013, 102512, Note_off_c, 11, 32, 813, 102528, Note_on_c, 11, 32, 11013, 102552, Note_off_c, 11, 32, 11013, 102624, Note_on_c, 11, 34, 10013, 102648, Note_off_c, 11, 34, 10013, 102672, Note_on_c, 11, 58, 10013, 102680, Note_on_c, 11, 32, 813, 102696, Note_off_c, 11, 58, 10013, 102704, Note_off_c, 11, 32, 813, 102720, Note_on_c, 11, 32, 11013, 102744, Note_off_c, 11, 32, 11013, 102816, Note_on_c, 11, 34, 10013, 102840, Note_off_c, 11, 34, 10013, 102864, Note_on_c, 11, 58, 10013, 102872, Note_on_c, 11, 32, 813, 102888, Note_off_c, 11, 58, 10013, 102896, Note_off_c, 11, 32, 813, 102912, Note_on_c, 11, 32, 11013, 102936, Note_off_c, 11, 32, 11013, 103008, Note_on_c, 11, 34, 10013, 103032, Note_off_c, 11, 34, 10013, 103056, Note_on_c, 11, 58, 10013, 103064, Note_on_c, 11, 32, 813, 103080, Note_off_c, 11, 58, 10013, 103088, Note_off_c, 11, 32, 813, 103104, Note_on_c, 11, 32, 11013, 103128, Note_off_c, 11, 32, 11013, 103200, Note_on_c, 11, 34, 10013, 103224, Note_off_c, 11, 34, 10013, 103248, Note_on_c, 11, 58, 10013, 103256, Note_on_c, 11, 32, 813, 103272, Note_off_c, 11, 58, 10013, 103280, Note_off_c, 11, 32, 813, 103296, Note_on_c, 11, 32, 11013, 103320, Note_off_c, 11, 32, 11013, 103392, Note_on_c, 11, 34, 10013, 103416, Note_off_c, 11, 34, 10013, 103440, Note_on_c, 11, 58, 10013, 103448, Note_on_c, 11, 32, 813, 103464, Note_off_c, 11, 58, 10013, 103472, Note_off_c, 11, 32, 813, 103488, Note_on_c, 11, 32, 11013, 103512, Note_off_c, 11, 32, 11013, 103584, Note_on_c, 11, 34, 10013, 103608, Note_off_c, 11, 34, 10013, 103632, Note_on_c, 11, 58, 10013, 103640, Note_on_c, 11, 32, 813, 103656, Note_off_c, 11, 58, 10013, 103664, Note_off_c, 11, 32, 813, 103680, Note_on_c, 11, 32, 11013, 103704, Note_off_c, 11, 32, 11013, 103776, Note_on_c, 11, 34, 10013, 103800, Note_off_c, 11, 34, 10013, 103824, Note_on_c, 11, 58, 10013, 103832, Note_on_c, 11, 32, 813, 103848, Note_off_c, 11, 58, 10013, 103856, Note_off_c, 11, 32, 813, 103872, Note_on_c, 11, 32, 11013, 103896, Note_off_c, 11, 32, 11013, 103968, Note_on_c, 11, 34, 10013, 103992, Note_off_c, 11, 34, 10013, 104016, Note_on_c, 11, 58, 10013, 104024, Note_on_c, 11, 32, 813, 104040, Note_off_c, 11, 58, 10013, 104048, Note_off_c, 11, 32, 813, 104064, Note_on_c, 11, 32, 11013, 104088, Note_off_c, 11, 32, 11013, 104160, Note_on_c, 11, 34, 10013, 104184, Note_off_c, 11, 34, 10013, 104208, Note_on_c, 11, 58, 10013, 104216, Note_on_c, 11, 32, 813, 104232, Note_off_c, 11, 58, 10013, 104240, Note_off_c, 11, 32, 813, 104256, Note_on_c, 11, 32, 11013, 104280, Note_off_c, 11, 32, 11013, 104352, Note_on_c, 11, 34, 10013, 104376, Note_off_c, 11, 34, 10013, 104400, Note_on_c, 11, 58, 10013, 104408, Note_on_c, 11, 32, 813, 104424, Note_off_c, 11, 58, 10013, 104432, Note_off_c, 11, 32, 813, 104448, Note_on_c, 11, 32, 11013, 104472, Note_off_c, 11, 32, 11013, 104544, Note_on_c, 11, 34, 10013, 104568, Note_off_c, 11, 34, 10013, 104592, Note_on_c, 11, 58, 10013, 104600, Note_on_c, 11, 32, 813, 104616, Note_off_c, 11, 58, 10013, 104624, Note_off_c, 11, 32, 813, 104640, Note_on_c, 11, 32, 11013, 104664, Note_off_c, 11, 32, 11013, 104736, Note_on_c, 11, 34, 10013, 104760, Note_off_c, 11, 34, 10013, 104784, Note_on_c, 11, 58, 10013, 104792, Note_on_c, 11, 32, 813, 104808, Note_off_c, 11, 58, 10013, 104816, Note_off_c, 11, 32, 813, 104832, Note_on_c, 11, 32, 11013, 104856, Note_off_c, 11, 32, 11013, 104928, Note_on_c, 11, 34, 10013, 104952, Note_off_c, 11, 34, 10013, 104976, Note_on_c, 11, 58, 10013, 104984, Note_on_c, 11, 32, 813, 105000, Note_off_c, 11, 58, 10013, 105008, Note_off_c, 11, 32, 813, 105024, Note_on_c, 11, 32, 11013, 105048, Note_off_c, 11, 32, 11013, 105120, Note_on_c, 11, 34, 10013, 105144, Note_off_c, 11, 34, 10013, 105168, Note_on_c, 11, 58, 10013, 105176, Note_on_c, 11, 32, 813, 105192, Note_off_c, 11, 58, 10013, 105200, Note_off_c, 11, 32, 813, 105216, Note_on_c, 11, 32, 11013, 105240, Note_off_c, 11, 32, 11013, 105312, Note_on_c, 11, 34, 10013, 105336, Note_off_c, 11, 34, 10013, 105360, Note_on_c, 11, 58, 10013, 105368, Note_on_c, 11, 32, 813, 105384, Note_off_c, 11, 58, 10013, 105392, Note_off_c, 11, 32, 813, 105408, Note_on_c, 11, 32, 11013, 105432, Note_off_c, 11, 32, 11013, 105504, Note_on_c, 11, 34, 10013, 105528, Note_off_c, 11, 34, 10013, 105552, Note_on_c, 11, 58, 10013, 105560, Note_on_c, 11, 32, 813, 105576, Note_off_c, 11, 58, 10013, 105584, Note_off_c, 11, 32, 813, 105600, Note_on_c, 11, 32, 11013, 105624, Note_off_c, 11, 32, 11013, 105696, Note_on_c, 11, 34, 10013, 105720, Note_off_c, 11, 34, 10013, 105744, Note_on_c, 11, 58, 10013, 105752, Note_on_c, 11, 32, 813, 105768, Note_off_c, 11, 58, 10013, 105776, Note_off_c, 11, 32, 813, 105792, Note_on_c, 11, 32, 11013, 105816, Note_off_c, 11, 32, 11013, 105888, Note_on_c, 11, 34, 10013, 105912, Note_off_c, 11, 34, 10013, 105936, Note_on_c, 11, 58, 10013, 105944, Note_on_c, 11, 32, 813, 105960, Note_off_c, 11, 58, 10013, 105968, Note_off_c, 11, 32, 813, 105984, Note_on_c, 11, 32, 11013, 106008, Note_off_c, 11, 32, 11013, 106080, Note_on_c, 11, 34, 10013, 106104, Note_off_c, 11, 34, 10013, 106128, Note_on_c, 11, 58, 10013, 106136, Note_on_c, 11, 32, 813, 106152, Note_off_c, 11, 58, 10013, 106160, Note_off_c, 11, 32, 813, 106176, Note_on_c, 11, 32, 11013, 106200, Note_off_c, 11, 32, 11013, 106272, Note_on_c, 11, 34, 10013, 106296, Note_off_c, 11, 34, 10013, 106320, Note_on_c, 11, 58, 10013, 106328, Note_on_c, 11, 32, 813, 106344, Note_off_c, 11, 58, 10013, 106352, Note_off_c, 11, 32, 813, 106368, Note_on_c, 11, 32, 11013, 106392, Note_off_c, 11, 32, 11013, 106464, Note_on_c, 11, 34, 10013, 106488, Note_off_c, 11, 34, 10013, 106512, Note_on_c, 11, 58, 10013, 106520, Note_on_c, 11, 32, 813, 106536, Note_off_c, 11, 58, 10013, 106544, Note_off_c, 11, 32, 813, 106560, Note_on_c, 11, 32, 11013, 106584, Note_off_c, 11, 32, 11013, 106656, Note_on_c, 11, 34, 10013, 106680, Note_off_c, 11, 34, 10013, 106704, Note_on_c, 11, 58, 10013, 106712, Note_on_c, 11, 32, 813, 106728, Note_off_c, 11, 58, 10013, 106736, Note_off_c, 11, 32, 813, 106752, Note_on_c, 11, 32, 11013, 106776, Note_off_c, 11, 32, 11013, 106848, Note_on_c, 11, 34, 10013, 106872, Note_off_c, 11, 34, 10013, 106896, Note_on_c, 11, 58, 10013, 106904, Note_on_c, 11, 32, 813, 106920, Note_off_c, 11, 58, 10013, 106928, Note_off_c, 11, 32, 813, 106944, Note_on_c, 11, 32, 11013, 106968, Note_off_c, 11, 32, 11013, 107040, Note_on_c, 11, 34, 10013, 107064, Note_off_c, 11, 34, 10013, 107088, Note_on_c, 11, 58, 10013, 107096, Note_on_c, 11, 32, 813, 107112, Note_off_c, 11, 58, 10013, 107120, Note_off_c, 11, 32, 813, 107136, Note_on_c, 11, 32, 11013, 107160, Note_off_c, 11, 32, 11013, 107232, Note_on_c, 11, 34, 10013, 107256, Note_off_c, 11, 34, 10013, 107280, Note_on_c, 11, 58, 10013, 107288, Note_on_c, 11, 32, 813, 107304, Note_off_c, 11, 58, 10013, 107312, Note_off_c, 11, 32, 813, 107328, Note_on_c, 11, 32, 11013, 107352, Note_off_c, 11, 32, 11013, 107424, Note_on_c, 11, 34, 10013, 107448, Note_off_c, 11, 34, 10013, 107472, Note_on_c, 11, 58, 10013, 107480, Note_on_c, 11, 32, 813, 107496, Note_off_c, 11, 58, 10013, 107504, Note_off_c, 11, 32, 813, 107520, Note_on_c, 11, 32, 11013, 107544, Note_off_c, 11, 32, 11013, 107616, Note_on_c, 11, 34, 10013, 107640, Note_off_c, 11, 34, 10013, 107664, Note_on_c, 11, 58, 10013, 107672, Note_on_c, 11, 32, 813, 107688, Note_off_c, 11, 58, 10013, 107696, Note_off_c, 11, 32, 813, 107712, Note_on_c, 11, 32, 11013, 107736, Note_off_c, 11, 32, 11013, 107808, Note_on_c, 11, 34, 10013, 107832, Note_off_c, 11, 34, 10013, 107856, Note_on_c, 11, 58, 10013, 107864, Note_on_c, 11, 32, 813, 107880, Note_off_c, 11, 58, 10013, 107888, Note_off_c, 11, 32, 813, 107904, Note_on_c, 11, 32, 11013, 107928, Note_off_c, 11, 32, 11013, 108000, Note_on_c, 11, 34, 10013, 108024, Note_off_c, 11, 34, 10013, 108048, Note_on_c, 11, 58, 10013, 108056, Note_on_c, 11, 32, 813, 108072, Note_off_c, 11, 58, 10013, 108080, Note_off_c, 11, 32, 813, 108096, Note_on_c, 11, 32, 11013, 108120, Note_off_c, 11, 32, 11013, 108192, Note_on_c, 11, 34, 10013, 108216, Note_off_c, 11, 34, 10013, 108240, Note_on_c, 11, 58, 10013, 108248, Note_on_c, 11, 32, 813, 108264, Note_off_c, 11, 58, 10013, 108272, Note_off_c, 11, 32, 813, 108288, Note_on_c, 11, 32, 11013, 108312, Note_off_c, 11, 32, 11013, 108384, Note_on_c, 11, 34, 10013, 108408, Note_off_c, 11, 34, 10013, 108432, Note_on_c, 11, 58, 10013, 108440, Note_on_c, 11, 32, 813, 108456, Note_off_c, 11, 58, 10013, 108464, Note_off_c, 11, 32, 813, 108480, Note_on_c, 11, 32, 11013, 108504, Note_off_c, 11, 32, 11013, 108576, Note_on_c, 11, 34, 10013, 108600, Note_off_c, 11, 34, 10013, 108624, Note_on_c, 11, 58, 10013, 108632, Note_on_c, 11, 32, 813, 108648, Note_off_c, 11, 58, 10013, 108656, Note_off_c, 11, 32, 813, 108672, Note_on_c, 11, 32, 11013, 108696, Note_off_c, 11, 32, 11013, 108768, Note_on_c, 11, 34, 10013, 108792, Note_off_c, 11, 34, 10013, 108816, Note_on_c, 11, 58, 10013, 108824, Note_on_c, 11, 32, 813, 108840, Note_off_c, 11, 58, 10013, 108848, Note_off_c, 11, 32, 813, 108864, Note_on_c, 11, 32, 11013, 108888, Note_off_c, 11, 32, 11013, 108960, Note_on_c, 11, 34, 10013, 108984, Note_off_c, 11, 34, 10013, 109008, Note_on_c, 11, 58, 10013, 109016, Note_on_c, 11, 32, 813, 109032, Note_off_c, 11, 58, 10013, 109040, Note_off_c, 11, 32, 813, 109056, Note_on_c, 11, 32, 11013, 109080, Note_off_c, 11, 32, 11013, 109152, Note_on_c, 11, 34, 10013, 109176, Note_off_c, 11, 34, 10013, 109200, Note_on_c, 11, 58, 10013, 109208, Note_on_c, 11, 32, 813, 109224, Note_off_c, 11, 58, 10013, 109232, Note_off_c, 11, 32, 813, 109248, Note_on_c, 11, 32, 11013, 109272, Note_off_c, 11, 32, 11013, 109344, Note_on_c, 11, 34, 10013, 109368, Note_off_c, 11, 34, 10013, 109392, Note_on_c, 11, 58, 10013, 109400, Note_on_c, 11, 32, 813, 109416, Note_off_c, 11, 58, 10013, 109424, Note_off_c, 11, 32, 813, 109440, Note_on_c, 11, 32, 11013, 109464, Note_off_c, 11, 32, 11013, 109536, Note_on_c, 11, 34, 10013, 109560, Note_off_c, 11, 34, 10013, 109584, Note_on_c, 11, 58, 10013, 109592, Note_on_c, 11, 32, 813, 109608, Note_off_c, 11, 58, 10013, 109616, Note_off_c, 11, 32, 813, 109632, Note_on_c, 11, 32, 11013, 109656, Note_off_c, 11, 32, 11013, 109728, Note_on_c, 11, 34, 10013, 109752, Note_off_c, 11, 34, 10013, 109776, Note_on_c, 11, 58, 10013, 109784, Note_on_c, 11, 32, 813, 109800, Note_off_c, 11, 58, 10013, 109808, Note_off_c, 11, 32, 813, 109824, Note_on_c, 11, 32, 11013, 109848, Note_off_c, 11, 32, 11013, 109920, Note_on_c, 11, 34, 10013, 109944, Note_off_c, 11, 34, 10013, 109968, Note_on_c, 11, 58, 10013, 109976, Note_on_c, 11, 32, 813, 109992, Note_off_c, 11, 58, 10013, 110000, Note_off_c, 11, 32, 813, 110016, Note_on_c, 11, 32, 11013, 110040, Note_off_c, 11, 32, 11013, 110112, Note_on_c, 11, 34, 10013, 110136, Note_off_c, 11, 34, 10013, 110160, Note_on_c, 11, 58, 10013, 110168, Note_on_c, 11, 32, 813, 110184, Note_off_c, 11, 58, 10013, 110192, Note_off_c, 11, 32, 813, 110208, Note_on_c, 11, 32, 11013, 110232, Note_off_c, 11, 32, 11013, 110304, Note_on_c, 11, 34, 10013, 110328, Note_off_c, 11, 34, 10013, 110352, Note_on_c, 11, 58, 10013, 110360, Note_on_c, 11, 32, 813, 110376, Note_off_c, 11, 58, 10013, 110384, Note_off_c, 11, 32, 813, 110400, Note_on_c, 11, 32, 11013, 110424, Note_off_c, 11, 32, 11013, 110496, Note_on_c, 11, 34, 10013, 110520, Note_off_c, 11, 34, 10013, 110544, Note_on_c, 11, 58, 10013, 110552, Note_on_c, 11, 32, 813, 110568, Note_off_c, 11, 58, 10013, 110576, Note_off_c, 11, 32, 813, 110592, Note_on_c, 11, 32, 11013, 110616, Note_off_c, 11, 32, 11013, 110688, Note_on_c, 11, 34, 10013, 110712, Note_off_c, 11, 34, 10013, 110736, Note_on_c, 11, 58, 10013, 110744, Note_on_c, 11, 32, 813, 110760, Note_off_c, 11, 58, 10013, 110768, Note_off_c, 11, 32, 813, 110784, Note_on_c, 11, 32, 11013, 110808, Note_off_c, 11, 32, 11013, 110880, Note_on_c, 11, 34, 10013, 110904, Note_off_c, 11, 34, 10013, 110928, Note_on_c, 11, 58, 10013, 110936, Note_on_c, 11, 32, 813, 110952, Note_off_c, 11, 58, 10013, 110960, Note_off_c, 11, 32, 813, 110976, Note_on_c, 11, 32, 11013, 111000, Note_off_c, 11, 32, 11013, 111072, Note_on_c, 11, 34, 10013, 111096, Note_off_c, 11, 34, 10013, 111120, Note_on_c, 11, 58, 10013, 111128, Note_on_c, 11, 32, 813, 111144, Note_off_c, 11, 58, 10013, 111152, Note_off_c, 11, 32, 813, 111168, Note_on_c, 11, 32, 11013, 111192, Note_off_c, 11, 32, 11013, 111264, Note_on_c, 11, 34, 10013, 111288, Note_off_c, 11, 34, 10013, 111312, Note_on_c, 11, 58, 10013, 111320, Note_on_c, 11, 32, 813, 111336, Note_off_c, 11, 58, 10013, 111344, Note_off_c, 11, 32, 813, 111360, Note_on_c, 11, 32, 11013, 111384, Note_off_c, 11, 32, 11013, 111456, Note_on_c, 11, 34, 10013, 111480, Note_off_c, 11, 34, 10013, 111504, Note_on_c, 11, 58, 10013, 111512, Note_on_c, 11, 32, 813, 111528, Note_off_c, 11, 58, 10013, 111536, Note_off_c, 11, 32, 813, 111552, Note_on_c, 11, 32, 11013, 111576, Note_off_c, 11, 32, 11013, 111648, Note_on_c, 11, 34, 10013, 111672, Note_off_c, 11, 34, 10013, 111696, Note_on_c, 11, 58, 10013, 111704, Note_on_c, 11, 32, 813, 111720, Note_off_c, 11, 58, 10013, 111728, Note_off_c, 11, 32, 813, 111744, Note_on_c, 11, 32, 11013, 111768, Note_off_c, 11, 32, 11013, 111840, Note_on_c, 11, 34, 10013, 111864, Note_off_c, 11, 34, 10013, 111888, Note_on_c, 11, 58, 10013, 111896, Note_on_c, 11, 32, 813, 111912, Note_off_c, 11, 58, 10013, 111920, Note_off_c, 11, 32, 813, 111936, Note_on_c, 11, 32, 11013, 111960, Note_off_c, 11, 32, 11013, 112032, Note_on_c, 11, 34, 10013, 112056, Note_off_c, 11, 34, 10013, 112080, Note_on_c, 11, 58, 10013, 112088, Note_on_c, 11, 32, 813, 112104, Note_off_c, 11, 58, 10013, 112112, Note_off_c, 11, 32, 813, 112128, Note_on_c, 11, 32, 11013, 112152, Note_off_c, 11, 32, 11013, 112224, Note_on_c, 11, 34, 10013, 112248, Note_off_c, 11, 34, 10013, 112272, Note_on_c, 11, 58, 10013, 112280, Note_on_c, 11, 32, 813, 112296, Note_off_c, 11, 58, 10013, 112304, Note_off_c, 11, 32, 813, 112320, Note_on_c, 11, 32, 11013, 112344, Note_off_c, 11, 32, 11013, 112416, Note_on_c, 11, 34, 10013, 112440, Note_off_c, 11, 34, 10013, 112464, Note_on_c, 11, 58, 10013, 112472, Note_on_c, 11, 32, 813, 112488, Note_off_c, 11, 58, 10013, 112496, Note_off_c, 11, 32, 813, 112512, Note_on_c, 11, 32, 11013, 112536, Note_off_c, 11, 32, 11013, 112608, Note_on_c, 11, 34, 10013, 112632, Note_off_c, 11, 34, 10013, 112656, Note_on_c, 11, 58, 10013, 112664, Note_on_c, 11, 32, 813, 112680, Note_off_c, 11, 58, 10013, 112688, Note_off_c, 11, 32, 813, 112704, Note_on_c, 11, 32, 11013, 112728, Note_off_c, 11, 32, 11013, 112800, Note_on_c, 11, 34, 10013, 112824, Note_off_c, 11, 34, 10013, 112848, Note_on_c, 11, 58, 10013, 112856, Note_on_c, 11, 32, 813, 112872, Note_off_c, 11, 58, 10013, 112880, Note_off_c, 11, 32, 813, 112896, Note_on_c, 11, 32, 11013, 112920, Note_off_c, 11, 32, 11013, 112992, Note_on_c, 11, 34, 10013, 113016, Note_off_c, 11, 34, 10013, 113040, Note_on_c, 11, 58, 10013, 113048, Note_on_c, 11, 32, 813, 113064, Note_off_c, 11, 58, 10013, 113072, Note_off_c, 11, 32, 813, 113088, Note_on_c, 11, 32, 11013, 113112, Note_off_c, 11, 32, 11013, 113184, Note_on_c, 11, 34, 10013, 113208, Note_off_c, 11, 34, 10013, 113232, Note_on_c, 11, 58, 10013, 113240, Note_on_c, 11, 32, 813, 113256, Note_off_c, 11, 58, 10013, 113264, Note_off_c, 11, 32, 813, 113280, Note_on_c, 11, 32, 11013, 113304, Note_off_c, 11, 32, 11013, 113376, Note_on_c, 11, 34, 10013, 113400, Note_off_c, 11, 34, 10013, 113424, Note_on_c, 11, 58, 10013, 113432, Note_on_c, 11, 32, 813, 113448, Note_off_c, 11, 58, 10013, 113456, Note_off_c, 11, 32, 813, 113472, Note_on_c, 11, 32, 11013, 113496, Note_off_c, 11, 32, 11013, 113568, Note_on_c, 11, 34, 10013, 113592, Note_off_c, 11, 34, 10013, 113616, Note_on_c, 11, 58, 10013, 113624, Note_on_c, 11, 32, 813, 113640, Note_off_c, 11, 58, 10013, 113648, Note_off_c, 11, 32, 813, 113664, Note_on_c, 11, 32, 11013, 113688, Note_off_c, 11, 32, 11013, 113760, Note_on_c, 11, 34, 10013, 113784, Note_off_c, 11, 34, 10013, 113808, Note_on_c, 11, 58, 10013, 113816, Note_on_c, 11, 32, 813, 113832, Note_off_c, 11, 58, 10013, 113840, Note_off_c, 11, 32, 813, 113856, Note_on_c, 11, 32, 11013, 113880, Note_off_c, 11, 32, 11013, 113952, Note_on_c, 11, 34, 10013, 113976, Note_off_c, 11, 34, 10013, 114000, Note_on_c, 11, 58, 10013, 114008, Note_on_c, 11, 32, 813, 114024, Note_off_c, 11, 58, 10013, 114032, Note_off_c, 11, 32, 813, 114048, Note_on_c, 11, 32, 11013, 114072, Note_off_c, 11, 32, 11013, 114144, Note_on_c, 11, 34, 10013, 114168, Note_off_c, 11, 34, 10013, 114192, Note_on_c, 11, 58, 10013, 114200, Note_on_c, 11, 32, 813, 114216, Note_off_c, 11, 58, 10013, 114224, Note_off_c, 11, 32, 813, 114240, Note_on_c, 11, 32, 11013, 114264, Note_off_c, 11, 32, 11013, 114336, Note_on_c, 11, 34, 10013, 114360, Note_off_c, 11, 34, 10013, 114384, Note_on_c, 11, 58, 10013, 114392, Note_on_c, 11, 32, 813, 114408, Note_off_c, 11, 58, 10013, 114416, Note_off_c, 11, 32, 813, 114432, Note_on_c, 11, 32, 11013, 114456, Note_off_c, 11, 32, 11013, 114528, Note_on_c, 11, 34, 10013, 114552, Note_off_c, 11, 34, 10013, 114576, Note_on_c, 11, 58, 10013, 114584, Note_on_c, 11, 32, 813, 114600, Note_off_c, 11, 58, 10013, 114608, Note_off_c, 11, 32, 813, 114624, Note_on_c, 11, 32, 11013, 114648, Note_off_c, 11, 32, 11013, 114720, Note_on_c, 11, 34, 10013, 114744, Note_off_c, 11, 34, 10013, 114768, Note_on_c, 11, 58, 10013, 114776, Note_on_c, 11, 32, 813, 114792, Note_off_c, 11, 58, 10013, 114800, Note_off_c, 11, 32, 813, 114816, Note_on_c, 11, 32, 11013, 114840, Note_off_c, 11, 32, 11013, 114912, Note_on_c, 11, 34, 10013, 114936, Note_off_c, 11, 34, 10013, 114960, Note_on_c, 11, 58, 10013, 114968, Note_on_c, 11, 32, 813, 114984, Note_off_c, 11, 58, 10013, 114992, Note_off_c, 11, 32, 813, 115008, Note_on_c, 11, 32, 11013, 115032, Note_off_c, 11, 32, 11013, 115104, Note_on_c, 11, 34, 10013, 115128, Note_off_c, 11, 34, 10013, 115152, Note_on_c, 11, 58, 10013, 115160, Note_on_c, 11, 32, 813, 115176, Note_off_c, 11, 58, 10013, 115184, Note_off_c, 11, 32, 813, 115200, Note_on_c, 11, 32, 11013, 115224, Note_off_c, 11, 32, 11013, 115296, Note_on_c, 11, 34, 10013, 115320, Note_off_c, 11, 34, 10013, 115344, Note_on_c, 11, 58, 10013, 115352, Note_on_c, 11, 32, 813, 115368, Note_off_c, 11, 58, 10013, 115376, Note_off_c, 11, 32, 813, 115392, Note_on_c, 11, 32, 11013, 115416, Note_off_c, 11, 32, 11013, 115488, Note_on_c, 11, 34, 10013, 115512, Note_off_c, 11, 34, 10013, 115536, Note_on_c, 11, 58, 10013, 115544, Note_on_c, 11, 32, 813, 115560, Note_off_c, 11, 58, 10013, 115568, Note_off_c, 11, 32, 813, 115584, Note_on_c, 11, 32, 11013, 115608, Note_off_c, 11, 32, 11013, 115680, Note_on_c, 11, 34, 10013, 115704, Note_off_c, 11, 34, 10013, 115728, Note_on_c, 11, 58, 10013, 115736, Note_on_c, 11, 32, 813, 115752, Note_off_c, 11, 58, 10013, 115760, Note_off_c, 11, 32, 813, 115776, Note_on_c, 11, 32, 11013, 115800, Note_off_c, 11, 32, 11013, 115872, Note_on_c, 11, 34, 10013, 115896, Note_off_c, 11, 34, 10013, 115920, Note_on_c, 11, 58, 10013, 115928, Note_on_c, 11, 32, 813, 115944, Note_off_c, 11, 58, 10013, 115952, Note_off_c, 11, 32, 813, 115968, Note_on_c, 11, 32, 11013, 115992, Note_off_c, 11, 32, 11013, 116064, Note_on_c, 11, 34, 10013, 116088, Note_off_c, 11, 34, 10013, 116112, Note_on_c, 11, 58, 10013, 116120, Note_on_c, 11, 32, 813, 116136, Note_off_c, 11, 58, 10013, 116144, Note_off_c, 11, 32, 813, 116160, Note_on_c, 11, 32, 11013, 116184, Note_off_c, 11, 32, 11013, 116256, Note_on_c, 11, 34, 10013, 116280, Note_off_c, 11, 34, 10013, 116304, Note_on_c, 11, 58, 10013, 116312, Note_on_c, 11, 32, 813, 116328, Note_off_c, 11, 58, 10013, 116336, Note_off_c, 11, 32, 813, 116352, Note_on_c, 11, 32, 11013, 116376, Note_off_c, 11, 32, 11013, 116448, Note_on_c, 11, 34, 10013, 116472, Note_off_c, 11, 34, 10013, 116496, Note_on_c, 11, 58, 10013, 116504, Note_on_c, 11, 32, 813, 116520, Note_off_c, 11, 58, 10013, 116528, Note_off_c, 11, 32, 813, 116544, Note_on_c, 11, 32, 11013, 116568, Note_off_c, 11, 32, 11013, 116640, Note_on_c, 11, 34, 10013, 116664, Note_off_c, 11, 34, 10013, 116688, Note_on_c, 11, 58, 10013, 116696, Note_on_c, 11, 32, 813, 116712, Note_off_c, 11, 58, 10013, 116720, Note_off_c, 11, 32, 813, 116736, Note_on_c, 11, 32, 11013, 116760, Note_off_c, 11, 32, 11013, 116832, Note_on_c, 11, 34, 10013, 116856, Note_off_c, 11, 34, 10013, 116880, Note_on_c, 11, 58, 10013, 116888, Note_on_c, 11, 32, 813, 116904, Note_off_c, 11, 58, 10013, 116912, Note_off_c, 11, 32, 813, 116928, Note_on_c, 11, 32, 11013, 116952, Note_off_c, 11, 32, 11013, 117024, Note_on_c, 11, 34, 10013, 117048, Note_off_c, 11, 34, 10013, 117072, Note_on_c, 11, 58, 10013, 117080, Note_on_c, 11, 32, 813, 117096, Note_off_c, 11, 58, 10013, 117104, Note_off_c, 11, 32, 813, 117120, Note_on_c, 11, 32, 11013, 117144, Note_off_c, 11, 32, 11013, 117216, Note_on_c, 11, 34, 10013, 117240, Note_off_c, 11, 34, 10013, 117264, Note_on_c, 11, 58, 10013, 117272, Note_on_c, 11, 32, 813, 117288, Note_off_c, 11, 58, 10013, 117296, Note_off_c, 11, 32, 813, 117312, Note_on_c, 11, 32, 11013, 117336, Note_off_c, 11, 32, 11013, 117408, Note_on_c, 11, 34, 10013, 117432, Note_off_c, 11, 34, 10013, 117456, Note_on_c, 11, 58, 10013, 117464, Note_on_c, 11, 32, 813, 117480, Note_off_c, 11, 58, 10013, 117488, Note_off_c, 11, 32, 813, 117504, Note_on_c, 11, 32, 11013, 117528, Note_off_c, 11, 32, 11013, 117600, Note_on_c, 11, 34, 10013, 117624, Note_off_c, 11, 34, 10013, 117648, Note_on_c, 11, 58, 10013, 117656, Note_on_c, 11, 32, 813, 117672, Note_off_c, 11, 58, 10013, 117680, Note_off_c, 11, 32, 813, 117696, Note_on_c, 11, 32, 11013, 117720, Note_off_c, 11, 32, 11013, 117792, Note_on_c, 11, 34, 10013, 117816, Note_off_c, 11, 34, 10013, 117840, Note_on_c, 11, 58, 10013, 117848, Note_on_c, 11, 32, 813, 117864, Note_off_c, 11, 58, 10013, 117872, Note_off_c, 11, 32, 813, 117888, Note_on_c, 11, 32, 11013, 117912, Note_off_c, 11, 32, 11013, 117984, Note_on_c, 11, 34, 10013, 118008, Note_off_c, 11, 34, 10013, 118032, Note_on_c, 11, 58, 10013, 118040, Note_on_c, 11, 32, 813, 118056, Note_off_c, 11, 58, 10013, 118064, Note_off_c, 11, 32, 813, 118080, Note_on_c, 11, 32, 11013, 118104, Note_off_c, 11, 32, 11013, 118176, Note_on_c, 11, 34, 10013, 118200, Note_off_c, 11, 34, 10013, 118224, Note_on_c, 11, 58, 10013, 118232, Note_on_c, 11, 32, 813, 118248, Note_off_c, 11, 58, 10013, 118256, Note_off_c, 11, 32, 813, 118272, Note_on_c, 11, 32, 11013, 118296, Note_off_c, 11, 32, 11013, 118368, Note_on_c, 11, 34, 10013, 118392, Note_off_c, 11, 34, 10013, 118416, Note_on_c, 11, 58, 10013, 118424, Note_on_c, 11, 32, 813, 118440, Note_off_c, 11, 58, 10013, 118448, Note_off_c, 11, 32, 813, 118464, Note_on_c, 11, 32, 11013, 118488, Note_off_c, 11, 32, 11013, 118560, Note_on_c, 11, 34, 10013, 118584, Note_off_c, 11, 34, 10013, 118608, Note_on_c, 11, 58, 10013, 118616, Note_on_c, 11, 32, 813, 118632, Note_off_c, 11, 58, 10013, 118640, Note_off_c, 11, 32, 813, 118656, Note_on_c, 11, 32, 11013, 118680, Note_off_c, 11, 32, 11013, 118752, Note_on_c, 11, 34, 10013, 118776, Note_off_c, 11, 34, 10013, 118800, Note_on_c, 11, 58, 10013, 118808, Note_on_c, 11, 32, 813, 118824, Note_off_c, 11, 58, 10013, 118832, Note_off_c, 11, 32, 813, 118848, Note_on_c, 11, 32, 11013, 118872, Note_off_c, 11, 32, 11013, 118944, Note_on_c, 11, 34, 10013, 118968, Note_off_c, 11, 34, 10013, 118992, Note_on_c, 11, 58, 10013, 119000, Note_on_c, 11, 32, 813, 119016, Note_off_c, 11, 58, 10013, 119024, Note_off_c, 11, 32, 813, 119040, Note_on_c, 11, 32, 11013, 119064, Note_off_c, 11, 32, 11013, 119136, Note_on_c, 11, 34, 10013, 119160, Note_off_c, 11, 34, 10013, 119184, Note_on_c, 11, 58, 10013, 119192, Note_on_c, 11, 32, 813, 119208, Note_off_c, 11, 58, 10013, 119216, Note_off_c, 11, 32, 813, 119232, Note_on_c, 11, 32, 11013, 119256, Note_off_c, 11, 32, 11013, 119328, Note_on_c, 11, 34, 10013, 119352, Note_off_c, 11, 34, 10013, 119376, Note_on_c, 11, 58, 10013, 119384, Note_on_c, 11, 32, 813, 119400, Note_off_c, 11, 58, 10013, 119408, Note_off_c, 11, 32, 813, 119424, Note_on_c, 11, 32, 11013, 119448, Note_off_c, 11, 32, 11013, 119520, Note_on_c, 11, 34, 10013, 119544, Note_off_c, 11, 34, 10013, 119568, Note_on_c, 11, 58, 10013, 119576, Note_on_c, 11, 32, 813, 119592, Note_off_c, 11, 58, 10013, 119600, Note_off_c, 11, 32, 813, 119616, Note_on_c, 11, 32, 11013, 119640, Note_off_c, 11, 32, 11013, 119712, Note_on_c, 11, 34, 10013, 119736, Note_off_c, 11, 34, 10013, 119760, Note_on_c, 11, 58, 10013, 119768, Note_on_c, 11, 32, 813, 119784, Note_off_c, 11, 58, 10013, 119792, Note_off_c, 11, 32, 813, 119808, Note_on_c, 11, 32, 11013, 119832, Note_off_c, 11, 32, 11013, 119904, Note_on_c, 11, 34, 10013, 119928, Note_off_c, 11, 34, 10013, 119952, Note_on_c, 11, 58, 10013, 119960, Note_on_c, 11, 32, 813, 119976, Note_off_c, 11, 58, 10013, 119984, Note_off_c, 11, 32, 813, 120000, Note_on_c, 11, 32, 11013, 120024, Note_off_c, 11, 32, 11013, 120096, Note_on_c, 11, 34, 10013, 120120, Note_off_c, 11, 34, 10013, 120144, Note_on_c, 11, 58, 10013, 120152, Note_on_c, 11, 32, 813, 120168, Note_off_c, 11, 58, 10013, 120176, Note_off_c, 11, 32, 813, 120192, Note_on_c, 11, 32, 11013, 120216, Note_off_c, 11, 32, 11013, 120288, Note_on_c, 11, 34, 10013, 120312, Note_off_c, 11, 34, 10013, 120336, Note_on_c, 11, 58, 10013, 120344, Note_on_c, 11, 32, 813, 120360, Note_off_c, 11, 58, 10013, 120368, Note_off_c, 11, 32, 813, 120384, Note_on_c, 11, 32, 11013, 120408, Note_off_c, 11, 32, 11013, 120480, Note_on_c, 11, 34, 10013, 120504, Note_off_c, 11, 34, 10013, 120528, Note_on_c, 11, 58, 10013, 120536, Note_on_c, 11, 32, 813, 120552, Note_off_c, 11, 58, 10013, 120560, Note_off_c, 11, 32, 813, 120576, Note_on_c, 11, 32, 11013, 120600, Note_off_c, 11, 32, 11013, 120672, Note_on_c, 11, 34, 10013, 120696, Note_off_c, 11, 34, 10013, 120720, Note_on_c, 11, 58, 10013, 120728, Note_on_c, 11, 32, 813, 120744, Note_off_c, 11, 58, 10013, 120752, Note_off_c, 11, 32, 813, 120768, Note_on_c, 11, 32, 11013, 120792, Note_off_c, 11, 32, 11013, 120864, Note_on_c, 11, 34, 10013, 120888, Note_off_c, 11, 34, 10013, 120912, Note_on_c, 11, 58, 10013, 120920, Note_on_c, 11, 32, 813, 120936, Note_off_c, 11, 58, 10013, 120944, Note_off_c, 11, 32, 813, 120960, Note_on_c, 11, 32, 11013, 120984, Note_off_c, 11, 32, 11013, 121056, Note_on_c, 11, 34, 10013, 121080, Note_off_c, 11, 34, 10013, 121104, Note_on_c, 11, 58, 10013, 121112, Note_on_c, 11, 32, 813, 121128, Note_off_c, 11, 58, 10013, 121136, Note_off_c, 11, 32, 813, 121152, Note_on_c, 11, 32, 11013, 121176, Note_off_c, 11, 32, 11013, 121248, Note_on_c, 11, 34, 10013, 121272, Note_off_c, 11, 34, 10013, 121296, Note_on_c, 11, 58, 10013, 121304, Note_on_c, 11, 32, 813, 121320, Note_off_c, 11, 58, 10013, 121328, Note_off_c, 11, 32, 813, 121344, Note_on_c, 11, 32, 11013, 121368, Note_off_c, 11, 32, 11013, 121440, Note_on_c, 11, 34, 10013, 121464, Note_off_c, 11, 34, 10013, 121488, Note_on_c, 11, 58, 10013, 121496, Note_on_c, 11, 32, 813, 121512, Note_off_c, 11, 58, 10013, 121520, Note_off_c, 11, 32, 813, 121536, Note_on_c, 11, 32, 11013, 121560, Note_off_c, 11, 32, 11013, 121632, Note_on_c, 11, 34, 10013, 121656, Note_off_c, 11, 34, 10013, 121680, Note_on_c, 11, 58, 10013, 121688, Note_on_c, 11, 32, 813, 121704, Note_off_c, 11, 58, 10013, 121712, Note_off_c, 11, 32, 813, 121728, Note_on_c, 11, 32, 11013, 121752, Note_off_c, 11, 32, 11013, 121824, Note_on_c, 11, 34, 10013, 121848, Note_off_c, 11, 34, 10013, 121872, Note_on_c, 11, 58, 10013, 121880, Note_on_c, 11, 32, 813, 121896, Note_off_c, 11, 58, 10013, 121904, Note_off_c, 11, 32, 813, 121920, Note_on_c, 11, 32, 11013, 121944, Note_off_c, 11, 32, 11013, 122016, Note_on_c, 11, 34, 10013, 122040, Note_off_c, 11, 34, 10013, 122064, Note_on_c, 11, 58, 10013, 122072, Note_on_c, 11, 32, 813, 178592, Note_off_c, 11, 58, 10013, 178608, Note_off_c, 11, 32, 813, 178608, End_track
14, 0, Start_track
14, 0, Text_t, "Bow Glass"
14, 2880, Control_c, 12, 0, 0
14, 2882, Control_c, 12, 32, 0
14, 2884, Program_c, 12, 92
14, 2886, Control_c, 12, 7, 100
14, 2888, Control_c, 12, 10, 64
14, 2890, Control_c, 12, 11, 90
14, 2892, Control_c, 12, 91, 40
14, 2894, Control_c, 12, 93, 60
14, 98208, Note_on_c, 12, 67, 10014, 98300, Note_off_c, 12, 67, 10014, 98304, Note_on_c, 12, 74, 10014, 98592, Note_off_c, 12, 74, 10014, 98784, Note_on_c, 12, 70, 10014, 98876, Note_off_c, 12, 70, 10014, 98880, Note_on_c, 12, 72, 10014, 98972, Note_off_c, 12, 72, 10014, 98976, Note_on_c, 12, 67, 10014, 99168, Note_off_c, 12, 67, 10014, 99168, Note_on_c, 12, 70, 10014, 99260, Note_off_c, 12, 70, 10014, 99264, Note_on_c, 12, 72, 10014, 99356, Note_off_c, 12, 72, 10014, 99360, Note_on_c, 12, 65, 10014, 99552, Note_off_c, 12, 65, 10014, 99552, Note_on_c, 12, 70, 10014, 99644, Note_off_c, 12, 70, 10014, 99744, Note_on_c, 12, 67, 10014, 99836, Note_off_c, 12, 67, 10014, 99840, Note_on_c, 12, 74, 10014, 100128, Note_off_c, 12, 74, 10014, 100320, Note_on_c, 12, 70, 10014, 100412, Note_off_c, 12, 70, 10014, 100416, Note_on_c, 12, 72, 10014, 100508, Note_off_c, 12, 72, 10014, 100512, Note_on_c, 12, 67, 10014, 100704, Note_off_c, 12, 67, 10014, 100704, Note_on_c, 12, 70, 10014, 100796, Note_off_c, 12, 70, 10014, 100800, Note_on_c, 12, 72, 10014, 100892, Note_off_c, 12, 72, 10014, 100896, Note_on_c, 12, 65, 10014, 101088, Note_off_c, 12, 65, 10014, 101280, Note_on_c, 12, 67, 10014, 101372, Note_off_c, 12, 67, 10014, 101376, Note_on_c, 12, 74, 10014, 101664, Note_off_c, 12, 74, 10014, 101856, Note_on_c, 12, 70, 10014, 101948, Note_off_c, 12, 70, 10014, 101952, Note_on_c, 12, 72, 10014, 102044, Note_off_c, 12, 72, 10014, 102048, Note_on_c, 12, 67, 10014, 102240, Note_off_c, 12, 67, 10014, 102240, Note_on_c, 12, 70, 10014, 102332, Note_off_c, 12, 70, 10014, 102336, Note_on_c, 12, 72, 10014, 102428, Note_off_c, 12, 72, 10014, 102432, Note_on_c, 12, 65, 10014, 102624, Note_off_c, 12, 65, 10014, 102624, Note_on_c, 12, 70, 10014, 102716, Note_off_c, 12, 70, 10014, 102816, Note_on_c, 12, 67, 10014, 102908, Note_off_c, 12, 67, 10014, 102912, Note_on_c, 12, 74, 10014, 103200, Note_off_c, 12, 74, 10014, 103392, Note_on_c, 12, 70, 10014, 103484, Note_off_c, 12, 70, 10014, 103488, Note_on_c, 12, 74, 10014, 103580, Note_off_c, 12, 74, 10014, 103584, Note_on_c, 12, 72, 10014, 103872, Note_off_c, 12, 72, 10014, 104352, Note_on_c, 12, 67, 10014, 104444, Note_off_c, 12, 67, 10014, 104448, Note_on_c, 12, 74, 10014, 104736, Note_off_c, 12, 74, 10014, 104928, Note_on_c, 12, 70, 10014, 105020, Note_off_c, 12, 70, 10014, 105024, Note_on_c, 12, 72, 10014, 105116, Note_off_c, 12, 72, 10014, 105120, Note_on_c, 12, 67, 10014, 105312, Note_off_c, 12, 67, 10014, 105312, Note_on_c, 12, 70, 10014, 105404, Note_off_c, 12, 70, 10014, 105408, Note_on_c, 12, 72, 10014, 105500, Note_off_c, 12, 72, 10014, 105504, Note_on_c, 12, 65, 10014, 105696, Note_off_c, 12, 65, 10014, 105696, Note_on_c, 12, 70, 10014, 105788, Note_off_c, 12, 70, 10014, 105888, Note_on_c, 12, 67, 10014, 105980, Note_off_c, 12, 67, 10014, 105984, Note_on_c, 12, 74, 10014, 106272, Note_off_c, 12, 74, 10014, 106464, Note_on_c, 12, 70, 10014, 106556, Note_off_c, 12, 70, 10014, 106560, Note_on_c, 12, 72, 10014, 106652, Note_off_c, 12, 72, 10014, 106656, Note_on_c, 12, 67, 10014, 106848, Note_off_c, 12, 67, 10014, 106848, Note_on_c, 12, 70, 10014, 106940, Note_off_c, 12, 70, 10014, 106944, Note_on_c, 12, 72, 10014, 107036, Note_off_c, 12, 72, 10014, 107040, Note_on_c, 12, 65, 10014, 107232, Note_off_c, 12, 65, 10014, 107424, Note_on_c, 12, 67, 10014, 107516, Note_off_c, 12, 67, 10014, 107520, Note_on_c, 12, 74, 10014, 107808, Note_off_c, 12, 74, 10014, 108000, Note_on_c, 12, 70, 10014, 108092, Note_off_c, 12, 70, 10014, 108096, Note_on_c, 12, 72, 10014, 108188, Note_off_c, 12, 72, 10014, 108192, Note_on_c, 12, 67, 10014, 108384, Note_off_c, 12, 67, 10014, 108384, Note_on_c, 12, 70, 10014, 108476, Note_off_c, 12, 70, 10014, 108480, Note_on_c, 12, 72, 10014, 108572, Note_off_c, 12, 72, 10014, 108576, Note_on_c, 12, 65, 10014, 108768, Note_off_c, 12, 65, 10014, 108768, Note_on_c, 12, 70, 10014, 108860, Note_off_c, 12, 70, 10014, 108960, Note_on_c, 12, 67, 10014, 109052, Note_off_c, 12, 67, 10014, 109056, Note_on_c, 12, 74, 10014, 109344, Note_off_c, 12, 74, 10014, 109536, Note_on_c, 12, 70, 10014, 109628, Note_off_c, 12, 70, 10014, 109632, Note_on_c, 12, 74, 10014, 109724, Note_off_c, 12, 74, 10014, 109728, Note_on_c, 12, 72, 10014, 110016, Note_off_c, 12, 72, 10014, 110016, End_track
15, 0, Start_track
15, 0, Text_t, "Fall Bloc"
15, 2880, Control_c, 13, 0, 0
15, 2882, Control_c, 13, 32, 0
15, 2884, Program_c, 13, 115
15, 2886, Control_c, 13, 7, 100
15, 2888, Control_c, 13, 10, 96
15, 2890, Control_c, 13, 11, 89
15, 2892, Control_c, 13, 91, 40
15, 2894, Control_c, 13, 93, 0
15, 27648, Control_c, 13, 11, 120
15, 27648, Note_on_c, 13, 106, 8015, 27672, Note_off_c, 13, 106, 8015, 27696, Note_on_c, 13, 105, 8015, 27720, Note_off_c, 13, 105, 8015, 27744, Note_on_c, 13, 104, 8015, 27768, Note_off_c, 13, 104, 8015, 27792, Note_on_c, 13, 103, 8015, 27816, Note_off_c, 13, 103, 8015, 27840, Note_on_c, 13, 102, 8015, 27864, Note_off_c, 13, 102, 8015, 27888, Note_on_c, 13, 101, 8015, 27912, Note_off_c, 13, 101, 8015, 27936, Note_on_c, 13, 100, 8015, 27960, Note_off_c, 13, 100, 8015, 27984, Note_on_c, 13, 99, 8015, 28008, Note_off_c, 13, 99, 8015, 28016, Control_c, 13, 11, 114
15, 28032, Note_on_c, 13, 98, 8015, 28056, Note_off_c, 13, 98, 8015, 28080, Note_on_c, 13, 97, 8015, 28104, Note_off_c, 13, 97, 8015, 28128, Note_on_c, 13, 96, 8015, 28152, Note_off_c, 13, 96, 8015, 28176, Note_on_c, 13, 95, 8015, 28200, Note_off_c, 13, 95, 8015, 28224, Note_on_c, 13, 94, 8015, 28248, Note_off_c, 13, 94, 8015, 28272, Note_on_c, 13, 93, 8015, 28296, Note_off_c, 13, 93, 8015, 28320, Note_on_c, 13, 92, 8015, 28344, Note_off_c, 13, 92, 8015, 28368, Note_on_c, 13, 91, 8015, 28392, Note_off_c, 13, 91, 8015, 28416, Control_c, 13, 11, 105
15, 28416, Note_on_c, 13, 90, 8015, 28440, Note_off_c, 13, 90, 8015, 28464, Note_on_c, 13, 89, 8015, 28488, Note_off_c, 13, 89, 8015, 28512, Note_on_c, 13, 88, 8015, 28536, Note_off_c, 13, 88, 8015, 28560, Note_on_c, 13, 87, 8015, 28584, Note_off_c, 13, 87, 8015, 28608, Note_on_c, 13, 86, 8015, 28632, Note_off_c, 13, 86, 8015, 28656, Note_on_c, 13, 85, 8015, 28680, Note_off_c, 13, 85, 8015, 28704, Note_on_c, 13, 84, 8015, 28728, Note_off_c, 13, 84, 8015, 28752, Note_on_c, 13, 83, 8015, 28776, Note_off_c, 13, 83, 8015, 28784, Control_c, 13, 11, 97
15, 28800, Note_on_c, 13, 82, 8015, 28824, Note_off_c, 13, 82, 8015, 28848, Note_on_c, 13, 81, 8015, 28872, Note_off_c, 13, 81, 8015, 28896, Note_on_c, 13, 80, 8015, 28920, Note_off_c, 13, 80, 8015, 28944, Note_on_c, 13, 79, 8015, 28968, Note_off_c, 13, 79, 8015, 28992, Note_on_c, 13, 78, 8015, 29016, Note_off_c, 13, 78, 8015, 29040, Note_on_c, 13, 77, 8015, 29064, Note_off_c, 13, 77, 8015, 29088, Note_on_c, 13, 76, 8015, 29112, Note_off_c, 13, 76, 8015, 29136, Note_on_c, 13, 75, 8015, 29160, Note_off_c, 13, 75, 8015, 29184, Control_c, 13, 11, 89
15, 29184, Note_on_c, 13, 74, 8015, 29208, Note_off_c, 13, 74, 8015, 29232, Note_on_c, 13, 73, 8015, 29256, Note_off_c, 13, 73, 8015, 29280, Note_on_c, 13, 72, 8015, 29304, Note_off_c, 13, 72, 8015, 29328, Note_on_c, 13, 71, 8015, 29352, Note_off_c, 13, 71, 8015, 29376, Note_on_c, 13, 70, 8015, 29400, Note_off_c, 13, 70, 8015, 29424, Note_on_c, 13, 69, 8015, 29448, Note_off_c, 13, 69, 8015, 29472, Note_on_c, 13, 68, 8015, 29496, Note_off_c, 13, 68, 8015, 29520, Note_on_c, 13, 67, 8015, 29544, Note_off_c, 13, 67, 8015, 29568, Note_on_c, 13, 66, 8015, 29592, Note_off_c, 13, 66, 8015, 29600, Control_c, 13, 11, 77
15, 29616, Note_on_c, 13, 65, 8015, 29640, Note_off_c, 13, 65, 8015, 29664, Note_on_c, 13, 64, 8015, 29688, Note_off_c, 13, 64, 8015, 29712, Note_on_c, 13, 63, 8015, 29736, Note_off_c, 13, 63, 8015, 29760, Note_on_c, 13, 62, 8015, 29784, Note_off_c, 13, 62, 8015, 29808, Note_on_c, 13, 61, 8015, 29832, Note_off_c, 13, 61, 8015, 29856, Note_on_c, 13, 60, 8015, 29880, Note_off_c, 13, 60, 8015, 29904, Note_on_c, 13, 59, 8015, 29928, Note_off_c, 13, 59, 8015, 29952, Control_c, 13, 11, 68
15, 29952, Note_on_c, 13, 58, 8015, 29976, Note_off_c, 13, 58, 8015, 30000, Note_on_c, 13, 57, 8015, 30024, Note_off_c, 13, 57, 8015, 30048, Note_on_c, 13, 56, 8015, 30072, Note_off_c, 13, 56, 8015, 30096, Note_on_c, 13, 55, 8015, 30120, Note_off_c, 13, 55, 8015, 30144, Note_on_c, 13, 54, 8015, 30160, Control_c, 13, 11, 64
15, 30168, Note_off_c, 13, 54, 8015, 30192, Note_on_c, 13, 53, 8015, 30216, Note_off_c, 13, 53, 8015, 30240, Note_on_c, 13, 52, 8015, 30264, Note_off_c, 13, 52, 8015, 30288, Note_on_c, 13, 51, 8015, 30312, Note_off_c, 13, 51, 8015, 30320, Control_c, 13, 11, 60
15, 30336, Note_on_c, 13, 50, 8015, 30360, Note_off_c, 13, 50, 8015, 30384, Note_on_c, 13, 49, 8015, 30408, Note_off_c, 13, 49, 8015, 30432, Note_on_c, 13, 48, 8015, 30456, Note_off_c, 13, 48, 8015, 30480, Note_on_c, 13, 47, 8015, 30504, Note_off_c, 13, 47, 8015, 30528, Control_c, 13, 11, 54
15, 30528, Note_on_c, 13, 46, 8015, 30552, Note_off_c, 13, 46, 8015, 30576, Note_on_c, 13, 45, 8015, 30600, Note_off_c, 13, 45, 8015, 30624, Note_on_c, 13, 44, 8015, 30648, Note_off_c, 13, 44, 8015, 30672, Note_on_c, 13, 43, 8015, 30696, Note_off_c, 13, 43, 8015, 49152, Control_c, 13, 11, 105
15, 49152, Note_on_c, 13, 90, 10015, 49176, Note_off_c, 13, 90, 10015, 49200, Note_on_c, 13, 89, 10015, 49224, Note_off_c, 13, 89, 10015, 49248, Note_on_c, 13, 88, 10015, 49272, Note_off_c, 13, 88, 10015, 49296, Note_on_c, 13, 87, 10015, 49320, Note_off_c, 13, 87, 10015, 49344, Note_on_c, 13, 86, 10015, 49368, Note_off_c, 13, 86, 10015, 49392, Note_on_c, 13, 85, 10015, 49416, Note_off_c, 13, 85, 10015, 49440, Note_on_c, 13, 84, 10015, 49464, Note_off_c, 13, 84, 10015, 49488, Note_on_c, 13, 83, 10015, 49512, Note_off_c, 13, 83, 10015, 49520, Control_c, 13, 11, 97
15, 49536, Note_on_c, 13, 82, 10015, 49560, Note_off_c, 13, 82, 10015, 49584, Note_on_c, 13, 81, 10015, 49608, Note_off_c, 13, 81, 10015, 49632, Note_on_c, 13, 80, 10015, 49656, Note_off_c, 13, 80, 10015, 49680, Note_on_c, 13, 79, 10015, 49704, Note_off_c, 13, 79, 10015, 49728, Note_on_c, 13, 78, 10015, 49752, Note_off_c, 13, 78, 10015, 49776, Note_on_c, 13, 77, 10015, 49800, Note_off_c, 13, 77, 10015, 49824, Note_on_c, 13, 76, 10015, 49848, Note_off_c, 13, 76, 10015, 49872, Note_on_c, 13, 75, 10015, 49896, Note_off_c, 13, 75, 10015, 49920, Control_c, 13, 11, 89
15, 49920, Note_on_c, 13, 74, 10015, 49944, Note_off_c, 13, 74, 10015, 49968, Note_on_c, 13, 73, 10015, 49992, Note_off_c, 13, 73, 10015, 50016, Note_on_c, 13, 72, 10015, 50040, Note_off_c, 13, 72, 10015, 50064, Note_on_c, 13, 71, 10015, 50088, Note_off_c, 13, 71, 10015, 50112, Note_on_c, 13, 70, 10015, 50136, Note_off_c, 13, 70, 10015, 50160, Note_on_c, 13, 69, 10015, 50184, Note_off_c, 13, 69, 10015, 50208, Note_on_c, 13, 68, 10015, 50232, Note_off_c, 13, 68, 10015, 50256, Note_on_c, 13, 67, 10015, 50280, Note_off_c, 13, 67, 10015, 50304, Note_on_c, 13, 66, 10015, 50328, Note_off_c, 13, 66, 10015, 50336, Control_c, 13, 11, 77
15, 50352, Note_on_c, 13, 65, 10015, 50376, Note_off_c, 13, 65, 10015, 50400, Note_on_c, 13, 64, 10015, 50424, Note_off_c, 13, 64, 10015, 50448, Note_on_c, 13, 63, 10015, 50472, Note_off_c, 13, 63, 10015, 50496, Note_on_c, 13, 62, 10015, 50520, Note_off_c, 13, 62, 10015, 50544, Note_on_c, 13, 61, 10015, 50568, Note_off_c, 13, 61, 10015, 50592, Note_on_c, 13, 60, 10015, 50616, Note_off_c, 13, 60, 10015, 50640, Note_on_c, 13, 59, 10015, 50664, Note_off_c, 13, 59, 10015, 67584, Control_c, 13, 11, 120
15, 67584, Note_on_c, 13, 106, 8015, 67608, Note_off_c, 13, 106, 8015, 67632, Note_on_c, 13, 105, 8015, 67656, Note_off_c, 13, 105, 8015, 67680, Note_on_c, 13, 104, 8015, 67704, Note_off_c, 13, 104, 8015, 67728, Note_on_c, 13, 103, 8015, 67752, Note_off_c, 13, 103, 8015, 67776, Note_on_c, 13, 102, 8015, 67800, Note_off_c, 13, 102, 8015, 67824, Note_on_c, 13, 101, 8015, 67848, Note_off_c, 13, 101, 8015, 67872, Note_on_c, 13, 100, 8015, 67896, Note_off_c, 13, 100, 8015, 67920, Note_on_c, 13, 99, 8015, 67944, Note_off_c, 13, 99, 8015, 67952, Control_c, 13, 11, 114
15, 67968, Note_on_c, 13, 98, 8015, 67992, Note_off_c, 13, 98, 8015, 68016, Note_on_c, 13, 97, 8015, 68040, Note_off_c, 13, 97, 8015, 68064, Note_on_c, 13, 96, 8015, 68088, Note_off_c, 13, 96, 8015, 68112, Note_on_c, 13, 95, 8015, 68136, Note_off_c, 13, 95, 8015, 68160, Note_on_c, 13, 94, 8015, 68184, Note_off_c, 13, 94, 8015, 68208, Note_on_c, 13, 93, 8015, 68232, Note_off_c, 13, 93, 8015, 68256, Note_on_c, 13, 92, 8015, 68280, Note_off_c, 13, 92, 8015, 68304, Note_on_c, 13, 91, 8015, 68328, Note_off_c, 13, 91, 8015, 68352, Control_c, 13, 11, 105
15, 68352, Note_on_c, 13, 90, 8015, 68376, Note_off_c, 13, 90, 8015, 68400, Note_on_c, 13, 89, 8015, 68424, Note_off_c, 13, 89, 8015, 68448, Note_on_c, 13, 88, 8015, 68472, Note_off_c, 13, 88, 8015, 68496, Note_on_c, 13, 87, 8015, 68520, Note_off_c, 13, 87, 8015, 68544, Note_on_c, 13, 86, 8015, 68568, Note_off_c, 13, 86, 8015, 68592, Note_on_c, 13, 85, 8015, 68616, Note_off_c, 13, 85, 8015, 68640, Note_on_c, 13, 84, 8015, 68664, Note_off_c, 13, 84, 8015, 68688, Note_on_c, 13, 83, 8015, 68712, Note_off_c, 13, 83, 8015, 68720, Control_c, 13, 11, 97
15, 68736, Note_on_c, 13, 82, 8015, 68760, Note_off_c, 13, 82, 8015, 68784, Note_on_c, 13, 81, 8015, 68808, Note_off_c, 13, 81, 8015, 68832, Note_on_c, 13, 80, 8015, 68856, Note_off_c, 13, 80, 8015, 68880, Note_on_c, 13, 79, 8015, 68904, Note_off_c, 13, 79, 8015, 68928, Note_on_c, 13, 78, 8015, 68952, Note_off_c, 13, 78, 8015, 68976, Note_on_c, 13, 77, 8015, 69000, Note_off_c, 13, 77, 8015, 69024, Note_on_c, 13, 76, 8015, 69048, Note_off_c, 13, 76, 8015, 69072, Note_on_c, 13, 75, 8015, 69096, Note_off_c, 13, 75, 8015, 69120, Control_c, 13, 11, 89
15, 69120, Note_on_c, 13, 74, 8015, 69144, Note_off_c, 13, 74, 8015, 69168, Note_on_c, 13, 73, 8015, 69192, Note_off_c, 13, 73, 8015, 69216, Note_on_c, 13, 72, 8015, 69240, Note_off_c, 13, 72, 8015, 69264, Note_on_c, 13, 71, 8015, 69288, Note_off_c, 13, 71, 8015, 69312, Note_on_c, 13, 70, 8015, 69336, Note_off_c, 13, 70, 8015, 69360, Note_on_c, 13, 69, 8015, 69384, Note_off_c, 13, 69, 8015, 69408, Note_on_c, 13, 68, 8015, 69432, Note_off_c, 13, 68, 8015, 69456, Note_on_c, 13, 67, 8015, 69480, Note_off_c, 13, 67, 8015, 69504, Note_on_c, 13, 66, 8015, 69528, Note_off_c, 13, 66, 8015, 69536, Control_c, 13, 11, 77
15, 69552, Note_on_c, 13, 65, 8015, 69576, Note_off_c, 13, 65, 8015, 69600, Note_on_c, 13, 64, 8015, 69624, Note_off_c, 13, 64, 8015, 69648, Note_on_c, 13, 63, 8015, 69672, Note_off_c, 13, 63, 8015, 69696, Note_on_c, 13, 62, 8015, 69720, Note_off_c, 13, 62, 8015, 69744, Note_on_c, 13, 61, 8015, 69768, Note_off_c, 13, 61, 8015, 69792, Note_on_c, 13, 60, 8015, 69816, Note_off_c, 13, 60, 8015, 69840, Note_on_c, 13, 59, 8015, 69864, Note_off_c, 13, 59, 8015, 69888, Control_c, 13, 11, 68
15, 69888, Note_on_c, 13, 58, 8015, 69912, Note_off_c, 13, 58, 8015, 69936, Note_on_c, 13, 57, 8015, 69960, Note_off_c, 13, 57, 8015, 69984, Note_on_c, 13, 56, 8015, 70008, Note_off_c, 13, 56, 8015, 70032, Note_on_c, 13, 55, 8015, 70056, Note_off_c, 13, 55, 8015, 70080, Note_on_c, 13, 54, 8015, 70096, Control_c, 13, 11, 64
15, 70104, Note_off_c, 13, 54, 8015, 70128, Note_on_c, 13, 53, 8015, 70152, Note_off_c, 13, 53, 8015, 70176, Note_on_c, 13, 52, 8015, 70200, Note_off_c, 13, 52, 8015, 70224, Note_on_c, 13, 51, 8015, 70248, Note_off_c, 13, 51, 8015, 70256, Control_c, 13, 11, 60
15, 70272, Note_on_c, 13, 50, 8015, 70296, Note_off_c, 13, 50, 8015, 70320, Note_on_c, 13, 49, 8015, 70344, Note_off_c, 13, 49, 8015, 70368, Note_on_c, 13, 48, 8015, 70392, Note_off_c, 13, 48, 8015, 70416, Note_on_c, 13, 47, 8015, 70440, Note_off_c, 13, 47, 8015, 70464, Control_c, 13, 11, 54
15, 70464, Note_on_c, 13, 46, 8015, 70488, Note_off_c, 13, 46, 8015, 70512, Note_on_c, 13, 45, 8015, 70536, Note_off_c, 13, 45, 8015, 70560, Note_on_c, 13, 44, 8015, 70584, Note_off_c, 13, 44, 8015, 70584, End_track
16, 0, Start_track
16, 0, Text_t, "TR808 Sla"
16, 2880, Control_c, 14, 0, 0
16, 2882, Control_c, 14, 32, 0
16, 2884, Program_c, 14, 25
16, 2886, Control_c, 14, 7, 100
16, 2888, Control_c, 14, 10, 64
16, 2890, Control_c, 14, 11, 107
16, 2892, Control_c, 14, 91, 110
16, 2894, Control_c, 14, 93, 0
16, 9168, Note_on_c, 14, 16, 12716, 9204, Note_off_c, 14, 16, 12716, 12192, Note_on_c, 14, 16, 12716, 12228, Note_off_c, 14, 16, 12716, 18336, Note_on_c, 14, 16, 12716, 18372, Note_off_c, 14, 16, 12716, 21312, Note_on_c, 14, 16, 12716, 21348, Note_off_c, 14, 16, 12716, 24480, Note_on_c, 14, 16, 12716, 24516, Note_off_c, 14, 16, 12716, 27456, Note_on_c, 14, 16, 12716, 27492, Note_off_c, 14, 16, 12716, 36768, Note_on_c, 14, 16, 12716, 36804, Note_off_c, 14, 16, 12716, 39744, Note_on_c, 14, 16, 12716, 39780, Note_off_c, 14, 16, 12716, 42432, Note_on_c, 14, 16, 12716, 42468, Note_off_c, 14, 16, 12716, 60864, Note_on_c, 14, 16, 12716, 60900, Note_off_c, 14, 16, 12716, 67248, Note_on_c, 14, 16, 12716, 67284, Note_off_c, 14, 16, 12716, 70560, Note_on_c, 14, 16, 12716, 70596, Note_off_c, 14, 16, 12716, 72096, Note_on_c, 14, 16, 12716, 72132, Note_off_c, 14, 16, 12716, 73632, Note_on_c, 14, 16, 12716, 73668, Note_off_c, 14, 16, 12716, 76704, Note_on_c, 14, 16, 12716, 76740, Note_off_c, 14, 16, 12716, 79104, Note_on_c, 14, 16, 12716, 79140, Note_off_c, 14, 16, 12716, 85968, Note_on_c, 14, 16, 12716, 86004, Note_off_c, 14, 16, 12716, 92352, Note_on_c, 14, 16, 12716, 92388, Note_off_c, 14, 16, 12716, 101280, Note_on_c, 14, 16, 12716, 101316, Note_off_c, 14, 16, 12716, 104160, Note_on_c, 14, 16, 12716, 104196, Note_off_c, 14, 16, 12716, 104256, Note_on_c, 14, 16, 12716, 104292, Note_off_c, 14, 16, 12716, 104304, Note_on_c, 14, 16, 12716, 104340, Note_off_c, 14, 16, 12716, 113568, Note_on_c, 14, 16, 12716, 113604, Note_off_c, 14, 16, 12716, 116640, Note_on_c, 14, 16, 12716, 116676, Note_off_c, 14, 16, 12716, 122112, Note_on_c, 14, 16, 12716, 122148, Note_off_c, 14, 16, 12716, 122148, End_track
17, 0, Start_track
17, 0, Text_t, "SynthDrum"
17, 2880, Control_c, 15, 0, 0
17, 2882, Control_c, 15, 32, 0
17, 2884, Program_c, 15, 118
17, 2886, Control_c, 15, 7, 100
17, 2888, Control_c, 15, 10, 64
17, 2890, Control_c, 15, 11, 100
17, 2892, Control_c, 15, 91, 100
17, 2894, Control_c, 15, 93, 0
17, 14592, Control_c, 15, 11, 50
17, 14600, Note_on_c, 15, 23, 10017, 14604, Note_off_c, 15, 23, 10017, 14604, Note_on_c, 15, 24, 10017, 14608, Note_off_c, 15, 24, 10017, 14610, Control_c, 15, 11, 54
17, 14620, Note_on_c, 15, 26, 10017, 14624, Note_off_c, 15, 26, 10017, 14632, Control_c, 15, 11, 57
17, 14650, Control_c, 15, 11, 60
17, 14654, Note_on_c, 15, 28, 10017, 14658, Note_off_c, 15, 28, 10017, 14684, Note_on_c, 15, 29, 10017, 14688, Note_off_c, 15, 29, 10017, 14690, Control_c, 15, 11, 65
17, 14720, Note_on_c, 15, 31, 10017, 14724, Note_off_c, 15, 31, 10017, 14730, Control_c, 15, 11, 68
17, 14742, Note_on_c, 15, 33, 10017, 14746, Note_off_c, 15, 33, 10017, 14764, Note_on_c, 15, 35, 10017, 14768, Note_off_c, 15, 35, 10017, 14784, Control_c, 15, 11, 73
17, 14784, Note_on_c, 15, 36, 10017, 14788, Note_off_c, 15, 36, 10017, 14806, Note_on_c, 15, 38, 10017, 14810, Note_off_c, 15, 38, 10017, 14824, Note_on_c, 15, 40, 10017, 14828, Note_off_c, 15, 40, 10017, 14834, Control_c, 15, 11, 76
17, 14848, Note_on_c, 15, 41, 10017, 14852, Note_off_c, 15, 41, 10017, 14870, Note_on_c, 15, 43, 10017, 14874, Note_off_c, 15, 43, 10017, 14886, Control_c, 15, 11, 80
17, 14890, Note_on_c, 15, 45, 10017, 14894, Note_off_c, 15, 45, 10017, 14914, Note_on_c, 15, 47, 10017, 14918, Note_off_c, 15, 47, 10017, 14928, Control_c, 15, 11, 84
17, 14940, Note_on_c, 15, 48, 10017, 14944, Note_off_c, 15, 48, 10017, 14962, Note_on_c, 15, 50, 10017, 14966, Note_off_c, 15, 50, 10017, 14976, Control_c, 15, 11, 88
17, 14984, Note_on_c, 15, 52, 10017, 14988, Note_off_c, 15, 52, 10017, 15004, Note_on_c, 15, 53, 10017, 15008, Note_off_c, 15, 53, 10017, 15026, Control_c, 15, 11, 93
17, 15026, Note_on_c, 15, 55, 10017, 15030, Note_off_c, 15, 55, 10017, 15042, Note_on_c, 15, 57, 10017, 15046, Note_off_c, 15, 57, 10017, 15064, Note_on_c, 15, 59, 10017, 15068, Note_off_c, 15, 59, 10017, 15080, Control_c, 15, 11, 97
17, 15084, Note_on_c, 15, 60, 10017, 15088, Note_off_c, 15, 60, 10017, 15104, Note_on_c, 15, 62, 10017, 15108, Note_off_c, 15, 62, 10017, 15120, Control_c, 15, 11, 101
17, 15124, Note_on_c, 15, 64, 10017, 15128, Note_off_c, 15, 64, 10017, 15144, Note_on_c, 15, 65, 10017, 15148, Note_off_c, 15, 65, 10017, 15162, Note_on_c, 15, 67, 10017, 15166, Note_off_c, 15, 67, 10017, 15178, Control_c, 15, 11, 105
17, 15182, Note_on_c, 15, 69, 10017, 15186, Note_off_c, 15, 69, 10017, 15198, Note_on_c, 15, 71, 10017, 15202, Note_off_c, 15, 71, 10017, 15218, Note_on_c, 15, 72, 10017, 15222, Note_off_c, 15, 72, 10017, 15226, Control_c, 15, 11, 111
17, 15232, Note_on_c, 15, 74, 10017, 15236, Note_off_c, 15, 74, 10017, 15248, Note_on_c, 15, 76, 10017, 15252, Note_off_c, 15, 76, 10017, 15262, Note_on_c, 15, 77, 10017, 15266, Note_off_c, 15, 77, 10017, 15270, Control_c, 15, 11, 113
17, 15278, Note_on_c, 15, 79, 10017, 15282, Note_off_c, 15, 79, 10017, 15290, Note_on_c, 15, 81, 10017, 15294, Note_off_c, 15, 81, 10017, 15302, Note_on_c, 15, 83, 10017, 15306, Note_off_c, 15, 83, 10017, 15314, Control_c, 15, 11, 119
17, 15314, Note_on_c, 15, 84, 10017, 15318, Note_off_c, 15, 84, 10017, 15328, Note_on_c, 15, 86, 10017, 15332, Note_off_c, 15, 86, 10017, 15338, Note_on_c, 15, 88, 10017, 15342, Note_off_c, 15, 88, 10017, 15350, Note_on_c, 15, 89, 10017, 15354, Note_off_c, 15, 89, 10017, 15360, Control_c, 15, 11, 127
17, 15362, Note_on_c, 15, 91, 10017, 15366, Note_off_c, 15, 91, 10017, 15372, Note_on_c, 15, 93, 10017, 15376, Note_off_c, 15, 93, 10017, 15384, Note_on_c, 15, 95, 10017, 15388, Note_off_c, 15, 95, 10017, 26880, Control_c, 15, 11, 50
17, 26888, Note_on_c, 15, 23, 10017, 26892, Note_off_c, 15, 23, 10017, 26892, Note_on_c, 15, 24, 10017, 26896, Note_off_c, 15, 24, 10017, 26898, Control_c, 15, 11, 54
17, 26908, Note_on_c, 15, 26, 10017, 26912, Note_off_c, 15, 26, 10017, 26920, Control_c, 15, 11, 57
17, 26938, Control_c, 15, 11, 60
17, 26942, Note_on_c, 15, 28, 10017, 26946, Note_off_c, 15, 28, 10017, 26972, Note_on_c, 15, 29, 10017, 26976, Note_off_c, 15, 29, 10017, 26978, Control_c, 15, 11, 65
17, 27008, Note_on_c, 15, 31, 10017, 27012, Note_off_c, 15, 31, 10017, 27018, Control_c, 15, 11, 68
17, 27030, Note_on_c, 15, 33, 10017, 27034, Note_off_c, 15, 33, 10017, 27052, Note_on_c, 15, 35, 10017, 27056, Note_off_c, 15, 35, 10017, 27072, Control_c, 15, 11, 73
17, 27072, Note_on_c, 15, 36, 10017, 27076, Note_off_c, 15, 36, 10017, 27094, Note_on_c, 15, 38, 10017, 27098, Note_off_c, 15, 38, 10017, 27112, Note_on_c, 15, 40, 10017, 27116, Note_off_c, 15, 40, 10017, 27122, Control_c, 15, 11, 76
17, 27136, Note_on_c, 15, 41, 10017, 27140, Note_off_c, 15, 41, 10017, 27158, Note_on_c, 15, 43, 10017, 27162, Note_off_c, 15, 43, 10017, 27174, Control_c, 15, 11, 80
17, 27178, Note_on_c, 15, 45, 10017, 27182, Note_off_c, 15, 45, 10017, 27202, Note_on_c, 15, 47, 10017, 27206, Note_off_c, 15, 47, 10017, 27216, Control_c, 15, 11, 84
17, 27228, Note_on_c, 15, 48, 10017, 27232, Note_off_c, 15, 48, 10017, 27250, Note_on_c, 15, 50, 10017, 27254, Note_off_c, 15, 50, 10017, 27264, Control_c, 15, 11, 88
17, 27272, Note_on_c, 15, 52, 10017, 27276, Note_off_c, 15, 52, 10017, 27292, Note_on_c, 15, 53, 10017, 27296, Note_off_c, 15, 53, 10017, 27314, Control_c, 15, 11, 93
17, 27314, Note_on_c, 15, 55, 10017, 27318, Note_off_c, 15, 55, 10017, 27330, Note_on_c, 15, 57, 10017, 27334, Note_off_c, 15, 57, 10017, 27352, Note_on_c, 15, 59, 10017, 27356, Note_off_c, 15, 59, 10017, 27368, Control_c, 15, 11, 97
17, 27372, Note_on_c, 15, 60, 10017, 27376, Note_off_c, 15, 60, 10017, 27392, Note_on_c, 15, 62, 10017, 27396, Note_off_c, 15, 62, 10017, 27408, Control_c, 15, 11, 101
17, 27412, Note_on_c, 15, 64, 10017, 27416, Note_off_c, 15, 64, 10017, 27432, Note_on_c, 15, 65, 10017, 27436, Note_off_c, 15, 65, 10017, 27450, Note_on_c, 15, 67, 10017, 27454, Note_off_c, 15, 67, 10017, 27466, Control_c, 15, 11, 105
17, 27470, Note_on_c, 15, 69, 10017, 27474, Note_off_c, 15, 69, 10017, 27486, Note_on_c, 15, 71, 10017, 27490, Note_off_c, 15, 71, 10017, 27506, Note_on_c, 15, 72, 10017, 27510, Note_off_c, 15, 72, 10017, 27514, Control_c, 15, 11, 111
17, 27520, Note_on_c, 15, 74, 10017, 27524, Note_off_c, 15, 74, 10017, 27536, Note_on_c, 15, 76, 10017, 27540, Note_off_c, 15, 76, 10017, 27550, Note_on_c, 15, 77, 10017, 27554, Note_off_c, 15, 77, 10017, 27558, Control_c, 15, 11, 113
17, 27566, Note_on_c, 15, 79, 10017, 27570, Note_off_c, 15, 79, 10017, 27578, Note_on_c, 15, 81, 10017, 27582, Note_off_c, 15, 81, 10017, 27590, Note_on_c, 15, 83, 10017, 27594, Note_off_c, 15, 83, 10017, 27602, Control_c, 15, 11, 119
17, 27602, Note_on_c, 15, 84, 10017, 27606, Note_off_c, 15, 84, 10017, 27616, Note_on_c, 15, 86, 10017, 27620, Note_off_c, 15, 86, 10017, 27626, Note_on_c, 15, 88, 10017, 27630, Note_off_c, 15, 88, 10017, 27638, Note_on_c, 15, 89, 10017, 27642, Note_off_c, 15, 89, 10017, 27648, Control_c, 15, 11, 127
17, 27650, Note_on_c, 15, 91, 10017, 27654, Note_off_c, 15, 91, 10017, 27660, Note_on_c, 15, 93, 10017, 27664, Note_off_c, 15, 93, 10017, 27672, Note_on_c, 15, 95, 10017, 27676, Note_off_c, 15, 95, 10017, 29952, Control_c, 15, 11, 50
17, 29960, Note_on_c, 15, 23, 10017, 29964, Note_off_c, 15, 23, 10017, 29964, Note_on_c, 15, 24, 10017, 29968, Note_off_c, 15, 24, 10017, 29970, Control_c, 15, 11, 54
17, 29980, Note_on_c, 15, 26, 10017, 29984, Note_off_c, 15, 26, 10017, 29992, Control_c, 15, 11, 57
17, 30010, Control_c, 15, 11, 60
17, 30014, Note_on_c, 15, 28, 10017, 30018, Note_off_c, 15, 28, 10017, 30044, Note_on_c, 15, 29, 10017, 30048, Note_off_c, 15, 29, 10017, 30050, Control_c, 15, 11, 65
17, 30080, Note_on_c, 15, 31, 10017, 30084, Note_off_c, 15, 31, 10017, 30090, Control_c, 15, 11, 68
17, 30102, Note_on_c, 15, 33, 10017, 30106, Note_off_c, 15, 33, 10017, 30124, Note_on_c, 15, 35, 10017, 30128, Note_off_c, 15, 35, 10017, 30144, Control_c, 15, 11, 73
17, 30144, Note_on_c, 15, 36, 10017, 30148, Note_off_c, 15, 36, 10017, 30166, Note_on_c, 15, 38, 10017, 30170, Note_off_c, 15, 38, 10017, 30184, Note_on_c, 15, 40, 10017, 30188, Note_off_c, 15, 40, 10017, 30194, Control_c, 15, 11, 76
17, 30208, Note_on_c, 15, 41, 10017, 30212, Note_off_c, 15, 41, 10017, 30230, Note_on_c, 15, 43, 10017, 30234, Note_off_c, 15, 43, 10017, 30246, Control_c, 15, 11, 80
17, 30250, Note_on_c, 15, 45, 10017, 30254, Note_off_c, 15, 45, 10017, 30274, Note_on_c, 15, 47, 10017, 30278, Note_off_c, 15, 47, 10017, 30288, Control_c, 15, 11, 84
17, 30300, Note_on_c, 15, 48, 10017, 30304, Note_off_c, 15, 48, 10017, 30322, Note_on_c, 15, 50, 10017, 30326, Note_off_c, 15, 50, 10017, 30336, Control_c, 15, 11, 88
17, 30344, Note_on_c, 15, 52, 10017, 30348, Note_off_c, 15, 52, 10017, 30364, Note_on_c, 15, 53, 10017, 30368, Note_off_c, 15, 53, 10017, 30386, Control_c, 15, 11, 93
17, 30386, Note_on_c, 15, 55, 10017, 30390, Note_off_c, 15, 55, 10017, 30402, Note_on_c, 15, 57, 10017, 30406, Note_off_c, 15, 57, 10017, 30424, Note_on_c, 15, 59, 10017, 30428, Note_off_c, 15, 59, 10017, 30440, Control_c, 15, 11, 97
17, 30444, Note_on_c, 15, 60, 10017, 30448, Note_off_c, 15, 60, 10017, 30464, Note_on_c, 15, 62, 10017, 30468, Note_off_c, 15, 62, 10017, 30480, Control_c, 15, 11, 101
17, 30484, Note_on_c, 15, 64, 10017, 30488, Note_off_c, 15, 64, 10017, 30504, Note_on_c, 15, 65, 10017, 30508, Note_off_c, 15, 65, 10017, 30522, Note_on_c, 15, 67, 10017, 30526, Note_off_c, 15, 67, 10017, 30538, Control_c, 15, 11, 105
17, 30542, Note_on_c, 15, 69, 10017, 30546, Note_off_c, 15, 69, 10017, 30558, Note_on_c, 15, 71, 10017, 30562, Note_off_c, 15, 71, 10017, 30578, Note_on_c, 15, 72, 10017, 30582, Note_off_c, 15, 72, 10017, 30586, Control_c, 15, 11, 111
17, 30592, Note_on_c, 15, 74, 10017, 30596, Note_off_c, 15, 74, 10017, 30608, Note_on_c, 15, 76, 10017, 30612, Note_off_c, 15, 76, 10017, 30622, Note_on_c, 15, 77, 10017, 30626, Note_off_c, 15, 77, 10017, 30630, Control_c, 15, 11, 113
17, 30638, Note_on_c, 15, 79, 10017, 30642, Note_off_c, 15, 79, 10017, 30650, Note_on_c, 15, 81, 10017, 30654, Note_off_c, 15, 81, 10017, 30662, Note_on_c, 15, 83, 10017, 30666, Note_off_c, 15, 83, 10017, 30674, Control_c, 15, 11, 119
17, 30674, Note_on_c, 15, 84, 10017, 30678, Note_off_c, 15, 84, 10017, 30688, Note_on_c, 15, 86, 10017, 30692, Note_off_c, 15, 86, 10017, 30698, Note_on_c, 15, 88, 10017, 30702, Note_off_c, 15, 88, 10017, 30710, Note_on_c, 15, 89, 10017, 30714, Note_off_c, 15, 89, 10017, 30720, Control_c, 15, 11, 127
17, 30722, Note_on_c, 15, 91, 10017, 30726, Note_off_c, 15, 91, 10017, 30732, Note_on_c, 15, 93, 10017, 30736, Note_off_c, 15, 93, 10017, 30744, Note_on_c, 15, 95, 10017, 30748, Note_off_c, 15, 95, 10017, 48384, Control_c, 15, 11, 50
17, 48392, Note_on_c, 15, 23, 10017, 48396, Note_off_c, 15, 23, 10017, 48396, Note_on_c, 15, 24, 10017, 48400, Note_off_c, 15, 24, 10017, 48402, Control_c, 15, 11, 54
17, 48412, Note_on_c, 15, 26, 10017, 48416, Note_off_c, 15, 26, 10017, 48424, Control_c, 15, 11, 57
17, 48442, Control_c, 15, 11, 60
17, 48446, Note_on_c, 15, 28, 10017, 48450, Note_off_c, 15, 28, 10017, 48476, Note_on_c, 15, 29, 10017, 48480, Note_off_c, 15, 29, 10017, 48482, Control_c, 15, 11, 65
17, 48512, Note_on_c, 15, 31, 10017, 48516, Note_off_c, 15, 31, 10017, 48522, Control_c, 15, 11, 68
17, 48534, Note_on_c, 15, 33, 10017, 48538, Note_off_c, 15, 33, 10017, 48556, Note_on_c, 15, 35, 10017, 48560, Note_off_c, 15, 35, 10017, 48576, Control_c, 15, 11, 73
17, 48576, Note_on_c, 15, 36, 10017, 48580, Note_off_c, 15, 36, 10017, 48598, Note_on_c, 15, 38, 10017, 48602, Note_off_c, 15, 38, 10017, 48616, Note_on_c, 15, 40, 10017, 48620, Note_off_c, 15, 40, 10017, 48626, Control_c, 15, 11, 76
17, 48640, Note_on_c, 15, 41, 10017, 48644, Note_off_c, 15, 41, 10017, 48662, Note_on_c, 15, 43, 10017, 48666, Note_off_c, 15, 43, 10017, 48678, Control_c, 15, 11, 80
17, 48682, Note_on_c, 15, 45, 10017, 48686, Note_off_c, 15, 45, 10017, 48706, Note_on_c, 15, 47, 10017, 48710, Note_off_c, 15, 47, 10017, 48720, Control_c, 15, 11, 84
17, 48732, Note_on_c, 15, 48, 10017, 48736, Note_off_c, 15, 48, 10017, 48754, Note_on_c, 15, 50, 10017, 48758, Note_off_c, 15, 50, 10017, 48768, Control_c, 15, 11, 88
17, 48776, Note_on_c, 15, 52, 10017, 48780, Note_off_c, 15, 52, 10017, 48796, Note_on_c, 15, 53, 10017, 48800, Note_off_c, 15, 53, 10017, 48818, Control_c, 15, 11, 93
17, 48818, Note_on_c, 15, 55, 10017, 48822, Note_off_c, 15, 55, 10017, 48834, Note_on_c, 15, 57, 10017, 48838, Note_off_c, 15, 57, 10017, 48856, Note_on_c, 15, 59, 10017, 48860, Note_off_c, 15, 59, 10017, 48872, Control_c, 15, 11, 97
17, 48876, Note_on_c, 15, 60, 10017, 48880, Note_off_c, 15, 60, 10017, 48896, Note_on_c, 15, 62, 10017, 48900, Note_off_c, 15, 62, 10017, 48912, Control_c, 15, 11, 101
17, 48916, Note_on_c, 15, 64, 10017, 48920, Note_off_c, 15, 64, 10017, 48936, Note_on_c, 15, 65, 10017, 48940, Note_off_c, 15, 65, 10017, 48954, Note_on_c, 15, 67, 10017, 48958, Note_off_c, 15, 67, 10017, 48970, Control_c, 15, 11, 105
17, 48974, Note_on_c, 15, 69, 10017, 48978, Note_off_c, 15, 69, 10017, 48990, Note_on_c, 15, 71, 10017, 48994, Note_off_c, 15, 71, 10017, 49010, Note_on_c, 15, 72, 10017, 49014, Note_off_c, 15, 72, 10017, 49018, Control_c, 15, 11, 111
17, 49024, Note_on_c, 15, 74, 10017, 49028, Note_off_c, 15, 74, 10017, 49040, Note_on_c, 15, 76, 10017, 49044, Note_off_c, 15, 76, 10017, 49054, Note_on_c, 15, 77, 10017, 49058, Note_off_c, 15, 77, 10017, 49062, Control_c, 15, 11, 113
17, 49070, Note_on_c, 15, 79, 10017, 49074, Note_off_c, 15, 79, 10017, 49082, Note_on_c, 15, 81, 10017, 49086, Note_off_c, 15, 81, 10017, 49094, Note_on_c, 15, 83, 10017, 49098, Note_off_c, 15, 83, 10017, 49106, Control_c, 15, 11, 119
17, 49106, Note_on_c, 15, 84, 10017, 49110, Note_off_c, 15, 84, 10017, 49120, Note_on_c, 15, 86, 10017, 49124, Note_off_c, 15, 86, 10017, 49130, Note_on_c, 15, 88, 10017, 49134, Note_off_c, 15, 88, 10017, 49142, Note_on_c, 15, 89, 10017, 49146, Note_off_c, 15, 89, 10017, 49152, Control_c, 15, 11, 127
17, 49154, Note_on_c, 15, 91, 10017, 49158, Note_off_c, 15, 91, 10017, 49164, Note_on_c, 15, 93, 10017, 49168, Note_off_c, 15, 93, 10017, 49176, Note_on_c, 15, 95, 10017, 49180, Note_off_c, 15, 95, 10017, 70752, Note_on_c, 15, 56, 10017, 70784, Note_off_c, 15, 56, 10017, 70800, Note_on_c, 15, 68, 10017, 70832, Note_off_c, 15, 68, 10017, 70848, Note_on_c, 15, 74, 10017, 70880, Note_off_c, 15, 74, 10017, 70944, Note_on_c, 15, 56, 10017, 70976, Note_off_c, 15, 56, 10017, 71040, Note_on_c, 15, 56, 10017, 71072, Note_off_c, 15, 56, 10017, 71088, Note_on_c, 15, 68, 10017, 71120, Note_off_c, 15, 68, 10017, 71184, Note_on_c, 15, 56, 10017, 71216, Note_off_c, 15, 56, 10017, 71520, Note_on_c, 15, 56, 10017, 71552, Note_off_c, 15, 56, 10017, 71568, Note_on_c, 15, 68, 10017, 71600, Note_off_c, 15, 68, 10017, 71616, Note_on_c, 15, 74, 10017, 71648, Note_off_c, 15, 74, 10017, 71712, Note_on_c, 15, 56, 10017, 71744, Note_off_c, 15, 56, 10017, 71808, Note_on_c, 15, 56, 10017, 71840, Note_off_c, 15, 56, 10017, 71856, Note_on_c, 15, 68, 10017, 71888, Note_off_c, 15, 68, 10017, 71952, Note_on_c, 15, 56, 10017, 71984, Note_off_c, 15, 56, 10017, 72288, Note_on_c, 15, 56, 10017, 72320, Note_off_c, 15, 56, 10017, 72336, Note_on_c, 15, 68, 10017, 72368, Note_off_c, 15, 68, 10017, 72384, Note_on_c, 15, 74, 10017, 72416, Note_off_c, 15, 74, 10017, 72480, Note_on_c, 15, 56, 10017, 72512, Note_off_c, 15, 56, 10017, 72576, Note_on_c, 15, 56, 10017, 72608, Note_off_c, 15, 56, 10017, 72624, Note_on_c, 15, 68, 10017, 72656, Note_off_c, 15, 68, 10017, 72720, Note_on_c, 15, 56, 10017, 72752, Note_off_c, 15, 56, 10017, 73056, Note_on_c, 15, 56, 10017, 73088, Note_off_c, 15, 56, 10017, 73104, Note_on_c, 15, 68, 10017, 73136, Note_off_c, 15, 68, 10017, 73152, Note_on_c, 15, 74, 10017, 73184, Note_off_c, 15, 74, 10017, 73248, Note_on_c, 15, 56, 10017, 73280, Note_off_c, 15, 56, 10017, 73344, Note_on_c, 15, 56, 10017, 73376, Note_off_c, 15, 56, 10017, 73392, Note_on_c, 15, 68, 10017, 73424, Note_off_c, 15, 68, 10017, 73488, Note_on_c, 15, 56, 10017, 73520, Note_off_c, 15, 56, 10017, 73824, Note_on_c, 15, 56, 10017, 73856, Note_off_c, 15, 56, 10017, 73872, Note_on_c, 15, 68, 10017, 73904, Note_off_c, 15, 68, 10017, 73920, Note_on_c, 15, 74, 10017, 73952, Note_off_c, 15, 74, 10017, 74016, Note_on_c, 15, 56, 10017, 74048, Note_off_c, 15, 56, 10017, 74112, Note_on_c, 15, 56, 10017, 74144, Note_off_c, 15, 56, 10017, 74160, Note_on_c, 15, 68, 10017, 74192, Note_off_c, 15, 68, 10017, 74256, Note_on_c, 15, 56, 10017, 74288, Note_off_c, 15, 56, 10017, 74592, Note_on_c, 15, 56, 10017, 74624, Note_off_c, 15, 56, 10017, 74640, Note_on_c, 15, 68, 10017, 74672, Note_off_c, 15, 68, 10017, 74688, Note_on_c, 15, 74, 10017, 74720, Note_off_c, 15, 74, 10017, 74784, Note_on_c, 15, 56, 10017, 74816, Note_off_c, 15, 56, 10017, 74880, Note_on_c, 15, 56, 10017, 74912, Note_off_c, 15, 56, 10017, 74928, Note_on_c, 15, 68, 10017, 74960, Note_off_c, 15, 68, 10017, 75024, Note_on_c, 15, 56, 10017, 75056, Note_off_c, 15, 56, 10017, 75360, Note_on_c, 15, 56, 10017, 75392, Note_off_c, 15, 56, 10017, 75408, Note_on_c, 15, 68, 10017, 75440, Note_off_c, 15, 68, 10017, 75456, Note_on_c, 15, 74, 10017, 75488, Note_off_c, 15, 74, 10017, 75552, Note_on_c, 15, 56, 10017, 75584, Note_off_c, 15, 56, 10017, 75648, Note_on_c, 15, 56, 10017, 75680, Note_off_c, 15, 56, 10017, 75696, Note_on_c, 15, 68, 10017, 75728, Note_off_c, 15, 68, 10017, 75792, Note_on_c, 15, 56, 10017, 75824, Note_off_c, 15, 56, 10017, 76128, Note_on_c, 15, 56, 10017, 76160, Note_off_c, 15, 56, 10017, 76176, Note_on_c, 15, 68, 10017, 76208, Note_off_c, 15, 68, 10017, 76224, Note_on_c, 15, 74, 10017, 76256, Note_off_c, 15, 74, 10017, 76320, Note_on_c, 15, 56, 10017, 76352, Note_off_c, 15, 56, 10017, 76416, Note_on_c, 15, 56, 10017, 76448, Note_off_c, 15, 56, 10017, 76464, Note_on_c, 15, 68, 10017, 76496, Note_off_c, 15, 68, 10017, 76560, Note_on_c, 15, 56, 10017, 76592, Note_off_c, 15, 56, 10017, 76896, Note_on_c, 15, 56, 10017, 76928, Note_off_c, 15, 56, 10017, 76992, Note_on_c, 15, 74, 10017, 77024, Note_off_c, 15, 74, 10017, 77088, Note_on_c, 15, 56, 10017, 77120, Note_off_c, 15, 56, 10017, 77136, Note_on_c, 15, 62, 10017, 77168, Note_off_c, 15, 62, 10017, 77232, Note_on_c, 15, 56, 10017, 77264, Note_off_c, 15, 56, 10017, 77280, Note_on_c, 15, 68, 10017, 77312, Note_off_c, 15, 68, 10017, 77568, Note_on_c, 15, 56, 10017, 77600, Note_off_c, 15, 56, 10017, 77664, Note_on_c, 15, 62, 10017, 77696, Note_off_c, 15, 62, 10017, 77760, Note_on_c, 15, 80, 10017, 77792, Note_off_c, 15, 80, 10017, 77856, Note_on_c, 15, 62, 10017, 77888, Note_off_c, 15, 62, 10017, 77904, Note_on_c, 15, 68, 10017, 77936, Note_off_c, 15, 68, 10017, 78000, Note_on_c, 15, 62, 10017, 78032, Note_off_c, 15, 62, 10017, 78048, Note_on_c, 15, 74, 10017, 78080, Note_off_c, 15, 74, 10017, 78432, Note_on_c, 15, 56, 10017, 78464, Note_off_c, 15, 56, 10017, 78528, Note_on_c, 15, 74, 10017, 78560, Note_off_c, 15, 74, 10017, 78624, Note_on_c, 15, 56, 10017, 78656, Note_off_c, 15, 56, 10017, 78672, Note_on_c, 15, 62, 10017, 78704, Note_off_c, 15, 62, 10017, 78768, Note_on_c, 15, 56, 10017, 78800, Note_off_c, 15, 56, 10017, 78816, Note_on_c, 15, 68, 10017, 78848, Note_off_c, 15, 68, 10017, 79104, Control_c, 15, 11, 50
17, 79112, Note_on_c, 15, 23, 10017, 79116, Note_off_c, 15, 23, 10017, 79116, Note_on_c, 15, 24, 10017, 79120, Note_off_c, 15, 24, 10017, 79122, Control_c, 15, 11, 54
17, 79132, Note_on_c, 15, 26, 10017, 79136, Note_off_c, 15, 26, 10017, 79144, Control_c, 15, 11, 57
17, 79162, Control_c, 15, 11, 60
17, 79166, Note_on_c, 15, 28, 10017, 79170, Note_off_c, 15, 28, 10017, 79196, Note_on_c, 15, 29, 10017, 79200, Note_off_c, 15, 29, 10017, 79202, Control_c, 15, 11, 65
17, 79232, Note_on_c, 15, 31, 10017, 79236, Note_off_c, 15, 31, 10017, 79242, Control_c, 15, 11, 68
17, 79254, Note_on_c, 15, 33, 10017, 79258, Note_off_c, 15, 33, 10017, 79276, Note_on_c, 15, 35, 10017, 79280, Note_off_c, 15, 35, 10017, 79296, Control_c, 15, 11, 73
17, 79296, Note_on_c, 15, 36, 10017, 79300, Note_off_c, 15, 36, 10017, 79318, Note_on_c, 15, 38, 10017, 79322, Note_off_c, 15, 38, 10017, 79336, Note_on_c, 15, 40, 10017, 79340, Note_off_c, 15, 40, 10017, 79346, Control_c, 15, 11, 76
17, 79360, Note_on_c, 15, 41, 10017, 79364, Note_off_c, 15, 41, 10017, 79382, Note_on_c, 15, 43, 10017, 79386, Note_off_c, 15, 43, 10017, 79398, Control_c, 15, 11, 80
17, 79402, Note_on_c, 15, 45, 10017, 79406, Note_off_c, 15, 45, 10017, 79426, Note_on_c, 15, 47, 10017, 79430, Note_off_c, 15, 47, 10017, 79440, Control_c, 15, 11, 84
17, 79452, Note_on_c, 15, 48, 10017, 79456, Note_off_c, 15, 48, 10017, 79474, Note_on_c, 15, 50, 10017, 79478, Note_off_c, 15, 50, 10017, 79488, Control_c, 15, 11, 88
17, 79496, Note_on_c, 15, 52, 10017, 79500, Note_off_c, 15, 52, 10017, 79516, Note_on_c, 15, 53, 10017, 79520, Note_off_c, 15, 53, 10017, 79538, Control_c, 15, 11, 93
17, 79538, Note_on_c, 15, 55, 10017, 79542, Note_off_c, 15, 55, 10017, 79554, Note_on_c, 15, 57, 10017, 79558, Note_off_c, 15, 57, 10017, 79576, Note_on_c, 15, 59, 10017, 79580, Note_off_c, 15, 59, 10017, 79592, Control_c, 15, 11, 97
17, 79596, Note_on_c, 15, 60, 10017, 79600, Note_off_c, 15, 60, 10017, 79616, Note_on_c, 15, 62, 10017, 79620, Note_off_c, 15, 62, 10017, 79632, Control_c, 15, 11, 101
17, 79636, Note_on_c, 15, 64, 10017, 79640, Note_off_c, 15, 64, 10017, 79656, Note_on_c, 15, 65, 10017, 79660, Note_off_c, 15, 65, 10017, 79674, Note_on_c, 15, 67, 10017, 79678, Note_off_c, 15, 67, 10017, 79690, Control_c, 15, 11, 105
17, 79694, Note_on_c, 15, 69, 10017, 79698, Note_off_c, 15, 69, 10017, 79710, Note_on_c, 15, 71, 10017, 79714, Note_off_c, 15, 71, 10017, 79730, Note_on_c, 15, 72, 10017, 79734, Note_off_c, 15, 72, 10017, 79738, Control_c, 15, 11, 111
17, 79744, Note_on_c, 15, 74, 10017, 79748, Note_off_c, 15, 74, 10017, 79760, Note_on_c, 15, 76, 10017, 79764, Note_off_c, 15, 76, 10017, 79774, Note_on_c, 15, 77, 10017, 79778, Note_off_c, 15, 77, 10017, 79782, Control_c, 15, 11, 113
17, 79790, Note_on_c, 15, 79, 10017, 79794, Note_off_c, 15, 79, 10017, 79802, Note_on_c, 15, 81, 10017, 79806, Note_off_c, 15, 81, 10017, 79814, Note_on_c, 15, 83, 10017, 79818, Note_off_c, 15, 83, 10017, 79826, Control_c, 15, 11, 119
17, 79826, Note_on_c, 15, 84, 10017, 79830, Note_off_c, 15, 84, 10017, 79840, Note_on_c, 15, 86, 10017, 79844, Note_off_c, 15, 86, 10017, 79850, Note_on_c, 15, 88, 10017, 79854, Note_off_c, 15, 88, 10017, 79862, Note_on_c, 15, 89, 10017, 79866, Note_off_c, 15, 89, 10017, 79872, Control_c, 15, 11, 127
17, 79874, Note_on_c, 15, 91, 10017, 79878, Note_off_c, 15, 91, 10017, 79884, Note_on_c, 15, 93, 10017, 79888, Note_off_c, 15, 93, 10017, 79896, Note_on_c, 15, 95, 10017, 79900, Note_off_c, 15, 95, 10017, 97536, Control_c, 15, 11, 50
17, 97544, Note_on_c, 15, 23, 10017, 97548, Note_off_c, 15, 23, 10017, 97548, Note_on_c, 15, 24, 10017, 97552, Note_off_c, 15, 24, 10017, 97554, Control_c, 15, 11, 54
17, 97564, Note_on_c, 15, 26, 10017, 97568, Note_off_c, 15, 26, 10017, 97576, Control_c, 15, 11, 57
17, 97594, Control_c, 15, 11, 60
17, 97598, Note_on_c, 15, 28, 10017, 97602, Note_off_c, 15, 28, 10017, 97628, Note_on_c, 15, 29, 10017, 97632, Note_off_c, 15, 29, 10017, 97634, Control_c, 15, 11, 65
17, 97664, Note_on_c, 15, 31, 10017, 97668, Note_off_c, 15, 31, 10017, 97674, Control_c, 15, 11, 68
17, 97686, Note_on_c, 15, 33, 10017, 97690, Note_off_c, 15, 33, 10017, 97708, Note_on_c, 15, 35, 10017, 97712, Note_off_c, 15, 35, 10017, 97728, Control_c, 15, 11, 73
17, 97728, Note_on_c, 15, 36, 10017, 97732, Note_off_c, 15, 36, 10017, 97750, Note_on_c, 15, 38, 10017, 97754, Note_off_c, 15, 38, 10017, 97768, Note_on_c, 15, 40, 10017, 97772, Note_off_c, 15, 40, 10017, 97778, Control_c, 15, 11, 76
17, 97792, Note_on_c, 15, 41, 10017, 97796, Note_off_c, 15, 41, 10017, 97814, Note_on_c, 15, 43, 10017, 97818, Note_off_c, 15, 43, 10017, 97830, Control_c, 15, 11, 80
17, 97834, Note_on_c, 15, 45, 10017, 97838, Note_off_c, 15, 45, 10017, 97858, Note_on_c, 15, 47, 10017, 97862, Note_off_c, 15, 47, 10017, 97872, Control_c, 15, 11, 84
17, 97884, Note_on_c, 15, 48, 10017, 97888, Note_off_c, 15, 48, 10017, 97906, Note_on_c, 15, 50, 10017, 97910, Note_off_c, 15, 50, 10017, 97920, Control_c, 15, 11, 88
17, 97928, Note_on_c, 15, 52, 10017, 97932, Note_off_c, 15, 52, 10017, 97948, Note_on_c, 15, 53, 10017, 97952, Note_off_c, 15, 53, 10017, 97970, Control_c, 15, 11, 93
17, 97970, Note_on_c, 15, 55, 10017, 97974, Note_off_c, 15, 55, 10017, 97986, Note_on_c, 15, 57, 10017, 97990, Note_off_c, 15, 57, 10017, 98008, Note_on_c, 15, 59, 10017, 98012, Note_off_c, 15, 59, 10017, 98024, Control_c, 15, 11, 97
17, 98028, Note_on_c, 15, 60, 10017, 98032, Note_off_c, 15, 60, 10017, 98048, Note_on_c, 15, 62, 10017, 98052, Note_off_c, 15, 62, 10017, 98064, Control_c, 15, 11, 101
17, 98068, Note_on_c, 15, 64, 10017, 98072, Note_off_c, 15, 64, 10017, 98088, Note_on_c, 15, 65, 10017, 98092, Note_off_c, 15, 65, 10017, 98106, Note_on_c, 15, 67, 10017, 98110, Note_off_c, 15, 67, 10017, 98122, Control_c, 15, 11, 105
17, 98126, Note_on_c, 15, 69, 10017, 98130, Note_off_c, 15, 69, 10017, 98142, Note_on_c, 15, 71, 10017, 98146, Note_off_c, 15, 71, 10017, 98162, Note_on_c, 15, 72, 10017, 98166, Note_off_c, 15, 72, 10017, 98170, Control_c, 15, 11, 111
17, 98176, Note_on_c, 15, 74, 10017, 98180, Note_off_c, 15, 74, 10017, 98192, Note_on_c, 15, 76, 10017, 98196, Note_off_c, 15, 76, 10017, 98206, Note_on_c, 15, 77, 10017, 98210, Note_off_c, 15, 77, 10017, 98214, Control_c, 15, 11, 113
17, 98222, Note_on_c, 15, 79, 10017, 98226, Note_off_c, 15, 79, 10017, 98234, Note_on_c, 15, 81, 10017, 98238, Note_off_c, 15, 81, 10017, 98246, Note_on_c, 15, 83, 10017, 98250, Note_off_c, 15, 83, 10017, 98258, Control_c, 15, 11, 119
17, 98258, Note_on_c, 15, 84, 10017, 98262, Note_off_c, 15, 84, 10017, 98272, Note_on_c, 15, 86, 10017, 98276, Note_off_c, 15, 86, 10017, 98282, Note_on_c, 15, 88, 10017, 98286, Note_off_c, 15, 88, 10017, 98294, Note_on_c, 15, 89, 10017, 98298, Note_off_c, 15, 89, 10017, 98304, Control_c, 15, 11, 127
17, 98306, Note_on_c, 15, 91, 10017, 98310, Note_off_c, 15, 91, 10017, 98316, Note_on_c, 15, 93, 10017, 98320, Note_off_c, 15, 93, 10017, 98328, Note_on_c, 15, 95, 10017, 98332, Note_off_c, 15, 95, 10017, 109824, Control_c, 15, 11, 50
17, 109832, Note_on_c, 15, 23, 10017, 109836, Note_off_c, 15, 23, 10017, 109836, Note_on_c, 15, 24, 10017, 109840, Note_off_c, 15, 24, 10017, 109842, Control_c, 15, 11, 54
17, 109852, Note_on_c, 15, 26, 10017, 109856, Note_off_c, 15, 26, 10017, 109864, Control_c, 15, 11, 57
17, 109882, Control_c, 15, 11, 60
17, 109886, Note_on_c, 15, 28, 10017, 109890, Note_off_c, 15, 28, 10017, 109916, Note_on_c, 15, 29, 10017, 109920, Note_off_c, 15, 29, 10017, 109922, Control_c, 15, 11, 65
17, 109952, Note_on_c, 15, 31, 10017, 109956, Note_off_c, 15, 31, 10017, 109962, Control_c, 15, 11, 68
17, 109974, Note_on_c, 15, 33, 10017, 109978, Note_off_c, 15, 33, 10017, 109996, Note_on_c, 15, 35, 10017, 110000, Note_off_c, 15, 35, 10017, 110016, Control_c, 15, 11, 73
17, 110016, Note_on_c, 15, 36, 10017, 110020, Note_off_c, 15, 36, 10017, 110038, Note_on_c, 15, 38, 10017, 110042, Note_off_c, 15, 38, 10017, 110056, Note_on_c, 15, 40, 10017, 110060, Note_off_c, 15, 40, 10017, 110066, Control_c, 15, 11, 76
17, 110080, Note_on_c, 15, 41, 10017, 110084, Note_off_c, 15, 41, 10017, 110102, Note_on_c, 15, 43, 10017, 110106, Note_off_c, 15, 43, 10017, 110118, Control_c, 15, 11, 80
17, 110122, Note_on_c, 15, 45, 10017, 110126, Note_off_c, 15, 45, 10017, 110146, Note_on_c, 15, 47, 10017, 110150, Note_off_c, 15, 47, 10017, 110160, Control_c, 15, 11, 84
17, 110172, Note_on_c, 15, 48, 10017, 110176, Note_off_c, 15, 48, 10017, 110194, Note_on_c, 15, 50, 10017, 110198, Note_off_c, 15, 50, 10017, 110208, Control_c, 15, 11, 88
17, 110216, Note_on_c, 15, 52, 10017, 110220, Note_off_c, 15, 52, 10017, 110236, Note_on_c, 15, 53, 10017, 110240, Note_off_c, 15, 53, 10017, 110258, Control_c, 15, 11, 93
17, 110258, Note_on_c, 15, 55, 10017, 110262, Note_off_c, 15, 55, 10017, 110274, Note_on_c, 15, 57, 10017, 110278, Note_off_c, 15, 57, 10017, 110296, Note_on_c, 15, 59, 10017, 110300, Note_off_c, 15, 59, 10017, 110312, Control_c, 15, 11, 97
17, 110316, Note_on_c, 15, 60, 10017, 110320, Note_off_c, 15, 60, 10017, 110336, Note_on_c, 15, 62, 10017, 110340, Note_off_c, 15, 62, 10017, 110352, Control_c, 15, 11, 101
17, 110356, Note_on_c, 15, 64, 10017, 110360, Note_off_c, 15, 64, 10017, 110376, Note_on_c, 15, 65, 10017, 110380, Note_off_c, 15, 65, 10017, 110394, Note_on_c, 15, 67, 10017, 110398, Note_off_c, 15, 67, 10017, 110410, Control_c, 15, 11, 105
17, 110414, Note_on_c, 15, 69, 10017, 110418, Note_off_c, 15, 69, 10017, 110430, Note_on_c, 15, 71, 10017, 110434, Note_off_c, 15, 71, 10017, 110450, Note_on_c, 15, 72, 10017, 110454, Note_off_c, 15, 72, 10017, 110458, Control_c, 15, 11, 111
17, 110464, Note_on_c, 15, 74, 10017, 110468, Note_off_c, 15, 74, 10017, 110480, Note_on_c, 15, 76, 10017, 110484, Note_off_c, 15, 76, 10017, 110494, Note_on_c, 15, 77, 10017, 110498, Note_off_c, 15, 77, 10017, 110502, Control_c, 15, 11, 113
17, 110510, Note_on_c, 15, 79, 10017, 110514, Note_off_c, 15, 79, 10017, 110522, Note_on_c, 15, 81, 10017, 110526, Note_off_c, 15, 81, 10017, 110534, Note_on_c, 15, 83, 10017, 110538, Note_off_c, 15, 83, 10017, 110546, Control_c, 15, 11, 119
17, 110546, Note_on_c, 15, 84, 10017, 110550, Note_off_c, 15, 84, 10017, 110560, Note_on_c, 15, 86, 10017, 110564, Note_off_c, 15, 86, 10017, 110570, Note_on_c, 15, 88, 10017, 110574, Note_off_c, 15, 88, 10017, 110582, Note_on_c, 15, 89, 10017, 110586, Note_off_c, 15, 89, 10017, 110592, Control_c, 15, 11, 127
17, 110594, Note_on_c, 15, 91, 10017, 110598, Note_off_c, 15, 91, 10017, 110604, Note_on_c, 15, 93, 10017, 110608, Note_off_c, 15, 93, 10017, 110616, Note_on_c, 15, 95, 10017, 110620, Note_off_c, 15, 95, 10017, 121344, Control_c, 15, 11, 50
17, 121352, Note_on_c, 15, 23, 10017, 121356, Note_off_c, 15, 23, 10017, 121356, Note_on_c, 15, 24, 10017, 121360, Note_off_c, 15, 24, 10017, 121362, Control_c, 15, 11, 54
17, 121372, Note_on_c, 15, 26, 10017, 121376, Note_off_c, 15, 26, 10017, 121384, Control_c, 15, 11, 57
17, 121402, Control_c, 15, 11, 60
17, 121406, Note_on_c, 15, 28, 10017, 121410, Note_off_c, 15, 28, 10017, 121436, Note_on_c, 15, 29, 10017, 121440, Note_off_c, 15, 29, 10017, 121442, Control_c, 15, 11, 65
17, 121472, Note_on_c, 15, 31, 10017, 121476, Note_off_c, 15, 31, 10017, 121482, Control_c, 15, 11, 68
17, 121494, Note_on_c, 15, 33, 10017, 121498, Note_off_c, 15, 33, 10017, 121516, Note_on_c, 15, 35, 10017, 121520, Note_off_c, 15, 35, 10017, 121536, Control_c, 15, 11, 73
17, 121536, Note_on_c, 15, 36, 10017, 121540, Note_off_c, 15, 36, 10017, 121558, Note_on_c, 15, 38, 10017, 121562, Note_off_c, 15, 38, 10017, 121576, Note_on_c, 15, 40, 10017, 121580, Note_off_c, 15, 40, 10017, 121586, Control_c, 15, 11, 76
17, 121600, Note_on_c, 15, 41, 10017, 121604, Note_off_c, 15, 41, 10017, 121622, Note_on_c, 15, 43, 10017, 121626, Note_off_c, 15, 43, 10017, 121638, Control_c, 15, 11, 80
17, 121642, Note_on_c, 15, 45, 10017, 121646, Note_off_c, 15, 45, 10017, 121666, Note_on_c, 15, 47, 10017, 121670, Note_off_c, 15, 47, 10017, 121680, Control_c, 15, 11, 84
17, 121692, Note_on_c, 15, 48, 10017, 121696, Note_off_c, 15, 48, 10017, 121714, Note_on_c, 15, 50, 10017, 121718, Note_off_c, 15, 50, 10017, 121728, Control_c, 15, 11, 88
17, 121736, Note_on_c, 15, 52, 10017, 121740, Note_off_c, 15, 52, 10017, 121756, Note_on_c, 15, 53, 10017, 121760, Note_off_c, 15, 53, 10017, 121778, Control_c, 15, 11, 93
17, 121778, Note_on_c, 15, 55, 10017, 121782, Note_off_c, 15, 55, 10017, 121794, Note_on_c, 15, 57, 10017, 121798, Note_off_c, 15, 57, 10017, 121816, Note_on_c, 15, 59, 10017, 121820, Note_off_c, 15, 59, 10017, 121832, Control_c, 15, 11, 97
17, 121836, Note_on_c, 15, 60, 10017, 121840, Note_off_c, 15, 60, 10017, 121856, Note_on_c, 15, 62, 10017, 121860, Note_off_c, 15, 62, 10017, 121872, Control_c, 15, 11, 101
17, 121876, Note_on_c, 15, 64, 10017, 121880, Note_off_c, 15, 64, 10017, 121896, Note_on_c, 15, 65, 10017, 121900, Note_off_c, 15, 65, 10017, 121914, Note_on_c, 15, 67, 10017, 121918, Note_off_c, 15, 67, 10017, 121930, Control_c, 15, 11, 105
17, 121934, Note_on_c, 15, 69, 10017, 121938, Note_off_c, 15, 69, 10017, 121950, Note_on_c, 15, 71, 10017, 121954, Note_off_c, 15, 71, 10017, 121970, Note_on_c, 15, 72, 10017, 121974, Note_off_c, 15, 72, 10017, 121978, Control_c, 15, 11, 111
17, 121984, Note_on_c, 15, 74, 10017, 121988, Note_off_c, 15, 74, 10017, 122000, Note_on_c, 15, 76, 10017, 122004, Note_off_c, 15, 76, 10017, 122014, Note_on_c, 15, 77, 10017, 122018, Note_off_c, 15, 77, 10017, 122022, Control_c, 15, 11, 113
17, 122030, Note_on_c, 15, 79, 10017, 122034, Note_off_c, 15, 79, 10017, 122042, Note_on_c, 15, 81, 10017, 122046, Note_off_c, 15, 81, 10017, 122054, Note_on_c, 15, 83, 10017, 122058, Note_off_c, 15, 83, 10017, 122066, Control_c, 15, 11, 119
17, 122066, Note_on_c, 15, 84, 10017, 122070, Note_off_c, 15, 84, 10017, 122080, Note_on_c, 15, 86, 10017, 122084, Note_off_c, 15, 86, 10017, 122090, Note_on_c, 15, 88, 10017, 122094, Note_off_c, 15, 88, 10017, 122102, Note_on_c, 15, 89, 10017, 122106, Note_off_c, 15, 89, 10017, 122112, Control_c, 15, 11, 127
17, 122114, Note_on_c, 15, 91, 10017, 122118, Note_off_c, 15, 91, 10017, 122124, Note_on_c, 15, 93, 10017, 122128, Note_off_c, 15, 93, 10017, 122136, Note_on_c, 15, 95, 10017, 122140, Note_off_c, 15, 95, 10017, 122140, End_track
18, 0, Start_track
18, 0, Text_t, "SC55dump"
18, 117, System_exclusive, 89, 41, 10, 42, 12, 48, 00, 00, 00, 04, 00, 00, 07, 0F, 05, 04, 04, 02, 04, 00, 04, 00, 00, 00, 02, 0D, 02, 00, 05, 03, 04, 0F, 05, 05, 04, 0E, 04, 04, 02, 00, 04, 03, 06, 01, 06, 0E, 07, 06, 06, 01, 07, 03, 02, 00, 02, 0D, 00, 02, 00, 06, 00, 02, 00, 02, 00, 02, 00, 02, 00, 02, 00, 02, 00, 02, 00, 02, 00, 00, 00, 00, 00, 00, 00, 00, 00, 00, 00, 00, 00, 00, 00, 00, 00, 04, 00, 04, 00, 00, 04, 00, 04, 00, 00, 00, 00, 00, 00, 00, 00, 02, 00, 00, 04, 00, 00, 08, 05, 00, 00, 03, 01, 03, 00, 00, 00, 00, 00, 00, 00, 00, 00, 00, 00, 00, 00, 00, 22, F7
18, 153, System_exclusive, 89, 41, 10, 42, 12, 48, 01, 00, 00, 00, 00, 00, 00, 00, 00, 00, 00, 00, 00, 00, 00, 00, 00, 00, 00, 00, 01, 08, 0F, 0F, 0F, 0F, 00, 09, 0D, 00, 04, 00, 08, 00, 06, 04, 04, 00, 04, 00, 04, 00, 00, 00, 07, 0F, 00, 00, 00, 00, 04, 00, 04, 00, 04, 00, 04, 00, 04, 00, 04, 00, 04, 00, 04, 00, 00, 00, 00, 00, 04, 00, 04, 00, 04, 00, 04, 00, 04, 00, 04, 00, 04, 00, 04, 00, 04, 00, 04, 00, 04, 00, 04, 00, 01, 00, 01, 01, 04, 00, 04, 00, 04, 00, 00, 00, 04, 00, 00, 0A, 00, 00, 00, 00, 04, 00, 00, 00, 00, 00, 00, 00, 04, 02, 04, 00, 04, 00, 00, 00, 25, F7
18, 189, System_exclusive, 89, 41, 10, 42, 12, 48, 02, 00, 04, 00, 00, 00, 00, 00, 00, 00, 04, 00, 00, 00, 00, 00, 00, 00, 04, 00, 04, 00, 04, 00, 04, 00, 04, 00, 00, 00, 00, 00, 00, 00, 04, 00, 00, 00, 00, 00, 00, 00, 04, 00, 04, 00, 04, 00, 04, 00, 04, 00, 00, 00, 00, 00, 00, 00, 04, 00, 00, 00, 00, 00, 00, 00, 04, 00, 04, 00, 04, 00, 00, 00, 04, 00, 00, 00, 00, 00, 00, 00, 04, 00, 00, 00, 00, 00, 00, 00, 04, 00, 04, 00, 04, 00, 00, 00, 04, 00, 00, 00, 00, 00, 00, 00, 04, 00, 00, 00, 00, 00, 00, 00, 00, 00, 05, 09, 0F, 0F, 0F, 0F, 00, 00, 08, 01, 04, 00, 08, 00, 77, F7
18, 225, System_exclusive, 89, 41, 10, 42, 12, 48, 03, 00, 06, 04, 04, 00, 04, 00, 04, 00, 00, 00, 07, 0F, 06, 0E, 02, 08, 04, 00, 04, 00, 04, 00, 04, 00, 04, 00, 04, 00, 04, 00, 04, 00, 00, 00, 00, 00, 04, 00, 04, 00, 04, 00, 04, 00, 04, 00, 04, 00, 04, 00, 04, 00, 04, 00, 04, 00, 04, 00, 04, 00, 01, 00, 01, 01, 04, 00, 04, 00, 04, 00, 00, 00, 04, 00, 00, 0A, 00, 00, 00, 00, 04, 00, 00, 00, 00, 00, 00, 00, 04, 02, 04, 00, 04, 00, 00, 00, 04, 00, 00, 00, 00, 00, 00, 00, 04, 00, 00, 00, 00, 00, 00, 00, 04, 00, 04, 00, 04, 00, 04, 00, 04, 00, 00, 00, 00, 00, 00, 00, 50, F7
18, 261, System_exclusive, 89, 41, 10, 42, 12, 48, 04, 00, 04, 00, 00, 00, 00, 00, 00, 00, 04, 00, 04, 00, 04, 00, 04, 00, 04, 00, 00, 00, 00, 00, 00, 00, 04, 00, 00, 00, 00, 00, 00, 00, 04, 00, 04, 00, 04, 00, 00, 00, 04, 00, 00, 00, 00, 00, 00, 00, 04, 00, 00, 00, 00, 00, 00, 00, 04, 00, 04, 00, 04, 00, 00, 00, 04, 00, 00, 00, 00, 00, 00, 00, 04, 00, 00, 00, 00, 00, 00, 00, 00, 00, 02, 06, 0F, 0F, 0F, 0F, 00, 01, 08, 01, 04, 00, 08, 00, 06, 04, 04, 00, 04, 00, 04, 00, 00, 00, 07, 0F, 05, 00, 00, 0A, 04, 00, 04, 00, 04, 00, 04, 00, 04, 00, 04, 00, 04, 00, 04, 00, 3B, F7
18, 296, System_exclusive, 89, 41, 10, 42, 12, 48, 05, 00, 00, 00, 00, 00, 04, 00, 04, 00, 04, 00, 04, 00, 04, 00, 04, 00, 04, 00, 04, 00, 04, 00, 04, 00, 04, 00, 04, 00, 01, 00, 01, 01, 04, 00, 04, 00, 04, 00, 00, 00, 04, 00, 00, 0A, 00, 00, 00, 00, 04, 00, 00, 00, 00, 00, 00, 00, 04, 02, 04, 00, 04, 00, 00, 00, 04, 00, 00, 00, 00, 00, 00, 00, 04, 00, 00, 00, 00, 00, 00, 00, 04, 00, 04, 00, 04, 00, 04, 00, 04, 00, 00, 00, 00, 00, 00, 00, 04, 00, 00, 00, 00, 00, 00, 00, 04, 00, 04, 00, 04, 00, 04, 00, 04, 00, 00, 00, 00, 00, 00, 00, 04, 00, 00, 00, 00, 00, 00, 00, 1C, F7
18, 332, System_exclusive, 89, 41, 10, 42, 12, 48, 06, 00, 04, 00, 04, 00, 04, 00, 00, 00, 04, 00, 00, 00, 00, 00, 00, 00, 04, 00, 00, 00, 00, 00, 00, 00, 04, 00, 04, 00, 04, 00, 00, 00, 04, 00, 00, 00, 00, 00, 00, 00, 04, 00, 00, 00, 00, 00, 00, 00, 00, 00, 05, 07, 0F, 0F, 0F, 0F, 00, 02, 08, 01, 04, 00, 08, 00, 06, 04, 05, 08, 04, 00, 04, 00, 00, 00, 07, 0F, 00, 00, 03, 0C, 04, 00, 04, 00, 04, 00, 04, 00, 04, 00, 04, 00, 04, 00, 04, 00, 00, 00, 00, 00, 04, 00, 04, 00, 04, 00, 04, 00, 04, 00, 04, 00, 04, 00, 04, 00, 04, 00, 04, 00, 04, 00, 04, 00, 01, 00, 01, 01, 14, F7
18, 368, System_exclusive, 89, 41, 10, 42, 12, 48, 07, 00, 04, 00, 04, 00, 04, 00, 00, 00, 04, 00, 00, 0A, 00, 00, 00, 00, 04, 00, 00, 00, 00, 00, 00, 00, 04, 02, 04, 00, 04, 00, 00, 00, 04, 00, 00, 00, 00, 00, 00, 00, 04, 00, 00, 00, 00, 00, 00, 00, 04, 00, 04, 00, 04, 00, 04, 00, 04, 00, 00, 00, 00, 00, 00, 00, 04, 00, 00, 00, 00, 00, 00, 00, 04, 00, 04, 00, 04, 00, 04, 00, 04, 00, 00, 00, 00, 00, 00, 00, 04, 00, 00, 00, 00, 00, 00, 00, 04, 00, 04, 00, 04, 00, 00, 00, 04, 00, 00, 00, 00, 00, 00, 00, 04, 00, 00, 00, 00, 00, 00, 00, 04, 00, 04, 00, 04, 00, 00, 00, 2D, F7
18, 403, System_exclusive, 89, 41, 10, 42, 12, 48, 08, 00, 04, 00, 00, 00, 00, 00, 00, 00, 04, 00, 00, 00, 00, 00, 00, 00, 00, 00, 06, 03, 0F, 0F, 0F, 0F, 00, 03, 08, 01, 04, 00, 08, 00, 06, 04, 04, 00, 04, 00, 04, 00, 00, 00, 07, 0F, 00, 00, 02, 08, 04, 00, 04, 00, 04, 00, 04, 00, 04, 00, 04, 00, 04, 00, 04, 00, 00, 00, 00, 00, 04, 00, 04, 00, 04, 00, 04, 00, 04, 00, 04, 00, 04, 00, 04, 00, 04, 00, 04, 00, 04, 00, 04, 00, 01, 00, 01, 01, 04, 00, 04, 00, 04, 00, 00, 00, 04, 00, 00, 0A, 00, 00, 00, 00, 04, 00, 00, 00, 00, 00, 00, 00, 04, 02, 04, 00, 04, 00, 00, 00, 16, F7
18, 440, System_exclusive, 89, 41, 10, 42, 12, 48, 09, 00, 04, 00, 00, 00, 00, 00, 00, 00, 04, 00, 00, 00, 00, 00, 00, 00, 04, 00, 04, 00, 04, 00, 04, 00, 04, 00, 00, 00, 00, 00, 00, 00, 04, 00, 00, 00, 00, 00, 00, 00, 04, 00, 04, 00, 04, 00, 04, 00, 04, 00, 00, 00, 00, 00, 00, 00, 04, 00, 00, 00, 00, 00, 00, 00, 04, 00, 04, 00, 04, 00, 00, 00, 04, 00, 00, 00, 00, 00, 00, 00, 04, 00, 00, 00, 00, 00, 00, 00, 04, 00, 04, 00, 04, 00, 00, 00, 04, 00, 00, 00, 00, 00, 00, 00, 04, 00, 00, 00, 00, 00, 00, 00, 00, 00, 00, 07, 0F, 0F, 0F, 0F, 00, 04, 08, 01, 04, 00, 08, 00, 73, F7
18, 476, System_exclusive, 89, 41, 10, 42, 12, 48, 0A, 00, 06, 04, 01, 00, 04, 00, 04, 00, 00, 00, 07, 0F, 00, 00, 02, 08, 04, 00, 04, 00, 04, 00, 04, 00, 04, 00, 04, 00, 04, 00, 04, 00, 00, 00, 00, 00, 04, 00, 04, 00, 04, 00, 04, 00, 04, 00, 04, 00, 04, 00, 04, 00, 04, 00, 04, 00, 04, 00, 04, 00, 01, 00, 01, 01, 04, 00, 04, 00, 04, 00, 00, 00, 04, 00, 00, 0A, 00, 00, 00, 00, 04, 00, 00, 00, 00, 00, 00, 00, 04, 02, 04, 00, 04, 00, 00, 00, 04, 00, 00, 00, 00, 00, 00, 00, 04, 00, 00, 00, 00, 00, 00, 00, 04, 00, 04, 00, 04, 00, 04, 00, 04, 00, 00, 00, 00, 00, 00, 00, 60, F7
18, 512, System_exclusive, 89, 41, 10, 42, 12, 48, 0B, 00, 04, 00, 00, 00, 00, 00, 00, 00, 04, 00, 04, 00, 04, 00, 04, 00, 04, 00, 00, 00, 00, 00, 00, 00, 04, 00, 00, 00, 00, 00, 00, 00, 04, 00, 04, 00, 04, 00, 00, 00, 04, 00, 00, 00, 00, 00, 00, 00, 04, 00, 00, 00, 00, 00, 00, 00, 04, 00, 04, 00, 04, 00, 00, 00, 04, 00, 00, 00, 00, 00, 00, 00, 04, 00, 00, 00, 00, 00, 00, 00, 00, 00, 00, 07, 0F, 0F, 0F, 0F, 00, 05, 08, 01, 04, 00, 08, 00, 06, 04, 07, 00, 04, 00, 04, 00, 00, 00, 07, 0F, 00, 00, 02, 08, 04, 00, 04, 00, 04, 00, 04, 00, 04, 00, 04, 00, 04, 00, 04, 00, 33, F7
18, 548, System_exclusive, 89, 41, 10, 42, 12, 48, 0C, 00, 00, 00, 00, 00, 04, 00, 04, 00, 04, 00, 04, 00, 04, 00, 04, 00, 04, 00, 04, 00, 04, 00, 04, 00, 04, 00, 04, 00, 01, 00, 01, 01, 04, 00, 04, 00, 04, 00, 00, 00, 04, 00, 00, 0A, 00, 00, 00, 00, 04, 00, 00, 00, 00, 00, 00, 00, 04, 02, 04, 00, 04, 00, 00, 00, 04, 00, 00, 00, 00, 00, 00, 00, 04, 00, 00, 00, 00, 00, 00, 00, 04, 00, 04, 00, 04, 00, 04, 00, 04, 00, 00, 00, 00, 00, 00, 00, 04, 00, 00, 00, 00, 00, 00, 00, 04, 00, 04, 00, 04, 00, 04, 00, 04, 00, 00, 00, 00, 00, 00, 00, 04, 00, 00, 00, 00, 00, 00, 00, 15, F7
18, 584, System_exclusive, 89, 41, 10, 42, 12, 48, 0D, 00, 04, 00, 04, 00, 04, 00, 00, 00, 04, 00, 00, 00, 00, 00, 00, 00, 04, 00, 00, 00, 00, 00, 00, 00, 04, 00, 04, 00, 04, 00, 00, 00, 04, 00, 00, 00, 00, 00, 00, 00, 04, 00, 00, 00, 00, 00, 00, 00, 00, 00, 03, 0E, 0F, 0F, 0F, 0F, 00, 06, 08, 01, 04, 00, 08, 00, 06, 04, 02, 08, 04, 00, 04, 00, 00, 00, 07, 0F, 00, 00, 03, 02, 04, 00, 04, 00, 04, 00, 04, 00, 04, 00, 04, 00, 04, 00, 04, 00, 00, 00, 00, 00, 04, 00, 04, 00, 04, 00, 04, 00, 04, 00, 04, 00, 04, 00, 04, 00, 04, 00, 04, 00, 04, 00, 04, 00, 01, 00, 01, 01, 11, F7
18, 621, System_exclusive, 89, 41, 10, 42, 12, 48, 0E, 00, 04, 00, 04, 00, 04, 00, 00, 00, 04, 00, 00, 0A, 00, 00, 00, 00, 04, 00, 00, 00, 00, 00, 00, 00, 04, 02, 04, 00, 04, 00, 00, 00, 04, 00, 00, 00, 00, 00, 00, 00, 04, 00, 00, 00, 00, 00, 00, 00, 04, 00, 04, 00, 04, 00, 04, 00, 04, 00, 00, 00, 00, 00, 00, 00, 04, 00, 00, 00, 00, 00, 00, 00, 04, 00, 04, 00, 04, 00, 04, 00, 04, 00, 00, 00, 00, 00, 00, 00, 04, 00, 00, 00, 00, 00, 00, 00, 04, 00, 04, 00, 04, 00, 00, 00, 04, 00, 00, 00, 00, 00, 00, 00, 04, 00, 00, 00, 00, 00, 00, 00, 04, 00, 04, 00, 04, 00, 00, 00, 26, F7
18, 657, System_exclusive, 89, 41, 10, 42, 12, 48, 0F, 00, 04, 00, 00, 00, 00, 00, 00, 00, 04, 00, 00, 00, 00, 00, 00, 00, 00, 00, 03, 05, 0F, 0F, 0F, 0F, 00, 07, 08, 01, 04, 00, 08, 00, 06, 04, 04, 00, 04, 00, 04, 00, 00, 00, 07, 0F, 00, 00, 02, 08, 04, 00, 04, 00, 04, 00, 04, 00, 04, 00, 04, 00, 04, 00, 04, 00, 00, 00, 00, 00, 04, 00, 04, 00, 04, 00, 04, 00, 04, 00, 04, 00, 04, 00, 04, 00, 04, 00, 04, 00, 04, 00, 04, 00, 01, 00, 01, 01, 04, 00, 04, 00, 04, 00, 00, 00, 04, 00, 00, 0A, 00, 00, 00, 00, 04, 00, 00, 00, 00, 00, 00, 00, 04, 02, 04, 00, 04, 00, 00, 00, 0C, F7
18, 692, System_exclusive, 89, 41, 10, 42, 12, 48, 10, 00, 04, 00, 00, 00, 00, 00, 00, 00, 04, 00, 00, 00, 00, 00, 00, 00, 04, 00, 04, 00, 04, 00, 04, 00, 04, 00, 00, 00, 00, 00, 00, 00, 04, 00, 00, 00, 00, 00, 00, 00, 04, 00, 04, 00, 04, 00, 04, 00, 04, 00, 00, 00, 00, 00, 00, 00, 04, 00, 00, 00, 00, 00, 00, 00, 04, 00, 04, 00, 04, 00, 00, 00, 04, 00, 00, 00, 00, 00, 00, 00, 04, 00, 00, 00, 00, 00, 00, 00, 04, 00, 04, 00, 04, 00, 00, 00, 04, 00, 00, 00, 00, 00, 00, 00, 04, 00, 00, 00, 00, 00, 00, 00, 00, 00, 03, 02, 0F, 0F, 0F, 0F, 00, 08, 08, 01, 04, 00, 08, 00, 6A, F7
18, 728, System_exclusive, 89, 41, 10, 42, 12, 48, 11, 00, 06, 04, 07, 08, 04, 00, 04, 00, 00, 00, 07, 0F, 06, 0E, 03, 02, 04, 00, 04, 00, 04, 00, 04, 00, 04, 00, 04, 00, 04, 00, 04, 00, 00, 00, 00, 00, 04, 00, 04, 00, 04, 00, 04, 00, 04, 00, 04, 00, 04, 00, 04, 00, 04, 00, 04, 00, 04, 00, 04, 00, 01, 00, 01, 01, 04, 00, 04, 00, 04, 00, 00, 00, 04, 00, 00, 0A, 00, 00, 00, 00, 04, 00, 00, 00, 00, 00, 00, 00, 04, 02, 04, 00, 04, 00, 00, 00, 04, 00, 00, 00, 00, 00, 00, 00, 04, 00, 00, 00, 00, 00, 00, 00, 04, 00, 04, 00, 04, 00, 04, 00, 04, 00, 00, 00, 00, 00, 00, 00, 3C, F7
18, 764, System_exclusive, 89, 41, 10, 42, 12, 48, 12, 00, 04, 00, 00, 00, 00, 00, 00, 00, 04, 00, 04, 00, 04, 00, 04, 00, 04, 00, 00, 00, 00, 00, 00, 00, 04, 00, 00, 00, 00, 00, 00, 00, 04, 00, 04, 00, 04, 00, 00, 00, 04, 00, 00, 00, 00, 00, 00, 00, 04, 00, 00, 00, 00, 00, 00, 00, 04, 00, 04, 00, 04, 00, 00, 00, 04, 00, 00, 00, 00, 00, 00, 00, 04, 00, 00, 00, 00, 00, 00, 00, 00, 00, 01, 09, 0F, 0F, 0F, 0F, 00, 0A, 0B, 01, 04, 00, 08, 00, 06, 04, 04, 00, 04, 00, 04, 00, 00, 00, 07, 0F, 00, 00, 00, 00, 04, 00, 04, 00, 04, 00, 04, 00, 04, 00, 04, 00, 04, 00, 04, 00, 2E, F7
18, 800, System_exclusive, 89, 41, 10, 42, 12, 48, 13, 00, 00, 00, 00, 00, 04, 00, 04, 00, 04, 00, 04, 00, 04, 00, 04, 00, 04, 00, 04, 00, 04, 00, 04, 00, 04, 00, 04, 00, 01, 00, 01, 01, 04, 00, 04, 00, 04, 00, 00, 00, 04, 00, 00, 0A, 00, 00, 00, 00, 04, 00, 00, 00, 00, 00, 00, 00, 04, 02, 04, 00, 04, 00, 00, 00, 04, 00, 00, 00, 00, 00, 00, 00, 04, 00, 00, 00, 00, 00, 00, 00, 04, 00, 04, 00, 04, 00, 04, 00, 04, 00, 00, 00, 00, 00, 00, 00, 04, 00, 00, 00, 00, 00, 00, 00, 04, 00, 04, 00, 04, 00, 04, 00, 04, 00, 00, 00, 00, 00, 00, 00, 04, 00, 00, 00, 00, 00, 00, 00, 0E, F7
18, 836, System_exclusive, 89, 41, 10, 42, 12, 48, 14, 00, 04, 00, 04, 00, 04, 00, 00, 00, 04, 00, 00, 00, 00, 00, 00, 00, 04, 00, 00, 00, 00, 00, 00, 00, 04, 00, 04, 00, 04, 00, 00, 00, 04, 00, 00, 00, 00, 00, 00, 00, 04, 00, 00, 00, 00, 00, 00, 00, 00, 00, 01, 09, 0F, 0F, 0F, 0F, 00, 0B, 0B, 01, 04, 00, 08, 00, 06, 04, 04, 00, 04, 00, 04, 00, 00, 00, 07, 0F, 00, 00, 00, 0A, 04, 00, 04, 00, 04, 00, 04, 00, 04, 00, 04, 00, 04, 00, 04, 00, 00, 00, 00, 00, 04, 00, 04, 00, 04, 00, 04, 00, 04, 00, 04, 00, 04, 00, 04, 00, 04, 00, 04, 00, 04, 00, 04, 00, 01, 00, 01, 01, 0A, F7
18, 872, System_exclusive, 89, 41, 10, 42, 12, 48, 15, 00, 04, 00, 04, 00, 04, 00, 00, 00, 04, 00, 00, 0A, 00, 00, 00, 00, 04, 00, 00, 00, 00, 00, 00, 00, 04, 02, 04, 00, 04, 00, 00, 00, 04, 00, 00, 00, 00, 00, 00, 00, 04, 00, 00, 00, 00, 00, 00, 00, 04, 00, 04, 00, 04, 00, 04, 00, 04, 00, 00, 00, 00, 00, 00, 00, 04, 00, 00, 00, 00, 00, 00, 00, 04, 00, 04, 00, 04, 00, 04, 00, 04, 00, 00, 00, 00, 00, 00, 00, 04, 00, 00, 00, 00, 00, 00, 00, 04, 00, 04, 00, 04, 00, 00, 00, 04, 00, 00, 00, 00, 00, 00, 00, 04, 00, 00, 00, 00, 00, 00, 00, 04, 00, 04, 00, 04, 00, 00, 00, 1F, F7
18, 907, System_exclusive, 89, 41, 10, 42, 12, 48, 16, 00, 04, 00, 00, 00, 00, 00, 00, 00, 04, 00, 00, 00, 00, 00, 00, 00, 00, 00, 05, 0C, 0F, 0F, 0F, 0F, 00, 0C, 08, 01, 04, 00, 08, 00, 06, 04, 04, 00, 04, 00, 04, 00, 00, 00, 07, 0F, 03, 0C, 02, 08, 04, 00, 04, 00, 04, 00, 04, 00, 04, 00, 04, 00, 04, 00, 04, 00, 00, 00, 00, 00, 04, 00, 04, 00, 04, 00, 04, 00, 04, 00, 04, 00, 04, 00, 04, 00, 04, 00, 04, 00, 04, 00, 04, 00, 01, 00, 01, 01, 04, 00, 04, 00, 04, 00, 00, 00, 04, 00, 00, 0A, 00, 00, 00, 00, 04, 00, 00, 00, 00, 00, 00, 00, 04, 02, 04, 00, 04, 00, 00, 00, 68, F7
18, 943, System_exclusive, 89, 41, 10, 42, 12, 48, 17, 00, 04, 00, 00, 00, 00, 00, 00, 00, 04, 00, 00, 00, 00, 00, 00, 00, 04, 00, 04, 00, 04, 00, 04, 00, 04, 00, 00, 00, 00, 00, 00, 00, 04, 00, 00, 00, 00, 00, 00, 00, 04, 00, 04, 00, 04, 00, 04, 00, 04, 00, 00, 00, 00, 00, 00, 00, 04, 00, 00, 00, 00, 00, 00, 00, 04, 00, 04, 00, 04, 00, 00, 00, 04, 00, 00, 00, 00, 00, 00, 00, 04, 00, 00, 00, 00, 00, 00, 00, 04, 00, 04, 00, 04, 00, 00, 00, 04, 00, 00, 00, 00, 00, 00, 00, 04, 00, 00, 00, 00, 00, 00, 00, 00, 00, 07, 03, 0F, 0F, 0F, 0F, 00, 0D, 08, 01, 04, 00, 08, 00, 59, F7
18, 979, System_exclusive, 89, 41, 10, 42, 12, 48, 18, 00, 06, 04, 06, 00, 04, 00, 04, 00, 00, 00, 07, 0F, 00, 00, 02, 08, 04, 00, 04, 00, 04, 00, 04, 00, 04, 00, 04, 00, 04, 00, 04, 00, 00, 00, 00, 00, 04, 00, 04, 00, 04, 00, 04, 00, 04, 00, 04, 00, 04, 00, 04, 00, 04, 00, 04, 00, 04, 00, 04, 00, 01, 00, 01, 01, 04, 00, 04, 00, 04, 00, 00, 00, 04, 00, 00, 0A, 00, 00, 00, 00, 04, 00, 00, 00, 00, 00, 00, 00, 04, 02, 04, 00, 04, 00, 00, 00, 04, 00, 00, 00, 00, 00, 00, 00, 04, 00, 00, 00, 00, 00, 00, 00, 04, 00, 04, 00, 04, 00, 04, 00, 04, 00, 00, 00, 00, 00, 00, 00, 4D, F7
18, 1016, System_exclusive, 89, 41, 10, 42, 12, 48, 19, 00, 04, 00, 00, 00, 00, 00, 00, 00, 04, 00, 04, 00, 04, 00, 04, 00, 04, 00, 00, 00, 00, 00, 00, 00, 04, 00, 00, 00, 00, 00, 00, 00, 04, 00, 04, 00, 04, 00, 00, 00, 04, 00, 00, 00, 00, 00, 00, 00, 04, 00, 00, 00, 00, 00, 00, 00, 04, 00, 04, 00, 04, 00, 00, 00, 04, 00, 00, 00, 00, 00, 00, 00, 04, 00, 00, 00, 00, 00, 00, 00, 00, 00, 01, 09, 0F, 0F, 0F, 0F, 00, 0E, 0B, 01, 04, 00, 08, 00, 06, 04, 04, 00, 04, 00, 04, 00, 00, 00, 07, 0F, 00, 00, 06, 0E, 04, 00, 04, 00, 04, 00, 04, 00, 04, 00, 04, 00, 04, 00, 04, 00, 0F, F7
18, 1052, System_exclusive, 89, 41, 10, 42, 12, 48, 1A, 00, 00, 00, 00, 00, 04, 00, 04, 00, 04, 00, 04, 00, 04, 00, 04, 00, 04, 00, 04, 00, 04, 00, 04, 00, 04, 00, 04, 00, 01, 00, 01, 01, 04, 00, 04, 00, 04, 00, 00, 00, 04, 00, 00, 0A, 00, 00, 00, 00, 04, 00, 00, 00, 00, 00, 00, 00, 04, 02, 04, 00, 04, 00, 00, 00, 04, 00, 00, 00, 00, 00, 00, 00, 04, 00, 00, 00, 00, 00, 00, 00, 04, 00, 04, 00, 04, 00, 04, 00, 04, 00, 00, 00, 00, 00, 00, 00, 04, 00, 00, 00, 00, 00, 00, 00, 04, 00, 04, 00, 04, 00, 04, 00, 04, 00, 00, 00, 00, 00, 00, 00, 04, 00, 00, 00, 00, 00, 00, 00, 07, F7
18, 1087, System_exclusive, 89, 41, 10, 42, 12, 48, 1B, 00, 04, 00, 04, 00, 04, 00, 00, 00, 04, 00, 00, 00, 00, 00, 00, 00, 04, 00, 00, 00, 00, 00, 00, 00, 04, 00, 04, 00, 04, 00, 00, 00, 04, 00, 00, 00, 00, 00, 00, 00, 04, 00, 00, 00, 00, 00, 00, 00, 00, 00, 07, 06, 0F, 0F, 0F, 0F, 00, 0F, 08, 01, 04, 00, 08, 00, 06, 04, 04, 00, 04, 00, 04, 00, 00, 00, 07, 0F, 00, 00, 06, 04, 04, 00, 04, 00, 04, 00, 04, 00, 04, 00, 04, 00, 04, 00, 04, 00, 00, 00, 00, 00, 04, 00, 04, 00, 04, 00, 04, 00, 04, 00, 04, 00, 04, 00, 04, 00, 04, 00, 04, 00, 04, 00, 04, 00, 01, 00, 01, 01, 7F, F7
18, 1124, System_exclusive, 89, 41, 10, 42, 12, 48, 1C, 00, 04, 00, 04, 00, 04, 00, 00, 00, 04, 00, 00, 0A, 00, 00, 00, 00, 04, 00, 00, 00, 00, 00, 00, 00, 04, 02, 04, 00, 04, 00, 00, 00, 04, 00, 00, 00, 00, 00, 00, 00, 04, 00, 00, 00, 00, 00, 00, 00, 04, 00, 04, 00, 04, 00, 04, 00, 04, 00, 00, 00, 00, 00, 00, 00, 04, 00, 00, 00, 00, 00, 00, 00, 04, 00, 04, 00, 04, 00, 04, 00, 04, 00, 00, 00, 00, 00, 00, 00, 04, 00, 00, 00, 00, 00, 00, 00, 04, 00, 04, 00, 04, 00, 00, 00, 04, 00, 00, 00, 00, 00, 00, 00, 04, 00, 00, 00, 00, 00, 00, 00, 04, 00, 04, 00, 04, 00, 00, 00, 18, F7
18, 1158, System_exclusive, 19, 41, 10, 42, 12, 48, 1D, 00, 04, 00, 00, 00, 00, 00, 00, 00, 04, 00, 00, 00, 00, 00, 00, 00, 13, F7
18, 1196, System_exclusive, 89, 41, 10, 42, 12, 49, 00, 00, 00, 00, 00, 00, 00, 00, 00, 00, 00, 00, 00, 00, 00, 00, 00, 00, 00, 00, 00, 00, 00, 00, 00, 00, 00, 00, 00, 00, 00, 00, 00, 00, 00, 00, 00, 00, 00, 00, 00, 00, 00, 00, 00, 00, 00, 00, 00, 00, 00, 00, 00, 00, 00, 00, 03, 0C, 03, 0C, 03, 0C, 03, 0C, 03, 0C, 03, 0C, 03, 0C, 03, 0C, 03, 0C, 03, 0C, 03, 0C, 03, 0C, 03, 0C, 03, 0C, 02, 00, 03, 0C, 02, 08, 03, 0C, 02, 0E, 03, 0C, 03, 06, 03, 0C, 03, 0C, 04, 04, 03, 0C, 03, 0C, 03, 0C, 03, 0C, 04, 05, 03, 0C, 03, 0D, 03, 0C, 03, 0D, 03, 0C, 03, 0C, 03, 0C, 03, 04, 36, F7
18, 1231, System_exclusive, 89, 41, 10, 42, 12, 49, 01, 00, 02, 0E, 03, 0D, 03, 08, 04, 01, 03, 0C, 03, 0C, 03, 0C, 03, 0C, 03, 0C, 03, 0C, 03, 0C, 03, 0C, 04, 04, 03, 0F, 03, 0C, 03, 0C, 03, 0C, 03, 0C, 03, 0C, 03, 0C, 03, 0C, 03, 0C, 03, 0C, 03, 0C, 00, 00, 00, 00, 00, 00, 00, 00, 00, 00, 00, 00, 00, 00, 00, 00, 00, 00, 00, 00, 00, 00, 00, 00, 00, 00, 00, 00, 00, 00, 00, 00, 00, 00, 00, 00, 00, 00, 00, 00, 00, 00, 00, 00, 00, 00, 00, 00, 00, 00, 00, 00, 00, 00, 00, 00, 00, 00, 00, 00, 00, 00, 00, 00, 00, 00, 00, 00, 00, 00, 00, 00, 00, 00, 00, 00, 00, 00, 00, 00, 5E, F7
18, 1284, System_exclusive, 89, 41, 10, 42, 12, 49, 02, 00, 07, 0F, 07, 0F, 07, 0F, 07, 0F, 07, 0F, 07, 0F, 07, 0F, 07, 0F, 07, 0F, 07, 0F, 07, 0F, 07, 0F, 07, 0F, 07, 0F, 07, 0F, 07, 0F, 07, 0F, 07, 0F, 07, 0F, 07, 0F, 07, 0F, 07, 0F, 07, 0F, 07, 0F, 07, 0F, 07, 0F, 07, 0F, 04, 0F, 06, 0B, 05, 07, 05, 0B, 07, 03, 07, 0F, 06, 07, 06, 07, 07, 0F, 07, 0F, 07, 0F, 07, 0F, 06, 03, 07, 0F, 07, 0F, 07, 0F, 07, 0F, 05, 07, 07, 0F, 07, 0F, 07, 0F, 07, 0F, 07, 0F, 07, 0F, 07, 08, 06, 0F, 06, 03, 07, 07, 05, 03, 07, 03, 07, 0F, 06, 09, 07, 08, 07, 0F, 07, 0F, 06, 03, 06, 0B, 59, F7
18, 1319, System_exclusive, 89, 41, 10, 42, 12, 49, 03, 00, 07, 0B, 06, 03, 06, 03, 06, 03, 06, 03, 05, 0F, 06, 09, 04, 0F, 05, 03, 06, 0B, 06, 0F, 06, 0E, 06, 0B, 06, 0B, 05, 03, 05, 07, 05, 0F, 05, 0F, 07, 0B, 07, 07, 07, 0B, 07, 0B, 07, 0F, 07, 0F, 07, 0F, 07, 0F, 07, 0F, 07, 0F, 07, 0F, 07, 0F, 07, 0F, 07, 0F, 07, 0F, 07, 0F, 07, 0F, 07, 0F, 07, 0F, 07, 0F, 07, 0F, 07, 0F, 07, 0F, 07, 0F, 07, 0F, 07, 0F, 07, 0F, 07, 0F, 07, 0F, 07, 0F, 07, 0F, 07, 0F, 07, 0F, 07, 0F, 07, 0F, 07, 0F, 07, 0F, 07, 0F, 07, 0F, 07, 0F, 07, 0F, 07, 0F, 07, 0F, 07, 0F, 07, 0F, 07, 0F, 48, F7
18, 1375, System_exclusive, 89, 41, 10, 42, 12, 49, 04, 00, 00, 00, 00, 00, 00, 00, 00, 00, 00, 00, 00, 00, 00, 00, 00, 00, 00, 00, 00, 00, 00, 00, 00, 00, 00, 00, 00, 00, 00, 00, 00, 00, 00, 00, 00, 00, 00, 00, 00, 00, 00, 00, 00, 00, 00, 00, 00, 00, 00, 00, 00, 00, 00, 00, 00, 00, 00, 00, 00, 07, 00, 07, 00, 00, 00, 00, 00, 00, 00, 00, 00, 00, 00, 00, 00, 00, 00, 00, 00, 00, 00, 00, 00, 00, 00, 01, 00, 00, 00, 01, 00, 00, 00, 01, 00, 00, 00, 00, 00, 00, 00, 00, 00, 00, 00, 00, 00, 00, 00, 00, 00, 00, 00, 00, 00, 00, 00, 00, 00, 00, 00, 00, 00, 00, 00, 00, 00, 00, 22, F7
18, 1410, System_exclusive, 89, 41, 10, 42, 12, 49, 05, 00, 00, 00, 00, 00, 00, 00, 00, 00, 00, 00, 00, 00, 00, 00, 00, 02, 00, 02, 00, 03, 00, 03, 00, 00, 00, 00, 00, 00, 00, 04, 00, 04, 00, 05, 00, 05, 00, 00, 00, 00, 00, 00, 00, 00, 00, 06, 00, 06, 00, 00, 00, 00, 00, 00, 00, 00, 00, 00, 00, 00, 00, 00, 00, 00, 00, 00, 00, 00, 00, 00, 00, 00, 00, 00, 00, 00, 00, 00, 00, 00, 00, 00, 00, 00, 00, 00, 00, 00, 00, 00, 00, 00, 00, 00, 00, 00, 00, 00, 00, 00, 00, 00, 00, 00, 00, 00, 00, 00, 00, 00, 00, 00, 00, 00, 00, 00, 00, 00, 00, 00, 00, 00, 00, 00, 00, 00, 00, 00, 0A, F7
18, 1463, System_exclusive, 89, 41, 10, 42, 12, 49, 06, 00, 04, 00, 04, 00, 04, 00, 04, 00, 04, 00, 04, 00, 04, 00, 04, 00, 04, 00, 04, 00, 04, 00, 04, 00, 04, 00, 04, 00, 04, 00, 04, 00, 04, 00, 04, 00, 04, 00, 04, 00, 04, 00, 04, 00, 04, 00, 04, 00, 04, 00, 04, 00, 04, 00, 03, 01, 03, 01, 03, 06, 03, 06, 04, 00, 03, 06, 04, 00, 04, 00, 04, 00, 04, 00, 04, 00, 04, 00, 03, 06, 04, 00, 02, 02, 05, 04, 02, 0E, 05, 04, 03, 0A, 05, 04, 04, 06, 05, 02, 05, 04, 05, 0E, 02, 0C, 02, 0C, 02, 0C, 04, 0A, 03, 06, 05, 04, 02, 0C, 01, 0D, 02, 02, 06, 03, 06, 03, 02, 07, 02, 0C, 7D, F7
18, 1498, System_exclusive, 89, 41, 10, 42, 12, 49, 07, 00, 03, 01, 05, 04, 05, 04, 01, 0D, 01, 0D, 01, 0D, 01, 08, 06, 03, 06, 03, 05, 0E, 05, 0E, 05, 04, 06, 03, 06, 03, 02, 0C, 02, 0C, 01, 08, 01, 08, 05, 0E, 06, 03, 06, 08, 02, 02, 02, 0C, 02, 0C, 04, 00, 04, 00, 04, 00, 04, 00, 04, 00, 04, 00, 04, 00, 04, 00, 04, 00, 04, 00, 04, 00, 04, 00, 04, 00, 04, 00, 04, 00, 04, 00, 04, 00, 04, 00, 04, 00, 04, 00, 04, 00, 04, 00, 04, 00, 04, 00, 04, 00, 04, 00, 04, 00, 04, 00, 04, 00, 04, 00, 04, 00, 04, 00, 04, 00, 04, 00, 04, 00, 04, 00, 04, 00, 04, 00, 04, 00, 04, 00, 7C, F7
18, 1551, System_exclusive, 89, 41, 10, 42, 12, 49, 08, 00, 00, 00, 00, 00, 00, 00, 00, 00, 00, 00, 00, 00, 00, 00, 00, 00, 00, 00, 00, 00, 00, 00, 00, 00, 00, 00, 00, 00, 00, 00, 00, 00, 00, 00, 00, 00, 00, 00, 00, 00, 00, 00, 00, 00, 00, 00, 00, 00, 00, 00, 00, 00, 00, 00, 07, 0F, 07, 0F, 03, 0F, 03, 0F, 03, 0F, 00, 00, 03, 0F, 03, 0F, 02, 00, 07, 0F, 07, 0F, 07, 0F, 07, 0F, 07, 0F, 07, 0F, 01, 0F, 07, 0F, 02, 00, 07, 0F, 01, 0F, 07, 0F, 07, 0F, 07, 0F, 07, 0F, 07, 0F, 07, 0F, 07, 0F, 03, 0F, 07, 0F, 03, 0F, 07, 0F, 07, 0F, 07, 0F, 05, 0F, 05, 0F, 07, 0F, 07, 0F, 6B, F7
18, 1590, System_exclusive, 89, 41, 10, 42, 12, 49, 09, 00, 05, 0F, 07, 0F, 07, 0F, 05, 0F, 05, 0F, 03, 0F, 03, 0F, 07, 0F, 07, 0F, 03, 0F, 03, 0F, 05, 0F, 05, 0F, 05, 0F, 07, 0F, 07, 0F, 05, 0F, 07, 0F, 03, 0F, 07, 0F, 07, 0F, 05, 0F, 05, 0F, 05, 0F, 00, 00, 00, 00, 00, 00, 00, 00, 00, 00, 00, 00, 00, 00, 00, 00, 00, 00, 00, 00, 00, 00, 00, 00, 00, 00, 00, 00, 00, 00, 00, 00, 00, 00, 00, 00, 00, 00, 00, 00, 00, 00, 00, 00, 00, 00, 00, 00, 00, 00, 00, 00, 00, 00, 00, 00, 00, 00, 00, 00, 00, 00, 00, 00, 00, 00, 00, 00, 00, 00, 00, 00, 00, 00, 00, 00, 00, 00, 00, 00, 46, F7
18, 1642, System_exclusive, 89, 41, 10, 42, 12, 49, 0A, 00, 00, 00, 00, 00, 00, 00, 00, 00, 00, 00, 00, 00, 00, 00, 00, 00, 00, 00, 00, 00, 00, 00, 00, 00, 00, 00, 00, 00, 00, 00, 00, 00, 00, 00, 00, 00, 00, 00, 00, 00, 00, 00, 00, 00, 00, 00, 00, 00, 00, 00, 00, 00, 00, 00, 07, 0F, 07, 0F, 03, 0F, 03, 0F, 03, 0F, 00, 00, 03, 0F, 03, 0F, 02, 00, 07, 0F, 07, 0F, 07, 0F, 07, 0F, 07, 0F, 07, 0F, 01, 0F, 07, 0F, 02, 00, 07, 0F, 01, 0F, 07, 0F, 07, 0F, 07, 0F, 07, 0F, 07, 0F, 07, 0F, 07, 0F, 03, 0F, 07, 0F, 03, 0F, 07, 0F, 07, 0F, 07, 0F, 05, 0F, 05, 0F, 07, 0F, 07, 0F, 69, F7
18, 1678, System_exclusive, 89, 41, 10, 42, 12, 49, 0B, 00, 05, 0F, 07, 0F, 07, 0F, 05, 0F, 05, 0F, 03, 0F, 03, 0F, 07, 0F, 07, 0F, 03, 0F, 03, 0F, 05, 0F, 05, 0F, 05, 0F, 07, 0F, 07, 0F, 05, 0F, 07, 0F, 03, 0F, 07, 0F, 07, 0F, 05, 0F, 05, 0F, 05, 0F, 00, 00, 00, 00, 00, 00, 00, 00, 00, 00, 00, 00, 00, 00, 00, 00, 00, 00, 00, 00, 00, 00, 00, 00, 00, 00, 00, 00, 00, 00, 00, 00, 00, 00, 00, 00, 00, 00, 00, 00, 00, 00, 00, 00, 00, 00, 00, 00, 00, 00, 00, 00, 00, 00, 00, 00, 00, 00, 00, 00, 00, 00, 00, 00, 00, 00, 00, 00, 00, 00, 00, 00, 00, 00, 00, 00, 00, 00, 00, 00, 44, F7
18, 1734, System_exclusive, 89, 41, 10, 42, 12, 49, 0C, 00, 00, 00, 00, 00, 00, 00, 00, 00, 00, 00, 00, 00, 00, 00, 00, 00, 00, 00, 00, 00, 00, 00, 00, 00, 00, 00, 00, 00, 00, 00, 00, 00, 00, 00, 00, 00, 00, 00, 00, 00, 00, 00, 00, 00, 00, 00, 00, 00, 00, 00, 00, 00, 00, 00, 01, 00, 01, 00, 01, 00, 01, 00, 01, 00, 01, 00, 01, 00, 01, 00, 01, 00, 01, 00, 01, 00, 01, 00, 01, 00, 01, 00, 01, 00, 01, 00, 01, 00, 01, 00, 01, 00, 01, 00, 01, 00, 01, 00, 01, 00, 01, 00, 01, 00, 01, 00, 01, 00, 01, 00, 01, 00, 01, 00, 01, 00, 01, 00, 01, 00, 01, 00, 01, 00, 01, 00, 01, 00, 06, F7
18, 1770, System_exclusive, 89, 41, 10, 42, 12, 49, 0D, 00, 01, 00, 01, 00, 01, 00, 01, 00, 01, 00, 01, 00, 01, 00, 01, 00, 01, 00, 01, 00, 01, 00, 01, 00, 01, 00, 01, 00, 01, 00, 01, 00, 01, 00, 01, 00, 01, 00, 01, 00, 01, 00, 01, 00, 01, 00, 01, 00, 00, 00, 00, 00, 00, 00, 00, 00, 00, 00, 00, 00, 00, 00, 00, 00, 00, 00, 00, 00, 00, 00, 00, 00, 00, 00, 00, 00, 00, 00, 00, 00, 00, 00, 00, 00, 00, 00, 00, 00, 00, 00, 00, 00, 00, 00, 00, 00, 00, 00, 00, 00, 00, 00, 00, 00, 00, 00, 00, 00, 00, 00, 00, 00, 00, 00, 00, 00, 00, 00, 00, 00, 00, 00, 00, 00, 00, 00, 00, 00, 12, F7
18, 1821, System_exclusive, 21, 41, 10, 42, 12, 49, 0E, 00, 05, 04, 05, 02, 02, 0D, 03, 08, 03, 00, 03, 08, 02, 00, 02, 00, 02, 00, 02, 00, 02, 00, 02, 00, 65, F7
18, 1862, System_exclusive, 89, 41, 10, 42, 12, 49, 10, 00, 00, 00, 00, 00, 00, 00, 00, 00, 00, 00, 00, 00, 00, 00, 00, 00, 00, 00, 00, 00, 00, 00, 00, 00, 00, 00, 00, 00, 00, 00, 00, 00, 00, 00, 00, 00, 00, 00, 00, 00, 00, 00, 00, 00, 00, 00, 00, 00, 00, 00, 00, 00, 00, 00, 03, 0C, 03, 0C, 03, 0C, 03, 0C, 03, 0C, 03, 0C, 03, 0C, 03, 0C, 03, 0C, 03, 0E, 03, 0C, 03, 0C, 03, 0C, 03, 0C, 02, 06, 03, 0C, 02, 0E, 03, 0C, 03, 04, 03, 0C, 03, 0C, 04, 04, 03, 0C, 04, 0C, 03, 0C, 03, 0C, 03, 0C, 03, 0C, 04, 05, 03, 0C, 03, 0D, 03, 0C, 03, 0D, 03, 0C, 03, 0C, 03, 0C, 04, 01, 1C, F7
18, 1902, System_exclusive, 89, 41, 10, 42, 12, 49, 11, 00, 03, 0C, 03, 0D, 03, 08, 04, 01, 03, 0C, 03, 0C, 03, 0C, 03, 0C, 03, 0C, 03, 0C, 03, 0C, 03, 0C, 04, 04, 03, 0F, 03, 0C, 03, 0C, 03, 0C, 03, 0C, 03, 0C, 03, 0C, 03, 0C, 03, 0C, 03, 0C, 03, 0C, 00, 00, 00, 00, 00, 00, 00, 00, 00, 00, 00, 00, 00, 00, 00, 00, 00, 00, 00, 00, 00, 00, 00, 00, 00, 00, 00, 00, 00, 00, 00, 00, 00, 00, 00, 00, 00, 00, 00, 00, 00, 00, 00, 00, 00, 00, 00, 00, 00, 00, 00, 00, 00, 00, 00, 00, 00, 00, 00, 00, 00, 00, 00, 00, 00, 00, 00, 00, 00, 00, 00, 00, 00, 00, 00, 00, 00, 00, 00, 00, 4F, F7
18, 1954, System_exclusive, 89, 41, 10, 42, 12, 49, 12, 00, 07, 0F, 07, 0F, 07, 0F, 07, 0F, 07, 0F, 07, 0F, 07, 0F, 07, 0F, 07, 0F, 07, 0F, 07, 0F, 07, 0F, 07, 0F, 07, 0F, 07, 0F, 07, 0F, 07, 0F, 07, 0F, 07, 0F, 07, 0F, 07, 0F, 07, 0F, 07, 0F, 07, 0F, 07, 0F, 07, 0F, 07, 0F, 04, 0F, 06, 0B, 05, 07, 05, 0B, 07, 03, 07, 0F, 06, 07, 06, 07, 07, 0F, 07, 0F, 07, 0F, 07, 0F, 06, 03, 07, 0F, 07, 0F, 07, 0B, 07, 0F, 05, 07, 07, 0F, 07, 07, 07, 0F, 07, 0F, 07, 0F, 07, 0F, 07, 08, 06, 0F, 06, 03, 07, 07, 05, 03, 07, 03, 07, 0F, 06, 09, 07, 08, 07, 0F, 07, 0F, 06, 03, 06, 0B, 55, F7
18, 1989, System_exclusive, 89, 41, 10, 42, 12, 49, 13, 00, 07, 0B, 06, 03, 06, 03, 06, 03, 06, 03, 05, 0F, 06, 09, 04, 0F, 05, 03, 06, 0B, 06, 0F, 06, 0E, 06, 0B, 06, 0B, 05, 03, 05, 07, 05, 0F, 05, 0F, 07, 0B, 07, 07, 07, 0B, 07, 0B, 07, 0F, 07, 0F, 07, 0F, 07, 0F, 07, 0F, 07, 0F, 07, 0F, 07, 0F, 07, 0F, 07, 0F, 07, 0F, 07, 0F, 07, 0F, 07, 0F, 07, 0F, 07, 0F, 07, 0F, 07, 0F, 07, 0F, 07, 0F, 07, 0F, 07, 0F, 07, 0F, 07, 0F, 07, 0F, 07, 0F, 07, 0F, 07, 0F, 07, 0F, 07, 0F, 07, 0F, 07, 0F, 07, 0F, 07, 0F, 07, 0F, 07, 0F, 07, 0F, 07, 0F, 07, 0F, 07, 0F, 07, 0F, 07, 0F, 38, F7
18, 2046, System_exclusive, 89, 41, 10, 42, 12, 49, 14, 00, 00, 00, 00, 00, 00, 00, 00, 00, 00, 00, 00, 00, 00, 00, 00, 00, 00, 00, 00, 00, 00, 00, 00, 00, 00, 00, 00, 00, 00, 00, 00, 00, 00, 00, 00, 00, 00, 00, 00, 00, 00, 00, 00, 00, 00, 00, 00, 00, 00, 00, 00, 00, 00, 00, 00, 00, 00, 00, 00, 07, 00, 07, 00, 00, 00, 00, 00, 00, 00, 00, 00, 00, 00, 00, 00, 00, 00, 00, 00, 00, 00, 00, 00, 00, 00, 01, 00, 00, 00, 01, 00, 00, 00, 01, 00, 00, 00, 00, 00, 00, 00, 00, 00, 00, 00, 00, 00, 00, 00, 00, 00, 00, 00, 00, 00, 00, 00, 00, 00, 00, 00, 00, 00, 00, 00, 00, 00, 00, 12, F7
18, 2081, System_exclusive, 89, 41, 10, 42, 12, 49, 15, 00, 00, 00, 00, 00, 00, 00, 00, 00, 00, 00, 00, 00, 00, 00, 00, 02, 00, 02, 00, 03, 00, 03, 00, 00, 00, 00, 00, 00, 00, 04, 00, 04, 00, 05, 00, 05, 00, 00, 00, 00, 00, 00, 00, 00, 00, 06, 00, 06, 00, 00, 00, 00, 00, 00, 00, 00, 00, 00, 00, 00, 00, 00, 00, 00, 00, 00, 00, 00, 00, 00, 00, 00, 00, 00, 00, 00, 00, 00, 00, 00, 00, 00, 00, 00, 00, 00, 00, 00, 00, 00, 00, 00, 00, 00, 00, 00, 00, 00, 00, 00, 00, 00, 00, 00, 00, 00, 00, 00, 00, 00, 00, 00, 00, 00, 00, 00, 00, 00, 00, 00, 00, 00, 00, 00, 00, 00, 00, 00, 7A, F7
18, 2133, System_exclusive, 89, 41, 10, 42, 12, 49, 16, 00, 04, 00, 04, 00, 04, 00, 04, 00, 04, 00, 04, 00, 04, 00, 04, 00, 04, 00, 04, 00, 04, 00, 04, 00, 04, 00, 04, 00, 04, 00, 04, 00, 04, 00, 04, 00, 04, 00, 04, 00, 04, 00, 04, 00, 04, 00, 04, 00, 04, 00, 04, 00, 04, 00, 03, 01, 03, 01, 03, 06, 03, 06, 04, 00, 03, 06, 04, 00, 04, 00, 04, 00, 04, 00, 04, 00, 04, 00, 03, 06, 04, 00, 02, 02, 05, 04, 02, 0E, 05, 04, 03, 0A, 05, 04, 04, 06, 05, 02, 05, 04, 05, 0E, 02, 0C, 02, 0C, 02, 0C, 04, 0A, 03, 06, 05, 04, 02, 0C, 01, 0D, 02, 02, 06, 03, 06, 03, 02, 07, 02, 07, 72, F7
18, 2169, System_exclusive, 89, 41, 10, 42, 12, 49, 17, 00, 02, 0C, 05, 04, 05, 04, 01, 0D, 01, 0D, 01, 0D, 01, 08, 06, 03, 06, 03, 05, 0E, 05, 0E, 05, 04, 06, 03, 06, 03, 02, 0C, 02, 0C, 01, 08, 01, 08, 05, 0E, 06, 03, 06, 08, 02, 02, 02, 0C, 02, 0C, 04, 00, 04, 00, 04, 00, 04, 00, 04, 00, 04, 00, 04, 00, 04, 00, 04, 00, 04, 00, 04, 00, 04, 00, 04, 00, 04, 00, 04, 00, 04, 00, 04, 00, 04, 00, 04, 00, 04, 00, 04, 00, 04, 00, 04, 00, 04, 00, 04, 00, 04, 00, 04, 00, 04, 00, 04, 00, 04, 00, 04, 00, 04, 00, 04, 00, 04, 00, 04, 00, 04, 00, 04, 00, 04, 00, 04, 00, 04, 00, 62, F7
18, 2222, System_exclusive, 89, 41, 10, 42, 12, 49, 18, 00, 00, 00, 00, 00, 00, 00, 00, 00, 00, 00, 00, 00, 00, 00, 00, 00, 00, 00, 00, 00, 00, 00, 00, 00, 00, 00, 00, 00, 00, 00, 00, 00, 00, 00, 00, 00, 00, 00, 00, 00, 00, 00, 00, 00, 00, 00, 00, 00, 00, 00, 00, 00, 00, 00, 07, 0F, 07, 0F, 03, 0F, 03, 0F, 03, 0F, 00, 00, 03, 0F, 03, 0F, 02, 00, 02, 00, 07, 0F, 07, 0F, 07, 0F, 07, 0F, 07, 0F, 01, 0F, 07, 0F, 02, 00, 07, 0F, 01, 0F, 07, 0F, 07, 0F, 07, 0F, 07, 0F, 07, 0F, 01, 00, 07, 0F, 03, 0F, 07, 0F, 03, 0F, 07, 0F, 07, 0F, 07, 0F, 05, 0F, 05, 0F, 07, 0F, 07, 0F, 04, F7
18, 2261, System_exclusive, 89, 41, 10, 42, 12, 49, 19, 00, 05, 0F, 07, 0F, 07, 0F, 06, 04, 06, 04, 03, 0F, 03, 0F, 07, 0F, 07, 0F, 03, 0F, 03, 0F, 05, 0F, 05, 0F, 05, 0F, 07, 0F, 07, 0F, 05, 0F, 07, 0F, 03, 0F, 07, 0F, 07, 0F, 05, 0F, 05, 0F, 05, 0F, 00, 00, 00, 00, 00, 00, 00, 00, 00, 00, 00, 00, 00, 00, 00, 00, 00, 00, 00, 00, 00, 00, 00, 00, 00, 00, 00, 00, 00, 00, 00, 00, 00, 00, 00, 00, 00, 00, 00, 00, 00, 00, 00, 00, 00, 00, 00, 00, 00, 00, 00, 00, 00, 00, 00, 00, 00, 00, 00, 00, 00, 00, 00, 00, 00, 00, 00, 00, 00, 00, 00, 00, 00, 00, 00, 00, 00, 00, 00, 00, 4A, F7
18, 2313, System_exclusive, 89, 41, 10, 42, 12, 49, 1A, 00, 00, 00, 00, 00, 00, 00, 00, 00, 00, 00, 00, 00, 00, 00, 00, 00, 00, 00, 00, 00, 00, 00, 00, 00, 00, 00, 00, 00, 00, 00, 00, 00, 00, 00, 00, 00, 00, 00, 00, 00, 00, 00, 00, 00, 00, 00, 00, 00, 00, 00, 00, 00, 00, 00, 07, 0F, 07, 0F, 03, 0F, 03, 0F, 03, 0F, 00, 00, 03, 0F, 03, 0F, 02, 00, 02, 00, 07, 0F, 07, 0F, 07, 0F, 07, 0F, 07, 0F, 01, 0F, 07, 0F, 02, 00, 07, 0F, 01, 0F, 07, 0F, 07, 0F, 07, 0F, 07, 0F, 07, 0F, 07, 0F, 07, 0F, 03, 0F, 07, 0F, 03, 0F, 07, 0F, 07, 0F, 07, 0F, 05, 0F, 05, 0F, 07, 0F, 07, 0F, 6D, F7
18, 2349, System_exclusive, 89, 41, 10, 42, 12, 49, 1B, 00, 05, 0F, 07, 0F, 07, 0F, 06, 04, 06, 04, 03, 0F, 03, 0F, 07, 0F, 07, 0F, 03, 0F, 03, 0F, 05, 0F, 05, 0F, 05, 0F, 07, 0F, 07, 0F, 05, 0F, 07, 0F, 03, 0F, 07, 0F, 07, 0F, 05, 0F, 05, 0F, 05, 0F, 00, 00, 00, 00, 00, 00, 00, 00, 00, 00, 00, 00, 00, 00, 00, 00, 00, 00, 00, 00, 00, 00, 00, 00, 00, 00, 00, 00, 00, 00, 00, 00, 00, 00, 00, 00, 00, 00, 00, 00, 00, 00, 00, 00, 00, 00, 00, 00, 00, 00, 00, 00, 00, 00, 00, 00, 00, 00, 00, 00, 00, 00, 00, 00, 00, 00, 00, 00, 00, 00, 00, 00, 00, 00, 00, 00, 00, 00, 00, 00, 48, F7
18, 2405, System_exclusive, 89, 41, 10, 42, 12, 49, 1C, 00, 00, 00, 00, 00, 00, 00, 00, 00, 00, 00, 00, 00, 00, 00, 00, 00, 00, 00, 00, 00, 00, 00, 00, 00, 00, 00, 00, 00, 00, 00, 00, 00, 00, 00, 00, 00, 00, 00, 00, 00, 00, 00, 00, 00, 00, 00, 00, 00, 00, 00, 00, 00, 00, 00, 01, 00, 01, 00, 01, 00, 01, 00, 01, 00, 01, 00, 01, 00, 01, 00, 01, 00, 01, 00, 01, 00, 01, 00, 01, 00, 01, 00, 01, 00, 01, 00, 01, 00, 01, 00, 01, 00, 01, 00, 01, 00, 01, 00, 01, 00, 01, 00, 01, 00, 01, 00, 01, 00, 01, 00, 01, 00, 01, 00, 01, 00, 01, 00, 01, 00, 01, 00, 01, 00, 01, 00, 01, 00, 76, F7
18, 2440, System_exclusive, 89, 41, 10, 42, 12, 49, 1D, 00, 01, 00, 01, 00, 01, 00, 01, 00, 01, 00, 01, 00, 01, 00, 01, 00, 01, 00, 01, 00, 01, 00, 01, 00, 01, 00, 01, 00, 01, 00, 01, 00, 01, 00, 01, 00, 01, 00, 01, 00, 01, 00, 01, 00, 01, 00, 01, 00, 00, 00, 00, 00, 00, 00, 00, 00, 00, 00, 00, 00, 00, 00, 00, 00, 00, 00, 00, 00, 00, 00, 00, 00, 00, 00, 00, 00, 00, 00, 00, 00, 00, 00, 00, 00, 00, 00, 00, 00, 00, 00, 00, 00, 00, 00, 00, 00, 00, 00, 00, 00, 00, 00, 00, 00, 00, 00, 00, 00, 00, 00, 00, 00, 00, 00, 00, 00, 00, 00, 00, 00, 00, 00, 00, 00, 00, 00, 00, 00, 02, F7
18, 2491, System_exclusive, 21, 41, 10, 42, 12, 49, 1E, 00, 04, 05, 04, 0C, 04, 05, 04, 03, 05, 04, 05, 02, 04, 0F, 04, 0E, 04, 09, 04, 03, 02, 00, 02, 00, 23, F7
18, 2491, End_track
0, 0, End_of_file