0, 0, Header, 0, 1, 480
1, 0, Start_track
1, 0, Title_t, "The Lamb Lies Down On Broadway / Genesis      ;by KEPEMusic Ltd."
1, 0, Channel_prefix, 0
1, 0, Instrument_name_t, "Melody"
1, 0, Channel_prefix, 1
1, 0, Instrument_name_t, "Elec. Bass"
1, 0, Channel_prefix, 2
1, 0, Instrument_name_t, "Dist. Guitar"
1, 0, Channel_prefix, 3
1, 0, Instrument_name_t, "Jazz Gt"
1, 0, Channel_prefix, 4
1, 0, Instrument_name_t, "WindChime"
1, 0, Channel_prefix, 6
1, 0, Instrument_name_t, "Piano"
1, 0, Channel_prefix, 7
1, 0, Instrument_name_t, "Pedal Steel"
1, 0, Channel_prefix, 9
1, 0, Instrument_name_t, "Drums"
1, 0, Channel_prefix, 14
1, 0, Instrument_name_t, "Bckgrnd Voc."
1, 0, Time_signature, 4, 2, 24, 8
1, 0, Key_signature, 0, "major"
1, 10, Control_c, 0, 0, 0
1, 15, Control_c, 0, 32, 0
1, 20, Program_c, 0, 82
1, 25, Control_c, 0, 7, 113
1, 30, Control_c, 0, 10, 64
1, 35, Control_c, 0, 91, 64
1, 40, Control_c, 0, 93, 64
1, 45, Control_c, 0, 101, 0
1, 45, Control_c, 0, 100, 0
1, 45, Control_c, 0, 6, 2
1, 50, Control_c, 0, 99, 1
1, 50, Control_c, 0, 98, 8
1, 50, Control_c, 0, 6, 64
1, 55, Control_c, 0, 99, 1
1, 55, Control_c, 0, 98, 9
1, 55, Control_c, 0, 6, 64
1, 60, Control_c, 0, 99, 1
1, 60, Control_c, 0, 98, 10
1, 60, Control_c, 0, 6, 64
1, 65, Control_c, 0, 99, 1
1, 65, Control_c, 0, 98, 32
1, 65, Control_c, 0, 6, 64
1, 70, Control_c, 0, 99, 1
1, 70, Control_c, 0, 98, 33
1, 70, Control_c, 0, 6, 64
1, 75, Control_c, 0, 99, 1
1, 75, Control_c, 0, 98, 99
1, 75, Control_c, 0, 6, 64
1, 80, Control_c, 0, 99, 1
1, 80, Control_c, 0, 98, 100
1, 80, Control_c, 0, 6, 64
1, 85, Control_c, 0, 99, 1
1, 85, Control_c, 0, 98, 102
1, 85, Control_c, 0, 6, 64
1, 90, Control_c, 1, 0, 0
1, 95, Control_c, 1, 32, 0
1, 100, Program_c, 1, 33
1, 105, Control_c, 1, 7, 87
1, 110, Control_c, 1, 10, 77
1, 115, Control_c, 1, 91, 64
1, 120, Control_c, 1, 93, 46
1, 125, Control_c, 1, 101, 0
1, 125, Control_c, 1, 100, 0
1, 125, Control_c, 1, 6, 2
1, 130, Control_c, 1, 99, 1
1, 130, Control_c, 1, 98, 8
1, 130, Control_c, 1, 6, 64
1, 135, Control_c, 1, 99, 1
1, 135, Control_c, 1, 98, 9
1, 135, Control_c, 1, 6, 64
1, 140, Control_c, 1, 99, 1
1, 140, Control_c, 1, 98, 10
1, 140, Control_c, 1, 6, 64
1, 145, Control_c, 1, 99, 1
1, 145, Control_c, 1, 98, 32
1, 145, Control_c, 1, 6, 64
1, 150, Control_c, 1, 99, 1
1, 150, Control_c, 1, 98, 33
1, 150, Control_c, 1, 6, 64
1, 155, Control_c, 1, 99, 1
1, 155, Control_c, 1, 98, 99
1, 155, Control_c, 1, 6, 64
1, 160, Control_c, 1, 99, 1
1, 160, Control_c, 1, 98, 100
1, 160, Control_c, 1, 6, 64
1, 165, Control_c, 1, 99, 1
1, 165, Control_c, 1, 98, 102
1, 165, Control_c, 1, 6, 64
1, 170, Program_c, 2, 30
1, 175, Control_c, 2, 7, 105
1, 180, Control_c, 2, 10, 46
1, 185, Control_c, 2, 93, 75
1, 190, Control_c, 2, 101, 0
1, 190, Control_c, 2, 100, 0
1, 190, Control_c, 2, 6, 2
1, 195, Control_c, 3, 0, 0
1, 200, Control_c, 3, 32, 0
1, 205, Program_c, 3, 26
1, 210, Control_c, 3, 7, 80
1, 215, Control_c, 3, 10, 52
1, 220, Control_c, 3, 91, 73
1, 225, Control_c, 3, 93, 35
1, 230, Control_c, 3, 101, 0
1, 230, Control_c, 3, 100, 0
1, 230, Control_c, 3, 6, 2
1, 235, Control_c, 3, 99, 1
1, 235, Control_c, 3, 98, 8
1, 235, Control_c, 3, 6, 64
1, 240, Control_c, 3, 99, 1
1, 240, Control_c, 3, 98, 9
1, 240, Control_c, 3, 6, 64
1, 245, Control_c, 3, 99, 1
1, 245, Control_c, 3, 98, 10
1, 245, Control_c, 3, 6, 64
1, 250, Control_c, 3, 99, 1
1, 250, Control_c, 3, 98, 32
1, 250, Control_c, 3, 6, 64
1, 255, Control_c, 3, 99, 1
1, 255, Control_c, 3, 98, 33
1, 255, Control_c, 3, 6, 64
1, 260, Control_c, 3, 99, 1
1, 260, Control_c, 3, 98, 99
1, 260, Control_c, 3, 6, 64
1, 265, Control_c, 3, 99, 1
1, 265, Control_c, 3, 98, 100
1, 265, Control_c, 3, 6, 64
1, 270, Control_c, 3, 99, 1
1, 270, Control_c, 3, 98, 102
1, 270, Control_c, 3, 6, 64
1, 275, Control_c, 4, 0, 5
1, 280, Control_c, 4, 32, 0
1, 285, Program_c, 4, 124
1, 290, Control_c, 4, 7, 40
1, 295, Control_c, 4, 10, 48
1, 300, Control_c, 4, 91, 67
1, 305, Control_c, 4, 93, 37
1, 310, Control_c, 4, 101, 0
1, 310, Control_c, 4, 100, 0
1, 310, Control_c, 4, 6, 2
1, 315, Control_c, 4, 99, 1
1, 315, Control_c, 4, 98, 8
1, 315, Control_c, 4, 6, 64
1, 320, Control_c, 4, 99, 1
1, 320, Control_c, 4, 98, 9
1, 320, Control_c, 4, 6, 64
1, 325, Control_c, 4, 99, 1
1, 325, Control_c, 4, 98, 10
1, 325, Control_c, 4, 6, 64
1, 330, Control_c, 4, 99, 1
1, 330, Control_c, 4, 98, 32
1, 330, Control_c, 4, 6, 64
1, 335, Control_c, 4, 99, 1
1, 335, Control_c, 4, 98, 33
1, 335, Control_c, 4, 6, 64
1, 340, Control_c, 4, 99, 1
1, 340, Control_c, 4, 98, 99
1, 340, Control_c, 4, 6, 64
1, 345, Control_c, 4, 99, 1
1, 345, Control_c, 4, 98, 100
1, 345, Control_c, 4, 6, 64
1, 350, Control_c, 4, 99, 1
1, 350, Control_c, 4, 98, 102
1, 350, Control_c, 4, 6, 64
1, 355, Control_c, 5, 7, 97
1, 360, Control_c, 5, 10, 64
1, 365, Control_c, 5, 91, 40
1, 370, Control_c, 5, 93, 0
1, 375, Control_c, 5, 101, 0
1, 375, Control_c, 5, 100, 0
1, 375, Control_c, 5, 6, 2
1, 380, Control_c, 5, 99, 1
1, 380, Control_c, 5, 98, 8
1, 380, Control_c, 5, 6, 64
1, 385, Control_c, 5, 99, 1
1, 385, Control_c, 5, 98, 9
1, 385, Control_c, 5, 6, 64
1, 390, Control_c, 5, 99, 1
1, 390, Control_c, 5, 98, 10
1, 390, Control_c, 5, 6, 64
1, 395, Control_c, 5, 99, 1
1, 395, Control_c, 5, 98, 32
1, 395, Control_c, 5, 6, 64
1, 400, Control_c, 5, 99, 1
1, 400, Control_c, 5, 98, 33
1, 400, Control_c, 5, 6, 64
1, 405, Control_c, 5, 99, 1
1, 405, Control_c, 5, 98, 99
1, 405, Control_c, 5, 6, 64
1, 410, Control_c, 5, 99, 1
1, 410, Control_c, 5, 98, 100
1, 410, Control_c, 5, 6, 64
1, 415, Control_c, 5, 99, 1
1, 415, Control_c, 5, 98, 102
1, 415, Control_c, 5, 6, 64
1, 420, Program_c, 6, 1
1, 425, Control_c, 6, 7, 93
1, 430, Control_c, 6, 10, 75
1, 435, Control_c, 6, 101, 0
1, 435, Control_c, 6, 100, 0
1, 435, Control_c, 6, 6, 2
1, 440, Control_c, 7, 0, 0
1, 445, Control_c, 7, 32, 0
1, 450, Program_c, 7, 26
1, 455, Control_c, 7, 7, 80
1, 460, Control_c, 7, 10, 28
1, 465, Control_c, 7, 91, 60
1, 470, Control_c, 7, 93, 64
1, 475, Control_c, 7, 101, 0
1, 475, Control_c, 7, 100, 0
1, 475, Control_c, 7, 6, 2
1, 480, Control_c, 7, 99, 1
1, 480, Control_c, 7, 98, 8
1, 480, Control_c, 7, 6, 64
1, 485, Control_c, 7, 99, 1
1, 485, Control_c, 7, 98, 9
1, 485, Control_c, 7, 6, 64
1, 490, Control_c, 7, 99, 1
1, 490, Control_c, 7, 98, 10
1, 490, Control_c, 7, 6, 64
1, 495, Control_c, 7, 99, 1
1, 495, Control_c, 7, 98, 32
1, 495, Control_c, 7, 6, 64
1, 500, Control_c, 7, 99, 1
1, 500, Control_c, 7, 98, 33
1, 500, Control_c, 7, 6, 64
1, 505, Control_c, 7, 99, 1
1, 505, Control_c, 7, 98, 99
1, 505, Control_c, 7, 6, 64
1, 510, Control_c, 7, 99, 1
1, 510, Control_c, 7, 98, 100
1, 510, Control_c, 7, 6, 64
1, 515, Control_c, 7, 99, 1
1, 515, Control_c, 7, 98, 102
1, 515, Control_c, 7, 6, 64
1, 520, Control_c, 8, 7, 107
1, 525, Control_c, 8, 10, 64
1, 530, Control_c, 8, 91, 40
1, 535, Control_c, 8, 93, 0
1, 540, Control_c, 8, 101, 0
1, 540, Control_c, 8, 100, 0
1, 540, Control_c, 8, 6, 2
1, 545, Control_c, 8, 99, 1
1, 545, Control_c, 8, 98, 8
1, 545, Control_c, 8, 6, 64
1, 550, Control_c, 8, 99, 1
1, 550, Control_c, 8, 98, 9
1, 550, Control_c, 8, 6, 64
1, 555, Control_c, 8, 99, 1
1, 555, Control_c, 8, 98, 10
1, 555, Control_c, 8, 6, 64
1, 560, Control_c, 8, 99, 1
1, 560, Control_c, 8, 98, 32
1, 560, Control_c, 8, 6, 64
1, 565, Control_c, 8, 99, 1
1, 565, Control_c, 8, 98, 33
1, 565, Control_c, 8, 6, 64
1, 570, Control_c, 8, 99, 1
1, 570, Control_c, 8, 98, 99
1, 570, Control_c, 8, 6, 64
1, 575, Control_c, 8, 99, 1
1, 575, Control_c, 8, 98, 100
1, 575, Control_c, 8, 6, 64
1, 580, Control_c, 8, 99, 1
1, 580, Control_c, 8, 98, 102
1, 580, Control_c, 8, 6, 64
1, 585, Control_c, 9, 7, 75
1, 590, Control_c, 9, 91, 15
1, 595, Control_c, 9, 101, 0
1, 595, Control_c, 9, 100, 0
1, 595, Control_c, 9, 6, 2
1, 600, Control_c, 10, 7, 100
1, 605, Control_c, 10, 10, 64
1, 610, Control_c, 10, 91, 40
1, 615, Control_c, 10, 93, 0
1, 620, Control_c, 10, 101, 0
1, 620, Control_c, 10, 100, 0
1, 620, Control_c, 10, 6, 2
1, 625, Control_c, 10, 99, 1
1, 625, Control_c, 10, 98, 8
1, 625, Control_c, 10, 6, 64
1, 630, Control_c, 10, 99, 1
1, 630, Control_c, 10, 98, 9
1, 630, Control_c, 10, 6, 64
1, 635, Control_c, 10, 99, 1
1, 635, Control_c, 10, 98, 10
1, 635, Control_c, 10, 6, 64
1, 640, Control_c, 10, 99, 1
1, 640, Control_c, 10, 98, 32
1, 640, Control_c, 10, 6, 64
1, 645, Control_c, 10, 99, 1
1, 645, Control_c, 10, 98, 33
1, 645, Control_c, 10, 6, 64
1, 650, Control_c, 10, 99, 1
1, 650, Control_c, 10, 98, 99
1, 650, Control_c, 10, 6, 64
1, 655, Control_c, 10, 99, 1
1, 655, Control_c, 10, 98, 100
1, 655, Control_c, 10, 6, 64
1, 660, Control_c, 10, 99, 1
1, 660, Control_c, 10, 98, 102
1, 660, Control_c, 10, 6, 64
1, 665, Control_c, 11, 7, 100
1, 670, Control_c, 11, 10, 64
1, 675, Control_c, 11, 91, 40
1, 680, Control_c, 11, 93, 0
1, 685, Control_c, 11, 101, 0
1, 685, Control_c, 11, 100, 0
1, 685, Control_c, 11, 6, 2
1, 690, Control_c, 11, 99, 1
1, 690, Control_c, 11, 98, 8
1, 690, Control_c, 11, 6, 64
1, 695, Control_c, 11, 99, 1
1, 695, Control_c, 11, 98, 9
1, 695, Control_c, 11, 6, 64
1, 700, Control_c, 11, 99, 1
1, 700, Control_c, 11, 98, 10
1, 700, Control_c, 11, 6, 64
1, 705, Control_c, 11, 99, 1
1, 705, Control_c, 11, 98, 32
1, 705, Control_c, 11, 6, 64
1, 710, Control_c, 11, 99, 1
1, 710, Control_c, 11, 98, 33
1, 710, Control_c, 11, 6, 64
1, 715, Control_c, 11, 99, 1
1, 715, Control_c, 11, 98, 99
1, 715, Control_c, 11, 6, 64
1, 720, Control_c, 11, 99, 1
1, 720, Control_c, 11, 98, 100
1, 720, Control_c, 11, 6, 64
1, 725, Control_c, 11, 99, 1
1, 725, Control_c, 11, 98, 102
1, 725, Control_c, 11, 6, 64
1, 730, Control_c, 12, 7, 100
1, 735, Control_c, 12, 10, 64
1, 740, Control_c, 12, 91, 40
1, 745, Control_c, 12, 93, 0
1, 750, Control_c, 12, 101, 0
1, 750, Control_c, 12, 100, 0
1, 750, Control_c, 12, 6, 2
1, 755, Control_c, 12, 99, 1
1, 755, Control_c, 12, 98, 8
1, 755, Control_c, 12, 6, 64
1, 760, Control_c, 12, 99, 1
1, 760, Control_c, 12, 98, 9
1, 760, Control_c, 12, 6, 64
1, 765, Control_c, 12, 99, 1
1, 765, Control_c, 12, 98, 10
1, 765, Control_c, 12, 6, 64
1, 770, Control_c, 12, 99, 1
1, 770, Control_c, 12, 98, 32
1, 770, Control_c, 12, 6, 64
1, 775, Control_c, 12, 99, 1
1, 775, Control_c, 12, 98, 33
1, 775, Control_c, 12, 6, 64
1, 780, Control_c, 12, 99, 1
1, 780, Control_c, 12, 98, 99
1, 780, Control_c, 12, 6, 64
1, 785, Control_c, 12, 99, 1
1, 785, Control_c, 12, 98, 100
1, 785, Control_c, 12, 6, 64
1, 790, Control_c, 12, 99, 1
1, 790, Control_c, 12, 98, 102
1, 790, Control_c, 12, 6, 64
1, 795, Control_c, 13, 7, 100
1, 800, Control_c, 13, 10, 64
1, 805, Control_c, 13, 91, 40
1, 810, Control_c, 13, 93, 0
1, 815, Control_c, 13, 101, 0
1, 815, Control_c, 13, 100, 0
1, 815, Control_c, 13, 6, 2
1, 820, Control_c, 13, 99, 1
1, 820, Control_c, 13, 98, 8
1, 820, Control_c, 13, 6, 64
1, 825, Control_c, 13, 99, 1
1, 825, Control_c, 13, 98, 9
1, 825, Control_c, 13, 6, 64
1, 830, Control_c, 13, 99, 1
1, 830, Control_c, 13, 98, 10
1, 830, Control_c, 13, 6, 64
1, 835, Control_c, 13, 99, 1
1, 835, Control_c, 13, 98, 32
1, 835, Control_c, 13, 6, 64
1, 840, Control_c, 13, 99, 1
1, 840, Control_c, 13, 98, 33
1, 840, Control_c, 13, 6, 64
1, 845, Control_c, 13, 99, 1
1, 845, Control_c, 13, 98, 99
1, 845, Control_c, 13, 6, 64
1, 850, Control_c, 13, 99, 1
1, 850, Control_c, 13, 98, 100
1, 850, Control_c, 13, 6, 64
1, 855, Control_c, 13, 99, 1
1, 855, Control_c, 13, 98, 102
1, 855, Control_c, 13, 6, 64
1, 860, Control_c, 14, 0, 0
1, 865, Control_c, 14, 32, 0
1, 870, Program_c, 14, 82
1, 875, Control_c, 14, 7, 85
1, 880, Control_c, 14, 10, 75
1, 885, Control_c, 14, 91, 64
1, 890, Control_c, 14, 93, 64
1, 895, Control_c, 14, 101, 0
1, 895, Control_c, 14, 100, 0
1, 895, Control_c, 14, 6, 2
1, 900, Control_c, 14, 99, 1
1, 900, Control_c, 14, 98, 8
1, 900, Control_c, 14, 6, 64
1, 905, Control_c, 14, 99, 1
1, 905, Control_c, 14, 98, 9
1, 905, Control_c, 14, 6, 64
1, 910, Control_c, 14, 99, 1
1, 910, Control_c, 14, 98, 10
1, 910, Control_c, 14, 6, 64
1, 915, Control_c, 14, 99, 1
1, 915, Control_c, 14, 98, 32
1, 915, Control_c, 14, 6, 64
1, 920, Control_c, 14, 99, 1
1, 920, Control_c, 14, 98, 33
1, 920, Control_c, 14, 6, 64
1, 925, Control_c, 14, 99, 1
1, 925, Control_c, 14, 98, 99
1, 925, Control_c, 14, 6, 64
1, 930, Control_c, 14, 99, 1
1, 930, Control_c, 14, 98, 100
1, 930, Control_c, 14, 6, 64
1, 935, Control_c, 14, 99, 1
1, 935, Control_c, 14, 98, 102
1, 935, Control_c, 14, 6, 64
1, 940, Control_c, 15, 7, 100
1, 945, Control_c, 15, 10, 64
1, 950, Control_c, 15, 91, 40
1, 955, Control_c, 15, 93, 0
1, 960, Control_c, 15, 101, 0
1, 960, Control_c, 15, 100, 0
1, 960, Control_c, 15, 6, 2
1, 965, Control_c, 15, 99, 1
1, 965, Control_c, 15, 98, 8
1, 965, Control_c, 15, 6, 64
1, 970, Control_c, 15, 99, 1
1, 970, Control_c, 15, 98, 9
1, 970, Control_c, 15, 6, 64
1, 975, Control_c, 15, 99, 1
1, 975, Control_c, 15, 98, 10
1, 975, Control_c, 15, 6, 64
1, 980, Control_c, 15, 99, 1
1, 980, Control_c, 15, 98, 32
1, 980, Control_c, 15, 6, 64
1, 985, Control_c, 15, 99, 1
1, 985, Control_c, 15, 98, 33
1, 985, Control_c, 15, 6, 64
1, 990, Control_c, 15, 99, 1
1, 990, Control_c, 15, 98, 99
1, 990, Control_c, 15, 6, 64
1, 995, Control_c, 15, 99, 1
1, 995, Control_c, 15, 98, 100
1, 995, Control_c, 15, 6, 64
1, 1000, Control_c, 15, 99, 1
1, 1000, Control_c, 15, 98, 102
1, 1000, Control_c, 15, 6, 64
1, 1000, Tempo, 394736
1, 1920, Control_c, 6, 64, 120
1, 1920, Control_c, 6, 7, 12
1, 1920, Control_c, 6, 10, 90
1, 1920, Note_on_c, 6, 79, 901, 1920, Note_on_c, 6, 83, 901, 2036, Note_off_c, 6, 79, 901, 2036, Note_off_c, 6, 83, 901, 2040, Note_on_c, 6, 78, 901, 2040, Note_on_c, 6, 75, 901, 2156, Note_off_c, 6, 78, 901, 2156, Note_off_c, 6, 75, 901, 2160, Note_on_c, 6, 76, 901, 2160, Note_on_c, 6, 79, 901, 2276, Note_off_c, 6, 76, 901, 2276, Note_off_c, 6, 79, 901, 2280, Note_on_c, 6, 75, 901, 2280, Note_on_c, 6, 78, 901, 2396, Note_off_c, 6, 75, 901, 2396, Note_off_c, 6, 78, 901, 2400, Control_c, 6, 7, 14
1, 2400, Note_on_c, 6, 76, 811, 2400, Note_on_c, 6, 71, 751, 2516, Note_off_c, 6, 76, 811, 2516, Note_off_c, 6, 71, 751, 2520, Note_on_c, 6, 78, 901, 2520, Note_on_c, 6, 75, 901, 2636, Note_off_c, 6, 78, 901, 2636, Note_off_c, 6, 75, 901, 2640, Note_on_c, 6, 76, 901, 2640, Note_on_c, 6, 79, 901, 2756, Note_off_c, 6, 76, 901, 2756, Note_off_c, 6, 79, 901, 2760, Note_on_c, 6, 78, 901, 2760, Note_on_c, 6, 75, 901, 2876, Note_off_c, 6, 78, 901, 2876, Note_off_c, 6, 75, 901, 2880, Control_c, 6, 7, 16
1, 2880, Note_on_c, 6, 79, 901, 2880, Note_on_c, 6, 83, 901, 2996, Note_off_c, 6, 79, 901, 2996, Note_off_c, 6, 83, 901, 3000, Note_on_c, 6, 78, 901, 3000, Note_on_c, 6, 75, 901, 3116, Note_off_c, 6, 78, 901, 3116, Note_off_c, 6, 75, 901, 3120, Note_on_c, 6, 79, 901, 3120, Note_on_c, 6, 76, 901, 3236, Note_off_c, 6, 79, 901, 3236, Note_off_c, 6, 76, 901, 3240, Note_on_c, 6, 75, 901, 3240, Note_on_c, 6, 78, 901, 3356, Note_off_c, 6, 75, 901, 3356, Note_off_c, 6, 78, 901, 3360, Control_c, 6, 7, 18
1, 3360, Note_on_c, 6, 71, 751, 3360, Note_on_c, 6, 76, 811, 3476, Note_off_c, 6, 71, 751, 3476, Note_off_c, 6, 76, 811, 3480, Note_on_c, 6, 78, 901, 3480, Note_on_c, 6, 75, 901, 3596, Note_off_c, 6, 78, 901, 3596, Note_off_c, 6, 75, 901, 3600, Note_on_c, 6, 79, 901, 3600, Note_on_c, 6, 76, 901, 3716, Note_off_c, 6, 79, 901, 3716, Note_off_c, 6, 76, 901, 3720, Note_on_c, 6, 78, 901, 3720, Note_on_c, 6, 75, 901, 3836, Note_off_c, 6, 78, 901, 3836, Note_off_c, 6, 75, 901, 3839, Control_c, 6, 64, 0
1, 3840, Control_c, 6, 64, 120
1, 3840, Note_on_c, 6, 79, 901, 3840, Note_on_c, 6, 83, 901, 3852, Control_c, 6, 7, 21
1, 3956, Note_off_c, 6, 79, 901, 3956, Note_off_c, 6, 83, 901, 3960, Note_on_c, 6, 78, 901, 3960, Note_on_c, 6, 75, 901, 4076, Note_off_c, 6, 78, 901, 4076, Note_off_c, 6, 75, 901, 4080, Note_on_c, 6, 76, 901, 4080, Note_on_c, 6, 79, 901, 4104, Control_c, 6, 7, 22
1, 4180, Control_c, 6, 7, 23
1, 4196, Note_off_c, 6, 76, 901, 4196, Note_off_c, 6, 79, 901, 4200, Note_on_c, 6, 75, 901, 4200, Note_on_c, 6, 78, 901, 4316, Note_off_c, 6, 75, 901, 4316, Note_off_c, 6, 78, 901, 4320, Note_on_c, 6, 76, 811, 4320, Note_on_c, 6, 71, 751, 4352, Control_c, 6, 7, 24
1, 4436, Note_off_c, 6, 76, 811, 4436, Note_off_c, 6, 71, 751, 4440, Note_on_c, 6, 78, 901, 4440, Note_on_c, 6, 75, 901, 4464, Control_c, 6, 7, 25
1, 4556, Note_off_c, 6, 78, 901, 4556, Note_off_c, 6, 75, 901, 4560, Note_on_c, 6, 76, 901, 4560, Note_on_c, 6, 79, 901, 4620, Control_c, 6, 7, 26
1, 4676, Note_off_c, 6, 76, 901, 4676, Note_off_c, 6, 79, 901, 4680, Note_on_c, 6, 78, 901, 4680, Note_on_c, 6, 75, 901, 4736, Control_c, 6, 7, 27
1, 4796, Note_off_c, 6, 78, 901, 4796, Note_off_c, 6, 75, 901, 4800, Note_on_c, 6, 79, 901, 4800, Note_on_c, 6, 83, 901, 4852, Control_c, 6, 7, 28
1, 4916, Note_off_c, 6, 79, 901, 4916, Note_off_c, 6, 83, 901, 4920, Note_on_c, 6, 78, 901, 4920, Note_on_c, 6, 75, 901, 5036, Note_off_c, 6, 78, 901, 5036, Note_off_c, 6, 75, 901, 5040, Note_on_c, 6, 79, 901, 5040, Note_on_c, 6, 76, 901, 5080, Control_c, 6, 7, 29
1, 5136, Control_c, 6, 7, 30
1, 5156, Note_off_c, 6, 79, 901, 5156, Note_off_c, 6, 76, 901, 5160, Note_on_c, 6, 75, 901, 5160, Note_on_c, 6, 78, 901, 5200, Control_c, 6, 7, 31
1, 5276, Note_off_c, 6, 75, 901, 5276, Note_off_c, 6, 78, 901, 5280, Note_on_c, 6, 71, 751, 5280, Note_on_c, 6, 76, 811, 5396, Note_off_c, 6, 71, 751, 5396, Note_off_c, 6, 76, 811, 5400, Note_on_c, 6, 78, 901, 5400, Note_on_c, 6, 75, 901, 5408, Control_c, 6, 7, 32
1, 5516, Note_off_c, 6, 78, 901, 5516, Note_off_c, 6, 75, 901, 5520, Note_on_c, 6, 79, 901, 5520, Note_on_c, 6, 76, 901, 5600, Control_c, 6, 7, 33
1, 5636, Note_off_c, 6, 79, 901, 5636, Note_off_c, 6, 76, 901, 5640, Note_on_c, 6, 78, 901, 5640, Note_on_c, 6, 75, 901, 5756, Note_off_c, 6, 78, 901, 5756, Note_off_c, 6, 75, 901, 5759, Control_c, 6, 64, 0
1, 5760, Control_c, 6, 64, 120
1, 5760, Note_on_c, 6, 80, 901, 5760, Note_on_c, 6, 83, 901, 5792, Control_c, 6, 7, 34
1, 5876, Note_off_c, 6, 80, 901, 5876, Note_off_c, 6, 83, 901, 5880, Note_on_c, 6, 74, 901, 5880, Note_on_c, 6, 78, 901, 5888, Control_c, 6, 7, 35
1, 5948, Control_c, 6, 7, 36
1, 5996, Note_off_c, 6, 74, 901, 5996, Note_off_c, 6, 78, 901, 6000, Note_on_c, 6, 80, 901, 6000, Note_on_c, 6, 76, 901, 6004, Control_c, 6, 7, 37
1, 6116, Note_off_c, 6, 80, 901, 6116, Note_off_c, 6, 76, 901, 6120, Note_on_c, 6, 78, 901, 6120, Note_on_c, 6, 74, 901, 6236, Note_off_c, 6, 78, 901, 6236, Note_off_c, 6, 74, 901, 6240, Note_on_c, 6, 71, 751, 6240, Note_on_c, 6, 76, 811, 6332, Control_c, 6, 7, 38
1, 6356, Note_off_c, 6, 71, 751, 6356, Note_off_c, 6, 76, 811, 6360, Note_on_c, 6, 74, 901, 6360, Note_on_c, 6, 78, 901, 6372, Control_c, 6, 7, 39
1, 6408, Control_c, 6, 7, 40
1, 6448, Control_c, 6, 7, 41
1, 6476, Note_off_c, 6, 74, 901, 6476, Note_off_c, 6, 78, 901, 6480, Note_on_c, 6, 80, 901, 6480, Note_on_c, 6, 76, 901, 6596, Note_off_c, 6, 80, 901, 6596, Note_off_c, 6, 76, 901, 6600, Note_on_c, 6, 78, 901, 6600, Note_on_c, 6, 74, 901, 6716, Note_off_c, 6, 78, 901, 6716, Note_off_c, 6, 74, 901, 6720, Note_on_c, 6, 80, 901, 6720, Note_on_c, 6, 83, 901, 6836, Note_off_c, 6, 80, 901, 6836, Note_off_c, 6, 83, 901, 6840, Note_on_c, 6, 78, 901, 6840, Note_on_c, 6, 74, 901, 6956, Note_off_c, 6, 78, 901, 6956, Note_off_c, 6, 74, 901, 6960, Note_on_c, 6, 80, 901, 6960, Note_on_c, 6, 76, 901, 7076, Note_off_c, 6, 80, 901, 7076, Note_off_c, 6, 76, 901, 7080, Note_on_c, 6, 78, 901, 7080, Note_on_c, 6, 74, 901, 7140, Control_c, 6, 7, 42
1, 7196, Note_off_c, 6, 78, 901, 7196, Note_off_c, 6, 74, 901, 7200, Note_on_c, 6, 76, 811, 7200, Note_on_c, 6, 71, 751, 7316, Note_off_c, 6, 76, 811, 7316, Note_off_c, 6, 71, 751, 7320, Note_on_c, 6, 78, 901, 7320, Note_on_c, 6, 74, 901, 7436, Note_off_c, 6, 78, 901, 7436, Note_off_c, 6, 74, 901, 7440, Note_on_c, 6, 80, 901, 7440, Note_on_c, 6, 76, 901, 7556, Note_off_c, 6, 80, 901, 7556, Note_off_c, 6, 76, 901, 7560, Note_on_c, 6, 78, 901, 7560, Note_on_c, 6, 74, 901, 7600, Control_c, 6, 7, 43
1, 7676, Note_off_c, 6, 78, 901, 7676, Note_off_c, 6, 74, 901, 7679, Control_c, 6, 64, 0
1, 7680, Control_c, 6, 64, 120
1, 7680, Note_on_c, 6, 80, 901, 7680, Note_on_c, 6, 83, 901, 7796, Note_off_c, 6, 80, 901, 7796, Note_off_c, 6, 83, 901, 7800, Note_on_c, 6, 74, 901, 7800, Note_on_c, 6, 78, 901, 7868, Control_c, 6, 7, 44
1, 7916, Note_off_c, 6, 74, 901, 7916, Note_off_c, 6, 78, 901, 7920, Note_on_c, 6, 80, 901, 7920, Note_on_c, 6, 76, 901, 8036, Note_off_c, 6, 80, 901, 8036, Note_off_c, 6, 76, 901, 8040, Note_on_c, 6, 78, 901, 8040, Note_on_c, 6, 74, 901, 8120, Control_c, 6, 7, 45
1, 8156, Note_off_c, 6, 78, 901, 8156, Note_off_c, 6, 74, 901, 8160, Note_on_c, 6, 71, 751, 8160, Note_on_c, 6, 76, 811, 8276, Note_off_c, 6, 71, 751, 8276, Note_off_c, 6, 76, 811, 8280, Note_on_c, 6, 74, 901, 8280, Note_on_c, 6, 78, 901, 8328, Control_c, 6, 7, 46
1, 8396, Note_off_c, 6, 74, 901, 8396, Note_off_c, 6, 78, 901, 8400, Note_on_c, 6, 80, 901, 8400, Note_on_c, 6, 76, 901, 8516, Note_off_c, 6, 80, 901, 8516, Note_off_c, 6, 76, 901, 8520, Note_on_c, 6, 78, 901, 8520, Note_on_c, 6, 74, 901, 8540, Control_c, 6, 7, 47
1, 8636, Note_off_c, 6, 78, 901, 8636, Note_off_c, 6, 74, 901, 8640, Note_on_c, 6, 80, 901, 8640, Note_on_c, 6, 83, 901, 8692, Control_c, 6, 7, 48
1, 8712, Control_c, 6, 7, 49
1, 8756, Note_off_c, 6, 80, 901, 8756, Note_off_c, 6, 83, 901, 8760, Note_on_c, 6, 78, 901, 8760, Note_on_c, 6, 74, 901, 8876, Note_off_c, 6, 78, 901, 8876, Note_off_c, 6, 74, 901, 8880, Note_on_c, 6, 80, 901, 8880, Note_on_c, 6, 76, 901, 8940, Control_c, 6, 7, 50
1, 8996, Note_off_c, 6, 80, 901, 8996, Note_off_c, 6, 76, 901, 9000, Note_on_c, 6, 78, 901, 9000, Note_on_c, 6, 74, 901, 9116, Note_off_c, 6, 78, 901, 9116, Note_off_c, 6, 74, 901, 9120, Note_on_c, 6, 76, 811, 9120, Note_on_c, 6, 71, 751, 9236, Note_off_c, 6, 76, 811, 9236, Note_off_c, 6, 71, 751, 9240, Note_on_c, 6, 78, 901, 9240, Note_on_c, 6, 74, 901, 9356, Note_off_c, 6, 78, 901, 9356, Note_off_c, 6, 74, 901, 9360, Note_on_c, 6, 80, 901, 9360, Note_on_c, 6, 76, 901, 9424, Control_c, 6, 7, 51
1, 9476, Note_off_c, 6, 80, 901, 9476, Note_off_c, 6, 76, 901, 9480, Note_on_c, 6, 78, 901, 9480, Note_on_c, 6, 74, 901, 9596, Note_off_c, 6, 78, 901, 9596, Note_off_c, 6, 74, 901, 9599, Control_c, 6, 64, 0
1, 9600, Control_c, 6, 64, 120
1, 9600, Note_on_c, 6, 79, 901, 9600, Note_on_c, 6, 83, 901, 9716, Note_off_c, 6, 79, 901, 9716, Note_off_c, 6, 83, 901, 9720, Note_on_c, 6, 78, 901, 9720, Note_on_c, 6, 75, 901, 9836, Note_off_c, 6, 78, 901, 9836, Note_off_c, 6, 75, 901, 9840, Note_on_c, 6, 76, 901, 9840, Note_on_c, 6, 79, 901, 9864, Control_c, 6, 7, 52
1, 9956, Note_off_c, 6, 76, 901, 9956, Note_off_c, 6, 79, 901, 9960, Note_on_c, 6, 75, 901, 9960, Note_on_c, 6, 78, 901, 10076, Note_off_c, 6, 75, 901, 10076, Note_off_c, 6, 78, 901, 10080, Note_on_c, 6, 76, 811, 10080, Note_on_c, 6, 71, 751, 10156, Control_c, 6, 7, 53
1, 10196, Note_off_c, 6, 76, 811, 10196, Note_off_c, 6, 71, 751, 10200, Note_on_c, 6, 78, 901, 10200, Note_on_c, 6, 75, 901, 10232, Control_c, 6, 7, 54
1, 10316, Note_off_c, 6, 78, 901, 10316, Note_off_c, 6, 75, 901, 10320, Note_on_c, 6, 76, 901, 10320, Note_on_c, 6, 79, 901, 10436, Note_off_c, 6, 76, 901, 10436, Note_off_c, 6, 79, 901, 10440, Note_on_c, 6, 78, 901, 10440, Note_on_c, 6, 75, 901, 10556, Note_off_c, 6, 78, 901, 10556, Note_off_c, 6, 75, 901, 10560, Note_on_c, 6, 79, 901, 10560, Note_on_c, 6, 83, 901, 10676, Note_off_c, 6, 79, 901, 10676, Note_off_c, 6, 83, 901, 10680, Note_on_c, 6, 78, 901, 10680, Note_on_c, 6, 75, 901, 10688, Control_c, 6, 7, 55
1, 10796, Note_off_c, 6, 78, 901, 10796, Note_off_c, 6, 75, 901, 10800, Note_on_c, 6, 79, 901, 10800, Note_on_c, 6, 76, 901, 10916, Note_off_c, 6, 79, 901, 10916, Note_off_c, 6, 76, 901, 10920, Note_on_c, 6, 75, 901, 10920, Note_on_c, 6, 78, 901, 10960, Control_c, 6, 7, 56
1, 11036, Note_off_c, 6, 75, 901, 11036, Note_off_c, 6, 78, 901, 11040, Note_on_c, 6, 71, 751, 11040, Note_on_c, 6, 76, 811, 11156, Note_off_c, 6, 71, 751, 11156, Note_off_c, 6, 76, 811, 11160, Note_on_c, 6, 78, 901, 11160, Note_on_c, 6, 75, 901, 11264, Control_c, 6, 7, 57
1, 11276, Note_off_c, 6, 78, 901, 11276, Note_off_c, 6, 75, 901, 11280, Note_on_c, 6, 79, 901, 11280, Note_on_c, 6, 76, 901, 11396, Note_off_c, 6, 79, 901, 11396, Note_off_c, 6, 76, 901, 11400, Note_on_c, 6, 78, 901, 11400, Note_on_c, 6, 75, 901, 11516, Note_off_c, 6, 78, 901, 11516, Note_off_c, 6, 75, 901, 11519, Control_c, 6, 64, 0
1, 11520, Control_c, 6, 64, 120
1, 11520, Note_on_c, 6, 79, 901, 11520, Note_on_c, 6, 83, 901, 11556, Control_c, 6, 7, 58
1, 11636, Note_off_c, 6, 79, 901, 11636, Note_off_c, 6, 83, 901, 11640, Note_on_c, 6, 78, 901, 11640, Note_on_c, 6, 75, 901, 11756, Note_off_c, 6, 78, 901, 11756, Note_off_c, 6, 75, 901, 11760, Note_on_c, 6, 76, 901, 11760, Note_on_c, 6, 79, 901, 11876, Note_off_c, 6, 76, 901, 11876, Note_off_c, 6, 79, 901, 11880, Note_on_c, 6, 75, 901, 11880, Note_on_c, 6, 78, 901, 11996, Note_off_c, 6, 75, 901, 11996, Note_off_c, 6, 78, 901, 12000, Note_on_c, 6, 76, 811, 12000, Note_on_c, 6, 71, 751, 12116, Note_off_c, 6, 76, 811, 12116, Note_off_c, 6, 71, 751, 12120, Note_on_c, 6, 78, 901, 12120, Note_on_c, 6, 75, 901, 12236, Note_off_c, 6, 78, 901, 12236, Note_off_c, 6, 75, 901, 12240, Note_on_c, 6, 76, 901, 12240, Note_on_c, 6, 79, 901, 12264, Control_c, 6, 7, 59
1, 12356, Note_off_c, 6, 76, 901, 12356, Note_off_c, 6, 79, 901, 12360, Note_on_c, 6, 78, 901, 12360, Note_on_c, 6, 75, 901, 12476, Note_off_c, 6, 78, 901, 12476, Note_off_c, 6, 75, 901, 12480, Note_on_c, 6, 79, 901, 12480, Note_on_c, 6, 83, 901, 12596, Note_off_c, 6, 79, 901, 12596, Note_off_c, 6, 83, 901, 12600, Note_on_c, 6, 78, 901, 12600, Note_on_c, 6, 75, 901, 12716, Note_off_c, 6, 78, 901, 12716, Note_off_c, 6, 75, 901, 12720, Note_on_c, 6, 79, 901, 12720, Note_on_c, 6, 76, 901, 12836, Note_off_c, 6, 79, 901, 12836, Note_off_c, 6, 76, 901, 12840, Note_on_c, 6, 75, 901, 12840, Note_on_c, 6, 78, 901, 12956, Note_off_c, 6, 75, 901, 12956, Note_off_c, 6, 78, 901, 12960, Note_on_c, 6, 71, 751, 12960, Note_on_c, 6, 76, 811, 13076, Note_off_c, 6, 71, 751, 13076, Note_off_c, 6, 76, 811, 13080, Note_on_c, 6, 78, 901, 13080, Note_on_c, 6, 75, 901, 13128, Control_c, 6, 7, 60
1, 13196, Note_off_c, 6, 78, 901, 13196, Note_off_c, 6, 75, 901, 13200, Note_on_c, 6, 79, 901, 13200, Note_on_c, 6, 76, 901, 13316, Note_off_c, 6, 79, 901, 13316, Note_off_c, 6, 76, 901, 13320, Note_on_c, 6, 78, 901, 13320, Note_on_c, 6, 75, 901, 13436, Control_c, 6, 7, 61
1, 13436, Note_off_c, 6, 78, 901, 13436, Note_off_c, 6, 75, 901, 13439, Control_c, 6, 64, 0
1, 13440, Control_c, 6, 64, 120
1, 13440, Note_on_c, 6, 80, 901, 13440, Note_on_c, 6, 83, 901, 13556, Note_off_c, 6, 80, 901, 13556, Note_off_c, 6, 83, 901, 13560, Note_on_c, 6, 74, 901, 13560, Note_on_c, 6, 78, 901, 13676, Note_off_c, 6, 74, 901, 13676, Note_off_c, 6, 78, 901, 13680, Note_on_c, 6, 80, 901, 13680, Note_on_c, 6, 76, 901, 13744, Control_c, 6, 7, 62
1, 13796, Note_off_c, 6, 80, 901, 13796, Note_off_c, 6, 76, 901, 13800, Note_on_c, 6, 78, 901, 13800, Note_on_c, 6, 74, 901, 13916, Note_off_c, 6, 78, 901, 13916, Note_off_c, 6, 74, 901, 13920, Note_on_c, 6, 71, 751, 13920, Note_on_c, 6, 76, 811, 14036, Note_off_c, 6, 71, 751, 14036, Note_off_c, 6, 76, 811, 14040, Note_on_c, 6, 74, 901, 14040, Note_on_c, 6, 78, 901, 14104, Control_c, 6, 7, 63
1, 14156, Note_off_c, 6, 74, 901, 14156, Note_off_c, 6, 78, 901, 14160, Note_on_c, 6, 80, 901, 14160, Note_on_c, 6, 76, 901, 14276, Note_off_c, 6, 80, 901, 14276, Note_off_c, 6, 76, 901, 14280, Note_on_c, 6, 78, 901, 14280, Note_on_c, 6, 74, 901, 14396, Note_off_c, 6, 78, 901, 14396, Note_off_c, 6, 74, 901, 14400, Note_on_c, 6, 80, 901, 14400, Note_on_c, 6, 83, 901, 14516, Note_off_c, 6, 80, 901, 14516, Note_off_c, 6, 83, 901, 14520, Note_on_c, 6, 78, 901, 14520, Note_on_c, 6, 74, 901, 14636, Note_off_c, 6, 78, 901, 14636, Note_off_c, 6, 74, 901, 14640, Note_on_c, 6, 80, 901, 14640, Note_on_c, 6, 76, 901, 14756, Note_off_c, 6, 80, 901, 14756, Note_off_c, 6, 76, 901, 14760, Note_on_c, 6, 78, 901, 14760, Note_on_c, 6, 74, 901, 14780, Control_c, 6, 7, 64
1, 14876, Note_off_c, 6, 78, 901, 14876, Note_off_c, 6, 74, 901, 14880, Note_on_c, 6, 76, 811, 14880, Note_on_c, 6, 71, 751, 14996, Note_off_c, 6, 76, 811, 14996, Note_off_c, 6, 71, 751, 15000, Note_on_c, 6, 78, 901, 15000, Note_on_c, 6, 74, 901, 15116, Note_off_c, 6, 78, 901, 15116, Note_off_c, 6, 74, 901, 15120, Note_on_c, 6, 80, 901, 15120, Note_on_c, 6, 76, 901, 15236, Note_off_c, 6, 80, 901, 15236, Note_off_c, 6, 76, 901, 15240, Note_on_c, 6, 78, 901, 15240, Note_on_c, 6, 74, 901, 15336, Control_c, 6, 7, 65
1, 15356, Note_off_c, 6, 78, 901, 15356, Note_off_c, 6, 74, 901, 15359, Control_c, 6, 64, 0
1, 15360, Control_c, 6, 64, 120
1, 15360, Note_on_c, 4, 61, 611, 15360, Note_on_c, 6, 80, 901, 15360, Note_on_c, 6, 83, 901, 15392, Control_c, 6, 7, 66
1, 15409, Note_on_c, 4, 59, 571, 15476, Note_off_c, 6, 80, 901, 15476, Note_off_c, 6, 83, 901, 15480, Note_on_c, 6, 74, 901, 15480, Note_on_c, 6, 78, 901, 15596, Note_off_c, 6, 74, 901, 15596, Note_off_c, 6, 78, 901, 15600, Note_on_c, 6, 80, 901, 15600, Note_on_c, 6, 76, 901, 15716, Note_off_c, 6, 80, 901, 15716, Note_off_c, 6, 76, 901, 15720, Note_on_c, 6, 78, 901, 15720, Note_on_c, 6, 74, 901, 15740, Control_c, 6, 7, 67
1, 15796, Control_c, 6, 7, 68
1, 15836, Note_off_c, 6, 78, 901, 15836, Note_off_c, 6, 74, 901, 15840, Note_on_c, 6, 71, 751, 15840, Note_on_c, 6, 76, 811, 15956, Note_off_c, 6, 71, 751, 15956, Note_off_c, 6, 76, 811, 15960, Note_on_c, 6, 74, 901, 15960, Note_on_c, 6, 78, 901, 16048, Control_c, 6, 7, 69
1, 16076, Note_off_c, 6, 74, 901, 16076, Note_off_c, 6, 78, 901, 16080, Note_on_c, 6, 80, 901, 16080, Note_on_c, 6, 76, 901, 16140, Control_c, 6, 7, 70
1, 16196, Note_off_c, 6, 80, 901, 16196, Note_off_c, 6, 76, 901, 16200, Note_on_c, 6, 78, 901, 16200, Note_on_c, 6, 74, 901, 16316, Note_off_c, 6, 78, 901, 16316, Note_off_c, 6, 74, 901, 16320, Note_on_c, 6, 80, 901, 16320, Note_on_c, 6, 83, 901, 16436, Note_off_c, 6, 80, 901, 16436, Note_off_c, 6, 83, 901, 16440, Note_on_c, 6, 78, 901, 16440, Note_on_c, 6, 74, 901, 16556, Note_off_c, 6, 78, 901, 16556, Note_off_c, 6, 74, 901, 16560, Note_on_c, 6, 80, 901, 16560, Note_on_c, 6, 76, 901, 16676, Note_off_c, 6, 80, 901, 16676, Note_off_c, 6, 76, 901, 16680, Control_c, 6, 7, 71
1, 16680, Note_on_c, 6, 78, 901, 16680, Note_on_c, 6, 74, 901, 16796, Note_off_c, 6, 78, 901, 16796, Note_off_c, 6, 74, 901, 16800, Note_on_c, 6, 76, 811, 16800, Note_on_c, 6, 71, 751, 16916, Note_off_c, 6, 76, 811, 16916, Note_off_c, 6, 71, 751, 16920, Note_on_c, 6, 78, 901, 16920, Note_on_c, 6, 74, 901, 17028, Control_c, 6, 7, 72
1, 17036, Note_off_c, 6, 78, 901, 17036, Note_off_c, 6, 74, 901, 17040, Note_on_c, 6, 80, 901, 17040, Note_on_c, 6, 76, 901, 17156, Note_off_c, 6, 80, 901, 17156, Note_off_c, 6, 76, 901, 17160, Note_on_c, 6, 78, 901, 17160, Note_on_c, 6, 74, 901, 17276, Note_off_c, 6, 78, 901, 17276, Note_off_c, 6, 74, 901, 17279, Control_c, 6, 64, 0
1, 17280, Control_c, 6, 64, 120
1, 17280, Note_on_c, 6, 83, 901, 17280, Note_on_c, 6, 80, 901, 17396, Note_off_c, 6, 83, 901, 17396, Note_off_c, 6, 80, 901, 17400, Note_on_c, 6, 78, 901, 17400, Note_on_c, 6, 75, 901, 17448, Control_c, 6, 7, 73
1, 17516, Note_off_c, 6, 78, 901, 17516, Note_off_c, 6, 75, 901, 17520, Note_on_c, 6, 77, 901, 17520, Note_on_c, 6, 80, 901, 17530, Note_on_c, 4, 60, 591, 17540, Note_off_c, 4, 61, 611, 17636, Note_off_c, 6, 77, 901, 17636, Note_off_c, 6, 80, 901, 17640, Note_on_c, 6, 78, 901, 17640, Note_on_c, 6, 75, 901, 17696, Control_c, 6, 7, 74
1, 17756, Note_off_c, 6, 78, 901, 17756, Note_off_c, 6, 75, 901, 17760, Note_on_c, 6, 71, 751, 17760, Note_on_c, 6, 77, 811, 17876, Note_off_c, 6, 71, 751, 17876, Note_off_c, 6, 77, 811, 17880, Note_on_c, 6, 78, 901, 17880, Note_on_c, 6, 75, 901, 17996, Note_off_c, 6, 78, 901, 17996, Note_off_c, 6, 75, 901, 18000, Note_on_c, 6, 77, 901, 18000, Note_on_c, 6, 80, 901, 18008, Control_c, 6, 7, 75
1, 18116, Note_off_c, 6, 77, 901, 18116, Note_off_c, 6, 80, 901, 18120, Note_on_c, 6, 78, 901, 18120, Note_on_c, 6, 75, 901, 18236, Note_off_c, 6, 78, 901, 18236, Note_off_c, 6, 75, 901, 18240, Note_on_c, 6, 80, 901, 18240, Note_on_c, 6, 85, 901, 18328, Control_c, 6, 7, 76
1, 18356, Note_off_c, 6, 80, 901, 18356, Note_off_c, 6, 85, 901, 18360, Note_on_c, 6, 78, 901, 18360, Note_on_c, 6, 75, 901, 18476, Note_off_c, 6, 78, 901, 18476, Note_off_c, 6, 75, 901, 18480, Note_on_c, 6, 80, 901, 18480, Note_on_c, 6, 77, 901, 18580, Control_c, 6, 7, 77
1, 18596, Note_off_c, 6, 80, 901, 18596, Note_off_c, 6, 77, 901, 18600, Note_on_c, 6, 78, 901, 18600, Note_on_c, 6, 75, 901, 18680, Control_c, 6, 7, 78
1, 18716, Note_off_c, 6, 78, 901, 18716, Note_off_c, 6, 75, 901, 18720, Note_on_c, 6, 77, 821, 18720, Note_on_c, 6, 73, 751, 18836, Note_off_c, 6, 77, 821, 18836, Note_off_c, 6, 73, 751, 18840, Note_on_c, 6, 78, 901, 18840, Note_on_c, 6, 75, 901, 18944, Control_c, 6, 7, 79
1, 18956, Note_off_c, 6, 78, 901, 18956, Note_off_c, 6, 75, 901, 18960, Note_on_c, 6, 80, 901, 18960, Note_on_c, 6, 77, 901, 19076, Note_off_c, 6, 80, 901, 19076, Note_off_c, 6, 77, 901, 19080, Note_on_c, 6, 78, 901, 19080, Note_on_c, 6, 75, 901, 19100, Control_c, 6, 7, 80
1, 19196, Note_off_c, 6, 78, 901, 19196, Note_off_c, 6, 75, 901, 19199, Control_c, 6, 64, 0
1, 19200, Control_c, 6, 64, 120
1, 19200, Note_on_c, 6, 83, 901, 19200, Note_on_c, 6, 80, 901, 19312, Control_c, 6, 7, 81
1, 19316, Note_off_c, 6, 83, 901, 19316, Note_off_c, 6, 80, 901, 19320, Note_on_c, 6, 78, 901, 19320, Note_on_c, 6, 75, 901, 19436, Note_off_c, 6, 78, 901, 19436, Note_off_c, 6, 75, 901, 19440, Note_on_c, 6, 77, 901, 19440, Note_on_c, 6, 80, 901, 19556, Note_off_c, 6, 77, 901, 19556, Note_off_c, 6, 80, 901, 19560, Note_on_c, 6, 78, 901, 19560, Note_on_c, 6, 75, 901, 19596, Control_c, 6, 7, 82
1, 19676, Note_off_c, 6, 78, 901, 19676, Note_off_c, 6, 75, 901, 19680, Note_on_c, 6, 71, 751, 19680, Note_on_c, 6, 77, 811, 19768, Control_c, 6, 7, 83
1, 19796, Note_off_c, 6, 71, 751, 19796, Note_off_c, 6, 77, 811, 19800, Note_on_c, 6, 78, 901, 19800, Note_on_c, 6, 75, 901, 19908, Control_c, 6, 7, 86
1, 19916, Note_off_c, 6, 78, 901, 19916, Note_off_c, 6, 75, 901, 19920, Note_on_c, 6, 77, 901, 19920, Note_on_c, 6, 80, 901, 20036, Note_off_c, 6, 77, 901, 20036, Note_off_c, 6, 80, 901, 20040, Control_c, 6, 7, 88
1, 20040, Note_on_c, 6, 78, 901, 20040, Note_on_c, 6, 75, 901, 20156, Note_off_c, 6, 78, 901, 20156, Note_off_c, 6, 75, 901, 20160, Note_on_c, 6, 80, 901, 20160, Note_on_c, 6, 85, 901, 20212, Note_off_c, 4, 59, 571, 20256, Note_on_c, 4, 59, 521, 20276, Note_off_c, 6, 80, 901, 20276, Note_off_c, 6, 85, 901, 20280, Note_on_c, 6, 78, 901, 20280, Note_on_c, 6, 75, 901, 20396, Note_off_c, 6, 78, 901, 20396, Note_off_c, 6, 75, 901, 20400, Note_on_c, 6, 80, 901, 20400, Note_on_c, 6, 77, 901, 20464, Control_c, 6, 7, 91
1, 20516, Note_off_c, 6, 80, 901, 20516, Note_off_c, 6, 77, 901, 20520, Note_on_c, 6, 78, 901, 20520, Note_on_c, 6, 75, 901, 20616, Control_c, 6, 7, 93
1, 20636, Note_off_c, 6, 78, 901, 20636, Note_off_c, 6, 75, 901, 20640, Note_on_c, 6, 77, 821, 20640, Note_on_c, 6, 73, 751, 20756, Note_off_c, 6, 77, 821, 20756, Note_off_c, 6, 73, 751, 20760, Note_on_c, 6, 78, 901, 20760, Note_on_c, 6, 75, 901, 20876, Note_off_c, 6, 78, 901, 20876, Note_off_c, 6, 75, 901, 20880, Note_on_c, 6, 80, 901, 20880, Note_on_c, 6, 77, 901, 20996, Note_off_c, 6, 80, 901, 20996, Note_off_c, 6, 77, 901, 21000, Note_on_c, 6, 78, 901, 21000, Note_on_c, 6, 75, 901, 21116, Control_c, 6, 7, 96
1, 21116, Note_off_c, 6, 78, 901, 21116, Note_off_c, 6, 75, 901, 21119, Control_c, 6, 64, 0
1, 21120, Control_c, 6, 64, 127
1, 21120, Note_on_c, 6, 79, 901, 21120, Note_on_c, 6, 83, 901, 21168, Note_on_c, 4, 84, 761, 21236, Note_off_c, 6, 79, 901, 21236, Note_off_c, 6, 83, 901, 21240, Note_on_c, 6, 75, 901, 21240, Note_on_c, 6, 78, 901, 21356, Note_off_c, 6, 75, 901, 21356, Note_off_c, 6, 78, 901, 21360, Note_on_c, 6, 79, 901, 21360, Note_on_c, 6, 76, 901, 21457, Note_off_c, 4, 60, 591, 21476, Note_off_c, 6, 79, 901, 21476, Note_off_c, 6, 76, 901, 21480, Note_on_c, 6, 75, 901, 21480, Note_on_c, 6, 78, 901, 21596, Note_off_c, 6, 75, 901, 21596, Note_off_c, 6, 78, 901, 21600, Note_on_c, 6, 83, 901, 21600, Note_on_c, 6, 88, 901, 21716, Note_off_c, 6, 83, 901, 21716, Note_off_c, 6, 88, 901, 21720, Note_on_c, 6, 82, 901, 21720, Note_on_c, 6, 78, 901, 21836, Note_off_c, 6, 82, 901, 21836, Note_off_c, 6, 78, 901, 21840, Note_on_c, 6, 83, 901, 21840, Note_on_c, 6, 79, 901, 21956, Note_off_c, 6, 83, 901, 21956, Note_off_c, 6, 79, 901, 21960, Note_on_c, 6, 82, 901, 21960, Note_on_c, 6, 78, 901, 22076, Note_off_c, 6, 82, 901, 22076, Note_off_c, 6, 78, 901, 22080, Note_on_c, 6, 88, 901, 22080, Note_on_c, 6, 91, 901, 22196, Note_off_c, 6, 88, 901, 22196, Note_off_c, 6, 91, 901, 22200, Note_on_c, 6, 87, 901, 22200, Note_on_c, 6, 82, 901, 22316, Note_off_c, 6, 87, 901, 22316, Note_off_c, 6, 82, 901, 22320, Note_on_c, 6, 88, 901, 22320, Note_on_c, 6, 83, 901, 22436, Note_off_c, 6, 88, 901, 22436, Note_off_c, 6, 83, 901, 22440, Note_on_c, 6, 82, 901, 22440, Note_on_c, 6, 87, 901, 22556, Note_off_c, 6, 82, 901, 22556, Note_off_c, 6, 87, 901, 22560, Note_on_c, 6, 91, 901, 22560, Note_on_c, 6, 95, 901, 22676, Note_off_c, 6, 91, 901, 22676, Note_off_c, 6, 95, 901, 22680, Note_on_c, 6, 90, 901, 22680, Note_on_c, 6, 87, 901, 22796, Note_off_c, 6, 90, 901, 22796, Note_off_c, 6, 87, 901, 22800, Note_on_c, 6, 91, 901, 22800, Note_on_c, 6, 88, 901, 22916, Note_off_c, 6, 91, 901, 22916, Note_off_c, 6, 88, 901, 22920, Note_on_c, 6, 87, 901, 22920, Note_on_c, 6, 90, 901, 23025, Note_on_c, 4, 60, 691, 23036, Note_off_c, 6, 87, 901, 23036, Note_off_c, 6, 90, 901, 23040, Note_on_c, 6, 88, 1001, 23040, Note_on_c, 6, 91, 1001, 23156, Note_off_c, 6, 88, 1001, 23156, Note_off_c, 6, 91, 1001, 23160, Note_on_c, 6, 82, 801, 23160, Note_on_c, 6, 87, 801, 23189, Note_off_c, 4, 59, 521, 23276, Note_off_c, 6, 82, 801, 23276, Note_off_c, 6, 87, 801, 23280, Note_on_c, 6, 88, 801, 23280, Note_on_c, 6, 83, 801, 23396, Note_off_c, 6, 88, 801, 23396, Note_off_c, 6, 83, 801, 23400, Note_on_c, 6, 87, 651, 23400, Note_on_c, 6, 82, 651, 23506, Note_off_c, 6, 87, 651, 23506, Note_off_c, 6, 82, 651, 23520, Note_on_c, 6, 83, 1031, 23520, Note_on_c, 6, 88, 1031, 23636, Note_off_c, 6, 83, 1031, 23636, Note_off_c, 6, 88, 1031, 23640, Note_on_c, 6, 82, 801, 23640, Note_on_c, 6, 78, 801, 23756, Note_off_c, 6, 82, 801, 23756, Note_off_c, 6, 78, 801, 23760, Note_on_c, 6, 83, 801, 23760, Note_on_c, 6, 79, 801, 23876, Note_off_c, 6, 83, 801, 23876, Note_off_c, 6, 79, 801, 23880, Note_on_c, 6, 78, 651, 23880, Note_on_c, 6, 82, 651, 23986, Note_off_c, 6, 78, 651, 23986, Note_off_c, 6, 82, 651, 24000, Note_on_c, 6, 83, 1001, 24000, Note_on_c, 6, 79, 1001, 24116, Note_off_c, 6, 83, 1001, 24116, Note_off_c, 6, 79, 1001, 24120, Note_on_c, 6, 75, 801, 24120, Note_on_c, 6, 78, 801, 24236, Note_off_c, 6, 75, 801, 24236, Note_off_c, 6, 78, 801, 24240, Note_on_c, 6, 79, 801, 24240, Note_on_c, 6, 76, 801, 24356, Note_off_c, 6, 79, 801, 24356, Note_off_c, 6, 76, 801, 24360, Note_on_c, 6, 78, 651, 24360, Note_on_c, 6, 75, 651, 24466, Note_off_c, 6, 78, 651, 24466, Note_off_c, 6, 75, 651, 24480, Note_on_c, 6, 79, 1001, 24480, Note_on_c, 6, 76, 1001, 24596, Note_off_c, 6, 79, 1001, 24596, Note_off_c, 6, 76, 1001, 24600, Note_on_c, 6, 75, 801, 24600, Note_on_c, 6, 70, 801, 24716, Note_off_c, 6, 75, 801, 24716, Note_off_c, 6, 70, 801, 24720, Note_on_c, 6, 76, 801, 24720, Note_on_c, 6, 71, 801, 24836, Note_off_c, 6, 76, 801, 24836, Note_off_c, 6, 71, 801, 24840, Note_on_c, 6, 75, 651, 24840, Note_on_c, 6, 70, 651, 24946, Note_off_c, 6, 75, 651, 24946, Note_off_c, 6, 70, 651, 24960, Time_signature, 2, 2, 24, 8
1, 24960, Note_on_c, 6, 71, 1031, 24960, Note_on_c, 6, 76, 1031, 25064, Pitch_bend_c, 4, 7957
1, 25076, Note_off_c, 6, 71, 1031, 25076, Note_off_c, 6, 76, 1031, 25080, Note_on_c, 6, 70, 801, 25080, Note_on_c, 6, 66, 801, 25102, Pitch_bend_c, 4, 7723
1, 25141, Pitch_bend_c, 4, 7489
1, 25180, Pitch_bend_c, 4, 7255
1, 25196, Note_off_c, 6, 70, 801, 25196, Note_off_c, 6, 66, 801, 25199, Pitch_bend_c, 4, 7021
1, 25200, Note_on_c, 6, 71, 801, 25200, Note_on_c, 6, 67, 801, 25236, Pitch_bend_c, 4, 6904
1, 25256, Pitch_bend_c, 4, 6670
1, 25295, Pitch_bend_c, 4, 6436
1, 25316, Note_off_c, 6, 71, 801, 25316, Note_off_c, 6, 67, 801, 25320, Note_on_c, 6, 66, 651, 25320, Note_on_c, 6, 70, 651, 25334, Pitch_bend_c, 4, 6085
1, 25391, Pitch_bend_c, 4, 5851
1, 25426, Note_off_c, 6, 66, 651, 25426, Note_off_c, 6, 70, 651, 25430, Pitch_bend_c, 4, 5617
1, 25440, Note_on_c, 6, 71, 1001, 25440, Note_on_c, 6, 67, 1001, 25469, Pitch_bend_c, 4, 5266
1, 25489, Pitch_bend_c, 4, 5149
1, 25508, Pitch_bend_c, 4, 4915
1, 25528, Pitch_bend_c, 4, 4681
1, 25556, Note_off_c, 6, 71, 1001, 25556, Note_off_c, 6, 67, 1001, 25560, Note_on_c, 6, 63, 801, 25560, Note_on_c, 6, 66, 801, 25567, Pitch_bend_c, 4, 4330
1, 25580, Note_off_c, 4, 84, 761, 25585, Pitch_bend_c, 4, 4213
1, 25605, Pitch_bend_c, 4, 3862
1, 25623, Pitch_bend_c, 4, 3745
1, 25643, Pitch_bend_c, 4, 3511
1, 25663, Pitch_bend_c, 4, 3277
1, 25676, Note_off_c, 6, 63, 801, 25676, Note_off_c, 6, 66, 801, 25680, Note_on_c, 6, 67, 801, 25680, Note_on_c, 6, 64, 801, 25701, Pitch_bend_c, 4, 2926
1, 25719, Note_on_c, 4, 59, 631, 25741, Pitch_bend_c, 4, 2692
1, 25778, Pitch_bend_c, 4, 2341
1, 25796, Note_off_c, 6, 67, 801, 25796, Note_off_c, 6, 64, 801, 25800, Note_on_c, 6, 66, 651, 25800, Note_on_c, 6, 63, 651, 25836, Pitch_bend_c, 4, 2107
1, 25875, Pitch_bend_c, 4, 1873
1, 25895, Pitch_bend_c, 4, 1639
1, 25906, Note_off_c, 6, 66, 651, 25906, Note_off_c, 6, 63, 651, 25912, Control_c, 6, 64, 0
1, 25914, Pitch_bend_c, 4, 1405
1, 25920, Time_signature, 4, 2, 24, 8
1, 25920, Control_c, 6, 64, 120
1, 25920, Note_on_c, 6, 67, 901, 25920, Note_on_c, 6, 71, 901, 25934, Pitch_bend_c, 4, 1054
1, 25953, Pitch_bend_c, 4, 820
1, 25971, Pitch_bend_c, 4, 586
1, 26011, Pitch_bend_c, 4, 235
1, 26030, Pitch_bend_c, 4, 1
1, 26036, Note_off_c, 6, 67, 901, 26036, Note_off_c, 6, 71, 901, 26040, Note_on_c, 6, 66, 901, 26040, Note_on_c, 6, 63, 901, 26049, Pitch_bend_c, 4, 0
1, 26156, Note_off_c, 6, 66, 901, 26156, Note_off_c, 6, 63, 901, 26160, Note_on_c, 6, 64, 901, 26160, Note_on_c, 6, 67, 901, 26276, Note_off_c, 6, 64, 901, 26276, Note_off_c, 6, 67, 901, 26280, Note_on_c, 6, 63, 901, 26280, Note_on_c, 6, 66, 901, 26396, Note_off_c, 6, 63, 901, 26396, Note_off_c, 6, 66, 901, 26400, Note_on_c, 6, 64, 811, 26400, Note_on_c, 6, 59, 751, 26516, Note_off_c, 6, 64, 811, 26516, Note_off_c, 6, 59, 751, 26520, Note_on_c, 6, 66, 901, 26520, Note_on_c, 6, 63, 901, 26636, Note_off_c, 6, 66, 901, 26636, Note_off_c, 6, 63, 901, 26640, Note_on_c, 6, 64, 901, 26640, Note_on_c, 6, 67, 901, 26756, Note_off_c, 6, 64, 901, 26756, Note_off_c, 6, 67, 901, 26760, Note_on_c, 6, 66, 901, 26760, Note_on_c, 6, 63, 901, 26876, Note_off_c, 6, 66, 901, 26876, Note_off_c, 6, 63, 901, 26880, Note_on_c, 6, 67, 901, 26880, Note_on_c, 6, 71, 901, 26996, Note_off_c, 6, 67, 901, 26996, Note_off_c, 6, 71, 901, 27000, Note_on_c, 6, 66, 901, 27000, Note_on_c, 6, 63, 901, 27116, Note_off_c, 6, 66, 901, 27116, Note_off_c, 6, 63, 901, 27120, Note_on_c, 6, 67, 901, 27120, Note_on_c, 6, 64, 901, 27236, Note_off_c, 6, 67, 901, 27236, Note_off_c, 6, 64, 901, 27240, Note_on_c, 6, 63, 901, 27240, Note_on_c, 6, 66, 901, 27252, Note_off_c, 4, 60, 691, 27356, Note_off_c, 6, 63, 901, 27356, Note_off_c, 6, 66, 901, 27360, Note_on_c, 6, 59, 751, 27360, Note_on_c, 6, 64, 811, 27475, Note_on_c, 4, 61, 671, 27476, Note_off_c, 6, 59, 751, 27476, Note_off_c, 6, 64, 811, 27480, Note_on_c, 6, 66, 901, 27480, Note_on_c, 6, 63, 901, 27596, Note_off_c, 6, 66, 901, 27596, Note_off_c, 6, 63, 901, 27600, Note_on_c, 6, 67, 901, 27600, Note_on_c, 6, 64, 901, 27716, Note_off_c, 6, 67, 901, 27716, Note_off_c, 6, 64, 901, 27720, Note_on_c, 6, 66, 901, 27720, Note_on_c, 6, 63, 901, 27836, Note_off_c, 6, 66, 901, 27836, Note_off_c, 6, 63, 901, 27839, Control_c, 6, 64, 0
1, 27840, Control_c, 6, 64, 120
1, 27840, Note_on_c, 6, 67, 901, 27840, Note_on_c, 6, 71, 901, 27956, Note_off_c, 6, 67, 901, 27956, Note_off_c, 6, 71, 901, 27960, Note_on_c, 6, 66, 901, 27960, Note_on_c, 6, 63, 901, 28076, Note_off_c, 6, 66, 901, 28076, Note_off_c, 6, 63, 901, 28080, Note_on_c, 6, 64, 901, 28080, Note_on_c, 6, 67, 901, 28196, Note_off_c, 6, 64, 901, 28196, Note_off_c, 6, 67, 901, 28200, Note_on_c, 6, 63, 901, 28200, Note_on_c, 6, 66, 901, 28316, Note_off_c, 6, 63, 901, 28316, Note_off_c, 6, 66, 901, 28320, Note_on_c, 6, 64, 811, 28320, Note_on_c, 6, 59, 751, 28436, Note_off_c, 6, 64, 811, 28436, Note_off_c, 6, 59, 751, 28440, Note_on_c, 6, 66, 901, 28440, Note_on_c, 6, 63, 901, 28556, Note_off_c, 6, 66, 901, 28556, Note_off_c, 6, 63, 901, 28560, Note_on_c, 6, 64, 901, 28560, Note_on_c, 6, 67, 901, 28676, Note_off_c, 6, 64, 901, 28676, Note_off_c, 6, 67, 901, 28680, Note_on_c, 6, 66, 901, 28680, Note_on_c, 6, 63, 901, 28796, Note_off_c, 6, 66, 901, 28796, Note_off_c, 6, 63, 901, 28800, Note_on_c, 6, 67, 901, 28800, Note_on_c, 6, 71, 901, 28916, Note_off_c, 6, 67, 901, 28916, Note_off_c, 6, 71, 901, 28920, Note_on_c, 6, 66, 901, 28920, Note_on_c, 6, 63, 901, 29036, Note_off_c, 6, 66, 901, 29036, Note_off_c, 6, 63, 901, 29040, Note_on_c, 6, 67, 901, 29040, Note_on_c, 6, 64, 901, 29156, Note_off_c, 6, 67, 901, 29156, Note_off_c, 6, 64, 901, 29160, Note_on_c, 6, 63, 901, 29160, Note_on_c, 6, 66, 901, 29276, Note_off_c, 6, 63, 901, 29276, Note_off_c, 6, 66, 901, 29280, Note_on_c, 6, 59, 751, 29280, Note_on_c, 6, 64, 811, 29396, Note_off_c, 6, 59, 751, 29396, Note_off_c, 6, 64, 811, 29400, Note_on_c, 6, 66, 901, 29400, Note_on_c, 6, 63, 901, 29516, Note_off_c, 6, 66, 901, 29516, Note_off_c, 6, 63, 901, 29520, Note_on_c, 6, 67, 901, 29520, Note_on_c, 6, 64, 901, 29559, Note_off_c, 4, 59, 631, 29636, Note_off_c, 6, 67, 901, 29636, Note_off_c, 6, 64, 901, 29640, Note_on_c, 6, 66, 901, 29640, Note_on_c, 6, 63, 901, 29756, Note_off_c, 6, 66, 901, 29756, Note_off_c, 6, 63, 901, 29759, Control_c, 6, 64, 0
1, 29760, Control_c, 6, 64, 120
1, 29760, Note_on_c, 6, 68, 901, 29760, Note_on_c, 6, 71, 901, 29769, Note_on_c, 4, 60, 551, 29876, Note_off_c, 6, 68, 901, 29876, Note_off_c, 6, 71, 901, 29880, Note_on_c, 6, 62, 901, 29880, Note_on_c, 6, 66, 901, 29996, Note_off_c, 6, 62, 901, 29996, Note_off_c, 6, 66, 901, 30000, Note_on_c, 6, 68, 901, 30000, Note_on_c, 6, 64, 901, 30116, Note_off_c, 6, 68, 901, 30116, Note_off_c, 6, 64, 901, 30120, Note_on_c, 6, 66, 901, 30120, Note_on_c, 6, 62, 901, 30236, Note_off_c, 6, 66, 901, 30236, Note_off_c, 6, 62, 901, 30240, Note_on_c, 6, 59, 751, 30240, Note_on_c, 6, 64, 811, 30356, Note_off_c, 6, 59, 751, 30356, Note_off_c, 6, 64, 811, 30360, Note_on_c, 6, 62, 901, 30360, Note_on_c, 6, 66, 901, 30438, Note_off_c, 4, 61, 671, 30476, Note_off_c, 6, 62, 901, 30476, Note_off_c, 6, 66, 901, 30480, Note_on_c, 6, 68, 901, 30480, Note_on_c, 6, 64, 901, 30596, Note_off_c, 6, 68, 901, 30596, Note_off_c, 6, 64, 901, 30600, Note_on_c, 6, 66, 901, 30600, Note_on_c, 6, 62, 901, 30716, Note_off_c, 6, 66, 901, 30716, Note_off_c, 6, 62, 901, 30720, Note_on_c, 6, 68, 901, 30720, Note_on_c, 6, 71, 901, 30836, Note_off_c, 6, 68, 901, 30836, Note_off_c, 6, 71, 901, 30840, Note_on_c, 6, 66, 901, 30840, Note_on_c, 6, 62, 901, 30956, Note_off_c, 6, 66, 901, 30956, Note_off_c, 6, 62, 901, 30960, Note_on_c, 6, 68, 901, 30960, Note_on_c, 6, 64, 901, 31076, Note_off_c, 6, 68, 901, 31076, Note_off_c, 6, 64, 901, 31080, Note_on_c, 6, 66, 901, 31080, Note_on_c, 6, 62, 901, 31196, Note_off_c, 6, 66, 901, 31196, Note_off_c, 6, 62, 901, 31200, Note_on_c, 6, 64, 811, 31200, Note_on_c, 6, 59, 751, 31316, Note_off_c, 6, 64, 811, 31316, Note_off_c, 6, 59, 751, 31320, Note_on_c, 6, 66, 901, 31320, Note_on_c, 6, 62, 901, 31436, Note_off_c, 6, 66, 901, 31436, Note_off_c, 6, 62, 901, 31440, Note_on_c, 6, 68, 901, 31440, Note_on_c, 6, 64, 901, 31556, Note_off_c, 6, 68, 901, 31556, Note_off_c, 6, 64, 901, 31560, Note_on_c, 6, 66, 901, 31560, Note_on_c, 6, 62, 901, 31676, Note_off_c, 6, 66, 901, 31676, Note_off_c, 6, 62, 901, 31679, Control_c, 6, 64, 0
1, 31680, Control_c, 6, 64, 127
1, 31680, Note_on_c, 6, 68, 901, 31680, Note_on_c, 6, 71, 901, 31796, Note_off_c, 6, 68, 901, 31796, Note_off_c, 6, 71, 901, 31800, Note_on_c, 6, 62, 901, 31800, Note_on_c, 6, 66, 901, 31916, Note_off_c, 6, 62, 901, 31916, Note_off_c, 6, 66, 901, 31920, Note_on_c, 6, 68, 901, 31920, Note_on_c, 6, 64, 901, 32036, Note_off_c, 6, 68, 901, 32036, Note_off_c, 6, 64, 901, 32040, Note_on_c, 6, 66, 901, 32040, Note_on_c, 6, 62, 901, 32156, Note_off_c, 6, 66, 901, 32156, Note_off_c, 6, 62, 901, 32160, Note_on_c, 6, 59, 751, 32160, Note_on_c, 6, 64, 811, 32276, Note_off_c, 6, 59, 751, 32276, Note_off_c, 6, 64, 811, 32280, Note_on_c, 6, 62, 901, 32280, Note_on_c, 6, 66, 901, 32396, Note_off_c, 6, 62, 901, 32396, Note_off_c, 6, 66, 901, 32400, Note_on_c, 6, 68, 901, 32400, Note_on_c, 6, 64, 901, 32516, Note_off_c, 6, 68, 901, 32516, Note_off_c, 6, 64, 901, 32520, Note_on_c, 6, 66, 901, 32520, Note_on_c, 6, 62, 901, 32636, Note_off_c, 6, 66, 901, 32636, Note_off_c, 6, 62, 901, 32640, Tempo, 408163
1, 32640, Note_on_c, 6, 68, 901, 32640, Note_on_c, 6, 71, 901, 32756, Note_off_c, 6, 68, 901, 32756, Note_off_c, 6, 71, 901, 32760, Note_on_c, 6, 66, 901, 32760, Note_on_c, 6, 62, 901, 32876, Note_off_c, 6, 66, 901, 32876, Note_off_c, 6, 62, 901, 32880, Note_on_c, 6, 68, 901, 32880, Note_on_c, 6, 64, 901, 32933, Note_on_c, 4, 58, 711, 32996, Note_off_c, 6, 68, 901, 32996, Note_off_c, 6, 64, 901, 33000, Note_on_c, 6, 66, 901, 33000, Note_on_c, 6, 62, 901, 33116, Note_off_c, 6, 66, 901, 33116, Note_off_c, 6, 62, 901, 33120, Tempo, 422535
1, 33120, Note_on_c, 6, 64, 811, 33120, Note_on_c, 6, 59, 751, 33236, Note_off_c, 6, 64, 811, 33236, Note_off_c, 6, 59, 751, 33240, Note_on_c, 6, 66, 901, 33240, Note_on_c, 6, 62, 901, 33292, Control_c, 6, 64, 0
1, 33356, Note_off_c, 6, 66, 901, 33356, Note_off_c, 6, 62, 901, 33360, Note_on_c, 6, 68, 901, 33360, Note_on_c, 6, 64, 901, 33476, Note_off_c, 6, 68, 901, 33476, Note_off_c, 6, 64, 901, 33480, Note_on_c, 6, 70, 901, 33480, Note_on_c, 6, 66, 901, 33596, Note_off_c, 6, 70, 901, 33596, Note_off_c, 6, 66, 901, 33600, Tempo, 434782
1, 33600, Control_c, 6, 64, 127
1, 33600, Note_on_c, 6, 71, 901, 33600, Note_on_c, 6, 68, 901, 33716, Note_off_c, 6, 71, 901, 33716, Note_off_c, 6, 68, 901, 33720, Note_on_c, 6, 70, 901, 33720, Note_on_c, 6, 67, 901, 33735, Note_off_c, 4, 60, 551, 33836, Note_off_c, 6, 70, 901, 33836, Note_off_c, 6, 67, 901, 33840, Note_on_c, 6, 64, 901, 33840, Note_on_c, 6, 68, 901, 33956, Note_off_c, 6, 64, 901, 33956, Note_off_c, 6, 68, 901, 33960, Note_on_c, 6, 64, 901, 33960, Note_on_c, 6, 61, 901, 34076, Note_off_c, 6, 64, 901, 34076, Note_off_c, 6, 61, 901, 34080, Tempo, 447761
1, 34080, Note_on_c, 6, 58, 751, 34080, Note_on_c, 6, 61, 811, 34196, Note_off_c, 6, 58, 751, 34196, Note_off_c, 6, 61, 811, 34200, Note_on_c, 6, 64, 901, 34200, Note_on_c, 6, 61, 901, 34316, Note_off_c, 6, 64, 901, 34316, Note_off_c, 6, 61, 901, 34320, Note_on_c, 6, 68, 901, 34325, Note_on_c, 6, 64, 901, 34436, Note_off_c, 6, 68, 901, 34440, Note_on_c, 6, 70, 901, 34441, Note_off_c, 6, 64, 901, 34445, Note_on_c, 6, 67, 901, 34556, Note_off_c, 6, 70, 901, 34560, Tempo, 461538
1, 34560, Note_on_c, 6, 71, 901, 34560, Note_on_c, 6, 68, 901, 34561, Note_off_c, 6, 67, 901, 34676, Note_off_c, 6, 71, 901, 34676, Note_off_c, 6, 68, 901, 34680, Note_on_c, 6, 70, 901, 34680, Note_on_c, 6, 67, 901, 34796, Note_off_c, 6, 70, 901, 34796, Note_off_c, 6, 67, 901, 34800, Note_on_c, 6, 64, 901, 34800, Note_on_c, 6, 68, 901, 34916, Note_off_c, 6, 64, 901, 34916, Note_off_c, 6, 68, 901, 34920, Note_on_c, 6, 64, 901, 34920, Note_on_c, 6, 61, 901, 35036, Note_off_c, 6, 64, 901, 35036, Note_off_c, 6, 61, 901, 35040, Tempo, 476190
1, 35040, Note_on_c, 6, 58, 751, 35040, Note_on_c, 6, 61, 811, 35156, Note_off_c, 6, 58, 751, 35156, Note_off_c, 6, 61, 811, 35160, Note_on_c, 6, 64, 901, 35160, Note_on_c, 6, 61, 901, 35276, Note_off_c, 6, 64, 901, 35276, Note_off_c, 6, 61, 901, 35277, Note_on_c, 4, 61, 401, 35280, Note_on_c, 6, 68, 901, 35285, Note_on_c, 6, 64, 901, 35396, Note_off_c, 6, 68, 901, 35400, Note_on_c, 6, 70, 901, 35400, Note_on_c, 6, 67, 901, 35401, Note_off_c, 6, 64, 901, 35516, Note_off_c, 6, 70, 901, 35516, Note_off_c, 6, 67, 901, 35520, Tempo, 487804
1, 35520, Note_on_c, 6, 71, 901, 35520, Note_on_c, 6, 68, 901, 35636, Note_off_c, 6, 71, 901, 35636, Note_off_c, 6, 68, 901, 35640, Note_on_c, 6, 70, 901, 35640, Note_on_c, 6, 67, 901, 35756, Note_off_c, 6, 70, 901, 35756, Note_off_c, 6, 67, 901, 35760, Note_on_c, 6, 64, 901, 35760, Note_on_c, 6, 68, 901, 35876, Note_off_c, 6, 64, 901, 35876, Note_off_c, 6, 68, 901, 35880, Note_on_c, 6, 64, 901, 35880, Note_on_c, 6, 61, 901, 35996, Note_off_c, 6, 64, 901, 35996, Note_off_c, 6, 61, 901, 36000, Note_on_c, 6, 58, 751, 36000, Note_on_c, 6, 61, 811, 36116, Note_off_c, 6, 58, 751, 36116, Note_off_c, 6, 61, 811, 36120, Note_on_c, 6, 64, 901, 36120, Note_on_c, 6, 61, 901, 36236, Note_off_c, 6, 64, 901, 36236, Note_off_c, 6, 61, 901, 36240, Note_on_c, 6, 68, 901, 36245, Note_on_c, 6, 64, 901, 36356, Note_off_c, 6, 68, 901, 36360, Note_on_c, 6, 70, 901, 36360, Note_on_c, 6, 67, 901, 36361, Note_off_c, 6, 64, 901, 36476, Note_off_c, 6, 70, 901, 36476, Note_off_c, 6, 67, 901, 36480, Tempo, 500000
1, 36480, Note_on_c, 6, 71, 901, 36480, Note_on_c, 6, 68, 901, 36596, Note_off_c, 6, 71, 901, 36596, Note_off_c, 6, 68, 901, 36600, Note_on_c, 6, 70, 901, 36600, Note_on_c, 6, 67, 901, 36647, Note_off_c, 4, 61, 401, 36716, Note_off_c, 6, 70, 901, 36716, Note_off_c, 6, 67, 901, 36720, Note_on_c, 6, 64, 901, 36720, Note_on_c, 6, 68, 901, 36836, Note_off_c, 6, 64, 901, 36836, Note_off_c, 6, 68, 901, 36840, Note_on_c, 6, 64, 901, 36840, Note_on_c, 6, 61, 901, 36956, Note_off_c, 6, 64, 901, 36956, Note_off_c, 6, 61, 901, 36960, Note_on_c, 6, 58, 751, 36960, Note_on_c, 6, 61, 811, 37076, Note_off_c, 6, 58, 751, 37076, Note_off_c, 6, 61, 811, 37080, Note_on_c, 6, 64, 901, 37080, Note_on_c, 6, 61, 901, 37196, Note_off_c, 6, 64, 901, 37196, Note_off_c, 6, 61, 901, 37200, Note_on_c, 6, 68, 901, 37205, Note_on_c, 6, 64, 901, 37316, Note_off_c, 6, 68, 901, 37320, Note_on_c, 6, 70, 901, 37320, Note_on_c, 6, 67, 901, 37321, Note_off_c, 6, 64, 901, 37436, Note_off_c, 4, 58, 711, 37436, Note_off_c, 6, 70, 901, 37436, Note_off_c, 6, 67, 901, 37439, Control_c, 6, 64, 0
1, 37440, Tempo, 500000
1, 37440, Note_on_c, 1, 34, 1191, 37440, Note_on_c, 2, 51, 931, 37440, Note_on_c, 2, 58, 1021, 37440, Note_on_c, 2, 55, 1021, 37440, Note_on_c, 2, 63, 981, 37440, Note_on_c, 6, 82, 1071, 37440, Note_on_c, 6, 87, 931, 37440, Note_on_c, 9, 36, 1131, 37440, Note_on_c, 9, 49, 1131, 37440, Note_on_c, 9, 57, 1071, 37440, Note_on_c, 9, 52, 1071, 37465, Control_c, 1, 64, 127
1, 37488, Control_c, 6, 64, 127
1, 37559, Note_off_c, 6, 82, 1071, 37559, Note_off_c, 6, 87, 931, 37559, Note_off_c, 9, 49, 1131, 37559, Note_off_c, 9, 57, 1071, 37559, Note_off_c, 9, 52, 1071, 37560, Note_on_c, 6, 80, 851, 37679, Note_off_c, 6, 80, 851, 37680, Note_on_c, 6, 79, 851, 37799, Note_off_c, 6, 79, 851, 37800, Note_on_c, 6, 80, 721, 37883, Note_off_c, 1, 34, 1191, 37919, Note_off_c, 6, 80, 721, 37920, Note_on_c, 6, 79, 851, 37920, Note_on_c, 9, 51, 761, 38039, Note_off_c, 6, 79, 851, 38039, Note_off_c, 9, 51, 761, 38040, Note_on_c, 6, 80, 851, 38159, Note_off_c, 6, 80, 851, 38160, Note_on_c, 6, 79, 851, 38174, Control_c, 2, 64, 127
1, 38279, Note_off_c, 6, 79, 851, 38280, Note_on_c, 6, 80, 761, 38399, Note_off_c, 6, 80, 761, 38400, Pitch_bend_c, 4, 8192
1, 38400, Note_on_c, 6, 87, 851, 38400, Note_on_c, 6, 82, 1021, 38400, Note_on_c, 9, 51, 681, 38483, Note_off_c, 2, 63, 981, 38493, Note_off_c, 2, 58, 1021, 38493, Note_off_c, 2, 55, 1021, 38513, Note_off_c, 2, 51, 931, 38519, Note_off_c, 6, 87, 851, 38519, Note_off_c, 6, 82, 1021, 38519, Note_off_c, 9, 51, 681, 38520, Note_on_c, 6, 80, 891, 38639, Note_off_c, 6, 80, 891, 38640, Note_on_c, 6, 79, 891, 38759, Note_off_c, 6, 79, 891, 38760, Note_on_c, 6, 80, 721, 38879, Note_off_c, 6, 80, 721, 38880, Note_on_c, 6, 79, 891, 38880, Note_on_c, 9, 51, 721, 38999, Note_off_c, 6, 79, 891, 38999, Note_off_c, 9, 51, 721, 39000, Note_on_c, 6, 80, 761, 39119, Note_off_c, 6, 80, 761, 39120, Note_on_c, 6, 79, 891, 39239, Note_off_c, 6, 79, 891, 39240, Note_on_c, 6, 80, 851, 39292, Control_c, 6, 64, 0
1, 39340, Control_c, 6, 64, 127
1, 39359, Note_off_c, 6, 80, 851, 39360, Note_on_c, 1, 34, 1071, 39360, Note_on_c, 6, 82, 1071, 39360, Note_on_c, 6, 87, 891, 39360, Note_on_c, 9, 51, 891, 39479, Note_off_c, 6, 82, 1071, 39479, Note_off_c, 6, 87, 891, 39479, Note_off_c, 9, 51, 891, 39480, Note_on_c, 6, 80, 761, 39599, Note_off_c, 6, 80, 761, 39600, Note_on_c, 6, 79, 891, 39719, Note_off_c, 6, 79, 891, 39720, Note_on_c, 6, 80, 761, 39839, Note_off_c, 6, 80, 761, 39840, Note_on_c, 6, 79, 931, 39840, Note_on_c, 9, 51, 851, 39861, Note_off_c, 1, 34, 1071, 39959, Note_off_c, 6, 79, 931, 39959, Note_off_c, 9, 51, 851, 39960, Note_on_c, 6, 80, 801, 40079, Note_off_c, 6, 80, 801, 40080, Note_on_c, 6, 79, 851, 40199, Note_off_c, 6, 79, 851, 40200, Note_on_c, 6, 80, 801, 40319, Note_off_c, 6, 80, 801, 40320, Note_on_c, 6, 87, 931, 40320, Note_on_c, 6, 82, 1021, 40320, Note_on_c, 9, 51, 891, 40439, Note_off_c, 6, 87, 931, 40439, Note_off_c, 6, 82, 1021, 40439, Note_off_c, 9, 51, 891, 40440, Note_on_c, 6, 80, 801, 40559, Note_off_c, 6, 80, 801, 40560, Note_on_c, 6, 79, 891, 40679, Note_off_c, 6, 79, 891, 40680, Note_on_c, 6, 80, 851, 40799, Note_off_c, 6, 80, 851, 40800, Note_on_c, 6, 79, 931, 40800, Note_on_c, 9, 51, 1021, 40919, Note_off_c, 6, 79, 931, 40919, Note_off_c, 9, 36, 1131, 40919, Note_off_c, 9, 51, 1021, 40920, Note_on_c, 6, 80, 891, 41039, Note_off_c, 6, 80, 891, 41040, Note_on_c, 6, 79, 891, 41159, Note_off_c, 6, 79, 891, 41160, Note_on_c, 6, 80, 931, 41193, Control_c, 6, 64, 0
1, 41244, Control_c, 2, 64, 0
1, 41279, Note_off_c, 6, 80, 931, 41280, Note_on_c, 1, 34, 1131, 41280, Note_on_c, 2, 51, 1131, 41280, Note_on_c, 2, 58, 1021, 41280, Note_on_c, 2, 63, 981, 41280, Note_on_c, 2, 56, 1071, 41280, Note_on_c, 6, 87, 981, 41280, Note_on_c, 6, 85, 1071, 41280, Note_on_c, 9, 36, 891, 41280, Note_on_c, 9, 49, 1131, 41280, Note_on_c, 9, 57, 1131, 41283, Control_c, 1, 64, 0
1, 41347, Control_c, 6, 64, 127
1, 41399, Note_off_c, 6, 87, 981, 41399, Note_off_c, 6, 85, 1071, 41399, Note_off_c, 9, 49, 1131, 41399, Note_off_c, 9, 57, 1131, 41400, Note_on_c, 6, 82, 1021, 41519, Note_off_c, 6, 82, 1021, 41520, Note_on_c, 6, 80, 891, 41639, Note_off_c, 6, 80, 891, 41640, Note_on_c, 6, 82, 851, 41697, Control_c, 1, 64, 127
1, 41759, Note_off_c, 6, 82, 851, 41760, Note_on_c, 6, 80, 891, 41760, Note_on_c, 9, 51, 891, 41879, Note_off_c, 6, 80, 891, 41879, Note_off_c, 9, 51, 891, 41880, Note_on_c, 6, 82, 931, 41999, Note_off_c, 6, 82, 931, 42000, Note_on_c, 6, 80, 891, 42087, Note_off_c, 1, 34, 1131, 42119, Note_off_c, 6, 80, 891, 42120, Note_on_c, 6, 82, 891, 42239, Note_off_c, 6, 82, 891, 42240, Note_on_c, 6, 85, 1071, 42240, Note_on_c, 6, 87, 1021, 42240, Note_on_c, 9, 51, 761, 42359, Note_off_c, 6, 85, 1071, 42359, Note_off_c, 6, 87, 1021, 42359, Note_off_c, 9, 51, 761, 42360, Note_on_c, 6, 82, 851, 42479, Note_off_c, 6, 82, 851, 42480, Note_on_c, 6, 80, 851, 42599, Note_off_c, 6, 80, 851, 42600, Note_on_c, 6, 82, 851, 42719, Note_off_c, 6, 82, 851, 42720, Note_on_c, 6, 80, 891, 42720, Note_on_c, 9, 51, 801, 42839, Note_off_c, 6, 80, 891, 42839, Note_off_c, 9, 51, 801, 42840, Note_on_c, 6, 82, 721, 42959, Note_off_c, 6, 82, 721, 42960, Note_on_c, 6, 80, 891, 43005, Control_c, 2, 64, 127
1, 43079, Note_off_c, 6, 80, 891, 43080, Note_on_c, 6, 82, 851, 43199, Note_off_c, 6, 82, 851, 43200, Note_on_c, 1, 34, 1191, 43200, Note_on_c, 6, 85, 931, 43200, Note_on_c, 6, 87, 931, 43200, Note_on_c, 9, 51, 891, 43232, Control_c, 1, 64, 0
1, 43319, Note_off_c, 6, 85, 931, 43319, Note_off_c, 6, 87, 931, 43319, Note_off_c, 9, 51, 891, 43320, Note_on_c, 6, 82, 761, 43425, Note_off_c, 2, 56, 1071, 43426, Note_off_c, 2, 63, 981, 43439, Note_off_c, 6, 82, 761, 43440, Note_on_c, 6, 80, 891, 43445, Note_off_c, 2, 58, 1021, 43494, Note_off_c, 2, 51, 1131, 43559, Note_off_c, 6, 80, 891, 43560, Note_on_c, 6, 82, 891, 43679, Note_off_c, 6, 82, 891, 43680, Note_on_c, 6, 80, 851, 43680, Note_on_c, 9, 51, 891, 43684, Control_c, 1, 64, 127
1, 43799, Note_off_c, 6, 80, 851, 43799, Note_off_c, 9, 51, 891, 43800, Note_on_c, 6, 82, 721, 43859, Note_off_c, 1, 34, 1191, 43919, Note_off_c, 6, 82, 721, 43920, Note_on_c, 6, 80, 891, 44039, Note_off_c, 6, 80, 891, 44040, Note_on_c, 6, 82, 891, 44159, Note_off_c, 6, 82, 891, 44160, Note_on_c, 6, 85, 1021, 44160, Note_on_c, 6, 87, 931, 44160, Note_on_c, 9, 51, 1021, 44279, Note_off_c, 6, 85, 1021, 44279, Note_off_c, 6, 87, 931, 44279, Note_off_c, 9, 51, 1021, 44280, Note_on_c, 6, 82, 891, 44399, Note_off_c, 6, 82, 891, 44399, Note_off_c, 9, 36, 891, 44400, Note_on_c, 6, 80, 891, 44519, Note_off_c, 6, 80, 891, 44520, Note_on_c, 6, 82, 891, 44638, Note_on_c, 0, 70, 1131, 44639, Note_off_c, 6, 82, 891, 44640, Note_on_c, 6, 80, 891, 44640, Note_on_c, 9, 38, 1271, 44670, Note_on_c, 9, 38, 1271, 44759, Note_off_c, 6, 80, 891, 44759, Note_off_c, 9, 38, 1271, 44760, Note_on_c, 6, 82, 851, 44789, Note_off_c, 9, 38, 1271, 44843, Note_off_c, 0, 70, 1131, 44875, Note_on_c, 0, 70, 941, 44879, Note_off_c, 6, 82, 851, 44880, Note_on_c, 6, 80, 891, 44993, Control_c, 2, 64, 0
1, 44999, Note_off_c, 6, 80, 891, 45000, Note_on_c, 6, 82, 891, 45052, Control_c, 1, 64, 0
1, 45083, Note_off_c, 0, 70, 941, 45119, Note_off_c, 6, 82, 891, 45120, Control_c, 2, 76, 127
1, 45120, Note_on_c, 1, 34, 1021, 45120, Note_on_c, 2, 53, 871, 45120, Note_on_c, 2, 50, 871, 45120, Note_on_c, 2, 46, 871, 45120, Note_on_c, 6, 86, 981, 45120, Note_on_c, 6, 82, 981, 45120, Note_on_c, 9, 36, 1131, 45120, Note_on_c, 9, 49, 1071, 45120, Note_on_c, 9, 57, 1131, 45120, Note_on_c, 9, 51, 1131, 45121, Note_on_c, 0, 70, 1191, 45124, Note_on_c, 0, 77, 1101, 45147, Control_c, 6, 64, 127
1, 45219, Note_off_c, 6, 82, 981, 45239, Note_off_c, 9, 49, 1071, 45239, Note_off_c, 9, 57, 1131, 45239, Note_off_c, 9, 51, 1131, 45240, Note_off_c, 1, 34, 1021, 45240, Note_on_c, 6, 77, 851, 45278, Note_off_c, 6, 86, 981, 45359, Note_off_c, 2, 53, 871, 45359, Note_off_c, 2, 50, 871, 45359, Note_off_c, 2, 46, 871, 45360, Note_on_c, 1, 34, 801, 45360, Note_on_c, 6, 82, 681, 45439, Note_off_c, 6, 82, 681, 45446, Note_off_c, 6, 77, 851, 45480, Note_on_c, 6, 84, 981, 45480, Note_on_c, 6, 82, 851, 45500, Note_off_c, 1, 34, 801, 45599, Note_off_c, 9, 36, 1131, 45600, Note_on_c, 1, 34, 761, 45600, Note_on_c, 2, 53, 601, 45600, Note_on_c, 2, 50, 801, 45600, Note_on_c, 2, 46, 501, 45600, Note_on_c, 9, 51, 721, 45719, Note_off_c, 2, 53, 601, 45719, Note_off_c, 2, 50, 801, 45719, Note_off_c, 2, 46, 501, 45719, Note_off_c, 9, 51, 721, 45720, Note_on_c, 6, 77, 891, 45720, Note_on_c, 9, 36, 441, 45730, Note_off_c, 1, 34, 761, 45756, Note_off_c, 6, 82, 851, 45785, Note_off_c, 6, 84, 981, 45818, Note_off_c, 6, 77, 891, 45839, Note_off_c, 9, 36, 441, 45840, Note_on_c, 1, 34, 851, 45840, Note_on_c, 2, 53, 621, 45840, Note_on_c, 2, 46, 511, 45840, Note_on_c, 2, 50, 761, 45840, Note_on_c, 6, 82, 641, 45840, Note_on_c, 9, 36, 681, 45840, Note_on_c, 9, 51, 551, 45918, Note_off_c, 6, 82, 641, 45959, Note_off_c, 2, 53, 621, 45959, Note_off_c, 2, 46, 511, 45959, Note_off_c, 2, 50, 761, 45959, Note_off_c, 9, 36, 681, 45959, Note_off_c, 9, 51, 551, 45960, Note_on_c, 6, 77, 891, 45970, Note_off_c, 1, 34, 851, 46068, Note_off_c, 6, 77, 891, 46080, Note_on_c, 1, 34, 891, 46080, Note_on_c, 2, 53, 571, 46080, Note_on_c, 2, 46, 501, 46080, Note_on_c, 2, 50, 801, 46080, Note_on_c, 6, 86, 981, 46080, Note_on_c, 6, 82, 1131, 46080, Note_on_c, 9, 51, 531, 46080, Note_on_c, 9, 36, 591, 46178, Note_off_c, 6, 82, 1131, 46199, Note_off_c, 2, 53, 571, 46199, Note_off_c, 2, 46, 501, 46199, Note_off_c, 2, 50, 801, 46199, Note_off_c, 9, 51, 531, 46199, Note_off_c, 9, 36, 591, 46200, Note_on_c, 6, 77, 891, 46218, Note_off_c, 6, 86, 981, 46240, Note_off_c, 1, 34, 891, 46318, Note_off_c, 6, 77, 891, 46320, Note_on_c, 1, 34, 851, 46320, Note_on_c, 2, 53, 571, 46320, Note_on_c, 2, 50, 761, 46320, Note_on_c, 2, 46, 481, 46320, Note_on_c, 6, 82, 851, 46320, Note_on_c, 9, 51, 561, 46320, Note_on_c, 9, 36, 601, 46408, Note_off_c, 6, 82, 851, 46439, Note_off_c, 2, 53, 571, 46439, Note_off_c, 2, 50, 761, 46439, Note_off_c, 2, 46, 481, 46439, Note_off_c, 9, 51, 561, 46439, Note_off_c, 9, 36, 601, 46440, Note_on_c, 6, 84, 1021, 46440, Note_on_c, 6, 82, 801, 46450, Note_off_c, 1, 34, 851, 46560, Note_on_c, 1, 34, 931, 46560, Note_on_c, 2, 50, 721, 46560, Note_on_c, 2, 53, 681, 46560, Note_on_c, 2, 46, 551, 46560, Note_on_c, 9, 51, 601, 46560, Note_on_c, 9, 36, 721, 46657, Note_off_c, 6, 82, 801, 46679, Note_off_c, 2, 50, 721, 46679, Note_off_c, 2, 53, 681, 46679, Note_off_c, 2, 46, 551, 46679, Note_off_c, 9, 51, 601, 46679, Note_off_c, 9, 36, 721, 46680, Note_on_c, 6, 77, 891, 46690, Note_off_c, 1, 34, 931, 46755, Note_off_c, 6, 84, 1021, 46779, Note_off_c, 6, 77, 891, 46800, Note_on_c, 1, 34, 851, 46800, Note_on_c, 2, 53, 621, 46800, Note_on_c, 2, 50, 641, 46800, Note_on_c, 2, 46, 501, 46800, Note_on_c, 6, 82, 761, 46800, Note_on_c, 9, 36, 681, 46800, Note_on_c, 9, 51, 681, 46888, Note_off_c, 6, 82, 761, 46919, Note_off_c, 2, 53, 621, 46919, Note_off_c, 2, 50, 641, 46919, Note_off_c, 2, 46, 501, 46919, Note_off_c, 9, 36, 681, 46919, Note_off_c, 9, 51, 681, 46920, Note_on_c, 6, 77, 931, 46930, Note_off_c, 1, 34, 851, 47009, Note_off_c, 6, 77, 931, 47040, Note_on_c, 1, 34, 931, 47040, Note_on_c, 2, 53, 621, 47040, Note_on_c, 2, 50, 761, 47040, Note_on_c, 2, 46, 511, 47040, Note_on_c, 6, 86, 1071, 47040, Note_on_c, 6, 82, 1131, 47040, Note_on_c, 9, 36, 681, 47040, Note_on_c, 9, 51, 761, 47138, Note_off_c, 6, 82, 1131, 47159, Note_off_c, 2, 53, 621, 47159, Note_off_c, 2, 50, 761, 47159, Note_off_c, 2, 46, 511, 47159, Note_off_c, 9, 36, 681, 47159, Note_off_c, 9, 51, 761, 47160, Note_on_c, 6, 77, 981, 47180, Note_off_c, 1, 34, 931, 47207, Note_off_c, 6, 86, 1071, 47280, Note_on_c, 1, 34, 851, 47280, Note_on_c, 2, 53, 641, 47280, Note_on_c, 2, 46, 551, 47280, Note_on_c, 2, 50, 721, 47280, Note_on_c, 6, 82, 931, 47280, Note_on_c, 9, 36, 801, 47280, Note_on_c, 9, 51, 681, 47288, Note_off_c, 6, 77, 981, 47358, Note_off_c, 6, 82, 931, 47399, Note_off_c, 2, 53, 641, 47399, Note_off_c, 2, 46, 551, 47399, Note_off_c, 2, 50, 721, 47399, Note_off_c, 9, 36, 801, 47399, Note_off_c, 9, 51, 681, 47400, Note_on_c, 6, 84, 1071, 47400, Note_on_c, 6, 82, 851, 47410, Note_off_c, 1, 34, 851, 47520, Note_on_c, 1, 34, 981, 47520, Note_on_c, 2, 50, 761, 47520, Note_on_c, 2, 53, 721, 47520, Note_on_c, 2, 46, 641, 47520, Note_on_c, 9, 36, 801, 47520, Note_on_c, 9, 51, 681, 47639, Note_off_c, 2, 50, 761, 47639, Note_off_c, 2, 53, 721, 47639, Note_off_c, 2, 46, 641, 47639, Note_off_c, 9, 36, 801, 47639, Note_off_c, 9, 51, 681, 47640, Note_on_c, 6, 77, 931, 47655, Note_off_c, 6, 82, 851, 47660, Note_off_c, 1, 34, 981, 47685, Note_off_c, 6, 84, 1071, 47728, Note_off_c, 6, 77, 931, 47760, Note_on_c, 1, 34, 851, 47760, Note_on_c, 2, 53, 851, 47760, Note_on_c, 2, 50, 801, 47760, Note_on_c, 2, 46, 681, 47760, Note_on_c, 6, 82, 721, 47760, Note_on_c, 9, 51, 801, 47760, Note_on_c, 9, 36, 851, 47838, Note_off_c, 6, 82, 721, 47879, Note_off_c, 2, 53, 851, 47879, Note_off_c, 2, 50, 801, 47879, Note_off_c, 2, 46, 681, 47879, Note_off_c, 9, 51, 801, 47879, Note_off_c, 9, 36, 851, 47880, Note_on_c, 6, 77, 931, 47900, Note_off_c, 1, 34, 851, 47998, Note_off_c, 6, 77, 931, 48000, Note_on_c, 1, 34, 931, 48000, Note_on_c, 2, 53, 761, 48000, Note_on_c, 2, 50, 931, 48000, Note_on_c, 2, 46, 721, 48000, Note_on_c, 6, 86, 1021, 48000, Note_on_c, 6, 82, 1131, 48000, Note_on_c, 9, 36, 851, 48000, Note_on_c, 9, 51, 891, 48098, Note_off_c, 6, 82, 1131, 48119, Note_off_c, 2, 53, 761, 48119, Note_off_c, 2, 50, 931, 48119, Note_off_c, 2, 46, 721, 48119, Note_off_c, 9, 36, 851, 48119, Note_off_c, 9, 51, 891, 48120, Note_on_c, 6, 77, 891, 48127, Note_off_c, 6, 86, 1021, 48140, Note_off_c, 1, 34, 931, 48240, Note_on_c, 1, 34, 891, 48240, Note_on_c, 2, 53, 761, 48240, Note_on_c, 2, 50, 851, 48240, Note_on_c, 2, 46, 721, 48240, Note_on_c, 6, 82, 1021, 48240, Note_on_c, 9, 36, 891, 48240, Note_on_c, 9, 51, 851, 48248, Note_off_c, 6, 77, 891, 48329, Note_off_c, 6, 82, 1021, 48359, Note_off_c, 2, 53, 761, 48359, Note_off_c, 2, 50, 851, 48359, Note_off_c, 2, 46, 721, 48359, Note_off_c, 9, 36, 891, 48359, Note_off_c, 9, 51, 851, 48360, Note_off_c, 1, 34, 891, 48360, Note_on_c, 6, 82, 931, 48360, Note_on_c, 6, 84, 1021, 48396, Note_off_c, 0, 77, 1101, 48417, Note_off_c, 0, 70, 1191, 48480, Note_on_c, 1, 34, 1021, 48480, Note_on_c, 2, 53, 801, 48480, Note_on_c, 2, 50, 851, 48480, Note_on_c, 2, 46, 721, 48480, Note_on_c, 9, 36, 981, 48480, Note_on_c, 9, 51, 931, 48518, Note_on_c, 0, 77, 1021, 48521, Note_on_c, 0, 70, 1071, 48547, Note_off_c, 6, 82, 931, 48547, Note_off_c, 6, 84, 1021, 48599, Note_off_c, 2, 53, 801, 48599, Note_off_c, 2, 50, 851, 48599, Note_off_c, 2, 46, 721, 48599, Note_off_c, 9, 36, 981, 48599, Note_off_c, 9, 51, 931, 48600, Note_on_c, 6, 77, 891, 48620, Note_off_c, 1, 34, 1021, 48708, Note_off_c, 6, 77, 891, 48720, Note_on_c, 1, 34, 981, 48720, Note_on_c, 2, 53, 801, 48720, Note_on_c, 2, 50, 931, 48720, Note_on_c, 2, 46, 761, 48720, Note_on_c, 6, 82, 891, 48720, Note_on_c, 9, 36, 1071, 48720, Note_on_c, 9, 51, 931, 48818, Note_off_c, 6, 82, 891, 48839, Note_off_c, 2, 53, 801, 48839, Note_off_c, 2, 50, 931, 48839, Note_off_c, 2, 46, 761, 48839, Note_off_c, 9, 36, 1071, 48839, Note_off_c, 9, 51, 931, 48840, Note_on_c, 6, 77, 981, 48850, Note_off_c, 1, 34, 981, 48915, Control_c, 6, 64, 0
1, 48916, Note_off_c, 0, 70, 1071, 48928, Note_off_c, 0, 77, 1021, 48939, Note_off_c, 6, 77, 981, 48960, Note_on_c, 1, 35, 1021, 48960, Note_on_c, 2, 47, 931, 48960, Note_on_c, 2, 57, 931, 48960, Note_on_c, 2, 52, 991, 48960, Note_on_c, 2, 54, 981, 48960, Note_on_c, 6, 83, 1131, 48960, Note_on_c, 6, 78, 1131, 48960, Note_on_c, 9, 49, 1131, 48960, Note_on_c, 9, 51, 1071, 48960, Note_on_c, 9, 56, 891, 48960, Note_on_c, 9, 57, 1191, 48960, Note_on_c, 9, 36, 1071, 48964, Note_on_c, 0, 71, 1101, 48964, Note_on_c, 0, 76, 1021, 49024, Control_c, 6, 64, 127
1, 49078, Note_off_c, 6, 78, 1131, 49079, Note_off_c, 9, 49, 1131, 49079, Note_off_c, 9, 51, 1071, 49079, Note_off_c, 9, 56, 891, 49079, Note_off_c, 9, 57, 1191, 49079, Note_off_c, 9, 36, 1071, 49080, Note_on_c, 6, 76, 981, 49090, Note_off_c, 1, 35, 1021, 49147, Note_off_c, 6, 83, 1131, 49151, Control_c, 2, 76, 127
1, 49159, Note_off_c, 6, 76, 981, 49200, Note_on_c, 1, 35, 931, 49200, Note_on_c, 6, 78, 981, 49200, Note_on_c, 9, 36, 851, 49200, Note_on_c, 9, 51, 761, 49289, Control_c, 6, 64, 0
1, 49289, Note_off_c, 6, 78, 981, 49319, Note_off_c, 2, 47, 931, 49319, Note_off_c, 2, 57, 931, 49319, Note_off_c, 2, 52, 991, 49319, Note_off_c, 2, 54, 981, 49319, Note_off_c, 9, 36, 851, 49319, Note_off_c, 9, 51, 761, 49320, Note_off_c, 1, 35, 931, 49320, Note_on_c, 6, 81, 1191, 49320, Note_on_c, 6, 78, 1071, 49358, Control_c, 6, 64, 127
1, 49440, Note_on_c, 1, 35, 981, 49440, Note_on_c, 2, 57, 641, 49440, Note_on_c, 2, 54, 641, 49440, Note_on_c, 2, 52, 721, 49440, Note_on_c, 2, 47, 621, 49440, Note_on_c, 9, 51, 891, 49440, Note_on_c, 9, 36, 891, 49547, Note_off_c, 6, 78, 1071, 49559, Note_off_c, 2, 57, 641, 49559, Note_off_c, 2, 54, 641, 49559, Note_off_c, 2, 52, 721, 49559, Note_off_c, 2, 47, 621, 49559, Note_off_c, 9, 51, 891, 49559, Note_off_c, 9, 36, 891, 49560, Note_off_c, 1, 35, 981, 49560, Note_on_c, 6, 76, 1021, 49596, Note_off_c, 6, 81, 1191, 49668, Note_off_c, 6, 76, 1021, 49680, Note_on_c, 1, 35, 931, 49680, Note_on_c, 2, 47, 591, 49680, Note_on_c, 2, 57, 501, 49680, Note_on_c, 2, 52, 641, 49680, Note_on_c, 2, 54, 721, 49680, Note_on_c, 6, 78, 851, 49680, Note_on_c, 9, 36, 891, 49680, Note_on_c, 9, 51, 801, 49768, Note_off_c, 6, 78, 851, 49780, Note_off_c, 1, 35, 931, 49799, Note_off_c, 2, 47, 591, 49799, Note_off_c, 2, 57, 501, 49799, Note_off_c, 2, 52, 641, 49799, Note_off_c, 2, 54, 721, 49799, Note_off_c, 9, 36, 891, 49799, Note_off_c, 9, 51, 801, 49800, Note_on_c, 6, 76, 1021, 49899, Note_off_c, 6, 76, 1021, 49920, Note_on_c, 1, 35, 931, 49920, Note_on_c, 2, 47, 681, 49920, Note_on_c, 2, 57, 601, 49920, Note_on_c, 2, 52, 681, 49920, Note_on_c, 2, 54, 761, 49920, Note_on_c, 6, 83, 1071, 49920, Note_on_c, 6, 78, 1071, 49920, Note_on_c, 9, 36, 891, 49920, Note_on_c, 9, 51, 891, 50018, Note_off_c, 6, 78, 1071, 50038, Note_off_c, 6, 83, 1071, 50039, Note_off_c, 2, 47, 681, 50039, Note_off_c, 2, 57, 601, 50039, Note_off_c, 2, 52, 681, 50039, Note_off_c, 2, 54, 761, 50039, Note_off_c, 9, 36, 891, 50039, Note_off_c, 9, 51, 891, 50040, Note_on_c, 6, 76, 931, 50050, Note_off_c, 1, 35, 931, 50128, Note_off_c, 6, 76, 931, 50160, Note_on_c, 1, 35, 931, 50160, Note_on_c, 2, 54, 801, 50160, Note_on_c, 2, 52, 851, 50160, Note_on_c, 2, 57, 721, 50160, Note_on_c, 2, 47, 761, 50160, Note_on_c, 6, 78, 981, 50160, Note_on_c, 9, 36, 931, 50160, Note_on_c, 9, 51, 801, 50239, Note_off_c, 6, 78, 981, 50279, Note_off_c, 2, 54, 801, 50279, Note_off_c, 2, 52, 851, 50279, Note_off_c, 2, 57, 721, 50279, Note_off_c, 2, 47, 761, 50279, Note_off_c, 9, 36, 931, 50279, Note_off_c, 9, 51, 801, 50280, Note_on_c, 6, 81, 1021, 50280, Note_on_c, 6, 78, 851, 50290, Note_off_c, 1, 35, 931, 50400, Note_on_c, 1, 35, 891, 50400, Note_on_c, 2, 47, 761, 50400, Note_on_c, 2, 52, 891, 50400, Note_on_c, 2, 57, 761, 50400, Note_on_c, 2, 54, 761, 50400, Note_on_c, 9, 36, 981, 50400, Note_on_c, 9, 51, 891, 50496, Note_off_c, 6, 78, 851, 50519, Note_off_c, 2, 47, 761, 50519, Note_off_c, 2, 52, 891, 50519, Note_off_c, 2, 57, 761, 50519, Note_off_c, 2, 54, 761, 50519, Note_off_c, 9, 36, 981, 50519, Note_off_c, 9, 51, 891, 50520, Note_on_c, 6, 76, 1021, 50540, Note_off_c, 1, 35, 891, 50565, Note_off_c, 6, 81, 1021, 50638, Note_off_c, 6, 76, 1021, 50640, Note_on_c, 1, 35, 1021, 50640, Note_on_c, 2, 57, 801, 50640, Note_on_c, 2, 52, 801, 50640, Note_on_c, 2, 54, 761, 50640, Note_on_c, 2, 47, 621, 50640, Note_on_c, 6, 78, 801, 50640, Note_on_c, 9, 36, 931, 50640, Note_on_c, 9, 51, 891, 50748, Note_off_c, 6, 78, 801, 50750, Note_off_c, 1, 35, 1021, 50759, Note_off_c, 2, 54, 761, 50759, Note_off_c, 2, 47, 621, 50759, Note_off_c, 9, 36, 931, 50759, Note_off_c, 9, 51, 891, 50760, Note_on_c, 6, 76, 981, 50878, Note_off_c, 6, 76, 981, 50879, Note_off_c, 2, 57, 801, 50879, Note_off_c, 2, 52, 801, 50880, Note_on_c, 1, 35, 1021, 50880, Note_on_c, 2, 54, 851, 50880, Note_on_c, 2, 52, 891, 50880, Note_on_c, 2, 57, 641, 50880, Note_on_c, 2, 47, 721, 50880, Note_on_c, 6, 78, 1071, 50880, Note_on_c, 6, 83, 931, 50880, Note_on_c, 9, 51, 981, 50880, Note_on_c, 9, 36, 981, 50988, Note_off_c, 6, 83, 931, 50989, Note_off_c, 6, 78, 1071, 50999, Note_off_c, 2, 54, 851, 50999, Note_off_c, 2, 52, 891, 50999, Note_off_c, 2, 57, 641, 50999, Note_off_c, 2, 47, 721, 50999, Note_off_c, 9, 51, 981, 50999, Note_off_c, 9, 36, 981, 51000, Note_on_c, 6, 76, 931, 51020, Note_off_c, 1, 35, 1021, 51118, Note_off_c, 6, 76, 931, 51120, Note_on_c, 1, 35, 931, 51120, Note_on_c, 2, 54, 761, 51120, Note_on_c, 2, 52, 801, 51120, Note_on_c, 2, 57, 801, 51120, Note_on_c, 2, 47, 721, 51120, Note_on_c, 6, 78, 891, 51120, Note_on_c, 9, 38, 1131, 51199, Note_off_c, 6, 78, 891, 51239, Note_off_c, 2, 54, 761, 51239, Note_off_c, 2, 52, 801, 51239, Note_off_c, 2, 57, 801, 51239, Note_off_c, 2, 47, 721, 51239, Note_off_c, 9, 38, 1131, 51240, Note_on_c, 6, 81, 1071, 51240, Note_on_c, 6, 78, 981, 51240, Note_on_c, 9, 38, 1191, 51260, Note_off_c, 1, 35, 931, 51359, Note_off_c, 9, 38, 1191, 51360, Note_on_c, 1, 35, 891, 51360, Note_on_c, 2, 54, 761, 51360, Note_on_c, 2, 52, 851, 51360, Note_on_c, 2, 57, 851, 51360, Note_on_c, 2, 47, 681, 51479, Note_off_c, 2, 54, 761, 51479, Note_off_c, 2, 52, 851, 51479, Note_off_c, 2, 57, 851, 51479, Note_off_c, 2, 47, 681, 51480, Note_on_c, 6, 76, 1071, 51480, Note_on_c, 9, 38, 931, 51500, Note_off_c, 1, 35, 891, 51516, Note_off_c, 6, 78, 981, 51536, Note_off_c, 6, 81, 1071, 51588, Note_off_c, 6, 76, 1071, 51599, Note_off_c, 9, 38, 931, 51600, Note_on_c, 1, 35, 931, 51600, Note_on_c, 2, 54, 761, 51600, Note_on_c, 2, 52, 851, 51600, Note_on_c, 2, 57, 801, 51600, Note_on_c, 2, 47, 721, 51600, Note_on_c, 6, 78, 721, 51600, Note_on_c, 9, 47, 1271, 51669, Note_off_c, 6, 78, 721, 51719, Note_off_c, 2, 54, 761, 51719, Note_off_c, 2, 52, 851, 51719, Note_off_c, 2, 57, 801, 51719, Note_off_c, 2, 47, 721, 51719, Note_off_c, 9, 47, 1271, 51720, Note_on_c, 6, 76, 1021, 51740, Note_off_c, 1, 35, 931, 51819, Note_off_c, 6, 76, 1021, 51840, Note_on_c, 1, 35, 981, 51840, Note_on_c, 2, 54, 801, 51840, Note_on_c, 2, 52, 931, 51840, Note_on_c, 2, 57, 891, 51840, Note_on_c, 2, 47, 931, 51840, Note_on_c, 6, 83, 1071, 51840, Note_on_c, 6, 78, 1021, 51840, Note_on_c, 9, 45, 1021, 51840, Note_on_c, 9, 47, 931, 51929, Note_off_c, 6, 78, 1021, 51959, Note_off_c, 2, 54, 801, 51959, Note_off_c, 2, 52, 931, 51959, Note_off_c, 2, 57, 891, 51959, Note_off_c, 2, 47, 931, 51959, Note_off_c, 9, 45, 1021, 51959, Note_off_c, 9, 47, 931, 51960, Note_on_c, 6, 76, 981, 51968, Note_off_c, 6, 83, 1071, 51970, Note_off_c, 1, 35, 981, 52068, Note_off_c, 6, 76, 981, 52080, Note_on_c, 1, 35, 891, 52080, Note_on_c, 2, 54, 761, 52080, Note_on_c, 2, 47, 891, 52080, Note_on_c, 2, 57, 891, 52080, Note_on_c, 2, 52, 761, 52080, Note_on_c, 6, 78, 981, 52080, Note_on_c, 9, 45, 1131, 52159, Note_off_c, 6, 78, 981, 52172, Note_off_c, 0, 71, 1101, 52172, Note_off_c, 0, 76, 1021, 52190, Note_off_c, 1, 35, 891, 52199, Note_off_c, 2, 54, 761, 52199, Note_off_c, 2, 47, 891, 52199, Note_off_c, 2, 57, 891, 52199, Note_off_c, 2, 52, 761, 52199, Note_off_c, 9, 45, 1131, 52200, Note_on_c, 6, 78, 931, 52200, Note_on_c, 6, 81, 1071, 52320, Note_on_c, 1, 35, 1021, 52320, Note_on_c, 2, 54, 851, 52320, Note_on_c, 2, 52, 851, 52320, Note_on_c, 2, 57, 931, 52320, Note_on_c, 2, 47, 931, 52320, Note_on_c, 9, 43, 1131, 52332, Note_on_c, 0, 76, 1251, 52406, Note_off_c, 6, 81, 1071, 52426, Note_off_c, 6, 78, 931, 52439, Note_off_c, 2, 54, 851, 52439, Note_off_c, 2, 52, 851, 52439, Note_off_c, 2, 57, 931, 52439, Note_off_c, 2, 47, 931, 52439, Note_off_c, 9, 43, 1131, 52440, Note_on_c, 6, 76, 1021, 52440, Note_on_c, 9, 41, 981, 52559, Note_off_c, 9, 41, 981, 52560, Note_on_c, 2, 54, 851, 52560, Note_on_c, 2, 52, 931, 52560, Note_on_c, 2, 57, 931, 52560, Note_on_c, 2, 47, 851, 52560, Note_on_c, 6, 78, 981, 52560, Note_on_c, 6, 81, 931, 52560, Note_on_c, 9, 41, 1271, 52568, Note_off_c, 6, 76, 1021, 52635, Control_c, 2, 76, 0
1, 52639, Note_off_c, 6, 81, 931, 52659, Note_off_c, 6, 78, 981, 52679, Note_off_c, 2, 54, 851, 52679, Note_off_c, 2, 52, 931, 52679, Note_off_c, 2, 57, 931, 52679, Note_off_c, 2, 47, 851, 52679, Note_off_c, 9, 41, 1271, 52680, Note_off_c, 1, 35, 1021, 52680, Note_on_c, 6, 76, 981, 52684, Control_c, 6, 64, 0
1, 52754, Note_off_c, 0, 76, 1251, 52759, Note_off_c, 6, 76, 981, 52800, Program_c, 6, 5
1, 52800, Note_on_c, 1, 37, 891, 52800, Note_on_c, 2, 49, 891, 52800, Note_on_c, 6, 83, 1071, 52800, Note_on_c, 6, 78, 1071, 52800, Note_on_c, 9, 36, 1191, 52800, Note_on_c, 9, 49, 1271, 52803, Note_on_c, 0, 80, 1271, 52919, Note_off_c, 6, 83, 1071, 52919, Note_off_c, 6, 78, 1071, 52919, Note_off_c, 9, 49, 1271, 52920, Note_on_c, 6, 76, 891, 53039, Note_off_c, 6, 76, 891, 53040, Note_on_c, 1, 33, 891, 53040, Note_on_c, 2, 45, 891, 53040, Note_on_c, 6, 78, 851, 53040, Note_on_c, 6, 83, 761, 53040, Note_on_c, 9, 51, 1071, 53100, Note_off_c, 1, 37, 891, 53100, Note_off_c, 2, 49, 891, 53159, Note_off_c, 6, 78, 851, 53159, Note_off_c, 6, 83, 761, 53159, Note_off_c, 9, 36, 1191, 53159, Note_off_c, 9, 51, 1071, 53160, Note_on_c, 6, 76, 981, 53239, Note_off_c, 0, 80, 1271, 53279, Note_off_c, 6, 76, 981, 53280, Note_on_c, 1, 28, 851, 53280, Note_on_c, 2, 40, 851, 53280, Note_on_c, 6, 78, 931, 53280, Note_on_c, 6, 83, 1021, 53280, Note_on_c, 9, 54, 1131, 53280, Note_on_c, 9, 38, 1071, 53280, Note_on_c, 9, 51, 1131, 53285, Note_on_c, 0, 81, 1141, 53290, Note_off_c, 1, 33, 891, 53290, Note_off_c, 2, 45, 891, 53398, Note_off_c, 9, 54, 1131, 53399, Note_off_c, 6, 78, 931, 53399, Note_off_c, 6, 83, 1021, 53399, Note_off_c, 9, 38, 1071, 53399, Note_off_c, 9, 51, 1131, 53480, Note_off_c, 1, 28, 851, 53480, Note_off_c, 2, 40, 851, 53519, Note_off_c, 0, 81, 1141, 53520, Note_on_c, 1, 40, 1131, 53520, Note_on_c, 2, 52, 1131, 53520, Note_on_c, 6, 83, 1071, 53520, Note_on_c, 6, 78, 1021, 53520, Note_on_c, 9, 36, 1021, 53520, Note_on_c, 9, 51, 1131, 53526, Note_on_c, 0, 80, 1161, 53639, Note_off_c, 6, 83, 1071, 53639, Note_off_c, 6, 78, 1021, 53639, Note_off_c, 9, 51, 1131, 53640, Note_on_c, 6, 76, 891, 53759, Note_off_c, 6, 76, 891, 53760, Note_on_c, 6, 78, 851, 53760, Note_on_c, 6, 83, 851, 53760, Note_on_c, 9, 51, 981, 53780, Note_off_c, 1, 40, 1131, 53780, Note_off_c, 2, 52, 1131, 53830, Note_off_c, 0, 80, 1161, 53879, Note_off_c, 6, 78, 851, 53879, Note_off_c, 6, 83, 851, 53879, Note_off_c, 9, 36, 1021, 53879, Note_off_c, 9, 51, 981, 53880, Note_on_c, 6, 76, 981, 53999, Note_off_c, 6, 76, 981, 54000, Note_on_c, 1, 28, 851, 54000, Note_on_c, 2, 40, 851, 54000, Note_on_c, 6, 78, 1021, 54000, Note_on_c, 6, 83, 1021, 54000, Note_on_c, 9, 36, 981, 54000, Note_on_c, 9, 51, 1071, 54029, Note_on_c, 0, 76, 1121, 54119, Note_off_c, 6, 78, 1021, 54119, Note_off_c, 6, 83, 1021, 54119, Note_off_c, 9, 36, 981, 54119, Note_off_c, 9, 51, 1071, 54180, Note_off_c, 1, 28, 851, 54180, Note_off_c, 2, 40, 851, 54240, Note_on_c, 1, 28, 1071, 54240, Note_on_c, 2, 40, 1071, 54240, Note_on_c, 6, 83, 1131, 54240, Note_on_c, 6, 78, 1021, 54240, Note_on_c, 9, 54, 1231, 54240, Note_on_c, 9, 38, 1191, 54240, Note_on_c, 9, 51, 1071, 54358, Note_off_c, 9, 54, 1231, 54359, Note_off_c, 9, 51, 1071, 54470, Note_off_c, 1, 28, 1071, 54470, Note_off_c, 2, 40, 1071, 54479, Note_off_c, 6, 83, 1131, 54479, Note_off_c, 6, 78, 1021, 54480, Note_on_c, 6, 76, 931, 54480, Note_on_c, 9, 51, 1021, 54599, Note_off_c, 9, 38, 1191, 54599, Note_off_c, 9, 51, 1021, 54719, Note_off_c, 6, 76, 931, 54720, Note_on_c, 1, 37, 891, 54720, Note_on_c, 2, 49, 891, 54720, Note_on_c, 6, 78, 981, 54720, Note_on_c, 6, 83, 931, 54720, Note_on_c, 9, 51, 1021, 54720, Note_on_c, 9, 36, 1071, 54839, Note_off_c, 6, 78, 981, 54839, Note_off_c, 6, 83, 931, 54839, Note_off_c, 9, 51, 1021, 54839, Note_off_c, 9, 36, 1071, 54840, Note_on_c, 6, 76, 891, 54930, Note_off_c, 1, 37, 891, 54930, Note_off_c, 2, 49, 891, 54959, Note_off_c, 6, 76, 891, 54960, Note_on_c, 1, 33, 931, 54960, Note_on_c, 2, 45, 931, 54960, Note_on_c, 6, 78, 761, 54960, Note_on_c, 6, 83, 761, 54960, Note_on_c, 9, 36, 801, 54960, Note_on_c, 9, 51, 1021, 55079, Note_off_c, 6, 78, 761, 55079, Note_off_c, 6, 83, 761, 55079, Note_off_c, 9, 36, 801, 55079, Note_off_c, 9, 51, 1021, 55080, Note_on_c, 6, 76, 931, 55140, Note_off_c, 0, 76, 1121, 55199, Note_off_c, 6, 76, 931, 55200, Note_off_c, 1, 33, 931, 55200, Note_on_c, 1, 28, 601, 55200, Note_off_c, 2, 45, 931, 55200, Note_on_c, 2, 40, 601, 55200, Note_on_c, 6, 83, 1071, 55200, Note_on_c, 6, 78, 981, 55200, Note_on_c, 9, 54, 1161, 55200, Note_on_c, 9, 38, 1131, 55200, Note_on_c, 9, 51, 1021, 55318, Note_off_c, 9, 54, 1161, 55319, Note_off_c, 6, 83, 1071, 55319, Note_off_c, 6, 78, 981, 55319, Note_off_c, 9, 38, 1131, 55319, Note_off_c, 9, 51, 1021, 55370, Note_off_c, 1, 28, 601, 55370, Note_off_c, 2, 40, 601, 55440, Note_on_c, 1, 40, 1131, 55440, Note_on_c, 2, 52, 1131, 55440, Note_on_c, 6, 78, 931, 55440, Note_on_c, 6, 83, 981, 55440, Note_on_c, 9, 36, 851, 55440, Note_on_c, 9, 51, 1131, 55559, Note_off_c, 6, 78, 931, 55559, Note_off_c, 6, 83, 981, 55559, Note_off_c, 9, 51, 1131, 55560, Note_on_c, 6, 76, 891, 55679, Note_off_c, 6, 76, 891, 55680, Note_on_c, 6, 78, 761, 55680, Note_on_c, 6, 83, 851, 55680, Note_on_c, 9, 51, 1071, 55710, Note_off_c, 1, 40, 1131, 55710, Note_off_c, 2, 52, 1131, 55799, Note_off_c, 6, 78, 761, 55799, Note_off_c, 6, 83, 851, 55799, Note_off_c, 9, 36, 851, 55799, Note_off_c, 9, 51, 1071, 55800, Note_on_c, 6, 76, 1071, 55919, Note_off_c, 6, 76, 1071, 55920, Note_on_c, 1, 28, 931, 55920, Note_on_c, 2, 40, 931, 55920, Note_on_c, 6, 78, 891, 55920, Note_on_c, 6, 83, 931, 55920, Note_on_c, 9, 51, 981, 55920, Note_on_c, 9, 36, 981, 56039, Note_off_c, 6, 78, 891, 56039, Note_off_c, 6, 83, 931, 56039, Note_off_c, 9, 51, 981, 56039, Note_off_c, 9, 36, 981, 56080, Note_off_c, 1, 28, 931, 56080, Note_off_c, 2, 40, 931, 56160, Note_on_c, 1, 28, 981, 56160, Note_on_c, 2, 40, 981, 56160, Note_on_c, 6, 83, 1071, 56160, Note_on_c, 6, 78, 931, 56160, Note_on_c, 9, 54, 1191, 56160, Note_on_c, 9, 38, 1131, 56160, Note_on_c, 9, 51, 1071, 56278, Note_off_c, 9, 54, 1191, 56279, Note_off_c, 9, 51, 1071, 56399, Note_off_c, 6, 83, 1071, 56399, Note_off_c, 6, 78, 931, 56400, Note_on_c, 6, 76, 981, 56400, Note_on_c, 9, 51, 1021, 56430, Note_off_c, 1, 28, 981, 56430, Note_off_c, 2, 40, 981, 56519, Note_off_c, 9, 38, 1131, 56519, Note_off_c, 9, 51, 1021, 56639, Note_off_c, 6, 76, 981, 56640, Note_on_c, 1, 37, 931, 56640, Note_on_c, 2, 49, 931, 56640, Note_on_c, 6, 78, 931, 56640, Note_on_c, 6, 83, 931, 56640, Note_on_c, 9, 51, 1131, 56640, Note_on_c, 9, 36, 1071, 56759, Note_off_c, 6, 78, 931, 56759, Note_off_c, 6, 83, 931, 56759, Note_off_c, 9, 51, 1131, 56759, Note_off_c, 9, 36, 1071, 56760, Note_on_c, 6, 76, 851, 56860, Note_off_c, 1, 37, 931, 56860, Note_off_c, 2, 49, 931, 56879, Note_off_c, 6, 76, 851, 56880, Note_on_c, 1, 33, 981, 56880, Note_on_c, 2, 45, 981, 56880, Note_on_c, 6, 78, 721, 56880, Note_on_c, 6, 83, 571, 56880, Note_on_c, 9, 51, 1021, 56880, Note_on_c, 9, 36, 851, 56999, Note_off_c, 6, 78, 721, 56999, Note_off_c, 6, 83, 571, 56999, Note_off_c, 9, 51, 1021, 56999, Note_off_c, 9, 36, 851, 57000, Note_on_c, 6, 76, 981, 57100, Note_off_c, 1, 33, 981, 57100, Note_off_c, 2, 45, 981, 57119, Note_off_c, 6, 76, 981, 57120, Note_on_c, 1, 28, 851, 57120, Note_on_c, 2, 40, 851, 57120, Note_on_c, 6, 78, 1021, 57120, Note_on_c, 6, 83, 1131, 57120, Note_on_c, 9, 54, 1161, 57120, Note_on_c, 9, 38, 1071, 57120, Note_on_c, 9, 51, 1131, 57238, Note_off_c, 9, 54, 1161, 57239, Note_off_c, 6, 78, 1021, 57239, Note_off_c, 6, 83, 1131, 57239, Note_off_c, 9, 38, 1071, 57239, Note_off_c, 9, 51, 1131, 57300, Note_off_c, 1, 28, 851, 57300, Note_off_c, 2, 40, 851, 57360, Note_on_c, 1, 40, 1021, 57360, Note_on_c, 2, 52, 1021, 57360, Note_on_c, 6, 78, 931, 57360, Note_on_c, 6, 83, 1021, 57360, Note_on_c, 9, 36, 1021, 57360, Note_on_c, 9, 51, 1131, 57479, Note_off_c, 6, 78, 931, 57479, Note_off_c, 6, 83, 1021, 57479, Note_off_c, 9, 51, 1131, 57480, Note_on_c, 6, 76, 1021, 57599, Note_off_c, 6, 76, 1021, 57600, Note_on_c, 6, 83, 891, 57600, Note_on_c, 6, 78, 681, 57600, Note_on_c, 9, 51, 1071, 57610, Note_off_c, 1, 40, 1021, 57610, Note_off_c, 2, 52, 1021, 57719, Note_off_c, 6, 83, 891, 57719, Note_off_c, 6, 78, 681, 57719, Note_off_c, 9, 36, 1021, 57719, Note_off_c, 9, 51, 1071, 57720, Note_on_c, 6, 76, 1021, 57839, Note_off_c, 6, 76, 1021, 57840, Note_on_c, 1, 28, 801, 57840, Note_on_c, 2, 40, 801, 57840, Note_on_c, 6, 83, 981, 57840, Note_on_c, 6, 78, 891, 57840, Note_on_c, 9, 51, 1131, 57840, Note_on_c, 9, 36, 931, 57959, Note_off_c, 6, 83, 981, 57959, Note_off_c, 6, 78, 891, 57959, Note_off_c, 9, 51, 1131, 57959, Note_off_c, 9, 36, 931, 58020, Note_off_c, 1, 28, 801, 58020, Note_off_c, 2, 40, 801, 58080, Note_on_c, 1, 28, 931, 58080, Note_on_c, 2, 40, 931, 58080, Note_on_c, 6, 83, 1071, 58080, Note_on_c, 6, 78, 1071, 58080, Note_on_c, 9, 54, 1161, 58080, Note_on_c, 9, 38, 1131, 58080, Note_on_c, 9, 51, 1131, 58198, Note_off_c, 9, 54, 1161, 58199, Note_off_c, 9, 51, 1131, 58300, Note_off_c, 1, 28, 931, 58300, Note_off_c, 2, 40, 931, 58319, Note_off_c, 6, 83, 1071, 58319, Note_off_c, 6, 78, 1071, 58320, Note_on_c, 6, 76, 1021, 58320, Note_on_c, 9, 51, 1071, 58439, Note_off_c, 9, 38, 1131, 58439, Note_off_c, 9, 51, 1071, 58559, Note_off_c, 6, 76, 1021, 58560, Note_on_c, 1, 37, 981, 58560, Note_on_c, 2, 49, 981, 58560, Note_on_c, 6, 83, 1071, 58560, Note_on_c, 6, 78, 931, 58560, Note_on_c, 9, 51, 1131, 58560, Note_on_c, 9, 36, 1071, 58679, Note_off_c, 6, 83, 1071, 58679, Note_off_c, 6, 78, 931, 58679, Note_off_c, 9, 51, 1131, 58679, Note_off_c, 9, 36, 1071, 58680, Note_on_c, 6, 76, 891, 58799, Note_off_c, 6, 76, 891, 58800, Note_on_c, 1, 33, 931, 58800, Note_on_c, 2, 45, 931, 58800, Note_on_c, 6, 78, 721, 58800, Note_on_c, 6, 83, 571, 58800, Note_on_c, 9, 51, 981, 58800, Note_on_c, 9, 36, 891, 58820, Note_off_c, 1, 37, 981, 58820, Note_off_c, 2, 49, 981, 58919, Note_off_c, 6, 78, 721, 58919, Note_off_c, 6, 83, 571, 58919, Note_off_c, 9, 51, 981, 58919, Note_off_c, 9, 36, 891, 58920, Note_on_c, 6, 76, 1021, 59039, Note_off_c, 6, 76, 1021, 59040, Note_off_c, 1, 33, 931, 59040, Note_on_c, 1, 28, 721, 59040, Note_off_c, 2, 45, 931, 59040, Note_on_c, 2, 40, 721, 59040, Note_on_c, 6, 83, 1021, 59040, Note_on_c, 6, 78, 981, 59040, Note_on_c, 9, 54, 1161, 59040, Note_on_c, 9, 51, 981, 59040, Note_on_c, 9, 38, 1071, 59158, Note_off_c, 9, 54, 1161, 59159, Note_off_c, 6, 83, 1021, 59159, Note_off_c, 6, 78, 981, 59159, Note_off_c, 9, 51, 981, 59159, Note_off_c, 9, 38, 1071, 59230, Note_off_c, 1, 28, 721, 59230, Note_off_c, 2, 40, 721, 59280, Note_on_c, 1, 40, 1021, 59280, Note_on_c, 2, 52, 1021, 59280, Note_on_c, 6, 78, 931, 59280, Note_on_c, 6, 83, 931, 59280, Note_on_c, 9, 36, 1131, 59280, Note_on_c, 9, 51, 1191, 59399, Note_off_c, 6, 78, 931, 59399, Note_off_c, 6, 83, 931, 59399, Note_off_c, 9, 51, 1191, 59400, Note_on_c, 6, 76, 931, 59510, Note_off_c, 1, 40, 1021, 59510, Note_off_c, 2, 52, 1021, 59519, Note_off_c, 6, 76, 931, 59520, Note_on_c, 6, 78, 801, 59520, Note_on_c, 6, 83, 891, 59520, Note_on_c, 9, 51, 1021, 59639, Note_off_c, 6, 78, 801, 59639, Note_off_c, 6, 83, 891, 59639, Note_off_c, 9, 36, 1131, 59639, Note_off_c, 9, 51, 1021, 59640, Note_on_c, 6, 76, 931, 59759, Note_off_c, 6, 76, 931, 59760, Note_on_c, 1, 28, 891, 59760, Note_on_c, 2, 40, 891, 59760, Note_on_c, 6, 83, 931, 59760, Note_on_c, 6, 78, 891, 59760, Note_on_c, 9, 36, 1071, 59760, Note_on_c, 9, 51, 1131, 59879, Note_off_c, 6, 83, 931, 59879, Note_off_c, 6, 78, 891, 59879, Note_off_c, 9, 36, 1071, 59879, Note_off_c, 9, 51, 1131, 59930, Note_off_c, 1, 28, 891, 59930, Note_off_c, 2, 40, 891, 60000, Note_on_c, 1, 28, 981, 60000, Note_on_c, 2, 40, 981, 60000, Note_on_c, 6, 78, 1021, 60000, Note_on_c, 6, 83, 1071, 60000, Note_on_c, 9, 54, 1231, 60000, Note_on_c, 9, 38, 1271, 60000, Note_on_c, 9, 51, 1021, 60118, Note_off_c, 9, 54, 1231, 60119, Note_off_c, 9, 38, 1271, 60119, Note_off_c, 9, 51, 1021, 60120, Note_on_c, 9, 41, 1271, 60210, Note_off_c, 1, 28, 981, 60210, Note_off_c, 2, 40, 981, 60239, Note_off_c, 6, 78, 1021, 60239, Note_off_c, 6, 83, 1071, 60239, Note_off_c, 9, 41, 1271, 60240, Note_on_c, 6, 76, 931, 60240, Note_on_c, 9, 43, 1271, 60359, Note_off_c, 9, 43, 1271, 60479, Note_off_c, 6, 76, 931, 60480, Note_on_c, 1, 37, 931, 60480, Note_on_c, 2, 49, 931, 60480, Note_on_c, 6, 78, 931, 60480, Note_on_c, 6, 83, 981, 60480, Note_on_c, 9, 36, 981, 60480, Note_on_c, 9, 49, 1271, 60484, Note_on_c, 0, 73, 1071, 60599, Note_off_c, 6, 78, 931, 60599, Note_off_c, 6, 83, 981, 60599, Note_off_c, 9, 49, 1271, 60600, Note_on_c, 6, 76, 891, 60689, Note_off_c, 0, 73, 1071, 60712, Note_on_c, 0, 71, 1041, 60719, Note_off_c, 6, 76, 891, 60720, Note_off_c, 1, 37, 931, 60720, Note_on_c, 1, 33, 931, 60720, Note_off_c, 2, 49, 931, 60720, Note_on_c, 2, 45, 931, 60720, Note_on_c, 6, 78, 851, 60720, Note_on_c, 6, 83, 761, 60720, Note_on_c, 9, 51, 1021, 60839, Note_off_c, 6, 78, 851, 60839, Note_off_c, 6, 83, 761, 60839, Note_off_c, 9, 36, 981, 60839, Note_off_c, 9, 51, 1021, 60840, Note_on_c, 6, 76, 931, 60959, Note_off_c, 6, 76, 931, 60960, Note_on_c, 1, 28, 801, 60960, Note_on_c, 2, 40, 801, 60960, Note_on_c, 6, 83, 1021, 60960, Note_on_c, 6, 78, 931, 60960, Note_on_c, 9, 54, 1231, 60960, Note_on_c, 9, 51, 1131, 60960, Note_on_c, 9, 38, 1021, 60970, Note_off_c, 1, 33, 931, 60970, Note_off_c, 2, 45, 931, 60991, Note_off_c, 0, 71, 1041, 61078, Note_off_c, 9, 54, 1231, 61079, Note_off_c, 6, 83, 1021, 61079, Note_off_c, 6, 78, 931, 61079, Note_off_c, 9, 51, 1131, 61079, Note_off_c, 9, 38, 1021, 61160, Note_off_c, 1, 28, 801, 61160, Note_off_c, 2, 40, 801, 61200, Note_on_c, 1, 40, 1071, 61200, Note_on_c, 2, 52, 1071, 61200, Note_on_c, 6, 78, 851, 61200, Note_on_c, 6, 83, 931, 61200, Note_on_c, 9, 36, 1071, 61200, Note_on_c, 9, 51, 1131, 61206, Note_on_c, 0, 71, 1101, 61319, Note_off_c, 6, 78, 851, 61319, Note_off_c, 6, 83, 931, 61319, Note_off_c, 9, 51, 1131, 61320, Note_on_c, 6, 76, 931, 61439, Note_off_c, 6, 76, 931, 61440, Note_off_c, 1, 40, 1071, 61440, Note_off_c, 2, 52, 1071, 61440, Note_on_c, 6, 78, 801, 61440, Note_on_c, 6, 83, 801, 61440, Note_on_c, 9, 51, 891, 61513, Note_off_c, 0, 71, 1101, 61559, Note_off_c, 6, 78, 801, 61559, Note_off_c, 6, 83, 801, 61559, Note_off_c, 9, 36, 1071, 61559, Note_off_c, 9, 51, 891, 61560, Note_on_c, 6, 76, 981, 61679, Note_off_c, 6, 76, 981, 61680, Note_on_c, 1, 28, 851, 61680, Note_on_c, 2, 40, 851, 61680, Note_on_c, 6, 83, 981, 61680, Note_on_c, 6, 78, 931, 61680, Note_on_c, 9, 36, 981, 61680, Note_on_c, 9, 51, 931, 61693, Note_on_c, 0, 71, 1081, 61799, Note_off_c, 6, 83, 981, 61799, Note_off_c, 6, 78, 931, 61799, Note_off_c, 9, 36, 981, 61799, Note_off_c, 9, 51, 931, 61840, Note_off_c, 1, 28, 851, 61840, Note_off_c, 2, 40, 851, 61920, Note_on_c, 1, 28, 891, 61920, Note_on_c, 2, 40, 891, 61920, Note_on_c, 6, 83, 1021, 61920, Note_on_c, 6, 78, 931, 61920, Note_on_c, 9, 54, 1231, 61920, Note_on_c, 9, 38, 1131, 61920, Note_on_c, 9, 51, 1131, 62011, Note_off_c, 0, 71, 1081, 62038, Note_off_c, 9, 54, 1231, 62039, Note_off_c, 9, 51, 1131, 62140, Note_off_c, 1, 28, 891, 62140, Note_off_c, 2, 40, 891, 62159, Note_off_c, 6, 83, 1021, 62159, Note_off_c, 6, 78, 931, 62160, Note_on_c, 6, 76, 931, 62160, Note_on_c, 9, 51, 981, 62190, Note_on_c, 0, 73, 1131, 62279, Note_off_c, 9, 38, 1131, 62279, Note_off_c, 9, 51, 981, 62399, Note_off_c, 6, 76, 931, 62400, Note_on_c, 1, 37, 891, 62400, Note_on_c, 2, 49, 891, 62400, Note_on_c, 6, 78, 981, 62400, Note_on_c, 6, 83, 931, 62400, Note_on_c, 9, 51, 1021, 62400, Note_on_c, 9, 36, 931, 62519, Note_off_c, 6, 78, 981, 62519, Note_off_c, 6, 83, 931, 62519, Note_off_c, 9, 51, 1021, 62519, Note_off_c, 9, 36, 931, 62520, Note_on_c, 6, 76, 891, 62533, Note_off_c, 0, 73, 1131, 62639, Note_off_c, 6, 76, 891, 62640, Note_on_c, 1, 33, 981, 62640, Note_on_c, 2, 45, 981, 62640, Note_on_c, 6, 78, 721, 62640, Note_on_c, 6, 83, 721, 62640, Note_on_c, 9, 36, 801, 62640, Note_on_c, 9, 51, 1021, 62656, Note_on_c, 0, 71, 1081, 62680, Note_off_c, 1, 37, 891, 62680, Note_off_c, 2, 49, 891, 62759, Note_off_c, 6, 78, 721, 62759, Note_off_c, 6, 83, 721, 62759, Note_off_c, 9, 36, 801, 62759, Note_off_c, 9, 51, 1021, 62760, Note_on_c, 6, 76, 931, 62879, Note_off_c, 6, 76, 931, 62880, Note_on_c, 1, 28, 761, 62880, Note_on_c, 2, 40, 761, 62880, Note_on_c, 6, 83, 1071, 62880, Note_on_c, 6, 78, 1021, 62880, Note_on_c, 9, 54, 1161, 62880, Note_on_c, 9, 38, 1071, 62880, Note_on_c, 9, 51, 931, 62890, Note_off_c, 1, 33, 981, 62890, Note_off_c, 2, 45, 981, 62925, Note_off_c, 0, 71, 1081, 62998, Note_off_c, 9, 54, 1161, 62999, Note_off_c, 6, 83, 1071, 62999, Note_off_c, 6, 78, 1021, 62999, Note_off_c, 9, 38, 1071, 62999, Note_off_c, 9, 51, 931, 63060, Note_off_c, 1, 28, 761, 63060, Note_off_c, 2, 40, 761, 63120, Note_on_c, 1, 40, 1131, 63120, Note_on_c, 2, 52, 1131, 63120, Note_on_c, 6, 78, 891, 63120, Note_on_c, 6, 83, 891, 63120, Note_on_c, 9, 36, 1021, 63120, Note_on_c, 9, 51, 1131, 63142, Note_on_c, 0, 71, 1091, 63239, Note_off_c, 6, 78, 891, 63239, Note_off_c, 6, 83, 891, 63239, Note_off_c, 9, 51, 1131, 63240, Note_on_c, 6, 76, 931, 63310, Note_off_c, 1, 40, 1131, 63310, Note_off_c, 2, 52, 1131, 63359, Note_off_c, 6, 76, 931, 63360, Note_on_c, 6, 78, 801, 63360, Note_on_c, 6, 83, 851, 63360, Note_on_c, 9, 51, 891, 63479, Note_off_c, 6, 78, 801, 63479, Note_off_c, 6, 83, 851, 63479, Note_off_c, 9, 36, 1021, 63479, Note_off_c, 9, 51, 891, 63480, Note_on_c, 6, 76, 931, 63580, Note_off_c, 0, 71, 1091, 63599, Note_off_c, 6, 76, 931, 63600, Note_on_c, 1, 28, 981, 63600, Note_on_c, 2, 40, 981, 63600, Note_on_c, 6, 83, 981, 63600, Note_on_c, 6, 78, 931, 63600, Note_on_c, 9, 51, 981, 63600, Note_on_c, 9, 36, 981, 63613, Note_on_c, 0, 68, 1071, 63719, Note_off_c, 6, 83, 981, 63719, Note_off_c, 6, 78, 931, 63719, Note_off_c, 9, 51, 981, 63719, Note_off_c, 9, 36, 981, 63770, Note_off_c, 1, 28, 981, 63770, Note_off_c, 2, 40, 981, 63840, Note_on_c, 1, 28, 891, 63840, Note_on_c, 2, 40, 891, 63840, Note_on_c, 6, 83, 1071, 63840, Note_on_c, 6, 78, 1071, 63840, Note_on_c, 9, 54, 1191, 63840, Note_on_c, 9, 38, 1071, 63840, Note_on_c, 9, 51, 1021, 63958, Note_off_c, 9, 54, 1191, 63959, Note_off_c, 9, 51, 1021, 64072, Pitch_bend_c, 0, 8074
1, 64079, Note_off_c, 6, 83, 1071, 64079, Note_off_c, 6, 78, 1071, 64080, Note_on_c, 6, 76, 981, 64080, Note_on_c, 9, 51, 981, 64087, Pitch_bend_c, 0, 7723
1, 64102, Pitch_bend_c, 0, 7138
1, 64117, Pitch_bend_c, 0, 6670
1, 64133, Pitch_bend_c, 0, 6085
1, 64140, Note_off_c, 1, 28, 891, 64140, Note_off_c, 2, 40, 891, 64148, Pitch_bend_c, 0, 5500
1, 64155, Note_off_c, 0, 68, 1071, 64164, Pitch_bend_c, 0, 5149
1, 64179, Pitch_bend_c, 0, 4798
1, 64194, Pitch_bend_c, 0, 4564
1, 64199, Note_off_c, 9, 38, 1071, 64199, Note_off_c, 9, 51, 981, 64255, Pitch_bend_c, 0, 4798
1, 64270, Pitch_bend_c, 0, 5266
1, 64286, Pitch_bend_c, 0, 5734
1, 64301, Pitch_bend_c, 0, 6436
1, 64316, Pitch_bend_c, 0, 7138
1, 64319, Note_off_c, 6, 76, 981, 64320, Note_on_c, 1, 37, 931, 64320, Note_on_c, 2, 49, 931, 64320, Note_on_c, 6, 78, 1021, 64320, Note_on_c, 6, 83, 1071, 64320, Note_on_c, 9, 36, 981, 64320, Note_on_c, 9, 51, 1021, 64331, Pitch_bend_c, 0, 7840
1, 64346, Pitch_bend_c, 0, 8192
1, 64439, Note_off_c, 6, 78, 1021, 64439, Note_off_c, 6, 83, 1071, 64439, Note_off_c, 9, 36, 981, 64439, Note_off_c, 9, 51, 1021, 64440, Note_on_c, 6, 76, 891, 64559, Note_off_c, 6, 76, 891, 64560, Note_on_c, 1, 33, 981, 64560, Note_on_c, 2, 45, 981, 64560, Note_on_c, 6, 78, 761, 64560, Note_on_c, 6, 83, 761, 64560, Note_on_c, 9, 51, 1021, 64560, Note_on_c, 9, 36, 851, 64580, Note_off_c, 1, 37, 931, 64580, Note_off_c, 2, 49, 931, 64609, Note_on_c, 0, 71, 1041, 64679, Note_off_c, 6, 78, 761, 64679, Note_off_c, 6, 83, 761, 64679, Note_off_c, 9, 51, 1021, 64679, Note_off_c, 9, 36, 851, 64680, Note_on_c, 6, 76, 1021, 64780, Note_off_c, 1, 33, 981, 64780, Note_off_c, 2, 45, 981, 64800, Note_on_c, 1, 28, 801, 64800, Note_on_c, 2, 40, 801, 64800, Note_on_c, 6, 83, 981, 64800, Note_on_c, 6, 78, 1021, 64800, Note_on_c, 9, 54, 1131, 64800, Note_on_c, 9, 38, 981, 64800, Note_on_c, 9, 51, 891, 64909, Note_off_c, 0, 71, 1041, 64918, Note_off_c, 9, 54, 1131, 64919, Note_off_c, 6, 76, 1021, 64919, Note_off_c, 6, 83, 981, 64919, Note_off_c, 6, 78, 1021, 64919, Note_off_c, 9, 38, 981, 64919, Note_off_c, 9, 51, 891, 65010, Note_off_c, 1, 28, 801, 65010, Note_off_c, 2, 40, 801, 65037, Note_on_c, 0, 71, 1021, 65040, Note_on_c, 1, 40, 1071, 65040, Note_on_c, 2, 52, 1071, 65040, Note_on_c, 6, 78, 851, 65040, Note_on_c, 6, 83, 891, 65040, Note_on_c, 9, 36, 1071, 65040, Note_on_c, 9, 51, 1071, 65159, Note_off_c, 6, 78, 851, 65159, Note_off_c, 6, 83, 891, 65159, Note_off_c, 9, 51, 1071, 65160, Note_on_c, 6, 76, 981, 65234, Note_off_c, 0, 71, 1021, 65270, Note_off_c, 1, 40, 1071, 65270, Note_off_c, 2, 52, 1071, 65279, Note_off_c, 6, 76, 981, 65280, Note_on_c, 6, 78, 891, 65280, Note_on_c, 6, 83, 801, 65280, Note_on_c, 9, 51, 891, 65343, Note_on_c, 0, 71, 981, 65399, Note_off_c, 6, 78, 891, 65399, Note_off_c, 6, 83, 801, 65399, Note_off_c, 9, 36, 1071, 65399, Note_off_c, 9, 51, 891, 65400, Note_on_c, 6, 76, 1021, 65520, Note_on_c, 1, 28, 681, 65520, Note_on_c, 2, 40, 681, 65520, Note_on_c, 6, 78, 931, 65520, Note_on_c, 6, 83, 891, 65520, Note_on_c, 9, 36, 931, 65520, Note_on_c, 9, 51, 981, 65639, Note_off_c, 6, 76, 1021, 65639, Note_off_c, 6, 78, 931, 65639, Note_off_c, 6, 83, 891, 65639, Note_off_c, 9, 36, 931, 65639, Note_off_c, 9, 51, 981, 65666, Note_off_c, 0, 71, 981, 65690, Note_off_c, 1, 28, 681, 65690, Note_off_c, 2, 40, 681, 65760, Note_on_c, 1, 28, 981, 65760, Note_on_c, 2, 40, 981, 65760, Note_on_c, 6, 83, 1021, 65760, Note_on_c, 6, 78, 931, 65760, Note_on_c, 9, 54, 1231, 65760, Note_on_c, 9, 38, 1071, 65760, Note_on_c, 9, 51, 981, 65788, Note_on_c, 0, 71, 941, 65878, Note_off_c, 9, 54, 1231, 65879, Note_off_c, 9, 51, 981, 65999, Note_off_c, 6, 83, 1021, 65999, Note_off_c, 6, 78, 931, 66000, Note_on_c, 6, 76, 1021, 66000, Note_on_c, 9, 51, 931, 66020, Note_off_c, 1, 28, 981, 66020, Note_off_c, 2, 40, 981, 66119, Note_off_c, 9, 38, 1071, 66119, Note_off_c, 9, 51, 931, 66179, Note_off_c, 0, 71, 941, 66239, Note_off_c, 6, 76, 1021, 66240, Note_on_c, 1, 37, 891, 66240, Note_on_c, 2, 49, 891, 66240, Note_on_c, 6, 83, 1071, 66240, Note_on_c, 6, 78, 981, 66240, Note_on_c, 9, 36, 931, 66240, Note_on_c, 9, 51, 981, 66249, Note_on_c, 0, 73, 1041, 66359, Note_off_c, 6, 83, 1071, 66359, Note_off_c, 6, 78, 981, 66359, Note_off_c, 9, 36, 931, 66359, Note_off_c, 9, 51, 981, 66360, Note_on_c, 6, 76, 891, 66479, Note_off_c, 6, 76, 891, 66480, Note_on_c, 1, 33, 891, 66480, Note_on_c, 2, 45, 891, 66480, Note_on_c, 6, 78, 891, 66480, Note_on_c, 6, 83, 761, 66480, Note_on_c, 9, 36, 851, 66480, Note_on_c, 9, 51, 931, 66510, Note_off_c, 1, 37, 891, 66510, Note_off_c, 2, 49, 891, 66513, Note_off_c, 0, 73, 1041, 66598, Note_on_c, 0, 71, 1121, 66599, Note_off_c, 6, 78, 891, 66599, Note_off_c, 6, 83, 761, 66599, Note_off_c, 9, 36, 851, 66599, Note_off_c, 9, 51, 931, 66600, Note_on_c, 6, 76, 891, 66720, Note_off_c, 1, 33, 891, 66720, Note_on_c, 1, 28, 761, 66720, Note_off_c, 2, 45, 891, 66720, Note_on_c, 2, 40, 761, 66720, Note_on_c, 6, 83, 1071, 66720, Note_on_c, 6, 78, 931, 66720, Note_on_c, 9, 54, 1271, 66720, Note_on_c, 9, 38, 1071, 66720, Note_on_c, 9, 51, 981, 66838, Note_off_c, 9, 54, 1271, 66839, Note_off_c, 6, 83, 1071, 66839, Note_off_c, 6, 78, 931, 66839, Note_off_c, 9, 38, 1071, 66839, Note_off_c, 9, 51, 981, 66884, Note_off_c, 0, 71, 1121, 66930, Note_off_c, 1, 28, 761, 66930, Note_off_c, 2, 40, 761, 66959, Note_off_c, 6, 76, 891, 66960, Note_on_c, 1, 40, 1131, 66960, Note_on_c, 2, 52, 1131, 66960, Note_on_c, 6, 83, 931, 66960, Note_on_c, 6, 78, 891, 66960, Note_on_c, 9, 36, 931, 66960, Note_on_c, 9, 51, 1071, 66976, Note_on_c, 0, 71, 1041, 67079, Note_off_c, 6, 83, 931, 67079, Note_off_c, 6, 78, 891, 67079, Note_off_c, 9, 51, 1071, 67080, Note_on_c, 6, 76, 981, 67199, Note_off_c, 6, 76, 981, 67200, Note_on_c, 6, 78, 891, 67200, Note_on_c, 6, 83, 891, 67200, Note_on_c, 9, 51, 981, 67210, Note_off_c, 1, 40, 1131, 67210, Note_off_c, 2, 52, 1131, 67263, Note_off_c, 0, 71, 1041, 67319, Note_off_c, 6, 78, 891, 67319, Note_off_c, 6, 83, 891, 67319, Note_off_c, 9, 36, 931, 67319, Note_off_c, 9, 51, 981, 67320, Note_on_c, 6, 76, 981, 67376, Pitch_bend_c, 0, 7138
1, 67392, Pitch_bend_c, 0, 5500
1, 67407, Pitch_bend_c, 0, 3979
1, 67422, Pitch_bend_c, 0, 2458
1, 67437, Pitch_bend_c, 0, 1171
1, 67440, Note_on_c, 1, 28, 981, 67440, Note_on_c, 2, 40, 981, 67440, Note_on_c, 6, 78, 981, 67440, Note_on_c, 6, 83, 1021, 67440, Note_on_c, 9, 36, 1021, 67440, Note_on_c, 9, 51, 1071, 67452, Pitch_bend_c, 0, 1
1, 67458, Note_on_c, 0, 68, 1041, 67468, Pitch_bend_c, 0, 0
1, 67528, Pitch_bend_c, 0, 703
1, 67544, Pitch_bend_c, 0, 1756
1, 67559, Pitch_bend_c, 0, 2926
1, 67559, Note_off_c, 6, 78, 981, 67559, Note_off_c, 6, 83, 1021, 67559, Note_off_c, 9, 36, 1021, 67559, Note_off_c, 9, 51, 1071, 67574, Pitch_bend_c, 0, 4213
1, 67589, Pitch_bend_c, 0, 5500
1, 67600, Note_off_c, 1, 28, 981, 67600, Note_off_c, 2, 40, 981, 67606, Pitch_bend_c, 0, 6787
1, 67621, Pitch_bend_c, 0, 7840
1, 67636, Pitch_bend_c, 0, 8192
1, 67680, Note_on_c, 1, 28, 981, 67680, Note_on_c, 2, 40, 981, 67680, Note_on_c, 6, 83, 1021, 67680, Note_on_c, 6, 78, 981, 67680, Note_on_c, 9, 54, 1131, 67680, Note_on_c, 9, 38, 1131, 67680, Note_on_c, 9, 51, 1131, 67798, Note_off_c, 9, 54, 1131, 67799, Note_off_c, 6, 76, 981, 67799, Note_off_c, 9, 38, 1131, 67799, Note_off_c, 9, 51, 1131, 67840, Note_off_c, 1, 28, 981, 67840, Note_off_c, 2, 40, 981, 67919, Note_off_c, 6, 83, 1021, 67919, Note_off_c, 6, 78, 981, 67920, Note_on_c, 6, 76, 1071, 67920, Note_on_c, 9, 38, 891, 67920, Note_on_c, 9, 51, 1021, 68002, Note_off_c, 0, 68, 1041, 68039, Note_off_c, 9, 38, 891, 68039, Note_off_c, 9, 51, 1021, 68159, Note_off_c, 6, 76, 1071, 68160, Note_on_c, 1, 39, 931, 68160, Note_on_c, 2, 51, 931, 68160, Note_on_c, 6, 87, 931, 68160, Note_on_c, 9, 36, 1021, 68160, Note_on_c, 9, 52, 1271, 68219, Control_c, 6, 64, 127
1, 68279, Note_off_c, 6, 87, 931, 68279, Note_off_c, 9, 52, 1271, 68280, Note_on_c, 6, 82, 801, 68390, Note_off_c, 1, 39, 931, 68399, Note_off_c, 6, 82, 801, 68400, Note_on_c, 1, 37, 761, 68400, Note_on_c, 2, 49, 761, 68400, Note_on_c, 6, 83, 761, 68400, Note_on_c, 9, 51, 931, 68406, Note_off_c, 2, 51, 931, 68447, Note_on_c, 0, 75, 1071, 68519, Note_off_c, 6, 83, 761, 68519, Note_off_c, 9, 36, 1021, 68519, Note_off_c, 9, 51, 931, 68520, Note_on_c, 6, 82, 761, 68606, Note_off_c, 1, 37, 761, 68606, Note_off_c, 2, 49, 761, 68639, Note_off_c, 6, 82, 761, 68640, Note_on_c, 1, 35, 851, 68640, Note_on_c, 2, 47, 851, 68640, Note_on_c, 6, 80, 851, 68640, Note_on_c, 9, 54, 1161, 68640, Note_on_c, 9, 38, 1131, 68640, Note_on_c, 9, 51, 1071, 68698, Note_off_c, 0, 75, 1071, 68758, Note_off_c, 9, 54, 1161, 68759, Note_off_c, 6, 80, 851, 68759, Note_off_c, 9, 38, 1131, 68759, Note_off_c, 9, 51, 1071, 68760, Note_on_c, 6, 82, 721, 68819, Note_on_c, 0, 75, 971, 68879, Note_off_c, 6, 82, 721, 68880, Note_on_c, 1, 32, 1071, 68880, Note_on_c, 2, 44, 1071, 68880, Note_on_c, 6, 83, 891, 68880, Note_on_c, 9, 36, 1071, 68880, Note_on_c, 9, 51, 1131, 68886, Note_off_c, 1, 35, 851, 68886, Note_off_c, 2, 47, 851, 68999, Note_off_c, 6, 83, 891, 68999, Note_off_c, 9, 51, 1131, 69000, Note_on_c, 6, 82, 801, 69074, Note_off_c, 0, 75, 971, 69119, Note_off_c, 6, 82, 801, 69120, Note_on_c, 0, 75, 951, 69120, Note_on_c, 6, 87, 1021, 69120, Note_on_c, 9, 51, 931, 69136, Note_off_c, 1, 32, 1071, 69136, Note_off_c, 2, 44, 1071, 69239, Note_off_c, 6, 87, 1021, 69239, Note_off_c, 9, 36, 1071, 69239, Note_off_c, 9, 51, 931, 69240, Note_on_c, 6, 82, 761, 69319, Note_off_c, 0, 75, 951, 69359, Note_off_c, 6, 82, 761, 69360, Note_on_c, 1, 32, 981, 69360, Note_on_c, 2, 44, 981, 69360, Note_on_c, 6, 83, 981, 69360, Note_on_c, 9, 36, 931, 69360, Note_on_c, 9, 51, 1071, 69368, Note_on_c, 0, 75, 1041, 69479, Note_off_c, 6, 83, 981, 69479, Note_off_c, 9, 36, 931, 69479, Note_off_c, 9, 51, 1071, 69480, Note_on_c, 6, 82, 801, 69539, Note_off_c, 0, 75, 1041, 69596, Note_off_c, 1, 32, 981, 69596, Note_off_c, 2, 44, 981, 69599, Note_off_c, 6, 82, 801, 69600, Note_on_c, 6, 80, 851, 69600, Note_on_c, 9, 54, 1161, 69600, Note_on_c, 9, 38, 1131, 69600, Note_on_c, 9, 51, 1131, 69607, Note_on_c, 0, 73, 1011, 69718, Note_off_c, 9, 54, 1161, 69719, Note_off_c, 6, 80, 851, 69719, Note_off_c, 9, 51, 1131, 69720, Note_on_c, 6, 82, 851, 69741, Note_off_c, 0, 73, 1011, 69839, Note_off_c, 6, 82, 851, 69840, Note_on_c, 1, 30, 981, 69840, Note_on_c, 2, 42, 981, 69840, Note_on_c, 6, 83, 931, 69840, Note_on_c, 9, 51, 931, 69851, Note_on_c, 0, 73, 931, 69959, Note_off_c, 6, 83, 931, 69959, Note_off_c, 9, 38, 1131, 69959, Note_off_c, 9, 51, 931, 69960, Note_on_c, 6, 82, 801, 70037, Note_off_c, 1, 30, 981, 70037, Note_off_c, 2, 42, 981, 70079, Note_off_c, 6, 82, 801, 70080, Note_on_c, 1, 32, 931, 70080, Note_on_c, 2, 44, 931, 70080, Note_on_c, 6, 87, 931, 70080, Note_on_c, 9, 36, 1021, 70080, Note_on_c, 9, 51, 1071, 70199, Note_off_c, 6, 87, 931, 70199, Note_off_c, 9, 36, 1021, 70199, Note_off_c, 9, 51, 1071, 70200, Note_on_c, 6, 82, 761, 70257, Note_off_c, 1, 32, 931, 70257, Note_off_c, 2, 44, 931, 70265, Note_off_c, 0, 73, 931, 70319, Note_off_c, 6, 82, 761, 70320, Note_on_c, 1, 32, 891, 70320, Note_on_c, 2, 44, 891, 70320, Note_on_c, 6, 83, 931, 70320, Note_on_c, 9, 51, 801, 70320, Note_on_c, 9, 36, 851, 70322, Note_on_c, 0, 71, 921, 70439, Note_off_c, 6, 83, 931, 70439, Note_off_c, 9, 51, 801, 70439, Note_off_c, 9, 36, 851, 70440, Note_on_c, 6, 82, 721, 70516, Note_off_c, 1, 32, 891, 70516, Note_off_c, 2, 44, 891, 70559, Note_off_c, 6, 82, 721, 70560, Note_on_c, 1, 30, 931, 70560, Note_on_c, 2, 42, 931, 70560, Note_on_c, 6, 80, 801, 70560, Note_on_c, 9, 54, 1231, 70560, Note_on_c, 9, 38, 1071, 70560, Note_on_c, 9, 51, 981, 70678, Note_off_c, 9, 54, 1231, 70679, Note_off_c, 6, 80, 801, 70679, Note_off_c, 9, 38, 1071, 70679, Note_off_c, 9, 51, 981, 70680, Note_on_c, 6, 82, 761, 70716, Note_off_c, 0, 71, 921, 70747, Note_off_c, 1, 30, 931, 70747, Note_off_c, 2, 42, 931, 70799, Note_off_c, 6, 82, 761, 70800, Note_on_c, 1, 32, 931, 70800, Note_on_c, 2, 44, 931, 70800, Note_on_c, 6, 83, 851, 70800, Note_on_c, 9, 36, 1021, 70800, Note_on_c, 9, 51, 1071, 70813, Note_on_c, 0, 71, 821, 70919, Note_off_c, 6, 83, 851, 70919, Note_off_c, 9, 51, 1071, 70920, Note_on_c, 6, 82, 761, 70996, Note_off_c, 1, 32, 931, 70996, Note_off_c, 2, 44, 931, 71039, Note_off_c, 6, 82, 761, 71040, Note_on_c, 6, 87, 931, 71040, Note_on_c, 9, 51, 891, 71159, Note_off_c, 6, 87, 931, 71159, Note_off_c, 9, 36, 1021, 71159, Note_off_c, 9, 51, 891, 71160, Note_on_c, 6, 82, 801, 71269, Note_off_c, 0, 71, 821, 71274, Note_on_c, 0, 68, 971, 71279, Note_off_c, 6, 82, 801, 71280, Note_on_c, 1, 32, 981, 71280, Note_on_c, 2, 44, 981, 71280, Note_on_c, 6, 83, 931, 71280, Note_on_c, 9, 36, 851, 71280, Note_on_c, 9, 51, 981, 71399, Note_off_c, 6, 83, 931, 71399, Note_off_c, 9, 36, 851, 71399, Note_off_c, 9, 51, 981, 71400, Note_on_c, 6, 82, 851, 71477, Note_off_c, 1, 32, 981, 71477, Note_off_c, 2, 44, 981, 71519, Note_off_c, 6, 82, 851, 71520, Note_on_c, 6, 80, 891, 71520, Note_on_c, 9, 54, 1131, 71520, Note_on_c, 9, 38, 1071, 71520, Note_on_c, 9, 51, 1131, 71535, Note_off_c, 0, 68, 971, 71638, Note_off_c, 9, 54, 1131, 71639, Note_off_c, 6, 80, 891, 71639, Note_off_c, 9, 51, 1131, 71640, Note_on_c, 6, 82, 851, 71759, Note_off_c, 6, 82, 851, 71760, Note_on_c, 1, 32, 931, 71760, Note_on_c, 2, 44, 931, 71760, Note_on_c, 6, 83, 931, 71760, Note_on_c, 9, 51, 931, 71786, Note_on_c, 0, 75, 1131, 71879, Note_off_c, 6, 83, 931, 71879, Note_off_c, 9, 38, 1071, 71879, Note_off_c, 9, 51, 931, 71880, Note_on_c, 6, 82, 931, 71942, Control_c, 6, 64, 0
1, 71947, Note_off_c, 1, 32, 931, 71947, Note_off_c, 2, 44, 931, 71972, Note_off_c, 0, 75, 1131, 71989, Note_on_c, 0, 76, 1171, 71999, Note_off_c, 6, 82, 931, 72000, Note_on_c, 1, 33, 1071, 72000, Note_on_c, 2, 45, 1071, 72000, Note_on_c, 6, 88, 1131, 72000, Note_on_c, 9, 51, 1071, 72000, Note_on_c, 9, 36, 1071, 72103, Control_c, 6, 64, 127
1, 72119, Note_off_c, 6, 88, 1131, 72119, Note_off_c, 9, 51, 1071, 72119, Note_off_c, 9, 36, 1071, 72120, Note_on_c, 6, 83, 931, 72196, Note_off_c, 1, 33, 1071, 72196, Note_off_c, 2, 45, 1071, 72237, Note_off_c, 0, 76, 1171, 72239, Note_off_c, 6, 83, 931, 72240, Note_on_c, 1, 33, 1021, 72240, Note_on_c, 2, 45, 1021, 72240, Note_on_c, 6, 85, 891, 72240, Note_on_c, 9, 36, 931, 72240, Note_on_c, 9, 51, 931, 72302, Note_on_c, 0, 76, 971, 72359, Note_off_c, 6, 85, 891, 72359, Note_off_c, 9, 36, 931, 72359, Note_off_c, 9, 51, 931, 72360, Note_on_c, 6, 83, 851, 72427, Note_off_c, 1, 33, 1021, 72427, Note_off_c, 2, 45, 1021, 72479, Note_off_c, 6, 83, 851, 72480, Note_on_c, 1, 32, 801, 72480, Note_on_c, 2, 44, 801, 72480, Note_on_c, 6, 81, 891, 72480, Note_on_c, 9, 54, 1131, 72480, Note_on_c, 9, 38, 1071, 72480, Note_on_c, 9, 51, 1021, 72592, Note_off_c, 0, 76, 971, 72598, Note_off_c, 9, 54, 1131, 72599, Note_off_c, 6, 81, 891, 72599, Note_off_c, 9, 38, 1071, 72599, Note_off_c, 9, 51, 1021, 72600, Note_on_c, 6, 83, 761, 72677, Note_off_c, 1, 32, 801, 72677, Note_off_c, 2, 44, 801, 72710, Note_on_c, 0, 76, 971, 72719, Note_off_c, 6, 83, 761, 72720, Note_on_c, 1, 33, 1021, 72720, Note_on_c, 2, 45, 1021, 72720, Note_on_c, 6, 85, 1021, 72720, Note_on_c, 9, 36, 1071, 72720, Note_on_c, 9, 51, 1071, 72839, Note_off_c, 6, 85, 1021, 72839, Note_off_c, 9, 51, 1071, 72840, Note_on_c, 6, 83, 851, 72927, Note_off_c, 1, 33, 1021, 72927, Note_off_c, 2, 45, 1021, 72959, Note_off_c, 6, 83, 851, 72960, Note_on_c, 6, 88, 1021, 72960, Note_on_c, 9, 51, 981, 73079, Note_off_c, 6, 88, 1021, 73079, Note_off_c, 9, 36, 1071, 73079, Note_off_c, 9, 51, 981, 73080, Note_on_c, 6, 83, 891, 73088, Note_off_c, 0, 76, 971, 73187, Note_on_c, 0, 76, 911, 73199, Note_off_c, 6, 83, 891, 73200, Note_on_c, 1, 33, 1131, 73200, Note_on_c, 2, 45, 1131, 73200, Note_on_c, 6, 85, 1021, 73200, Note_on_c, 9, 36, 981, 73200, Note_on_c, 9, 51, 1021, 73319, Note_off_c, 6, 85, 1021, 73319, Note_off_c, 9, 36, 981, 73319, Note_off_c, 9, 51, 1021, 73320, Note_on_c, 6, 83, 801, 73377, Note_off_c, 1, 33, 1131, 73377, Note_off_c, 2, 45, 1131, 73404, Note_off_c, 0, 76, 911, 73434, Note_on_c, 0, 73, 1011, 73439, Note_off_c, 6, 83, 801, 73440, Note_on_c, 6, 81, 891, 73440, Note_on_c, 9, 54, 1161, 73440, Note_on_c, 9, 38, 1131, 73440, Note_on_c, 9, 51, 1071, 73558, Note_off_c, 9, 54, 1161, 73559, Note_off_c, 6, 81, 891, 73559, Note_off_c, 9, 51, 1071, 73560, Note_on_c, 6, 83, 851, 73679, Note_off_c, 6, 83, 851, 73680, Note_on_c, 1, 32, 891, 73680, Note_on_c, 2, 44, 891, 73680, Note_on_c, 6, 85, 1021, 73680, Note_on_c, 9, 51, 981, 73742, Note_off_c, 0, 73, 1011, 73799, Note_off_c, 6, 85, 1021, 73799, Note_off_c, 9, 38, 1131, 73799, Note_off_c, 9, 51, 981, 73800, Note_on_c, 6, 83, 761, 73873, Note_on_c, 0, 76, 861, 73877, Note_off_c, 1, 32, 891, 73877, Note_off_c, 2, 44, 891, 73919, Note_off_c, 6, 83, 761, 73920, Note_on_c, 1, 33, 1021, 73920, Note_on_c, 2, 45, 1021, 73920, Note_on_c, 6, 88, 1071, 73920, Note_on_c, 9, 51, 1071, 73920, Note_on_c, 9, 36, 1071, 74039, Note_off_c, 6, 88, 1071, 74039, Note_off_c, 9, 51, 1071, 74039, Note_off_c, 9, 36, 1071, 74040, Note_on_c, 6, 83, 801, 74107, Note_off_c, 1, 33, 1021, 74107, Note_off_c, 2, 45, 1021, 74125, Note_off_c, 0, 76, 861, 74159, Note_off_c, 6, 83, 801, 74160, Note_on_c, 1, 33, 981, 74160, Note_on_c, 2, 45, 981, 74160, Note_on_c, 6, 85, 1021, 74160, Note_on_c, 9, 51, 891, 74160, Note_on_c, 9, 36, 891, 74233, Note_on_c, 0, 76, 831, 74279, Note_off_c, 6, 85, 1021, 74279, Note_off_c, 9, 51, 891, 74279, Note_off_c, 9, 36, 891, 74280, Note_on_c, 6, 83, 761, 74337, Note_off_c, 1, 33, 981, 74337, Note_off_c, 2, 45, 981, 74399, Note_off_c, 6, 83, 761, 74400, Note_on_c, 1, 32, 801, 74400, Note_on_c, 2, 44, 801, 74400, Note_on_c, 6, 81, 891, 74400, Note_on_c, 9, 54, 1271, 74400, Note_on_c, 9, 38, 1131, 74400, Note_on_c, 9, 51, 1131, 74401, Note_on_c, 0, 73, 971, 74406, Note_off_c, 0, 76, 831, 74518, Note_off_c, 9, 54, 1271, 74519, Note_off_c, 6, 81, 891, 74519, Note_off_c, 9, 38, 1131, 74519, Note_off_c, 9, 51, 1131, 74520, Note_on_c, 6, 83, 761, 74607, Note_off_c, 1, 32, 801, 74607, Note_off_c, 2, 44, 801, 74616, Note_off_c, 0, 73, 971, 74639, Note_off_c, 6, 83, 761, 74640, Note_on_c, 1, 33, 1071, 74640, Note_on_c, 2, 45, 1071, 74640, Note_on_c, 6, 85, 981, 74640, Note_on_c, 9, 36, 1021, 74640, Note_on_c, 9, 51, 1131, 74683, Note_on_c, 0, 76, 861, 74759, Note_off_c, 6, 85, 981, 74759, Note_off_c, 9, 51, 1131, 74760, Note_on_c, 6, 83, 761, 74827, Note_off_c, 1, 33, 1071, 74827, Note_off_c, 2, 45, 1071, 74879, Note_off_c, 6, 83, 761, 74880, Note_on_c, 6, 88, 1021, 74880, Note_on_c, 9, 51, 1021, 74999, Note_off_c, 6, 88, 1021, 74999, Note_off_c, 9, 36, 1021, 74999, Note_off_c, 9, 51, 1021, 75000, Note_on_c, 6, 83, 891, 75119, Note_off_c, 6, 83, 891, 75120, Note_on_c, 1, 33, 1021, 75120, Note_on_c, 2, 45, 1021, 75120, Note_on_c, 6, 85, 931, 75120, Note_on_c, 9, 36, 981, 75120, Note_on_c, 9, 51, 1071, 75239, Note_off_c, 6, 85, 931, 75239, Note_off_c, 9, 36, 981, 75239, Note_off_c, 9, 51, 1071, 75240, Note_on_c, 6, 83, 851, 75263, Note_off_c, 0, 76, 861, 75307, Note_off_c, 1, 33, 1021, 75307, Note_off_c, 2, 45, 1021, 75359, Note_off_c, 6, 83, 851, 75360, Note_on_c, 6, 81, 801, 75360, Note_on_c, 9, 54, 1011, 75360, Note_on_c, 9, 38, 1071, 75360, Note_on_c, 9, 51, 1071, 75478, Note_off_c, 9, 54, 1011, 75479, Note_off_c, 6, 81, 801, 75479, Note_off_c, 9, 38, 1071, 75479, Note_off_c, 9, 51, 1071, 75480, Note_on_c, 6, 83, 761, 75599, Note_off_c, 6, 83, 761, 75600, Note_on_c, 1, 33, 1021, 75600, Note_on_c, 2, 45, 1021, 75600, Note_on_c, 6, 85, 1071, 75600, Note_on_c, 9, 38, 1191, 75601, Note_on_c, 0, 75, 1131, 75630, Note_on_c, 9, 38, 931, 75708, Note_off_c, 1, 33, 1021, 75708, Note_off_c, 2, 45, 1021, 75719, Note_off_c, 6, 85, 1071, 75719, Note_off_c, 9, 38, 931, 75720, Note_on_c, 6, 83, 851, 75749, Note_off_c, 9, 38, 1191, 75839, Note_off_c, 6, 83, 851, 75840, Control_c, 6, 64, 0
1, 75840, Note_on_c, 1, 39, 1131, 75840, Note_on_c, 2, 51, 1131, 75840, Note_on_c, 6, 87, 931, 75840, Note_on_c, 9, 36, 1131, 75840, Note_on_c, 9, 49, 1071, 75899, Control_c, 6, 64, 127
1, 75959, Note_off_c, 6, 87, 931, 75959, Note_off_c, 9, 49, 1071, 75960, Note_on_c, 6, 82, 801, 75996, Note_off_c, 0, 75, 1131, 76066, Note_off_c, 1, 39, 1131, 76066, Note_off_c, 2, 51, 1131, 76079, Note_off_c, 6, 82, 801, 76080, Note_on_c, 1, 37, 721, 76080, Note_on_c, 2, 49, 721, 76080, Note_on_c, 6, 83, 761, 76080, Note_on_c, 9, 51, 891, 76089, Note_on_c, 0, 73, 1011, 76199, Note_off_c, 6, 83, 761, 76199, Note_off_c, 9, 36, 1131, 76199, Note_off_c, 9, 51, 891, 76200, Note_on_c, 6, 82, 761, 76250, Note_off_c, 0, 73, 1011, 76306, Note_off_c, 1, 37, 721, 76306, Note_off_c, 2, 49, 721, 76314, Note_on_c, 0, 71, 971, 76319, Note_off_c, 6, 82, 761, 76320, Note_on_c, 1, 35, 931, 76320, Note_on_c, 2, 47, 931, 76320, Note_on_c, 6, 80, 851, 76320, Note_on_c, 9, 54, 1101, 76320, Note_on_c, 9, 38, 1131, 76320, Note_on_c, 9, 51, 1071, 76438, Note_off_c, 9, 54, 1101, 76439, Note_off_c, 6, 80, 851, 76439, Note_off_c, 9, 38, 1131, 76439, Note_off_c, 9, 51, 1071, 76440, Note_on_c, 6, 82, 721, 76503, Note_off_c, 0, 71, 971, 76527, Note_off_c, 1, 35, 931, 76527, Note_off_c, 2, 47, 931, 76550, Note_on_c, 0, 71, 781, 76559, Note_off_c, 6, 82, 721, 76560, Note_on_c, 1, 32, 931, 76560, Note_on_c, 2, 44, 931, 76560, Note_on_c, 6, 83, 891, 76560, Note_on_c, 9, 36, 1071, 76560, Note_on_c, 9, 51, 1071, 76679, Note_off_c, 6, 83, 891, 76679, Note_off_c, 9, 51, 1071, 76680, Note_on_c, 6, 82, 801, 76777, Note_off_c, 1, 32, 931, 76777, Note_off_c, 2, 44, 931, 76799, Note_off_c, 6, 82, 801, 76800, Note_on_c, 6, 87, 1021, 76800, Note_on_c, 9, 51, 891, 76919, Note_off_c, 6, 87, 1021, 76919, Note_off_c, 9, 36, 1071, 76919, Note_off_c, 9, 51, 891, 76920, Note_on_c, 6, 82, 761, 76945, Note_off_c, 0, 71, 781, 76988, Note_on_c, 0, 71, 731, 77039, Note_off_c, 6, 82, 761, 77040, Note_on_c, 1, 32, 1021, 77040, Note_on_c, 2, 44, 1021, 77040, Note_on_c, 6, 83, 981, 77040, Note_on_c, 9, 51, 981, 77040, Note_on_c, 9, 36, 931, 77159, Note_off_c, 6, 83, 981, 77159, Note_off_c, 9, 51, 981, 77159, Note_off_c, 9, 36, 931, 77160, Note_on_c, 6, 82, 801, 77199, Note_off_c, 0, 71, 731, 77227, Note_off_c, 1, 32, 1021, 77227, Note_off_c, 2, 44, 1021, 77279, Note_off_c, 6, 82, 801, 77280, Note_on_c, 6, 80, 851, 77280, Note_on_c, 9, 54, 931, 77280, Note_on_c, 9, 38, 1131, 77280, Note_on_c, 9, 51, 1131, 77285, Note_on_c, 0, 71, 841, 77398, Note_off_c, 9, 54, 931, 77399, Note_off_c, 6, 80, 851, 77399, Note_off_c, 9, 51, 1131, 77400, Note_on_c, 6, 82, 851, 77498, Note_off_c, 0, 71, 841, 77519, Note_off_c, 6, 82, 851, 77520, Note_on_c, 1, 30, 931, 77520, Note_on_c, 2, 42, 931, 77520, Note_on_c, 6, 83, 931, 77520, Note_on_c, 9, 51, 931, 77521, Note_on_c, 0, 68, 1071, 77639, Note_off_c, 6, 83, 931, 77639, Note_off_c, 9, 38, 1131, 77639, Note_off_c, 9, 51, 931, 77640, Note_on_c, 6, 82, 801, 77707, Note_off_c, 1, 30, 931, 77707, Note_off_c, 2, 42, 931, 77726, Note_off_c, 0, 68, 1071, 77759, Note_off_c, 6, 82, 801, 77760, Note_on_c, 1, 32, 931, 77760, Note_on_c, 2, 44, 931, 77760, Note_on_c, 6, 87, 931, 77760, Note_on_c, 9, 51, 1021, 77760, Note_on_c, 9, 36, 891, 77764, Note_on_c, 0, 71, 941, 77879, Note_off_c, 6, 87, 931, 77879, Note_off_c, 9, 51, 1021, 77879, Note_off_c, 9, 36, 891, 77880, Note_on_c, 6, 82, 761, 77927, Note_off_c, 1, 32, 931, 77927, Note_off_c, 2, 44, 931, 77999, Note_off_c, 6, 82, 761, 78000, Note_on_c, 1, 32, 851, 78000, Note_on_c, 2, 44, 851, 78000, Note_on_c, 6, 83, 931, 78000, Note_on_c, 9, 51, 931, 78000, Note_on_c, 9, 36, 851, 78022, Note_off_c, 0, 71, 941, 78032, Note_on_c, 0, 68, 1161, 78119, Note_off_c, 6, 83, 931, 78119, Note_off_c, 9, 51, 931, 78119, Note_off_c, 9, 36, 851, 78120, Note_on_c, 6, 82, 721, 78187, Note_off_c, 1, 32, 851, 78187, Note_off_c, 2, 44, 851, 78239, Note_off_c, 6, 82, 721, 78240, Note_on_c, 1, 30, 891, 78240, Note_on_c, 2, 42, 891, 78240, Note_on_c, 6, 80, 801, 78240, Note_on_c, 9, 54, 1101, 78240, Note_on_c, 9, 38, 1071, 78240, Note_on_c, 9, 51, 891, 78358, Note_off_c, 9, 54, 1101, 78359, Note_off_c, 6, 80, 801, 78359, Note_off_c, 9, 38, 1071, 78359, Note_off_c, 9, 51, 891, 78360, Note_on_c, 6, 82, 761, 78431, Note_off_c, 0, 68, 1161, 78446, Note_off_c, 1, 30, 891, 78446, Note_off_c, 2, 42, 891, 78479, Note_off_c, 6, 82, 761, 78480, Note_on_c, 0, 73, 1101, 78480, Note_on_c, 1, 32, 981, 78480, Note_on_c, 2, 44, 981, 78480, Note_on_c, 6, 83, 851, 78480, Note_on_c, 9, 36, 981, 78480, Note_on_c, 9, 51, 931, 78599, Note_off_c, 6, 83, 851, 78599, Note_off_c, 9, 51, 931, 78600, Note_on_c, 6, 82, 761, 78667, Note_off_c, 1, 32, 981, 78667, Note_off_c, 2, 44, 981, 78719, Note_off_c, 6, 82, 761, 78720, Note_on_c, 6, 87, 931, 78720, Note_on_c, 9, 51, 931, 78839, Note_off_c, 6, 87, 931, 78839, Note_off_c, 9, 36, 981, 78839, Note_off_c, 9, 51, 931, 78840, Note_on_c, 6, 82, 801, 78907, Pitch_bend_c, 0, 7840
1, 78922, Pitch_bend_c, 0, 7372
1, 78937, Pitch_bend_c, 0, 6670
1, 78952, Pitch_bend_c, 0, 5851
1, 78959, Note_off_c, 6, 82, 801, 78960, Note_on_c, 1, 32, 931, 78960, Note_on_c, 2, 44, 931, 78960, Note_on_c, 6, 83, 931, 78960, Note_on_c, 9, 36, 931, 78960, Note_on_c, 9, 51, 981, 78968, Pitch_bend_c, 0, 5149
1, 78983, Pitch_bend_c, 0, 4447
1, 78998, Pitch_bend_c, 0, 3628
1, 78999, Note_off_c, 0, 73, 1101, 79014, Pitch_bend_c, 0, 2575
1, 79029, Pitch_bend_c, 0, 1639
1, 79046, Pitch_bend_c, 0, 937
1, 79059, Pitch_bend_c, 0, 352
1, 79074, Pitch_bend_c, 0, 118
1, 79079, Note_off_c, 6, 83, 931, 79079, Note_off_c, 9, 36, 931, 79079, Note_off_c, 9, 51, 981, 79080, Note_on_c, 6, 82, 851, 79147, Note_off_c, 1, 32, 931, 79147, Note_off_c, 2, 44, 931, 79199, Note_off_c, 6, 82, 851, 79200, Pitch_bend_c, 0, 8192
1, 79200, Note_on_c, 6, 80, 891, 79200, Note_on_c, 9, 54, 891, 79200, Note_on_c, 9, 38, 1131, 79200, Note_on_c, 9, 51, 1131, 79212, Note_on_c, 0, 75, 1141, 79318, Note_off_c, 9, 54, 891, 79319, Note_off_c, 6, 80, 891, 79319, Note_off_c, 9, 38, 1131, 79319, Note_off_c, 9, 51, 1131, 79320, Note_on_c, 6, 82, 851, 79383, Note_off_c, 0, 75, 1141, 79439, Note_off_c, 6, 82, 851, 79440, Note_on_c, 1, 32, 891, 79440, Note_on_c, 2, 44, 891, 79440, Note_on_c, 6, 83, 931, 79440, Note_on_c, 9, 57, 1141, 79440, Note_on_c, 9, 38, 601, 79451, Note_on_c, 0, 75, 971, 79559, Note_off_c, 6, 83, 931, 79559, Note_off_c, 9, 57, 1141, 79559, Note_off_c, 9, 38, 601, 79560, Note_on_c, 6, 82, 931, 79622, Control_c, 6, 64, 0
1, 79630, Note_off_c, 0, 75, 971, 79637, Note_off_c, 1, 32, 891, 79637, Note_off_c, 2, 44, 891, 79679, Note_off_c, 6, 82, 931, 79680, Note_on_c, 1, 33, 1071, 79680, Note_on_c, 2, 45, 1071, 79680, Note_on_c, 6, 88, 1131, 79680, Note_on_c, 9, 36, 1131, 79683, Note_on_c, 0, 76, 1061, 79783, Control_c, 6, 64, 127
1, 79799, Note_off_c, 6, 88, 1131, 79800, Note_on_c, 6, 83, 931, 79858, Note_off_c, 1, 33, 1071, 79858, Note_off_c, 2, 45, 1071, 79871, Note_off_c, 0, 76, 1061, 79919, Note_off_c, 6, 83, 931, 79920, Note_on_c, 1, 33, 931, 79920, Note_on_c, 2, 45, 931, 79920, Note_on_c, 6, 85, 891, 79920, Note_on_c, 9, 51, 981, 79935, Note_on_c, 0, 76, 1081, 80039, Note_off_c, 6, 85, 891, 80039, Note_off_c, 9, 36, 1131, 80039, Note_off_c, 9, 51, 981, 80040, Note_on_c, 6, 83, 851, 80126, Note_off_c, 1, 33, 931, 80126, Note_off_c, 2, 45, 931, 80159, Note_off_c, 6, 83, 851, 80160, Note_on_c, 1, 32, 761, 80160, Note_on_c, 2, 44, 761, 80160, Note_on_c, 6, 81, 891, 80160, Note_on_c, 9, 54, 1071, 80160, Note_on_c, 9, 38, 1071, 80160, Note_on_c, 9, 51, 931, 80238, Note_off_c, 0, 76, 1081, 80278, Note_off_c, 9, 54, 1071, 80279, Note_off_c, 6, 81, 891, 80279, Note_off_c, 9, 38, 1071, 80279, Note_off_c, 9, 51, 931, 80280, Note_on_c, 6, 83, 761, 80376, Note_off_c, 1, 32, 761, 80376, Note_off_c, 2, 44, 761, 80399, Note_off_c, 6, 83, 761, 80400, Note_on_c, 1, 33, 1071, 80400, Note_on_c, 2, 45, 1071, 80400, Note_on_c, 6, 85, 1021, 80400, Note_on_c, 9, 36, 981, 80400, Note_on_c, 9, 51, 1071, 80405, Note_on_c, 0, 76, 1061, 80519, Note_off_c, 6, 85, 1021, 80519, Note_off_c, 9, 51, 1071, 80520, Note_on_c, 6, 83, 851, 80587, Note_off_c, 1, 33, 1071, 80587, Note_off_c, 2, 45, 1071, 80639, Note_off_c, 6, 83, 851, 80640, Note_on_c, 6, 88, 1021, 80640, Note_on_c, 9, 51, 891, 80699, Note_off_c, 0, 76, 1061, 80759, Note_off_c, 6, 88, 1021, 80759, Note_off_c, 9, 36, 981, 80759, Note_off_c, 9, 51, 891, 80760, Note_on_c, 6, 83, 891, 80879, Note_off_c, 6, 83, 891, 80880, Note_on_c, 1, 33, 1071, 80880, Note_on_c, 2, 45, 1071, 80880, Note_on_c, 6, 85, 1021, 80880, Note_on_c, 9, 51, 891, 80880, Note_on_c, 9, 36, 801, 80881, Note_on_c, 0, 76, 1101, 80999, Note_off_c, 6, 85, 1021, 80999, Note_off_c, 9, 51, 891, 80999, Note_off_c, 9, 36, 801, 81000, Note_on_c, 6, 83, 801, 81096, Note_off_c, 1, 33, 1071, 81096, Note_off_c, 2, 45, 1071, 81119, Note_off_c, 6, 83, 801, 81120, Note_on_c, 6, 81, 891, 81120, Note_on_c, 9, 54, 1101, 81120, Note_on_c, 9, 38, 1071, 81120, Note_on_c, 9, 51, 1021, 81178, Note_off_c, 0, 76, 1101, 81238, Note_off_c, 9, 54, 1101, 81239, Note_off_c, 6, 81, 891, 81239, Note_off_c, 9, 51, 1021, 81240, Note_on_c, 6, 83, 851, 81359, Note_off_c, 6, 83, 851, 81360, Note_on_c, 1, 32, 801, 81360, Note_on_c, 2, 44, 801, 81360, Note_on_c, 6, 85, 1021, 81360, Note_on_c, 9, 51, 851, 81479, Note_off_c, 6, 85, 1021, 81479, Note_off_c, 9, 38, 1071, 81479, Note_off_c, 9, 51, 851, 81480, Note_on_c, 6, 83, 761, 81557, Note_off_c, 1, 32, 801, 81557, Note_off_c, 2, 44, 801, 81599, Note_off_c, 6, 83, 761, 81600, Note_on_c, 1, 33, 1021, 81600, Note_on_c, 2, 45, 1021, 81600, Note_on_c, 6, 88, 1071, 81600, Note_on_c, 9, 51, 1021, 81600, Note_on_c, 9, 36, 981, 81603, Note_on_c, 0, 76, 1081, 81719, Note_off_c, 6, 88, 1071, 81719, Note_off_c, 9, 51, 1021, 81719, Note_off_c, 9, 36, 981, 81720, Note_on_c, 6, 83, 801, 81748, Note_off_c, 1, 33, 1021, 81748, Note_off_c, 2, 45, 1021, 81797, Note_off_c, 0, 76, 1081, 81839, Note_off_c, 6, 83, 801, 81840, Note_on_c, 1, 33, 891, 81840, Note_on_c, 2, 45, 891, 81840, Note_on_c, 6, 85, 1021, 81840, Note_on_c, 9, 36, 851, 81840, Note_on_c, 9, 51, 931, 81862, Note_on_c, 0, 76, 1061, 81959, Note_off_c, 6, 85, 1021, 81959, Note_off_c, 9, 36, 851, 81959, Note_off_c, 9, 51, 931, 81960, Note_on_c, 6, 83, 761, 82007, Note_off_c, 1, 33, 891, 82007, Note_off_c, 2, 45, 891, 82079, Note_off_c, 6, 83, 761, 82080, Note_on_c, 1, 32, 891, 82080, Note_on_c, 2, 44, 891, 82080, Note_on_c, 6, 81, 891, 82080, Note_on_c, 9, 54, 1111, 82080, Note_on_c, 9, 38, 1071, 82080, Note_on_c, 9, 51, 1071, 82105, Note_off_c, 0, 76, 1061, 82198, Note_off_c, 9, 54, 1111, 82199, Note_off_c, 6, 81, 891, 82199, Note_off_c, 9, 38, 1071, 82199, Note_off_c, 9, 51, 1071, 82200, Note_on_c, 6, 83, 761, 82257, Note_off_c, 1, 32, 891, 82257, Note_off_c, 2, 44, 891, 82317, Note_on_c, 0, 76, 1061, 82319, Note_off_c, 6, 83, 761, 82320, Note_on_c, 1, 33, 1071, 82320, Note_on_c, 2, 45, 1071, 82320, Note_on_c, 6, 85, 981, 82320, Note_on_c, 9, 36, 1071, 82320, Note_on_c, 9, 51, 1071, 82439, Note_off_c, 6, 85, 981, 82439, Note_off_c, 9, 51, 1071, 82440, Note_on_c, 6, 83, 761, 82516, Note_off_c, 1, 33, 1071, 82516, Note_off_c, 2, 45, 1071, 82559, Note_off_c, 6, 83, 761, 82560, Note_on_c, 6, 88, 1021, 82560, Note_on_c, 9, 51, 931, 82679, Note_off_c, 6, 88, 1021, 82679, Note_off_c, 9, 36, 1071, 82679, Note_off_c, 9, 51, 931, 82680, Note_on_c, 6, 83, 891, 82753, Note_off_c, 0, 76, 1061, 82799, Note_off_c, 6, 83, 891, 82800, Note_on_c, 1, 33, 931, 82800, Note_on_c, 2, 45, 931, 82800, Note_on_c, 6, 85, 931, 82800, Note_on_c, 9, 36, 981, 82800, Note_on_c, 9, 51, 1021, 82919, Note_off_c, 6, 85, 931, 82919, Note_off_c, 9, 36, 981, 82919, Note_off_c, 9, 51, 1021, 82920, Note_on_c, 6, 83, 851, 83016, Note_off_c, 1, 33, 931, 83016, Note_off_c, 2, 45, 931, 83039, Note_off_c, 6, 83, 851, 83040, Note_on_c, 6, 81, 801, 83040, Note_on_c, 9, 54, 1111, 83040, Note_on_c, 9, 38, 1131, 83040, Note_on_c, 9, 51, 1131, 83042, Note_on_c, 0, 80, 1251, 83158, Note_off_c, 9, 54, 1111, 83159, Note_off_c, 6, 81, 801, 83159, Note_off_c, 9, 51, 1131, 83160, Note_on_c, 6, 83, 761, 83224, Note_off_c, 0, 80, 1251, 83279, Note_off_c, 6, 83, 761, 83280, Note_on_c, 1, 33, 981, 83280, Note_on_c, 2, 45, 981, 83280, Note_on_c, 6, 85, 1071, 83280, Note_on_c, 9, 51, 1021, 83288, Note_on_c, 0, 80, 1201, 83399, Note_off_c, 6, 85, 1071, 83399, Note_off_c, 9, 38, 1131, 83399, Note_off_c, 9, 51, 1021, 83400, Note_on_c, 6, 83, 851, 83506, Note_off_c, 1, 33, 981, 83506, Note_off_c, 2, 45, 981, 83519, Control_c, 6, 64, 0
1, 83519, Note_off_c, 6, 83, 851, 83520, Note_on_c, 1, 28, 851, 83520, Note_on_c, 2, 40, 851, 83520, Note_on_c, 6, 83, 1071, 83520, Note_on_c, 6, 80, 1071, 83520, Note_on_c, 9, 38, 1271, 83520, Note_on_c, 9, 40, 721, 83639, Note_off_c, 6, 83, 1071, 83639, Note_off_c, 6, 80, 1071, 83639, Note_off_c, 9, 38, 1271, 83639, Note_off_c, 9, 40, 721, 83640, Note_on_c, 6, 76, 891, 83640, Note_on_c, 9, 38, 1131, 83682, Pitch_bend_c, 0, 7840
1, 83696, Pitch_bend_c, 0, 7021
1, 83711, Pitch_bend_c, 0, 5617
1, 83727, Pitch_bend_c, 0, 3862
1, 83741, Pitch_bend_c, 0, 1756
1, 83752, Note_off_c, 0, 80, 1201, 83757, Pitch_bend_c, 0, 0
1, 83759, Note_off_c, 6, 76, 891, 83759, Note_off_c, 9, 38, 1131, 83760, Note_on_c, 6, 80, 891, 83760, Note_on_c, 6, 83, 851, 83879, Pitch_bend_c, 0, 937
1, 83879, Note_off_c, 6, 80, 891, 83879, Note_off_c, 6, 83, 851, 83880, Note_on_c, 6, 76, 1071, 83880, Note_on_c, 9, 43, 1071, 83894, Pitch_bend_c, 0, 2926
1, 83909, Pitch_bend_c, 0, 5617
1, 83926, Pitch_bend_c, 0, 8192
1, 83999, Note_off_c, 6, 76, 1071, 83999, Note_off_c, 9, 43, 1071, 84000, Note_on_c, 6, 80, 1021, 84000, Note_on_c, 6, 83, 981, 84000, Note_on_c, 9, 54, 1131, 84000, Note_on_c, 9, 41, 1131, 84000, Note_on_c, 9, 43, 931, 84118, Note_off_c, 9, 54, 1131, 84119, Note_off_c, 6, 80, 1021, 84119, Note_off_c, 6, 83, 981, 84119, Note_off_c, 9, 41, 1131, 84119, Note_off_c, 9, 43, 931, 84189, Note_off_c, 1, 28, 851, 84189, Note_off_c, 2, 40, 851, 84240, Note_on_c, 1, 40, 1131, 84240, Note_on_c, 2, 52, 1131, 84240, Note_on_c, 6, 80, 1021, 84240, Note_on_c, 6, 83, 1021, 84240, Note_on_c, 9, 36, 1131, 84240, Note_on_c, 9, 49, 1271, 84359, Note_off_c, 6, 80, 1021, 84359, Note_off_c, 6, 83, 1021, 84359, Note_off_c, 9, 49, 1271, 84360, Note_on_c, 6, 76, 1021, 84479, Note_off_c, 6, 76, 1021, 84480, Note_on_c, 6, 80, 981, 84480, Note_on_c, 6, 83, 931, 84599, Note_off_c, 6, 80, 981, 84599, Note_off_c, 6, 83, 931, 84600, Note_on_c, 6, 76, 1071, 84719, Note_off_c, 6, 76, 1071, 84720, Note_on_c, 6, 80, 1071, 84720, Note_on_c, 6, 83, 1071, 84839, Note_off_c, 6, 80, 1071, 84839, Note_off_c, 6, 83, 1071, 84839, Note_off_c, 9, 36, 1131, 84960, Note_on_c, 6, 83, 1131, 84960, Note_on_c, 6, 80, 1071, 84960, Note_on_c, 9, 54, 1071, 84960, Note_on_c, 9, 38, 1131, 84960, Note_on_c, 9, 51, 1191, 85078, Note_off_c, 9, 54, 1071, 85079, Note_off_c, 9, 51, 1191, 85199, Note_off_c, 9, 38, 1131, 85200, Note_on_c, 6, 76, 1021, 85200, Note_on_c, 9, 51, 981, 85319, Note_off_c, 6, 83, 1131, 85319, Note_off_c, 6, 80, 1071, 85319, Note_off_c, 9, 51, 981, 85342, Note_off_c, 1, 40, 1131, 85342, Note_off_c, 2, 52, 1131, 85439, Note_off_c, 6, 76, 1021, 85440, Note_on_c, 1, 28, 1021, 85440, Note_on_c, 2, 40, 1021, 85440, Note_on_c, 6, 82, 1071, 85440, Note_on_c, 6, 80, 1071, 85440, Note_on_c, 9, 41, 1271, 85559, Note_off_c, 6, 82, 1071, 85559, Note_off_c, 6, 80, 1071, 85559, Note_off_c, 9, 41, 1271, 85560, Note_on_c, 6, 76, 1021, 85560, Note_on_c, 9, 36, 1131, 85679, Note_off_c, 6, 76, 1021, 85679, Note_off_c, 9, 36, 1131, 85680, Note_on_c, 6, 80, 801, 85680, Note_on_c, 6, 82, 801, 85799, Note_off_c, 6, 80, 801, 85799, Note_off_c, 6, 82, 801, 85800, Note_on_c, 6, 76, 1021, 85800, Note_on_c, 9, 38, 981, 85919, Note_off_c, 9, 38, 981, 85920, Note_on_c, 6, 80, 981, 85920, Note_on_c, 6, 82, 981, 85920, Note_on_c, 9, 54, 1131, 85920, Note_on_c, 9, 43, 1071, 86038, Note_off_c, 9, 54, 1131, 86039, Note_off_c, 6, 80, 981, 86039, Note_off_c, 6, 82, 981, 86039, Note_off_c, 9, 43, 1071, 86109, Note_off_c, 1, 28, 1021, 86109, Note_off_c, 2, 40, 1021, 86159, Note_off_c, 6, 76, 1021, 86160, Note_on_c, 1, 40, 981, 86160, Note_on_c, 2, 52, 981, 86160, Note_on_c, 6, 82, 981, 86160, Note_on_c, 6, 80, 891, 86160, Note_on_c, 9, 36, 1191, 86160, Note_on_c, 9, 57, 1271, 86279, Note_off_c, 6, 82, 981, 86279, Note_off_c, 6, 80, 891, 86279, Note_off_c, 9, 36, 1191, 86279, Note_off_c, 9, 57, 1271, 86280, Note_on_c, 6, 76, 981, 86399, Note_off_c, 6, 76, 981, 86400, Note_on_c, 6, 80, 981, 86400, Note_on_c, 6, 82, 931, 86519, Note_off_c, 6, 80, 981, 86519, Note_off_c, 6, 82, 931, 86520, Note_on_c, 6, 76, 981, 86520, Note_on_c, 9, 38, 1191, 86639, Note_off_c, 9, 38, 1191, 86640, Note_on_c, 6, 80, 981, 86640, Note_on_c, 6, 82, 981, 86640, Note_on_c, 9, 45, 1271, 86759, Note_off_c, 6, 80, 981, 86759, Note_off_c, 6, 82, 981, 86759, Note_off_c, 9, 45, 1271, 86879, Note_off_c, 6, 76, 981, 86880, Note_on_c, 6, 80, 1071, 86880, Note_on_c, 6, 82, 1071, 86880, Note_on_c, 9, 54, 1011, 86880, Note_on_c, 9, 43, 1021, 86880, Note_on_c, 9, 45, 1021, 86998, Note_off_c, 9, 54, 1011, 86999, Note_off_c, 9, 43, 1021, 86999, Note_off_c, 9, 45, 1021, 87000, Note_on_c, 9, 41, 1131, 87114, Note_on_c, 0, 68, 1041, 87119, Note_off_c, 6, 80, 1071, 87119, Note_off_c, 6, 82, 1071, 87119, Note_off_c, 9, 41, 1131, 87120, Note_on_c, 6, 76, 1071, 87120, Note_on_c, 9, 41, 1131, 87239, Note_off_c, 9, 41, 1131, 87252, Note_off_c, 1, 40, 981, 87252, Note_off_c, 2, 52, 981, 87328, Note_off_c, 0, 68, 1041, 87359, Note_off_c, 6, 76, 1071, 87360, Note_on_c, 1, 39, 1131, 87360, Note_on_c, 2, 39, 1201, 87360, Note_on_c, 6, 82, 1201, 87360, Note_on_c, 6, 87, 1111, 87360, Note_on_c, 9, 36, 1071, 87360, Note_on_c, 9, 49, 1191, 87369, Note_on_c, 0, 70, 1101, 87448, Note_off_c, 1, 39, 1131, 87479, Note_off_c, 6, 82, 1201, 87479, Note_off_c, 6, 87, 1111, 87479, Note_off_c, 9, 49, 1191, 87480, Note_on_c, 1, 39, 851, 87480, Note_on_c, 6, 80, 1061, 87480, Note_on_c, 9, 54, 761, 87571, Note_off_c, 2, 39, 1201, 87578, Note_off_c, 1, 39, 851, 87594, Note_on_c, 2, 46, 1131, 87598, Note_off_c, 9, 54, 761, 87599, Note_off_c, 6, 80, 1061, 87600, Note_on_c, 6, 79, 1021, 87600, Note_on_c, 9, 54, 1271, 87600, Note_on_c, 9, 42, 1271, 87718, Note_off_c, 9, 54, 1271, 87719, Note_off_c, 6, 79, 1021, 87719, Note_off_c, 9, 36, 1071, 87719, Note_off_c, 9, 42, 1271, 87720, Note_on_c, 1, 39, 931, 87720, Note_on_c, 6, 80, 981, 87720, Note_on_c, 9, 54, 681, 87779, Note_off_c, 1, 39, 931, 87828, Note_off_c, 2, 46, 1131, 87832, Note_on_c, 2, 51, 1081, 87838, Note_off_c, 9, 54, 681, 87839, Note_off_c, 6, 80, 981, 87840, Note_on_c, 1, 39, 981, 87840, Note_on_c, 6, 79, 931, 87840, Note_on_c, 9, 54, 1271, 87840, Note_on_c, 9, 38, 1131, 87840, Note_on_c, 9, 42, 1271, 87938, Note_off_c, 1, 39, 981, 87958, Note_off_c, 9, 54, 1271, 87959, Note_off_c, 6, 79, 931, 87959, Note_off_c, 9, 42, 1271, 87960, Note_on_c, 6, 80, 931, 87960, Note_on_c, 9, 54, 731, 87989, Note_off_c, 0, 70, 1101, 88064, Note_off_c, 2, 51, 1081, 88067, Note_on_c, 2, 46, 1161, 88078, Note_off_c, 9, 54, 731, 88079, Note_off_c, 6, 80, 931, 88079, Note_off_c, 9, 38, 1131, 88080, Note_on_c, 1, 39, 981, 88080, Note_on_c, 6, 79, 1061, 88080, Note_on_c, 9, 54, 1271, 88080, Note_on_c, 9, 42, 1271, 88092, Note_on_c, 0, 70, 1041, 88139, Note_off_c, 1, 39, 981, 88198, Note_off_c, 9, 54, 1271, 88199, Note_off_c, 6, 79, 1061, 88199, Note_off_c, 9, 42, 1271, 88200, Note_on_c, 1, 39, 1071, 88200, Note_on_c, 6, 80, 1021, 88200, Note_on_c, 9, 54, 841, 88200, Note_on_c, 9, 36, 1071, 88248, Note_off_c, 0, 70, 1041, 88298, Note_off_c, 1, 39, 1071, 88299, Note_off_c, 2, 46, 1161, 88318, Note_off_c, 9, 54, 841, 88319, Note_off_c, 6, 80, 1021, 88319, Note_off_c, 9, 36, 1071, 88320, Note_on_c, 6, 82, 1151, 88320, Note_on_c, 6, 87, 1061, 88320, Note_on_c, 9, 54, 1271, 88320, Note_on_c, 9, 42, 1271, 88337, Note_on_c, 0, 70, 1131, 88438, Note_off_c, 9, 54, 1271, 88439, Note_off_c, 6, 82, 1151, 88439, Note_off_c, 6, 87, 1061, 88439, Note_off_c, 9, 42, 1271, 88440, Note_on_c, 1, 39, 981, 88440, Note_on_c, 6, 80, 981, 88440, Note_on_c, 9, 54, 691, 88440, Note_on_c, 9, 36, 801, 88499, Note_off_c, 1, 39, 981, 88556, Note_off_c, 0, 70, 1131, 88558, Note_off_c, 9, 54, 691, 88559, Note_off_c, 6, 80, 981, 88559, Note_off_c, 9, 36, 801, 88560, Note_on_c, 1, 39, 1071, 88560, Note_on_c, 2, 46, 1161, 88560, Note_on_c, 6, 79, 1021, 88560, Note_on_c, 9, 54, 1271, 88560, Note_on_c, 9, 36, 931, 88560, Note_on_c, 9, 42, 1271, 88678, Note_off_c, 1, 39, 1071, 88678, Note_off_c, 9, 54, 1271, 88679, Note_off_c, 6, 79, 1021, 88679, Note_off_c, 9, 36, 931, 88679, Note_off_c, 9, 42, 1271, 88680, Note_on_c, 6, 80, 931, 88680, Note_on_c, 9, 54, 641, 88685, Note_on_c, 0, 70, 991, 88787, Note_off_c, 2, 46, 1161, 88797, Note_on_c, 2, 51, 1101, 88798, Note_off_c, 9, 54, 641, 88799, Note_off_c, 6, 80, 931, 88800, Note_on_c, 1, 34, 1131, 88800, Note_on_c, 6, 79, 891, 88800, Note_on_c, 9, 54, 1271, 88800, Note_on_c, 9, 38, 1191, 88800, Note_on_c, 9, 42, 1271, 88918, Note_off_c, 9, 54, 1271, 88919, Note_off_c, 6, 79, 891, 88919, Note_off_c, 9, 42, 1271, 88920, Note_on_c, 6, 80, 811, 88920, Note_on_c, 9, 54, 571, 88940, Note_off_c, 0, 70, 991, 88987, Note_off_c, 1, 34, 1131, 89038, Note_off_c, 9, 54, 571, 89039, Note_off_c, 6, 80, 811, 89040, Note_on_c, 1, 37, 891, 89040, Note_on_c, 6, 79, 931, 89040, Note_on_c, 9, 54, 1271, 89040, Note_on_c, 9, 42, 1271, 89044, Note_on_c, 2, 46, 1131, 89053, Note_off_c, 2, 51, 1101, 89064, Note_on_c, 0, 70, 1101, 89158, Note_off_c, 9, 54, 1271, 89159, Note_off_c, 6, 79, 931, 89159, Note_off_c, 9, 38, 1191, 89159, Note_off_c, 9, 42, 1271, 89160, Note_on_c, 6, 80, 1021, 89160, Note_on_c, 9, 54, 731, 89207, Note_off_c, 1, 37, 891, 89273, Note_off_c, 2, 46, 1131, 89276, Note_on_c, 2, 39, 1171, 89278, Note_off_c, 9, 54, 731, 89279, Note_off_c, 6, 80, 1021, 89280, Note_on_c, 1, 39, 1021, 89280, Note_on_c, 6, 82, 1261, 89280, Note_on_c, 6, 87, 1061, 89280, Note_on_c, 9, 54, 1271, 89280, Note_on_c, 9, 36, 1021, 89280, Note_on_c, 9, 42, 1271, 89348, Note_off_c, 1, 39, 1021, 89398, Note_off_c, 9, 54, 1271, 89399, Note_off_c, 6, 82, 1261, 89399, Note_off_c, 6, 87, 1061, 89399, Note_off_c, 9, 42, 1271, 89400, Note_on_c, 1, 39, 931, 89400, Note_on_c, 6, 80, 1021, 89400, Note_on_c, 9, 54, 721, 89484, Note_off_c, 0, 70, 1101, 89488, Note_off_c, 1, 39, 931, 89518, Note_off_c, 9, 54, 721, 89519, Note_off_c, 6, 80, 1021, 89519, Note_off_c, 9, 36, 1021, 89520, Note_on_c, 2, 46, 1191, 89520, Note_on_c, 6, 79, 981, 89520, Note_on_c, 9, 54, 1271, 89520, Note_on_c, 9, 42, 1271, 89533, Note_off_c, 2, 39, 1171, 89541, Note_on_c, 0, 75, 1061, 89638, Note_off_c, 9, 54, 1271, 89639, Note_off_c, 6, 79, 981, 89639, Note_off_c, 9, 42, 1271, 89640, Note_on_c, 1, 39, 931, 89640, Note_on_c, 6, 80, 1021, 89640, Note_on_c, 9, 54, 591, 89640, Note_on_c, 9, 36, 801, 89690, Note_off_c, 1, 39, 931, 89734, Note_off_c, 2, 46, 1191, 89751, Note_on_c, 2, 51, 1021, 89758, Note_off_c, 9, 54, 591, 89759, Note_off_c, 6, 80, 1021, 89759, Note_off_c, 9, 36, 801, 89760, Note_on_c, 1, 39, 1021, 89760, Note_on_c, 6, 79, 981, 89760, Note_on_c, 9, 54, 1271, 89760, Note_on_c, 9, 38, 1131, 89760, Note_on_c, 9, 42, 1271, 89821, Note_off_c, 0, 75, 1061, 89858, Note_off_c, 1, 39, 1021, 89878, Note_off_c, 9, 54, 1271, 89879, Note_off_c, 6, 79, 981, 89879, Note_off_c, 9, 42, 1271, 89880, Note_on_c, 6, 80, 891, 89880, Note_on_c, 9, 54, 761, 89989, Note_on_c, 0, 75, 1071, 89989, Note_on_c, 2, 46, 1101, 89998, Note_off_c, 9, 54, 761, 89999, Note_off_c, 6, 80, 891, 89999, Note_off_c, 9, 38, 1131, 90000, Note_on_c, 1, 39, 891, 90000, Note_on_c, 6, 79, 981, 90000, Note_on_c, 9, 54, 1271, 90000, Note_on_c, 9, 42, 1271, 90005, Note_off_c, 2, 51, 1021, 90049, Note_off_c, 1, 39, 891, 90118, Note_off_c, 9, 54, 1271, 90119, Note_off_c, 6, 79, 981, 90119, Note_off_c, 9, 42, 1271, 90120, Note_on_c, 1, 39, 1071, 90120, Note_on_c, 6, 80, 1021, 90120, Note_on_c, 9, 54, 781, 90120, Note_on_c, 9, 36, 1071, 90138, Note_off_c, 2, 46, 1101, 90218, Note_off_c, 1, 39, 1071, 90238, Note_off_c, 9, 54, 781, 90239, Note_off_c, 6, 80, 1021, 90239, Note_off_c, 9, 36, 1071, 90240, Note_on_c, 6, 87, 1061, 90240, Note_on_c, 6, 82, 1111, 90240, Note_on_c, 9, 54, 1271, 90240, Note_on_c, 9, 42, 1271, 90358, Note_off_c, 9, 54, 1271, 90359, Note_off_c, 6, 87, 1061, 90359, Note_off_c, 6, 82, 1111, 90359, Note_off_c, 9, 42, 1271, 90360, Note_on_c, 1, 39, 1021, 90360, Note_on_c, 6, 80, 1021, 90360, Note_on_c, 9, 54, 701, 90360, Note_on_c, 9, 36, 1021, 90399, Note_off_c, 1, 39, 1021, 90478, Note_on_c, 2, 46, 1191, 90478, Note_off_c, 9, 54, 701, 90479, Note_off_c, 6, 80, 1021, 90479, Note_off_c, 9, 36, 1021, 90480, Note_on_c, 1, 39, 1021, 90480, Note_on_c, 6, 79, 981, 90480, Note_on_c, 9, 54, 1271, 90480, Note_on_c, 9, 42, 1271, 90480, Note_on_c, 9, 36, 1071, 90598, Note_off_c, 1, 39, 1021, 90598, Note_off_c, 9, 54, 1271, 90599, Note_off_c, 6, 79, 981, 90599, Note_off_c, 9, 42, 1271, 90599, Note_off_c, 9, 36, 1071, 90600, Note_on_c, 6, 80, 981, 90600, Note_on_c, 9, 54, 611, 90643, Note_off_c, 0, 75, 1071, 90718, Note_on_c, 2, 51, 1041, 90718, Note_off_c, 9, 54, 611, 90719, Note_off_c, 6, 80, 981, 90720, Note_on_c, 1, 34, 1071, 90720, Note_off_c, 2, 46, 1191, 90720, Note_on_c, 6, 79, 981, 90720, Note_on_c, 9, 54, 1271, 90720, Note_on_c, 9, 38, 1131, 90720, Note_on_c, 9, 42, 1271, 90838, Note_off_c, 9, 54, 1271, 90839, Note_off_c, 6, 79, 981, 90839, Note_off_c, 9, 42, 1271, 90840, Note_on_c, 6, 80, 981, 90840, Note_on_c, 9, 54, 601, 90897, Note_off_c, 1, 34, 1071, 90958, Note_off_c, 9, 54, 601, 90959, Note_off_c, 6, 80, 981, 90960, Note_on_c, 1, 37, 891, 90960, Note_on_c, 6, 79, 931, 90960, Note_on_c, 9, 54, 1271, 90960, Note_on_c, 9, 42, 1271, 90964, Note_on_c, 2, 46, 1131, 90972, Note_on_c, 0, 71, 1041, 90979, Note_off_c, 2, 51, 1041, 91078, Note_off_c, 9, 54, 1271, 91079, Note_off_c, 6, 79, 931, 91079, Note_off_c, 9, 38, 1131, 91079, Note_off_c, 9, 42, 1271, 91080, Note_on_c, 6, 80, 1061, 91080, Note_on_c, 9, 54, 801, 91118, Note_off_c, 1, 37, 891, 91166, Note_off_c, 0, 71, 1041, 91185, Note_off_c, 2, 46, 1131, 91198, Note_on_c, 2, 39, 1221, 91198, Note_off_c, 9, 54, 801, 91199, Note_off_c, 6, 80, 1061, 91200, Note_on_c, 1, 39, 1021, 91200, Note_on_c, 6, 87, 1111, 91200, Note_on_c, 6, 85, 1111, 91200, Note_on_c, 9, 54, 1271, 91200, Note_on_c, 9, 36, 931, 91200, Note_on_c, 9, 42, 1271, 91208, Note_on_c, 0, 73, 1061, 91269, Note_off_c, 1, 39, 1021, 91318, Note_off_c, 9, 54, 1271, 91319, Note_off_c, 6, 87, 1111, 91319, Note_off_c, 6, 85, 1111, 91319, Note_off_c, 9, 42, 1271, 91320, Note_on_c, 1, 39, 891, 91320, Note_on_c, 6, 82, 1061, 91320, Note_on_c, 9, 54, 811, 91428, Note_off_c, 1, 39, 891, 91436, Note_on_c, 2, 46, 1161, 91438, Note_off_c, 9, 54, 811, 91439, Note_off_c, 2, 39, 1221, 91439, Note_off_c, 6, 82, 1061, 91439, Note_off_c, 9, 36, 931, 91440, Note_on_c, 6, 80, 931, 91440, Note_on_c, 9, 54, 1271, 91440, Note_on_c, 9, 42, 1271, 91445, Note_off_c, 0, 73, 1061, 91487, Note_on_c, 0, 73, 1001, 91558, Note_off_c, 9, 54, 1271, 91559, Note_off_c, 6, 80, 931, 91559, Note_off_c, 9, 42, 1271, 91560, Note_on_c, 1, 39, 1071, 91560, Note_on_c, 6, 82, 851, 91560, Note_on_c, 9, 54, 821, 91560, Note_on_c, 9, 36, 801, 91609, Note_off_c, 1, 39, 1071, 91640, Note_off_c, 2, 46, 1161, 91667, Note_on_c, 2, 51, 1041, 91678, Note_off_c, 9, 54, 821, 91679, Note_off_c, 6, 82, 851, 91679, Note_off_c, 9, 36, 801, 91680, Note_on_c, 1, 39, 1021, 91680, Note_on_c, 6, 80, 981, 91680, Note_on_c, 9, 54, 1271, 91680, Note_on_c, 9, 38, 1131, 91680, Note_on_c, 9, 42, 1271, 91727, Note_off_c, 0, 73, 1001, 91778, Note_off_c, 1, 39, 1021, 91798, Note_off_c, 9, 54, 1271, 91799, Note_off_c, 6, 80, 981, 91799, Note_off_c, 9, 42, 1271, 91800, Note_on_c, 6, 82, 1061, 91800, Note_on_c, 9, 54, 711, 91888, Note_off_c, 2, 51, 1041, 91897, Note_on_c, 0, 73, 951, 91900, Note_on_c, 2, 46, 1101, 91918, Note_off_c, 9, 54, 711, 91919, Note_off_c, 6, 82, 1061, 91919, Note_off_c, 9, 38, 1131, 91920, Note_on_c, 1, 39, 1021, 91920, Note_on_c, 6, 80, 981, 91920, Note_on_c, 9, 54, 1271, 91920, Note_on_c, 9, 42, 1271, 91970, Note_off_c, 1, 39, 1021, 92038, Note_off_c, 9, 54, 1271, 92039, Note_off_c, 6, 80, 981, 92039, Note_off_c, 9, 42, 1271, 92040, Note_on_c, 1, 39, 931, 92040, Note_on_c, 6, 82, 1021, 92040, Note_on_c, 9, 54, 561, 92040, Note_on_c, 9, 36, 981, 92100, Note_off_c, 0, 73, 951, 92138, Note_off_c, 1, 39, 931, 92151, Note_off_c, 2, 46, 1101, 92158, Note_off_c, 9, 54, 561, 92159, Note_off_c, 6, 82, 1021, 92159, Note_off_c, 9, 36, 981, 92160, Note_on_c, 6, 87, 1261, 92160, Note_on_c, 6, 85, 1201, 92160, Note_on_c, 9, 54, 1271, 92160, Note_on_c, 9, 42, 1271, 92164, Note_on_c, 0, 73, 871, 92278, Note_off_c, 9, 54, 1271, 92279, Note_off_c, 6, 87, 1261, 92279, Note_off_c, 6, 85, 1201, 92279, Note_off_c, 9, 42, 1271, 92280, Note_on_c, 1, 39, 1021, 92280, Note_on_c, 6, 82, 1021, 92280, Note_on_c, 9, 54, 641, 92280, Note_on_c, 9, 36, 1071, 92329, Note_off_c, 1, 39, 1021, 92376, Note_off_c, 0, 73, 871, 92386, Note_on_c, 2, 46, 1131, 92398, Note_off_c, 9, 54, 641, 92399, Note_off_c, 6, 82, 1021, 92399, Note_off_c, 9, 36, 1071, 92400, Note_on_c, 1, 39, 1021, 92400, Note_on_c, 6, 80, 891, 92400, Note_on_c, 9, 54, 1241, 92400, Note_on_c, 9, 42, 1271, 92400, Note_on_c, 9, 36, 1021, 92489, Note_on_c, 0, 73, 1171, 92498, Note_off_c, 1, 39, 1021, 92518, Note_off_c, 9, 54, 1241, 92519, Note_off_c, 6, 80, 891, 92519, Note_off_c, 9, 42, 1271, 92519, Note_off_c, 9, 36, 1021, 92520, Note_on_c, 6, 82, 981, 92520, Note_on_c, 9, 54, 811, 92612, Note_off_c, 2, 46, 1131, 92631, Note_on_c, 2, 51, 951, 92638, Note_off_c, 9, 54, 811, 92639, Note_off_c, 6, 82, 981, 92640, Note_on_c, 1, 34, 1071, 92640, Note_on_c, 6, 80, 1021, 92640, Note_on_c, 9, 54, 1271, 92640, Note_on_c, 9, 38, 1131, 92640, Note_on_c, 9, 42, 1271, 92737, Note_off_c, 0, 73, 1171, 92758, Note_off_c, 9, 54, 1271, 92759, Note_off_c, 6, 80, 1021, 92759, Note_off_c, 9, 42, 1271, 92760, Note_on_c, 6, 82, 931, 92760, Note_on_c, 9, 54, 701, 92827, Note_off_c, 1, 34, 1071, 92872, Note_off_c, 2, 51, 951, 92878, Note_on_c, 2, 46, 1071, 92878, Note_off_c, 9, 54, 701, 92879, Note_off_c, 6, 82, 931, 92880, Note_on_c, 1, 37, 931, 92880, Note_on_c, 6, 80, 931, 92880, Note_on_c, 9, 54, 1271, 92880, Note_on_c, 9, 42, 1271, 92904, Note_on_c, 0, 73, 1081, 92998, Note_off_c, 9, 54, 1271, 92999, Note_off_c, 6, 80, 931, 92999, Note_off_c, 9, 38, 1131, 92999, Note_off_c, 9, 42, 1271, 93000, Note_on_c, 6, 82, 931, 93000, Note_on_c, 9, 54, 671, 93047, Note_off_c, 1, 37, 931, 93071, Note_off_c, 0, 73, 1081, 93105, Note_off_c, 2, 46, 1071, 93110, Note_on_c, 2, 39, 1081, 93118, Note_off_c, 9, 54, 671, 93119, Note_off_c, 6, 82, 931, 93120, Note_on_c, 1, 39, 1071, 93120, Note_on_c, 6, 87, 1151, 93120, Note_on_c, 6, 85, 1151, 93120, Note_on_c, 9, 54, 1271, 93120, Note_on_c, 9, 36, 1131, 93120, Note_on_c, 9, 42, 1271, 93133, Note_on_c, 0, 73, 1041, 93198, Note_off_c, 1, 39, 1071, 93238, Note_off_c, 9, 54, 1271, 93239, Note_off_c, 6, 87, 1151, 93239, Note_off_c, 6, 85, 1151, 93239, Note_off_c, 9, 42, 1271, 93240, Note_on_c, 1, 39, 891, 93240, Note_on_c, 6, 82, 981, 93240, Note_on_c, 9, 54, 731, 93327, Note_off_c, 0, 73, 1041, 93348, Note_off_c, 1, 39, 891, 93356, Note_on_c, 2, 46, 1131, 93358, Note_off_c, 9, 54, 731, 93359, Note_off_c, 6, 82, 981, 93359, Note_off_c, 9, 36, 1131, 93360, Note_on_c, 6, 80, 981, 93360, Note_on_c, 9, 54, 1191, 93360, Note_on_c, 9, 42, 1271, 93366, Note_off_c, 2, 39, 1081, 93424, Note_on_c, 0, 78, 1171, 93478, Note_off_c, 9, 54, 1191, 93479, Note_off_c, 6, 80, 981, 93479, Note_off_c, 9, 42, 1271, 93480, Note_on_c, 1, 39, 981, 93480, Note_on_c, 6, 82, 891, 93480, Note_on_c, 9, 54, 621, 93480, Note_on_c, 9, 36, 891, 93529, Note_off_c, 1, 39, 981, 93577, Note_off_c, 2, 46, 1131, 93594, Note_on_c, 2, 51, 901, 93598, Note_off_c, 9, 54, 621, 93599, Note_off_c, 6, 82, 891, 93599, Note_off_c, 9, 36, 891, 93600, Note_on_c, 1, 39, 1021, 93600, Note_on_c, 6, 80, 981, 93600, Note_on_c, 9, 54, 1271, 93600, Note_on_c, 9, 38, 1191, 93600, Note_on_c, 9, 42, 1271, 93688, Note_off_c, 1, 39, 1021, 93708, Note_off_c, 0, 78, 1171, 93718, Note_off_c, 9, 54, 1271, 93719, Note_off_c, 6, 80, 981, 93719, Note_off_c, 9, 42, 1271, 93720, Note_on_c, 6, 82, 891, 93720, Note_on_c, 9, 54, 671, 93826, Note_off_c, 2, 51, 901, 93834, Note_on_c, 2, 46, 1011, 93838, Note_off_c, 9, 54, 671, 93839, Note_on_c, 0, 78, 1201, 93839, Note_off_c, 6, 82, 891, 93839, Note_off_c, 9, 38, 1191, 93840, Note_on_c, 1, 39, 1071, 93840, Note_on_c, 6, 80, 981, 93840, Note_on_c, 9, 54, 1271, 93840, Note_on_c, 9, 42, 1271, 93909, Note_off_c, 1, 39, 1071, 93958, Note_off_c, 9, 54, 1271, 93959, Note_off_c, 6, 80, 981, 93959, Note_off_c, 9, 42, 1271, 93960, Note_on_c, 1, 39, 1021, 93960, Note_on_c, 6, 82, 931, 93960, Note_on_c, 9, 54, 641, 93960, Note_on_c, 9, 36, 931, 94032, Note_off_c, 2, 46, 1011, 94039, Note_off_c, 1, 39, 1021, 94078, Note_off_c, 9, 54, 641, 94079, Note_off_c, 6, 82, 931, 94079, Note_off_c, 9, 36, 931, 94080, Note_on_c, 6, 85, 1151, 94080, Note_on_c, 6, 87, 1061, 94080, Note_on_c, 9, 54, 1271, 94080, Note_on_c, 9, 42, 1271, 94198, Note_off_c, 9, 54, 1271, 94199, Note_off_c, 6, 85, 1151, 94199, Note_off_c, 6, 87, 1061, 94199, Note_off_c, 9, 42, 1271, 94200, Note_on_c, 1, 39, 891, 94200, Note_on_c, 6, 82, 1021, 94200, Note_on_c, 9, 54, 591, 94200, Note_on_c, 9, 36, 721, 94240, Note_off_c, 1, 39, 891, 94318, Note_off_c, 9, 54, 591, 94319, Pitch_bend_c, 0, 7957
1, 94319, Note_off_c, 6, 82, 1021, 94319, Note_off_c, 9, 36, 721, 94320, Note_on_c, 1, 39, 1071, 94320, Note_on_c, 6, 80, 891, 94320, Note_on_c, 9, 54, 1131, 94320, Note_on_c, 9, 36, 1131, 94320, Note_on_c, 9, 42, 1271, 94322, Pitch_bend_c, 0, 7840
1, 94332, Pitch_bend_c, 0, 7021
1, 94335, Pitch_bend_c, 0, 7021
1, 94335, Note_on_c, 2, 46, 1131, 94348, Pitch_bend_c, 0, 5734
1, 94350, Pitch_bend_c, 0, 5968
1, 94364, Pitch_bend_c, 0, 4447
1, 94367, Pitch_bend_c, 0, 5032
1, 94382, Pitch_bend_c, 0, 3862
1, 94397, Pitch_bend_c, 0, 2809
1, 94399, Pitch_bend_c, 0, 3628
1, 94399, Pitch_bend_c, 0, 3160
1, 94399, Note_off_c, 0, 78, 1201, 94412, Pitch_bend_c, 0, 1990
1, 94425, Pitch_bend_c, 0, 3394
1, 94427, Pitch_bend_c, 0, 1522
1, 94438, Note_off_c, 9, 54, 1131, 94439, Pitch_bend_c, 0, 4213
1, 94439, Note_off_c, 6, 80, 891, 94439, Note_off_c, 9, 36, 1131, 94439, Note_off_c, 9, 42, 1271, 94440, Note_on_c, 6, 82, 981, 94440, Note_on_c, 9, 54, 631, 94448, Note_off_c, 1, 39, 1071, 94454, Pitch_bend_c, 0, 5149
1, 94457, Pitch_bend_c, 0, 1990
1, 94469, Pitch_bend_c, 0, 6085
1, 94472, Pitch_bend_c, 0, 2809
1, 94486, Pitch_bend_c, 0, 7021
1, 94488, Pitch_bend_c, 0, 3745
1, 94501, Pitch_bend_c, 0, 7840
1, 94504, Pitch_bend_c, 0, 4564
1, 94516, Pitch_bend_c, 0, 8192
1, 94519, Pitch_bend_c, 0, 5266
1, 94534, Pitch_bend_c, 0, 6436
1, 94538, Note_off_c, 2, 46, 1131, 94549, Pitch_bend_c, 0, 8192
1, 94558, Note_on_c, 0, 75, 1131, 94558, Note_on_c, 0, 70, 1131, 94558, Note_off_c, 9, 54, 631, 94559, Note_off_c, 6, 82, 981, 94560, Note_on_c, 1, 34, 1021, 94560, Note_on_c, 6, 80, 1021, 94560, Note_on_c, 9, 54, 1191, 94560, Note_on_c, 9, 42, 1271, 94560, Note_on_c, 9, 38, 1131, 94566, Note_on_c, 2, 51, 951, 94678, Note_off_c, 9, 54, 1191, 94679, Note_off_c, 6, 80, 1021, 94679, Note_off_c, 9, 42, 1271, 94679, Note_off_c, 9, 38, 1131, 94680, Note_on_c, 6, 82, 981, 94680, Note_on_c, 9, 54, 761, 94738, Note_off_c, 1, 34, 1021, 94763, Note_off_c, 0, 75, 1131, 94763, Note_off_c, 0, 70, 1131, 94777, Note_off_c, 2, 51, 951, 94795, Note_on_c, 0, 75, 941, 94795, Note_on_c, 0, 70, 941, 94795, Note_on_c, 2, 46, 1131, 94798, Note_off_c, 9, 54, 761, 94799, Note_off_c, 6, 82, 981, 94800, Note_on_c, 1, 37, 981, 94800, Note_on_c, 6, 80, 1021, 94800, Note_on_c, 9, 54, 1191, 94800, Note_on_c, 9, 42, 1271, 94800, Note_on_c, 9, 38, 1131, 94918, Note_off_c, 9, 54, 1191, 94919, Note_off_c, 6, 80, 1021, 94919, Note_off_c, 9, 42, 1271, 94919, Note_off_c, 9, 38, 1131, 94920, Note_on_c, 6, 82, 1061, 94920, Note_on_c, 9, 54, 701, 94957, Note_off_c, 1, 37, 981, 94992, Note_off_c, 2, 46, 1131, 95003, Note_off_c, 0, 75, 941, 95003, Note_off_c, 0, 70, 941, 95038, Note_off_c, 9, 54, 701, 95039, Note_off_c, 6, 82, 1061, 95040, Control_c, 2, 76, 127
1, 95040, Note_on_c, 1, 34, 981, 95040, Note_on_c, 2, 62, 1071, 95040, Note_on_c, 2, 53, 1071, 95040, Note_on_c, 2, 46, 1071, 95040, Note_on_c, 6, 86, 981, 95040, Note_on_c, 6, 82, 981, 95040, Note_on_c, 9, 36, 931, 95040, Note_on_c, 9, 49, 1131, 95040, Note_on_c, 9, 52, 721, 95040, Note_on_c, 9, 55, 591, 95041, Note_on_c, 0, 70, 1191, 95043, Note_on_c, 3, 62, 1131, 95044, Note_on_c, 0, 77, 1101, 95067, Control_c, 6, 64, 127
1, 95139, Note_off_c, 6, 82, 981, 95159, Note_off_c, 9, 49, 1131, 95159, Note_off_c, 9, 52, 721, 95159, Note_off_c, 9, 55, 591, 95160, Note_on_c, 6, 77, 851, 95198, Note_off_c, 6, 86, 981, 95247, Note_off_c, 1, 34, 981, 95279, Note_off_c, 2, 62, 1071, 95279, Note_off_c, 2, 53, 1071, 95279, Note_off_c, 2, 46, 1071, 95279, Note_off_c, 9, 36, 931, 95280, Note_on_c, 1, 34, 801, 95280, Note_on_c, 6, 82, 681, 95359, Note_off_c, 6, 82, 681, 95366, Note_off_c, 6, 77, 851, 95400, Note_on_c, 6, 84, 981, 95400, Note_on_c, 6, 82, 851, 95438, Note_off_c, 1, 34, 801, 95510, Note_off_c, 3, 62, 1131, 95520, Note_on_c, 1, 34, 761, 95520, Note_on_c, 2, 62, 801, 95520, Note_on_c, 2, 53, 601, 95520, Note_on_c, 2, 46, 501, 95520, Note_on_c, 9, 36, 721, 95520, Note_on_c, 9, 51, 621, 95524, Note_on_c, 3, 60, 1041, 95639, Note_off_c, 2, 62, 801, 95639, Note_off_c, 2, 53, 601, 95639, Note_off_c, 2, 46, 501, 95639, Note_off_c, 9, 36, 721, 95639, Note_off_c, 9, 51, 621, 95640, Note_on_c, 3, 62, 871, 95640, Note_on_c, 6, 77, 891, 95676, Note_off_c, 6, 82, 851, 95697, Note_off_c, 1, 34, 761, 95705, Note_off_c, 6, 84, 981, 95738, Note_off_c, 6, 77, 891, 95758, Note_off_c, 3, 62, 871, 95760, Note_on_c, 1, 34, 761, 95760, Note_on_c, 2, 62, 761, 95760, Note_on_c, 2, 53, 621, 95760, Note_on_c, 2, 46, 511, 95760, Note_on_c, 6, 82, 641, 95760, Note_on_c, 9, 51, 621, 95838, Note_off_c, 6, 82, 641, 95879, Note_off_c, 2, 62, 761, 95879, Note_off_c, 2, 53, 621, 95879, Note_off_c, 2, 46, 511, 95879, Note_off_c, 9, 51, 621, 95880, Note_on_c, 3, 62, 971, 95880, Note_on_c, 6, 77, 891, 95880, Note_on_c, 9, 36, 531, 95927, Note_off_c, 1, 34, 761, 95979, Note_off_c, 3, 60, 1041, 95988, Note_off_c, 6, 77, 891, 95998, Note_off_c, 3, 62, 971, 95999, Note_off_c, 9, 36, 531, 96000, Note_on_c, 1, 34, 931, 96000, Note_on_c, 2, 62, 801, 96000, Note_on_c, 2, 53, 571, 96000, Note_on_c, 2, 46, 501, 96000, Note_on_c, 6, 86, 981, 96000, Note_on_c, 6, 82, 1131, 96000, Note_on_c, 9, 51, 721, 96000, Note_on_c, 9, 36, 891, 96003, Note_on_c, 3, 58, 1161, 96098, Note_off_c, 6, 82, 1131, 96119, Note_off_c, 2, 62, 801, 96119, Note_off_c, 2, 53, 571, 96119, Note_off_c, 2, 46, 501, 96119, Note_off_c, 9, 51, 721, 96119, Note_off_c, 9, 36, 891, 96120, Note_on_c, 3, 62, 951, 96120, Note_on_c, 6, 77, 891, 96138, Note_off_c, 6, 86, 981, 96167, Note_off_c, 1, 34, 931, 96238, Note_off_c, 3, 62, 951, 96238, Note_off_c, 6, 77, 891, 96240, Note_on_c, 1, 34, 891, 96240, Note_on_c, 2, 62, 761, 96240, Note_on_c, 2, 53, 571, 96240, Note_on_c, 2, 46, 481, 96240, Note_on_c, 6, 82, 851, 96240, Note_on_c, 9, 51, 621, 96240, Note_on_c, 9, 36, 761, 96328, Note_off_c, 6, 82, 851, 96359, Note_off_c, 2, 62, 761, 96359, Note_off_c, 2, 53, 571, 96359, Note_off_c, 2, 46, 481, 96359, Note_off_c, 9, 51, 621, 96359, Note_off_c, 9, 36, 761, 96360, Note_on_c, 3, 62, 811, 96360, Note_on_c, 6, 84, 1021, 96360, Note_on_c, 6, 82, 801, 96398, Note_off_c, 1, 34, 891, 96472, Note_off_c, 3, 58, 1161, 96478, Note_off_c, 3, 62, 811, 96480, Note_on_c, 1, 34, 891, 96480, Note_on_c, 2, 62, 721, 96480, Note_on_c, 2, 53, 681, 96480, Note_on_c, 2, 46, 551, 96480, Note_on_c, 9, 51, 641, 96480, Note_on_c, 9, 36, 851, 96487, Note_on_c, 3, 60, 1071, 96577, Note_off_c, 6, 82, 801, 96599, Note_off_c, 2, 62, 721, 96599, Note_off_c, 2, 53, 681, 96599, Note_off_c, 2, 46, 551, 96599, Note_off_c, 9, 51, 641, 96599, Note_off_c, 9, 36, 851, 96600, Note_on_c, 3, 62, 731, 96600, Note_on_c, 6, 77, 891, 96637, Note_off_c, 1, 34, 891, 96675, Note_off_c, 6, 84, 1021, 96699, Note_off_c, 6, 77, 891, 96718, Note_off_c, 3, 62, 731, 96720, Note_on_c, 1, 34, 891, 96720, Note_on_c, 2, 62, 641, 96720, Note_on_c, 2, 53, 621, 96720, Note_on_c, 2, 46, 501, 96720, Note_on_c, 6, 82, 761, 96720, Note_on_c, 9, 51, 851, 96720, Note_on_c, 9, 36, 891, 96808, Note_off_c, 6, 82, 761, 96839, Note_off_c, 2, 62, 641, 96839, Note_off_c, 2, 53, 621, 96839, Note_off_c, 2, 46, 501, 96839, Note_off_c, 9, 51, 851, 96839, Note_off_c, 9, 36, 891, 96840, Note_on_c, 3, 62, 681, 96840, Note_on_c, 6, 77, 931, 96878, Note_off_c, 1, 34, 891, 96929, Note_off_c, 6, 77, 931, 96956, Note_off_c, 3, 60, 1071, 96958, Note_off_c, 3, 62, 681, 96960, Note_on_c, 1, 34, 851, 96960, Note_on_c, 2, 62, 761, 96960, Note_on_c, 2, 53, 621, 96960, Note_on_c, 2, 46, 511, 96960, Note_on_c, 6, 86, 1071, 96960, Note_on_c, 6, 82, 1131, 96960, Note_on_c, 9, 51, 761, 96960, Note_on_c, 9, 36, 801, 96971, Note_on_c, 3, 58, 1071, 97058, Note_off_c, 6, 82, 1131, 97079, Note_off_c, 2, 62, 761, 97079, Note_off_c, 2, 53, 621, 97079, Note_off_c, 2, 46, 511, 97079, Note_off_c, 9, 51, 761, 97079, Note_off_c, 9, 36, 801, 97080, Note_on_c, 3, 62, 771, 97080, Note_on_c, 6, 77, 981, 97118, Note_off_c, 1, 34, 851, 97127, Note_off_c, 6, 86, 1071, 97198, Note_off_c, 3, 62, 771, 97200, Note_on_c, 1, 34, 891, 97200, Note_on_c, 2, 62, 721, 97200, Note_on_c, 2, 53, 641, 97200, Note_on_c, 2, 46, 551, 97200, Note_on_c, 6, 82, 931, 97200, Note_on_c, 9, 51, 851, 97200, Note_on_c, 9, 36, 891, 97208, Note_off_c, 6, 77, 981, 97278, Note_off_c, 6, 82, 931, 97319, Note_off_c, 2, 62, 721, 97319, Note_off_c, 2, 53, 641, 97319, Note_off_c, 2, 46, 551, 97319, Note_off_c, 9, 51, 851, 97319, Note_off_c, 9, 36, 891, 97320, Note_on_c, 3, 62, 671, 97320, Note_on_c, 6, 84, 1071, 97320, Note_on_c, 6, 82, 851, 97347, Note_off_c, 1, 34, 891, 97425, Note_off_c, 3, 58, 1071, 97438, Note_off_c, 3, 62, 671, 97439, Note_on_c, 3, 60, 991, 97440, Note_on_c, 1, 34, 931, 97440, Note_on_c, 2, 62, 761, 97440, Note_on_c, 2, 53, 721, 97440, Note_on_c, 2, 46, 641, 97440, Note_on_c, 9, 51, 891, 97440, Note_on_c, 9, 36, 891, 97559, Note_off_c, 2, 62, 761, 97559, Note_off_c, 2, 53, 721, 97559, Note_off_c, 2, 46, 641, 97559, Note_off_c, 9, 51, 891, 97559, Note_off_c, 9, 36, 891, 97560, Note_on_c, 3, 62, 701, 97560, Note_on_c, 6, 77, 931, 97575, Note_off_c, 6, 82, 851, 97588, Note_off_c, 1, 34, 931, 97605, Note_off_c, 6, 84, 1071, 97648, Note_off_c, 6, 77, 931, 97678, Note_off_c, 3, 62, 701, 97680, Note_on_c, 1, 34, 851, 97680, Note_on_c, 2, 62, 801, 97680, Note_on_c, 2, 53, 851, 97680, Note_on_c, 2, 46, 681, 97680, Note_on_c, 6, 82, 721, 97680, Note_on_c, 9, 51, 931, 97680, Note_on_c, 9, 36, 931, 97758, Note_off_c, 6, 82, 721, 97799, Note_off_c, 2, 62, 801, 97799, Note_off_c, 2, 53, 851, 97799, Note_off_c, 2, 46, 681, 97799, Note_off_c, 9, 51, 931, 97799, Note_off_c, 9, 36, 931, 97800, Note_on_c, 3, 62, 741, 97800, Note_on_c, 6, 77, 931, 97818, Note_off_c, 1, 34, 851, 97903, Note_off_c, 3, 60, 991, 97918, Note_off_c, 3, 62, 741, 97918, Note_off_c, 6, 77, 931, 97920, Note_on_c, 1, 34, 891, 97920, Note_on_c, 2, 62, 931, 97920, Note_on_c, 2, 53, 761, 97920, Note_on_c, 2, 46, 721, 97920, Note_on_c, 6, 86, 1021, 97920, Note_on_c, 6, 82, 1131, 97920, Note_on_c, 9, 36, 981, 97920, Note_on_c, 9, 51, 1071, 97924, Note_on_c, 3, 58, 1071, 98018, Note_off_c, 6, 82, 1131, 98039, Note_off_c, 2, 62, 931, 98039, Note_off_c, 2, 53, 761, 98039, Note_off_c, 2, 46, 721, 98039, Note_off_c, 9, 36, 981, 98039, Note_off_c, 9, 51, 1071, 98040, Note_on_c, 3, 62, 671, 98040, Note_on_c, 6, 77, 891, 98047, Note_off_c, 6, 86, 1021, 98068, Note_off_c, 1, 34, 891, 98158, Note_off_c, 3, 62, 671, 98160, Note_on_c, 1, 34, 801, 98160, Note_on_c, 2, 62, 851, 98160, Note_on_c, 2, 53, 761, 98160, Note_on_c, 2, 46, 721, 98160, Note_on_c, 6, 82, 1021, 98160, Note_on_c, 9, 51, 1021, 98160, Note_on_c, 9, 36, 891, 98168, Note_off_c, 6, 77, 891, 98249, Note_off_c, 6, 82, 1021, 98279, Note_off_c, 2, 62, 851, 98279, Note_off_c, 2, 53, 761, 98279, Note_off_c, 2, 46, 721, 98279, Note_off_c, 9, 51, 1021, 98279, Note_off_c, 9, 36, 891, 98280, Note_on_c, 3, 62, 701, 98280, Note_on_c, 6, 82, 931, 98280, Note_on_c, 6, 84, 1021, 98316, Note_off_c, 0, 77, 1101, 98318, Note_off_c, 1, 34, 801, 98337, Note_off_c, 0, 70, 1191, 98397, Note_off_c, 3, 58, 1071, 98398, Note_off_c, 3, 62, 701, 98400, Note_on_c, 1, 34, 931, 98400, Note_on_c, 2, 62, 851, 98400, Note_on_c, 2, 53, 801, 98400, Note_on_c, 2, 46, 721, 98400, Note_on_c, 9, 51, 1021, 98400, Note_on_c, 9, 36, 981, 98404, Note_on_c, 3, 60, 1071, 98438, Note_on_c, 0, 77, 1021, 98441, Note_on_c, 0, 70, 1071, 98467, Note_off_c, 6, 82, 931, 98467, Note_off_c, 6, 84, 1021, 98519, Note_off_c, 2, 62, 851, 98519, Note_off_c, 2, 53, 801, 98519, Note_off_c, 2, 46, 721, 98519, Note_off_c, 9, 51, 1021, 98519, Note_off_c, 9, 36, 981, 98520, Note_on_c, 3, 62, 781, 98520, Note_on_c, 6, 77, 891, 98548, Note_off_c, 1, 34, 931, 98628, Note_off_c, 6, 77, 891, 98638, Note_off_c, 3, 62, 781, 98640, Note_on_c, 1, 34, 891, 98640, Note_on_c, 2, 62, 931, 98640, Note_on_c, 2, 53, 801, 98640, Note_on_c, 2, 46, 761, 98640, Note_on_c, 6, 82, 891, 98640, Note_on_c, 9, 51, 981, 98640, Note_on_c, 9, 36, 981, 98738, Note_off_c, 6, 82, 891, 98759, Note_off_c, 2, 62, 931, 98759, Note_off_c, 2, 53, 801, 98759, Note_off_c, 2, 46, 761, 98759, Note_off_c, 9, 51, 981, 98759, Note_off_c, 9, 36, 981, 98760, Note_on_c, 3, 62, 811, 98760, Note_on_c, 6, 77, 981, 98798, Note_off_c, 1, 34, 891, 98835, Control_c, 6, 64, 0
1, 98836, Note_off_c, 0, 70, 1071, 98845, Control_c, 2, 76, 0
1, 98848, Note_off_c, 0, 77, 1021, 98859, Note_off_c, 6, 77, 981, 98864, Note_off_c, 3, 60, 1071, 98878, Note_off_c, 3, 62, 811, 98880, Note_on_c, 1, 35, 1071, 98880, Note_on_c, 2, 64, 1191, 98880, Note_on_c, 2, 47, 1131, 98880, Note_on_c, 2, 57, 1131, 98880, Note_on_c, 2, 54, 981, 98880, Note_on_c, 6, 83, 1131, 98880, Note_on_c, 6, 78, 1131, 98880, Note_on_c, 9, 51, 681, 98880, Note_on_c, 9, 49, 1071, 98880, Note_on_c, 9, 57, 1131, 98880, Note_on_c, 9, 36, 1131, 98880, Note_on_c, 9, 52, 981, 98884, Note_on_c, 0, 71, 1101, 98884, Note_on_c, 0, 76, 1021, 98884, Note_on_c, 3, 61, 1101, 98944, Control_c, 6, 64, 127
1, 98998, Note_off_c, 6, 78, 1131, 98999, Note_off_c, 9, 51, 681, 98999, Note_off_c, 9, 49, 1071, 98999, Note_off_c, 9, 57, 1131, 98999, Note_off_c, 9, 36, 1131, 98999, Note_off_c, 9, 52, 981, 99000, Note_on_c, 6, 76, 981, 99018, Note_off_c, 1, 35, 1071, 99067, Note_off_c, 6, 83, 1131, 99071, Control_c, 2, 76, 127
1, 99079, Note_off_c, 6, 76, 981, 99120, Note_on_c, 1, 35, 891, 99120, Note_on_c, 6, 78, 981, 99120, Note_on_c, 9, 51, 721, 99209, Control_c, 6, 64, 0
1, 99209, Note_off_c, 6, 78, 981, 99239, Note_off_c, 2, 64, 1191, 99239, Note_off_c, 2, 47, 1131, 99239, Note_off_c, 2, 57, 1131, 99239, Note_off_c, 2, 54, 981, 99239, Note_off_c, 9, 51, 721, 99240, Note_on_c, 6, 81, 1191, 99240, Note_on_c, 6, 78, 1071, 99240, Note_on_c, 9, 36, 491, 99257, Note_off_c, 3, 61, 1101, 99268, Note_off_c, 1, 35, 891, 99278, Control_c, 6, 64, 127
1, 99359, Note_off_c, 9, 36, 491, 99360, Note_on_c, 1, 35, 931, 99360, Note_on_c, 2, 64, 721, 99360, Note_on_c, 2, 57, 641, 99360, Note_on_c, 2, 54, 641, 99360, Note_on_c, 2, 47, 621, 99360, Note_on_c, 9, 51, 891, 99360, Note_on_c, 9, 36, 931, 99367, Note_on_c, 3, 61, 941, 99467, Note_off_c, 6, 78, 1071, 99479, Note_off_c, 2, 64, 721, 99479, Note_off_c, 2, 57, 641, 99479, Note_off_c, 2, 54, 641, 99479, Note_off_c, 2, 47, 621, 99479, Note_off_c, 9, 51, 891, 99479, Note_off_c, 9, 36, 931, 99480, Note_on_c, 6, 76, 1021, 99498, Note_off_c, 1, 35, 931, 99516, Note_off_c, 6, 81, 1191, 99588, Note_off_c, 6, 76, 1021, 99600, Note_on_c, 1, 35, 851, 99600, Note_on_c, 2, 64, 641, 99600, Note_on_c, 2, 47, 591, 99600, Note_on_c, 2, 57, 501, 99600, Note_on_c, 2, 54, 721, 99600, Note_on_c, 6, 78, 851, 99600, Note_on_c, 9, 51, 891, 99600, Note_on_c, 9, 36, 851, 99688, Note_off_c, 6, 78, 851, 99719, Note_off_c, 2, 64, 641, 99719, Note_off_c, 2, 47, 591, 99719, Note_off_c, 2, 57, 501, 99719, Note_off_c, 2, 54, 721, 99719, Note_off_c, 9, 51, 891, 99719, Note_off_c, 9, 36, 851, 99720, Note_on_c, 6, 76, 1021, 99728, Note_off_c, 1, 35, 851, 99737, Note_off_c, 3, 61, 941, 99819, Note_off_c, 6, 76, 1021, 99840, Note_on_c, 1, 35, 1021, 99840, Note_on_c, 2, 64, 681, 99840, Note_on_c, 2, 47, 681, 99840, Note_on_c, 2, 57, 601, 99840, Note_on_c, 2, 54, 761, 99840, Note_on_c, 6, 83, 1071, 99840, Note_on_c, 6, 78, 1071, 99840, Note_on_c, 9, 51, 931, 99840, Note_on_c, 9, 36, 931, 99845, Note_on_c, 3, 61, 951, 99938, Note_off_c, 6, 78, 1071, 99958, Note_off_c, 6, 83, 1071, 99959, Note_off_c, 2, 64, 681, 99959, Note_off_c, 2, 47, 681, 99959, Note_off_c, 2, 57, 601, 99959, Note_off_c, 2, 54, 761, 99959, Note_off_c, 9, 51, 931, 99959, Note_off_c, 9, 36, 931, 99960, Note_on_c, 6, 76, 931, 99978, Note_off_c, 1, 35, 1021, 100048, Note_off_c, 6, 76, 931, 100080, Note_on_c, 1, 35, 931, 100080, Note_on_c, 2, 64, 851, 100080, Note_on_c, 2, 54, 801, 100080, Note_on_c, 2, 57, 721, 100080, Note_on_c, 2, 47, 761, 100080, Note_on_c, 6, 78, 981, 100080, Note_on_c, 9, 36, 931, 100080, Note_on_c, 9, 51, 981, 100159, Note_off_c, 6, 78, 981, 100199, Note_off_c, 2, 64, 851, 100199, Note_off_c, 2, 54, 801, 100199, Note_off_c, 2, 57, 721, 100199, Note_off_c, 2, 47, 761, 100199, Note_off_c, 9, 36, 931, 100199, Note_off_c, 9, 51, 981, 100200, Note_on_c, 6, 81, 1021, 100200, Note_on_c, 6, 78, 851, 100216, Note_off_c, 3, 61, 951, 100227, Note_off_c, 1, 35, 931, 100320, Note_on_c, 1, 35, 1021, 100320, Note_on_c, 2, 64, 891, 100320, Note_on_c, 2, 47, 761, 100320, Note_on_c, 2, 57, 761, 100320, Note_on_c, 2, 54, 761, 100320, Note_on_c, 9, 36, 931, 100320, Note_on_c, 9, 51, 931, 100325, Note_on_c, 3, 61, 971, 100416, Note_off_c, 6, 78, 851, 100439, Note_off_c, 2, 64, 891, 100439, Note_off_c, 2, 47, 761, 100439, Note_off_c, 2, 57, 761, 100439, Note_off_c, 2, 54, 761, 100439, Note_off_c, 9, 36, 931, 100439, Note_off_c, 9, 51, 931, 100440, Note_on_c, 6, 76, 1021, 100467, Note_off_c, 1, 35, 1021, 100485, Note_off_c, 6, 81, 1021, 100558, Note_off_c, 6, 76, 1021, 100560, Note_on_c, 1, 35, 761, 100560, Note_on_c, 2, 64, 801, 100560, Note_on_c, 2, 57, 801, 100560, Note_on_c, 2, 54, 761, 100560, Note_on_c, 2, 47, 621, 100560, Note_on_c, 6, 78, 801, 100560, Note_on_c, 9, 36, 931, 100560, Note_on_c, 9, 51, 891, 100668, Note_off_c, 6, 78, 801, 100679, Note_off_c, 2, 54, 761, 100679, Note_off_c, 2, 47, 621, 100679, Note_off_c, 9, 36, 931, 100679, Note_off_c, 9, 51, 891, 100680, Note_on_c, 6, 76, 981, 100697, Note_off_c, 1, 35, 761, 100703, Note_off_c, 3, 61, 971, 100792, Note_on_c, 3, 61, 1081, 100798, Note_off_c, 6, 76, 981, 100799, Note_off_c, 2, 64, 801, 100799, Note_off_c, 2, 57, 801, 100800, Note_on_c, 1, 35, 1071, 100800, Note_on_c, 2, 64, 891, 100800, Note_on_c, 2, 54, 851, 100800, Note_on_c, 2, 57, 641, 100800, Note_on_c, 2, 47, 721, 100800, Note_on_c, 6, 78, 1071, 100800, Note_on_c, 6, 83, 931, 100800, Note_on_c, 9, 49, 1131, 100800, Note_on_c, 9, 36, 931, 100800, Note_on_c, 9, 51, 1071, 100908, Note_off_c, 6, 83, 931, 100909, Note_off_c, 6, 78, 1071, 100918, Note_off_c, 9, 49, 1131, 100919, Note_off_c, 2, 64, 891, 100919, Note_off_c, 2, 54, 851, 100919, Note_off_c, 2, 57, 641, 100919, Note_off_c, 2, 47, 721, 100919, Note_off_c, 9, 36, 931, 100919, Note_off_c, 9, 51, 1071, 100920, Note_on_c, 6, 76, 931, 100938, Note_off_c, 1, 35, 1071, 101038, Note_off_c, 6, 76, 931, 101040, Note_on_c, 1, 35, 891, 101040, Note_on_c, 2, 64, 801, 101040, Note_on_c, 2, 54, 761, 101040, Note_on_c, 2, 57, 801, 101040, Note_on_c, 2, 47, 721, 101040, Note_on_c, 6, 78, 891, 101071, Note_off_c, 3, 61, 1081, 101119, Note_off_c, 6, 78, 891, 101159, Note_off_c, 2, 64, 801, 101159, Note_off_c, 2, 54, 761, 101159, Note_off_c, 2, 57, 801, 101159, Note_off_c, 2, 47, 721, 101159, Note_on_c, 3, 61, 1081, 101160, Note_on_c, 6, 81, 1071, 101160, Note_on_c, 6, 78, 981, 101160, Note_on_c, 9, 57, 1081, 101167, Note_on_c, 9, 36, 1071, 101188, Note_off_c, 1, 35, 891, 101278, Note_off_c, 9, 57, 1081, 101280, Note_on_c, 1, 35, 931, 101280, Note_on_c, 2, 64, 851, 101280, Note_on_c, 2, 54, 761, 101280, Note_on_c, 2, 57, 851, 101280, Note_on_c, 2, 47, 681, 101286, Note_off_c, 9, 36, 1071, 101399, Note_off_c, 2, 64, 851, 101399, Note_off_c, 2, 54, 761, 101399, Note_off_c, 2, 57, 851, 101399, Note_off_c, 2, 47, 681, 101400, Note_on_c, 6, 76, 1071, 101408, Note_off_c, 3, 61, 1081, 101418, Note_off_c, 1, 35, 931, 101436, Note_off_c, 6, 78, 981, 101456, Note_off_c, 6, 81, 1071, 101508, Note_off_c, 6, 76, 1071, 101519, Note_on_c, 3, 61, 1001, 101520, Note_on_c, 1, 35, 851, 101520, Note_on_c, 2, 64, 851, 101520, Note_on_c, 2, 54, 761, 101520, Note_on_c, 2, 57, 801, 101520, Note_on_c, 2, 47, 721, 101520, Note_on_c, 6, 78, 721, 101520, Note_on_c, 9, 49, 1271, 101520, Note_on_c, 9, 47, 1271, 101522, Note_on_c, 9, 36, 1071, 101589, Note_off_c, 6, 78, 721, 101638, Note_off_c, 9, 49, 1271, 101639, Note_off_c, 2, 64, 851, 101639, Note_off_c, 2, 54, 761, 101639, Note_off_c, 2, 57, 801, 101639, Note_off_c, 2, 47, 721, 101639, Note_off_c, 9, 47, 1271, 101640, Note_on_c, 6, 76, 1021, 101641, Note_off_c, 9, 36, 1071, 101648, Note_off_c, 1, 35, 851, 101739, Note_off_c, 6, 76, 1021, 101760, Note_on_c, 1, 35, 1021, 101760, Note_on_c, 2, 64, 931, 101760, Note_on_c, 2, 54, 801, 101760, Note_on_c, 2, 57, 891, 101760, Note_on_c, 2, 47, 931, 101760, Note_on_c, 6, 83, 1071, 101760, Note_on_c, 6, 78, 1021, 101760, Note_on_c, 9, 45, 1191, 101849, Note_off_c, 6, 78, 1021, 101879, Note_off_c, 2, 64, 931, 101879, Note_off_c, 2, 54, 801, 101879, Note_off_c, 2, 57, 891, 101879, Note_off_c, 2, 47, 931, 101879, Note_off_c, 9, 45, 1191, 101880, Note_on_c, 6, 76, 981, 101888, Note_off_c, 6, 83, 1071, 101898, Note_off_c, 1, 35, 1021, 101988, Note_off_c, 6, 76, 981, 102000, Note_on_c, 1, 35, 931, 102000, Note_on_c, 2, 64, 761, 102000, Note_on_c, 2, 54, 761, 102000, Note_on_c, 2, 47, 891, 102000, Note_on_c, 2, 57, 891, 102000, Note_on_c, 6, 78, 981, 102000, Note_on_c, 9, 45, 1191, 102038, Note_off_c, 3, 61, 1001, 102079, Note_off_c, 6, 78, 981, 102092, Note_off_c, 0, 71, 1101, 102092, Note_off_c, 0, 76, 1021, 102119, Note_off_c, 2, 64, 761, 102119, Note_off_c, 2, 54, 761, 102119, Note_off_c, 2, 47, 891, 102119, Note_off_c, 2, 57, 891, 102119, Note_off_c, 9, 45, 1191, 102120, Note_on_c, 6, 78, 931, 102120, Note_on_c, 6, 81, 1071, 102120, Note_on_c, 9, 43, 1191, 102147, Note_off_c, 1, 35, 931, 102239, Note_off_c, 9, 43, 1191, 102240, Note_on_c, 1, 35, 1021, 102240, Note_on_c, 2, 64, 851, 102240, Note_on_c, 2, 54, 851, 102240, Note_on_c, 2, 57, 931, 102240, Note_on_c, 2, 47, 931, 102240, Note_on_c, 9, 43, 1271, 102246, Note_on_c, 3, 61, 1101, 102252, Note_on_c, 0, 76, 1251, 102326, Note_off_c, 6, 81, 1071, 102346, Note_off_c, 6, 78, 931, 102359, Note_off_c, 2, 64, 851, 102359, Note_off_c, 2, 54, 851, 102359, Note_off_c, 2, 57, 931, 102359, Note_off_c, 2, 47, 931, 102359, Note_off_c, 9, 43, 1271, 102360, Note_on_c, 6, 76, 1021, 102360, Note_on_c, 9, 41, 1131, 102387, Note_off_c, 1, 35, 1021, 102479, Note_off_c, 9, 41, 1131, 102480, Note_on_c, 1, 35, 761, 102480, Note_on_c, 2, 64, 931, 102480, Note_on_c, 2, 54, 851, 102480, Note_on_c, 2, 57, 931, 102480, Note_on_c, 2, 47, 851, 102480, Note_on_c, 6, 78, 981, 102480, Note_on_c, 6, 81, 931, 102480, Note_on_c, 9, 41, 1271, 102488, Note_off_c, 6, 76, 1021, 102555, Control_c, 2, 76, 0
1, 102559, Note_off_c, 6, 81, 931, 102567, Note_off_c, 3, 61, 1101, 102579, Note_off_c, 6, 78, 981, 102599, Note_off_c, 2, 64, 931, 102599, Note_off_c, 2, 54, 851, 102599, Note_off_c, 2, 57, 931, 102599, Note_off_c, 2, 47, 851, 102599, Note_off_c, 9, 41, 1271, 102600, Note_on_c, 6, 76, 981, 102604, Control_c, 6, 64, 0
1, 102617, Note_off_c, 1, 35, 761, 102674, Note_off_c, 0, 76, 1251, 102679, Note_off_c, 6, 76, 981, 102720, Note_on_c, 1, 37, 891, 102720, Note_on_c, 2, 49, 891, 102720, Note_on_c, 6, 83, 1071, 102720, Note_on_c, 6, 78, 1071, 102720, Note_on_c, 9, 36, 1191, 102720, Note_on_c, 9, 49, 1271, 102723, Note_on_c, 0, 80, 1271, 102839, Note_off_c, 6, 83, 1071, 102839, Note_off_c, 6, 78, 1071, 102839, Note_off_c, 9, 49, 1271, 102840, Note_on_c, 6, 76, 891, 102959, Note_off_c, 6, 76, 891, 102960, Note_on_c, 1, 33, 891, 102960, Note_on_c, 2, 45, 891, 102960, Note_on_c, 6, 78, 851, 102960, Note_on_c, 6, 83, 761, 102960, Note_on_c, 9, 51, 891, 103020, Note_off_c, 1, 37, 891, 103020, Note_off_c, 2, 49, 891, 103079, Note_off_c, 6, 78, 851, 103079, Note_off_c, 6, 83, 761, 103079, Note_off_c, 9, 36, 1191, 103079, Note_off_c, 9, 51, 891, 103080, Note_on_c, 6, 76, 981, 103159, Note_off_c, 0, 80, 1271, 103199, Note_off_c, 6, 76, 981, 103200, Note_on_c, 1, 28, 851, 103200, Note_on_c, 2, 40, 851, 103200, Note_on_c, 6, 78, 931, 103200, Note_on_c, 6, 83, 1021, 103200, Note_on_c, 9, 54, 1071, 103200, Note_on_c, 9, 38, 1071, 103200, Note_on_c, 9, 51, 1071, 103205, Note_on_c, 0, 81, 1141, 103210, Note_off_c, 1, 33, 891, 103210, Note_off_c, 2, 45, 891, 103318, Note_off_c, 9, 54, 1071, 103319, Note_off_c, 6, 78, 931, 103319, Note_off_c, 6, 83, 1021, 103319, Note_off_c, 9, 38, 1071, 103319, Note_off_c, 9, 51, 1071, 103400, Note_off_c, 1, 28, 851, 103400, Note_off_c, 2, 40, 851, 103439, Note_off_c, 0, 81, 1141, 103440, Note_on_c, 1, 40, 1131, 103440, Note_on_c, 2, 52, 1131, 103440, Note_on_c, 6, 83, 1071, 103440, Note_on_c, 6, 78, 1021, 103440, Note_on_c, 9, 36, 1071, 103440, Note_on_c, 9, 51, 601, 103446, Note_on_c, 0, 80, 1161, 103559, Note_off_c, 6, 83, 1071, 103559, Note_off_c, 6, 78, 1021, 103559, Note_off_c, 9, 51, 601, 103560, Note_on_c, 6, 76, 891, 103679, Note_off_c, 6, 76, 891, 103680, Note_on_c, 6, 78, 851, 103680, Note_on_c, 6, 83, 851, 103680, Note_on_c, 9, 51, 891, 103700, Note_off_c, 1, 40, 1131, 103700, Note_off_c, 2, 52, 1131, 103750, Note_off_c, 0, 80, 1161, 103799, Note_off_c, 6, 78, 851, 103799, Note_off_c, 6, 83, 851, 103799, Note_off_c, 9, 36, 1071, 103799, Note_off_c, 9, 51, 891, 103800, Note_on_c, 6, 76, 981, 103919, Note_off_c, 6, 76, 981, 103920, Note_on_c, 1, 28, 851, 103920, Note_on_c, 2, 40, 851, 103920, Note_on_c, 6, 78, 1021, 103920, Note_on_c, 6, 83, 1021, 103920, Note_on_c, 9, 51, 931, 103920, Note_on_c, 9, 36, 891, 103949, Note_on_c, 0, 76, 1121, 104039, Note_off_c, 6, 78, 1021, 104039, Note_off_c, 6, 83, 1021, 104039, Note_off_c, 9, 51, 931, 104039, Note_off_c, 9, 36, 891, 104100, Note_off_c, 1, 28, 851, 104100, Note_off_c, 2, 40, 851, 104160, Note_on_c, 1, 28, 1071, 104160, Note_on_c, 2, 40, 1071, 104160, Note_on_c, 6, 83, 1131, 104160, Note_on_c, 6, 78, 1021, 104160, Note_on_c, 9, 54, 1161, 104160, Note_on_c, 9, 38, 1071, 104160, Note_on_c, 9, 51, 1071, 104278, Note_off_c, 9, 54, 1161, 104279, Note_off_c, 9, 51, 1071, 104390, Note_off_c, 1, 28, 1071, 104390, Note_off_c, 2, 40, 1071, 104399, Note_off_c, 6, 83, 1131, 104399, Note_off_c, 6, 78, 1021, 104400, Note_on_c, 6, 76, 931, 104400, Note_on_c, 9, 51, 1071, 104519, Note_off_c, 9, 38, 1071, 104519, Note_off_c, 9, 51, 1071, 104639, Note_off_c, 6, 76, 931, 104640, Note_on_c, 1, 37, 891, 104640, Note_on_c, 2, 49, 891, 104640, Note_on_c, 6, 78, 981, 104640, Note_on_c, 6, 83, 931, 104640, Note_on_c, 9, 36, 1021, 104640, Note_on_c, 9, 52, 1191, 104759, Note_off_c, 6, 78, 981, 104759, Note_off_c, 6, 83, 931, 104759, Note_off_c, 9, 52, 1191, 104760, Note_on_c, 6, 76, 891, 104850, Note_off_c, 1, 37, 891, 104850, Note_off_c, 2, 49, 891, 104879, Note_off_c, 6, 76, 891, 104880, Note_on_c, 1, 33, 931, 104880, Note_on_c, 2, 45, 931, 104880, Note_on_c, 6, 78, 761, 104880, Note_on_c, 6, 83, 761, 104880, Note_on_c, 9, 51, 981, 104999, Note_off_c, 6, 78, 761, 104999, Note_off_c, 6, 83, 761, 104999, Note_off_c, 9, 36, 1021, 104999, Note_off_c, 9, 51, 981, 105000, Note_on_c, 6, 76, 931, 105060, Note_off_c, 0, 76, 1121, 105119, Note_off_c, 6, 76, 931, 105120, Note_off_c, 1, 33, 931, 105120, Note_on_c, 1, 28, 601, 105120, Note_off_c, 2, 45, 931, 105120, Note_on_c, 2, 40, 601, 105120, Note_on_c, 6, 83, 1071, 105120, Note_on_c, 6, 78, 981, 105120, Note_on_c, 9, 54, 1131, 105120, Note_on_c, 9, 51, 1071, 105120, Note_on_c, 9, 38, 1131, 105238, Note_off_c, 9, 54, 1131, 105239, Note_off_c, 6, 83, 1071, 105239, Note_off_c, 6, 78, 981, 105239, Note_off_c, 9, 51, 1071, 105239, Note_off_c, 9, 38, 1131, 105290, Note_off_c, 1, 28, 601, 105290, Note_off_c, 2, 40, 601, 105360, Note_on_c, 1, 40, 1131, 105360, Note_on_c, 2, 52, 1131, 105360, Note_on_c, 6, 78, 931, 105360, Note_on_c, 6, 83, 981, 105360, Note_on_c, 9, 36, 1021, 105360, Note_on_c, 9, 53, 1131, 105360, Note_on_c, 9, 55, 1021, 105479, Note_off_c, 6, 78, 931, 105479, Note_off_c, 6, 83, 981, 105479, Note_off_c, 9, 53, 1131, 105479, Note_off_c, 9, 55, 1021, 105480, Note_on_c, 6, 76, 891, 105599, Note_off_c, 6, 76, 891, 105600, Note_on_c, 6, 78, 761, 105600, Note_on_c, 6, 83, 851, 105600, Note_on_c, 9, 51, 721, 105630, Note_off_c, 1, 40, 1131, 105630, Note_off_c, 2, 52, 1131, 105719, Note_off_c, 6, 78, 761, 105719, Note_off_c, 6, 83, 851, 105719, Note_off_c, 9, 36, 1021, 105719, Note_off_c, 9, 51, 721, 105720, Note_on_c, 6, 76, 1071, 105839, Note_off_c, 6, 76, 1071, 105840, Note_on_c, 1, 28, 931, 105840, Note_on_c, 2, 40, 931, 105840, Note_on_c, 6, 78, 891, 105840, Note_on_c, 6, 83, 931, 105840, Note_on_c, 9, 36, 801, 105840, Note_on_c, 9, 51, 1021, 105959, Note_off_c, 6, 78, 891, 105959, Note_off_c, 6, 83, 931, 105959, Note_off_c, 9, 36, 801, 105959, Note_off_c, 9, 51, 1021, 106000, Note_off_c, 1, 28, 931, 106000, Note_off_c, 2, 40, 931, 106080, Note_on_c, 1, 28, 981, 106080, Note_on_c, 2, 40, 981, 106080, Note_on_c, 6, 83, 1071, 106080, Note_on_c, 6, 78, 931, 106080, Note_on_c, 9, 54, 1071, 106080, Note_on_c, 9, 38, 1131, 106080, Note_on_c, 9, 51, 1131, 106198, Note_off_c, 9, 54, 1071, 106199, Note_off_c, 9, 51, 1131, 106319, Note_off_c, 6, 83, 1071, 106319, Note_off_c, 6, 78, 931, 106320, Note_on_c, 6, 76, 981, 106320, Note_on_c, 9, 51, 891, 106350, Note_off_c, 1, 28, 981, 106350, Note_off_c, 2, 40, 981, 106439, Note_off_c, 9, 38, 1131, 106439, Note_off_c, 9, 51, 891, 106559, Note_off_c, 6, 76, 981, 106560, Note_on_c, 1, 37, 931, 106560, Note_on_c, 2, 49, 931, 106560, Note_on_c, 6, 78, 931, 106560, Note_on_c, 6, 83, 931, 106560, Note_on_c, 9, 36, 931, 106560, Note_on_c, 9, 51, 1071, 106679, Note_off_c, 6, 78, 931, 106679, Note_off_c, 6, 83, 931, 106679, Note_off_c, 9, 51, 1071, 106680, Note_on_c, 6, 76, 851, 106780, Note_off_c, 1, 37, 931, 106780, Note_off_c, 2, 49, 931, 106799, Note_off_c, 6, 76, 851, 106800, Note_on_c, 1, 33, 981, 106800, Note_on_c, 2, 45, 981, 106800, Note_on_c, 6, 78, 721, 106800, Note_on_c, 6, 83, 571, 106800, Note_on_c, 9, 51, 981, 106919, Note_off_c, 6, 78, 721, 106919, Note_off_c, 6, 83, 571, 106919, Note_off_c, 9, 36, 931, 106919, Note_off_c, 9, 51, 981, 106920, Note_on_c, 6, 76, 981, 107020, Note_off_c, 1, 33, 981, 107020, Note_off_c, 2, 45, 981, 107039, Note_off_c, 6, 76, 981, 107040, Note_on_c, 1, 28, 851, 107040, Note_on_c, 2, 40, 851, 107040, Note_on_c, 6, 78, 1021, 107040, Note_on_c, 6, 83, 1131, 107040, Note_on_c, 9, 54, 1131, 107040, Note_on_c, 9, 38, 1131, 107040, Note_on_c, 9, 51, 1071, 107158, Note_off_c, 9, 54, 1131, 107159, Note_off_c, 6, 78, 1021, 107159, Note_off_c, 6, 83, 1131, 107159, Note_off_c, 9, 38, 1131, 107159, Note_off_c, 9, 51, 1071, 107220, Note_off_c, 1, 28, 851, 107220, Note_off_c, 2, 40, 851, 107280, Note_on_c, 1, 40, 1021, 107280, Note_on_c, 2, 52, 1021, 107280, Note_on_c, 6, 78, 931, 107280, Note_on_c, 6, 83, 1021, 107280, Note_on_c, 9, 36, 1071, 107280, Note_on_c, 9, 51, 1131, 107399, Note_off_c, 6, 78, 931, 107399, Note_off_c, 6, 83, 1021, 107399, Note_off_c, 9, 51, 1131, 107400, Note_on_c, 6, 76, 1021, 107519, Note_off_c, 6, 76, 1021, 107520, Note_on_c, 6, 83, 891, 107520, Note_on_c, 6, 78, 681, 107520, Note_on_c, 9, 51, 851, 107530, Note_off_c, 1, 40, 1021, 107530, Note_off_c, 2, 52, 1021, 107639, Note_off_c, 6, 83, 891, 107639, Note_off_c, 6, 78, 681, 107639, Note_off_c, 9, 36, 1071, 107639, Note_off_c, 9, 51, 851, 107640, Note_on_c, 6, 76, 1021, 107759, Note_off_c, 6, 76, 1021, 107760, Note_on_c, 1, 28, 801, 107760, Note_on_c, 2, 40, 801, 107760, Note_on_c, 6, 83, 981, 107760, Note_on_c, 6, 78, 891, 107760, Note_on_c, 9, 51, 1071, 107760, Note_on_c, 9, 36, 851, 107879, Note_off_c, 6, 83, 981, 107879, Note_off_c, 6, 78, 891, 107879, Note_off_c, 9, 51, 1071, 107879, Note_off_c, 9, 36, 851, 107940, Note_off_c, 1, 28, 801, 107940, Note_off_c, 2, 40, 801, 108000, Note_on_c, 1, 28, 931, 108000, Note_on_c, 2, 40, 931, 108000, Note_on_c, 6, 83, 1071, 108000, Note_on_c, 6, 78, 1071, 108000, Note_on_c, 9, 54, 1071, 108000, Note_on_c, 9, 38, 1191, 108000, Note_on_c, 9, 51, 1131, 108118, Note_off_c, 9, 54, 1071, 108119, Note_off_c, 9, 51, 1131, 108220, Note_off_c, 1, 28, 931, 108220, Note_off_c, 2, 40, 931, 108239, Note_off_c, 6, 83, 1071, 108239, Note_off_c, 6, 78, 1071, 108239, Note_off_c, 9, 38, 1191, 108240, Note_on_c, 6, 76, 1021, 108240, Note_on_c, 9, 51, 851, 108359, Note_off_c, 9, 51, 851, 108479, Note_off_c, 6, 76, 1021, 108480, Note_on_c, 1, 37, 981, 108480, Note_on_c, 2, 49, 981, 108480, Note_on_c, 6, 83, 1071, 108480, Note_on_c, 6, 78, 931, 108480, Note_on_c, 9, 36, 851, 108481, Note_on_c, 9, 51, 931, 108599, Note_off_c, 6, 83, 1071, 108599, Note_off_c, 6, 78, 931, 108599, Note_off_c, 9, 36, 851, 108600, Note_on_c, 6, 76, 891, 108600, Note_off_c, 9, 51, 931, 108718, Note_on_c, 9, 51, 1191, 108719, Note_off_c, 6, 76, 891, 108720, Note_on_c, 1, 33, 931, 108720, Note_on_c, 2, 45, 931, 108720, Note_on_c, 6, 78, 721, 108720, Note_on_c, 6, 83, 571, 108740, Note_off_c, 1, 37, 981, 108740, Note_off_c, 2, 49, 981, 108837, Note_off_c, 9, 51, 1191, 108839, Note_off_c, 6, 78, 721, 108839, Note_off_c, 6, 83, 571, 108840, Note_on_c, 6, 76, 1021, 108959, Note_off_c, 6, 76, 1021, 108959, Note_on_c, 9, 38, 1191, 108960, Note_off_c, 1, 33, 931, 108960, Note_on_c, 1, 28, 721, 108960, Note_off_c, 2, 45, 931, 108960, Note_on_c, 2, 40, 721, 108960, Note_on_c, 6, 83, 1021, 108960, Note_on_c, 6, 78, 981, 108960, Note_on_c, 9, 54, 1191, 109078, Note_off_c, 9, 38, 1191, 109078, Note_off_c, 9, 54, 1191, 109079, Note_off_c, 6, 83, 1021, 109079, Note_off_c, 6, 78, 981, 109150, Note_off_c, 1, 28, 721, 109150, Note_off_c, 2, 40, 721, 109200, Note_on_c, 1, 40, 1021, 109200, Note_on_c, 2, 52, 1021, 109200, Note_on_c, 6, 78, 931, 109200, Note_on_c, 6, 83, 931, 109200, Note_on_c, 9, 36, 761, 109318, Note_off_c, 9, 36, 761, 109319, Note_off_c, 6, 78, 931, 109319, Note_off_c, 6, 83, 931, 109319, Note_on_c, 9, 38, 931, 109320, Note_on_c, 6, 76, 931, 109428, Note_off_c, 9, 38, 931, 109430, Note_off_c, 1, 40, 1021, 109430, Note_off_c, 2, 52, 1021, 109439, Note_off_c, 6, 76, 931, 109440, Note_on_c, 6, 78, 801, 109440, Note_on_c, 6, 83, 891, 109441, Note_on_c, 9, 38, 1271, 109555, Note_off_c, 9, 38, 1271, 109559, Note_off_c, 6, 78, 801, 109559, Note_off_c, 6, 83, 891, 109560, Note_on_c, 6, 76, 931, 109561, Note_on_c, 9, 38, 1191, 109679, Note_off_c, 6, 76, 931, 109680, Note_on_c, 1, 28, 891, 109680, Note_on_c, 2, 40, 891, 109680, Note_on_c, 6, 83, 931, 109680, Note_on_c, 6, 78, 891, 109680, Note_off_c, 9, 38, 1191, 109680, Note_on_c, 9, 46, 1191, 109799, Note_off_c, 6, 83, 931, 109799, Note_off_c, 6, 78, 891, 109799, Note_off_c, 9, 46, 1191, 109850, Note_off_c, 1, 28, 891, 109850, Note_off_c, 2, 40, 891, 109920, Note_on_c, 1, 28, 981, 109920, Note_on_c, 2, 40, 981, 109920, Note_on_c, 6, 78, 1021, 109920, Note_on_c, 6, 83, 1071, 109920, Note_on_c, 9, 38, 1131, 109920, Note_on_c, 9, 42, 701, 110029, Note_off_c, 9, 38, 1131, 110038, Note_off_c, 9, 42, 701, 110040, Note_on_c, 9, 38, 1021, 110130, Note_off_c, 1, 28, 981, 110130, Note_off_c, 2, 40, 981, 110159, Note_off_c, 6, 78, 1021, 110159, Note_off_c, 6, 83, 1071, 110159, Note_off_c, 9, 38, 1021, 110160, Note_on_c, 6, 76, 931, 110160, Note_on_c, 9, 46, 1271, 110279, Note_off_c, 9, 46, 1271, 110399, Note_off_c, 6, 76, 931, 110400, Note_on_c, 1, 37, 931, 110400, Note_on_c, 2, 49, 931, 110400, Note_on_c, 6, 78, 931, 110400, Note_on_c, 6, 83, 981, 110400, Note_on_c, 9, 42, 841, 110400, Note_on_c, 9, 36, 1021, 110400, Note_on_c, 9, 49, 1271, 110439, Note_on_c, 0, 73, 1121, 110518, Note_off_c, 9, 42, 841, 110519, Note_off_c, 6, 78, 931, 110519, Note_off_c, 6, 83, 981, 110519, Note_off_c, 9, 49, 1271, 110520, Note_on_c, 6, 76, 891, 110639, Note_off_c, 6, 76, 891, 110640, Note_off_c, 1, 37, 931, 110640, Note_on_c, 1, 33, 931, 110640, Note_off_c, 2, 49, 931, 110640, Note_on_c, 2, 45, 931, 110640, Note_on_c, 6, 78, 851, 110640, Note_on_c, 6, 83, 761, 110640, Note_on_c, 9, 51, 601, 110671, Note_off_c, 0, 73, 1121, 110686, Note_on_c, 0, 71, 1201, 110759, Note_off_c, 6, 78, 851, 110759, Note_off_c, 6, 83, 761, 110759, Note_off_c, 9, 36, 1021, 110759, Note_off_c, 9, 51, 601, 110760, Note_on_c, 6, 76, 931, 110879, Note_off_c, 6, 76, 931, 110880, Note_on_c, 1, 28, 801, 110880, Note_on_c, 2, 40, 801, 110880, Note_on_c, 6, 83, 1021, 110880, Note_on_c, 6, 78, 931, 110880, Note_on_c, 9, 54, 991, 110880, Note_on_c, 9, 38, 931, 110880, Note_on_c, 9, 51, 931, 110890, Note_off_c, 1, 33, 931, 110890, Note_off_c, 2, 45, 931, 110953, Note_off_c, 0, 71, 1201, 110998, Note_off_c, 9, 54, 991, 110999, Note_off_c, 6, 83, 1021, 110999, Note_off_c, 6, 78, 931, 110999, Note_off_c, 9, 38, 931, 110999, Note_off_c, 9, 51, 931, 111080, Note_off_c, 1, 28, 801, 111080, Note_off_c, 2, 40, 801, 111120, Note_on_c, 1, 40, 1071, 111120, Note_on_c, 2, 52, 1071, 111120, Note_on_c, 6, 78, 851, 111120, Note_on_c, 6, 83, 931, 111120, Note_on_c, 9, 36, 891, 111120, Note_on_c, 9, 51, 1021, 111239, Note_off_c, 6, 78, 851, 111239, Note_off_c, 6, 83, 931, 111239, Note_off_c, 9, 51, 1021, 111240, Note_on_c, 6, 76, 931, 111359, Note_off_c, 6, 76, 931, 111360, Note_off_c, 1, 40, 1071, 111360, Note_off_c, 2, 52, 1071, 111360, Note_on_c, 6, 78, 801, 111360, Note_on_c, 6, 83, 801, 111360, Note_on_c, 9, 51, 851, 111397, Note_on_c, 0, 71, 1061, 111479, Note_off_c, 6, 78, 801, 111479, Note_off_c, 6, 83, 801, 111479, Note_off_c, 9, 36, 891, 111479, Note_off_c, 9, 51, 851, 111480, Note_on_c, 6, 76, 981, 111542, Note_off_c, 0, 71, 1061, 111599, Note_off_c, 6, 76, 981, 111600, Note_on_c, 1, 28, 851, 111600, Note_on_c, 2, 40, 851, 111600, Note_on_c, 6, 83, 981, 111600, Note_on_c, 6, 78, 931, 111600, Note_on_c, 9, 51, 721, 111600, Note_on_c, 9, 36, 851, 111628, Note_on_c, 0, 71, 901, 111719, Note_off_c, 6, 83, 981, 111719, Note_off_c, 6, 78, 931, 111719, Note_off_c, 9, 51, 721, 111719, Note_off_c, 9, 36, 851, 111760, Note_off_c, 1, 28, 851, 111760, Note_off_c, 2, 40, 851, 111840, Note_on_c, 1, 28, 891, 111840, Note_on_c, 2, 40, 891, 111840, Note_on_c, 6, 83, 1021, 111840, Note_on_c, 6, 78, 931, 111840, Note_on_c, 9, 54, 1131, 111840, Note_on_c, 9, 38, 1021, 111840, Note_on_c, 9, 51, 891, 111955, Note_off_c, 0, 71, 901, 111958, Note_off_c, 9, 54, 1131, 111959, Note_off_c, 9, 51, 891, 112060, Note_off_c, 1, 28, 891, 112060, Note_off_c, 2, 40, 891, 112079, Note_off_c, 6, 83, 1021, 112079, Note_off_c, 6, 78, 931, 112080, Note_on_c, 6, 76, 931, 112080, Note_on_c, 9, 51, 681, 112199, Note_off_c, 9, 38, 1021, 112199, Note_off_c, 9, 51, 681, 112319, Note_off_c, 6, 76, 931, 112320, Note_on_c, 1, 37, 891, 112320, Note_on_c, 2, 49, 891, 112320, Note_on_c, 6, 78, 981, 112320, Note_on_c, 6, 83, 931, 112320, Note_on_c, 9, 36, 851, 112320, Note_on_c, 9, 51, 761, 112331, Note_on_c, 0, 73, 1101, 112439, Note_off_c, 6, 78, 981, 112439, Note_off_c, 6, 83, 931, 112439, Note_off_c, 9, 51, 761, 112440, Note_on_c, 6, 76, 891, 112559, Note_off_c, 6, 76, 891, 112560, Note_on_c, 1, 33, 981, 112560, Note_on_c, 2, 45, 981, 112560, Note_on_c, 6, 78, 721, 112560, Note_on_c, 6, 83, 721, 112560, Note_on_c, 9, 51, 761, 112600, Note_off_c, 1, 37, 891, 112600, Note_off_c, 2, 49, 891, 112640, Note_off_c, 0, 73, 1101, 112679, Note_off_c, 6, 78, 721, 112679, Note_off_c, 6, 83, 721, 112679, Note_off_c, 9, 36, 851, 112679, Note_off_c, 9, 51, 761, 112680, Note_on_c, 6, 76, 931, 112685, Note_on_c, 0, 71, 1011, 112799, Note_off_c, 6, 76, 931, 112800, Note_on_c, 1, 28, 761, 112800, Note_on_c, 2, 40, 761, 112800, Note_on_c, 6, 83, 1071, 112800, Note_on_c, 6, 78, 1021, 112800, Note_on_c, 9, 54, 1191, 112800, Note_on_c, 9, 38, 981, 112800, Note_on_c, 9, 51, 801, 112810, Note_off_c, 1, 33, 981, 112810, Note_off_c, 2, 45, 981, 112918, Note_off_c, 9, 54, 1191, 112919, Note_off_c, 6, 83, 1071, 112919, Note_off_c, 6, 78, 1021, 112919, Note_off_c, 9, 38, 981, 112919, Note_off_c, 9, 51, 801, 112975, Note_off_c, 0, 71, 1011, 112980, Note_off_c, 1, 28, 761, 112980, Note_off_c, 2, 40, 761, 113037, Note_on_c, 0, 71, 1021, 113040, Note_on_c, 1, 40, 1131, 113040, Note_on_c, 2, 52, 1131, 113040, Note_on_c, 6, 78, 891, 113040, Note_on_c, 6, 83, 891, 113040, Note_on_c, 9, 36, 1071, 113040, Note_on_c, 9, 51, 1021, 113159, Note_off_c, 6, 78, 891, 113159, Note_off_c, 6, 83, 891, 113159, Note_off_c, 9, 51, 1021, 113160, Note_on_c, 6, 76, 931, 113230, Note_off_c, 1, 40, 1131, 113230, Note_off_c, 2, 52, 1131, 113279, Note_off_c, 6, 76, 931, 113280, Note_on_c, 6, 78, 801, 113280, Note_on_c, 6, 83, 851, 113280, Note_on_c, 9, 51, 891, 113399, Note_off_c, 6, 78, 801, 113399, Note_off_c, 6, 83, 851, 113399, Note_off_c, 9, 36, 1071, 113399, Note_off_c, 9, 51, 891, 113400, Note_on_c, 6, 76, 931, 113408, Note_off_c, 0, 71, 1021, 113412, Pitch_bend_c, 0, 7957
1, 113427, Pitch_bend_c, 0, 6787
1, 113443, Pitch_bend_c, 0, 5500
1, 113458, Pitch_bend_c, 0, 4096
1, 113473, Pitch_bend_c, 0, 2458
1, 113482, Note_on_c, 0, 68, 1101, 113488, Pitch_bend_c, 0, 1288
1, 113504, Pitch_bend_c, 0, 820
1, 113519, Pitch_bend_c, 0, 1171
1, 113519, Note_off_c, 6, 76, 931, 113520, Note_on_c, 1, 28, 981, 113520, Note_on_c, 2, 40, 981, 113520, Note_on_c, 6, 83, 981, 113520, Note_on_c, 6, 78, 931, 113520, Note_on_c, 9, 36, 891, 113520, Note_on_c, 9, 51, 981, 113533, Pitch_bend_c, 0, 2224
1, 113548, Pitch_bend_c, 0, 3979
1, 113566, Pitch_bend_c, 0, 5734
1, 113580, Pitch_bend_c, 0, 7372
1, 113595, Pitch_bend_c, 0, 8192
1, 113639, Note_off_c, 6, 83, 981, 113639, Note_off_c, 6, 78, 931, 113639, Note_off_c, 9, 36, 891, 113639, Note_off_c, 9, 51, 981, 113690, Note_off_c, 1, 28, 981, 113690, Note_off_c, 2, 40, 981, 113760, Note_on_c, 1, 28, 891, 113760, Note_on_c, 2, 40, 891, 113760, Note_on_c, 6, 83, 1071, 113760, Note_on_c, 6, 78, 1071, 113760, Note_on_c, 9, 54, 1101, 113760, Note_on_c, 9, 38, 1071, 113760, Note_on_c, 9, 51, 1071, 113878, Note_off_c, 9, 54, 1101, 113879, Note_off_c, 9, 51, 1071, 113999, Note_off_c, 6, 83, 1071, 113999, Note_off_c, 6, 78, 1071, 114000, Note_on_c, 6, 76, 981, 114000, Note_on_c, 9, 51, 891, 114060, Note_off_c, 1, 28, 891, 114060, Note_off_c, 2, 40, 891, 114097, Note_off_c, 0, 68, 1101, 114119, Note_off_c, 9, 38, 1071, 114119, Note_off_c, 9, 51, 891, 114239, Note_off_c, 6, 76, 981, 114240, Note_on_c, 1, 37, 931, 114240, Note_on_c, 2, 49, 931, 114240, Note_on_c, 6, 78, 1021, 114240, Note_on_c, 6, 83, 1071, 114240, Note_on_c, 9, 36, 891, 114240, Note_on_c, 9, 51, 1021, 114359, Note_off_c, 6, 78, 1021, 114359, Note_off_c, 6, 83, 1071, 114359, Note_off_c, 9, 36, 891, 114359, Note_off_c, 9, 51, 1021, 114360, Note_on_c, 6, 76, 891, 114479, Note_off_c, 6, 76, 891, 114480, Note_on_c, 1, 33, 981, 114480, Note_on_c, 2, 45, 981, 114480, Note_on_c, 6, 78, 761, 114480, Note_on_c, 6, 83, 761, 114480, Note_on_c, 9, 51, 891, 114480, Note_on_c, 9, 36, 891, 114483, Note_on_c, 0, 71, 1081, 114500, Note_off_c, 1, 37, 931, 114500, Note_off_c, 2, 49, 931, 114599, Note_off_c, 6, 78, 761, 114599, Note_off_c, 6, 83, 761, 114599, Note_off_c, 9, 51, 891, 114599, Note_off_c, 9, 36, 891, 114600, Note_on_c, 6, 76, 1021, 114700, Note_off_c, 1, 33, 981, 114700, Note_off_c, 2, 45, 981, 114720, Note_on_c, 1, 28, 801, 114720, Note_on_c, 2, 40, 801, 114720, Note_on_c, 6, 83, 981, 114720, Note_on_c, 6, 78, 1021, 114720, Note_on_c, 9, 54, 1231, 114720, Note_on_c, 9, 38, 1021, 114720, Note_on_c, 9, 51, 931, 114801, Note_off_c, 0, 71, 1081, 114838, Note_off_c, 9, 54, 1231, 114839, Note_off_c, 6, 76, 1021, 114839, Note_off_c, 6, 83, 981, 114839, Note_off_c, 6, 78, 1021, 114839, Note_off_c, 9, 38, 1021, 114839, Note_off_c, 9, 51, 931, 114930, Note_off_c, 1, 28, 801, 114930, Note_off_c, 2, 40, 801, 114960, Note_on_c, 1, 40, 1071, 114960, Note_on_c, 2, 52, 1071, 114960, Note_on_c, 6, 78, 851, 114960, Note_on_c, 6, 83, 891, 114960, Note_on_c, 9, 36, 1021, 114960, Note_on_c, 9, 51, 981, 114968, Note_on_c, 0, 71, 1011, 115079, Note_off_c, 6, 78, 851, 115079, Note_off_c, 6, 83, 891, 115079, Note_off_c, 9, 51, 981, 115080, Note_on_c, 6, 76, 981, 115190, Note_off_c, 1, 40, 1071, 115190, Note_off_c, 2, 52, 1071, 115199, Note_off_c, 6, 76, 981, 115200, Note_on_c, 6, 78, 891, 115200, Note_on_c, 6, 83, 801, 115200, Note_on_c, 9, 51, 761, 115319, Note_off_c, 6, 78, 891, 115319, Note_off_c, 6, 83, 801, 115319, Note_off_c, 9, 36, 1021, 115319, Note_off_c, 9, 51, 761, 115320, Note_on_c, 6, 76, 1021, 115336, Note_off_c, 0, 71, 1011, 115440, Note_on_c, 1, 28, 681, 115440, Note_on_c, 2, 40, 681, 115440, Note_on_c, 6, 78, 931, 115440, Note_on_c, 6, 83, 891, 115440, Note_on_c, 9, 36, 851, 115440, Note_on_c, 9, 51, 931, 115444, Note_on_c, 0, 71, 1181, 115559, Note_off_c, 6, 76, 1021, 115559, Note_off_c, 6, 78, 931, 115559, Note_off_c, 6, 83, 891, 115559, Note_off_c, 9, 36, 851, 115559, Note_off_c, 9, 51, 931, 115610, Note_off_c, 1, 28, 681, 115610, Note_off_c, 2, 40, 681, 115680, Note_on_c, 1, 28, 981, 115680, Note_on_c, 2, 40, 981, 115680, Note_on_c, 6, 83, 1021, 115680, Note_on_c, 6, 78, 931, 115680, Note_on_c, 9, 54, 1071, 115680, Note_on_c, 9, 38, 1131, 115680, Note_on_c, 9, 51, 1021, 115798, Note_off_c, 9, 54, 1071, 115799, Note_off_c, 9, 51, 1021, 115807, Note_off_c, 0, 71, 1181, 115919, Note_off_c, 6, 83, 1021, 115919, Note_off_c, 6, 78, 931, 115920, Note_on_c, 0, 73, 1101, 115920, Note_on_c, 6, 76, 1021, 115920, Note_on_c, 9, 51, 851, 115940, Note_off_c, 1, 28, 981, 115940, Note_off_c, 2, 40, 981, 116039, Note_off_c, 9, 38, 1131, 116039, Note_off_c, 9, 51, 851, 116159, Note_off_c, 6, 76, 1021, 116160, Note_on_c, 1, 37, 891, 116160, Note_on_c, 2, 49, 891, 116160, Note_on_c, 6, 83, 1071, 116160, Note_on_c, 6, 78, 981, 116160, Note_on_c, 9, 36, 931, 116160, Note_on_c, 9, 51, 1071, 116279, Note_off_c, 6, 83, 1071, 116279, Note_off_c, 6, 78, 981, 116279, Note_off_c, 9, 36, 931, 116279, Note_off_c, 9, 51, 1071, 116280, Note_on_c, 6, 76, 891, 116305, Note_off_c, 0, 73, 1101, 116399, Note_off_c, 6, 76, 891, 116400, Note_on_c, 1, 33, 891, 116400, Note_on_c, 2, 45, 891, 116400, Note_on_c, 6, 78, 891, 116400, Note_on_c, 6, 83, 761, 116400, Note_on_c, 9, 36, 851, 116400, Note_on_c, 9, 51, 891, 116402, Note_on_c, 0, 71, 941, 116430, Note_off_c, 1, 37, 891, 116430, Note_off_c, 2, 49, 891, 116519, Note_off_c, 6, 78, 891, 116519, Note_off_c, 6, 83, 761, 116519, Note_off_c, 9, 36, 851, 116519, Note_off_c, 9, 51, 891, 116520, Note_on_c, 6, 76, 891, 116640, Note_off_c, 1, 33, 891, 116640, Note_on_c, 1, 28, 761, 116640, Note_off_c, 2, 45, 891, 116640, Note_on_c, 2, 40, 761, 116640, Note_on_c, 6, 83, 1071, 116640, Note_on_c, 6, 78, 931, 116640, Note_on_c, 9, 54, 1231, 116640, Note_on_c, 9, 38, 1131, 116640, Note_on_c, 9, 51, 1071, 116703, Note_off_c, 0, 71, 941, 116758, Note_off_c, 9, 54, 1231, 116759, Note_off_c, 6, 83, 1071, 116759, Note_off_c, 6, 78, 931, 116759, Note_off_c, 9, 38, 1131, 116759, Note_off_c, 9, 51, 1071, 116850, Note_off_c, 1, 28, 761, 116850, Note_off_c, 2, 40, 761, 116879, Note_off_c, 6, 76, 891, 116880, Note_on_c, 1, 40, 1131, 116880, Note_on_c, 2, 52, 1131, 116880, Note_on_c, 6, 83, 931, 116880, Note_on_c, 6, 78, 891, 116880, Note_on_c, 9, 36, 1071, 116880, Note_on_c, 9, 51, 1071, 116885, Note_on_c, 0, 71, 881, 116999, Note_off_c, 6, 83, 931, 116999, Note_off_c, 6, 78, 891, 116999, Note_off_c, 9, 51, 1071, 117000, Note_on_c, 6, 76, 981, 117119, Note_off_c, 6, 76, 981, 117120, Note_on_c, 6, 78, 891, 117120, Note_on_c, 6, 83, 891, 117120, Note_on_c, 9, 51, 981, 117130, Note_off_c, 1, 40, 1131, 117130, Note_off_c, 2, 52, 1131, 117239, Note_off_c, 6, 78, 891, 117239, Note_off_c, 6, 83, 891, 117239, Note_off_c, 9, 36, 1071, 117239, Note_off_c, 9, 51, 981, 117240, Note_on_c, 6, 76, 981, 117313, Pitch_bend_c, 0, 7021
1, 117321, Note_off_c, 0, 71, 881, 117328, Pitch_bend_c, 0, 5500
1, 117344, Pitch_bend_c, 0, 3979
1, 117359, Pitch_bend_c, 0, 2575
1, 117360, Note_on_c, 1, 28, 981, 117360, Note_on_c, 2, 40, 981, 117360, Note_on_c, 6, 78, 981, 117360, Note_on_c, 6, 83, 1021, 117360, Note_on_c, 9, 36, 1021, 117360, Note_on_c, 9, 51, 1021, 117373, Pitch_bend_c, 0, 1639
1, 117389, Pitch_bend_c, 0, 1171
1, 117421, Pitch_bend_c, 0, 1756
1, 117435, Pitch_bend_c, 0, 2458
1, 117450, Pitch_bend_c, 0, 3628
1, 117466, Pitch_bend_c, 0, 5500
1, 117479, Note_off_c, 6, 78, 981, 117479, Note_off_c, 6, 83, 1021, 117479, Note_off_c, 9, 36, 1021, 117479, Note_off_c, 9, 51, 1021, 117481, Pitch_bend_c, 0, 8192
1, 117520, Note_off_c, 1, 28, 981, 117520, Note_off_c, 2, 40, 981, 117600, Note_on_c, 1, 28, 981, 117600, Note_on_c, 2, 40, 981, 117600, Note_on_c, 6, 83, 1021, 117600, Note_on_c, 6, 78, 981, 117600, Note_on_c, 9, 54, 1071, 117600, Note_on_c, 9, 51, 1021, 117600, Note_on_c, 9, 38, 1191, 117718, Note_off_c, 9, 54, 1071, 117719, Note_off_c, 6, 76, 981, 117719, Note_off_c, 9, 51, 1021, 117719, Note_off_c, 9, 38, 1191, 117760, Note_off_c, 1, 28, 981, 117760, Note_off_c, 2, 40, 981, 117839, Note_off_c, 6, 83, 1021, 117839, Note_off_c, 6, 78, 981, 117840, Note_on_c, 6, 76, 1071, 117840, Note_on_c, 9, 38, 1191, 117840, Note_on_c, 9, 45, 1021, 117840, Note_on_c, 9, 49, 891, 117840, Note_on_c, 9, 47, 891, 117840, Note_on_c, 9, 50, 721, 117959, Note_off_c, 9, 38, 1191, 117959, Note_off_c, 9, 45, 1021, 117959, Note_off_c, 9, 49, 891, 117959, Note_off_c, 9, 47, 891, 117959, Note_off_c, 9, 50, 721, 118079, Note_off_c, 6, 76, 1071, 118080, Note_on_c, 0, 75, 1071, 118080, Note_on_c, 1, 39, 931, 118080, Note_on_c, 2, 51, 931, 118080, Note_on_c, 6, 87, 931, 118080, Note_on_c, 9, 36, 1071, 118080, Note_on_c, 9, 57, 891, 118080, Note_on_c, 9, 52, 1191, 118080, Note_on_c, 9, 55, 1021, 118139, Control_c, 6, 64, 127
1, 118199, Note_off_c, 6, 87, 931, 118199, Note_off_c, 9, 57, 891, 118199, Note_off_c, 9, 52, 1191, 118199, Note_off_c, 9, 55, 1021, 118200, Note_on_c, 6, 82, 801, 118311, Note_off_c, 0, 75, 1071, 118319, Note_off_c, 6, 82, 801, 118320, Note_on_c, 1, 37, 761, 118320, Note_on_c, 2, 49, 761, 118320, Note_on_c, 6, 83, 761, 118320, Note_on_c, 9, 51, 931, 118348, Note_on_c, 0, 75, 911, 118394, Note_off_c, 1, 39, 931, 118394, Note_off_c, 2, 51, 931, 118439, Note_off_c, 6, 83, 761, 118439, Note_off_c, 9, 36, 1071, 118439, Note_off_c, 9, 51, 931, 118440, Note_on_c, 6, 82, 761, 118526, Note_off_c, 1, 37, 761, 118526, Note_off_c, 2, 49, 761, 118559, Note_off_c, 6, 82, 761, 118560, Note_on_c, 1, 35, 851, 118560, Note_on_c, 2, 47, 851, 118560, Note_on_c, 6, 80, 851, 118560, Note_on_c, 9, 54, 1071, 118560, Note_on_c, 9, 38, 1131, 118560, Note_on_c, 9, 51, 1021, 118603, Note_off_c, 0, 75, 911, 118678, Note_off_c, 9, 54, 1071, 118679, Note_off_c, 6, 80, 851, 118679, Note_off_c, 9, 38, 1131, 118679, Note_off_c, 9, 51, 1021, 118680, Note_on_c, 6, 82, 721, 118799, Note_off_c, 6, 82, 721, 118800, Note_on_c, 1, 32, 1071, 118800, Note_on_c, 2, 44, 1071, 118800, Note_on_c, 6, 83, 891, 118800, Note_on_c, 9, 36, 1021, 118800, Note_on_c, 9, 51, 1071, 118801, Note_on_c, 0, 75, 951, 118806, Note_off_c, 1, 35, 851, 118806, Note_off_c, 2, 47, 851, 118919, Note_off_c, 6, 83, 891, 118919, Note_off_c, 9, 51, 1071, 118920, Note_on_c, 6, 82, 801, 119039, Note_off_c, 6, 82, 801, 119040, Note_on_c, 6, 87, 1021, 119040, Note_on_c, 9, 51, 931, 119054, Note_off_c, 0, 75, 951, 119056, Note_off_c, 1, 32, 1071, 119056, Note_off_c, 2, 44, 1071, 119159, Note_off_c, 6, 87, 1021, 119159, Note_off_c, 9, 36, 1021, 119159, Note_off_c, 9, 51, 931, 119160, Note_on_c, 6, 82, 761, 119279, Note_off_c, 6, 82, 761, 119280, Note_on_c, 1, 32, 981, 119280, Note_on_c, 2, 44, 981, 119280, Note_on_c, 6, 83, 981, 119280, Note_on_c, 9, 51, 1071, 119280, Note_on_c, 9, 36, 931, 119288, Note_on_c, 0, 73, 1041, 119399, Note_off_c, 6, 83, 981, 119399, Note_off_c, 9, 51, 1071, 119399, Note_off_c, 9, 36, 931, 119400, Note_on_c, 6, 82, 801, 119454, Note_off_c, 0, 73, 1041, 119516, Note_off_c, 1, 32, 981, 119516, Note_off_c, 2, 44, 981, 119519, Note_off_c, 6, 82, 801, 119520, Note_on_c, 6, 80, 851, 119520, Note_on_c, 9, 54, 1191, 119520, Note_on_c, 9, 38, 1071, 119520, Note_on_c, 9, 51, 1071, 119638, Note_off_c, 9, 54, 1191, 119639, Note_off_c, 6, 80, 851, 119639, Note_off_c, 9, 51, 1071, 119640, Note_on_c, 6, 82, 851, 119759, Note_off_c, 6, 82, 851, 119760, Note_on_c, 1, 30, 981, 119760, Note_on_c, 2, 42, 981, 119760, Note_on_c, 6, 83, 931, 119760, Note_on_c, 9, 51, 891, 119879, Note_off_c, 6, 83, 931, 119879, Note_off_c, 9, 38, 1071, 119879, Note_off_c, 9, 51, 891, 119880, Note_on_c, 6, 82, 801, 119957, Note_off_c, 1, 30, 981, 119957, Note_off_c, 2, 42, 981, 119999, Note_off_c, 6, 82, 801, 120000, Note_on_c, 1, 32, 931, 120000, Note_on_c, 2, 44, 931, 120000, Note_on_c, 6, 87, 931, 120000, Note_on_c, 9, 36, 891, 120000, Note_on_c, 9, 51, 1021, 120001, Note_on_c, 0, 73, 931, 120119, Note_off_c, 6, 87, 931, 120119, Note_off_c, 9, 51, 1021, 120120, Note_on_c, 6, 82, 761, 120177, Note_off_c, 1, 32, 931, 120177, Note_off_c, 2, 44, 931, 120239, Note_off_c, 6, 82, 761, 120240, Note_on_c, 1, 32, 891, 120240, Note_on_c, 2, 44, 891, 120240, Note_on_c, 6, 83, 931, 120240, Note_on_c, 9, 51, 891, 120359, Note_off_c, 6, 83, 931, 120359, Note_off_c, 9, 36, 891, 120359, Note_off_c, 9, 51, 891, 120360, Note_on_c, 6, 82, 721, 120415, Note_off_c, 0, 73, 931, 120436, Note_off_c, 1, 32, 891, 120436, Note_off_c, 2, 44, 891, 120479, Note_off_c, 6, 82, 721, 120480, Note_on_c, 1, 30, 931, 120480, Note_on_c, 2, 42, 931, 120480, Note_on_c, 6, 80, 801, 120480, Note_on_c, 9, 54, 1161, 120480, Note_on_c, 9, 38, 1071, 120480, Note_on_c, 9, 51, 1021, 120481, Note_on_c, 0, 73, 921, 120598, Note_off_c, 9, 54, 1161, 120599, Note_off_c, 6, 80, 801, 120599, Note_off_c, 9, 38, 1071, 120599, Note_off_c, 9, 51, 1021, 120600, Note_on_c, 6, 82, 761, 120667, Note_off_c, 1, 30, 931, 120667, Note_off_c, 2, 42, 931, 120719, Note_off_c, 6, 82, 761, 120720, Note_on_c, 1, 32, 931, 120720, Note_on_c, 2, 44, 931, 120720, Note_on_c, 6, 83, 851, 120720, Note_on_c, 9, 36, 1021, 120720, Note_on_c, 9, 51, 1021, 120839, Note_off_c, 6, 83, 851, 120839, Note_off_c, 9, 51, 1021, 120840, Note_on_c, 6, 82, 761, 120875, Note_off_c, 0, 73, 921, 120916, Note_off_c, 1, 32, 931, 120916, Note_off_c, 2, 44, 931, 120959, Note_off_c, 6, 82, 761, 120960, Note_on_c, 6, 87, 931, 120960, Note_on_c, 9, 51, 851, 120968, Note_on_c, 0, 73, 821, 121079, Note_off_c, 6, 87, 931, 121079, Note_off_c, 9, 36, 1021, 121079, Note_off_c, 9, 51, 851, 121080, Note_on_c, 6, 82, 801, 121199, Note_off_c, 6, 82, 801, 121200, Note_on_c, 1, 32, 981, 121200, Note_on_c, 2, 44, 981, 121200, Note_on_c, 6, 83, 931, 121200, Note_on_c, 9, 36, 931, 121200, Note_on_c, 9, 51, 1131, 121319, Note_off_c, 6, 83, 931, 121319, Note_off_c, 9, 36, 931, 121319, Note_off_c, 9, 51, 1131, 121320, Note_on_c, 6, 82, 851, 121397, Note_off_c, 1, 32, 981, 121397, Note_off_c, 2, 44, 981, 121424, Note_off_c, 0, 73, 821, 121439, Note_off_c, 6, 82, 851, 121440, Note_on_c, 6, 80, 891, 121440, Note_on_c, 9, 54, 1161, 121440, Note_on_c, 9, 38, 1131, 121440, Note_on_c, 9, 51, 1131, 121558, Note_off_c, 9, 54, 1161, 121559, Note_off_c, 6, 80, 891, 121559, Note_off_c, 9, 51, 1131, 121560, Note_on_c, 6, 82, 851, 121679, Note_off_c, 6, 82, 851, 121680, Note_on_c, 1, 32, 931, 121680, Note_on_c, 2, 44, 931, 121680, Note_on_c, 6, 83, 931, 121680, Note_on_c, 9, 51, 1071, 121706, Note_on_c, 0, 75, 1131, 121799, Note_off_c, 6, 83, 931, 121799, Note_off_c, 9, 38, 1131, 121799, Note_off_c, 9, 51, 1071, 121800, Note_on_c, 6, 82, 931, 121862, Control_c, 6, 64, 0
1, 121867, Note_off_c, 1, 32, 931, 121867, Note_off_c, 2, 44, 931, 121892, Note_off_c, 0, 75, 1131, 121919, Note_on_c, 0, 76, 1181, 121919, Note_off_c, 6, 82, 931, 121920, Note_on_c, 1, 33, 1071, 121920, Note_on_c, 2, 45, 1071, 121920, Note_on_c, 6, 88, 1131, 121920, Note_on_c, 9, 36, 1021, 121920, Note_on_c, 9, 49, 1021, 122023, Control_c, 6, 64, 127
1, 122039, Note_off_c, 6, 88, 1131, 122039, Note_off_c, 9, 49, 1021, 122040, Note_on_c, 6, 83, 931, 122116, Note_off_c, 1, 33, 1071, 122116, Note_off_c, 2, 45, 1071, 122138, Note_off_c, 0, 76, 1181, 122159, Note_off_c, 6, 83, 931, 122160, Note_on_c, 1, 33, 1021, 122160, Note_on_c, 2, 45, 1021, 122160, Note_on_c, 6, 85, 891, 122160, Note_on_c, 9, 51, 761, 122193, Note_on_c, 0, 76, 971, 122279, Note_off_c, 6, 85, 891, 122279, Note_off_c, 9, 36, 1021, 122279, Note_off_c, 9, 51, 761, 122280, Note_on_c, 6, 83, 851, 122347, Note_off_c, 1, 33, 1021, 122347, Note_off_c, 2, 45, 1021, 122399, Note_off_c, 6, 83, 851, 122400, Note_on_c, 1, 32, 801, 122400, Note_on_c, 2, 44, 801, 122400, Note_on_c, 6, 81, 891, 122400, Note_on_c, 9, 54, 1131, 122400, Note_on_c, 9, 38, 1071, 122400, Note_on_c, 9, 51, 981, 122468, Note_off_c, 0, 76, 971, 122518, Note_off_c, 9, 54, 1131, 122519, Note_off_c, 6, 81, 891, 122519, Note_off_c, 9, 38, 1071, 122519, Note_off_c, 9, 51, 981, 122520, Note_on_c, 6, 83, 761, 122597, Note_off_c, 1, 32, 801, 122597, Note_off_c, 2, 44, 801, 122630, Note_on_c, 0, 76, 981, 122639, Note_off_c, 6, 83, 761, 122640, Note_on_c, 1, 33, 1021, 122640, Note_on_c, 2, 45, 1021, 122640, Note_on_c, 6, 85, 1021, 122640, Note_on_c, 9, 36, 1071, 122640, Note_on_c, 9, 51, 1071, 122759, Note_off_c, 6, 85, 1021, 122759, Note_off_c, 9, 51, 1071, 122760, Note_on_c, 6, 83, 851, 122847, Note_off_c, 1, 33, 1021, 122847, Note_off_c, 2, 45, 1021, 122879, Note_off_c, 6, 83, 851, 122880, Note_on_c, 6, 88, 1021, 122880, Note_on_c, 9, 51, 981, 122934, Note_off_c, 0, 76, 981, 122999, Note_off_c, 6, 88, 1021, 122999, Note_off_c, 9, 36, 1071, 122999, Note_off_c, 9, 51, 981, 123000, Note_on_c, 6, 83, 891, 123112, Note_on_c, 0, 75, 911, 123119, Note_off_c, 6, 83, 891, 123120, Note_on_c, 1, 33, 1131, 123120, Note_on_c, 2, 45, 1131, 123120, Note_on_c, 6, 85, 1021, 123120, Note_on_c, 9, 36, 931, 123120, Note_on_c, 9, 51, 1021, 123239, Note_off_c, 6, 85, 1021, 123239, Note_off_c, 9, 36, 931, 123239, Note_off_c, 9, 51, 1021, 123240, Note_on_c, 6, 83, 801, 123297, Note_off_c, 1, 33, 1131, 123297, Note_off_c, 2, 45, 1131, 123348, Note_off_c, 0, 75, 911, 123359, Note_off_c, 6, 83, 801, 123360, Note_on_c, 6, 81, 891, 123360, Note_on_c, 9, 54, 1161, 123360, Note_on_c, 9, 38, 1071, 123360, Note_on_c, 9, 51, 1071, 123478, Note_off_c, 9, 54, 1161, 123479, Note_off_c, 6, 81, 891, 123479, Note_off_c, 9, 51, 1071, 123480, Note_on_c, 6, 83, 851, 123599, Note_on_c, 0, 76, 1021, 123599, Note_off_c, 6, 83, 851, 123600, Note_on_c, 1, 32, 891, 123600, Note_on_c, 2, 44, 891, 123600, Note_on_c, 6, 85, 1021, 123600, Note_on_c, 9, 51, 891, 123719, Note_off_c, 6, 85, 1021, 123719, Note_off_c, 9, 38, 1071, 123719, Note_off_c, 9, 51, 891, 123720, Note_on_c, 6, 83, 761, 123793, Note_on_c, 0, 76, 861, 123797, Note_off_c, 1, 32, 891, 123797, Note_off_c, 2, 44, 891, 123839, Note_off_c, 6, 83, 761, 123840, Note_off_c, 0, 76, 1021, 123840, Note_on_c, 1, 33, 1021, 123840, Note_on_c, 2, 45, 1021, 123840, Note_on_c, 6, 88, 1071, 123840, Note_on_c, 9, 36, 1071, 123840, Note_on_c, 9, 51, 1021, 123918, Note_off_c, 0, 76, 861, 123959, Note_off_c, 6, 88, 1071, 123959, Note_off_c, 9, 51, 1021, 123960, Note_on_c, 6, 83, 801, 124027, Note_off_c, 1, 33, 1021, 124027, Note_off_c, 2, 45, 1021, 124079, Note_off_c, 6, 83, 801, 124080, Note_on_c, 0, 80, 811, 124080, Note_on_c, 1, 33, 981, 124080, Note_on_c, 2, 45, 981, 124080, Note_on_c, 6, 85, 1021, 124080, Note_on_c, 9, 51, 981, 124199, Note_off_c, 6, 85, 1021, 124199, Note_off_c, 9, 36, 1071, 124199, Note_off_c, 9, 51, 981, 124200, Note_on_c, 6, 83, 761, 124257, Note_off_c, 1, 33, 981, 124257, Note_off_c, 2, 45, 981, 124319, Note_off_c, 6, 83, 761, 124320, Note_on_c, 1, 32, 801, 124320, Note_on_c, 2, 44, 801, 124320, Note_on_c, 6, 81, 891, 124320, Note_on_c, 9, 54, 1231, 124320, Note_on_c, 9, 38, 1071, 124320, Note_on_c, 9, 51, 1021, 124438, Note_off_c, 9, 54, 1231, 124439, Note_off_c, 6, 81, 891, 124439, Note_off_c, 9, 38, 1071, 124439, Note_off_c, 9, 51, 1021, 124440, Note_on_c, 6, 83, 761, 124444, Note_off_c, 0, 80, 811, 124527, Note_off_c, 1, 32, 801, 124527, Note_off_c, 2, 44, 801, 124559, Note_off_c, 6, 83, 761, 124560, Note_on_c, 1, 33, 1071, 124560, Note_on_c, 2, 45, 1071, 124560, Note_on_c, 6, 85, 981, 124560, Note_on_c, 9, 36, 1071, 124560, Note_on_c, 9, 51, 1021, 124569, Note_on_c, 0, 76, 861, 124679, Note_off_c, 6, 85, 981, 124679, Note_off_c, 9, 51, 1021, 124680, Note_on_c, 6, 83, 761, 124747, Note_off_c, 1, 33, 1071, 124747, Note_off_c, 2, 45, 1071, 124799, Note_off_c, 6, 83, 761, 124800, Note_on_c, 6, 88, 1021, 124800, Note_on_c, 9, 51, 1021, 124919, Note_off_c, 6, 88, 1021, 124919, Note_off_c, 9, 36, 1071, 124919, Note_off_c, 9, 51, 1021, 124920, Note_on_c, 6, 83, 891, 125039, Note_off_c, 6, 83, 891, 125040, Note_on_c, 1, 33, 1021, 125040, Note_on_c, 2, 45, 1021, 125040, Note_on_c, 6, 85, 931, 125040, Note_on_c, 9, 36, 981, 125040, Note_on_c, 9, 51, 1071, 125149, Note_off_c, 0, 76, 861, 125159, Note_off_c, 6, 85, 931, 125159, Note_off_c, 9, 36, 981, 125159, Note_off_c, 9, 51, 1071, 125160, Note_on_c, 6, 83, 851, 125227, Note_off_c, 1, 33, 1021, 125227, Note_off_c, 2, 45, 1021, 125279, Note_off_c, 6, 83, 851, 125280, Note_on_c, 6, 81, 801, 125280, Note_on_c, 9, 54, 1071, 125280, Note_on_c, 9, 51, 1131, 125280, Note_on_c, 9, 38, 1131, 125398, Note_off_c, 9, 54, 1071, 125399, Note_off_c, 6, 81, 801, 125399, Note_off_c, 9, 51, 1131, 125399, Note_off_c, 9, 38, 1131, 125400, Note_on_c, 6, 83, 761, 125519, Note_off_c, 6, 83, 761, 125520, Note_on_c, 1, 33, 1021, 125520, Note_on_c, 2, 45, 1021, 125520, Note_on_c, 6, 85, 1071, 125520, Note_on_c, 9, 52, 1131, 125520, Note_on_c, 9, 36, 1131, 125521, Note_on_c, 0, 75, 1131, 125628, Note_off_c, 1, 33, 1021, 125628, Note_off_c, 2, 45, 1021, 125639, Note_off_c, 6, 85, 1071, 125639, Note_off_c, 9, 52, 1131, 125639, Note_off_c, 9, 36, 1131, 125640, Note_on_c, 6, 83, 851, 125711, Note_off_c, 0, 75, 1131, 125759, Note_off_c, 6, 83, 851, 125760, Control_c, 6, 64, 0
1, 125760, Note_on_c, 0, 75, 1131, 125760, Note_on_c, 1, 39, 1131, 125760, Note_on_c, 2, 51, 1131, 125760, Note_on_c, 6, 87, 931, 125760, Note_on_c, 9, 36, 1191, 125760, Note_on_c, 9, 57, 1131, 125760, Note_on_c, 9, 55, 1021, 125819, Control_c, 6, 64, 127
1, 125879, Note_off_c, 6, 87, 931, 125879, Note_off_c, 9, 57, 1131, 125879, Note_off_c, 9, 55, 1021, 125880, Note_on_c, 6, 82, 801, 125916, Note_off_c, 0, 75, 1131, 125986, Note_off_c, 1, 39, 1131, 125986, Note_off_c, 2, 51, 1131, 125999, Note_off_c, 6, 82, 801, 126000, Note_on_c, 1, 37, 721, 126000, Note_on_c, 2, 49, 721, 126000, Note_on_c, 6, 83, 761, 126000, Note_on_c, 9, 51, 931, 126009, Note_on_c, 0, 75, 1001, 126119, Note_off_c, 6, 83, 761, 126119, Note_off_c, 9, 36, 1191, 126119, Note_off_c, 9, 51, 931, 126120, Note_on_c, 6, 82, 761, 126226, Note_off_c, 1, 37, 721, 126226, Note_off_c, 2, 49, 721, 126239, Note_off_c, 6, 82, 761, 126240, Note_on_c, 1, 35, 931, 126240, Note_on_c, 2, 47, 931, 126240, Note_on_c, 6, 80, 851, 126240, Note_on_c, 9, 54, 1231, 126240, Note_on_c, 9, 38, 1071, 126240, Note_on_c, 9, 51, 931, 126350, Note_off_c, 0, 75, 1001, 126358, Note_off_c, 9, 54, 1231, 126359, Note_off_c, 6, 80, 851, 126359, Note_off_c, 9, 38, 1071, 126359, Note_off_c, 9, 51, 931, 126360, Note_on_c, 6, 82, 721, 126447, Note_off_c, 1, 35, 931, 126447, Note_off_c, 2, 47, 931, 126479, Note_off_c, 6, 82, 721, 126480, Note_on_c, 0, 75, 1021, 126480, Note_on_c, 1, 32, 931, 126480, Note_on_c, 2, 44, 931, 126480, Note_on_c, 6, 83, 891, 126480, Note_on_c, 9, 36, 1071, 126480, Note_on_c, 9, 51, 1071, 126599, Note_off_c, 6, 83, 891, 126599, Note_off_c, 9, 51, 1071, 126600, Note_on_c, 6, 82, 801, 126697, Note_off_c, 1, 32, 931, 126697, Note_off_c, 2, 44, 931, 126719, Note_off_c, 6, 82, 801, 126720, Note_on_c, 6, 87, 1021, 126720, Note_on_c, 9, 51, 891, 126839, Note_off_c, 6, 87, 1021, 126839, Note_off_c, 9, 36, 1071, 126839, Note_off_c, 9, 51, 891, 126840, Note_on_c, 6, 82, 761, 126875, Note_off_c, 0, 75, 1021, 126959, Note_off_c, 6, 82, 761, 126960, Note_on_c, 1, 32, 1021, 126960, Note_on_c, 2, 44, 1021, 126960, Note_on_c, 6, 83, 981, 126960, Note_on_c, 9, 36, 891, 126960, Note_on_c, 9, 51, 981, 127079, Note_off_c, 6, 83, 981, 127079, Note_off_c, 9, 36, 891, 127079, Note_off_c, 9, 51, 981, 127080, Note_on_c, 6, 82, 801, 127147, Note_off_c, 1, 32, 1021, 127147, Note_off_c, 2, 44, 1021, 127199, Note_off_c, 6, 82, 801, 127200, Note_on_c, 6, 80, 851, 127200, Note_on_c, 9, 54, 1191, 127200, Note_on_c, 9, 38, 1071, 127200, Note_on_c, 9, 51, 1071, 127318, Note_off_c, 9, 54, 1191, 127319, Note_off_c, 6, 80, 851, 127319, Note_off_c, 9, 51, 1071, 127320, Note_on_c, 6, 82, 851, 127439, Note_off_c, 6, 82, 851, 127440, Note_on_c, 1, 30, 931, 127440, Note_on_c, 2, 42, 931, 127440, Note_on_c, 6, 83, 931, 127440, Note_on_c, 9, 51, 931, 127441, Note_on_c, 0, 73, 1071, 127559, Note_off_c, 6, 83, 931, 127559, Note_off_c, 9, 38, 1071, 127559, Note_off_c, 9, 51, 931, 127560, Note_on_c, 6, 82, 801, 127627, Note_off_c, 1, 30, 931, 127627, Note_off_c, 2, 42, 931, 127646, Note_off_c, 0, 73, 1071, 127679, Note_off_c, 6, 82, 801, 127680, Note_on_c, 1, 32, 931, 127680, Note_on_c, 2, 44, 931, 127680, Note_on_c, 6, 87, 931, 127680, Note_on_c, 9, 36, 931, 127680, Note_on_c, 9, 51, 981, 127684, Note_on_c, 0, 73, 951, 127799, Note_off_c, 6, 87, 931, 127799, Note_off_c, 9, 51, 981, 127800, Note_on_c, 6, 82, 761, 127847, Note_off_c, 1, 32, 931, 127847, Note_off_c, 2, 44, 931, 127859, Note_off_c, 0, 73, 951, 127919, Note_off_c, 6, 82, 761, 127920, Note_on_c, 1, 32, 851, 127920, Note_on_c, 2, 44, 851, 127920, Note_on_c, 6, 83, 931, 127920, Note_on_c, 9, 51, 1021, 127923, Note_on_c, 0, 73, 1171, 128039, Note_off_c, 6, 83, 931, 128039, Note_off_c, 9, 36, 931, 128039, Note_off_c, 9, 51, 1021, 128040, Note_on_c, 6, 82, 721, 128107, Note_off_c, 1, 32, 851, 128107, Note_off_c, 2, 44, 851, 128159, Note_off_c, 6, 82, 721, 128160, Note_on_c, 1, 30, 891, 128160, Note_on_c, 2, 42, 891, 128160, Note_on_c, 6, 80, 801, 128160, Note_on_c, 9, 54, 1161, 128160, Note_on_c, 9, 38, 1071, 128160, Note_on_c, 9, 51, 1071, 128234, Note_off_c, 0, 73, 1171, 128278, Note_off_c, 9, 54, 1161, 128279, Note_off_c, 6, 80, 801, 128279, Note_off_c, 9, 38, 1071, 128279, Note_off_c, 9, 51, 1071, 128280, Note_on_c, 6, 82, 761, 128366, Note_off_c, 1, 30, 891, 128366, Note_off_c, 2, 42, 891, 128399, Note_off_c, 6, 82, 761, 128400, Note_on_c, 0, 73, 1101, 128400, Note_on_c, 1, 32, 981, 128400, Note_on_c, 2, 44, 981, 128400, Note_on_c, 6, 83, 851, 128400, Note_on_c, 9, 36, 1021, 128400, Note_on_c, 9, 51, 1071, 128519, Note_off_c, 6, 83, 851, 128519, Note_off_c, 9, 51, 1071, 128520, Note_on_c, 6, 82, 761, 128587, Note_off_c, 1, 32, 981, 128587, Note_off_c, 2, 44, 981, 128639, Note_off_c, 6, 82, 761, 128640, Note_on_c, 6, 87, 931, 128640, Note_on_c, 9, 51, 981, 128759, Note_off_c, 6, 87, 931, 128759, Note_off_c, 9, 36, 1021, 128759, Note_off_c, 9, 51, 981, 128760, Note_on_c, 6, 82, 801, 128817, Note_off_c, 0, 73, 1101, 128827, Pitch_bend_c, 0, 7840
1, 128842, Pitch_bend_c, 0, 7372
1, 128857, Pitch_bend_c, 0, 6670
1, 128872, Pitch_bend_c, 0, 5851
1, 128879, Note_off_c, 6, 82, 801, 128880, Note_on_c, 1, 32, 931, 128880, Note_on_c, 2, 44, 931, 128880, Note_on_c, 6, 83, 931, 128880, Note_on_c, 9, 51, 1071, 128880, Note_on_c, 9, 36, 891, 128888, Pitch_bend_c, 0, 5149
1, 128903, Pitch_bend_c, 0, 4447
1, 128918, Pitch_bend_c, 0, 3628
1, 128934, Pitch_bend_c, 0, 2575
1, 128949, Pitch_bend_c, 0, 1639
1, 128966, Pitch_bend_c, 0, 937
1, 128979, Pitch_bend_c, 0, 352
1, 128994, Pitch_bend_c, 0, 118
1, 128999, Note_off_c, 6, 83, 931, 128999, Note_off_c, 9, 51, 1071, 128999, Note_off_c, 9, 36, 891, 129000, Note_on_c, 6, 82, 851, 129067, Note_off_c, 1, 32, 931, 129067, Note_off_c, 2, 44, 931, 129119, Note_off_c, 6, 82, 851, 129120, Pitch_bend_c, 0, 8192
1, 129120, Note_on_c, 6, 80, 891, 129120, Note_on_c, 9, 54, 1231, 129120, Note_on_c, 9, 38, 1131, 129120, Note_on_c, 9, 51, 1071, 129238, Note_off_c, 9, 54, 1231, 129239, Note_off_c, 6, 80, 891, 129239, Note_off_c, 9, 38, 1131, 129239, Note_off_c, 9, 51, 1071, 129240, Note_on_c, 6, 82, 851, 129359, Note_off_c, 6, 82, 851, 129360, Note_on_c, 1, 32, 891, 129360, Note_on_c, 2, 44, 891, 129360, Note_on_c, 6, 83, 931, 129360, Note_on_c, 9, 38, 1071, 129360, Note_on_c, 9, 49, 1131, 129371, Note_on_c, 0, 75, 971, 129479, Note_off_c, 6, 83, 931, 129479, Note_off_c, 9, 38, 1071, 129479, Note_off_c, 9, 49, 1131, 129480, Note_on_c, 6, 82, 931, 129542, Control_c, 6, 64, 0
1, 129550, Note_off_c, 0, 75, 971, 129557, Note_off_c, 1, 32, 891, 129557, Note_off_c, 2, 44, 891, 129599, Note_off_c, 6, 82, 931, 129600, Note_on_c, 1, 33, 1071, 129600, Note_on_c, 2, 45, 1071, 129600, Note_on_c, 6, 88, 1131, 129600, Note_on_c, 9, 36, 1191, 129600, Note_on_c, 9, 57, 1021, 129603, Note_on_c, 0, 76, 1061, 129703, Control_c, 6, 64, 127
1, 129719, Note_off_c, 6, 88, 1131, 129719, Note_off_c, 9, 57, 1021, 129720, Note_on_c, 6, 83, 931, 129778, Note_off_c, 1, 33, 1071, 129778, Note_off_c, 2, 45, 1071, 129791, Note_off_c, 0, 76, 1061, 129839, Note_off_c, 6, 83, 931, 129840, Note_on_c, 1, 33, 931, 129840, Note_on_c, 2, 45, 931, 129840, Note_on_c, 6, 85, 891, 129840, Note_on_c, 9, 51, 891, 129855, Note_on_c, 0, 75, 1081, 129959, Note_off_c, 6, 85, 891, 129959, Note_off_c, 9, 36, 1191, 129959, Note_off_c, 9, 51, 891, 129960, Note_on_c, 6, 83, 851, 130046, Note_off_c, 1, 33, 931, 130046, Note_off_c, 2, 45, 931, 130079, Note_off_c, 6, 83, 851, 130080, Note_on_c, 1, 32, 761, 130080, Note_on_c, 2, 44, 761, 130080, Note_on_c, 6, 81, 891, 130080, Note_on_c, 9, 54, 1191, 130080, Note_on_c, 9, 38, 1071, 130080, Note_on_c, 9, 51, 1021, 130158, Note_off_c, 0, 75, 1081, 130198, Note_off_c, 9, 54, 1191, 130199, Note_off_c, 6, 81, 891, 130199, Note_off_c, 9, 38, 1071, 130199, Note_off_c, 9, 51, 1021, 130200, Note_on_c, 6, 83, 761, 130296, Note_off_c, 1, 32, 761, 130296, Note_off_c, 2, 44, 761, 130319, Note_off_c, 6, 83, 761, 130320, Note_on_c, 1, 33, 1071, 130320, Note_on_c, 2, 45, 1071, 130320, Note_on_c, 6, 85, 1021, 130320, Note_on_c, 9, 36, 1021, 130320, Note_on_c, 9, 51, 1131, 130325, Note_on_c, 0, 76, 1061, 130439, Note_off_c, 6, 85, 1021, 130439, Note_off_c, 9, 51, 1131, 130440, Note_on_c, 6, 83, 851, 130507, Note_off_c, 1, 33, 1071, 130507, Note_off_c, 2, 45, 1071, 130559, Note_off_c, 6, 83, 851, 130560, Note_on_c, 6, 88, 1021, 130560, Note_on_c, 9, 51, 851, 130619, Note_off_c, 0, 76, 1061, 130679, Note_off_c, 6, 88, 1021, 130679, Note_off_c, 9, 36, 1021, 130679, Note_off_c, 9, 51, 851, 130680, Note_on_c, 6, 83, 891, 130799, Note_off_c, 6, 83, 891, 130800, Note_on_c, 1, 33, 1071, 130800, Note_on_c, 2, 45, 1071, 130800, Note_on_c, 6, 85, 1021, 130800, Note_on_c, 9, 51, 981, 130800, Note_on_c, 9, 36, 931, 130801, Note_on_c, 0, 75, 1101, 130919, Note_off_c, 6, 85, 1021, 130919, Note_off_c, 9, 51, 981, 130919, Note_off_c, 9, 36, 931, 130920, Note_on_c, 6, 83, 801, 131016, Note_off_c, 1, 33, 1071, 131016, Note_off_c, 2, 45, 1071, 131039, Note_off_c, 6, 83, 801, 131040, Note_on_c, 6, 81, 891, 131040, Note_on_c, 9, 54, 1131, 131040, Note_on_c, 9, 38, 1021, 131040, Note_on_c, 9, 51, 1071, 131098, Note_off_c, 0, 75, 1101, 131158, Note_off_c, 9, 54, 1131, 131159, Note_off_c, 6, 81, 891, 131159, Note_off_c, 9, 51, 1071, 131160, Note_on_c, 6, 83, 851, 131279, Note_off_c, 6, 83, 851, 131280, Note_on_c, 1, 32, 801, 131280, Note_on_c, 2, 44, 801, 131280, Note_on_c, 6, 85, 1021, 131280, Note_on_c, 9, 51, 981, 131399, Note_off_c, 6, 85, 1021, 131399, Note_off_c, 9, 38, 1021, 131399, Note_off_c, 9, 51, 981, 131400, Note_on_c, 6, 83, 761, 131477, Note_off_c, 1, 32, 801, 131477, Note_off_c, 2, 44, 801, 131519, Note_off_c, 6, 83, 761, 131520, Note_on_c, 1, 33, 1021, 131520, Note_on_c, 2, 45, 1021, 131520, Note_on_c, 6, 88, 1071, 131520, Note_on_c, 9, 36, 981, 131520, Note_on_c, 9, 51, 1071, 131523, Note_on_c, 0, 80, 1061, 131639, Note_off_c, 6, 88, 1071, 131639, Note_off_c, 9, 36, 981, 131639, Note_off_c, 9, 51, 1071, 131640, Note_on_c, 6, 83, 801, 131668, Note_off_c, 1, 33, 1021, 131668, Note_off_c, 2, 45, 1021, 131759, Note_off_c, 6, 83, 801, 131760, Note_on_c, 1, 33, 891, 131760, Note_on_c, 2, 45, 891, 131760, Note_on_c, 6, 85, 1021, 131760, Note_on_c, 9, 36, 891, 131760, Note_on_c, 9, 51, 1021, 131879, Note_off_c, 6, 85, 1021, 131879, Note_off_c, 9, 36, 891, 131879, Note_off_c, 9, 51, 1021, 131880, Note_on_c, 6, 83, 761, 131927, Note_off_c, 1, 33, 891, 131927, Note_off_c, 2, 45, 891, 131985, Note_off_c, 0, 80, 1061, 131999, Note_off_c, 6, 83, 761, 132000, Note_on_c, 1, 32, 891, 132000, Note_on_c, 2, 44, 891, 132000, Note_on_c, 6, 81, 891, 132000, Note_on_c, 9, 54, 971, 132000, Note_on_c, 9, 38, 1071, 132000, Note_on_c, 9, 51, 1071, 132002, Note_on_c, 0, 76, 1061, 132118, Note_off_c, 9, 54, 971, 132119, Note_off_c, 6, 81, 891, 132119, Note_off_c, 9, 38, 1071, 132119, Note_off_c, 9, 51, 1071, 132120, Note_on_c, 6, 83, 761, 132152, Note_off_c, 0, 76, 1061, 132177, Note_off_c, 1, 32, 891, 132177, Note_off_c, 2, 44, 891, 132237, Note_on_c, 0, 76, 1061, 132239, Note_off_c, 6, 83, 761, 132240, Note_on_c, 1, 33, 1071, 132240, Note_on_c, 2, 45, 1071, 132240, Note_on_c, 6, 85, 981, 132240, Note_on_c, 9, 36, 1131, 132240, Note_on_c, 9, 51, 1071, 132359, Note_off_c, 6, 85, 981, 132359, Note_off_c, 9, 51, 1071, 132360, Note_on_c, 6, 83, 761, 132436, Note_off_c, 1, 33, 1071, 132436, Note_off_c, 2, 45, 1071, 132479, Note_off_c, 6, 83, 761, 132480, Note_on_c, 6, 88, 1021, 132480, Note_on_c, 9, 51, 981, 132599, Note_off_c, 6, 88, 1021, 132599, Note_off_c, 9, 36, 1131, 132599, Note_off_c, 9, 51, 981, 132600, Note_on_c, 6, 83, 891, 132673, Note_off_c, 0, 76, 1061, 132719, Note_off_c, 6, 83, 891, 132720, Note_on_c, 1, 33, 931, 132720, Note_on_c, 2, 45, 931, 132720, Note_on_c, 6, 85, 931, 132720, Note_on_c, 9, 51, 1071, 132720, Note_on_c, 9, 36, 981, 132839, Note_off_c, 6, 85, 931, 132839, Note_off_c, 9, 51, 1071, 132839, Note_off_c, 9, 36, 981, 132840, Note_on_c, 6, 83, 851, 132936, Note_off_c, 1, 33, 931, 132936, Note_off_c, 2, 45, 931, 132959, Note_off_c, 6, 83, 851, 132960, Note_on_c, 6, 81, 801, 132960, Note_on_c, 9, 54, 1131, 132960, Note_on_c, 9, 51, 1021, 132960, Note_on_c, 9, 38, 1191, 133078, Note_off_c, 9, 54, 1131, 133079, Note_off_c, 6, 81, 801, 133079, Note_off_c, 9, 51, 1021, 133079, Note_off_c, 9, 38, 1191, 133080, Note_on_c, 6, 83, 761, 133199, Note_off_c, 6, 83, 761, 133200, Note_on_c, 1, 33, 981, 133200, Note_on_c, 2, 45, 981, 133200, Note_on_c, 6, 85, 1071, 133200, Note_on_c, 9, 38, 601, 133200, Note_on_c, 9, 51, 931, 133319, Note_off_c, 6, 85, 1071, 133319, Note_off_c, 9, 38, 601, 133319, Note_off_c, 9, 51, 931, 133320, Note_on_c, 6, 83, 851, 133426, Note_off_c, 1, 33, 981, 133426, Note_off_c, 2, 45, 981, 133439, Control_c, 6, 64, 0
1, 133439, Note_off_c, 6, 83, 851, 133440, Note_on_c, 1, 28, 851, 133440, Note_on_c, 2, 40, 851, 133440, Note_on_c, 6, 83, 1071, 133440, Note_on_c, 6, 80, 1071, 133440, Note_on_c, 9, 38, 1271, 133440, Note_on_c, 9, 40, 721, 133559, Note_off_c, 6, 83, 1071, 133559, Note_off_c, 6, 80, 1071, 133559, Note_off_c, 9, 38, 1271, 133559, Note_off_c, 9, 40, 721, 133560, Note_on_c, 6, 76, 891, 133560, Note_on_c, 9, 38, 1131, 133602, Pitch_bend_c, 0, 7840
1, 133616, Pitch_bend_c, 0, 7021
1, 133631, Pitch_bend_c, 0, 5617
1, 133647, Pitch_bend_c, 0, 3862
1, 133661, Pitch_bend_c, 0, 1756
1, 133677, Pitch_bend_c, 0, 0
1, 133679, Note_off_c, 6, 76, 891, 133679, Note_off_c, 9, 38, 1131, 133680, Note_on_c, 6, 80, 891, 133680, Note_on_c, 6, 83, 851, 133799, Pitch_bend_c, 0, 937
1, 133799, Note_off_c, 6, 80, 891, 133799, Note_off_c, 6, 83, 851, 133800, Note_on_c, 6, 76, 1071, 133800, Note_on_c, 9, 43, 1071, 133814, Pitch_bend_c, 0, 2926
1, 133829, Pitch_bend_c, 0, 5617
1, 133846, Pitch_bend_c, 0, 8192
1, 133919, Note_off_c, 6, 76, 1071, 133919, Note_off_c, 9, 43, 1071, 133920, Note_on_c, 6, 80, 1021, 133920, Note_on_c, 6, 83, 981, 133920, Note_on_c, 9, 54, 1131, 133920, Note_on_c, 9, 41, 1131, 133920, Note_on_c, 9, 43, 931, 134038, Note_off_c, 9, 54, 1131, 134039, Note_off_c, 6, 80, 1021, 134039, Note_off_c, 6, 83, 981, 134039, Note_off_c, 9, 41, 1131, 134039, Note_off_c, 9, 43, 931, 134109, Note_off_c, 1, 28, 851, 134109, Note_off_c, 2, 40, 851, 134160, Note_on_c, 1, 40, 1131, 134160, Note_on_c, 2, 52, 1131, 134160, Note_on_c, 6, 80, 1021, 134160, Note_on_c, 6, 83, 1021, 134160, Note_on_c, 9, 36, 1131, 134160, Note_on_c, 9, 49, 1271, 134172, Note_on_c, 0, 76, 1101, 134279, Note_off_c, 6, 80, 1021, 134279, Note_off_c, 6, 83, 1021, 134279, Note_off_c, 9, 49, 1271, 134280, Note_on_c, 6, 76, 1021, 134299, Note_off_c, 0, 76, 1101, 134399, Note_off_c, 6, 76, 1021, 134400, Note_on_c, 6, 80, 981, 134400, Note_on_c, 6, 83, 931, 134409, Note_on_c, 0, 76, 1021, 134519, Note_off_c, 6, 80, 981, 134519, Note_off_c, 6, 83, 931, 134520, Note_on_c, 6, 76, 1071, 134566, Note_off_c, 0, 76, 1021, 134639, Note_off_c, 6, 76, 1071, 134640, Note_on_c, 6, 80, 1071, 134640, Note_on_c, 6, 83, 1071, 134649, Note_on_c, 0, 76, 971, 134759, Note_off_c, 6, 80, 1071, 134759, Note_off_c, 6, 83, 1071, 134759, Note_off_c, 9, 36, 1131, 134786, Note_off_c, 0, 76, 971, 134880, Note_on_c, 6, 83, 1131, 134880, Note_on_c, 6, 80, 1071, 134880, Note_on_c, 9, 54, 1101, 134880, Note_on_c, 9, 38, 1131, 134880, Note_on_c, 9, 51, 1191, 134888, Note_on_c, 0, 76, 941, 134998, Note_off_c, 9, 54, 1101, 134999, Note_off_c, 9, 51, 1191, 135051, Note_off_c, 0, 76, 941, 135119, Note_off_c, 9, 38, 1131, 135120, Note_on_c, 6, 76, 1021, 135120, Note_on_c, 9, 51, 981, 135135, Note_on_c, 0, 76, 1021, 135239, Note_off_c, 6, 83, 1131, 135239, Note_off_c, 6, 80, 1071, 135239, Note_off_c, 9, 51, 981, 135262, Note_off_c, 1, 40, 1131, 135262, Note_off_c, 2, 52, 1131, 135359, Note_off_c, 6, 76, 1021, 135360, Note_on_c, 1, 28, 1021, 135360, Note_on_c, 2, 40, 1021, 135360, Note_on_c, 6, 82, 1071, 135360, Note_on_c, 6, 80, 1071, 135360, Note_on_c, 9, 41, 1271, 135479, Note_off_c, 6, 82, 1071, 135479, Note_off_c, 6, 80, 1071, 135479, Note_off_c, 9, 41, 1271, 135480, Note_on_c, 6, 76, 1021, 135480, Note_on_c, 9, 36, 1131, 135481, Note_off_c, 0, 76, 1021, 135592, Note_on_c, 0, 73, 921, 135599, Note_off_c, 6, 76, 1021, 135599, Note_off_c, 9, 36, 1131, 135600, Note_on_c, 6, 80, 801, 135600, Note_on_c, 6, 82, 801, 135719, Note_off_c, 6, 80, 801, 135719, Note_off_c, 6, 82, 801, 135720, Note_on_c, 6, 76, 1021, 135720, Note_on_c, 9, 38, 981, 135723, Note_on_c, 0, 71, 1081, 135728, Note_off_c, 0, 73, 921, 135839, Note_off_c, 9, 38, 981, 135840, Note_on_c, 6, 80, 981, 135840, Note_on_c, 6, 82, 981, 135840, Note_on_c, 9, 54, 951, 135840, Note_on_c, 9, 38, 1071, 135852, Note_off_c, 0, 71, 1081, 135854, Note_on_c, 0, 68, 921, 135958, Note_off_c, 9, 54, 951, 135959, Note_off_c, 6, 80, 981, 135959, Note_off_c, 6, 82, 981, 135959, Note_off_c, 9, 38, 1071, 136006, Note_off_c, 0, 68, 921, 136026, Note_on_c, 0, 64, 821, 136029, Note_off_c, 1, 28, 1021, 136029, Note_off_c, 2, 40, 1021, 136079, Note_off_c, 6, 76, 1021, 136080, Note_on_c, 1, 40, 981, 136080, Note_on_c, 2, 52, 981, 136080, Note_on_c, 6, 82, 981, 136080, Note_on_c, 6, 80, 891, 136080, Note_on_c, 9, 36, 1191, 136080, Note_on_c, 9, 57, 1271, 136199, Note_off_c, 6, 82, 981, 136199, Note_off_c, 6, 80, 891, 136199, Note_off_c, 9, 36, 1191, 136199, Note_off_c, 9, 57, 1271, 136200, Note_on_c, 6, 76, 981, 136319, Note_off_c, 6, 76, 981, 136320, Note_on_c, 6, 80, 981, 136320, Note_on_c, 6, 82, 931, 136422, Note_off_c, 0, 64, 821, 136439, Note_off_c, 6, 80, 981, 136439, Note_off_c, 6, 82, 931, 136440, Note_on_c, 6, 76, 981, 136440, Note_on_c, 9, 38, 1191, 136559, Note_off_c, 9, 38, 1191, 136560, Note_on_c, 6, 80, 981, 136560, Note_on_c, 6, 82, 981, 136560, Note_on_c, 9, 45, 1271, 136679, Note_off_c, 6, 80, 981, 136679, Note_off_c, 6, 82, 981, 136679, Note_off_c, 9, 45, 1271, 136799, Note_off_c, 6, 76, 981, 136800, Note_on_c, 6, 80, 1071, 136800, Note_on_c, 6, 82, 1071, 136800, Note_on_c, 9, 43, 1021, 136800, Note_on_c, 9, 45, 1021, 136919, Note_off_c, 9, 43, 1021, 136919, Note_off_c, 9, 45, 1021, 136920, Note_on_c, 9, 41, 1131, 137039, Note_off_c, 6, 80, 1071, 137039, Note_off_c, 6, 82, 1071, 137039, Note_off_c, 9, 41, 1131, 137040, Note_on_c, 6, 76, 1071, 137040, Note_on_c, 9, 41, 1131, 137159, Note_off_c, 9, 41, 1131, 137172, Note_off_c, 1, 40, 981, 137172, Note_off_c, 2, 52, 981, 137279, Note_on_c, 0, 70, 1161, 137279, Note_off_c, 6, 76, 1071, 137280, Note_on_c, 1, 39, 1131, 137280, Note_on_c, 6, 82, 1071, 137280, Note_on_c, 6, 87, 981, 137280, Note_on_c, 9, 36, 1071, 137280, Note_on_c, 9, 49, 1191, 137285, Note_on_c, 2, 39, 1131, 137368, Note_off_c, 1, 39, 1131, 137390, Note_off_c, 2, 39, 1131, 137399, Note_off_c, 6, 82, 1071, 137399, Note_off_c, 6, 87, 981, 137399, Note_off_c, 9, 49, 1191, 137400, Note_on_c, 1, 39, 851, 137400, Note_on_c, 6, 80, 931, 137400, Note_on_c, 9, 54, 761, 137403, Note_on_c, 2, 46, 1041, 137498, Note_off_c, 1, 39, 851, 137507, Note_off_c, 2, 46, 1041, 137518, Note_off_c, 9, 54, 761, 137519, Note_off_c, 6, 80, 931, 137520, Note_on_c, 6, 79, 891, 137520, Note_on_c, 9, 54, 1271, 137520, Note_on_c, 9, 42, 1271, 137528, Note_on_c, 2, 39, 841, 137604, Note_off_c, 0, 70, 1161, 137630, Note_off_c, 2, 39, 841, 137638, Note_off_c, 9, 54, 1271, 137639, Note_off_c, 6, 79, 891, 137639, Note_off_c, 9, 36, 1071, 137639, Note_off_c, 9, 42, 1271, 137640, Note_on_c, 1, 39, 931, 137640, Note_on_c, 6, 80, 851, 137640, Note_on_c, 9, 54, 681, 137641, Note_on_c, 2, 46, 991, 137699, Note_off_c, 1, 39, 931, 137740, Note_off_c, 2, 46, 991, 137758, Note_off_c, 9, 54, 681, 137759, Note_off_c, 6, 80, 851, 137760, Note_on_c, 1, 39, 981, 137760, Note_on_c, 6, 79, 801, 137760, Note_on_c, 9, 54, 1271, 137760, Note_on_c, 9, 38, 1131, 137760, Note_on_c, 9, 42, 1271, 137761, Note_on_c, 0, 70, 1071, 137761, Note_on_c, 2, 51, 1031, 137858, Note_off_c, 1, 39, 981, 137878, Note_off_c, 9, 54, 1271, 137879, Note_off_c, 6, 79, 801, 137879, Note_off_c, 9, 42, 1271, 137880, Note_on_c, 6, 80, 801, 137880, Note_on_c, 9, 54, 731, 137899, Note_off_c, 0, 70, 1071, 137991, Note_off_c, 2, 51, 1031, 137998, Note_off_c, 9, 54, 731, 137999, Note_off_c, 6, 80, 801, 137999, Note_off_c, 9, 38, 1131, 138000, Note_on_c, 1, 39, 981, 138000, Note_on_c, 6, 79, 931, 138000, Note_on_c, 9, 54, 1271, 138000, Note_on_c, 9, 42, 1271, 138011, Note_on_c, 2, 39, 1041, 138012, Note_on_c, 0, 70, 1011, 138059, Note_off_c, 1, 39, 981, 138115, Note_off_c, 2, 39, 1041, 138118, Note_off_c, 9, 54, 1271, 138119, Note_off_c, 6, 79, 931, 138119, Note_off_c, 9, 42, 1271, 138120, Note_on_c, 1, 39, 1071, 138120, Note_on_c, 6, 80, 891, 138120, Note_on_c, 9, 54, 841, 138120, Note_on_c, 9, 36, 1071, 138125, Note_on_c, 2, 46, 1101, 138149, Note_off_c, 0, 70, 1011, 138218, Note_off_c, 1, 39, 1071, 138238, Note_off_c, 9, 54, 841, 138239, Note_off_c, 6, 80, 891, 138239, Note_off_c, 9, 36, 1071, 138240, Note_on_c, 6, 82, 1021, 138240, Note_on_c, 6, 87, 931, 138240, Note_on_c, 9, 54, 1271, 138240, Note_on_c, 9, 42, 1271, 138243, Note_off_c, 2, 46, 1101, 138248, Note_on_c, 0, 70, 1071, 138251, Note_on_c, 2, 39, 1041, 138358, Note_off_c, 9, 54, 1271, 138359, Note_off_c, 6, 82, 1021, 138359, Note_off_c, 6, 87, 931, 138359, Note_off_c, 9, 42, 1271, 138360, Note_on_c, 1, 39, 981, 138360, Note_on_c, 6, 80, 851, 138360, Note_on_c, 9, 54, 691, 138360, Note_on_c, 9, 36, 801, 138370, Note_off_c, 2, 39, 1041, 138371, Note_on_c, 2, 46, 971, 138419, Note_off_c, 1, 39, 981, 138436, Note_off_c, 0, 70, 1071, 138478, Note_off_c, 2, 46, 971, 138478, Note_off_c, 9, 54, 691, 138479, Note_off_c, 6, 80, 851, 138479, Note_off_c, 9, 36, 801, 138480, Note_on_c, 1, 39, 1071, 138480, Note_on_c, 6, 79, 891, 138480, Note_on_c, 9, 54, 1271, 138480, Note_on_c, 9, 36, 931, 138480, Note_on_c, 9, 42, 1271, 138489, Note_on_c, 2, 39, 1041, 138576, Note_on_c, 0, 70, 1131, 138598, Note_off_c, 1, 39, 1071, 138598, Note_off_c, 9, 54, 1271, 138599, Note_off_c, 6, 79, 891, 138599, Note_off_c, 9, 36, 931, 138599, Note_off_c, 9, 42, 1271, 138600, Note_on_c, 6, 80, 801, 138600, Note_on_c, 9, 54, 641, 138603, Note_off_c, 2, 39, 1041, 138603, Note_on_c, 2, 46, 1041, 138714, Note_off_c, 2, 46, 1041, 138718, Note_off_c, 9, 54, 641, 138719, Note_off_c, 6, 80, 801, 138720, Note_on_c, 1, 34, 1131, 138720, Note_on_c, 6, 79, 761, 138720, Note_on_c, 9, 54, 1271, 138720, Note_on_c, 9, 38, 1191, 138720, Note_on_c, 9, 42, 1271, 138728, Note_on_c, 2, 51, 1131, 138762, Note_off_c, 0, 70, 1131, 138838, Note_off_c, 9, 54, 1271, 138839, Note_off_c, 6, 79, 761, 138839, Note_off_c, 9, 42, 1271, 138840, Note_on_c, 6, 80, 681, 138840, Note_on_c, 9, 54, 571, 138907, Note_off_c, 1, 34, 1131, 138931, Note_on_c, 0, 70, 1071, 138944, Note_off_c, 2, 51, 1131, 138958, Note_off_c, 9, 54, 571, 138959, Note_off_c, 6, 80, 681, 138960, Note_on_c, 1, 37, 891, 138960, Note_on_c, 6, 79, 801, 138960, Note_on_c, 9, 54, 1271, 138960, Note_on_c, 9, 42, 1271, 138965, Note_on_c, 2, 39, 1101, 139078, Note_off_c, 9, 54, 1271, 139079, Note_off_c, 6, 79, 801, 139079, Note_off_c, 9, 38, 1191, 139079, Note_off_c, 9, 42, 1271, 139080, Note_on_c, 6, 80, 891, 139080, Note_on_c, 9, 54, 731, 139086, Note_on_c, 2, 46, 1131, 139089, Note_off_c, 2, 39, 1101, 139099, Note_off_c, 0, 70, 1071, 139127, Note_off_c, 1, 37, 891, 139198, Note_off_c, 2, 46, 1131, 139198, Note_off_c, 9, 54, 731, 139199, Note_off_c, 6, 80, 891, 139200, Note_on_c, 0, 70, 1101, 139200, Note_on_c, 1, 39, 1021, 139200, Note_on_c, 6, 82, 1131, 139200, Note_on_c, 6, 87, 931, 139200, Note_on_c, 9, 54, 1271, 139200, Note_on_c, 9, 36, 1021, 139200, Note_on_c, 9, 42, 1271, 139205, Note_on_c, 2, 39, 1131, 139268, Note_off_c, 1, 39, 1021, 139310, Note_off_c, 2, 39, 1131, 139318, Note_off_c, 9, 54, 1271, 139319, Note_off_c, 6, 82, 1131, 139319, Note_off_c, 6, 87, 931, 139319, Note_off_c, 9, 42, 1271, 139320, Note_on_c, 1, 39, 931, 139320, Note_on_c, 6, 80, 891, 139320, Note_on_c, 9, 54, 721, 139323, Note_on_c, 2, 46, 1041, 139408, Note_off_c, 1, 39, 931, 139417, Note_off_c, 0, 70, 1101, 139427, Note_off_c, 2, 46, 1041, 139437, Note_on_c, 0, 75, 1001, 139438, Note_off_c, 9, 54, 721, 139439, Note_off_c, 6, 80, 891, 139439, Note_off_c, 9, 36, 1021, 139440, Note_on_c, 6, 79, 851, 139440, Note_on_c, 9, 54, 1271, 139440, Note_on_c, 9, 42, 1271, 139448, Note_on_c, 2, 39, 841, 139550, Note_off_c, 2, 39, 841, 139558, Note_off_c, 9, 54, 1271, 139559, Note_off_c, 6, 79, 851, 139559, Note_off_c, 9, 42, 1271, 139560, Note_on_c, 1, 39, 931, 139560, Note_on_c, 6, 80, 891, 139560, Note_on_c, 9, 54, 591, 139560, Note_on_c, 9, 36, 801, 139561, Note_on_c, 2, 46, 991, 139610, Note_off_c, 1, 39, 931, 139614, Note_off_c, 0, 75, 1001, 139660, Note_off_c, 2, 46, 991, 139678, Note_off_c, 9, 54, 591, 139679, Note_off_c, 6, 80, 891, 139679, Note_off_c, 9, 36, 801, 139680, Note_on_c, 1, 39, 1021, 139680, Note_on_c, 6, 79, 851, 139680, Note_on_c, 9, 54, 1271, 139680, Note_on_c, 9, 38, 1131, 139680, Note_on_c, 9, 42, 1271, 139681, Note_on_c, 2, 51, 1031, 139687, Note_on_c, 0, 75, 1041, 139778, Note_off_c, 1, 39, 1021, 139798, Note_off_c, 9, 54, 1271, 139799, Note_off_c, 6, 79, 851, 139799, Note_off_c, 9, 42, 1271, 139800, Note_on_c, 6, 80, 761, 139800, Note_on_c, 9, 54, 761, 139911, Note_off_c, 2, 51, 1031, 139918, Note_off_c, 9, 54, 761, 139919, Note_off_c, 6, 80, 761, 139919, Note_off_c, 9, 38, 1131, 139920, Note_on_c, 1, 39, 891, 139920, Note_on_c, 6, 79, 851, 139920, Note_on_c, 9, 54, 1271, 139920, Note_on_c, 9, 42, 1271, 139931, Note_on_c, 2, 39, 1041, 139969, Note_off_c, 1, 39, 891, 139974, Note_off_c, 0, 75, 1041, 140035, Note_off_c, 2, 39, 1041, 140038, Note_off_c, 9, 54, 1271, 140039, Note_off_c, 6, 79, 851, 140039, Note_off_c, 9, 42, 1271, 140040, Note_on_c, 1, 39, 1071, 140040, Note_on_c, 6, 80, 891, 140040, Note_on_c, 9, 54, 781, 140040, Note_on_c, 9, 36, 1071, 140045, Note_on_c, 2, 46, 1101, 140138, Note_off_c, 1, 39, 1071, 140158, Note_off_c, 9, 54, 781, 140159, Note_off_c, 6, 80, 891, 140159, Note_off_c, 9, 36, 1071, 140160, Note_on_c, 6, 87, 931, 140160, Note_on_c, 6, 82, 981, 140160, Note_on_c, 9, 54, 1271, 140160, Note_on_c, 9, 42, 1271, 140163, Note_on_c, 0, 75, 1101, 140163, Note_off_c, 2, 46, 1101, 140171, Note_on_c, 2, 39, 1041, 140278, Note_off_c, 9, 54, 1271, 140279, Note_off_c, 6, 87, 931, 140279, Note_off_c, 6, 82, 981, 140279, Note_off_c, 9, 42, 1271, 140280, Note_on_c, 1, 39, 1021, 140280, Note_on_c, 6, 80, 891, 140280, Note_on_c, 9, 54, 701, 140280, Note_on_c, 9, 36, 1021, 140290, Note_off_c, 2, 39, 1041, 140291, Note_on_c, 2, 46, 971, 140319, Note_off_c, 1, 39, 1021, 140398, Note_off_c, 2, 46, 971, 140398, Note_off_c, 9, 54, 701, 140399, Note_off_c, 6, 80, 891, 140399, Note_off_c, 9, 36, 1021, 140400, Note_on_c, 1, 39, 1021, 140400, Note_on_c, 6, 79, 851, 140400, Note_on_c, 9, 54, 1271, 140400, Note_on_c, 9, 42, 1271, 140400, Note_on_c, 9, 36, 1071, 140409, Note_on_c, 2, 39, 1041, 140518, Note_off_c, 1, 39, 1021, 140518, Note_off_c, 9, 54, 1271, 140519, Note_off_c, 6, 79, 851, 140519, Note_off_c, 9, 42, 1271, 140519, Note_off_c, 9, 36, 1071, 140520, Note_on_c, 6, 80, 851, 140520, Note_on_c, 9, 54, 611, 140523, Note_off_c, 2, 39, 1041, 140523, Note_on_c, 2, 46, 1041, 140634, Note_off_c, 2, 46, 1041, 140638, Note_off_c, 9, 54, 611, 140639, Note_off_c, 6, 80, 851, 140640, Note_on_c, 1, 34, 1071, 140640, Note_on_c, 6, 79, 851, 140640, Note_on_c, 9, 54, 1271, 140640, Note_on_c, 9, 38, 1131, 140640, Note_on_c, 9, 42, 1271, 140648, Note_on_c, 2, 51, 1131, 140693, Note_off_c, 0, 75, 1101, 140758, Note_off_c, 9, 54, 1271, 140759, Note_off_c, 6, 79, 851, 140759, Note_off_c, 9, 42, 1271, 140760, Note_on_c, 6, 80, 851, 140760, Note_on_c, 9, 54, 601, 140817, Note_off_c, 1, 34, 1071, 140864, Note_off_c, 2, 51, 1131, 140878, Note_off_c, 9, 54, 601, 140879, Note_off_c, 6, 80, 851, 140880, Note_on_c, 1, 37, 891, 140880, Note_on_c, 6, 79, 801, 140880, Note_on_c, 9, 54, 1271, 140880, Note_on_c, 9, 42, 1271, 140885, Note_on_c, 2, 39, 1101, 140998, Note_off_c, 9, 54, 1271, 140999, Note_off_c, 6, 79, 801, 140999, Note_off_c, 9, 38, 1131, 140999, Note_off_c, 9, 42, 1271, 141000, Note_on_c, 6, 80, 931, 141000, Note_on_c, 9, 54, 801, 141006, Note_on_c, 2, 46, 1131, 141009, Note_off_c, 2, 39, 1101, 141038, Note_off_c, 1, 37, 891, 141118, Note_off_c, 2, 46, 1131, 141118, Note_off_c, 9, 54, 801, 141119, Note_off_c, 6, 80, 931, 141120, Note_on_c, 1, 39, 1021, 141120, Note_on_c, 6, 87, 981, 141120, Note_on_c, 6, 85, 981, 141120, Note_on_c, 9, 54, 1271, 141120, Note_on_c, 9, 36, 931, 141120, Note_on_c, 9, 42, 1271, 141125, Note_on_c, 2, 39, 1131, 141128, Note_on_c, 0, 73, 1061, 141189, Note_off_c, 1, 39, 1021, 141230, Note_off_c, 2, 39, 1131, 141238, Note_off_c, 9, 54, 1271, 141239, Note_off_c, 6, 87, 981, 141239, Note_off_c, 6, 85, 981, 141239, Note_off_c, 9, 42, 1271, 141240, Note_on_c, 1, 39, 891, 141240, Note_on_c, 6, 82, 931, 141240, Note_on_c, 9, 54, 811, 141243, Note_on_c, 2, 46, 1041, 141347, Note_off_c, 2, 46, 1041, 141348, Note_off_c, 1, 39, 891, 141358, Note_off_c, 9, 54, 811, 141359, Note_off_c, 6, 82, 931, 141359, Note_off_c, 9, 36, 931, 141360, Note_off_c, 0, 73, 1061, 141360, Note_on_c, 6, 80, 801, 141360, Note_on_c, 9, 54, 1271, 141360, Note_on_c, 9, 42, 1271, 141368, Note_on_c, 2, 39, 841, 141441, Note_on_c, 0, 73, 991, 141470, Note_off_c, 2, 39, 841, 141478, Note_off_c, 9, 54, 1271, 141479, Note_off_c, 6, 80, 801, 141479, Note_off_c, 9, 42, 1271, 141480, Note_on_c, 1, 39, 1071, 141480, Note_on_c, 6, 82, 721, 141480, Note_on_c, 9, 54, 821, 141480, Note_on_c, 9, 36, 801, 141481, Note_on_c, 2, 46, 991, 141529, Note_off_c, 1, 39, 1071, 141559, Note_off_c, 0, 73, 991, 141580, Note_off_c, 2, 46, 991, 141597, Note_on_c, 0, 73, 951, 141598, Note_off_c, 9, 54, 821, 141599, Note_off_c, 6, 82, 721, 141599, Note_off_c, 9, 36, 801, 141600, Note_on_c, 1, 39, 1021, 141600, Note_on_c, 6, 80, 851, 141600, Note_on_c, 9, 54, 1271, 141600, Note_on_c, 9, 38, 1131, 141600, Note_on_c, 9, 42, 1271, 141601, Note_on_c, 2, 51, 1031, 141687, Note_off_c, 0, 73, 951, 141698, Note_off_c, 1, 39, 1021, 141718, Note_off_c, 9, 54, 1271, 141719, Note_off_c, 6, 80, 851, 141719, Note_off_c, 9, 42, 1271, 141720, Note_on_c, 0, 73, 1161, 141720, Note_on_c, 6, 82, 931, 141720, Note_on_c, 9, 54, 711, 141802, Note_off_c, 0, 73, 1161, 141831, Note_off_c, 2, 51, 1031, 141838, Note_off_c, 9, 54, 711, 141839, Note_off_c, 6, 82, 931, 141839, Note_off_c, 9, 38, 1131, 141840, Note_on_c, 1, 39, 1021, 141840, Note_on_c, 6, 80, 851, 141840, Note_on_c, 9, 54, 1271, 141840, Note_on_c, 9, 42, 1271, 141844, Note_on_c, 0, 73, 991, 141851, Note_on_c, 2, 39, 1041, 141890, Note_off_c, 1, 39, 1021, 141955, Note_off_c, 2, 39, 1041, 141958, Note_off_c, 9, 54, 1271, 141959, Note_off_c, 6, 80, 851, 141959, Note_off_c, 9, 42, 1271, 141960, Note_on_c, 1, 39, 931, 141960, Note_on_c, 6, 82, 891, 141960, Note_on_c, 9, 54, 561, 141960, Note_on_c, 9, 36, 981, 141965, Note_on_c, 2, 46, 1101, 142058, Note_off_c, 1, 39, 931, 142078, Note_off_c, 9, 54, 561, 142079, Note_off_c, 6, 82, 891, 142079, Note_off_c, 9, 36, 981, 142080, Note_on_c, 6, 87, 1131, 142080, Note_on_c, 6, 85, 1071, 142080, Note_on_c, 9, 54, 1271, 142080, Note_on_c, 9, 42, 1271, 142083, Note_off_c, 2, 46, 1101, 142091, Note_on_c, 2, 39, 1041, 142198, Note_off_c, 9, 54, 1271, 142199, Note_off_c, 6, 87, 1131, 142199, Note_off_c, 6, 85, 1071, 142199, Note_off_c, 9, 42, 1271, 142200, Note_on_c, 1, 39, 1021, 142200, Note_on_c, 6, 82, 891, 142200, Note_on_c, 9, 54, 641, 142200, Note_on_c, 9, 36, 1071, 142210, Note_off_c, 2, 39, 1041, 142211, Note_on_c, 2, 46, 971, 142232, Note_off_c, 0, 73, 991, 142249, Note_off_c, 1, 39, 1021, 142318, Note_off_c, 2, 46, 971, 142318, Note_off_c, 9, 54, 641, 142319, Note_off_c, 6, 82, 891, 142319, Note_off_c, 9, 36, 1071, 142320, Note_on_c, 1, 39, 1021, 142320, Note_on_c, 6, 80, 761, 142320, Note_on_c, 9, 54, 1241, 142320, Note_on_c, 9, 42, 1271, 142320, Note_on_c, 9, 36, 1021, 142326, Note_on_c, 0, 73, 1071, 142329, Note_on_c, 2, 39, 1041, 142418, Note_off_c, 1, 39, 1021, 142438, Note_off_c, 9, 54, 1241, 142439, Note_off_c, 6, 80, 761, 142439, Note_off_c, 9, 42, 1271, 142439, Note_off_c, 9, 36, 1021, 142440, Note_on_c, 6, 82, 851, 142440, Note_on_c, 9, 54, 811, 142443, Note_off_c, 2, 39, 1041, 142443, Note_on_c, 2, 46, 1041, 142554, Note_off_c, 2, 46, 1041, 142558, Note_off_c, 9, 54, 811, 142559, Note_off_c, 6, 82, 851, 142560, Note_on_c, 1, 34, 1071, 142560, Note_on_c, 6, 80, 891, 142560, Note_on_c, 9, 54, 1271, 142560, Note_on_c, 9, 38, 1131, 142560, Note_on_c, 9, 42, 1271, 142568, Note_on_c, 2, 51, 1131, 142678, Note_off_c, 0, 73, 1071, 142678, Note_off_c, 9, 54, 1271, 142679, Note_off_c, 6, 80, 891, 142679, Note_off_c, 9, 42, 1271, 142680, Note_on_c, 6, 82, 801, 142680, Note_on_c, 9, 54, 701, 142747, Note_off_c, 1, 34, 1071, 142784, Note_off_c, 2, 51, 1131, 142798, Note_off_c, 9, 54, 701, 142799, Note_off_c, 6, 82, 801, 142800, Note_on_c, 1, 37, 931, 142800, Note_on_c, 6, 80, 801, 142800, Note_on_c, 9, 54, 1271, 142800, Note_on_c, 9, 42, 1271, 142805, Note_on_c, 2, 39, 1101, 142918, Note_off_c, 9, 54, 1271, 142919, Note_off_c, 6, 80, 801, 142919, Note_off_c, 9, 38, 1131, 142919, Note_off_c, 9, 42, 1271, 142920, Note_on_c, 6, 82, 801, 142920, Note_on_c, 9, 54, 671, 142926, Note_on_c, 2, 46, 1131, 142929, Note_off_c, 2, 39, 1101, 142967, Note_off_c, 1, 37, 931, 143038, Note_off_c, 2, 46, 1131, 143038, Note_off_c, 9, 54, 671, 143039, Note_off_c, 6, 82, 801, 143040, Note_on_c, 1, 39, 1071, 143040, Note_on_c, 6, 87, 1021, 143040, Note_on_c, 6, 85, 1021, 143040, Note_on_c, 9, 54, 1271, 143040, Note_on_c, 9, 36, 1131, 143040, Note_on_c, 9, 42, 1271, 143045, Note_on_c, 2, 39, 1131, 143053, Note_on_c, 0, 73, 1041, 143118, Note_off_c, 1, 39, 1071, 143150, Note_off_c, 2, 39, 1131, 143158, Note_off_c, 9, 54, 1271, 143159, Note_off_c, 6, 87, 1021, 143159, Note_off_c, 6, 85, 1021, 143159, Note_off_c, 9, 42, 1271, 143160, Note_on_c, 1, 39, 891, 143160, Note_on_c, 6, 82, 851, 143160, Note_on_c, 9, 54, 731, 143163, Note_on_c, 2, 46, 1041, 143247, Note_off_c, 0, 73, 1041, 143267, Note_off_c, 2, 46, 1041, 143268, Note_off_c, 1, 39, 891, 143278, Note_off_c, 9, 54, 731, 143279, Note_off_c, 6, 82, 851, 143279, Note_off_c, 9, 36, 1131, 143280, Note_on_c, 6, 80, 851, 143280, Note_on_c, 9, 54, 1191, 143280, Note_on_c, 9, 42, 1271, 143288, Note_on_c, 2, 39, 841, 143344, Note_on_c, 0, 78, 1171, 143390, Note_off_c, 2, 39, 841, 143398, Note_off_c, 9, 54, 1191, 143399, Note_off_c, 6, 80, 851, 143399, Note_off_c, 9, 42, 1271, 143400, Note_on_c, 1, 39, 981, 143400, Note_on_c, 6, 82, 761, 143400, Note_on_c, 9, 54, 621, 143400, Note_on_c, 9, 36, 891, 143401, Note_on_c, 2, 46, 991, 143449, Note_off_c, 1, 39, 981, 143500, Note_off_c, 2, 46, 991, 143518, Note_off_c, 9, 54, 621, 143519, Note_off_c, 6, 82, 761, 143519, Note_off_c, 9, 36, 891, 143520, Note_on_c, 1, 39, 1021, 143520, Note_on_c, 6, 80, 851, 143520, Note_on_c, 9, 54, 1271, 143520, Note_on_c, 9, 38, 1191, 143520, Note_on_c, 9, 42, 1271, 143521, Note_on_c, 2, 51, 1031, 143608, Note_off_c, 1, 39, 1021, 143628, Note_off_c, 0, 78, 1171, 143638, Note_off_c, 9, 54, 1271, 143639, Note_off_c, 6, 80, 851, 143639, Note_off_c, 9, 42, 1271, 143640, Note_on_c, 6, 82, 761, 143640, Note_on_c, 9, 54, 671, 143751, Note_off_c, 2, 51, 1031, 143758, Note_off_c, 9, 54, 671, 143759, Note_on_c, 0, 78, 1201, 143759, Note_off_c, 6, 82, 761, 143759, Note_off_c, 9, 38, 1191, 143760, Note_on_c, 1, 39, 1071, 143760, Note_on_c, 6, 80, 851, 143760, Note_on_c, 9, 54, 1271, 143760, Note_on_c, 9, 42, 1271, 143771, Note_on_c, 2, 39, 1041, 143829, Note_off_c, 1, 39, 1071, 143875, Note_off_c, 2, 39, 1041, 143878, Note_off_c, 9, 54, 1271, 143879, Note_off_c, 6, 80, 851, 143879, Note_off_c, 9, 42, 1271, 143880, Note_on_c, 1, 39, 1021, 143880, Note_on_c, 6, 82, 801, 143880, Note_on_c, 9, 54, 641, 143880, Note_on_c, 9, 36, 931, 143885, Note_on_c, 2, 46, 1101, 143959, Note_off_c, 1, 39, 1021, 143998, Note_off_c, 9, 54, 641, 143999, Note_off_c, 6, 82, 801, 143999, Note_off_c, 9, 36, 931, 144000, Note_on_c, 6, 85, 1021, 144000, Note_on_c, 6, 87, 931, 144000, Note_on_c, 9, 54, 1271, 144000, Note_on_c, 9, 42, 1271, 144003, Note_off_c, 2, 46, 1101, 144011, Note_on_c, 2, 39, 1041, 144118, Note_off_c, 9, 54, 1271, 144119, Note_off_c, 6, 85, 1021, 144119, Note_off_c, 6, 87, 931, 144119, Note_off_c, 9, 42, 1271, 144120, Note_on_c, 1, 39, 891, 144120, Note_on_c, 6, 82, 891, 144120, Note_on_c, 9, 54, 591, 144120, Note_on_c, 9, 36, 721, 144130, Note_off_c, 2, 39, 1041, 144131, Note_on_c, 2, 46, 971, 144160, Note_off_c, 1, 39, 891, 144238, Note_off_c, 2, 46, 971, 144238, Note_off_c, 9, 54, 591, 144239, Pitch_bend_c, 0, 7957
1, 144239, Note_off_c, 6, 82, 891, 144239, Note_off_c, 9, 36, 721, 144240, Note_on_c, 1, 39, 1071, 144240, Note_on_c, 6, 80, 761, 144240, Note_on_c, 9, 54, 1131, 144240, Note_on_c, 9, 36, 1131, 144240, Note_on_c, 9, 42, 1271, 144242, Pitch_bend_c, 0, 7840
1, 144249, Note_on_c, 2, 39, 1041, 144252, Pitch_bend_c, 0, 7021
1, 144255, Pitch_bend_c, 0, 7021
1, 144268, Pitch_bend_c, 0, 5734
1, 144270, Pitch_bend_c, 0, 5968
1, 144284, Pitch_bend_c, 0, 4447
1, 144287, Pitch_bend_c, 0, 5032
1, 144302, Pitch_bend_c, 0, 3862
1, 144317, Pitch_bend_c, 0, 2809
1, 144319, Pitch_bend_c, 0, 3628
1, 144319, Pitch_bend_c, 0, 3160
1, 144319, Note_off_c, 0, 78, 1201, 144332, Pitch_bend_c, 0, 1990
1, 144345, Pitch_bend_c, 0, 3394
1, 144347, Pitch_bend_c, 0, 1522
1, 144358, Note_off_c, 9, 54, 1131, 144359, Pitch_bend_c, 0, 4213
1, 144359, Note_off_c, 6, 80, 761, 144359, Note_off_c, 9, 36, 1131, 144359, Note_off_c, 9, 42, 1271, 144360, Note_on_c, 6, 82, 851, 144360, Note_on_c, 9, 54, 631, 144363, Note_off_c, 2, 39, 1041, 144363, Note_on_c, 2, 46, 1041, 144368, Note_off_c, 1, 39, 1071, 144374, Pitch_bend_c, 0, 5149
1, 144377, Pitch_bend_c, 0, 1990
1, 144389, Pitch_bend_c, 0, 6085
1, 144392, Pitch_bend_c, 0, 2809
1, 144406, Pitch_bend_c, 0, 7021
1, 144408, Pitch_bend_c, 0, 3745
1, 144421, Pitch_bend_c, 0, 7840
1, 144424, Pitch_bend_c, 0, 4564
1, 144436, Pitch_bend_c, 0, 8192
1, 144439, Pitch_bend_c, 0, 5266
1, 144454, Pitch_bend_c, 0, 6436
1, 144469, Pitch_bend_c, 0, 8192
1, 144474, Note_off_c, 2, 46, 1041, 144478, Note_on_c, 0, 70, 1131, 144478, Note_off_c, 9, 54, 631, 144479, Note_off_c, 6, 82, 851, 144480, Note_on_c, 1, 34, 1021, 144480, Note_on_c, 6, 80, 891, 144480, Note_on_c, 9, 54, 1191, 144480, Note_on_c, 9, 42, 1271, 144480, Note_on_c, 9, 38, 1131, 144488, Note_on_c, 2, 51, 1131, 144598, Note_off_c, 9, 54, 1191, 144599, Note_off_c, 6, 80, 891, 144599, Note_off_c, 9, 42, 1271, 144599, Note_off_c, 9, 38, 1131, 144600, Note_on_c, 6, 82, 851, 144600, Note_on_c, 9, 54, 761, 144658, Note_off_c, 1, 34, 1021, 144683, Note_off_c, 0, 70, 1131, 144704, Note_off_c, 2, 51, 1131, 144715, Note_on_c, 0, 70, 941, 144718, Note_off_c, 9, 54, 761, 144719, Note_off_c, 6, 82, 851, 144720, Note_on_c, 1, 37, 981, 144720, Note_on_c, 6, 80, 891, 144720, Note_on_c, 9, 54, 1191, 144720, Note_on_c, 9, 42, 1271, 144720, Note_on_c, 9, 38, 1131, 144725, Note_on_c, 2, 39, 1101, 144838, Note_off_c, 9, 54, 1191, 144839, Note_off_c, 6, 80, 891, 144839, Note_off_c, 9, 42, 1271, 144839, Note_off_c, 9, 38, 1131, 144840, Note_on_c, 6, 82, 931, 144840, Note_on_c, 9, 54, 701, 144841, Note_on_c, 2, 46, 1131, 144849, Note_off_c, 2, 39, 1101, 144877, Note_off_c, 1, 37, 981, 144923, Note_off_c, 0, 70, 941, 144953, Note_off_c, 2, 46, 1131, 144958, Note_off_c, 9, 54, 701, 144959, Note_off_c, 6, 82, 931, 144960, Note_on_c, 1, 34, 981, 144960, Note_on_c, 2, 46, 981, 144960, Note_on_c, 6, 86, 981, 144960, Note_on_c, 6, 82, 981, 144960, Note_on_c, 9, 36, 931, 144960, Note_on_c, 9, 49, 1131, 144960, Note_on_c, 9, 52, 721, 144960, Note_on_c, 9, 55, 591, 144961, Note_on_c, 0, 70, 1191, 144963, Note_on_c, 3, 62, 1131, 144964, Note_on_c, 0, 77, 1101, 144987, Control_c, 6, 64, 127
1, 145059, Note_off_c, 6, 82, 981, 145079, Note_off_c, 9, 49, 1131, 145079, Note_off_c, 9, 52, 721, 145079, Note_off_c, 9, 55, 591, 145080, Note_on_c, 6, 77, 851, 145118, Note_off_c, 6, 86, 981, 145167, Note_off_c, 1, 34, 981, 145167, Note_off_c, 2, 46, 981, 145199, Note_off_c, 9, 36, 931, 145200, Note_on_c, 1, 34, 801, 145200, Note_on_c, 2, 46, 801, 145200, Note_on_c, 6, 82, 681, 145279, Note_off_c, 6, 82, 681, 145286, Note_off_c, 6, 77, 851, 145320, Note_on_c, 6, 84, 981, 145320, Note_on_c, 6, 82, 851, 145358, Note_off_c, 1, 34, 801, 145358, Note_off_c, 2, 46, 801, 145430, Note_off_c, 3, 62, 1131, 145440, Note_on_c, 1, 34, 761, 145440, Note_on_c, 2, 46, 761, 145440, Note_on_c, 9, 36, 721, 145440, Note_on_c, 9, 51, 621, 145444, Note_on_c, 3, 60, 1041, 145559, Note_off_c, 9, 36, 721, 145559, Note_off_c, 9, 51, 621, 145560, Note_on_c, 3, 62, 871, 145560, Note_on_c, 6, 77, 891, 145596, Note_off_c, 6, 82, 851, 145617, Note_off_c, 1, 34, 761, 145617, Note_off_c, 2, 46, 761, 145625, Note_off_c, 6, 84, 981, 145658, Note_off_c, 6, 77, 891, 145678, Note_off_c, 3, 62, 871, 145680, Note_on_c, 1, 34, 761, 145680, Note_on_c, 2, 46, 761, 145680, Note_on_c, 6, 82, 641, 145680, Note_on_c, 9, 51, 621, 145758, Note_off_c, 6, 82, 641, 145799, Note_off_c, 9, 51, 621, 145800, Note_on_c, 3, 62, 971, 145800, Note_on_c, 6, 77, 891, 145800, Note_on_c, 9, 36, 531, 145847, Note_off_c, 1, 34, 761, 145847, Note_off_c, 2, 46, 761, 145899, Note_off_c, 3, 60, 1041, 145908, Note_off_c, 6, 77, 891, 145918, Note_off_c, 3, 62, 971, 145919, Note_off_c, 9, 36, 531, 145920, Note_on_c, 1, 34, 931, 145920, Note_on_c, 2, 46, 931, 145920, Note_on_c, 6, 86, 981, 145920, Note_on_c, 6, 82, 1131, 145920, Note_on_c, 9, 51, 721, 145920, Note_on_c, 9, 36, 891, 145923, Note_on_c, 3, 58, 1161, 146018, Note_off_c, 6, 82, 1131, 146039, Note_off_c, 9, 51, 721, 146039, Note_off_c, 9, 36, 891, 146040, Note_on_c, 3, 62, 951, 146040, Note_on_c, 6, 77, 891, 146058, Note_off_c, 6, 86, 981, 146087, Note_off_c, 1, 34, 931, 146087, Note_off_c, 2, 46, 931, 146158, Note_off_c, 3, 62, 951, 146158, Note_off_c, 6, 77, 891, 146160, Note_on_c, 1, 34, 891, 146160, Note_on_c, 2, 46, 891, 146160, Note_on_c, 6, 82, 851, 146160, Note_on_c, 9, 51, 621, 146160, Note_on_c, 9, 36, 761, 146248, Note_off_c, 6, 82, 851, 146279, Note_off_c, 9, 51, 621, 146279, Note_off_c, 9, 36, 761, 146280, Note_on_c, 3, 62, 811, 146280, Note_on_c, 6, 84, 1021, 146280, Note_on_c, 6, 82, 801, 146318, Note_off_c, 1, 34, 891, 146318, Note_off_c, 2, 46, 891, 146392, Note_off_c, 3, 58, 1161, 146398, Note_off_c, 3, 62, 811, 146400, Note_on_c, 1, 34, 891, 146400, Note_on_c, 2, 46, 891, 146400, Note_on_c, 9, 51, 641, 146400, Note_on_c, 9, 36, 851, 146407, Note_on_c, 3, 60, 1071, 146497, Note_off_c, 6, 82, 801, 146519, Note_off_c, 9, 51, 641, 146519, Note_off_c, 9, 36, 851, 146520, Note_on_c, 3, 62, 731, 146520, Note_on_c, 6, 77, 891, 146557, Note_off_c, 1, 34, 891, 146557, Note_off_c, 2, 46, 891, 146595, Note_off_c, 6, 84, 1021, 146619, Note_off_c, 6, 77, 891, 146638, Note_off_c, 3, 62, 731, 146640, Note_on_c, 1, 34, 891, 146640, Note_on_c, 2, 46, 891, 146640, Note_on_c, 6, 82, 761, 146640, Note_on_c, 9, 51, 851, 146640, Note_on_c, 9, 36, 891, 146728, Note_off_c, 6, 82, 761, 146759, Note_off_c, 9, 51, 851, 146759, Note_off_c, 9, 36, 891, 146760, Note_on_c, 3, 62, 681, 146760, Note_on_c, 6, 77, 931, 146798, Note_off_c, 1, 34, 891, 146798, Note_off_c, 2, 46, 891, 146849, Note_off_c, 6, 77, 931, 146876, Note_off_c, 3, 60, 1071, 146878, Note_off_c, 3, 62, 681, 146880, Note_on_c, 1, 34, 851, 146880, Note_on_c, 2, 46, 851, 146880, Note_on_c, 6, 86, 1071, 146880, Note_on_c, 6, 82, 1131, 146880, Note_on_c, 9, 51, 761, 146880, Note_on_c, 9, 36, 801, 146891, Note_on_c, 3, 58, 1071, 146978, Note_off_c, 6, 82, 1131, 146999, Note_off_c, 9, 51, 761, 146999, Note_off_c, 9, 36, 801, 147000, Note_on_c, 3, 62, 771, 147000, Note_on_c, 6, 77, 981, 147038, Note_off_c, 1, 34, 851, 147038, Note_off_c, 2, 46, 851, 147047, Note_off_c, 6, 86, 1071, 147118, Note_off_c, 3, 62, 771, 147120, Note_on_c, 1, 34, 891, 147120, Note_on_c, 2, 46, 891, 147120, Note_on_c, 6, 82, 931, 147120, Note_on_c, 9, 51, 851, 147120, Note_on_c, 9, 36, 891, 147128, Note_off_c, 6, 77, 981, 147198, Note_off_c, 6, 82, 931, 147239, Note_off_c, 9, 51, 851, 147239, Note_off_c, 9, 36, 891, 147240, Note_on_c, 3, 62, 671, 147240, Note_on_c, 6, 84, 1071, 147240, Note_on_c, 6, 82, 851, 147267, Note_off_c, 1, 34, 891, 147267, Note_off_c, 2, 46, 891, 147345, Note_off_c, 3, 58, 1071, 147358, Note_off_c, 3, 62, 671, 147359, Note_on_c, 3, 60, 991, 147360, Note_on_c, 1, 34, 931, 147360, Note_on_c, 2, 46, 931, 147360, Note_on_c, 9, 51, 891, 147360, Note_on_c, 9, 36, 891, 147479, Note_off_c, 9, 51, 891, 147479, Note_off_c, 9, 36, 891, 147480, Note_on_c, 3, 62, 701, 147480, Note_on_c, 6, 77, 931, 147495, Note_off_c, 6, 82, 851, 147508, Note_off_c, 1, 34, 931, 147508, Note_off_c, 2, 46, 931, 147525, Note_off_c, 6, 84, 1071, 147568, Note_off_c, 6, 77, 931, 147598, Note_off_c, 3, 62, 701, 147600, Note_on_c, 1, 34, 851, 147600, Note_on_c, 2, 46, 851, 147600, Note_on_c, 6, 82, 721, 147600, Note_on_c, 9, 51, 931, 147600, Note_on_c, 9, 36, 931, 147678, Note_off_c, 6, 82, 721, 147719, Note_off_c, 9, 51, 931, 147719, Note_off_c, 9, 36, 931, 147720, Note_on_c, 3, 62, 741, 147720, Note_on_c, 6, 77, 931, 147738, Note_off_c, 1, 34, 851, 147738, Note_off_c, 2, 46, 851, 147823, Note_off_c, 3, 60, 991, 147838, Note_off_c, 3, 62, 741, 147838, Note_off_c, 6, 77, 931, 147840, Note_on_c, 1, 34, 891, 147840, Note_on_c, 2, 46, 891, 147840, Note_on_c, 6, 86, 1021, 147840, Note_on_c, 6, 82, 1131, 147840, Note_on_c, 9, 36, 981, 147840, Note_on_c, 9, 51, 1071, 147844, Note_on_c, 3, 58, 1071, 147938, Note_off_c, 6, 82, 1131, 147959, Note_off_c, 9, 36, 981, 147959, Note_off_c, 9, 51, 1071, 147960, Note_on_c, 3, 62, 671, 147960, Note_on_c, 6, 77, 891, 147967, Note_off_c, 6, 86, 1021, 147988, Note_off_c, 1, 34, 891, 147988, Note_off_c, 2, 46, 891, 148078, Note_off_c, 3, 62, 671, 148080, Note_on_c, 1, 34, 801, 148080, Note_on_c, 2, 46, 801, 148080, Note_on_c, 6, 82, 1021, 148080, Note_on_c, 9, 51, 1021, 148080, Note_on_c, 9, 36, 891, 148088, Note_off_c, 6, 77, 891, 148169, Note_off_c, 6, 82, 1021, 148199, Note_off_c, 9, 51, 1021, 148199, Note_off_c, 9, 36, 891, 148200, Note_on_c, 3, 62, 701, 148200, Note_on_c, 6, 82, 931, 148200, Note_on_c, 6, 84, 1021, 148236, Note_off_c, 0, 77, 1101, 148238, Note_off_c, 1, 34, 801, 148238, Note_off_c, 2, 46, 801, 148257, Note_off_c, 0, 70, 1191, 148317, Note_off_c, 3, 58, 1071, 148318, Note_off_c, 3, 62, 701, 148320, Note_on_c, 1, 34, 931, 148320, Note_on_c, 2, 46, 931, 148320, Note_on_c, 9, 51, 1021, 148320, Note_on_c, 9, 36, 981, 148324, Note_on_c, 3, 60, 1071, 148358, Note_on_c, 0, 77, 1021, 148361, Note_on_c, 0, 70, 1071, 148387, Note_off_c, 6, 82, 931, 148387, Note_off_c, 6, 84, 1021, 148439, Note_off_c, 9, 51, 1021, 148439, Note_off_c, 9, 36, 981, 148440, Note_on_c, 3, 62, 781, 148440, Note_on_c, 6, 77, 891, 148468, Note_off_c, 1, 34, 931, 148468, Note_off_c, 2, 46, 931, 148548, Note_off_c, 6, 77, 891, 148558, Note_off_c, 3, 62, 781, 148560, Note_on_c, 1, 34, 891, 148560, Note_on_c, 2, 46, 891, 148560, Note_on_c, 6, 82, 891, 148560, Note_on_c, 9, 51, 981, 148560, Note_on_c, 9, 36, 981, 148658, Note_off_c, 6, 82, 891, 148679, Note_off_c, 9, 51, 981, 148679, Note_off_c, 9, 36, 981, 148680, Note_on_c, 3, 62, 811, 148680, Note_on_c, 6, 77, 981, 148718, Note_off_c, 1, 34, 891, 148718, Note_off_c, 2, 46, 891, 148755, Control_c, 6, 64, 0
1, 148756, Note_off_c, 0, 70, 1071, 148768, Note_off_c, 0, 77, 1021, 148779, Note_off_c, 6, 77, 981, 148784, Note_off_c, 3, 60, 1071, 148798, Note_off_c, 3, 62, 811, 148800, Note_on_c, 1, 35, 1131, 148800, Note_on_c, 2, 47, 1131, 148800, Note_on_c, 6, 83, 1131, 148800, Note_on_c, 6, 78, 1131, 148800, Note_on_c, 9, 51, 681, 148800, Note_on_c, 9, 49, 1071, 148800, Note_on_c, 9, 57, 1131, 148800, Note_on_c, 9, 36, 1131, 148800, Note_on_c, 9, 52, 981, 148804, Note_on_c, 0, 71, 1101, 148804, Note_on_c, 0, 76, 1021, 148804, Note_on_c, 3, 61, 1101, 148864, Control_c, 6, 64, 127
1, 148909, Note_off_c, 1, 35, 1131, 148909, Note_off_c, 2, 47, 1131, 148918, Note_off_c, 6, 78, 1131, 148919, Note_off_c, 9, 51, 681, 148919, Note_off_c, 9, 49, 1071, 148919, Note_off_c, 9, 57, 1131, 148919, Note_off_c, 9, 36, 1131, 148919, Note_off_c, 9, 52, 981, 148920, Note_on_c, 6, 76, 981, 148987, Note_off_c, 6, 83, 1131, 148999, Note_off_c, 6, 76, 981, 149040, Note_on_c, 1, 35, 981, 149040, Note_on_c, 2, 47, 981, 149040, Note_on_c, 6, 78, 981, 149040, Note_on_c, 9, 51, 721, 149129, Control_c, 6, 64, 0
1, 149129, Note_off_c, 6, 78, 981, 149138, Note_off_c, 1, 35, 981, 149138, Note_off_c, 2, 47, 981, 149159, Note_off_c, 9, 51, 721, 149160, Note_on_c, 6, 81, 1191, 149160, Note_on_c, 6, 78, 1071, 149160, Note_on_c, 9, 36, 491, 149177, Note_off_c, 3, 61, 1101, 149198, Control_c, 6, 64, 127
1, 149279, Note_off_c, 9, 36, 491, 149280, Note_on_c, 1, 35, 1021, 149280, Note_on_c, 2, 47, 1021, 149280, Note_on_c, 9, 51, 891, 149280, Note_on_c, 9, 36, 931, 149287, Note_on_c, 3, 61, 941, 149387, Note_off_c, 6, 78, 1071, 149388, Note_off_c, 1, 35, 1021, 149388, Note_off_c, 2, 47, 1021, 149399, Note_off_c, 9, 51, 891, 149399, Note_off_c, 9, 36, 931, 149400, Note_on_c, 6, 76, 1021, 149436, Note_off_c, 6, 81, 1191, 149508, Note_off_c, 6, 76, 1021, 149520, Note_on_c, 1, 35, 891, 149520, Note_on_c, 2, 47, 891, 149520, Note_on_c, 6, 78, 851, 149520, Note_on_c, 9, 51, 891, 149520, Note_on_c, 9, 36, 851, 149608, Note_off_c, 6, 78, 851, 149639, Note_off_c, 9, 51, 891, 149639, Note_off_c, 9, 36, 851, 149640, Note_on_c, 6, 76, 1021, 149657, Note_off_c, 3, 61, 941, 149658, Note_off_c, 1, 35, 891, 149658, Note_off_c, 2, 47, 891, 149739, Note_off_c, 6, 76, 1021, 149760, Note_on_c, 1, 35, 931, 149760, Note_on_c, 2, 47, 931, 149760, Note_on_c, 6, 83, 1071, 149760, Note_on_c, 6, 78, 1071, 149760, Note_on_c, 9, 51, 931, 149760, Note_on_c, 9, 36, 931, 149765, Note_on_c, 3, 61, 951, 149858, Note_off_c, 6, 78, 1071, 149878, Note_off_c, 6, 83, 1071, 149879, Note_off_c, 9, 51, 931, 149879, Note_off_c, 9, 36, 931, 149880, Note_on_c, 6, 76, 931, 149898, Note_off_c, 1, 35, 931, 149898, Note_off_c, 2, 47, 931, 149968, Note_off_c, 6, 76, 931, 150000, Note_on_c, 1, 35, 981, 150000, Note_on_c, 2, 47, 981, 150000, Note_on_c, 6, 78, 981, 150000, Note_on_c, 9, 36, 931, 150000, Note_on_c, 9, 51, 981, 150079, Note_off_c, 6, 78, 981, 150118, Note_off_c, 1, 35, 981, 150118, Note_off_c, 2, 47, 981, 150119, Note_off_c, 9, 36, 931, 150119, Note_off_c, 9, 51, 981, 150120, Note_on_c, 6, 81, 1021, 150120, Note_on_c, 6, 78, 851, 150136, Note_off_c, 3, 61, 951, 150240, Note_on_c, 1, 35, 981, 150240, Note_on_c, 2, 47, 981, 150240, Note_on_c, 9, 36, 931, 150240, Note_on_c, 9, 51, 931, 150245, Note_on_c, 3, 61, 971, 150336, Note_off_c, 6, 78, 851, 150358, Note_off_c, 1, 35, 981, 150358, Note_off_c, 2, 47, 981, 150359, Note_off_c, 9, 36, 931, 150359, Note_off_c, 9, 51, 931, 150360, Note_on_c, 6, 76, 1021, 150405, Note_off_c, 6, 81, 1021, 150478, Note_off_c, 6, 76, 1021, 150480, Note_on_c, 1, 35, 1021, 150480, Note_on_c, 2, 47, 1021, 150480, Note_on_c, 6, 78, 801, 150480, Note_on_c, 9, 36, 931, 150480, Note_on_c, 9, 51, 891, 150588, Note_off_c, 1, 35, 1021, 150588, Note_off_c, 2, 47, 1021, 150588, Note_off_c, 6, 78, 801, 150599, Note_off_c, 9, 36, 931, 150599, Note_off_c, 9, 51, 891, 150600, Note_on_c, 6, 76, 981, 150623, Note_off_c, 3, 61, 971, 150712, Note_on_c, 3, 61, 1081, 150718, Note_off_c, 6, 76, 981, 150720, Note_on_c, 1, 35, 1071, 150720, Note_on_c, 2, 47, 1071, 150720, Note_on_c, 6, 78, 1071, 150720, Note_on_c, 6, 83, 931, 150720, Note_on_c, 9, 36, 931, 150720, Note_on_c, 9, 51, 1071, 150828, Note_off_c, 6, 83, 931, 150829, Note_off_c, 6, 78, 1071, 150838, Note_off_c, 1, 35, 1071, 150838, Note_off_c, 2, 47, 1071, 150839, Note_off_c, 9, 36, 931, 150839, Note_off_c, 9, 51, 1071, 150840, Note_on_c, 6, 76, 931, 150958, Note_off_c, 6, 76, 931, 150960, Note_on_c, 1, 35, 931, 150960, Note_on_c, 2, 47, 931, 150960, Note_on_c, 6, 78, 891, 150960, Note_on_c, 9, 38, 1081, 150991, Note_off_c, 3, 61, 1081, 151039, Note_off_c, 6, 78, 891, 151058, Note_off_c, 1, 35, 931, 151058, Note_off_c, 2, 47, 931, 151079, Note_on_c, 3, 61, 1081, 151079, Note_off_c, 9, 38, 1081, 151080, Note_on_c, 6, 81, 1071, 151080, Note_on_c, 6, 78, 981, 151080, Note_on_c, 9, 38, 1141, 151199, Note_off_c, 9, 38, 1141, 151200, Note_on_c, 1, 35, 1021, 151200, Note_on_c, 2, 47, 1021, 151201, Note_on_c, 9, 38, 1181, 151320, Note_on_c, 6, 76, 1071, 151320, Note_off_c, 9, 38, 1181, 151320, Note_on_c, 9, 38, 1081, 151328, Note_off_c, 1, 35, 1021, 151328, Note_off_c, 2, 47, 1021, 151328, Note_off_c, 3, 61, 1081, 151356, Note_off_c, 6, 78, 981, 151376, Note_off_c, 6, 81, 1071, 151428, Note_off_c, 6, 76, 1071, 151439, Note_on_c, 3, 61, 1001, 151439, Note_off_c, 9, 38, 1081, 151440, Note_on_c, 1, 35, 1021, 151440, Note_on_c, 2, 47, 1021, 151440, Note_on_c, 6, 78, 721, 151440, Note_on_c, 9, 38, 1041, 151509, Note_off_c, 6, 78, 721, 151548, Note_off_c, 1, 35, 1021, 151548, Note_off_c, 2, 47, 1021, 151558, Note_off_c, 9, 38, 1041, 151560, Note_on_c, 6, 76, 1021, 151560, Note_on_c, 9, 38, 1011, 151659, Note_off_c, 6, 76, 1021, 151678, Note_off_c, 9, 38, 1011, 151680, Note_on_c, 1, 35, 1021, 151680, Note_on_c, 2, 47, 1021, 151680, Note_on_c, 6, 83, 1071, 151680, Note_on_c, 6, 78, 1021, 151680, Note_on_c, 9, 38, 1141, 151769, Note_off_c, 6, 78, 1021, 151798, Note_off_c, 1, 35, 1021, 151798, Note_off_c, 2, 47, 1021, 151799, Note_off_c, 9, 38, 1141, 151800, Note_on_c, 6, 76, 981, 151800, Note_on_c, 9, 38, 1041, 151808, Note_off_c, 6, 83, 1071, 151908, Note_off_c, 6, 76, 981, 151918, Note_off_c, 9, 38, 1041, 151920, Note_on_c, 1, 35, 1021, 151920, Note_on_c, 2, 47, 1021, 151920, Note_on_c, 6, 78, 981, 151920, Note_on_c, 9, 38, 1141, 151958, Note_off_c, 3, 61, 1001, 151999, Note_off_c, 6, 78, 981, 152012, Note_off_c, 0, 71, 1101, 152012, Note_off_c, 0, 76, 1021, 152038, Note_off_c, 1, 35, 1021, 152038, Note_off_c, 2, 47, 1021, 152039, Note_off_c, 9, 38, 1141, 152040, Note_on_c, 6, 78, 931, 152040, Note_on_c, 6, 81, 1071, 152040, Note_on_c, 9, 38, 1041, 152158, Note_off_c, 9, 38, 1041, 152160, Note_on_c, 1, 35, 1021, 152160, Note_on_c, 2, 47, 1021, 152160, Note_on_c, 9, 38, 1181, 152166, Note_on_c, 3, 61, 1101, 152172, Note_on_c, 0, 76, 1251, 152246, Note_off_c, 6, 81, 1071, 152266, Note_off_c, 6, 78, 931, 152279, Note_off_c, 9, 38, 1181, 152280, Note_on_c, 6, 76, 1021, 152280, Note_on_c, 9, 38, 1111, 152288, Note_off_c, 1, 35, 1021, 152288, Note_off_c, 2, 47, 1021, 152399, Note_off_c, 9, 38, 1111, 152400, Note_on_c, 1, 35, 981, 152400, Note_on_c, 2, 47, 981, 152400, Note_on_c, 6, 78, 981, 152400, Note_on_c, 6, 81, 931, 152400, Note_on_c, 9, 38, 1181, 152408, Note_off_c, 6, 76, 1021, 152468, Note_on_c, 9, 84, 1121, 152479, Note_off_c, 6, 81, 931, 152487, Note_off_c, 3, 61, 1101, 152499, Note_off_c, 6, 78, 981, 152519, Note_off_c, 9, 38, 1181, 152520, Note_on_c, 6, 76, 981, 152520, Note_on_c, 9, 38, 841, 152524, Control_c, 6, 64, 0
1, 152567, Note_off_c, 1, 35, 981, 152567, Note_off_c, 2, 47, 981, 152594, Note_off_c, 0, 76, 1251, 152599, Note_off_c, 6, 76, 981, 152621, Note_off_c, 9, 84, 1121, 152638, Note_off_c, 9, 38, 841, 152640, Control_c, 6, 64, 127
1, 152640, Note_on_c, 1, 40, 851, 152640, Note_on_c, 2, 40, 851, 152640, Note_on_c, 6, 87, 961, 152640, Note_on_c, 9, 57, 1071, 152640, Note_on_c, 9, 49, 981, 152640, Note_on_c, 9, 36, 1131, 152643, Note_on_c, 0, 80, 1271, 152760, Note_on_c, 6, 83, 961, 152879, Note_off_c, 6, 87, 961, 152880, Note_on_c, 6, 80, 921, 152999, Note_off_c, 6, 83, 961, 152999, Note_off_c, 9, 57, 1071, 152999, Note_off_c, 9, 49, 981, 152999, Note_off_c, 9, 36, 1131, 153000, Note_on_c, 6, 76, 1091, 153079, Note_off_c, 0, 80, 1271, 153119, Note_off_c, 6, 80, 921, 153119, Note_off_c, 6, 76, 1091, 153120, Note_on_c, 6, 87, 1051, 153125, Note_on_c, 0, 81, 1141, 153240, Note_on_c, 6, 83, 961, 153359, Note_off_c, 0, 81, 1141, 153359, Note_off_c, 6, 87, 1051, 153360, Note_on_c, 6, 80, 881, 153366, Note_on_c, 0, 80, 1161, 153479, Note_off_c, 6, 83, 961, 153480, Note_on_c, 6, 76, 921, 153599, Note_off_c, 6, 80, 881, 153599, Note_off_c, 6, 76, 921, 153600, Note_on_c, 6, 87, 921, 153670, Note_off_c, 0, 80, 1161, 153720, Note_on_c, 6, 83, 881, 153839, Note_off_c, 6, 87, 921, 153840, Note_on_c, 6, 80, 821, 153869, Note_on_c, 0, 76, 1121, 153959, Note_off_c, 6, 83, 881, 153960, Note_on_c, 6, 76, 841, 154079, Note_off_c, 6, 80, 821, 154079, Note_off_c, 6, 76, 841, 154080, Note_on_c, 6, 87, 961, 154200, Note_on_c, 6, 83, 821, 154319, Note_off_c, 6, 87, 961, 154320, Note_on_c, 6, 80, 801, 154439, Note_off_c, 6, 83, 821, 154440, Note_on_c, 6, 76, 801, 154559, Note_off_c, 6, 80, 801, 154559, Note_off_c, 6, 76, 801, 154560, Note_on_c, 6, 87, 921, 154680, Note_on_c, 6, 83, 801, 154799, Note_off_c, 6, 87, 921, 154800, Note_on_c, 6, 80, 801, 154919, Note_off_c, 6, 83, 801, 154920, Note_on_c, 6, 76, 821, 154980, Note_off_c, 0, 76, 1121, 155039, Note_off_c, 6, 80, 801, 155039, Note_off_c, 6, 76, 821, 155040, Note_on_c, 6, 87, 1051, 155160, Note_on_c, 6, 83, 841, 155279, Note_off_c, 6, 87, 1051, 155280, Note_on_c, 6, 80, 801, 155399, Note_off_c, 6, 83, 841, 155400, Note_on_c, 6, 76, 841, 155519, Note_off_c, 6, 80, 801, 155519, Note_off_c, 6, 76, 841, 155520, Note_on_c, 6, 87, 1001, 155640, Note_on_c, 6, 83, 821, 155759, Note_off_c, 6, 87, 1001, 155760, Note_on_c, 6, 80, 881, 155879, Note_off_c, 6, 83, 821, 155880, Note_on_c, 6, 76, 921, 155999, Note_off_c, 6, 80, 881, 155999, Note_off_c, 6, 76, 921, 156000, Note_on_c, 6, 87, 961, 156120, Note_on_c, 6, 83, 631, 156227, Note_on_c, 0, 64, 981, 156239, Note_off_c, 6, 87, 961, 156240, Note_on_c, 6, 80, 881, 156330, Note_off_c, 1, 40, 851, 156330, Note_off_c, 2, 40, 851, 156359, Note_off_c, 6, 83, 631, 156360, Note_on_c, 6, 76, 921, 156472, Control_c, 6, 64, 0
1, 156476, Note_off_c, 0, 64, 981, 156479, Note_off_c, 6, 80, 881, 156479, Note_off_c, 6, 76, 921, 156480, Note_on_c, 1, 45, 691, 156480, Note_on_c, 6, 85, 1131, 156485, Note_on_c, 0, 73, 891, 156600, Note_on_c, 6, 81, 1001, 156656, Control_c, 6, 64, 127
1, 156719, Note_off_c, 6, 85, 1131, 156720, Note_on_c, 6, 80, 791, 156839, Note_off_c, 6, 81, 1001, 156840, Note_on_c, 6, 76, 821, 156959, Note_off_c, 6, 80, 791, 156959, Note_off_c, 6, 76, 821, 156960, Note_on_c, 6, 85, 921, 157080, Note_on_c, 6, 81, 711, 157199, Note_off_c, 6, 85, 921, 157200, Note_on_c, 6, 80, 761, 157319, Note_off_c, 6, 81, 711, 157320, Note_on_c, 6, 76, 771, 157329, Note_off_c, 0, 73, 891, 157439, Note_off_c, 6, 80, 761, 157439, Note_off_c, 6, 76, 771, 157440, Note_on_c, 6, 85, 881, 157443, Note_on_c, 0, 73, 751, 157560, Note_on_c, 6, 81, 701, 157679, Note_off_c, 6, 85, 881, 157680, Note_on_c, 6, 80, 771, 157799, Note_off_c, 6, 81, 701, 157800, Note_on_c, 6, 76, 921, 157919, Note_off_c, 6, 80, 771, 157919, Note_off_c, 6, 76, 921, 157920, Note_on_c, 6, 85, 921, 158040, Note_on_c, 6, 81, 771, 158130, Note_off_c, 0, 73, 751, 158159, Note_off_c, 6, 85, 921, 158160, Note_on_c, 6, 80, 821, 158168, Note_on_c, 0, 73, 801, 158279, Note_off_c, 6, 81, 771, 158280, Note_on_c, 6, 76, 921, 158399, Note_off_c, 6, 80, 821, 158399, Note_off_c, 6, 76, 921, 158400, Note_off_c, 0, 73, 801, 158400, Note_on_c, 6, 85, 921, 158406, Note_on_c, 0, 73, 731, 158520, Note_on_c, 6, 81, 841, 158639, Note_off_c, 6, 85, 921, 158640, Note_on_c, 6, 80, 801, 158759, Note_off_c, 6, 81, 841, 158759, Note_off_c, 6, 80, 801, 158760, Note_on_c, 6, 76, 921, 158769, Note_off_c, 0, 73, 731, 158874, Note_on_c, 0, 71, 831, 158879, Note_off_c, 6, 76, 921, 158880, Note_on_c, 6, 85, 921, 159000, Note_on_c, 6, 81, 841, 159093, Note_off_c, 0, 71, 831, 159119, Note_off_c, 6, 85, 921, 159120, Note_on_c, 6, 80, 821, 159175, Note_on_c, 0, 71, 771, 159239, Note_off_c, 6, 81, 841, 159239, Note_off_c, 6, 80, 821, 159240, Note_on_c, 6, 76, 921, 159359, Note_off_c, 6, 76, 921, 159360, Note_on_c, 6, 85, 1001, 159479, Note_off_c, 6, 85, 1001, 159480, Note_on_c, 6, 81, 841, 159600, Note_on_c, 6, 80, 821, 159719, Note_off_c, 6, 81, 841, 159719, Note_off_c, 6, 80, 821, 159720, Note_on_c, 6, 76, 801, 159839, Note_off_c, 6, 76, 801, 159840, Note_on_c, 6, 85, 881, 159952, Note_off_c, 0, 71, 771, 159960, Note_on_c, 6, 81, 921, 160011, Note_on_c, 0, 71, 771, 160079, Note_off_c, 6, 85, 881, 160080, Note_on_c, 6, 80, 771, 160165, Note_on_c, 0, 68, 711, 160179, Note_off_c, 0, 71, 771, 160199, Note_off_c, 6, 81, 921, 160199, Note_off_c, 6, 80, 771, 160200, Note_on_c, 6, 76, 821, 160298, Note_off_c, 1, 45, 691, 160304, Control_c, 6, 64, 0
1, 160319, Note_off_c, 6, 76, 821, 160320, Note_on_c, 6, 87, 1091, 160323, Note_on_c, 1, 40, 761, 160384, Note_off_c, 0, 68, 711, 160405, Note_on_c, 0, 71, 831, 160440, Note_on_c, 6, 83, 841, 160544, Control_c, 6, 64, 127
1, 160559, Note_off_c, 6, 87, 1091, 160560, Note_on_c, 6, 80, 821, 160679, Note_off_c, 6, 83, 841, 160679, Note_off_c, 6, 80, 821, 160680, Note_on_c, 6, 76, 821, 160799, Note_off_c, 6, 76, 821, 160800, Note_on_c, 6, 87, 881, 160920, Note_on_c, 6, 83, 841, 161039, Note_off_c, 6, 87, 881, 161040, Note_on_c, 6, 80, 801, 161159, Note_off_c, 6, 83, 841, 161159, Note_off_c, 6, 80, 801, 161160, Note_on_c, 6, 76, 821, 161279, Note_off_c, 6, 76, 821, 161280, Note_on_c, 6, 87, 881, 161302, Note_off_c, 0, 71, 831, 161324, Note_on_c, 0, 73, 751, 161400, Note_on_c, 6, 83, 711, 161519, Note_off_c, 6, 87, 881, 161520, Note_on_c, 6, 80, 801, 161639, Note_off_c, 6, 83, 711, 161640, Note_on_c, 6, 76, 801, 161759, Note_off_c, 6, 80, 801, 161759, Note_off_c, 6, 76, 801, 161760, Note_on_c, 6, 87, 921, 161880, Note_on_c, 6, 83, 751, 161978, Note_off_c, 0, 73, 751, 161999, Note_off_c, 6, 87, 921, 162000, Note_on_c, 6, 80, 841, 162009, Note_on_c, 0, 68, 841, 162119, Note_off_c, 6, 83, 751, 162120, Note_on_c, 6, 76, 801, 162204, Note_off_c, 0, 68, 841, 162239, Note_off_c, 6, 80, 841, 162239, Note_off_c, 6, 76, 801, 162240, Note_on_c, 6, 87, 841, 162246, Note_on_c, 0, 66, 851, 162360, Note_on_c, 6, 83, 841, 162479, Note_off_c, 6, 87, 841, 162480, Note_on_c, 6, 80, 801, 162599, Note_off_c, 6, 83, 841, 162600, Note_on_c, 6, 76, 821, 162719, Note_off_c, 6, 80, 801, 162719, Note_off_c, 6, 76, 821, 162720, Note_on_c, 6, 87, 881, 162840, Note_on_c, 6, 83, 731, 162959, Note_off_c, 6, 87, 881, 162960, Note_on_c, 6, 80, 791, 162966, Note_off_c, 0, 66, 851, 163079, Note_off_c, 6, 83, 731, 163079, Note_off_c, 6, 80, 791, 163080, Note_on_c, 6, 76, 801, 163199, Note_off_c, 6, 76, 801, 163200, Note_on_c, 6, 87, 881, 163320, Note_on_c, 6, 83, 731, 163439, Note_off_c, 6, 87, 881, 163440, Note_on_c, 6, 80, 791, 163559, Note_off_c, 6, 83, 731, 163560, Note_on_c, 6, 76, 841, 163679, Note_off_c, 6, 80, 791, 163679, Note_off_c, 6, 76, 841, 163680, Note_on_c, 0, 64, 881, 163680, Note_on_c, 6, 87, 961, 163800, Note_on_c, 6, 83, 731, 163919, Note_off_c, 6, 87, 961, 163920, Note_on_c, 6, 80, 801, 163930, Note_off_c, 0, 64, 881, 164000, Note_on_c, 0, 64, 771, 164039, Note_off_c, 6, 83, 731, 164040, Note_on_c, 6, 76, 841, 164121, Note_off_c, 1, 40, 761, 164152, Control_c, 6, 64, 0
1, 164159, Note_off_c, 6, 80, 801, 164159, Note_off_c, 6, 76, 841, 164160, Note_off_c, 0, 64, 771, 164160, Note_on_c, 6, 85, 1091, 164162, Note_on_c, 1, 45, 801, 164198, Note_on_c, 0, 68, 801, 164280, Note_on_c, 6, 81, 821, 164352, Control_c, 6, 64, 127
1, 164399, Note_off_c, 6, 85, 1091, 164400, Note_on_c, 6, 80, 771, 164455, Note_off_c, 0, 68, 801, 164519, Note_off_c, 6, 81, 821, 164519, Note_off_c, 6, 80, 771, 164520, Note_on_c, 6, 76, 771, 164564, Note_on_c, 0, 69, 851, 164639, Note_off_c, 6, 76, 771, 164640, Note_on_c, 6, 85, 961, 164760, Note_on_c, 6, 81, 921, 164879, Note_off_c, 6, 85, 961, 164880, Note_on_c, 6, 80, 791, 164913, Note_off_c, 0, 69, 851, 164967, Note_on_c, 0, 71, 861, 164999, Note_off_c, 6, 81, 921, 164999, Note_off_c, 6, 80, 791, 165000, Note_on_c, 6, 76, 921, 165119, Note_off_c, 6, 76, 921, 165120, Note_on_c, 6, 85, 921, 165240, Note_on_c, 6, 81, 681, 165340, Note_off_c, 0, 71, 861, 165359, Note_off_c, 6, 85, 921, 165360, Note_on_c, 6, 80, 801, 165375, Note_on_c, 0, 73, 911, 165479, Note_off_c, 6, 81, 681, 165479, Note_off_c, 6, 80, 801, 165480, Note_on_c, 6, 76, 841, 165599, Note_off_c, 6, 76, 841, 165600, Note_on_c, 6, 85, 961, 165720, Note_on_c, 6, 81, 791, 165801, Note_off_c, 0, 73, 911, 165839, Note_off_c, 6, 85, 961, 165840, Note_on_c, 6, 80, 751, 165853, Note_on_c, 0, 73, 951, 165959, Note_off_c, 6, 81, 791, 165959, Note_off_c, 6, 80, 751, 165960, Note_on_c, 6, 76, 791, 166079, Note_off_c, 6, 76, 791, 166080, Note_on_c, 6, 85, 921, 166200, Note_on_c, 6, 81, 801, 166319, Note_off_c, 6, 85, 921, 166320, Note_on_c, 6, 80, 801, 166439, Note_off_c, 6, 81, 801, 166439, Note_off_c, 6, 80, 801, 166440, Note_on_c, 6, 76, 801, 166473, Note_off_c, 0, 73, 951, 166559, Note_off_c, 6, 76, 801, 166560, Note_on_c, 6, 85, 1051, 166680, Note_on_c, 6, 81, 841, 166799, Note_off_c, 6, 85, 1051, 166800, Note_on_c, 6, 80, 791, 166919, Note_off_c, 6, 81, 841, 166919, Note_off_c, 6, 80, 791, 166920, Note_on_c, 6, 76, 881, 167039, Note_off_c, 6, 76, 881, 167040, Note_on_c, 6, 85, 921, 167160, Note_on_c, 6, 81, 711, 167279, Note_off_c, 6, 85, 921, 167280, Note_on_c, 6, 80, 801, 167399, Note_off_c, 6, 81, 711, 167400, Note_on_c, 6, 76, 821, 167519, Note_off_c, 6, 80, 801, 167519, Note_off_c, 6, 76, 821, 167520, Note_on_c, 6, 85, 921, 167640, Note_on_c, 6, 81, 631, 167759, Note_off_c, 6, 85, 921, 167760, Note_on_c, 6, 80, 671, 167879, Note_off_c, 6, 81, 631, 167880, Note_on_c, 6, 76, 821, 167967, Note_off_c, 1, 45, 801, 167999, Note_off_c, 6, 80, 671, 167999, Note_off_c, 6, 76, 821, 168000, Note_on_c, 1, 42, 601, 168000, Note_on_c, 6, 85, 1051, 168008, Control_c, 6, 64, 0
1, 168104, Control_c, 6, 64, 127
1, 168120, Note_on_c, 6, 81, 671, 168239, Note_off_c, 6, 85, 1051, 168240, Note_on_c, 6, 78, 961, 168359, Note_off_c, 6, 81, 671, 168359, Note_off_c, 6, 78, 961, 168360, Note_on_c, 6, 75, 721, 168479, Note_off_c, 6, 75, 721, 168480, Note_on_c, 6, 85, 701, 168482, Note_on_c, 0, 73, 811, 168600, Note_on_c, 6, 81, 821, 168660, Note_off_c, 0, 73, 811, 168719, Note_off_c, 6, 85, 701, 168720, Note_on_c, 6, 78, 821, 168759, Note_on_c, 0, 73, 911, 168839, Note_off_c, 6, 81, 821, 168840, Note_on_c, 6, 75, 711, 168959, Note_off_c, 6, 78, 821, 168959, Note_off_c, 6, 75, 711, 168960, Note_on_c, 6, 85, 961, 169080, Note_on_c, 6, 81, 841, 169199, Note_off_c, 6, 85, 961, 169200, Note_off_c, 0, 73, 911, 169200, Note_on_c, 6, 78, 921, 169230, Note_on_c, 0, 75, 761, 169319, Note_off_c, 6, 81, 841, 169319, Note_off_c, 6, 78, 921, 169320, Note_on_c, 6, 75, 651, 169439, Note_off_c, 6, 75, 651, 169440, Note_on_c, 6, 85, 921, 169559, Note_off_c, 6, 85, 921, 169560, Note_on_c, 6, 81, 921, 169680, Note_on_c, 6, 78, 821, 169799, Note_off_c, 6, 81, 921, 169799, Note_off_c, 6, 78, 821, 169800, Note_on_c, 6, 75, 731, 169857, Note_off_c, 0, 75, 761, 169896, Note_on_c, 0, 73, 881, 169919, Note_off_c, 6, 75, 731, 169920, Note_on_c, 6, 85, 921, 170040, Note_on_c, 6, 81, 761, 170159, Note_off_c, 6, 85, 921, 170160, Note_on_c, 6, 78, 841, 170279, Note_off_c, 6, 81, 761, 170280, Note_on_c, 6, 75, 761, 170348, Note_off_c, 0, 73, 881, 170399, Note_off_c, 6, 78, 841, 170399, Note_off_c, 6, 75, 761, 170400, Note_on_c, 6, 85, 921, 170404, Note_on_c, 0, 71, 901, 170519, Note_off_c, 6, 85, 921, 170520, Note_on_c, 6, 81, 731, 170640, Note_on_c, 6, 78, 841, 170759, Note_off_c, 6, 81, 731, 170759, Note_off_c, 6, 78, 841, 170760, Note_on_c, 6, 75, 731, 170839, Note_off_c, 0, 71, 901, 170875, Note_on_c, 0, 68, 901, 170879, Note_off_c, 6, 75, 731, 170880, Note_on_c, 6, 85, 961, 171000, Note_on_c, 6, 81, 751, 171119, Note_off_c, 6, 85, 961, 171120, Note_on_c, 6, 78, 821, 171157, Note_off_c, 0, 68, 901, 171191, Note_on_c, 0, 68, 901, 171239, Note_off_c, 6, 81, 751, 171239, Note_off_c, 6, 78, 821, 171240, Note_on_c, 6, 75, 711, 171359, Note_off_c, 6, 75, 711, 171360, Note_on_c, 6, 85, 881, 171480, Note_on_c, 6, 81, 761, 171499, Note_off_c, 0, 68, 901, 171522, Note_on_c, 0, 66, 851, 171599, Note_off_c, 6, 85, 881, 171600, Note_on_c, 6, 78, 771, 171719, Note_off_c, 6, 81, 761, 171720, Note_on_c, 6, 75, 761, 171797, Note_off_c, 1, 42, 601, 171829, Note_off_c, 0, 66, 851, 171838, Note_on_c, 1, 49, 501, 171839, Note_off_c, 6, 78, 771, 171839, Note_off_c, 6, 75, 761, 171840, Note_on_c, 6, 85, 1091, 171862, Note_on_c, 0, 68, 681, 171872, Control_c, 6, 64, 0
1, 171959, Note_off_c, 6, 85, 1091, 171960, Note_on_c, 6, 80, 961, 172072, Control_c, 6, 64, 127
1, 172080, Note_on_c, 6, 77, 821, 172094, Note_off_c, 0, 68, 681, 172189, Note_on_c, 0, 68, 751, 172199, Note_off_c, 6, 80, 961, 172199, Note_off_c, 6, 77, 821, 172200, Note_on_c, 6, 73, 801, 172319, Note_off_c, 6, 73, 801, 172320, Note_on_c, 6, 85, 1051, 172439, Note_off_c, 6, 85, 1051, 172440, Note_on_c, 6, 80, 921, 172560, Note_on_c, 6, 77, 841, 172627, Note_off_c, 0, 68, 751, 172679, Note_off_c, 6, 80, 921, 172679, Note_off_c, 6, 77, 841, 172680, Note_on_c, 6, 73, 731, 172799, Note_off_c, 6, 73, 731, 172800, Note_on_c, 6, 85, 961, 172919, Note_off_c, 6, 85, 961, 172920, Note_on_c, 6, 80, 821, 173040, Note_on_c, 6, 77, 821, 173159, Note_off_c, 6, 80, 821, 173159, Note_off_c, 6, 77, 821, 173160, Note_on_c, 6, 73, 671, 173279, Note_off_c, 6, 73, 671, 173280, Note_on_c, 6, 85, 881, 173285, Note_on_c, 0, 65, 681, 173399, Note_off_c, 6, 85, 881, 173400, Note_on_c, 6, 80, 841, 173515, Note_off_c, 0, 65, 681, 173520, Note_on_c, 6, 77, 821, 173537, Note_on_c, 0, 63, 671, 173639, Note_off_c, 6, 80, 841, 173639, Note_off_c, 6, 77, 821, 173640, Note_on_c, 6, 73, 711, 173757, Note_off_c, 0, 63, 671, 173759, Note_off_c, 6, 73, 711, 173760, Note_on_c, 6, 85, 961, 173763, Note_on_c, 0, 61, 781, 173879, Note_off_c, 6, 85, 961, 173880, Note_on_c, 6, 80, 821, 174000, Note_on_c, 6, 77, 801, 174119, Note_off_c, 6, 80, 821, 174120, Note_on_c, 6, 73, 711, 174239, Note_off_c, 6, 77, 801, 174239, Note_off_c, 6, 73, 711, 174240, Note_on_c, 6, 85, 1091, 174282, Note_off_c, 0, 61, 781, 174359, Note_off_c, 6, 85, 1091, 174360, Note_on_c, 6, 80, 821, 174480, Note_on_c, 6, 77, 841, 174599, Note_off_c, 6, 80, 821, 174600, Note_on_c, 6, 73, 691, 174719, Note_off_c, 6, 77, 841, 174719, Note_off_c, 6, 73, 691, 174720, Note_on_c, 6, 85, 881, 174839, Note_off_c, 6, 85, 881, 174840, Note_on_c, 6, 80, 791, 174960, Note_on_c, 6, 77, 791, 175079, Note_off_c, 6, 80, 791, 175079, Note_off_c, 6, 77, 791, 175080, Note_on_c, 6, 73, 721, 175199, Note_off_c, 6, 73, 721, 175200, Note_on_c, 6, 85, 1051, 175205, Note_on_c, 0, 61, 851, 175320, Note_on_c, 6, 80, 801, 175407, Note_on_c, 1, 44, 651, 175437, Note_off_c, 1, 49, 501, 175439, Note_off_c, 6, 85, 1051, 175440, Note_on_c, 6, 77, 801, 175500, Note_off_c, 0, 61, 851, 175559, Note_off_c, 6, 80, 801, 175560, Note_on_c, 6, 73, 761, 175636, Note_on_c, 1, 37, 661, 175648, Control_c, 6, 64, 0
1, 175648, Note_off_c, 1, 44, 651, 175679, Note_off_c, 6, 77, 801, 175679, Note_off_c, 6, 73, 761, 175680, Control_c, 7, 11, 64
1, 175680, Note_on_c, 0, 73, 1011, 175680, Note_on_c, 6, 85, 1131, 175680, Note_on_c, 7, 76, 1061, 175680, Note_on_c, 7, 64, 751, 175697, Control_c, 7, 11, 66
1, 175712, Control_c, 7, 11, 70
1, 175728, Control_c, 7, 11, 76
1, 175743, Control_c, 7, 11, 83
1, 175758, Control_c, 7, 11, 93
1, 175760, Control_c, 6, 64, 127
1, 175774, Control_c, 7, 11, 103
1, 175789, Control_c, 7, 11, 114
1, 175799, Note_off_c, 6, 85, 1131, 175800, Note_on_c, 6, 80, 821, 175804, Control_c, 7, 11, 125
1, 175819, Control_c, 7, 11, 127
1, 175920, Note_on_c, 6, 76, 1001, 176039, Note_off_c, 6, 80, 821, 176039, Note_off_c, 6, 76, 1001, 176040, Note_on_c, 6, 73, 821, 176159, Note_off_c, 6, 73, 821, 176160, Note_on_c, 6, 85, 921, 176280, Note_on_c, 6, 80, 751, 176394, Control_c, 7, 1, 4
1, 176394, Control_c, 7, 1, 4
1, 176399, Note_off_c, 6, 85, 921, 176400, Note_on_c, 6, 76, 961, 176502, Control_c, 7, 1, 9
1, 176502, Control_c, 7, 1, 9
1, 176519, Note_off_c, 6, 80, 751, 176519, Note_off_c, 6, 76, 961, 176520, Note_on_c, 6, 73, 771, 176542, Control_c, 7, 1, 16
1, 176542, Control_c, 7, 1, 16
1, 176581, Control_c, 7, 1, 21
1, 176581, Control_c, 7, 1, 21
1, 176621, Control_c, 7, 1, 27
1, 176621, Control_c, 7, 1, 27
1, 176639, Note_off_c, 6, 73, 771, 176640, Note_on_c, 6, 85, 1001, 176660, Control_c, 7, 1, 32
1, 176660, Control_c, 7, 1, 32
1, 176670, Control_c, 7, 1, 37
1, 176670, Control_c, 7, 1, 37
1, 176699, Control_c, 7, 1, 42
1, 176699, Control_c, 7, 1, 42
1, 176729, Control_c, 7, 1, 49
1, 176729, Control_c, 7, 1, 49
1, 176760, Note_on_c, 6, 80, 751, 176817, Control_c, 7, 1, 44
1, 176817, Control_c, 7, 1, 44
1, 176827, Control_c, 7, 1, 39
1, 176827, Control_c, 7, 1, 39
1, 176847, Control_c, 7, 1, 31
1, 176847, Control_c, 7, 1, 31
1, 176857, Control_c, 7, 1, 22
1, 176857, Control_c, 7, 1, 22
1, 176867, Control_c, 7, 1, 14
1, 176867, Control_c, 7, 1, 14
1, 176879, Note_off_c, 6, 85, 1001, 176880, Note_on_c, 6, 76, 961, 176886, Control_c, 7, 1, 7
1, 176886, Control_c, 7, 1, 7
1, 176895, Control_c, 7, 11, 126
1, 176896, Control_c, 7, 1, 0
1, 176896, Control_c, 7, 1, 0
1, 176911, Control_c, 7, 11, 123
1, 176925, Control_c, 7, 11, 118
1, 176940, Control_c, 7, 11, 112
1, 176955, Control_c, 7, 11, 105
1, 176971, Control_c, 7, 11, 98
1, 176986, Control_c, 7, 11, 92
1, 176999, Note_off_c, 6, 80, 751, 176999, Note_off_c, 6, 76, 961, 177000, Note_on_c, 6, 73, 921, 177001, Control_c, 7, 11, 86
1, 177017, Control_c, 7, 11, 80
1, 177033, Control_c, 7, 11, 74
1, 177040, Control_c, 6, 64, 0
1, 177048, Control_c, 7, 11, 70
1, 177057, Note_off_c, 0, 73, 1011, 177063, Control_c, 7, 11, 67
1, 177078, Control_c, 7, 11, 66
1, 177106, Note_on_c, 0, 68, 841, 177110, Note_off_c, 7, 76, 1061, 177110, Note_off_c, 7, 64, 751, 177110, Note_on_c, 7, 74, 1061, 177110, Note_on_c, 7, 62, 761, 177119, Note_off_c, 6, 73, 921, 177120, Note_on_c, 6, 85, 961, 177123, Control_c, 7, 11, 69
1, 177138, Control_c, 7, 11, 74
1, 177155, Control_c, 7, 11, 82
1, 177168, Control_c, 6, 64, 127
1, 177170, Control_c, 7, 11, 93
1, 177185, Control_c, 7, 11, 104
1, 177200, Control_c, 7, 11, 115
1, 177240, Note_on_c, 6, 81, 841, 177350, Note_off_c, 7, 74, 1061, 177350, Note_off_c, 7, 62, 761, 177359, Note_off_c, 6, 85, 961, 177360, Note_on_c, 6, 78, 921, 177479, Note_off_c, 6, 81, 841, 177480, Note_on_c, 6, 74, 881, 177560, Control_c, 6, 64, 0
1, 177573, Note_on_c, 0, 61, 931, 177578, Note_off_c, 0, 68, 841, 177599, Note_off_c, 6, 78, 921, 177599, Note_off_c, 6, 74, 881, 177600, Control_c, 7, 11, 64
1, 177600, Note_on_c, 6, 85, 1051, 177600, Note_on_c, 7, 73, 901, 177600, Note_on_c, 7, 61, 601, 177617, Control_c, 7, 11, 66
1, 177632, Control_c, 7, 11, 70
1, 177648, Control_c, 7, 11, 76
1, 177663, Control_c, 7, 11, 83
1, 177678, Control_c, 7, 11, 93
1, 177694, Control_c, 7, 11, 103
1, 177709, Control_c, 7, 11, 114
1, 177720, Note_on_c, 6, 80, 801, 177724, Control_c, 7, 11, 125
1, 177739, Control_c, 7, 11, 127
1, 177816, Control_c, 6, 64, 127
1, 177839, Note_off_c, 6, 85, 1051, 177840, Note_on_c, 6, 76, 881, 177959, Note_off_c, 6, 80, 801, 177959, Note_off_c, 6, 76, 881, 177960, Note_on_c, 6, 73, 751, 178079, Note_off_c, 6, 73, 751, 178080, Note_on_c, 6, 85, 881, 178200, Note_on_c, 6, 80, 821, 178319, Note_off_c, 6, 85, 881, 178320, Note_on_c, 6, 76, 791, 178439, Note_off_c, 6, 80, 821, 178439, Note_off_c, 6, 76, 791, 178440, Note_on_c, 6, 73, 881, 178559, Control_c, 7, 1, 1
1, 178559, Control_c, 7, 1, 1
1, 178559, Note_off_c, 6, 73, 881, 178560, Note_on_c, 6, 85, 961, 178589, Control_c, 7, 1, 6
1, 178589, Control_c, 7, 1, 6
1, 178623, Note_off_c, 0, 61, 931, 178638, Control_c, 7, 1, 11
1, 178638, Control_c, 7, 1, 11
1, 178667, Control_c, 7, 1, 16
1, 178667, Control_c, 7, 1, 16
1, 178680, Note_on_c, 6, 80, 821, 178687, Control_c, 7, 1, 21
1, 178687, Control_c, 7, 1, 21
1, 178736, Control_c, 7, 1, 27
1, 178736, Control_c, 7, 1, 27
1, 178799, Note_off_c, 6, 85, 961, 178800, Note_on_c, 6, 76, 1091, 178815, Control_c, 7, 11, 126
1, 178831, Control_c, 7, 11, 123
1, 178835, Control_c, 7, 1, 21
1, 178835, Control_c, 7, 1, 21
1, 178844, Control_c, 7, 1, 14
1, 178844, Control_c, 7, 1, 14
1, 178845, Control_c, 7, 11, 118
1, 178860, Control_c, 7, 11, 112
1, 178864, Control_c, 7, 1, 6
1, 178864, Control_c, 7, 1, 6
1, 178875, Control_c, 7, 11, 105
1, 178884, Control_c, 7, 1, 0
1, 178884, Control_c, 7, 1, 0
1, 178885, Note_off_c, 1, 37, 661, 178891, Control_c, 7, 11, 98
1, 178906, Control_c, 7, 11, 92
1, 178919, Note_off_c, 6, 80, 821, 178919, Note_off_c, 6, 76, 1091, 178920, Note_on_c, 6, 73, 841, 178921, Control_c, 7, 11, 86
1, 178936, Control_c, 6, 64, 0
1, 178937, Control_c, 7, 11, 80
1, 178953, Control_c, 7, 11, 74
1, 178968, Control_c, 7, 11, 70
1, 178983, Control_c, 7, 11, 67
1, 178998, Control_c, 7, 11, 66
1, 179011, Note_on_c, 1, 39, 621, 179039, Note_off_c, 6, 73, 841, 179040, Note_on_c, 6, 85, 1091, 179040, Note_off_c, 7, 73, 901, 179040, Note_off_c, 7, 61, 601, 179040, Note_on_c, 7, 71, 1021, 179040, Note_on_c, 7, 59, 721, 179043, Control_c, 7, 11, 69
1, 179058, Control_c, 7, 11, 74
1, 179075, Control_c, 7, 11, 82
1, 179090, Control_c, 7, 11, 93
1, 179104, Control_c, 6, 64, 127
1, 179105, Control_c, 7, 11, 104
1, 179120, Control_c, 7, 11, 115
1, 179160, Note_on_c, 6, 81, 1051, 179259, Note_off_c, 1, 39, 621, 179261, Note_on_c, 1, 40, 651, 179279, Note_on_c, 0, 68, 951, 179279, Note_off_c, 6, 85, 1091, 179280, Note_on_c, 6, 78, 921, 179280, Note_off_c, 7, 71, 1021, 179280, Note_off_c, 7, 59, 721, 179399, Note_off_c, 6, 81, 1051, 179399, Note_off_c, 6, 78, 921, 179400, Note_on_c, 6, 74, 921, 179472, Control_c, 6, 64, 0
1, 179480, Note_off_c, 1, 40, 651, 179481, Note_on_c, 1, 37, 581, 179512, Note_off_c, 0, 68, 951, 179519, Note_off_c, 6, 74, 921, 179520, Control_c, 7, 11, 64
1, 179520, Note_on_c, 6, 85, 1181, 179520, Note_on_c, 7, 76, 1061, 179520, Note_on_c, 7, 64, 761, 179523, Note_on_c, 0, 69, 941, 179537, Control_c, 7, 11, 66
1, 179552, Control_c, 7, 11, 70
1, 179568, Control_c, 7, 11, 76
1, 179583, Control_c, 7, 11, 83
1, 179598, Control_c, 7, 11, 93
1, 179608, Control_c, 6, 64, 127
1, 179614, Control_c, 7, 11, 103
1, 179629, Control_c, 7, 11, 114
1, 179640, Note_on_c, 6, 80, 881, 179644, Control_c, 7, 11, 125
1, 179659, Control_c, 7, 11, 127
1, 179759, Note_off_c, 6, 85, 1181, 179760, Note_on_c, 6, 76, 581, 179879, Note_off_c, 6, 80, 881, 179879, Note_off_c, 6, 76, 581, 179880, Note_on_c, 6, 73, 761, 179999, Note_off_c, 6, 73, 761, 180000, Note_on_c, 6, 85, 1051, 180120, Note_on_c, 6, 80, 821, 180196, Note_off_c, 0, 69, 941, 180239, Note_off_c, 6, 85, 1051, 180240, Note_on_c, 6, 76, 1051, 180241, Note_on_c, 0, 69, 961, 180291, Control_c, 7, 1, 2
1, 180291, Control_c, 7, 1, 2
1, 180340, Control_c, 7, 1, 7
1, 180340, Control_c, 7, 1, 7
1, 180359, Note_off_c, 6, 80, 821, 180359, Note_off_c, 6, 76, 1051, 180360, Note_on_c, 6, 73, 841, 180429, Control_c, 7, 1, 12
1, 180429, Control_c, 7, 1, 12
1, 180443, Note_off_c, 0, 69, 961, 180479, Note_off_c, 6, 73, 841, 180480, Note_on_c, 6, 85, 881, 180492, Note_on_c, 0, 69, 961, 180517, Control_c, 7, 1, 19
1, 180517, Control_c, 7, 1, 19
1, 180557, Control_c, 7, 1, 24
1, 180557, Control_c, 7, 1, 24
1, 180600, Note_on_c, 6, 80, 841, 180606, Control_c, 7, 1, 29
1, 180606, Control_c, 7, 1, 29
1, 180645, Control_c, 7, 1, 34
1, 180645, Control_c, 7, 1, 34
1, 180684, Control_c, 7, 1, 39
1, 180684, Control_c, 7, 1, 39
1, 180696, Note_off_c, 0, 69, 961, 180714, Control_c, 7, 1, 44
1, 180714, Control_c, 7, 1, 44
1, 180719, Note_off_c, 6, 85, 881, 180720, Note_on_c, 6, 76, 1051, 180725, Note_on_c, 0, 71, 981, 180735, Control_c, 7, 11, 126
1, 180751, Control_c, 7, 11, 123
1, 180765, Control_c, 7, 11, 118
1, 180780, Control_c, 7, 11, 112
1, 180793, Control_c, 7, 1, 37
1, 180793, Control_c, 7, 1, 37
1, 180795, Control_c, 7, 11, 105
1, 180803, Control_c, 7, 1, 24
1, 180803, Control_c, 7, 1, 24
1, 180811, Control_c, 7, 11, 98
1, 180812, Control_c, 7, 1, 9
1, 180812, Control_c, 7, 1, 9
1, 180826, Control_c, 7, 11, 92
1, 180832, Control_c, 7, 1, 0
1, 180832, Control_c, 7, 1, 0
1, 180839, Note_off_c, 6, 80, 841, 180839, Note_off_c, 6, 76, 1051, 180840, Note_on_c, 6, 73, 961, 180841, Control_c, 7, 11, 86
1, 180857, Control_c, 7, 11, 80
1, 180873, Control_c, 7, 11, 74
1, 180888, Control_c, 7, 11, 70
1, 180903, Control_c, 7, 11, 67
1, 180904, Control_c, 6, 64, 0
1, 180918, Control_c, 7, 11, 66
1, 180959, Note_off_c, 6, 73, 961, 180960, Note_on_c, 6, 85, 1091, 180960, Note_off_c, 7, 76, 1061, 180960, Note_off_c, 7, 64, 761, 180960, Note_on_c, 7, 74, 1061, 180960, Note_on_c, 7, 62, 761, 180963, Control_c, 7, 11, 69
1, 180978, Control_c, 7, 11, 74
1, 180995, Control_c, 7, 11, 82
1, 181010, Control_c, 7, 11, 93
1, 181016, Control_c, 6, 64, 127
1, 181025, Control_c, 7, 11, 104
1, 181040, Control_c, 7, 11, 115
1, 181080, Note_on_c, 6, 81, 921, 181168, Note_off_c, 0, 71, 981, 181199, Note_off_c, 6, 85, 1091, 181200, Note_on_c, 6, 78, 881, 181200, Note_off_c, 7, 74, 1061, 181200, Note_off_c, 7, 62, 761, 181213, Note_on_c, 0, 68, 931, 181319, Note_off_c, 6, 81, 921, 181320, Note_on_c, 6, 74, 921, 181400, Control_c, 6, 64, 0
1, 181439, Note_off_c, 6, 78, 881, 181439, Note_off_c, 6, 74, 921, 181440, Control_c, 7, 11, 64
1, 181440, Note_on_c, 6, 85, 1131, 181440, Note_on_c, 7, 73, 981, 181440, Note_on_c, 7, 61, 681, 181457, Control_c, 7, 11, 66
1, 181472, Control_c, 7, 11, 70
1, 181488, Control_c, 7, 11, 76
1, 181488, Control_c, 6, 64, 127
1, 181503, Control_c, 7, 11, 83
1, 181518, Control_c, 7, 11, 93
1, 181534, Control_c, 7, 11, 103
1, 181549, Control_c, 7, 11, 114
1, 181560, Note_on_c, 6, 80, 961, 181564, Control_c, 7, 11, 125
1, 181579, Control_c, 7, 11, 127
1, 181679, Note_off_c, 6, 85, 1131, 181680, Note_on_c, 6, 76, 961, 181799, Note_off_c, 6, 80, 961, 181799, Note_off_c, 6, 76, 961, 181800, Note_on_c, 6, 73, 821, 181919, Note_off_c, 6, 73, 821, 181920, Note_on_c, 6, 85, 961, 182040, Note_on_c, 6, 80, 801, 182159, Note_off_c, 6, 85, 961, 182160, Control_c, 7, 1, 1
1, 182160, Control_c, 7, 1, 1
1, 182160, Note_on_c, 6, 76, 961, 182249, Control_c, 7, 1, 6
1, 182249, Control_c, 7, 1, 6
1, 182279, Note_off_c, 6, 80, 801, 182280, Note_on_c, 6, 73, 801, 182308, Control_c, 7, 1, 11
1, 182308, Control_c, 7, 1, 11
1, 182338, Control_c, 7, 1, 16
1, 182338, Control_c, 7, 1, 16
1, 182367, Control_c, 7, 1, 21
1, 182367, Control_c, 7, 1, 21
1, 182399, Note_off_c, 6, 76, 961, 182399, Note_off_c, 6, 73, 801, 182400, Note_on_c, 6, 85, 921, 182426, Control_c, 7, 1, 27
1, 182426, Control_c, 7, 1, 27
1, 182456, Control_c, 7, 1, 32
1, 182456, Control_c, 7, 1, 32
1, 182475, Control_c, 7, 1, 37
1, 182475, Control_c, 7, 1, 37
1, 182520, Note_on_c, 6, 80, 791, 182554, Control_c, 7, 1, 42
1, 182554, Control_c, 7, 1, 42
1, 182582, Note_off_c, 0, 68, 931, 182639, Note_off_c, 6, 85, 921, 182640, Note_on_c, 6, 76, 961, 182643, Control_c, 7, 1, 34
1, 182643, Control_c, 7, 1, 34
1, 182655, Control_c, 7, 11, 126
1, 182662, Control_c, 7, 1, 26
1, 182662, Control_c, 7, 1, 26
1, 182671, Control_c, 7, 11, 123
1, 182682, Control_c, 7, 1, 19
1, 182682, Control_c, 7, 1, 19
1, 182685, Control_c, 7, 11, 118
1, 182692, Control_c, 7, 1, 7
1, 182692, Control_c, 7, 1, 7
1, 182700, Control_c, 7, 11, 112
1, 182711, Control_c, 7, 1, 0
1, 182711, Control_c, 7, 1, 0
1, 182715, Control_c, 7, 11, 105
1, 182731, Control_c, 7, 11, 98
1, 182746, Control_c, 7, 11, 92
1, 182759, Note_off_c, 6, 80, 791, 182760, Note_on_c, 6, 73, 801, 182761, Control_c, 7, 11, 86
1, 182777, Control_c, 7, 11, 80
1, 182793, Control_c, 7, 11, 74
1, 182808, Control_c, 7, 11, 70
1, 182823, Control_c, 7, 11, 67
1, 182832, Control_c, 6, 64, 0
1, 182838, Control_c, 7, 11, 66
1, 182879, Note_off_c, 6, 76, 961, 182879, Note_off_c, 6, 73, 801, 182880, Note_on_c, 6, 85, 1091, 182880, Note_off_c, 7, 73, 981, 182880, Note_off_c, 7, 61, 681, 182880, Note_on_c, 7, 71, 981, 182880, Note_on_c, 7, 59, 681, 182883, Control_c, 7, 11, 69
1, 182898, Control_c, 7, 11, 74
1, 182915, Control_c, 7, 11, 82
1, 182928, Control_c, 6, 64, 127
1, 182930, Control_c, 7, 11, 93
1, 182945, Control_c, 7, 11, 104
1, 182960, Control_c, 7, 11, 115
1, 182973, Note_off_c, 1, 37, 581, 183000, Note_on_c, 6, 81, 921, 183102, Note_on_c, 1, 37, 611, 183119, Note_off_c, 6, 85, 1091, 183120, Note_on_c, 6, 78, 821, 183120, Note_off_c, 7, 71, 981, 183120, Note_off_c, 7, 59, 681, 183127, Note_on_c, 0, 68, 861, 183239, Note_off_c, 6, 81, 921, 183240, Note_on_c, 6, 74, 821, 183342, Note_off_c, 0, 68, 861, 183344, Note_off_c, 1, 37, 611, 183358, Note_on_c, 1, 38, 721, 183359, Note_off_c, 6, 78, 821, 183359, Note_off_c, 6, 74, 821, 183360, Control_c, 6, 64, 0
1, 183360, Control_c, 7, 11, 64
1, 183360, Note_on_c, 0, 68, 981, 183360, Note_on_c, 6, 85, 1091, 183360, Note_on_c, 7, 73, 1021, 183360, Note_on_c, 7, 61, 721, 183377, Control_c, 7, 11, 66
1, 183392, Control_c, 7, 11, 70
1, 183408, Control_c, 7, 11, 76
1, 183423, Control_c, 7, 11, 83
1, 183438, Control_c, 7, 11, 93
1, 183454, Control_c, 7, 11, 103
1, 183456, Control_c, 6, 64, 127
1, 183469, Control_c, 7, 11, 114
1, 183480, Note_on_c, 6, 81, 791, 183484, Control_c, 7, 11, 125
1, 183499, Control_c, 7, 11, 127
1, 183599, Note_off_c, 6, 85, 1091, 183600, Note_on_c, 6, 78, 801, 183719, Note_off_c, 6, 81, 791, 183720, Note_on_c, 6, 74, 761, 183839, Note_off_c, 6, 78, 801, 183839, Note_off_c, 6, 74, 761, 183840, Note_on_c, 6, 85, 881, 183960, Note_on_c, 6, 81, 701, 183971, Control_c, 7, 1, 1
1, 183971, Control_c, 7, 1, 1
1, 183989, Note_off_c, 0, 68, 981, 184001, Control_c, 7, 1, 7
1, 184001, Control_c, 7, 1, 7
1, 184040, Control_c, 7, 1, 12
1, 184040, Control_c, 7, 1, 12
1, 184072, Note_on_c, 0, 66, 981, 184080, Note_on_c, 6, 78, 801, 184127, Control_c, 7, 11, 124
1, 184138, Control_c, 7, 1, 7
1, 184138, Control_c, 7, 1, 7
1, 184144, Control_c, 7, 11, 118
1, 184158, Control_c, 7, 11, 111
1, 184168, Control_c, 7, 1, 0
1, 184168, Control_c, 7, 1, 0
1, 184173, Control_c, 7, 11, 104
1, 184188, Control_c, 7, 11, 96
1, 184199, Note_off_c, 6, 85, 881, 184200, Note_on_c, 6, 74, 731, 184203, Control_c, 7, 11, 88
1, 184218, Control_c, 7, 11, 80
1, 184234, Control_c, 7, 11, 72
1, 184249, Control_c, 7, 11, 67
1, 184265, Control_c, 7, 11, 63
1, 184280, Control_c, 7, 11, 61
1, 184319, Note_off_c, 6, 81, 701, 184319, Note_off_c, 6, 74, 731, 184320, Note_on_c, 6, 83, 921, 184320, Note_off_c, 7, 73, 1021, 184320, Note_off_c, 7, 61, 721, 184320, Note_on_c, 7, 71, 1061, 184320, Note_on_c, 7, 59, 761, 184326, Control_c, 7, 11, 64
1, 184328, Control_c, 6, 64, 0
1, 184341, Control_c, 7, 11, 68
1, 184355, Control_c, 7, 11, 73
1, 184371, Control_c, 7, 11, 78
1, 184387, Control_c, 7, 11, 85
1, 184402, Control_c, 7, 11, 91
1, 184417, Control_c, 7, 11, 98
1, 184424, Control_c, 6, 64, 127
1, 184432, Control_c, 7, 11, 106
1, 184439, Note_off_c, 6, 78, 801, 184440, Note_on_c, 6, 81, 841, 184448, Control_c, 7, 11, 115
1, 184463, Control_c, 7, 11, 125
1, 184478, Control_c, 7, 11, 127
1, 184559, Note_off_c, 6, 83, 921, 184560, Note_on_c, 6, 78, 771, 184679, Note_off_c, 6, 81, 841, 184680, Note_on_c, 6, 74, 611, 184688, Note_off_c, 0, 66, 981, 184759, Note_on_c, 0, 71, 981, 184799, Note_off_c, 6, 78, 771, 184799, Note_off_c, 6, 74, 611, 184800, Note_on_c, 6, 83, 841, 184920, Note_on_c, 6, 81, 801, 185021, Note_off_c, 1, 38, 721, 185038, Note_on_c, 1, 37, 571, 185039, Note_off_c, 6, 83, 841, 185040, Note_on_c, 6, 78, 801, 185068, Control_c, 7, 11, 125
1, 185082, Control_c, 7, 11, 120
1, 185097, Control_c, 7, 11, 113
1, 185112, Control_c, 7, 11, 106
1, 185128, Control_c, 7, 11, 98
1, 185143, Control_c, 7, 11, 90
1, 185158, Control_c, 7, 11, 83
1, 185159, Note_off_c, 6, 81, 801, 185160, Note_on_c, 6, 74, 661, 185173, Control_c, 7, 11, 76
1, 185174, Note_off_c, 0, 71, 981, 185189, Control_c, 7, 11, 72
1, 185205, Control_c, 7, 11, 69
1, 185220, Control_c, 7, 11, 67
1, 185263, Note_off_c, 1, 37, 571, 185276, Note_on_c, 0, 68, 911, 185279, Note_off_c, 6, 78, 801, 185279, Note_off_c, 6, 74, 661, 185280, Note_off_c, 7, 71, 1061, 185280, Note_off_c, 7, 59, 761, 185280, Control_c, 7, 11, 64
1, 185280, Note_on_c, 1, 38, 721, 185280, Note_on_c, 6, 85, 961, 185280, Note_on_c, 7, 69, 1061, 185280, Note_on_c, 7, 57, 761, 185297, Control_c, 7, 11, 66
1, 185312, Control_c, 7, 11, 70
1, 185328, Control_c, 7, 11, 76
1, 185343, Control_c, 7, 11, 83
1, 185358, Control_c, 7, 11, 93
1, 185374, Control_c, 7, 11, 103
1, 185389, Control_c, 7, 11, 114
1, 185400, Note_on_c, 6, 81, 791, 185404, Control_c, 7, 11, 125
1, 185419, Control_c, 7, 11, 127
1, 185519, Note_off_c, 6, 85, 961, 185520, Note_on_c, 6, 78, 881, 185600, Note_off_c, 0, 68, 911, 185639, Note_off_c, 6, 81, 791, 185640, Note_on_c, 6, 74, 751, 185698, Note_on_c, 0, 66, 891, 185759, Note_off_c, 6, 78, 881, 185759, Note_off_c, 6, 74, 751, 185760, Note_on_c, 6, 85, 1001, 185880, Note_on_c, 6, 81, 691, 185999, Note_off_c, 6, 85, 1001, 186000, Note_on_c, 6, 78, 841, 186047, Control_c, 7, 11, 124
1, 186064, Control_c, 7, 11, 118
1, 186078, Control_c, 7, 11, 111
1, 186093, Control_c, 7, 11, 104
1, 186108, Control_c, 7, 11, 96
1, 186119, Note_off_c, 6, 81, 691, 186120, Note_on_c, 6, 74, 711, 186123, Control_c, 7, 11, 88
1, 186128, Control_c, 6, 64, 0
1, 186138, Control_c, 7, 11, 80
1, 186154, Control_c, 7, 11, 72
1, 186169, Control_c, 7, 11, 67
1, 186185, Control_c, 7, 11, 63
1, 186200, Control_c, 7, 11, 61
1, 186239, Note_off_c, 6, 78, 841, 186239, Note_off_c, 6, 74, 711, 186240, Note_on_c, 6, 83, 821, 186240, Note_off_c, 7, 69, 1061, 186240, Note_off_c, 7, 57, 761, 186240, Note_on_c, 7, 71, 1151, 186240, Note_on_c, 7, 59, 851, 186246, Control_c, 7, 11, 64
1, 186261, Control_c, 7, 11, 68
1, 186264, Control_c, 6, 64, 127
1, 186275, Control_c, 7, 11, 73
1, 186291, Control_c, 7, 11, 78
1, 186307, Control_c, 7, 11, 85
1, 186322, Control_c, 7, 11, 91
1, 186337, Control_c, 7, 11, 98
1, 186352, Control_c, 7, 11, 106
1, 186360, Note_on_c, 6, 81, 961, 186368, Control_c, 7, 11, 115
1, 186383, Control_c, 7, 11, 125
1, 186398, Control_c, 7, 11, 127
1, 186479, Note_off_c, 6, 83, 821, 186480, Note_on_c, 6, 78, 801, 186599, Note_off_c, 6, 81, 961, 186600, Note_on_c, 6, 74, 481, 186633, Note_off_c, 0, 66, 891, 186719, Note_off_c, 6, 78, 801, 186719, Note_off_c, 6, 74, 481, 186720, Note_on_c, 6, 83, 771, 186754, Note_on_c, 0, 64, 941, 186839, Note_off_c, 6, 83, 771, 186840, Note_on_c, 6, 81, 921, 186959, Note_off_c, 0, 64, 941, 186959, Note_on_c, 0, 66, 971, 186960, Note_on_c, 6, 78, 801, 186988, Control_c, 7, 11, 125
1, 187002, Control_c, 7, 11, 120
1, 187017, Control_c, 7, 11, 113
1, 187032, Control_c, 7, 11, 106
1, 187048, Control_c, 7, 11, 98
1, 187063, Control_c, 7, 11, 90
1, 187078, Control_c, 7, 11, 83
1, 187079, Note_off_c, 6, 81, 921, 187080, Note_on_c, 6, 74, 691, 187093, Control_c, 7, 11, 76
1, 187109, Control_c, 7, 11, 72
1, 187125, Control_c, 7, 11, 69
1, 187128, Control_c, 6, 64, 0
1, 187140, Control_c, 7, 11, 67
1, 187175, Note_off_c, 0, 66, 971, 187190, Note_off_c, 1, 38, 721, 187199, Note_off_c, 6, 78, 801, 187199, Note_off_c, 6, 74, 691, 187200, Note_off_c, 7, 71, 1151, 187200, Note_off_c, 7, 59, 851, 187200, Control_c, 7, 11, 64
1, 187200, Note_on_c, 0, 68, 891, 187200, Note_on_c, 6, 85, 961, 187200, Note_on_c, 7, 73, 1061, 187200, Note_on_c, 7, 61, 761, 187201, Note_on_c, 1, 38, 891, 187216, Control_c, 6, 64, 127
1, 187217, Control_c, 7, 11, 66
1, 187232, Control_c, 7, 11, 70
1, 187248, Control_c, 7, 11, 76
1, 187263, Control_c, 7, 11, 83
1, 187278, Control_c, 7, 11, 93
1, 187294, Control_c, 7, 11, 103
1, 187309, Control_c, 7, 11, 114
1, 187320, Note_on_c, 6, 81, 881, 187324, Control_c, 7, 11, 125
1, 187339, Control_c, 7, 11, 127
1, 187439, Note_off_c, 6, 85, 961, 187440, Note_on_c, 6, 80, 841, 187461, Note_off_c, 0, 68, 891, 187470, Note_on_c, 0, 69, 711, 187559, Note_off_c, 6, 81, 881, 187559, Note_off_c, 6, 80, 841, 187560, Note_on_c, 6, 76, 841, 187679, Note_off_c, 6, 76, 841, 187680, Note_on_c, 6, 85, 881, 187800, Note_on_c, 6, 81, 701, 187848, Note_off_c, 0, 69, 711, 187886, Note_on_c, 0, 68, 811, 187919, Note_off_c, 6, 85, 881, 187920, Note_on_c, 6, 80, 821, 188039, Note_off_c, 6, 81, 701, 188040, Note_on_c, 6, 76, 821, 188155, Note_off_c, 1, 38, 891, 188158, Note_on_c, 1, 37, 681, 188159, Note_off_c, 6, 80, 821, 188159, Note_off_c, 6, 76, 821, 188160, Note_on_c, 6, 85, 921, 188280, Note_on_c, 6, 81, 761, 188399, Note_off_c, 6, 85, 921, 188400, Note_on_c, 6, 80, 801, 188507, Control_c, 7, 1, 2
1, 188507, Control_c, 7, 1, 2
1, 188519, Note_off_c, 6, 81, 761, 188519, Note_off_c, 6, 80, 801, 188520, Note_on_c, 6, 76, 801, 188556, Note_off_c, 1, 37, 681, 188606, Control_c, 7, 1, 7
1, 188606, Control_c, 7, 1, 7
1, 188639, Note_off_c, 6, 76, 801, 188640, Note_on_c, 6, 85, 961, 188704, Control_c, 7, 1, 12
1, 188704, Control_c, 7, 1, 12
1, 188760, Note_on_c, 6, 81, 751, 188773, Control_c, 7, 1, 17
1, 188773, Control_c, 7, 1, 17
1, 188879, Note_off_c, 6, 85, 961, 188880, Note_on_c, 6, 80, 761, 188916, Note_on_c, 1, 35, 611, 188940, Control_c, 7, 1, 22
1, 188940, Control_c, 7, 1, 22
1, 188999, Note_off_c, 6, 81, 751, 189000, Note_on_c, 6, 76, 841, 189039, Control_c, 7, 1, 29
1, 189039, Control_c, 7, 1, 29
1, 189119, Note_off_c, 6, 80, 761, 189119, Note_off_c, 6, 76, 841, 189120, Note_off_c, 1, 35, 611, 189120, Note_on_c, 6, 85, 1091, 189129, Note_on_c, 1, 33, 791, 189134, Control_c, 7, 11, 64
1, 189148, Control_c, 7, 11, 66
1, 189165, Control_c, 7, 11, 72
1, 189180, Control_c, 7, 11, 82
1, 189195, Control_c, 7, 11, 99
1, 189196, Control_c, 7, 1, 34
1, 189196, Control_c, 7, 1, 34
1, 189210, Control_c, 7, 11, 124
1, 189226, Control_c, 7, 11, 127
1, 189240, Note_on_c, 6, 81, 771, 189318, Control_c, 7, 11, 126
1, 189332, Control_c, 7, 11, 119
1, 189348, Control_c, 7, 11, 110
1, 189359, Note_off_c, 6, 85, 1091, 189360, Note_on_c, 6, 80, 761, 189363, Control_c, 7, 11, 101
1, 189378, Control_c, 7, 11, 92
1, 189393, Control_c, 7, 11, 85
1, 189409, Control_c, 7, 11, 80
1, 189425, Control_c, 7, 11, 78
1, 189454, Control_c, 7, 11, 83
1, 189469, Control_c, 7, 11, 99
1, 189479, Note_off_c, 6, 81, 771, 189479, Note_off_c, 6, 80, 761, 189480, Note_on_c, 6, 76, 771, 189485, Control_c, 7, 11, 127
1, 189495, Note_off_c, 0, 68, 811, 189599, Note_off_c, 6, 76, 771, 189600, Note_on_c, 6, 85, 881, 189608, Control_c, 7, 11, 122
1, 189622, Control_c, 7, 11, 113
1, 189637, Control_c, 7, 11, 104
1, 189653, Control_c, 7, 11, 95
1, 189668, Control_c, 7, 11, 88
1, 189668, Control_c, 7, 1, 39
1, 189668, Control_c, 7, 1, 39
1, 189684, Control_c, 7, 11, 83
1, 189699, Control_c, 7, 11, 81
1, 189714, Control_c, 7, 11, 84
1, 189720, Note_on_c, 6, 81, 721, 189729, Control_c, 7, 11, 95
1, 189744, Control_c, 7, 11, 124
1, 189759, Control_c, 7, 11, 127
1, 189796, Control_c, 7, 1, 34
1, 189796, Control_c, 7, 1, 34
1, 189834, Note_on_c, 0, 73, 871, 189834, Note_on_c, 0, 61, 771, 189839, Note_off_c, 6, 85, 881, 189840, Note_on_c, 6, 80, 841, 189946, Note_off_c, 0, 73, 871, 189946, Note_off_c, 0, 61, 771, 189959, Note_off_c, 6, 81, 721, 189959, Note_off_c, 6, 80, 841, 189960, Note_on_c, 6, 76, 821, 189966, Note_on_c, 0, 73, 911, 189966, Note_on_c, 0, 61, 811, 190076, Note_off_c, 0, 73, 911, 190076, Note_off_c, 0, 61, 811, 190079, Note_off_c, 6, 76, 821, 190080, Note_on_c, 6, 85, 1091, 190090, Note_on_c, 0, 76, 871, 190090, Note_on_c, 0, 64, 771, 190200, Note_on_c, 6, 81, 881, 190269, Control_c, 7, 1, 39
1, 190269, Control_c, 7, 1, 39
1, 190319, Note_off_c, 6, 85, 1091, 190320, Note_on_c, 6, 80, 881, 190439, Note_off_c, 6, 81, 881, 190440, Note_on_c, 6, 76, 801, 190446, Control_c, 7, 1, 46
1, 190446, Control_c, 7, 1, 46
1, 190531, Note_off_c, 1, 33, 791, 190534, Note_off_c, 0, 76, 871, 190534, Note_off_c, 0, 64, 771, 190550, Note_off_c, 7, 73, 1061, 190550, Note_off_c, 7, 61, 761, 190559, Note_off_c, 6, 80, 881, 190559, Note_off_c, 6, 76, 801, 190560, Note_on_c, 1, 33, 1031, 190560, Note_on_c, 6, 85, 1051, 190562, Note_on_c, 0, 78, 821, 190562, Note_on_c, 0, 66, 721, 190603, Control_c, 7, 1, 39
1, 190603, Control_c, 7, 1, 39
1, 190633, Control_c, 7, 1, 31
1, 190633, Control_c, 7, 1, 31
1, 190643, Control_c, 7, 1, 24
1, 190643, Control_c, 7, 1, 24
1, 190652, Control_c, 7, 1, 16
1, 190652, Control_c, 7, 1, 16
1, 190672, Control_c, 7, 1, 6
1, 190672, Control_c, 7, 1, 6
1, 190680, Note_on_c, 6, 81, 841, 190682, Control_c, 7, 1, 0
1, 190682, Control_c, 7, 1, 0
1, 190798, Note_off_c, 0, 78, 821, 190798, Note_off_c, 0, 66, 721, 190799, Note_off_c, 6, 85, 1051, 190800, Note_on_c, 6, 80, 841, 190802, Note_on_c, 0, 80, 811, 190802, Note_on_c, 0, 68, 711, 190806, Pitch_bend_c, 1, 7606
1, 190821, Pitch_bend_c, 1, 6202
1, 190836, Pitch_bend_c, 1, 4798
1, 190852, Pitch_bend_c, 1, 3511
1, 190868, Pitch_bend_c, 1, 2224
1, 190883, Pitch_bend_c, 1, 820
1, 190897, Pitch_bend_c, 1, 0
1, 190919, Note_off_c, 6, 81, 841, 190919, Note_off_c, 6, 80, 841, 190920, Note_on_c, 6, 76, 771, 190992, Control_c, 6, 64, 0
1, 191026, Note_off_c, 1, 33, 1031, 191031, Note_on_c, 1, 28, 741, 191039, Note_off_c, 6, 76, 771, 191040, Pitch_bend_c, 1, 8192
1, 191040, Program_c, 7, 28
1, 191040, Note_on_c, 6, 87, 1001, 191040, Note_on_c, 7, 71, 841, 191040, Note_on_c, 7, 64, 861, 191040, Note_on_c, 7, 68, 821, 191120, Note_off_c, 7, 71, 841, 191120, Note_off_c, 7, 64, 861, 191120, Note_off_c, 7, 68, 821, 191160, Note_on_c, 6, 83, 921, 191208, Control_c, 6, 64, 127
1, 191279, Note_off_c, 6, 87, 1001, 191280, Note_on_c, 6, 80, 881, 191280, Note_on_c, 7, 64, 861, 191280, Note_on_c, 7, 71, 851, 191280, Note_on_c, 7, 68, 881, 191358, Note_off_c, 7, 71, 851, 191361, Note_off_c, 7, 68, 881, 191362, Note_off_c, 7, 64, 861, 191399, Note_off_c, 6, 83, 921, 191400, Note_on_c, 6, 76, 801, 191519, Note_off_c, 6, 80, 881, 191519, Note_off_c, 6, 76, 801, 191520, Note_on_c, 6, 87, 1051, 191520, Note_on_c, 7, 64, 881, 191520, Note_on_c, 7, 68, 1021, 191521, Note_on_c, 7, 71, 941, 191599, Note_off_c, 7, 71, 941, 191599, Note_off_c, 7, 64, 881, 191600, Note_off_c, 7, 68, 1021, 191640, Note_on_c, 6, 83, 631, 191759, Note_off_c, 6, 87, 1051, 191760, Note_on_c, 6, 80, 921, 191761, Note_on_c, 7, 71, 901, 191761, Note_on_c, 7, 64, 881, 191761, Note_on_c, 7, 68, 931, 191836, Note_off_c, 7, 68, 931, 191844, Note_off_c, 7, 71, 901, 191845, Note_off_c, 7, 64, 881, 191879, Note_off_c, 6, 83, 631, 191880, Note_on_c, 6, 76, 881, 191999, Note_off_c, 6, 80, 921, 191999, Note_off_c, 6, 76, 881, 192000, Note_on_c, 6, 87, 1091, 192002, Note_on_c, 7, 71, 981, 192002, Note_on_c, 7, 64, 931, 192002, Note_on_c, 7, 68, 1021, 192080, Note_off_c, 7, 68, 1021, 192083, Note_off_c, 7, 64, 931, 192086, Note_off_c, 7, 71, 981, 192120, Note_on_c, 6, 83, 801, 192239, Note_off_c, 6, 87, 1091, 192242, Note_on_c, 7, 71, 991, 192242, Note_on_c, 7, 64, 921, 192242, Note_on_c, 7, 68, 991, 192312, Note_off_c, 7, 68, 991, 192323, Note_off_c, 7, 64, 921, 192329, Note_off_c, 7, 71, 991, 192359, Note_off_c, 6, 83, 801, 192360, Note_on_c, 6, 80, 961, 192479, Note_off_c, 6, 80, 961, 192480, Note_on_c, 6, 87, 1001, 192480, Note_on_c, 6, 76, 841, 192482, Note_on_c, 7, 71, 991, 192482, Note_on_c, 7, 64, 931, 192482, Note_on_c, 7, 68, 1011, 192550, Note_off_c, 7, 68, 1011, 192551, Note_off_c, 7, 71, 991, 192551, Note_off_c, 7, 64, 931, 192599, Note_off_c, 6, 76, 841, 192600, Note_on_c, 6, 83, 821, 192677, Note_off_c, 1, 28, 741, 192719, Note_off_c, 6, 87, 1001, 192720, Note_on_c, 6, 80, 881, 192722, Note_on_c, 1, 28, 631, 192722, Note_on_c, 7, 64, 1011, 192722, Note_on_c, 7, 71, 1011, 192722, Note_on_c, 7, 68, 1051, 192781, Note_off_c, 7, 68, 1051, 192795, Note_off_c, 7, 71, 1011, 192798, Note_off_c, 7, 64, 1011, 192839, Note_off_c, 6, 83, 821, 192840, Note_on_c, 6, 76, 821, 192936, Control_c, 6, 64, 0
1, 192958, Note_off_c, 1, 28, 631, 192959, Note_off_c, 6, 80, 881, 192959, Note_off_c, 6, 76, 821, 192960, Note_off_c, 0, 80, 811, 192960, Note_off_c, 0, 68, 711, 192960, Note_on_c, 6, 87, 1091, 192960, Note_on_c, 9, 36, 621, 192960, Note_on_c, 9, 51, 351, 192961, Note_on_c, 7, 70, 1091, 192961, Note_on_c, 7, 68, 1131, 192961, Note_on_c, 7, 64, 931, 192962, Note_on_c, 1, 40, 781, 193012, Note_off_c, 7, 64, 931, 193034, Note_off_c, 7, 70, 1091, 193034, Note_off_c, 7, 68, 1131, 193040, Control_c, 6, 64, 127
1, 193079, Note_off_c, 9, 36, 621, 193079, Note_off_c, 9, 51, 351, 193080, Note_on_c, 6, 82, 1051, 193199, Note_off_c, 6, 87, 1091, 193200, Note_on_c, 6, 80, 961, 193200, Note_on_c, 7, 70, 971, 193200, Note_on_c, 7, 68, 1021, 193200, Note_on_c, 7, 64, 931, 193200, Note_on_c, 9, 51, 461, 193200, Note_on_c, 9, 36, 551, 193271, Note_off_c, 7, 64, 931, 193277, Note_off_c, 7, 68, 1021, 193281, Note_off_c, 7, 70, 971, 193319, Note_off_c, 6, 82, 1051, 193319, Note_off_c, 9, 51, 461, 193319, Note_off_c, 9, 36, 551, 193320, Note_on_c, 6, 76, 801, 193439, Note_off_c, 6, 80, 961, 193439, Note_off_c, 6, 76, 801, 193440, Note_on_c, 6, 87, 1051, 193440, Note_on_c, 7, 64, 971, 193440, Note_on_c, 7, 70, 1051, 193440, Note_on_c, 7, 68, 1111, 193440, Note_on_c, 9, 36, 561, 193440, Note_on_c, 9, 51, 511, 193514, Note_off_c, 7, 68, 1111, 193515, Note_off_c, 7, 64, 971, 193516, Note_off_c, 7, 70, 1051, 193559, Note_off_c, 9, 36, 561, 193559, Note_off_c, 9, 51, 511, 193560, Note_on_c, 6, 82, 821, 193679, Note_off_c, 6, 87, 1051, 193679, Note_on_c, 7, 70, 1041, 193679, Note_on_c, 7, 68, 1091, 193679, Note_on_c, 7, 64, 1001, 193680, Note_on_c, 6, 80, 921, 193680, Note_on_c, 9, 36, 761, 193680, Note_on_c, 9, 51, 621, 193752, Note_off_c, 7, 64, 1001, 193755, Note_off_c, 7, 70, 1041, 193755, Note_off_c, 7, 68, 1091, 193799, Note_off_c, 6, 82, 821, 193799, Note_off_c, 6, 80, 921, 193799, Note_off_c, 9, 36, 761, 193799, Note_off_c, 9, 51, 621, 193800, Note_on_c, 6, 76, 841, 193919, Note_off_c, 6, 76, 841, 193920, Note_on_c, 6, 87, 1131, 193920, Note_on_c, 7, 68, 1191, 193920, Note_on_c, 7, 64, 1061, 193920, Note_on_c, 7, 70, 1171, 193920, Note_on_c, 9, 36, 851, 193920, Note_on_c, 9, 51, 801, 193991, Note_off_c, 7, 64, 1061, 193994, Note_off_c, 7, 70, 1171, 193996, Note_off_c, 7, 68, 1191, 194039, Note_off_c, 9, 36, 851, 194039, Note_off_c, 9, 51, 801, 194040, Note_on_c, 6, 82, 961, 194159, Note_off_c, 6, 87, 1131, 194160, Note_on_c, 6, 80, 921, 194160, Note_on_c, 7, 68, 1191, 194160, Note_on_c, 7, 70, 1111, 194160, Note_on_c, 7, 64, 1071, 194160, Note_on_c, 9, 36, 981, 194160, Note_on_c, 9, 51, 891, 194235, Note_off_c, 7, 64, 1071, 194239, Note_off_c, 7, 70, 1111, 194244, Note_off_c, 7, 68, 1191, 194279, Note_off_c, 6, 82, 961, 194279, Note_off_c, 9, 36, 981, 194279, Note_off_c, 9, 51, 891, 194280, Note_on_c, 6, 76, 921, 194399, Note_off_c, 6, 80, 921, 194399, Note_off_c, 6, 76, 921, 194400, Note_on_c, 6, 87, 1131, 194400, Note_on_c, 7, 68, 1241, 194400, Note_on_c, 9, 36, 1071, 194400, Note_on_c, 9, 51, 1021, 194401, Note_on_c, 7, 70, 1191, 194401, Note_on_c, 7, 64, 1081, 194471, Note_off_c, 7, 64, 1081, 194477, Note_off_c, 7, 70, 1191, 194480, Note_off_c, 7, 68, 1241, 194519, Note_off_c, 9, 36, 1071, 194519, Note_off_c, 9, 51, 1021, 194520, Note_on_c, 6, 82, 961, 194639, Note_off_c, 6, 87, 1131, 194640, Note_on_c, 6, 80, 921, 194640, Note_on_c, 7, 70, 1171, 194640, Note_on_c, 7, 68, 1211, 194640, Note_on_c, 7, 64, 1081, 194640, Note_on_c, 9, 51, 1191, 194640, Note_on_c, 9, 36, 1131, 194711, Note_off_c, 7, 64, 1081, 194724, Note_off_c, 7, 68, 1211, 194725, Note_off_c, 7, 70, 1171, 194759, Note_off_c, 6, 82, 961, 194759, Note_off_c, 6, 80, 921, 194759, Note_off_c, 9, 51, 1191, 194759, Note_off_c, 9, 36, 1131, 194760, Note_on_c, 6, 76, 921, 194832, Control_c, 6, 64, 0
1, 194846, Note_off_c, 1, 40, 781, 194879, Note_off_c, 6, 76, 921, 194880, Note_on_c, 1, 27, 1191, 194880, Note_on_c, 2, 51, 931, 194880, Note_on_c, 2, 58, 1021, 194880, Note_on_c, 2, 55, 1021, 194880, Note_on_c, 2, 63, 981, 194880, Note_on_c, 6, 82, 1071, 194880, Note_on_c, 6, 87, 931, 194880, Note_on_c, 9, 36, 1131, 194880, Note_on_c, 9, 49, 1131, 194880, Note_on_c, 9, 57, 1071, 194880, Note_on_c, 9, 52, 1071, 194889, Note_on_c, 0, 70, 1101, 194905, Control_c, 1, 64, 127
1, 194928, Control_c, 6, 64, 127
1, 194999, Note_off_c, 6, 82, 1071, 194999, Note_off_c, 6, 87, 931, 194999, Note_off_c, 9, 49, 1131, 194999, Note_off_c, 9, 57, 1071, 194999, Note_off_c, 9, 52, 1071, 195000, Note_on_c, 6, 80, 851, 195119, Note_off_c, 6, 80, 851, 195120, Note_on_c, 6, 79, 851, 195211, Note_on_c, 9, 81, 951, 195239, Note_off_c, 6, 79, 851, 195240, Note_on_c, 6, 80, 721, 195288, Note_off_c, 9, 81, 951, 195321, Note_off_c, 0, 70, 1101, 195359, Note_off_c, 6, 80, 721, 195360, Note_on_c, 0, 70, 1101, 195360, Note_on_c, 6, 79, 851, 195360, Note_on_c, 9, 51, 761, 195423, Note_on_c, 9, 81, 1051, 195479, Note_off_c, 6, 79, 851, 195479, Note_off_c, 9, 51, 761, 195480, Note_on_c, 6, 80, 851, 195509, Note_off_c, 0, 70, 1101, 195511, Note_off_c, 9, 81, 1051, 195584, Note_on_c, 9, 81, 1101, 195599, Note_off_c, 6, 80, 851, 195600, Note_on_c, 6, 79, 851, 195612, Note_on_c, 0, 70, 1041, 195614, Control_c, 2, 64, 127
1, 195633, Note_off_c, 9, 81, 1101, 195671, Note_on_c, 9, 81, 1121, 195719, Note_off_c, 6, 79, 851, 195720, Note_on_c, 6, 80, 761, 195735, Note_off_c, 9, 81, 1121, 195768, Note_off_c, 0, 70, 1041, 195783, Note_on_c, 9, 81, 951, 195824, Note_off_c, 9, 81, 951, 195839, Note_off_c, 6, 80, 761, 195840, Note_on_c, 6, 87, 851, 195840, Note_on_c, 6, 82, 1021, 195840, Note_on_c, 9, 51, 681, 195857, Note_on_c, 0, 70, 1131, 195858, Note_on_c, 9, 81, 1201, 195923, Note_off_c, 2, 63, 981, 195933, Note_off_c, 2, 58, 1021, 195933, Note_off_c, 2, 55, 1021, 195934, Note_off_c, 9, 81, 1201, 195953, Note_off_c, 2, 51, 931, 195959, Note_off_c, 6, 87, 851, 195959, Note_off_c, 6, 82, 1021, 195959, Note_off_c, 9, 51, 681, 195960, Note_on_c, 6, 80, 891, 195966, Note_on_c, 9, 81, 1141, 196012, Note_off_c, 9, 81, 1141, 196053, Note_on_c, 9, 81, 1111, 196076, Note_off_c, 0, 70, 1131, 196079, Note_off_c, 6, 80, 891, 196080, Note_on_c, 6, 79, 891, 196119, Note_off_c, 9, 81, 1111, 196157, Note_on_c, 9, 81, 1201, 196199, Note_off_c, 6, 79, 891, 196200, Note_on_c, 6, 80, 721, 196205, Note_on_c, 0, 70, 991, 196213, Note_off_c, 9, 81, 1201, 196246, Note_on_c, 9, 81, 1141, 196302, Note_off_c, 9, 81, 1141, 196319, Note_off_c, 6, 80, 721, 196320, Note_on_c, 6, 79, 891, 196320, Note_on_c, 9, 51, 721, 196333, Note_on_c, 9, 81, 1241, 196404, Note_off_c, 9, 81, 1241, 196427, Note_on_c, 9, 81, 1271, 196439, Note_off_c, 6, 79, 891, 196439, Note_off_c, 9, 51, 721, 196440, Note_on_c, 6, 80, 761, 196460, Note_off_c, 0, 70, 991, 196495, Note_off_c, 9, 81, 1271, 196545, Note_on_c, 9, 81, 1001, 196559, Note_off_c, 6, 80, 761, 196560, Note_on_c, 6, 79, 891, 196584, Note_on_c, 0, 70, 1101, 196588, Note_off_c, 9, 81, 1001, 196620, Note_on_c, 9, 81, 1271, 196679, Note_off_c, 6, 79, 891, 196680, Note_on_c, 6, 80, 851, 196680, Note_off_c, 9, 81, 1271, 196709, Note_on_c, 9, 81, 1271, 196732, Control_c, 6, 64, 0
1, 196777, Note_off_c, 9, 81, 1271, 196780, Control_c, 6, 64, 127
1, 196799, Note_off_c, 6, 80, 851, 196800, Note_off_c, 0, 70, 1101, 196800, Note_on_c, 0, 70, 1101, 196800, Note_on_c, 6, 82, 1071, 196800, Note_on_c, 6, 87, 891, 196800, Note_on_c, 9, 51, 891, 196805, Note_on_c, 9, 81, 1271, 196864, Note_off_c, 9, 81, 1271, 196909, Note_on_c, 9, 81, 1071, 196919, Note_off_c, 6, 82, 1071, 196919, Note_off_c, 6, 87, 891, 196919, Note_off_c, 9, 51, 891, 196920, Note_on_c, 6, 80, 761, 196958, Note_off_c, 9, 81, 1071, 196988, Note_on_c, 9, 81, 1271, 197004, Note_off_c, 0, 70, 1101, 197039, Note_off_c, 6, 80, 761, 197040, Note_on_c, 6, 79, 891, 197048, Note_off_c, 9, 81, 1271, 197051, Note_on_c, 0, 75, 1061, 197091, Note_on_c, 9, 81, 1121, 197159, Note_off_c, 6, 79, 891, 197159, Note_off_c, 9, 81, 1121, 197160, Note_on_c, 6, 80, 761, 197193, Note_on_c, 9, 81, 1271, 197245, Note_off_c, 9, 81, 1271, 197250, Note_off_c, 0, 75, 1061, 197279, Note_off_c, 6, 80, 761, 197280, Note_on_c, 6, 79, 931, 197280, Note_on_c, 9, 51, 851, 197295, Note_on_c, 0, 75, 1061, 197298, Note_on_c, 9, 81, 1001, 197341, Note_off_c, 9, 81, 1001, 197373, Note_on_c, 9, 81, 1271, 197399, Note_off_c, 6, 79, 931, 197399, Note_off_c, 9, 51, 851, 197400, Note_on_c, 6, 80, 801, 197429, Note_off_c, 9, 81, 1271, 197476, Note_on_c, 9, 81, 1001, 197483, Note_off_c, 0, 75, 1061, 197509, Note_on_c, 0, 75, 1071, 197519, Note_off_c, 6, 80, 801, 197520, Note_on_c, 6, 79, 851, 197528, Note_off_c, 9, 81, 1001, 197574, Note_on_c, 9, 81, 1181, 197616, Note_off_c, 9, 81, 1181, 197639, Note_off_c, 6, 79, 851, 197640, Note_on_c, 6, 80, 801, 197663, Note_on_c, 9, 81, 1141, 197696, Note_off_c, 1, 27, 1191, 197724, Note_off_c, 9, 81, 1141, 197759, Note_off_c, 6, 80, 801, 197760, Note_on_c, 6, 87, 931, 197760, Note_on_c, 6, 82, 1021, 197760, Note_on_c, 9, 51, 891, 197761, Note_on_c, 9, 81, 1221, 197808, Note_off_c, 9, 81, 1221, 197879, Note_off_c, 6, 87, 931, 197879, Note_off_c, 6, 82, 1021, 197879, Note_off_c, 9, 51, 891, 197880, Note_on_c, 6, 80, 801, 197884, Note_on_c, 9, 81, 821, 197916, Note_off_c, 9, 81, 821, 197951, Note_on_c, 9, 81, 1241, 197999, Note_off_c, 6, 80, 801, 198000, Note_on_c, 6, 79, 891, 198013, Note_off_c, 9, 81, 1241, 198049, Note_on_c, 9, 81, 1181, 198116, Note_off_c, 9, 81, 1181, 198119, Note_off_c, 6, 79, 891, 198120, Note_on_c, 6, 80, 851, 198144, Note_on_c, 9, 81, 1271, 198163, Note_off_c, 0, 75, 1071, 198211, Note_off_c, 9, 81, 1271, 198239, Note_off_c, 6, 80, 851, 198240, Note_on_c, 6, 79, 931, 198240, Note_on_c, 9, 51, 1021, 198256, Note_on_c, 9, 81, 1141, 198315, Note_off_c, 9, 81, 1141, 198342, Note_on_c, 9, 81, 1271, 198359, Note_off_c, 6, 79, 931, 198359, Note_off_c, 9, 36, 1131, 198359, Note_off_c, 9, 51, 1021, 198360, Note_on_c, 6, 80, 891, 198395, Note_off_c, 9, 81, 1271, 198427, Note_on_c, 9, 81, 1271, 198479, Note_off_c, 6, 80, 891, 198480, Note_on_c, 6, 79, 891, 198507, Note_off_c, 9, 81, 1271, 198543, Note_on_c, 9, 81, 1181, 198586, Note_off_c, 9, 81, 1181, 198599, Note_off_c, 6, 79, 891, 198600, Note_on_c, 6, 80, 931, 198633, Control_c, 6, 64, 0
1, 198644, Note_on_c, 9, 81, 1051, 198683, Note_off_c, 9, 81, 1051, 198684, Control_c, 2, 64, 0
1, 198719, Note_off_c, 6, 80, 931, 198720, Note_on_c, 1, 34, 1041, 198720, Note_on_c, 2, 51, 1131, 198720, Note_on_c, 2, 58, 1021, 198720, Note_on_c, 2, 63, 981, 198720, Note_on_c, 2, 56, 1071, 198720, Note_on_c, 6, 87, 981, 198720, Note_on_c, 6, 85, 1071, 198720, Note_on_c, 9, 36, 891, 198720, Note_on_c, 9, 49, 1131, 198720, Note_on_c, 9, 57, 1131, 198723, Control_c, 1, 64, 0
1, 198728, Note_on_c, 0, 73, 1061, 198731, Note_on_c, 9, 81, 1171, 198778, Note_off_c, 9, 81, 1171, 198787, Control_c, 6, 64, 127
1, 198839, Note_off_c, 6, 87, 981, 198839, Note_off_c, 6, 85, 1071, 198839, Note_off_c, 9, 49, 1131, 198839, Note_off_c, 9, 57, 1131, 198840, Note_on_c, 6, 82, 1021, 198846, Note_on_c, 9, 81, 941, 198882, Note_off_c, 9, 81, 941, 198914, Note_on_c, 9, 81, 1271, 198959, Note_off_c, 6, 82, 1021, 198960, Note_on_c, 6, 80, 891, 198976, Note_off_c, 9, 81, 1271, 199016, Note_on_c, 9, 81, 1201, 199079, Note_off_c, 6, 80, 891, 199080, Note_on_c, 6, 82, 851, 199084, Note_off_c, 9, 81, 1201, 199111, Note_on_c, 9, 81, 1271, 199126, Note_off_c, 0, 73, 1061, 199137, Control_c, 1, 64, 127
1, 199176, Note_off_c, 9, 81, 1271, 199199, Note_off_c, 6, 82, 851, 199200, Note_on_c, 6, 80, 891, 199200, Note_on_c, 9, 51, 891, 199202, Note_on_c, 0, 73, 1001, 199218, Note_on_c, 9, 81, 1181, 199283, Note_off_c, 9, 81, 1181, 199312, Note_on_c, 9, 81, 1241, 199319, Note_off_c, 6, 80, 891, 199319, Note_off_c, 9, 51, 891, 199320, Note_on_c, 6, 82, 931, 199379, Note_off_c, 9, 81, 1241, 199411, Note_on_c, 9, 81, 1081, 199422, Note_off_c, 0, 73, 1001, 199439, Note_off_c, 6, 82, 931, 199440, Note_on_c, 6, 80, 891, 199468, Note_off_c, 9, 81, 1081, 199480, Note_on_c, 0, 73, 951, 199502, Note_on_c, 9, 81, 1221, 199548, Note_off_c, 9, 81, 1221, 199559, Note_off_c, 6, 80, 891, 199560, Note_on_c, 6, 82, 891, 199608, Note_on_c, 9, 81, 1031, 199658, Note_off_c, 9, 81, 1031, 199659, Note_off_c, 0, 73, 951, 199679, Note_off_c, 6, 82, 891, 199680, Note_on_c, 6, 85, 1071, 199680, Note_on_c, 6, 87, 1021, 199680, Note_on_c, 9, 51, 761, 199684, Note_on_c, 0, 73, 871, 199696, Note_on_c, 9, 81, 1221, 199758, Note_off_c, 9, 81, 1221, 199799, Note_off_c, 6, 85, 1071, 199799, Note_off_c, 6, 87, 1021, 199799, Note_off_c, 9, 51, 761, 199800, Note_on_c, 6, 82, 851, 199801, Note_on_c, 9, 81, 1151, 199868, Note_off_c, 9, 81, 1151, 199892, Note_on_c, 9, 81, 1271, 199919, Note_off_c, 6, 82, 851, 199920, Note_on_c, 6, 80, 851, 199956, Note_off_c, 9, 81, 1271, 199979, Pitch_bend_c, 0, 7255
1, 199987, Note_on_c, 9, 81, 1271, 199993, Pitch_bend_c, 0, 6085
1, 200008, Pitch_bend_c, 0, 4915
1, 200024, Pitch_bend_c, 0, 3628
1, 200039, Pitch_bend_c, 0, 2575
1, 200039, Note_off_c, 6, 80, 851, 200040, Note_on_c, 6, 82, 851, 200054, Pitch_bend_c, 0, 1639
1, 200068, Note_off_c, 9, 81, 1271, 200069, Pitch_bend_c, 0, 586
1, 200085, Pitch_bend_c, 0, 1
1, 200096, Note_off_c, 0, 73, 871, 200097, Note_on_c, 9, 81, 1121, 200101, Pitch_bend_c, 0, 0
1, 200146, Pitch_bend_c, 0, 1
1, 200159, Note_off_c, 6, 82, 851, 200160, Note_on_c, 6, 80, 891, 200160, Note_on_c, 9, 51, 801, 200161, Pitch_bend_c, 0, 1522
1, 200172, Note_off_c, 9, 81, 1121, 200176, Pitch_bend_c, 0, 3628
1, 200191, Pitch_bend_c, 0, 6436
1, 200204, Note_on_c, 9, 81, 1111, 200208, Pitch_bend_c, 0, 8192
1, 200270, Note_off_c, 9, 81, 1111, 200279, Note_off_c, 6, 80, 891, 200279, Note_off_c, 9, 51, 801, 200280, Note_on_c, 6, 82, 721, 200292, Note_on_c, 0, 73, 1081, 200299, Note_on_c, 9, 81, 1151, 200358, Note_off_c, 9, 81, 1151, 200394, Note_on_c, 9, 81, 1081, 200399, Note_off_c, 6, 82, 721, 200400, Note_on_c, 6, 80, 891, 200445, Control_c, 2, 64, 127
1, 200454, Note_off_c, 0, 73, 1081, 200464, Note_off_c, 9, 81, 1081, 200481, Note_on_c, 0, 71, 751, 200493, Note_on_c, 9, 81, 1241, 200519, Note_off_c, 6, 80, 891, 200520, Note_on_c, 6, 82, 851, 200568, Note_off_c, 9, 81, 1241, 200623, Note_off_c, 0, 71, 751, 200639, Note_off_c, 6, 82, 851, 200640, Note_on_c, 6, 85, 931, 200640, Note_on_c, 6, 87, 931, 200640, Note_on_c, 9, 51, 891, 200651, Note_on_c, 0, 73, 891, 200651, Note_on_c, 9, 81, 1171, 200672, Control_c, 1, 64, 0
1, 200698, Note_off_c, 9, 81, 1171, 200759, Note_off_c, 6, 85, 931, 200759, Note_off_c, 6, 87, 931, 200759, Note_off_c, 9, 51, 891, 200760, Note_on_c, 6, 82, 761, 200766, Note_on_c, 9, 81, 941, 200802, Note_off_c, 9, 81, 941, 200834, Note_on_c, 9, 81, 1271, 200858, Note_off_c, 0, 73, 891, 200865, Note_off_c, 2, 56, 1071, 200866, Note_off_c, 2, 63, 981, 200875, Note_on_c, 0, 71, 981, 200879, Note_off_c, 6, 82, 761, 200880, Note_on_c, 6, 80, 891, 200885, Note_off_c, 2, 58, 1021, 200896, Note_off_c, 9, 81, 1271, 200934, Note_off_c, 2, 51, 1131, 200936, Note_on_c, 9, 81, 1201, 200999, Note_off_c, 6, 80, 891, 201000, Note_on_c, 6, 82, 891, 201004, Note_off_c, 9, 81, 1201, 201031, Note_on_c, 9, 81, 1271, 201088, Note_off_c, 0, 71, 981, 201096, Note_off_c, 9, 81, 1271, 201106, Note_on_c, 0, 73, 991, 201119, Note_off_c, 6, 82, 891, 201120, Note_on_c, 6, 80, 851, 201120, Note_on_c, 9, 51, 891, 201124, Control_c, 1, 64, 127
1, 201138, Note_on_c, 9, 81, 1181, 201203, Note_off_c, 9, 81, 1181, 201232, Note_on_c, 9, 81, 1241, 201239, Note_off_c, 6, 80, 851, 201239, Note_off_c, 9, 51, 891, 201240, Note_on_c, 6, 82, 721, 201248, Note_off_c, 0, 73, 991, 201252, Note_on_c, 0, 71, 801, 201299, Note_off_c, 9, 81, 1241, 201331, Note_on_c, 9, 81, 1081, 201359, Note_off_c, 6, 82, 721, 201360, Note_on_c, 6, 80, 891, 201388, Note_off_c, 9, 81, 1081, 201394, Note_off_c, 0, 71, 801, 201415, Note_on_c, 0, 73, 781, 201422, Note_on_c, 9, 81, 1221, 201468, Note_off_c, 9, 81, 1221, 201479, Note_off_c, 6, 80, 891, 201480, Note_on_c, 6, 82, 891, 201528, Note_on_c, 9, 81, 1031, 201578, Note_off_c, 9, 81, 1031, 201599, Note_off_c, 6, 82, 891, 201600, Note_on_c, 6, 85, 1021, 201600, Note_on_c, 6, 87, 931, 201600, Note_on_c, 9, 51, 1021, 201616, Note_on_c, 9, 81, 1221, 201669, Pitch_bend_c, 0, 6904
1, 201678, Note_off_c, 9, 81, 1221, 201685, Pitch_bend_c, 0, 4447
1, 201700, Pitch_bend_c, 0, 2926
1, 201715, Pitch_bend_c, 0, 1522
1, 201719, Note_off_c, 6, 85, 1021, 201719, Note_off_c, 6, 87, 931, 201719, Note_off_c, 9, 51, 1021, 201720, Note_off_c, 0, 73, 781, 201720, Note_on_c, 6, 82, 891, 201721, Note_on_c, 9, 81, 1151, 201730, Pitch_bend_c, 0, 703
1, 201761, Pitch_bend_c, 0, 1171
1, 201777, Pitch_bend_c, 0, 2458
1, 201788, Note_off_c, 9, 81, 1151, 201791, Pitch_bend_c, 0, 4564
1, 201807, Pitch_bend_c, 0, 6904
1, 201812, Note_on_c, 9, 81, 1271, 201822, Pitch_bend_c, 0, 8192
1, 201839, Pitch_bend_c, 0, 7957
1, 201839, Note_off_c, 6, 82, 891, 201839, Note_off_c, 9, 36, 891, 201840, Note_on_c, 6, 80, 891, 201842, Pitch_bend_c, 0, 7840
1, 201852, Pitch_bend_c, 0, 7021
1, 201855, Pitch_bend_c, 0, 7021
1, 201868, Pitch_bend_c, 0, 5734
1, 201870, Pitch_bend_c, 0, 5968
1, 201876, Note_off_c, 9, 81, 1271, 201884, Pitch_bend_c, 0, 4447
1, 201887, Pitch_bend_c, 0, 5032
1, 201902, Pitch_bend_c, 0, 3862
1, 201907, Note_on_c, 9, 81, 1271, 201917, Pitch_bend_c, 0, 2809
1, 201919, Pitch_bend_c, 0, 3628
1, 201919, Pitch_bend_c, 0, 3160
1, 201932, Pitch_bend_c, 0, 1990
1, 201945, Pitch_bend_c, 0, 3394
1, 201947, Pitch_bend_c, 0, 1522
1, 201959, Pitch_bend_c, 0, 4213
1, 201959, Note_off_c, 6, 80, 891, 201960, Note_on_c, 6, 82, 891, 201969, Note_off_c, 1, 34, 1041, 201974, Pitch_bend_c, 0, 5149
1, 201977, Pitch_bend_c, 0, 1990
1, 201988, Note_off_c, 9, 81, 1271, 201989, Pitch_bend_c, 0, 6085
1, 201992, Pitch_bend_c, 0, 2809
1, 202006, Pitch_bend_c, 0, 7021
1, 202008, Pitch_bend_c, 0, 3745
1, 202017, Note_on_c, 9, 81, 1121, 202021, Pitch_bend_c, 0, 7840
1, 202024, Pitch_bend_c, 0, 4564
1, 202036, Pitch_bend_c, 0, 8192
1, 202039, Pitch_bend_c, 0, 5266
1, 202054, Pitch_bend_c, 0, 6436
1, 202069, Pitch_bend_c, 0, 8192
1, 202078, Note_on_c, 0, 75, 1131, 202078, Note_on_c, 0, 70, 1131, 202079, Note_off_c, 6, 82, 891, 202080, Note_on_c, 6, 80, 891, 202080, Note_on_c, 9, 38, 1271, 202092, Note_off_c, 9, 81, 1121, 202110, Note_on_c, 9, 38, 1271, 202124, Note_on_c, 9, 81, 1111, 202190, Note_off_c, 9, 81, 1111, 202199, Note_off_c, 6, 80, 891, 202199, Note_off_c, 9, 38, 1271, 202200, Note_on_c, 6, 82, 851, 202219, Note_on_c, 9, 81, 1151, 202229, Note_off_c, 9, 38, 1271, 202278, Note_off_c, 9, 81, 1151, 202283, Note_off_c, 0, 75, 1131, 202283, Note_off_c, 0, 70, 1131, 202314, Note_on_c, 9, 81, 1081, 202315, Note_on_c, 0, 75, 941, 202315, Note_on_c, 0, 70, 941, 202319, Note_off_c, 6, 82, 851, 202320, Note_on_c, 6, 80, 891, 202384, Note_off_c, 9, 81, 1081, 202413, Note_on_c, 9, 81, 1241, 202433, Control_c, 2, 64, 0
1, 202439, Note_off_c, 6, 80, 891, 202440, Note_on_c, 6, 82, 891, 202488, Note_off_c, 9, 81, 1241, 202492, Control_c, 1, 64, 0
1, 202523, Note_off_c, 0, 75, 941, 202523, Note_off_c, 0, 70, 941, 202559, Note_off_c, 6, 82, 891, 202560, Control_c, 2, 76, 127
1, 202560, Note_on_c, 1, 34, 1001, 202560, Note_on_c, 2, 62, 1071, 202560, Note_on_c, 2, 53, 1071, 202560, Note_on_c, 2, 46, 1071, 202560, Note_on_c, 6, 86, 981, 202560, Note_on_c, 6, 82, 981, 202560, Note_on_c, 9, 36, 1131, 202560, Note_on_c, 9, 49, 1071, 202560, Note_on_c, 9, 57, 1131, 202560, Note_on_c, 9, 51, 1131, 202561, Note_on_c, 0, 70, 1191, 202563, Note_on_c, 3, 62, 1131, 202564, Note_on_c, 0, 77, 1101, 202587, Control_c, 6, 64, 127
1, 202659, Note_off_c, 6, 82, 981, 202679, Note_off_c, 9, 49, 1071, 202679, Note_off_c, 9, 57, 1131, 202679, Note_off_c, 9, 51, 1131, 202680, Note_on_c, 6, 77, 851, 202718, Note_off_c, 6, 86, 981, 202799, Note_off_c, 2, 62, 1071, 202799, Note_off_c, 2, 53, 1071, 202799, Note_off_c, 2, 46, 1071, 202800, Note_on_c, 6, 82, 681, 202879, Note_off_c, 6, 82, 681, 202886, Note_off_c, 6, 77, 851, 202920, Note_on_c, 6, 84, 981, 202920, Note_on_c, 6, 82, 851, 203030, Note_off_c, 3, 62, 1131, 203039, Note_off_c, 9, 36, 1131, 203040, Note_on_c, 2, 62, 801, 203040, Note_on_c, 2, 53, 601, 203040, Note_on_c, 2, 46, 501, 203040, Note_on_c, 9, 51, 721, 203044, Note_on_c, 3, 60, 1041, 203159, Note_off_c, 2, 62, 801, 203159, Note_off_c, 2, 53, 601, 203159, Note_off_c, 2, 46, 501, 203159, Note_off_c, 9, 51, 721, 203160, Note_on_c, 3, 62, 871, 203160, Note_on_c, 6, 77, 891, 203160, Note_on_c, 9, 36, 441, 203196, Note_off_c, 6, 82, 851, 203225, Note_off_c, 6, 84, 981, 203232, Note_off_c, 1, 34, 1001, 203258, Note_off_c, 6, 77, 891, 203278, Note_off_c, 3, 62, 871, 203279, Note_off_c, 9, 36, 441, 203280, Note_on_c, 1, 34, 911, 203280, Note_on_c, 2, 62, 761, 203280, Note_on_c, 2, 53, 621, 203280, Note_on_c, 2, 46, 511, 203280, Note_on_c, 6, 82, 641, 203280, Note_on_c, 9, 36, 681, 203280, Note_on_c, 9, 51, 551, 203358, Note_off_c, 6, 82, 641, 203381, Note_off_c, 1, 34, 911, 203399, Note_off_c, 2, 62, 761, 203399, Note_off_c, 2, 53, 621, 203399, Note_off_c, 2, 46, 511, 203399, Note_off_c, 9, 36, 681, 203399, Note_off_c, 9, 51, 551, 203400, Note_on_c, 3, 62, 971, 203400, Note_on_c, 6, 77, 891, 203402, Note_on_c, 1, 34, 881, 203499, Note_off_c, 3, 60, 1041, 203508, Note_off_c, 6, 77, 891, 203512, Note_off_c, 1, 34, 881, 203518, Note_off_c, 3, 62, 971, 203520, Note_on_c, 1, 34, 891, 203520, Note_on_c, 2, 62, 801, 203520, Note_on_c, 2, 53, 571, 203520, Note_on_c, 2, 46, 501, 203520, Note_on_c, 6, 86, 981, 203520, Note_on_c, 6, 82, 1131, 203520, Note_on_c, 9, 51, 531, 203520, Note_on_c, 9, 36, 591, 203523, Note_on_c, 3, 58, 1161, 203618, Note_off_c, 6, 82, 1131, 203639, Note_off_c, 2, 62, 801, 203639, Note_off_c, 2, 53, 571, 203639, Note_off_c, 2, 46, 501, 203639, Note_off_c, 9, 51, 531, 203639, Note_off_c, 9, 36, 591, 203640, Note_on_c, 3, 62, 951, 203640, Note_on_c, 6, 77, 891, 203658, Note_off_c, 6, 86, 981, 203724, Note_off_c, 1, 34, 891, 203758, Note_off_c, 3, 62, 951, 203758, Note_off_c, 6, 77, 891, 203760, Note_on_c, 1, 34, 871, 203760, Note_on_c, 2, 62, 761, 203760, Note_on_c, 2, 53, 571, 203760, Note_on_c, 2, 46, 481, 203760, Note_on_c, 6, 82, 851, 203760, Note_on_c, 9, 51, 561, 203760, Note_on_c, 9, 36, 601, 203848, Note_off_c, 6, 82, 851, 203879, Note_off_c, 2, 62, 761, 203879, Note_off_c, 2, 53, 571, 203879, Note_off_c, 2, 46, 481, 203879, Note_off_c, 9, 51, 561, 203879, Note_off_c, 9, 36, 601, 203880, Note_on_c, 3, 62, 811, 203880, Note_on_c, 6, 84, 1021, 203880, Note_on_c, 6, 82, 801, 203992, Note_off_c, 3, 58, 1161, 203998, Note_off_c, 3, 62, 811, 204000, Note_on_c, 2, 62, 721, 204000, Note_on_c, 2, 53, 681, 204000, Note_on_c, 2, 46, 551, 204000, Note_on_c, 9, 51, 601, 204000, Note_on_c, 9, 36, 721, 204007, Note_on_c, 3, 60, 1071, 204097, Note_off_c, 6, 82, 801, 204119, Note_off_c, 2, 62, 721, 204119, Note_off_c, 2, 53, 681, 204119, Note_off_c, 2, 46, 551, 204119, Note_off_c, 9, 51, 601, 204119, Note_off_c, 9, 36, 721, 204120, Note_on_c, 3, 62, 731, 204120, Note_on_c, 6, 77, 891, 204195, Note_off_c, 6, 84, 1021, 204203, Note_off_c, 1, 34, 871, 204219, Note_off_c, 6, 77, 891, 204238, Note_off_c, 3, 62, 731, 204240, Note_on_c, 1, 34, 851, 204240, Note_on_c, 2, 62, 641, 204240, Note_on_c, 2, 53, 621, 204240, Note_on_c, 2, 46, 501, 204240, Note_on_c, 6, 82, 761, 204240, Note_on_c, 9, 36, 681, 204240, Note_on_c, 9, 51, 681, 204328, Note_off_c, 6, 82, 761, 204346, Note_off_c, 1, 34, 851, 204359, Note_off_c, 2, 62, 641, 204359, Note_off_c, 2, 53, 621, 204359, Note_off_c, 2, 46, 501, 204359, Note_off_c, 9, 36, 681, 204359, Note_off_c, 9, 51, 681, 204360, Note_on_c, 1, 34, 891, 204360, Note_on_c, 3, 62, 681, 204360, Note_on_c, 6, 77, 931, 204449, Note_off_c, 6, 77, 931, 204476, Note_off_c, 3, 60, 1071, 204478, Note_off_c, 1, 34, 891, 204478, Note_off_c, 3, 62, 681, 204480, Note_on_c, 1, 34, 931, 204480, Note_on_c, 2, 62, 761, 204480, Note_on_c, 2, 53, 621, 204480, Note_on_c, 2, 46, 511, 204480, Note_on_c, 6, 86, 1071, 204480, Note_on_c, 6, 82, 1131, 204480, Note_on_c, 9, 36, 681, 204480, Note_on_c, 9, 51, 761, 204491, Note_on_c, 3, 58, 1071, 204578, Note_off_c, 6, 82, 1131, 204599, Note_off_c, 2, 62, 761, 204599, Note_off_c, 2, 53, 621, 204599, Note_off_c, 2, 46, 511, 204599, Note_off_c, 9, 36, 681, 204599, Note_off_c, 9, 51, 761, 204600, Note_on_c, 3, 62, 771, 204600, Note_on_c, 6, 77, 981, 204647, Note_off_c, 6, 86, 1071, 204693, Note_off_c, 1, 34, 931, 204718, Note_off_c, 3, 62, 771, 204720, Note_on_c, 1, 34, 851, 204720, Note_on_c, 2, 62, 721, 204720, Note_on_c, 2, 53, 641, 204720, Note_on_c, 2, 46, 551, 204720, Note_on_c, 6, 82, 931, 204720, Note_on_c, 9, 36, 801, 204720, Note_on_c, 9, 51, 681, 204728, Note_off_c, 6, 77, 981, 204798, Note_off_c, 6, 82, 931, 204839, Note_off_c, 2, 62, 721, 204839, Note_off_c, 2, 53, 641, 204839, Note_off_c, 2, 46, 551, 204839, Note_off_c, 9, 36, 801, 204839, Note_off_c, 9, 51, 681, 204840, Note_on_c, 3, 62, 671, 204840, Note_on_c, 6, 84, 1071, 204840, Note_on_c, 6, 82, 851, 204945, Note_off_c, 3, 58, 1071, 204958, Note_off_c, 3, 62, 671, 204959, Note_on_c, 3, 60, 991, 204960, Note_on_c, 2, 62, 761, 204960, Note_on_c, 2, 53, 721, 204960, Note_on_c, 2, 46, 641, 204960, Note_on_c, 9, 36, 801, 204960, Note_on_c, 9, 51, 681, 205079, Note_off_c, 2, 62, 761, 205079, Note_off_c, 2, 53, 721, 205079, Note_off_c, 2, 46, 641, 205079, Note_off_c, 9, 36, 801, 205079, Note_off_c, 9, 51, 681, 205080, Note_on_c, 3, 62, 701, 205080, Note_on_c, 6, 77, 931, 205095, Note_off_c, 6, 82, 851, 205125, Note_off_c, 6, 84, 1071, 205168, Note_off_c, 6, 77, 931, 205187, Note_off_c, 1, 34, 851, 205198, Note_off_c, 3, 62, 701, 205200, Note_on_c, 1, 34, 851, 205200, Note_on_c, 2, 62, 801, 205200, Note_on_c, 2, 53, 851, 205200, Note_on_c, 2, 46, 681, 205200, Note_on_c, 6, 82, 721, 205200, Note_on_c, 9, 51, 801, 205200, Note_on_c, 9, 36, 851, 205278, Note_off_c, 6, 82, 721, 205311, Note_off_c, 1, 34, 851, 205319, Note_off_c, 2, 62, 801, 205319, Note_off_c, 2, 53, 851, 205319, Note_off_c, 2, 46, 681, 205319, Note_off_c, 9, 51, 801, 205319, Note_off_c, 9, 36, 851, 205320, Note_on_c, 3, 62, 741, 205320, Note_on_c, 6, 77, 931, 205326, Note_on_c, 1, 34, 981, 205423, Note_off_c, 3, 60, 991, 205427, Note_off_c, 1, 34, 981, 205438, Note_off_c, 3, 62, 741, 205438, Note_off_c, 6, 77, 931, 205440, Note_on_c, 1, 34, 921, 205440, Note_on_c, 2, 62, 931, 205440, Note_on_c, 2, 53, 761, 205440, Note_on_c, 2, 46, 721, 205440, Note_on_c, 6, 86, 1021, 205440, Note_on_c, 6, 82, 1131, 205440, Note_on_c, 9, 36, 851, 205440, Note_on_c, 9, 51, 891, 205444, Note_on_c, 3, 58, 1071, 205538, Note_off_c, 6, 82, 1131, 205559, Note_off_c, 2, 62, 931, 205559, Note_off_c, 2, 53, 761, 205559, Note_off_c, 2, 46, 721, 205559, Note_off_c, 9, 36, 851, 205559, Note_off_c, 9, 51, 891, 205560, Note_on_c, 3, 62, 671, 205560, Note_on_c, 6, 77, 891, 205567, Note_off_c, 6, 86, 1021, 205663, Note_off_c, 1, 34, 921, 205678, Note_off_c, 3, 62, 671, 205680, Note_on_c, 1, 34, 881, 205680, Note_on_c, 2, 62, 851, 205680, Note_on_c, 2, 53, 761, 205680, Note_on_c, 2, 46, 721, 205680, Note_on_c, 6, 82, 1021, 205680, Note_on_c, 9, 36, 891, 205680, Note_on_c, 9, 51, 851, 205688, Note_off_c, 6, 77, 891, 205769, Note_off_c, 6, 82, 1021, 205799, Note_off_c, 2, 62, 851, 205799, Note_off_c, 2, 53, 761, 205799, Note_off_c, 2, 46, 721, 205799, Note_off_c, 9, 36, 891, 205799, Note_off_c, 9, 51, 851, 205800, Note_on_c, 3, 62, 701, 205800, Note_on_c, 6, 82, 931, 205800, Note_on_c, 6, 84, 1021, 205836, Note_off_c, 0, 77, 1101, 205857, Note_off_c, 0, 70, 1191, 205917, Note_off_c, 3, 58, 1071, 205918, Note_off_c, 3, 62, 701, 205920, Note_on_c, 2, 62, 851, 205920, Note_on_c, 2, 53, 801, 205920, Note_on_c, 2, 46, 721, 205920, Note_on_c, 9, 36, 981, 205920, Note_on_c, 9, 51, 931, 205924, Note_on_c, 3, 60, 1071, 205958, Note_on_c, 0, 77, 1021, 205961, Note_on_c, 0, 70, 1071, 205987, Note_off_c, 6, 82, 931, 205987, Note_off_c, 6, 84, 1021, 206039, Note_off_c, 2, 62, 851, 206039, Note_off_c, 2, 53, 801, 206039, Note_off_c, 2, 46, 721, 206039, Note_off_c, 9, 36, 981, 206039, Note_off_c, 9, 51, 931, 206040, Note_on_c, 3, 62, 781, 206040, Note_on_c, 6, 77, 891, 206137, Note_off_c, 1, 34, 881, 206148, Note_off_c, 6, 77, 891, 206158, Note_off_c, 3, 62, 781, 206160, Note_on_c, 1, 34, 981, 206160, Note_on_c, 2, 62, 931, 206160, Note_on_c, 2, 53, 801, 206160, Note_on_c, 2, 46, 761, 206160, Note_on_c, 6, 82, 891, 206160, Note_on_c, 9, 36, 1071, 206160, Note_on_c, 9, 51, 931, 206258, Note_off_c, 6, 82, 891, 206261, Note_off_c, 1, 34, 981, 206272, Note_on_c, 1, 34, 1021, 206279, Note_off_c, 2, 62, 931, 206279, Note_off_c, 2, 53, 801, 206279, Note_off_c, 2, 46, 761, 206279, Note_off_c, 9, 36, 1071, 206279, Note_off_c, 9, 51, 931, 206280, Note_on_c, 3, 62, 811, 206280, Note_on_c, 6, 77, 981, 206355, Control_c, 6, 64, 0
1, 206356, Note_off_c, 0, 70, 1071, 206365, Control_c, 2, 76, 0
1, 206368, Note_off_c, 0, 77, 1021, 206379, Note_off_c, 6, 77, 981, 206384, Note_off_c, 3, 60, 1071, 206388, Note_off_c, 1, 34, 1021, 206398, Note_off_c, 3, 62, 811, 206400, Note_on_c, 1, 35, 1021, 206400, Note_on_c, 2, 64, 1191, 206400, Note_on_c, 2, 47, 1131, 206400, Note_on_c, 2, 57, 1131, 206400, Note_on_c, 2, 54, 981, 206400, Note_on_c, 6, 83, 1131, 206400, Note_on_c, 6, 78, 1131, 206400, Note_on_c, 9, 49, 1131, 206400, Note_on_c, 9, 51, 1071, 206400, Note_on_c, 9, 56, 891, 206400, Note_on_c, 9, 57, 1191, 206400, Note_on_c, 9, 36, 1071, 206404, Note_on_c, 0, 71, 1101, 206404, Note_on_c, 0, 76, 1021, 206404, Note_on_c, 3, 61, 1101, 206464, Control_c, 6, 64, 127
1, 206518, Note_off_c, 6, 78, 1131, 206519, Note_off_c, 9, 49, 1131, 206519, Note_off_c, 9, 51, 1071, 206519, Note_off_c, 9, 56, 891, 206519, Note_off_c, 9, 57, 1191, 206519, Note_off_c, 9, 36, 1071, 206520, Note_on_c, 6, 76, 981, 206587, Note_off_c, 6, 83, 1131, 206591, Control_c, 2, 76, 127
1, 206599, Note_off_c, 6, 76, 981, 206623, Note_off_c, 1, 35, 1021, 206640, Note_on_c, 1, 35, 931, 206640, Note_on_c, 6, 78, 981, 206640, Note_on_c, 9, 36, 851, 206640, Note_on_c, 9, 51, 761, 206729, Control_c, 6, 64, 0
1, 206729, Note_off_c, 6, 78, 981, 206755, Note_off_c, 1, 35, 931, 206759, Note_off_c, 2, 64, 1191, 206759, Note_off_c, 2, 47, 1131, 206759, Note_off_c, 2, 57, 1131, 206759, Note_off_c, 2, 54, 981, 206759, Note_off_c, 9, 36, 851, 206759, Note_off_c, 9, 51, 761, 206760, Note_on_c, 6, 81, 1191, 206760, Note_on_c, 6, 78, 1071, 206763, Note_on_c, 1, 35, 931, 206777, Note_off_c, 3, 61, 1101, 206798, Control_c, 6, 64, 127
1, 206863, Note_off_c, 1, 35, 931, 206880, Note_on_c, 1, 35, 971, 206880, Note_on_c, 2, 64, 721, 206880, Note_on_c, 2, 57, 641, 206880, Note_on_c, 2, 54, 641, 206880, Note_on_c, 2, 47, 621, 206880, Note_on_c, 9, 51, 891, 206880, Note_on_c, 9, 36, 891, 206887, Note_on_c, 3, 61, 941, 206987, Note_off_c, 6, 78, 1071, 206999, Note_off_c, 2, 64, 721, 206999, Note_off_c, 2, 57, 641, 206999, Note_off_c, 2, 54, 641, 206999, Note_off_c, 2, 47, 621, 206999, Note_off_c, 9, 51, 891, 206999, Note_off_c, 9, 36, 891, 207000, Note_on_c, 6, 76, 1021, 207036, Note_off_c, 6, 81, 1191, 207108, Note_off_c, 6, 76, 1021, 207112, Note_off_c, 1, 35, 971, 207120, Note_on_c, 2, 64, 641, 207120, Note_on_c, 2, 47, 591, 207120, Note_on_c, 2, 57, 501, 207120, Note_on_c, 2, 54, 721, 207120, Note_on_c, 6, 78, 851, 207120, Note_on_c, 9, 36, 891, 207120, Note_on_c, 9, 51, 801, 207121, Note_on_c, 1, 35, 921, 207208, Note_off_c, 6, 78, 851, 207239, Note_off_c, 2, 64, 641, 207239, Note_off_c, 2, 47, 591, 207239, Note_off_c, 2, 57, 501, 207239, Note_off_c, 2, 54, 721, 207239, Note_off_c, 9, 36, 891, 207239, Note_off_c, 9, 51, 801, 207240, Note_on_c, 6, 76, 1021, 207257, Note_off_c, 3, 61, 941, 207339, Note_off_c, 6, 76, 1021, 207360, Note_on_c, 2, 64, 681, 207360, Note_on_c, 2, 47, 681, 207360, Note_on_c, 2, 57, 601, 207360, Note_on_c, 2, 54, 761, 207360, Note_on_c, 6, 83, 1071, 207360, Note_on_c, 6, 78, 1071, 207360, Note_on_c, 9, 36, 891, 207360, Note_on_c, 9, 51, 891, 207365, Note_on_c, 3, 61, 951, 207458, Note_off_c, 6, 78, 1071, 207478, Note_off_c, 6, 83, 1071, 207479, Note_off_c, 2, 64, 681, 207479, Note_off_c, 2, 47, 681, 207479, Note_off_c, 2, 57, 601, 207479, Note_off_c, 2, 54, 761, 207479, Note_off_c, 9, 36, 891, 207479, Note_off_c, 9, 51, 891, 207480, Note_on_c, 6, 76, 931, 207568, Note_off_c, 6, 76, 931, 207583, Note_off_c, 1, 35, 921, 207600, Note_on_c, 1, 35, 931, 207600, Note_on_c, 2, 64, 851, 207600, Note_on_c, 2, 54, 801, 207600, Note_on_c, 2, 57, 721, 207600, Note_on_c, 2, 47, 761, 207600, Note_on_c, 6, 78, 981, 207600, Note_on_c, 9, 36, 931, 207600, Note_on_c, 9, 51, 801, 207679, Note_off_c, 6, 78, 981, 207719, Note_off_c, 2, 64, 851, 207719, Note_off_c, 2, 54, 801, 207719, Note_off_c, 2, 57, 721, 207719, Note_off_c, 2, 47, 761, 207719, Note_off_c, 9, 36, 931, 207719, Note_off_c, 9, 51, 801, 207720, Note_on_c, 6, 81, 1021, 207720, Note_on_c, 6, 78, 851, 207736, Note_off_c, 3, 61, 951, 207837, Note_off_c, 1, 35, 931, 207840, Note_on_c, 1, 47, 891, 207840, Note_on_c, 2, 64, 891, 207840, Note_on_c, 2, 47, 761, 207840, Note_on_c, 2, 57, 761, 207840, Note_on_c, 2, 54, 761, 207840, Note_on_c, 9, 36, 981, 207840, Note_on_c, 9, 51, 891, 207845, Note_on_c, 3, 61, 971, 207936, Note_off_c, 6, 78, 851, 207959, Note_off_c, 2, 64, 891, 207959, Note_off_c, 2, 47, 761, 207959, Note_off_c, 2, 57, 761, 207959, Note_off_c, 2, 54, 761, 207959, Note_off_c, 9, 36, 981, 207959, Note_off_c, 9, 51, 891, 207960, Note_on_c, 6, 76, 1021, 208005, Note_off_c, 6, 81, 1021, 208073, Note_off_c, 1, 47, 891, 208078, Note_off_c, 6, 76, 1021, 208080, Note_on_c, 1, 35, 1011, 208080, Note_on_c, 2, 64, 801, 208080, Note_on_c, 2, 57, 801, 208080, Note_on_c, 2, 54, 761, 208080, Note_on_c, 2, 47, 621, 208080, Note_on_c, 6, 78, 801, 208080, Note_on_c, 9, 36, 931, 208080, Note_on_c, 9, 51, 891, 208188, Note_off_c, 6, 78, 801, 208199, Note_off_c, 2, 54, 761, 208199, Note_off_c, 2, 47, 621, 208199, Note_off_c, 9, 36, 931, 208199, Note_off_c, 9, 51, 891, 208200, Note_on_c, 6, 76, 981, 208223, Note_off_c, 3, 61, 971, 208312, Note_off_c, 1, 35, 1011, 208312, Note_on_c, 3, 61, 1081, 208318, Note_off_c, 6, 76, 981, 208319, Note_off_c, 2, 64, 801, 208319, Note_off_c, 2, 57, 801, 208320, Note_on_c, 1, 35, 1021, 208320, Note_on_c, 2, 64, 891, 208320, Note_on_c, 2, 54, 851, 208320, Note_on_c, 2, 57, 641, 208320, Note_on_c, 2, 47, 721, 208320, Note_on_c, 6, 78, 1071, 208320, Note_on_c, 6, 83, 931, 208320, Note_on_c, 9, 51, 981, 208320, Note_on_c, 9, 36, 981, 208428, Note_off_c, 6, 83, 931, 208429, Note_off_c, 6, 78, 1071, 208439, Note_off_c, 2, 64, 891, 208439, Note_off_c, 2, 54, 851, 208439, Note_off_c, 2, 57, 641, 208439, Note_off_c, 2, 47, 721, 208439, Note_off_c, 9, 51, 981, 208439, Note_off_c, 9, 36, 981, 208440, Note_on_c, 6, 76, 931, 208548, Note_off_c, 1, 35, 1021, 208558, Note_off_c, 6, 76, 931, 208560, Note_on_c, 1, 35, 931, 208560, Note_on_c, 2, 64, 801, 208560, Note_on_c, 2, 54, 761, 208560, Note_on_c, 2, 57, 801, 208560, Note_on_c, 2, 47, 721, 208560, Note_on_c, 6, 78, 891, 208560, Note_on_c, 9, 38, 1131, 208591, Note_off_c, 3, 61, 1081, 208639, Note_off_c, 6, 78, 891, 208679, Note_off_c, 2, 64, 801, 208679, Note_off_c, 2, 54, 761, 208679, Note_off_c, 2, 57, 801, 208679, Note_off_c, 2, 47, 721, 208679, Note_on_c, 3, 61, 1081, 208679, Note_off_c, 9, 38, 1131, 208680, Note_off_c, 1, 35, 931, 208680, Note_on_c, 6, 81, 1071, 208680, Note_on_c, 6, 78, 981, 208680, Note_on_c, 9, 38, 1191, 208688, Note_on_c, 1, 35, 891, 208784, Note_off_c, 1, 35, 891, 208799, Note_off_c, 9, 38, 1191, 208800, Note_on_c, 1, 47, 911, 208800, Note_on_c, 2, 64, 851, 208800, Note_on_c, 2, 54, 761, 208800, Note_on_c, 2, 57, 851, 208800, Note_on_c, 2, 47, 681, 208919, Note_off_c, 2, 64, 851, 208919, Note_off_c, 2, 54, 761, 208919, Note_off_c, 2, 57, 851, 208919, Note_off_c, 2, 47, 681, 208920, Note_on_c, 6, 76, 1071, 208920, Note_on_c, 9, 38, 931, 208928, Note_off_c, 3, 61, 1081, 208956, Note_off_c, 6, 78, 981, 208976, Note_off_c, 6, 81, 1071, 209025, Note_off_c, 1, 47, 911, 209028, Note_off_c, 6, 76, 1071, 209039, Note_on_c, 3, 61, 1001, 209039, Note_off_c, 9, 38, 931, 209040, Note_on_c, 1, 35, 921, 209040, Note_on_c, 2, 64, 851, 209040, Note_on_c, 2, 54, 761, 209040, Note_on_c, 2, 57, 801, 209040, Note_on_c, 2, 47, 721, 209040, Note_on_c, 6, 78, 721, 209040, Note_on_c, 9, 47, 1271, 209109, Note_off_c, 6, 78, 721, 209159, Note_off_c, 2, 64, 851, 209159, Note_off_c, 2, 54, 761, 209159, Note_off_c, 2, 57, 801, 209159, Note_off_c, 2, 47, 721, 209159, Note_off_c, 9, 47, 1271, 209160, Note_on_c, 6, 76, 1021, 209258, Note_off_c, 1, 35, 921, 209259, Note_off_c, 6, 76, 1021, 209280, Note_on_c, 1, 47, 1001, 209280, Note_on_c, 2, 64, 931, 209280, Note_on_c, 2, 54, 801, 209280, Note_on_c, 2, 57, 891, 209280, Note_on_c, 2, 47, 931, 209280, Note_on_c, 6, 83, 1071, 209280, Note_on_c, 6, 78, 1021, 209280, Note_on_c, 9, 45, 1021, 209280, Note_on_c, 9, 47, 931, 209369, Note_off_c, 6, 78, 1021, 209398, Note_off_c, 1, 47, 1001, 209399, Note_off_c, 2, 64, 931, 209399, Note_off_c, 2, 54, 801, 209399, Note_off_c, 2, 57, 891, 209399, Note_off_c, 2, 47, 931, 209399, Note_off_c, 9, 45, 1021, 209399, Note_off_c, 9, 47, 931, 209400, Note_on_c, 1, 35, 981, 209400, Note_on_c, 6, 76, 981, 209408, Note_off_c, 6, 83, 1071, 209508, Note_off_c, 6, 76, 981, 209520, Note_on_c, 2, 64, 761, 209520, Note_on_c, 2, 54, 761, 209520, Note_on_c, 2, 47, 891, 209520, Note_on_c, 2, 57, 891, 209520, Note_on_c, 6, 78, 981, 209520, Note_on_c, 9, 45, 1131, 209558, Note_off_c, 3, 61, 1001, 209599, Note_off_c, 6, 78, 981, 209612, Note_off_c, 0, 71, 1101, 209612, Note_off_c, 0, 76, 1021, 209623, Note_off_c, 1, 35, 981, 209639, Note_off_c, 2, 64, 761, 209639, Note_off_c, 2, 54, 761, 209639, Note_off_c, 2, 47, 891, 209639, Note_off_c, 2, 57, 891, 209639, Note_off_c, 9, 45, 1131, 209640, Note_on_c, 1, 47, 891, 209640, Note_on_c, 6, 78, 931, 209640, Note_on_c, 6, 81, 1071, 209750, Note_off_c, 1, 47, 891, 209760, Note_on_c, 1, 35, 1021, 209760, Note_on_c, 2, 64, 851, 209760, Note_on_c, 2, 54, 851, 209760, Note_on_c, 2, 57, 931, 209760, Note_on_c, 2, 47, 931, 209760, Note_on_c, 9, 44, 1071, 209760, Note_on_c, 9, 43, 1131, 209766, Note_on_c, 3, 61, 1101, 209772, Note_on_c, 0, 76, 1251, 209846, Note_off_c, 6, 81, 1071, 209866, Note_off_c, 6, 78, 931, 209878, Note_off_c, 9, 44, 1071, 209879, Note_off_c, 2, 64, 851, 209879, Note_off_c, 2, 54, 851, 209879, Note_off_c, 2, 57, 931, 209879, Note_off_c, 2, 47, 931, 209879, Note_off_c, 9, 43, 1131, 209880, Note_on_c, 6, 76, 1021, 209880, Note_on_c, 9, 44, 1101, 209880, Note_on_c, 9, 41, 981, 209998, Note_off_c, 9, 44, 1101, 209999, Note_off_c, 9, 41, 981, 210000, Note_on_c, 2, 64, 931, 210000, Note_on_c, 2, 54, 851, 210000, Note_on_c, 2, 57, 931, 210000, Note_on_c, 2, 47, 851, 210000, Note_on_c, 6, 78, 981, 210000, Note_on_c, 6, 81, 931, 210000, Note_on_c, 9, 46, 1041, 210000, Note_on_c, 9, 41, 1271, 210008, Note_off_c, 6, 76, 1021, 210075, Control_c, 2, 76, 0
1, 210079, Note_off_c, 6, 81, 931, 210087, Note_off_c, 3, 61, 1101, 210099, Note_off_c, 6, 78, 981, 210118, Note_off_c, 9, 46, 1041, 210119, Note_off_c, 2, 64, 931, 210119, Note_off_c, 2, 54, 851, 210119, Note_off_c, 2, 57, 931, 210119, Note_off_c, 2, 47, 851, 210119, Note_off_c, 9, 41, 1271, 210120, Note_on_c, 6, 76, 981, 210124, Control_c, 6, 64, 0
1, 210150, Pitch_bend_c, 1, 8660
1, 210166, Pitch_bend_c, 1, 10532
1, 210181, Pitch_bend_c, 1, 11936
1, 210194, Note_off_c, 0, 76, 1251, 210196, Pitch_bend_c, 1, 13340
1, 210199, Note_off_c, 6, 76, 981, 210211, Pitch_bend_c, 1, 15329
1, 210227, Pitch_bend_c, 1, 16383
1, 210227, Note_off_c, 1, 35, 1021, 210240, Pitch_bend_c, 1, 8192
1, 210240, Note_on_c, 1, 37, 891, 210240, Note_on_c, 2, 49, 891, 210240, Note_on_c, 3, 71, 761, 210240, Note_on_c, 6, 83, 1071, 210240, Note_on_c, 6, 78, 1071, 210240, Note_on_c, 9, 44, 951, 210240, Note_on_c, 9, 36, 1191, 210240, Note_on_c, 9, 49, 1271, 210243, Note_on_c, 0, 80, 1271, 210358, Note_off_c, 3, 71, 761, 210358, Note_off_c, 9, 44, 951, 210359, Note_off_c, 6, 83, 1071, 210359, Note_off_c, 6, 78, 1071, 210359, Note_off_c, 9, 49, 1271, 210360, Note_on_c, 6, 76, 891, 210361, Note_on_c, 3, 64, 811, 210479, Note_off_c, 3, 64, 811, 210479, Note_on_c, 3, 66, 871, 210479, Note_off_c, 6, 76, 891, 210480, Note_on_c, 1, 33, 891, 210480, Note_on_c, 2, 45, 891, 210480, Note_on_c, 6, 78, 851, 210480, Note_on_c, 6, 83, 761, 210480, Note_on_c, 9, 51, 1071, 210540, Note_off_c, 1, 37, 891, 210540, Note_off_c, 2, 49, 891, 210598, Note_off_c, 3, 66, 871, 210599, Note_off_c, 6, 78, 851, 210599, Note_off_c, 6, 83, 761, 210599, Note_off_c, 9, 36, 1191, 210599, Note_off_c, 9, 51, 1071, 210600, Note_on_c, 3, 64, 771, 210600, Note_on_c, 6, 76, 981, 210679, Note_off_c, 0, 80, 1271, 210719, Note_off_c, 6, 76, 981, 210720, Note_on_c, 1, 28, 851, 210720, Note_on_c, 2, 40, 851, 210720, Note_on_c, 6, 78, 931, 210720, Note_on_c, 6, 83, 1021, 210720, Note_on_c, 9, 54, 931, 210720, Note_on_c, 9, 38, 1071, 210720, Note_on_c, 9, 51, 1131, 210725, Note_on_c, 0, 81, 1141, 210730, Note_off_c, 1, 33, 891, 210730, Note_off_c, 2, 45, 891, 210838, Note_off_c, 3, 64, 771, 210838, Note_off_c, 9, 54, 931, 210839, Note_off_c, 6, 78, 931, 210839, Note_off_c, 6, 83, 1021, 210839, Note_off_c, 9, 38, 1071, 210839, Note_off_c, 9, 51, 1131, 210841, Note_on_c, 3, 64, 951, 210920, Note_off_c, 1, 28, 851, 210920, Note_off_c, 2, 40, 851, 210959, Note_off_c, 0, 81, 1141, 210959, Note_off_c, 3, 64, 951, 210960, Note_on_c, 1, 40, 1131, 210960, Note_on_c, 2, 52, 1131, 210960, Note_on_c, 3, 66, 891, 210960, Note_on_c, 6, 83, 1071, 210960, Note_on_c, 6, 78, 1021, 210960, Note_on_c, 9, 36, 1021, 210960, Note_on_c, 9, 51, 1131, 210966, Note_on_c, 0, 80, 1161, 211078, Note_off_c, 3, 66, 891, 211079, Note_off_c, 6, 83, 1071, 211079, Note_off_c, 6, 78, 1021, 211079, Note_off_c, 9, 51, 1131, 211080, Note_on_c, 3, 71, 791, 211080, Note_on_c, 3, 64, 791, 211080, Note_on_c, 6, 76, 891, 211198, Note_off_c, 3, 71, 791, 211199, Note_off_c, 6, 76, 891, 211200, Note_on_c, 6, 78, 851, 211200, Note_on_c, 6, 83, 851, 211200, Note_on_c, 9, 51, 981, 211220, Note_off_c, 1, 40, 1131, 211220, Note_off_c, 2, 52, 1131, 211270, Note_off_c, 0, 80, 1161, 211318, Note_off_c, 3, 64, 791, 211319, Note_off_c, 6, 78, 851, 211319, Note_off_c, 6, 83, 851, 211319, Note_off_c, 9, 36, 1021, 211319, Note_off_c, 9, 51, 981, 211320, Note_on_c, 6, 76, 981, 211321, Note_on_c, 3, 64, 921, 211438, Note_off_c, 3, 64, 921, 211438, Note_on_c, 3, 66, 851, 211439, Note_off_c, 6, 76, 981, 211440, Note_on_c, 1, 28, 851, 211440, Note_on_c, 2, 40, 851, 211440, Note_on_c, 6, 78, 1021, 211440, Note_on_c, 6, 83, 1021, 211440, Note_on_c, 9, 36, 981, 211440, Note_on_c, 9, 51, 1071, 211469, Note_on_c, 0, 76, 1121, 211556, Note_off_c, 3, 66, 851, 211559, Note_off_c, 6, 78, 1021, 211559, Note_off_c, 6, 83, 1021, 211559, Note_off_c, 9, 36, 981, 211559, Note_off_c, 9, 51, 1071, 211560, Note_on_c, 3, 64, 651, 211620, Note_off_c, 1, 28, 851, 211620, Note_off_c, 2, 40, 851, 211680, Note_on_c, 1, 28, 1071, 211680, Note_on_c, 2, 40, 1071, 211680, Note_on_c, 6, 83, 1131, 211680, Note_on_c, 6, 78, 1021, 211680, Note_on_c, 9, 54, 911, 211680, Note_on_c, 9, 38, 1191, 211680, Note_on_c, 9, 51, 1071, 211798, Note_off_c, 3, 64, 651, 211798, Note_off_c, 9, 54, 911, 211799, Note_off_c, 9, 51, 1071, 211800, Note_on_c, 3, 64, 941, 211910, Note_off_c, 1, 28, 1071, 211910, Note_off_c, 2, 40, 1071, 211918, Note_off_c, 3, 64, 941, 211918, Note_on_c, 3, 66, 811, 211919, Note_off_c, 6, 83, 1131, 211919, Note_off_c, 6, 78, 1021, 211920, Note_on_c, 6, 76, 931, 211920, Note_on_c, 9, 51, 1021, 212036, Note_off_c, 3, 66, 811, 212039, Note_off_c, 9, 38, 1191, 212039, Note_off_c, 9, 51, 1021, 212040, Note_on_c, 3, 64, 611, 212159, Note_off_c, 6, 76, 931, 212160, Note_on_c, 1, 37, 891, 212160, Note_on_c, 2, 49, 891, 212160, Note_on_c, 3, 71, 811, 212160, Note_on_c, 6, 78, 981, 212160, Note_on_c, 6, 83, 931, 212160, Note_on_c, 9, 51, 1021, 212160, Note_on_c, 9, 36, 1071, 212278, Note_off_c, 3, 71, 811, 212278, Note_off_c, 3, 64, 611, 212279, Note_off_c, 6, 78, 981, 212279, Note_off_c, 6, 83, 931, 212279, Note_off_c, 9, 51, 1021, 212279, Note_off_c, 9, 36, 1071, 212280, Note_on_c, 3, 64, 841, 212280, Note_on_c, 6, 76, 891, 212370, Note_off_c, 1, 37, 891, 212370, Note_off_c, 2, 49, 891, 212398, Note_on_c, 3, 66, 791, 212399, Note_off_c, 3, 64, 841, 212399, Note_off_c, 6, 76, 891, 212400, Note_on_c, 1, 33, 931, 212400, Note_on_c, 2, 45, 931, 212400, Note_on_c, 6, 78, 761, 212400, Note_on_c, 6, 83, 761, 212400, Note_on_c, 9, 36, 801, 212400, Note_on_c, 9, 51, 1021, 212517, Note_off_c, 3, 66, 791, 212519, Note_off_c, 6, 78, 761, 212519, Note_off_c, 6, 83, 761, 212519, Note_off_c, 9, 36, 801, 212519, Note_off_c, 9, 51, 1021, 212520, Note_on_c, 3, 64, 711, 212520, Note_on_c, 6, 76, 931, 212580, Note_off_c, 0, 76, 1121, 212639, Note_off_c, 6, 76, 931, 212640, Note_off_c, 1, 33, 931, 212640, Note_on_c, 1, 28, 601, 212640, Note_off_c, 2, 45, 931, 212640, Note_on_c, 2, 40, 601, 212640, Note_on_c, 6, 83, 1071, 212640, Note_on_c, 6, 78, 981, 212640, Note_on_c, 9, 54, 1011, 212640, Note_on_c, 9, 38, 1131, 212640, Note_on_c, 9, 51, 1021, 212758, Note_off_c, 3, 64, 711, 212758, Note_off_c, 9, 54, 1011, 212759, Note_off_c, 6, 83, 1071, 212759, Note_off_c, 6, 78, 981, 212759, Note_off_c, 9, 38, 1131, 212759, Note_off_c, 9, 51, 1021, 212761, Note_on_c, 3, 64, 871, 212810, Note_off_c, 1, 28, 601, 212810, Note_off_c, 2, 40, 601, 212879, Note_off_c, 3, 64, 871, 212880, Note_on_c, 1, 40, 1131, 212880, Note_on_c, 2, 52, 1131, 212880, Note_on_c, 6, 78, 931, 212880, Note_on_c, 6, 83, 981, 212880, Note_on_c, 9, 36, 851, 212880, Note_on_c, 9, 51, 1131, 212881, Note_on_c, 3, 66, 621, 212999, Note_off_c, 3, 66, 621, 212999, Note_off_c, 6, 78, 931, 212999, Note_off_c, 6, 83, 981, 212999, Note_off_c, 9, 51, 1131, 213000, Note_on_c, 3, 71, 731, 213000, Note_on_c, 3, 64, 681, 213000, Note_on_c, 6, 76, 891, 213118, Note_off_c, 3, 71, 731, 213119, Note_off_c, 6, 76, 891, 213120, Note_on_c, 6, 78, 761, 213120, Note_on_c, 6, 83, 851, 213120, Note_on_c, 9, 51, 1071, 213150, Note_off_c, 1, 40, 1131, 213150, Note_off_c, 2, 52, 1131, 213238, Note_off_c, 3, 64, 681, 213239, Note_off_c, 6, 78, 761, 213239, Note_off_c, 6, 83, 851, 213239, Note_off_c, 9, 36, 851, 213239, Note_off_c, 9, 51, 1071, 213240, Note_on_c, 6, 76, 1071, 213241, Note_on_c, 3, 64, 751, 213359, Note_off_c, 6, 76, 1071, 213360, Note_on_c, 1, 28, 931, 213360, Note_on_c, 2, 40, 931, 213360, Note_off_c, 3, 64, 751, 213360, Note_on_c, 3, 66, 661, 213360, Note_on_c, 6, 78, 891, 213360, Note_on_c, 6, 83, 931, 213360, Note_on_c, 9, 51, 981, 213360, Note_on_c, 9, 36, 981, 213479, Note_off_c, 3, 66, 661, 213479, Note_off_c, 6, 78, 891, 213479, Note_off_c, 6, 83, 931, 213479, Note_off_c, 9, 51, 981, 213479, Note_off_c, 9, 36, 981, 213480, Note_on_c, 3, 64, 721, 213520, Note_off_c, 1, 28, 931, 213520, Note_off_c, 2, 40, 931, 213600, Note_on_c, 1, 28, 981, 213600, Note_on_c, 2, 40, 981, 213600, Note_on_c, 6, 83, 1071, 213600, Note_on_c, 6, 78, 931, 213600, Note_on_c, 9, 54, 1041, 213600, Note_on_c, 9, 38, 1131, 213600, Note_on_c, 9, 51, 1071, 213718, Note_off_c, 3, 64, 721, 213718, Note_off_c, 9, 54, 1041, 213719, Note_off_c, 9, 51, 1071, 213720, Note_on_c, 3, 64, 851, 213838, Note_off_c, 3, 64, 851, 213838, Note_on_c, 3, 66, 811, 213839, Note_off_c, 6, 83, 1071, 213839, Note_off_c, 6, 78, 931, 213840, Note_on_c, 6, 76, 981, 213840, Note_on_c, 9, 51, 1021, 213870, Note_off_c, 1, 28, 981, 213870, Note_off_c, 2, 40, 981, 213955, Note_off_c, 3, 66, 811, 213959, Note_off_c, 9, 38, 1131, 213959, Note_off_c, 9, 51, 1021, 213960, Note_on_c, 3, 64, 701, 214078, Note_off_c, 3, 64, 701, 214079, Note_off_c, 6, 76, 981, 214080, Note_on_c, 1, 37, 931, 214080, Note_on_c, 2, 49, 931, 214080, Note_on_c, 3, 71, 761, 214080, Note_on_c, 6, 78, 931, 214080, Note_on_c, 6, 83, 931, 214080, Note_on_c, 9, 54, 741, 214080, Note_on_c, 9, 51, 1131, 214080, Note_on_c, 9, 36, 1071, 214198, Note_off_c, 3, 71, 761, 214198, Note_off_c, 9, 54, 741, 214199, Note_off_c, 6, 78, 931, 214199, Note_off_c, 6, 83, 931, 214199, Note_off_c, 9, 51, 1131, 214199, Note_off_c, 9, 36, 1071, 214200, Note_on_c, 6, 76, 851, 214200, Note_on_c, 9, 54, 611, 214201, Note_on_c, 3, 64, 811, 214300, Note_off_c, 1, 37, 931, 214300, Note_off_c, 2, 49, 931, 214318, Note_off_c, 9, 54, 611, 214319, Note_off_c, 3, 64, 811, 214319, Note_on_c, 3, 66, 871, 214319, Note_off_c, 6, 76, 851, 214320, Note_on_c, 1, 33, 981, 214320, Note_on_c, 2, 45, 981, 214320, Note_on_c, 6, 78, 721, 214320, Note_on_c, 6, 83, 571, 214320, Note_on_c, 9, 54, 771, 214320, Note_on_c, 9, 51, 1021, 214320, Note_on_c, 9, 36, 851, 214438, Note_off_c, 3, 66, 871, 214438, Note_off_c, 9, 54, 771, 214439, Note_off_c, 6, 78, 721, 214439, Note_off_c, 6, 83, 571, 214439, Note_off_c, 9, 51, 1021, 214439, Note_off_c, 9, 36, 851, 214440, Note_on_c, 3, 64, 771, 214440, Note_on_c, 6, 76, 981, 214440, Note_on_c, 9, 54, 571, 214540, Note_off_c, 1, 33, 981, 214540, Note_off_c, 2, 45, 981, 214558, Note_off_c, 9, 54, 571, 214559, Note_off_c, 6, 76, 981, 214560, Note_on_c, 1, 28, 851, 214560, Note_on_c, 2, 40, 851, 214560, Note_on_c, 6, 78, 1021, 214560, Note_on_c, 6, 83, 1131, 214560, Note_on_c, 9, 54, 971, 214560, Note_on_c, 9, 38, 1071, 214560, Note_on_c, 9, 51, 1131, 214678, Note_off_c, 3, 64, 771, 214678, Note_off_c, 9, 54, 971, 214679, Note_off_c, 6, 78, 1021, 214679, Note_off_c, 6, 83, 1131, 214679, Note_off_c, 9, 38, 1071, 214679, Note_off_c, 9, 51, 1131, 214680, Note_on_c, 9, 54, 551, 214681, Note_on_c, 3, 64, 951, 214740, Note_off_c, 1, 28, 851, 214740, Note_off_c, 2, 40, 851, 214798, Note_off_c, 9, 54, 551, 214799, Note_off_c, 3, 64, 951, 214800, Note_on_c, 1, 40, 1021, 214800, Note_on_c, 2, 52, 1021, 214800, Note_on_c, 3, 66, 891, 214800, Note_on_c, 6, 78, 931, 214800, Note_on_c, 6, 83, 1021, 214800, Note_on_c, 9, 54, 931, 214800, Note_on_c, 9, 36, 1021, 214800, Note_on_c, 9, 51, 1131, 214918, Note_off_c, 3, 66, 891, 214918, Note_off_c, 9, 54, 931, 214919, Note_off_c, 6, 78, 931, 214919, Note_off_c, 6, 83, 1021, 214919, Note_off_c, 9, 51, 1131, 214920, Note_on_c, 3, 71, 791, 214920, Note_on_c, 3, 64, 791, 214920, Note_on_c, 6, 76, 1021, 214920, Note_on_c, 9, 54, 611, 215038, Note_off_c, 3, 71, 791, 215038, Note_off_c, 9, 54, 611, 215039, Note_off_c, 6, 76, 1021, 215040, Note_on_c, 6, 83, 891, 215040, Note_on_c, 6, 78, 681, 215040, Note_on_c, 9, 54, 871, 215040, Note_on_c, 9, 51, 1071, 215050, Note_off_c, 1, 40, 1021, 215050, Note_off_c, 2, 52, 1021, 215158, Note_off_c, 3, 64, 791, 215158, Note_off_c, 9, 54, 871, 215159, Note_off_c, 6, 83, 891, 215159, Note_off_c, 6, 78, 681, 215159, Note_off_c, 9, 36, 1021, 215159, Note_off_c, 9, 51, 1071, 215160, Note_on_c, 6, 76, 1021, 215160, Note_on_c, 9, 54, 581, 215161, Note_on_c, 3, 64, 921, 215278, Note_off_c, 3, 64, 921, 215278, Note_on_c, 3, 66, 851, 215278, Note_off_c, 9, 54, 581, 215279, Note_off_c, 6, 76, 1021, 215280, Note_on_c, 1, 28, 801, 215280, Note_on_c, 2, 40, 801, 215280, Note_on_c, 6, 83, 981, 215280, Note_on_c, 6, 78, 891, 215280, Note_on_c, 9, 54, 931, 215280, Note_on_c, 9, 51, 1131, 215280, Note_on_c, 9, 36, 931, 215396, Note_off_c, 3, 66, 851, 215398, Note_off_c, 9, 54, 931, 215399, Note_off_c, 6, 83, 981, 215399, Note_off_c, 6, 78, 891, 215399, Note_off_c, 9, 51, 1131, 215399, Note_off_c, 9, 36, 931, 215400, Note_on_c, 3, 64, 651, 215400, Note_on_c, 9, 54, 531, 215460, Note_off_c, 1, 28, 801, 215460, Note_off_c, 2, 40, 801, 215518, Note_off_c, 9, 54, 531, 215520, Note_on_c, 1, 28, 931, 215520, Note_on_c, 2, 40, 931, 215520, Note_on_c, 6, 83, 1071, 215520, Note_on_c, 6, 78, 1071, 215520, Note_on_c, 9, 54, 891, 215520, Note_on_c, 9, 38, 1131, 215520, Note_on_c, 9, 51, 1131, 215638, Note_off_c, 3, 64, 651, 215638, Note_off_c, 9, 54, 891, 215639, Note_off_c, 9, 51, 1131, 215640, Note_on_c, 3, 64, 941, 215640, Note_on_c, 9, 54, 631, 215740, Note_off_c, 1, 28, 931, 215740, Note_off_c, 2, 40, 931, 215758, Note_off_c, 3, 64, 941, 215758, Note_on_c, 3, 66, 811, 215758, Note_off_c, 9, 54, 631, 215759, Note_off_c, 6, 83, 1071, 215759, Note_off_c, 6, 78, 1071, 215760, Note_on_c, 6, 76, 1021, 215760, Note_on_c, 9, 54, 821, 215760, Note_on_c, 9, 51, 1071, 215876, Note_off_c, 3, 66, 811, 215878, Note_off_c, 9, 54, 821, 215879, Note_off_c, 9, 38, 1131, 215879, Note_off_c, 9, 51, 1071, 215880, Note_on_c, 3, 64, 611, 215880, Note_on_c, 9, 54, 581, 215998, Note_off_c, 9, 54, 581, 215999, Note_off_c, 6, 76, 1021, 216000, Note_on_c, 1, 37, 981, 216000, Note_on_c, 2, 49, 981, 216000, Note_on_c, 3, 71, 811, 216000, Note_on_c, 6, 83, 1071, 216000, Note_on_c, 6, 78, 931, 216000, Note_on_c, 9, 54, 741, 216000, Note_on_c, 9, 51, 1131, 216000, Note_on_c, 9, 36, 1071, 216118, Note_off_c, 3, 71, 811, 216118, Note_off_c, 3, 64, 611, 216118, Note_off_c, 9, 54, 741, 216119, Note_off_c, 6, 83, 1071, 216119, Note_off_c, 6, 78, 931, 216119, Note_off_c, 9, 51, 1131, 216119, Note_off_c, 9, 36, 1071, 216120, Note_on_c, 3, 64, 841, 216120, Note_on_c, 6, 76, 891, 216120, Note_on_c, 9, 54, 611, 216238, Note_on_c, 3, 66, 791, 216238, Note_off_c, 9, 54, 611, 216239, Note_off_c, 3, 64, 841, 216239, Note_off_c, 6, 76, 891, 216240, Note_on_c, 1, 33, 931, 216240, Note_on_c, 2, 45, 931, 216240, Note_on_c, 6, 78, 721, 216240, Note_on_c, 6, 83, 571, 216240, Note_on_c, 9, 54, 771, 216240, Note_on_c, 9, 51, 981, 216240, Note_on_c, 9, 36, 891, 216260, Note_off_c, 1, 37, 981, 216260, Note_off_c, 2, 49, 981, 216357, Note_off_c, 3, 66, 791, 216358, Note_off_c, 9, 54, 771, 216359, Note_off_c, 6, 78, 721, 216359, Note_off_c, 6, 83, 571, 216359, Note_off_c, 9, 51, 981, 216359, Note_off_c, 9, 36, 891, 216360, Note_on_c, 3, 64, 711, 216360, Note_on_c, 6, 76, 1021, 216360, Note_on_c, 9, 54, 571, 216478, Note_off_c, 9, 54, 571, 216479, Note_off_c, 6, 76, 1021, 216480, Note_off_c, 1, 33, 931, 216480, Note_on_c, 1, 28, 721, 216480, Note_off_c, 2, 45, 931, 216480, Note_on_c, 2, 40, 721, 216480, Note_on_c, 6, 83, 1021, 216480, Note_on_c, 6, 78, 981, 216480, Note_on_c, 9, 54, 971, 216480, Note_on_c, 9, 51, 981, 216480, Note_on_c, 9, 38, 1071, 216598, Note_off_c, 3, 64, 711, 216598, Note_off_c, 9, 54, 971, 216599, Note_off_c, 6, 83, 1021, 216599, Note_off_c, 6, 78, 981, 216599, Note_off_c, 9, 51, 981, 216599, Note_off_c, 9, 38, 1071, 216600, Note_on_c, 9, 54, 551, 216601, Note_on_c, 3, 64, 871, 216670, Note_off_c, 1, 28, 721, 216670, Note_off_c, 2, 40, 721, 216718, Note_off_c, 9, 54, 551, 216719, Note_off_c, 3, 64, 871, 216720, Note_on_c, 1, 40, 1021, 216720, Note_on_c, 2, 52, 1021, 216720, Note_on_c, 6, 78, 931, 216720, Note_on_c, 6, 83, 931, 216720, Note_on_c, 9, 54, 931, 216720, Note_on_c, 9, 36, 1131, 216720, Note_on_c, 9, 51, 1191, 216721, Note_on_c, 3, 66, 621, 216838, Note_off_c, 9, 54, 931, 216839, Note_off_c, 3, 66, 621, 216839, Note_off_c, 6, 78, 931, 216839, Note_off_c, 6, 83, 931, 216839, Note_off_c, 9, 51, 1191, 216840, Note_on_c, 3, 71, 731, 216840, Note_on_c, 3, 64, 681, 216840, Note_on_c, 6, 76, 931, 216840, Note_on_c, 9, 54, 611, 216950, Note_off_c, 1, 40, 1021, 216950, Note_off_c, 2, 52, 1021, 216958, Note_off_c, 3, 71, 731, 216958, Note_off_c, 9, 54, 611, 216959, Note_off_c, 6, 76, 931, 216960, Note_on_c, 6, 78, 801, 216960, Note_on_c, 6, 83, 891, 216960, Note_on_c, 9, 54, 871, 216960, Note_on_c, 9, 51, 1021, 217078, Note_off_c, 3, 64, 681, 217078, Note_off_c, 9, 54, 871, 217079, Note_off_c, 6, 78, 801, 217079, Note_off_c, 6, 83, 891, 217079, Note_off_c, 9, 36, 1131, 217079, Note_off_c, 9, 51, 1021, 217080, Note_on_c, 6, 76, 931, 217080, Note_on_c, 9, 54, 581, 217081, Note_on_c, 3, 64, 751, 217198, Note_off_c, 9, 54, 581, 217199, Note_off_c, 6, 76, 931, 217200, Note_on_c, 1, 28, 891, 217200, Note_on_c, 2, 40, 891, 217200, Note_off_c, 3, 64, 751, 217200, Note_on_c, 3, 66, 661, 217200, Note_on_c, 6, 83, 931, 217200, Note_on_c, 6, 78, 891, 217200, Note_on_c, 9, 54, 931, 217200, Note_on_c, 9, 36, 1071, 217200, Note_on_c, 9, 51, 1131, 217318, Note_off_c, 9, 54, 931, 217319, Note_off_c, 3, 66, 661, 217319, Note_off_c, 6, 83, 931, 217319, Note_off_c, 6, 78, 891, 217319, Note_off_c, 9, 36, 1071, 217319, Note_off_c, 9, 51, 1131, 217320, Note_on_c, 3, 64, 721, 217320, Note_on_c, 9, 54, 531, 217370, Note_off_c, 1, 28, 891, 217370, Note_off_c, 2, 40, 891, 217438, Note_off_c, 9, 54, 531, 217440, Note_on_c, 1, 28, 981, 217440, Note_on_c, 2, 40, 981, 217440, Note_on_c, 6, 78, 1021, 217440, Note_on_c, 6, 83, 1071, 217440, Note_on_c, 9, 54, 891, 217440, Note_on_c, 9, 38, 1271, 217440, Note_on_c, 9, 51, 1021, 217558, Note_off_c, 3, 64, 721, 217558, Note_off_c, 9, 54, 891, 217559, Note_off_c, 9, 38, 1271, 217559, Note_off_c, 9, 51, 1021, 217560, Note_on_c, 3, 64, 851, 217560, Note_on_c, 9, 54, 631, 217560, Note_on_c, 9, 41, 1271, 217650, Note_off_c, 1, 28, 981, 217650, Note_off_c, 2, 40, 981, 217678, Note_off_c, 3, 64, 851, 217678, Note_on_c, 3, 66, 811, 217678, Note_off_c, 9, 54, 631, 217679, Note_off_c, 6, 78, 1021, 217679, Note_off_c, 6, 83, 1071, 217679, Note_off_c, 9, 41, 1271, 217680, Note_on_c, 6, 76, 931, 217680, Note_on_c, 9, 54, 821, 217680, Note_on_c, 9, 43, 1271, 217795, Note_off_c, 3, 66, 811, 217798, Note_off_c, 9, 54, 821, 217799, Note_off_c, 9, 43, 1271, 217800, Note_on_c, 3, 64, 701, 217800, Note_on_c, 9, 54, 581, 217918, Note_off_c, 3, 64, 701, 217918, Note_off_c, 9, 54, 581, 217919, Note_off_c, 6, 76, 931, 217920, Note_on_c, 1, 37, 931, 217920, Note_on_c, 2, 49, 931, 217920, Note_on_c, 3, 71, 761, 217920, Note_on_c, 6, 78, 931, 217920, Note_on_c, 6, 83, 981, 217920, Note_on_c, 9, 54, 741, 217920, Note_on_c, 9, 36, 981, 217920, Note_on_c, 9, 49, 1271, 218038, Note_off_c, 3, 71, 761, 218038, Note_off_c, 9, 54, 741, 218039, Note_off_c, 6, 78, 931, 218039, Note_off_c, 6, 83, 981, 218039, Note_off_c, 9, 49, 1271, 218040, Note_on_c, 6, 76, 891, 218040, Note_on_c, 9, 54, 611, 218041, Note_on_c, 3, 64, 811, 218158, Note_off_c, 9, 54, 611, 218159, Note_on_c, 0, 73, 1071, 218159, Note_off_c, 3, 64, 811, 218159, Note_on_c, 3, 66, 871, 218159, Note_off_c, 6, 76, 891, 218160, Note_off_c, 1, 37, 931, 218160, Note_on_c, 1, 33, 931, 218160, Note_off_c, 2, 49, 931, 218160, Note_on_c, 2, 45, 931, 218160, Note_on_c, 6, 78, 851, 218160, Note_on_c, 6, 83, 761, 218160, Note_on_c, 9, 54, 771, 218160, Note_on_c, 9, 51, 1021, 218278, Note_off_c, 3, 66, 871, 218278, Note_off_c, 9, 54, 771, 218279, Note_off_c, 6, 78, 851, 218279, Note_off_c, 6, 83, 761, 218279, Note_off_c, 9, 36, 981, 218279, Note_off_c, 9, 51, 1021, 218280, Note_on_c, 3, 64, 771, 218280, Note_on_c, 6, 76, 931, 218280, Note_on_c, 9, 54, 571, 218364, Note_off_c, 0, 73, 1071, 218398, Note_off_c, 9, 54, 571, 218399, Note_off_c, 6, 76, 931, 218400, Note_on_c, 1, 28, 801, 218400, Note_on_c, 2, 40, 801, 218400, Note_on_c, 6, 83, 1021, 218400, Note_on_c, 6, 78, 931, 218400, Note_on_c, 9, 54, 971, 218400, Note_on_c, 9, 51, 1131, 218400, Note_on_c, 9, 38, 1021, 218401, Note_on_c, 0, 71, 1041, 218410, Note_off_c, 1, 33, 931, 218410, Note_off_c, 2, 45, 931, 218518, Note_off_c, 3, 64, 771, 218518, Note_off_c, 9, 54, 971, 218519, Note_off_c, 6, 83, 1021, 218519, Note_off_c, 6, 78, 931, 218519, Note_off_c, 9, 51, 1131, 218519, Note_off_c, 9, 38, 1021, 218520, Note_on_c, 9, 54, 551, 218521, Note_on_c, 3, 64, 951, 218600, Note_off_c, 1, 28, 801, 218600, Note_off_c, 2, 40, 801, 218638, Note_off_c, 9, 54, 551, 218639, Note_off_c, 3, 64, 951, 218640, Note_on_c, 1, 40, 1071, 218640, Note_on_c, 2, 52, 1071, 218640, Note_on_c, 3, 66, 891, 218640, Note_on_c, 6, 78, 851, 218640, Note_on_c, 6, 83, 931, 218640, Note_on_c, 9, 54, 931, 218640, Note_on_c, 9, 36, 1071, 218640, Note_on_c, 9, 51, 1131, 218758, Note_off_c, 0, 71, 1041, 218758, Note_off_c, 3, 66, 891, 218758, Note_off_c, 9, 54, 931, 218759, Note_off_c, 6, 78, 851, 218759, Note_off_c, 6, 83, 931, 218759, Note_off_c, 9, 51, 1131, 218760, Note_on_c, 3, 71, 791, 218760, Note_on_c, 3, 64, 791, 218760, Note_on_c, 6, 76, 931, 218760, Note_on_c, 9, 54, 611, 218878, Note_off_c, 3, 71, 791, 218878, Note_off_c, 9, 54, 611, 218879, Note_off_c, 6, 76, 931, 218880, Note_on_c, 0, 71, 1081, 218880, Note_off_c, 1, 40, 1071, 218880, Note_off_c, 2, 52, 1071, 218880, Note_on_c, 6, 78, 801, 218880, Note_on_c, 6, 83, 801, 218880, Note_on_c, 9, 54, 871, 218880, Note_on_c, 9, 51, 891, 218998, Note_off_c, 3, 64, 791, 218998, Note_off_c, 9, 54, 871, 218999, Note_off_c, 6, 78, 801, 218999, Note_off_c, 6, 83, 801, 218999, Note_off_c, 9, 36, 1071, 218999, Note_off_c, 9, 51, 891, 219000, Note_on_c, 6, 76, 981, 219000, Note_on_c, 9, 54, 581, 219001, Note_on_c, 3, 64, 921, 219118, Note_off_c, 3, 64, 921, 219118, Note_on_c, 3, 66, 851, 219118, Note_off_c, 9, 54, 581, 219119, Note_off_c, 6, 76, 981, 219120, Note_on_c, 1, 28, 851, 219120, Note_on_c, 2, 40, 851, 219120, Note_on_c, 6, 83, 981, 219120, Note_on_c, 6, 78, 931, 219120, Note_on_c, 9, 54, 931, 219120, Note_on_c, 9, 36, 981, 219120, Note_on_c, 9, 51, 931, 219236, Note_off_c, 3, 66, 851, 219238, Note_off_c, 9, 54, 931, 219239, Note_off_c, 6, 83, 981, 219239, Note_off_c, 6, 78, 931, 219239, Note_off_c, 9, 36, 981, 219239, Note_off_c, 9, 51, 931, 219240, Note_on_c, 3, 64, 651, 219240, Note_on_c, 9, 54, 531, 219275, Note_off_c, 0, 71, 1081, 219280, Note_off_c, 1, 28, 851, 219280, Note_off_c, 2, 40, 851, 219358, Note_off_c, 9, 54, 531, 219360, Note_on_c, 0, 71, 1081, 219360, Note_on_c, 1, 28, 891, 219360, Note_on_c, 2, 40, 891, 219360, Note_on_c, 6, 83, 1021, 219360, Note_on_c, 6, 78, 931, 219360, Note_on_c, 9, 54, 891, 219360, Note_on_c, 9, 38, 1131, 219360, Note_on_c, 9, 51, 1131, 219478, Note_off_c, 3, 64, 651, 219478, Note_off_c, 9, 54, 891, 219479, Note_off_c, 9, 51, 1131, 219480, Note_on_c, 3, 64, 941, 219480, Note_on_c, 9, 54, 631, 219580, Note_off_c, 1, 28, 891, 219580, Note_off_c, 2, 40, 891, 219588, Note_off_c, 0, 71, 1081, 219598, Note_off_c, 3, 64, 941, 219598, Note_on_c, 3, 66, 811, 219598, Note_off_c, 9, 54, 631, 219599, Note_off_c, 6, 83, 1021, 219599, Note_off_c, 6, 78, 931, 219600, Note_on_c, 6, 76, 931, 219600, Note_on_c, 9, 54, 821, 219600, Note_on_c, 9, 51, 981, 219630, Note_on_c, 0, 73, 1131, 219716, Note_off_c, 3, 66, 811, 219718, Note_off_c, 9, 54, 821, 219719, Note_off_c, 9, 38, 1131, 219719, Note_off_c, 9, 51, 981, 219720, Note_on_c, 3, 64, 611, 219720, Note_on_c, 9, 54, 581, 219838, Note_off_c, 9, 54, 581, 219839, Note_off_c, 6, 76, 931, 219840, Note_on_c, 1, 37, 891, 219840, Note_on_c, 2, 49, 891, 219840, Note_on_c, 3, 71, 811, 219840, Note_on_c, 6, 78, 981, 219840, Note_on_c, 6, 83, 931, 219840, Note_on_c, 9, 54, 741, 219840, Note_on_c, 9, 51, 1021, 219840, Note_on_c, 9, 36, 931, 219958, Note_off_c, 3, 71, 811, 219958, Note_off_c, 3, 64, 611, 219958, Note_off_c, 9, 54, 741, 219959, Note_off_c, 6, 78, 981, 219959, Note_off_c, 6, 83, 931, 219959, Note_off_c, 9, 51, 1021, 219959, Note_off_c, 9, 36, 931, 219960, Note_on_c, 3, 64, 841, 219960, Note_on_c, 6, 76, 891, 219960, Note_on_c, 9, 54, 611, 219973, Note_off_c, 0, 73, 1131, 220078, Note_on_c, 3, 66, 791, 220078, Note_off_c, 9, 54, 611, 220079, Note_off_c, 3, 64, 841, 220079, Note_off_c, 6, 76, 891, 220080, Note_on_c, 1, 33, 981, 220080, Note_on_c, 2, 45, 981, 220080, Note_on_c, 6, 78, 721, 220080, Note_on_c, 6, 83, 721, 220080, Note_on_c, 9, 54, 771, 220080, Note_on_c, 9, 36, 801, 220080, Note_on_c, 9, 51, 1021, 220096, Note_on_c, 0, 71, 1081, 220120, Note_off_c, 1, 37, 891, 220120, Note_off_c, 2, 49, 891, 220197, Note_off_c, 3, 66, 791, 220198, Note_off_c, 9, 54, 771, 220199, Note_off_c, 6, 78, 721, 220199, Note_off_c, 6, 83, 721, 220199, Note_off_c, 9, 36, 801, 220199, Note_off_c, 9, 51, 1021, 220200, Note_on_c, 3, 64, 711, 220200, Note_on_c, 6, 76, 931, 220200, Note_on_c, 9, 54, 571, 220318, Note_off_c, 9, 54, 571, 220319, Note_off_c, 6, 76, 931, 220320, Note_on_c, 1, 28, 761, 220320, Note_on_c, 2, 40, 761, 220320, Note_on_c, 6, 83, 1071, 220320, Note_on_c, 6, 78, 1021, 220320, Note_on_c, 9, 54, 971, 220320, Note_on_c, 9, 38, 1071, 220320, Note_on_c, 9, 51, 931, 220330, Note_off_c, 1, 33, 981, 220330, Note_off_c, 2, 45, 981, 220365, Note_off_c, 0, 71, 1081, 220438, Note_off_c, 3, 64, 711, 220438, Note_off_c, 9, 54, 971, 220439, Note_off_c, 6, 83, 1071, 220439, Note_off_c, 6, 78, 1021, 220439, Note_off_c, 9, 38, 1071, 220439, Note_off_c, 9, 51, 931, 220440, Note_on_c, 9, 54, 551, 220441, Note_on_c, 3, 64, 871, 220500, Note_off_c, 1, 28, 761, 220500, Note_off_c, 2, 40, 761, 220558, Note_off_c, 9, 54, 551, 220559, Note_off_c, 3, 64, 871, 220560, Note_on_c, 1, 40, 1131, 220560, Note_on_c, 2, 52, 1131, 220560, Note_on_c, 6, 78, 891, 220560, Note_on_c, 6, 83, 891, 220560, Note_on_c, 9, 54, 931, 220560, Note_on_c, 9, 36, 1021, 220560, Note_on_c, 9, 51, 1131, 220561, Note_on_c, 3, 66, 621, 220582, Note_on_c, 0, 71, 1091, 220678, Note_off_c, 9, 54, 931, 220679, Note_off_c, 3, 66, 621, 220679, Note_off_c, 6, 78, 891, 220679, Note_off_c, 6, 83, 891, 220679, Note_off_c, 9, 51, 1131, 220680, Note_on_c, 3, 71, 731, 220680, Note_on_c, 3, 64, 681, 220680, Note_on_c, 6, 76, 931, 220680, Note_on_c, 9, 54, 611, 220750, Note_off_c, 1, 40, 1131, 220750, Note_off_c, 2, 52, 1131, 220798, Note_off_c, 3, 71, 731, 220798, Note_off_c, 9, 54, 611, 220799, Note_off_c, 6, 76, 931, 220800, Note_on_c, 6, 78, 801, 220800, Note_on_c, 6, 83, 851, 220800, Note_on_c, 9, 54, 871, 220800, Note_on_c, 9, 51, 891, 220918, Note_off_c, 3, 64, 681, 220918, Note_off_c, 9, 54, 871, 220919, Note_off_c, 6, 78, 801, 220919, Note_off_c, 6, 83, 851, 220919, Note_off_c, 9, 36, 1021, 220919, Note_off_c, 9, 51, 891, 220920, Note_on_c, 6, 76, 931, 220920, Note_on_c, 9, 54, 581, 220921, Note_on_c, 3, 64, 751, 221020, Note_off_c, 0, 71, 1091, 221038, Note_off_c, 9, 54, 581, 221039, Note_off_c, 6, 76, 931, 221040, Note_on_c, 1, 28, 981, 221040, Note_on_c, 2, 40, 981, 221040, Note_off_c, 3, 64, 751, 221040, Note_on_c, 3, 66, 661, 221040, Note_on_c, 6, 83, 981, 221040, Note_on_c, 6, 78, 931, 221040, Note_on_c, 9, 54, 931, 221040, Note_on_c, 9, 51, 981, 221040, Note_on_c, 9, 36, 981, 221053, Note_on_c, 0, 68, 1071, 221158, Note_off_c, 9, 54, 931, 221159, Note_off_c, 3, 66, 661, 221159, Note_off_c, 6, 83, 981, 221159, Note_off_c, 6, 78, 931, 221159, Note_off_c, 9, 51, 981, 221159, Note_off_c, 9, 36, 981, 221160, Note_on_c, 3, 64, 721, 221160, Note_on_c, 9, 54, 531, 221210, Note_off_c, 1, 28, 981, 221210, Note_off_c, 2, 40, 981, 221278, Note_off_c, 9, 54, 531, 221280, Note_on_c, 1, 28, 891, 221280, Note_on_c, 2, 40, 891, 221280, Note_on_c, 6, 83, 1071, 221280, Note_on_c, 6, 78, 1071, 221280, Note_on_c, 9, 54, 891, 221280, Note_on_c, 9, 38, 1071, 221280, Note_on_c, 9, 51, 1021, 221398, Note_off_c, 3, 64, 721, 221398, Note_off_c, 9, 54, 891, 221399, Note_off_c, 9, 51, 1021, 221400, Note_on_c, 3, 64, 851, 221400, Note_on_c, 9, 54, 631, 221512, Pitch_bend_c, 0, 8074
1, 221518, Note_off_c, 3, 64, 851, 221518, Note_on_c, 3, 66, 811, 221518, Note_off_c, 9, 54, 631, 221519, Note_off_c, 6, 83, 1071, 221519, Note_off_c, 6, 78, 1071, 221520, Note_on_c, 6, 76, 981, 221520, Note_on_c, 9, 54, 821, 221520, Note_on_c, 9, 51, 981, 221527, Pitch_bend_c, 0, 7723
1, 221542, Pitch_bend_c, 0, 7138
1, 221557, Pitch_bend_c, 0, 6670
1, 221573, Pitch_bend_c, 0, 6085
1, 221580, Note_off_c, 1, 28, 891, 221580, Note_off_c, 2, 40, 891, 221588, Pitch_bend_c, 0, 5500
1, 221595, Note_off_c, 0, 68, 1071, 221604, Pitch_bend_c, 0, 5149
1, 221619, Pitch_bend_c, 0, 4798
1, 221634, Pitch_bend_c, 0, 4564
1, 221635, Note_off_c, 3, 66, 811, 221638, Note_off_c, 9, 54, 821, 221639, Note_off_c, 9, 38, 1071, 221639, Note_off_c, 9, 51, 981, 221640, Note_on_c, 3, 64, 701, 221640, Note_on_c, 9, 54, 581, 221695, Pitch_bend_c, 0, 4798
1, 221710, Pitch_bend_c, 0, 5266
1, 221726, Pitch_bend_c, 0, 5734
1, 221741, Pitch_bend_c, 0, 6436
1, 221756, Pitch_bend_c, 0, 7138
1, 221758, Note_off_c, 3, 64, 701, 221758, Note_off_c, 9, 54, 581, 221759, Note_off_c, 6, 76, 981, 221760, Note_on_c, 1, 37, 931, 221760, Note_on_c, 2, 49, 931, 221760, Note_on_c, 3, 71, 761, 221760, Note_on_c, 6, 78, 1021, 221760, Note_on_c, 6, 83, 1071, 221760, Note_on_c, 9, 54, 741, 221760, Note_on_c, 9, 36, 981, 221760, Note_on_c, 9, 51, 1021, 221771, Pitch_bend_c, 0, 7840
1, 221786, Pitch_bend_c, 0, 8192
1, 221878, Note_off_c, 3, 71, 761, 221878, Note_off_c, 9, 54, 741, 221879, Note_off_c, 6, 78, 1021, 221879, Note_off_c, 6, 83, 1071, 221879, Note_off_c, 9, 36, 981, 221879, Note_off_c, 9, 51, 1021, 221880, Note_on_c, 6, 76, 891, 221880, Note_on_c, 9, 54, 611, 221881, Note_on_c, 3, 64, 811, 221998, Note_off_c, 9, 54, 611, 221999, Note_off_c, 3, 64, 811, 221999, Note_on_c, 3, 66, 871, 221999, Note_off_c, 6, 76, 891, 222000, Note_on_c, 1, 33, 981, 222000, Note_on_c, 2, 45, 981, 222000, Note_on_c, 6, 78, 761, 222000, Note_on_c, 6, 83, 761, 222000, Note_on_c, 9, 54, 771, 222000, Note_on_c, 9, 51, 1021, 222000, Note_on_c, 9, 36, 851, 222005, Note_on_c, 0, 76, 1041, 222020, Note_off_c, 1, 37, 931, 222020, Note_off_c, 2, 49, 931, 222118, Note_off_c, 3, 66, 871, 222118, Note_off_c, 9, 54, 771, 222119, Note_off_c, 6, 78, 761, 222119, Note_off_c, 6, 83, 761, 222119, Note_off_c, 9, 51, 1021, 222119, Note_off_c, 9, 36, 851, 222120, Note_on_c, 3, 64, 771, 222120, Note_on_c, 6, 76, 1021, 222120, Note_on_c, 9, 54, 571, 222220, Note_off_c, 1, 33, 981, 222220, Note_off_c, 2, 45, 981, 222227, Note_off_c, 0, 76, 1041, 222238, Note_on_c, 0, 75, 1021, 222238, Note_off_c, 9, 54, 571, 222240, Note_on_c, 1, 28, 801, 222240, Note_on_c, 2, 40, 801, 222240, Note_on_c, 6, 83, 981, 222240, Note_on_c, 6, 78, 1021, 222240, Note_on_c, 9, 54, 971, 222240, Note_on_c, 9, 38, 981, 222240, Note_on_c, 9, 51, 891, 222358, Note_off_c, 3, 64, 771, 222358, Note_off_c, 9, 54, 971, 222359, Note_off_c, 6, 76, 1021, 222359, Note_off_c, 6, 83, 981, 222359, Note_off_c, 6, 78, 1021, 222359, Note_off_c, 9, 38, 981, 222359, Note_off_c, 9, 51, 891, 222360, Note_on_c, 9, 54, 551, 222361, Note_on_c, 3, 64, 951, 222450, Note_off_c, 1, 28, 801, 222450, Note_off_c, 2, 40, 801, 222474, Note_off_c, 0, 75, 1021, 222478, Note_off_c, 9, 54, 551, 222479, Note_off_c, 3, 64, 951, 222480, Note_on_c, 1, 40, 1071, 222480, Note_on_c, 2, 52, 1071, 222480, Note_on_c, 3, 66, 891, 222480, Note_on_c, 6, 78, 851, 222480, Note_on_c, 6, 83, 891, 222480, Note_on_c, 9, 54, 931, 222480, Note_on_c, 9, 36, 1071, 222480, Note_on_c, 9, 51, 1071, 222598, Note_off_c, 3, 66, 891, 222598, Note_off_c, 9, 54, 931, 222599, Note_off_c, 6, 78, 851, 222599, Note_off_c, 6, 83, 891, 222599, Note_off_c, 9, 51, 1071, 222600, Note_on_c, 3, 71, 791, 222600, Note_on_c, 3, 64, 791, 222600, Note_on_c, 6, 76, 981, 222600, Note_on_c, 9, 54, 611, 222710, Note_off_c, 1, 40, 1071, 222710, Note_off_c, 2, 52, 1071, 222718, Note_off_c, 3, 71, 791, 222718, Note_off_c, 9, 54, 611, 222719, Note_off_c, 6, 76, 981, 222720, Note_on_c, 6, 78, 891, 222720, Note_on_c, 6, 83, 801, 222720, Note_on_c, 9, 54, 871, 222720, Note_on_c, 9, 51, 891, 222729, Note_on_c, 0, 71, 981, 222838, Note_off_c, 3, 64, 791, 222838, Note_off_c, 9, 54, 871, 222839, Note_off_c, 6, 78, 891, 222839, Note_off_c, 6, 83, 801, 222839, Note_off_c, 9, 36, 1071, 222839, Note_off_c, 9, 51, 891, 222840, Note_on_c, 6, 76, 1021, 222840, Note_on_c, 9, 54, 581, 222841, Note_on_c, 3, 64, 921, 222940, Note_off_c, 0, 71, 981, 222958, Note_off_c, 3, 64, 921, 222958, Note_on_c, 3, 66, 851, 222958, Note_off_c, 9, 54, 581, 222959, Note_on_c, 0, 68, 941, 222960, Note_on_c, 1, 28, 681, 222960, Note_on_c, 2, 40, 681, 222960, Note_on_c, 6, 78, 931, 222960, Note_on_c, 6, 83, 891, 222960, Note_on_c, 9, 54, 931, 222960, Note_on_c, 9, 36, 931, 222960, Note_on_c, 9, 51, 981, 223076, Note_off_c, 3, 66, 851, 223078, Note_off_c, 9, 54, 931, 223079, Note_off_c, 6, 76, 1021, 223079, Note_off_c, 6, 78, 931, 223079, Note_off_c, 6, 83, 891, 223079, Note_off_c, 9, 36, 931, 223079, Note_off_c, 9, 51, 981, 223080, Note_on_c, 3, 64, 651, 223080, Note_on_c, 9, 54, 531, 223130, Note_off_c, 1, 28, 681, 223130, Note_off_c, 2, 40, 681, 223198, Note_off_c, 9, 54, 531, 223200, Note_on_c, 1, 28, 981, 223200, Note_on_c, 2, 40, 981, 223200, Note_on_c, 6, 83, 1021, 223200, Note_on_c, 6, 78, 931, 223200, Note_on_c, 9, 54, 891, 223200, Note_on_c, 9, 38, 1071, 223200, Note_on_c, 9, 51, 981, 223238, Note_off_c, 0, 68, 941, 223318, Note_off_c, 3, 64, 651, 223318, Note_off_c, 9, 54, 891, 223319, Note_off_c, 9, 51, 981, 223320, Note_on_c, 3, 64, 941, 223320, Note_on_c, 9, 54, 631, 223438, Note_off_c, 3, 64, 941, 223438, Note_on_c, 3, 66, 811, 223438, Note_off_c, 9, 54, 631, 223439, Note_off_c, 6, 83, 1021, 223439, Note_off_c, 6, 78, 931, 223440, Note_on_c, 0, 71, 1041, 223440, Note_on_c, 6, 76, 1021, 223440, Note_on_c, 9, 54, 821, 223440, Note_on_c, 9, 51, 931, 223460, Note_off_c, 1, 28, 981, 223460, Note_off_c, 2, 40, 981, 223556, Note_off_c, 3, 66, 811, 223558, Note_off_c, 9, 54, 821, 223559, Note_off_c, 9, 38, 1071, 223559, Note_off_c, 9, 51, 931, 223560, Note_on_c, 3, 64, 611, 223560, Note_on_c, 9, 54, 581, 223678, Note_off_c, 9, 54, 581, 223679, Note_off_c, 6, 76, 1021, 223680, Note_on_c, 1, 37, 891, 223680, Note_on_c, 2, 49, 891, 223680, Note_on_c, 3, 71, 811, 223680, Note_on_c, 6, 83, 1071, 223680, Note_on_c, 6, 78, 981, 223680, Note_on_c, 9, 54, 741, 223680, Note_on_c, 9, 36, 931, 223680, Note_on_c, 9, 51, 981, 223787, Note_off_c, 0, 71, 1041, 223798, Note_off_c, 3, 71, 811, 223798, Note_off_c, 3, 64, 611, 223798, Note_off_c, 9, 54, 741, 223799, Note_off_c, 6, 83, 1071, 223799, Note_off_c, 6, 78, 981, 223799, Note_off_c, 9, 36, 931, 223799, Note_off_c, 9, 51, 981, 223800, Note_on_c, 3, 64, 841, 223800, Note_on_c, 6, 76, 891, 223800, Note_on_c, 9, 54, 611, 223918, Note_on_c, 3, 66, 791, 223918, Note_off_c, 9, 54, 611, 223919, Note_off_c, 3, 64, 841, 223919, Note_off_c, 6, 76, 891, 223920, Note_on_c, 1, 33, 891, 223920, Note_on_c, 2, 45, 891, 223920, Note_on_c, 6, 78, 891, 223920, Note_on_c, 6, 83, 761, 223920, Note_on_c, 9, 54, 771, 223920, Note_on_c, 9, 36, 851, 223920, Note_on_c, 9, 51, 931, 223921, Note_on_c, 0, 68, 1121, 223950, Note_off_c, 1, 37, 891, 223950, Note_off_c, 2, 49, 891, 224037, Note_off_c, 3, 66, 791, 224038, Note_off_c, 9, 54, 771, 224039, Note_off_c, 6, 78, 891, 224039, Note_off_c, 6, 83, 761, 224039, Note_off_c, 9, 36, 851, 224039, Note_off_c, 9, 51, 931, 224040, Note_on_c, 3, 64, 711, 224040, Note_on_c, 6, 76, 891, 224040, Note_on_c, 9, 54, 571, 224158, Note_off_c, 9, 54, 571, 224160, Note_off_c, 1, 33, 891, 224160, Note_on_c, 1, 28, 761, 224160, Note_off_c, 2, 45, 891, 224160, Note_on_c, 2, 40, 761, 224160, Note_on_c, 6, 83, 1071, 224160, Note_on_c, 6, 78, 931, 224160, Note_on_c, 9, 54, 971, 224160, Note_on_c, 9, 38, 1071, 224160, Note_on_c, 9, 51, 981, 224207, Note_off_c, 0, 68, 1121, 224278, Note_off_c, 3, 64, 711, 224278, Note_off_c, 9, 54, 971, 224279, Note_off_c, 6, 83, 1071, 224279, Note_off_c, 6, 78, 931, 224279, Note_off_c, 9, 38, 1071, 224279, Note_off_c, 9, 51, 981, 224280, Note_on_c, 9, 54, 551, 224281, Note_on_c, 3, 64, 871, 224370, Note_off_c, 1, 28, 761, 224370, Note_off_c, 2, 40, 761, 224398, Note_off_c, 9, 54, 551, 224399, Note_off_c, 3, 64, 871, 224399, Note_off_c, 6, 76, 891, 224400, Note_on_c, 1, 40, 1131, 224400, Note_on_c, 2, 52, 1131, 224400, Note_on_c, 6, 83, 931, 224400, Note_on_c, 6, 78, 891, 224400, Note_on_c, 9, 54, 931, 224400, Note_on_c, 9, 36, 931, 224400, Note_on_c, 9, 51, 1071, 224401, Note_on_c, 3, 66, 621, 224406, Note_on_c, 0, 73, 1041, 224518, Note_off_c, 9, 54, 931, 224519, Note_off_c, 3, 66, 621, 224519, Note_off_c, 6, 83, 931, 224519, Note_off_c, 6, 78, 891, 224519, Note_off_c, 9, 51, 1071, 224520, Note_on_c, 3, 71, 731, 224520, Note_on_c, 3, 64, 681, 224520, Note_on_c, 6, 76, 981, 224520, Note_on_c, 9, 54, 611, 224638, Note_off_c, 3, 71, 731, 224638, Note_off_c, 9, 54, 611, 224639, Note_off_c, 6, 76, 981, 224640, Note_on_c, 6, 78, 891, 224640, Note_on_c, 6, 83, 891, 224640, Note_on_c, 9, 54, 871, 224640, Note_on_c, 9, 51, 981, 224650, Note_off_c, 1, 40, 1131, 224650, Note_off_c, 2, 52, 1131, 224758, Note_off_c, 3, 64, 681, 224758, Note_off_c, 9, 54, 871, 224759, Note_off_c, 6, 78, 891, 224759, Note_off_c, 6, 83, 891, 224759, Note_off_c, 9, 36, 931, 224759, Note_off_c, 9, 51, 981, 224760, Note_on_c, 6, 76, 981, 224760, Note_on_c, 9, 54, 581, 224761, Note_on_c, 3, 64, 751, 224816, Pitch_bend_c, 0, 7138
1, 224825, Note_off_c, 0, 73, 1041, 224832, Pitch_bend_c, 0, 5500
1, 224847, Pitch_bend_c, 0, 3979
1, 224862, Pitch_bend_c, 0, 2458
1, 224877, Pitch_bend_c, 0, 1171
1, 224878, Note_off_c, 9, 54, 581, 224880, Note_on_c, 1, 28, 981, 224880, Note_on_c, 2, 40, 981, 224880, Note_off_c, 3, 64, 751, 224880, Note_on_c, 3, 66, 661, 224880, Note_on_c, 6, 78, 981, 224880, Note_on_c, 6, 83, 1021, 224880, Note_on_c, 9, 54, 931, 224880, Note_on_c, 9, 36, 1021, 224880, Note_on_c, 9, 51, 1071, 224892, Pitch_bend_c, 0, 1
1, 224898, Note_on_c, 0, 71, 1041, 224908, Pitch_bend_c, 0, 0
1, 224968, Pitch_bend_c, 0, 703
1, 224984, Pitch_bend_c, 0, 1756
1, 224998, Note_off_c, 9, 54, 931, 224999, Pitch_bend_c, 0, 2926
1, 224999, Note_off_c, 3, 66, 661, 224999, Note_off_c, 6, 78, 981, 224999, Note_off_c, 6, 83, 1021, 224999, Note_off_c, 9, 36, 1021, 224999, Note_off_c, 9, 51, 1071, 225000, Note_on_c, 3, 64, 721, 225000, Note_on_c, 9, 54, 531, 225014, Pitch_bend_c, 0, 4213
1, 225029, Pitch_bend_c, 0, 5500
1, 225040, Note_off_c, 1, 28, 981, 225040, Note_off_c, 2, 40, 981, 225046, Pitch_bend_c, 0, 6787
1, 225061, Pitch_bend_c, 0, 7840
1, 225076, Pitch_bend_c, 0, 8192
1, 225118, Note_off_c, 9, 54, 531, 225120, Note_on_c, 1, 28, 981, 225120, Note_on_c, 2, 40, 981, 225120, Note_on_c, 6, 83, 1021, 225120, Note_on_c, 6, 78, 981, 225120, Note_on_c, 9, 54, 891, 225120, Note_on_c, 9, 38, 1131, 225120, Note_on_c, 9, 51, 1131, 225238, Note_off_c, 3, 64, 721, 225238, Note_off_c, 9, 54, 891, 225239, Note_off_c, 6, 76, 981, 225239, Note_off_c, 9, 38, 1131, 225239, Note_off_c, 9, 51, 1131, 225240, Note_on_c, 3, 64, 851, 225240, Note_on_c, 9, 54, 631, 225280, Note_off_c, 1, 28, 981, 225280, Note_off_c, 2, 40, 981, 225358, Note_off_c, 3, 64, 851, 225358, Note_on_c, 3, 66, 811, 225358, Note_off_c, 9, 54, 631, 225359, Note_off_c, 6, 83, 1021, 225359, Note_off_c, 6, 78, 981, 225360, Note_on_c, 6, 76, 1071, 225360, Note_on_c, 9, 54, 821, 225360, Note_on_c, 9, 38, 891, 225360, Note_on_c, 9, 51, 1021, 225442, Note_off_c, 0, 71, 1041, 225475, Note_off_c, 3, 66, 811, 225478, Note_off_c, 9, 54, 821, 225479, Note_off_c, 9, 38, 891, 225479, Note_off_c, 9, 51, 1021, 225480, Note_on_c, 3, 64, 701, 225480, Note_on_c, 9, 54, 581, 225598, Note_off_c, 3, 64, 701, 225598, Note_off_c, 9, 54, 581, 225599, Note_off_c, 6, 76, 1071, 225600, Note_on_c, 1, 39, 931, 225600, Note_on_c, 2, 51, 931, 225600, Note_on_c, 3, 75, 561, 225600, Note_on_c, 6, 87, 931, 225600, Note_on_c, 9, 54, 741, 225600, Note_on_c, 9, 36, 1021, 225600, Note_on_c, 9, 52, 1271, 225659, Control_c, 6, 64, 127
1, 225718, Note_off_c, 3, 75, 561, 225718, Note_off_c, 9, 54, 741, 225719, Note_off_c, 6, 87, 931, 225719, Note_off_c, 9, 52, 1271, 225720, Note_on_c, 6, 82, 801, 225720, Note_on_c, 9, 54, 611, 225721, Note_on_c, 3, 68, 611, 225838, Note_off_c, 9, 54, 611, 225839, Note_off_c, 3, 68, 611, 225839, Note_on_c, 3, 70, 671, 225839, Note_off_c, 6, 82, 801, 225840, Note_on_c, 1, 37, 761, 225840, Note_on_c, 2, 49, 761, 225840, Note_on_c, 6, 83, 761, 225840, Note_on_c, 9, 54, 771, 225840, Note_on_c, 9, 51, 931, 225848, Note_on_c, 0, 75, 1071, 225914, Note_off_c, 1, 39, 931, 225914, Note_off_c, 2, 51, 931, 225958, Note_off_c, 3, 70, 671, 225958, Note_off_c, 9, 54, 771, 225959, Note_off_c, 6, 83, 761, 225959, Note_off_c, 9, 36, 1021, 225959, Note_off_c, 9, 51, 931, 225960, Note_on_c, 3, 68, 571, 225960, Note_on_c, 6, 82, 761, 225960, Note_on_c, 9, 54, 571, 226046, Note_off_c, 1, 37, 761, 226046, Note_off_c, 2, 49, 761, 226060, Note_off_c, 0, 75, 1071, 226078, Note_on_c, 0, 75, 911, 226078, Note_off_c, 9, 54, 571, 226079, Note_off_c, 6, 82, 761, 226080, Note_on_c, 1, 35, 851, 226080, Note_on_c, 2, 47, 851, 226080, Note_on_c, 6, 80, 851, 226080, Note_on_c, 9, 54, 971, 226080, Note_on_c, 9, 38, 1131, 226080, Note_on_c, 9, 51, 1071, 226198, Note_off_c, 3, 68, 571, 226198, Note_off_c, 9, 54, 971, 226199, Note_off_c, 6, 80, 851, 226199, Note_off_c, 9, 38, 1131, 226199, Note_off_c, 9, 51, 1071, 226200, Note_on_c, 6, 82, 721, 226200, Note_on_c, 9, 54, 551, 226201, Note_on_c, 3, 68, 751, 226318, Note_off_c, 9, 54, 551, 226319, Note_off_c, 3, 68, 751, 226319, Note_off_c, 6, 82, 721, 226320, Note_on_c, 1, 32, 1071, 226320, Note_on_c, 2, 44, 1071, 226320, Note_on_c, 3, 70, 691, 226320, Note_on_c, 6, 83, 891, 226320, Note_on_c, 9, 54, 931, 226320, Note_on_c, 9, 36, 1071, 226320, Note_on_c, 9, 51, 1131, 226326, Note_off_c, 1, 35, 851, 226326, Note_off_c, 2, 47, 851, 226333, Note_off_c, 0, 75, 911, 226438, Note_off_c, 3, 70, 691, 226438, Note_off_c, 9, 54, 931, 226439, Note_off_c, 6, 83, 891, 226439, Note_off_c, 9, 51, 1131, 226440, Note_on_c, 3, 75, 591, 226440, Note_on_c, 3, 68, 591, 226440, Note_on_c, 6, 82, 801, 226440, Note_on_c, 9, 54, 611, 226558, Note_off_c, 3, 75, 591, 226558, Note_off_c, 9, 54, 611, 226559, Note_off_c, 6, 82, 801, 226560, Note_on_c, 0, 75, 951, 226560, Note_on_c, 6, 87, 1021, 226560, Note_on_c, 9, 54, 871, 226560, Note_on_c, 9, 51, 931, 226576, Note_off_c, 1, 32, 1071, 226576, Note_off_c, 2, 44, 1071, 226678, Note_off_c, 3, 68, 591, 226678, Note_off_c, 9, 54, 871, 226679, Note_off_c, 6, 87, 1021, 226679, Note_off_c, 9, 36, 1071, 226679, Note_off_c, 9, 51, 931, 226680, Note_on_c, 6, 82, 761, 226680, Note_on_c, 9, 54, 581, 226681, Note_on_c, 3, 68, 721, 226759, Note_off_c, 0, 75, 951, 226798, Note_off_c, 3, 68, 721, 226798, Note_on_c, 3, 70, 651, 226798, Note_off_c, 9, 54, 581, 226799, Note_off_c, 6, 82, 761, 226800, Note_on_c, 1, 32, 981, 226800, Note_on_c, 2, 44, 981, 226800, Note_on_c, 6, 83, 981, 226800, Note_on_c, 9, 54, 931, 226800, Note_on_c, 9, 36, 931, 226800, Note_on_c, 9, 51, 1071, 226808, Note_on_c, 0, 73, 1041, 226916, Note_off_c, 3, 70, 651, 226918, Note_off_c, 9, 54, 931, 226919, Note_off_c, 6, 83, 981, 226919, Note_off_c, 9, 36, 931, 226919, Note_off_c, 9, 51, 1071, 226920, Note_on_c, 3, 68, 451, 226920, Note_on_c, 6, 82, 801, 226920, Note_on_c, 9, 54, 531, 226989, Note_off_c, 0, 73, 1041, 227036, Note_off_c, 1, 32, 981, 227036, Note_off_c, 2, 44, 981, 227038, Note_off_c, 9, 54, 531, 227039, Note_off_c, 6, 82, 801, 227040, Note_on_c, 6, 80, 851, 227040, Note_on_c, 9, 54, 891, 227040, Note_on_c, 9, 38, 1131, 227040, Note_on_c, 9, 51, 1131, 227047, Note_on_c, 0, 73, 1051, 227158, Note_off_c, 3, 68, 451, 227158, Note_off_c, 9, 54, 891, 227159, Note_off_c, 6, 80, 851, 227159, Note_off_c, 9, 51, 1131, 227160, Note_on_c, 3, 68, 741, 227160, Note_on_c, 6, 82, 851, 227160, Note_on_c, 9, 54, 631, 227264, Note_off_c, 0, 73, 1051, 227278, Note_off_c, 3, 68, 741, 227278, Note_on_c, 3, 70, 611, 227278, Note_off_c, 9, 54, 631, 227279, Note_off_c, 6, 82, 851, 227280, Note_on_c, 1, 30, 981, 227280, Note_on_c, 2, 42, 981, 227280, Note_on_c, 6, 83, 931, 227280, Note_on_c, 9, 54, 821, 227280, Note_on_c, 9, 51, 931, 227281, Note_on_c, 0, 71, 931, 227396, Note_off_c, 3, 70, 611, 227398, Note_off_c, 9, 54, 821, 227399, Note_off_c, 6, 83, 931, 227399, Note_off_c, 9, 38, 1131, 227399, Note_off_c, 9, 51, 931, 227400, Note_on_c, 3, 68, 411, 227400, Note_on_c, 6, 82, 801, 227400, Note_on_c, 9, 54, 581, 227477, Note_off_c, 1, 30, 981, 227477, Note_off_c, 2, 42, 981, 227505, Note_off_c, 0, 71, 931, 227518, Note_off_c, 9, 54, 581, 227519, Note_off_c, 6, 82, 801, 227520, Note_on_c, 1, 32, 931, 227520, Note_on_c, 2, 44, 931, 227520, Note_on_c, 3, 75, 611, 227520, Note_on_c, 6, 87, 931, 227520, Note_on_c, 9, 54, 741, 227520, Note_on_c, 9, 36, 1021, 227520, Note_on_c, 9, 51, 1071, 227638, Note_off_c, 3, 75, 611, 227638, Note_off_c, 3, 68, 411, 227638, Note_off_c, 9, 54, 741, 227639, Note_off_c, 6, 87, 931, 227639, Note_off_c, 9, 36, 1021, 227639, Note_off_c, 9, 51, 1071, 227640, Note_on_c, 3, 68, 641, 227640, Note_on_c, 6, 82, 761, 227640, Note_on_c, 9, 54, 611, 227697, Note_off_c, 1, 32, 931, 227697, Note_off_c, 2, 44, 931, 227757, Note_on_c, 0, 71, 921, 227758, Note_on_c, 3, 70, 591, 227758, Note_off_c, 9, 54, 611, 227759, Note_off_c, 3, 68, 641, 227759, Note_off_c, 6, 82, 761, 227760, Note_on_c, 1, 32, 891, 227760, Note_on_c, 2, 44, 891, 227760, Note_on_c, 6, 83, 931, 227760, Note_on_c, 9, 54, 771, 227760, Note_on_c, 9, 51, 801, 227760, Note_on_c, 9, 36, 851, 227877, Note_off_c, 3, 70, 591, 227878, Note_off_c, 9, 54, 771, 227879, Note_off_c, 6, 83, 931, 227879, Note_off_c, 9, 51, 801, 227879, Note_off_c, 9, 36, 851, 227880, Note_on_c, 3, 68, 511, 227880, Note_on_c, 6, 82, 721, 227880, Note_on_c, 9, 54, 571, 227956, Note_off_c, 1, 32, 891, 227956, Note_off_c, 2, 44, 891, 227998, Note_off_c, 9, 54, 571, 227999, Note_off_c, 6, 82, 721, 228000, Note_on_c, 1, 30, 931, 228000, Note_on_c, 2, 42, 931, 228000, Note_on_c, 6, 80, 801, 228000, Note_on_c, 9, 54, 971, 228000, Note_on_c, 9, 38, 1071, 228000, Note_on_c, 9, 51, 981, 228118, Note_off_c, 3, 68, 511, 228118, Note_off_c, 9, 54, 971, 228119, Note_off_c, 6, 80, 801, 228119, Note_off_c, 9, 38, 1071, 228119, Note_off_c, 9, 51, 981, 228120, Note_on_c, 6, 82, 761, 228120, Note_on_c, 9, 54, 551, 228121, Note_on_c, 3, 68, 671, 228151, Note_off_c, 0, 71, 921, 228187, Note_off_c, 1, 30, 931, 228187, Note_off_c, 2, 42, 931, 228238, Note_off_c, 9, 54, 551, 228239, Note_off_c, 3, 68, 671, 228239, Note_off_c, 6, 82, 761, 228240, Note_on_c, 1, 32, 931, 228240, Note_on_c, 2, 44, 931, 228240, Note_on_c, 6, 83, 851, 228240, Note_on_c, 9, 54, 931, 228240, Note_on_c, 9, 36, 1021, 228240, Note_on_c, 9, 51, 1071, 228241, Note_on_c, 3, 70, 421, 228243, Note_on_c, 0, 68, 811, 228358, Note_off_c, 9, 54, 931, 228359, Note_off_c, 3, 70, 421, 228359, Note_off_c, 6, 83, 851, 228359, Note_off_c, 9, 51, 1071, 228360, Note_on_c, 3, 75, 531, 228360, Note_on_c, 3, 68, 481, 228360, Note_on_c, 6, 82, 761, 228360, Note_on_c, 9, 54, 611, 228436, Note_off_c, 1, 32, 931, 228436, Note_off_c, 2, 44, 931, 228478, Note_off_c, 3, 75, 531, 228478, Note_off_c, 9, 54, 611, 228479, Note_off_c, 0, 68, 811, 228479, Note_off_c, 6, 82, 761, 228480, Note_on_c, 0, 73, 991, 228480, Note_on_c, 6, 87, 931, 228480, Note_on_c, 9, 54, 871, 228480, Note_on_c, 9, 51, 891, 228598, Note_off_c, 3, 68, 481, 228598, Note_off_c, 9, 54, 871, 228599, Note_off_c, 6, 87, 931, 228599, Note_off_c, 9, 36, 1021, 228599, Note_off_c, 9, 51, 891, 228600, Note_on_c, 6, 82, 801, 228600, Note_on_c, 9, 54, 581, 228601, Note_on_c, 3, 68, 551, 228718, Note_off_c, 9, 54, 581, 228719, Note_off_c, 6, 82, 801, 228720, Note_on_c, 1, 32, 981, 228720, Note_on_c, 2, 44, 981, 228720, Note_off_c, 3, 68, 551, 228720, Note_on_c, 3, 70, 461, 228720, Note_on_c, 6, 83, 931, 228720, Note_on_c, 9, 54, 931, 228720, Note_on_c, 9, 36, 851, 228720, Note_on_c, 9, 51, 981, 228838, Note_off_c, 9, 54, 931, 228839, Note_off_c, 3, 70, 461, 228839, Note_off_c, 6, 83, 931, 228839, Note_off_c, 9, 36, 851, 228839, Note_off_c, 9, 51, 981, 228840, Note_on_c, 3, 68, 521, 228840, Note_on_c, 6, 82, 851, 228840, Note_on_c, 9, 54, 531, 228853, Pitch_bend_c, 0, 6787
1, 228868, Pitch_bend_c, 0, 5266
1, 228885, Pitch_bend_c, 0, 4096
1, 228898, Pitch_bend_c, 0, 2926
1, 228907, Note_off_c, 0, 73, 991, 228914, Pitch_bend_c, 0, 2107
1, 228917, Note_off_c, 1, 32, 981, 228917, Note_off_c, 2, 44, 981, 228929, Pitch_bend_c, 0, 1756
1, 228958, Note_off_c, 9, 54, 531, 228959, Note_off_c, 6, 82, 851, 228960, Pitch_bend_c, 0, 8192
1, 228960, Note_on_c, 6, 80, 891, 228960, Note_on_c, 9, 54, 891, 228960, Note_on_c, 9, 38, 1071, 228960, Note_on_c, 9, 51, 1131, 229078, Note_off_c, 3, 68, 521, 229078, Note_off_c, 9, 54, 891, 229079, Note_off_c, 6, 80, 891, 229079, Note_off_c, 9, 51, 1131, 229080, Note_on_c, 3, 68, 651, 229080, Note_on_c, 6, 82, 851, 229080, Note_on_c, 9, 54, 631, 229198, Note_off_c, 3, 68, 651, 229198, Note_on_c, 3, 70, 611, 229198, Note_off_c, 9, 54, 631, 229199, Note_off_c, 6, 82, 851, 229200, Note_on_c, 1, 32, 931, 229200, Note_on_c, 2, 44, 931, 229200, Note_on_c, 6, 83, 931, 229200, Note_on_c, 9, 54, 821, 229200, Note_on_c, 9, 51, 931, 229211, Note_on_c, 0, 73, 1131, 229315, Note_off_c, 3, 70, 611, 229318, Note_off_c, 9, 54, 821, 229319, Note_off_c, 6, 83, 931, 229319, Note_off_c, 9, 38, 1071, 229319, Note_off_c, 9, 51, 931, 229320, Note_on_c, 3, 68, 501, 229320, Note_on_c, 6, 82, 931, 229320, Note_on_c, 9, 54, 581, 229382, Control_c, 6, 64, 0
1, 229387, Note_off_c, 1, 32, 931, 229387, Note_off_c, 2, 44, 931, 229397, Note_off_c, 0, 73, 1131, 229438, Note_off_c, 3, 68, 501, 229438, Note_off_c, 9, 54, 581, 229439, Note_on_c, 0, 73, 1171, 229439, Note_off_c, 6, 82, 931, 229440, Note_on_c, 1, 33, 1071, 229440, Note_on_c, 2, 45, 1071, 229440, Note_on_c, 3, 76, 561, 229440, Note_on_c, 6, 88, 1131, 229440, Note_on_c, 9, 54, 741, 229440, Note_on_c, 9, 51, 1071, 229440, Note_on_c, 9, 36, 1071, 229543, Control_c, 6, 64, 127
1, 229558, Note_off_c, 3, 76, 561, 229558, Note_off_c, 9, 54, 741, 229559, Note_off_c, 6, 88, 1131, 229559, Note_off_c, 9, 51, 1071, 229559, Note_off_c, 9, 36, 1071, 229560, Note_on_c, 6, 83, 931, 229560, Note_on_c, 9, 54, 611, 229561, Note_on_c, 3, 69, 611, 229634, Note_off_c, 0, 73, 1171, 229636, Note_off_c, 1, 33, 1071, 229636, Note_off_c, 2, 45, 1071, 229678, Note_on_c, 0, 73, 981, 229678, Note_off_c, 9, 54, 611, 229679, Note_off_c, 3, 69, 611, 229679, Note_on_c, 3, 71, 671, 229679, Note_off_c, 6, 83, 931, 229680, Note_on_c, 1, 33, 1021, 229680, Note_on_c, 2, 45, 1021, 229680, Note_on_c, 6, 85, 891, 229680, Note_on_c, 9, 54, 771, 229680, Note_on_c, 9, 36, 931, 229680, Note_on_c, 9, 51, 931, 229798, Note_off_c, 3, 71, 671, 229798, Note_off_c, 9, 54, 771, 229799, Note_off_c, 6, 85, 891, 229799, Note_off_c, 9, 36, 931, 229799, Note_off_c, 9, 51, 931, 229800, Note_on_c, 3, 69, 571, 229800, Note_on_c, 6, 83, 851, 229800, Note_on_c, 9, 54, 571, 229867, Note_off_c, 1, 33, 1021, 229867, Note_off_c, 2, 45, 1021, 229918, Note_off_c, 9, 54, 571, 229919, Note_off_c, 6, 83, 851, 229920, Note_on_c, 1, 32, 801, 229920, Note_on_c, 2, 44, 801, 229920, Note_on_c, 6, 81, 891, 229920, Note_on_c, 9, 54, 971, 229920, Note_on_c, 9, 38, 1071, 229920, Note_on_c, 9, 51, 1021, 230002, Note_off_c, 0, 73, 981, 230038, Note_off_c, 3, 69, 571, 230038, Note_off_c, 9, 54, 971, 230039, Note_off_c, 6, 81, 891, 230039, Note_off_c, 9, 38, 1071, 230039, Note_off_c, 9, 51, 1021, 230040, Note_on_c, 6, 83, 761, 230040, Note_on_c, 9, 54, 551, 230041, Note_on_c, 3, 69, 751, 230117, Note_off_c, 1, 32, 801, 230117, Note_off_c, 2, 44, 801, 230158, Note_off_c, 9, 54, 551, 230159, Note_off_c, 3, 69, 751, 230159, Note_off_c, 6, 83, 761, 230160, Note_on_c, 0, 73, 971, 230160, Note_on_c, 1, 33, 1021, 230160, Note_on_c, 2, 45, 1021, 230160, Note_on_c, 3, 71, 691, 230160, Note_on_c, 6, 85, 1021, 230160, Note_on_c, 9, 54, 931, 230160, Note_on_c, 9, 36, 1071, 230160, Note_on_c, 9, 51, 1071, 230278, Note_off_c, 3, 71, 691, 230278, Note_off_c, 9, 54, 931, 230279, Note_off_c, 6, 85, 1021, 230279, Note_off_c, 9, 51, 1071, 230280, Note_on_c, 3, 76, 591, 230280, Note_on_c, 3, 69, 591, 230280, Note_on_c, 6, 83, 851, 230280, Note_on_c, 9, 54, 611, 230367, Note_off_c, 1, 33, 1021, 230367, Note_off_c, 2, 45, 1021, 230398, Note_off_c, 3, 76, 591, 230398, Note_off_c, 9, 54, 611, 230399, Note_off_c, 6, 83, 851, 230400, Note_on_c, 6, 88, 1021, 230400, Note_on_c, 9, 54, 871, 230400, Note_on_c, 9, 51, 981, 230459, Note_off_c, 0, 73, 971, 230518, Note_off_c, 3, 69, 591, 230518, Note_off_c, 9, 54, 871, 230519, Note_off_c, 6, 88, 1021, 230519, Note_off_c, 9, 36, 1071, 230519, Note_off_c, 9, 51, 981, 230520, Note_on_c, 6, 83, 891, 230520, Note_on_c, 9, 54, 581, 230521, Note_on_c, 3, 69, 721, 230638, Note_off_c, 3, 69, 721, 230638, Note_on_c, 3, 71, 651, 230638, Note_off_c, 9, 54, 581, 230639, Note_on_c, 0, 76, 1261, 230639, Note_off_c, 6, 83, 891, 230640, Note_on_c, 1, 33, 1131, 230640, Note_on_c, 2, 45, 1131, 230640, Note_on_c, 6, 85, 1021, 230640, Note_on_c, 9, 54, 931, 230640, Note_on_c, 9, 36, 981, 230640, Note_on_c, 9, 51, 1021, 230756, Note_off_c, 3, 71, 651, 230758, Note_off_c, 9, 54, 931, 230759, Note_off_c, 6, 85, 1021, 230759, Note_off_c, 9, 36, 981, 230759, Note_off_c, 9, 51, 1021, 230760, Note_on_c, 3, 69, 451, 230760, Note_on_c, 6, 83, 801, 230760, Note_on_c, 9, 54, 531, 230817, Note_off_c, 1, 33, 1131, 230817, Note_off_c, 2, 45, 1131, 230878, Note_off_c, 9, 54, 531, 230879, Note_off_c, 6, 83, 801, 230880, Note_on_c, 6, 81, 891, 230880, Note_on_c, 9, 54, 891, 230880, Note_on_c, 9, 38, 1131, 230880, Note_on_c, 9, 51, 1071, 230888, Note_off_c, 0, 76, 1261, 230998, Note_off_c, 3, 69, 451, 230998, Note_off_c, 9, 54, 891, 230999, Note_off_c, 6, 81, 891, 230999, Note_off_c, 9, 51, 1071, 231000, Note_on_c, 3, 69, 741, 231000, Note_on_c, 6, 83, 851, 231000, Note_on_c, 9, 54, 631, 231118, Note_off_c, 3, 69, 741, 231118, Note_on_c, 3, 71, 611, 231118, Note_off_c, 9, 54, 631, 231119, Note_off_c, 6, 83, 851, 231120, Note_on_c, 1, 32, 891, 231120, Note_on_c, 2, 44, 891, 231120, Note_on_c, 6, 85, 1021, 231120, Note_on_c, 9, 54, 821, 231120, Note_on_c, 9, 51, 981, 231123, Note_on_c, 0, 73, 861, 231236, Note_off_c, 3, 71, 611, 231238, Note_off_c, 9, 54, 821, 231239, Note_off_c, 6, 85, 1021, 231239, Note_off_c, 9, 38, 1131, 231239, Note_off_c, 9, 51, 981, 231240, Note_on_c, 3, 69, 411, 231240, Note_on_c, 6, 83, 761, 231240, Note_on_c, 9, 54, 581, 231317, Note_off_c, 1, 32, 891, 231317, Note_off_c, 2, 44, 891, 231358, Note_off_c, 9, 54, 581, 231359, Note_off_c, 6, 83, 761, 231360, Note_on_c, 1, 33, 1021, 231360, Note_on_c, 2, 45, 1021, 231360, Note_on_c, 3, 76, 611, 231360, Note_on_c, 6, 88, 1071, 231360, Note_on_c, 9, 54, 741, 231360, Note_on_c, 9, 51, 1071, 231360, Note_on_c, 9, 36, 1071, 231478, Note_off_c, 3, 76, 611, 231478, Note_off_c, 3, 69, 411, 231478, Note_off_c, 9, 54, 741, 231479, Note_off_c, 6, 88, 1071, 231479, Note_off_c, 9, 51, 1071, 231479, Note_off_c, 9, 36, 1071, 231480, Note_on_c, 3, 69, 641, 231480, Note_on_c, 6, 83, 801, 231480, Note_on_c, 9, 54, 611, 231522, Note_off_c, 0, 73, 861, 231547, Note_off_c, 1, 33, 1021, 231547, Note_off_c, 2, 45, 1021, 231598, Note_on_c, 3, 71, 591, 231598, Note_off_c, 9, 54, 611, 231599, Note_off_c, 3, 69, 641, 231599, Note_off_c, 6, 83, 801, 231600, Note_on_c, 0, 73, 851, 231600, Note_on_c, 1, 33, 981, 231600, Note_on_c, 2, 45, 981, 231600, Note_on_c, 6, 85, 1021, 231600, Note_on_c, 9, 54, 771, 231600, Note_on_c, 9, 51, 891, 231600, Note_on_c, 9, 36, 891, 231717, Note_off_c, 3, 71, 591, 231718, Note_off_c, 9, 54, 771, 231719, Note_off_c, 6, 85, 1021, 231719, Note_off_c, 9, 51, 891, 231719, Note_off_c, 9, 36, 891, 231720, Note_on_c, 3, 69, 511, 231720, Note_on_c, 6, 83, 761, 231720, Note_on_c, 9, 54, 571, 231777, Note_off_c, 1, 33, 981, 231777, Note_off_c, 2, 45, 981, 231838, Note_off_c, 9, 54, 571, 231839, Note_off_c, 6, 83, 761, 231840, Note_on_c, 1, 32, 801, 231840, Note_on_c, 2, 44, 801, 231840, Note_on_c, 6, 81, 891, 231840, Note_on_c, 9, 54, 971, 231840, Note_on_c, 9, 38, 1131, 231840, Note_on_c, 9, 51, 1131, 231958, Note_off_c, 3, 69, 511, 231958, Note_off_c, 9, 54, 971, 231959, Note_off_c, 6, 81, 891, 231959, Note_off_c, 9, 38, 1131, 231959, Note_off_c, 9, 51, 1131, 231960, Note_on_c, 6, 83, 761, 231960, Note_on_c, 9, 54, 551, 231961, Note_on_c, 3, 69, 671, 232037, Note_off_c, 0, 73, 851, 232047, Note_off_c, 1, 32, 801, 232047, Note_off_c, 2, 44, 801, 232078, Note_off_c, 9, 54, 551, 232079, Note_off_c, 3, 69, 671, 232079, Note_off_c, 6, 83, 761, 232080, Note_on_c, 1, 33, 1071, 232080, Note_on_c, 2, 45, 1071, 232080, Note_on_c, 6, 85, 981, 232080, Note_on_c, 9, 54, 931, 232080, Note_on_c, 9, 36, 1021, 232080, Note_on_c, 9, 51, 1131, 232081, Note_on_c, 3, 71, 421, 232084, Note_on_c, 0, 73, 861, 232198, Note_off_c, 9, 54, 931, 232199, Note_off_c, 3, 71, 421, 232199, Note_off_c, 6, 85, 981, 232199, Note_off_c, 9, 51, 1131, 232200, Note_on_c, 3, 76, 531, 232200, Note_on_c, 3, 69, 481, 232200, Note_on_c, 6, 83, 761, 232200, Note_on_c, 9, 54, 611, 232267, Note_off_c, 1, 33, 1071, 232267, Note_off_c, 2, 45, 1071, 232318, Note_off_c, 3, 76, 531, 232318, Note_off_c, 9, 54, 611, 232319, Note_off_c, 6, 83, 761, 232320, Note_on_c, 6, 88, 1021, 232320, Note_on_c, 9, 54, 871, 232320, Note_on_c, 9, 51, 1021, 232438, Note_off_c, 3, 69, 481, 232438, Note_off_c, 9, 54, 871, 232439, Note_off_c, 6, 88, 1021, 232439, Note_off_c, 9, 36, 1021, 232439, Note_off_c, 9, 51, 1021, 232440, Note_on_c, 6, 83, 891, 232440, Note_on_c, 9, 54, 581, 232441, Note_on_c, 3, 69, 551, 232547, Pitch_bend_c, 0, 7723
1, 232558, Note_off_c, 9, 54, 581, 232559, Note_off_c, 6, 83, 891, 232560, Note_on_c, 1, 33, 1021, 232560, Note_on_c, 2, 45, 1021, 232560, Note_off_c, 3, 69, 551, 232560, Note_on_c, 3, 71, 461, 232560, Note_on_c, 6, 85, 931, 232560, Note_on_c, 9, 54, 931, 232560, Note_on_c, 9, 36, 981, 232560, Note_on_c, 9, 51, 1071, 232562, Pitch_bend_c, 0, 6787
1, 232577, Pitch_bend_c, 0, 5851
1, 232592, Pitch_bend_c, 0, 5032
1, 232608, Pitch_bend_c, 0, 4330
1, 232624, Pitch_bend_c, 0, 3511
1, 232639, Pitch_bend_c, 0, 2692
1, 232654, Pitch_bend_c, 0, 1639
1, 232664, Note_off_c, 0, 73, 861, 232668, Pitch_bend_c, 0, 586
1, 232678, Note_off_c, 9, 54, 931, 232679, Note_off_c, 3, 71, 461, 232679, Note_off_c, 6, 85, 931, 232679, Note_off_c, 9, 36, 981, 232679, Note_off_c, 9, 51, 1071, 232680, Note_on_c, 3, 69, 521, 232680, Note_on_c, 6, 83, 851, 232680, Note_on_c, 9, 54, 531, 232684, Pitch_bend_c, 0, 0
1, 232747, Note_off_c, 1, 33, 1021, 232747, Note_off_c, 2, 45, 1021, 232798, Note_off_c, 9, 54, 531, 232799, Note_off_c, 6, 83, 851, 232800, Pitch_bend_c, 0, 8192
1, 232800, Note_on_c, 6, 81, 801, 232800, Note_on_c, 9, 54, 891, 232800, Note_on_c, 9, 38, 1071, 232800, Note_on_c, 9, 51, 1071, 232918, Note_off_c, 3, 69, 521, 232918, Note_off_c, 9, 54, 891, 232919, Note_off_c, 6, 81, 801, 232919, Note_off_c, 9, 38, 1071, 232919, Note_off_c, 9, 51, 1071, 232920, Note_on_c, 3, 69, 651, 232920, Note_on_c, 6, 83, 761, 232920, Note_on_c, 9, 54, 631, 233038, Note_off_c, 3, 69, 651, 233038, Note_on_c, 3, 71, 611, 233038, Note_off_c, 9, 54, 631, 233039, Note_off_c, 6, 83, 761, 233040, Note_on_c, 1, 33, 1021, 233040, Note_on_c, 2, 45, 1021, 233040, Note_on_c, 6, 85, 1071, 233040, Note_on_c, 9, 54, 821, 233040, Note_on_c, 9, 38, 1191, 233070, Note_on_c, 9, 38, 931, 233148, Note_off_c, 1, 33, 1021, 233148, Note_off_c, 2, 45, 1021, 233155, Note_off_c, 3, 71, 611, 233158, Note_off_c, 9, 54, 821, 233159, Note_off_c, 6, 85, 1071, 233159, Note_off_c, 9, 38, 931, 233160, Note_on_c, 3, 69, 501, 233160, Note_on_c, 6, 83, 851, 233160, Note_on_c, 9, 54, 581, 233189, Note_off_c, 9, 38, 1191, 233278, Note_off_c, 3, 69, 501, 233278, Note_off_c, 9, 54, 581, 233279, Note_off_c, 6, 83, 851, 233280, Control_c, 6, 64, 0
1, 233280, Note_on_c, 0, 75, 1141, 233280, Note_on_c, 1, 39, 1131, 233280, Note_on_c, 2, 51, 1131, 233280, Note_on_c, 3, 75, 561, 233280, Note_on_c, 6, 87, 931, 233280, Note_on_c, 9, 54, 741, 233280, Note_on_c, 9, 36, 1131, 233280, Note_on_c, 9, 49, 1071, 233339, Control_c, 6, 64, 127
1, 233398, Note_off_c, 3, 75, 561, 233398, Note_off_c, 9, 54, 741, 233399, Note_off_c, 6, 87, 931, 233399, Note_off_c, 9, 49, 1071, 233400, Note_on_c, 6, 82, 801, 233400, Note_on_c, 9, 54, 611, 233401, Note_on_c, 3, 68, 611, 233504, Note_off_c, 0, 75, 1141, 233506, Note_off_c, 1, 39, 1131, 233506, Note_off_c, 2, 51, 1131, 233518, Note_off_c, 9, 54, 611, 233519, Note_off_c, 3, 68, 611, 233519, Note_on_c, 3, 70, 671, 233519, Note_off_c, 6, 82, 801, 233520, Note_on_c, 1, 37, 721, 233520, Note_on_c, 2, 49, 721, 233520, Note_on_c, 6, 83, 761, 233520, Note_on_c, 9, 54, 771, 233520, Note_on_c, 9, 51, 891, 233529, Note_on_c, 0, 73, 1011, 233638, Note_off_c, 3, 70, 671, 233638, Note_off_c, 9, 54, 771, 233639, Note_off_c, 6, 83, 761, 233639, Note_off_c, 9, 36, 1131, 233639, Note_off_c, 9, 51, 891, 233640, Note_on_c, 3, 68, 571, 233640, Note_on_c, 6, 82, 761, 233640, Note_on_c, 9, 54, 571, 233746, Note_off_c, 1, 37, 721, 233746, Note_off_c, 2, 49, 721, 233758, Note_off_c, 9, 54, 571, 233759, Note_off_c, 6, 82, 761, 233760, Note_on_c, 1, 35, 931, 233760, Note_on_c, 2, 47, 931, 233760, Note_on_c, 6, 80, 851, 233760, Note_on_c, 9, 54, 971, 233760, Note_on_c, 9, 38, 1131, 233760, Note_on_c, 9, 51, 1071, 233878, Note_off_c, 3, 68, 571, 233878, Note_off_c, 9, 54, 971, 233879, Note_off_c, 6, 80, 851, 233879, Note_off_c, 9, 38, 1131, 233879, Note_off_c, 9, 51, 1071, 233880, Note_on_c, 6, 82, 721, 233880, Note_on_c, 9, 54, 551, 233881, Note_on_c, 3, 68, 751, 233964, Note_off_c, 0, 73, 1011, 233967, Note_off_c, 1, 35, 931, 233967, Note_off_c, 2, 47, 931, 233998, Note_off_c, 9, 54, 551, 233999, Note_off_c, 3, 68, 751, 233999, Note_off_c, 6, 82, 721, 234000, Note_on_c, 0, 73, 781, 234000, Note_on_c, 1, 32, 931, 234000, Note_on_c, 2, 44, 931, 234000, Note_on_c, 3, 70, 691, 234000, Note_on_c, 6, 83, 891, 234000, Note_on_c, 9, 54, 931, 234000, Note_on_c, 9, 36, 1071, 234000, Note_on_c, 9, 51, 1071, 234118, Note_off_c, 3, 70, 691, 234118, Note_off_c, 9, 54, 931, 234119, Note_off_c, 6, 83, 891, 234119, Note_off_c, 9, 51, 1071, 234120, Note_on_c, 3, 75, 591, 234120, Note_on_c, 3, 68, 591, 234120, Note_on_c, 6, 82, 801, 234120, Note_on_c, 9, 54, 611, 234190, Note_off_c, 0, 73, 781, 234217, Note_off_c, 1, 32, 931, 234217, Note_off_c, 2, 44, 931, 234238, Note_off_c, 3, 75, 591, 234238, Note_off_c, 9, 54, 611, 234239, Note_off_c, 6, 82, 801, 234240, Note_on_c, 6, 87, 1021, 234240, Note_on_c, 9, 54, 871, 234240, Note_on_c, 9, 51, 891, 234243, Note_on_c, 0, 73, 971, 234358, Note_off_c, 3, 68, 591, 234358, Note_off_c, 9, 54, 871, 234359, Note_off_c, 6, 87, 1021, 234359, Note_off_c, 9, 36, 1071, 234359, Note_off_c, 9, 51, 891, 234360, Note_on_c, 6, 82, 761, 234360, Note_on_c, 9, 54, 581, 234361, Note_on_c, 3, 68, 721, 234419, Pitch_bend_c, 0, 8724
1, 234433, Pitch_bend_c, 0, 10486
1, 234448, Pitch_bend_c, 0, 12288
1, 234464, Pitch_bend_c, 0, 14254
1, 234478, Note_off_c, 3, 68, 721, 234478, Note_on_c, 3, 70, 651, 234478, Note_off_c, 9, 54, 581, 234479, Note_off_c, 6, 82, 761, 234480, Note_on_c, 1, 32, 1021, 234480, Note_on_c, 2, 44, 1021, 234480, Note_on_c, 6, 83, 981, 234480, Note_on_c, 9, 54, 931, 234480, Note_on_c, 9, 51, 981, 234480, Note_on_c, 9, 36, 931, 234510, Note_off_c, 0, 73, 971, 234596, Note_off_c, 3, 70, 651, 234598, Note_off_c, 9, 54, 931, 234599, Note_off_c, 6, 83, 981, 234599, Note_off_c, 9, 51, 981, 234599, Note_off_c, 9, 36, 931, 234600, Pitch_bend_c, 0, 8192
1, 234600, Note_on_c, 3, 68, 451, 234600, Note_on_c, 6, 82, 801, 234600, Note_on_c, 9, 54, 531, 234667, Note_off_c, 1, 32, 1021, 234667, Note_off_c, 2, 44, 1021, 234718, Note_off_c, 9, 54, 531, 234719, Note_off_c, 6, 82, 801, 234720, Note_on_c, 6, 80, 851, 234720, Note_on_c, 9, 54, 891, 234720, Note_on_c, 9, 38, 1131, 234720, Note_on_c, 9, 51, 1131, 234725, Note_on_c, 0, 73, 841, 234838, Note_off_c, 3, 68, 451, 234838, Note_off_c, 9, 54, 891, 234839, Note_off_c, 6, 80, 851, 234839, Note_off_c, 9, 51, 1131, 234840, Note_on_c, 3, 68, 741, 234840, Note_on_c, 6, 82, 851, 234840, Note_on_c, 9, 54, 631, 234899, Note_off_c, 0, 73, 841, 234958, Note_off_c, 3, 68, 741, 234958, Note_on_c, 3, 70, 611, 234958, Note_off_c, 9, 54, 631, 234959, Note_off_c, 6, 82, 851, 234960, Note_on_c, 1, 30, 931, 234960, Note_on_c, 2, 42, 931, 234960, Note_on_c, 6, 83, 931, 234960, Note_on_c, 9, 54, 821, 234960, Note_on_c, 9, 51, 931, 234961, Note_on_c, 0, 73, 1061, 235076, Note_off_c, 3, 70, 611, 235078, Note_off_c, 9, 54, 821, 235079, Note_off_c, 6, 83, 931, 235079, Note_off_c, 9, 38, 1131, 235079, Note_off_c, 9, 51, 931, 235080, Note_on_c, 3, 68, 411, 235080, Note_on_c, 6, 82, 801, 235080, Note_on_c, 9, 54, 581, 235122, Note_off_c, 0, 73, 1061, 235147, Note_off_c, 1, 30, 931, 235147, Note_off_c, 2, 42, 931, 235198, Note_off_c, 9, 54, 581, 235199, Note_off_c, 6, 82, 801, 235200, Note_on_c, 1, 32, 931, 235200, Note_on_c, 2, 44, 931, 235200, Note_on_c, 3, 75, 611, 235200, Note_on_c, 6, 87, 931, 235200, Note_on_c, 9, 54, 741, 235200, Note_on_c, 9, 51, 1021, 235200, Note_on_c, 9, 36, 891, 235204, Note_on_c, 0, 75, 941, 235318, Note_off_c, 3, 75, 611, 235318, Note_off_c, 3, 68, 411, 235318, Note_off_c, 9, 54, 741, 235319, Note_off_c, 6, 87, 931, 235319, Note_off_c, 9, 51, 1021, 235319, Note_off_c, 9, 36, 891, 235320, Note_on_c, 3, 68, 641, 235320, Note_on_c, 6, 82, 761, 235320, Note_on_c, 9, 54, 611, 235367, Note_off_c, 1, 32, 931, 235367, Note_off_c, 2, 44, 931, 235409, Note_off_c, 0, 75, 941, 235438, Note_on_c, 3, 70, 591, 235438, Note_off_c, 9, 54, 611, 235439, Note_off_c, 3, 68, 641, 235439, Note_off_c, 6, 82, 761, 235440, Note_on_c, 1, 32, 851, 235440, Note_on_c, 2, 44, 851, 235440, Note_on_c, 6, 83, 931, 235440, Note_on_c, 9, 54, 771, 235440, Note_on_c, 9, 51, 931, 235440, Note_on_c, 9, 36, 851, 235443, Note_on_c, 0, 75, 1161, 235557, Note_off_c, 3, 70, 591, 235558, Note_off_c, 9, 54, 771, 235559, Note_off_c, 6, 83, 931, 235559, Note_off_c, 9, 51, 931, 235559, Note_off_c, 9, 36, 851, 235560, Note_on_c, 3, 68, 511, 235560, Note_on_c, 6, 82, 721, 235560, Note_on_c, 9, 54, 571, 235627, Note_off_c, 1, 32, 851, 235627, Note_off_c, 2, 44, 851, 235678, Note_off_c, 9, 54, 571, 235679, Note_off_c, 6, 82, 721, 235680, Note_on_c, 1, 30, 891, 235680, Note_on_c, 2, 42, 891, 235680, Note_on_c, 6, 80, 801, 235680, Note_on_c, 9, 54, 971, 235680, Note_on_c, 9, 38, 1071, 235680, Note_on_c, 9, 51, 891, 235798, Note_off_c, 3, 68, 511, 235798, Note_off_c, 9, 54, 971, 235799, Note_off_c, 6, 80, 801, 235799, Note_off_c, 9, 38, 1071, 235799, Note_off_c, 9, 51, 891, 235800, Note_on_c, 6, 82, 761, 235800, Note_on_c, 9, 54, 551, 235801, Note_on_c, 3, 68, 671, 235842, Note_off_c, 0, 75, 1161, 235886, Note_off_c, 1, 30, 891, 235886, Note_off_c, 2, 42, 891, 235918, Note_off_c, 9, 54, 551, 235919, Note_off_c, 3, 68, 671, 235919, Note_off_c, 6, 82, 761, 235920, Note_on_c, 0, 75, 1101, 235920, Note_on_c, 1, 32, 981, 235920, Note_on_c, 2, 44, 981, 235920, Note_on_c, 6, 83, 851, 235920, Note_on_c, 9, 54, 931, 235920, Note_on_c, 9, 36, 981, 235920, Note_on_c, 9, 51, 931, 235921, Note_on_c, 3, 70, 421, 236038, Note_off_c, 9, 54, 931, 236039, Note_off_c, 3, 70, 421, 236039, Note_off_c, 6, 83, 851, 236039, Note_off_c, 9, 51, 931, 236040, Note_on_c, 3, 75, 531, 236040, Note_on_c, 3, 68, 481, 236040, Note_on_c, 6, 82, 761, 236040, Note_on_c, 9, 54, 611, 236107, Note_off_c, 1, 32, 981, 236107, Note_off_c, 2, 44, 981, 236158, Note_off_c, 3, 75, 531, 236158, Note_off_c, 9, 54, 611, 236159, Note_off_c, 6, 82, 761, 236160, Note_on_c, 6, 87, 931, 236160, Note_on_c, 9, 54, 871, 236160, Note_on_c, 9, 51, 931, 236278, Note_off_c, 3, 68, 481, 236278, Note_off_c, 9, 54, 871, 236279, Note_off_c, 6, 87, 931, 236279, Note_off_c, 9, 36, 981, 236279, Note_off_c, 9, 51, 931, 236280, Note_on_c, 6, 82, 801, 236280, Note_on_c, 9, 54, 581, 236281, Note_on_c, 3, 68, 551, 236347, Pitch_bend_c, 0, 7840
1, 236362, Pitch_bend_c, 0, 7372
1, 236377, Pitch_bend_c, 0, 6670
1, 236392, Pitch_bend_c, 0, 5851
1, 236398, Note_off_c, 9, 54, 581, 236399, Note_off_c, 6, 82, 801, 236400, Note_on_c, 1, 32, 931, 236400, Note_on_c, 2, 44, 931, 236400, Note_off_c, 3, 68, 551, 236400, Note_on_c, 3, 70, 461, 236400, Note_on_c, 6, 83, 931, 236400, Note_on_c, 9, 54, 931, 236400, Note_on_c, 9, 36, 931, 236400, Note_on_c, 9, 51, 981, 236408, Pitch_bend_c, 0, 5149
1, 236423, Pitch_bend_c, 0, 4447
1, 236438, Pitch_bend_c, 0, 3628
1, 236444, Note_off_c, 0, 75, 1101, 236454, Pitch_bend_c, 0, 2575
1, 236469, Pitch_bend_c, 0, 1639
1, 236486, Pitch_bend_c, 0, 937
1, 236499, Pitch_bend_c, 0, 352
1, 236514, Pitch_bend_c, 0, 118
1, 236518, Note_off_c, 9, 54, 931, 236519, Note_off_c, 3, 70, 461, 236519, Note_off_c, 6, 83, 931, 236519, Note_off_c, 9, 36, 931, 236519, Note_off_c, 9, 51, 981, 236520, Note_on_c, 3, 68, 521, 236520, Note_on_c, 6, 82, 851, 236520, Note_on_c, 9, 54, 531, 236587, Note_off_c, 1, 32, 931, 236587, Note_off_c, 2, 44, 931, 236638, Note_off_c, 9, 54, 531, 236639, Note_off_c, 6, 82, 851, 236640, Pitch_bend_c, 0, 8192
1, 236640, Note_on_c, 6, 80, 891, 236640, Note_on_c, 9, 54, 891, 236640, Note_on_c, 9, 38, 1131, 236640, Note_on_c, 9, 51, 1131, 236758, Note_off_c, 3, 68, 521, 236758, Note_off_c, 9, 54, 891, 236759, Note_off_c, 6, 80, 891, 236759, Note_off_c, 9, 38, 1131, 236759, Note_off_c, 9, 51, 1131, 236760, Note_on_c, 3, 68, 651, 236760, Note_on_c, 6, 82, 851, 236760, Note_on_c, 9, 54, 631, 236878, Note_off_c, 3, 68, 651, 236878, Note_on_c, 3, 70, 611, 236878, Note_off_c, 9, 54, 631, 236879, Note_on_c, 0, 76, 1061, 236879, Note_off_c, 6, 82, 851, 236880, Note_on_c, 1, 32, 891, 236880, Note_on_c, 2, 44, 891, 236880, Note_on_c, 6, 83, 931, 236880, Note_on_c, 9, 54, 821, 236880, Note_on_c, 9, 38, 601, 236881, Note_on_c, 9, 57, 1071, 236995, Note_off_c, 3, 70, 611, 236998, Note_off_c, 9, 54, 821, 236999, Note_off_c, 6, 83, 931, 236999, Note_off_c, 9, 38, 601, 237000, Note_on_c, 3, 68, 501, 237000, Note_on_c, 6, 82, 931, 237000, Note_off_c, 9, 57, 1071, 237000, Note_on_c, 9, 54, 581, 237062, Control_c, 6, 64, 0
1, 237077, Note_off_c, 1, 32, 891, 237077, Note_off_c, 2, 44, 891, 237118, Note_off_c, 3, 68, 501, 237118, Note_off_c, 9, 54, 581, 237119, Note_off_c, 6, 82, 931, 237119, Note_on_c, 9, 51, 931, 237120, Note_on_c, 1, 33, 1071, 237120, Note_on_c, 2, 45, 1071, 237120, Note_on_c, 3, 76, 561, 237120, Note_on_c, 6, 88, 1131, 237120, Note_on_c, 9, 54, 741, 237120, Note_on_c, 9, 36, 1131, 237223, Control_c, 6, 64, 127
1, 237238, Note_off_c, 3, 76, 561, 237238, Note_off_c, 9, 54, 741, 237238, Note_off_c, 9, 51, 931, 237239, Note_off_c, 6, 88, 1131, 237240, Note_on_c, 6, 83, 931, 237240, Note_on_c, 9, 54, 611, 237241, Note_on_c, 3, 69, 611, 237262, Note_off_c, 0, 76, 1061, 237298, Note_off_c, 1, 33, 1071, 237298, Note_off_c, 2, 45, 1071, 237358, Note_off_c, 9, 54, 611, 237359, Note_off_c, 3, 69, 611, 237359, Note_on_c, 3, 71, 671, 237359, Note_off_c, 6, 83, 931, 237360, Note_on_c, 1, 33, 931, 237360, Note_on_c, 2, 45, 931, 237360, Note_on_c, 6, 85, 891, 237360, Note_on_c, 9, 54, 771, 237360, Note_on_c, 9, 51, 981, 237375, Note_on_c, 0, 76, 1091, 237478, Note_off_c, 3, 71, 671, 237478, Note_off_c, 9, 54, 771, 237479, Note_off_c, 6, 85, 891, 237479, Note_off_c, 9, 36, 1131, 237479, Note_off_c, 9, 51, 981, 237480, Note_on_c, 3, 69, 571, 237480, Note_on_c, 6, 83, 851, 237480, Note_on_c, 9, 54, 571, 237566, Note_off_c, 1, 33, 931, 237566, Note_off_c, 2, 45, 931, 237575, Note_off_c, 0, 76, 1091, 237598, Note_off_c, 9, 54, 571, 237599, Note_off_c, 6, 83, 851, 237600, Note_on_c, 1, 32, 761, 237600, Note_on_c, 2, 44, 761, 237600, Note_on_c, 6, 81, 891, 237600, Note_on_c, 9, 54, 971, 237600, Note_on_c, 9, 38, 1071, 237600, Note_on_c, 9, 51, 931, 237603, Note_on_c, 0, 76, 1091, 237718, Note_off_c, 3, 69, 571, 237718, Note_off_c, 9, 54, 971, 237719, Note_off_c, 6, 81, 891, 237719, Note_off_c, 9, 38, 1071, 237719, Note_off_c, 9, 51, 931, 237720, Note_on_c, 6, 83, 761, 237720, Note_on_c, 9, 54, 551, 237721, Note_on_c, 3, 69, 751, 237802, Note_off_c, 0, 76, 1091, 237816, Note_off_c, 1, 32, 761, 237816, Note_off_c, 2, 44, 761, 237838, Note_off_c, 9, 54, 551, 237839, Note_off_c, 3, 69, 751, 237839, Note_off_c, 6, 83, 761, 237840, Note_on_c, 1, 33, 1071, 237840, Note_on_c, 2, 45, 1071, 237840, Note_on_c, 3, 71, 691, 237840, Note_on_c, 6, 85, 1021, 237840, Note_on_c, 9, 54, 931, 237840, Note_on_c, 9, 36, 981, 237840, Note_on_c, 9, 51, 1071, 237845, Note_on_c, 0, 76, 1061, 237958, Note_off_c, 3, 71, 691, 237958, Note_off_c, 9, 54, 931, 237959, Note_off_c, 6, 85, 1021, 237959, Note_off_c, 9, 51, 1071, 237960, Note_on_c, 3, 76, 591, 237960, Note_on_c, 3, 69, 591, 237960, Note_on_c, 6, 83, 851, 237960, Note_on_c, 9, 54, 611, 238027, Note_off_c, 1, 33, 1071, 238027, Note_off_c, 2, 45, 1071, 238078, Note_off_c, 3, 76, 591, 238078, Note_off_c, 9, 54, 611, 238079, Note_off_c, 6, 83, 851, 238080, Note_on_c, 6, 88, 1021, 238080, Note_on_c, 9, 54, 871, 238080, Note_on_c, 9, 51, 891, 238198, Note_off_c, 3, 69, 591, 238198, Note_off_c, 9, 54, 871, 238199, Note_off_c, 6, 88, 1021, 238199, Note_off_c, 9, 36, 981, 238199, Note_off_c, 9, 51, 891, 238200, Pitch_bend_c, 0, 7138
1, 238200, Note_on_c, 6, 83, 891, 238200, Note_on_c, 9, 54, 581, 238201, Note_on_c, 3, 69, 721, 238215, Pitch_bend_c, 0, 5851
1, 238217, Note_off_c, 0, 76, 1061, 238230, Pitch_bend_c, 0, 4447
1, 238246, Pitch_bend_c, 0, 3043
1, 238260, Pitch_bend_c, 0, 1756
1, 238275, Pitch_bend_c, 0, 586
1, 238290, Pitch_bend_c, 0, 0
1, 238318, Note_off_c, 3, 69, 721, 238318, Note_on_c, 3, 71, 651, 238318, Note_off_c, 9, 54, 581, 238319, Note_off_c, 6, 83, 891, 238320, Pitch_bend_c, 0, 8192
1, 238320, Note_on_c, 0, 76, 1061, 238320, Note_on_c, 1, 33, 1071, 238320, Note_on_c, 2, 45, 1071, 238320, Note_on_c, 6, 85, 1021, 238320, Note_on_c, 9, 54, 931, 238320, Note_on_c, 9, 51, 891, 238320, Note_on_c, 9, 36, 801, 238436, Note_off_c, 3, 71, 651, 238438, Note_off_c, 9, 54, 931, 238439, Note_off_c, 6, 85, 1021, 238439, Note_off_c, 9, 51, 891, 238439, Note_off_c, 9, 36, 801, 238440, Note_on_c, 3, 69, 451, 238440, Note_on_c, 6, 83, 801, 238440, Note_on_c, 9, 54, 531, 238536, Note_off_c, 1, 33, 1071, 238536, Note_off_c, 2, 45, 1071, 238558, Note_off_c, 9, 54, 531, 238559, Note_off_c, 6, 83, 801, 238560, Note_on_c, 6, 81, 891, 238560, Note_on_c, 9, 54, 891, 238560, Note_on_c, 9, 38, 1071, 238560, Note_on_c, 9, 51, 1021, 238678, Note_off_c, 3, 69, 451, 238678, Note_off_c, 9, 54, 891, 238679, Note_off_c, 6, 81, 891, 238679, Note_off_c, 9, 51, 1021, 238680, Note_on_c, 3, 69, 741, 238680, Note_on_c, 6, 83, 851, 238680, Note_on_c, 9, 54, 631, 238745, Note_off_c, 0, 76, 1061, 238798, Note_off_c, 3, 69, 741, 238798, Note_on_c, 3, 71, 611, 238798, Note_off_c, 9, 54, 631, 238799, Note_on_c, 0, 76, 1091, 238799, Note_off_c, 6, 83, 851, 238800, Note_on_c, 1, 32, 801, 238800, Note_on_c, 2, 44, 801, 238800, Note_on_c, 6, 85, 1021, 238800, Note_on_c, 9, 54, 821, 238800, Note_on_c, 9, 51, 851, 238916, Note_off_c, 3, 71, 611, 238918, Note_off_c, 9, 54, 821, 238919, Note_off_c, 6, 85, 1021, 238919, Note_off_c, 9, 38, 1071, 238919, Note_off_c, 9, 51, 851, 238920, Note_on_c, 3, 69, 411, 238920, Note_on_c, 6, 83, 761, 238920, Note_on_c, 9, 54, 581, 238997, Note_off_c, 1, 32, 801, 238997, Note_off_c, 2, 44, 801, 239038, Note_off_c, 9, 54, 581, 239039, Note_off_c, 6, 83, 761, 239040, Note_on_c, 1, 33, 1021, 239040, Note_on_c, 2, 45, 1021, 239040, Note_on_c, 3, 76, 611, 239040, Note_on_c, 6, 88, 1071, 239040, Note_on_c, 9, 54, 741, 239040, Note_on_c, 9, 51, 1021, 239040, Note_on_c, 9, 36, 981, 239158, Note_off_c, 3, 76, 611, 239158, Note_off_c, 3, 69, 411, 239158, Note_off_c, 9, 54, 741, 239159, Note_off_c, 6, 88, 1071, 239159, Note_off_c, 9, 51, 1021, 239159, Note_off_c, 9, 36, 981, 239160, Note_on_c, 3, 69, 641, 239160, Note_on_c, 6, 83, 801, 239160, Note_on_c, 9, 54, 611, 239188, Note_off_c, 1, 33, 1021, 239188, Note_off_c, 2, 45, 1021, 239194, Note_off_c, 0, 76, 1091, 239278, Note_on_c, 3, 71, 591, 239278, Note_off_c, 9, 54, 611, 239279, Note_off_c, 3, 69, 641, 239279, Note_off_c, 6, 83, 801, 239280, Note_on_c, 1, 33, 891, 239280, Note_on_c, 2, 45, 891, 239280, Note_on_c, 6, 85, 1021, 239280, Note_on_c, 9, 54, 771, 239280, Note_on_c, 9, 36, 851, 239280, Note_on_c, 9, 51, 931, 239287, Note_on_c, 0, 76, 1061, 239397, Note_off_c, 3, 71, 591, 239398, Note_off_c, 9, 54, 771, 239399, Note_off_c, 6, 85, 1021, 239399, Note_off_c, 9, 36, 851, 239399, Note_off_c, 9, 51, 931, 239400, Note_on_c, 3, 69, 511, 239400, Note_on_c, 6, 83, 761, 239400, Note_on_c, 9, 54, 571, 239447, Note_off_c, 1, 33, 891, 239447, Note_off_c, 2, 45, 891, 239518, Note_off_c, 9, 54, 571, 239519, Note_off_c, 6, 83, 761, 239520, Note_on_c, 1, 32, 891, 239520, Note_on_c, 2, 44, 891, 239520, Note_on_c, 6, 81, 891, 239520, Note_on_c, 9, 54, 971, 239520, Note_on_c, 9, 38, 1071, 239520, Note_on_c, 9, 51, 1071, 239633, Note_off_c, 0, 76, 1061, 239638, Note_off_c, 3, 69, 511, 239638, Note_off_c, 9, 54, 971, 239639, Note_off_c, 6, 81, 891, 239639, Note_off_c, 9, 38, 1071, 239639, Note_off_c, 9, 51, 1071, 239640, Note_on_c, 6, 83, 761, 239640, Note_on_c, 9, 54, 551, 239641, Note_on_c, 3, 69, 671, 239697, Note_off_c, 1, 32, 891, 239697, Note_off_c, 2, 44, 891, 239757, Note_on_c, 0, 76, 1061, 239758, Note_off_c, 9, 54, 551, 239759, Note_off_c, 3, 69, 671, 239759, Note_off_c, 6, 83, 761, 239760, Note_on_c, 1, 33, 1071, 239760, Note_on_c, 2, 45, 1071, 239760, Note_on_c, 6, 85, 981, 239760, Note_on_c, 9, 54, 931, 239760, Note_on_c, 9, 36, 1071, 239760, Note_on_c, 9, 51, 1071, 239761, Note_on_c, 3, 71, 421, 239878, Note_off_c, 9, 54, 931, 239879, Note_off_c, 3, 71, 421, 239879, Note_off_c, 6, 85, 981, 239879, Note_off_c, 9, 51, 1071, 239880, Note_on_c, 3, 76, 531, 239880, Note_on_c, 3, 69, 481, 239880, Note_on_c, 6, 83, 761, 239880, Note_on_c, 9, 54, 611, 239956, Note_off_c, 1, 33, 1071, 239956, Note_off_c, 2, 45, 1071, 239998, Note_off_c, 3, 76, 531, 239998, Note_off_c, 9, 54, 611, 239999, Note_off_c, 6, 83, 761, 240000, Note_on_c, 6, 88, 1021, 240000, Note_on_c, 9, 54, 871, 240000, Note_on_c, 9, 51, 931, 240118, Note_off_c, 3, 69, 481, 240118, Note_off_c, 9, 54, 871, 240119, Note_off_c, 6, 88, 1021, 240119, Note_off_c, 9, 36, 1071, 240119, Note_off_c, 9, 51, 931, 240120, Note_on_c, 6, 83, 891, 240120, Note_on_c, 9, 54, 581, 240121, Note_on_c, 3, 69, 551, 240193, Note_off_c, 0, 76, 1061, 240238, Note_off_c, 9, 54, 581, 240239, Note_off_c, 6, 83, 891, 240240, Note_on_c, 1, 33, 931, 240240, Note_on_c, 2, 45, 931, 240240, Note_off_c, 3, 69, 551, 240240, Note_on_c, 3, 71, 461, 240240, Note_on_c, 6, 85, 931, 240240, Note_on_c, 9, 54, 931, 240240, Note_on_c, 9, 36, 981, 240240, Note_on_c, 9, 51, 1021, 240358, Note_off_c, 9, 54, 931, 240359, Note_off_c, 3, 71, 461, 240359, Note_off_c, 6, 85, 931, 240359, Note_off_c, 9, 36, 981, 240359, Note_off_c, 9, 51, 1021, 240360, Note_on_c, 3, 69, 521, 240360, Note_on_c, 6, 83, 851, 240360, Note_on_c, 9, 54, 531, 240456, Note_off_c, 1, 33, 931, 240456, Note_off_c, 2, 45, 931, 240478, Note_off_c, 9, 54, 531, 240479, Note_off_c, 6, 83, 851, 240480, Note_on_c, 6, 81, 801, 240480, Note_on_c, 9, 54, 891, 240480, Note_on_c, 9, 38, 1131, 240480, Note_on_c, 9, 51, 1131, 240482, Note_on_c, 0, 80, 1251, 240598, Note_off_c, 3, 69, 521, 240598, Note_off_c, 9, 54, 891, 240599, Note_off_c, 6, 81, 801, 240599, Note_off_c, 9, 51, 1131, 240600, Note_on_c, 3, 69, 651, 240600, Note_on_c, 6, 83, 761, 240600, Note_on_c, 9, 54, 631, 240664, Note_off_c, 0, 80, 1251, 240718, Note_off_c, 3, 69, 651, 240718, Note_on_c, 3, 71, 611, 240718, Note_off_c, 9, 54, 631, 240719, Note_off_c, 6, 83, 761, 240720, Note_on_c, 1, 33, 981, 240720, Note_on_c, 2, 45, 981, 240720, Note_on_c, 6, 85, 1071, 240720, Note_on_c, 9, 54, 821, 240720, Note_on_c, 9, 51, 1021, 240728, Note_on_c, 0, 80, 1211, 240835, Note_off_c, 3, 71, 611, 240838, Note_off_c, 9, 54, 821, 240839, Note_off_c, 6, 85, 1071, 240839, Note_off_c, 9, 38, 1131, 240839, Note_off_c, 9, 51, 1021, 240840, Note_on_c, 3, 69, 501, 240840, Note_on_c, 6, 83, 851, 240840, Note_on_c, 9, 54, 581, 240946, Note_off_c, 1, 33, 981, 240946, Note_off_c, 2, 45, 981, 240958, Note_off_c, 3, 69, 501, 240958, Note_off_c, 9, 54, 581, 240959, Control_c, 6, 64, 0
1, 240959, Note_off_c, 6, 83, 851, 240960, Note_on_c, 1, 28, 851, 240960, Note_on_c, 2, 40, 851, 240960, Note_on_c, 6, 83, 1071, 240960, Note_on_c, 6, 80, 1071, 240960, Note_on_c, 9, 54, 741, 240960, Note_on_c, 9, 38, 1271, 240960, Note_on_c, 9, 40, 721, 241078, Note_off_c, 9, 54, 741, 241079, Note_off_c, 6, 83, 1071, 241079, Note_off_c, 6, 80, 1071, 241079, Note_off_c, 9, 38, 1271, 241079, Note_off_c, 9, 40, 721, 241080, Note_on_c, 6, 76, 891, 241080, Note_on_c, 9, 54, 611, 241080, Note_on_c, 9, 38, 1131, 241198, Note_off_c, 9, 54, 611, 241199, Note_off_c, 6, 76, 891, 241199, Note_off_c, 9, 38, 1131, 241200, Note_on_c, 6, 80, 891, 241200, Note_on_c, 6, 83, 851, 241200, Note_on_c, 9, 54, 771, 241318, Note_off_c, 9, 54, 771, 241319, Note_off_c, 6, 80, 891, 241319, Note_off_c, 6, 83, 851, 241320, Note_on_c, 6, 76, 1071, 241320, Note_on_c, 9, 54, 571, 241320, Note_on_c, 9, 43, 1071, 241438, Note_off_c, 9, 54, 571, 241439, Note_off_c, 6, 76, 1071, 241439, Note_off_c, 9, 43, 1071, 241440, Note_on_c, 6, 80, 1021, 241440, Note_on_c, 6, 83, 981, 241440, Note_on_c, 9, 54, 971, 241440, Note_on_c, 9, 41, 1131, 241440, Note_on_c, 9, 43, 931, 241558, Note_off_c, 9, 54, 971, 241559, Note_off_c, 6, 80, 1021, 241559, Note_off_c, 6, 83, 981, 241559, Note_off_c, 9, 41, 1131, 241559, Note_off_c, 9, 43, 931, 241560, Note_on_c, 9, 54, 551, 241629, Note_off_c, 1, 28, 851, 241629, Note_off_c, 2, 40, 851, 241678, Note_off_c, 9, 54, 551, 241680, Note_on_c, 1, 40, 1131, 241680, Note_on_c, 2, 52, 1131, 241680, Note_on_c, 6, 80, 1021, 241680, Note_on_c, 6, 83, 1021, 241680, Note_on_c, 9, 54, 931, 241680, Note_on_c, 9, 36, 1131, 241680, Note_on_c, 9, 49, 1271, 241798, Note_off_c, 9, 54, 931, 241799, Note_off_c, 6, 80, 1021, 241799, Note_off_c, 6, 83, 1021, 241799, Note_off_c, 9, 49, 1271, 241800, Note_on_c, 6, 76, 1021, 241800, Note_on_c, 9, 54, 611, 241918, Note_off_c, 9, 54, 611, 241919, Note_off_c, 6, 76, 1021, 241920, Note_on_c, 6, 80, 981, 241920, Note_on_c, 6, 83, 931, 241920, Note_on_c, 9, 54, 871, 242038, Note_off_c, 9, 54, 871, 242039, Note_off_c, 6, 80, 981, 242039, Note_off_c, 6, 83, 931, 242040, Note_on_c, 6, 76, 1071, 242040, Note_on_c, 9, 54, 581, 242158, Note_off_c, 9, 54, 581, 242159, Note_off_c, 6, 76, 1071, 242160, Note_on_c, 6, 80, 1071, 242160, Note_on_c, 6, 83, 1071, 242160, Note_on_c, 9, 54, 931, 242278, Note_off_c, 9, 54, 931, 242279, Note_off_c, 6, 80, 1071, 242279, Note_off_c, 6, 83, 1071, 242279, Note_off_c, 9, 36, 1131, 242280, Note_on_c, 9, 54, 531, 242398, Note_off_c, 9, 54, 531, 242400, Note_on_c, 6, 83, 1131, 242400, Note_on_c, 6, 80, 1071, 242400, Note_on_c, 9, 54, 891, 242400, Note_on_c, 9, 38, 1131, 242400, Note_on_c, 9, 51, 1191, 242518, Note_off_c, 9, 54, 891, 242519, Note_off_c, 9, 51, 1191, 242520, Note_on_c, 9, 54, 631, 242638, Note_off_c, 9, 54, 631, 242639, Note_off_c, 9, 38, 1131, 242640, Note_on_c, 6, 76, 1021, 242640, Note_on_c, 9, 54, 821, 242640, Note_on_c, 9, 51, 981, 242758, Note_off_c, 9, 54, 821, 242759, Note_off_c, 6, 83, 1131, 242759, Note_off_c, 6, 80, 1071, 242759, Note_off_c, 9, 51, 981, 242760, Note_on_c, 9, 54, 581, 242782, Note_off_c, 1, 40, 1131, 242782, Note_off_c, 2, 52, 1131, 242878, Note_off_c, 9, 54, 581, 242879, Note_off_c, 6, 76, 1021, 242880, Note_on_c, 1, 28, 1021, 242880, Note_on_c, 2, 40, 1021, 242880, Note_on_c, 6, 82, 1071, 242880, Note_on_c, 6, 80, 1071, 242880, Note_on_c, 9, 54, 741, 242880, Note_on_c, 9, 41, 1271, 242998, Note_off_c, 9, 54, 741, 242999, Note_off_c, 6, 82, 1071, 242999, Note_off_c, 6, 80, 1071, 242999, Note_off_c, 9, 41, 1271, 243000, Note_on_c, 6, 76, 1021, 243000, Note_on_c, 9, 54, 611, 243000, Note_on_c, 9, 36, 1131, 243042, Pitch_bend_c, 0, 7840
1, 243056, Pitch_bend_c, 0, 7021
1, 243071, Pitch_bend_c, 0, 5617
1, 243087, Pitch_bend_c, 0, 3862
1, 243101, Pitch_bend_c, 0, 1756
1, 243112, Note_off_c, 0, 80, 1211, 243117, Pitch_bend_c, 0, 0
1, 243118, Note_off_c, 9, 54, 611, 243119, Note_off_c, 6, 76, 1021, 243119, Note_off_c, 9, 36, 1131, 243120, Note_on_c, 6, 80, 801, 243120, Note_on_c, 6, 82, 801, 243120, Note_on_c, 9, 54, 771, 243238, Note_off_c, 9, 54, 771, 243239, Pitch_bend_c, 0, 937
1, 243239, Note_off_c, 6, 80, 801, 243239, Note_off_c, 6, 82, 801, 243240, Note_on_c, 6, 76, 1021, 243240, Note_on_c, 9, 54, 571, 243240, Note_on_c, 9, 38, 981, 243254, Pitch_bend_c, 0, 2926
1, 243269, Pitch_bend_c, 0, 5617
1, 243286, Pitch_bend_c, 0, 8192
1, 243358, Note_off_c, 9, 54, 571, 243359, Note_off_c, 9, 38, 981, 243360, Note_on_c, 6, 80, 981, 243360, Note_on_c, 6, 82, 981, 243360, Note_on_c, 9, 54, 971, 243360, Note_on_c, 9, 38, 1071, 243478, Note_off_c, 9, 54, 971, 243479, Note_off_c, 6, 80, 981, 243479, Note_off_c, 6, 82, 981, 243479, Note_off_c, 9, 38, 1071, 243480, Note_on_c, 9, 54, 551, 243549, Note_off_c, 1, 28, 1021, 243549, Note_off_c, 2, 40, 1021, 243598, Note_off_c, 9, 54, 551, 243599, Note_off_c, 6, 76, 1021, 243600, Note_on_c, 1, 40, 981, 243600, Note_on_c, 2, 52, 981, 243600, Note_on_c, 6, 82, 981, 243600, Note_on_c, 6, 80, 891, 243600, Note_on_c, 9, 54, 931, 243600, Note_on_c, 9, 36, 1191, 243600, Note_on_c, 9, 57, 1271, 243718, Note_off_c, 9, 54, 931, 243719, Note_off_c, 6, 82, 981, 243719, Note_off_c, 6, 80, 891, 243719, Note_off_c, 9, 36, 1191, 243719, Note_off_c, 9, 57, 1271, 243720, Note_on_c, 6, 76, 981, 243720, Note_on_c, 9, 54, 611, 243838, Note_off_c, 9, 54, 611, 243839, Note_off_c, 6, 76, 981, 243840, Note_on_c, 6, 80, 981, 243840, Note_on_c, 6, 82, 931, 243840, Note_on_c, 9, 54, 871, 243958, Note_off_c, 9, 54, 871, 243959, Note_off_c, 6, 80, 981, 243959, Note_off_c, 6, 82, 931, 243960, Note_on_c, 6, 76, 981, 243960, Note_on_c, 9, 54, 581, 243960, Note_on_c, 9, 38, 1191, 244078, Note_off_c, 9, 54, 581, 244079, Note_off_c, 9, 38, 1191, 244080, Note_on_c, 6, 80, 981, 244080, Note_on_c, 6, 82, 981, 244080, Note_on_c, 9, 54, 931, 244080, Note_on_c, 9, 45, 1271, 244198, Note_off_c, 9, 54, 931, 244199, Note_off_c, 6, 80, 981, 244199, Note_off_c, 6, 82, 981, 244199, Note_off_c, 9, 45, 1271, 244200, Note_on_c, 9, 54, 531, 244318, Note_off_c, 9, 54, 531, 244319, Note_off_c, 6, 76, 981, 244320, Note_on_c, 6, 80, 1071, 244320, Note_on_c, 6, 82, 1071, 244320, Note_on_c, 9, 54, 891, 244320, Note_on_c, 9, 43, 1021, 244320, Note_on_c, 9, 45, 1021, 244438, Note_off_c, 9, 54, 891, 244439, Note_off_c, 9, 43, 1021, 244439, Note_off_c, 9, 45, 1021, 244440, Note_on_c, 9, 54, 631, 244440, Note_on_c, 9, 41, 1131, 244558, Note_off_c, 9, 54, 631, 244559, Note_off_c, 6, 80, 1071, 244559, Note_off_c, 6, 82, 1071, 244559, Note_off_c, 9, 41, 1131, 244560, Note_on_c, 6, 76, 1071, 244560, Note_on_c, 9, 54, 821, 244560, Note_on_c, 9, 41, 1131, 244678, Note_off_c, 9, 54, 821, 244679, Note_off_c, 9, 41, 1131, 244680, Note_on_c, 9, 54, 581, 244692, Note_off_c, 1, 40, 981, 244692, Note_off_c, 2, 52, 981, 244798, Note_off_c, 9, 54, 581, 244799, Note_off_c, 6, 76, 1071, 244800, Note_on_c, 1, 39, 1131, 244800, Note_on_c, 6, 82, 1071, 244800, Note_on_c, 6, 87, 981, 244800, Note_on_c, 9, 54, 741, 244800, Note_on_c, 9, 36, 1071, 244800, Note_on_c, 9, 49, 1191, 244805, Note_on_c, 2, 39, 1131, 244809, Note_on_c, 0, 70, 1131, 244888, Note_off_c, 1, 39, 1131, 244910, Note_off_c, 2, 39, 1131, 244918, Note_off_c, 9, 54, 741, 244919, Note_off_c, 6, 82, 1071, 244919, Note_off_c, 6, 87, 981, 244919, Note_off_c, 9, 49, 1191, 244920, Note_on_c, 1, 39, 851, 244920, Note_on_c, 6, 80, 931, 244920, Note_on_c, 9, 54, 611, 244923, Note_on_c, 2, 46, 1041, 245018, Note_off_c, 1, 39, 851, 245027, Note_off_c, 2, 46, 1041, 245038, Note_off_c, 9, 54, 611, 245039, Note_off_c, 6, 80, 931, 245040, Note_on_c, 6, 79, 891, 245040, Note_on_c, 9, 54, 771, 245040, Note_on_c, 9, 42, 1271, 245048, Note_on_c, 2, 39, 841, 245072, Note_off_c, 0, 70, 1131, 245117, Note_on_c, 0, 70, 991, 245150, Note_off_c, 2, 39, 841, 245158, Note_off_c, 9, 54, 771, 245159, Note_off_c, 6, 79, 891, 245159, Note_off_c, 9, 36, 1071, 245159, Note_off_c, 9, 42, 1271, 245160, Note_on_c, 1, 39, 931, 245160, Note_on_c, 6, 80, 851, 245160, Note_on_c, 9, 54, 571, 245161, Note_on_c, 2, 46, 991, 245219, Note_off_c, 1, 39, 931, 245260, Note_off_c, 2, 46, 991, 245278, Note_off_c, 9, 54, 571, 245279, Note_off_c, 6, 80, 851, 245280, Note_on_c, 1, 39, 981, 245280, Note_on_c, 6, 79, 801, 245280, Note_on_c, 9, 54, 971, 245280, Note_on_c, 9, 38, 1131, 245280, Note_on_c, 9, 42, 1271, 245281, Note_on_c, 2, 51, 1031, 245378, Note_off_c, 1, 39, 981, 245379, Note_off_c, 0, 70, 991, 245398, Note_off_c, 9, 54, 971, 245399, Note_off_c, 6, 79, 801, 245399, Note_off_c, 9, 42, 1271, 245400, Note_on_c, 6, 80, 801, 245400, Note_on_c, 9, 54, 551, 245449, Note_on_c, 0, 70, 1051, 245511, Note_off_c, 2, 51, 1031, 245518, Note_off_c, 9, 54, 551, 245519, Note_off_c, 6, 80, 801, 245519, Note_off_c, 9, 38, 1131, 245520, Note_on_c, 1, 39, 981, 245520, Note_on_c, 6, 79, 931, 245520, Note_on_c, 9, 54, 931, 245520, Note_on_c, 9, 42, 1271, 245531, Note_on_c, 2, 39, 1041, 245579, Note_off_c, 1, 39, 981, 245635, Note_off_c, 2, 39, 1041, 245638, Note_off_c, 9, 54, 931, 245639, Note_off_c, 6, 79, 931, 245639, Note_off_c, 9, 42, 1271, 245640, Note_on_c, 1, 39, 1071, 245640, Note_on_c, 6, 80, 891, 245640, Note_on_c, 9, 54, 611, 245640, Note_on_c, 9, 36, 1071, 245645, Note_on_c, 2, 46, 1101, 245722, Note_off_c, 0, 70, 1051, 245738, Note_off_c, 1, 39, 1071, 245758, Note_off_c, 9, 54, 611, 245759, Note_off_c, 6, 80, 891, 245759, Note_off_c, 9, 36, 1071, 245760, Note_on_c, 6, 82, 1021, 245760, Note_on_c, 6, 87, 931, 245760, Note_on_c, 9, 54, 871, 245760, Note_on_c, 9, 42, 1271, 245763, Note_off_c, 2, 46, 1101, 245771, Note_on_c, 2, 39, 1041, 245777, Note_on_c, 0, 70, 1131, 245878, Note_off_c, 9, 54, 871, 245879, Note_off_c, 6, 82, 1021, 245879, Note_off_c, 6, 87, 931, 245879, Note_off_c, 9, 42, 1271, 245880, Note_on_c, 1, 39, 981, 245880, Note_on_c, 6, 80, 851, 245880, Note_on_c, 9, 54, 581, 245880, Note_on_c, 9, 36, 801, 245890, Note_off_c, 2, 39, 1041, 245891, Note_on_c, 2, 46, 971, 245939, Note_off_c, 1, 39, 981, 245996, Note_off_c, 0, 70, 1131, 245998, Note_off_c, 2, 46, 971, 245998, Note_off_c, 9, 54, 581, 245999, Note_off_c, 6, 80, 851, 245999, Note_off_c, 9, 36, 801, 246000, Note_on_c, 1, 39, 1071, 246000, Note_on_c, 6, 79, 891, 246000, Note_on_c, 9, 54, 931, 246000, Note_on_c, 9, 36, 931, 246000, Note_on_c, 9, 42, 1271, 246009, Note_on_c, 2, 39, 1041, 246118, Note_off_c, 1, 39, 1071, 246118, Note_off_c, 9, 54, 931, 246119, Note_off_c, 6, 79, 891, 246119, Note_off_c, 9, 36, 931, 246119, Note_off_c, 9, 42, 1271, 246120, Note_on_c, 6, 80, 801, 246120, Note_on_c, 9, 54, 531, 246123, Note_off_c, 2, 39, 1041, 246123, Note_on_c, 2, 46, 1041, 246125, Note_on_c, 0, 70, 991, 246234, Note_off_c, 2, 46, 1041, 246238, Note_off_c, 9, 54, 531, 246239, Note_off_c, 6, 80, 801, 246240, Note_off_c, 0, 70, 991, 246240, Note_on_c, 1, 34, 1131, 246240, Note_on_c, 6, 79, 761, 246240, Note_on_c, 9, 54, 891, 246240, Note_on_c, 9, 38, 1191, 246240, Note_on_c, 9, 42, 1271, 246248, Note_on_c, 2, 51, 1131, 246358, Note_off_c, 9, 54, 891, 246359, Note_off_c, 6, 79, 761, 246359, Note_off_c, 9, 42, 1271, 246360, Note_on_c, 6, 80, 681, 246360, Note_on_c, 9, 54, 631, 246427, Note_off_c, 1, 34, 1131, 246464, Note_off_c, 2, 51, 1131, 246478, Note_off_c, 9, 54, 631, 246479, Note_off_c, 6, 80, 681, 246480, Note_on_c, 1, 37, 891, 246480, Note_on_c, 6, 79, 801, 246480, Note_on_c, 9, 54, 821, 246480, Note_on_c, 9, 42, 1271, 246485, Note_on_c, 2, 39, 1101, 246504, Note_on_c, 0, 70, 1101, 246598, Note_off_c, 9, 54, 821, 246599, Note_off_c, 6, 79, 801, 246599, Note_off_c, 9, 38, 1191, 246599, Note_off_c, 9, 42, 1271, 246600, Note_on_c, 6, 80, 891, 246600, Note_on_c, 9, 54, 581, 246606, Note_on_c, 2, 46, 1131, 246609, Note_off_c, 2, 39, 1101, 246647, Note_off_c, 1, 37, 891, 246718, Note_off_c, 2, 46, 1131, 246718, Note_off_c, 9, 54, 581, 246719, Note_off_c, 6, 80, 891, 246720, Note_off_c, 0, 70, 1101, 246720, Note_on_c, 0, 70, 1101, 246720, Note_on_c, 1, 39, 1021, 246720, Note_on_c, 6, 82, 1131, 246720, Note_on_c, 6, 87, 931, 246720, Note_on_c, 9, 54, 741, 246720, Note_on_c, 9, 36, 1021, 246720, Note_on_c, 9, 42, 1271, 246725, Note_on_c, 2, 39, 1131, 246788, Note_off_c, 1, 39, 1021, 246830, Note_off_c, 2, 39, 1131, 246838, Note_off_c, 9, 54, 741, 246839, Note_off_c, 6, 82, 1131, 246839, Note_off_c, 6, 87, 931, 246839, Note_off_c, 9, 42, 1271, 246840, Note_on_c, 1, 39, 931, 246840, Note_on_c, 6, 80, 891, 246840, Note_on_c, 9, 54, 611, 246843, Note_on_c, 2, 46, 1041, 246924, Note_off_c, 0, 70, 1101, 246928, Note_off_c, 1, 39, 931, 246947, Note_off_c, 2, 46, 1041, 246958, Note_off_c, 9, 54, 611, 246959, Note_off_c, 6, 80, 891, 246959, Note_off_c, 9, 36, 1021, 246960, Note_on_c, 6, 79, 851, 246960, Note_on_c, 9, 54, 771, 246960, Note_on_c, 9, 42, 1271, 246966, Note_on_c, 0, 75, 1051, 246968, Note_on_c, 2, 39, 841, 247065, Note_off_c, 0, 75, 1051, 247070, Note_off_c, 2, 39, 841, 247078, Note_off_c, 9, 54, 771, 247079, Note_off_c, 6, 79, 851, 247079, Note_off_c, 9, 42, 1271, 247080, Note_on_c, 1, 39, 931, 247080, Note_on_c, 6, 80, 891, 247080, Note_on_c, 9, 54, 571, 247080, Note_on_c, 9, 36, 801, 247081, Note_on_c, 2, 46, 991, 247082, Note_on_c, 0, 75, 1071, 247130, Note_off_c, 1, 39, 931, 247180, Note_off_c, 2, 46, 991, 247198, Note_off_c, 9, 54, 571, 247199, Note_off_c, 6, 80, 891, 247199, Note_off_c, 9, 36, 801, 247200, Note_on_c, 1, 39, 1021, 247200, Note_on_c, 6, 79, 851, 247200, Note_on_c, 9, 54, 971, 247200, Note_on_c, 9, 38, 1131, 247200, Note_on_c, 9, 42, 1271, 247201, Note_on_c, 2, 51, 1031, 247298, Note_off_c, 1, 39, 1021, 247318, Note_off_c, 9, 54, 971, 247319, Note_off_c, 6, 79, 851, 247319, Note_off_c, 9, 42, 1271, 247320, Note_on_c, 6, 80, 761, 247320, Note_on_c, 9, 54, 551, 247431, Note_off_c, 2, 51, 1031, 247438, Note_off_c, 9, 54, 551, 247439, Note_off_c, 6, 80, 761, 247439, Note_off_c, 9, 38, 1131, 247440, Note_on_c, 1, 39, 891, 247440, Note_on_c, 6, 79, 851, 247440, Note_on_c, 9, 54, 931, 247440, Note_on_c, 9, 42, 1271, 247451, Note_on_c, 2, 39, 1041, 247489, Note_off_c, 1, 39, 891, 247555, Note_off_c, 2, 39, 1041, 247558, Note_off_c, 9, 54, 931, 247559, Note_off_c, 6, 79, 851, 247559, Note_off_c, 9, 42, 1271, 247560, Note_on_c, 1, 39, 1071, 247560, Note_on_c, 6, 80, 891, 247560, Note_on_c, 9, 54, 611, 247560, Note_on_c, 9, 36, 1071, 247565, Note_on_c, 2, 46, 1101, 247602, Pitch_bend_c, 0, 7840
1, 247616, Pitch_bend_c, 0, 7021
1, 247631, Pitch_bend_c, 0, 5617
1, 247647, Pitch_bend_c, 0, 3862
1, 247658, Note_off_c, 1, 39, 1071, 247661, Pitch_bend_c, 0, 1756
1, 247677, Pitch_bend_c, 0, 0
1, 247678, Note_off_c, 9, 54, 611, 247679, Note_off_c, 6, 80, 891, 247679, Note_off_c, 9, 36, 1071, 247680, Note_on_c, 6, 87, 931, 247680, Note_on_c, 6, 82, 981, 247680, Note_on_c, 9, 54, 871, 247680, Note_on_c, 9, 42, 1271, 247683, Note_off_c, 2, 46, 1101, 247691, Note_on_c, 2, 39, 1041, 247692, Note_off_c, 0, 75, 1071, 247798, Note_off_c, 9, 54, 871, 247799, Pitch_bend_c, 0, 937
1, 247799, Note_off_c, 6, 87, 931, 247799, Note_off_c, 6, 82, 981, 247799, Note_off_c, 9, 42, 1271, 247800, Note_on_c, 1, 39, 1021, 247800, Note_on_c, 6, 80, 891, 247800, Note_on_c, 9, 54, 581, 247800, Note_on_c, 9, 36, 1021, 247810, Note_off_c, 2, 39, 1041, 247811, Note_on_c, 2, 46, 971, 247814, Pitch_bend_c, 0, 2926
1, 247829, Pitch_bend_c, 0, 5617
1, 247839, Note_off_c, 1, 39, 1021, 247846, Pitch_bend_c, 0, 8192
1, 247918, Note_off_c, 2, 46, 971, 247918, Note_off_c, 9, 54, 581, 247919, Note_off_c, 6, 80, 891, 247919, Note_off_c, 9, 36, 1021, 247920, Note_on_c, 1, 39, 1021, 247920, Note_on_c, 6, 79, 851, 247920, Note_on_c, 9, 54, 931, 247920, Note_on_c, 9, 42, 1271, 247920, Note_on_c, 9, 36, 1071, 247929, Note_on_c, 2, 39, 1041, 248038, Note_off_c, 1, 39, 1021, 248038, Note_off_c, 9, 54, 931, 248039, Note_off_c, 6, 79, 851, 248039, Note_off_c, 9, 42, 1271, 248039, Note_off_c, 9, 36, 1071, 248040, Note_on_c, 6, 80, 851, 248040, Note_on_c, 9, 54, 531, 248043, Note_off_c, 2, 39, 1041, 248043, Note_on_c, 2, 46, 1041, 248154, Note_off_c, 2, 46, 1041, 248158, Note_off_c, 9, 54, 531, 248159, Note_off_c, 6, 80, 851, 248160, Note_on_c, 1, 34, 1071, 248160, Note_on_c, 6, 79, 851, 248160, Note_on_c, 9, 54, 891, 248160, Note_on_c, 9, 38, 1131, 248160, Note_on_c, 9, 42, 1271, 248168, Note_on_c, 2, 51, 1131, 248278, Note_off_c, 9, 54, 891, 248279, Note_off_c, 6, 79, 851, 248279, Note_off_c, 9, 42, 1271, 248280, Note_on_c, 6, 80, 851, 248280, Note_on_c, 9, 54, 631, 248337, Note_off_c, 1, 34, 1071, 248384, Note_off_c, 2, 51, 1131, 248398, Note_off_c, 9, 54, 631, 248399, Note_off_c, 6, 80, 851, 248400, Note_on_c, 1, 37, 891, 248400, Note_on_c, 6, 79, 801, 248400, Note_on_c, 9, 54, 821, 248400, Note_on_c, 9, 42, 1271, 248405, Note_on_c, 2, 39, 1101, 248518, Note_off_c, 9, 54, 821, 248519, Note_off_c, 6, 79, 801, 248519, Note_off_c, 9, 38, 1131, 248519, Note_off_c, 9, 42, 1271, 248520, Note_on_c, 6, 80, 931, 248520, Note_on_c, 9, 54, 581, 248526, Note_on_c, 2, 46, 1131, 248529, Note_off_c, 2, 39, 1101, 248558, Note_off_c, 1, 37, 891, 248638, Note_off_c, 2, 46, 1131, 248638, Note_off_c, 9, 54, 581, 248639, Note_off_c, 6, 80, 931, 248640, Note_on_c, 1, 39, 1021, 248640, Note_on_c, 6, 87, 981, 248640, Note_on_c, 6, 85, 981, 248640, Note_on_c, 9, 54, 741, 248640, Note_on_c, 9, 36, 931, 248640, Note_on_c, 9, 42, 1271, 248645, Note_on_c, 2, 39, 1131, 248709, Note_off_c, 1, 39, 1021, 248750, Note_off_c, 2, 39, 1131, 248758, Note_off_c, 9, 54, 741, 248759, Note_off_c, 6, 87, 981, 248759, Note_off_c, 6, 85, 981, 248759, Note_off_c, 9, 42, 1271, 248760, Note_on_c, 1, 39, 891, 248760, Note_on_c, 6, 82, 931, 248760, Note_on_c, 9, 54, 611, 248763, Note_on_c, 2, 46, 1041, 248867, Note_off_c, 2, 46, 1041, 248868, Note_off_c, 1, 39, 891, 248878, Note_off_c, 9, 54, 611, 248879, Note_off_c, 6, 82, 931, 248879, Note_off_c, 9, 36, 931, 248880, Note_on_c, 6, 80, 801, 248880, Note_on_c, 9, 54, 771, 248880, Note_on_c, 9, 42, 1271, 248888, Note_on_c, 2, 39, 841, 248990, Note_off_c, 2, 39, 841, 248998, Note_off_c, 9, 54, 771, 248999, Note_off_c, 6, 80, 801, 248999, Note_off_c, 9, 42, 1271, 249000, Note_on_c, 1, 39, 1071, 249000, Note_on_c, 6, 82, 721, 249000, Note_on_c, 9, 54, 571, 249000, Note_on_c, 9, 36, 801, 249001, Note_on_c, 2, 46, 991, 249049, Note_off_c, 1, 39, 1071, 249100, Note_off_c, 2, 46, 991, 249118, Note_off_c, 9, 54, 571, 249119, Note_off_c, 6, 82, 721, 249119, Note_off_c, 9, 36, 801, 249120, Note_on_c, 1, 39, 1021, 249120, Note_on_c, 6, 80, 851, 249120, Note_on_c, 9, 54, 971, 249120, Note_on_c, 9, 38, 1131, 249120, Note_on_c, 9, 42, 1271, 249121, Note_on_c, 2, 51, 1031, 249123, Note_on_c, 0, 73, 1011, 249218, Note_off_c, 1, 39, 1021, 249238, Note_off_c, 9, 54, 971, 249239, Note_off_c, 6, 80, 851, 249239, Note_off_c, 9, 42, 1271, 249240, Note_on_c, 6, 82, 931, 249240, Note_on_c, 9, 54, 551, 249351, Note_off_c, 2, 51, 1031, 249358, Note_off_c, 9, 54, 551, 249359, Note_off_c, 6, 82, 931, 249359, Note_off_c, 9, 38, 1131, 249360, Note_on_c, 1, 39, 1021, 249360, Note_on_c, 6, 80, 851, 249360, Note_on_c, 9, 54, 931, 249360, Note_on_c, 9, 42, 1271, 249371, Note_on_c, 2, 39, 1041, 249410, Note_off_c, 1, 39, 1021, 249436, Note_off_c, 0, 73, 1011, 249475, Note_off_c, 2, 39, 1041, 249478, Note_off_c, 9, 54, 931, 249479, Note_off_c, 6, 80, 851, 249479, Note_off_c, 9, 42, 1271, 249480, Note_on_c, 1, 39, 931, 249480, Note_on_c, 6, 82, 891, 249480, Note_on_c, 9, 54, 611, 249480, Note_on_c, 9, 36, 981, 249485, Note_on_c, 2, 46, 1101, 249487, Note_on_c, 0, 73, 871, 249578, Note_off_c, 1, 39, 931, 249598, Note_off_c, 9, 54, 611, 249599, Note_off_c, 6, 82, 891, 249599, Note_off_c, 9, 36, 981, 249600, Note_on_c, 6, 87, 1131, 249600, Note_on_c, 6, 85, 1071, 249600, Note_on_c, 9, 54, 871, 249600, Note_on_c, 9, 42, 1271, 249603, Note_off_c, 2, 46, 1101, 249611, Note_on_c, 2, 39, 1041, 249718, Note_off_c, 9, 54, 871, 249719, Note_off_c, 6, 87, 1131, 249719, Note_off_c, 6, 85, 1071, 249719, Note_off_c, 9, 42, 1271, 249720, Note_on_c, 1, 39, 1021, 249720, Note_on_c, 6, 82, 891, 249720, Note_on_c, 9, 54, 581, 249720, Note_on_c, 9, 36, 1071, 249730, Note_off_c, 2, 39, 1041, 249731, Note_on_c, 2, 46, 971, 249769, Note_off_c, 1, 39, 1021, 249838, Note_off_c, 2, 46, 971, 249838, Note_off_c, 9, 54, 581, 249839, Note_off_c, 6, 82, 891, 249839, Note_off_c, 9, 36, 1071, 249840, Note_on_c, 1, 39, 1021, 249840, Note_on_c, 6, 80, 761, 249840, Note_on_c, 9, 54, 931, 249840, Note_on_c, 9, 42, 1271, 249840, Note_on_c, 9, 36, 1021, 249849, Note_on_c, 2, 39, 1041, 249890, Note_off_c, 0, 73, 871, 249938, Note_off_c, 1, 39, 1021, 249958, Note_off_c, 9, 54, 931, 249959, Note_off_c, 6, 80, 761, 249959, Note_off_c, 9, 42, 1271, 249959, Note_off_c, 9, 36, 1021, 249960, Note_on_c, 6, 82, 851, 249960, Note_on_c, 9, 54, 531, 249963, Note_off_c, 2, 39, 1041, 249963, Note_on_c, 2, 46, 1041, 250074, Note_off_c, 2, 46, 1041, 250078, Note_off_c, 9, 54, 531, 250079, Note_off_c, 6, 82, 851, 250080, Note_on_c, 1, 34, 1071, 250080, Note_on_c, 6, 80, 891, 250080, Note_on_c, 9, 54, 891, 250080, Note_on_c, 9, 38, 1131, 250080, Note_on_c, 9, 42, 1271, 250088, Note_on_c, 2, 51, 1131, 250198, Note_off_c, 9, 54, 891, 250199, Note_off_c, 6, 80, 891, 250199, Note_off_c, 9, 42, 1271, 250200, Note_on_c, 6, 82, 801, 250200, Note_on_c, 9, 54, 631, 250267, Note_off_c, 1, 34, 1071, 250304, Note_off_c, 2, 51, 1131, 250318, Note_off_c, 9, 54, 631, 250319, Note_off_c, 6, 82, 801, 250320, Note_on_c, 1, 37, 931, 250320, Note_on_c, 6, 80, 801, 250320, Note_on_c, 9, 54, 821, 250320, Note_on_c, 9, 42, 1271, 250325, Note_on_c, 2, 39, 1101, 250329, Note_on_c, 0, 73, 1081, 250438, Note_off_c, 9, 54, 821, 250439, Note_off_c, 6, 80, 801, 250439, Note_off_c, 9, 38, 1131, 250439, Note_off_c, 9, 42, 1271, 250440, Note_on_c, 6, 82, 801, 250440, Note_on_c, 9, 54, 581, 250446, Note_on_c, 2, 46, 1131, 250449, Note_off_c, 2, 39, 1101, 250487, Note_off_c, 1, 37, 931, 250525, Note_off_c, 0, 73, 1081, 250558, Note_off_c, 2, 46, 1131, 250558, Note_off_c, 9, 54, 581, 250559, Note_off_c, 6, 82, 801, 250560, Note_on_c, 1, 39, 1071, 250560, Note_on_c, 6, 87, 1021, 250560, Note_on_c, 6, 85, 1021, 250560, Note_on_c, 9, 54, 741, 250560, Note_on_c, 9, 36, 1131, 250560, Note_on_c, 9, 42, 1271, 250565, Note_on_c, 2, 39, 1131, 250573, Note_on_c, 0, 73, 1041, 250638, Note_off_c, 1, 39, 1071, 250670, Note_off_c, 2, 39, 1131, 250678, Note_off_c, 9, 54, 741, 250679, Note_off_c, 6, 87, 1021, 250679, Note_off_c, 6, 85, 1021, 250679, Note_off_c, 9, 42, 1271, 250680, Note_on_c, 1, 39, 891, 250680, Note_on_c, 6, 82, 851, 250680, Note_on_c, 9, 54, 611, 250683, Note_on_c, 2, 46, 1041, 250767, Note_off_c, 0, 73, 1041, 250787, Note_off_c, 2, 46, 1041, 250788, Note_off_c, 1, 39, 891, 250798, Note_off_c, 9, 54, 611, 250799, Note_off_c, 6, 82, 851, 250799, Note_off_c, 9, 36, 1131, 250800, Note_on_c, 6, 80, 851, 250800, Note_on_c, 9, 54, 771, 250800, Note_on_c, 9, 42, 1271, 250808, Note_on_c, 2, 39, 841, 250864, Note_on_c, 0, 78, 1171, 250910, Note_off_c, 2, 39, 841, 250918, Note_off_c, 9, 54, 771, 250919, Note_off_c, 6, 80, 851, 250919, Note_off_c, 9, 42, 1271, 250920, Note_on_c, 1, 39, 981, 250920, Note_on_c, 6, 82, 761, 250920, Note_on_c, 9, 54, 571, 250920, Note_on_c, 9, 36, 891, 250921, Note_on_c, 2, 46, 991, 250969, Note_off_c, 1, 39, 981, 251020, Note_off_c, 2, 46, 991, 251038, Note_off_c, 9, 54, 571, 251039, Note_off_c, 6, 82, 761, 251039, Note_off_c, 9, 36, 891, 251040, Note_on_c, 1, 39, 1021, 251040, Note_on_c, 6, 80, 851, 251040, Note_on_c, 9, 54, 971, 251040, Note_on_c, 9, 38, 1191, 251040, Note_on_c, 9, 42, 1271, 251041, Note_on_c, 2, 51, 1031, 251128, Note_off_c, 1, 39, 1021, 251148, Note_off_c, 0, 78, 1171, 251158, Note_off_c, 9, 54, 971, 251159, Note_off_c, 6, 80, 851, 251159, Note_off_c, 9, 42, 1271, 251160, Note_on_c, 6, 82, 761, 251160, Note_on_c, 9, 54, 551, 251271, Note_off_c, 2, 51, 1031, 251278, Note_off_c, 9, 54, 551, 251279, Note_on_c, 0, 78, 1201, 251279, Note_off_c, 6, 82, 761, 251279, Note_off_c, 9, 38, 1191, 251280, Note_on_c, 1, 39, 1071, 251280, Note_on_c, 6, 80, 851, 251280, Note_on_c, 9, 54, 931, 251280, Note_on_c, 9, 42, 1271, 251291, Note_on_c, 2, 39, 1041, 251349, Note_off_c, 1, 39, 1071, 251395, Note_off_c, 2, 39, 1041, 251398, Note_off_c, 9, 54, 931, 251399, Note_off_c, 6, 80, 851, 251399, Note_off_c, 9, 42, 1271, 251400, Note_on_c, 1, 39, 1021, 251400, Note_on_c, 6, 82, 801, 251400, Note_on_c, 9, 54, 611, 251400, Note_on_c, 9, 36, 931, 251405, Note_on_c, 2, 46, 1101, 251479, Note_off_c, 1, 39, 1021, 251518, Note_off_c, 9, 54, 611, 251519, Note_off_c, 6, 82, 801, 251519, Note_off_c, 9, 36, 931, 251520, Note_on_c, 6, 85, 1021, 251520, Note_on_c, 6, 87, 931, 251520, Note_on_c, 9, 54, 871, 251520, Note_on_c, 9, 42, 1271, 251523, Note_off_c, 2, 46, 1101, 251531, Note_on_c, 2, 39, 1041, 251638, Note_off_c, 9, 54, 871, 251639, Note_off_c, 6, 85, 1021, 251639, Note_off_c, 6, 87, 931, 251639, Note_off_c, 9, 42, 1271, 251640, Note_on_c, 1, 39, 891, 251640, Note_on_c, 6, 82, 891, 251640, Note_on_c, 9, 54, 581, 251640, Note_on_c, 9, 36, 721, 251650, Note_off_c, 2, 39, 1041, 251651, Note_on_c, 2, 46, 971, 251680, Note_off_c, 1, 39, 891, 251758, Note_off_c, 2, 46, 971, 251758, Note_off_c, 9, 54, 581, 251759, Pitch_bend_c, 0, 7957
1, 251759, Note_off_c, 6, 82, 891, 251759, Note_off_c, 9, 36, 721, 251760, Note_on_c, 1, 39, 1071, 251760, Note_on_c, 6, 80, 761, 251760, Note_on_c, 9, 54, 931, 251760, Note_on_c, 9, 36, 1131, 251760, Note_on_c, 9, 42, 1271, 251762, Pitch_bend_c, 0, 7840
1, 251769, Note_on_c, 2, 39, 1041, 251772, Pitch_bend_c, 0, 7021
1, 251775, Pitch_bend_c, 0, 7021
1, 251788, Pitch_bend_c, 0, 5734
1, 251790, Pitch_bend_c, 0, 5968
1, 251804, Pitch_bend_c, 0, 4447
1, 251807, Pitch_bend_c, 0, 5032
1, 251822, Pitch_bend_c, 0, 3862
1, 251837, Pitch_bend_c, 0, 2809
1, 251839, Pitch_bend_c, 0, 3628
1, 251839, Pitch_bend_c, 0, 3160
1, 251839, Note_off_c, 0, 78, 1201, 251878, Note_off_c, 9, 54, 931, 251879, Note_off_c, 6, 80, 761, 251879, Note_off_c, 9, 36, 1131, 251879, Note_off_c, 9, 42, 1271, 251880, Pitch_bend_c, 0, 8192
1, 251880, Note_on_c, 6, 82, 851, 251880, Note_on_c, 9, 54, 531, 251883, Note_off_c, 2, 39, 1041, 251883, Note_on_c, 2, 46, 1041, 251888, Note_off_c, 1, 39, 1071, 251994, Note_off_c, 2, 46, 1041, 251998, Note_on_c, 0, 70, 1131, 251998, Note_off_c, 9, 54, 531, 251999, Note_off_c, 6, 82, 851, 252000, Note_on_c, 1, 34, 1021, 252000, Note_on_c, 6, 80, 891, 252000, Note_on_c, 9, 54, 891, 252000, Note_on_c, 9, 42, 1271, 252000, Note_on_c, 9, 38, 1131, 252003, Note_on_c, 0, 74, 781, 252003, Note_on_c, 0, 75, 1131, 252008, Note_on_c, 2, 51, 1131, 252118, Note_off_c, 9, 54, 891, 252119, Note_off_c, 6, 80, 891, 252119, Note_off_c, 9, 42, 1271, 252119, Note_off_c, 9, 38, 1131, 252120, Note_on_c, 6, 82, 851, 252120, Note_on_c, 9, 54, 631, 252178, Note_off_c, 1, 34, 1021, 252203, Note_off_c, 0, 74, 781, 252203, Note_off_c, 0, 70, 1131, 252208, Note_off_c, 0, 75, 1131, 252224, Note_off_c, 2, 51, 1131, 252235, Note_on_c, 0, 75, 941, 252235, Note_on_c, 0, 70, 941, 252238, Note_off_c, 9, 54, 631, 252239, Note_on_c, 0, 74, 941, 252239, Note_off_c, 6, 82, 851, 252240, Note_on_c, 1, 37, 981, 252240, Note_on_c, 6, 80, 891, 252240, Note_on_c, 9, 54, 821, 252240, Note_on_c, 9, 42, 1271, 252240, Note_on_c, 9, 38, 1131, 252245, Note_on_c, 2, 39, 1101, 252358, Note_off_c, 9, 54, 821, 252359, Note_off_c, 6, 80, 891, 252359, Note_off_c, 9, 42, 1271, 252359, Note_off_c, 9, 38, 1131, 252360, Note_on_c, 6, 82, 931, 252360, Note_on_c, 9, 54, 581, 252361, Note_on_c, 2, 46, 1131, 252369, Note_off_c, 2, 39, 1101, 252397, Note_off_c, 1, 37, 981, 252443, Note_off_c, 0, 75, 941, 252443, Note_off_c, 0, 70, 941, 252445, Note_off_c, 0, 74, 941, 252473, Note_off_c, 2, 46, 1131, 252478, Note_off_c, 9, 54, 581, 252479, Note_on_c, 0, 74, 1041, 252479, Note_off_c, 6, 82, 931, 252480, Control_c, 2, 76, 127
1, 252480, Note_on_c, 1, 34, 981, 252480, Note_on_c, 2, 62, 1071, 252480, Note_on_c, 2, 53, 1071, 252480, Note_on_c, 2, 46, 1071, 252480, Note_on_c, 6, 86, 981, 252480, Note_on_c, 6, 82, 981, 252480, Note_on_c, 9, 36, 931, 252480, Note_on_c, 9, 49, 1131, 252480, Note_on_c, 9, 52, 721, 252480, Note_on_c, 9, 55, 591, 252481, Note_on_c, 0, 70, 1191, 252483, Note_on_c, 3, 62, 1131, 252484, Note_on_c, 0, 77, 1101, 252507, Control_c, 6, 64, 127
1, 252579, Note_off_c, 6, 82, 981, 252599, Note_off_c, 9, 49, 1131, 252599, Note_off_c, 9, 52, 721, 252599, Note_off_c, 9, 55, 591, 252600, Note_on_c, 6, 77, 851, 252638, Note_off_c, 6, 86, 981, 252687, Note_off_c, 1, 34, 981, 252719, Note_off_c, 2, 62, 1071, 252719, Note_off_c, 2, 53, 1071, 252719, Note_off_c, 2, 46, 1071, 252719, Note_off_c, 9, 36, 931, 252720, Note_on_c, 1, 34, 801, 252720, Note_on_c, 6, 82, 681, 252799, Note_off_c, 6, 82, 681, 252806, Note_off_c, 6, 77, 851, 252840, Note_on_c, 6, 84, 981, 252840, Note_on_c, 6, 82, 851, 252878, Note_off_c, 1, 34, 801, 252950, Note_off_c, 3, 62, 1131, 252960, Note_on_c, 1, 34, 761, 252960, Note_on_c, 2, 62, 801, 252960, Note_on_c, 2, 53, 601, 252960, Note_on_c, 2, 46, 501, 252960, Note_on_c, 9, 36, 721, 252960, Note_on_c, 9, 51, 621, 252964, Note_on_c, 3, 60, 1041, 253079, Note_off_c, 2, 62, 801, 253079, Note_off_c, 2, 53, 601, 253079, Note_off_c, 2, 46, 501, 253079, Note_off_c, 9, 36, 721, 253079, Note_off_c, 9, 51, 621, 253080, Note_on_c, 3, 62, 871, 253080, Note_on_c, 6, 77, 891, 253116, Note_off_c, 6, 82, 851, 253137, Note_off_c, 1, 34, 761, 253145, Note_off_c, 6, 84, 981, 253178, Note_off_c, 6, 77, 891, 253198, Note_off_c, 3, 62, 871, 253200, Note_on_c, 1, 34, 761, 253200, Note_on_c, 2, 62, 761, 253200, Note_on_c, 2, 53, 621, 253200, Note_on_c, 2, 46, 511, 253200, Note_on_c, 6, 82, 641, 253200, Note_on_c, 9, 51, 621, 253278, Note_off_c, 6, 82, 641, 253319, Note_off_c, 2, 62, 761, 253319, Note_off_c, 2, 53, 621, 253319, Note_off_c, 2, 46, 511, 253319, Note_off_c, 9, 51, 621, 253320, Note_on_c, 3, 62, 971, 253320, Note_on_c, 6, 77, 891, 253320, Note_on_c, 9, 36, 531, 253367, Note_off_c, 1, 34, 761, 253419, Note_off_c, 3, 60, 1041, 253428, Note_off_c, 6, 77, 891, 253438, Note_off_c, 3, 62, 971, 253439, Note_off_c, 9, 36, 531, 253440, Note_on_c, 1, 34, 931, 253440, Note_on_c, 2, 62, 801, 253440, Note_on_c, 2, 53, 571, 253440, Note_on_c, 2, 46, 501, 253440, Note_on_c, 6, 86, 981, 253440, Note_on_c, 6, 82, 1131, 253440, Note_on_c, 9, 51, 721, 253440, Note_on_c, 9, 36, 891, 253443, Note_on_c, 3, 58, 1161, 253538, Note_off_c, 6, 82, 1131, 253559, Note_off_c, 2, 62, 801, 253559, Note_off_c, 2, 53, 571, 253559, Note_off_c, 2, 46, 501, 253559, Note_off_c, 9, 51, 721, 253559, Note_off_c, 9, 36, 891, 253560, Note_on_c, 3, 62, 951, 253560, Note_on_c, 6, 77, 891, 253578, Note_off_c, 6, 86, 981, 253607, Note_off_c, 1, 34, 931, 253678, Note_off_c, 3, 62, 951, 253678, Note_off_c, 6, 77, 891, 253680, Note_on_c, 1, 34, 891, 253680, Note_on_c, 2, 62, 761, 253680, Note_on_c, 2, 53, 571, 253680, Note_on_c, 2, 46, 481, 253680, Note_on_c, 6, 82, 851, 253680, Note_on_c, 9, 51, 621, 253680, Note_on_c, 9, 36, 761, 253768, Note_off_c, 6, 82, 851, 253799, Note_off_c, 2, 62, 761, 253799, Note_off_c, 2, 53, 571, 253799, Note_off_c, 2, 46, 481, 253799, Note_off_c, 9, 51, 621, 253799, Note_off_c, 9, 36, 761, 253800, Note_on_c, 3, 62, 811, 253800, Note_on_c, 6, 84, 1021, 253800, Note_on_c, 6, 82, 801, 253838, Note_off_c, 1, 34, 891, 253912, Note_off_c, 3, 58, 1161, 253918, Note_off_c, 3, 62, 811, 253920, Note_on_c, 1, 34, 891, 253920, Note_on_c, 2, 62, 721, 253920, Note_on_c, 2, 53, 681, 253920, Note_on_c, 2, 46, 551, 253920, Note_on_c, 9, 51, 641, 253920, Note_on_c, 9, 36, 851, 253927, Note_on_c, 3, 60, 1071, 254017, Note_off_c, 6, 82, 801, 254039, Note_off_c, 2, 62, 721, 254039, Note_off_c, 2, 53, 681, 254039, Note_off_c, 2, 46, 551, 254039, Note_off_c, 9, 51, 641, 254039, Note_off_c, 9, 36, 851, 254040, Note_on_c, 3, 62, 731, 254040, Note_on_c, 6, 77, 891, 254077, Note_off_c, 1, 34, 891, 254115, Note_off_c, 6, 84, 1021, 254139, Note_off_c, 6, 77, 891, 254158, Note_off_c, 3, 62, 731, 254160, Note_on_c, 1, 34, 891, 254160, Note_on_c, 2, 62, 641, 254160, Note_on_c, 2, 53, 621, 254160, Note_on_c, 2, 46, 501, 254160, Note_on_c, 6, 82, 761, 254160, Note_on_c, 9, 51, 851, 254160, Note_on_c, 9, 36, 891, 254248, Note_off_c, 6, 82, 761, 254279, Note_off_c, 2, 62, 641, 254279, Note_off_c, 2, 53, 621, 254279, Note_off_c, 2, 46, 501, 254279, Note_off_c, 9, 51, 851, 254279, Note_off_c, 9, 36, 891, 254280, Note_on_c, 3, 62, 681, 254280, Note_on_c, 6, 77, 931, 254318, Note_off_c, 1, 34, 891, 254369, Note_off_c, 6, 77, 931, 254396, Note_off_c, 3, 60, 1071, 254398, Note_off_c, 3, 62, 681, 254400, Note_on_c, 1, 34, 851, 254400, Note_on_c, 2, 62, 761, 254400, Note_on_c, 2, 53, 621, 254400, Note_on_c, 2, 46, 511, 254400, Note_on_c, 6, 86, 1071, 254400, Note_on_c, 6, 82, 1131, 254400, Note_on_c, 9, 51, 761, 254400, Note_on_c, 9, 36, 801, 254411, Note_on_c, 3, 58, 1071, 254498, Note_off_c, 6, 82, 1131, 254519, Note_off_c, 2, 62, 761, 254519, Note_off_c, 2, 53, 621, 254519, Note_off_c, 2, 46, 511, 254519, Note_off_c, 9, 51, 761, 254519, Note_off_c, 9, 36, 801, 254520, Note_on_c, 3, 62, 771, 254520, Note_on_c, 6, 77, 981, 254558, Note_off_c, 1, 34, 851, 254567, Note_off_c, 6, 86, 1071, 254638, Note_off_c, 3, 62, 771, 254640, Note_on_c, 1, 34, 891, 254640, Note_on_c, 2, 62, 721, 254640, Note_on_c, 2, 53, 641, 254640, Note_on_c, 2, 46, 551, 254640, Note_on_c, 6, 82, 931, 254640, Note_on_c, 9, 51, 851, 254640, Note_on_c, 9, 36, 891, 254648, Note_off_c, 6, 77, 981, 254718, Note_off_c, 6, 82, 931, 254759, Note_off_c, 2, 62, 721, 254759, Note_off_c, 2, 53, 641, 254759, Note_off_c, 2, 46, 551, 254759, Note_off_c, 9, 51, 851, 254759, Note_off_c, 9, 36, 891, 254760, Note_on_c, 3, 62, 671, 254760, Note_on_c, 6, 84, 1071, 254760, Note_on_c, 6, 82, 851, 254787, Note_off_c, 1, 34, 891, 254865, Note_off_c, 3, 58, 1071, 254878, Note_off_c, 3, 62, 671, 254879, Note_on_c, 3, 60, 991, 254880, Note_on_c, 1, 34, 931, 254880, Note_on_c, 2, 62, 761, 254880, Note_on_c, 2, 53, 721, 254880, Note_on_c, 2, 46, 641, 254880, Note_on_c, 9, 51, 891, 254880, Note_on_c, 9, 36, 891, 254999, Note_off_c, 2, 62, 761, 254999, Note_off_c, 2, 53, 721, 254999, Note_off_c, 2, 46, 641, 254999, Note_off_c, 9, 51, 891, 254999, Note_off_c, 9, 36, 891, 255000, Note_on_c, 3, 62, 701, 255000, Note_on_c, 6, 77, 931, 255015, Note_off_c, 6, 82, 851, 255028, Note_off_c, 1, 34, 931, 255045, Note_off_c, 6, 84, 1071, 255088, Note_off_c, 6, 77, 931, 255118, Note_off_c, 3, 62, 701, 255120, Note_on_c, 1, 34, 851, 255120, Note_on_c, 2, 62, 801, 255120, Note_on_c, 2, 53, 851, 255120, Note_on_c, 2, 46, 681, 255120, Note_on_c, 6, 82, 721, 255120, Note_on_c, 9, 51, 931, 255120, Note_on_c, 9, 36, 931, 255198, Note_off_c, 6, 82, 721, 255239, Note_off_c, 2, 62, 801, 255239, Note_off_c, 2, 53, 851, 255239, Note_off_c, 2, 46, 681, 255239, Note_off_c, 9, 51, 931, 255239, Note_off_c, 9, 36, 931, 255240, Note_on_c, 3, 62, 741, 255240, Note_on_c, 6, 77, 931, 255258, Note_off_c, 1, 34, 851, 255343, Note_off_c, 3, 60, 991, 255358, Note_off_c, 3, 62, 741, 255358, Note_off_c, 6, 77, 931, 255360, Note_on_c, 1, 34, 891, 255360, Note_on_c, 2, 62, 931, 255360, Note_on_c, 2, 53, 761, 255360, Note_on_c, 2, 46, 721, 255360, Note_on_c, 6, 86, 1021, 255360, Note_on_c, 6, 82, 1131, 255360, Note_on_c, 9, 36, 981, 255360, Note_on_c, 9, 51, 1071, 255364, Note_on_c, 3, 58, 1071, 255458, Note_off_c, 6, 82, 1131, 255479, Note_off_c, 2, 62, 931, 255479, Note_off_c, 2, 53, 761, 255479, Note_off_c, 2, 46, 721, 255479, Note_off_c, 9, 36, 981, 255479, Note_off_c, 9, 51, 1071, 255480, Note_on_c, 3, 62, 671, 255480, Note_on_c, 6, 77, 891, 255487, Note_off_c, 6, 86, 1021, 255508, Note_off_c, 1, 34, 891, 255598, Note_off_c, 3, 62, 671, 255600, Note_on_c, 1, 34, 801, 255600, Note_on_c, 2, 62, 851, 255600, Note_on_c, 2, 53, 761, 255600, Note_on_c, 2, 46, 721, 255600, Note_on_c, 6, 82, 1021, 255600, Note_on_c, 9, 51, 1021, 255600, Note_on_c, 9, 36, 891, 255608, Note_off_c, 6, 77, 891, 255689, Note_off_c, 6, 82, 1021, 255719, Note_off_c, 2, 62, 851, 255719, Note_off_c, 2, 53, 761, 255719, Note_off_c, 2, 46, 721, 255719, Note_off_c, 9, 51, 1021, 255719, Note_off_c, 9, 36, 891, 255720, Note_on_c, 3, 62, 701, 255720, Note_on_c, 6, 82, 931, 255720, Note_on_c, 6, 84, 1021, 255744, Note_off_c, 0, 74, 1041, 255756, Note_off_c, 0, 77, 1101, 255758, Note_off_c, 1, 34, 801, 255777, Note_off_c, 0, 70, 1191, 255837, Note_off_c, 3, 58, 1071, 255838, Note_off_c, 3, 62, 701, 255840, Note_on_c, 1, 34, 931, 255840, Note_on_c, 2, 62, 851, 255840, Note_on_c, 2, 53, 801, 255840, Note_on_c, 2, 46, 721, 255840, Note_on_c, 9, 51, 1021, 255840, Note_on_c, 9, 36, 981, 255844, Note_on_c, 3, 60, 1071, 255847, Note_on_c, 0, 74, 1051, 255847, Note_on_c, 0, 70, 1071, 255849, Note_on_c, 0, 77, 1021, 255907, Note_off_c, 6, 82, 931, 255907, Note_off_c, 6, 84, 1021, 255959, Note_off_c, 2, 62, 851, 255959, Note_off_c, 2, 53, 801, 255959, Note_off_c, 2, 46, 721, 255959, Note_off_c, 9, 51, 1021, 255959, Note_off_c, 9, 36, 981, 255960, Note_on_c, 3, 62, 781, 255960, Note_on_c, 6, 77, 891, 255988, Note_off_c, 1, 34, 931, 256068, Note_off_c, 6, 77, 891, 256078, Note_off_c, 3, 62, 781, 256080, Note_on_c, 1, 34, 891, 256080, Note_on_c, 2, 62, 931, 256080, Note_on_c, 2, 53, 801, 256080, Note_on_c, 2, 46, 761, 256080, Note_on_c, 6, 82, 891, 256080, Note_on_c, 9, 51, 981, 256080, Note_on_c, 9, 36, 981, 256178, Note_off_c, 6, 82, 891, 256199, Note_off_c, 2, 62, 931, 256199, Note_off_c, 2, 53, 801, 256199, Note_off_c, 2, 46, 761, 256199, Note_off_c, 9, 51, 981, 256199, Note_off_c, 9, 36, 981, 256200, Note_on_c, 3, 62, 811, 256200, Note_on_c, 6, 77, 981, 256238, Note_off_c, 1, 34, 891, 256242, Note_off_c, 0, 70, 1071, 256259, Note_off_c, 0, 77, 1021, 256259, Note_off_c, 0, 74, 1051, 256275, Control_c, 6, 64, 0
1, 256285, Control_c, 2, 76, 0
1, 256299, Note_off_c, 6, 77, 981, 256304, Note_off_c, 3, 60, 1071, 256318, Note_off_c, 3, 62, 811, 256320, Note_on_c, 0, 73, 1011, 256320, Note_on_c, 1, 35, 1071, 256320, Note_on_c, 2, 64, 1191, 256320, Note_on_c, 2, 47, 1131, 256320, Note_on_c, 2, 57, 1131, 256320, Note_on_c, 2, 54, 981, 256320, Note_on_c, 6, 83, 1131, 256320, Note_on_c, 6, 78, 1131, 256320, Note_on_c, 9, 51, 681, 256320, Note_on_c, 9, 49, 1071, 256320, Note_on_c, 9, 57, 1131, 256320, Note_on_c, 9, 36, 1131, 256320, Note_on_c, 9, 52, 981, 256324, Note_on_c, 0, 71, 1101, 256324, Note_on_c, 0, 76, 1021, 256324, Note_on_c, 3, 61, 1101, 256384, Control_c, 6, 64, 127
1, 256438, Note_off_c, 6, 78, 1131, 256439, Note_off_c, 9, 51, 681, 256439, Note_off_c, 9, 49, 1071, 256439, Note_off_c, 9, 57, 1131, 256439, Note_off_c, 9, 36, 1131, 256439, Note_off_c, 9, 52, 981, 256440, Note_on_c, 6, 76, 981, 256458, Note_off_c, 1, 35, 1071, 256507, Note_off_c, 6, 83, 1131, 256511, Control_c, 2, 76, 127
1, 256519, Note_off_c, 6, 76, 981, 256560, Note_on_c, 1, 35, 891, 256560, Note_on_c, 6, 78, 981, 256560, Note_on_c, 9, 51, 721, 256649, Control_c, 6, 64, 0
1, 256649, Note_off_c, 6, 78, 981, 256679, Note_off_c, 2, 64, 1191, 256679, Note_off_c, 2, 47, 1131, 256679, Note_off_c, 2, 57, 1131, 256679, Note_off_c, 2, 54, 981, 256679, Note_off_c, 9, 51, 721, 256680, Note_on_c, 6, 81, 1191, 256680, Note_on_c, 6, 78, 1071, 256680, Note_on_c, 9, 36, 491, 256697, Note_off_c, 3, 61, 1101, 256708, Note_off_c, 1, 35, 891, 256718, Control_c, 6, 64, 127
1, 256799, Note_off_c, 9, 36, 491, 256800, Note_on_c, 1, 35, 931, 256800, Note_on_c, 2, 64, 721, 256800, Note_on_c, 2, 57, 641, 256800, Note_on_c, 2, 54, 641, 256800, Note_on_c, 2, 47, 621, 256800, Note_on_c, 9, 51, 891, 256800, Note_on_c, 9, 36, 931, 256807, Note_on_c, 3, 61, 941, 256907, Note_off_c, 6, 78, 1071, 256919, Note_off_c, 2, 64, 721, 256919, Note_off_c, 2, 57, 641, 256919, Note_off_c, 2, 54, 641, 256919, Note_off_c, 2, 47, 621, 256919, Note_off_c, 9, 51, 891, 256919, Note_off_c, 9, 36, 931, 256920, Note_on_c, 6, 76, 1021, 256938, Note_off_c, 1, 35, 931, 256956, Note_off_c, 6, 81, 1191, 257028, Note_off_c, 6, 76, 1021, 257040, Note_on_c, 1, 35, 851, 257040, Note_on_c, 2, 64, 641, 257040, Note_on_c, 2, 47, 591, 257040, Note_on_c, 2, 57, 501, 257040, Note_on_c, 2, 54, 721, 257040, Note_on_c, 6, 78, 851, 257040, Note_on_c, 9, 51, 891, 257040, Note_on_c, 9, 36, 851, 257128, Note_off_c, 6, 78, 851, 257159, Note_off_c, 2, 64, 641, 257159, Note_off_c, 2, 47, 591, 257159, Note_off_c, 2, 57, 501, 257159, Note_off_c, 2, 54, 721, 257159, Note_off_c, 9, 51, 891, 257159, Note_off_c, 9, 36, 851, 257160, Note_on_c, 6, 76, 1021, 257168, Note_off_c, 1, 35, 851, 257177, Note_off_c, 3, 61, 941, 257259, Note_off_c, 6, 76, 1021, 257280, Note_on_c, 1, 35, 1021, 257280, Note_on_c, 2, 64, 681, 257280, Note_on_c, 2, 47, 681, 257280, Note_on_c, 2, 57, 601, 257280, Note_on_c, 2, 54, 761, 257280, Note_on_c, 6, 83, 1071, 257280, Note_on_c, 6, 78, 1071, 257280, Note_on_c, 9, 51, 931, 257280, Note_on_c, 9, 36, 931, 257285, Note_on_c, 3, 61, 951, 257378, Note_off_c, 6, 78, 1071, 257398, Note_off_c, 6, 83, 1071, 257399, Note_off_c, 2, 64, 681, 257399, Note_off_c, 2, 47, 681, 257399, Note_off_c, 2, 57, 601, 257399, Note_off_c, 2, 54, 761, 257399, Note_off_c, 9, 51, 931, 257399, Note_off_c, 9, 36, 931, 257400, Note_on_c, 6, 76, 931, 257418, Note_off_c, 1, 35, 1021, 257488, Note_off_c, 6, 76, 931, 257520, Note_on_c, 1, 35, 931, 257520, Note_on_c, 2, 64, 851, 257520, Note_on_c, 2, 54, 801, 257520, Note_on_c, 2, 57, 721, 257520, Note_on_c, 2, 47, 761, 257520, Note_on_c, 6, 78, 981, 257520, Note_on_c, 9, 36, 931, 257520, Note_on_c, 9, 51, 981, 257599, Note_off_c, 6, 78, 981, 257639, Note_off_c, 2, 64, 851, 257639, Note_off_c, 2, 54, 801, 257639, Note_off_c, 2, 57, 721, 257639, Note_off_c, 2, 47, 761, 257639, Note_off_c, 9, 36, 931, 257639, Note_off_c, 9, 51, 981, 257640, Note_on_c, 6, 81, 1021, 257640, Note_on_c, 6, 78, 851, 257656, Note_off_c, 3, 61, 951, 257667, Note_off_c, 1, 35, 931, 257760, Note_on_c, 1, 35, 1021, 257760, Note_on_c, 2, 64, 891, 257760, Note_on_c, 2, 47, 761, 257760, Note_on_c, 2, 57, 761, 257760, Note_on_c, 2, 54, 761, 257760, Note_on_c, 9, 36, 931, 257760, Note_on_c, 9, 51, 931, 257765, Note_on_c, 3, 61, 971, 257856, Note_off_c, 6, 78, 851, 257879, Note_off_c, 2, 64, 891, 257879, Note_off_c, 2, 47, 761, 257879, Note_off_c, 2, 57, 761, 257879, Note_off_c, 2, 54, 761, 257879, Note_off_c, 9, 36, 931, 257879, Note_off_c, 9, 51, 931, 257880, Note_on_c, 6, 76, 1021, 257907, Note_off_c, 1, 35, 1021, 257925, Note_off_c, 6, 81, 1021, 257998, Note_off_c, 6, 76, 1021, 258000, Note_on_c, 1, 35, 761, 258000, Note_on_c, 2, 64, 801, 258000, Note_on_c, 2, 57, 801, 258000, Note_on_c, 2, 54, 761, 258000, Note_on_c, 2, 47, 621, 258000, Note_on_c, 6, 78, 801, 258000, Note_on_c, 9, 36, 931, 258000, Note_on_c, 9, 51, 891, 258108, Note_off_c, 6, 78, 801, 258119, Note_off_c, 2, 54, 761, 258119, Note_off_c, 2, 47, 621, 258119, Note_off_c, 9, 36, 931, 258119, Note_off_c, 9, 51, 891, 258120, Note_on_c, 6, 76, 981, 258137, Note_off_c, 1, 35, 761, 258143, Note_off_c, 3, 61, 971, 258232, Note_on_c, 3, 61, 1081, 258238, Note_off_c, 6, 76, 981, 258239, Note_off_c, 2, 64, 801, 258239, Note_off_c, 2, 57, 801, 258240, Note_on_c, 1, 35, 1071, 258240, Note_on_c, 2, 64, 891, 258240, Note_on_c, 2, 54, 851, 258240, Note_on_c, 2, 57, 641, 258240, Note_on_c, 2, 47, 721, 258240, Note_on_c, 6, 78, 1071, 258240, Note_on_c, 6, 83, 931, 258240, Note_on_c, 9, 36, 931, 258240, Note_on_c, 9, 51, 1071, 258348, Note_off_c, 6, 83, 931, 258349, Note_off_c, 6, 78, 1071, 258359, Note_off_c, 2, 64, 891, 258359, Note_off_c, 2, 54, 851, 258359, Note_off_c, 2, 57, 641, 258359, Note_off_c, 2, 47, 721, 258359, Note_off_c, 9, 36, 931, 258359, Note_off_c, 9, 51, 1071, 258360, Note_on_c, 6, 76, 931, 258378, Note_off_c, 1, 35, 1071, 258478, Note_off_c, 6, 76, 931, 258480, Note_on_c, 1, 35, 891, 258480, Note_on_c, 2, 64, 801, 258480, Note_on_c, 2, 54, 761, 258480, Note_on_c, 2, 57, 801, 258480, Note_on_c, 2, 47, 721, 258480, Note_on_c, 6, 78, 891, 258480, Note_on_c, 9, 38, 1071, 258511, Note_off_c, 3, 61, 1081, 258559, Note_off_c, 6, 78, 891, 258599, Note_off_c, 2, 64, 801, 258599, Note_off_c, 2, 54, 761, 258599, Note_off_c, 2, 57, 801, 258599, Note_off_c, 2, 47, 721, 258599, Note_on_c, 3, 61, 1081, 258599, Note_off_c, 9, 38, 1071, 258600, Note_on_c, 6, 81, 1071, 258600, Note_on_c, 6, 78, 981, 258600, Note_on_c, 9, 38, 1191, 258628, Note_off_c, 1, 35, 891, 258719, Note_off_c, 9, 38, 1191, 258720, Note_on_c, 1, 35, 931, 258720, Note_on_c, 2, 64, 851, 258720, Note_on_c, 2, 54, 761, 258720, Note_on_c, 2, 57, 851, 258720, Note_on_c, 2, 47, 681, 258839, Note_off_c, 2, 64, 851, 258839, Note_off_c, 2, 54, 761, 258839, Note_off_c, 2, 57, 851, 258839, Note_off_c, 2, 47, 681, 258840, Note_on_c, 6, 76, 1071, 258840, Note_on_c, 9, 38, 1071, 258848, Note_off_c, 3, 61, 1081, 258858, Note_off_c, 1, 35, 931, 258876, Note_off_c, 6, 78, 981, 258896, Note_off_c, 6, 81, 1071, 258948, Note_off_c, 6, 76, 1071, 258959, Note_on_c, 3, 61, 1001, 258959, Note_off_c, 9, 38, 1071, 258960, Note_on_c, 1, 35, 851, 258960, Note_on_c, 2, 64, 851, 258960, Note_on_c, 2, 54, 761, 258960, Note_on_c, 2, 57, 801, 258960, Note_on_c, 2, 47, 721, 258960, Note_on_c, 6, 78, 721, 258960, Note_on_c, 9, 47, 1271, 259029, Note_off_c, 6, 78, 721, 259079, Note_off_c, 2, 64, 851, 259079, Note_off_c, 2, 54, 761, 259079, Note_off_c, 2, 57, 801, 259079, Note_off_c, 2, 47, 721, 259079, Note_off_c, 9, 47, 1271, 259080, Note_on_c, 6, 76, 1021, 259088, Note_off_c, 1, 35, 851, 259179, Note_off_c, 6, 76, 1021, 259200, Note_on_c, 1, 35, 1021, 259200, Note_on_c, 2, 64, 931, 259200, Note_on_c, 2, 54, 801, 259200, Note_on_c, 2, 57, 891, 259200, Note_on_c, 2, 47, 931, 259200, Note_on_c, 6, 83, 1071, 259200, Note_on_c, 6, 78, 1021, 259200, Note_on_c, 9, 45, 1191, 259289, Note_off_c, 6, 78, 1021, 259319, Note_off_c, 2, 64, 931, 259319, Note_off_c, 2, 54, 801, 259319, Note_off_c, 2, 57, 891, 259319, Note_off_c, 2, 47, 931, 259319, Note_off_c, 9, 45, 1191, 259320, Note_on_c, 6, 76, 981, 259328, Note_off_c, 6, 83, 1071, 259338, Note_off_c, 1, 35, 1021, 259428, Note_off_c, 6, 76, 981, 259440, Note_on_c, 1, 35, 931, 259440, Note_on_c, 2, 64, 761, 259440, Note_on_c, 2, 54, 761, 259440, Note_on_c, 2, 47, 891, 259440, Note_on_c, 2, 57, 891, 259440, Note_on_c, 6, 78, 981, 259440, Note_on_c, 9, 45, 1191, 259478, Note_off_c, 3, 61, 1001, 259514, Note_off_c, 0, 73, 1011, 259519, Note_off_c, 6, 78, 981, 259532, Note_off_c, 0, 71, 1101, 259532, Note_off_c, 0, 76, 1021, 259559, Note_off_c, 2, 64, 761, 259559, Note_off_c, 2, 54, 761, 259559, Note_off_c, 2, 47, 891, 259559, Note_off_c, 2, 57, 891, 259559, Note_off_c, 9, 45, 1191, 259560, Note_on_c, 6, 78, 931, 259560, Note_on_c, 6, 81, 1071, 259587, Note_off_c, 1, 35, 931, 259680, Note_on_c, 1, 35, 1021, 259680, Note_on_c, 2, 64, 851, 259680, Note_on_c, 2, 54, 851, 259680, Note_on_c, 2, 57, 931, 259680, Note_on_c, 2, 47, 931, 259680, Note_on_c, 9, 43, 1271, 259686, Note_on_c, 3, 61, 1101, 259692, Note_on_c, 0, 76, 1251, 259766, Note_off_c, 6, 81, 1071, 259786, Note_off_c, 6, 78, 931, 259799, Note_off_c, 2, 64, 851, 259799, Note_off_c, 2, 54, 851, 259799, Note_off_c, 2, 57, 931, 259799, Note_off_c, 2, 47, 931, 259799, Note_off_c, 9, 43, 1271, 259800, Note_on_c, 6, 76, 1021, 259800, Note_on_c, 9, 41, 1131, 259827, Note_off_c, 1, 35, 1021, 259919, Note_off_c, 9, 41, 1131, 259920, Note_on_c, 1, 35, 761, 259920, Note_on_c, 2, 64, 931, 259920, Note_on_c, 2, 54, 851, 259920, Note_on_c, 2, 57, 931, 259920, Note_on_c, 2, 47, 851, 259920, Note_on_c, 6, 78, 981, 259920, Note_on_c, 6, 81, 931, 259920, Note_on_c, 9, 41, 1271, 259928, Note_off_c, 6, 76, 1021, 259995, Control_c, 2, 76, 0
1, 259999, Note_off_c, 6, 81, 931, 260007, Note_off_c, 3, 61, 1101, 260019, Note_off_c, 6, 78, 981, 260039, Note_off_c, 2, 64, 931, 260039, Note_off_c, 2, 54, 851, 260039, Note_off_c, 2, 57, 931, 260039, Note_off_c, 2, 47, 851, 260039, Note_off_c, 9, 41, 1271, 260040, Note_on_c, 6, 76, 981, 260044, Control_c, 6, 64, 0
1, 260057, Note_off_c, 1, 35, 761, 260114, Note_off_c, 0, 76, 1251, 260119, Note_off_c, 6, 76, 981, 260160, Note_on_c, 1, 28, 801, 260160, Note_on_c, 2, 52, 1271, 260160, Note_on_c, 3, 71, 761, 260160, Note_on_c, 6, 83, 1071, 260160, Note_on_c, 6, 78, 1071, 260160, Note_on_c, 9, 36, 1131, 260160, Note_on_c, 9, 49, 1191, 260163, Note_on_c, 0, 80, 1271, 260219, Note_off_c, 1, 28, 801, 260248, Note_off_c, 2, 52, 1271, 260278, Note_off_c, 3, 71, 761, 260279, Note_off_c, 6, 83, 1071, 260279, Note_off_c, 6, 78, 1071, 260279, Note_off_c, 9, 49, 1191, 260280, Note_on_c, 1, 28, 1131, 260280, Note_on_c, 2, 52, 1071, 260280, Note_on_c, 6, 76, 891, 260281, Note_on_c, 3, 64, 811, 260358, Note_off_c, 1, 28, 1131, 260368, Note_off_c, 2, 52, 1071, 260399, Note_off_c, 3, 64, 811, 260399, Note_on_c, 3, 66, 871, 260399, Note_off_c, 6, 76, 891, 260400, Note_on_c, 6, 78, 851, 260400, Note_on_c, 6, 83, 761, 260400, Note_on_c, 9, 42, 1271, 260518, Note_off_c, 3, 66, 871, 260519, Note_off_c, 6, 78, 851, 260519, Note_off_c, 6, 83, 761, 260519, Note_off_c, 9, 36, 1131, 260519, Note_off_c, 9, 42, 1271, 260520, Note_on_c, 3, 64, 771, 260520, Note_on_c, 6, 76, 981, 260520, Note_on_c, 9, 54, 831, 260599, Note_off_c, 0, 80, 1271, 260638, Note_off_c, 9, 54, 831, 260639, Note_off_c, 6, 76, 981, 260640, Note_on_c, 6, 78, 931, 260640, Note_on_c, 6, 83, 1021, 260640, Note_on_c, 9, 54, 1271, 260640, Note_on_c, 9, 38, 1131, 260640, Note_on_c, 9, 42, 1271, 260645, Note_on_c, 0, 81, 1141, 260758, Note_off_c, 3, 64, 771, 260758, Note_off_c, 9, 54, 1271, 260759, Note_off_c, 6, 78, 931, 260759, Note_off_c, 6, 83, 1021, 260759, Note_off_c, 9, 38, 1131, 260759, Note_off_c, 9, 42, 1271, 260761, Note_on_c, 3, 64, 951, 260879, Note_off_c, 3, 64, 951, 260880, Note_on_c, 1, 28, 1071, 260880, Note_on_c, 2, 52, 1071, 260880, Note_on_c, 3, 66, 891, 260880, Note_on_c, 6, 83, 1071, 260880, Note_on_c, 6, 78, 1021, 260880, Note_on_c, 9, 36, 1131, 260880, Note_on_c, 9, 42, 1271, 260948, Note_off_c, 1, 28, 1071, 260949, Note_off_c, 2, 52, 1071, 260998, Note_off_c, 3, 66, 891, 260999, Note_off_c, 6, 83, 1071, 260999, Note_off_c, 6, 78, 1021, 260999, Note_off_c, 9, 36, 1131, 260999, Note_off_c, 9, 42, 1271, 261000, Note_on_c, 1, 28, 981, 261000, Note_on_c, 2, 52, 1271, 261000, Note_on_c, 3, 71, 791, 261000, Note_on_c, 3, 64, 791, 261000, Note_on_c, 6, 76, 891, 261000, Note_on_c, 9, 36, 1071, 261089, Note_off_c, 0, 81, 1141, 261098, Note_off_c, 1, 28, 981, 261099, Note_off_c, 2, 52, 1271, 261118, Note_off_c, 3, 71, 791, 261119, Note_off_c, 6, 76, 891, 261120, Note_on_c, 6, 78, 851, 261120, Note_on_c, 6, 83, 851, 261120, Note_on_c, 9, 42, 1271, 261121, Note_on_c, 0, 80, 1171, 261238, Note_off_c, 3, 64, 791, 261239, Note_off_c, 6, 78, 851, 261239, Note_off_c, 6, 83, 851, 261239, Note_off_c, 9, 42, 1271, 261240, Note_on_c, 6, 76, 981, 261241, Note_on_c, 3, 64, 921, 261347, Note_off_c, 0, 80, 1171, 261358, Note_off_c, 3, 64, 921, 261358, Note_on_c, 3, 66, 851, 261359, Note_off_c, 6, 76, 981, 261360, Note_on_c, 6, 78, 1021, 261360, Note_on_c, 6, 83, 1021, 261360, Note_on_c, 9, 42, 1271, 261448, Note_on_c, 0, 76, 1121, 261476, Note_off_c, 3, 66, 851, 261479, Note_off_c, 6, 78, 1021, 261479, Note_off_c, 6, 83, 1021, 261479, Note_off_c, 9, 36, 1071, 261479, Note_off_c, 9, 42, 1271, 261480, Note_on_c, 3, 64, 651, 261600, Note_on_c, 6, 83, 1131, 261600, Note_on_c, 6, 78, 1021, 261600, Note_on_c, 9, 38, 1131, 261600, Note_on_c, 9, 42, 1271, 261718, Note_off_c, 3, 64, 651, 261719, Note_off_c, 9, 42, 1271, 261720, Note_on_c, 3, 64, 941, 261838, Note_off_c, 3, 64, 941, 261838, Note_on_c, 3, 66, 811, 261839, Note_off_c, 6, 83, 1131, 261839, Note_off_c, 6, 78, 1021, 261840, Note_on_c, 6, 76, 931, 261840, Note_on_c, 9, 42, 1271, 261956, Note_off_c, 3, 66, 811, 261959, Note_off_c, 9, 38, 1131, 261959, Note_off_c, 9, 42, 1271, 261960, Note_on_c, 3, 64, 611, 262079, Note_off_c, 6, 76, 931, 262080, Note_on_c, 1, 28, 1071, 262080, Note_on_c, 2, 52, 1271, 262080, Note_on_c, 3, 71, 811, 262080, Note_on_c, 6, 78, 981, 262080, Note_on_c, 6, 83, 931, 262080, Note_on_c, 9, 36, 1131, 262080, Note_on_c, 9, 42, 1271, 262139, Note_off_c, 1, 28, 1071, 262168, Note_off_c, 2, 52, 1271, 262198, Note_off_c, 3, 71, 811, 262198, Note_off_c, 3, 64, 611, 262199, Note_off_c, 6, 78, 981, 262199, Note_off_c, 6, 83, 931, 262199, Note_off_c, 9, 36, 1131, 262199, Note_off_c, 9, 42, 1271, 262200, Note_on_c, 1, 28, 981, 262200, Note_on_c, 2, 52, 1021, 262200, Note_on_c, 3, 64, 841, 262200, Note_on_c, 6, 76, 891, 262200, Note_on_c, 9, 36, 1071, 262279, Note_off_c, 2, 52, 1021, 262288, Note_off_c, 1, 28, 981, 262318, Note_on_c, 3, 66, 791, 262319, Note_off_c, 3, 64, 841, 262319, Note_off_c, 6, 76, 891, 262320, Note_on_c, 6, 78, 761, 262320, Note_on_c, 6, 83, 761, 262320, Note_on_c, 9, 42, 1271, 262437, Note_off_c, 3, 66, 791, 262439, Note_off_c, 6, 78, 761, 262439, Note_off_c, 6, 83, 761, 262439, Note_off_c, 9, 36, 1071, 262439, Note_off_c, 9, 42, 1271, 262440, Note_on_c, 3, 64, 711, 262440, Note_on_c, 6, 76, 931, 262440, Note_on_c, 9, 54, 831, 262558, Note_off_c, 9, 54, 831, 262559, Note_off_c, 0, 76, 1121, 262559, Note_off_c, 6, 76, 931, 262560, Note_on_c, 6, 83, 1071, 262560, Note_on_c, 6, 78, 981, 262560, Note_on_c, 9, 54, 1271, 262560, Note_on_c, 9, 38, 1071, 262560, Note_on_c, 9, 42, 1271, 262678, Note_off_c, 3, 64, 711, 262678, Note_off_c, 9, 54, 1271, 262679, Note_off_c, 6, 83, 1071, 262679, Note_off_c, 6, 78, 981, 262679, Note_off_c, 9, 38, 1071, 262679, Note_off_c, 9, 42, 1271, 262681, Note_on_c, 3, 64, 871, 262799, Note_off_c, 3, 64, 871, 262800, Note_on_c, 1, 28, 1021, 262800, Note_on_c, 2, 52, 1191, 262800, Note_on_c, 6, 78, 931, 262800, Note_on_c, 6, 83, 981, 262800, Note_on_c, 9, 42, 1271, 262800, Note_on_c, 9, 36, 931, 262801, Note_on_c, 3, 66, 621, 262859, Note_off_c, 1, 28, 1021, 262888, Note_off_c, 2, 52, 1191, 262919, Note_off_c, 3, 66, 621, 262919, Note_off_c, 6, 78, 931, 262919, Note_off_c, 6, 83, 981, 262919, Note_off_c, 9, 42, 1271, 262919, Note_off_c, 9, 36, 931, 262920, Note_on_c, 1, 28, 1191, 262920, Note_on_c, 2, 52, 1131, 262920, Note_on_c, 3, 71, 731, 262920, Note_on_c, 3, 64, 681, 262920, Note_on_c, 6, 76, 891, 262920, Note_on_c, 9, 36, 891, 262999, Note_off_c, 2, 52, 1131, 263018, Note_off_c, 1, 28, 1191, 263038, Note_off_c, 3, 71, 731, 263039, Note_off_c, 6, 76, 891, 263040, Note_on_c, 6, 78, 761, 263040, Note_on_c, 6, 83, 851, 263040, Note_on_c, 9, 42, 1271, 263158, Note_off_c, 3, 64, 681, 263159, Note_off_c, 6, 78, 761, 263159, Note_off_c, 6, 83, 851, 263159, Note_off_c, 9, 42, 1271, 263160, Note_on_c, 6, 76, 1071, 263161, Note_on_c, 3, 64, 751, 263279, Note_off_c, 6, 76, 1071, 263280, Note_off_c, 3, 64, 751, 263280, Note_on_c, 3, 66, 661, 263280, Note_on_c, 6, 78, 891, 263280, Note_on_c, 6, 83, 931, 263280, Note_on_c, 9, 42, 1271, 263399, Note_off_c, 3, 66, 661, 263399, Note_off_c, 6, 78, 891, 263399, Note_off_c, 6, 83, 931, 263399, Note_off_c, 9, 36, 891, 263399, Note_off_c, 9, 42, 1271, 263400, Note_on_c, 3, 64, 721, 263520, Note_on_c, 6, 83, 1071, 263520, Note_on_c, 6, 78, 931, 263520, Note_on_c, 9, 38, 1131, 263520, Note_on_c, 9, 42, 1271, 263523, Note_on_c, 0, 66, 971, 263529, Note_on_c, 0, 85, 761, 263638, Note_off_c, 3, 64, 721, 263639, Note_off_c, 9, 42, 1271, 263640, Note_on_c, 3, 64, 851, 263758, Note_off_c, 3, 64, 851, 263758, Note_on_c, 3, 66, 811, 263759, Note_off_c, 6, 83, 1071, 263759, Note_off_c, 6, 78, 931, 263760, Note_on_c, 6, 76, 981, 263760, Note_on_c, 9, 42, 1271, 263875, Note_off_c, 3, 66, 811, 263879, Note_off_c, 9, 38, 1131, 263879, Note_off_c, 9, 42, 1271, 263880, Note_on_c, 3, 64, 701, 263955, Note_off_c, 0, 85, 761, 263971, Note_off_c, 0, 66, 971, 263985, Note_on_c, 0, 64, 1001, 263998, Note_off_c, 3, 64, 701, 263999, Note_off_c, 6, 76, 981, 264000, Note_on_c, 1, 28, 1131, 264000, Note_on_c, 2, 52, 1191, 264000, Note_on_c, 3, 71, 761, 264000, Note_on_c, 6, 78, 931, 264000, Note_on_c, 6, 83, 931, 264000, Note_on_c, 9, 36, 981, 264000, Note_on_c, 9, 42, 1271, 264004, Note_on_c, 0, 83, 781, 264069, Note_off_c, 1, 28, 1131, 264088, Note_off_c, 2, 52, 1191, 264118, Note_off_c, 3, 71, 761, 264119, Note_off_c, 6, 78, 931, 264119, Note_off_c, 6, 83, 931, 264119, Note_off_c, 9, 36, 981, 264119, Note_off_c, 9, 42, 1271, 264120, Note_on_c, 1, 28, 1071, 264120, Note_on_c, 2, 52, 1131, 264120, Note_on_c, 6, 76, 851, 264120, Note_on_c, 9, 36, 931, 264121, Note_on_c, 3, 64, 811, 264189, Note_off_c, 2, 52, 1131, 264218, Note_off_c, 1, 28, 1071, 264239, Note_off_c, 3, 64, 811, 264239, Note_on_c, 3, 66, 871, 264239, Note_off_c, 6, 76, 851, 264240, Note_on_c, 6, 78, 721, 264240, Note_on_c, 6, 83, 571, 264240, Note_on_c, 9, 42, 1271, 264358, Note_off_c, 3, 66, 871, 264359, Note_off_c, 6, 78, 721, 264359, Note_off_c, 6, 83, 571, 264359, Note_off_c, 9, 36, 931, 264359, Note_off_c, 9, 42, 1271, 264360, Note_on_c, 3, 64, 771, 264360, Note_on_c, 6, 76, 981, 264360, Note_on_c, 9, 54, 831, 264478, Note_off_c, 9, 54, 831, 264479, Note_off_c, 6, 76, 981, 264480, Note_on_c, 6, 78, 1021, 264480, Note_on_c, 6, 83, 1131, 264480, Note_on_c, 9, 54, 1271, 264480, Note_on_c, 9, 38, 1131, 264480, Note_on_c, 9, 42, 1271, 264598, Note_off_c, 3, 64, 771, 264598, Note_off_c, 9, 54, 1271, 264599, Note_off_c, 6, 78, 1021, 264599, Note_off_c, 6, 83, 1131, 264599, Note_off_c, 9, 38, 1131, 264599, Note_off_c, 9, 42, 1271, 264601, Note_on_c, 3, 64, 951, 264707, Note_off_c, 0, 83, 781, 264708, Note_off_c, 0, 64, 1001, 264719, Note_off_c, 3, 64, 951, 264720, Note_on_c, 1, 28, 981, 264720, Note_on_c, 2, 52, 1271, 264720, Note_on_c, 3, 66, 891, 264720, Note_on_c, 6, 78, 931, 264720, Note_on_c, 6, 83, 1021, 264720, Note_on_c, 9, 42, 1271, 264720, Note_on_c, 9, 36, 1071, 264721, Note_on_c, 0, 80, 651, 264729, Note_on_c, 0, 59, 951, 264779, Note_off_c, 1, 28, 981, 264799, Note_off_c, 2, 52, 1271, 264838, Note_off_c, 3, 66, 891, 264839, Note_off_c, 6, 78, 931, 264839, Note_off_c, 6, 83, 1021, 264839, Note_off_c, 9, 42, 1271, 264839, Note_off_c, 9, 36, 1071, 264840, Note_on_c, 1, 28, 1131, 264840, Note_on_c, 2, 52, 1191, 264840, Note_on_c, 3, 71, 791, 264840, Note_on_c, 3, 64, 791, 264840, Note_on_c, 6, 76, 1021, 264840, Note_on_c, 9, 36, 1021, 264918, Note_off_c, 2, 52, 1191, 264939, Note_off_c, 1, 28, 1131, 264958, Note_off_c, 3, 71, 791, 264959, Note_off_c, 6, 76, 1021, 264960, Note_on_c, 6, 83, 891, 264960, Note_on_c, 6, 78, 681, 264960, Note_on_c, 9, 42, 1271, 265078, Note_off_c, 3, 64, 791, 265079, Note_off_c, 6, 83, 891, 265079, Note_off_c, 6, 78, 681, 265079, Note_off_c, 9, 42, 1271, 265080, Note_on_c, 6, 76, 1021, 265081, Note_on_c, 3, 64, 921, 265198, Note_off_c, 3, 64, 921, 265198, Note_on_c, 3, 66, 851, 265199, Note_off_c, 6, 76, 1021, 265200, Note_on_c, 6, 83, 981, 265200, Note_on_c, 6, 78, 891, 265200, Note_on_c, 9, 42, 1271, 265316, Note_off_c, 3, 66, 851, 265319, Note_off_c, 6, 83, 981, 265319, Note_off_c, 6, 78, 891, 265319, Note_off_c, 9, 36, 1021, 265319, Note_off_c, 9, 42, 1271, 265320, Note_on_c, 3, 64, 651, 265440, Note_on_c, 6, 83, 1071, 265440, Note_on_c, 6, 78, 1071, 265440, Note_on_c, 9, 38, 1071, 265440, Note_on_c, 9, 42, 1271, 265558, Note_off_c, 3, 64, 651, 265559, Note_off_c, 9, 42, 1271, 265560, Note_on_c, 3, 64, 941, 265678, Note_off_c, 3, 64, 941, 265678, Note_on_c, 3, 66, 811, 265679, Note_off_c, 6, 83, 1071, 265679, Note_off_c, 6, 78, 1071, 265680, Note_on_c, 6, 76, 1021, 265680, Note_on_c, 9, 42, 1271, 265796, Note_off_c, 3, 66, 811, 265799, Note_off_c, 9, 38, 1071, 265799, Note_off_c, 9, 42, 1271, 265800, Note_on_c, 3, 64, 611, 265919, Note_off_c, 6, 76, 1021, 265920, Note_on_c, 1, 28, 1131, 265920, Note_on_c, 2, 52, 1271, 265920, Note_on_c, 3, 71, 811, 265920, Note_on_c, 6, 83, 1071, 265920, Note_on_c, 6, 78, 931, 265920, Note_on_c, 9, 36, 1071, 265920, Note_on_c, 9, 42, 1271, 265989, Note_off_c, 2, 52, 1271, 265999, Note_off_c, 1, 28, 1131, 266038, Note_off_c, 3, 71, 811, 266038, Note_off_c, 3, 64, 611, 266039, Note_off_c, 6, 83, 1071, 266039, Note_off_c, 6, 78, 931, 266039, Note_off_c, 9, 36, 1071, 266039, Note_off_c, 9, 42, 1271, 266040, Note_on_c, 1, 28, 931, 266040, Note_on_c, 2, 52, 1021, 266040, Note_on_c, 3, 64, 841, 266040, Note_on_c, 6, 76, 891, 266040, Note_on_c, 9, 36, 981, 266128, Note_off_c, 2, 52, 1021, 266139, Note_off_c, 1, 28, 931, 266158, Note_on_c, 3, 66, 791, 266159, Note_off_c, 3, 64, 841, 266159, Note_off_c, 6, 76, 891, 266160, Note_on_c, 6, 78, 721, 266160, Note_on_c, 6, 83, 571, 266160, Note_on_c, 9, 42, 1271, 266277, Note_off_c, 3, 66, 791, 266279, Note_off_c, 6, 78, 721, 266279, Note_off_c, 6, 83, 571, 266279, Note_off_c, 9, 36, 981, 266279, Note_off_c, 9, 42, 1271, 266280, Note_on_c, 3, 64, 711, 266280, Note_on_c, 6, 76, 1021, 266280, Note_on_c, 9, 54, 831, 266398, Note_off_c, 9, 54, 831, 266399, Note_off_c, 6, 76, 1021, 266400, Note_on_c, 6, 83, 1021, 266400, Note_on_c, 6, 78, 981, 266400, Note_on_c, 9, 54, 1271, 266400, Note_on_c, 9, 42, 1271, 266400, Note_on_c, 9, 38, 1071, 266518, Note_off_c, 3, 64, 711, 266518, Note_off_c, 9, 54, 1271, 266519, Note_off_c, 6, 83, 1021, 266519, Note_off_c, 6, 78, 981, 266519, Note_off_c, 9, 42, 1271, 266519, Note_off_c, 9, 38, 1071, 266521, Note_on_c, 3, 64, 871, 266639, Note_off_c, 3, 64, 871, 266640, Note_on_c, 1, 28, 1071, 266640, Note_on_c, 2, 52, 1191, 266640, Note_on_c, 6, 78, 931, 266640, Note_on_c, 6, 83, 931, 266640, Note_on_c, 9, 36, 981, 266640, Note_on_c, 9, 42, 1271, 266641, Note_on_c, 3, 66, 621, 266699, Note_off_c, 1, 28, 1071, 266729, Note_off_c, 2, 52, 1191, 266759, Note_off_c, 3, 66, 621, 266759, Note_off_c, 6, 78, 931, 266759, Note_off_c, 6, 83, 931, 266759, Note_off_c, 9, 36, 981, 266759, Note_off_c, 9, 42, 1271, 266760, Note_on_c, 1, 28, 1131, 266760, Note_on_c, 2, 52, 1191, 266760, Note_on_c, 3, 71, 731, 266760, Note_on_c, 3, 64, 681, 266760, Note_on_c, 6, 76, 931, 266760, Note_on_c, 9, 36, 981, 266795, Note_off_c, 0, 59, 951, 266830, Note_off_c, 0, 80, 651, 266849, Note_off_c, 1, 28, 1131, 266849, Note_off_c, 2, 52, 1191, 266878, Note_off_c, 3, 71, 731, 266879, Note_off_c, 6, 76, 931, 266880, Note_on_c, 6, 78, 801, 266880, Note_on_c, 6, 83, 891, 266880, Note_on_c, 9, 42, 1271, 266998, Note_off_c, 3, 64, 681, 266999, Note_off_c, 6, 78, 801, 266999, Note_off_c, 6, 83, 891, 266999, Note_off_c, 9, 42, 1271, 267000, Note_on_c, 6, 76, 931, 267001, Note_on_c, 3, 64, 751, 267119, Note_off_c, 6, 76, 931, 267120, Note_off_c, 3, 64, 751, 267120, Note_on_c, 3, 66, 661, 267120, Note_on_c, 6, 83, 931, 267120, Note_on_c, 6, 78, 891, 267120, Note_on_c, 9, 42, 1271, 267239, Note_off_c, 3, 66, 661, 267239, Note_off_c, 6, 83, 931, 267239, Note_off_c, 6, 78, 891, 267239, Note_off_c, 9, 36, 981, 267239, Note_off_c, 9, 42, 1271, 267240, Note_on_c, 3, 64, 721, 267360, Control_c, 0, 7, 90
1, 267360, Note_on_c, 6, 78, 1021, 267360, Note_on_c, 6, 83, 1071, 267360, Note_on_c, 9, 38, 1071, 267360, Note_on_c, 9, 42, 1271, 267363, Note_on_c, 0, 66, 971, 267369, Note_on_c, 0, 85, 761, 267372, Note_on_c, 0, 76, 861, 267478, Note_off_c, 3, 64, 721, 267479, Note_off_c, 9, 42, 1271, 267480, Note_on_c, 3, 64, 851, 267598, Note_off_c, 3, 64, 851, 267598, Note_on_c, 3, 66, 811, 267599, Note_off_c, 6, 78, 1021, 267599, Note_off_c, 6, 83, 1071, 267600, Note_on_c, 6, 76, 931, 267600, Note_on_c, 9, 42, 1271, 267715, Note_off_c, 3, 66, 811, 267719, Note_off_c, 9, 38, 1071, 267719, Note_off_c, 9, 42, 1271, 267720, Note_on_c, 3, 64, 701, 267794, Note_off_c, 0, 76, 861, 267795, Note_off_c, 0, 85, 761, 267811, Note_off_c, 0, 66, 971, 267825, Note_on_c, 0, 64, 1001, 267838, Note_off_c, 3, 64, 701, 267839, Note_off_c, 6, 76, 931, 267840, Note_on_c, 1, 28, 801, 267840, Note_on_c, 2, 52, 1271, 267840, Note_on_c, 3, 71, 761, 267840, Note_on_c, 6, 78, 931, 267840, Note_on_c, 6, 83, 981, 267840, Note_on_c, 9, 36, 1131, 267840, Note_on_c, 9, 49, 1191, 267843, Note_on_c, 0, 80, 881, 267844, Note_on_c, 0, 83, 781, 267899, Note_off_c, 1, 28, 801, 267928, Note_off_c, 2, 52, 1271, 267958, Note_off_c, 3, 71, 761, 267959, Note_off_c, 6, 78, 931, 267959, Note_off_c, 6, 83, 981, 267959, Note_off_c, 9, 49, 1191, 267960, Note_on_c, 1, 28, 1131, 267960, Note_on_c, 2, 52, 1071, 267960, Note_on_c, 6, 76, 891, 267961, Note_on_c, 3, 64, 811, 268038, Note_off_c, 1, 28, 1131, 268048, Note_off_c, 2, 52, 1071, 268079, Note_off_c, 3, 64, 811, 268079, Note_on_c, 3, 66, 871, 268079, Note_off_c, 6, 76, 891, 268080, Note_on_c, 6, 78, 851, 268080, Note_on_c, 6, 83, 761, 268080, Note_on_c, 9, 42, 1271, 268080, Note_on_c, 14, 52, 981, 268198, Note_off_c, 3, 66, 871, 268199, Note_off_c, 6, 78, 851, 268199, Note_off_c, 6, 83, 761, 268199, Note_off_c, 9, 36, 1131, 268199, Note_off_c, 9, 42, 1271, 268200, Note_on_c, 3, 64, 771, 268200, Note_on_c, 6, 76, 931, 268200, Note_on_c, 9, 54, 831, 268279, Note_off_c, 0, 80, 881, 268318, Note_off_c, 9, 54, 831, 268319, Note_off_c, 6, 76, 931, 268319, Note_off_c, 14, 52, 981, 268320, Note_on_c, 6, 83, 1021, 268320, Note_on_c, 6, 78, 931, 268320, Note_on_c, 9, 54, 1271, 268320, Note_on_c, 9, 38, 1131, 268320, Note_on_c, 9, 42, 1271, 268320, Note_on_c, 14, 56, 891, 268325, Note_on_c, 0, 81, 871, 268438, Note_off_c, 3, 64, 771, 268438, Note_off_c, 9, 54, 1271, 268439, Note_off_c, 6, 83, 1021, 268439, Note_off_c, 6, 78, 931, 268439, Note_off_c, 9, 38, 1131, 268439, Note_off_c, 9, 42, 1271, 268441, Note_on_c, 3, 64, 951, 268547, Note_off_c, 0, 83, 781, 268548, Note_off_c, 0, 64, 1001, 268556, Note_on_c, 0, 80, 801, 268559, Note_off_c, 3, 64, 951, 268559, Note_off_c, 14, 56, 891, 268560, Note_on_c, 1, 28, 1071, 268560, Note_on_c, 2, 52, 1071, 268560, Note_on_c, 3, 66, 891, 268560, Note_on_c, 6, 78, 851, 268560, Note_on_c, 6, 83, 931, 268560, Note_on_c, 9, 36, 1131, 268560, Note_on_c, 9, 42, 1271, 268560, Note_on_c, 14, 52, 891, 268569, Note_on_c, 0, 59, 951, 268628, Note_off_c, 1, 28, 1071, 268629, Note_off_c, 2, 52, 1071, 268678, Note_off_c, 3, 66, 891, 268679, Note_off_c, 6, 78, 851, 268679, Note_off_c, 6, 83, 931, 268679, Note_off_c, 9, 36, 1131, 268679, Note_off_c, 9, 42, 1271, 268680, Note_on_c, 1, 28, 981, 268680, Note_on_c, 2, 52, 1271, 268680, Note_on_c, 3, 71, 791, 268680, Note_on_c, 3, 64, 791, 268680, Note_on_c, 6, 76, 931, 268680, Note_on_c, 9, 36, 1071, 268769, Note_off_c, 0, 81, 871, 268778, Note_off_c, 1, 28, 981, 268779, Note_off_c, 2, 52, 1271, 268798, Note_off_c, 3, 71, 791, 268799, Note_off_c, 6, 76, 931, 268799, Note_off_c, 14, 52, 891, 268800, Note_on_c, 6, 78, 801, 268800, Note_on_c, 6, 83, 801, 268800, Note_on_c, 9, 42, 1271, 268800, Note_on_c, 14, 54, 981, 268801, Note_on_c, 0, 80, 871, 268918, Note_off_c, 3, 64, 791, 268919, Note_off_c, 6, 78, 801, 268919, Note_off_c, 6, 83, 801, 268919, Note_off_c, 9, 42, 1271, 268920, Note_on_c, 6, 76, 981, 268921, Note_on_c, 3, 64, 921, 269038, Note_off_c, 3, 64, 921, 269038, Note_on_c, 3, 66, 851, 269039, Note_off_c, 6, 76, 981, 269039, Note_off_c, 14, 54, 981, 269040, Note_on_c, 6, 83, 981, 269040, Note_on_c, 6, 78, 931, 269040, Note_on_c, 9, 42, 1271, 269040, Note_on_c, 14, 59, 931, 269091, Note_off_c, 0, 80, 871, 269156, Note_off_c, 3, 66, 851, 269159, Note_off_c, 6, 83, 981, 269159, Note_off_c, 6, 78, 931, 269159, Note_off_c, 9, 36, 1071, 269159, Note_off_c, 9, 42, 1271, 269160, Note_on_c, 3, 64, 651, 269191, Control_c, 14, 1, 4
1, 269201, Control_c, 14, 1, 11
1, 269220, Note_on_c, 0, 76, 851, 269221, Control_c, 14, 1, 21
1, 269231, Control_c, 14, 1, 31
1, 269250, Control_c, 14, 1, 41
1, 269260, Control_c, 14, 1, 48
1, 269280, Control_c, 14, 1, 56
1, 269280, Note_on_c, 6, 83, 1021, 269280, Note_on_c, 6, 78, 931, 269280, Note_on_c, 9, 38, 1131, 269280, Note_on_c, 9, 42, 1271, 269290, Control_c, 14, 1, 64
1, 269309, Control_c, 14, 1, 71
1, 269319, Control_c, 14, 1, 78
1, 269339, Control_c, 14, 1, 83
1, 269349, Control_c, 14, 1, 88
1, 269369, Control_c, 14, 1, 95
1, 269388, Control_c, 14, 1, 101
1, 269398, Note_off_c, 3, 64, 651, 269399, Note_off_c, 9, 42, 1271, 269400, Note_on_c, 3, 64, 941, 269408, Control_c, 14, 1, 108
1, 269437, Control_c, 14, 1, 113
1, 269467, Control_c, 14, 1, 120
1, 269477, Control_c, 14, 1, 125
1, 269506, Control_c, 14, 1, 127
1, 269518, Note_off_c, 3, 64, 941, 269518, Note_on_c, 3, 66, 811, 269519, Note_off_c, 6, 83, 1021, 269519, Note_off_c, 6, 78, 931, 269520, Note_on_c, 6, 76, 931, 269520, Note_on_c, 9, 42, 1271, 269636, Note_off_c, 3, 66, 811, 269639, Note_off_c, 9, 38, 1131, 269639, Note_off_c, 9, 42, 1271, 269640, Note_on_c, 3, 64, 611, 269683, Control_c, 14, 1, 111
1, 269693, Control_c, 14, 1, 91
1, 269713, Control_c, 14, 1, 63
1, 269723, Control_c, 14, 1, 22
1, 269733, Control_c, 14, 1, 0
1, 269759, Note_off_c, 6, 76, 931, 269759, Note_off_c, 14, 59, 931, 269760, Note_on_c, 1, 28, 1071, 269760, Note_on_c, 2, 52, 1271, 269760, Note_on_c, 3, 71, 811, 269760, Note_on_c, 6, 78, 981, 269760, Note_on_c, 6, 83, 931, 269760, Note_on_c, 9, 36, 1131, 269760, Note_on_c, 9, 42, 1271, 269760, Note_on_c, 14, 56, 981, 269819, Note_off_c, 1, 28, 1071, 269848, Note_off_c, 2, 52, 1271, 269878, Note_off_c, 3, 71, 811, 269878, Note_off_c, 3, 64, 611, 269879, Note_off_c, 6, 78, 981, 269879, Note_off_c, 6, 83, 931, 269879, Note_off_c, 9, 36, 1131, 269879, Note_off_c, 9, 42, 1271, 269880, Note_on_c, 1, 28, 981, 269880, Note_on_c, 2, 52, 1021, 269880, Note_on_c, 3, 64, 841, 269880, Note_on_c, 6, 76, 891, 269880, Note_on_c, 9, 36, 1071, 269959, Note_off_c, 2, 52, 1021, 269968, Note_off_c, 1, 28, 981, 269998, Note_on_c, 3, 66, 791, 269999, Note_off_c, 3, 64, 841, 269999, Note_off_c, 6, 76, 891, 270000, Note_on_c, 6, 78, 721, 270000, Note_on_c, 6, 83, 721, 270000, Note_on_c, 9, 42, 1271, 270117, Note_off_c, 3, 66, 791, 270119, Note_off_c, 6, 78, 721, 270119, Note_off_c, 6, 83, 721, 270119, Note_off_c, 9, 36, 1071, 270119, Note_off_c, 9, 42, 1271, 270119, Note_off_c, 14, 56, 981, 270120, Note_on_c, 3, 64, 711, 270120, Note_on_c, 6, 76, 931, 270120, Note_on_c, 9, 54, 831, 270120, Note_on_c, 14, 52, 931, 270238, Note_off_c, 9, 54, 831, 270239, Note_off_c, 6, 76, 931, 270240, Note_on_c, 6, 83, 1071, 270240, Note_on_c, 6, 78, 1021, 270240, Note_on_c, 9, 54, 1271, 270240, Note_on_c, 9, 38, 1071, 270240, Note_on_c, 9, 42, 1271, 270358, Note_off_c, 3, 64, 711, 270358, Note_off_c, 9, 54, 1271, 270359, Note_off_c, 6, 83, 1071, 270359, Note_off_c, 6, 78, 1021, 270359, Note_off_c, 9, 38, 1071, 270359, Note_off_c, 9, 42, 1271, 270361, Note_on_c, 3, 64, 871, 270479, Note_off_c, 3, 64, 871, 270479, Note_off_c, 14, 52, 931, 270480, Note_on_c, 1, 28, 1021, 270480, Note_on_c, 2, 52, 1191, 270480, Note_on_c, 6, 78, 891, 270480, Note_on_c, 6, 83, 891, 270480, Note_on_c, 9, 42, 1271, 270480, Note_on_c, 9, 36, 931, 270480, Note_on_c, 14, 50, 981, 270481, Note_on_c, 3, 66, 621, 270539, Note_off_c, 1, 28, 1021, 270568, Note_off_c, 2, 52, 1191, 270599, Note_off_c, 3, 66, 621, 270599, Note_off_c, 6, 78, 891, 270599, Note_off_c, 6, 83, 891, 270599, Note_off_c, 9, 42, 1271, 270599, Note_off_c, 9, 36, 931, 270600, Note_on_c, 1, 28, 1191, 270600, Note_on_c, 2, 52, 1131, 270600, Note_on_c, 3, 71, 731, 270600, Note_on_c, 3, 64, 681, 270600, Note_on_c, 6, 76, 931, 270600, Note_on_c, 9, 36, 891, 270635, Note_off_c, 0, 59, 951, 270654, Note_off_c, 0, 76, 851, 270670, Note_off_c, 0, 80, 801, 270679, Note_off_c, 2, 52, 1131, 270698, Note_off_c, 1, 28, 1191, 270718, Note_off_c, 3, 71, 731, 270719, Note_off_c, 6, 76, 931, 270720, Note_on_c, 6, 78, 801, 270720, Note_on_c, 6, 83, 851, 270720, Note_on_c, 9, 42, 1271, 270838, Note_off_c, 3, 64, 681, 270839, Note_off_c, 6, 78, 801, 270839, Note_off_c, 6, 83, 851, 270839, Note_off_c, 9, 42, 1271, 270840, Note_on_c, 6, 76, 931, 270841, Note_on_c, 3, 64, 751, 270959, Note_off_c, 6, 76, 931, 270959, Note_off_c, 14, 50, 981, 270960, Note_off_c, 3, 64, 751, 270960, Note_on_c, 3, 66, 661, 270960, Note_on_c, 6, 83, 981, 270960, Note_on_c, 6, 78, 931, 270960, Note_on_c, 9, 42, 1271, 270960, Note_on_c, 14, 54, 931, 271079, Note_off_c, 3, 66, 661, 271079, Note_off_c, 6, 83, 981, 271079, Note_off_c, 6, 78, 931, 271079, Note_off_c, 9, 36, 891, 271079, Note_off_c, 9, 42, 1271, 271080, Note_on_c, 3, 64, 721, 271200, Note_on_c, 6, 83, 1071, 271200, Note_on_c, 6, 78, 1071, 271200, Note_on_c, 9, 38, 1131, 271200, Note_on_c, 9, 42, 1271, 271203, Note_on_c, 0, 66, 971, 271209, Note_on_c, 0, 85, 761, 271268, Control_c, 14, 1, 1
1, 271297, Control_c, 14, 1, 6
1, 271318, Note_off_c, 3, 64, 721, 271319, Note_off_c, 9, 42, 1271, 271320, Note_on_c, 3, 64, 851, 271327, Control_c, 14, 1, 12
1, 271356, Control_c, 14, 1, 21
1, 271386, Control_c, 14, 1, 26
1, 271405, Control_c, 14, 1, 31
1, 271415, Control_c, 14, 1, 36
1, 271435, Control_c, 14, 1, 42
1, 271438, Note_off_c, 3, 64, 851, 271438, Note_on_c, 3, 66, 811, 271439, Note_off_c, 6, 83, 1071, 271439, Note_off_c, 6, 78, 1071, 271440, Note_on_c, 6, 76, 981, 271440, Note_on_c, 9, 42, 1271, 271455, Control_c, 14, 1, 54
1, 271474, Control_c, 14, 1, 61
1, 271484, Control_c, 14, 1, 69
1, 271504, Control_c, 14, 1, 76
1, 271514, Control_c, 14, 1, 81
1, 271533, Control_c, 14, 1, 88
1, 271555, Note_off_c, 3, 66, 811, 271559, Note_off_c, 9, 38, 1131, 271559, Note_off_c, 9, 42, 1271, 271560, Note_on_c, 3, 64, 701, 271583, Control_c, 14, 1, 76
1, 271602, Control_c, 14, 1, 58
1, 271612, Control_c, 14, 1, 32
1, 271632, Control_c, 14, 1, 0
1, 271635, Note_off_c, 0, 85, 761, 271651, Note_off_c, 0, 66, 971, 271665, Note_on_c, 0, 64, 1001, 271678, Note_off_c, 3, 64, 701, 271679, Note_off_c, 6, 76, 981, 271680, Program_c, 7, 26
1, 271680, Note_on_c, 1, 28, 1131, 271680, Note_on_c, 2, 52, 1191, 271680, Note_on_c, 3, 71, 761, 271680, Note_on_c, 6, 78, 1021, 271680, Note_on_c, 6, 83, 1071, 271680, Note_on_c, 9, 36, 981, 271680, Note_on_c, 9, 42, 1271, 271680, Note_on_c, 14, 52, 1071, 271684, Note_on_c, 0, 83, 781, 271749, Note_off_c, 1, 28, 1131, 271768, Note_off_c, 2, 52, 1191, 271798, Note_off_c, 3, 71, 761, 271799, Note_off_c, 6, 78, 1021, 271799, Note_off_c, 6, 83, 1071, 271799, Note_off_c, 9, 36, 981, 271799, Note_off_c, 9, 42, 1271, 271799, Note_off_c, 14, 54, 931, 271800, Note_on_c, 1, 28, 1071, 271800, Note_on_c, 2, 52, 1131, 271800, Note_on_c, 6, 76, 891, 271800, Note_on_c, 9, 36, 931, 271801, Note_on_c, 3, 64, 811, 271869, Note_off_c, 2, 52, 1131, 271898, Note_off_c, 1, 28, 1071, 271919, Note_off_c, 3, 64, 811, 271919, Note_on_c, 3, 66, 871, 271919, Note_off_c, 6, 76, 891, 271920, Note_on_c, 6, 78, 761, 271920, Note_on_c, 6, 83, 761, 271920, Note_on_c, 9, 42, 1271, 272038, Note_off_c, 3, 66, 871, 272039, Note_off_c, 6, 78, 761, 272039, Note_off_c, 6, 83, 761, 272039, Note_off_c, 9, 36, 931, 272039, Note_off_c, 9, 42, 1271, 272040, Note_on_c, 3, 64, 771, 272040, Note_on_c, 6, 76, 1021, 272040, Note_on_c, 9, 54, 831, 272158, Note_off_c, 9, 54, 831, 272160, Note_on_c, 6, 83, 981, 272160, Note_on_c, 6, 78, 1021, 272160, Note_on_c, 9, 54, 1271, 272160, Note_on_c, 9, 38, 1131, 272160, Note_on_c, 9, 42, 1271, 272202, Pitch_bend_c, 14, 8040
1, 272222, Pitch_bend_c, 14, 7509
1, 272232, Pitch_bend_c, 14, 7281
1, 272242, Pitch_bend_c, 14, 6750
1, 272261, Pitch_bend_c, 14, 5992
1, 272271, Pitch_bend_c, 14, 5082
1, 272278, Note_off_c, 3, 64, 771, 272278, Note_off_c, 9, 54, 1271, 272279, Note_off_c, 6, 76, 1021, 272279, Note_off_c, 6, 83, 981, 272279, Note_off_c, 6, 78, 1021, 272279, Note_off_c, 9, 38, 1131, 272279, Note_off_c, 9, 42, 1271, 272281, Note_on_c, 3, 64, 951, 272291, Pitch_bend_c, 14, 4475
1, 272301, Pitch_bend_c, 14, 3944
1, 272321, Pitch_bend_c, 14, 3640
1, 272360, Pitch_bend_c, 14, 4475
1, 272380, Pitch_bend_c, 14, 5764
1, 272387, Note_off_c, 0, 83, 781, 272388, Note_off_c, 0, 64, 1001, 272389, Pitch_bend_c, 14, 7357
1, 272399, Pitch_bend_c, 14, 8192
1, 272399, Note_off_c, 3, 64, 951, 272399, Note_off_c, 14, 52, 1071, 272400, Note_on_c, 1, 28, 981, 272400, Note_on_c, 2, 52, 1271, 272400, Note_on_c, 3, 66, 891, 272400, Note_on_c, 6, 78, 851, 272400, Note_on_c, 6, 83, 891, 272400, Note_on_c, 9, 42, 1271, 272400, Note_on_c, 9, 36, 1071, 272400, Note_on_c, 14, 47, 981, 272401, Note_on_c, 0, 80, 801, 272409, Note_on_c, 0, 59, 951, 272459, Note_off_c, 1, 28, 981, 272479, Note_off_c, 2, 52, 1271, 272518, Note_off_c, 3, 66, 891, 272519, Note_off_c, 6, 78, 851, 272519, Note_off_c, 6, 83, 891, 272519, Note_off_c, 9, 42, 1271, 272519, Note_off_c, 9, 36, 1071, 272520, Note_on_c, 1, 28, 1131, 272520, Note_on_c, 2, 52, 1191, 272520, Note_on_c, 3, 71, 791, 272520, Note_on_c, 3, 64, 791, 272520, Note_on_c, 6, 76, 981, 272520, Note_on_c, 9, 36, 1021, 272598, Note_off_c, 2, 52, 1191, 272619, Note_off_c, 1, 28, 1131, 272638, Note_off_c, 3, 71, 791, 272639, Note_off_c, 6, 76, 981, 272640, Note_on_c, 6, 78, 891, 272640, Note_on_c, 6, 83, 801, 272640, Note_on_c, 9, 42, 1271, 272758, Note_off_c, 3, 64, 791, 272759, Note_off_c, 6, 78, 891, 272759, Note_off_c, 6, 83, 801, 272759, Note_off_c, 9, 42, 1271, 272760, Note_on_c, 6, 76, 1021, 272761, Note_on_c, 3, 64, 921, 272878, Note_off_c, 3, 64, 921, 272878, Note_on_c, 3, 66, 851, 272880, Note_on_c, 6, 78, 931, 272880, Note_on_c, 6, 83, 891, 272880, Note_on_c, 9, 42, 1271, 272996, Note_off_c, 3, 66, 851, 272999, Note_off_c, 6, 76, 1021, 272999, Note_off_c, 6, 78, 931, 272999, Note_off_c, 6, 83, 891, 272999, Note_off_c, 9, 36, 1021, 272999, Note_off_c, 9, 42, 1271, 273000, Note_on_c, 3, 64, 651, 273120, Note_on_c, 6, 83, 1021, 273120, Note_on_c, 6, 78, 931, 273120, Note_on_c, 7, 64, 931, 273120, Note_on_c, 9, 38, 1071, 273120, Note_on_c, 9, 42, 1271, 273238, Note_off_c, 3, 64, 651, 273239, Note_off_c, 9, 42, 1271, 273240, Note_on_c, 3, 64, 941, 273358, Note_off_c, 3, 64, 941, 273358, Note_on_c, 3, 66, 811, 273359, Note_off_c, 6, 83, 1021, 273359, Note_off_c, 6, 78, 931, 273360, Note_on_c, 6, 76, 1021, 273360, Note_on_c, 9, 42, 1271, 273476, Note_off_c, 3, 66, 811, 273479, Note_off_c, 9, 38, 1071, 273479, Note_off_c, 9, 42, 1271, 273480, Note_on_c, 3, 64, 611, 273551, Control_c, 14, 1, 2
1, 273580, Control_c, 14, 1, 7
1, 273599, Note_off_c, 6, 76, 1021, 273599, Note_off_c, 7, 64, 931, 273600, Note_on_c, 1, 28, 1131, 273600, Note_on_c, 2, 52, 1271, 273600, Note_on_c, 3, 71, 811, 273600, Note_on_c, 6, 83, 1071, 273600, Note_on_c, 6, 78, 981, 273600, Note_on_c, 7, 68, 931, 273600, Note_on_c, 9, 36, 1071, 273600, Note_on_c, 9, 42, 1271, 273649, Control_c, 14, 1, 14
1, 273669, Note_off_c, 2, 52, 1271, 273679, Note_off_c, 1, 28, 1131, 273698, Control_c, 14, 1, 21
1, 273718, Note_off_c, 3, 71, 811, 273718, Note_off_c, 3, 64, 611, 273719, Note_off_c, 6, 83, 1071, 273719, Note_off_c, 6, 78, 981, 273719, Note_off_c, 9, 36, 1071, 273719, Note_off_c, 9, 42, 1271, 273720, Note_on_c, 1, 28, 931, 273720, Note_on_c, 2, 52, 1021, 273720, Note_on_c, 3, 64, 841, 273720, Note_on_c, 6, 76, 891, 273720, Note_on_c, 9, 36, 981, 273747, Control_c, 14, 1, 27
1, 273797, Control_c, 14, 1, 32
1, 273808, Note_off_c, 2, 52, 1021, 273819, Note_off_c, 1, 28, 931, 273836, Control_c, 14, 1, 37
1, 273838, Note_on_c, 3, 66, 791, 273839, Note_off_c, 3, 64, 841, 273839, Note_off_c, 6, 76, 891, 273840, Note_on_c, 6, 78, 891, 273840, Note_on_c, 6, 83, 761, 273840, Note_on_c, 9, 42, 1271, 273885, Control_c, 14, 1, 42
1, 273915, Control_c, 14, 1, 48
1, 273924, Control_c, 14, 1, 53
1, 273957, Note_off_c, 3, 66, 791, 273959, Note_off_c, 6, 78, 891, 273959, Note_off_c, 6, 83, 761, 273959, Note_off_c, 9, 36, 981, 273959, Note_off_c, 9, 42, 1271, 273960, Note_on_c, 3, 64, 711, 273960, Note_on_c, 6, 76, 891, 273960, Note_on_c, 9, 54, 831, 273964, Control_c, 14, 1, 59
1, 273993, Control_c, 14, 1, 66
1, 274023, Control_c, 14, 1, 71
1, 274059, Pitch_bend_c, 7, 8551
1, 274062, Control_c, 14, 1, 78
1, 274078, Pitch_bend_c, 7, 9055
1, 274078, Note_off_c, 9, 54, 831, 274080, Note_on_c, 6, 83, 1071, 274080, Note_on_c, 6, 78, 931, 274080, Note_on_c, 9, 54, 1271, 274080, Note_on_c, 9, 42, 1271, 274080, Note_on_c, 9, 38, 1071, 274088, Pitch_bend_c, 7, 9558
1, 274108, Pitch_bend_c, 7, 9990
1, 274111, Control_c, 14, 1, 83
1, 274118, Pitch_bend_c, 7, 10349
1, 274141, Control_c, 14, 1, 90
1, 274147, Pitch_bend_c, 7, 10565
1, 274170, Control_c, 14, 1, 95
1, 274177, Pitch_bend_c, 7, 10853
1, 274198, Note_off_c, 3, 64, 711, 274198, Note_off_c, 9, 54, 1271, 274199, Note_off_c, 6, 83, 1071, 274199, Note_off_c, 6, 78, 931, 274199, Note_off_c, 9, 42, 1271, 274199, Note_off_c, 9, 38, 1071, 274200, Control_c, 14, 1, 101
1, 274201, Note_on_c, 3, 64, 871, 274239, Control_c, 14, 1, 110
1, 274246, Pitch_bend_c, 7, 10565
1, 274275, Pitch_bend_c, 7, 9918
1, 274295, Pitch_bend_c, 7, 8983
1, 274298, Control_c, 14, 1, 116
1, 274305, Pitch_bend_c, 7, 8192
1, 274319, Note_off_c, 3, 64, 871, 274319, Note_off_c, 6, 76, 891, 274320, Note_on_c, 1, 28, 1071, 274320, Note_on_c, 2, 52, 1191, 274320, Note_on_c, 6, 83, 931, 274320, Note_on_c, 6, 78, 891, 274320, Note_on_c, 9, 36, 981, 274320, Note_on_c, 9, 42, 1271, 274321, Note_on_c, 3, 66, 621, 274348, Control_c, 14, 1, 121
1, 274379, Note_off_c, 1, 28, 1071, 274409, Note_off_c, 2, 52, 1191, 274439, Note_off_c, 3, 66, 621, 274439, Note_off_c, 6, 83, 931, 274439, Note_off_c, 6, 78, 891, 274439, Note_off_c, 9, 36, 981, 274439, Note_off_c, 9, 42, 1271, 274440, Note_on_c, 1, 28, 1131, 274440, Note_on_c, 2, 52, 1191, 274440, Note_on_c, 3, 71, 731, 274440, Note_on_c, 3, 64, 681, 274440, Note_on_c, 6, 76, 981, 274440, Note_on_c, 9, 36, 981, 274475, Control_c, 14, 1, 127
1, 274475, Note_off_c, 0, 59, 951, 274515, Note_off_c, 0, 80, 801, 274529, Note_off_c, 1, 28, 1131, 274529, Note_off_c, 2, 52, 1191, 274558, Note_off_c, 3, 71, 731, 274559, Note_off_c, 6, 76, 981, 274560, Note_on_c, 6, 78, 891, 274560, Note_on_c, 6, 83, 891, 274560, Note_on_c, 9, 42, 1271, 274678, Note_off_c, 3, 64, 681, 274679, Note_off_c, 6, 78, 891, 274679, Note_off_c, 6, 83, 891, 274679, Note_off_c, 9, 42, 1271, 274680, Note_on_c, 6, 76, 981, 274681, Note_on_c, 3, 64, 751, 274799, Note_off_c, 7, 68, 931, 274800, Note_off_c, 3, 64, 751, 274800, Note_on_c, 3, 66, 661, 274800, Note_on_c, 6, 78, 981, 274800, Note_on_c, 6, 83, 1021, 274800, Note_on_c, 7, 64, 891, 274800, Note_on_c, 9, 42, 1271, 274869, Control_c, 14, 1, 118
1, 274889, Control_c, 14, 1, 105
1, 274899, Control_c, 14, 1, 91
1, 274918, Control_c, 14, 1, 76
1, 274919, Note_off_c, 3, 66, 661, 274919, Note_off_c, 6, 78, 981, 274919, Note_off_c, 6, 83, 1021, 274919, Note_off_c, 9, 36, 981, 274919, Note_off_c, 9, 42, 1271, 274919, Note_off_c, 14, 47, 981, 274920, Note_on_c, 3, 64, 721, 274928, Control_c, 14, 1, 49
1, 274938, Control_c, 14, 1, 27
1, 274958, Control_c, 14, 1, 6
1, 274977, Control_c, 14, 1, 0
1, 275040, Note_on_c, 6, 83, 1021, 275040, Note_on_c, 6, 78, 981, 275040, Note_on_c, 9, 38, 1071, 275040, Note_on_c, 9, 42, 1271, 275043, Note_on_c, 0, 66, 971, 275049, Note_on_c, 0, 85, 761, 275052, Note_on_c, 0, 76, 891, 275158, Note_off_c, 3, 64, 721, 275159, Note_off_c, 6, 76, 981, 275159, Note_off_c, 9, 42, 1271, 275160, Note_on_c, 3, 64, 851, 275239, Control_c, 7, 1, 4
1, 275259, Control_c, 7, 1, 11
1, 275269, Control_c, 7, 1, 17
1, 275278, Note_off_c, 3, 64, 851, 275278, Note_on_c, 3, 66, 811, 275279, Note_off_c, 6, 83, 1021, 275279, Note_off_c, 6, 78, 981, 275280, Note_on_c, 6, 76, 1071, 275280, Note_on_c, 9, 42, 1271, 275298, Control_c, 7, 1, 26
1, 275308, Control_c, 7, 1, 31
1, 275328, Control_c, 7, 1, 36
1, 275338, Control_c, 7, 1, 42
1, 275348, Control_c, 7, 1, 48
1, 275387, Control_c, 7, 1, 56
1, 275395, Note_off_c, 3, 66, 811, 275399, Note_off_c, 9, 38, 1071, 275399, Note_off_c, 9, 42, 1271, 275400, Note_on_c, 3, 64, 701, 275417, Control_c, 7, 1, 63
1, 275426, Control_c, 7, 1, 69
1, 275466, Control_c, 7, 1, 76
1, 275474, Note_off_c, 0, 76, 891, 275475, Note_off_c, 0, 85, 761, 275491, Note_off_c, 0, 66, 971, 275495, Control_c, 7, 1, 84
1, 275505, Note_on_c, 0, 64, 1001, 275518, Note_off_c, 3, 64, 701, 275519, Note_off_c, 6, 76, 1071, 275520, Note_on_c, 1, 28, 801, 275520, Note_on_c, 2, 52, 1271, 275520, Note_on_c, 3, 71, 761, 275520, Note_on_c, 6, 83, 1071, 275520, Note_on_c, 6, 78, 1071, 275520, Note_on_c, 9, 36, 1131, 275520, Note_on_c, 9, 49, 1191, 275523, Note_on_c, 0, 80, 881, 275524, Note_on_c, 0, 83, 781, 275525, Control_c, 7, 1, 91
1, 275574, Control_c, 7, 1, 100
1, 275579, Note_off_c, 1, 28, 801, 275608, Note_off_c, 2, 52, 1271, 275638, Note_off_c, 3, 71, 761, 275639, Note_off_c, 6, 83, 1071, 275639, Note_off_c, 6, 78, 1071, 275639, Note_off_c, 9, 49, 1191, 275640, Note_on_c, 1, 28, 1131, 275640, Note_on_c, 2, 52, 1071, 275640, Note_on_c, 6, 76, 891, 275641, Note_on_c, 3, 64, 811, 275643, Control_c, 7, 1, 105
1, 275672, Control_c, 7, 1, 110
1, 275718, Note_off_c, 1, 28, 1131, 275728, Note_off_c, 2, 52, 1071, 275731, Control_c, 7, 1, 115
1, 275759, Note_off_c, 3, 64, 811, 275759, Note_on_c, 3, 66, 871, 275759, Note_off_c, 6, 76, 891, 275760, Note_on_c, 6, 78, 851, 275760, Note_on_c, 6, 83, 761, 275760, Note_on_c, 9, 42, 1271, 275760, Note_on_c, 14, 52, 1071, 275761, Control_c, 7, 1, 120
1, 275878, Note_off_c, 3, 66, 871, 275879, Note_off_c, 6, 78, 851, 275879, Note_off_c, 6, 83, 761, 275879, Note_off_c, 9, 36, 1131, 275879, Note_off_c, 9, 42, 1271, 275880, Note_on_c, 3, 64, 771, 275880, Note_on_c, 6, 76, 981, 275880, Note_on_c, 9, 54, 831, 275958, Control_c, 7, 1, 115
1, 275959, Note_off_c, 0, 80, 881, 275997, Control_c, 7, 1, 108
1, 275998, Note_off_c, 9, 54, 831, 275999, Note_off_c, 6, 76, 981, 275999, Note_off_c, 14, 52, 1071, 276000, Note_on_c, 6, 78, 931, 276000, Note_on_c, 6, 83, 1021, 276000, Note_on_c, 9, 54, 1271, 276000, Note_on_c, 9, 38, 1131, 276000, Note_on_c, 9, 42, 1271, 276000, Note_on_c, 14, 56, 931, 276005, Note_on_c, 0, 81, 871, 276027, Control_c, 7, 1, 101
1, 276046, Control_c, 7, 1, 95
1, 276056, Control_c, 7, 1, 90
1, 276076, Control_c, 7, 1, 83
1, 276086, Control_c, 7, 1, 76
1, 276115, Control_c, 7, 1, 66
1, 276118, Note_off_c, 3, 64, 771, 276118, Note_off_c, 9, 54, 1271, 276119, Note_off_c, 6, 78, 931, 276119, Note_off_c, 6, 83, 1021, 276119, Note_off_c, 9, 38, 1131, 276119, Note_off_c, 9, 42, 1271, 276121, Note_on_c, 3, 64, 951, 276125, Control_c, 7, 1, 56
1, 276145, Control_c, 7, 1, 51
1, 276155, Control_c, 7, 1, 44
1, 276174, Control_c, 7, 1, 39
1, 276184, Control_c, 7, 1, 34
1, 276204, Control_c, 7, 1, 27
1, 276214, Control_c, 7, 1, 21
1, 276223, Control_c, 7, 1, 14
1, 276227, Note_off_c, 0, 83, 781, 276228, Note_off_c, 0, 64, 1001, 276236, Note_on_c, 0, 80, 801, 276239, Note_off_c, 3, 64, 951, 276239, Note_off_c, 14, 56, 931, 276240, Note_on_c, 1, 28, 1071, 276240, Note_on_c, 2, 52, 1071, 276240, Note_on_c, 3, 66, 891, 276240, Note_on_c, 6, 83, 1071, 276240, Note_on_c, 6, 78, 1021, 276240, Note_on_c, 9, 36, 1131, 276240, Note_on_c, 9, 42, 1271, 276240, Note_on_c, 14, 52, 981, 276243, Control_c, 7, 1, 7
1, 276249, Note_on_c, 0, 59, 951, 276263, Control_c, 7, 1, 2
1, 276273, Control_c, 7, 1, 0
1, 276308, Note_off_c, 1, 28, 1071, 276309, Note_off_c, 2, 52, 1071, 276358, Note_off_c, 3, 66, 891, 276359, Note_off_c, 6, 83, 1071, 276359, Note_off_c, 6, 78, 1021, 276359, Note_off_c, 9, 36, 1131, 276359, Note_off_c, 9, 42, 1271, 276360, Note_on_c, 1, 28, 981, 276360, Note_on_c, 2, 52, 1271, 276360, Note_on_c, 3, 71, 791, 276360, Note_on_c, 3, 64, 791, 276360, Note_on_c, 6, 76, 891, 276360, Note_on_c, 9, 36, 1071, 276449, Note_off_c, 0, 81, 871, 276458, Note_off_c, 1, 28, 981, 276459, Note_off_c, 2, 52, 1271, 276478, Note_off_c, 3, 71, 791, 276479, Note_off_c, 6, 76, 891, 276479, Note_off_c, 14, 52, 981, 276480, Note_on_c, 6, 78, 851, 276480, Note_on_c, 6, 83, 851, 276480, Note_on_c, 9, 42, 1271, 276480, Note_on_c, 14, 54, 981, 276481, Note_on_c, 0, 80, 871, 276598, Note_off_c, 3, 64, 791, 276599, Note_off_c, 6, 78, 851, 276599, Note_off_c, 6, 83, 851, 276599, Note_off_c, 7, 64, 891, 276599, Note_off_c, 9, 42, 1271, 276600, Note_on_c, 6, 76, 981, 276601, Note_on_c, 3, 64, 921, 276718, Note_off_c, 3, 64, 921, 276718, Note_on_c, 3, 66, 851, 276719, Note_off_c, 6, 76, 981, 276719, Note_off_c, 14, 54, 981, 276720, Note_on_c, 6, 78, 1021, 276720, Note_on_c, 6, 83, 1021, 276720, Note_on_c, 9, 42, 1271, 276720, Note_on_c, 14, 59, 931, 276771, Note_off_c, 0, 80, 871, 276836, Note_off_c, 3, 66, 851, 276839, Note_off_c, 6, 78, 1021, 276839, Note_off_c, 6, 83, 1021, 276839, Note_off_c, 9, 36, 1071, 276839, Note_off_c, 9, 42, 1271, 276840, Note_on_c, 3, 64, 651, 276900, Note_on_c, 0, 76, 851, 276906, Control_c, 14, 1, 7
1, 276926, Control_c, 14, 1, 12
1, 276935, Control_c, 14, 1, 21
1, 276955, Control_c, 14, 1, 29
1, 276960, Note_on_c, 6, 83, 1131, 276960, Note_on_c, 6, 78, 1021, 276960, Note_on_c, 9, 38, 1131, 276960, Note_on_c, 9, 42, 1271, 276965, Control_c, 14, 1, 34
1, 276985, Control_c, 14, 1, 41
1, 276995, Control_c, 14, 1, 46
1, 277014, Control_c, 14, 1, 54
1, 277024, Control_c, 14, 1, 61
1, 277034, Control_c, 14, 1, 69
1, 277054, Control_c, 14, 1, 78
1, 277063, Control_c, 14, 1, 84
1, 277078, Note_off_c, 3, 64, 651, 277079, Note_off_c, 9, 42, 1271, 277080, Note_on_c, 3, 64, 941, 277083, Control_c, 14, 1, 91
1, 277093, Control_c, 14, 1, 101
1, 277122, Control_c, 14, 1, 110
1, 277142, Control_c, 14, 1, 115
1, 277152, Control_c, 14, 1, 123
1, 277181, Control_c, 14, 1, 127
1, 277198, Note_off_c, 3, 64, 941, 277198, Note_on_c, 3, 66, 811, 277199, Note_off_c, 6, 83, 1131, 277199, Note_off_c, 6, 78, 1021, 277200, Note_on_c, 6, 76, 931, 277200, Note_on_c, 9, 42, 1271, 277316, Note_off_c, 3, 66, 811, 277319, Note_off_c, 9, 38, 1131, 277319, Note_off_c, 9, 42, 1271, 277320, Note_on_c, 3, 64, 611, 277359, Control_c, 14, 1, 120
1, 277368, Control_c, 14, 1, 111
1, 277378, Control_c, 14, 1, 103
1, 277398, Control_c, 14, 1, 88
1, 277408, Control_c, 14, 1, 71
1, 277427, Control_c, 14, 1, 49
1, 277437, Control_c, 14, 1, 26
1, 277439, Note_off_c, 6, 76, 931, 277439, Note_off_c, 14, 59, 931, 277440, Note_on_c, 1, 28, 1071, 277440, Note_on_c, 2, 52, 1271, 277440, Note_on_c, 3, 71, 811, 277440, Note_on_c, 6, 78, 981, 277440, Note_on_c, 6, 83, 931, 277440, Note_on_c, 9, 36, 1131, 277440, Note_on_c, 9, 42, 1271, 277440, Note_on_c, 14, 56, 981, 277447, Control_c, 14, 1, 2
1, 277467, Control_c, 14, 1, 0
1, 277499, Note_off_c, 1, 28, 1071, 277528, Note_off_c, 2, 52, 1271, 277558, Note_off_c, 3, 71, 811, 277558, Note_off_c, 3, 64, 611, 277559, Note_off_c, 6, 78, 981, 277559, Note_off_c, 6, 83, 931, 277559, Note_off_c, 9, 36, 1131, 277559, Note_off_c, 9, 42, 1271, 277560, Note_on_c, 1, 28, 981, 277560, Note_on_c, 2, 52, 1021, 277560, Note_on_c, 3, 64, 841, 277560, Note_on_c, 6, 76, 891, 277560, Note_on_c, 9, 36, 1071, 277639, Note_off_c, 2, 52, 1021, 277648, Note_off_c, 1, 28, 981, 277678, Note_on_c, 3, 66, 791, 277679, Note_off_c, 3, 64, 841, 277679, Note_off_c, 6, 76, 891, 277680, Note_on_c, 6, 78, 761, 277680, Note_on_c, 6, 83, 761, 277680, Note_on_c, 9, 42, 1271, 277797, Note_off_c, 3, 66, 791, 277799, Note_off_c, 6, 78, 761, 277799, Note_off_c, 6, 83, 761, 277799, Note_off_c, 9, 36, 1071, 277799, Note_off_c, 9, 42, 1271, 277799, Note_off_c, 14, 56, 981, 277800, Note_on_c, 3, 64, 711, 277800, Note_on_c, 6, 76, 931, 277800, Note_on_c, 9, 54, 831, 277800, Note_on_c, 14, 52, 981, 277918, Note_off_c, 9, 54, 831, 277919, Note_off_c, 6, 76, 931, 277920, Note_on_c, 6, 83, 1071, 277920, Note_on_c, 6, 78, 981, 277920, Note_on_c, 9, 54, 1271, 277920, Note_on_c, 9, 38, 1071, 277920, Note_on_c, 9, 42, 1271, 278038, Note_off_c, 3, 64, 711, 278038, Note_off_c, 9, 54, 1271, 278039, Note_off_c, 6, 83, 1071, 278039, Note_off_c, 6, 78, 981, 278039, Note_off_c, 9, 38, 1071, 278039, Note_off_c, 9, 42, 1271, 278041, Note_on_c, 3, 64, 871, 278159, Note_off_c, 3, 64, 871, 278160, Note_on_c, 1, 28, 1021, 278160, Note_on_c, 2, 52, 1191, 278160, Note_on_c, 6, 78, 931, 278160, Note_on_c, 6, 83, 981, 278160, Note_on_c, 9, 42, 1271, 278160, Note_on_c, 9, 36, 931, 278160, Note_on_c, 14, 50, 931, 278161, Note_on_c, 3, 66, 621, 278219, Note_off_c, 1, 28, 1021, 278248, Note_off_c, 2, 52, 1191, 278279, Note_off_c, 3, 66, 621, 278279, Note_off_c, 6, 78, 931, 278279, Note_off_c, 6, 83, 981, 278279, Note_off_c, 9, 42, 1271, 278279, Note_off_c, 9, 36, 931, 278279, Note_off_c, 14, 52, 981, 278280, Note_on_c, 1, 28, 1191, 278280, Note_on_c, 2, 52, 1131, 278280, Note_on_c, 3, 71, 731, 278280, Note_on_c, 3, 64, 681, 278280, Note_on_c, 6, 76, 891, 278280, Note_on_c, 9, 36, 891, 278315, Note_off_c, 0, 59, 951, 278334, Note_off_c, 0, 76, 851, 278350, Note_off_c, 0, 80, 801, 278359, Note_off_c, 2, 52, 1131, 278378, Note_off_c, 1, 28, 1191, 278398, Note_off_c, 3, 71, 731, 278399, Note_off_c, 6, 76, 891, 278400, Note_on_c, 6, 78, 761, 278400, Note_on_c, 6, 83, 851, 278400, Note_on_c, 9, 42, 1271, 278518, Note_off_c, 3, 64, 681, 278519, Note_off_c, 6, 78, 761, 278519, Note_off_c, 6, 83, 851, 278519, Note_off_c, 9, 42, 1271, 278519, Note_off_c, 14, 50, 931, 278520, Note_on_c, 6, 76, 1071, 278521, Note_on_c, 3, 64, 751, 278639, Note_off_c, 6, 76, 1071, 278640, Note_off_c, 3, 64, 751, 278640, Note_on_c, 3, 66, 661, 278640, Note_on_c, 6, 78, 891, 278640, Note_on_c, 6, 83, 931, 278640, Note_on_c, 9, 42, 1271, 278640, Note_on_c, 14, 54, 931, 278759, Note_off_c, 3, 66, 661, 278759, Note_off_c, 6, 78, 891, 278759, Note_off_c, 6, 83, 931, 278759, Note_off_c, 9, 36, 891, 278759, Note_off_c, 9, 42, 1271, 278760, Note_on_c, 3, 64, 721, 278880, Note_on_c, 6, 83, 1071, 278880, Note_on_c, 6, 78, 931, 278880, Note_on_c, 9, 38, 1131, 278880, Note_on_c, 9, 42, 1271, 278883, Note_on_c, 0, 66, 971, 278889, Note_on_c, 0, 85, 761, 278998, Note_off_c, 3, 64, 721, 278999, Note_off_c, 9, 42, 1271, 279000, Note_on_c, 3, 64, 851, 279118, Note_off_c, 3, 64, 851, 279118, Note_on_c, 3, 66, 811, 279119, Note_off_c, 6, 83, 1071, 279119, Note_off_c, 6, 78, 931, 279120, Note_on_c, 6, 76, 981, 279120, Note_on_c, 9, 42, 1271, 279209, Pitch_bend_c, 14, 7888
1, 279218, Pitch_bend_c, 14, 7509
1, 279228, Pitch_bend_c, 14, 7054
1, 279235, Note_off_c, 3, 66, 811, 279239, Note_off_c, 9, 38, 1131, 279239, Note_off_c, 9, 42, 1271, 279240, Note_on_c, 3, 64, 701, 279248, Pitch_bend_c, 14, 6371
1, 279258, Pitch_bend_c, 14, 5840
1, 279277, Pitch_bend_c, 14, 5385
1, 279287, Pitch_bend_c, 14, 4702
1, 279307, Pitch_bend_c, 14, 4399
1, 279315, Note_off_c, 0, 85, 761, 279331, Note_off_c, 0, 66, 971, 279345, Note_on_c, 0, 64, 1001, 279346, Pitch_bend_c, 14, 4702
1, 279358, Note_off_c, 3, 64, 701, 279359, Note_off_c, 6, 76, 981, 279359, Note_off_c, 14, 54, 931, 279360, Note_on_c, 1, 28, 1131, 279360, Note_on_c, 2, 52, 1191, 279360, Note_on_c, 3, 71, 761, 279360, Note_on_c, 6, 78, 931, 279360, Note_on_c, 6, 83, 931, 279360, Note_on_c, 9, 36, 981, 279360, Note_on_c, 9, 42, 1271, 279360, Note_on_c, 14, 52, 891, 279364, Note_on_c, 0, 83, 781, 279366, Pitch_bend_c, 14, 5688
1, 279376, Pitch_bend_c, 14, 7054
1, 279386, Pitch_bend_c, 14, 8192
1, 279429, Note_off_c, 1, 28, 1131, 279448, Note_off_c, 2, 52, 1191, 279478, Note_off_c, 3, 71, 761, 279479, Note_off_c, 6, 78, 931, 279479, Note_off_c, 6, 83, 931, 279479, Note_off_c, 9, 36, 981, 279479, Note_off_c, 9, 42, 1271, 279480, Note_on_c, 1, 28, 1071, 279480, Note_on_c, 2, 52, 1131, 279480, Note_on_c, 6, 76, 851, 279480, Note_on_c, 9, 36, 931, 279481, Note_on_c, 3, 64, 811, 279549, Note_off_c, 2, 52, 1131, 279578, Note_off_c, 1, 28, 1071, 279599, Note_off_c, 3, 64, 811, 279599, Note_on_c, 3, 66, 871, 279599, Note_off_c, 6, 76, 851, 279600, Note_on_c, 6, 78, 721, 279600, Note_on_c, 6, 83, 571, 279600, Note_on_c, 9, 42, 1271, 279718, Note_off_c, 3, 66, 871, 279719, Note_off_c, 6, 78, 721, 279719, Note_off_c, 6, 83, 571, 279719, Note_off_c, 9, 36, 931, 279719, Note_off_c, 9, 42, 1271, 279720, Note_on_c, 3, 64, 771, 279720, Note_on_c, 6, 76, 981, 279720, Note_on_c, 9, 54, 831, 279838, Note_off_c, 9, 54, 831, 279839, Note_off_c, 6, 76, 981, 279840, Note_on_c, 6, 78, 1021, 279840, Note_on_c, 6, 83, 1131, 279840, Note_on_c, 9, 54, 1271, 279840, Note_on_c, 9, 38, 1131, 279840, Note_on_c, 9, 42, 1271, 279958, Note_off_c, 3, 64, 771, 279958, Note_off_c, 9, 54, 1271, 279959, Note_off_c, 6, 78, 1021, 279959, Note_off_c, 6, 83, 1131, 279959, Note_off_c, 9, 38, 1131, 279959, Note_off_c, 9, 42, 1271, 279961, Note_on_c, 3, 64, 951, 280067, Note_off_c, 0, 83, 781, 280068, Note_off_c, 0, 64, 1001, 280079, Note_off_c, 3, 64, 951, 280080, Note_on_c, 1, 28, 981, 280080, Note_on_c, 2, 52, 1271, 280080, Note_on_c, 3, 66, 891, 280080, Note_on_c, 6, 78, 931, 280080, Note_on_c, 6, 83, 1021, 280080, Note_on_c, 9, 42, 1271, 280080, Note_on_c, 9, 36, 1071, 280081, Note_on_c, 0, 80, 801, 280089, Note_on_c, 0, 59, 951, 280139, Note_off_c, 1, 28, 981, 280159, Note_off_c, 2, 52, 1271, 280198, Note_off_c, 3, 66, 891, 280199, Note_off_c, 6, 78, 931, 280199, Note_off_c, 6, 83, 1021, 280199, Note_off_c, 9, 42, 1271, 280199, Note_off_c, 9, 36, 1071, 280200, Note_on_c, 1, 28, 1131, 280200, Note_on_c, 2, 52, 1191, 280200, Note_on_c, 3, 71, 791, 280200, Note_on_c, 3, 64, 791, 280200, Note_on_c, 6, 76, 1021, 280200, Note_on_c, 9, 36, 1021, 280278, Note_off_c, 2, 52, 1191, 280299, Note_off_c, 1, 28, 1131, 280318, Note_off_c, 3, 71, 791, 280319, Note_off_c, 6, 76, 1021, 280320, Note_on_c, 6, 83, 891, 280320, Note_on_c, 6, 78, 681, 280320, Note_on_c, 9, 42, 1271, 280438, Note_off_c, 3, 64, 791, 280439, Note_off_c, 6, 83, 891, 280439, Note_off_c, 6, 78, 681, 280439, Note_off_c, 9, 42, 1271, 280440, Note_on_c, 6, 76, 1021, 280441, Note_on_c, 3, 64, 921, 280558, Note_off_c, 3, 64, 921, 280558, Note_on_c, 3, 66, 851, 280559, Note_off_c, 6, 76, 1021, 280560, Note_on_c, 6, 83, 981, 280560, Note_on_c, 6, 78, 891, 280560, Note_on_c, 9, 42, 1271, 280596, Control_c, 14, 1, 1
1, 280625, Control_c, 14, 1, 6
1, 280644, Control_c, 0, 7, 111
1, 280655, Control_c, 14, 1, 11
1, 280676, Note_off_c, 3, 66, 851, 280679, Note_off_c, 6, 83, 981, 280679, Note_off_c, 6, 78, 891, 280679, Note_off_c, 9, 36, 1021, 280679, Note_off_c, 9, 42, 1271, 280680, Note_on_c, 3, 64, 651, 280685, Control_c, 14, 1, 16
1, 280724, Control_c, 14, 1, 21
1, 280800, Note_on_c, 6, 83, 1071, 280800, Note_on_c, 6, 78, 1071, 280800, Note_on_c, 7, 64, 981, 280800, Note_on_c, 9, 38, 1071, 280800, Note_on_c, 9, 42, 1271, 280822, Control_c, 14, 1, 26
1, 280873, Control_c, 0, 7, 108
1, 280881, Control_c, 14, 1, 34
1, 280918, Note_off_c, 3, 64, 651, 280919, Note_off_c, 9, 42, 1271, 280920, Note_on_c, 3, 64, 941, 280940, Control_c, 14, 1, 39
1, 280980, Control_c, 14, 1, 44
1, 281038, Note_off_c, 3, 64, 941, 281038, Note_on_c, 3, 66, 811, 281039, Note_off_c, 6, 83, 1071, 281039, Note_off_c, 6, 78, 1071, 281040, Note_on_c, 6, 76, 1021, 281040, Note_on_c, 9, 42, 1271, 281068, Control_c, 14, 1, 49
1, 281127, Control_c, 14, 1, 54
1, 281156, Note_off_c, 3, 66, 811, 281157, Control_c, 14, 1, 61
1, 281159, Note_off_c, 7, 64, 981, 281159, Note_off_c, 9, 38, 1071, 281159, Note_off_c, 9, 42, 1271, 281160, Note_on_c, 3, 64, 611, 281196, Control_c, 14, 1, 69
1, 281226, Control_c, 14, 1, 74
1, 281279, Note_off_c, 6, 76, 1021, 281280, Note_on_c, 1, 28, 1131, 281280, Note_on_c, 2, 52, 1271, 281280, Note_on_c, 3, 71, 811, 281280, Note_on_c, 6, 83, 1071, 281280, Note_on_c, 6, 78, 931, 281280, Note_on_c, 7, 68, 981, 281280, Note_on_c, 9, 36, 1071, 281280, Note_on_c, 9, 42, 1271, 281304, Control_c, 14, 1, 79
1, 281331, Control_c, 2, 7, 106
1, 281331, Control_c, 0, 7, 106
1, 281349, Note_off_c, 2, 52, 1271, 281359, Note_off_c, 1, 28, 1131, 281383, Control_c, 14, 1, 84
1, 281398, Note_off_c, 3, 71, 811, 281398, Note_off_c, 3, 64, 611, 281399, Note_off_c, 6, 83, 1071, 281399, Note_off_c, 6, 78, 931, 281399, Note_off_c, 9, 36, 1071, 281399, Note_off_c, 9, 42, 1271, 281400, Note_on_c, 1, 28, 931, 281400, Note_on_c, 2, 52, 1021, 281400, Note_on_c, 3, 64, 841, 281400, Note_on_c, 6, 76, 891, 281400, Note_on_c, 9, 36, 981, 281452, Control_c, 14, 1, 90
1, 281488, Note_off_c, 2, 52, 1021, 281499, Note_off_c, 1, 28, 931, 281518, Note_on_c, 3, 66, 791, 281519, Note_off_c, 3, 64, 841, 281519, Note_off_c, 6, 76, 891, 281520, Note_on_c, 6, 78, 721, 281520, Note_on_c, 6, 83, 571, 281520, Note_on_c, 9, 42, 1271, 281550, Control_c, 14, 1, 96
1, 281561, Control_c, 2, 7, 101
1, 281561, Control_c, 0, 7, 101
1, 281590, Control_c, 14, 1, 101
1, 281629, Control_c, 14, 1, 108
1, 281637, Note_off_c, 3, 66, 791, 281639, Note_off_c, 6, 78, 721, 281639, Note_off_c, 6, 83, 571, 281639, Note_off_c, 9, 36, 981, 281639, Note_off_c, 9, 42, 1271, 281640, Note_on_c, 3, 64, 711, 281640, Note_on_c, 6, 76, 1021, 281640, Note_on_c, 9, 54, 831, 281659, Control_c, 14, 1, 115
1, 281710, Control_c, 1, 7, 90
1, 281718, Control_c, 14, 1, 120
1, 281758, Note_off_c, 9, 54, 831, 281759, Note_off_c, 6, 76, 1021, 281760, Note_on_c, 6, 83, 1021, 281760, Note_on_c, 6, 78, 981, 281760, Note_on_c, 9, 54, 1271, 281760, Note_on_c, 9, 42, 1271, 281760, Note_on_c, 9, 38, 1071, 281793, Pitch_bend_c, 7, 8551
1, 281802, Control_c, 1, 7, 88
1, 281803, Pitch_bend_c, 7, 8767
1, 281816, Control_c, 14, 1, 125
1, 281822, Pitch_bend_c, 7, 9270
1, 281842, Pitch_bend_c, 7, 9558
1, 281852, Pitch_bend_c, 7, 9918
1, 281862, Pitch_bend_c, 7, 10206
1, 281878, Note_off_c, 3, 64, 711, 281878, Note_off_c, 9, 54, 1271, 281879, Note_off_c, 6, 83, 1021, 281879, Note_off_c, 6, 78, 981, 281879, Note_off_c, 9, 42, 1271, 281879, Note_off_c, 9, 38, 1071, 281881, Control_c, 2, 7, 98
1, 281881, Control_c, 0, 7, 98
1, 281881, Pitch_bend_c, 7, 10493
1, 281881, Note_on_c, 3, 64, 871, 281891, Pitch_bend_c, 7, 10709
1, 281911, Pitch_bend_c, 7, 10997
1, 281921, Pitch_bend_c, 7, 11284
1, 281922, Control_c, 6, 7, 88
1, 281940, Pitch_bend_c, 7, 11500
1, 281944, Control_c, 14, 1, 127
1, 281980, Pitch_bend_c, 7, 11213
1, 281999, Pitch_bend_c, 7, 10853
1, 281999, Note_off_c, 3, 64, 871, 282000, Note_on_c, 1, 28, 1071, 282000, Note_on_c, 2, 52, 1191, 282000, Note_on_c, 6, 78, 931, 282000, Note_on_c, 6, 83, 931, 282000, Note_on_c, 9, 36, 981, 282000, Note_on_c, 9, 42, 1271, 282001, Note_on_c, 3, 66, 621, 282009, Pitch_bend_c, 7, 10349
1, 282029, Pitch_bend_c, 7, 9774
1, 282039, Pitch_bend_c, 7, 8551
1, 282049, Pitch_bend_c, 7, 8192
1, 282059, Note_off_c, 1, 28, 1071, 282077, Control_c, 1, 7, 85
1, 282089, Note_off_c, 2, 52, 1191, 282119, Note_off_c, 3, 66, 621, 282119, Note_off_c, 6, 78, 931, 282119, Note_off_c, 6, 83, 931, 282119, Note_off_c, 9, 36, 981, 282119, Note_off_c, 9, 42, 1271, 282120, Note_on_c, 1, 28, 1131, 282120, Note_on_c, 2, 52, 1191, 282120, Note_on_c, 3, 71, 731, 282120, Note_on_c, 3, 64, 681, 282120, Note_on_c, 6, 76, 931, 282120, Note_on_c, 9, 36, 981, 282155, Note_off_c, 0, 59, 951, 282195, Note_off_c, 0, 80, 801, 282197, Control_c, 6, 7, 85
1, 282209, Note_off_c, 1, 28, 1131, 282209, Note_off_c, 2, 52, 1191, 282229, Control_c, 1, 7, 83
1, 282238, Note_off_c, 3, 71, 731, 282239, Note_off_c, 6, 76, 931, 282240, Note_on_c, 6, 78, 801, 282240, Note_on_c, 6, 83, 891, 282240, Note_on_c, 9, 42, 1271, 282293, Control_c, 2, 7, 96
1, 282293, Control_c, 0, 7, 96
1, 282349, Control_c, 6, 7, 83
1, 282358, Note_off_c, 3, 64, 681, 282359, Note_off_c, 6, 78, 801, 282359, Note_off_c, 6, 83, 891, 282359, Note_off_c, 9, 42, 1271, 282360, Note_on_c, 6, 76, 931, 282361, Note_on_c, 3, 64, 751, 282430, Control_c, 2, 7, 90
1, 282430, Control_c, 0, 7, 90
1, 282479, Note_off_c, 6, 76, 931, 282479, Note_off_c, 7, 68, 981, 282480, Note_off_c, 3, 64, 751, 282480, Note_on_c, 3, 66, 661, 282480, Note_on_c, 6, 83, 931, 282480, Note_on_c, 6, 78, 891, 282480, Note_on_c, 7, 64, 931, 282480, Note_on_c, 9, 42, 1271, 282522, Control_c, 2, 7, 88
1, 282522, Control_c, 0, 7, 88
1, 282599, Note_off_c, 3, 66, 661, 282599, Note_off_c, 6, 83, 931, 282599, Note_off_c, 6, 78, 891, 282599, Note_off_c, 9, 36, 981, 282599, Note_off_c, 9, 42, 1271, 282600, Note_on_c, 3, 64, 721, 282720, Note_on_c, 6, 78, 1021, 282720, Note_on_c, 6, 83, 1071, 282720, Note_on_c, 9, 38, 1071, 282720, Note_on_c, 9, 42, 1271, 282723, Note_on_c, 0, 66, 971, 282729, Note_on_c, 0, 85, 761, 282732, Note_on_c, 0, 76, 891, 282797, Control_c, 2, 7, 85
1, 282797, Control_c, 0, 7, 85
1, 282820, Control_c, 14, 1, 115
1, 282830, Control_c, 14, 1, 73
1, 282838, Note_off_c, 3, 64, 721, 282839, Note_off_c, 9, 42, 1271, 282839, Note_off_c, 14, 52, 891, 282840, Note_on_c, 3, 64, 851, 282849, Control_c, 14, 1, 9
1, 282859, Control_c, 14, 1, 0
1, 282905, Control_c, 7, 1, 4
1, 282924, Control_c, 7, 1, 12
1, 282944, Control_c, 7, 1, 22
1, 282949, Control_c, 2, 7, 83
1, 282949, Control_c, 0, 7, 83
1, 282954, Control_c, 7, 1, 27
1, 282958, Note_off_c, 3, 64, 851, 282958, Note_on_c, 3, 66, 811, 282959, Note_off_c, 6, 78, 1021, 282959, Note_off_c, 6, 83, 1071, 282960, Note_on_c, 6, 76, 931, 282960, Note_on_c, 9, 42, 1271, 282974, Control_c, 7, 1, 37
1, 282983, Control_c, 7, 1, 44
1, 283003, Control_c, 7, 1, 51
1, 283013, Control_c, 7, 1, 59
1, 283023, Control_c, 7, 1, 66
1, 283043, Control_c, 7, 1, 73
1, 283062, Control_c, 7, 1, 81
1, 283072, Control_c, 7, 1, 86
1, 283075, Note_off_c, 3, 66, 811, 283079, Note_off_c, 9, 38, 1071, 283079, Note_off_c, 9, 42, 1271, 283080, Note_on_c, 3, 64, 701, 283102, Control_c, 7, 1, 93
1, 283141, Control_c, 7, 1, 98
1, 283154, Note_off_c, 0, 76, 891, 283155, Note_off_c, 0, 85, 761, 283171, Note_off_c, 0, 66, 971, 283176, Control_c, 1, 7, 80
1, 283185, Note_on_c, 0, 64, 1001, 283198, Note_off_c, 3, 64, 701, 283199, Note_off_c, 6, 76, 931, 283200, Note_on_c, 1, 28, 801, 283200, Note_on_c, 2, 52, 1271, 283200, Note_on_c, 3, 71, 761, 283200, Note_on_c, 6, 78, 931, 283200, Note_on_c, 6, 83, 981, 283200, Note_on_c, 9, 36, 1131, 283200, Note_on_c, 9, 49, 1191, 283203, Note_on_c, 0, 80, 881, 283204, Note_on_c, 0, 83, 781, 283259, Note_off_c, 1, 28, 801, 283288, Note_off_c, 2, 52, 1271, 283296, Control_c, 6, 7, 80
1, 283318, Note_off_c, 3, 71, 761, 283319, Note_off_c, 6, 78, 931, 283319, Note_off_c, 6, 83, 981, 283319, Note_off_c, 9, 49, 1191, 283320, Note_on_c, 1, 28, 1131, 283320, Note_on_c, 2, 52, 1071, 283320, Note_on_c, 6, 76, 891, 283321, Note_on_c, 3, 64, 811, 283398, Note_off_c, 1, 28, 1131, 283408, Note_off_c, 2, 52, 1071, 283439, Note_off_c, 3, 64, 811, 283439, Note_on_c, 3, 66, 871, 283439, Note_off_c, 6, 76, 891, 283440, Note_on_c, 6, 78, 851, 283440, Note_on_c, 6, 83, 761, 283440, Note_on_c, 9, 42, 1271, 283440, Note_on_c, 14, 52, 1071, 283535, Control_c, 7, 1, 93
1, 283536, Control_c, 14, 7, 80
1, 283554, Control_c, 7, 1, 88
1, 283557, Control_c, 1, 7, 78
1, 283558, Note_off_c, 3, 66, 871, 283559, Note_off_c, 6, 78, 851, 283559, Note_off_c, 6, 83, 761, 283559, Note_off_c, 9, 36, 1131, 283559, Note_off_c, 9, 42, 1271, 283560, Note_on_c, 3, 64, 771, 283560, Note_on_c, 6, 76, 931, 283560, Note_on_c, 9, 54, 831, 283584, Control_c, 7, 1, 83
1, 283603, Control_c, 7, 1, 78
1, 283633, Control_c, 7, 1, 73
1, 283639, Note_off_c, 0, 80, 881, 283662, Control_c, 7, 1, 68
1, 283672, Control_c, 7, 1, 61
1, 283677, Control_c, 6, 7, 78
1, 283678, Note_off_c, 9, 54, 831, 283679, Note_off_c, 6, 76, 931, 283679, Note_off_c, 14, 52, 1071, 283680, Note_on_c, 6, 83, 1021, 283680, Note_on_c, 6, 78, 931, 283680, Note_on_c, 9, 54, 1271, 283680, Note_on_c, 9, 38, 1131, 283680, Note_on_c, 9, 42, 1271, 283680, Note_on_c, 14, 56, 981, 283682, Control_c, 7, 1, 56
1, 283685, Note_on_c, 0, 81, 871, 283702, Control_c, 7, 1, 48
1, 283712, Control_c, 7, 1, 41
1, 283731, Control_c, 7, 1, 34
1, 283751, Control_c, 7, 1, 24
1, 283761, Control_c, 7, 1, 17
1, 283781, Control_c, 7, 1, 7
1, 283790, Control_c, 7, 1, 2
1, 283798, Note_off_c, 3, 64, 771, 283798, Note_off_c, 9, 54, 1271, 283799, Note_off_c, 6, 83, 1021, 283799, Note_off_c, 6, 78, 931, 283799, Note_off_c, 9, 38, 1131, 283799, Note_off_c, 9, 42, 1271, 283800, Control_c, 7, 1, 0
1, 283801, Note_on_c, 3, 64, 951, 283863, Control_c, 1, 7, 73
1, 283896, Control_c, 2, 7, 80
1, 283896, Control_c, 0, 7, 80
1, 283907, Note_off_c, 0, 83, 781, 283908, Note_off_c, 0, 64, 1001, 283916, Note_on_c, 0, 80, 801, 283917, Control_c, 3, 7, 78
1, 283917, Control_c, 14, 7, 78
1, 283919, Note_off_c, 3, 64, 951, 283919, Note_off_c, 7, 64, 931, 283919, Note_off_c, 14, 56, 981, 283920, Note_on_c, 1, 28, 1071, 283920, Note_on_c, 2, 52, 1071, 283920, Note_on_c, 3, 66, 891, 283920, Note_on_c, 6, 78, 851, 283920, Note_on_c, 6, 83, 931, 283920, Note_on_c, 9, 36, 1131, 283920, Note_on_c, 9, 42, 1271, 283920, Note_on_c, 14, 52, 931, 283929, Note_on_c, 0, 59, 951, 283983, Control_c, 6, 7, 73
1, 283988, Note_off_c, 1, 28, 1071, 283989, Note_off_c, 2, 52, 1071, 284038, Note_off_c, 3, 66, 891, 284039, Note_off_c, 6, 78, 851, 284039, Note_off_c, 6, 83, 931, 284039, Note_off_c, 9, 36, 1131, 284039, Note_off_c, 9, 42, 1271, 284040, Note_on_c, 1, 28, 981, 284040, Note_on_c, 2, 52, 1271, 284040, Note_on_c, 3, 71, 791, 284040, Note_on_c, 3, 64, 791, 284040, Note_on_c, 6, 76, 931, 284040, Note_on_c, 9, 36, 1071, 284129, Note_off_c, 0, 81, 871, 284138, Note_off_c, 1, 28, 981, 284139, Note_off_c, 2, 52, 1271, 284158, Note_off_c, 3, 71, 791, 284159, Note_off_c, 6, 76, 931, 284159, Note_off_c, 14, 52, 931, 284160, Note_on_c, 6, 78, 801, 284160, Note_on_c, 6, 83, 801, 284160, Note_on_c, 9, 42, 1271, 284160, Note_on_c, 14, 54, 1071, 284161, Note_on_c, 0, 80, 871, 284223, Control_c, 3, 7, 73
1, 284223, Control_c, 14, 7, 73
1, 284260, Control_c, 7, 7, 68
1, 284260, Control_c, 1, 7, 68
1, 284277, Control_c, 2, 7, 78
1, 284277, Control_c, 0, 7, 78
1, 284278, Note_off_c, 3, 64, 791, 284279, Note_off_c, 6, 78, 801, 284279, Note_off_c, 6, 83, 801, 284279, Note_off_c, 9, 42, 1271, 284280, Note_on_c, 6, 76, 981, 284281, Note_on_c, 3, 64, 921, 284380, Control_c, 6, 7, 68
1, 284398, Note_off_c, 3, 64, 921, 284398, Note_on_c, 3, 66, 851, 284399, Note_off_c, 6, 76, 981, 284399, Note_off_c, 14, 54, 1071, 284400, Note_on_c, 6, 83, 981, 284400, Note_on_c, 6, 78, 931, 284400, Note_on_c, 9, 42, 1271, 284400, Note_on_c, 14, 59, 1131, 284428, Control_c, 7, 7, 65
1, 284428, Control_c, 1, 7, 65
1, 284451, Note_off_c, 0, 80, 871, 284500, Control_c, 9, 7, 68
1, 284516, Note_off_c, 3, 66, 851, 284519, Note_off_c, 6, 83, 981, 284519, Note_off_c, 6, 78, 931, 284519, Note_off_c, 9, 36, 1071, 284519, Note_off_c, 9, 42, 1271, 284520, Note_on_c, 3, 64, 651, 284548, Control_c, 6, 7, 65
1, 284580, Note_on_c, 0, 76, 851, 284583, Control_c, 2, 7, 73
1, 284583, Control_c, 0, 7, 73
1, 284601, Control_c, 14, 1, 4
1, 284611, Control_c, 14, 1, 11
1, 284620, Control_c, 3, 7, 68
1, 284620, Control_c, 14, 7, 68
1, 284630, Control_c, 14, 1, 17
1, 284640, Note_on_c, 6, 83, 1021, 284640, Note_on_c, 6, 78, 931, 284640, Note_on_c, 9, 38, 1131, 284640, Note_on_c, 9, 42, 1271, 284660, Control_c, 14, 1, 26
1, 284668, Control_c, 9, 7, 65
1, 284688, Control_c, 7, 7, 60
1, 284688, Control_c, 1, 7, 60
1, 284689, Control_c, 14, 1, 32
1, 284699, Control_c, 14, 1, 39
1, 284709, Control_c, 14, 1, 44
1, 284729, Control_c, 14, 1, 49
1, 284739, Control_c, 14, 1, 58
1, 284758, Control_c, 14, 1, 64
1, 284758, Note_off_c, 3, 64, 651, 284759, Note_off_c, 9, 42, 1271, 284760, Note_on_c, 3, 64, 941, 284768, Control_c, 14, 1, 73
1, 284788, Control_c, 3, 7, 65
1, 284788, Control_c, 14, 7, 65
1, 284788, Control_c, 14, 1, 78
1, 284798, Control_c, 14, 1, 83
1, 284808, Control_c, 6, 7, 60
1, 284827, Control_c, 14, 1, 91
1, 284857, Control_c, 14, 1, 101
1, 284878, Note_off_c, 3, 64, 941, 284878, Note_on_c, 3, 66, 811, 284879, Note_off_c, 6, 83, 1021, 284879, Note_off_c, 6, 78, 931, 284880, Note_on_c, 6, 76, 931, 284880, Note_on_c, 9, 42, 1271, 284886, Control_c, 14, 1, 110
1, 284916, Control_c, 14, 1, 116
1, 284926, Control_c, 14, 1, 123
1, 284928, Control_c, 9, 7, 60
1, 284945, Control_c, 14, 1, 127
1, 284980, Control_c, 2, 7, 68
1, 284980, Control_c, 0, 7, 68
1, 284996, Note_off_c, 3, 66, 811, 284999, Note_off_c, 9, 38, 1131, 284999, Note_off_c, 9, 42, 1271, 285000, Note_on_c, 3, 64, 611, 285044, Control_c, 14, 1, 121
1, 285048, Control_c, 3, 7, 60
1, 285048, Control_c, 14, 7, 60
1, 285053, Control_c, 14, 1, 98
1, 285073, Control_c, 14, 1, 59
1, 285083, Control_c, 14, 1, 12
1, 285103, Control_c, 14, 1, 0
1, 285119, Note_off_c, 6, 76, 931, 285119, Note_off_c, 14, 59, 1131, 285120, Note_on_c, 1, 28, 1071, 285120, Note_on_c, 2, 52, 1271, 285120, Note_on_c, 3, 71, 811, 285120, Note_on_c, 6, 78, 981, 285120, Note_on_c, 6, 83, 931, 285120, Note_on_c, 9, 36, 1131, 285120, Note_on_c, 9, 42, 1271, 285120, Note_on_c, 14, 56, 931, 285148, Control_c, 0, 7, 65
1, 285148, Control_c, 2, 7, 65
1, 285179, Note_off_c, 1, 28, 1071, 285206, Control_c, 7, 7, 55
1, 285206, Control_c, 1, 7, 55
1, 285208, Note_off_c, 2, 52, 1271, 285238, Note_off_c, 3, 71, 811, 285238, Note_off_c, 3, 64, 611, 285239, Note_off_c, 6, 78, 981, 285239, Note_off_c, 6, 83, 931, 285239, Note_off_c, 9, 36, 1131, 285239, Note_off_c, 9, 42, 1271, 285240, Note_on_c, 1, 28, 981, 285240, Note_on_c, 2, 52, 1021, 285240, Note_on_c, 3, 64, 841, 285240, Note_on_c, 6, 76, 891, 285240, Note_on_c, 9, 36, 1071, 285319, Note_off_c, 2, 52, 1021, 285326, Control_c, 6, 7, 55
1, 285328, Note_off_c, 1, 28, 981, 285358, Note_on_c, 3, 66, 791, 285359, Note_off_c, 3, 64, 841, 285359, Note_off_c, 6, 76, 891, 285360, Note_on_c, 6, 78, 721, 285360, Note_on_c, 6, 83, 721, 285360, Note_on_c, 9, 42, 1271, 285408, Control_c, 2, 7, 60
1, 285408, Control_c, 0, 7, 60
1, 285446, Control_c, 9, 7, 55
1, 285477, Note_off_c, 3, 66, 791, 285479, Note_off_c, 6, 78, 721, 285479, Note_off_c, 6, 83, 721, 285479, Note_off_c, 9, 36, 1071, 285479, Note_off_c, 9, 42, 1271, 285479, Note_off_c, 14, 56, 931, 285480, Note_on_c, 3, 64, 711, 285480, Note_on_c, 6, 76, 931, 285480, Note_on_c, 9, 54, 831, 285480, Note_on_c, 14, 52, 891, 285566, Control_c, 3, 7, 55
1, 285566, Control_c, 14, 7, 55
1, 285598, Note_off_c, 9, 54, 831, 285599, Note_off_c, 6, 76, 931, 285600, Note_on_c, 6, 83, 1071, 285600, Note_on_c, 6, 78, 1021, 285600, Note_on_c, 9, 54, 1271, 285600, Note_on_c, 9, 38, 1071, 285600, Note_on_c, 9, 42, 1271, 285718, Note_off_c, 3, 64, 711, 285718, Note_off_c, 9, 54, 1271, 285719, Note_off_c, 6, 83, 1071, 285719, Note_off_c, 6, 78, 1021, 285719, Note_off_c, 9, 38, 1071, 285719, Note_off_c, 9, 42, 1271, 285721, Note_on_c, 3, 64, 871, 285839, Note_off_c, 3, 64, 871, 285839, Note_off_c, 14, 52, 891, 285840, Note_on_c, 1, 28, 1021, 285840, Note_on_c, 2, 52, 1191, 285840, Note_on_c, 6, 78, 891, 285840, Note_on_c, 6, 83, 891, 285840, Note_on_c, 9, 42, 1271, 285840, Note_on_c, 9, 36, 931, 285840, Note_on_c, 14, 50, 1071, 285841, Note_on_c, 3, 66, 621, 285899, Note_off_c, 1, 28, 1021, 285926, Control_c, 2, 7, 55
1, 285926, Control_c, 0, 7, 55
1, 285928, Note_off_c, 2, 52, 1191, 285959, Note_off_c, 3, 66, 621, 285959, Note_off_c, 6, 78, 891, 285959, Note_off_c, 6, 83, 891, 285959, Note_off_c, 9, 42, 1271, 285959, Note_off_c, 9, 36, 931, 285960, Note_on_c, 1, 28, 1191, 285960, Note_on_c, 2, 52, 1131, 285960, Note_on_c, 3, 71, 731, 285960, Note_on_c, 3, 64, 681, 285960, Note_on_c, 6, 76, 931, 285960, Note_on_c, 9, 36, 891, 285995, Note_off_c, 0, 59, 951, 286014, Note_off_c, 0, 76, 851, 286030, Note_off_c, 0, 80, 801, 286039, Note_off_c, 2, 52, 1131, 286058, Note_off_c, 1, 28, 1191, 286078, Note_off_c, 3, 71, 731, 286079, Note_off_c, 6, 76, 931, 286080, Note_on_c, 6, 78, 801, 286080, Note_on_c, 6, 83, 851, 286080, Note_on_c, 9, 42, 1271, 286198, Note_off_c, 3, 64, 681, 286199, Note_off_c, 6, 78, 801, 286199, Note_off_c, 6, 83, 851, 286199, Note_off_c, 9, 42, 1271, 286199, Note_off_c, 14, 50, 1071, 286200, Note_on_c, 6, 76, 931, 286201, Note_on_c, 3, 64, 751, 286319, Note_off_c, 6, 76, 931, 286320, Note_off_c, 3, 64, 751, 286320, Note_on_c, 3, 66, 661, 286320, Note_on_c, 6, 83, 981, 286320, Note_on_c, 6, 78, 931, 286320, Note_on_c, 9, 42, 1271, 286320, Note_on_c, 14, 54, 981, 286439, Note_off_c, 3, 66, 661, 286439, Note_off_c, 6, 83, 981, 286439, Note_off_c, 6, 78, 931, 286439, Note_off_c, 9, 36, 891, 286439, Note_off_c, 9, 42, 1271, 286440, Note_on_c, 3, 64, 721, 286560, Note_on_c, 6, 83, 1071, 286560, Note_on_c, 6, 78, 1071, 286560, Note_on_c, 9, 38, 1131, 286560, Note_on_c, 9, 42, 1271, 286563, Note_on_c, 0, 66, 971, 286569, Note_on_c, 0, 85, 761, 286589, Control_c, 14, 1, 2
1, 286618, Control_c, 14, 1, 9
1, 286626, Control_c, 7, 7, 53
1, 286626, Control_c, 1, 7, 53
1, 286648, Control_c, 14, 1, 17
1, 286677, Control_c, 14, 1, 22
1, 286678, Note_off_c, 3, 64, 721, 286679, Note_off_c, 9, 42, 1271, 286680, Note_on_c, 3, 64, 851, 286726, Control_c, 14, 1, 29
1, 286736, Control_c, 14, 1, 34
1, 286746, Control_c, 6, 7, 53
1, 286746, Control_c, 14, 1, 39
1, 286766, Control_c, 14, 1, 44
1, 286775, Control_c, 14, 1, 51
1, 286795, Control_c, 14, 1, 59
1, 286798, Note_off_c, 3, 64, 851, 286798, Note_on_c, 3, 66, 811, 286799, Note_off_c, 6, 83, 1071, 286799, Note_off_c, 6, 78, 1071, 286800, Note_on_c, 6, 76, 981, 286800, Note_on_c, 9, 42, 1271, 286805, Control_c, 14, 1, 68
1, 286825, Control_c, 14, 1, 78
1, 286835, Control_c, 14, 1, 84
1, 286844, Control_c, 14, 1, 93
1, 286864, Control_c, 14, 1, 98
1, 286866, Control_c, 9, 7, 53
1, 286894, Control_c, 14, 1, 103
1, 286903, Control_c, 14, 1, 95
1, 286915, Note_off_c, 3, 66, 811, 286919, Note_off_c, 9, 38, 1131, 286919, Note_off_c, 9, 42, 1271, 286920, Note_on_c, 3, 64, 701, 286923, Control_c, 14, 1, 83
1, 286933, Control_c, 14, 1, 63
1, 286953, Control_c, 14, 1, 37
1, 286962, Control_c, 14, 1, 0
1, 286986, Control_c, 3, 7, 53
1, 286986, Control_c, 14, 7, 53
1, 286995, Note_off_c, 0, 85, 761, 287011, Note_off_c, 0, 66, 971, 287025, Note_on_c, 0, 64, 1001, 287038, Note_off_c, 3, 64, 701, 287039, Note_off_c, 6, 76, 981, 287039, Note_off_c, 14, 54, 981, 287040, Note_on_c, 1, 28, 1131, 287040, Note_on_c, 2, 52, 1191, 287040, Note_on_c, 3, 71, 761, 287040, Note_on_c, 6, 78, 1021, 287040, Note_on_c, 6, 83, 1071, 287040, Note_on_c, 9, 36, 981, 287040, Note_on_c, 9, 42, 1271, 287040, Note_on_c, 14, 52, 1071, 287044, Note_on_c, 0, 83, 781, 287053, Control_c, 1, 7, 50
1, 287053, Control_c, 7, 7, 50
1, 287109, Note_off_c, 1, 28, 1131, 287128, Note_off_c, 2, 52, 1191, 287158, Note_off_c, 3, 71, 761, 287159, Note_off_c, 6, 78, 1021, 287159, Note_off_c, 6, 83, 1071, 287159, Note_off_c, 9, 36, 981, 287159, Note_off_c, 9, 42, 1271, 287160, Note_on_c, 1, 28, 1071, 287160, Note_on_c, 2, 52, 1131, 287160, Note_on_c, 6, 76, 891, 287160, Note_on_c, 9, 36, 931, 287161, Note_on_c, 3, 64, 811, 287173, Control_c, 6, 7, 50
1, 287229, Note_off_c, 2, 52, 1131, 287258, Note_off_c, 1, 28, 1071, 287279, Note_off_c, 3, 64, 811, 287279, Note_on_c, 3, 66, 871, 287279, Note_off_c, 6, 76, 891, 287280, Note_on_c, 6, 78, 761, 287280, Note_on_c, 6, 83, 761, 287280, Note_on_c, 9, 42, 1271, 287293, Control_c, 9, 7, 50
1, 287346, Control_c, 2, 7, 53
1, 287346, Control_c, 0, 7, 53
1, 287388, Control_c, 7, 7, 48
1, 287388, Control_c, 1, 7, 48
1, 287398, Note_off_c, 3, 66, 871, 287399, Note_off_c, 6, 78, 761, 287399, Note_off_c, 6, 83, 761, 287399, Note_off_c, 9, 36, 931, 287399, Note_off_c, 9, 42, 1271, 287400, Note_on_c, 3, 64, 771, 287400, Note_on_c, 6, 76, 1021, 287400, Note_on_c, 9, 54, 831, 287413, Control_c, 3, 7, 50
1, 287413, Control_c, 14, 7, 50
1, 287508, Control_c, 6, 7, 48
1, 287513, Pitch_bend_c, 14, 7964
1, 287518, Note_off_c, 9, 54, 831, 287520, Note_on_c, 6, 83, 981, 287520, Note_on_c, 6, 78, 1021, 287520, Note_on_c, 9, 54, 1271, 287520, Note_on_c, 9, 38, 1131, 287520, Note_on_c, 9, 42, 1271, 287523, Pitch_bend_c, 14, 7736
1, 287533, Pitch_bend_c, 14, 7509
1, 287556, Control_c, 7, 7, 45
1, 287556, Control_c, 1, 7, 45
1, 287563, Pitch_bend_c, 14, 6978
1, 287582, Pitch_bend_c, 14, 6295
1, 287592, Pitch_bend_c, 14, 5916
1, 287612, Pitch_bend_c, 14, 5233
1, 287622, Pitch_bend_c, 14, 4626
1, 287628, Control_c, 9, 7, 48
1, 287638, Note_off_c, 3, 64, 771, 287638, Note_off_c, 9, 54, 1271, 287639, Note_off_c, 6, 76, 1021, 287639, Note_off_c, 6, 83, 981, 287639, Note_off_c, 6, 78, 1021, 287639, Note_off_c, 9, 38, 1131, 287639, Note_off_c, 9, 42, 1271, 287641, Pitch_bend_c, 14, 3640
1, 287641, Note_on_c, 3, 64, 951, 287651, Pitch_bend_c, 14, 2806
1, 287661, Pitch_bend_c, 14, 1668
1, 287676, Control_c, 6, 7, 45
1, 287681, Pitch_bend_c, 14, 986
1, 287700, Pitch_bend_c, 14, 758
1, 287709, Control_c, 7, 7, 43
1, 287709, Control_c, 1, 7, 43
1, 287740, Pitch_bend_c, 14, 986
1, 287747, Note_off_c, 0, 83, 781, 287748, Control_c, 3, 7, 48
1, 287748, Control_c, 14, 7, 48
1, 287748, Note_off_c, 0, 64, 1001, 287750, Pitch_bend_c, 14, 1896
1, 287759, Note_off_c, 3, 64, 951, 287759, Note_off_c, 14, 52, 1071, 287760, Note_on_c, 1, 28, 981, 287760, Note_on_c, 2, 52, 1271, 287760, Note_on_c, 3, 66, 891, 287760, Note_on_c, 6, 78, 851, 287760, Note_on_c, 6, 83, 891, 287760, Note_on_c, 9, 42, 1271, 287760, Note_on_c, 9, 36, 1071, 287760, Note_on_c, 14, 47, 981, 287761, Note_on_c, 0, 80, 801, 287769, Pitch_bend_c, 14, 3565
1, 287769, Note_on_c, 0, 59, 951, 287773, Control_c, 2, 7, 50
1, 287773, Control_c, 0, 7, 50
1, 287789, Pitch_bend_c, 14, 6144
1, 287796, Control_c, 9, 7, 45
1, 287799, Pitch_bend_c, 14, 8192
1, 287819, Note_off_c, 1, 28, 981, 287829, Control_c, 6, 7, 43
1, 287839, Note_off_c, 2, 52, 1271, 287878, Note_off_c, 3, 66, 891, 287879, Note_off_c, 6, 78, 851, 287879, Note_off_c, 6, 83, 891, 287879, Note_off_c, 9, 42, 1271, 287879, Note_off_c, 9, 36, 1071, 287880, Note_on_c, 1, 28, 1131, 287880, Note_on_c, 2, 52, 1191, 287880, Note_on_c, 3, 71, 791, 287880, Note_on_c, 3, 64, 791, 287880, Note_on_c, 6, 76, 981, 287880, Note_on_c, 9, 36, 1021, 287916, Control_c, 3, 7, 45
1, 287916, Control_c, 14, 7, 45
1, 287949, Control_c, 9, 7, 43
1, 287958, Note_off_c, 2, 52, 1191, 287979, Note_off_c, 1, 28, 1131, 287985, Control_c, 7, 7, 40
1, 287985, Control_c, 1, 7, 40
1, 287998, Note_off_c, 3, 71, 791, 287999, Note_off_c, 6, 76, 981, 288000, Note_on_c, 6, 78, 891, 288000, Note_on_c, 6, 83, 801, 288000, Note_on_c, 9, 42, 1271, 288069, Control_c, 3, 7, 43
1, 288069, Control_c, 14, 7, 43
1, 288105, Control_c, 6, 7, 40
1, 288108, Control_c, 2, 7, 48
1, 288108, Control_c, 0, 7, 48
1, 288118, Note_off_c, 3, 64, 791, 288119, Note_off_c, 6, 78, 891, 288119, Note_off_c, 6, 83, 801, 288119, Note_off_c, 9, 42, 1271, 288120, Note_on_c, 6, 76, 1021, 288121, Note_on_c, 3, 64, 921, 288225, Control_c, 9, 7, 40
1, 288238, Note_off_c, 3, 64, 921, 288238, Note_on_c, 3, 66, 851, 288240, Note_on_c, 6, 78, 931, 288240, Note_on_c, 6, 83, 891, 288240, Note_on_c, 9, 42, 1271, 288276, Control_c, 2, 7, 45
1, 288276, Control_c, 0, 7, 45
1, 288345, Control_c, 3, 7, 40
1, 288345, Control_c, 14, 7, 40
1, 288356, Note_off_c, 3, 66, 851, 288359, Note_off_c, 6, 76, 1021, 288359, Note_off_c, 6, 78, 931, 288359, Note_off_c, 6, 83, 891, 288359, Note_off_c, 9, 36, 1021, 288359, Note_off_c, 9, 42, 1271, 288360, Note_on_c, 3, 64, 651, 288429, Control_c, 2, 7, 43
1, 288429, Control_c, 0, 7, 43
1, 288480, Note_on_c, 6, 83, 1021, 288480, Note_on_c, 6, 78, 931, 288480, Note_on_c, 7, 64, 1021, 288480, Note_on_c, 9, 38, 1071, 288480, Note_on_c, 9, 42, 1271, 288598, Note_off_c, 3, 64, 651, 288599, Note_off_c, 9, 42, 1271, 288600, Note_on_c, 3, 64, 941, 288705, Control_c, 2, 7, 40
1, 288705, Control_c, 0, 7, 40
1, 288718, Note_off_c, 3, 64, 941, 288718, Note_on_c, 3, 66, 811, 288719, Note_off_c, 6, 83, 1021, 288719, Note_off_c, 6, 78, 931, 288720, Note_on_c, 6, 76, 1021, 288720, Note_on_c, 9, 42, 1271, 288773, Control_c, 14, 1, 2
1, 288832, Control_c, 14, 1, 9
1, 288836, Note_off_c, 3, 66, 811, 288839, Note_off_c, 7, 64, 1021, 288839, Note_off_c, 9, 38, 1071, 288839, Note_off_c, 9, 42, 1271, 288840, Note_on_c, 3, 64, 611, 288891, Control_c, 14, 1, 14
1, 288930, Control_c, 14, 1, 19
1, 288959, Note_off_c, 6, 76, 1021, 288960, Note_on_c, 1, 28, 1131, 288960, Note_on_c, 2, 52, 1271, 288960, Note_on_c, 3, 71, 811, 288960, Note_on_c, 6, 83, 1071, 288960, Note_on_c, 6, 78, 981, 288960, Note_on_c, 7, 68, 981, 288960, Note_on_c, 9, 36, 1071, 288960, Note_on_c, 9, 42, 1271, 288989, Control_c, 14, 1, 24
1, 289029, Note_off_c, 2, 52, 1271, 289039, Note_off_c, 1, 28, 1131, 289049, Control_c, 14, 1, 29
1, 289078, Note_off_c, 3, 71, 811, 289078, Note_off_c, 3, 64, 611, 289079, Note_off_c, 6, 83, 1071, 289079, Note_off_c, 6, 78, 981, 289079, Note_off_c, 9, 36, 1071, 289079, Note_off_c, 9, 42, 1271, 289080, Note_on_c, 1, 28, 931, 289080, Note_on_c, 2, 52, 1021, 289080, Note_on_c, 3, 64, 841, 289080, Note_on_c, 6, 76, 891, 289080, Note_on_c, 9, 36, 981, 289088, Control_c, 14, 1, 34
1, 289168, Note_off_c, 2, 52, 1021, 289176, Control_c, 14, 1, 41
1, 289179, Note_off_c, 1, 28, 931, 289198, Note_on_c, 3, 66, 791, 289199, Note_off_c, 3, 64, 841, 289199, Note_off_c, 6, 76, 891, 289200, Note_on_c, 6, 78, 891, 289200, Note_on_c, 6, 83, 761, 289200, Note_on_c, 9, 42, 1271, 289245, Control_c, 14, 1, 46
1, 289267, Control_c, 7, 7, 38
1, 289267, Control_c, 1, 7, 38
1, 289275, Control_c, 14, 1, 51
1, 289314, Control_c, 14, 1, 56
1, 289317, Note_off_c, 3, 66, 791, 289319, Note_off_c, 6, 78, 891, 289319, Note_off_c, 6, 83, 761, 289319, Note_off_c, 9, 36, 981, 289319, Note_off_c, 9, 42, 1271, 289320, Note_on_c, 3, 64, 711, 289320, Note_on_c, 6, 76, 891, 289320, Note_on_c, 9, 54, 831, 289387, Control_c, 6, 7, 38
1, 289393, Control_c, 14, 1, 61
1, 289413, Control_c, 14, 1, 66
1, 289438, Note_off_c, 9, 54, 831, 289440, Note_on_c, 6, 83, 1071, 289440, Note_on_c, 6, 78, 931, 289440, Note_on_c, 9, 54, 1271, 289440, Note_on_c, 9, 42, 1271, 289440, Note_on_c, 9, 38, 1071, 289468, Pitch_bend_c, 7, 8335
1, 289488, Pitch_bend_c, 7, 8623
1, 289491, Control_c, 14, 1, 71
1, 289498, Pitch_bend_c, 7, 9127
1, 289507, Control_c, 9, 7, 38
1, 289507, Pitch_bend_c, 7, 9702
1, 289527, Pitch_bend_c, 7, 10349
1, 289537, Pitch_bend_c, 7, 10637
1, 289557, Pitch_bend_c, 7, 11141
1, 289558, Note_off_c, 3, 64, 711, 289558, Note_off_c, 9, 54, 1271, 289559, Note_off_c, 6, 83, 1071, 289559, Note_off_c, 6, 78, 931, 289559, Note_off_c, 9, 42, 1271, 289559, Note_off_c, 9, 38, 1071, 289561, Note_on_c, 3, 64, 871, 289566, Pitch_bend_c, 7, 11644
1, 289586, Pitch_bend_c, 7, 11932
1, 289609, Control_c, 14, 1, 76
1, 289627, Control_c, 3, 7, 38
1, 289627, Control_c, 14, 7, 38
1, 289645, Pitch_bend_c, 7, 11500
1, 289648, Control_c, 7, 7, 35
1, 289648, Control_c, 1, 7, 35
1, 289655, Pitch_bend_c, 7, 10853
1, 289675, Pitch_bend_c, 7, 10134
1, 289678, Control_c, 14, 1, 81
1, 289679, Note_off_c, 3, 64, 871, 289679, Note_off_c, 6, 76, 891, 289680, Note_on_c, 1, 28, 1071, 289680, Note_on_c, 2, 52, 1191, 289680, Note_on_c, 6, 83, 931, 289680, Note_on_c, 6, 78, 891, 289680, Note_on_c, 9, 36, 981, 289680, Note_on_c, 9, 42, 1271, 289681, Note_on_c, 3, 66, 621, 289685, Pitch_bend_c, 7, 8911
1, 289704, Pitch_bend_c, 7, 8407
1, 289714, Pitch_bend_c, 7, 8192
1, 289718, Control_c, 14, 1, 86
1, 289739, Note_off_c, 1, 28, 1071, 289768, Control_c, 6, 7, 35
1, 289769, Note_off_c, 2, 52, 1191, 289777, Control_c, 14, 1, 91
1, 289799, Note_off_c, 3, 66, 621, 289799, Note_off_c, 6, 83, 931, 289799, Note_off_c, 6, 78, 891, 289799, Note_off_c, 9, 36, 981, 289799, Note_off_c, 9, 42, 1271, 289800, Note_on_c, 1, 28, 1131, 289800, Note_on_c, 2, 52, 1191, 289800, Note_on_c, 3, 71, 731, 289800, Note_on_c, 3, 64, 681, 289800, Note_on_c, 6, 76, 981, 289800, Note_on_c, 9, 36, 981, 289835, Note_off_c, 0, 59, 951, 289836, Control_c, 14, 1, 96
1, 289875, Note_off_c, 0, 80, 801, 289888, Control_c, 9, 7, 35
1, 289889, Note_off_c, 1, 28, 1131, 289889, Note_off_c, 2, 52, 1191, 289918, Note_off_c, 3, 71, 731, 289919, Note_off_c, 6, 76, 981, 289920, Note_on_c, 6, 78, 891, 289920, Note_on_c, 6, 83, 891, 289920, Note_on_c, 9, 42, 1271, 289924, Control_c, 14, 1, 101
1, 289954, Control_c, 14, 1, 106
1, 289987, Control_c, 2, 7, 38
1, 289987, Control_c, 0, 7, 38
1, 290003, Control_c, 14, 1, 111
1, 290008, Control_c, 3, 7, 35
1, 290008, Control_c, 14, 7, 35
1, 290038, Note_off_c, 3, 64, 681, 290039, Note_off_c, 6, 78, 891, 290039, Note_off_c, 6, 83, 891, 290039, Note_off_c, 9, 42, 1271, 290040, Note_on_c, 6, 76, 981, 290041, Note_on_c, 3, 64, 751, 290091, Control_c, 7, 7, 33
1, 290091, Control_c, 1, 7, 33
1, 290151, Control_c, 14, 1, 116
1, 290159, Note_off_c, 7, 68, 981, 290160, Note_off_c, 3, 64, 751, 290160, Note_on_c, 3, 66, 661, 290160, Note_on_c, 6, 78, 981, 290160, Note_on_c, 6, 83, 1021, 290160, Note_on_c, 7, 64, 931, 290160, Note_on_c, 9, 42, 1271, 290211, Control_c, 6, 7, 33
1, 290213, Control_c, 7, 7, 30
1, 290213, Control_c, 1, 7, 30
1, 290219, Control_c, 14, 1, 121
1, 290269, Control_c, 14, 1, 127
1, 290279, Note_off_c, 3, 66, 661, 290279, Note_off_c, 6, 78, 981, 290279, Note_off_c, 6, 83, 1021, 290279, Note_off_c, 9, 36, 981, 290279, Note_off_c, 9, 42, 1271, 290280, Note_on_c, 3, 64, 721, 290331, Control_c, 9, 7, 33
1, 290333, Control_c, 6, 7, 30
1, 290368, Control_c, 2, 7, 35
1, 290368, Control_c, 0, 7, 35
1, 290400, Note_on_c, 6, 83, 1021, 290400, Note_on_c, 6, 78, 981, 290400, Note_on_c, 9, 38, 1071, 290400, Note_on_c, 9, 42, 1271, 290403, Note_on_c, 0, 66, 971, 290409, Note_on_c, 0, 85, 761, 290412, Note_on_c, 0, 76, 891, 290427, Control_c, 7, 7, 28
1, 290427, Control_c, 1, 7, 28
1, 290451, Control_c, 3, 7, 33
1, 290451, Control_c, 14, 7, 33
1, 290453, Control_c, 9, 7, 30
1, 290472, Control_c, 7, 1, 2
1, 290491, Control_c, 7, 1, 7
1, 290518, Note_off_c, 3, 64, 721, 290519, Note_off_c, 6, 76, 981, 290519, Note_off_c, 9, 42, 1271, 290520, Note_on_c, 3, 64, 851, 290521, Control_c, 7, 1, 17
1, 290547, Control_c, 6, 7, 28
1, 290550, Control_c, 7, 1, 24
1, 290560, Control_c, 7, 1, 31
1, 290573, Control_c, 3, 7, 30
1, 290573, Control_c, 14, 7, 30
1, 290580, Control_c, 7, 1, 36
1, 290590, Control_c, 7, 1, 42
1, 290600, Control_c, 7, 1, 48
1, 290619, Control_c, 7, 1, 54
1, 290638, Note_off_c, 3, 64, 851, 290638, Note_on_c, 3, 66, 811, 290639, Note_off_c, 6, 83, 1021, 290639, Note_off_c, 6, 78, 981, 290640, Note_on_c, 6, 76, 1071, 290640, Note_on_c, 9, 42, 1271, 290649, Control_c, 7, 1, 63
1, 290659, Control_c, 7, 1, 69
1, 290667, Control_c, 9, 7, 28
1, 290688, Control_c, 7, 1, 74
1, 290708, Control_c, 7, 1, 79
1, 290737, Control_c, 7, 1, 84
1, 290755, Note_off_c, 3, 66, 811, 290757, Control_c, 7, 1, 90
1, 290759, Note_off_c, 9, 38, 1071, 290759, Note_off_c, 9, 42, 1271, 290760, Note_on_c, 3, 64, 701, 290777, Control_c, 7, 1, 95
1, 290787, Control_c, 3, 7, 28
1, 290787, Control_c, 14, 7, 28
1, 290811, Control_c, 2, 7, 33
1, 290811, Control_c, 0, 7, 33
1, 290816, Control_c, 7, 1, 101
1, 290834, Note_off_c, 0, 76, 891, 290835, Note_off_c, 0, 85, 761, 290846, Control_c, 7, 1, 106
1, 290851, Note_off_c, 0, 66, 971, 290865, Note_on_c, 0, 64, 1001, 290875, Control_c, 7, 1, 111
1, 290878, Note_off_c, 3, 64, 701, 290879, Note_off_c, 6, 76, 1071, 290879, Note_off_c, 14, 47, 981, 290880, Note_on_c, 1, 28, 801, 290880, Note_on_c, 2, 52, 1271, 290880, Note_on_c, 3, 71, 761, 290880, Note_on_c, 6, 83, 1071, 290880, Note_on_c, 6, 78, 1071, 290880, Note_on_c, 9, 36, 1131, 290880, Note_on_c, 9, 49, 1191, 290883, Note_on_c, 0, 80, 881, 290884, Note_on_c, 0, 83, 781, 290908, Control_c, 14, 1, 118
1, 290928, Control_c, 14, 1, 83
1, 290933, Control_c, 2, 7, 30
1, 290933, Control_c, 0, 7, 30
1, 290938, Control_c, 14, 1, 17
1, 290939, Note_off_c, 1, 28, 801, 290948, Control_c, 14, 1, 0
1, 290968, Note_off_c, 2, 52, 1271, 290998, Note_off_c, 3, 71, 761, 290999, Note_off_c, 6, 83, 1071, 290999, Note_off_c, 6, 78, 1071, 290999, Note_off_c, 9, 49, 1191, 291000, Note_on_c, 1, 28, 1131, 291000, Note_on_c, 2, 52, 1071, 291000, Note_on_c, 6, 76, 891, 291001, Note_on_c, 3, 64, 811, 291003, Control_c, 7, 1, 116
1, 291007, Control_c, 7, 7, 25
1, 291007, Control_c, 1, 7, 25
1, 291078, Note_off_c, 1, 28, 1131, 291088, Note_off_c, 2, 52, 1071, 291119, Note_off_c, 3, 64, 811, 291119, Note_on_c, 3, 66, 871, 291119, Note_off_c, 6, 76, 891, 291120, Note_on_c, 6, 78, 851, 291120, Note_on_c, 6, 83, 761, 291120, Note_on_c, 9, 42, 1271, 291120, Note_on_c, 14, 52, 1071, 291127, Control_c, 6, 7, 25
1, 291147, Control_c, 2, 7, 28
1, 291147, Control_c, 0, 7, 28
1, 291220, Control_c, 7, 1, 111
1, 291238, Note_off_c, 3, 66, 871, 291239, Note_off_c, 6, 78, 851, 291239, Note_off_c, 6, 83, 761, 291239, Note_off_c, 9, 36, 1131, 291239, Note_off_c, 9, 42, 1271, 291240, Note_on_c, 3, 64, 771, 291240, Note_on_c, 6, 76, 981, 291240, Note_on_c, 9, 54, 831, 291247, Control_c, 9, 7, 25
1, 291288, Control_c, 7, 1, 106
1, 291308, Control_c, 7, 1, 101
1, 291319, Note_off_c, 0, 80, 881, 291338, Control_c, 7, 1, 96
1, 291343, Control_c, 7, 7, 23
1, 291343, Control_c, 1, 7, 23
1, 291347, Control_c, 7, 1, 91
1, 291358, Note_off_c, 9, 54, 831, 291359, Note_off_c, 6, 76, 981, 291359, Note_off_c, 7, 64, 931, 291359, Note_off_c, 14, 52, 1071, 291360, Note_on_c, 6, 78, 931, 291360, Note_on_c, 6, 83, 1021, 291360, Note_on_c, 9, 54, 1271, 291360, Note_on_c, 9, 38, 1131, 291360, Note_on_c, 9, 42, 1271, 291360, Note_on_c, 14, 56, 1071, 291365, Note_on_c, 0, 81, 871, 291367, Control_c, 3, 7, 25
1, 291367, Control_c, 14, 7, 25
1, 291367, Control_c, 7, 1, 83
1, 291377, Control_c, 7, 1, 74
1, 291397, Control_c, 7, 1, 63
1, 291407, Control_c, 7, 1, 51
1, 291416, Control_c, 7, 1, 39
1, 291436, Control_c, 7, 1, 29
1, 291446, Control_c, 7, 1, 19
1, 291463, Control_c, 6, 7, 23
1, 291466, Control_c, 7, 1, 7
1, 291475, Control_c, 7, 1, 0
1, 291478, Note_off_c, 3, 64, 771, 291478, Note_off_c, 9, 54, 1271, 291479, Note_off_c, 6, 78, 931, 291479, Note_off_c, 6, 83, 1021, 291479, Note_off_c, 9, 38, 1131, 291479, Note_off_c, 9, 42, 1271, 291481, Note_on_c, 3, 64, 951, 291583, Control_c, 9, 7, 23
1, 291587, Note_off_c, 0, 83, 781, 291588, Note_off_c, 0, 64, 1001, 291596, Note_on_c, 0, 80, 801, 291599, Note_off_c, 3, 64, 951, 291599, Note_off_c, 14, 56, 1071, 291600, Note_on_c, 1, 28, 1071, 291600, Note_on_c, 2, 52, 1071, 291600, Note_on_c, 3, 66, 891, 291600, Note_on_c, 6, 83, 1071, 291600, Note_on_c, 6, 78, 1021, 291600, Note_on_c, 9, 36, 1131, 291600, Note_on_c, 9, 42, 1271, 291600, Note_on_c, 14, 52, 1021, 291609, Note_on_c, 0, 59, 951, 291668, Note_off_c, 1, 28, 1071, 291669, Note_off_c, 2, 52, 1071, 291703, Control_c, 3, 7, 23
1, 291703, Control_c, 14, 7, 23
1, 291718, Note_off_c, 3, 66, 891, 291719, Note_off_c, 6, 83, 1071, 291719, Note_off_c, 6, 78, 1021, 291719, Note_off_c, 9, 36, 1131, 291719, Note_off_c, 9, 42, 1271, 291720, Note_on_c, 1, 28, 981, 291720, Note_on_c, 2, 52, 1271, 291720, Note_on_c, 3, 71, 791, 291720, Note_on_c, 3, 64, 791, 291720, Note_on_c, 6, 76, 891, 291720, Note_on_c, 9, 36, 1071, 291727, Control_c, 2, 7, 25
1, 291727, Control_c, 0, 7, 25
1, 291770, Control_c, 7, 7, 20
1, 291770, Control_c, 1, 7, 20
1, 291809, Note_off_c, 0, 81, 871, 291818, Note_off_c, 1, 28, 981, 291819, Note_off_c, 2, 52, 1271, 291838, Note_off_c, 3, 71, 791, 291839, Note_off_c, 6, 76, 891, 291839, Note_off_c, 14, 52, 1021, 291840, Note_on_c, 6, 78, 851, 291840, Note_on_c, 6, 83, 851, 291840, Note_on_c, 9, 42, 1271, 291840, Note_on_c, 14, 54, 1071, 291841, Note_on_c, 0, 80, 871, 291890, Control_c, 6, 7, 20
1, 291958, Note_off_c, 3, 64, 791, 291959, Note_off_c, 6, 78, 851, 291959, Note_off_c, 6, 83, 851, 291959, Note_off_c, 9, 42, 1271, 291960, Note_on_c, 6, 76, 981, 291961, Note_on_c, 3, 64, 921, 292010, Control_c, 9, 7, 20
1, 292014, Control_c, 7, 7, 18
1, 292014, Control_c, 1, 7, 18
1, 292063, Control_c, 2, 7, 23
1, 292063, Control_c, 0, 7, 23
1, 292078, Note_off_c, 3, 64, 921, 292078, Note_on_c, 3, 66, 851, 292079, Note_off_c, 6, 76, 981, 292079, Note_off_c, 14, 54, 1071, 292080, Note_on_c, 6, 78, 1021, 292080, Note_on_c, 6, 83, 1021, 292080, Note_on_c, 9, 42, 1271, 292080, Note_on_c, 14, 59, 1021, 292130, Control_c, 3, 7, 20
1, 292130, Control_c, 14, 7, 20
1, 292131, Note_off_c, 0, 80, 871, 292134, Control_c, 6, 7, 18
1, 292196, Note_off_c, 3, 66, 851, 292199, Note_off_c, 6, 78, 1021, 292199, Note_off_c, 6, 83, 1021, 292199, Note_off_c, 9, 36, 1071, 292199, Note_off_c, 9, 42, 1271, 292200, Note_on_c, 3, 64, 651, 292254, Control_c, 9, 7, 18
1, 292256, Control_c, 14, 1, 7
1, 292260, Note_on_c, 0, 76, 851, 292276, Control_c, 14, 1, 14
1, 292286, Control_c, 14, 1, 22
1, 292306, Control_c, 14, 1, 31
1, 292320, Note_on_c, 6, 83, 1131, 292320, Note_on_c, 6, 78, 1021, 292320, Note_on_c, 9, 38, 1131, 292320, Note_on_c, 9, 42, 1271, 292335, Control_c, 14, 1, 42
1, 292355, Control_c, 14, 1, 53
1, 292374, Control_c, 3, 7, 18
1, 292374, Control_c, 14, 7, 18
1, 292374, Control_c, 14, 1, 59
1, 292384, Control_c, 14, 1, 64
1, 292404, Control_c, 14, 1, 71
1, 292414, Control_c, 14, 1, 76
1, 292433, Control_c, 14, 1, 83
1, 292438, Note_off_c, 3, 64, 651, 292439, Note_off_c, 9, 42, 1271, 292440, Note_on_c, 3, 64, 941, 292463, Control_c, 14, 1, 90
1, 292473, Control_c, 14, 1, 95
1, 292490, Control_c, 2, 7, 20
1, 292490, Control_c, 0, 7, 20
1, 292502, Control_c, 14, 1, 103
1, 292512, Control_c, 14, 1, 110
1, 292518, Control_c, 7, 7, 15
1, 292518, Control_c, 1, 7, 15
1, 292542, Control_c, 14, 1, 120
1, 292558, Note_off_c, 3, 64, 941, 292558, Note_on_c, 3, 66, 811, 292559, Note_off_c, 6, 83, 1131, 292559, Note_off_c, 6, 78, 1021, 292560, Note_on_c, 6, 76, 931, 292560, Note_on_c, 9, 42, 1271, 292561, Control_c, 14, 1, 127
1, 292638, Control_c, 6, 7, 15
1, 292676, Note_off_c, 3, 66, 811, 292679, Note_off_c, 9, 38, 1131, 292679, Note_off_c, 9, 42, 1271, 292680, Note_on_c, 3, 64, 611, 292734, Control_c, 2, 7, 18
1, 292734, Control_c, 0, 7, 18
1, 292758, Control_c, 9, 7, 15
1, 292758, Control_c, 14, 1, 111
1, 292778, Control_c, 14, 1, 86
1, 292788, Control_c, 14, 1, 53
1, 292799, Note_off_c, 6, 76, 931, 292799, Note_off_c, 14, 59, 1021, 292800, Note_on_c, 1, 28, 1071, 292800, Note_on_c, 2, 52, 1271, 292800, Note_on_c, 3, 71, 811, 292800, Note_on_c, 6, 78, 981, 292800, Note_on_c, 6, 83, 931, 292800, Note_on_c, 9, 36, 1131, 292800, Note_on_c, 9, 42, 1271, 292800, Note_on_c, 14, 56, 931, 292807, Control_c, 14, 1, 6
1, 292817, Control_c, 14, 1, 0
1, 292859, Note_off_c, 1, 28, 1071, 292888, Note_off_c, 2, 52, 1271, 292918, Note_off_c, 3, 71, 811, 292918, Note_off_c, 3, 64, 611, 292919, Note_off_c, 6, 78, 981, 292919, Note_off_c, 6, 83, 931, 292919, Note_off_c, 9, 36, 1131, 292919, Note_off_c, 9, 42, 1271, 292920, Note_on_c, 1, 28, 981, 292920, Note_on_c, 2, 52, 1021, 292920, Note_on_c, 3, 64, 841, 292920, Note_on_c, 6, 76, 891, 292920, Note_on_c, 9, 36, 1071, 292999, Note_off_c, 2, 52, 1021, 293008, Note_off_c, 1, 28, 981, 293038, Note_on_c, 3, 66, 791, 293039, Note_off_c, 3, 64, 841, 293039, Note_off_c, 6, 76, 891, 293040, Note_on_c, 6, 78, 761, 293040, Note_on_c, 6, 83, 761, 293040, Note_on_c, 9, 42, 1271, 293157, Note_off_c, 3, 66, 791, 293159, Note_off_c, 6, 78, 761, 293159, Note_off_c, 6, 83, 761, 293159, Note_off_c, 9, 36, 1071, 293159, Note_off_c, 9, 42, 1271, 293159, Note_off_c, 14, 56, 931, 293160, Note_on_c, 3, 64, 711, 293160, Note_on_c, 6, 76, 931, 293160, Note_on_c, 9, 54, 831, 293160, Note_on_c, 14, 52, 1021, 293278, Note_off_c, 9, 54, 831, 293279, Note_off_c, 6, 76, 931, 293280, Note_on_c, 6, 83, 1071, 293280, Note_on_c, 6, 78, 981, 293280, Note_on_c, 9, 54, 1271, 293280, Note_on_c, 9, 38, 1071, 293280, Note_on_c, 9, 42, 1271, 293398, Note_off_c, 3, 64, 711, 293398, Note_off_c, 9, 54, 1271, 293399, Note_off_c, 6, 83, 1071, 293399, Note_off_c, 6, 78, 981, 293399, Note_off_c, 9, 38, 1071, 293399, Note_off_c, 9, 42, 1271, 293401, Note_on_c, 3, 64, 871, 293519, Note_off_c, 3, 64, 871, 293520, Note_on_c, 1, 28, 1021, 293520, Note_on_c, 2, 52, 1191, 293520, Note_on_c, 6, 78, 931, 293520, Note_on_c, 6, 83, 981, 293520, Note_on_c, 9, 42, 1271, 293520, Note_on_c, 9, 36, 931, 293520, Note_on_c, 14, 50, 1071, 293521, Note_on_c, 3, 66, 621, 293579, Note_off_c, 1, 28, 1021, 293608, Note_off_c, 2, 52, 1191, 293639, Note_off_c, 3, 66, 621, 293639, Note_off_c, 6, 78, 931, 293639, Note_off_c, 6, 83, 981, 293639, Note_off_c, 9, 42, 1271, 293639, Note_off_c, 9, 36, 931, 293639, Note_off_c, 14, 52, 1021, 293640, Note_on_c, 1, 28, 1191, 293640, Note_on_c, 2, 52, 1131, 293640, Note_on_c, 3, 71, 731, 293640, Note_on_c, 3, 64, 681, 293640, Note_on_c, 6, 76, 891, 293640, Note_on_c, 9, 36, 891, 293675, Note_off_c, 0, 59, 951, 293694, Note_off_c, 0, 76, 851, 293710, Note_off_c, 0, 80, 801, 293719, Note_off_c, 2, 52, 1131, 293738, Note_off_c, 1, 28, 1191, 293758, Note_off_c, 3, 71, 731, 293759, Note_off_c, 6, 76, 891, 293760, Note_on_c, 6, 78, 761, 293760, Note_on_c, 6, 83, 851, 293760, Note_on_c, 9, 42, 1271, 293878, Note_off_c, 3, 64, 681, 293879, Note_off_c, 6, 78, 761, 293879, Note_off_c, 6, 83, 851, 293879, Note_off_c, 9, 42, 1271, 293880, Note_on_c, 6, 76, 1071, 293881, Note_on_c, 3, 64, 751, 293999, Note_off_c, 6, 76, 1071, 293999, Note_off_c, 14, 50, 1071, 294000, Note_off_c, 3, 64, 751, 294000, Note_on_c, 3, 66, 661, 294000, Note_on_c, 6, 78, 891, 294000, Note_on_c, 6, 83, 931, 294000, Note_on_c, 9, 42, 1271, 294000, Note_on_c, 14, 54, 931, 294119, Note_off_c, 3, 66, 661, 294119, Note_off_c, 6, 78, 891, 294119, Note_off_c, 6, 83, 931, 294119, Note_off_c, 9, 36, 891, 294119, Note_off_c, 9, 42, 1271, 294120, Note_on_c, 3, 64, 721, 294240, Note_on_c, 6, 83, 1071, 294240, Note_on_c, 6, 78, 931, 294240, Note_on_c, 9, 38, 1131, 294240, Note_on_c, 9, 42, 1271, 294243, Note_on_c, 0, 66, 971, 294249, Note_on_c, 0, 85, 761, 294333, Control_c, 14, 1, 1
1, 294352, Control_c, 14, 1, 7
1, 294358, Note_off_c, 3, 64, 721, 294359, Note_off_c, 9, 42, 1271, 294360, Note_on_c, 3, 64, 851, 294382, Control_c, 14, 1, 17
1, 294401, Control_c, 14, 1, 24
1, 294421, Control_c, 14, 1, 37
1, 294441, Control_c, 14, 1, 42
1, 294451, Control_c, 14, 1, 51
1, 294470, Control_c, 14, 1, 58
1, 294478, Note_off_c, 3, 64, 851, 294478, Note_on_c, 3, 66, 811, 294479, Note_off_c, 6, 83, 1071, 294479, Note_off_c, 6, 78, 931, 294480, Control_c, 14, 1, 68
1, 294480, Note_on_c, 6, 76, 981, 294480, Note_on_c, 9, 42, 1271, 294500, Control_c, 14, 1, 78
1, 294510, Control_c, 14, 1, 86
1, 294529, Control_c, 14, 1, 95
1, 294539, Control_c, 14, 1, 105
1, 294549, Control_c, 14, 1, 113
1, 294569, Control_c, 14, 1, 125
1, 294595, Note_off_c, 3, 66, 811, 294598, Control_c, 14, 1, 127
1, 294599, Note_off_c, 9, 38, 1131, 294599, Note_off_c, 9, 42, 1271, 294600, Note_on_c, 3, 64, 701, 294667, Control_c, 14, 1, 111
1, 294675, Note_off_c, 0, 85, 761, 294687, Control_c, 14, 1, 90
1, 294691, Note_off_c, 0, 66, 971, 294697, Control_c, 14, 1, 61
1, 294705, Note_on_c, 0, 64, 1001, 294716, Control_c, 14, 1, 16
1, 294718, Note_off_c, 3, 64, 701, 294719, Note_off_c, 6, 76, 981, 294719, Note_off_c, 14, 54, 931, 294720, Note_on_c, 1, 28, 1131, 294720, Note_on_c, 2, 52, 1191, 294720, Note_on_c, 3, 71, 761, 294720, Note_on_c, 6, 78, 931, 294720, Note_on_c, 6, 83, 931, 294720, Note_on_c, 9, 36, 981, 294720, Note_on_c, 9, 42, 1271, 294720, Note_on_c, 14, 52, 981, 294724, Note_on_c, 0, 83, 781, 294725, Control_c, 3, 7, 3
1, 294726, Control_c, 14, 1, 0
1, 294789, Note_off_c, 1, 28, 1131, 294808, Note_off_c, 2, 52, 1191, 294838, Note_off_c, 3, 71, 761, 294839, Note_off_c, 6, 78, 931, 294839, Note_off_c, 6, 83, 931, 294839, Note_off_c, 9, 36, 981, 294839, Note_off_c, 9, 42, 1271, 294840, Note_on_c, 1, 28, 1071, 294840, Note_on_c, 2, 52, 1131, 294840, Note_on_c, 6, 76, 851, 294840, Note_on_c, 9, 36, 931, 294841, Note_on_c, 3, 64, 811, 294909, Note_off_c, 2, 52, 1131, 294938, Note_off_c, 1, 28, 1071, 294959, Note_off_c, 3, 64, 811, 294959, Note_on_c, 3, 66, 871, 294959, Note_off_c, 6, 76, 851, 294960, Note_on_c, 6, 78, 721, 294960, Note_on_c, 6, 83, 571, 294960, Note_on_c, 9, 42, 1271, 295078, Note_off_c, 3, 66, 871, 295079, Note_off_c, 6, 78, 721, 295079, Note_off_c, 6, 83, 571, 295079, Note_off_c, 9, 36, 931, 295079, Note_off_c, 9, 42, 1271, 295080, Note_on_c, 3, 64, 771, 295080, Note_on_c, 6, 76, 981, 295080, Note_on_c, 9, 54, 831, 295198, Note_off_c, 9, 54, 831, 295199, Note_off_c, 6, 76, 981, 295200, Note_on_c, 6, 78, 1021, 295200, Note_on_c, 6, 83, 1131, 295200, Note_on_c, 9, 54, 1271, 295200, Note_on_c, 9, 38, 1131, 295200, Note_on_c, 9, 42, 1271, 295318, Note_off_c, 3, 64, 771, 295318, Note_off_c, 9, 54, 1271, 295319, Note_off_c, 6, 78, 1021, 295319, Note_off_c, 6, 83, 1131, 295319, Note_off_c, 9, 38, 1131, 295319, Note_off_c, 9, 42, 1271, 295321, Note_on_c, 3, 64, 951, 295427, Note_off_c, 0, 83, 781, 295428, Note_off_c, 0, 64, 1001, 295439, Note_off_c, 3, 64, 951, 295440, Note_on_c, 1, 28, 981, 295440, Note_on_c, 2, 52, 1271, 295440, Note_on_c, 3, 66, 891, 295440, Note_on_c, 6, 78, 931, 295440, Note_on_c, 6, 83, 1021, 295440, Note_on_c, 9, 42, 1271, 295440, Note_on_c, 9, 36, 1071, 295441, Note_on_c, 0, 80, 801, 295442, Control_c, 3, 7, 0
1, 295449, Note_on_c, 0, 59, 951, 295499, Note_off_c, 1, 28, 981, 295519, Note_off_c, 2, 52, 1271, 295558, Note_off_c, 3, 66, 891, 295559, Note_off_c, 6, 78, 931, 295559, Note_off_c, 6, 83, 1021, 295559, Note_off_c, 9, 42, 1271, 295559, Note_off_c, 9, 36, 1071, 295560, Note_on_c, 1, 28, 1131, 295560, Note_on_c, 2, 52, 1191, 295560, Note_on_c, 3, 71, 791, 295560, Note_on_c, 3, 64, 791, 295560, Note_on_c, 6, 76, 1021, 295560, Note_on_c, 9, 36, 1021, 295638, Note_off_c, 2, 52, 1191, 295659, Note_off_c, 1, 28, 1131, 295678, Note_off_c, 3, 71, 791, 295679, Note_off_c, 6, 76, 1021, 295680, Note_on_c, 6, 83, 891, 295680, Note_on_c, 6, 78, 681, 295680, Note_on_c, 9, 42, 1271, 295720, Control_c, 14, 1, 6
1, 295759, Control_c, 14, 1, 11
1, 295798, Note_off_c, 3, 64, 791, 295799, Control_c, 14, 1, 16
1, 295799, Note_off_c, 6, 83, 891, 295799, Note_off_c, 6, 78, 681, 295799, Note_off_c, 9, 42, 1271, 295800, Note_on_c, 6, 76, 1021, 295801, Note_on_c, 3, 64, 921, 295918, Note_off_c, 3, 64, 921, 295918, Note_on_c, 3, 66, 851, 295919, Note_off_c, 6, 76, 1021, 295920, Note_on_c, 6, 83, 981, 295920, Note_on_c, 6, 78, 891, 295920, Note_on_c, 9, 42, 1271, 295927, Control_c, 14, 1, 21
1, 296036, Note_off_c, 3, 66, 851, 296039, Note_off_c, 6, 83, 981, 296039, Note_off_c, 6, 78, 891, 296039, Note_off_c, 9, 36, 1021, 296039, Note_off_c, 9, 42, 1271, 296040, Note_on_c, 3, 64, 651, 296094, Control_c, 14, 1, 26
1, 296160, Note_on_c, 6, 83, 1071, 296160, Note_on_c, 6, 78, 1071, 296160, Note_on_c, 7, 64, 1071, 296160, Note_on_c, 9, 38, 1071, 296160, Note_on_c, 9, 42, 1271, 296183, Control_c, 14, 1, 31
1, 296251, Control_c, 14, 1, 36
1, 296278, Note_off_c, 3, 64, 651, 296279, Note_off_c, 9, 42, 1271, 296280, Note_on_c, 3, 64, 941, 296398, Note_off_c, 3, 64, 941, 296398, Note_on_c, 3, 66, 811, 296399, Note_off_c, 6, 83, 1071, 296399, Note_off_c, 6, 78, 1071, 296400, Note_on_c, 6, 76, 1021, 296400, Note_on_c, 9, 42, 1271, 296516, Note_off_c, 3, 66, 811, 296519, Note_off_c, 7, 64, 1071, 296519, Note_off_c, 9, 38, 1071, 296519, Note_off_c, 9, 42, 1271, 296520, Note_on_c, 3, 64, 611, 296547, Control_c, 14, 1, 41
1, 296639, Note_off_c, 6, 76, 1021, 296640, Note_on_c, 1, 28, 1131, 296640, Note_on_c, 2, 52, 1271, 296640, Note_on_c, 3, 71, 811, 296640, Note_on_c, 6, 83, 1071, 296640, Note_on_c, 6, 78, 931, 296640, Note_on_c, 7, 68, 981, 296640, Note_on_c, 9, 36, 1071, 296640, Note_on_c, 9, 42, 1271, 296709, Note_off_c, 2, 52, 1271, 296718, Control_c, 3, 7, 15
1, 296718, Control_c, 14, 7, 15
1, 296719, Note_off_c, 1, 28, 1131, 296758, Note_off_c, 3, 71, 811, 296758, Note_off_c, 3, 64, 611, 296759, Note_off_c, 6, 83, 1071, 296759, Note_off_c, 6, 78, 931, 296759, Note_off_c, 9, 36, 1071, 296759, Note_off_c, 9, 42, 1271, 296760, Note_on_c, 1, 28, 931, 296760, Note_on_c, 2, 52, 1021, 296760, Note_on_c, 3, 64, 841, 296760, Note_on_c, 6, 76, 891, 296760, Note_on_c, 9, 36, 981, 296763, Control_c, 14, 1, 46
1, 296800, Control_c, 1, 7, 13
1, 296800, Control_c, 7, 7, 13
1, 296848, Note_off_c, 2, 52, 1021, 296859, Note_off_c, 1, 28, 931, 296878, Note_on_c, 3, 66, 791, 296879, Note_off_c, 3, 64, 841, 296879, Note_off_c, 6, 76, 891, 296880, Note_on_c, 6, 78, 721, 296880, Note_on_c, 6, 83, 571, 296880, Note_on_c, 9, 42, 1271, 296920, Control_c, 6, 7, 13
1, 296950, Control_c, 14, 1, 51
1, 296997, Note_off_c, 3, 66, 791, 296999, Note_off_c, 6, 78, 721, 296999, Note_off_c, 6, 83, 571, 296999, Note_off_c, 9, 36, 981, 296999, Note_off_c, 9, 42, 1271, 297000, Note_on_c, 3, 64, 711, 297000, Note_on_c, 6, 76, 1021, 297000, Note_on_c, 9, 54, 831, 297040, Control_c, 9, 7, 13
1, 297078, Control_c, 0, 7, 15
1, 297084, Pitch_bend_c, 7, 8623
1, 297104, Pitch_bend_c, 7, 9486
1, 297114, Pitch_bend_c, 7, 10134
1, 297118, Note_off_c, 9, 54, 831, 297119, Note_off_c, 6, 76, 1021, 297120, Note_on_c, 6, 83, 1021, 297120, Note_on_c, 6, 78, 981, 297120, Note_on_c, 9, 54, 1271, 297120, Note_on_c, 9, 42, 1271, 297120, Note_on_c, 9, 38, 1071, 297133, Pitch_bend_c, 7, 10853
1, 297143, Pitch_bend_c, 7, 11644
1, 297153, Pitch_bend_c, 7, 12148
1, 297160, Control_c, 14, 7, 13
1, 297160, Control_c, 3, 7, 13
1, 297173, Pitch_bend_c, 7, 12723
1, 297183, Control_c, 1, 7, 10
1, 297183, Control_c, 7, 7, 10
1, 297183, Pitch_bend_c, 7, 13227
1, 297198, Control_c, 2, 7, 15
1, 297202, Pitch_bend_c, 7, 13442
1, 297212, Pitch_bend_c, 7, 13658
1, 297238, Note_off_c, 3, 64, 711, 297238, Note_off_c, 9, 54, 1271, 297239, Note_off_c, 6, 83, 1021, 297239, Note_off_c, 6, 78, 981, 297239, Note_off_c, 9, 42, 1271, 297239, Note_off_c, 9, 38, 1071, 297241, Note_on_c, 3, 64, 871, 297261, Pitch_bend_c, 7, 13298
1, 297271, Pitch_bend_c, 7, 12939
1, 297291, Pitch_bend_c, 7, 12148
1, 297301, Pitch_bend_c, 7, 11500
1, 297303, Control_c, 6, 7, 10
1, 297320, Pitch_bend_c, 7, 10565
1, 297330, Pitch_bend_c, 7, 9486
1, 297340, Pitch_bend_c, 7, 8192
1, 297359, Note_off_c, 3, 64, 871, 297360, Note_on_c, 1, 28, 1071, 297360, Note_on_c, 2, 52, 1191, 297360, Note_on_c, 6, 78, 931, 297360, Note_on_c, 6, 83, 931, 297360, Note_on_c, 9, 36, 981, 297360, Note_on_c, 9, 42, 1271, 297361, Note_on_c, 3, 66, 621, 297419, Note_off_c, 1, 28, 1071, 297423, Control_c, 9, 7, 10
1, 297449, Note_off_c, 2, 52, 1191, 297479, Note_off_c, 3, 66, 621, 297479, Note_off_c, 6, 78, 931, 297479, Note_off_c, 6, 83, 931, 297479, Note_off_c, 9, 36, 981, 297479, Note_off_c, 9, 42, 1271, 297480, Note_on_c, 1, 28, 1131, 297480, Note_on_c, 2, 52, 1191, 297480, Note_on_c, 3, 71, 731, 297480, Note_on_c, 3, 64, 681, 297480, Note_on_c, 6, 76, 931, 297480, Note_on_c, 9, 36, 981, 297515, Note_off_c, 0, 59, 951, 297517, Control_c, 1, 7, 8
1, 297517, Control_c, 7, 7, 8
1, 297520, Control_c, 0, 7, 13
1, 297543, Control_c, 14, 7, 10
1, 297543, Control_c, 3, 7, 10
1, 297555, Note_off_c, 0, 80, 801, 297569, Note_off_c, 1, 28, 1131, 297569, Note_off_c, 2, 52, 1191, 297598, Note_off_c, 3, 71, 731, 297599, Note_off_c, 6, 76, 931, 297600, Note_on_c, 6, 78, 801, 297600, Note_on_c, 6, 83, 891, 297600, Note_on_c, 9, 42, 1271, 297637, Control_c, 6, 7, 8
1, 297640, Control_c, 2, 7, 13
1, 297718, Note_off_c, 3, 64, 681, 297719, Note_off_c, 6, 78, 801, 297719, Note_off_c, 6, 83, 891, 297719, Note_off_c, 9, 42, 1271, 297720, Note_on_c, 6, 76, 931, 297721, Note_on_c, 3, 64, 751, 297757, Control_c, 9, 7, 8
1, 297778, Control_c, 1, 7, 5
1, 297778, Control_c, 7, 7, 5
1, 297839, Note_off_c, 6, 76, 931, 297839, Note_off_c, 7, 68, 981, 297840, Note_off_c, 3, 64, 751, 297840, Note_on_c, 3, 66, 661, 297840, Note_on_c, 6, 83, 931, 297840, Note_on_c, 6, 78, 891, 297840, Note_on_c, 7, 64, 891, 297840, Note_on_c, 9, 42, 1271, 297877, Control_c, 14, 7, 8
1, 297877, Control_c, 3, 7, 8
1, 297898, Control_c, 6, 7, 5
1, 297903, Control_c, 0, 7, 10
1, 297959, Note_off_c, 3, 66, 661, 297959, Note_off_c, 6, 83, 931, 297959, Note_off_c, 6, 78, 891, 297959, Note_off_c, 9, 36, 981, 297959, Note_off_c, 9, 42, 1271, 297960, Note_on_c, 3, 64, 721, 297993, Control_c, 14, 1, 56
1, 298018, Control_c, 9, 7, 5
1, 298023, Control_c, 2, 7, 10
1, 298078, Control_c, 7, 1, 4
1, 298080, Note_on_c, 6, 78, 1021, 298080, Note_on_c, 6, 83, 1071, 298080, Note_on_c, 9, 38, 1071, 298080, Note_on_c, 9, 42, 1271, 298083, Note_on_c, 0, 66, 971, 298088, Control_c, 7, 1, 11
1, 298089, Note_on_c, 0, 85, 761, 298092, Note_on_c, 0, 76, 891, 298108, Control_c, 7, 1, 17
1, 298117, Control_c, 7, 1, 24
1, 298137, Control_c, 7, 1, 32
1, 298138, Control_c, 14, 7, 5
1, 298138, Control_c, 3, 7, 5
1, 298147, Control_c, 7, 1, 39
1, 298167, Control_c, 7, 1, 48
1, 298176, Control_c, 7, 1, 56
1, 298196, Control_c, 7, 1, 63
1, 298198, Note_off_c, 3, 64, 721, 298199, Note_off_c, 9, 42, 1271, 298200, Note_on_c, 3, 64, 851, 298206, Control_c, 7, 1, 69
1, 298210, Control_c, 14, 1, 51
1, 298235, Control_c, 7, 1, 78
1, 298237, Control_c, 0, 7, 8
1, 298275, Control_c, 7, 1, 84
1, 298308, Control_c, 14, 1, 56
1, 298318, Note_off_c, 3, 64, 851, 298318, Note_on_c, 3, 66, 811, 298319, Note_off_c, 6, 78, 1021, 298319, Note_off_c, 6, 83, 1071, 298320, Note_on_c, 6, 76, 931, 298320, Note_on_c, 9, 42, 1271, 298357, Control_c, 2, 7, 8
1, 298387, Control_c, 14, 1, 61
1, 298435, Note_off_c, 3, 66, 811, 298439, Note_off_c, 9, 38, 1071, 298439, Note_off_c, 9, 42, 1271, 298439, Note_off_c, 14, 52, 981, 298440, Note_on_c, 3, 64, 701, 298465, Control_c, 14, 1, 56
1, 298485, Control_c, 14, 1, 42
1, 298495, Control_c, 14, 1, 27
1, 298498, Control_c, 0, 7, 5
1, 298501, Control_c, 7, 1, 78
1, 298514, Note_off_c, 0, 76, 891, 298515, Control_c, 14, 1, 6
1, 298515, Note_off_c, 0, 85, 761, 298524, Control_c, 14, 1, 0
1, 298531, Note_off_c, 0, 66, 971, 298541, Control_c, 7, 1, 64
1, 298550, Control_c, 7, 1, 53
1, 298558, Note_off_c, 3, 64, 701, 298559, Note_off_c, 6, 76, 931, 298559, Note_off_c, 7, 64, 891, 298560, End_track
0, 0, End_of_file